<?xml version="1.0" encoding="UTF-8" standalone="no"?>
<!DOCTYPE svg PUBLIC "-//W3C//DTD SVG 1.1//EN"
 "http://www.w3.org/Graphics/SVG/1.1/DTD/svg11.dtd">
<!-- Generated by graphviz version 2.49.1 (20210923.0004)
 -->
<!-- Title: synthdef_0d296187bbdb205f3a283f301a5fad61 Pages: 1 -->
<svg width="331pt" height="84pt"
 viewBox="0.00 0.00 331.00 84.00" xmlns="http://www.w3.org/2000/svg" xmlns:xlink="http://www.w3.org/1999/xlink">
<g id="graph0" class="graph" transform="scale(1 1) rotate(0) translate(4 80)">
<title>synthdef_0d296187bbdb205f3a283f301a5fad61</title>
<!-- ugen_0&#45;&gt;ugen_1 -->
<g id="edge1" class="edge">
<title>ugen_0:e&#45;&gt;ugen_1:w</title>
<path fill="none" stroke="steelblue" stroke-width="2" d="M96,-17.5C124.38,-17.5 133.88,-17.5 157.98,-17.5"/>
<polygon fill="steelblue" stroke="steelblue" stroke-width="2" points="158,-21 168,-17.5 158,-14 158,-21"/>
</g>
<!-- ugen_0 -->
<g id="node1" class="node">
<title>ugen_0</title>
<path fill="#bcd2ee" stroke="black" stroke-width="2" d="M12,-0.5C12,-0.5 84,-0.5 84,-0.5 90,-0.5 96,-6.5 96,-12.5 96,-12.5 96,-56.5 96,-56.5 96,-62.5 90,-68.5 84,-68.5 84,-68.5 12,-68.5 12,-68.5 6,-68.5 0,-62.5 0,-56.5 0,-56.5 0,-12.5 0,-12.5 0,-6.5 6,-0.5 12,-0.5"/>
<text text-anchor="middle" x="48" y="-54.9" font-family="Arial" font-size="12.00">LFNoise2</text>
<text text-anchor="middle" x="48" y="-41.9" font-family="Arial" font-size="12.00">(audio)</text>
<polyline fill="none" stroke="black" stroke-width="2" points="0,-34.5 96,-34.5 "/>
<text text-anchor="middle" x="36.5" y="-20.9" font-family="Arial" font-size="12.00">frequency:</text>
<text text-anchor="middle" x="36.5" y="-7.9" font-family="Arial" font-size="12.00">500.0</text>
<polyline fill="none" stroke="black" stroke-width="2" points="73,-0.5 73,-34.5 "/>
<text text-anchor="middle" x="84.5" y="-14.4" font-family="Arial" font-size="12.00">0</text>
</g>
<!-- ugen_1 -->
<g id="node2" class="node">
<title>ugen_1</title>
<path fill="#bcd2ee" stroke="black" stroke-width="2" d="M180,-7.5C180,-7.5 311,-7.5 311,-7.5 317,-7.5 323,-13.5 323,-19.5 323,-19.5 323,-63.5 323,-63.5 323,-69.5 317,-75.5 311,-75.5 311,-75.5 180,-75.5 180,-75.5 174,-75.5 168,-69.5 168,-63.5 168,-63.5 168,-19.5 168,-19.5 168,-13.5 174,-7.5 180,-7.5"/>
<text text-anchor="middle" x="245.5" y="-61.9" font-family="Arial" font-size="12.00">UnaryOpUGen</text>
<text text-anchor="middle" x="245.5" y="-48.9" font-family="Arial" font-size="12.00">[RECTANGLE_WINDOW]</text>
<text text-anchor="middle" x="245.5" y="-35.9" font-family="Arial" font-size="12.00">(audio)</text>
<polyline fill="none" stroke="black" stroke-width="2" points="168,-28.5 323,-28.5 "/>
<text text-anchor="middle" x="214" y="-14.9" font-family="Arial" font-size="12.00">source</text>
<polyline fill="none" stroke="black" stroke-width="2" points="260,-7.5 260,-28.5 "/>
<text text-anchor="middle" x="291.5" y="-14.9" font-family="Arial" font-size="12.00">0</text>
</g>
</g>
</svg>
