<?xml version="1.0" encoding="UTF-8" standalone="no"?>
<!DOCTYPE svg PUBLIC "-//W3C//DTD SVG 1.1//EN"
 "http://www.w3.org/Graphics/SVG/1.1/DTD/svg11.dtd">
<!-- Generated by graphviz version 2.49.1 (20210923.0004)
 -->
<!-- Title: synthdef_e5dfc1d4ecb11ed8170aaf11469a6443 Pages: 1 -->
<svg width="272pt" height="353pt"
 viewBox="0.00 0.00 272.00 353.00" xmlns="http://www.w3.org/2000/svg" xmlns:xlink="http://www.w3.org/1999/xlink">
<g id="graph0" class="graph" transform="scale(1 1) rotate(0) translate(4 349)">
<title>synthdef_e5dfc1d4ecb11ed8170aaf11469a6443</title>
<!-- ugen_0&#45;&gt;ugen_1 -->
<g id="edge1" class="edge">
<title>ugen_0:e&#45;&gt;ugen_1:w</title>
<path fill="none" stroke="steelblue" stroke-width="2" d="M96,-34.5C124.38,-34.5 133.88,-34.5 157.98,-34.5"/>
<polygon fill="steelblue" stroke="steelblue" stroke-width="2" points="158,-38 168,-34.5 158,-31 158,-38"/>
</g>
<!-- ugen_2&#45;&gt;ugen_3 -->
<g id="edge2" class="edge">
<title>ugen_2:e&#45;&gt;ugen_3:w</title>
<path fill="none" stroke="steelblue" stroke-width="2" d="M96,-155.5C124.38,-155.5 133.88,-155.5 157.98,-155.5"/>
<polygon fill="steelblue" stroke="steelblue" stroke-width="2" points="158,-159 168,-155.5 158,-152 158,-159"/>
</g>
<!-- ugen_4&#45;&gt;ugen_5 -->
<g id="edge3" class="edge">
<title>ugen_4:e&#45;&gt;ugen_5:w</title>
<path fill="none" stroke="steelblue" stroke-width="2" d="M96,-276.5C124.38,-276.5 133.88,-276.5 157.98,-276.5"/>
<polygon fill="steelblue" stroke="steelblue" stroke-width="2" points="158,-280 168,-276.5 158,-273 158,-280"/>
</g>
<!-- ugen_0 -->
<g id="node1" class="node">
<title>ugen_0</title>
<path fill="#bcd2ee" stroke="black" stroke-width="2" d="M12,-0.5C12,-0.5 84,-0.5 84,-0.5 90,-0.5 96,-6.5 96,-12.5 96,-12.5 96,-90.5 96,-90.5 96,-96.5 90,-102.5 84,-102.5 84,-102.5 12,-102.5 12,-102.5 6,-102.5 0,-96.5 0,-90.5 0,-90.5 0,-12.5 0,-12.5 0,-6.5 6,-0.5 12,-0.5"/>
<text text-anchor="middle" x="48" y="-88.9" font-family="Arial" font-size="12.00">SinOsc</text>
<text text-anchor="middle" x="48" y="-75.9" font-family="Arial" font-size="12.00">(audio)</text>
<polyline fill="none" stroke="black" stroke-width="2" points="0,-68.5 96,-68.5 "/>
<text text-anchor="middle" x="36.5" y="-54.9" font-family="Arial" font-size="12.00">frequency:</text>
<text text-anchor="middle" x="36.5" y="-41.9" font-family="Arial" font-size="12.00">440.0</text>
<polyline fill="none" stroke="black" stroke-width="2" points="0,-34.5 73,-34.5 "/>
<text text-anchor="middle" x="36.5" y="-20.9" font-family="Arial" font-size="12.00">phase:</text>
<text text-anchor="middle" x="36.5" y="-7.9" font-family="Arial" font-size="12.00">0.0</text>
<polyline fill="none" stroke="black" stroke-width="2" points="73,-0.5 73,-68.5 "/>
<text text-anchor="middle" x="84.5" y="-31.4" font-family="Arial" font-size="12.00">0</text>
</g>
<!-- ugen_1 -->
<g id="node2" class="node">
<title>ugen_1</title>
<path fill="#bcd2ee" stroke="black" stroke-width="2" d="M180,-24.5C180,-24.5 252,-24.5 252,-24.5 258,-24.5 264,-30.5 264,-36.5 264,-36.5 264,-80.5 264,-80.5 264,-86.5 258,-92.5 252,-92.5 252,-92.5 180,-92.5 180,-92.5 174,-92.5 168,-86.5 168,-80.5 168,-80.5 168,-36.5 168,-36.5 168,-30.5 174,-24.5 180,-24.5"/>
<text text-anchor="middle" x="216" y="-78.9" font-family="Arial" font-size="12.00">UnaryOpUGen</text>
<text text-anchor="middle" x="216" y="-65.9" font-family="Arial" font-size="12.00">[NEGATIVE]</text>
<text text-anchor="middle" x="216" y="-52.9" font-family="Arial" font-size="12.00">(audio)</text>
<polyline fill="none" stroke="black" stroke-width="2" points="168,-45.5 264,-45.5 "/>
<text text-anchor="middle" x="199.5" y="-31.9" font-family="Arial" font-size="12.00">source</text>
<polyline fill="none" stroke="black" stroke-width="2" points="231,-24.5 231,-45.5 "/>
<text text-anchor="middle" x="247.5" y="-31.9" font-family="Arial" font-size="12.00">0</text>
</g>
<!-- ugen_2 -->
<g id="node3" class="node">
<title>ugen_2</title>
<path fill="#bcd2ee" stroke="black" stroke-width="2" d="M12,-121.5C12,-121.5 84,-121.5 84,-121.5 90,-121.5 96,-127.5 96,-133.5 96,-133.5 96,-211.5 96,-211.5 96,-217.5 90,-223.5 84,-223.5 84,-223.5 12,-223.5 12,-223.5 6,-223.5 0,-217.5 0,-211.5 0,-211.5 0,-133.5 0,-133.5 0,-127.5 6,-121.5 12,-121.5"/>
<text text-anchor="middle" x="48" y="-209.9" font-family="Arial" font-size="12.00">SinOsc</text>
<text text-anchor="middle" x="48" y="-196.9" font-family="Arial" font-size="12.00">(audio)</text>
<polyline fill="none" stroke="black" stroke-width="2" points="0,-189.5 96,-189.5 "/>
<text text-anchor="middle" x="36.5" y="-175.9" font-family="Arial" font-size="12.00">frequency:</text>
<text text-anchor="middle" x="36.5" y="-162.9" font-family="Arial" font-size="12.00">442.0</text>
<polyline fill="none" stroke="black" stroke-width="2" points="0,-155.5 73,-155.5 "/>
<text text-anchor="middle" x="36.5" y="-141.9" font-family="Arial" font-size="12.00">phase:</text>
<text text-anchor="middle" x="36.5" y="-128.9" font-family="Arial" font-size="12.00">0.0</text>
<polyline fill="none" stroke="black" stroke-width="2" points="73,-121.5 73,-189.5 "/>
<text text-anchor="middle" x="84.5" y="-152.4" font-family="Arial" font-size="12.00">0</text>
</g>
<!-- ugen_3 -->
<g id="node4" class="node">
<title>ugen_3</title>
<path fill="#bcd2ee" stroke="black" stroke-width="2" d="M180,-145.5C180,-145.5 252,-145.5 252,-145.5 258,-145.5 264,-151.5 264,-157.5 264,-157.5 264,-201.5 264,-201.5 264,-207.5 258,-213.5 252,-213.5 252,-213.5 180,-213.5 180,-213.5 174,-213.5 168,-207.5 168,-201.5 168,-201.5 168,-157.5 168,-157.5 168,-151.5 174,-145.5 180,-145.5"/>
<text text-anchor="middle" x="216" y="-199.9" font-family="Arial" font-size="12.00">UnaryOpUGen</text>
<text text-anchor="middle" x="216" y="-186.9" font-family="Arial" font-size="12.00">[NEGATIVE]</text>
<text text-anchor="middle" x="216" y="-173.9" font-family="Arial" font-size="12.00">(audio)</text>
<polyline fill="none" stroke="black" stroke-width="2" points="168,-166.5 264,-166.5 "/>
<text text-anchor="middle" x="199.5" y="-152.9" font-family="Arial" font-size="12.00">source</text>
<polyline fill="none" stroke="black" stroke-width="2" points="231,-145.5 231,-166.5 "/>
<text text-anchor="middle" x="247.5" y="-152.9" font-family="Arial" font-size="12.00">0</text>
</g>
<!-- ugen_4 -->
<g id="node5" class="node">
<title>ugen_4</title>
<path fill="#bcd2ee" stroke="black" stroke-width="2" d="M12,-242.5C12,-242.5 84,-242.5 84,-242.5 90,-242.5 96,-248.5 96,-254.5 96,-254.5 96,-332.5 96,-332.5 96,-338.5 90,-344.5 84,-344.5 84,-344.5 12,-344.5 12,-344.5 6,-344.5 0,-338.5 0,-332.5 0,-332.5 0,-254.5 0,-254.5 0,-248.5 6,-242.5 12,-242.5"/>
<text text-anchor="middle" x="48" y="-330.9" font-family="Arial" font-size="12.00">SinOsc</text>
<text text-anchor="middle" x="48" y="-317.9" font-family="Arial" font-size="12.00">(audio)</text>
<polyline fill="none" stroke="black" stroke-width="2" points="0,-310.5 96,-310.5 "/>
<text text-anchor="middle" x="36.5" y="-296.9" font-family="Arial" font-size="12.00">frequency:</text>
<text text-anchor="middle" x="36.5" y="-283.9" font-family="Arial" font-size="12.00">443.0</text>
<polyline fill="none" stroke="black" stroke-width="2" points="0,-276.5 73,-276.5 "/>
<text text-anchor="middle" x="36.5" y="-262.9" font-family="Arial" font-size="12.00">phase:</text>
<text text-anchor="middle" x="36.5" y="-249.9" font-family="Arial" font-size="12.00">0.0</text>
<polyline fill="none" stroke="black" stroke-width="2" points="73,-242.5 73,-310.5 "/>
<text text-anchor="middle" x="84.5" y="-273.4" font-family="Arial" font-size="12.00">0</text>
</g>
<!-- ugen_5 -->
<g id="node6" class="node">
<title>ugen_5</title>
<path fill="#bcd2ee" stroke="black" stroke-width="2" d="M180,-266.5C180,-266.5 252,-266.5 252,-266.5 258,-266.5 264,-272.5 264,-278.5 264,-278.5 264,-322.5 264,-322.5 264,-328.5 258,-334.5 252,-334.5 252,-334.5 180,-334.5 180,-334.5 174,-334.5 168,-328.5 168,-322.5 168,-322.5 168,-278.5 168,-278.5 168,-272.5 174,-266.5 180,-266.5"/>
<text text-anchor="middle" x="216" y="-320.9" font-family="Arial" font-size="12.00">UnaryOpUGen</text>
<text text-anchor="middle" x="216" y="-307.9" font-family="Arial" font-size="12.00">[NEGATIVE]</text>
<text text-anchor="middle" x="216" y="-294.9" font-family="Arial" font-size="12.00">(audio)</text>
<polyline fill="none" stroke="black" stroke-width="2" points="168,-287.5 264,-287.5 "/>
<text text-anchor="middle" x="199.5" y="-273.9" font-family="Arial" font-size="12.00">source</text>
<polyline fill="none" stroke="black" stroke-width="2" points="231,-266.5 231,-287.5 "/>
<text text-anchor="middle" x="247.5" y="-273.9" font-family="Arial" font-size="12.00">0</text>
</g>
</g>
</svg>
