<?xml version="1.0" encoding="UTF-8" standalone="no"?>
<!DOCTYPE svg PUBLIC "-//W3C//DTD SVG 1.1//EN"
 "http://www.w3.org/Graphics/SVG/1.1/DTD/svg11.dtd">
<!-- Generated by graphviz version 2.40.1 (20161225.0304)
 -->
<!-- Title: synthdef_c481c3d42e3cfcee0267250247dab51f Pages: 1 -->
<svg width="535pt" height="319pt"
 viewBox="0.00 0.00 535.00 319.00" xmlns="http://www.w3.org/2000/svg" xmlns:xlink="http://www.w3.org/1999/xlink">
<g id="graph0" class="graph" transform="scale(1 1) rotate(0) translate(4 315)">
<title>synthdef_c481c3d42e3cfcee0267250247dab51f</title>
<!-- ugen_0&#45;&gt;ugen_1 -->
<g id="edge1" class="edge">
<title>ugen_0:e&#45;&gt;ugen_1:w</title>
<path fill="none" stroke="#4682b4" stroke-width="2" d="M81,-165.5C109.375,-165.5 118.8795,-165.5 142.9792,-165.5"/>
<polygon fill="#4682b4" stroke="#4682b4" stroke-width="2" points="143,-169.0001 153,-165.5 143,-162.0001 143,-169.0001"/>
</g>
<!-- ugen_1&#45;&gt;ugen_2 -->
<g id="edge2" class="edge">
<title>ugen_1:e&#45;&gt;ugen_2:w</title>
<path fill="none" stroke="#4682b4" stroke-width="2" d="M229,-165.5C275.7291,-165.5 255.2416,-240.0652 291.9932,-251.1334"/>
<polygon fill="#4682b4" stroke="#4682b4" stroke-width="2" points="291.6184,-254.6146 302,-252.5 292.5656,-247.679 291.6184,-254.6146"/>
</g>
<!-- ugen_1&#45;&gt;ugen_3 -->
<g id="edge3" class="edge">
<title>ugen_1:e&#45;&gt;ugen_3:w</title>
<path fill="none" stroke="#4682b4" stroke-width="2" d="M229,-165.5C257.375,-165.5 266.8795,-165.5 290.9792,-165.5"/>
<polygon fill="#4682b4" stroke="#4682b4" stroke-width="2" points="291,-169.0001 301,-165.5 291,-162.0001 291,-169.0001"/>
</g>
<!-- ugen_1&#45;&gt;ugen_5 -->
<g id="edge4" class="edge">
<title>ugen_1:e&#45;&gt;ugen_5:w</title>
<path fill="none" stroke="#4682b4" stroke-width="2" d="M229,-165.5C287.7894,-165.5 244.4343,-58.7088 290.8547,-45.777"/>
<polygon fill="#4682b4" stroke="#4682b4" stroke-width="2" points="291.5154,-49.2216 301,-44.5 290.6412,-42.2764 291.5154,-49.2216"/>
</g>
<!-- ugen_3&#45;&gt;ugen_4 -->
<g id="edge5" class="edge">
<title>ugen_3:e&#45;&gt;ugen_4:w</title>
<path fill="none" stroke="#4682b4" stroke-width="2" d="M379,-148.5C407.375,-148.5 416.8795,-148.5 440.9792,-148.5"/>
<polygon fill="#4682b4" stroke="#4682b4" stroke-width="2" points="441,-152.0001 451,-148.5 441,-145.0001 441,-152.0001"/>
</g>
<!-- ugen_5&#45;&gt;ugen_6 -->
<g id="edge6" class="edge">
<title>ugen_5:e&#45;&gt;ugen_6:w</title>
<path fill="none" stroke="#4682b4" stroke-width="2" d="M379,-27.5C407.375,-27.5 416.8795,-27.5 440.9792,-27.5"/>
<polygon fill="#4682b4" stroke="#4682b4" stroke-width="2" points="441,-31.0001 451,-27.5 441,-24.0001 441,-31.0001"/>
</g>
<!-- ugen_0 -->
<g id="node1" class="node">
<title>ugen_0</title>
<path fill="#bcd2ee" stroke="#000000" stroke-width="2" d="M12,-148.5C12,-148.5 69,-148.5 69,-148.5 75,-148.5 81,-154.5 81,-160.5 81,-160.5 81,-204.5 81,-204.5 81,-210.5 75,-216.5 69,-216.5 69,-216.5 12,-216.5 12,-216.5 6,-216.5 0,-210.5 0,-204.5 0,-204.5 0,-160.5 0,-160.5 0,-154.5 6,-148.5 12,-148.5"/>
<text text-anchor="middle" x="40.5" y="-202.9" font-family="Arial" font-size="12.00" fill="#000000">LFNoise2</text>
<text text-anchor="middle" x="40.5" y="-189.9" font-family="Arial" font-size="12.00" fill="#000000">(audio)</text>
<polyline fill="none" stroke="#000000" stroke-width="2" points="0,-182.5 81,-182.5 "/>
<text text-anchor="middle" x="29.5" y="-168.9" font-family="Arial" font-size="12.00" fill="#000000">frequency:</text>
<text text-anchor="middle" x="29.5" y="-155.9" font-family="Arial" font-size="12.00" fill="#000000">500.0</text>
<polyline fill="none" stroke="#000000" stroke-width="2" points="59,-148.5 59,-182.5 "/>
<text text-anchor="middle" x="70" y="-162.4" font-family="Arial" font-size="12.00" fill="#000000">0</text>
</g>
<!-- ugen_1 -->
<g id="node2" class="node">
<title>ugen_1</title>
<path fill="#bcd2ee" stroke="#000000" stroke-width="2" d="M165,-155.5C165,-155.5 217,-155.5 217,-155.5 223,-155.5 229,-161.5 229,-167.5 229,-167.5 229,-211.5 229,-211.5 229,-217.5 223,-223.5 217,-223.5 217,-223.5 165,-223.5 165,-223.5 159,-223.5 153,-217.5 153,-211.5 153,-211.5 153,-167.5 153,-167.5 153,-161.5 159,-155.5 165,-155.5"/>
<text text-anchor="middle" x="191" y="-209.9" font-family="Arial" font-size="12.00" fill="#000000">UnaryOpUGen</text>
<text text-anchor="middle" x="191" y="-196.9" font-family="Arial" font-size="12.00" fill="#000000">[HZ_TO_MIDI]</text>
<text text-anchor="middle" x="191" y="-183.9" font-family="Arial" font-size="12.00" fill="#000000">(audio)</text>
<polyline fill="none" stroke="#000000" stroke-width="2" points="153,-176.5 229,-176.5 "/>
<text text-anchor="middle" x="177.5" y="-162.9" font-family="Arial" font-size="12.00" fill="#000000">source</text>
<polyline fill="none" stroke="#000000" stroke-width="2" points="202,-155.5 202,-176.5 "/>
<text text-anchor="middle" x="215.5" y="-162.9" font-family="Arial" font-size="12.00" fill="#000000">0</text>
</g>
<!-- ugen_2 -->
<g id="node3" class="node">
<title>ugen_2</title>
<path fill="#bcd2ee" stroke="#000000" stroke-width="2" d="M314,-242.5C314,-242.5 366,-242.5 366,-242.5 372,-242.5 378,-248.5 378,-254.5 378,-254.5 378,-298.5 378,-298.5 378,-304.5 372,-310.5 366,-310.5 366,-310.5 314,-310.5 314,-310.5 308,-310.5 302,-304.5 302,-298.5 302,-298.5 302,-254.5 302,-254.5 302,-248.5 308,-242.5 314,-242.5"/>
<text text-anchor="middle" x="340" y="-296.9" font-family="Arial" font-size="12.00" fill="#000000">UnaryOpUGen</text>
<text text-anchor="middle" x="340" y="-283.9" font-family="Arial" font-size="12.00" fill="#000000">[MIDI_TO_HZ]</text>
<text text-anchor="middle" x="340" y="-270.9" font-family="Arial" font-size="12.00" fill="#000000">(audio)</text>
<polyline fill="none" stroke="#000000" stroke-width="2" points="302,-263.5 378,-263.5 "/>
<text text-anchor="middle" x="326.5" y="-249.9" font-family="Arial" font-size="12.00" fill="#000000">source</text>
<polyline fill="none" stroke="#000000" stroke-width="2" points="351,-242.5 351,-263.5 "/>
<text text-anchor="middle" x="364.5" y="-249.9" font-family="Arial" font-size="12.00" fill="#000000">0</text>
</g>
<!-- ugen_3 -->
<g id="node4" class="node">
<title>ugen_3</title>
<path fill="#bcd2ee" stroke="#000000" stroke-width="2" d="M313,-121.5C313,-121.5 367,-121.5 367,-121.5 373,-121.5 379,-127.5 379,-133.5 379,-133.5 379,-211.5 379,-211.5 379,-217.5 373,-223.5 367,-223.5 367,-223.5 313,-223.5 313,-223.5 307,-223.5 301,-217.5 301,-211.5 301,-211.5 301,-133.5 301,-133.5 301,-127.5 307,-121.5 313,-121.5"/>
<text text-anchor="middle" x="340" y="-209.9" font-family="Arial" font-size="12.00" fill="#000000">BinaryOpUGen</text>
<text text-anchor="middle" x="340" y="-196.9" font-family="Arial" font-size="12.00" fill="#000000">[ADDITION]</text>
<text text-anchor="middle" x="340" y="-183.9" font-family="Arial" font-size="12.00" fill="#000000">(audio)</text>
<polyline fill="none" stroke="#000000" stroke-width="2" points="301,-176.5 379,-176.5 "/>
<text text-anchor="middle" x="324" y="-162.9" font-family="Arial" font-size="12.00" fill="#000000">left</text>
<polyline fill="none" stroke="#000000" stroke-width="2" points="301,-155.5 347,-155.5 "/>
<text text-anchor="middle" x="324" y="-141.9" font-family="Arial" font-size="12.00" fill="#000000">right:</text>
<text text-anchor="middle" x="324" y="-128.9" font-family="Arial" font-size="12.00" fill="#000000">3.0</text>
<polyline fill="none" stroke="#000000" stroke-width="2" points="347,-121.5 347,-176.5 "/>
<text text-anchor="middle" x="363" y="-145.9" font-family="Arial" font-size="12.00" fill="#000000">0</text>
</g>
<!-- ugen_4 -->
<g id="node5" class="node">
<title>ugen_4</title>
<path fill="#bcd2ee" stroke="#000000" stroke-width="2" d="M463,-138.5C463,-138.5 515,-138.5 515,-138.5 521,-138.5 527,-144.5 527,-150.5 527,-150.5 527,-194.5 527,-194.5 527,-200.5 521,-206.5 515,-206.5 515,-206.5 463,-206.5 463,-206.5 457,-206.5 451,-200.5 451,-194.5 451,-194.5 451,-150.5 451,-150.5 451,-144.5 457,-138.5 463,-138.5"/>
<text text-anchor="middle" x="489" y="-192.9" font-family="Arial" font-size="12.00" fill="#000000">UnaryOpUGen</text>
<text text-anchor="middle" x="489" y="-179.9" font-family="Arial" font-size="12.00" fill="#000000">[MIDI_TO_HZ]</text>
<text text-anchor="middle" x="489" y="-166.9" font-family="Arial" font-size="12.00" fill="#000000">(audio)</text>
<polyline fill="none" stroke="#000000" stroke-width="2" points="451,-159.5 527,-159.5 "/>
<text text-anchor="middle" x="475.5" y="-145.9" font-family="Arial" font-size="12.00" fill="#000000">source</text>
<polyline fill="none" stroke="#000000" stroke-width="2" points="500,-138.5 500,-159.5 "/>
<text text-anchor="middle" x="513.5" y="-145.9" font-family="Arial" font-size="12.00" fill="#000000">0</text>
</g>
<!-- ugen_5 -->
<g id="node6" class="node">
<title>ugen_5</title>
<path fill="#bcd2ee" stroke="#000000" stroke-width="2" d="M313,-.5C313,-.5 367,-.5 367,-.5 373,-.5 379,-6.5 379,-12.5 379,-12.5 379,-90.5 379,-90.5 379,-96.5 373,-102.5 367,-102.5 367,-102.5 313,-102.5 313,-102.5 307,-102.5 301,-96.5 301,-90.5 301,-90.5 301,-12.5 301,-12.5 301,-6.5 307,-.5 313,-.5"/>
<text text-anchor="middle" x="340" y="-88.9" font-family="Arial" font-size="12.00" fill="#000000">BinaryOpUGen</text>
<text text-anchor="middle" x="340" y="-75.9" font-family="Arial" font-size="12.00" fill="#000000">[ADDITION]</text>
<text text-anchor="middle" x="340" y="-62.9" font-family="Arial" font-size="12.00" fill="#000000">(audio)</text>
<polyline fill="none" stroke="#000000" stroke-width="2" points="301,-55.5 379,-55.5 "/>
<text text-anchor="middle" x="324" y="-41.9" font-family="Arial" font-size="12.00" fill="#000000">left</text>
<polyline fill="none" stroke="#000000" stroke-width="2" points="301,-34.5 347,-34.5 "/>
<text text-anchor="middle" x="324" y="-20.9" font-family="Arial" font-size="12.00" fill="#000000">right:</text>
<text text-anchor="middle" x="324" y="-7.9" font-family="Arial" font-size="12.00" fill="#000000">7.0</text>
<polyline fill="none" stroke="#000000" stroke-width="2" points="347,-.5 347,-55.5 "/>
<text text-anchor="middle" x="363" y="-24.9" font-family="Arial" font-size="12.00" fill="#000000">0</text>
</g>
<!-- ugen_6 -->
<g id="node7" class="node">
<title>ugen_6</title>
<path fill="#bcd2ee" stroke="#000000" stroke-width="2" d="M463,-17.5C463,-17.5 515,-17.5 515,-17.5 521,-17.5 527,-23.5 527,-29.5 527,-29.5 527,-73.5 527,-73.5 527,-79.5 521,-85.5 515,-85.5 515,-85.5 463,-85.5 463,-85.5 457,-85.5 451,-79.5 451,-73.5 451,-73.5 451,-29.5 451,-29.5 451,-23.5 457,-17.5 463,-17.5"/>
<text text-anchor="middle" x="489" y="-71.9" font-family="Arial" font-size="12.00" fill="#000000">UnaryOpUGen</text>
<text text-anchor="middle" x="489" y="-58.9" font-family="Arial" font-size="12.00" fill="#000000">[MIDI_TO_HZ]</text>
<text text-anchor="middle" x="489" y="-45.9" font-family="Arial" font-size="12.00" fill="#000000">(audio)</text>
<polyline fill="none" stroke="#000000" stroke-width="2" points="451,-38.5 527,-38.5 "/>
<text text-anchor="middle" x="475.5" y="-24.9" font-family="Arial" font-size="12.00" fill="#000000">source</text>
<polyline fill="none" stroke="#000000" stroke-width="2" points="500,-17.5 500,-38.5 "/>
<text text-anchor="middle" x="513.5" y="-24.9" font-family="Arial" font-size="12.00" fill="#000000">0</text>
</g>
</g>
</svg>
