<?xml version="1.0" encoding="UTF-8" standalone="no"?>
<!DOCTYPE svg PUBLIC "-//W3C//DTD SVG 1.1//EN"
 "http://www.w3.org/Graphics/SVG/1.1/DTD/svg11.dtd">
<!-- Generated by graphviz version 2.43.0 (0)
 -->
<!-- Title: synthdef_d4e7b88df56af5070a88f09b0f8c633e Pages: 1 -->
<svg width="486pt" height="268pt"
 viewBox="0.00 0.00 486.00 268.00" xmlns="http://www.w3.org/2000/svg" xmlns:xlink="http://www.w3.org/1999/xlink">
<g id="graph0" class="graph" transform="scale(1 1) rotate(0) translate(4 264)">
<title>synthdef_d4e7b88df56af5070a88f09b0f8c633e</title>
<!-- ugen_0&#45;&gt;ugen_1 -->
<g id="edge1" class="edge">
<title>ugen_0:e&#45;&gt;ugen_1:w</title>
<path fill="none" stroke="steelblue" stroke-width="2" d="M62,-208.5C94,-208.5 97.74,-179.69 123.78,-173.62"/>
<polygon fill="steelblue" stroke="steelblue" stroke-width="2" points="124.44,-177.07 134,-172.5 123.68,-170.11 124.44,-177.07"/>
</g>
<!-- ugen_0&#45;&gt;ugen_2 -->
<g id="edge2" class="edge">
<title>ugen_0:e&#45;&gt;ugen_2:w</title>
<path fill="none" stroke="steelblue" stroke-width="2" d="M62,-208.5C94.98,-208.5 101.26,-222.47 134,-226.5 204.58,-235.19 223.81,-237.89 294,-226.5 323.65,-221.69 330.84,-206.41 355.89,-203.13"/>
<polygon fill="steelblue" stroke="steelblue" stroke-width="2" points="356.24,-206.61 366,-202.5 355.8,-199.62 356.24,-206.61"/>
</g>
<!-- ugen_1&#45;&gt;ugen_2 -->
<g id="edge3" class="edge">
<title>ugen_1:e&#45;&gt;ugen_2:w</title>
<path fill="none" stroke="steelblue" stroke-width="2" d="M294,-138.5C327.49,-138.5 328.83,-173.21 355.79,-180.26"/>
<polygon fill="steelblue" stroke="steelblue" stroke-width="2" points="355.65,-183.77 366,-181.5 356.5,-176.82 355.65,-183.77"/>
</g>
<!-- ugen_0 -->
<g id="node1" class="node">
<title>ugen_0</title>
<path fill="#bcd2ee" stroke="black" stroke-width="2" d="M12,-191.5C12,-191.5 50,-191.5 50,-191.5 56,-191.5 62,-197.5 62,-203.5 62,-203.5 62,-247.5 62,-247.5 62,-253.5 56,-259.5 50,-259.5 50,-259.5 12,-259.5 12,-259.5 6,-259.5 0,-253.5 0,-247.5 0,-247.5 0,-203.5 0,-203.5 0,-197.5 6,-191.5 12,-191.5"/>
<text text-anchor="middle" x="31" y="-245.9" font-family="Arial" font-size="12.00">In</text>
<text text-anchor="middle" x="31" y="-232.9" font-family="Arial" font-size="12.00">(audio)</text>
<polyline fill="none" stroke="black" stroke-width="2" points="0,-225.5 62,-225.5 "/>
<text text-anchor="middle" x="19.5" y="-211.9" font-family="Arial" font-size="12.00">bus:</text>
<text text-anchor="middle" x="19.5" y="-198.9" font-family="Arial" font-size="12.00">0.0</text>
<polyline fill="none" stroke="black" stroke-width="2" points="39,-191.5 39,-225.5 "/>
<text text-anchor="middle" x="50.5" y="-205.4" font-family="Arial" font-size="12.00">0</text>
</g>
<!-- ugen_1 -->
<g id="node2" class="node">
<title>ugen_1</title>
<path fill="#bcd2ee" stroke="black" stroke-width="2" d="M146,-94C146,-94 282,-94 282,-94 288,-94 294,-100 294,-106 294,-106 294,-205 294,-205 294,-211 288,-217 282,-217 282,-217 146,-217 146,-217 140,-217 134,-211 134,-205 134,-205 134,-106 134,-106 134,-100 140,-94 146,-94"/>
<text text-anchor="middle" x="214" y="-203.4" font-family="Arial" font-size="12.00">DelayN</text>
<text text-anchor="middle" x="214" y="-190.4" font-family="Arial" font-size="12.00">(audio)</text>
<polyline fill="none" stroke="black" stroke-width="2" points="134,-183 294,-183 "/>
<text text-anchor="middle" x="202.5" y="-169.4" font-family="Arial" font-size="12.00">source</text>
<polyline fill="none" stroke="black" stroke-width="2" points="134,-162 271,-162 "/>
<text text-anchor="middle" x="202.5" y="-148.4" font-family="Arial" font-size="12.00">maximum_delay_time:</text>
<text text-anchor="middle" x="202.5" y="-135.4" font-family="Arial" font-size="12.00">0.01</text>
<polyline fill="none" stroke="black" stroke-width="2" points="134,-128 271,-128 "/>
<text text-anchor="middle" x="202.5" y="-114.4" font-family="Arial" font-size="12.00">delay_time:</text>
<text text-anchor="middle" x="202.5" y="-101.4" font-family="Arial" font-size="12.00">0.01</text>
<polyline fill="none" stroke="black" stroke-width="2" points="271,-94 271,-183 "/>
<text text-anchor="middle" x="282.5" y="-135.4" font-family="Arial" font-size="12.00">0</text>
</g>
<!-- ugen_2 -->
<g id="node3" class="node">
<title>ugen_2</title>
<path fill="#bcd2ee" stroke="black" stroke-width="2" d="M378,-0.5C378,-0.5 466,-0.5 466,-0.5 472,-0.5 478,-6.5 478,-12.5 478,-12.5 478,-234.5 478,-234.5 478,-240.5 472,-246.5 466,-246.5 466,-246.5 378,-246.5 378,-246.5 372,-246.5 366,-240.5 366,-234.5 366,-234.5 366,-12.5 366,-12.5 366,-6.5 372,-0.5 378,-0.5"/>
<text text-anchor="middle" x="422" y="-232.9" font-family="Arial" font-size="12.00">Compander</text>
<text text-anchor="middle" x="422" y="-219.9" font-family="Arial" font-size="12.00">(audio)</text>
<polyline fill="none" stroke="black" stroke-width="2" points="366,-212.5 478,-212.5 "/>
<text text-anchor="middle" x="410.5" y="-198.9" font-family="Arial" font-size="12.00">source</text>
<polyline fill="none" stroke="black" stroke-width="2" points="366,-191.5 455,-191.5 "/>
<text text-anchor="middle" x="410.5" y="-177.9" font-family="Arial" font-size="12.00">control</text>
<polyline fill="none" stroke="black" stroke-width="2" points="366,-170.5 455,-170.5 "/>
<text text-anchor="middle" x="410.5" y="-156.9" font-family="Arial" font-size="12.00">threshold:</text>
<text text-anchor="middle" x="410.5" y="-143.9" font-family="Arial" font-size="12.00">0.5</text>
<polyline fill="none" stroke="black" stroke-width="2" points="366,-136.5 455,-136.5 "/>
<text text-anchor="middle" x="410.5" y="-122.9" font-family="Arial" font-size="12.00">slope_below:</text>
<text text-anchor="middle" x="410.5" y="-109.9" font-family="Arial" font-size="12.00">1.0</text>
<polyline fill="none" stroke="black" stroke-width="2" points="366,-102.5 455,-102.5 "/>
<text text-anchor="middle" x="410.5" y="-88.9" font-family="Arial" font-size="12.00">slope_above:</text>
<text text-anchor="middle" x="410.5" y="-75.9" font-family="Arial" font-size="12.00">1.0</text>
<polyline fill="none" stroke="black" stroke-width="2" points="366,-68.5 455,-68.5 "/>
<text text-anchor="middle" x="410.5" y="-54.9" font-family="Arial" font-size="12.00">clamp_time:</text>
<text text-anchor="middle" x="410.5" y="-41.9" font-family="Arial" font-size="12.00">0.01</text>
<polyline fill="none" stroke="black" stroke-width="2" points="366,-34.5 455,-34.5 "/>
<text text-anchor="middle" x="410.5" y="-20.9" font-family="Arial" font-size="12.00">relax_time:</text>
<text text-anchor="middle" x="410.5" y="-7.9" font-family="Arial" font-size="12.00">0.1</text>
<polyline fill="none" stroke="black" stroke-width="2" points="455,-0.5 455,-212.5 "/>
<text text-anchor="middle" x="466.5" y="-103.4" font-family="Arial" font-size="12.00">0</text>
</g>
</g>
</svg>
