<?xml version="1.0" encoding="UTF-8" standalone="no"?>
<!DOCTYPE svg PUBLIC "-//W3C//DTD SVG 1.1//EN"
 "http://www.w3.org/Graphics/SVG/1.1/DTD/svg11.dtd">
<!-- Generated by graphviz version 2.50.0 (20211204.2007)
 -->
<!-- Title: synthdef_88dca305143542bd40a82d8a6a337306 Pages: 1 -->
<svg width="309pt" height="644pt"
 viewBox="0.00 0.00 309.00 643.50" xmlns="http://www.w3.org/2000/svg" xmlns:xlink="http://www.w3.org/1999/xlink">
<g id="graph0" class="graph" transform="scale(1 1) rotate(0) translate(4 639.5)">
<title>synthdef_88dca305143542bd40a82d8a6a337306</title>
<!-- ugen_0&#45;&gt;ugen_1 -->
<g id="edge1" class="edge">
<title>ugen_0:e&#45;&gt;ugen_1:w</title>
<path fill="none" stroke="steelblue" stroke-width="2" d="M95,-147C123.38,-147 132.88,-147 156.98,-147"/>
<polygon fill="steelblue" stroke="steelblue" stroke-width="2" points="157,-150.5 167,-147 157,-143.5 157,-150.5"/>
</g>
<!-- ugen_2&#45;&gt;ugen_3 -->
<g id="edge2" class="edge">
<title>ugen_2:e&#45;&gt;ugen_3:w</title>
<path fill="none" stroke="steelblue" stroke-width="2" d="M95,-357C123.38,-357 132.88,-357 156.98,-357"/>
<polygon fill="steelblue" stroke="steelblue" stroke-width="2" points="157,-360.5 167,-357 157,-353.5 157,-360.5"/>
</g>
<!-- ugen_4&#45;&gt;ugen_5 -->
<g id="edge3" class="edge">
<title>ugen_4:e&#45;&gt;ugen_5:w</title>
<path fill="none" stroke="steelblue" stroke-width="2" d="M95,-567C123.38,-567 132.88,-567 156.98,-567"/>
<polygon fill="steelblue" stroke="steelblue" stroke-width="2" points="157,-570.5 167,-567 157,-563.5 157,-570.5"/>
</g>
<!-- ugen_0 -->
<g id="node1" class="node">
<title>ugen_0</title>
<path fill="#bcd2ee" stroke="black" stroke-width="2" d="M12,-113C12,-113 83,-113 83,-113 89,-113 95,-119 95,-125 95,-125 95,-203 95,-203 95,-209 89,-215 83,-215 83,-215 12,-215 12,-215 6,-215 0,-209 0,-203 0,-203 0,-125 0,-125 0,-119 6,-113 12,-113"/>
<text text-anchor="middle" x="47.5" y="-201.4" font-family="Arial" font-size="12.00">SinOsc</text>
<text text-anchor="middle" x="47.5" y="-188.4" font-family="Arial" font-size="12.00">(audio)</text>
<polyline fill="none" stroke="black" stroke-width="2" points="0,-181 95,-181 "/>
<text text-anchor="middle" x="36" y="-167.4" font-family="Arial" font-size="12.00">frequency:</text>
<text text-anchor="middle" x="36" y="-154.4" font-family="Arial" font-size="12.00">440.0</text>
<polyline fill="none" stroke="black" stroke-width="2" points="0,-147 72,-147 "/>
<text text-anchor="middle" x="36" y="-133.4" font-family="Arial" font-size="12.00">phase:</text>
<text text-anchor="middle" x="36" y="-120.4" font-family="Arial" font-size="12.00">0.0</text>
<polyline fill="none" stroke="black" stroke-width="2" points="72,-113 72,-181 "/>
<text text-anchor="middle" x="83.5" y="-143.9" font-family="Arial" font-size="12.00">0</text>
</g>
<!-- ugen_1 -->
<g id="node2" class="node">
<title>ugen_1</title>
<path fill="#bcd2ee" stroke="black" stroke-width="2" d="M179,-0.5C179,-0.5 289,-0.5 289,-0.5 295,-0.5 301,-6.5 301,-12.5 301,-12.5 301,-179.5 301,-179.5 301,-185.5 295,-191.5 289,-191.5 289,-191.5 179,-191.5 179,-191.5 173,-191.5 167,-185.5 167,-179.5 167,-179.5 167,-12.5 167,-12.5 167,-6.5 173,-0.5 179,-0.5"/>
<text text-anchor="middle" x="234" y="-177.9" font-family="Arial" font-size="12.00">LinExp</text>
<text text-anchor="middle" x="234" y="-164.9" font-family="Arial" font-size="12.00">(audio)</text>
<polyline fill="none" stroke="black" stroke-width="2" points="167,-157.5 301,-157.5 "/>
<text text-anchor="middle" x="222.5" y="-143.9" font-family="Arial" font-size="12.00">source</text>
<polyline fill="none" stroke="black" stroke-width="2" points="167,-136.5 278,-136.5 "/>
<text text-anchor="middle" x="222.5" y="-122.9" font-family="Arial" font-size="12.00">input_minimum:</text>
<text text-anchor="middle" x="222.5" y="-109.9" font-family="Arial" font-size="12.00">&#45;1.0</text>
<polyline fill="none" stroke="black" stroke-width="2" points="167,-102.5 278,-102.5 "/>
<text text-anchor="middle" x="222.5" y="-88.9" font-family="Arial" font-size="12.00">input_maximum:</text>
<text text-anchor="middle" x="222.5" y="-75.9" font-family="Arial" font-size="12.00">1.0</text>
<polyline fill="none" stroke="black" stroke-width="2" points="167,-68.5 278,-68.5 "/>
<text text-anchor="middle" x="222.5" y="-54.9" font-family="Arial" font-size="12.00">output_minimum:</text>
<text text-anchor="middle" x="222.5" y="-41.9" font-family="Arial" font-size="12.00">0.5</text>
<polyline fill="none" stroke="black" stroke-width="2" points="167,-34.5 278,-34.5 "/>
<text text-anchor="middle" x="222.5" y="-20.9" font-family="Arial" font-size="12.00">output_maximum:</text>
<text text-anchor="middle" x="222.5" y="-7.9" font-family="Arial" font-size="12.00">0.75</text>
<polyline fill="none" stroke="black" stroke-width="2" points="278,-0.5 278,-157.5 "/>
<text text-anchor="middle" x="289.5" y="-75.9" font-family="Arial" font-size="12.00">0</text>
</g>
<!-- ugen_2 -->
<g id="node3" class="node">
<title>ugen_2</title>
<path fill="#bcd2ee" stroke="black" stroke-width="2" d="M12,-323C12,-323 83,-323 83,-323 89,-323 95,-329 95,-335 95,-335 95,-413 95,-413 95,-419 89,-425 83,-425 83,-425 12,-425 12,-425 6,-425 0,-419 0,-413 0,-413 0,-335 0,-335 0,-329 6,-323 12,-323"/>
<text text-anchor="middle" x="47.5" y="-411.4" font-family="Arial" font-size="12.00">SinOsc</text>
<text text-anchor="middle" x="47.5" y="-398.4" font-family="Arial" font-size="12.00">(audio)</text>
<polyline fill="none" stroke="black" stroke-width="2" points="0,-391 95,-391 "/>
<text text-anchor="middle" x="36" y="-377.4" font-family="Arial" font-size="12.00">frequency:</text>
<text text-anchor="middle" x="36" y="-364.4" font-family="Arial" font-size="12.00">442.0</text>
<polyline fill="none" stroke="black" stroke-width="2" points="0,-357 72,-357 "/>
<text text-anchor="middle" x="36" y="-343.4" font-family="Arial" font-size="12.00">phase:</text>
<text text-anchor="middle" x="36" y="-330.4" font-family="Arial" font-size="12.00">0.0</text>
<polyline fill="none" stroke="black" stroke-width="2" points="72,-323 72,-391 "/>
<text text-anchor="middle" x="83.5" y="-353.9" font-family="Arial" font-size="12.00">0</text>
</g>
<!-- ugen_3 -->
<g id="node4" class="node">
<title>ugen_3</title>
<path fill="#bcd2ee" stroke="black" stroke-width="2" d="M179,-210.5C179,-210.5 289,-210.5 289,-210.5 295,-210.5 301,-216.5 301,-222.5 301,-222.5 301,-389.5 301,-389.5 301,-395.5 295,-401.5 289,-401.5 289,-401.5 179,-401.5 179,-401.5 173,-401.5 167,-395.5 167,-389.5 167,-389.5 167,-222.5 167,-222.5 167,-216.5 173,-210.5 179,-210.5"/>
<text text-anchor="middle" x="234" y="-387.9" font-family="Arial" font-size="12.00">LinExp</text>
<text text-anchor="middle" x="234" y="-374.9" font-family="Arial" font-size="12.00">(audio)</text>
<polyline fill="none" stroke="black" stroke-width="2" points="167,-367.5 301,-367.5 "/>
<text text-anchor="middle" x="222.5" y="-353.9" font-family="Arial" font-size="12.00">source</text>
<polyline fill="none" stroke="black" stroke-width="2" points="167,-346.5 278,-346.5 "/>
<text text-anchor="middle" x="222.5" y="-332.9" font-family="Arial" font-size="12.00">input_minimum:</text>
<text text-anchor="middle" x="222.5" y="-319.9" font-family="Arial" font-size="12.00">&#45;1.0</text>
<polyline fill="none" stroke="black" stroke-width="2" points="167,-312.5 278,-312.5 "/>
<text text-anchor="middle" x="222.5" y="-298.9" font-family="Arial" font-size="12.00">input_maximum:</text>
<text text-anchor="middle" x="222.5" y="-285.9" font-family="Arial" font-size="12.00">1.0</text>
<polyline fill="none" stroke="black" stroke-width="2" points="167,-278.5 278,-278.5 "/>
<text text-anchor="middle" x="222.5" y="-264.9" font-family="Arial" font-size="12.00">output_minimum:</text>
<text text-anchor="middle" x="222.5" y="-251.9" font-family="Arial" font-size="12.00">0.5</text>
<polyline fill="none" stroke="black" stroke-width="2" points="167,-244.5 278,-244.5 "/>
<text text-anchor="middle" x="222.5" y="-230.9" font-family="Arial" font-size="12.00">output_maximum:</text>
<text text-anchor="middle" x="222.5" y="-217.9" font-family="Arial" font-size="12.00">0.75</text>
<polyline fill="none" stroke="black" stroke-width="2" points="278,-210.5 278,-367.5 "/>
<text text-anchor="middle" x="289.5" y="-285.9" font-family="Arial" font-size="12.00">0</text>
</g>
<!-- ugen_4 -->
<g id="node5" class="node">
<title>ugen_4</title>
<path fill="#bcd2ee" stroke="black" stroke-width="2" d="M12,-533C12,-533 83,-533 83,-533 89,-533 95,-539 95,-545 95,-545 95,-623 95,-623 95,-629 89,-635 83,-635 83,-635 12,-635 12,-635 6,-635 0,-629 0,-623 0,-623 0,-545 0,-545 0,-539 6,-533 12,-533"/>
<text text-anchor="middle" x="47.5" y="-621.4" font-family="Arial" font-size="12.00">SinOsc</text>
<text text-anchor="middle" x="47.5" y="-608.4" font-family="Arial" font-size="12.00">(audio)</text>
<polyline fill="none" stroke="black" stroke-width="2" points="0,-601 95,-601 "/>
<text text-anchor="middle" x="36" y="-587.4" font-family="Arial" font-size="12.00">frequency:</text>
<text text-anchor="middle" x="36" y="-574.4" font-family="Arial" font-size="12.00">443.0</text>
<polyline fill="none" stroke="black" stroke-width="2" points="0,-567 72,-567 "/>
<text text-anchor="middle" x="36" y="-553.4" font-family="Arial" font-size="12.00">phase:</text>
<text text-anchor="middle" x="36" y="-540.4" font-family="Arial" font-size="12.00">0.0</text>
<polyline fill="none" stroke="black" stroke-width="2" points="72,-533 72,-601 "/>
<text text-anchor="middle" x="83.5" y="-563.9" font-family="Arial" font-size="12.00">0</text>
</g>
<!-- ugen_5 -->
<g id="node6" class="node">
<title>ugen_5</title>
<path fill="#bcd2ee" stroke="black" stroke-width="2" d="M179,-420.5C179,-420.5 289,-420.5 289,-420.5 295,-420.5 301,-426.5 301,-432.5 301,-432.5 301,-599.5 301,-599.5 301,-605.5 295,-611.5 289,-611.5 289,-611.5 179,-611.5 179,-611.5 173,-611.5 167,-605.5 167,-599.5 167,-599.5 167,-432.5 167,-432.5 167,-426.5 173,-420.5 179,-420.5"/>
<text text-anchor="middle" x="234" y="-597.9" font-family="Arial" font-size="12.00">LinExp</text>
<text text-anchor="middle" x="234" y="-584.9" font-family="Arial" font-size="12.00">(audio)</text>
<polyline fill="none" stroke="black" stroke-width="2" points="167,-577.5 301,-577.5 "/>
<text text-anchor="middle" x="222.5" y="-563.9" font-family="Arial" font-size="12.00">source</text>
<polyline fill="none" stroke="black" stroke-width="2" points="167,-556.5 278,-556.5 "/>
<text text-anchor="middle" x="222.5" y="-542.9" font-family="Arial" font-size="12.00">input_minimum:</text>
<text text-anchor="middle" x="222.5" y="-529.9" font-family="Arial" font-size="12.00">&#45;1.0</text>
<polyline fill="none" stroke="black" stroke-width="2" points="167,-522.5 278,-522.5 "/>
<text text-anchor="middle" x="222.5" y="-508.9" font-family="Arial" font-size="12.00">input_maximum:</text>
<text text-anchor="middle" x="222.5" y="-495.9" font-family="Arial" font-size="12.00">1.0</text>
<polyline fill="none" stroke="black" stroke-width="2" points="167,-488.5 278,-488.5 "/>
<text text-anchor="middle" x="222.5" y="-474.9" font-family="Arial" font-size="12.00">output_minimum:</text>
<text text-anchor="middle" x="222.5" y="-461.9" font-family="Arial" font-size="12.00">0.5</text>
<polyline fill="none" stroke="black" stroke-width="2" points="167,-454.5 278,-454.5 "/>
<text text-anchor="middle" x="222.5" y="-440.9" font-family="Arial" font-size="12.00">output_maximum:</text>
<text text-anchor="middle" x="222.5" y="-427.9" font-family="Arial" font-size="12.00">0.75</text>
<polyline fill="none" stroke="black" stroke-width="2" points="278,-420.5 278,-577.5 "/>
<text text-anchor="middle" x="289.5" y="-495.9" font-family="Arial" font-size="12.00">0</text>
</g>
</g>
</svg>
