<?xml version="1.0" encoding="UTF-8" standalone="no"?>
<!DOCTYPE svg PUBLIC "-//W3C//DTD SVG 1.1//EN"
 "http://www.w3.org/Graphics/SVG/1.1/DTD/svg11.dtd">
<!-- Generated by graphviz version 2.50.0 (20211204.2007)
 -->
<!-- Title: synthdef_0f4316d360cde45a58bb303706a98f7b Pages: 1 -->
<svg width="834pt" height="446pt"
 viewBox="0.00 0.00 834.00 446.00" xmlns="http://www.w3.org/2000/svg" xmlns:xlink="http://www.w3.org/1999/xlink">
<g id="graph0" class="graph" transform="scale(1 1) rotate(0) translate(4 442)">
<title>synthdef_0f4316d360cde45a58bb303706a98f7b</title>
<!-- ugen_0&#45;&gt;ugen_1 -->
<g id="edge1" class="edge">
<title>ugen_0:e&#45;&gt;ugen_1:w</title>
<path fill="none" stroke="salmon" stroke-width="2" d="M56,-386.5C94.63,-386.5 100.86,-356.42 133.92,-351.25"/>
<polygon fill="salmon" stroke="salmon" stroke-width="2" points="134.29,-354.73 144,-350.5 133.77,-347.75 134.29,-354.73"/>
</g>
<!-- ugen_0&#45;&gt;ugen_9 -->
<g id="edge2" class="edge">
<title>ugen_0:e&#45;&gt;ugen_9:w</title>
<path fill="none" stroke="salmon" stroke-width="2" d="M56,-386.5C88.98,-386.5 95.26,-400.47 128,-404.5 169.46,-409.6 180.23,-405.35 222,-404.5 428.35,-400.28 487.3,-441.35 686,-385.5 717.66,-376.6 721,-351.4 747.9,-346.38"/>
<polygon fill="salmon" stroke="salmon" stroke-width="2" points="748.34,-349.85 758,-345.5 747.73,-342.88 748.34,-349.85"/>
</g>
<!-- ugen_1&#45;&gt;ugen_5 -->
<g id="edge3" class="edge">
<title>ugen_1:e&#45;&gt;ugen_5:w</title>
<path fill="none" stroke="steelblue" stroke-width="2" d="M206,-350.5C242.6,-350.5 252.17,-333.1 283.91,-329.98"/>
<polygon fill="steelblue" stroke="steelblue" stroke-width="2" points="284.18,-333.47 294,-329.5 283.85,-326.48 284.18,-333.47"/>
</g>
<!-- ugen_2&#45;&gt;ugen_9 -->
<g id="edge4" class="edge">
<title>ugen_2:e&#45;&gt;ugen_9:w</title>
<path fill="none" stroke="goldenrod" stroke-width="2" d="M637,-324.5C687.21,-324.5 702.26,-324.5 747.8,-324.5"/>
<polygon fill="goldenrod" stroke="goldenrod" stroke-width="2" points="748,-328 758,-324.5 748,-321 748,-328"/>
</g>
<!-- ugen_3&#45;&gt;ugen_5 -->
<g id="edge5" class="edge">
<title>ugen_3:e&#45;&gt;ugen_5:w</title>
<path fill="none" stroke="salmon" stroke-width="2" d="M222,-131.5C281.15,-131.5 237.14,-239.17 283.8,-252.21"/>
<polygon fill="salmon" stroke="salmon" stroke-width="2" points="283.64,-255.72 294,-253.5 284.52,-248.78 283.64,-255.72"/>
</g>
<!-- ugen_4&#45;&gt;ugen_5 -->
<g id="edge6" class="edge">
<title>ugen_4:e&#45;&gt;ugen_5:w</title>
<path fill="none" stroke="salmon" stroke-width="2" d="M222,-252.5C251.8,-252.5 259.09,-269.95 283.97,-273.77"/>
<polygon fill="salmon" stroke="salmon" stroke-width="2" points="283.77,-277.26 294,-274.5 284.28,-270.28 283.77,-277.26"/>
</g>
<!-- ugen_5&#45;&gt;ugen_8 -->
<g id="edge7" class="edge">
<title>ugen_5:e&#45;&gt;ugen_8:w</title>
<path fill="none" stroke="steelblue" stroke-width="2" d="M454,-291.5C492.7,-291.5 485.37,-239.31 515.8,-229.93"/>
<polygon fill="steelblue" stroke="steelblue" stroke-width="2" points="516.59,-233.36 526,-228.5 515.61,-226.43 516.59,-233.36"/>
</g>
<!-- ugen_6&#45;&gt;ugen_8 -->
<g id="edge8" class="edge">
<title>ugen_6:e&#45;&gt;ugen_8:w</title>
<path fill="none" stroke="salmon" stroke-width="2" d="M422,-34.5C488.22,-34.5 459.58,-140.38 515.79,-151.55"/>
<polygon fill="salmon" stroke="salmon" stroke-width="2" points="515.72,-155.06 526,-152.5 516.37,-148.09 515.72,-155.06"/>
</g>
<!-- ugen_7&#45;&gt;ugen_8 -->
<g id="edge9" class="edge">
<title>ugen_7:e&#45;&gt;ugen_8:w</title>
<path fill="none" stroke="salmon" stroke-width="2" d="M422,-155.5C465.24,-155.5 477.28,-170.8 515.64,-173.19"/>
<polygon fill="salmon" stroke="salmon" stroke-width="2" points="515.9,-176.7 526,-173.5 516.11,-169.7 515.9,-176.7"/>
</g>
<!-- ugen_8&#45;&gt;ugen_9 -->
<g id="edge10" class="edge">
<title>ugen_8:e&#45;&gt;ugen_9:w</title>
<path fill="none" stroke="steelblue" stroke-width="2" d="M686,-190.5C741.83,-190.5 703.92,-289.82 748.03,-302.23"/>
<polygon fill="steelblue" stroke="steelblue" stroke-width="2" points="747.64,-305.71 758,-303.5 748.52,-298.77 747.64,-305.71"/>
</g>
<!-- ugen_0 -->
<g id="node1" class="node">
<title>ugen_0</title>
<path fill="#ee9572" stroke="black" stroke-width="2" d="M12,-369.5C12,-369.5 44,-369.5 44,-369.5 50,-369.5 56,-375.5 56,-381.5 56,-381.5 56,-425.5 56,-425.5 56,-431.5 50,-437.5 44,-437.5 44,-437.5 12,-437.5 12,-437.5 6,-437.5 0,-431.5 0,-425.5 0,-425.5 0,-381.5 0,-381.5 0,-375.5 6,-369.5 12,-369.5"/>
<text text-anchor="middle" x="28" y="-423.9" font-family="Arial" font-size="12.00">Control</text>
<text text-anchor="middle" x="28" y="-410.9" font-family="Arial" font-size="12.00">(scalar)</text>
<polyline fill="none" stroke="black" stroke-width="2" points="0,-403.5 56,-403.5 "/>
<text text-anchor="middle" x="28" y="-389.9" font-family="Arial" font-size="12.00">out:</text>
<text text-anchor="middle" x="28" y="-376.9" font-family="Arial" font-size="12.00">0.0</text>
</g>
<!-- ugen_1 -->
<g id="node2" class="node">
<title>ugen_1</title>
<path fill="#bcd2ee" stroke="black" stroke-width="2" d="M157.5,-340C157.5,-340 192.5,-340 192.5,-340 198.5,-340 204.5,-346 204.5,-352 204.5,-352 204.5,-383 204.5,-383 204.5,-389 198.5,-395 192.5,-395 192.5,-395 157.5,-395 157.5,-395 151.5,-395 145.5,-389 145.5,-383 145.5,-383 145.5,-352 145.5,-352 145.5,-346 151.5,-340 157.5,-340"/>
<text text-anchor="middle" x="175" y="-381.4" font-family="Arial" font-size="12.00">In</text>
<text text-anchor="middle" x="175" y="-368.4" font-family="Arial" font-size="12.00">(audio)</text>
<polyline fill="none" stroke="black" stroke-width="2" points="145.5,-361 204.5,-361 "/>
<text text-anchor="middle" x="163.5" y="-347.4" font-family="Arial" font-size="12.00">bus</text>
<polyline fill="none" stroke="black" stroke-width="2" points="181.5,-340 181.5,-361 "/>
<text text-anchor="middle" x="193" y="-347.4" font-family="Arial" font-size="12.00">0</text>
</g>
<!-- ugen_2 -->
<g id="node3" class="node">
<title>ugen_2</title>
<path fill="#eedc82" stroke="black" stroke-width="2" d="M588,-307.5C588,-307.5 624,-307.5 624,-307.5 630,-307.5 636,-313.5 636,-319.5 636,-319.5 636,-363.5 636,-363.5 636,-369.5 630,-375.5 624,-375.5 624,-375.5 588,-375.5 588,-375.5 582,-375.5 576,-369.5 576,-363.5 576,-363.5 576,-319.5 576,-319.5 576,-313.5 582,-307.5 588,-307.5"/>
<text text-anchor="middle" x="606" y="-361.9" font-family="Arial" font-size="12.00">Control</text>
<text text-anchor="middle" x="606" y="-348.9" font-family="Arial" font-size="12.00">(control)</text>
<polyline fill="none" stroke="black" stroke-width="2" points="576,-341.5 636,-341.5 "/>
<text text-anchor="middle" x="606" y="-327.9" font-family="Arial" font-size="12.00">mix:</text>
<text text-anchor="middle" x="606" y="-314.9" font-family="Arial" font-size="12.00">0.0</text>
</g>
<!-- ugen_3 -->
<g id="node4" class="node">
<title>ugen_3</title>
<path fill="#ee9572" stroke="black" stroke-width="2" d="M140,-97.5C140,-97.5 210,-97.5 210,-97.5 216,-97.5 222,-103.5 222,-109.5 222,-109.5 222,-187.5 222,-187.5 222,-193.5 216,-199.5 210,-199.5 210,-199.5 140,-199.5 140,-199.5 134,-199.5 128,-193.5 128,-187.5 128,-187.5 128,-109.5 128,-109.5 128,-103.5 134,-97.5 140,-97.5"/>
<text text-anchor="middle" x="175" y="-185.9" font-family="Arial" font-size="12.00">ExpRand</text>
<text text-anchor="middle" x="175" y="-172.9" font-family="Arial" font-size="12.00">(scalar)</text>
<polyline fill="none" stroke="black" stroke-width="2" points="128,-165.5 222,-165.5 "/>
<text text-anchor="middle" x="163.5" y="-151.9" font-family="Arial" font-size="12.00">minimum:</text>
<text text-anchor="middle" x="163.5" y="-138.9" font-family="Arial" font-size="12.00">0.01</text>
<polyline fill="none" stroke="black" stroke-width="2" points="128,-131.5 199,-131.5 "/>
<text text-anchor="middle" x="163.5" y="-117.9" font-family="Arial" font-size="12.00">maximum:</text>
<text text-anchor="middle" x="163.5" y="-104.9" font-family="Arial" font-size="12.00">0.1</text>
<polyline fill="none" stroke="black" stroke-width="2" points="199,-97.5 199,-165.5 "/>
<text text-anchor="middle" x="210.5" y="-128.4" font-family="Arial" font-size="12.00">0</text>
</g>
<!-- ugen_4 -->
<g id="node5" class="node">
<title>ugen_4</title>
<path fill="#ee9572" stroke="black" stroke-width="2" d="M140,-218.5C140,-218.5 210,-218.5 210,-218.5 216,-218.5 222,-224.5 222,-230.5 222,-230.5 222,-308.5 222,-308.5 222,-314.5 216,-320.5 210,-320.5 210,-320.5 140,-320.5 140,-320.5 134,-320.5 128,-314.5 128,-308.5 128,-308.5 128,-230.5 128,-230.5 128,-224.5 134,-218.5 140,-218.5"/>
<text text-anchor="middle" x="175" y="-306.9" font-family="Arial" font-size="12.00">ExpRand</text>
<text text-anchor="middle" x="175" y="-293.9" font-family="Arial" font-size="12.00">(scalar)</text>
<polyline fill="none" stroke="black" stroke-width="2" points="128,-286.5 222,-286.5 "/>
<text text-anchor="middle" x="163.5" y="-272.9" font-family="Arial" font-size="12.00">minimum:</text>
<text text-anchor="middle" x="163.5" y="-259.9" font-family="Arial" font-size="12.00">0.01</text>
<polyline fill="none" stroke="black" stroke-width="2" points="128,-252.5 199,-252.5 "/>
<text text-anchor="middle" x="163.5" y="-238.9" font-family="Arial" font-size="12.00">maximum:</text>
<text text-anchor="middle" x="163.5" y="-225.9" font-family="Arial" font-size="12.00">0.1</text>
<polyline fill="none" stroke="black" stroke-width="2" points="199,-218.5 199,-286.5 "/>
<text text-anchor="middle" x="210.5" y="-249.4" font-family="Arial" font-size="12.00">0</text>
</g>
<!-- ugen_5 -->
<g id="node6" class="node">
<title>ugen_5</title>
<path fill="#bcd2ee" stroke="black" stroke-width="2" d="M306,-243C306,-243 442,-243 442,-243 448,-243 454,-249 454,-255 454,-255 454,-362 454,-362 454,-368 448,-374 442,-374 442,-374 306,-374 306,-374 300,-374 294,-368 294,-362 294,-362 294,-255 294,-255 294,-249 300,-243 306,-243"/>
<text text-anchor="middle" x="374" y="-360.4" font-family="Arial" font-size="12.00">AllpassC</text>
<text text-anchor="middle" x="374" y="-347.4" font-family="Arial" font-size="12.00">(audio)</text>
<polyline fill="none" stroke="black" stroke-width="2" points="294,-340 454,-340 "/>
<text text-anchor="middle" x="362.5" y="-326.4" font-family="Arial" font-size="12.00">source</text>
<polyline fill="none" stroke="black" stroke-width="2" points="294,-319 431,-319 "/>
<text text-anchor="middle" x="362.5" y="-305.4" font-family="Arial" font-size="12.00">maximum_delay_time:</text>
<text text-anchor="middle" x="362.5" y="-292.4" font-family="Arial" font-size="12.00">0.1</text>
<polyline fill="none" stroke="black" stroke-width="2" points="294,-285 431,-285 "/>
<text text-anchor="middle" x="362.5" y="-271.4" font-family="Arial" font-size="12.00">delay_time</text>
<polyline fill="none" stroke="black" stroke-width="2" points="294,-264 431,-264 "/>
<text text-anchor="middle" x="362.5" y="-250.4" font-family="Arial" font-size="12.00">decay_time</text>
<polyline fill="none" stroke="black" stroke-width="2" points="431,-243 431,-340 "/>
<text text-anchor="middle" x="442.5" y="-288.4" font-family="Arial" font-size="12.00">0</text>
</g>
<!-- ugen_6 -->
<g id="node7" class="node">
<title>ugen_6</title>
<path fill="#ee9572" stroke="black" stroke-width="2" d="M339,-0.5C339,-0.5 409,-0.5 409,-0.5 415,-0.5 421,-6.5 421,-12.5 421,-12.5 421,-90.5 421,-90.5 421,-96.5 415,-102.5 409,-102.5 409,-102.5 339,-102.5 339,-102.5 333,-102.5 327,-96.5 327,-90.5 327,-90.5 327,-12.5 327,-12.5 327,-6.5 333,-0.5 339,-0.5"/>
<text text-anchor="middle" x="374" y="-88.9" font-family="Arial" font-size="12.00">ExpRand</text>
<text text-anchor="middle" x="374" y="-75.9" font-family="Arial" font-size="12.00">(scalar)</text>
<polyline fill="none" stroke="black" stroke-width="2" points="327,-68.5 421,-68.5 "/>
<text text-anchor="middle" x="362.5" y="-54.9" font-family="Arial" font-size="12.00">minimum:</text>
<text text-anchor="middle" x="362.5" y="-41.9" font-family="Arial" font-size="12.00">0.01</text>
<polyline fill="none" stroke="black" stroke-width="2" points="327,-34.5 398,-34.5 "/>
<text text-anchor="middle" x="362.5" y="-20.9" font-family="Arial" font-size="12.00">maximum:</text>
<text text-anchor="middle" x="362.5" y="-7.9" font-family="Arial" font-size="12.00">0.1</text>
<polyline fill="none" stroke="black" stroke-width="2" points="398,-0.5 398,-68.5 "/>
<text text-anchor="middle" x="409.5" y="-31.4" font-family="Arial" font-size="12.00">0</text>
</g>
<!-- ugen_7 -->
<g id="node8" class="node">
<title>ugen_7</title>
<path fill="#ee9572" stroke="black" stroke-width="2" d="M339,-121.5C339,-121.5 409,-121.5 409,-121.5 415,-121.5 421,-127.5 421,-133.5 421,-133.5 421,-211.5 421,-211.5 421,-217.5 415,-223.5 409,-223.5 409,-223.5 339,-223.5 339,-223.5 333,-223.5 327,-217.5 327,-211.5 327,-211.5 327,-133.5 327,-133.5 327,-127.5 333,-121.5 339,-121.5"/>
<text text-anchor="middle" x="374" y="-209.9" font-family="Arial" font-size="12.00">ExpRand</text>
<text text-anchor="middle" x="374" y="-196.9" font-family="Arial" font-size="12.00">(scalar)</text>
<polyline fill="none" stroke="black" stroke-width="2" points="327,-189.5 421,-189.5 "/>
<text text-anchor="middle" x="362.5" y="-175.9" font-family="Arial" font-size="12.00">minimum:</text>
<text text-anchor="middle" x="362.5" y="-162.9" font-family="Arial" font-size="12.00">0.01</text>
<polyline fill="none" stroke="black" stroke-width="2" points="327,-155.5 398,-155.5 "/>
<text text-anchor="middle" x="362.5" y="-141.9" font-family="Arial" font-size="12.00">maximum:</text>
<text text-anchor="middle" x="362.5" y="-128.9" font-family="Arial" font-size="12.00">0.1</text>
<polyline fill="none" stroke="black" stroke-width="2" points="398,-121.5 398,-189.5 "/>
<text text-anchor="middle" x="409.5" y="-152.4" font-family="Arial" font-size="12.00">0</text>
</g>
<!-- ugen_8 -->
<g id="node9" class="node">
<title>ugen_8</title>
<path fill="#bcd2ee" stroke="black" stroke-width="2" d="M538,-142C538,-142 674,-142 674,-142 680,-142 686,-148 686,-154 686,-154 686,-261 686,-261 686,-267 680,-273 674,-273 674,-273 538,-273 538,-273 532,-273 526,-267 526,-261 526,-261 526,-154 526,-154 526,-148 532,-142 538,-142"/>
<text text-anchor="middle" x="606" y="-259.4" font-family="Arial" font-size="12.00">AllpassC</text>
<text text-anchor="middle" x="606" y="-246.4" font-family="Arial" font-size="12.00">(audio)</text>
<polyline fill="none" stroke="black" stroke-width="2" points="526,-239 686,-239 "/>
<text text-anchor="middle" x="594.5" y="-225.4" font-family="Arial" font-size="12.00">source</text>
<polyline fill="none" stroke="black" stroke-width="2" points="526,-218 663,-218 "/>
<text text-anchor="middle" x="594.5" y="-204.4" font-family="Arial" font-size="12.00">maximum_delay_time:</text>
<text text-anchor="middle" x="594.5" y="-191.4" font-family="Arial" font-size="12.00">0.1</text>
<polyline fill="none" stroke="black" stroke-width="2" points="526,-184 663,-184 "/>
<text text-anchor="middle" x="594.5" y="-170.4" font-family="Arial" font-size="12.00">delay_time</text>
<polyline fill="none" stroke="black" stroke-width="2" points="526,-163 663,-163 "/>
<text text-anchor="middle" x="594.5" y="-149.4" font-family="Arial" font-size="12.00">decay_time</text>
<polyline fill="none" stroke="black" stroke-width="2" points="663,-142 663,-239 "/>
<text text-anchor="middle" x="674.5" y="-187.4" font-family="Arial" font-size="12.00">0</text>
</g>
<!-- ugen_9 -->
<g id="node10" class="node">
<title>ugen_9</title>
<path fill="#bcd2ee" stroke="black" stroke-width="2" d="M770,-293C770,-293 814,-293 814,-293 820,-293 826,-299 826,-305 826,-305 826,-378 826,-378 826,-384 820,-390 814,-390 814,-390 770,-390 770,-390 764,-390 758,-384 758,-378 758,-378 758,-305 758,-305 758,-299 764,-293 770,-293"/>
<text text-anchor="middle" x="792" y="-376.4" font-family="Arial" font-size="12.00">XOut</text>
<text text-anchor="middle" x="792" y="-363.4" font-family="Arial" font-size="12.00">(audio)</text>
<polyline fill="none" stroke="black" stroke-width="2" points="758,-356 826,-356 "/>
<text text-anchor="middle" x="792" y="-342.4" font-family="Arial" font-size="12.00">bus</text>
<polyline fill="none" stroke="black" stroke-width="2" points="758,-335 826,-335 "/>
<text text-anchor="middle" x="792" y="-321.4" font-family="Arial" font-size="12.00">crossfade</text>
<polyline fill="none" stroke="black" stroke-width="2" points="758,-314 826,-314 "/>
<text text-anchor="middle" x="792" y="-300.4" font-family="Arial" font-size="12.00">source</text>
</g>
</g>
</svg>
