<?xml version="1.0" encoding="UTF-8" standalone="no"?>
<!DOCTYPE svg PUBLIC "-//W3C//DTD SVG 1.1//EN"
 "http://www.w3.org/Graphics/SVG/1.1/DTD/svg11.dtd">
<!-- Generated by graphviz version 2.40.1 (20161225.0304)
 -->
<!-- Title: synthdef_f48b4d830ee617727b680aaa7bbdd130 Pages: 1 -->
<svg width="1267pt" height="466pt"
 viewBox="0.00 0.00 1267.00 465.84" xmlns="http://www.w3.org/2000/svg" xmlns:xlink="http://www.w3.org/1999/xlink">
<g id="graph0" class="graph" transform="scale(1 1) rotate(0) translate(4 461.8374)">
<title>synthdef_f48b4d830ee617727b680aaa7bbdd130</title>
<!-- ugen_0&#45;&gt;ugen_1 -->
<g id="edge1" class="edge">
<title>ugen_0:e&#45;&gt;ugen_1:w</title>
<path fill="none" stroke="#fa8072" stroke-width="2" d="M54,-304.9378C82.375,-304.9378 91.8795,-304.9378 115.9792,-304.9378"/>
<polygon fill="#fa8072" stroke="#fa8072" stroke-width="2" points="116,-308.4379 126,-304.9378 116,-301.4379 116,-308.4379"/>
</g>
<!-- ugen_0&#45;&gt;ugen_12 -->
<g id="edge2" class="edge">
<title>ugen_0:e&#45;&gt;ugen_12:w</title>
<path fill="none" stroke="#fa8072" stroke-width="2" d="M54,-270.9378C130.3617,-270.9378 63.549,-382.9949 126,-426.9378 204.6339,-482.2677 245.3507,-445.9378 341.5,-445.9378 341.5,-445.9378 341.5,-445.9378 900.5,-445.9378 1042.8745,-445.9378 1058.53,-329.5896 1194.9646,-324.1357"/>
<polygon fill="#fa8072" stroke="#fa8072" stroke-width="2" points="1195.071,-327.6344 1205,-323.9378 1194.9329,-320.6358 1195.071,-327.6344"/>
</g>
<!-- ugen_0&#45;&gt;ugen_3 -->
<g id="edge3" class="edge">
<title>ugen_0:e&#45;&gt;ugen_3:w</title>
<path fill="none" stroke="#fa8072" stroke-width="2" d="M54,-270.9378C87.2116,-270.9378 93.0927,-255.4234 126,-250.9378 165.6335,-245.5355 179.9007,-233.7087 216,-250.9378 271.5893,-277.469 251.8478,-350.9453 304.2491,-359.1837"/>
<polygon fill="#fa8072" stroke="#fa8072" stroke-width="2" points="304.2701,-362.6946 314.5,-359.9378 304.7838,-355.7135 304.2701,-362.6946"/>
</g>
<!-- ugen_1&#45;&gt;ugen_2 -->
<g id="edge4" class="edge">
<title>ugen_1:e&#45;&gt;ugen_2:w</title>
<path fill="none" stroke="#daa520" stroke-width="2" d="M216,-321.9378C251.1547,-321.9378 249.7687,-281.2266 277.7865,-273.2752"/>
<polygon fill="#daa520" stroke="#daa520" stroke-width="2" points="278.5391,-276.7066 288,-271.9378 277.6302,-269.7659 278.5391,-276.7066"/>
</g>
<!-- ugen_10&#45;&gt;ugen_11 -->
<g id="edge5" class="edge">
<title>ugen_10:e&#45;&gt;ugen_11:w</title>
<path fill="none" stroke="#4682b4" stroke-width="2" d="M965,-191.9378C993.375,-191.9378 1002.8795,-191.9378 1026.9792,-191.9378"/>
<polygon fill="#4682b4" stroke="#4682b4" stroke-width="2" points="1027,-195.4379 1037,-191.9378 1027,-188.4379 1027,-195.4379"/>
</g>
<!-- ugen_11&#45;&gt;ugen_12 -->
<g id="edge6" class="edge">
<title>ugen_11:e&#45;&gt;ugen_12:w</title>
<path fill="none" stroke="#4682b4" stroke-width="2" d="M1133,-180.9378C1192.1486,-180.9378 1148.1404,-288.6116 1194.7973,-301.6503"/>
<polygon fill="#4682b4" stroke="#4682b4" stroke-width="2" points="1194.6404,-305.1581 1205,-302.9378 1195.5169,-298.2132 1194.6404,-305.1581"/>
</g>
<!-- ugen_2&#45;&gt;ugen_11 -->
<g id="edge7" class="edge">
<title>ugen_2:e&#45;&gt;ugen_11:w</title>
<path fill="none" stroke="#daa520" stroke-width="2" d="M395,-271.9378C487.8027,-271.9378 402.114,-142.2865 467,-75.9378 523.0898,-18.5837 556.1791,-24.8652 635,-9.9378 691.332,.7305 708.6894,5.157 764,-9.9378 779.4935,-14.1662 979.1954,-144.624 1027.5407,-167.5234"/>
<polygon fill="#daa520" stroke="#daa520" stroke-width="2" points="1026.4057,-170.8346 1037,-170.9378 1028.7824,-164.2504 1026.4057,-170.8346"/>
</g>
<!-- ugen_2&#45;&gt;ugen_4 -->
<g id="edge8" class="edge">
<title>ugen_2:e&#45;&gt;ugen_4:w</title>
<path fill="none" stroke="#daa520" stroke-width="2" d="M395,-271.9378C434.9553,-271.9378 425.5024,-327.917 456.9657,-337.5384"/>
<polygon fill="#daa520" stroke="#daa520" stroke-width="2" points="456.6124,-341.023 467,-338.9378 457.5793,-334.0901 456.6124,-341.023"/>
</g>
<!-- ugen_3&#45;&gt;ugen_4 -->
<g id="edge9" class="edge">
<title>ugen_3:e&#45;&gt;ugen_4:w</title>
<path fill="none" stroke="#4682b4" stroke-width="2" d="M368.5,-359.9378C408.6866,-359.9378 421.2057,-359.9378 456.8531,-359.9378"/>
<polygon fill="#4682b4" stroke="#4682b4" stroke-width="2" points="457,-363.4379 467,-359.9378 457,-356.4379 457,-363.4379"/>
</g>
<!-- ugen_4&#45;&gt;ugen_7 -->
<g id="edge10" class="edge">
<title>ugen_4:e&#45;&gt;ugen_7:w</title>
<path fill="none" stroke="#4682b4" stroke-width="2" d="M563,-348.9378C591.375,-348.9378 600.8795,-348.9378 624.9792,-348.9378"/>
<polygon fill="#4682b4" stroke="#4682b4" stroke-width="2" points="625,-352.4379 635,-348.9378 625,-345.4379 625,-352.4379"/>
</g>
<!-- ugen_5&#45;&gt;ugen_7 -->
<g id="edge11" class="edge">
<title>ugen_5:e&#45;&gt;ugen_7:w</title>
<path fill="none" stroke="#fa8072" stroke-width="2" d="M555,-119.9378C627.9878,-119.9378 565.082,-258.3612 624.799,-271.8791"/>
<polygon fill="#fa8072" stroke="#fa8072" stroke-width="2" points="624.6921,-275.3867 635,-272.9378 625.4148,-268.4241 624.6921,-275.3867"/>
</g>
<!-- ugen_6&#45;&gt;ugen_7 -->
<g id="edge12" class="edge">
<title>ugen_6:e&#45;&gt;ugen_7:w</title>
<path fill="none" stroke="#fa8072" stroke-width="2" d="M555,-240.9378C593.9852,-240.9378 592.9065,-285.2199 625.0057,-292.8309"/>
<polygon fill="#fa8072" stroke="#fa8072" stroke-width="2" points="624.6754,-296.3156 635,-293.9378 625.4461,-289.3581 624.6754,-296.3156"/>
</g>
<!-- ugen_7&#45;&gt;ugen_10 -->
<g id="edge13" class="edge">
<title>ugen_7:e&#45;&gt;ugen_10:w</title>
<path fill="none" stroke="#4682b4" stroke-width="2" d="M764,-310.9378C808.4034,-310.9378 791.1931,-242.0997 825.9694,-231.3437"/>
<polygon fill="#4682b4" stroke="#4682b4" stroke-width="2" points="826.5826,-234.7921 836,-229.9378 825.611,-227.8598 826.5826,-234.7921"/>
</g>
<!-- ugen_8&#45;&gt;ugen_10 -->
<g id="edge14" class="edge">
<title>ugen_8:e&#45;&gt;ugen_10:w</title>
<path fill="none" stroke="#fa8072" stroke-width="2" d="M739.5,-53.9378C797.6448,-53.9378 777.0987,-142.5624 826.0219,-152.9481"/>
<polygon fill="#fa8072" stroke="#fa8072" stroke-width="2" points="825.7033,-156.4336 836,-153.9378 826.3943,-149.4678 825.7033,-156.4336"/>
</g>
<!-- ugen_9&#45;&gt;ugen_10 -->
<g id="edge15" class="edge">
<title>ugen_9:e&#45;&gt;ugen_10:w</title>
<path fill="none" stroke="#fa8072" stroke-width="2" d="M739.5,-174.9378C778.7031,-174.9378 791.0307,-174.9378 825.6146,-174.9378"/>
<polygon fill="#fa8072" stroke="#fa8072" stroke-width="2" points="826,-178.4379 836,-174.9378 826,-171.4379 826,-178.4379"/>
</g>
<!-- ugen_0 -->
<g id="node1" class="node">
<title>ugen_0</title>
<path fill="#ee9572" stroke="#000000" stroke-width="2" d="M12,-253.9378C12,-253.9378 42,-253.9378 42,-253.9378 48,-253.9378 54,-259.9378 54,-265.9378 54,-265.9378 54,-343.9378 54,-343.9378 54,-349.9378 48,-355.9378 42,-355.9378 42,-355.9378 12,-355.9378 12,-355.9378 6,-355.9378 0,-349.9378 0,-343.9378 0,-343.9378 0,-265.9378 0,-265.9378 0,-259.9378 6,-253.9378 12,-253.9378"/>
<text text-anchor="middle" x="27" y="-342.3378" font-family="Arial" font-size="12.00" fill="#000000">Control</text>
<text text-anchor="middle" x="27" y="-329.3378" font-family="Arial" font-size="12.00" fill="#000000">(scalar)</text>
<polyline fill="none" stroke="#000000" stroke-width="2" points="0,-321.9378 54,-321.9378 "/>
<text text-anchor="middle" x="27" y="-308.3378" font-family="Arial" font-size="12.00" fill="#000000">duration:</text>
<text text-anchor="middle" x="27" y="-295.3378" font-family="Arial" font-size="12.00" fill="#000000">1.0</text>
<polyline fill="none" stroke="#000000" stroke-width="2" points="0,-287.9378 54,-287.9378 "/>
<text text-anchor="middle" x="27" y="-274.3378" font-family="Arial" font-size="12.00" fill="#000000">out:</text>
<text text-anchor="middle" x="27" y="-261.3378" font-family="Arial" font-size="12.00" fill="#000000">0.0</text>
</g>
<!-- ugen_1 -->
<g id="node2" class="node">
<title>ugen_1</title>
<path fill="#eedc82" stroke="#000000" stroke-width="2" d="M138,-260.4378C138,-260.4378 204,-260.4378 204,-260.4378 210,-260.4378 216,-266.4378 216,-272.4378 216,-272.4378 216,-405.4378 216,-405.4378 216,-411.4378 210,-417.4378 204,-417.4378 204,-417.4378 138,-417.4378 138,-417.4378 132,-417.4378 126,-411.4378 126,-405.4378 126,-405.4378 126,-272.4378 126,-272.4378 126,-266.4378 132,-260.4378 138,-260.4378"/>
<text text-anchor="middle" x="171" y="-403.8378" font-family="Arial" font-size="12.00" fill="#000000">Line</text>
<text text-anchor="middle" x="171" y="-390.8378" font-family="Arial" font-size="12.00" fill="#000000">(control)</text>
<polyline fill="none" stroke="#000000" stroke-width="2" points="126,-383.4378 216,-383.4378 "/>
<text text-anchor="middle" x="160" y="-369.8378" font-family="Arial" font-size="12.00" fill="#000000">start:</text>
<text text-anchor="middle" x="160" y="-356.8378" font-family="Arial" font-size="12.00" fill="#000000">0.0</text>
<polyline fill="none" stroke="#000000" stroke-width="2" points="126,-349.4378 194,-349.4378 "/>
<text text-anchor="middle" x="160" y="-335.8378" font-family="Arial" font-size="12.00" fill="#000000">stop:</text>
<text text-anchor="middle" x="160" y="-322.8378" font-family="Arial" font-size="12.00" fill="#000000">1.0</text>
<polyline fill="none" stroke="#000000" stroke-width="2" points="126,-315.4378 194,-315.4378 "/>
<text text-anchor="middle" x="160" y="-301.8378" font-family="Arial" font-size="12.00" fill="#000000">duration</text>
<polyline fill="none" stroke="#000000" stroke-width="2" points="126,-294.4378 194,-294.4378 "/>
<text text-anchor="middle" x="160" y="-280.8378" font-family="Arial" font-size="12.00" fill="#000000">done_action:</text>
<text text-anchor="middle" x="160" y="-267.8378" font-family="Arial" font-size="12.00" fill="#000000">2.0</text>
<polyline fill="none" stroke="#000000" stroke-width="2" points="194,-260.4378 194,-383.4378 "/>
<text text-anchor="middle" x="205" y="-318.8378" font-family="Arial" font-size="12.00" fill="#000000">0</text>
</g>
<!-- ugen_10 -->
<g id="node3" class="node">
<title>ugen_10</title>
<path fill="#bcd2ee" stroke="#000000" stroke-width="2" d="M848,-143.4378C848,-143.4378 953,-143.4378 953,-143.4378 959,-143.4378 965,-149.4378 965,-155.4378 965,-155.4378 965,-262.4378 965,-262.4378 965,-268.4378 959,-274.4378 953,-274.4378 953,-274.4378 848,-274.4378 848,-274.4378 842,-274.4378 836,-268.4378 836,-262.4378 836,-262.4378 836,-155.4378 836,-155.4378 836,-149.4378 842,-143.4378 848,-143.4378"/>
<text text-anchor="middle" x="900.5" y="-260.8378" font-family="Arial" font-size="12.00" fill="#000000">AllpassC</text>
<text text-anchor="middle" x="900.5" y="-247.8378" font-family="Arial" font-size="12.00" fill="#000000">(audio)</text>
<polyline fill="none" stroke="#000000" stroke-width="2" points="836,-240.4378 965,-240.4378 "/>
<text text-anchor="middle" x="889.5" y="-226.8378" font-family="Arial" font-size="12.00" fill="#000000">source</text>
<polyline fill="none" stroke="#000000" stroke-width="2" points="836,-219.4378 943,-219.4378 "/>
<text text-anchor="middle" x="889.5" y="-205.8378" font-family="Arial" font-size="12.00" fill="#000000">maximum_delay_time:</text>
<text text-anchor="middle" x="889.5" y="-192.8378" font-family="Arial" font-size="12.00" fill="#000000">0.1</text>
<polyline fill="none" stroke="#000000" stroke-width="2" points="836,-185.4378 943,-185.4378 "/>
<text text-anchor="middle" x="889.5" y="-171.8378" font-family="Arial" font-size="12.00" fill="#000000">delay_time</text>
<polyline fill="none" stroke="#000000" stroke-width="2" points="836,-164.4378 943,-164.4378 "/>
<text text-anchor="middle" x="889.5" y="-150.8378" font-family="Arial" font-size="12.00" fill="#000000">decay_time</text>
<polyline fill="none" stroke="#000000" stroke-width="2" points="943,-143.4378 943,-240.4378 "/>
<text text-anchor="middle" x="954" y="-188.8378" font-family="Arial" font-size="12.00" fill="#000000">0</text>
</g>
<!-- ugen_11 -->
<g id="node4" class="node">
<title>ugen_11</title>
<path fill="#bcd2ee" stroke="#000000" stroke-width="2" d="M1049,-160.4378C1049,-160.4378 1121,-160.4378 1121,-160.4378 1127,-160.4378 1133,-166.4378 1133,-172.4378 1133,-172.4378 1133,-237.4378 1133,-237.4378 1133,-243.4378 1127,-249.4378 1121,-249.4378 1121,-249.4378 1049,-249.4378 1049,-249.4378 1043,-249.4378 1037,-243.4378 1037,-237.4378 1037,-237.4378 1037,-172.4378 1037,-172.4378 1037,-166.4378 1043,-160.4378 1049,-160.4378"/>
<text text-anchor="middle" x="1085" y="-235.8378" font-family="Arial" font-size="12.00" fill="#000000">BinaryOpUGen</text>
<text text-anchor="middle" x="1085" y="-222.8378" font-family="Arial" font-size="12.00" fill="#000000">[MULTIPLICATION]</text>
<text text-anchor="middle" x="1085" y="-209.8378" font-family="Arial" font-size="12.00" fill="#000000">(audio)</text>
<polyline fill="none" stroke="#000000" stroke-width="2" points="1037,-202.4378 1133,-202.4378 "/>
<text text-anchor="middle" x="1064" y="-188.8378" font-family="Arial" font-size="12.00" fill="#000000">left</text>
<polyline fill="none" stroke="#000000" stroke-width="2" points="1037,-181.4378 1091,-181.4378 "/>
<text text-anchor="middle" x="1064" y="-167.8378" font-family="Arial" font-size="12.00" fill="#000000">right</text>
<polyline fill="none" stroke="#000000" stroke-width="2" points="1091,-160.4378 1091,-202.4378 "/>
<text text-anchor="middle" x="1112" y="-178.3378" font-family="Arial" font-size="12.00" fill="#000000">0</text>
</g>
<!-- ugen_12 -->
<g id="node5" class="node">
<title>ugen_12</title>
<path fill="#bcd2ee" stroke="#000000" stroke-width="2" d="M1217,-292.9378C1217,-292.9378 1247,-292.9378 1247,-292.9378 1253,-292.9378 1259,-298.9378 1259,-304.9378 1259,-304.9378 1259,-356.9378 1259,-356.9378 1259,-362.9378 1253,-368.9378 1247,-368.9378 1247,-368.9378 1217,-368.9378 1217,-368.9378 1211,-368.9378 1205,-362.9378 1205,-356.9378 1205,-356.9378 1205,-304.9378 1205,-304.9378 1205,-298.9378 1211,-292.9378 1217,-292.9378"/>
<text text-anchor="middle" x="1232" y="-355.3378" font-family="Arial" font-size="12.00" fill="#000000">Out</text>
<text text-anchor="middle" x="1232" y="-342.3378" font-family="Arial" font-size="12.00" fill="#000000">(audio)</text>
<polyline fill="none" stroke="#000000" stroke-width="2" points="1205,-334.9378 1259,-334.9378 "/>
<text text-anchor="middle" x="1232" y="-321.3378" font-family="Arial" font-size="12.00" fill="#000000">bus</text>
<polyline fill="none" stroke="#000000" stroke-width="2" points="1205,-313.9378 1259,-313.9378 "/>
<text text-anchor="middle" x="1232" y="-300.3378" font-family="Arial" font-size="12.00" fill="#000000">source</text>
</g>
<!-- ugen_2 -->
<g id="node6" class="node">
<title>ugen_2</title>
<path fill="#eedc82" stroke="#000000" stroke-width="2" d="M300,-261.9378C300,-261.9378 383,-261.9378 383,-261.9378 389,-261.9378 395,-267.9378 395,-273.9378 395,-273.9378 395,-317.9378 395,-317.9378 395,-323.9378 389,-329.9378 383,-329.9378 383,-329.9378 300,-329.9378 300,-329.9378 294,-329.9378 288,-323.9378 288,-317.9378 288,-317.9378 288,-273.9378 288,-273.9378 288,-267.9378 294,-261.9378 300,-261.9378"/>
<text text-anchor="middle" x="341.5" y="-316.3378" font-family="Arial" font-size="12.00" fill="#000000">UnaryOpUGen</text>
<text text-anchor="middle" x="341.5" y="-303.3378" font-family="Arial" font-size="12.00" fill="#000000">[HANNING_WINDOW]</text>
<text text-anchor="middle" x="341.5" y="-290.3378" font-family="Arial" font-size="12.00" fill="#000000">(control)</text>
<polyline fill="none" stroke="#000000" stroke-width="2" points="288,-282.9378 395,-282.9378 "/>
<text text-anchor="middle" x="320" y="-269.3378" font-family="Arial" font-size="12.00" fill="#000000">source</text>
<polyline fill="none" stroke="#000000" stroke-width="2" points="352,-261.9378 352,-282.9378 "/>
<text text-anchor="middle" x="373.5" y="-269.3378" font-family="Arial" font-size="12.00" fill="#000000">0</text>
</g>
<!-- ugen_3 -->
<g id="node7" class="node">
<title>ugen_3</title>
<path fill="#bcd2ee" stroke="#000000" stroke-width="2" d="M326.5,-349.4378C326.5,-349.4378 356.5,-349.4378 356.5,-349.4378 362.5,-349.4378 368.5,-355.4378 368.5,-361.4378 368.5,-361.4378 368.5,-392.4378 368.5,-392.4378 368.5,-398.4378 362.5,-404.4378 356.5,-404.4378 356.5,-404.4378 326.5,-404.4378 326.5,-404.4378 320.5,-404.4378 314.5,-398.4378 314.5,-392.4378 314.5,-392.4378 314.5,-361.4378 314.5,-361.4378 314.5,-355.4378 320.5,-349.4378 326.5,-349.4378"/>
<text text-anchor="middle" x="341.5" y="-390.8378" font-family="Arial" font-size="12.00" fill="#000000">In</text>
<text text-anchor="middle" x="341.5" y="-377.8378" font-family="Arial" font-size="12.00" fill="#000000">(audio)</text>
<polyline fill="none" stroke="#000000" stroke-width="2" points="314.5,-370.4378 368.5,-370.4378 "/>
<text text-anchor="middle" x="330" y="-356.8378" font-family="Arial" font-size="12.00" fill="#000000">bus</text>
<polyline fill="none" stroke="#000000" stroke-width="2" points="345.5,-349.4378 345.5,-370.4378 "/>
<text text-anchor="middle" x="357" y="-356.8378" font-family="Arial" font-size="12.00" fill="#000000">0</text>
</g>
<!-- ugen_4 -->
<g id="node8" class="node">
<title>ugen_4</title>
<path fill="#bcd2ee" stroke="#000000" stroke-width="2" d="M479,-328.4378C479,-328.4378 551,-328.4378 551,-328.4378 557,-328.4378 563,-334.4378 563,-340.4378 563,-340.4378 563,-405.4378 563,-405.4378 563,-411.4378 557,-417.4378 551,-417.4378 551,-417.4378 479,-417.4378 479,-417.4378 473,-417.4378 467,-411.4378 467,-405.4378 467,-405.4378 467,-340.4378 467,-340.4378 467,-334.4378 473,-328.4378 479,-328.4378"/>
<text text-anchor="middle" x="515" y="-403.8378" font-family="Arial" font-size="12.00" fill="#000000">BinaryOpUGen</text>
<text text-anchor="middle" x="515" y="-390.8378" font-family="Arial" font-size="12.00" fill="#000000">[MULTIPLICATION]</text>
<text text-anchor="middle" x="515" y="-377.8378" font-family="Arial" font-size="12.00" fill="#000000">(audio)</text>
<polyline fill="none" stroke="#000000" stroke-width="2" points="467,-370.4378 563,-370.4378 "/>
<text text-anchor="middle" x="494" y="-356.8378" font-family="Arial" font-size="12.00" fill="#000000">left</text>
<polyline fill="none" stroke="#000000" stroke-width="2" points="467,-349.4378 521,-349.4378 "/>
<text text-anchor="middle" x="494" y="-335.8378" font-family="Arial" font-size="12.00" fill="#000000">right</text>
<polyline fill="none" stroke="#000000" stroke-width="2" points="521,-328.4378 521,-370.4378 "/>
<text text-anchor="middle" x="542" y="-346.3378" font-family="Arial" font-size="12.00" fill="#000000">0</text>
</g>
<!-- ugen_5 -->
<g id="node9" class="node">
<title>ugen_5</title>
<path fill="#ee9572" stroke="#000000" stroke-width="2" d="M487,-85.9378C487,-85.9378 543,-85.9378 543,-85.9378 549,-85.9378 555,-91.9378 555,-97.9378 555,-97.9378 555,-175.9378 555,-175.9378 555,-181.9378 549,-187.9378 543,-187.9378 543,-187.9378 487,-187.9378 487,-187.9378 481,-187.9378 475,-181.9378 475,-175.9378 475,-175.9378 475,-97.9378 475,-97.9378 475,-91.9378 481,-85.9378 487,-85.9378"/>
<text text-anchor="middle" x="515" y="-174.3378" font-family="Arial" font-size="12.00" fill="#000000">ExpRand</text>
<text text-anchor="middle" x="515" y="-161.3378" font-family="Arial" font-size="12.00" fill="#000000">(scalar)</text>
<polyline fill="none" stroke="#000000" stroke-width="2" points="475,-153.9378 555,-153.9378 "/>
<text text-anchor="middle" x="504" y="-140.3378" font-family="Arial" font-size="12.00" fill="#000000">minimum:</text>
<text text-anchor="middle" x="504" y="-127.3378" font-family="Arial" font-size="12.00" fill="#000000">0.01</text>
<polyline fill="none" stroke="#000000" stroke-width="2" points="475,-119.9378 533,-119.9378 "/>
<text text-anchor="middle" x="504" y="-106.3378" font-family="Arial" font-size="12.00" fill="#000000">maximum:</text>
<text text-anchor="middle" x="504" y="-93.3378" font-family="Arial" font-size="12.00" fill="#000000">0.1</text>
<polyline fill="none" stroke="#000000" stroke-width="2" points="533,-85.9378 533,-153.9378 "/>
<text text-anchor="middle" x="544" y="-116.8378" font-family="Arial" font-size="12.00" fill="#000000">0</text>
</g>
<!-- ugen_6 -->
<g id="node10" class="node">
<title>ugen_6</title>
<path fill="#ee9572" stroke="#000000" stroke-width="2" d="M487,-206.9378C487,-206.9378 543,-206.9378 543,-206.9378 549,-206.9378 555,-212.9378 555,-218.9378 555,-218.9378 555,-296.9378 555,-296.9378 555,-302.9378 549,-308.9378 543,-308.9378 543,-308.9378 487,-308.9378 487,-308.9378 481,-308.9378 475,-302.9378 475,-296.9378 475,-296.9378 475,-218.9378 475,-218.9378 475,-212.9378 481,-206.9378 487,-206.9378"/>
<text text-anchor="middle" x="515" y="-295.3378" font-family="Arial" font-size="12.00" fill="#000000">ExpRand</text>
<text text-anchor="middle" x="515" y="-282.3378" font-family="Arial" font-size="12.00" fill="#000000">(scalar)</text>
<polyline fill="none" stroke="#000000" stroke-width="2" points="475,-274.9378 555,-274.9378 "/>
<text text-anchor="middle" x="504" y="-261.3378" font-family="Arial" font-size="12.00" fill="#000000">minimum:</text>
<text text-anchor="middle" x="504" y="-248.3378" font-family="Arial" font-size="12.00" fill="#000000">0.01</text>
<polyline fill="none" stroke="#000000" stroke-width="2" points="475,-240.9378 533,-240.9378 "/>
<text text-anchor="middle" x="504" y="-227.3378" font-family="Arial" font-size="12.00" fill="#000000">maximum:</text>
<text text-anchor="middle" x="504" y="-214.3378" font-family="Arial" font-size="12.00" fill="#000000">0.1</text>
<polyline fill="none" stroke="#000000" stroke-width="2" points="533,-206.9378 533,-274.9378 "/>
<text text-anchor="middle" x="544" y="-237.8378" font-family="Arial" font-size="12.00" fill="#000000">0</text>
</g>
<!-- ugen_7 -->
<g id="node11" class="node">
<title>ugen_7</title>
<path fill="#bcd2ee" stroke="#000000" stroke-width="2" d="M647,-262.4378C647,-262.4378 752,-262.4378 752,-262.4378 758,-262.4378 764,-268.4378 764,-274.4378 764,-274.4378 764,-381.4378 764,-381.4378 764,-387.4378 758,-393.4378 752,-393.4378 752,-393.4378 647,-393.4378 647,-393.4378 641,-393.4378 635,-387.4378 635,-381.4378 635,-381.4378 635,-274.4378 635,-274.4378 635,-268.4378 641,-262.4378 647,-262.4378"/>
<text text-anchor="middle" x="699.5" y="-379.8378" font-family="Arial" font-size="12.00" fill="#000000">AllpassC</text>
<text text-anchor="middle" x="699.5" y="-366.8378" font-family="Arial" font-size="12.00" fill="#000000">(audio)</text>
<polyline fill="none" stroke="#000000" stroke-width="2" points="635,-359.4378 764,-359.4378 "/>
<text text-anchor="middle" x="688.5" y="-345.8378" font-family="Arial" font-size="12.00" fill="#000000">source</text>
<polyline fill="none" stroke="#000000" stroke-width="2" points="635,-338.4378 742,-338.4378 "/>
<text text-anchor="middle" x="688.5" y="-324.8378" font-family="Arial" font-size="12.00" fill="#000000">maximum_delay_time:</text>
<text text-anchor="middle" x="688.5" y="-311.8378" font-family="Arial" font-size="12.00" fill="#000000">0.1</text>
<polyline fill="none" stroke="#000000" stroke-width="2" points="635,-304.4378 742,-304.4378 "/>
<text text-anchor="middle" x="688.5" y="-290.8378" font-family="Arial" font-size="12.00" fill="#000000">delay_time</text>
<polyline fill="none" stroke="#000000" stroke-width="2" points="635,-283.4378 742,-283.4378 "/>
<text text-anchor="middle" x="688.5" y="-269.8378" font-family="Arial" font-size="12.00" fill="#000000">decay_time</text>
<polyline fill="none" stroke="#000000" stroke-width="2" points="742,-262.4378 742,-359.4378 "/>
<text text-anchor="middle" x="753" y="-307.8378" font-family="Arial" font-size="12.00" fill="#000000">0</text>
</g>
<!-- ugen_8 -->
<g id="node12" class="node">
<title>ugen_8</title>
<path fill="#ee9572" stroke="#000000" stroke-width="2" d="M671.5,-19.9378C671.5,-19.9378 727.5,-19.9378 727.5,-19.9378 733.5,-19.9378 739.5,-25.9378 739.5,-31.9378 739.5,-31.9378 739.5,-109.9378 739.5,-109.9378 739.5,-115.9378 733.5,-121.9378 727.5,-121.9378 727.5,-121.9378 671.5,-121.9378 671.5,-121.9378 665.5,-121.9378 659.5,-115.9378 659.5,-109.9378 659.5,-109.9378 659.5,-31.9378 659.5,-31.9378 659.5,-25.9378 665.5,-19.9378 671.5,-19.9378"/>
<text text-anchor="middle" x="699.5" y="-108.3378" font-family="Arial" font-size="12.00" fill="#000000">ExpRand</text>
<text text-anchor="middle" x="699.5" y="-95.3378" font-family="Arial" font-size="12.00" fill="#000000">(scalar)</text>
<polyline fill="none" stroke="#000000" stroke-width="2" points="659.5,-87.9378 739.5,-87.9378 "/>
<text text-anchor="middle" x="688.5" y="-74.3378" font-family="Arial" font-size="12.00" fill="#000000">minimum:</text>
<text text-anchor="middle" x="688.5" y="-61.3378" font-family="Arial" font-size="12.00" fill="#000000">0.01</text>
<polyline fill="none" stroke="#000000" stroke-width="2" points="659.5,-53.9378 717.5,-53.9378 "/>
<text text-anchor="middle" x="688.5" y="-40.3378" font-family="Arial" font-size="12.00" fill="#000000">maximum:</text>
<text text-anchor="middle" x="688.5" y="-27.3378" font-family="Arial" font-size="12.00" fill="#000000">0.1</text>
<polyline fill="none" stroke="#000000" stroke-width="2" points="717.5,-19.9378 717.5,-87.9378 "/>
<text text-anchor="middle" x="728.5" y="-50.8378" font-family="Arial" font-size="12.00" fill="#000000">0</text>
</g>
<!-- ugen_9 -->
<g id="node13" class="node">
<title>ugen_9</title>
<path fill="#ee9572" stroke="#000000" stroke-width="2" d="M671.5,-140.9378C671.5,-140.9378 727.5,-140.9378 727.5,-140.9378 733.5,-140.9378 739.5,-146.9378 739.5,-152.9378 739.5,-152.9378 739.5,-230.9378 739.5,-230.9378 739.5,-236.9378 733.5,-242.9378 727.5,-242.9378 727.5,-242.9378 671.5,-242.9378 671.5,-242.9378 665.5,-242.9378 659.5,-236.9378 659.5,-230.9378 659.5,-230.9378 659.5,-152.9378 659.5,-152.9378 659.5,-146.9378 665.5,-140.9378 671.5,-140.9378"/>
<text text-anchor="middle" x="699.5" y="-229.3378" font-family="Arial" font-size="12.00" fill="#000000">ExpRand</text>
<text text-anchor="middle" x="699.5" y="-216.3378" font-family="Arial" font-size="12.00" fill="#000000">(scalar)</text>
<polyline fill="none" stroke="#000000" stroke-width="2" points="659.5,-208.9378 739.5,-208.9378 "/>
<text text-anchor="middle" x="688.5" y="-195.3378" font-family="Arial" font-size="12.00" fill="#000000">minimum:</text>
<text text-anchor="middle" x="688.5" y="-182.3378" font-family="Arial" font-size="12.00" fill="#000000">0.01</text>
<polyline fill="none" stroke="#000000" stroke-width="2" points="659.5,-174.9378 717.5,-174.9378 "/>
<text text-anchor="middle" x="688.5" y="-161.3378" font-family="Arial" font-size="12.00" fill="#000000">maximum:</text>
<text text-anchor="middle" x="688.5" y="-148.3378" font-family="Arial" font-size="12.00" fill="#000000">0.1</text>
<polyline fill="none" stroke="#000000" stroke-width="2" points="717.5,-140.9378 717.5,-208.9378 "/>
<text text-anchor="middle" x="728.5" y="-171.8378" font-family="Arial" font-size="12.00" fill="#000000">0</text>
</g>
</g>
</svg>
