<?xml version="1.0" encoding="UTF-8" standalone="no"?>
<!DOCTYPE svg PUBLIC "-//W3C//DTD SVG 1.1//EN"
 "http://www.w3.org/Graphics/SVG/1.1/DTD/svg11.dtd">
<!-- Generated by graphviz version 2.40.1 (20161225.0304)
 -->
<!-- Title: synthdef_fbe87bfdce229ac82c0eb5bb214fddbd Pages: 1 -->
<svg width="754pt" height="638pt"
 viewBox="0.00 0.00 754.00 637.50" xmlns="http://www.w3.org/2000/svg" xmlns:xlink="http://www.w3.org/1999/xlink">
<g id="graph0" class="graph" transform="scale(1 1) rotate(0) translate(4 633.5)">
<title>synthdef_fbe87bfdce229ac82c0eb5bb214fddbd</title>
<!-- ugen_0&#45;&gt;ugen_1 -->
<g id="edge1" class="edge">
<title>ugen_0:e&#45;&gt;ugen_1:w</title>
<path fill="none" stroke="#fa8072" stroke-width="2" d="M54,-477.5C86.6968,-477.5 89.3832,-508.9804 115.9841,-515.3749"/>
<polygon fill="#fa8072" stroke="#fa8072" stroke-width="2" points="115.6718,-518.8617 126,-516.5 116.4533,-511.9055 115.6718,-518.8617"/>
</g>
<!-- ugen_0&#45;&gt;ugen_10 -->
<g id="edge2" class="edge">
<title>ugen_0:e&#45;&gt;ugen_10:w</title>
<path fill="none" stroke="#fa8072" stroke-width="2" d="M54,-443.5C304.8089,-443.5 378.8422,-500.0555 618,-424.5 650.8807,-414.1122 651.931,-384.2026 679.8991,-378.4599"/>
<polygon fill="#fa8072" stroke="#fa8072" stroke-width="2" points="680.376,-381.9305 690,-377.5 679.7137,-374.9619 680.376,-381.9305"/>
</g>
<!-- ugen_0&#45;&gt;ugen_3 -->
<g id="edge3" class="edge">
<title>ugen_0:e&#45;&gt;ugen_3:w</title>
<path fill="none" stroke="#fa8072" stroke-width="2" d="M54,-443.5C101.8824,-443.5 94.0065,-380.4047 134.0479,-371.532"/>
<polygon fill="#fa8072" stroke="#fa8072" stroke-width="2" points="134.4143,-375.0128 144,-370.5 133.6923,-368.0501 134.4143,-375.0128"/>
</g>
<!-- ugen_1&#45;&gt;ugen_2 -->
<g id="edge4" class="edge">
<title>ugen_1:e&#45;&gt;ugen_2:w</title>
<path fill="none" stroke="#daa520" stroke-width="2" d="M216,-533.5C286.9342,-533.5 413.2267,-372.0452 489.1345,-357.5395"/>
<polygon fill="#daa520" stroke="#daa520" stroke-width="2" points="489.8992,-360.9804 499.5,-356.5 489.2006,-354.0153 489.8992,-360.9804"/>
</g>
<!-- ugen_2&#45;&gt;ugen_10 -->
<g id="edge5" class="edge">
<title>ugen_2:e&#45;&gt;ugen_10:w</title>
<path fill="none" stroke="#daa520" stroke-width="2" d="M607.5,-356.5C640.5859,-356.5 651.2807,-356.5 679.9934,-356.5"/>
<polygon fill="#daa520" stroke="#daa520" stroke-width="2" points="680,-360.0001 690,-356.5 680,-353.0001 680,-360.0001"/>
</g>
<!-- ugen_3&#45;&gt;ugen_6 -->
<g id="edge6" class="edge">
<title>ugen_3:e&#45;&gt;ugen_6:w</title>
<path fill="none" stroke="#4682b4" stroke-width="2" d="M198,-370.5C238.3494,-370.5 243.4203,-335.9507 277.9819,-330.2824"/>
<polygon fill="#4682b4" stroke="#4682b4" stroke-width="2" points="278.3029,-333.7681 288,-329.5 277.7578,-326.7893 278.3029,-333.7681"/>
</g>
<!-- ugen_4&#45;&gt;ugen_6 -->
<g id="edge7" class="edge">
<title>ugen_4:e&#45;&gt;ugen_6:w</title>
<path fill="none" stroke="#fa8072" stroke-width="2" d="M211,-151.5C264.0284,-151.5 235.6489,-240.4029 277.8653,-252.2103"/>
<polygon fill="#fa8072" stroke="#fa8072" stroke-width="2" points="277.6381,-255.7096 288,-253.5 278.5218,-248.7656 277.6381,-255.7096"/>
</g>
<!-- ugen_5&#45;&gt;ugen_6 -->
<g id="edge8" class="edge">
<title>ugen_5:e&#45;&gt;ugen_6:w</title>
<path fill="none" stroke="#fa8072" stroke-width="2" d="M211,-272.5C241.6232,-272.5 251.6805,-274.1004 277.9656,-274.438"/>
<polygon fill="#fa8072" stroke="#fa8072" stroke-width="2" points="277.9785,-277.938 288,-274.5 278.0219,-270.9381 277.9785,-277.938"/>
</g>
<!-- ugen_6&#45;&gt;ugen_9 -->
<g id="edge9" class="edge">
<title>ugen_6:e&#45;&gt;ugen_9:w</title>
<path fill="none" stroke="#4682b4" stroke-width="2" d="M417,-291.5C451.0508,-291.5 451.5492,-254.8599 479.0468,-247.7036"/>
<polygon fill="#4682b4" stroke="#4682b4" stroke-width="2" points="479.4925,-251.1753 489,-246.5 478.6521,-244.226 479.4925,-251.1753"/>
</g>
<!-- ugen_7&#45;&gt;ugen_9 -->
<g id="edge10" class="edge">
<title>ugen_7:e&#45;&gt;ugen_9:w</title>
<path fill="none" stroke="#fa8072" stroke-width="2" d="M392.5,-34.5C462.9958,-34.5 419.637,-157.543 479.0142,-169.5589"/>
<polygon fill="#fa8072" stroke="#fa8072" stroke-width="2" points="478.7157,-173.0462 489,-170.5 479.3725,-166.0771 478.7157,-173.0462"/>
</g>
<!-- ugen_8&#45;&gt;ugen_9 -->
<g id="edge11" class="edge">
<title>ugen_8:e&#45;&gt;ugen_9:w</title>
<path fill="none" stroke="#fa8072" stroke-width="2" d="M392.5,-155.5C434.6999,-155.5 442.2016,-186.0947 478.9799,-190.8752"/>
<polygon fill="#fa8072" stroke="#fa8072" stroke-width="2" points="478.8015,-194.3707 489,-191.5 479.2373,-187.3843 478.8015,-194.3707"/>
</g>
<!-- ugen_9&#45;&gt;ugen_10 -->
<g id="edge12" class="edge">
<title>ugen_9:e&#45;&gt;ugen_10:w</title>
<path fill="none" stroke="#4682b4" stroke-width="2" d="M618,-208.5C679.0825,-208.5 631.4643,-321.0532 679.8085,-334.243"/>
<polygon fill="#4682b4" stroke="#4682b4" stroke-width="2" points="679.6467,-337.7495 690,-335.5 680.5037,-330.8022 679.6467,-337.7495"/>
</g>
<!-- ugen_0 -->
<g id="node1" class="node">
<title>ugen_0</title>
<path fill="#ee9572" stroke="#000000" stroke-width="2" d="M12,-426.5C12,-426.5 42,-426.5 42,-426.5 48,-426.5 54,-432.5 54,-438.5 54,-438.5 54,-516.5 54,-516.5 54,-522.5 48,-528.5 42,-528.5 42,-528.5 12,-528.5 12,-528.5 6,-528.5 0,-522.5 0,-516.5 0,-516.5 0,-438.5 0,-438.5 0,-432.5 6,-426.5 12,-426.5"/>
<text text-anchor="middle" x="27" y="-514.9" font-family="Arial" font-size="12.00" fill="#000000">Control</text>
<text text-anchor="middle" x="27" y="-501.9" font-family="Arial" font-size="12.00" fill="#000000">(scalar)</text>
<polyline fill="none" stroke="#000000" stroke-width="2" points="0,-494.5 54,-494.5 "/>
<text text-anchor="middle" x="27" y="-480.9" font-family="Arial" font-size="12.00" fill="#000000">duration:</text>
<text text-anchor="middle" x="27" y="-467.9" font-family="Arial" font-size="12.00" fill="#000000">1.0</text>
<polyline fill="none" stroke="#000000" stroke-width="2" points="0,-460.5 54,-460.5 "/>
<text text-anchor="middle" x="27" y="-446.9" font-family="Arial" font-size="12.00" fill="#000000">out:</text>
<text text-anchor="middle" x="27" y="-433.9" font-family="Arial" font-size="12.00" fill="#000000">0.0</text>
</g>
<!-- ugen_1 -->
<g id="node2" class="node">
<title>ugen_1</title>
<path fill="#eedc82" stroke="#000000" stroke-width="2" d="M138,-472C138,-472 204,-472 204,-472 210,-472 216,-478 216,-484 216,-484 216,-617 216,-617 216,-623 210,-629 204,-629 204,-629 138,-629 138,-629 132,-629 126,-623 126,-617 126,-617 126,-484 126,-484 126,-478 132,-472 138,-472"/>
<text text-anchor="middle" x="171" y="-615.4" font-family="Arial" font-size="12.00" fill="#000000">Line</text>
<text text-anchor="middle" x="171" y="-602.4" font-family="Arial" font-size="12.00" fill="#000000">(control)</text>
<polyline fill="none" stroke="#000000" stroke-width="2" points="126,-595 216,-595 "/>
<text text-anchor="middle" x="160" y="-581.4" font-family="Arial" font-size="12.00" fill="#000000">start:</text>
<text text-anchor="middle" x="160" y="-568.4" font-family="Arial" font-size="12.00" fill="#000000">0.0</text>
<polyline fill="none" stroke="#000000" stroke-width="2" points="126,-561 194,-561 "/>
<text text-anchor="middle" x="160" y="-547.4" font-family="Arial" font-size="12.00" fill="#000000">stop:</text>
<text text-anchor="middle" x="160" y="-534.4" font-family="Arial" font-size="12.00" fill="#000000">1.0</text>
<polyline fill="none" stroke="#000000" stroke-width="2" points="126,-527 194,-527 "/>
<text text-anchor="middle" x="160" y="-513.4" font-family="Arial" font-size="12.00" fill="#000000">duration</text>
<polyline fill="none" stroke="#000000" stroke-width="2" points="126,-506 194,-506 "/>
<text text-anchor="middle" x="160" y="-492.4" font-family="Arial" font-size="12.00" fill="#000000">done_action:</text>
<text text-anchor="middle" x="160" y="-479.4" font-family="Arial" font-size="12.00" fill="#000000">2.0</text>
<polyline fill="none" stroke="#000000" stroke-width="2" points="194,-472 194,-595 "/>
<text text-anchor="middle" x="205" y="-530.4" font-family="Arial" font-size="12.00" fill="#000000">0</text>
</g>
<!-- ugen_10 -->
<g id="node3" class="node">
<title>ugen_10</title>
<path fill="#bcd2ee" stroke="#000000" stroke-width="2" d="M702,-325C702,-325 734,-325 734,-325 740,-325 746,-331 746,-337 746,-337 746,-410 746,-410 746,-416 740,-422 734,-422 734,-422 702,-422 702,-422 696,-422 690,-416 690,-410 690,-410 690,-337 690,-337 690,-331 696,-325 702,-325"/>
<text text-anchor="middle" x="718" y="-408.4" font-family="Arial" font-size="12.00" fill="#000000">XOut</text>
<text text-anchor="middle" x="718" y="-395.4" font-family="Arial" font-size="12.00" fill="#000000">(audio)</text>
<polyline fill="none" stroke="#000000" stroke-width="2" points="690,-388 746,-388 "/>
<text text-anchor="middle" x="718" y="-374.4" font-family="Arial" font-size="12.00" fill="#000000">bus</text>
<polyline fill="none" stroke="#000000" stroke-width="2" points="690,-367 746,-367 "/>
<text text-anchor="middle" x="718" y="-353.4" font-family="Arial" font-size="12.00" fill="#000000">crossfade</text>
<polyline fill="none" stroke="#000000" stroke-width="2" points="690,-346 746,-346 "/>
<text text-anchor="middle" x="718" y="-332.4" font-family="Arial" font-size="12.00" fill="#000000">source</text>
</g>
<!-- ugen_2 -->
<g id="node4" class="node">
<title>ugen_2</title>
<path fill="#eedc82" stroke="#000000" stroke-width="2" d="M512,-346.5C512,-346.5 595,-346.5 595,-346.5 601,-346.5 607,-352.5 607,-358.5 607,-358.5 607,-402.5 607,-402.5 607,-408.5 601,-414.5 595,-414.5 595,-414.5 512,-414.5 512,-414.5 506,-414.5 500,-408.5 500,-402.5 500,-402.5 500,-358.5 500,-358.5 500,-352.5 506,-346.5 512,-346.5"/>
<text text-anchor="middle" x="553.5" y="-400.9" font-family="Arial" font-size="12.00" fill="#000000">UnaryOpUGen</text>
<text text-anchor="middle" x="553.5" y="-387.9" font-family="Arial" font-size="12.00" fill="#000000">[HANNING_WINDOW]</text>
<text text-anchor="middle" x="553.5" y="-374.9" font-family="Arial" font-size="12.00" fill="#000000">(control)</text>
<polyline fill="none" stroke="#000000" stroke-width="2" points="500,-367.5 607,-367.5 "/>
<text text-anchor="middle" x="532" y="-353.9" font-family="Arial" font-size="12.00" fill="#000000">source</text>
<polyline fill="none" stroke="#000000" stroke-width="2" points="564,-346.5 564,-367.5 "/>
<text text-anchor="middle" x="585.5" y="-353.9" font-family="Arial" font-size="12.00" fill="#000000">0</text>
</g>
<!-- ugen_3 -->
<g id="node5" class="node">
<title>ugen_3</title>
<path fill="#bcd2ee" stroke="#000000" stroke-width="2" d="M156,-360C156,-360 186,-360 186,-360 192,-360 198,-366 198,-372 198,-372 198,-403 198,-403 198,-409 192,-415 186,-415 186,-415 156,-415 156,-415 150,-415 144,-409 144,-403 144,-403 144,-372 144,-372 144,-366 150,-360 156,-360"/>
<text text-anchor="middle" x="171" y="-401.4" font-family="Arial" font-size="12.00" fill="#000000">In</text>
<text text-anchor="middle" x="171" y="-388.4" font-family="Arial" font-size="12.00" fill="#000000">(audio)</text>
<polyline fill="none" stroke="#000000" stroke-width="2" points="144,-381 198,-381 "/>
<text text-anchor="middle" x="159.5" y="-367.4" font-family="Arial" font-size="12.00" fill="#000000">bus</text>
<polyline fill="none" stroke="#000000" stroke-width="2" points="175,-360 175,-381 "/>
<text text-anchor="middle" x="186.5" y="-367.4" font-family="Arial" font-size="12.00" fill="#000000">0</text>
</g>
<!-- ugen_4 -->
<g id="node6" class="node">
<title>ugen_4</title>
<path fill="#ee9572" stroke="#000000" stroke-width="2" d="M143,-117.5C143,-117.5 199,-117.5 199,-117.5 205,-117.5 211,-123.5 211,-129.5 211,-129.5 211,-207.5 211,-207.5 211,-213.5 205,-219.5 199,-219.5 199,-219.5 143,-219.5 143,-219.5 137,-219.5 131,-213.5 131,-207.5 131,-207.5 131,-129.5 131,-129.5 131,-123.5 137,-117.5 143,-117.5"/>
<text text-anchor="middle" x="171" y="-205.9" font-family="Arial" font-size="12.00" fill="#000000">ExpRand</text>
<text text-anchor="middle" x="171" y="-192.9" font-family="Arial" font-size="12.00" fill="#000000">(scalar)</text>
<polyline fill="none" stroke="#000000" stroke-width="2" points="131,-185.5 211,-185.5 "/>
<text text-anchor="middle" x="160" y="-171.9" font-family="Arial" font-size="12.00" fill="#000000">minimum:</text>
<text text-anchor="middle" x="160" y="-158.9" font-family="Arial" font-size="12.00" fill="#000000">0.01</text>
<polyline fill="none" stroke="#000000" stroke-width="2" points="131,-151.5 189,-151.5 "/>
<text text-anchor="middle" x="160" y="-137.9" font-family="Arial" font-size="12.00" fill="#000000">maximum:</text>
<text text-anchor="middle" x="160" y="-124.9" font-family="Arial" font-size="12.00" fill="#000000">0.1</text>
<polyline fill="none" stroke="#000000" stroke-width="2" points="189,-117.5 189,-185.5 "/>
<text text-anchor="middle" x="200" y="-148.4" font-family="Arial" font-size="12.00" fill="#000000">0</text>
</g>
<!-- ugen_5 -->
<g id="node7" class="node">
<title>ugen_5</title>
<path fill="#ee9572" stroke="#000000" stroke-width="2" d="M143,-238.5C143,-238.5 199,-238.5 199,-238.5 205,-238.5 211,-244.5 211,-250.5 211,-250.5 211,-328.5 211,-328.5 211,-334.5 205,-340.5 199,-340.5 199,-340.5 143,-340.5 143,-340.5 137,-340.5 131,-334.5 131,-328.5 131,-328.5 131,-250.5 131,-250.5 131,-244.5 137,-238.5 143,-238.5"/>
<text text-anchor="middle" x="171" y="-326.9" font-family="Arial" font-size="12.00" fill="#000000">ExpRand</text>
<text text-anchor="middle" x="171" y="-313.9" font-family="Arial" font-size="12.00" fill="#000000">(scalar)</text>
<polyline fill="none" stroke="#000000" stroke-width="2" points="131,-306.5 211,-306.5 "/>
<text text-anchor="middle" x="160" y="-292.9" font-family="Arial" font-size="12.00" fill="#000000">minimum:</text>
<text text-anchor="middle" x="160" y="-279.9" font-family="Arial" font-size="12.00" fill="#000000">0.01</text>
<polyline fill="none" stroke="#000000" stroke-width="2" points="131,-272.5 189,-272.5 "/>
<text text-anchor="middle" x="160" y="-258.9" font-family="Arial" font-size="12.00" fill="#000000">maximum:</text>
<text text-anchor="middle" x="160" y="-245.9" font-family="Arial" font-size="12.00" fill="#000000">0.1</text>
<polyline fill="none" stroke="#000000" stroke-width="2" points="189,-238.5 189,-306.5 "/>
<text text-anchor="middle" x="200" y="-269.4" font-family="Arial" font-size="12.00" fill="#000000">0</text>
</g>
<!-- ugen_6 -->
<g id="node8" class="node">
<title>ugen_6</title>
<path fill="#bcd2ee" stroke="#000000" stroke-width="2" d="M300,-243C300,-243 405,-243 405,-243 411,-243 417,-249 417,-255 417,-255 417,-362 417,-362 417,-368 411,-374 405,-374 405,-374 300,-374 300,-374 294,-374 288,-368 288,-362 288,-362 288,-255 288,-255 288,-249 294,-243 300,-243"/>
<text text-anchor="middle" x="352.5" y="-360.4" font-family="Arial" font-size="12.00" fill="#000000">AllpassC</text>
<text text-anchor="middle" x="352.5" y="-347.4" font-family="Arial" font-size="12.00" fill="#000000">(audio)</text>
<polyline fill="none" stroke="#000000" stroke-width="2" points="288,-340 417,-340 "/>
<text text-anchor="middle" x="341.5" y="-326.4" font-family="Arial" font-size="12.00" fill="#000000">source</text>
<polyline fill="none" stroke="#000000" stroke-width="2" points="288,-319 395,-319 "/>
<text text-anchor="middle" x="341.5" y="-305.4" font-family="Arial" font-size="12.00" fill="#000000">maximum_delay_time:</text>
<text text-anchor="middle" x="341.5" y="-292.4" font-family="Arial" font-size="12.00" fill="#000000">0.1</text>
<polyline fill="none" stroke="#000000" stroke-width="2" points="288,-285 395,-285 "/>
<text text-anchor="middle" x="341.5" y="-271.4" font-family="Arial" font-size="12.00" fill="#000000">delay_time</text>
<polyline fill="none" stroke="#000000" stroke-width="2" points="288,-264 395,-264 "/>
<text text-anchor="middle" x="341.5" y="-250.4" font-family="Arial" font-size="12.00" fill="#000000">decay_time</text>
<polyline fill="none" stroke="#000000" stroke-width="2" points="395,-243 395,-340 "/>
<text text-anchor="middle" x="406" y="-288.4" font-family="Arial" font-size="12.00" fill="#000000">0</text>
</g>
<!-- ugen_7 -->
<g id="node9" class="node">
<title>ugen_7</title>
<path fill="#ee9572" stroke="#000000" stroke-width="2" d="M324.5,-.5C324.5,-.5 380.5,-.5 380.5,-.5 386.5,-.5 392.5,-6.5 392.5,-12.5 392.5,-12.5 392.5,-90.5 392.5,-90.5 392.5,-96.5 386.5,-102.5 380.5,-102.5 380.5,-102.5 324.5,-102.5 324.5,-102.5 318.5,-102.5 312.5,-96.5 312.5,-90.5 312.5,-90.5 312.5,-12.5 312.5,-12.5 312.5,-6.5 318.5,-.5 324.5,-.5"/>
<text text-anchor="middle" x="352.5" y="-88.9" font-family="Arial" font-size="12.00" fill="#000000">ExpRand</text>
<text text-anchor="middle" x="352.5" y="-75.9" font-family="Arial" font-size="12.00" fill="#000000">(scalar)</text>
<polyline fill="none" stroke="#000000" stroke-width="2" points="312.5,-68.5 392.5,-68.5 "/>
<text text-anchor="middle" x="341.5" y="-54.9" font-family="Arial" font-size="12.00" fill="#000000">minimum:</text>
<text text-anchor="middle" x="341.5" y="-41.9" font-family="Arial" font-size="12.00" fill="#000000">0.01</text>
<polyline fill="none" stroke="#000000" stroke-width="2" points="312.5,-34.5 370.5,-34.5 "/>
<text text-anchor="middle" x="341.5" y="-20.9" font-family="Arial" font-size="12.00" fill="#000000">maximum:</text>
<text text-anchor="middle" x="341.5" y="-7.9" font-family="Arial" font-size="12.00" fill="#000000">0.1</text>
<polyline fill="none" stroke="#000000" stroke-width="2" points="370.5,-.5 370.5,-68.5 "/>
<text text-anchor="middle" x="381.5" y="-31.4" font-family="Arial" font-size="12.00" fill="#000000">0</text>
</g>
<!-- ugen_8 -->
<g id="node10" class="node">
<title>ugen_8</title>
<path fill="#ee9572" stroke="#000000" stroke-width="2" d="M324.5,-121.5C324.5,-121.5 380.5,-121.5 380.5,-121.5 386.5,-121.5 392.5,-127.5 392.5,-133.5 392.5,-133.5 392.5,-211.5 392.5,-211.5 392.5,-217.5 386.5,-223.5 380.5,-223.5 380.5,-223.5 324.5,-223.5 324.5,-223.5 318.5,-223.5 312.5,-217.5 312.5,-211.5 312.5,-211.5 312.5,-133.5 312.5,-133.5 312.5,-127.5 318.5,-121.5 324.5,-121.5"/>
<text text-anchor="middle" x="352.5" y="-209.9" font-family="Arial" font-size="12.00" fill="#000000">ExpRand</text>
<text text-anchor="middle" x="352.5" y="-196.9" font-family="Arial" font-size="12.00" fill="#000000">(scalar)</text>
<polyline fill="none" stroke="#000000" stroke-width="2" points="312.5,-189.5 392.5,-189.5 "/>
<text text-anchor="middle" x="341.5" y="-175.9" font-family="Arial" font-size="12.00" fill="#000000">minimum:</text>
<text text-anchor="middle" x="341.5" y="-162.9" font-family="Arial" font-size="12.00" fill="#000000">0.01</text>
<polyline fill="none" stroke="#000000" stroke-width="2" points="312.5,-155.5 370.5,-155.5 "/>
<text text-anchor="middle" x="341.5" y="-141.9" font-family="Arial" font-size="12.00" fill="#000000">maximum:</text>
<text text-anchor="middle" x="341.5" y="-128.9" font-family="Arial" font-size="12.00" fill="#000000">0.1</text>
<polyline fill="none" stroke="#000000" stroke-width="2" points="370.5,-121.5 370.5,-189.5 "/>
<text text-anchor="middle" x="381.5" y="-152.4" font-family="Arial" font-size="12.00" fill="#000000">0</text>
</g>
<!-- ugen_9 -->
<g id="node11" class="node">
<title>ugen_9</title>
<path fill="#bcd2ee" stroke="#000000" stroke-width="2" d="M501,-160C501,-160 606,-160 606,-160 612,-160 618,-166 618,-172 618,-172 618,-279 618,-279 618,-285 612,-291 606,-291 606,-291 501,-291 501,-291 495,-291 489,-285 489,-279 489,-279 489,-172 489,-172 489,-166 495,-160 501,-160"/>
<text text-anchor="middle" x="553.5" y="-277.4" font-family="Arial" font-size="12.00" fill="#000000">AllpassC</text>
<text text-anchor="middle" x="553.5" y="-264.4" font-family="Arial" font-size="12.00" fill="#000000">(audio)</text>
<polyline fill="none" stroke="#000000" stroke-width="2" points="489,-257 618,-257 "/>
<text text-anchor="middle" x="542.5" y="-243.4" font-family="Arial" font-size="12.00" fill="#000000">source</text>
<polyline fill="none" stroke="#000000" stroke-width="2" points="489,-236 596,-236 "/>
<text text-anchor="middle" x="542.5" y="-222.4" font-family="Arial" font-size="12.00" fill="#000000">maximum_delay_time:</text>
<text text-anchor="middle" x="542.5" y="-209.4" font-family="Arial" font-size="12.00" fill="#000000">0.1</text>
<polyline fill="none" stroke="#000000" stroke-width="2" points="489,-202 596,-202 "/>
<text text-anchor="middle" x="542.5" y="-188.4" font-family="Arial" font-size="12.00" fill="#000000">delay_time</text>
<polyline fill="none" stroke="#000000" stroke-width="2" points="489,-181 596,-181 "/>
<text text-anchor="middle" x="542.5" y="-167.4" font-family="Arial" font-size="12.00" fill="#000000">decay_time</text>
<polyline fill="none" stroke="#000000" stroke-width="2" points="596,-160 596,-257 "/>
<text text-anchor="middle" x="607" y="-205.4" font-family="Arial" font-size="12.00" fill="#000000">0</text>
</g>
</g>
</svg>
