<?xml version="1.0" encoding="UTF-8" standalone="no"?>
<!DOCTYPE svg PUBLIC "-//W3C//DTD SVG 1.1//EN"
 "http://www.w3.org/Graphics/SVG/1.1/DTD/svg11.dtd">
<!-- Generated by graphviz version 2.44.1 (20200629.0846)
 -->
<!-- Title: synthdef_9ba01bdc4eefdb4e6e567332e74e2684 Pages: 1 -->
<svg width="1012pt" height="504pt"
 viewBox="0.00 0.00 1012.00 504.00" xmlns="http://www.w3.org/2000/svg" xmlns:xlink="http://www.w3.org/1999/xlink">
<g id="graph0" class="graph" transform="scale(1 1) rotate(0) translate(4 500)">
<title>synthdef_9ba01bdc4eefdb4e6e567332e74e2684</title>
<!-- ugen_0&#45;&gt;ugen_1 -->
<g id="edge1" class="edge">
<title>ugen_0:e&#45;&gt;ugen_1:w</title>
<path fill="none" stroke="salmon" stroke-width="2" d="M56,-444.5C96.7,-444.5 99.47,-404.89 133.95,-398.4"/>
<polygon fill="salmon" stroke="salmon" stroke-width="2" points="134.35,-401.87 144,-397.5 133.73,-394.9 134.35,-401.87"/>
</g>
<!-- ugen_0&#45;&gt;ugen_11 -->
<g id="edge2" class="edge">
<title>ugen_0:e&#45;&gt;ugen_11:w</title>
<path fill="none" stroke="salmon" stroke-width="2" d="M56,-444.5C127.25,-444.5 301.75,-492.5 373,-492.5 373,-492.5 373,-492.5 607,-492.5 757.92,-492.5 794.01,-439.94 939.78,-437.58"/>
<polygon fill="salmon" stroke="salmon" stroke-width="2" points="940.03,-441.08 950,-437.5 939.97,-434.08 940.03,-441.08"/>
</g>
<!-- ugen_1&#45;&gt;ugen_6 -->
<g id="edge3" class="edge">
<title>ugen_1:e&#45;&gt;ugen_6:w</title>
<path fill="none" stroke="steelblue" stroke-width="2" d="M206,-397.5C251.51,-397.5 246.05,-340.08 283.99,-331.55"/>
<polygon fill="steelblue" stroke="steelblue" stroke-width="2" points="284.42,-335.03 294,-330.5 283.69,-328.06 284.42,-335.03"/>
</g>
<!-- ugen_10&#45;&gt;ugen_11 -->
<g id="edge4" class="edge">
<title>ugen_10:e&#45;&gt;ugen_11:w</title>
<path fill="none" stroke="steelblue" stroke-width="2" d="M878,-361.5C914.49,-361.5 910.9,-406.67 939.88,-415.14"/>
<polygon fill="steelblue" stroke="steelblue" stroke-width="2" points="939.62,-418.64 950,-416.5 940.56,-411.7 939.62,-418.64"/>
</g>
<!-- ugen_2&#45;&gt;ugen_3 -->
<g id="edge5" class="edge">
<title>ugen_2:e&#45;&gt;ugen_3:w</title>
<path fill="none" stroke="goldenrod" stroke-width="2" d="M405,-412.5C465.15,-412.5 482.5,-418.76 537.97,-419.44"/>
<polygon fill="goldenrod" stroke="goldenrod" stroke-width="2" points="537.98,-422.94 548,-419.5 538.02,-415.94 537.98,-422.94"/>
</g>
<!-- ugen_3&#45;&gt;ugen_10 -->
<g id="edge6" class="edge">
<title>ugen_3:e&#45;&gt;ugen_10:w</title>
<path fill="none" stroke="goldenrod" stroke-width="2" d="M664,-351.5C702.19,-351.5 714.2,-351.5 747.88,-351.5"/>
<polygon fill="goldenrod" stroke="goldenrod" stroke-width="2" points="748,-355 758,-351.5 748,-348 748,-355"/>
</g>
<!-- ugen_4&#45;&gt;ugen_6 -->
<g id="edge7" class="edge">
<title>ugen_4:e&#45;&gt;ugen_6:w</title>
<path fill="none" stroke="salmon" stroke-width="2" d="M222,-166.5C268.78,-166.5 247.34,-241.92 284,-253.12"/>
<polygon fill="salmon" stroke="salmon" stroke-width="2" points="283.61,-256.6 294,-254.5 284.57,-249.66 283.61,-256.6"/>
</g>
<!-- ugen_5&#45;&gt;ugen_6 -->
<g id="edge8" class="edge">
<title>ugen_5:e&#45;&gt;ugen_6:w</title>
<path fill="none" stroke="salmon" stroke-width="2" d="M222,-287.5C250.77,-287.5 259.62,-278.06 283.88,-275.93"/>
<polygon fill="salmon" stroke="salmon" stroke-width="2" points="284.16,-279.42 294,-275.5 283.86,-272.42 284.16,-279.42"/>
</g>
<!-- ugen_6&#45;&gt;ugen_9 -->
<g id="edge9" class="edge">
<title>ugen_6:e&#45;&gt;ugen_9:w</title>
<path fill="none" stroke="steelblue" stroke-width="2" d="M454,-292.5C499.02,-292.5 480.72,-221.96 515.85,-210.94"/>
<polygon fill="steelblue" stroke="steelblue" stroke-width="2" points="516.59,-214.37 526,-209.5 515.61,-207.44 516.59,-214.37"/>
</g>
<!-- ugen_7&#45;&gt;ugen_9 -->
<g id="edge10" class="edge">
<title>ugen_7:e&#45;&gt;ugen_9:w</title>
<path fill="none" stroke="salmon" stroke-width="2" d="M422,-34.5C482.2,-34.5 464.58,-122.6 515.97,-132.58"/>
<polygon fill="salmon" stroke="salmon" stroke-width="2" points="515.72,-136.08 526,-133.5 516.36,-129.1 515.72,-136.08"/>
</g>
<!-- ugen_8&#45;&gt;ugen_9 -->
<g id="edge11" class="edge">
<title>ugen_8:e&#45;&gt;ugen_9:w</title>
<path fill="none" stroke="salmon" stroke-width="2" d="M422,-155.5C464.61,-155.5 477.76,-154.65 515.77,-154.52"/>
<polygon fill="salmon" stroke="salmon" stroke-width="2" points="516.01,-158.02 526,-154.5 515.99,-151.02 516.01,-158.02"/>
</g>
<!-- ugen_9&#45;&gt;ugen_10 -->
<g id="edge12" class="edge">
<title>ugen_9:e&#45;&gt;ugen_10:w</title>
<path fill="none" stroke="steelblue" stroke-width="2" d="M686,-171.5C777.19,-171.5 671.99,-357.1 747.83,-371.6"/>
<polygon fill="steelblue" stroke="steelblue" stroke-width="2" points="747.73,-375.11 758,-372.5 748.35,-368.14 747.73,-375.11"/>
</g>
<!-- ugen_0 -->
<g id="node1" class="node">
<title>ugen_0</title>
<path fill="#ee9572" stroke="black" stroke-width="2" d="M12,-427.5C12,-427.5 44,-427.5 44,-427.5 50,-427.5 56,-433.5 56,-439.5 56,-439.5 56,-483.5 56,-483.5 56,-489.5 50,-495.5 44,-495.5 44,-495.5 12,-495.5 12,-495.5 6,-495.5 0,-489.5 0,-483.5 0,-483.5 0,-439.5 0,-439.5 0,-433.5 6,-427.5 12,-427.5"/>
<text text-anchor="middle" x="28" y="-481.9" font-family="Arial" font-size="12.00">Control</text>
<text text-anchor="middle" x="28" y="-468.9" font-family="Arial" font-size="12.00">(scalar)</text>
<polyline fill="none" stroke="black" stroke-width="2" points="0,-461.5 56,-461.5 "/>
<text text-anchor="middle" x="28" y="-447.9" font-family="Arial" font-size="12.00">out:</text>
<text text-anchor="middle" x="28" y="-434.9" font-family="Arial" font-size="12.00">0.0</text>
</g>
<!-- ugen_1 -->
<g id="node2" class="node">
<title>ugen_1</title>
<path fill="#bcd2ee" stroke="black" stroke-width="2" d="M157.5,-387C157.5,-387 192.5,-387 192.5,-387 198.5,-387 204.5,-393 204.5,-399 204.5,-399 204.5,-430 204.5,-430 204.5,-436 198.5,-442 192.5,-442 192.5,-442 157.5,-442 157.5,-442 151.5,-442 145.5,-436 145.5,-430 145.5,-430 145.5,-399 145.5,-399 145.5,-393 151.5,-387 157.5,-387"/>
<text text-anchor="middle" x="175" y="-428.4" font-family="Arial" font-size="12.00">In</text>
<text text-anchor="middle" x="175" y="-415.4" font-family="Arial" font-size="12.00">(audio)</text>
<polyline fill="none" stroke="black" stroke-width="2" points="145.5,-408 204.5,-408 "/>
<text text-anchor="middle" x="163.5" y="-394.4" font-family="Arial" font-size="12.00">bus</text>
<polyline fill="none" stroke="black" stroke-width="2" points="181.5,-387 181.5,-408 "/>
<text text-anchor="middle" x="193" y="-394.4" font-family="Arial" font-size="12.00">0</text>
</g>
<!-- ugen_10 -->
<g id="node3" class="node">
<title>ugen_10</title>
<path fill="#bcd2ee" stroke="black" stroke-width="2" d="M770,-341C770,-341 866,-341 866,-341 872,-341 878,-347 878,-353 878,-353 878,-418 878,-418 878,-424 872,-430 866,-430 866,-430 770,-430 770,-430 764,-430 758,-424 758,-418 758,-418 758,-353 758,-353 758,-347 764,-341 770,-341"/>
<text text-anchor="middle" x="818" y="-416.4" font-family="Arial" font-size="12.00">BinaryOpUGen</text>
<text text-anchor="middle" x="818" y="-403.4" font-family="Arial" font-size="12.00">[MULTIPLICATION]</text>
<text text-anchor="middle" x="818" y="-390.4" font-family="Arial" font-size="12.00">(audio)</text>
<polyline fill="none" stroke="black" stroke-width="2" points="758,-383 878,-383 "/>
<text text-anchor="middle" x="792" y="-369.4" font-family="Arial" font-size="12.00">left</text>
<polyline fill="none" stroke="black" stroke-width="2" points="758,-362 826,-362 "/>
<text text-anchor="middle" x="792" y="-348.4" font-family="Arial" font-size="12.00">right</text>
<polyline fill="none" stroke="black" stroke-width="2" points="826,-341 826,-383 "/>
<text text-anchor="middle" x="852" y="-358.9" font-family="Arial" font-size="12.00">0</text>
</g>
<!-- ugen_11 -->
<g id="node4" class="node">
<title>ugen_11</title>
<path fill="#bcd2ee" stroke="black" stroke-width="2" d="M962,-406.5C962,-406.5 992,-406.5 992,-406.5 998,-406.5 1004,-412.5 1004,-418.5 1004,-418.5 1004,-470.5 1004,-470.5 1004,-476.5 998,-482.5 992,-482.5 992,-482.5 962,-482.5 962,-482.5 956,-482.5 950,-476.5 950,-470.5 950,-470.5 950,-418.5 950,-418.5 950,-412.5 956,-406.5 962,-406.5"/>
<text text-anchor="middle" x="977" y="-468.9" font-family="Arial" font-size="12.00">Out</text>
<text text-anchor="middle" x="977" y="-455.9" font-family="Arial" font-size="12.00">(audio)</text>
<polyline fill="none" stroke="black" stroke-width="2" points="950,-448.5 1004,-448.5 "/>
<text text-anchor="middle" x="977" y="-434.9" font-family="Arial" font-size="12.00">bus</text>
<polyline fill="none" stroke="black" stroke-width="2" points="950,-427.5 1004,-427.5 "/>
<text text-anchor="middle" x="977" y="-413.9" font-family="Arial" font-size="12.00">source</text>
</g>
<!-- ugen_2 -->
<g id="node5" class="node">
<title>ugen_2</title>
<path fill="#eedc82" stroke="black" stroke-width="2" d="M356,-395.5C356,-395.5 392,-395.5 392,-395.5 398,-395.5 404,-401.5 404,-407.5 404,-407.5 404,-451.5 404,-451.5 404,-457.5 398,-463.5 392,-463.5 392,-463.5 356,-463.5 356,-463.5 350,-463.5 344,-457.5 344,-451.5 344,-451.5 344,-407.5 344,-407.5 344,-401.5 350,-395.5 356,-395.5"/>
<text text-anchor="middle" x="374" y="-449.9" font-family="Arial" font-size="12.00">Control</text>
<text text-anchor="middle" x="374" y="-436.9" font-family="Arial" font-size="12.00">(control)</text>
<polyline fill="none" stroke="black" stroke-width="2" points="344,-429.5 404,-429.5 "/>
<text text-anchor="middle" x="374" y="-415.9" font-family="Arial" font-size="12.00">gate:</text>
<text text-anchor="middle" x="374" y="-402.9" font-family="Arial" font-size="12.00">1.0</text>
</g>
<!-- ugen_3 -->
<g id="node6" class="node">
<title>ugen_3</title>
<path fill="#eedc82" stroke="black" stroke-width="2" d="M561.5,-273C561.5,-273 650.5,-273 650.5,-273 656.5,-273 662.5,-279 662.5,-285 662.5,-285 662.5,-452 662.5,-452 662.5,-458 656.5,-464 650.5,-464 650.5,-464 561.5,-464 561.5,-464 555.5,-464 549.5,-458 549.5,-452 549.5,-452 549.5,-285 549.5,-285 549.5,-279 555.5,-273 561.5,-273"/>
<text text-anchor="middle" x="606" y="-450.4" font-family="Arial" font-size="12.00">Linen</text>
<text text-anchor="middle" x="606" y="-437.4" font-family="Arial" font-size="12.00">(control)</text>
<polyline fill="none" stroke="black" stroke-width="2" points="549.5,-430 662.5,-430 "/>
<text text-anchor="middle" x="594.5" y="-416.4" font-family="Arial" font-size="12.00">gate</text>
<polyline fill="none" stroke="black" stroke-width="2" points="549.5,-409 639.5,-409 "/>
<text text-anchor="middle" x="594.5" y="-395.4" font-family="Arial" font-size="12.00">attack_time:</text>
<text text-anchor="middle" x="594.5" y="-382.4" font-family="Arial" font-size="12.00">0.02</text>
<polyline fill="none" stroke="black" stroke-width="2" points="549.5,-375 639.5,-375 "/>
<text text-anchor="middle" x="594.5" y="-361.4" font-family="Arial" font-size="12.00">sustain_level:</text>
<text text-anchor="middle" x="594.5" y="-348.4" font-family="Arial" font-size="12.00">1.0</text>
<polyline fill="none" stroke="black" stroke-width="2" points="549.5,-341 639.5,-341 "/>
<text text-anchor="middle" x="594.5" y="-327.4" font-family="Arial" font-size="12.00">release_time:</text>
<text text-anchor="middle" x="594.5" y="-314.4" font-family="Arial" font-size="12.00">0.02</text>
<polyline fill="none" stroke="black" stroke-width="2" points="549.5,-307 639.5,-307 "/>
<text text-anchor="middle" x="594.5" y="-293.4" font-family="Arial" font-size="12.00">done_action:</text>
<text text-anchor="middle" x="594.5" y="-280.4" font-family="Arial" font-size="12.00">2.0</text>
<polyline fill="none" stroke="black" stroke-width="2" points="639.5,-273 639.5,-430 "/>
<text text-anchor="middle" x="651" y="-348.4" font-family="Arial" font-size="12.00">0</text>
</g>
<!-- ugen_4 -->
<g id="node7" class="node">
<title>ugen_4</title>
<path fill="#ee9572" stroke="black" stroke-width="2" d="M140,-132.5C140,-132.5 210,-132.5 210,-132.5 216,-132.5 222,-138.5 222,-144.5 222,-144.5 222,-222.5 222,-222.5 222,-228.5 216,-234.5 210,-234.5 210,-234.5 140,-234.5 140,-234.5 134,-234.5 128,-228.5 128,-222.5 128,-222.5 128,-144.5 128,-144.5 128,-138.5 134,-132.5 140,-132.5"/>
<text text-anchor="middle" x="175" y="-220.9" font-family="Arial" font-size="12.00">ExpRand</text>
<text text-anchor="middle" x="175" y="-207.9" font-family="Arial" font-size="12.00">(scalar)</text>
<polyline fill="none" stroke="black" stroke-width="2" points="128,-200.5 222,-200.5 "/>
<text text-anchor="middle" x="163.5" y="-186.9" font-family="Arial" font-size="12.00">minimum:</text>
<text text-anchor="middle" x="163.5" y="-173.9" font-family="Arial" font-size="12.00">0.01</text>
<polyline fill="none" stroke="black" stroke-width="2" points="128,-166.5 199,-166.5 "/>
<text text-anchor="middle" x="163.5" y="-152.9" font-family="Arial" font-size="12.00">maximum:</text>
<text text-anchor="middle" x="163.5" y="-139.9" font-family="Arial" font-size="12.00">0.1</text>
<polyline fill="none" stroke="black" stroke-width="2" points="199,-132.5 199,-200.5 "/>
<text text-anchor="middle" x="210.5" y="-163.4" font-family="Arial" font-size="12.00">0</text>
</g>
<!-- ugen_5 -->
<g id="node8" class="node">
<title>ugen_5</title>
<path fill="#ee9572" stroke="black" stroke-width="2" d="M140,-253.5C140,-253.5 210,-253.5 210,-253.5 216,-253.5 222,-259.5 222,-265.5 222,-265.5 222,-343.5 222,-343.5 222,-349.5 216,-355.5 210,-355.5 210,-355.5 140,-355.5 140,-355.5 134,-355.5 128,-349.5 128,-343.5 128,-343.5 128,-265.5 128,-265.5 128,-259.5 134,-253.5 140,-253.5"/>
<text text-anchor="middle" x="175" y="-341.9" font-family="Arial" font-size="12.00">ExpRand</text>
<text text-anchor="middle" x="175" y="-328.9" font-family="Arial" font-size="12.00">(scalar)</text>
<polyline fill="none" stroke="black" stroke-width="2" points="128,-321.5 222,-321.5 "/>
<text text-anchor="middle" x="163.5" y="-307.9" font-family="Arial" font-size="12.00">minimum:</text>
<text text-anchor="middle" x="163.5" y="-294.9" font-family="Arial" font-size="12.00">0.01</text>
<polyline fill="none" stroke="black" stroke-width="2" points="128,-287.5 199,-287.5 "/>
<text text-anchor="middle" x="163.5" y="-273.9" font-family="Arial" font-size="12.00">maximum:</text>
<text text-anchor="middle" x="163.5" y="-260.9" font-family="Arial" font-size="12.00">0.1</text>
<polyline fill="none" stroke="black" stroke-width="2" points="199,-253.5 199,-321.5 "/>
<text text-anchor="middle" x="210.5" y="-284.4" font-family="Arial" font-size="12.00">0</text>
</g>
<!-- ugen_6 -->
<g id="node9" class="node">
<title>ugen_6</title>
<path fill="#bcd2ee" stroke="black" stroke-width="2" d="M306,-244C306,-244 442,-244 442,-244 448,-244 454,-250 454,-256 454,-256 454,-363 454,-363 454,-369 448,-375 442,-375 442,-375 306,-375 306,-375 300,-375 294,-369 294,-363 294,-363 294,-256 294,-256 294,-250 300,-244 306,-244"/>
<text text-anchor="middle" x="374" y="-361.4" font-family="Arial" font-size="12.00">AllpassC</text>
<text text-anchor="middle" x="374" y="-348.4" font-family="Arial" font-size="12.00">(audio)</text>
<polyline fill="none" stroke="black" stroke-width="2" points="294,-341 454,-341 "/>
<text text-anchor="middle" x="362.5" y="-327.4" font-family="Arial" font-size="12.00">source</text>
<polyline fill="none" stroke="black" stroke-width="2" points="294,-320 431,-320 "/>
<text text-anchor="middle" x="362.5" y="-306.4" font-family="Arial" font-size="12.00">maximum_delay_time:</text>
<text text-anchor="middle" x="362.5" y="-293.4" font-family="Arial" font-size="12.00">0.1</text>
<polyline fill="none" stroke="black" stroke-width="2" points="294,-286 431,-286 "/>
<text text-anchor="middle" x="362.5" y="-272.4" font-family="Arial" font-size="12.00">delay_time</text>
<polyline fill="none" stroke="black" stroke-width="2" points="294,-265 431,-265 "/>
<text text-anchor="middle" x="362.5" y="-251.4" font-family="Arial" font-size="12.00">decay_time</text>
<polyline fill="none" stroke="black" stroke-width="2" points="431,-244 431,-341 "/>
<text text-anchor="middle" x="442.5" y="-289.4" font-family="Arial" font-size="12.00">0</text>
</g>
<!-- ugen_7 -->
<g id="node10" class="node">
<title>ugen_7</title>
<path fill="#ee9572" stroke="black" stroke-width="2" d="M339,-0.5C339,-0.5 409,-0.5 409,-0.5 415,-0.5 421,-6.5 421,-12.5 421,-12.5 421,-90.5 421,-90.5 421,-96.5 415,-102.5 409,-102.5 409,-102.5 339,-102.5 339,-102.5 333,-102.5 327,-96.5 327,-90.5 327,-90.5 327,-12.5 327,-12.5 327,-6.5 333,-0.5 339,-0.5"/>
<text text-anchor="middle" x="374" y="-88.9" font-family="Arial" font-size="12.00">ExpRand</text>
<text text-anchor="middle" x="374" y="-75.9" font-family="Arial" font-size="12.00">(scalar)</text>
<polyline fill="none" stroke="black" stroke-width="2" points="327,-68.5 421,-68.5 "/>
<text text-anchor="middle" x="362.5" y="-54.9" font-family="Arial" font-size="12.00">minimum:</text>
<text text-anchor="middle" x="362.5" y="-41.9" font-family="Arial" font-size="12.00">0.01</text>
<polyline fill="none" stroke="black" stroke-width="2" points="327,-34.5 398,-34.5 "/>
<text text-anchor="middle" x="362.5" y="-20.9" font-family="Arial" font-size="12.00">maximum:</text>
<text text-anchor="middle" x="362.5" y="-7.9" font-family="Arial" font-size="12.00">0.1</text>
<polyline fill="none" stroke="black" stroke-width="2" points="398,-0.5 398,-68.5 "/>
<text text-anchor="middle" x="409.5" y="-31.4" font-family="Arial" font-size="12.00">0</text>
</g>
<!-- ugen_8 -->
<g id="node11" class="node">
<title>ugen_8</title>
<path fill="#ee9572" stroke="black" stroke-width="2" d="M339,-121.5C339,-121.5 409,-121.5 409,-121.5 415,-121.5 421,-127.5 421,-133.5 421,-133.5 421,-211.5 421,-211.5 421,-217.5 415,-223.5 409,-223.5 409,-223.5 339,-223.5 339,-223.5 333,-223.5 327,-217.5 327,-211.5 327,-211.5 327,-133.5 327,-133.5 327,-127.5 333,-121.5 339,-121.5"/>
<text text-anchor="middle" x="374" y="-209.9" font-family="Arial" font-size="12.00">ExpRand</text>
<text text-anchor="middle" x="374" y="-196.9" font-family="Arial" font-size="12.00">(scalar)</text>
<polyline fill="none" stroke="black" stroke-width="2" points="327,-189.5 421,-189.5 "/>
<text text-anchor="middle" x="362.5" y="-175.9" font-family="Arial" font-size="12.00">minimum:</text>
<text text-anchor="middle" x="362.5" y="-162.9" font-family="Arial" font-size="12.00">0.01</text>
<polyline fill="none" stroke="black" stroke-width="2" points="327,-155.5 398,-155.5 "/>
<text text-anchor="middle" x="362.5" y="-141.9" font-family="Arial" font-size="12.00">maximum:</text>
<text text-anchor="middle" x="362.5" y="-128.9" font-family="Arial" font-size="12.00">0.1</text>
<polyline fill="none" stroke="black" stroke-width="2" points="398,-121.5 398,-189.5 "/>
<text text-anchor="middle" x="409.5" y="-152.4" font-family="Arial" font-size="12.00">0</text>
</g>
<!-- ugen_9 -->
<g id="node12" class="node">
<title>ugen_9</title>
<path fill="#bcd2ee" stroke="black" stroke-width="2" d="M538,-123C538,-123 674,-123 674,-123 680,-123 686,-129 686,-135 686,-135 686,-242 686,-242 686,-248 680,-254 674,-254 674,-254 538,-254 538,-254 532,-254 526,-248 526,-242 526,-242 526,-135 526,-135 526,-129 532,-123 538,-123"/>
<text text-anchor="middle" x="606" y="-240.4" font-family="Arial" font-size="12.00">AllpassC</text>
<text text-anchor="middle" x="606" y="-227.4" font-family="Arial" font-size="12.00">(audio)</text>
<polyline fill="none" stroke="black" stroke-width="2" points="526,-220 686,-220 "/>
<text text-anchor="middle" x="594.5" y="-206.4" font-family="Arial" font-size="12.00">source</text>
<polyline fill="none" stroke="black" stroke-width="2" points="526,-199 663,-199 "/>
<text text-anchor="middle" x="594.5" y="-185.4" font-family="Arial" font-size="12.00">maximum_delay_time:</text>
<text text-anchor="middle" x="594.5" y="-172.4" font-family="Arial" font-size="12.00">0.1</text>
<polyline fill="none" stroke="black" stroke-width="2" points="526,-165 663,-165 "/>
<text text-anchor="middle" x="594.5" y="-151.4" font-family="Arial" font-size="12.00">delay_time</text>
<polyline fill="none" stroke="black" stroke-width="2" points="526,-144 663,-144 "/>
<text text-anchor="middle" x="594.5" y="-130.4" font-family="Arial" font-size="12.00">decay_time</text>
<polyline fill="none" stroke="black" stroke-width="2" points="663,-123 663,-220 "/>
<text text-anchor="middle" x="674.5" y="-168.4" font-family="Arial" font-size="12.00">0</text>
</g>
</g>
</svg>
