<?xml version="1.0" encoding="UTF-8" standalone="no"?>
<!DOCTYPE svg PUBLIC "-//W3C//DTD SVG 1.1//EN"
 "http://www.w3.org/Graphics/SVG/1.1/DTD/svg11.dtd">
<!-- Generated by graphviz version 2.40.1 (20161225.0304)
 -->
<!-- Title: synthdef_598ec4adfcfa0518ae5638a75c43087e Pages: 1 -->
<svg width="1039pt" height="446pt"
 viewBox="0.00 0.00 1039.00 446.00" xmlns="http://www.w3.org/2000/svg" xmlns:xlink="http://www.w3.org/1999/xlink">
<g id="graph0" class="graph" transform="scale(1 1) rotate(0) translate(4 442)">
<title>synthdef_598ec4adfcfa0518ae5638a75c43087e</title>
<!-- ugen_0&#45;&gt;ugen_1 -->
<g id="edge1" class="edge">
<title>ugen_0:e&#45;&gt;ugen_1:w</title>
<path fill="none" stroke="#fa8072" stroke-width="2" d="M54,-386.5C91.3404,-386.5 97.1367,-356.6782 128.809,-351.3196"/>
<polygon fill="#fa8072" stroke="#fa8072" stroke-width="2" points="129.3128,-354.7904 139,-350.5 128.7516,-347.813 129.3128,-354.7904"/>
</g>
<!-- ugen_0&#45;&gt;ugen_11 -->
<g id="edge2" class="edge">
<title>ugen_0:e&#45;&gt;ugen_11:w</title>
<path fill="none" stroke="#fa8072" stroke-width="2" d="M54,-386.5C86.9848,-386.5 93.47,-399.0413 126,-404.5 221.2602,-420.4852 245.9079,-423.5 342.5,-423.5 342.5,-423.5 342.5,-423.5 721,-423.5 837.7876,-423.5 855.6967,-340.5807 966.6906,-335.7222"/>
<polygon fill="#fa8072" stroke="#fa8072" stroke-width="2" points="967.0778,-339.2147 977,-335.5 966.9269,-332.2164 967.0778,-339.2147"/>
</g>
<!-- ugen_1&#45;&gt;ugen_4 -->
<g id="edge3" class="edge">
<title>ugen_1:e&#45;&gt;ugen_4:w</title>
<path fill="none" stroke="#4682b4" stroke-width="2" d="M193,-350.5C228.2655,-350.5 237.4625,-333.2529 267.8401,-330.0191"/>
<polygon fill="#4682b4" stroke="#4682b4" stroke-width="2" points="268.1917,-333.5058 278,-329.5 267.8344,-326.5149 268.1917,-333.5058"/>
</g>
<!-- ugen_10&#45;&gt;ugen_11 -->
<g id="edge4" class="edge">
<title>ugen_10:e&#45;&gt;ugen_11:w</title>
<path fill="none" stroke="#4682b4" stroke-width="2" d="M905,-227.5C951.4657,-227.5 930.5893,-302.0652 967.0589,-313.1334"/>
<polygon fill="#4682b4" stroke="#4682b4" stroke-width="2" points="966.6165,-316.6055 977,-314.5 967.5698,-309.6707 966.6165,-316.6055"/>
</g>
<!-- ugen_2&#45;&gt;ugen_4 -->
<g id="edge5" class="edge">
<title>ugen_2:e&#45;&gt;ugen_4:w</title>
<path fill="none" stroke="#fa8072" stroke-width="2" d="M206,-131.5C265.1486,-131.5 221.1404,-239.1738 267.7973,-252.2124"/>
<polygon fill="#fa8072" stroke="#fa8072" stroke-width="2" points="267.6404,-255.7203 278,-253.5 268.5169,-248.7754 267.6404,-255.7203"/>
</g>
<!-- ugen_3&#45;&gt;ugen_4 -->
<g id="edge6" class="edge">
<title>ugen_3:e&#45;&gt;ugen_4:w</title>
<path fill="none" stroke="#fa8072" stroke-width="2" d="M206,-252.5C235.8008,-252.5 243.0889,-269.9507 267.9651,-273.768"/>
<polygon fill="#fa8072" stroke="#fa8072" stroke-width="2" points="267.7718,-277.2631 278,-274.5 268.2812,-270.2817 267.7718,-277.2631"/>
</g>
<!-- ugen_4&#45;&gt;ugen_7 -->
<g id="edge7" class="edge">
<title>ugen_4:e&#45;&gt;ugen_7:w</title>
<path fill="none" stroke="#4682b4" stroke-width="2" d="M407,-291.5C440.284,-291.5 441.9749,-257.598 468.8415,-250.7117"/>
<polygon fill="#4682b4" stroke="#4682b4" stroke-width="2" points="469.485,-254.1598 479,-249.5 468.6558,-247.2091 469.485,-254.1598"/>
</g>
<!-- ugen_5&#45;&gt;ugen_7 -->
<g id="edge8" class="edge">
<title>ugen_5:e&#45;&gt;ugen_7:w</title>
<path fill="none" stroke="#fa8072" stroke-width="2" d="M382.5,-34.5C454.0339,-34.5 408.751,-160.2572 468.877,-172.5382"/>
<polygon fill="#fa8072" stroke="#fa8072" stroke-width="2" points="468.7137,-176.0383 479,-173.5 469.3759,-169.0697 468.7137,-176.0383"/>
</g>
<!-- ugen_6&#45;&gt;ugen_7 -->
<g id="edge9" class="edge">
<title>ugen_6:e&#45;&gt;ugen_7:w</title>
<path fill="none" stroke="#fa8072" stroke-width="2" d="M382.5,-155.5C425.1451,-155.5 431.8607,-188.6443 468.8918,-193.8231"/>
<polygon fill="#fa8072" stroke="#fa8072" stroke-width="2" points="468.7885,-197.3239 479,-194.5 469.2562,-190.3396 468.7885,-197.3239"/>
</g>
<!-- ugen_7&#45;&gt;ugen_8 -->
<g id="edge10" class="edge">
<title>ugen_7:e&#45;&gt;ugen_8:w</title>
<path fill="none" stroke="#4682b4" stroke-width="2" d="M608,-211.5C646.1725,-211.5 639.7599,-262.0314 669.921,-271.1113"/>
<polygon fill="#4682b4" stroke="#4682b4" stroke-width="2" points="669.6158,-274.6023 680,-272.5 670.5713,-267.6678 669.6158,-274.6023"/>
</g>
<!-- ugen_8&#45;&gt;ugen_10 -->
<g id="edge11" class="edge">
<title>ugen_8:e&#45;&gt;ugen_10:w</title>
<path fill="none" stroke="#4682b4" stroke-width="2" d="M762,-255.5C790.375,-255.5 799.8795,-255.5 823.9792,-255.5"/>
<polygon fill="#4682b4" stroke="#4682b4" stroke-width="2" points="824,-259.0001 834,-255.5 824,-252.0001 824,-259.0001"/>
</g>
<!-- ugen_9&#45;&gt;ugen_10 -->
<g id="edge12" class="edge">
<title>ugen_9:e&#45;&gt;ugen_10:w</title>
<path fill="none" stroke="#fa8072" stroke-width="2" d="M761,-140.5C798.9683,-140.5 793.7374,-189.3747 823.9433,-198.1568"/>
<polygon fill="#fa8072" stroke="#fa8072" stroke-width="2" points="823.6246,-201.6453 834,-199.5 824.5514,-194.7069 823.6246,-201.6453"/>
</g>
<!-- ugen_0 -->
<g id="node1" class="node">
<title>ugen_0</title>
<path fill="#ee9572" stroke="#000000" stroke-width="2" d="M12,-369.5C12,-369.5 42,-369.5 42,-369.5 48,-369.5 54,-375.5 54,-381.5 54,-381.5 54,-425.5 54,-425.5 54,-431.5 48,-437.5 42,-437.5 42,-437.5 12,-437.5 12,-437.5 6,-437.5 0,-431.5 0,-425.5 0,-425.5 0,-381.5 0,-381.5 0,-375.5 6,-369.5 12,-369.5"/>
<text text-anchor="middle" x="27" y="-423.9" font-family="Arial" font-size="12.00" fill="#000000">Control</text>
<text text-anchor="middle" x="27" y="-410.9" font-family="Arial" font-size="12.00" fill="#000000">(scalar)</text>
<polyline fill="none" stroke="#000000" stroke-width="2" points="0,-403.5 54,-403.5 "/>
<text text-anchor="middle" x="27" y="-389.9" font-family="Arial" font-size="12.00" fill="#000000">out:</text>
<text text-anchor="middle" x="27" y="-376.9" font-family="Arial" font-size="12.00" fill="#000000">0.0</text>
</g>
<!-- ugen_1 -->
<g id="node2" class="node">
<title>ugen_1</title>
<path fill="#bcd2ee" stroke="#000000" stroke-width="2" d="M151,-340C151,-340 181,-340 181,-340 187,-340 193,-346 193,-352 193,-352 193,-383 193,-383 193,-389 187,-395 181,-395 181,-395 151,-395 151,-395 145,-395 139,-389 139,-383 139,-383 139,-352 139,-352 139,-346 145,-340 151,-340"/>
<text text-anchor="middle" x="166" y="-381.4" font-family="Arial" font-size="12.00" fill="#000000">In</text>
<text text-anchor="middle" x="166" y="-368.4" font-family="Arial" font-size="12.00" fill="#000000">(audio)</text>
<polyline fill="none" stroke="#000000" stroke-width="2" points="139,-361 193,-361 "/>
<text text-anchor="middle" x="154.5" y="-347.4" font-family="Arial" font-size="12.00" fill="#000000">bus</text>
<polyline fill="none" stroke="#000000" stroke-width="2" points="170,-340 170,-361 "/>
<text text-anchor="middle" x="181.5" y="-347.4" font-family="Arial" font-size="12.00" fill="#000000">0</text>
</g>
<!-- ugen_10 -->
<g id="node3" class="node">
<title>ugen_10</title>
<path fill="#bcd2ee" stroke="#000000" stroke-width="2" d="M846,-189.5C846,-189.5 893,-189.5 893,-189.5 899,-189.5 905,-195.5 905,-201.5 905,-201.5 905,-287.5 905,-287.5 905,-293.5 899,-299.5 893,-299.5 893,-299.5 846,-299.5 846,-299.5 840,-299.5 834,-293.5 834,-287.5 834,-287.5 834,-201.5 834,-201.5 834,-195.5 840,-189.5 846,-189.5"/>
<text text-anchor="middle" x="869.5" y="-285.9" font-family="Arial" font-size="12.00" fill="#000000">Limiter</text>
<text text-anchor="middle" x="869.5" y="-272.9" font-family="Arial" font-size="12.00" fill="#000000">(audio)</text>
<polyline fill="none" stroke="#000000" stroke-width="2" points="834,-265.5 905,-265.5 "/>
<text text-anchor="middle" x="858.5" y="-251.9" font-family="Arial" font-size="12.00" fill="#000000">source</text>
<polyline fill="none" stroke="#000000" stroke-width="2" points="834,-244.5 883,-244.5 "/>
<text text-anchor="middle" x="858.5" y="-230.9" font-family="Arial" font-size="12.00" fill="#000000">level:</text>
<text text-anchor="middle" x="858.5" y="-217.9" font-family="Arial" font-size="12.00" fill="#000000">1.0</text>
<polyline fill="none" stroke="#000000" stroke-width="2" points="834,-210.5 883,-210.5 "/>
<text text-anchor="middle" x="858.5" y="-196.9" font-family="Arial" font-size="12.00" fill="#000000">duration</text>
<polyline fill="none" stroke="#000000" stroke-width="2" points="883,-189.5 883,-265.5 "/>
<text text-anchor="middle" x="894" y="-224.4" font-family="Arial" font-size="12.00" fill="#000000">0</text>
</g>
<!-- ugen_11 -->
<g id="node4" class="node">
<title>ugen_11</title>
<path fill="#bcd2ee" stroke="#000000" stroke-width="2" d="M989,-304.5C989,-304.5 1019,-304.5 1019,-304.5 1025,-304.5 1031,-310.5 1031,-316.5 1031,-316.5 1031,-368.5 1031,-368.5 1031,-374.5 1025,-380.5 1019,-380.5 1019,-380.5 989,-380.5 989,-380.5 983,-380.5 977,-374.5 977,-368.5 977,-368.5 977,-316.5 977,-316.5 977,-310.5 983,-304.5 989,-304.5"/>
<text text-anchor="middle" x="1004" y="-366.9" font-family="Arial" font-size="12.00" fill="#000000">Out</text>
<text text-anchor="middle" x="1004" y="-353.9" font-family="Arial" font-size="12.00" fill="#000000">(audio)</text>
<polyline fill="none" stroke="#000000" stroke-width="2" points="977,-346.5 1031,-346.5 "/>
<text text-anchor="middle" x="1004" y="-332.9" font-family="Arial" font-size="12.00" fill="#000000">bus</text>
<polyline fill="none" stroke="#000000" stroke-width="2" points="977,-325.5 1031,-325.5 "/>
<text text-anchor="middle" x="1004" y="-311.9" font-family="Arial" font-size="12.00" fill="#000000">source</text>
</g>
<!-- ugen_2 -->
<g id="node5" class="node">
<title>ugen_2</title>
<path fill="#ee9572" stroke="#000000" stroke-width="2" d="M138,-97.5C138,-97.5 194,-97.5 194,-97.5 200,-97.5 206,-103.5 206,-109.5 206,-109.5 206,-187.5 206,-187.5 206,-193.5 200,-199.5 194,-199.5 194,-199.5 138,-199.5 138,-199.5 132,-199.5 126,-193.5 126,-187.5 126,-187.5 126,-109.5 126,-109.5 126,-103.5 132,-97.5 138,-97.5"/>
<text text-anchor="middle" x="166" y="-185.9" font-family="Arial" font-size="12.00" fill="#000000">ExpRand</text>
<text text-anchor="middle" x="166" y="-172.9" font-family="Arial" font-size="12.00" fill="#000000">(scalar)</text>
<polyline fill="none" stroke="#000000" stroke-width="2" points="126,-165.5 206,-165.5 "/>
<text text-anchor="middle" x="155" y="-151.9" font-family="Arial" font-size="12.00" fill="#000000">minimum:</text>
<text text-anchor="middle" x="155" y="-138.9" font-family="Arial" font-size="12.00" fill="#000000">0.01</text>
<polyline fill="none" stroke="#000000" stroke-width="2" points="126,-131.5 184,-131.5 "/>
<text text-anchor="middle" x="155" y="-117.9" font-family="Arial" font-size="12.00" fill="#000000">maximum:</text>
<text text-anchor="middle" x="155" y="-104.9" font-family="Arial" font-size="12.00" fill="#000000">0.1</text>
<polyline fill="none" stroke="#000000" stroke-width="2" points="184,-97.5 184,-165.5 "/>
<text text-anchor="middle" x="195" y="-128.4" font-family="Arial" font-size="12.00" fill="#000000">0</text>
</g>
<!-- ugen_3 -->
<g id="node6" class="node">
<title>ugen_3</title>
<path fill="#ee9572" stroke="#000000" stroke-width="2" d="M138,-218.5C138,-218.5 194,-218.5 194,-218.5 200,-218.5 206,-224.5 206,-230.5 206,-230.5 206,-308.5 206,-308.5 206,-314.5 200,-320.5 194,-320.5 194,-320.5 138,-320.5 138,-320.5 132,-320.5 126,-314.5 126,-308.5 126,-308.5 126,-230.5 126,-230.5 126,-224.5 132,-218.5 138,-218.5"/>
<text text-anchor="middle" x="166" y="-306.9" font-family="Arial" font-size="12.00" fill="#000000">ExpRand</text>
<text text-anchor="middle" x="166" y="-293.9" font-family="Arial" font-size="12.00" fill="#000000">(scalar)</text>
<polyline fill="none" stroke="#000000" stroke-width="2" points="126,-286.5 206,-286.5 "/>
<text text-anchor="middle" x="155" y="-272.9" font-family="Arial" font-size="12.00" fill="#000000">minimum:</text>
<text text-anchor="middle" x="155" y="-259.9" font-family="Arial" font-size="12.00" fill="#000000">0.01</text>
<polyline fill="none" stroke="#000000" stroke-width="2" points="126,-252.5 184,-252.5 "/>
<text text-anchor="middle" x="155" y="-238.9" font-family="Arial" font-size="12.00" fill="#000000">maximum:</text>
<text text-anchor="middle" x="155" y="-225.9" font-family="Arial" font-size="12.00" fill="#000000">0.1</text>
<polyline fill="none" stroke="#000000" stroke-width="2" points="184,-218.5 184,-286.5 "/>
<text text-anchor="middle" x="195" y="-249.4" font-family="Arial" font-size="12.00" fill="#000000">0</text>
</g>
<!-- ugen_4 -->
<g id="node7" class="node">
<title>ugen_4</title>
<path fill="#bcd2ee" stroke="#000000" stroke-width="2" d="M290,-243C290,-243 395,-243 395,-243 401,-243 407,-249 407,-255 407,-255 407,-362 407,-362 407,-368 401,-374 395,-374 395,-374 290,-374 290,-374 284,-374 278,-368 278,-362 278,-362 278,-255 278,-255 278,-249 284,-243 290,-243"/>
<text text-anchor="middle" x="342.5" y="-360.4" font-family="Arial" font-size="12.00" fill="#000000">AllpassC</text>
<text text-anchor="middle" x="342.5" y="-347.4" font-family="Arial" font-size="12.00" fill="#000000">(audio)</text>
<polyline fill="none" stroke="#000000" stroke-width="2" points="278,-340 407,-340 "/>
<text text-anchor="middle" x="331.5" y="-326.4" font-family="Arial" font-size="12.00" fill="#000000">source</text>
<polyline fill="none" stroke="#000000" stroke-width="2" points="278,-319 385,-319 "/>
<text text-anchor="middle" x="331.5" y="-305.4" font-family="Arial" font-size="12.00" fill="#000000">maximum_delay_time:</text>
<text text-anchor="middle" x="331.5" y="-292.4" font-family="Arial" font-size="12.00" fill="#000000">0.1</text>
<polyline fill="none" stroke="#000000" stroke-width="2" points="278,-285 385,-285 "/>
<text text-anchor="middle" x="331.5" y="-271.4" font-family="Arial" font-size="12.00" fill="#000000">delay_time</text>
<polyline fill="none" stroke="#000000" stroke-width="2" points="278,-264 385,-264 "/>
<text text-anchor="middle" x="331.5" y="-250.4" font-family="Arial" font-size="12.00" fill="#000000">decay_time</text>
<polyline fill="none" stroke="#000000" stroke-width="2" points="385,-243 385,-340 "/>
<text text-anchor="middle" x="396" y="-288.4" font-family="Arial" font-size="12.00" fill="#000000">0</text>
</g>
<!-- ugen_5 -->
<g id="node8" class="node">
<title>ugen_5</title>
<path fill="#ee9572" stroke="#000000" stroke-width="2" d="M314.5,-.5C314.5,-.5 370.5,-.5 370.5,-.5 376.5,-.5 382.5,-6.5 382.5,-12.5 382.5,-12.5 382.5,-90.5 382.5,-90.5 382.5,-96.5 376.5,-102.5 370.5,-102.5 370.5,-102.5 314.5,-102.5 314.5,-102.5 308.5,-102.5 302.5,-96.5 302.5,-90.5 302.5,-90.5 302.5,-12.5 302.5,-12.5 302.5,-6.5 308.5,-.5 314.5,-.5"/>
<text text-anchor="middle" x="342.5" y="-88.9" font-family="Arial" font-size="12.00" fill="#000000">ExpRand</text>
<text text-anchor="middle" x="342.5" y="-75.9" font-family="Arial" font-size="12.00" fill="#000000">(scalar)</text>
<polyline fill="none" stroke="#000000" stroke-width="2" points="302.5,-68.5 382.5,-68.5 "/>
<text text-anchor="middle" x="331.5" y="-54.9" font-family="Arial" font-size="12.00" fill="#000000">minimum:</text>
<text text-anchor="middle" x="331.5" y="-41.9" font-family="Arial" font-size="12.00" fill="#000000">0.01</text>
<polyline fill="none" stroke="#000000" stroke-width="2" points="302.5,-34.5 360.5,-34.5 "/>
<text text-anchor="middle" x="331.5" y="-20.9" font-family="Arial" font-size="12.00" fill="#000000">maximum:</text>
<text text-anchor="middle" x="331.5" y="-7.9" font-family="Arial" font-size="12.00" fill="#000000">0.1</text>
<polyline fill="none" stroke="#000000" stroke-width="2" points="360.5,-.5 360.5,-68.5 "/>
<text text-anchor="middle" x="371.5" y="-31.4" font-family="Arial" font-size="12.00" fill="#000000">0</text>
</g>
<!-- ugen_6 -->
<g id="node9" class="node">
<title>ugen_6</title>
<path fill="#ee9572" stroke="#000000" stroke-width="2" d="M314.5,-121.5C314.5,-121.5 370.5,-121.5 370.5,-121.5 376.5,-121.5 382.5,-127.5 382.5,-133.5 382.5,-133.5 382.5,-211.5 382.5,-211.5 382.5,-217.5 376.5,-223.5 370.5,-223.5 370.5,-223.5 314.5,-223.5 314.5,-223.5 308.5,-223.5 302.5,-217.5 302.5,-211.5 302.5,-211.5 302.5,-133.5 302.5,-133.5 302.5,-127.5 308.5,-121.5 314.5,-121.5"/>
<text text-anchor="middle" x="342.5" y="-209.9" font-family="Arial" font-size="12.00" fill="#000000">ExpRand</text>
<text text-anchor="middle" x="342.5" y="-196.9" font-family="Arial" font-size="12.00" fill="#000000">(scalar)</text>
<polyline fill="none" stroke="#000000" stroke-width="2" points="302.5,-189.5 382.5,-189.5 "/>
<text text-anchor="middle" x="331.5" y="-175.9" font-family="Arial" font-size="12.00" fill="#000000">minimum:</text>
<text text-anchor="middle" x="331.5" y="-162.9" font-family="Arial" font-size="12.00" fill="#000000">0.01</text>
<polyline fill="none" stroke="#000000" stroke-width="2" points="302.5,-155.5 360.5,-155.5 "/>
<text text-anchor="middle" x="331.5" y="-141.9" font-family="Arial" font-size="12.00" fill="#000000">maximum:</text>
<text text-anchor="middle" x="331.5" y="-128.9" font-family="Arial" font-size="12.00" fill="#000000">0.1</text>
<polyline fill="none" stroke="#000000" stroke-width="2" points="360.5,-121.5 360.5,-189.5 "/>
<text text-anchor="middle" x="371.5" y="-152.4" font-family="Arial" font-size="12.00" fill="#000000">0</text>
</g>
<!-- ugen_7 -->
<g id="node10" class="node">
<title>ugen_7</title>
<path fill="#bcd2ee" stroke="#000000" stroke-width="2" d="M491,-163C491,-163 596,-163 596,-163 602,-163 608,-169 608,-175 608,-175 608,-282 608,-282 608,-288 602,-294 596,-294 596,-294 491,-294 491,-294 485,-294 479,-288 479,-282 479,-282 479,-175 479,-175 479,-169 485,-163 491,-163"/>
<text text-anchor="middle" x="543.5" y="-280.4" font-family="Arial" font-size="12.00" fill="#000000">AllpassC</text>
<text text-anchor="middle" x="543.5" y="-267.4" font-family="Arial" font-size="12.00" fill="#000000">(audio)</text>
<polyline fill="none" stroke="#000000" stroke-width="2" points="479,-260 608,-260 "/>
<text text-anchor="middle" x="532.5" y="-246.4" font-family="Arial" font-size="12.00" fill="#000000">source</text>
<polyline fill="none" stroke="#000000" stroke-width="2" points="479,-239 586,-239 "/>
<text text-anchor="middle" x="532.5" y="-225.4" font-family="Arial" font-size="12.00" fill="#000000">maximum_delay_time:</text>
<text text-anchor="middle" x="532.5" y="-212.4" font-family="Arial" font-size="12.00" fill="#000000">0.1</text>
<polyline fill="none" stroke="#000000" stroke-width="2" points="479,-205 586,-205 "/>
<text text-anchor="middle" x="532.5" y="-191.4" font-family="Arial" font-size="12.00" fill="#000000">delay_time</text>
<polyline fill="none" stroke="#000000" stroke-width="2" points="479,-184 586,-184 "/>
<text text-anchor="middle" x="532.5" y="-170.4" font-family="Arial" font-size="12.00" fill="#000000">decay_time</text>
<polyline fill="none" stroke="#000000" stroke-width="2" points="586,-163 586,-260 "/>
<text text-anchor="middle" x="597" y="-208.4" font-family="Arial" font-size="12.00" fill="#000000">0</text>
</g>
<!-- ugen_8 -->
<g id="node11" class="node">
<title>ugen_8</title>
<path fill="#bcd2ee" stroke="#000000" stroke-width="2" d="M692,-228C692,-228 750,-228 750,-228 756,-228 762,-234 762,-240 762,-240 762,-305 762,-305 762,-311 756,-317 750,-317 750,-317 692,-317 692,-317 686,-317 680,-311 680,-305 680,-305 680,-240 680,-240 680,-234 686,-228 692,-228"/>
<text text-anchor="middle" x="721" y="-303.4" font-family="Arial" font-size="12.00" fill="#000000">LeakDC</text>
<text text-anchor="middle" x="721" y="-290.4" font-family="Arial" font-size="12.00" fill="#000000">(audio)</text>
<polyline fill="none" stroke="#000000" stroke-width="2" points="680,-283 762,-283 "/>
<text text-anchor="middle" x="710" y="-269.4" font-family="Arial" font-size="12.00" fill="#000000">source</text>
<polyline fill="none" stroke="#000000" stroke-width="2" points="680,-262 740,-262 "/>
<text text-anchor="middle" x="710" y="-248.4" font-family="Arial" font-size="12.00" fill="#000000">coefficient:</text>
<text text-anchor="middle" x="710" y="-235.4" font-family="Arial" font-size="12.00" fill="#000000">0.995</text>
<polyline fill="none" stroke="#000000" stroke-width="2" points="740,-228 740,-283 "/>
<text text-anchor="middle" x="751" y="-252.4" font-family="Arial" font-size="12.00" fill="#000000">0</text>
</g>
<!-- ugen_9 -->
<g id="node12" class="node">
<title>ugen_9</title>
<path fill="#ee9572" stroke="#000000" stroke-width="2" d="M693,-106.5C693,-106.5 749,-106.5 749,-106.5 755,-106.5 761,-112.5 761,-118.5 761,-118.5 761,-196.5 761,-196.5 761,-202.5 755,-208.5 749,-208.5 749,-208.5 693,-208.5 693,-208.5 687,-208.5 681,-202.5 681,-196.5 681,-196.5 681,-118.5 681,-118.5 681,-112.5 687,-106.5 693,-106.5"/>
<text text-anchor="middle" x="721" y="-194.9" font-family="Arial" font-size="12.00" fill="#000000">Rand</text>
<text text-anchor="middle" x="721" y="-181.9" font-family="Arial" font-size="12.00" fill="#000000">(scalar)</text>
<polyline fill="none" stroke="#000000" stroke-width="2" points="681,-174.5 761,-174.5 "/>
<text text-anchor="middle" x="710" y="-160.9" font-family="Arial" font-size="12.00" fill="#000000">minimum:</text>
<text text-anchor="middle" x="710" y="-147.9" font-family="Arial" font-size="12.00" fill="#000000">0.005</text>
<polyline fill="none" stroke="#000000" stroke-width="2" points="681,-140.5 739,-140.5 "/>
<text text-anchor="middle" x="710" y="-126.9" font-family="Arial" font-size="12.00" fill="#000000">maximum:</text>
<text text-anchor="middle" x="710" y="-113.9" font-family="Arial" font-size="12.00" fill="#000000">0.015</text>
<polyline fill="none" stroke="#000000" stroke-width="2" points="739,-106.5 739,-174.5 "/>
<text text-anchor="middle" x="750" y="-137.4" font-family="Arial" font-size="12.00" fill="#000000">0</text>
</g>
</g>
</svg>
