<?xml version="1.0" encoding="UTF-8" standalone="no"?>
<!DOCTYPE svg PUBLIC "-//W3C//DTD SVG 1.1//EN"
 "http://www.w3.org/Graphics/SVG/1.1/DTD/svg11.dtd">
<!-- Generated by graphviz version 2.49.1 (20210923.0004)
 -->
<!-- Title: synthdef_bb0592fad58b0bfa1a403c7ff6a400f3 Pages: 1 -->
<svg width="274pt" height="135pt"
 viewBox="0.00 0.00 274.00 135.00" xmlns="http://www.w3.org/2000/svg" xmlns:xlink="http://www.w3.org/1999/xlink">
<g id="graph0" class="graph" transform="scale(1 1) rotate(0) translate(4 131)">
<title>synthdef_bb0592fad58b0bfa1a403c7ff6a400f3</title>
<!-- ugen_0&#45;&gt;ugen_1 -->
<g id="edge1" class="edge">
<title>ugen_0:e&#45;&gt;ugen_1:w</title>
<path fill="none" stroke="steelblue" stroke-width="2" d="M96,-34.5C124.38,-34.5 133.88,-34.5 157.98,-34.5"/>
<polygon fill="steelblue" stroke="steelblue" stroke-width="2" points="158,-38 168,-34.5 158,-31 158,-38"/>
</g>
<!-- ugen_0 -->
<g id="node1" class="node">
<title>ugen_0</title>
<path fill="#bcd2ee" stroke="black" stroke-width="2" d="M12,-0.5C12,-0.5 84,-0.5 84,-0.5 90,-0.5 96,-6.5 96,-12.5 96,-12.5 96,-90.5 96,-90.5 96,-96.5 90,-102.5 84,-102.5 84,-102.5 12,-102.5 12,-102.5 6,-102.5 0,-96.5 0,-90.5 0,-90.5 0,-12.5 0,-12.5 0,-6.5 6,-0.5 12,-0.5"/>
<text text-anchor="middle" x="48" y="-88.9" font-family="Arial" font-size="12.00">SinOsc</text>
<text text-anchor="middle" x="48" y="-75.9" font-family="Arial" font-size="12.00">(audio)</text>
<polyline fill="none" stroke="black" stroke-width="2" points="0,-68.5 96,-68.5 "/>
<text text-anchor="middle" x="36.5" y="-54.9" font-family="Arial" font-size="12.00">frequency:</text>
<text text-anchor="middle" x="36.5" y="-41.9" font-family="Arial" font-size="12.00">440.0</text>
<polyline fill="none" stroke="black" stroke-width="2" points="0,-34.5 73,-34.5 "/>
<text text-anchor="middle" x="36.5" y="-20.9" font-family="Arial" font-size="12.00">phase:</text>
<text text-anchor="middle" x="36.5" y="-7.9" font-family="Arial" font-size="12.00">0.0</text>
<polyline fill="none" stroke="black" stroke-width="2" points="73,-0.5 73,-68.5 "/>
<text text-anchor="middle" x="84.5" y="-31.4" font-family="Arial" font-size="12.00">0</text>
</g>
<!-- ugen_1 -->
<g id="node2" class="node">
<title>ugen_1</title>
<path fill="#bcd2ee" stroke="black" stroke-width="2" d="M180,-24.5C180,-24.5 254,-24.5 254,-24.5 260,-24.5 266,-30.5 266,-36.5 266,-36.5 266,-114.5 266,-114.5 266,-120.5 260,-126.5 254,-126.5 254,-126.5 180,-126.5 180,-126.5 174,-126.5 168,-120.5 168,-114.5 168,-114.5 168,-36.5 168,-36.5 168,-30.5 174,-24.5 180,-24.5"/>
<text text-anchor="middle" x="217" y="-112.9" font-family="Arial" font-size="12.00">BinaryOpUGen</text>
<text text-anchor="middle" x="217" y="-99.9" font-family="Arial" font-size="12.00">[ADDITION]</text>
<text text-anchor="middle" x="217" y="-86.9" font-family="Arial" font-size="12.00">(audio)</text>
<polyline fill="none" stroke="black" stroke-width="2" points="168,-79.5 266,-79.5 "/>
<text text-anchor="middle" x="196.5" y="-65.9" font-family="Arial" font-size="12.00">left:</text>
<text text-anchor="middle" x="196.5" y="-52.9" font-family="Arial" font-size="12.00">1.5</text>
<polyline fill="none" stroke="black" stroke-width="2" points="168,-45.5 225,-45.5 "/>
<text text-anchor="middle" x="196.5" y="-31.9" font-family="Arial" font-size="12.00">right</text>
<polyline fill="none" stroke="black" stroke-width="2" points="225,-24.5 225,-79.5 "/>
<text text-anchor="middle" x="245.5" y="-48.9" font-family="Arial" font-size="12.00">0</text>
</g>
</g>
</svg>
