<?xml version="1.0" encoding="UTF-8" standalone="no"?>
<!DOCTYPE svg PUBLIC "-//W3C//DTD SVG 1.1//EN"
 "http://www.w3.org/Graphics/SVG/1.1/DTD/svg11.dtd">
<!-- Generated by graphviz version 2.43.0 (0)
 -->
<!-- Title: synthdef_simple_sine Pages: 1 -->
<svg width="765pt" height="871pt"
 viewBox="0.00 0.00 765.00 871.00" xmlns="http://www.w3.org/2000/svg" xmlns:xlink="http://www.w3.org/1999/xlink">
<g id="graph0" class="graph" transform="scale(1 1) rotate(0) translate(4 867)">
<title>synthdef_simple_sine</title>
<!-- ugen_0&#45;&gt;ugen_1 -->
<g id="edge2" class="edge">
<title>ugen_0:e&#45;&gt;ugen_1:w</title>
<path fill="none" stroke="goldenrod" stroke-width="2" d="M72,-725C120.39,-725 96.09,-804.71 133.69,-816.54"/>
<polygon fill="goldenrod" stroke="goldenrod" stroke-width="2" points="133.61,-820.06 144,-818 134.59,-813.13 133.61,-820.06"/>
</g>
<!-- ugen_0&#45;&gt;ugen_2 -->
<g id="edge1" class="edge">
<title>ugen_0:e&#45;&gt;ugen_2:w</title>
<path fill="none" stroke="goldenrod" stroke-width="2" d="M72,-759C173.44,-759 201.25,-764.61 297.8,-764.98"/>
<polygon fill="goldenrod" stroke="goldenrod" stroke-width="2" points="297.99,-768.48 308,-765 298.01,-761.48 297.99,-768.48"/>
</g>
<!-- ugen_0&#45;&gt;ugen_3 -->
<g id="edge3" class="edge">
<title>ugen_0:e&#45;&gt;ugen_3:w</title>
<path fill="none" stroke="goldenrod" stroke-width="2" d="M72,-691C174.8,-691 202.98,-691 300.97,-691"/>
<polygon fill="goldenrod" stroke="goldenrod" stroke-width="2" points="301,-694.5 311,-691 301,-687.5 301,-694.5"/>
</g>
<!-- ugen_1&#45;&gt;ugen_2 -->
<g id="edge4" class="edge">
<title>ugen_1:e&#45;&gt;ugen_2:w</title>
<path fill="none" stroke="steelblue" stroke-width="2" d="M236,-801C264.98,-801 273.48,-789.21 297.82,-786.53"/>
<polygon fill="steelblue" stroke="steelblue" stroke-width="2" points="298.2,-790.02 308,-786 297.83,-783.03 298.2,-790.02"/>
</g>
<!-- ugen_2&#45;&gt;ugen_4 -->
<g id="edge5" class="edge">
<title>ugen_2:e&#45;&gt;ugen_4:w</title>
<path fill="none" stroke="steelblue" stroke-width="2" d="M428,-775C519.59,-775 413.63,-588.47 489.78,-573.9"/>
<polygon fill="steelblue" stroke="steelblue" stroke-width="2" points="490.35,-577.36 500,-573 489.73,-570.39 490.35,-577.36"/>
</g>
<!-- ugen_3&#45;&gt;ugen_4 -->
<g id="edge6" class="edge">
<title>ugen_3:e&#45;&gt;ugen_4:w</title>
<path fill="none" stroke="goldenrod" stroke-width="2" d="M425,-351C516.63,-351 413.37,-536.6 489.77,-551.1"/>
<polygon fill="goldenrod" stroke="goldenrod" stroke-width="2" points="489.73,-554.61 500,-552 490.34,-547.64 489.73,-554.61"/>
</g>
<!-- ugen_4&#45;&gt;ugen_5 -->
<g id="edge7" class="edge">
<title>ugen_4:e&#45;&gt;ugen_5:w</title>
<path fill="none" stroke="steelblue" stroke-width="2" d="M620,-562C648.65,-562 657.7,-569.86 681.91,-571.64"/>
<polygon fill="steelblue" stroke="steelblue" stroke-width="2" points="681.88,-575.15 692,-572 682.13,-568.15 681.88,-575.15"/>
</g>
<!-- ugen_4&#45;&gt;ugen_5 -->
<g id="edge8" class="edge">
<title>ugen_4:e&#45;&gt;ugen_5:w</title>
<path fill="none" stroke="steelblue" stroke-width="2" d="M620,-562C648.7,-562 657.66,-553.35 681.89,-551.39"/>
<polygon fill="steelblue" stroke="steelblue" stroke-width="2" points="682.14,-554.88 692,-551 681.87,-547.89 682.14,-554.88"/>
</g>
<!-- ugen_0 -->
<g id="node1" class="node">
<title>ugen_0</title>
<path fill="#eedc82" stroke="black" stroke-width="2" d="M12,-674C12,-674 60,-674 60,-674 66,-674 72,-680 72,-686 72,-686 72,-798 72,-798 72,-804 66,-810 60,-810 60,-810 12,-810 12,-810 6,-810 0,-804 0,-798 0,-798 0,-686 0,-686 0,-680 6,-674 12,-674"/>
<text text-anchor="middle" x="36" y="-796.4" font-family="Arial" font-size="12.00">Control</text>
<text text-anchor="middle" x="36" y="-783.4" font-family="Arial" font-size="12.00">(control)</text>
<polyline fill="none" stroke="black" stroke-width="2" points="0,-776 72,-776 "/>
<text text-anchor="middle" x="36" y="-762.4" font-family="Arial" font-size="12.00">amplitude:</text>
<text text-anchor="middle" x="36" y="-749.4" font-family="Arial" font-size="12.00">0.1</text>
<polyline fill="none" stroke="black" stroke-width="2" points="0,-742 72,-742 "/>
<text text-anchor="middle" x="36" y="-728.4" font-family="Arial" font-size="12.00">frequency:</text>
<text text-anchor="middle" x="36" y="-715.4" font-family="Arial" font-size="12.00">440.0</text>
<polyline fill="none" stroke="black" stroke-width="2" points="0,-708 72,-708 "/>
<text text-anchor="middle" x="36" y="-694.4" font-family="Arial" font-size="12.00">gate:</text>
<text text-anchor="middle" x="36" y="-681.4" font-family="Arial" font-size="12.00">1.0</text>
</g>
<!-- ugen_1 -->
<g id="node2" class="node">
<title>ugen_1</title>
<path fill="#bcd2ee" stroke="black" stroke-width="2" d="M156,-773.5C156,-773.5 224,-773.5 224,-773.5 230,-773.5 236,-779.5 236,-785.5 236,-785.5 236,-850.5 236,-850.5 236,-856.5 230,-862.5 224,-862.5 224,-862.5 156,-862.5 156,-862.5 150,-862.5 144,-856.5 144,-850.5 144,-850.5 144,-785.5 144,-785.5 144,-779.5 150,-773.5 156,-773.5"/>
<text text-anchor="middle" x="190" y="-848.9" font-family="Arial" font-size="12.00">SinOsc</text>
<text text-anchor="middle" x="190" y="-835.9" font-family="Arial" font-size="12.00">(audio)</text>
<polyline fill="none" stroke="black" stroke-width="2" points="144,-828.5 236,-828.5 "/>
<text text-anchor="middle" x="178.5" y="-814.9" font-family="Arial" font-size="12.00">frequency</text>
<polyline fill="none" stroke="black" stroke-width="2" points="144,-807.5 213,-807.5 "/>
<text text-anchor="middle" x="178.5" y="-793.9" font-family="Arial" font-size="12.00">phase:</text>
<text text-anchor="middle" x="178.5" y="-780.9" font-family="Arial" font-size="12.00">0.0</text>
<polyline fill="none" stroke="black" stroke-width="2" points="213,-773.5 213,-828.5 "/>
<text text-anchor="middle" x="224.5" y="-797.9" font-family="Arial" font-size="12.00">0</text>
</g>
<!-- ugen_2 -->
<g id="node3" class="node">
<title>ugen_2</title>
<path fill="#bcd2ee" stroke="black" stroke-width="2" d="M320,-754.5C320,-754.5 416,-754.5 416,-754.5 422,-754.5 428,-760.5 428,-766.5 428,-766.5 428,-831.5 428,-831.5 428,-837.5 422,-843.5 416,-843.5 416,-843.5 320,-843.5 320,-843.5 314,-843.5 308,-837.5 308,-831.5 308,-831.5 308,-766.5 308,-766.5 308,-760.5 314,-754.5 320,-754.5"/>
<text text-anchor="middle" x="368" y="-829.9" font-family="Arial" font-size="12.00">BinaryOpUGen</text>
<text text-anchor="middle" x="368" y="-816.9" font-family="Arial" font-size="12.00">[MULTIPLICATION]</text>
<text text-anchor="middle" x="368" y="-803.9" font-family="Arial" font-size="12.00">(audio)</text>
<polyline fill="none" stroke="black" stroke-width="2" points="308,-796.5 428,-796.5 "/>
<text text-anchor="middle" x="342" y="-782.9" font-family="Arial" font-size="12.00">left</text>
<polyline fill="none" stroke="black" stroke-width="2" points="308,-775.5 376,-775.5 "/>
<text text-anchor="middle" x="342" y="-761.9" font-family="Arial" font-size="12.00">right</text>
<polyline fill="none" stroke="black" stroke-width="2" points="376,-754.5 376,-796.5 "/>
<text text-anchor="middle" x="402" y="-772.4" font-family="Arial" font-size="12.00">0</text>
</g>
<!-- ugen_3 -->
<g id="node4" class="node">
<title>ugen_3</title>
<path fill="#eedc82" stroke="black" stroke-width="2" d="M324,-0.5C324,-0.5 412,-0.5 412,-0.5 418,-0.5 424,-6.5 424,-12.5 424,-12.5 424,-723.5 424,-723.5 424,-729.5 418,-735.5 412,-735.5 412,-735.5 324,-735.5 324,-735.5 318,-735.5 312,-729.5 312,-723.5 312,-723.5 312,-12.5 312,-12.5 312,-6.5 318,-0.5 324,-0.5"/>
<text text-anchor="middle" x="368" y="-721.9" font-family="Arial" font-size="12.00">EnvGen</text>
<text text-anchor="middle" x="368" y="-708.9" font-family="Arial" font-size="12.00">(control)</text>
<polyline fill="none" stroke="black" stroke-width="2" points="312,-701.5 424,-701.5 "/>
<text text-anchor="middle" x="356.5" y="-687.9" font-family="Arial" font-size="12.00">gate</text>
<polyline fill="none" stroke="black" stroke-width="2" points="312,-680.5 401,-680.5 "/>
<text text-anchor="middle" x="356.5" y="-666.9" font-family="Arial" font-size="12.00">level_scale:</text>
<text text-anchor="middle" x="356.5" y="-653.9" font-family="Arial" font-size="12.00">1.0</text>
<polyline fill="none" stroke="black" stroke-width="2" points="312,-646.5 401,-646.5 "/>
<text text-anchor="middle" x="356.5" y="-632.9" font-family="Arial" font-size="12.00">level_bias:</text>
<text text-anchor="middle" x="356.5" y="-619.9" font-family="Arial" font-size="12.00">0.0</text>
<polyline fill="none" stroke="black" stroke-width="2" points="312,-612.5 401,-612.5 "/>
<text text-anchor="middle" x="356.5" y="-598.9" font-family="Arial" font-size="12.00">time_scale:</text>
<text text-anchor="middle" x="356.5" y="-585.9" font-family="Arial" font-size="12.00">1.0</text>
<polyline fill="none" stroke="black" stroke-width="2" points="312,-578.5 401,-578.5 "/>
<text text-anchor="middle" x="356.5" y="-564.9" font-family="Arial" font-size="12.00">done_action:</text>
<text text-anchor="middle" x="356.5" y="-551.9" font-family="Arial" font-size="12.00">2.0</text>
<polyline fill="none" stroke="black" stroke-width="2" points="312,-544.5 401,-544.5 "/>
<text text-anchor="middle" x="356.5" y="-530.9" font-family="Arial" font-size="12.00">envelope[0]:</text>
<text text-anchor="middle" x="356.5" y="-517.9" font-family="Arial" font-size="12.00">0.0</text>
<polyline fill="none" stroke="black" stroke-width="2" points="312,-510.5 401,-510.5 "/>
<text text-anchor="middle" x="356.5" y="-496.9" font-family="Arial" font-size="12.00">envelope[1]:</text>
<text text-anchor="middle" x="356.5" y="-483.9" font-family="Arial" font-size="12.00">3.0</text>
<polyline fill="none" stroke="black" stroke-width="2" points="312,-476.5 401,-476.5 "/>
<text text-anchor="middle" x="356.5" y="-462.9" font-family="Arial" font-size="12.00">envelope[2]:</text>
<text text-anchor="middle" x="356.5" y="-449.9" font-family="Arial" font-size="12.00">2.0</text>
<polyline fill="none" stroke="black" stroke-width="2" points="312,-442.5 401,-442.5 "/>
<text text-anchor="middle" x="356.5" y="-428.9" font-family="Arial" font-size="12.00">envelope[3]:</text>
<text text-anchor="middle" x="356.5" y="-415.9" font-family="Arial" font-size="12.00">&#45;99.0</text>
<polyline fill="none" stroke="black" stroke-width="2" points="312,-408.5 401,-408.5 "/>
<text text-anchor="middle" x="356.5" y="-394.9" font-family="Arial" font-size="12.00">envelope[4]:</text>
<text text-anchor="middle" x="356.5" y="-381.9" font-family="Arial" font-size="12.00">1.0</text>
<polyline fill="none" stroke="black" stroke-width="2" points="312,-374.5 401,-374.5 "/>
<text text-anchor="middle" x="356.5" y="-360.9" font-family="Arial" font-size="12.00">envelope[5]:</text>
<text text-anchor="middle" x="356.5" y="-347.9" font-family="Arial" font-size="12.00">0.01</text>
<polyline fill="none" stroke="black" stroke-width="2" points="312,-340.5 401,-340.5 "/>
<text text-anchor="middle" x="356.5" y="-326.9" font-family="Arial" font-size="12.00">envelope[6]:</text>
<text text-anchor="middle" x="356.5" y="-313.9" font-family="Arial" font-size="12.00">5.0</text>
<polyline fill="none" stroke="black" stroke-width="2" points="312,-306.5 401,-306.5 "/>
<text text-anchor="middle" x="356.5" y="-292.9" font-family="Arial" font-size="12.00">envelope[7]:</text>
<text text-anchor="middle" x="356.5" y="-279.9" font-family="Arial" font-size="12.00">&#45;4.0</text>
<polyline fill="none" stroke="black" stroke-width="2" points="312,-272.5 401,-272.5 "/>
<text text-anchor="middle" x="356.5" y="-258.9" font-family="Arial" font-size="12.00">envelope[8]:</text>
<text text-anchor="middle" x="356.5" y="-245.9" font-family="Arial" font-size="12.00">0.5</text>
<polyline fill="none" stroke="black" stroke-width="2" points="312,-238.5 401,-238.5 "/>
<text text-anchor="middle" x="356.5" y="-224.9" font-family="Arial" font-size="12.00">envelope[9]:</text>
<text text-anchor="middle" x="356.5" y="-211.9" font-family="Arial" font-size="12.00">0.3</text>
<polyline fill="none" stroke="black" stroke-width="2" points="312,-204.5 401,-204.5 "/>
<text text-anchor="middle" x="356.5" y="-190.9" font-family="Arial" font-size="12.00">envelope[10]:</text>
<text text-anchor="middle" x="356.5" y="-177.9" font-family="Arial" font-size="12.00">5.0</text>
<polyline fill="none" stroke="black" stroke-width="2" points="312,-170.5 401,-170.5 "/>
<text text-anchor="middle" x="356.5" y="-156.9" font-family="Arial" font-size="12.00">envelope[11]:</text>
<text text-anchor="middle" x="356.5" y="-143.9" font-family="Arial" font-size="12.00">&#45;4.0</text>
<polyline fill="none" stroke="black" stroke-width="2" points="312,-136.5 401,-136.5 "/>
<text text-anchor="middle" x="356.5" y="-122.9" font-family="Arial" font-size="12.00">envelope[12]:</text>
<text text-anchor="middle" x="356.5" y="-109.9" font-family="Arial" font-size="12.00">0.0</text>
<polyline fill="none" stroke="black" stroke-width="2" points="312,-102.5 401,-102.5 "/>
<text text-anchor="middle" x="356.5" y="-88.9" font-family="Arial" font-size="12.00">envelope[13]:</text>
<text text-anchor="middle" x="356.5" y="-75.9" font-family="Arial" font-size="12.00">1.0</text>
<polyline fill="none" stroke="black" stroke-width="2" points="312,-68.5 401,-68.5 "/>
<text text-anchor="middle" x="356.5" y="-54.9" font-family="Arial" font-size="12.00">envelope[14]:</text>
<text text-anchor="middle" x="356.5" y="-41.9" font-family="Arial" font-size="12.00">5.0</text>
<polyline fill="none" stroke="black" stroke-width="2" points="312,-34.5 401,-34.5 "/>
<text text-anchor="middle" x="356.5" y="-20.9" font-family="Arial" font-size="12.00">envelope[15]:</text>
<text text-anchor="middle" x="356.5" y="-7.9" font-family="Arial" font-size="12.00">&#45;4.0</text>
<polyline fill="none" stroke="black" stroke-width="2" points="401,-0.5 401,-701.5 "/>
<text text-anchor="middle" x="412.5" y="-347.9" font-family="Arial" font-size="12.00">0</text>
</g>
<!-- ugen_4 -->
<g id="node5" class="node">
<title>ugen_4</title>
<path fill="#bcd2ee" stroke="black" stroke-width="2" d="M512,-541.5C512,-541.5 608,-541.5 608,-541.5 614,-541.5 620,-547.5 620,-553.5 620,-553.5 620,-618.5 620,-618.5 620,-624.5 614,-630.5 608,-630.5 608,-630.5 512,-630.5 512,-630.5 506,-630.5 500,-624.5 500,-618.5 500,-618.5 500,-553.5 500,-553.5 500,-547.5 506,-541.5 512,-541.5"/>
<text text-anchor="middle" x="560" y="-616.9" font-family="Arial" font-size="12.00">BinaryOpUGen</text>
<text text-anchor="middle" x="560" y="-603.9" font-family="Arial" font-size="12.00">[MULTIPLICATION]</text>
<text text-anchor="middle" x="560" y="-590.9" font-family="Arial" font-size="12.00">(audio)</text>
<polyline fill="none" stroke="black" stroke-width="2" points="500,-583.5 620,-583.5 "/>
<text text-anchor="middle" x="534" y="-569.9" font-family="Arial" font-size="12.00">left</text>
<polyline fill="none" stroke="black" stroke-width="2" points="500,-562.5 568,-562.5 "/>
<text text-anchor="middle" x="534" y="-548.9" font-family="Arial" font-size="12.00">right</text>
<polyline fill="none" stroke="black" stroke-width="2" points="568,-541.5 568,-583.5 "/>
<text text-anchor="middle" x="594" y="-559.4" font-family="Arial" font-size="12.00">0</text>
</g>
<!-- ugen_5 -->
<g id="node6" class="node">
<title>ugen_5</title>
<path fill="#bcd2ee" stroke="black" stroke-width="2" d="M704,-541C704,-541 745,-541 745,-541 751,-541 757,-547 757,-553 757,-553 757,-639 757,-639 757,-645 751,-651 745,-651 745,-651 704,-651 704,-651 698,-651 692,-645 692,-639 692,-639 692,-553 692,-553 692,-547 698,-541 704,-541"/>
<text text-anchor="middle" x="724.5" y="-637.4" font-family="Arial" font-size="12.00">Out</text>
<text text-anchor="middle" x="724.5" y="-624.4" font-family="Arial" font-size="12.00">(audio)</text>
<polyline fill="none" stroke="black" stroke-width="2" points="692,-617 757,-617 "/>
<text text-anchor="middle" x="724.5" y="-603.4" font-family="Arial" font-size="12.00">bus:</text>
<text text-anchor="middle" x="724.5" y="-590.4" font-family="Arial" font-size="12.00">0.0</text>
<polyline fill="none" stroke="black" stroke-width="2" points="692,-583 757,-583 "/>
<text text-anchor="middle" x="724.5" y="-569.4" font-family="Arial" font-size="12.00">source[0]</text>
<polyline fill="none" stroke="black" stroke-width="2" points="692,-562 757,-562 "/>
<text text-anchor="middle" x="724.5" y="-548.4" font-family="Arial" font-size="12.00">source[1]</text>
</g>
</g>
</svg>
