<?xml version="1.0" encoding="UTF-8" standalone="no"?>
<!DOCTYPE svg PUBLIC "-//W3C//DTD SVG 1.1//EN"
 "http://www.w3.org/Graphics/SVG/1.1/DTD/svg11.dtd">
<!-- Generated by graphviz version 2.49.1 (20210923.0004)
 -->
<!-- Title: synthdef_979c1d667e70e82b8f67e46b15e765bd Pages: 1 -->
<svg width="1034pt" height="587pt"
 viewBox="0.00 0.00 1034.00 587.00" xmlns="http://www.w3.org/2000/svg" xmlns:xlink="http://www.w3.org/1999/xlink">
<g id="graph0" class="graph" transform="scale(1 1) rotate(0) translate(4 583)">
<title>synthdef_979c1d667e70e82b8f67e46b15e765bd</title>
<!-- ugen_0&#45;&gt;ugen_1 -->
<g id="edge1" class="edge">
<title>ugen_0:e&#45;&gt;ugen_1:w</title>
<path fill="none" stroke="salmon" stroke-width="2" d="M63,-392C105.12,-392 91.91,-454.36 124.96,-464.59"/>
<polygon fill="salmon" stroke="salmon" stroke-width="2" points="124.61,-468.07 135,-466 125.59,-461.14 124.61,-468.07"/>
</g>
<!-- ugen_0&#45;&gt;ugen_11 -->
<g id="edge2" class="edge">
<title>ugen_0:e&#45;&gt;ugen_11:w</title>
<path fill="none" stroke="salmon" stroke-width="2" d="M63,-358C184.19,-358 55.16,-186.17 135,-95 215.78,-2.76 271.39,0 394,0 394,0 394,0 628,0 784.42,0 811.04,-100.54 961.88,-104.86"/>
<polygon fill="salmon" stroke="salmon" stroke-width="2" points="961.95,-108.36 972,-105 962.05,-101.36 961.95,-108.36"/>
</g>
<!-- ugen_0&#45;&gt;ugen_3 -->
<g id="edge3" class="edge">
<title>ugen_0:e&#45;&gt;ugen_3:w</title>
<path fill="none" stroke="salmon" stroke-width="2" d="M63,-358C101.59,-358 113.73,-358 147.78,-358"/>
<polygon fill="salmon" stroke="salmon" stroke-width="2" points="148,-361.5 158,-358 148,-354.5 148,-361.5"/>
</g>
<!-- ugen_1&#45;&gt;ugen_2 -->
<g id="edge4" class="edge">
<title>ugen_1:e&#45;&gt;ugen_2:w</title>
<path fill="none" stroke="goldenrod" stroke-width="2" d="M243,-483C312.04,-483 469.69,-405.47 546.69,-398.5"/>
<polygon fill="goldenrod" stroke="goldenrod" stroke-width="2" points="547.18,-401.98 557,-398 546.84,-394.99 547.18,-401.98"/>
</g>
<!-- ugen_10&#45;&gt;ugen_11 -->
<g id="edge5" class="edge">
<title>ugen_10:e&#45;&gt;ugen_11:w</title>
<path fill="none" stroke="steelblue" stroke-width="2" d="M900,-190C953.17,-190 920.18,-97.61 961.9,-85.34"/>
<polygon fill="steelblue" stroke="steelblue" stroke-width="2" points="962.55,-88.79 972,-84 961.63,-81.85 962.55,-88.79"/>
</g>
<!-- ugen_2&#45;&gt;ugen_10 -->
<g id="edge6" class="edge">
<title>ugen_2:e&#45;&gt;ugen_10:w</title>
<path fill="none" stroke="goldenrod" stroke-width="2" d="M697,-398C796.88,-398 683.99,-195.06 768.91,-180.79"/>
<polygon fill="goldenrod" stroke="goldenrod" stroke-width="2" points="769.3,-184.27 779,-180 768.76,-177.29 769.3,-184.27"/>
</g>
<!-- ugen_3&#45;&gt;ugen_6 -->
<g id="edge7" class="edge">
<title>ugen_3:e&#45;&gt;ugen_6:w</title>
<path fill="none" stroke="steelblue" stroke-width="2" d="M220,-358C258.59,-358 270.73,-358 304.78,-358"/>
<polygon fill="steelblue" stroke="steelblue" stroke-width="2" points="305,-361.5 315,-358 305,-354.5 305,-361.5"/>
</g>
<!-- ugen_4&#45;&gt;ugen_6 -->
<g id="edge8" class="edge">
<title>ugen_4:e&#45;&gt;ugen_6:w</title>
<path fill="none" stroke="salmon" stroke-width="2" d="M238,-139C306.52,-139 249.3,-267.85 305.05,-280.93"/>
<polygon fill="salmon" stroke="salmon" stroke-width="2" points="304.68,-284.41 315,-282 305.43,-277.45 304.68,-284.41"/>
</g>
<!-- ugen_5&#45;&gt;ugen_6 -->
<g id="edge9" class="edge">
<title>ugen_5:e&#45;&gt;ugen_6:w</title>
<path fill="none" stroke="salmon" stroke-width="2" d="M238,-260C273.52,-260 275.71,-295.32 304.98,-301.94"/>
<polygon fill="salmon" stroke="salmon" stroke-width="2" points="304.69,-305.43 315,-303 305.43,-298.46 304.69,-305.43"/>
</g>
<!-- ugen_6&#45;&gt;ugen_9 -->
<g id="edge10" class="edge">
<title>ugen_6:e&#45;&gt;ugen_9:w</title>
<path fill="none" stroke="steelblue" stroke-width="2" d="M475,-320C519.4,-320 502.19,-251.16 536.97,-240.41"/>
<polygon fill="steelblue" stroke="steelblue" stroke-width="2" points="537.58,-243.85 547,-239 536.61,-236.92 537.58,-243.85"/>
</g>
<!-- ugen_7&#45;&gt;ugen_9 -->
<g id="edge11" class="edge">
<title>ugen_7:e&#45;&gt;ugen_9:w</title>
<path fill="none" stroke="salmon" stroke-width="2" d="M444,-63C504.19,-63 485.7,-151.99 536.98,-162.07"/>
<polygon fill="salmon" stroke="salmon" stroke-width="2" points="536.72,-165.56 547,-163 537.36,-158.59 536.72,-165.56"/>
</g>
<!-- ugen_8&#45;&gt;ugen_9 -->
<g id="edge12" class="edge">
<title>ugen_8:e&#45;&gt;ugen_9:w</title>
<path fill="none" stroke="salmon" stroke-width="2" d="M444,-184C486.2,-184 499.22,-184 536.87,-184"/>
<polygon fill="salmon" stroke="salmon" stroke-width="2" points="537,-187.5 547,-184 537,-180.5 537,-187.5"/>
</g>
<!-- ugen_9&#45;&gt;ugen_10 -->
<g id="edge13" class="edge">
<title>ugen_9:e&#45;&gt;ugen_10:w</title>
<path fill="none" stroke="steelblue" stroke-width="2" d="M707,-201C735.38,-201 744.88,-201 768.98,-201"/>
<polygon fill="steelblue" stroke="steelblue" stroke-width="2" points="769,-204.5 779,-201 769,-197.5 769,-204.5"/>
</g>
<!-- ugen_0 -->
<g id="node1" class="node">
<title>ugen_0</title>
<path fill="#ee9572" stroke="black" stroke-width="2" d="M12,-341C12,-341 51,-341 51,-341 57,-341 63,-347 63,-353 63,-353 63,-431 63,-431 63,-437 57,-443 51,-443 51,-443 12,-443 12,-443 6,-443 0,-437 0,-431 0,-431 0,-353 0,-353 0,-347 6,-341 12,-341"/>
<text text-anchor="middle" x="31.5" y="-429.4" font-family="Arial" font-size="12.00">Control</text>
<text text-anchor="middle" x="31.5" y="-416.4" font-family="Arial" font-size="12.00">(scalar)</text>
<polyline fill="none" stroke="black" stroke-width="2" points="0,-409 63,-409 "/>
<text text-anchor="middle" x="31.5" y="-395.4" font-family="Arial" font-size="12.00">duration:</text>
<text text-anchor="middle" x="31.5" y="-382.4" font-family="Arial" font-size="12.00">1.0</text>
<polyline fill="none" stroke="black" stroke-width="2" points="0,-375 63,-375 "/>
<text text-anchor="middle" x="31.5" y="-361.4" font-family="Arial" font-size="12.00">out:</text>
<text text-anchor="middle" x="31.5" y="-348.4" font-family="Arial" font-size="12.00">0.0</text>
</g>
<!-- ugen_1 -->
<g id="node2" class="node">
<title>ugen_1</title>
<path fill="#eedc82" stroke="black" stroke-width="2" d="M147,-421.5C147,-421.5 231,-421.5 231,-421.5 237,-421.5 243,-427.5 243,-433.5 243,-433.5 243,-566.5 243,-566.5 243,-572.5 237,-578.5 231,-578.5 231,-578.5 147,-578.5 147,-578.5 141,-578.5 135,-572.5 135,-566.5 135,-566.5 135,-433.5 135,-433.5 135,-427.5 141,-421.5 147,-421.5"/>
<text text-anchor="middle" x="189" y="-564.9" font-family="Arial" font-size="12.00">Line</text>
<text text-anchor="middle" x="189" y="-551.9" font-family="Arial" font-size="12.00">(control)</text>
<polyline fill="none" stroke="black" stroke-width="2" points="135,-544.5 243,-544.5 "/>
<text text-anchor="middle" x="177.5" y="-530.9" font-family="Arial" font-size="12.00">start:</text>
<text text-anchor="middle" x="177.5" y="-517.9" font-family="Arial" font-size="12.00">0.0</text>
<polyline fill="none" stroke="black" stroke-width="2" points="135,-510.5 220,-510.5 "/>
<text text-anchor="middle" x="177.5" y="-496.9" font-family="Arial" font-size="12.00">stop:</text>
<text text-anchor="middle" x="177.5" y="-483.9" font-family="Arial" font-size="12.00">1.0</text>
<polyline fill="none" stroke="black" stroke-width="2" points="135,-476.5 220,-476.5 "/>
<text text-anchor="middle" x="177.5" y="-462.9" font-family="Arial" font-size="12.00">duration</text>
<polyline fill="none" stroke="black" stroke-width="2" points="135,-455.5 220,-455.5 "/>
<text text-anchor="middle" x="177.5" y="-441.9" font-family="Arial" font-size="12.00">done_action:</text>
<text text-anchor="middle" x="177.5" y="-428.9" font-family="Arial" font-size="12.00">2.0</text>
<polyline fill="none" stroke="black" stroke-width="2" points="220,-421.5 220,-544.5 "/>
<text text-anchor="middle" x="231.5" y="-479.9" font-family="Arial" font-size="12.00">0</text>
</g>
<!-- ugen_10 -->
<g id="node3" class="node">
<title>ugen_10</title>
<path fill="#bcd2ee" stroke="black" stroke-width="2" d="M791,-169.5C791,-169.5 888,-169.5 888,-169.5 894,-169.5 900,-175.5 900,-181.5 900,-181.5 900,-246.5 900,-246.5 900,-252.5 894,-258.5 888,-258.5 888,-258.5 791,-258.5 791,-258.5 785,-258.5 779,-252.5 779,-246.5 779,-246.5 779,-181.5 779,-181.5 779,-175.5 785,-169.5 791,-169.5"/>
<text text-anchor="middle" x="839.5" y="-244.9" font-family="Arial" font-size="12.00">BinaryOpUGen</text>
<text text-anchor="middle" x="839.5" y="-231.9" font-family="Arial" font-size="12.00">[MULTIPLICATION]</text>
<text text-anchor="middle" x="839.5" y="-218.9" font-family="Arial" font-size="12.00">(audio)</text>
<polyline fill="none" stroke="black" stroke-width="2" points="779,-211.5 900,-211.5 "/>
<text text-anchor="middle" x="813.5" y="-197.9" font-family="Arial" font-size="12.00">left</text>
<polyline fill="none" stroke="black" stroke-width="2" points="779,-190.5 848,-190.5 "/>
<text text-anchor="middle" x="813.5" y="-176.9" font-family="Arial" font-size="12.00">right</text>
<polyline fill="none" stroke="black" stroke-width="2" points="848,-169.5 848,-211.5 "/>
<text text-anchor="middle" x="874" y="-187.4" font-family="Arial" font-size="12.00">0</text>
</g>
<!-- ugen_11 -->
<g id="node4" class="node">
<title>ugen_11</title>
<path fill="#bcd2ee" stroke="black" stroke-width="2" d="M984,-74C984,-74 1014,-74 1014,-74 1020,-74 1026,-80 1026,-86 1026,-86 1026,-138 1026,-138 1026,-144 1020,-150 1014,-150 1014,-150 984,-150 984,-150 978,-150 972,-144 972,-138 972,-138 972,-86 972,-86 972,-80 978,-74 984,-74"/>
<text text-anchor="middle" x="999" y="-136.4" font-family="Arial" font-size="12.00">Out</text>
<text text-anchor="middle" x="999" y="-123.4" font-family="Arial" font-size="12.00">(audio)</text>
<polyline fill="none" stroke="black" stroke-width="2" points="972,-116 1026,-116 "/>
<text text-anchor="middle" x="999" y="-102.4" font-family="Arial" font-size="12.00">bus</text>
<polyline fill="none" stroke="black" stroke-width="2" points="972,-95 1026,-95 "/>
<text text-anchor="middle" x="999" y="-81.4" font-family="Arial" font-size="12.00">source</text>
</g>
<!-- ugen_2 -->
<g id="node5" class="node">
<title>ugen_2</title>
<path fill="#eedc82" stroke="black" stroke-width="2" d="M570,-388C570,-388 684,-388 684,-388 690,-388 696,-394 696,-400 696,-400 696,-444 696,-444 696,-450 690,-456 684,-456 684,-456 570,-456 570,-456 564,-456 558,-450 558,-444 558,-444 558,-400 558,-400 558,-394 564,-388 570,-388"/>
<text text-anchor="middle" x="627" y="-442.4" font-family="Arial" font-size="12.00">UnaryOpUGen</text>
<text text-anchor="middle" x="627" y="-429.4" font-family="Arial" font-size="12.00">[HANNING_WINDOW]</text>
<text text-anchor="middle" x="627" y="-416.4" font-family="Arial" font-size="12.00">(control)</text>
<polyline fill="none" stroke="black" stroke-width="2" points="558,-409 696,-409 "/>
<text text-anchor="middle" x="600" y="-395.4" font-family="Arial" font-size="12.00">source</text>
<polyline fill="none" stroke="black" stroke-width="2" points="642,-388 642,-409 "/>
<text text-anchor="middle" x="669" y="-395.4" font-family="Arial" font-size="12.00">0</text>
</g>
<!-- ugen_3 -->
<g id="node6" class="node">
<title>ugen_3</title>
<path fill="#bcd2ee" stroke="black" stroke-width="2" d="M171.5,-347.5C171.5,-347.5 206.5,-347.5 206.5,-347.5 212.5,-347.5 218.5,-353.5 218.5,-359.5 218.5,-359.5 218.5,-390.5 218.5,-390.5 218.5,-396.5 212.5,-402.5 206.5,-402.5 206.5,-402.5 171.5,-402.5 171.5,-402.5 165.5,-402.5 159.5,-396.5 159.5,-390.5 159.5,-390.5 159.5,-359.5 159.5,-359.5 159.5,-353.5 165.5,-347.5 171.5,-347.5"/>
<text text-anchor="middle" x="189" y="-388.9" font-family="Arial" font-size="12.00">In</text>
<text text-anchor="middle" x="189" y="-375.9" font-family="Arial" font-size="12.00">(audio)</text>
<polyline fill="none" stroke="black" stroke-width="2" points="159.5,-368.5 218.5,-368.5 "/>
<text text-anchor="middle" x="177.5" y="-354.9" font-family="Arial" font-size="12.00">bus</text>
<polyline fill="none" stroke="black" stroke-width="2" points="195.5,-347.5 195.5,-368.5 "/>
<text text-anchor="middle" x="207" y="-354.9" font-family="Arial" font-size="12.00">0</text>
</g>
<!-- ugen_4 -->
<g id="node7" class="node">
<title>ugen_4</title>
<path fill="#ee9572" stroke="black" stroke-width="2" d="M153.5,-105C153.5,-105 224.5,-105 224.5,-105 230.5,-105 236.5,-111 236.5,-117 236.5,-117 236.5,-195 236.5,-195 236.5,-201 230.5,-207 224.5,-207 224.5,-207 153.5,-207 153.5,-207 147.5,-207 141.5,-201 141.5,-195 141.5,-195 141.5,-117 141.5,-117 141.5,-111 147.5,-105 153.5,-105"/>
<text text-anchor="middle" x="189" y="-193.4" font-family="Arial" font-size="12.00">ExpRand</text>
<text text-anchor="middle" x="189" y="-180.4" font-family="Arial" font-size="12.00">(scalar)</text>
<polyline fill="none" stroke="black" stroke-width="2" points="141.5,-173 236.5,-173 "/>
<text text-anchor="middle" x="177.5" y="-159.4" font-family="Arial" font-size="12.00">minimum:</text>
<text text-anchor="middle" x="177.5" y="-146.4" font-family="Arial" font-size="12.00">0.01</text>
<polyline fill="none" stroke="black" stroke-width="2" points="141.5,-139 213.5,-139 "/>
<text text-anchor="middle" x="177.5" y="-125.4" font-family="Arial" font-size="12.00">maximum:</text>
<text text-anchor="middle" x="177.5" y="-112.4" font-family="Arial" font-size="12.00">0.1</text>
<polyline fill="none" stroke="black" stroke-width="2" points="213.5,-105 213.5,-173 "/>
<text text-anchor="middle" x="225" y="-135.9" font-family="Arial" font-size="12.00">0</text>
</g>
<!-- ugen_5 -->
<g id="node8" class="node">
<title>ugen_5</title>
<path fill="#ee9572" stroke="black" stroke-width="2" d="M153.5,-226C153.5,-226 224.5,-226 224.5,-226 230.5,-226 236.5,-232 236.5,-238 236.5,-238 236.5,-316 236.5,-316 236.5,-322 230.5,-328 224.5,-328 224.5,-328 153.5,-328 153.5,-328 147.5,-328 141.5,-322 141.5,-316 141.5,-316 141.5,-238 141.5,-238 141.5,-232 147.5,-226 153.5,-226"/>
<text text-anchor="middle" x="189" y="-314.4" font-family="Arial" font-size="12.00">ExpRand</text>
<text text-anchor="middle" x="189" y="-301.4" font-family="Arial" font-size="12.00">(scalar)</text>
<polyline fill="none" stroke="black" stroke-width="2" points="141.5,-294 236.5,-294 "/>
<text text-anchor="middle" x="177.5" y="-280.4" font-family="Arial" font-size="12.00">minimum:</text>
<text text-anchor="middle" x="177.5" y="-267.4" font-family="Arial" font-size="12.00">0.01</text>
<polyline fill="none" stroke="black" stroke-width="2" points="141.5,-260 213.5,-260 "/>
<text text-anchor="middle" x="177.5" y="-246.4" font-family="Arial" font-size="12.00">maximum:</text>
<text text-anchor="middle" x="177.5" y="-233.4" font-family="Arial" font-size="12.00">0.1</text>
<polyline fill="none" stroke="black" stroke-width="2" points="213.5,-226 213.5,-294 "/>
<text text-anchor="middle" x="225" y="-256.9" font-family="Arial" font-size="12.00">0</text>
</g>
<!-- ugen_6 -->
<g id="node9" class="node">
<title>ugen_6</title>
<path fill="#bcd2ee" stroke="black" stroke-width="2" d="M327,-271.5C327,-271.5 463,-271.5 463,-271.5 469,-271.5 475,-277.5 475,-283.5 475,-283.5 475,-390.5 475,-390.5 475,-396.5 469,-402.5 463,-402.5 463,-402.5 327,-402.5 327,-402.5 321,-402.5 315,-396.5 315,-390.5 315,-390.5 315,-283.5 315,-283.5 315,-277.5 321,-271.5 327,-271.5"/>
<text text-anchor="middle" x="395" y="-388.9" font-family="Arial" font-size="12.00">AllpassC</text>
<text text-anchor="middle" x="395" y="-375.9" font-family="Arial" font-size="12.00">(audio)</text>
<polyline fill="none" stroke="black" stroke-width="2" points="315,-368.5 475,-368.5 "/>
<text text-anchor="middle" x="383.5" y="-354.9" font-family="Arial" font-size="12.00">source</text>
<polyline fill="none" stroke="black" stroke-width="2" points="315,-347.5 452,-347.5 "/>
<text text-anchor="middle" x="383.5" y="-333.9" font-family="Arial" font-size="12.00">maximum_delay_time:</text>
<text text-anchor="middle" x="383.5" y="-320.9" font-family="Arial" font-size="12.00">0.1</text>
<polyline fill="none" stroke="black" stroke-width="2" points="315,-313.5 452,-313.5 "/>
<text text-anchor="middle" x="383.5" y="-299.9" font-family="Arial" font-size="12.00">delay_time</text>
<polyline fill="none" stroke="black" stroke-width="2" points="315,-292.5 452,-292.5 "/>
<text text-anchor="middle" x="383.5" y="-278.9" font-family="Arial" font-size="12.00">decay_time</text>
<polyline fill="none" stroke="black" stroke-width="2" points="452,-271.5 452,-368.5 "/>
<text text-anchor="middle" x="463.5" y="-316.9" font-family="Arial" font-size="12.00">0</text>
</g>
<!-- ugen_7 -->
<g id="node10" class="node">
<title>ugen_7</title>
<path fill="#ee9572" stroke="black" stroke-width="2" d="M359.5,-29C359.5,-29 430.5,-29 430.5,-29 436.5,-29 442.5,-35 442.5,-41 442.5,-41 442.5,-119 442.5,-119 442.5,-125 436.5,-131 430.5,-131 430.5,-131 359.5,-131 359.5,-131 353.5,-131 347.5,-125 347.5,-119 347.5,-119 347.5,-41 347.5,-41 347.5,-35 353.5,-29 359.5,-29"/>
<text text-anchor="middle" x="395" y="-117.4" font-family="Arial" font-size="12.00">ExpRand</text>
<text text-anchor="middle" x="395" y="-104.4" font-family="Arial" font-size="12.00">(scalar)</text>
<polyline fill="none" stroke="black" stroke-width="2" points="347.5,-97 442.5,-97 "/>
<text text-anchor="middle" x="383.5" y="-83.4" font-family="Arial" font-size="12.00">minimum:</text>
<text text-anchor="middle" x="383.5" y="-70.4" font-family="Arial" font-size="12.00">0.01</text>
<polyline fill="none" stroke="black" stroke-width="2" points="347.5,-63 419.5,-63 "/>
<text text-anchor="middle" x="383.5" y="-49.4" font-family="Arial" font-size="12.00">maximum:</text>
<text text-anchor="middle" x="383.5" y="-36.4" font-family="Arial" font-size="12.00">0.1</text>
<polyline fill="none" stroke="black" stroke-width="2" points="419.5,-29 419.5,-97 "/>
<text text-anchor="middle" x="431" y="-59.9" font-family="Arial" font-size="12.00">0</text>
</g>
<!-- ugen_8 -->
<g id="node11" class="node">
<title>ugen_8</title>
<path fill="#ee9572" stroke="black" stroke-width="2" d="M359.5,-150C359.5,-150 430.5,-150 430.5,-150 436.5,-150 442.5,-156 442.5,-162 442.5,-162 442.5,-240 442.5,-240 442.5,-246 436.5,-252 430.5,-252 430.5,-252 359.5,-252 359.5,-252 353.5,-252 347.5,-246 347.5,-240 347.5,-240 347.5,-162 347.5,-162 347.5,-156 353.5,-150 359.5,-150"/>
<text text-anchor="middle" x="395" y="-238.4" font-family="Arial" font-size="12.00">ExpRand</text>
<text text-anchor="middle" x="395" y="-225.4" font-family="Arial" font-size="12.00">(scalar)</text>
<polyline fill="none" stroke="black" stroke-width="2" points="347.5,-218 442.5,-218 "/>
<text text-anchor="middle" x="383.5" y="-204.4" font-family="Arial" font-size="12.00">minimum:</text>
<text text-anchor="middle" x="383.5" y="-191.4" font-family="Arial" font-size="12.00">0.01</text>
<polyline fill="none" stroke="black" stroke-width="2" points="347.5,-184 419.5,-184 "/>
<text text-anchor="middle" x="383.5" y="-170.4" font-family="Arial" font-size="12.00">maximum:</text>
<text text-anchor="middle" x="383.5" y="-157.4" font-family="Arial" font-size="12.00">0.1</text>
<polyline fill="none" stroke="black" stroke-width="2" points="419.5,-150 419.5,-218 "/>
<text text-anchor="middle" x="431" y="-180.9" font-family="Arial" font-size="12.00">0</text>
</g>
<!-- ugen_9 -->
<g id="node12" class="node">
<title>ugen_9</title>
<path fill="#bcd2ee" stroke="black" stroke-width="2" d="M559,-152.5C559,-152.5 695,-152.5 695,-152.5 701,-152.5 707,-158.5 707,-164.5 707,-164.5 707,-271.5 707,-271.5 707,-277.5 701,-283.5 695,-283.5 695,-283.5 559,-283.5 559,-283.5 553,-283.5 547,-277.5 547,-271.5 547,-271.5 547,-164.5 547,-164.5 547,-158.5 553,-152.5 559,-152.5"/>
<text text-anchor="middle" x="627" y="-269.9" font-family="Arial" font-size="12.00">AllpassC</text>
<text text-anchor="middle" x="627" y="-256.9" font-family="Arial" font-size="12.00">(audio)</text>
<polyline fill="none" stroke="black" stroke-width="2" points="547,-249.5 707,-249.5 "/>
<text text-anchor="middle" x="615.5" y="-235.9" font-family="Arial" font-size="12.00">source</text>
<polyline fill="none" stroke="black" stroke-width="2" points="547,-228.5 684,-228.5 "/>
<text text-anchor="middle" x="615.5" y="-214.9" font-family="Arial" font-size="12.00">maximum_delay_time:</text>
<text text-anchor="middle" x="615.5" y="-201.9" font-family="Arial" font-size="12.00">0.1</text>
<polyline fill="none" stroke="black" stroke-width="2" points="547,-194.5 684,-194.5 "/>
<text text-anchor="middle" x="615.5" y="-180.9" font-family="Arial" font-size="12.00">delay_time</text>
<polyline fill="none" stroke="black" stroke-width="2" points="547,-173.5 684,-173.5 "/>
<text text-anchor="middle" x="615.5" y="-159.9" font-family="Arial" font-size="12.00">decay_time</text>
<polyline fill="none" stroke="black" stroke-width="2" points="684,-152.5 684,-249.5 "/>
<text text-anchor="middle" x="695.5" y="-197.9" font-family="Arial" font-size="12.00">0</text>
</g>
</g>
</svg>
