<?xml version="1.0" encoding="UTF-8" standalone="no"?>
<!DOCTYPE svg PUBLIC "-//W3C//DTD SVG 1.1//EN"
 "http://www.w3.org/Graphics/SVG/1.1/DTD/svg11.dtd">
<!-- Generated by graphviz version 2.43.0 (0)
 -->
<!-- Title: synthdef_23402ca7101987e4fb19401811cf0513 Pages: 1 -->
<svg width="552pt" height="200pt"
 viewBox="0.00 0.00 552.00 200.00" xmlns="http://www.w3.org/2000/svg" xmlns:xlink="http://www.w3.org/1999/xlink">
<g id="graph0" class="graph" transform="scale(1 1) rotate(0) translate(4 196)">
<title>synthdef_23402ca7101987e4fb19401811cf0513</title>
<!-- ugen_0&#45;&gt;ugen_1 -->
<g id="edge1" class="edge">
<title>ugen_0:e&#45;&gt;ugen_1:w</title>
<path fill="none" stroke="steelblue" stroke-width="2" d="M62,-140.5C90.38,-140.5 99.88,-140.5 123.98,-140.5"/>
<polygon fill="steelblue" stroke="steelblue" stroke-width="2" points="124,-144 134,-140.5 124,-137 124,-144"/>
</g>
<!-- ugen_1&#45;&gt;ugen_3 -->
<g id="edge2" class="edge">
<title>ugen_1:e&#45;&gt;ugen_3:w</title>
<path fill="none" stroke="steelblue" stroke-width="2" d="M226,-123.5C258,-123.5 261.74,-94.69 287.78,-88.62"/>
<polygon fill="steelblue" stroke="steelblue" stroke-width="2" points="288.44,-92.07 298,-87.5 287.68,-85.11 288.44,-92.07"/>
</g>
<!-- ugen_2&#45;&gt;ugen_3 -->
<g id="edge3" class="edge">
<title>ugen_2:e&#45;&gt;ugen_3:w</title>
<path fill="none" stroke="goldenrod" stroke-width="2" d="M212,-31.5C249.56,-31.5 255.81,-60.49 287.74,-65.7"/>
<polygon fill="goldenrod" stroke="goldenrod" stroke-width="2" points="287.76,-69.22 298,-66.5 288.3,-62.24 287.76,-69.22"/>
</g>
<!-- ugen_3&#45;&gt;ugen_4 -->
<g id="edge4" class="edge">
<title>ugen_3:e&#45;&gt;ugen_4:w</title>
<path fill="none" stroke="steelblue" stroke-width="2" d="M418,-76.5C449.32,-76.5 454.2,-102.11 479.95,-107.51"/>
<polygon fill="steelblue" stroke="steelblue" stroke-width="2" points="479.7,-111 490,-108.5 480.39,-104.03 479.7,-111"/>
</g>
<!-- ugen_3&#45;&gt;ugen_4 -->
<g id="edge5" class="edge">
<title>ugen_3:e&#45;&gt;ugen_4:w</title>
<path fill="none" stroke="steelblue" stroke-width="2" d="M418,-76.5C446.7,-76.5 455.66,-85.15 479.89,-87.11"/>
<polygon fill="steelblue" stroke="steelblue" stroke-width="2" points="479.87,-90.61 490,-87.5 480.14,-83.62 479.87,-90.61"/>
</g>
<!-- ugen_3&#45;&gt;ugen_4 -->
<g id="edge6" class="edge">
<title>ugen_3:e&#45;&gt;ugen_4:w</title>
<path fill="none" stroke="steelblue" stroke-width="2" d="M418,-76.5C446.65,-76.5 455.7,-68.64 479.91,-66.86"/>
<polygon fill="steelblue" stroke="steelblue" stroke-width="2" points="480.13,-70.35 490,-66.5 479.88,-63.35 480.13,-70.35"/>
</g>
<!-- ugen_3&#45;&gt;ugen_4 -->
<g id="edge7" class="edge">
<title>ugen_3:e&#45;&gt;ugen_4:w</title>
<path fill="none" stroke="steelblue" stroke-width="2" d="M418,-76.5C449.17,-76.5 454.31,-51.69 479.99,-46.46"/>
<polygon fill="steelblue" stroke="steelblue" stroke-width="2" points="480.38,-49.94 490,-45.5 479.71,-42.97 480.38,-49.94"/>
</g>
<!-- ugen_0 -->
<g id="node1" class="node">
<title>ugen_0</title>
<path fill="#bcd2ee" stroke="black" stroke-width="2" d="M12,-123.5C12,-123.5 50,-123.5 50,-123.5 56,-123.5 62,-129.5 62,-135.5 62,-135.5 62,-179.5 62,-179.5 62,-185.5 56,-191.5 50,-191.5 50,-191.5 12,-191.5 12,-191.5 6,-191.5 0,-185.5 0,-179.5 0,-179.5 0,-135.5 0,-135.5 0,-129.5 6,-123.5 12,-123.5"/>
<text text-anchor="middle" x="31" y="-177.9" font-family="Arial" font-size="12.00">In</text>
<text text-anchor="middle" x="31" y="-164.9" font-family="Arial" font-size="12.00">(audio)</text>
<polyline fill="none" stroke="black" stroke-width="2" points="0,-157.5 62,-157.5 "/>
<text text-anchor="middle" x="19.5" y="-143.9" font-family="Arial" font-size="12.00">bus:</text>
<text text-anchor="middle" x="19.5" y="-130.9" font-family="Arial" font-size="12.00">0.0</text>
<polyline fill="none" stroke="black" stroke-width="2" points="39,-123.5 39,-157.5 "/>
<text text-anchor="middle" x="50.5" y="-137.4" font-family="Arial" font-size="12.00">0</text>
</g>
<!-- ugen_1 -->
<g id="node2" class="node">
<title>ugen_1</title>
<path fill="#bcd2ee" stroke="black" stroke-width="2" d="M146,-96C146,-96 214,-96 214,-96 220,-96 226,-102 226,-108 226,-108 226,-173 226,-173 226,-179 220,-185 214,-185 214,-185 146,-185 146,-185 140,-185 134,-179 134,-173 134,-173 134,-108 134,-108 134,-102 140,-96 146,-96"/>
<text text-anchor="middle" x="180" y="-171.4" font-family="Arial" font-size="12.00">SinOsc</text>
<text text-anchor="middle" x="180" y="-158.4" font-family="Arial" font-size="12.00">(audio)</text>
<polyline fill="none" stroke="black" stroke-width="2" points="134,-151 226,-151 "/>
<text text-anchor="middle" x="168.5" y="-137.4" font-family="Arial" font-size="12.00">frequency</text>
<polyline fill="none" stroke="black" stroke-width="2" points="134,-130 203,-130 "/>
<text text-anchor="middle" x="168.5" y="-116.4" font-family="Arial" font-size="12.00">phase:</text>
<text text-anchor="middle" x="168.5" y="-103.4" font-family="Arial" font-size="12.00">0.0</text>
<polyline fill="none" stroke="black" stroke-width="2" points="203,-96 203,-151 "/>
<text text-anchor="middle" x="214.5" y="-120.4" font-family="Arial" font-size="12.00">0</text>
</g>
<!-- ugen_2 -->
<g id="node3" class="node">
<title>ugen_2</title>
<path fill="#eedc82" stroke="black" stroke-width="2" d="M161,-0.5C161,-0.5 199,-0.5 199,-0.5 205,-0.5 211,-6.5 211,-12.5 211,-12.5 211,-64.5 211,-64.5 211,-70.5 205,-76.5 199,-76.5 199,-76.5 161,-76.5 161,-76.5 155,-76.5 149,-70.5 149,-64.5 149,-64.5 149,-12.5 149,-12.5 149,-6.5 155,-0.5 161,-0.5"/>
<text text-anchor="middle" x="180" y="-62.9" font-family="Arial" font-size="12.00">In</text>
<text text-anchor="middle" x="180" y="-49.9" font-family="Arial" font-size="12.00">(control)</text>
<polyline fill="none" stroke="black" stroke-width="2" points="149,-42.5 211,-42.5 "/>
<text text-anchor="middle" x="168.5" y="-24.9" font-family="Arial" font-size="12.00">bus:</text>
<text text-anchor="middle" x="168.5" y="-11.9" font-family="Arial" font-size="12.00">0.0</text>
<polyline fill="none" stroke="black" stroke-width="2" points="188,-0.5 188,-42.5 "/>
<text text-anchor="middle" x="199.5" y="-28.9" font-family="Arial" font-size="12.00">0</text>
<polyline fill="none" stroke="black" stroke-width="2" points="188,-21.5 211,-21.5 "/>
<text text-anchor="middle" x="199.5" y="-7.9" font-family="Arial" font-size="12.00">1</text>
</g>
<!-- ugen_3 -->
<g id="node4" class="node">
<title>ugen_3</title>
<path fill="#bcd2ee" stroke="black" stroke-width="2" d="M310,-56C310,-56 406,-56 406,-56 412,-56 418,-62 418,-68 418,-68 418,-133 418,-133 418,-139 412,-145 406,-145 406,-145 310,-145 310,-145 304,-145 298,-139 298,-133 298,-133 298,-68 298,-68 298,-62 304,-56 310,-56"/>
<text text-anchor="middle" x="358" y="-131.4" font-family="Arial" font-size="12.00">BinaryOpUGen</text>
<text text-anchor="middle" x="358" y="-118.4" font-family="Arial" font-size="12.00">[MULTIPLICATION]</text>
<text text-anchor="middle" x="358" y="-105.4" font-family="Arial" font-size="12.00">(audio)</text>
<polyline fill="none" stroke="black" stroke-width="2" points="298,-98 418,-98 "/>
<text text-anchor="middle" x="332" y="-84.4" font-family="Arial" font-size="12.00">left</text>
<polyline fill="none" stroke="black" stroke-width="2" points="298,-77 366,-77 "/>
<text text-anchor="middle" x="332" y="-63.4" font-family="Arial" font-size="12.00">right</text>
<polyline fill="none" stroke="black" stroke-width="2" points="366,-56 366,-98 "/>
<text text-anchor="middle" x="392" y="-73.9" font-family="Arial" font-size="12.00">0</text>
</g>
<!-- ugen_4 -->
<g id="node5" class="node">
<title>ugen_4</title>
<path fill="#bcd2ee" stroke="black" stroke-width="2" d="M502,-35.5C502,-35.5 532,-35.5 532,-35.5 538,-35.5 544,-41.5 544,-47.5 544,-47.5 544,-175.5 544,-175.5 544,-181.5 538,-187.5 532,-187.5 532,-187.5 502,-187.5 502,-187.5 496,-187.5 490,-181.5 490,-175.5 490,-175.5 490,-47.5 490,-47.5 490,-41.5 496,-35.5 502,-35.5"/>
<text text-anchor="middle" x="517" y="-173.9" font-family="Arial" font-size="12.00">Out</text>
<text text-anchor="middle" x="517" y="-160.9" font-family="Arial" font-size="12.00">(audio)</text>
<polyline fill="none" stroke="black" stroke-width="2" points="490,-153.5 544,-153.5 "/>
<text text-anchor="middle" x="517" y="-139.9" font-family="Arial" font-size="12.00">bus:</text>
<text text-anchor="middle" x="517" y="-126.9" font-family="Arial" font-size="12.00">0.0</text>
<polyline fill="none" stroke="black" stroke-width="2" points="490,-119.5 544,-119.5 "/>
<text text-anchor="middle" x="517" y="-105.9" font-family="Arial" font-size="12.00">source</text>
<polyline fill="none" stroke="black" stroke-width="2" points="490,-98.5 544,-98.5 "/>
<text text-anchor="middle" x="517" y="-84.9" font-family="Arial" font-size="12.00"> </text>
<polyline fill="none" stroke="black" stroke-width="2" points="490,-77.5 544,-77.5 "/>
<text text-anchor="middle" x="517" y="-63.9" font-family="Arial" font-size="12.00"> </text>
<polyline fill="none" stroke="black" stroke-width="2" points="490,-56.5 544,-56.5 "/>
<text text-anchor="middle" x="517" y="-42.9" font-family="Arial" font-size="12.00"> </text>
</g>
</g>
</svg>
