<?xml version="1.0" encoding="UTF-8" standalone="no"?>
<!DOCTYPE svg PUBLIC "-//W3C//DTD SVG 1.1//EN"
 "http://www.w3.org/Graphics/SVG/1.1/DTD/svg11.dtd">
<!-- Generated by graphviz version 2.43.0 (0)
 -->
<!-- Title: synthdef_8bc96b58a52bebf76c1f5206d5ec376a Pages: 1 -->
<svg width="1295pt" height="602pt"
 viewBox="0.00 0.00 1295.00 602.00" xmlns="http://www.w3.org/2000/svg" xmlns:xlink="http://www.w3.org/1999/xlink">
<g id="graph0" class="graph" transform="scale(1 1) rotate(0) translate(4 598)">
<title>synthdef_8bc96b58a52bebf76c1f5206d5ec376a</title>
<!-- ugen_0&#45;&gt;ugen_1 -->
<g id="edge1" class="edge">
<title>ugen_0:e&#45;&gt;ugen_1:w</title>
<path fill="none" stroke="salmon" stroke-width="2" d="M56,-542.5C94.63,-542.5 100.86,-512.42 133.92,-507.25"/>
<polygon fill="salmon" stroke="salmon" stroke-width="2" points="134.29,-510.73 144,-506.5 133.77,-503.75 134.29,-510.73"/>
</g>
<!-- ugen_0&#45;&gt;ugen_14 -->
<g id="edge2" class="edge">
<title>ugen_0:e&#45;&gt;ugen_14:w</title>
<path fill="none" stroke="salmon" stroke-width="2" d="M56,-542.5C88.98,-542.5 95.44,-555.21 128,-560.5 235.8,-578.03 263.78,-579.5 373,-579.5 373,-579.5 373,-579.5 839,-579.5 1026.17,-579.5 1031.26,-393.41 1211.85,-386.69"/>
<polygon fill="salmon" stroke="salmon" stroke-width="2" points="1212.07,-390.18 1222,-386.5 1211.94,-383.18 1212.07,-390.18"/>
</g>
<!-- ugen_1&#45;&gt;ugen_4 -->
<g id="edge3" class="edge">
<title>ugen_1:e&#45;&gt;ugen_4:w</title>
<path fill="none" stroke="steelblue" stroke-width="2" d="M206,-506.5C242.6,-506.5 252.17,-489.1 283.91,-485.98"/>
<polygon fill="steelblue" stroke="steelblue" stroke-width="2" points="284.18,-489.47 294,-485.5 283.85,-482.48 284.18,-489.47"/>
</g>
<!-- ugen_10&#45;&gt;ugen_13 -->
<g id="edge4" class="edge">
<title>ugen_10:e&#45;&gt;ugen_13:w</title>
<path fill="none" stroke="steelblue" stroke-width="2" d="M918,-291.5C951.08,-291.5 953.11,-258.41 979.89,-251.68"/>
<polygon fill="steelblue" stroke="steelblue" stroke-width="2" points="980.47,-255.14 990,-250.5 979.66,-248.19 980.47,-255.14"/>
</g>
<!-- ugen_11&#45;&gt;ugen_13 -->
<g id="edge5" class="edge">
<title>ugen_11:e&#45;&gt;ugen_13:w</title>
<path fill="none" stroke="salmon" stroke-width="2" d="M886,-34.5C959.88,-34.5 916.99,-161.68 979.92,-173.61"/>
<polygon fill="salmon" stroke="salmon" stroke-width="2" points="979.73,-177.1 990,-174.5 980.35,-170.13 979.73,-177.1"/>
</g>
<!-- ugen_12&#45;&gt;ugen_13 -->
<g id="edge6" class="edge">
<title>ugen_12:e&#45;&gt;ugen_13:w</title>
<path fill="none" stroke="salmon" stroke-width="2" d="M886,-155.5C931.94,-155.5 939.53,-189.93 979.93,-194.9"/>
<polygon fill="salmon" stroke="salmon" stroke-width="2" points="979.81,-198.4 990,-195.5 980.22,-191.41 979.81,-198.4"/>
</g>
<!-- ugen_13&#45;&gt;ugen_14 -->
<g id="edge7" class="edge">
<title>ugen_13:e&#45;&gt;ugen_14:w</title>
<path fill="none" stroke="steelblue" stroke-width="2" d="M1150,-212.5C1221.48,-212.5 1154.13,-350.92 1212.05,-364.44"/>
<polygon fill="steelblue" stroke="steelblue" stroke-width="2" points="1211.69,-367.92 1222,-365.5 1212.43,-360.96 1211.69,-367.92"/>
</g>
<!-- ugen_2&#45;&gt;ugen_4 -->
<g id="edge8" class="edge">
<title>ugen_2:e&#45;&gt;ugen_4:w</title>
<path fill="none" stroke="salmon" stroke-width="2" d="M222,-287.5C281.15,-287.5 237.14,-395.17 283.8,-408.21"/>
<polygon fill="salmon" stroke="salmon" stroke-width="2" points="283.64,-411.72 294,-409.5 284.52,-404.78 283.64,-411.72"/>
</g>
<!-- ugen_3&#45;&gt;ugen_4 -->
<g id="edge9" class="edge">
<title>ugen_3:e&#45;&gt;ugen_4:w</title>
<path fill="none" stroke="salmon" stroke-width="2" d="M222,-408.5C251.8,-408.5 259.09,-425.95 283.97,-429.77"/>
<polygon fill="salmon" stroke="salmon" stroke-width="2" points="283.77,-433.26 294,-430.5 284.28,-426.28 283.77,-433.26"/>
</g>
<!-- ugen_4&#45;&gt;ugen_7 -->
<g id="edge10" class="edge">
<title>ugen_4:e&#45;&gt;ugen_7:w</title>
<path fill="none" stroke="steelblue" stroke-width="2" d="M454,-447.5C486.89,-447.5 489.25,-415.21 515.94,-408.65"/>
<polygon fill="steelblue" stroke="steelblue" stroke-width="2" points="516.46,-412.12 526,-407.5 515.67,-405.16 516.46,-412.12"/>
</g>
<!-- ugen_5&#45;&gt;ugen_7 -->
<g id="edge11" class="edge">
<title>ugen_5:e&#45;&gt;ugen_7:w</title>
<path fill="none" stroke="salmon" stroke-width="2" d="M422,-190.5C496.22,-190.5 452.7,-318.59 515.88,-330.6"/>
<polygon fill="salmon" stroke="salmon" stroke-width="2" points="515.73,-334.1 526,-331.5 516.35,-327.13 515.73,-334.1"/>
</g>
<!-- ugen_6&#45;&gt;ugen_7 -->
<g id="edge12" class="edge">
<title>ugen_6:e&#45;&gt;ugen_7:w</title>
<path fill="none" stroke="salmon" stroke-width="2" d="M422,-311.5C468.09,-311.5 475.41,-346.79 515.9,-351.89"/>
<polygon fill="salmon" stroke="salmon" stroke-width="2" points="515.81,-355.39 526,-352.5 516.23,-348.4 515.81,-355.39"/>
</g>
<!-- ugen_7&#45;&gt;ugen_10 -->
<g id="edge13" class="edge">
<title>ugen_7:e&#45;&gt;ugen_10:w</title>
<path fill="none" stroke="steelblue" stroke-width="2" d="M686,-369.5C718.89,-369.5 721.25,-337.21 747.94,-330.65"/>
<polygon fill="steelblue" stroke="steelblue" stroke-width="2" points="748.46,-334.12 758,-329.5 747.67,-327.16 748.46,-334.12"/>
</g>
<!-- ugen_8&#45;&gt;ugen_10 -->
<g id="edge14" class="edge">
<title>ugen_8:e&#45;&gt;ugen_10:w</title>
<path fill="none" stroke="salmon" stroke-width="2" d="M654,-112.5C728.22,-112.5 684.7,-240.59 747.88,-252.6"/>
<polygon fill="salmon" stroke="salmon" stroke-width="2" points="747.73,-256.1 758,-253.5 748.35,-249.13 747.73,-256.1"/>
</g>
<!-- ugen_9&#45;&gt;ugen_10 -->
<g id="edge15" class="edge">
<title>ugen_9:e&#45;&gt;ugen_10:w</title>
<path fill="none" stroke="salmon" stroke-width="2" d="M654,-233.5C700.09,-233.5 707.41,-268.79 747.9,-273.89"/>
<polygon fill="salmon" stroke="salmon" stroke-width="2" points="747.81,-277.39 758,-274.5 748.23,-270.4 747.81,-277.39"/>
</g>
<!-- ugen_0 -->
<g id="node1" class="node">
<title>ugen_0</title>
<path fill="#ee9572" stroke="black" stroke-width="2" d="M12,-525.5C12,-525.5 44,-525.5 44,-525.5 50,-525.5 56,-531.5 56,-537.5 56,-537.5 56,-581.5 56,-581.5 56,-587.5 50,-593.5 44,-593.5 44,-593.5 12,-593.5 12,-593.5 6,-593.5 0,-587.5 0,-581.5 0,-581.5 0,-537.5 0,-537.5 0,-531.5 6,-525.5 12,-525.5"/>
<text text-anchor="middle" x="28" y="-579.9" font-family="Arial" font-size="12.00">Control</text>
<text text-anchor="middle" x="28" y="-566.9" font-family="Arial" font-size="12.00">(scalar)</text>
<polyline fill="none" stroke="black" stroke-width="2" points="0,-559.5 56,-559.5 "/>
<text text-anchor="middle" x="28" y="-545.9" font-family="Arial" font-size="12.00">out:</text>
<text text-anchor="middle" x="28" y="-532.9" font-family="Arial" font-size="12.00">0.0</text>
</g>
<!-- ugen_1 -->
<g id="node2" class="node">
<title>ugen_1</title>
<path fill="#bcd2ee" stroke="black" stroke-width="2" d="M157.5,-496C157.5,-496 192.5,-496 192.5,-496 198.5,-496 204.5,-502 204.5,-508 204.5,-508 204.5,-539 204.5,-539 204.5,-545 198.5,-551 192.5,-551 192.5,-551 157.5,-551 157.5,-551 151.5,-551 145.5,-545 145.5,-539 145.5,-539 145.5,-508 145.5,-508 145.5,-502 151.5,-496 157.5,-496"/>
<text text-anchor="middle" x="175" y="-537.4" font-family="Arial" font-size="12.00">In</text>
<text text-anchor="middle" x="175" y="-524.4" font-family="Arial" font-size="12.00">(audio)</text>
<polyline fill="none" stroke="black" stroke-width="2" points="145.5,-517 204.5,-517 "/>
<text text-anchor="middle" x="163.5" y="-503.4" font-family="Arial" font-size="12.00">bus</text>
<polyline fill="none" stroke="black" stroke-width="2" points="181.5,-496 181.5,-517 "/>
<text text-anchor="middle" x="193" y="-503.4" font-family="Arial" font-size="12.00">0</text>
</g>
<!-- ugen_10 -->
<g id="node3" class="node">
<title>ugen_10</title>
<path fill="#bcd2ee" stroke="black" stroke-width="2" d="M770,-243C770,-243 906,-243 906,-243 912,-243 918,-249 918,-255 918,-255 918,-362 918,-362 918,-368 912,-374 906,-374 906,-374 770,-374 770,-374 764,-374 758,-368 758,-362 758,-362 758,-255 758,-255 758,-249 764,-243 770,-243"/>
<text text-anchor="middle" x="838" y="-360.4" font-family="Arial" font-size="12.00">AllpassC</text>
<text text-anchor="middle" x="838" y="-347.4" font-family="Arial" font-size="12.00">(audio)</text>
<polyline fill="none" stroke="black" stroke-width="2" points="758,-340 918,-340 "/>
<text text-anchor="middle" x="826.5" y="-326.4" font-family="Arial" font-size="12.00">source</text>
<polyline fill="none" stroke="black" stroke-width="2" points="758,-319 895,-319 "/>
<text text-anchor="middle" x="826.5" y="-305.4" font-family="Arial" font-size="12.00">maximum_delay_time:</text>
<text text-anchor="middle" x="826.5" y="-292.4" font-family="Arial" font-size="12.00">0.1</text>
<polyline fill="none" stroke="black" stroke-width="2" points="758,-285 895,-285 "/>
<text text-anchor="middle" x="826.5" y="-271.4" font-family="Arial" font-size="12.00">delay_time</text>
<polyline fill="none" stroke="black" stroke-width="2" points="758,-264 895,-264 "/>
<text text-anchor="middle" x="826.5" y="-250.4" font-family="Arial" font-size="12.00">decay_time</text>
<polyline fill="none" stroke="black" stroke-width="2" points="895,-243 895,-340 "/>
<text text-anchor="middle" x="906.5" y="-288.4" font-family="Arial" font-size="12.00">0</text>
</g>
<!-- ugen_11 -->
<g id="node4" class="node">
<title>ugen_11</title>
<path fill="#ee9572" stroke="black" stroke-width="2" d="M803,-0.5C803,-0.5 873,-0.5 873,-0.5 879,-0.5 885,-6.5 885,-12.5 885,-12.5 885,-90.5 885,-90.5 885,-96.5 879,-102.5 873,-102.5 873,-102.5 803,-102.5 803,-102.5 797,-102.5 791,-96.5 791,-90.5 791,-90.5 791,-12.5 791,-12.5 791,-6.5 797,-0.5 803,-0.5"/>
<text text-anchor="middle" x="838" y="-88.9" font-family="Arial" font-size="12.00">ExpRand</text>
<text text-anchor="middle" x="838" y="-75.9" font-family="Arial" font-size="12.00">(scalar)</text>
<polyline fill="none" stroke="black" stroke-width="2" points="791,-68.5 885,-68.5 "/>
<text text-anchor="middle" x="826.5" y="-54.9" font-family="Arial" font-size="12.00">minimum:</text>
<text text-anchor="middle" x="826.5" y="-41.9" font-family="Arial" font-size="12.00">0.01</text>
<polyline fill="none" stroke="black" stroke-width="2" points="791,-34.5 862,-34.5 "/>
<text text-anchor="middle" x="826.5" y="-20.9" font-family="Arial" font-size="12.00">maximum:</text>
<text text-anchor="middle" x="826.5" y="-7.9" font-family="Arial" font-size="12.00">0.1</text>
<polyline fill="none" stroke="black" stroke-width="2" points="862,-0.5 862,-68.5 "/>
<text text-anchor="middle" x="873.5" y="-31.4" font-family="Arial" font-size="12.00">0</text>
</g>
<!-- ugen_12 -->
<g id="node5" class="node">
<title>ugen_12</title>
<path fill="#ee9572" stroke="black" stroke-width="2" d="M803,-121.5C803,-121.5 873,-121.5 873,-121.5 879,-121.5 885,-127.5 885,-133.5 885,-133.5 885,-211.5 885,-211.5 885,-217.5 879,-223.5 873,-223.5 873,-223.5 803,-223.5 803,-223.5 797,-223.5 791,-217.5 791,-211.5 791,-211.5 791,-133.5 791,-133.5 791,-127.5 797,-121.5 803,-121.5"/>
<text text-anchor="middle" x="838" y="-209.9" font-family="Arial" font-size="12.00">ExpRand</text>
<text text-anchor="middle" x="838" y="-196.9" font-family="Arial" font-size="12.00">(scalar)</text>
<polyline fill="none" stroke="black" stroke-width="2" points="791,-189.5 885,-189.5 "/>
<text text-anchor="middle" x="826.5" y="-175.9" font-family="Arial" font-size="12.00">minimum:</text>
<text text-anchor="middle" x="826.5" y="-162.9" font-family="Arial" font-size="12.00">0.01</text>
<polyline fill="none" stroke="black" stroke-width="2" points="791,-155.5 862,-155.5 "/>
<text text-anchor="middle" x="826.5" y="-141.9" font-family="Arial" font-size="12.00">maximum:</text>
<text text-anchor="middle" x="826.5" y="-128.9" font-family="Arial" font-size="12.00">0.1</text>
<polyline fill="none" stroke="black" stroke-width="2" points="862,-121.5 862,-189.5 "/>
<text text-anchor="middle" x="873.5" y="-152.4" font-family="Arial" font-size="12.00">0</text>
</g>
<!-- ugen_13 -->
<g id="node6" class="node">
<title>ugen_13</title>
<path fill="#bcd2ee" stroke="black" stroke-width="2" d="M1002,-164C1002,-164 1138,-164 1138,-164 1144,-164 1150,-170 1150,-176 1150,-176 1150,-283 1150,-283 1150,-289 1144,-295 1138,-295 1138,-295 1002,-295 1002,-295 996,-295 990,-289 990,-283 990,-283 990,-176 990,-176 990,-170 996,-164 1002,-164"/>
<text text-anchor="middle" x="1070" y="-281.4" font-family="Arial" font-size="12.00">AllpassC</text>
<text text-anchor="middle" x="1070" y="-268.4" font-family="Arial" font-size="12.00">(audio)</text>
<polyline fill="none" stroke="black" stroke-width="2" points="990,-261 1150,-261 "/>
<text text-anchor="middle" x="1058.5" y="-247.4" font-family="Arial" font-size="12.00">source</text>
<polyline fill="none" stroke="black" stroke-width="2" points="990,-240 1127,-240 "/>
<text text-anchor="middle" x="1058.5" y="-226.4" font-family="Arial" font-size="12.00">maximum_delay_time:</text>
<text text-anchor="middle" x="1058.5" y="-213.4" font-family="Arial" font-size="12.00">0.1</text>
<polyline fill="none" stroke="black" stroke-width="2" points="990,-206 1127,-206 "/>
<text text-anchor="middle" x="1058.5" y="-192.4" font-family="Arial" font-size="12.00">delay_time</text>
<polyline fill="none" stroke="black" stroke-width="2" points="990,-185 1127,-185 "/>
<text text-anchor="middle" x="1058.5" y="-171.4" font-family="Arial" font-size="12.00">decay_time</text>
<polyline fill="none" stroke="black" stroke-width="2" points="1127,-164 1127,-261 "/>
<text text-anchor="middle" x="1138.5" y="-209.4" font-family="Arial" font-size="12.00">0</text>
</g>
<!-- ugen_14 -->
<g id="node7" class="node">
<title>ugen_14</title>
<path fill="#bcd2ee" stroke="black" stroke-width="2" d="M1234,-355.5C1234,-355.5 1275,-355.5 1275,-355.5 1281,-355.5 1287,-361.5 1287,-367.5 1287,-367.5 1287,-419.5 1287,-419.5 1287,-425.5 1281,-431.5 1275,-431.5 1275,-431.5 1234,-431.5 1234,-431.5 1228,-431.5 1222,-425.5 1222,-419.5 1222,-419.5 1222,-367.5 1222,-367.5 1222,-361.5 1228,-355.5 1234,-355.5"/>
<text text-anchor="middle" x="1254.5" y="-417.9" font-family="Arial" font-size="12.00">Out</text>
<text text-anchor="middle" x="1254.5" y="-404.9" font-family="Arial" font-size="12.00">(audio)</text>
<polyline fill="none" stroke="black" stroke-width="2" points="1222,-397.5 1287,-397.5 "/>
<text text-anchor="middle" x="1254.5" y="-383.9" font-family="Arial" font-size="12.00">bus</text>
<polyline fill="none" stroke="black" stroke-width="2" points="1222,-376.5 1287,-376.5 "/>
<text text-anchor="middle" x="1254.5" y="-362.9" font-family="Arial" font-size="12.00">source[0]</text>
</g>
<!-- ugen_2 -->
<g id="node8" class="node">
<title>ugen_2</title>
<path fill="#ee9572" stroke="black" stroke-width="2" d="M140,-253.5C140,-253.5 210,-253.5 210,-253.5 216,-253.5 222,-259.5 222,-265.5 222,-265.5 222,-343.5 222,-343.5 222,-349.5 216,-355.5 210,-355.5 210,-355.5 140,-355.5 140,-355.5 134,-355.5 128,-349.5 128,-343.5 128,-343.5 128,-265.5 128,-265.5 128,-259.5 134,-253.5 140,-253.5"/>
<text text-anchor="middle" x="175" y="-341.9" font-family="Arial" font-size="12.00">ExpRand</text>
<text text-anchor="middle" x="175" y="-328.9" font-family="Arial" font-size="12.00">(scalar)</text>
<polyline fill="none" stroke="black" stroke-width="2" points="128,-321.5 222,-321.5 "/>
<text text-anchor="middle" x="163.5" y="-307.9" font-family="Arial" font-size="12.00">minimum:</text>
<text text-anchor="middle" x="163.5" y="-294.9" font-family="Arial" font-size="12.00">0.01</text>
<polyline fill="none" stroke="black" stroke-width="2" points="128,-287.5 199,-287.5 "/>
<text text-anchor="middle" x="163.5" y="-273.9" font-family="Arial" font-size="12.00">maximum:</text>
<text text-anchor="middle" x="163.5" y="-260.9" font-family="Arial" font-size="12.00">0.1</text>
<polyline fill="none" stroke="black" stroke-width="2" points="199,-253.5 199,-321.5 "/>
<text text-anchor="middle" x="210.5" y="-284.4" font-family="Arial" font-size="12.00">0</text>
</g>
<!-- ugen_3 -->
<g id="node9" class="node">
<title>ugen_3</title>
<path fill="#ee9572" stroke="black" stroke-width="2" d="M140,-374.5C140,-374.5 210,-374.5 210,-374.5 216,-374.5 222,-380.5 222,-386.5 222,-386.5 222,-464.5 222,-464.5 222,-470.5 216,-476.5 210,-476.5 210,-476.5 140,-476.5 140,-476.5 134,-476.5 128,-470.5 128,-464.5 128,-464.5 128,-386.5 128,-386.5 128,-380.5 134,-374.5 140,-374.5"/>
<text text-anchor="middle" x="175" y="-462.9" font-family="Arial" font-size="12.00">ExpRand</text>
<text text-anchor="middle" x="175" y="-449.9" font-family="Arial" font-size="12.00">(scalar)</text>
<polyline fill="none" stroke="black" stroke-width="2" points="128,-442.5 222,-442.5 "/>
<text text-anchor="middle" x="163.5" y="-428.9" font-family="Arial" font-size="12.00">minimum:</text>
<text text-anchor="middle" x="163.5" y="-415.9" font-family="Arial" font-size="12.00">0.01</text>
<polyline fill="none" stroke="black" stroke-width="2" points="128,-408.5 199,-408.5 "/>
<text text-anchor="middle" x="163.5" y="-394.9" font-family="Arial" font-size="12.00">maximum:</text>
<text text-anchor="middle" x="163.5" y="-381.9" font-family="Arial" font-size="12.00">0.1</text>
<polyline fill="none" stroke="black" stroke-width="2" points="199,-374.5 199,-442.5 "/>
<text text-anchor="middle" x="210.5" y="-405.4" font-family="Arial" font-size="12.00">0</text>
</g>
<!-- ugen_4 -->
<g id="node10" class="node">
<title>ugen_4</title>
<path fill="#bcd2ee" stroke="black" stroke-width="2" d="M306,-399C306,-399 442,-399 442,-399 448,-399 454,-405 454,-411 454,-411 454,-518 454,-518 454,-524 448,-530 442,-530 442,-530 306,-530 306,-530 300,-530 294,-524 294,-518 294,-518 294,-411 294,-411 294,-405 300,-399 306,-399"/>
<text text-anchor="middle" x="374" y="-516.4" font-family="Arial" font-size="12.00">AllpassC</text>
<text text-anchor="middle" x="374" y="-503.4" font-family="Arial" font-size="12.00">(audio)</text>
<polyline fill="none" stroke="black" stroke-width="2" points="294,-496 454,-496 "/>
<text text-anchor="middle" x="362.5" y="-482.4" font-family="Arial" font-size="12.00">source</text>
<polyline fill="none" stroke="black" stroke-width="2" points="294,-475 431,-475 "/>
<text text-anchor="middle" x="362.5" y="-461.4" font-family="Arial" font-size="12.00">maximum_delay_time:</text>
<text text-anchor="middle" x="362.5" y="-448.4" font-family="Arial" font-size="12.00">0.1</text>
<polyline fill="none" stroke="black" stroke-width="2" points="294,-441 431,-441 "/>
<text text-anchor="middle" x="362.5" y="-427.4" font-family="Arial" font-size="12.00">delay_time</text>
<polyline fill="none" stroke="black" stroke-width="2" points="294,-420 431,-420 "/>
<text text-anchor="middle" x="362.5" y="-406.4" font-family="Arial" font-size="12.00">decay_time</text>
<polyline fill="none" stroke="black" stroke-width="2" points="431,-399 431,-496 "/>
<text text-anchor="middle" x="442.5" y="-444.4" font-family="Arial" font-size="12.00">0</text>
</g>
<!-- ugen_5 -->
<g id="node11" class="node">
<title>ugen_5</title>
<path fill="#ee9572" stroke="black" stroke-width="2" d="M339,-156.5C339,-156.5 409,-156.5 409,-156.5 415,-156.5 421,-162.5 421,-168.5 421,-168.5 421,-246.5 421,-246.5 421,-252.5 415,-258.5 409,-258.5 409,-258.5 339,-258.5 339,-258.5 333,-258.5 327,-252.5 327,-246.5 327,-246.5 327,-168.5 327,-168.5 327,-162.5 333,-156.5 339,-156.5"/>
<text text-anchor="middle" x="374" y="-244.9" font-family="Arial" font-size="12.00">ExpRand</text>
<text text-anchor="middle" x="374" y="-231.9" font-family="Arial" font-size="12.00">(scalar)</text>
<polyline fill="none" stroke="black" stroke-width="2" points="327,-224.5 421,-224.5 "/>
<text text-anchor="middle" x="362.5" y="-210.9" font-family="Arial" font-size="12.00">minimum:</text>
<text text-anchor="middle" x="362.5" y="-197.9" font-family="Arial" font-size="12.00">0.01</text>
<polyline fill="none" stroke="black" stroke-width="2" points="327,-190.5 398,-190.5 "/>
<text text-anchor="middle" x="362.5" y="-176.9" font-family="Arial" font-size="12.00">maximum:</text>
<text text-anchor="middle" x="362.5" y="-163.9" font-family="Arial" font-size="12.00">0.1</text>
<polyline fill="none" stroke="black" stroke-width="2" points="398,-156.5 398,-224.5 "/>
<text text-anchor="middle" x="409.5" y="-187.4" font-family="Arial" font-size="12.00">0</text>
</g>
<!-- ugen_6 -->
<g id="node12" class="node">
<title>ugen_6</title>
<path fill="#ee9572" stroke="black" stroke-width="2" d="M339,-277.5C339,-277.5 409,-277.5 409,-277.5 415,-277.5 421,-283.5 421,-289.5 421,-289.5 421,-367.5 421,-367.5 421,-373.5 415,-379.5 409,-379.5 409,-379.5 339,-379.5 339,-379.5 333,-379.5 327,-373.5 327,-367.5 327,-367.5 327,-289.5 327,-289.5 327,-283.5 333,-277.5 339,-277.5"/>
<text text-anchor="middle" x="374" y="-365.9" font-family="Arial" font-size="12.00">ExpRand</text>
<text text-anchor="middle" x="374" y="-352.9" font-family="Arial" font-size="12.00">(scalar)</text>
<polyline fill="none" stroke="black" stroke-width="2" points="327,-345.5 421,-345.5 "/>
<text text-anchor="middle" x="362.5" y="-331.9" font-family="Arial" font-size="12.00">minimum:</text>
<text text-anchor="middle" x="362.5" y="-318.9" font-family="Arial" font-size="12.00">0.01</text>
<polyline fill="none" stroke="black" stroke-width="2" points="327,-311.5 398,-311.5 "/>
<text text-anchor="middle" x="362.5" y="-297.9" font-family="Arial" font-size="12.00">maximum:</text>
<text text-anchor="middle" x="362.5" y="-284.9" font-family="Arial" font-size="12.00">0.1</text>
<polyline fill="none" stroke="black" stroke-width="2" points="398,-277.5 398,-345.5 "/>
<text text-anchor="middle" x="409.5" y="-308.4" font-family="Arial" font-size="12.00">0</text>
</g>
<!-- ugen_7 -->
<g id="node13" class="node">
<title>ugen_7</title>
<path fill="#bcd2ee" stroke="black" stroke-width="2" d="M538,-321C538,-321 674,-321 674,-321 680,-321 686,-327 686,-333 686,-333 686,-440 686,-440 686,-446 680,-452 674,-452 674,-452 538,-452 538,-452 532,-452 526,-446 526,-440 526,-440 526,-333 526,-333 526,-327 532,-321 538,-321"/>
<text text-anchor="middle" x="606" y="-438.4" font-family="Arial" font-size="12.00">AllpassC</text>
<text text-anchor="middle" x="606" y="-425.4" font-family="Arial" font-size="12.00">(audio)</text>
<polyline fill="none" stroke="black" stroke-width="2" points="526,-418 686,-418 "/>
<text text-anchor="middle" x="594.5" y="-404.4" font-family="Arial" font-size="12.00">source</text>
<polyline fill="none" stroke="black" stroke-width="2" points="526,-397 663,-397 "/>
<text text-anchor="middle" x="594.5" y="-383.4" font-family="Arial" font-size="12.00">maximum_delay_time:</text>
<text text-anchor="middle" x="594.5" y="-370.4" font-family="Arial" font-size="12.00">0.1</text>
<polyline fill="none" stroke="black" stroke-width="2" points="526,-363 663,-363 "/>
<text text-anchor="middle" x="594.5" y="-349.4" font-family="Arial" font-size="12.00">delay_time</text>
<polyline fill="none" stroke="black" stroke-width="2" points="526,-342 663,-342 "/>
<text text-anchor="middle" x="594.5" y="-328.4" font-family="Arial" font-size="12.00">decay_time</text>
<polyline fill="none" stroke="black" stroke-width="2" points="663,-321 663,-418 "/>
<text text-anchor="middle" x="674.5" y="-366.4" font-family="Arial" font-size="12.00">0</text>
</g>
<!-- ugen_8 -->
<g id="node14" class="node">
<title>ugen_8</title>
<path fill="#ee9572" stroke="black" stroke-width="2" d="M571,-78.5C571,-78.5 641,-78.5 641,-78.5 647,-78.5 653,-84.5 653,-90.5 653,-90.5 653,-168.5 653,-168.5 653,-174.5 647,-180.5 641,-180.5 641,-180.5 571,-180.5 571,-180.5 565,-180.5 559,-174.5 559,-168.5 559,-168.5 559,-90.5 559,-90.5 559,-84.5 565,-78.5 571,-78.5"/>
<text text-anchor="middle" x="606" y="-166.9" font-family="Arial" font-size="12.00">ExpRand</text>
<text text-anchor="middle" x="606" y="-153.9" font-family="Arial" font-size="12.00">(scalar)</text>
<polyline fill="none" stroke="black" stroke-width="2" points="559,-146.5 653,-146.5 "/>
<text text-anchor="middle" x="594.5" y="-132.9" font-family="Arial" font-size="12.00">minimum:</text>
<text text-anchor="middle" x="594.5" y="-119.9" font-family="Arial" font-size="12.00">0.01</text>
<polyline fill="none" stroke="black" stroke-width="2" points="559,-112.5 630,-112.5 "/>
<text text-anchor="middle" x="594.5" y="-98.9" font-family="Arial" font-size="12.00">maximum:</text>
<text text-anchor="middle" x="594.5" y="-85.9" font-family="Arial" font-size="12.00">0.1</text>
<polyline fill="none" stroke="black" stroke-width="2" points="630,-78.5 630,-146.5 "/>
<text text-anchor="middle" x="641.5" y="-109.4" font-family="Arial" font-size="12.00">0</text>
</g>
<!-- ugen_9 -->
<g id="node15" class="node">
<title>ugen_9</title>
<path fill="#ee9572" stroke="black" stroke-width="2" d="M571,-199.5C571,-199.5 641,-199.5 641,-199.5 647,-199.5 653,-205.5 653,-211.5 653,-211.5 653,-289.5 653,-289.5 653,-295.5 647,-301.5 641,-301.5 641,-301.5 571,-301.5 571,-301.5 565,-301.5 559,-295.5 559,-289.5 559,-289.5 559,-211.5 559,-211.5 559,-205.5 565,-199.5 571,-199.5"/>
<text text-anchor="middle" x="606" y="-287.9" font-family="Arial" font-size="12.00">ExpRand</text>
<text text-anchor="middle" x="606" y="-274.9" font-family="Arial" font-size="12.00">(scalar)</text>
<polyline fill="none" stroke="black" stroke-width="2" points="559,-267.5 653,-267.5 "/>
<text text-anchor="middle" x="594.5" y="-253.9" font-family="Arial" font-size="12.00">minimum:</text>
<text text-anchor="middle" x="594.5" y="-240.9" font-family="Arial" font-size="12.00">0.01</text>
<polyline fill="none" stroke="black" stroke-width="2" points="559,-233.5 630,-233.5 "/>
<text text-anchor="middle" x="594.5" y="-219.9" font-family="Arial" font-size="12.00">maximum:</text>
<text text-anchor="middle" x="594.5" y="-206.9" font-family="Arial" font-size="12.00">0.1</text>
<polyline fill="none" stroke="black" stroke-width="2" points="630,-199.5 630,-267.5 "/>
<text text-anchor="middle" x="641.5" y="-230.4" font-family="Arial" font-size="12.00">0</text>
</g>
</g>
</svg>
