<?xml version="1.0" encoding="UTF-8" standalone="no"?>
<!DOCTYPE svg PUBLIC "-//W3C//DTD SVG 1.1//EN"
 "http://www.w3.org/Graphics/SVG/1.1/DTD/svg11.dtd">
<!-- Generated by graphviz version 2.43.0 (0)
 -->
<!-- Title: synthdef_808f0f1b0185316fb2437bbe6d142f4e Pages: 1 -->
<svg width="831pt" height="430pt"
 viewBox="0.00 0.00 831.00 429.93" xmlns="http://www.w3.org/2000/svg" xmlns:xlink="http://www.w3.org/1999/xlink">
<g id="graph0" class="graph" transform="scale(1 1) rotate(0) translate(4 425.93)">
<title>synthdef_808f0f1b0185316fb2437bbe6d142f4e</title>
<!-- ugen_0&#45;&gt;ugen_1 -->
<g id="edge1" class="edge">
<title>ugen_0:e&#45;&gt;ugen_1:w</title>
<path fill="none" stroke="salmon" stroke-width="2" d="M56,-193.93C142.55,-193.93 61.03,-362.23 133.79,-376.03"/>
<polygon fill="salmon" stroke="salmon" stroke-width="2" points="133.73,-379.54 144,-376.93 134.35,-372.57 133.73,-379.54"/>
</g>
<!-- ugen_0&#45;&gt;ugen_8 -->
<g id="edge2" class="edge">
<title>ugen_0:e&#45;&gt;ugen_8:w</title>
<path fill="none" stroke="salmon" stroke-width="2" d="M56,-159.93C93.97,-159.93 95.6,-133.74 128,-113.93 200.91,-69.36 211.52,-39.26 294,-16.93 490.55,36.29 549,-55.78 747.81,-58.85"/>
<polygon fill="salmon" stroke="salmon" stroke-width="2" points="747.97,-62.35 758,-58.93 748.03,-55.35 747.97,-62.35"/>
</g>
<!-- ugen_1&#45;&gt;ugen_4 -->
<g id="edge3" class="edge">
<title>ugen_1:e&#45;&gt;ugen_4:w</title>
<path fill="none" stroke="steelblue" stroke-width="2" d="M206,-376.93C242.6,-376.93 252.17,-359.53 283.91,-356.41"/>
<polygon fill="steelblue" stroke="steelblue" stroke-width="2" points="284.18,-359.9 294,-355.93 283.85,-352.91 284.18,-359.9"/>
</g>
<!-- ugen_2&#45;&gt;ugen_4 -->
<g id="edge4" class="edge">
<title>ugen_2:e&#45;&gt;ugen_4:w</title>
<path fill="none" stroke="salmon" stroke-width="2" d="M222,-157.93C281.15,-157.93 237.14,-265.6 283.8,-278.64"/>
<polygon fill="salmon" stroke="salmon" stroke-width="2" points="283.64,-282.15 294,-279.93 284.52,-275.21 283.64,-282.15"/>
</g>
<!-- ugen_3&#45;&gt;ugen_4 -->
<g id="edge5" class="edge">
<title>ugen_3:e&#45;&gt;ugen_4:w</title>
<path fill="none" stroke="salmon" stroke-width="2" d="M222,-278.93C251.8,-278.93 259.09,-296.38 283.97,-300.2"/>
<polygon fill="salmon" stroke="salmon" stroke-width="2" points="283.77,-303.69 294,-300.93 284.28,-296.71 283.77,-303.69"/>
</g>
<!-- ugen_4&#45;&gt;ugen_7 -->
<g id="edge6" class="edge">
<title>ugen_4:e&#45;&gt;ugen_7:w</title>
<path fill="none" stroke="steelblue" stroke-width="2" d="M454,-317.93C516.67,-317.93 466.05,-201.35 515.89,-188.14"/>
<polygon fill="steelblue" stroke="steelblue" stroke-width="2" points="516.49,-191.6 526,-186.93 515.65,-184.65 516.49,-191.6"/>
</g>
<!-- ugen_5&#45;&gt;ugen_7 -->
<g id="edge7" class="edge">
<title>ugen_5:e&#45;&gt;ugen_7:w</title>
<path fill="none" stroke="salmon" stroke-width="2" d="M422,-60.93C469.68,-60.93 474.27,-104.15 515.89,-110.22"/>
<polygon fill="salmon" stroke="salmon" stroke-width="2" points="515.78,-113.72 526,-110.93 516.27,-106.74 515.78,-113.72"/>
</g>
<!-- ugen_6&#45;&gt;ugen_7 -->
<g id="edge8" class="edge">
<title>ugen_6:e&#45;&gt;ugen_7:w</title>
<path fill="none" stroke="salmon" stroke-width="2" d="M422,-181.93C469.68,-181.93 474.27,-138.71 515.89,-132.64"/>
<polygon fill="salmon" stroke="salmon" stroke-width="2" points="516.27,-136.12 526,-131.93 515.78,-129.14 516.27,-136.12"/>
</g>
<!-- ugen_7&#45;&gt;ugen_8 -->
<g id="edge9" class="edge">
<title>ugen_7:e&#45;&gt;ugen_8:w</title>
<path fill="none" stroke="steelblue" stroke-width="2" d="M686,-148.93C741.01,-148.93 704.64,-51.78 747.88,-39.25"/>
<polygon fill="steelblue" stroke="steelblue" stroke-width="2" points="748.54,-42.7 758,-37.93 747.63,-35.76 748.54,-42.7"/>
</g>
<!-- ugen_0 -->
<g id="node1" class="node">
<title>ugen_0</title>
<path fill="#ee9572" stroke="black" stroke-width="2" d="M12,-142.93C12,-142.93 44,-142.93 44,-142.93 50,-142.93 56,-148.93 56,-154.93 56,-154.93 56,-232.93 56,-232.93 56,-238.93 50,-244.93 44,-244.93 44,-244.93 12,-244.93 12,-244.93 6,-244.93 0,-238.93 0,-232.93 0,-232.93 0,-154.93 0,-154.93 0,-148.93 6,-142.93 12,-142.93"/>
<text text-anchor="middle" x="28" y="-231.33" font-family="Arial" font-size="12.00">Control</text>
<text text-anchor="middle" x="28" y="-218.33" font-family="Arial" font-size="12.00">(scalar)</text>
<polyline fill="none" stroke="black" stroke-width="2" points="0,-210.93 56,-210.93 "/>
<text text-anchor="middle" x="28" y="-197.33" font-family="Arial" font-size="12.00">in_:</text>
<text text-anchor="middle" x="28" y="-184.33" font-family="Arial" font-size="12.00">0.0</text>
<polyline fill="none" stroke="black" stroke-width="2" points="0,-176.93 56,-176.93 "/>
<text text-anchor="middle" x="28" y="-163.33" font-family="Arial" font-size="12.00">out:</text>
<text text-anchor="middle" x="28" y="-150.33" font-family="Arial" font-size="12.00">0.0</text>
</g>
<!-- ugen_1 -->
<g id="node2" class="node">
<title>ugen_1</title>
<path fill="#bcd2ee" stroke="black" stroke-width="2" d="M157.5,-366.43C157.5,-366.43 192.5,-366.43 192.5,-366.43 198.5,-366.43 204.5,-372.43 204.5,-378.43 204.5,-378.43 204.5,-409.43 204.5,-409.43 204.5,-415.43 198.5,-421.43 192.5,-421.43 192.5,-421.43 157.5,-421.43 157.5,-421.43 151.5,-421.43 145.5,-415.43 145.5,-409.43 145.5,-409.43 145.5,-378.43 145.5,-378.43 145.5,-372.43 151.5,-366.43 157.5,-366.43"/>
<text text-anchor="middle" x="175" y="-407.83" font-family="Arial" font-size="12.00">In</text>
<text text-anchor="middle" x="175" y="-394.83" font-family="Arial" font-size="12.00">(audio)</text>
<polyline fill="none" stroke="black" stroke-width="2" points="145.5,-387.43 204.5,-387.43 "/>
<text text-anchor="middle" x="163.5" y="-373.83" font-family="Arial" font-size="12.00">bus</text>
<polyline fill="none" stroke="black" stroke-width="2" points="181.5,-366.43 181.5,-387.43 "/>
<text text-anchor="middle" x="193" y="-373.83" font-family="Arial" font-size="12.00">0</text>
</g>
<!-- ugen_2 -->
<g id="node3" class="node">
<title>ugen_2</title>
<path fill="#ee9572" stroke="black" stroke-width="2" d="M140,-123.93C140,-123.93 210,-123.93 210,-123.93 216,-123.93 222,-129.93 222,-135.93 222,-135.93 222,-213.93 222,-213.93 222,-219.93 216,-225.93 210,-225.93 210,-225.93 140,-225.93 140,-225.93 134,-225.93 128,-219.93 128,-213.93 128,-213.93 128,-135.93 128,-135.93 128,-129.93 134,-123.93 140,-123.93"/>
<text text-anchor="middle" x="175" y="-212.33" font-family="Arial" font-size="12.00">ExpRand</text>
<text text-anchor="middle" x="175" y="-199.33" font-family="Arial" font-size="12.00">(scalar)</text>
<polyline fill="none" stroke="black" stroke-width="2" points="128,-191.93 222,-191.93 "/>
<text text-anchor="middle" x="163.5" y="-178.33" font-family="Arial" font-size="12.00">minimum:</text>
<text text-anchor="middle" x="163.5" y="-165.33" font-family="Arial" font-size="12.00">0.01</text>
<polyline fill="none" stroke="black" stroke-width="2" points="128,-157.93 199,-157.93 "/>
<text text-anchor="middle" x="163.5" y="-144.33" font-family="Arial" font-size="12.00">maximum:</text>
<text text-anchor="middle" x="163.5" y="-131.33" font-family="Arial" font-size="12.00">0.1</text>
<polyline fill="none" stroke="black" stroke-width="2" points="199,-123.93 199,-191.93 "/>
<text text-anchor="middle" x="210.5" y="-154.83" font-family="Arial" font-size="12.00">0</text>
</g>
<!-- ugen_3 -->
<g id="node4" class="node">
<title>ugen_3</title>
<path fill="#ee9572" stroke="black" stroke-width="2" d="M140,-244.93C140,-244.93 210,-244.93 210,-244.93 216,-244.93 222,-250.93 222,-256.93 222,-256.93 222,-334.93 222,-334.93 222,-340.93 216,-346.93 210,-346.93 210,-346.93 140,-346.93 140,-346.93 134,-346.93 128,-340.93 128,-334.93 128,-334.93 128,-256.93 128,-256.93 128,-250.93 134,-244.93 140,-244.93"/>
<text text-anchor="middle" x="175" y="-333.33" font-family="Arial" font-size="12.00">ExpRand</text>
<text text-anchor="middle" x="175" y="-320.33" font-family="Arial" font-size="12.00">(scalar)</text>
<polyline fill="none" stroke="black" stroke-width="2" points="128,-312.93 222,-312.93 "/>
<text text-anchor="middle" x="163.5" y="-299.33" font-family="Arial" font-size="12.00">minimum:</text>
<text text-anchor="middle" x="163.5" y="-286.33" font-family="Arial" font-size="12.00">0.01</text>
<polyline fill="none" stroke="black" stroke-width="2" points="128,-278.93 199,-278.93 "/>
<text text-anchor="middle" x="163.5" y="-265.33" font-family="Arial" font-size="12.00">maximum:</text>
<text text-anchor="middle" x="163.5" y="-252.33" font-family="Arial" font-size="12.00">0.1</text>
<polyline fill="none" stroke="black" stroke-width="2" points="199,-244.93 199,-312.93 "/>
<text text-anchor="middle" x="210.5" y="-275.83" font-family="Arial" font-size="12.00">0</text>
</g>
<!-- ugen_4 -->
<g id="node5" class="node">
<title>ugen_4</title>
<path fill="#bcd2ee" stroke="black" stroke-width="2" d="M306,-269.43C306,-269.43 442,-269.43 442,-269.43 448,-269.43 454,-275.43 454,-281.43 454,-281.43 454,-388.43 454,-388.43 454,-394.43 448,-400.43 442,-400.43 442,-400.43 306,-400.43 306,-400.43 300,-400.43 294,-394.43 294,-388.43 294,-388.43 294,-281.43 294,-281.43 294,-275.43 300,-269.43 306,-269.43"/>
<text text-anchor="middle" x="374" y="-386.83" font-family="Arial" font-size="12.00">AllpassC</text>
<text text-anchor="middle" x="374" y="-373.83" font-family="Arial" font-size="12.00">(audio)</text>
<polyline fill="none" stroke="black" stroke-width="2" points="294,-366.43 454,-366.43 "/>
<text text-anchor="middle" x="362.5" y="-352.83" font-family="Arial" font-size="12.00">source</text>
<polyline fill="none" stroke="black" stroke-width="2" points="294,-345.43 431,-345.43 "/>
<text text-anchor="middle" x="362.5" y="-331.83" font-family="Arial" font-size="12.00">maximum_delay_time:</text>
<text text-anchor="middle" x="362.5" y="-318.83" font-family="Arial" font-size="12.00">0.1</text>
<polyline fill="none" stroke="black" stroke-width="2" points="294,-311.43 431,-311.43 "/>
<text text-anchor="middle" x="362.5" y="-297.83" font-family="Arial" font-size="12.00">delay_time</text>
<polyline fill="none" stroke="black" stroke-width="2" points="294,-290.43 431,-290.43 "/>
<text text-anchor="middle" x="362.5" y="-276.83" font-family="Arial" font-size="12.00">decay_time</text>
<polyline fill="none" stroke="black" stroke-width="2" points="431,-269.43 431,-366.43 "/>
<text text-anchor="middle" x="442.5" y="-314.83" font-family="Arial" font-size="12.00">0</text>
</g>
<!-- ugen_5 -->
<g id="node6" class="node">
<title>ugen_5</title>
<path fill="#ee9572" stroke="black" stroke-width="2" d="M339,-26.93C339,-26.93 409,-26.93 409,-26.93 415,-26.93 421,-32.93 421,-38.93 421,-38.93 421,-116.93 421,-116.93 421,-122.93 415,-128.93 409,-128.93 409,-128.93 339,-128.93 339,-128.93 333,-128.93 327,-122.93 327,-116.93 327,-116.93 327,-38.93 327,-38.93 327,-32.93 333,-26.93 339,-26.93"/>
<text text-anchor="middle" x="374" y="-115.33" font-family="Arial" font-size="12.00">ExpRand</text>
<text text-anchor="middle" x="374" y="-102.33" font-family="Arial" font-size="12.00">(scalar)</text>
<polyline fill="none" stroke="black" stroke-width="2" points="327,-94.93 421,-94.93 "/>
<text text-anchor="middle" x="362.5" y="-81.33" font-family="Arial" font-size="12.00">minimum:</text>
<text text-anchor="middle" x="362.5" y="-68.33" font-family="Arial" font-size="12.00">0.01</text>
<polyline fill="none" stroke="black" stroke-width="2" points="327,-60.93 398,-60.93 "/>
<text text-anchor="middle" x="362.5" y="-47.33" font-family="Arial" font-size="12.00">maximum:</text>
<text text-anchor="middle" x="362.5" y="-34.33" font-family="Arial" font-size="12.00">0.1</text>
<polyline fill="none" stroke="black" stroke-width="2" points="398,-26.93 398,-94.93 "/>
<text text-anchor="middle" x="409.5" y="-57.83" font-family="Arial" font-size="12.00">0</text>
</g>
<!-- ugen_6 -->
<g id="node7" class="node">
<title>ugen_6</title>
<path fill="#ee9572" stroke="black" stroke-width="2" d="M339,-147.93C339,-147.93 409,-147.93 409,-147.93 415,-147.93 421,-153.93 421,-159.93 421,-159.93 421,-237.93 421,-237.93 421,-243.93 415,-249.93 409,-249.93 409,-249.93 339,-249.93 339,-249.93 333,-249.93 327,-243.93 327,-237.93 327,-237.93 327,-159.93 327,-159.93 327,-153.93 333,-147.93 339,-147.93"/>
<text text-anchor="middle" x="374" y="-236.33" font-family="Arial" font-size="12.00">ExpRand</text>
<text text-anchor="middle" x="374" y="-223.33" font-family="Arial" font-size="12.00">(scalar)</text>
<polyline fill="none" stroke="black" stroke-width="2" points="327,-215.93 421,-215.93 "/>
<text text-anchor="middle" x="362.5" y="-202.33" font-family="Arial" font-size="12.00">minimum:</text>
<text text-anchor="middle" x="362.5" y="-189.33" font-family="Arial" font-size="12.00">0.01</text>
<polyline fill="none" stroke="black" stroke-width="2" points="327,-181.93 398,-181.93 "/>
<text text-anchor="middle" x="362.5" y="-168.33" font-family="Arial" font-size="12.00">maximum:</text>
<text text-anchor="middle" x="362.5" y="-155.33" font-family="Arial" font-size="12.00">0.1</text>
<polyline fill="none" stroke="black" stroke-width="2" points="398,-147.93 398,-215.93 "/>
<text text-anchor="middle" x="409.5" y="-178.83" font-family="Arial" font-size="12.00">0</text>
</g>
<!-- ugen_7 -->
<g id="node8" class="node">
<title>ugen_7</title>
<path fill="#bcd2ee" stroke="black" stroke-width="2" d="M538,-100.43C538,-100.43 674,-100.43 674,-100.43 680,-100.43 686,-106.43 686,-112.43 686,-112.43 686,-219.43 686,-219.43 686,-225.43 680,-231.43 674,-231.43 674,-231.43 538,-231.43 538,-231.43 532,-231.43 526,-225.43 526,-219.43 526,-219.43 526,-112.43 526,-112.43 526,-106.43 532,-100.43 538,-100.43"/>
<text text-anchor="middle" x="606" y="-217.83" font-family="Arial" font-size="12.00">AllpassC</text>
<text text-anchor="middle" x="606" y="-204.83" font-family="Arial" font-size="12.00">(audio)</text>
<polyline fill="none" stroke="black" stroke-width="2" points="526,-197.43 686,-197.43 "/>
<text text-anchor="middle" x="594.5" y="-183.83" font-family="Arial" font-size="12.00">source</text>
<polyline fill="none" stroke="black" stroke-width="2" points="526,-176.43 663,-176.43 "/>
<text text-anchor="middle" x="594.5" y="-162.83" font-family="Arial" font-size="12.00">maximum_delay_time:</text>
<text text-anchor="middle" x="594.5" y="-149.83" font-family="Arial" font-size="12.00">0.1</text>
<polyline fill="none" stroke="black" stroke-width="2" points="526,-142.43 663,-142.43 "/>
<text text-anchor="middle" x="594.5" y="-128.83" font-family="Arial" font-size="12.00">delay_time</text>
<polyline fill="none" stroke="black" stroke-width="2" points="526,-121.43 663,-121.43 "/>
<text text-anchor="middle" x="594.5" y="-107.83" font-family="Arial" font-size="12.00">decay_time</text>
<polyline fill="none" stroke="black" stroke-width="2" points="663,-100.43 663,-197.43 "/>
<text text-anchor="middle" x="674.5" y="-145.83" font-family="Arial" font-size="12.00">0</text>
</g>
<!-- ugen_8 -->
<g id="node9" class="node">
<title>ugen_8</title>
<path fill="#bcd2ee" stroke="black" stroke-width="2" d="M770,-27.93C770,-27.93 811,-27.93 811,-27.93 817,-27.93 823,-33.93 823,-39.93 823,-39.93 823,-91.93 823,-91.93 823,-97.93 817,-103.93 811,-103.93 811,-103.93 770,-103.93 770,-103.93 764,-103.93 758,-97.93 758,-91.93 758,-91.93 758,-39.93 758,-39.93 758,-33.93 764,-27.93 770,-27.93"/>
<text text-anchor="middle" x="790.5" y="-90.33" font-family="Arial" font-size="12.00">Out</text>
<text text-anchor="middle" x="790.5" y="-77.33" font-family="Arial" font-size="12.00">(audio)</text>
<polyline fill="none" stroke="black" stroke-width="2" points="758,-69.93 823,-69.93 "/>
<text text-anchor="middle" x="790.5" y="-56.33" font-family="Arial" font-size="12.00">bus</text>
<polyline fill="none" stroke="black" stroke-width="2" points="758,-48.93 823,-48.93 "/>
<text text-anchor="middle" x="790.5" y="-35.33" font-family="Arial" font-size="12.00">source[0]</text>
</g>
</g>
</svg>
