<?xml version="1.0" encoding="UTF-8" standalone="no"?>
<!DOCTYPE svg PUBLIC "-//W3C//DTD SVG 1.1//EN"
 "http://www.w3.org/Graphics/SVG/1.1/DTD/svg11.dtd">
<!-- Generated by graphviz version 2.43.0 (0)
 -->
<!-- Title: synthdef_a6b274b5f30e1dfa86ac1d00ef1c169b Pages: 1 -->
<svg width="348pt" height="186pt"
 viewBox="0.00 0.00 348.00 185.50" xmlns="http://www.w3.org/2000/svg" xmlns:xlink="http://www.w3.org/1999/xlink">
<g id="graph0" class="graph" transform="scale(1 1) rotate(0) translate(4 181.5)">
<title>synthdef_a6b274b5f30e1dfa86ac1d00ef1c169b</title>
<!-- ugen_0&#45;&gt;ugen_2 -->
<g id="edge1" class="edge">
<title>ugen_0:e&#45;&gt;ugen_2:w</title>
<path fill="none" stroke="steelblue" stroke-width="2" d="M95,-109C127.7,-109 130.38,-77.52 156.98,-71.13"/>
<polygon fill="steelblue" stroke="steelblue" stroke-width="2" points="157.45,-74.59 167,-70 156.67,-67.64 157.45,-74.59"/>
</g>
<!-- ugen_1&#45;&gt;ugen_2 -->
<g id="edge2" class="edge">
<title>ugen_1:e&#45;&gt;ugen_2:w</title>
<path fill="none" stroke="goldenrod" stroke-width="2" d="M88.5,-11C123.63,-11 127.72,-42.21 157.03,-48.06"/>
<polygon fill="goldenrod" stroke="goldenrod" stroke-width="2" points="156.72,-51.55 167,-49 157.37,-44.58 156.72,-51.55"/>
</g>
<!-- ugen_0 -->
<g id="node1" class="node">
<title>ugen_0</title>
<path fill="#bcd2ee" stroke="black" stroke-width="2" d="M12,-75C12,-75 83,-75 83,-75 89,-75 95,-81 95,-87 95,-87 95,-165 95,-165 95,-171 89,-177 83,-177 83,-177 12,-177 12,-177 6,-177 0,-171 0,-165 0,-165 0,-87 0,-87 0,-81 6,-75 12,-75"/>
<text text-anchor="middle" x="47.5" y="-163.4" font-family="Arial" font-size="12.00">SinOsc</text>
<text text-anchor="middle" x="47.5" y="-150.4" font-family="Arial" font-size="12.00">(audio)</text>
<polyline fill="none" stroke="black" stroke-width="2" points="0,-143 95,-143 "/>
<text text-anchor="middle" x="36" y="-129.4" font-family="Arial" font-size="12.00">frequency:</text>
<text text-anchor="middle" x="36" y="-116.4" font-family="Arial" font-size="12.00">440.0</text>
<polyline fill="none" stroke="black" stroke-width="2" points="0,-109 72,-109 "/>
<text text-anchor="middle" x="36" y="-95.4" font-family="Arial" font-size="12.00">phase:</text>
<text text-anchor="middle" x="36" y="-82.4" font-family="Arial" font-size="12.00">0.0</text>
<polyline fill="none" stroke="black" stroke-width="2" points="72,-75 72,-143 "/>
<text text-anchor="middle" x="83.5" y="-105.9" font-family="Arial" font-size="12.00">0</text>
</g>
<!-- ugen_1 -->
<g id="node2" class="node">
<title>ugen_1</title>
<path fill="#eedc82" stroke="black" stroke-width="2" d="M20,-0.5C20,-0.5 75,-0.5 75,-0.5 81,-0.5 87,-6.5 87,-12.5 87,-12.5 87,-43.5 87,-43.5 87,-49.5 81,-55.5 75,-55.5 75,-55.5 20,-55.5 20,-55.5 14,-55.5 8,-49.5 8,-43.5 8,-43.5 8,-12.5 8,-12.5 8,-6.5 14,-0.5 20,-0.5"/>
<text text-anchor="middle" x="47.5" y="-41.9" font-family="Arial" font-size="12.00">WhiteNoise</text>
<text text-anchor="middle" x="47.5" y="-28.9" font-family="Arial" font-size="12.00">(control)</text>
<polyline fill="none" stroke="black" stroke-width="2" points="8,-21.5 87,-21.5 "/>
<text text-anchor="middle" x="47.5" y="-7.9" font-family="Arial" font-size="12.00">0</text>
</g>
<!-- ugen_2 -->
<g id="node3" class="node">
<title>ugen_2</title>
<path fill="#bcd2ee" stroke="black" stroke-width="2" d="M179,-38.5C179,-38.5 328,-38.5 328,-38.5 334,-38.5 340,-44.5 340,-50.5 340,-50.5 340,-115.5 340,-115.5 340,-121.5 334,-127.5 328,-127.5 328,-127.5 179,-127.5 179,-127.5 173,-127.5 167,-121.5 167,-115.5 167,-115.5 167,-50.5 167,-50.5 167,-44.5 173,-38.5 179,-38.5"/>
<text text-anchor="middle" x="253.5" y="-113.9" font-family="Arial" font-size="12.00">BinaryOpUGen</text>
<text text-anchor="middle" x="253.5" y="-100.9" font-family="Arial" font-size="12.00">[ABSOLUTE_DIFFERENCE]</text>
<text text-anchor="middle" x="253.5" y="-87.9" font-family="Arial" font-size="12.00">(audio)</text>
<polyline fill="none" stroke="black" stroke-width="2" points="167,-80.5 340,-80.5 "/>
<text text-anchor="middle" x="214.5" y="-66.9" font-family="Arial" font-size="12.00">left</text>
<polyline fill="none" stroke="black" stroke-width="2" points="167,-59.5 262,-59.5 "/>
<text text-anchor="middle" x="214.5" y="-45.9" font-family="Arial" font-size="12.00">right</text>
<polyline fill="none" stroke="black" stroke-width="2" points="262,-38.5 262,-80.5 "/>
<text text-anchor="middle" x="301" y="-56.4" font-family="Arial" font-size="12.00">0</text>
</g>
</g>
</svg>
