<?xml version="1.0" encoding="UTF-8" standalone="no"?>
<!DOCTYPE svg PUBLIC "-//W3C//DTD SVG 1.1//EN"
 "http://www.w3.org/Graphics/SVG/1.1/DTD/svg11.dtd">
<!-- Generated by graphviz version 2.40.1 (20161225.0304)
 -->
<!-- Title: synthdef_e2436271176995c6a0a5cac6d1553f8b Pages: 1 -->
<svg width="545pt" height="111pt"
 viewBox="0.00 0.00 545.00 111.00" xmlns="http://www.w3.org/2000/svg" xmlns:xlink="http://www.w3.org/1999/xlink">
<g id="graph0" class="graph" transform="scale(1 1) rotate(0) translate(4 107)">
<title>synthdef_e2436271176995c6a0a5cac6d1553f8b</title>
<!-- ugen_0&#45;&gt;ugen_1 -->
<g id="edge1" class="edge">
<title>ugen_0:e&#45;&gt;ugen_1:w</title>
<path fill="none" stroke="#4682b4" stroke-width="2" d="M56,-44.5C84.375,-44.5 93.8795,-44.5 117.9792,-44.5"/>
<polygon fill="#4682b4" stroke="#4682b4" stroke-width="2" points="118,-48.0001 128,-44.5 118,-41.0001 118,-48.0001"/>
</g>
<!-- ugen_1&#45;&gt;ugen_2 -->
<g id="edge2" class="edge">
<title>ugen_1:e&#45;&gt;ugen_2:w</title>
<path fill="none" stroke="#daa520" stroke-width="2" d="M194,-44.5C222.375,-44.5 231.8795,-44.5 255.9792,-44.5"/>
<polygon fill="#daa520" stroke="#daa520" stroke-width="2" points="256,-48.0001 266,-44.5 256,-41.0001 256,-48.0001"/>
</g>
<!-- ugen_2&#45;&gt;ugen_3 -->
<g id="edge3" class="edge">
<title>ugen_2:e&#45;&gt;ugen_3:w</title>
<path fill="none" stroke="#daa520" stroke-width="2" d="M370,-44.5C398.375,-44.5 407.8795,-44.5 431.9792,-44.5"/>
<polygon fill="#daa520" stroke="#daa520" stroke-width="2" points="432,-48.0001 442,-44.5 432,-41.0001 432,-48.0001"/>
</g>
<!-- ugen_0 -->
<g id="node1" class="node">
<title>ugen_0</title>
<path fill="#bcd2ee" stroke="#000000" stroke-width="2" d="M12,-27.5C12,-27.5 44,-27.5 44,-27.5 50,-27.5 56,-33.5 56,-39.5 56,-39.5 56,-83.5 56,-83.5 56,-89.5 50,-95.5 44,-95.5 44,-95.5 12,-95.5 12,-95.5 6,-95.5 0,-89.5 0,-83.5 0,-83.5 0,-39.5 0,-39.5 0,-33.5 6,-27.5 12,-27.5"/>
<text text-anchor="middle" x="28" y="-81.9" font-family="Arial" font-size="12.00" fill="#000000">In</text>
<text text-anchor="middle" x="28" y="-68.9" font-family="Arial" font-size="12.00" fill="#000000">(audio)</text>
<polyline fill="none" stroke="#000000" stroke-width="2" points="0,-61.5 56,-61.5 "/>
<text text-anchor="middle" x="17" y="-47.9" font-family="Arial" font-size="12.00" fill="#000000">bus:</text>
<text text-anchor="middle" x="17" y="-34.9" font-family="Arial" font-size="12.00" fill="#000000">0.0</text>
<polyline fill="none" stroke="#000000" stroke-width="2" points="34,-27.5 34,-61.5 "/>
<text text-anchor="middle" x="45" y="-41.4" font-family="Arial" font-size="12.00" fill="#000000">0</text>
</g>
<!-- ugen_1 -->
<g id="node2" class="node">
<title>ugen_1</title>
<path fill="#eedc82" stroke="#000000" stroke-width="2" d="M140,-34C140,-34 182,-34 182,-34 188,-34 194,-40 194,-46 194,-46 194,-77 194,-77 194,-83 188,-89 182,-89 182,-89 140,-89 140,-89 134,-89 128,-83 128,-77 128,-77 128,-46 128,-46 128,-40 134,-34 140,-34"/>
<text text-anchor="middle" x="161" y="-75.4" font-family="Arial" font-size="12.00" fill="#000000">HPZ1</text>
<text text-anchor="middle" x="161" y="-62.4" font-family="Arial" font-size="12.00" fill="#000000">(control)</text>
<polyline fill="none" stroke="#000000" stroke-width="2" points="128,-55 194,-55 "/>
<text text-anchor="middle" x="150" y="-41.4" font-family="Arial" font-size="12.00" fill="#000000">source</text>
<polyline fill="none" stroke="#000000" stroke-width="2" points="172,-34 172,-55 "/>
<text text-anchor="middle" x="183" y="-41.4" font-family="Arial" font-size="12.00" fill="#000000">0</text>
</g>
<!-- ugen_2 -->
<g id="node3" class="node">
<title>ugen_2</title>
<path fill="#eedc82" stroke="#000000" stroke-width="2" d="M278,-34.5C278,-34.5 358,-34.5 358,-34.5 364,-34.5 370,-40.5 370,-46.5 370,-46.5 370,-90.5 370,-90.5 370,-96.5 364,-102.5 358,-102.5 358,-102.5 278,-102.5 278,-102.5 272,-102.5 266,-96.5 266,-90.5 266,-90.5 266,-46.5 266,-46.5 266,-40.5 272,-34.5 278,-34.5"/>
<text text-anchor="middle" x="318" y="-88.9" font-family="Arial" font-size="12.00" fill="#000000">UnaryOpUGen</text>
<text text-anchor="middle" x="318" y="-75.9" font-family="Arial" font-size="12.00" fill="#000000">[ABSOLUTE_VALUE]</text>
<text text-anchor="middle" x="318" y="-62.9" font-family="Arial" font-size="12.00" fill="#000000">(control)</text>
<polyline fill="none" stroke="#000000" stroke-width="2" points="266,-55.5 370,-55.5 "/>
<text text-anchor="middle" x="297.5" y="-41.9" font-family="Arial" font-size="12.00" fill="#000000">source</text>
<polyline fill="none" stroke="#000000" stroke-width="2" points="329,-34.5 329,-55.5 "/>
<text text-anchor="middle" x="349.5" y="-41.9" font-family="Arial" font-size="12.00" fill="#000000">0</text>
</g>
<!-- ugen_3 -->
<g id="node4" class="node">
<title>ugen_3</title>
<path fill="#eedc82" stroke="#000000" stroke-width="2" d="M454,-.5C454,-.5 525,-.5 525,-.5 531,-.5 537,-6.5 537,-12.5 537,-12.5 537,-90.5 537,-90.5 537,-96.5 531,-102.5 525,-102.5 525,-102.5 454,-102.5 454,-102.5 448,-102.5 442,-96.5 442,-90.5 442,-90.5 442,-12.5 442,-12.5 442,-6.5 448,-.5 454,-.5"/>
<text text-anchor="middle" x="489.5" y="-88.9" font-family="Arial" font-size="12.00" fill="#000000">BinaryOpUGen</text>
<text text-anchor="middle" x="489.5" y="-75.9" font-family="Arial" font-size="12.00" fill="#000000">[GREATER_THAN]</text>
<text text-anchor="middle" x="489.5" y="-62.9" font-family="Arial" font-size="12.00" fill="#000000">(control)</text>
<polyline fill="none" stroke="#000000" stroke-width="2" points="442,-55.5 537,-55.5 "/>
<text text-anchor="middle" x="469.5" y="-41.9" font-family="Arial" font-size="12.00" fill="#000000">left</text>
<polyline fill="none" stroke="#000000" stroke-width="2" points="442,-34.5 497,-34.5 "/>
<text text-anchor="middle" x="469.5" y="-20.9" font-family="Arial" font-size="12.00" fill="#000000">right:</text>
<text text-anchor="middle" x="469.5" y="-7.9" font-family="Arial" font-size="12.00" fill="#000000">0.0</text>
<polyline fill="none" stroke="#000000" stroke-width="2" points="497,-.5 497,-55.5 "/>
<text text-anchor="middle" x="517" y="-24.9" font-family="Arial" font-size="12.00" fill="#000000">0</text>
</g>
</g>
</svg>
