<?xml version="1.0" encoding="UTF-8" standalone="no"?>
<!DOCTYPE svg PUBLIC "-//W3C//DTD SVG 1.1//EN"
 "http://www.w3.org/Graphics/SVG/1.1/DTD/svg11.dtd">
<!-- Generated by graphviz version 2.40.1 (20161225.0304)
 -->
<!-- Title: synthdef_ffeda833c370bc644251437469e243ef Pages: 1 -->
<svg width="202pt" height="286pt"
 viewBox="0.00 0.00 202.00 286.00" xmlns="http://www.w3.org/2000/svg" xmlns:xlink="http://www.w3.org/1999/xlink">
<g id="graph0" class="graph" transform="scale(1 1) rotate(0) translate(4 282)">
<title>synthdef_ffeda833c370bc644251437469e243ef</title>
<!-- ugen_0&#45;&gt;ugen_1 -->
<g id="edge1" class="edge">
<title>ugen_0:e&#45;&gt;ugen_1:w</title>
<path fill="none" stroke="#4682b4" stroke-width="2" d="M56,-154C99.7943,-154 83.6594,-221.1384 118.0898,-231.6288"/>
<polygon fill="#4682b4" stroke="#4682b4" stroke-width="2" points="117.6146,-235.0963 128,-233 118.5741,-228.1624 117.6146,-235.0963"/>
</g>
<!-- ugen_0&#45;&gt;ugen_2 -->
<g id="edge2" class="edge">
<title>ugen_0:e&#45;&gt;ugen_2:w</title>
<path fill="none" stroke="#4682b4" stroke-width="2" d="M56,-132C86.438,-132 92.6608,-153.4167 117.8017,-158.1017"/>
<polygon fill="#4682b4" stroke="#4682b4" stroke-width="2" points="117.7314,-161.6089 128,-159 118.3457,-154.6359 117.7314,-161.6089"/>
</g>
<!-- ugen_0&#45;&gt;ugen_3 -->
<g id="edge3" class="edge">
<title>ugen_0:e&#45;&gt;ugen_3:w</title>
<path fill="none" stroke="#4682b4" stroke-width="2" d="M56,-111C86.3013,-111 92.7526,-90.3765 117.8368,-85.8651"/>
<polygon fill="#4682b4" stroke="#4682b4" stroke-width="2" points="118.3329,-89.3356 128,-85 117.7392,-82.3608 118.3329,-89.3356"/>
</g>
<!-- ugen_0&#45;&gt;ugen_4 -->
<g id="edge4" class="edge">
<title>ugen_0:e&#45;&gt;ugen_4:w</title>
<path fill="none" stroke="#4682b4" stroke-width="2" d="M56,-90C99.7943,-90 83.6594,-22.8616 118.0898,-12.3712"/>
<polygon fill="#4682b4" stroke="#4682b4" stroke-width="2" points="118.5741,-15.8376 128,-11 117.6146,-8.9037 118.5741,-15.8376"/>
</g>
<!-- ugen_0 -->
<g id="node1" class="node">
<title>ugen_0</title>
<path fill="#bcd2ee" stroke="#000000" stroke-width="2" d="M12,-80C12,-80 44,-80 44,-80 50,-80 56,-86 56,-92 56,-92 56,-186 56,-186 56,-192 50,-198 44,-198 44,-198 12,-198 12,-198 6,-198 0,-192 0,-186 0,-186 0,-92 0,-92 0,-86 6,-80 12,-80"/>
<text text-anchor="middle" x="28" y="-184.4" font-family="Arial" font-size="12.00" fill="#000000">In</text>
<text text-anchor="middle" x="28" y="-171.4" font-family="Arial" font-size="12.00" fill="#000000">(audio)</text>
<polyline fill="none" stroke="#000000" stroke-width="2" points="0,-164 56,-164 "/>
<text text-anchor="middle" x="17" y="-125.4" font-family="Arial" font-size="12.00" fill="#000000">bus:</text>
<text text-anchor="middle" x="17" y="-112.4" font-family="Arial" font-size="12.00" fill="#000000">8.0</text>
<polyline fill="none" stroke="#000000" stroke-width="2" points="34,-80 34,-164 "/>
<text text-anchor="middle" x="45" y="-150.4" font-family="Arial" font-size="12.00" fill="#000000">0</text>
<polyline fill="none" stroke="#000000" stroke-width="2" points="34,-143 56,-143 "/>
<text text-anchor="middle" x="45" y="-129.4" font-family="Arial" font-size="12.00" fill="#000000">1</text>
<polyline fill="none" stroke="#000000" stroke-width="2" points="34,-122 56,-122 "/>
<text text-anchor="middle" x="45" y="-108.4" font-family="Arial" font-size="12.00" fill="#000000">2</text>
<polyline fill="none" stroke="#000000" stroke-width="2" points="34,-101 56,-101 "/>
<text text-anchor="middle" x="45" y="-87.4" font-family="Arial" font-size="12.00" fill="#000000">3</text>
</g>
<!-- ugen_1 -->
<g id="node2" class="node">
<title>ugen_1</title>
<path fill="#eedc82" stroke="#000000" stroke-width="2" d="M140,-222.5C140,-222.5 182,-222.5 182,-222.5 188,-222.5 194,-228.5 194,-234.5 194,-234.5 194,-265.5 194,-265.5 194,-271.5 188,-277.5 182,-277.5 182,-277.5 140,-277.5 140,-277.5 134,-277.5 128,-271.5 128,-265.5 128,-265.5 128,-234.5 128,-234.5 128,-228.5 134,-222.5 140,-222.5"/>
<text text-anchor="middle" x="161" y="-263.9" font-family="Arial" font-size="12.00" fill="#000000">A2K</text>
<text text-anchor="middle" x="161" y="-250.9" font-family="Arial" font-size="12.00" fill="#000000">(control)</text>
<polyline fill="none" stroke="#000000" stroke-width="2" points="128,-243.5 194,-243.5 "/>
<text text-anchor="middle" x="150" y="-229.9" font-family="Arial" font-size="12.00" fill="#000000">source</text>
<polyline fill="none" stroke="#000000" stroke-width="2" points="172,-222.5 172,-243.5 "/>
<text text-anchor="middle" x="183" y="-229.9" font-family="Arial" font-size="12.00" fill="#000000">0</text>
</g>
<!-- ugen_2 -->
<g id="node3" class="node">
<title>ugen_2</title>
<path fill="#eedc82" stroke="#000000" stroke-width="2" d="M140,-148.5C140,-148.5 182,-148.5 182,-148.5 188,-148.5 194,-154.5 194,-160.5 194,-160.5 194,-191.5 194,-191.5 194,-197.5 188,-203.5 182,-203.5 182,-203.5 140,-203.5 140,-203.5 134,-203.5 128,-197.5 128,-191.5 128,-191.5 128,-160.5 128,-160.5 128,-154.5 134,-148.5 140,-148.5"/>
<text text-anchor="middle" x="161" y="-189.9" font-family="Arial" font-size="12.00" fill="#000000">A2K</text>
<text text-anchor="middle" x="161" y="-176.9" font-family="Arial" font-size="12.00" fill="#000000">(control)</text>
<polyline fill="none" stroke="#000000" stroke-width="2" points="128,-169.5 194,-169.5 "/>
<text text-anchor="middle" x="150" y="-155.9" font-family="Arial" font-size="12.00" fill="#000000">source</text>
<polyline fill="none" stroke="#000000" stroke-width="2" points="172,-148.5 172,-169.5 "/>
<text text-anchor="middle" x="183" y="-155.9" font-family="Arial" font-size="12.00" fill="#000000">0</text>
</g>
<!-- ugen_3 -->
<g id="node4" class="node">
<title>ugen_3</title>
<path fill="#eedc82" stroke="#000000" stroke-width="2" d="M140,-74.5C140,-74.5 182,-74.5 182,-74.5 188,-74.5 194,-80.5 194,-86.5 194,-86.5 194,-117.5 194,-117.5 194,-123.5 188,-129.5 182,-129.5 182,-129.5 140,-129.5 140,-129.5 134,-129.5 128,-123.5 128,-117.5 128,-117.5 128,-86.5 128,-86.5 128,-80.5 134,-74.5 140,-74.5"/>
<text text-anchor="middle" x="161" y="-115.9" font-family="Arial" font-size="12.00" fill="#000000">A2K</text>
<text text-anchor="middle" x="161" y="-102.9" font-family="Arial" font-size="12.00" fill="#000000">(control)</text>
<polyline fill="none" stroke="#000000" stroke-width="2" points="128,-95.5 194,-95.5 "/>
<text text-anchor="middle" x="150" y="-81.9" font-family="Arial" font-size="12.00" fill="#000000">source</text>
<polyline fill="none" stroke="#000000" stroke-width="2" points="172,-74.5 172,-95.5 "/>
<text text-anchor="middle" x="183" y="-81.9" font-family="Arial" font-size="12.00" fill="#000000">0</text>
</g>
<!-- ugen_4 -->
<g id="node5" class="node">
<title>ugen_4</title>
<path fill="#eedc82" stroke="#000000" stroke-width="2" d="M140,-.5C140,-.5 182,-.5 182,-.5 188,-.5 194,-6.5 194,-12.5 194,-12.5 194,-43.5 194,-43.5 194,-49.5 188,-55.5 182,-55.5 182,-55.5 140,-55.5 140,-55.5 134,-55.5 128,-49.5 128,-43.5 128,-43.5 128,-12.5 128,-12.5 128,-6.5 134,-.5 140,-.5"/>
<text text-anchor="middle" x="161" y="-41.9" font-family="Arial" font-size="12.00" fill="#000000">A2K</text>
<text text-anchor="middle" x="161" y="-28.9" font-family="Arial" font-size="12.00" fill="#000000">(control)</text>
<polyline fill="none" stroke="#000000" stroke-width="2" points="128,-21.5 194,-21.5 "/>
<text text-anchor="middle" x="150" y="-7.9" font-family="Arial" font-size="12.00" fill="#000000">source</text>
<polyline fill="none" stroke="#000000" stroke-width="2" points="172,-.5 172,-21.5 "/>
<text text-anchor="middle" x="183" y="-7.9" font-family="Arial" font-size="12.00" fill="#000000">0</text>
</g>
</g>
</svg>
