<?xml version="1.0" encoding="UTF-8" standalone="no"?>
<!DOCTYPE svg PUBLIC "-//W3C//DTD SVG 1.1//EN"
 "http://www.w3.org/Graphics/SVG/1.1/DTD/svg11.dtd">
<!-- Generated by graphviz version 2.49.1 (20210923.0004)
 -->
<!-- Title: synthdef_323128474420b5abb5be40da646d2d20 Pages: 1 -->
<svg width="822pt" height="571pt"
 viewBox="0.00 0.00 822.00 570.50" xmlns="http://www.w3.org/2000/svg" xmlns:xlink="http://www.w3.org/1999/xlink">
<g id="graph0" class="graph" transform="scale(1 1) rotate(0) translate(4 566.5)">
<title>synthdef_323128474420b5abb5be40da646d2d20</title>
<!-- ugen_0&#45;&gt;ugen_1 -->
<g id="edge1" class="edge">
<title>ugen_0:e&#45;&gt;ugen_1:w</title>
<path fill="none" stroke="salmon" stroke-width="2" d="M57,-511C96.8,-511 101.41,-475.91 135.15,-469.88"/>
<polygon fill="salmon" stroke="salmon" stroke-width="2" points="135.83,-473.33 145.5,-469 135.24,-466.36 135.83,-473.33"/>
</g>
<!-- ugen_0&#45;&gt;ugen_10 -->
<g id="edge2" class="edge">
<title>ugen_0:e&#45;&gt;ugen_10:w</title>
<path fill="none" stroke="salmon" stroke-width="2" d="M57,-511C90.59,-511 95.81,-528.83 129,-534 272.6,-556.38 312.18,-554.93 456,-534 562.45,-518.51 595.39,-519.73 688,-465 723.52,-444.01 716.63,-401.73 750.02,-394.93"/>
<polygon fill="salmon" stroke="salmon" stroke-width="2" points="750.37,-398.41 760,-394 749.72,-391.44 750.37,-398.41"/>
</g>
<!-- ugen_1&#45;&gt;ugen_4 -->
<g id="edge3" class="edge">
<title>ugen_1:e&#45;&gt;ugen_4:w</title>
<path fill="none" stroke="steelblue" stroke-width="2" d="M207.5,-479C243.15,-479 254.56,-479.82 285.67,-479.98"/>
<polygon fill="steelblue" stroke="steelblue" stroke-width="2" points="285.99,-483.48 296,-480 286.01,-476.48 285.99,-483.48"/>
</g>
<!-- ugen_1&#45;&gt;ugen_5 -->
<g id="edge4" class="edge">
<title>ugen_1:e&#45;&gt;ugen_5:w</title>
<path fill="none" stroke="steelblue" stroke-width="2" d="M207.5,-458C373.37,-458 137.06,-102.77 285.65,-87.51"/>
<polygon fill="steelblue" stroke="steelblue" stroke-width="2" points="286.18,-90.98 296,-87 285.84,-83.99 286.18,-90.98"/>
</g>
<!-- ugen_2&#45;&gt;ugen_4 -->
<g id="edge5" class="edge">
<title>ugen_2:e&#45;&gt;ugen_4:w</title>
<path fill="none" stroke="salmon" stroke-width="2" d="M224,-69C372.72,-69 154.4,-388.48 285.92,-403.46"/>
<polygon fill="salmon" stroke="salmon" stroke-width="2" points="285.83,-406.96 296,-404 286.2,-399.97 285.83,-406.96"/>
</g>
<!-- ugen_2&#45;&gt;ugen_5 -->
<g id="edge6" class="edge">
<title>ugen_2:e&#45;&gt;ugen_5:w</title>
<path fill="none" stroke="salmon" stroke-width="2" d="M224,-69C261.24,-69 256.37,-21.37 285.71,-12.43"/>
<polygon fill="salmon" stroke="salmon" stroke-width="2" points="286.58,-15.85 296,-11 285.61,-8.91 286.58,-15.85"/>
</g>
<!-- ugen_3&#45;&gt;ugen_4 -->
<g id="edge7" class="edge">
<title>ugen_3:e&#45;&gt;ugen_4:w</title>
<path fill="none" stroke="salmon" stroke-width="2" d="M224,-304C282.79,-304 239.43,-410.79 285.85,-423.72"/>
<polygon fill="salmon" stroke="salmon" stroke-width="2" points="285.64,-427.22 296,-425 286.52,-420.28 285.64,-427.22"/>
</g>
<!-- ugen_3&#45;&gt;ugen_5 -->
<g id="edge8" class="edge">
<title>ugen_3:e&#45;&gt;ugen_5:w</title>
<path fill="none" stroke="salmon" stroke-width="2" d="M224,-304C345.39,-304 181.12,-47.7 285.77,-32.69"/>
<polygon fill="salmon" stroke="salmon" stroke-width="2" points="286.26,-36.16 296,-32 285.79,-29.18 286.26,-36.16"/>
</g>
<!-- ugen_4&#45;&gt;ugen_8 -->
<g id="edge9" class="edge">
<title>ugen_4:e&#45;&gt;ugen_8:w</title>
<path fill="none" stroke="steelblue" stroke-width="2" d="M456,-442C487.17,-442 492.31,-417.19 517.99,-411.96"/>
<polygon fill="steelblue" stroke="steelblue" stroke-width="2" points="518.38,-415.44 528,-411 517.71,-408.47 518.38,-415.44"/>
</g>
<!-- ugen_5&#45;&gt;ugen_9 -->
<g id="edge10" class="edge">
<title>ugen_5:e&#45;&gt;ugen_9:w</title>
<path fill="none" stroke="steelblue" stroke-width="2" d="M456,-49C551.82,-49 437.61,-245.56 517.83,-260.15"/>
<polygon fill="steelblue" stroke="steelblue" stroke-width="2" points="517.74,-263.65 528,-261 518.33,-256.67 517.74,-263.65"/>
</g>
<!-- ugen_6&#45;&gt;ugen_8 -->
<g id="edge11" class="edge">
<title>ugen_6:e&#45;&gt;ugen_8:w</title>
<path fill="none" stroke="salmon" stroke-width="2" d="M425,-185C502.24,-185 452.13,-321.83 517.92,-334.12"/>
<polygon fill="salmon" stroke="salmon" stroke-width="2" points="517.73,-337.62 528,-335 518.34,-330.64 517.73,-337.62"/>
</g>
<!-- ugen_6&#45;&gt;ugen_9 -->
<g id="edge12" class="edge">
<title>ugen_6:e&#45;&gt;ugen_9:w</title>
<path fill="none" stroke="salmon" stroke-width="2" d="M425,-185C467.2,-185 480.22,-185 517.87,-185"/>
<polygon fill="salmon" stroke="salmon" stroke-width="2" points="518,-188.5 528,-185 518,-181.5 518,-188.5"/>
</g>
<!-- ugen_7&#45;&gt;ugen_8 -->
<g id="edge13" class="edge">
<title>ugen_7:e&#45;&gt;ugen_8:w</title>
<path fill="none" stroke="salmon" stroke-width="2" d="M425,-306C472.31,-306 476.7,-349.22 517.97,-355.29"/>
<polygon fill="salmon" stroke="salmon" stroke-width="2" points="517.78,-358.79 528,-356 518.27,-351.81 517.78,-358.79"/>
</g>
<!-- ugen_7&#45;&gt;ugen_9 -->
<g id="edge14" class="edge">
<title>ugen_7:e&#45;&gt;ugen_9:w</title>
<path fill="none" stroke="salmon" stroke-width="2" d="M425,-306C485.19,-306 466.7,-217.01 517.98,-206.93"/>
<polygon fill="salmon" stroke="salmon" stroke-width="2" points="518.36,-210.41 528,-206 517.72,-203.44 518.36,-210.41"/>
</g>
<!-- ugen_8&#45;&gt;ugen_10 -->
<g id="edge15" class="edge">
<title>ugen_8:e&#45;&gt;ugen_10:w</title>
<path fill="none" stroke="steelblue" stroke-width="2" d="M688,-373C716.38,-373 725.88,-373 749.98,-373"/>
<polygon fill="steelblue" stroke="steelblue" stroke-width="2" points="750,-376.5 760,-373 750,-369.5 750,-376.5"/>
</g>
<!-- ugen_9&#45;&gt;ugen_10 -->
<g id="edge16" class="edge">
<title>ugen_9:e&#45;&gt;ugen_10:w</title>
<path fill="none" stroke="steelblue" stroke-width="2" d="M688,-223C749.94,-223 700.66,-337.8 750,-350.81"/>
<polygon fill="steelblue" stroke="steelblue" stroke-width="2" points="749.66,-354.29 760,-352 750.49,-347.34 749.66,-354.29"/>
</g>
<!-- ugen_0 -->
<g id="node1" class="node">
<title>ugen_0</title>
<path fill="#ee9572" stroke="black" stroke-width="2" d="M12,-494C12,-494 45,-494 45,-494 51,-494 57,-500 57,-506 57,-506 57,-550 57,-550 57,-556 51,-562 45,-562 45,-562 12,-562 12,-562 6,-562 0,-556 0,-550 0,-550 0,-506 0,-506 0,-500 6,-494 12,-494"/>
<text text-anchor="middle" x="28.5" y="-548.4" font-family="Arial" font-size="12.00">Control</text>
<text text-anchor="middle" x="28.5" y="-535.4" font-family="Arial" font-size="12.00">(scalar)</text>
<polyline fill="none" stroke="black" stroke-width="2" points="0,-528 57,-528 "/>
<text text-anchor="middle" x="28.5" y="-514.4" font-family="Arial" font-size="12.00">out:</text>
<text text-anchor="middle" x="28.5" y="-501.4" font-family="Arial" font-size="12.00">0.0</text>
</g>
<!-- ugen_1 -->
<g id="node2" class="node">
<title>ugen_1</title>
<path fill="#bcd2ee" stroke="black" stroke-width="2" d="M159,-448C159,-448 194,-448 194,-448 200,-448 206,-454 206,-460 206,-460 206,-512 206,-512 206,-518 200,-524 194,-524 194,-524 159,-524 159,-524 153,-524 147,-518 147,-512 147,-512 147,-460 147,-460 147,-454 153,-448 159,-448"/>
<text text-anchor="middle" x="176.5" y="-510.4" font-family="Arial" font-size="12.00">In</text>
<text text-anchor="middle" x="176.5" y="-497.4" font-family="Arial" font-size="12.00">(audio)</text>
<polyline fill="none" stroke="black" stroke-width="2" points="147,-490 206,-490 "/>
<text text-anchor="middle" x="165" y="-465.9" font-family="Arial" font-size="12.00">bus</text>
<polyline fill="none" stroke="black" stroke-width="2" points="183,-448 183,-490 "/>
<text text-anchor="middle" x="194.5" y="-476.4" font-family="Arial" font-size="12.00">0</text>
<polyline fill="none" stroke="black" stroke-width="2" points="183,-469 206,-469 "/>
<text text-anchor="middle" x="194.5" y="-455.4" font-family="Arial" font-size="12.00">1</text>
</g>
<!-- ugen_10 -->
<g id="node3" class="node">
<title>ugen_10</title>
<path fill="#bcd2ee" stroke="black" stroke-width="2" d="M772,-341.5C772,-341.5 802,-341.5 802,-341.5 808,-341.5 814,-347.5 814,-353.5 814,-353.5 814,-426.5 814,-426.5 814,-432.5 808,-438.5 802,-438.5 802,-438.5 772,-438.5 772,-438.5 766,-438.5 760,-432.5 760,-426.5 760,-426.5 760,-353.5 760,-353.5 760,-347.5 766,-341.5 772,-341.5"/>
<text text-anchor="middle" x="787" y="-424.9" font-family="Arial" font-size="12.00">Out</text>
<text text-anchor="middle" x="787" y="-411.9" font-family="Arial" font-size="12.00">(audio)</text>
<polyline fill="none" stroke="black" stroke-width="2" points="760,-404.5 814,-404.5 "/>
<text text-anchor="middle" x="787" y="-390.9" font-family="Arial" font-size="12.00">bus</text>
<polyline fill="none" stroke="black" stroke-width="2" points="760,-383.5 814,-383.5 "/>
<text text-anchor="middle" x="787" y="-369.9" font-family="Arial" font-size="12.00">source</text>
<polyline fill="none" stroke="black" stroke-width="2" points="760,-362.5 814,-362.5 "/>
<text text-anchor="middle" x="787" y="-348.9" font-family="Arial" font-size="12.00"> </text>
</g>
<!-- ugen_2 -->
<g id="node4" class="node">
<title>ugen_2</title>
<path fill="#ee9572" stroke="black" stroke-width="2" d="M141,-35C141,-35 212,-35 212,-35 218,-35 224,-41 224,-47 224,-47 224,-125 224,-125 224,-131 218,-137 212,-137 212,-137 141,-137 141,-137 135,-137 129,-131 129,-125 129,-125 129,-47 129,-47 129,-41 135,-35 141,-35"/>
<text text-anchor="middle" x="176.5" y="-123.4" font-family="Arial" font-size="12.00">ExpRand</text>
<text text-anchor="middle" x="176.5" y="-110.4" font-family="Arial" font-size="12.00">(scalar)</text>
<polyline fill="none" stroke="black" stroke-width="2" points="129,-103 224,-103 "/>
<text text-anchor="middle" x="165" y="-89.4" font-family="Arial" font-size="12.00">minimum:</text>
<text text-anchor="middle" x="165" y="-76.4" font-family="Arial" font-size="12.00">0.01</text>
<polyline fill="none" stroke="black" stroke-width="2" points="129,-69 201,-69 "/>
<text text-anchor="middle" x="165" y="-55.4" font-family="Arial" font-size="12.00">maximum:</text>
<text text-anchor="middle" x="165" y="-42.4" font-family="Arial" font-size="12.00">0.1</text>
<polyline fill="none" stroke="black" stroke-width="2" points="201,-35 201,-103 "/>
<text text-anchor="middle" x="212.5" y="-65.9" font-family="Arial" font-size="12.00">0</text>
</g>
<!-- ugen_3 -->
<g id="node5" class="node">
<title>ugen_3</title>
<path fill="#ee9572" stroke="black" stroke-width="2" d="M141,-270C141,-270 212,-270 212,-270 218,-270 224,-276 224,-282 224,-282 224,-360 224,-360 224,-366 218,-372 212,-372 212,-372 141,-372 141,-372 135,-372 129,-366 129,-360 129,-360 129,-282 129,-282 129,-276 135,-270 141,-270"/>
<text text-anchor="middle" x="176.5" y="-358.4" font-family="Arial" font-size="12.00">ExpRand</text>
<text text-anchor="middle" x="176.5" y="-345.4" font-family="Arial" font-size="12.00">(scalar)</text>
<polyline fill="none" stroke="black" stroke-width="2" points="129,-338 224,-338 "/>
<text text-anchor="middle" x="165" y="-324.4" font-family="Arial" font-size="12.00">minimum:</text>
<text text-anchor="middle" x="165" y="-311.4" font-family="Arial" font-size="12.00">0.01</text>
<polyline fill="none" stroke="black" stroke-width="2" points="129,-304 201,-304 "/>
<text text-anchor="middle" x="165" y="-290.4" font-family="Arial" font-size="12.00">maximum:</text>
<text text-anchor="middle" x="165" y="-277.4" font-family="Arial" font-size="12.00">0.1</text>
<polyline fill="none" stroke="black" stroke-width="2" points="201,-270 201,-338 "/>
<text text-anchor="middle" x="212.5" y="-300.9" font-family="Arial" font-size="12.00">0</text>
</g>
<!-- ugen_4 -->
<g id="node6" class="node">
<title>ugen_4</title>
<path fill="#bcd2ee" stroke="black" stroke-width="2" d="M308,-393.5C308,-393.5 444,-393.5 444,-393.5 450,-393.5 456,-399.5 456,-405.5 456,-405.5 456,-512.5 456,-512.5 456,-518.5 450,-524.5 444,-524.5 444,-524.5 308,-524.5 308,-524.5 302,-524.5 296,-518.5 296,-512.5 296,-512.5 296,-405.5 296,-405.5 296,-399.5 302,-393.5 308,-393.5"/>
<text text-anchor="middle" x="376" y="-510.9" font-family="Arial" font-size="12.00">AllpassC</text>
<text text-anchor="middle" x="376" y="-497.9" font-family="Arial" font-size="12.00">(audio)</text>
<polyline fill="none" stroke="black" stroke-width="2" points="296,-490.5 456,-490.5 "/>
<text text-anchor="middle" x="364.5" y="-476.9" font-family="Arial" font-size="12.00">source</text>
<polyline fill="none" stroke="black" stroke-width="2" points="296,-469.5 433,-469.5 "/>
<text text-anchor="middle" x="364.5" y="-455.9" font-family="Arial" font-size="12.00">maximum_delay_time:</text>
<text text-anchor="middle" x="364.5" y="-442.9" font-family="Arial" font-size="12.00">0.1</text>
<polyline fill="none" stroke="black" stroke-width="2" points="296,-435.5 433,-435.5 "/>
<text text-anchor="middle" x="364.5" y="-421.9" font-family="Arial" font-size="12.00">delay_time</text>
<polyline fill="none" stroke="black" stroke-width="2" points="296,-414.5 433,-414.5 "/>
<text text-anchor="middle" x="364.5" y="-400.9" font-family="Arial" font-size="12.00">decay_time</text>
<polyline fill="none" stroke="black" stroke-width="2" points="433,-393.5 433,-490.5 "/>
<text text-anchor="middle" x="444.5" y="-438.9" font-family="Arial" font-size="12.00">0</text>
</g>
<!-- ugen_5 -->
<g id="node7" class="node">
<title>ugen_5</title>
<path fill="#bcd2ee" stroke="black" stroke-width="2" d="M308,-0.5C308,-0.5 444,-0.5 444,-0.5 450,-0.5 456,-6.5 456,-12.5 456,-12.5 456,-119.5 456,-119.5 456,-125.5 450,-131.5 444,-131.5 444,-131.5 308,-131.5 308,-131.5 302,-131.5 296,-125.5 296,-119.5 296,-119.5 296,-12.5 296,-12.5 296,-6.5 302,-0.5 308,-0.5"/>
<text text-anchor="middle" x="376" y="-117.9" font-family="Arial" font-size="12.00">AllpassC</text>
<text text-anchor="middle" x="376" y="-104.9" font-family="Arial" font-size="12.00">(audio)</text>
<polyline fill="none" stroke="black" stroke-width="2" points="296,-97.5 456,-97.5 "/>
<text text-anchor="middle" x="364.5" y="-83.9" font-family="Arial" font-size="12.00">source</text>
<polyline fill="none" stroke="black" stroke-width="2" points="296,-76.5 433,-76.5 "/>
<text text-anchor="middle" x="364.5" y="-62.9" font-family="Arial" font-size="12.00">maximum_delay_time:</text>
<text text-anchor="middle" x="364.5" y="-49.9" font-family="Arial" font-size="12.00">0.1</text>
<polyline fill="none" stroke="black" stroke-width="2" points="296,-42.5 433,-42.5 "/>
<text text-anchor="middle" x="364.5" y="-28.9" font-family="Arial" font-size="12.00">delay_time</text>
<polyline fill="none" stroke="black" stroke-width="2" points="296,-21.5 433,-21.5 "/>
<text text-anchor="middle" x="364.5" y="-7.9" font-family="Arial" font-size="12.00">decay_time</text>
<polyline fill="none" stroke="black" stroke-width="2" points="433,-0.5 433,-97.5 "/>
<text text-anchor="middle" x="444.5" y="-45.9" font-family="Arial" font-size="12.00">0</text>
</g>
<!-- ugen_6 -->
<g id="node8" class="node">
<title>ugen_6</title>
<path fill="#ee9572" stroke="black" stroke-width="2" d="M340.5,-151C340.5,-151 411.5,-151 411.5,-151 417.5,-151 423.5,-157 423.5,-163 423.5,-163 423.5,-241 423.5,-241 423.5,-247 417.5,-253 411.5,-253 411.5,-253 340.5,-253 340.5,-253 334.5,-253 328.5,-247 328.5,-241 328.5,-241 328.5,-163 328.5,-163 328.5,-157 334.5,-151 340.5,-151"/>
<text text-anchor="middle" x="376" y="-239.4" font-family="Arial" font-size="12.00">ExpRand</text>
<text text-anchor="middle" x="376" y="-226.4" font-family="Arial" font-size="12.00">(scalar)</text>
<polyline fill="none" stroke="black" stroke-width="2" points="328.5,-219 423.5,-219 "/>
<text text-anchor="middle" x="364.5" y="-205.4" font-family="Arial" font-size="12.00">minimum:</text>
<text text-anchor="middle" x="364.5" y="-192.4" font-family="Arial" font-size="12.00">0.01</text>
<polyline fill="none" stroke="black" stroke-width="2" points="328.5,-185 400.5,-185 "/>
<text text-anchor="middle" x="364.5" y="-171.4" font-family="Arial" font-size="12.00">maximum:</text>
<text text-anchor="middle" x="364.5" y="-158.4" font-family="Arial" font-size="12.00">0.1</text>
<polyline fill="none" stroke="black" stroke-width="2" points="400.5,-151 400.5,-219 "/>
<text text-anchor="middle" x="412" y="-181.9" font-family="Arial" font-size="12.00">0</text>
</g>
<!-- ugen_7 -->
<g id="node9" class="node">
<title>ugen_7</title>
<path fill="#ee9572" stroke="black" stroke-width="2" d="M340.5,-272C340.5,-272 411.5,-272 411.5,-272 417.5,-272 423.5,-278 423.5,-284 423.5,-284 423.5,-362 423.5,-362 423.5,-368 417.5,-374 411.5,-374 411.5,-374 340.5,-374 340.5,-374 334.5,-374 328.5,-368 328.5,-362 328.5,-362 328.5,-284 328.5,-284 328.5,-278 334.5,-272 340.5,-272"/>
<text text-anchor="middle" x="376" y="-360.4" font-family="Arial" font-size="12.00">ExpRand</text>
<text text-anchor="middle" x="376" y="-347.4" font-family="Arial" font-size="12.00">(scalar)</text>
<polyline fill="none" stroke="black" stroke-width="2" points="328.5,-340 423.5,-340 "/>
<text text-anchor="middle" x="364.5" y="-326.4" font-family="Arial" font-size="12.00">minimum:</text>
<text text-anchor="middle" x="364.5" y="-313.4" font-family="Arial" font-size="12.00">0.01</text>
<polyline fill="none" stroke="black" stroke-width="2" points="328.5,-306 400.5,-306 "/>
<text text-anchor="middle" x="364.5" y="-292.4" font-family="Arial" font-size="12.00">maximum:</text>
<text text-anchor="middle" x="364.5" y="-279.4" font-family="Arial" font-size="12.00">0.1</text>
<polyline fill="none" stroke="black" stroke-width="2" points="400.5,-272 400.5,-340 "/>
<text text-anchor="middle" x="412" y="-302.9" font-family="Arial" font-size="12.00">0</text>
</g>
<!-- ugen_8 -->
<g id="node10" class="node">
<title>ugen_8</title>
<path fill="#bcd2ee" stroke="black" stroke-width="2" d="M540,-324.5C540,-324.5 676,-324.5 676,-324.5 682,-324.5 688,-330.5 688,-336.5 688,-336.5 688,-443.5 688,-443.5 688,-449.5 682,-455.5 676,-455.5 676,-455.5 540,-455.5 540,-455.5 534,-455.5 528,-449.5 528,-443.5 528,-443.5 528,-336.5 528,-336.5 528,-330.5 534,-324.5 540,-324.5"/>
<text text-anchor="middle" x="608" y="-441.9" font-family="Arial" font-size="12.00">AllpassC</text>
<text text-anchor="middle" x="608" y="-428.9" font-family="Arial" font-size="12.00">(audio)</text>
<polyline fill="none" stroke="black" stroke-width="2" points="528,-421.5 688,-421.5 "/>
<text text-anchor="middle" x="596.5" y="-407.9" font-family="Arial" font-size="12.00">source</text>
<polyline fill="none" stroke="black" stroke-width="2" points="528,-400.5 665,-400.5 "/>
<text text-anchor="middle" x="596.5" y="-386.9" font-family="Arial" font-size="12.00">maximum_delay_time:</text>
<text text-anchor="middle" x="596.5" y="-373.9" font-family="Arial" font-size="12.00">0.1</text>
<polyline fill="none" stroke="black" stroke-width="2" points="528,-366.5 665,-366.5 "/>
<text text-anchor="middle" x="596.5" y="-352.9" font-family="Arial" font-size="12.00">delay_time</text>
<polyline fill="none" stroke="black" stroke-width="2" points="528,-345.5 665,-345.5 "/>
<text text-anchor="middle" x="596.5" y="-331.9" font-family="Arial" font-size="12.00">decay_time</text>
<polyline fill="none" stroke="black" stroke-width="2" points="665,-324.5 665,-421.5 "/>
<text text-anchor="middle" x="676.5" y="-369.9" font-family="Arial" font-size="12.00">0</text>
</g>
<!-- ugen_9 -->
<g id="node11" class="node">
<title>ugen_9</title>
<path fill="#bcd2ee" stroke="black" stroke-width="2" d="M540,-174.5C540,-174.5 676,-174.5 676,-174.5 682,-174.5 688,-180.5 688,-186.5 688,-186.5 688,-293.5 688,-293.5 688,-299.5 682,-305.5 676,-305.5 676,-305.5 540,-305.5 540,-305.5 534,-305.5 528,-299.5 528,-293.5 528,-293.5 528,-186.5 528,-186.5 528,-180.5 534,-174.5 540,-174.5"/>
<text text-anchor="middle" x="608" y="-291.9" font-family="Arial" font-size="12.00">AllpassC</text>
<text text-anchor="middle" x="608" y="-278.9" font-family="Arial" font-size="12.00">(audio)</text>
<polyline fill="none" stroke="black" stroke-width="2" points="528,-271.5 688,-271.5 "/>
<text text-anchor="middle" x="596.5" y="-257.9" font-family="Arial" font-size="12.00">source</text>
<polyline fill="none" stroke="black" stroke-width="2" points="528,-250.5 665,-250.5 "/>
<text text-anchor="middle" x="596.5" y="-236.9" font-family="Arial" font-size="12.00">maximum_delay_time:</text>
<text text-anchor="middle" x="596.5" y="-223.9" font-family="Arial" font-size="12.00">0.1</text>
<polyline fill="none" stroke="black" stroke-width="2" points="528,-216.5 665,-216.5 "/>
<text text-anchor="middle" x="596.5" y="-202.9" font-family="Arial" font-size="12.00">delay_time</text>
<polyline fill="none" stroke="black" stroke-width="2" points="528,-195.5 665,-195.5 "/>
<text text-anchor="middle" x="596.5" y="-181.9" font-family="Arial" font-size="12.00">decay_time</text>
<polyline fill="none" stroke="black" stroke-width="2" points="665,-174.5 665,-271.5 "/>
<text text-anchor="middle" x="676.5" y="-219.9" font-family="Arial" font-size="12.00">0</text>
</g>
</g>
</svg>
