<?xml version="1.0" encoding="UTF-8" standalone="no"?>
<!DOCTYPE svg PUBLIC "-//W3C//DTD SVG 1.1//EN"
 "http://www.w3.org/Graphics/SVG/1.1/DTD/svg11.dtd">
<!-- Generated by graphviz version 2.49.1 (20210923.0004)
 -->
<!-- Title: synthdef_2f1fa110743854c82a7bf87b4c692da2 Pages: 1 -->
<svg width="822pt" height="851pt"
 viewBox="0.00 0.00 822.00 851.22" xmlns="http://www.w3.org/2000/svg" xmlns:xlink="http://www.w3.org/1999/xlink">
<g id="graph0" class="graph" transform="scale(1 1) rotate(0) translate(4 847.22)">
<title>synthdef_2f1fa110743854c82a7bf87b4c692da2</title>
<!-- ugen_0&#45;&gt;ugen_1 -->
<g id="edge1" class="edge">
<title>ugen_0:e&#45;&gt;ugen_1:w</title>
<path fill="none" stroke="salmon" stroke-width="2" d="M57,-736C118.17,-736 84.98,-632.77 135.46,-621.07"/>
<polygon fill="salmon" stroke="salmon" stroke-width="2" points="135.93,-624.54 145.5,-620 135.18,-617.58 135.93,-624.54"/>
</g>
<!-- ugen_0&#45;&gt;ugen_14 -->
<g id="edge2" class="edge">
<title>ugen_0:e&#45;&gt;ugen_14:w</title>
<path fill="none" stroke="salmon" stroke-width="2" d="M57,-736C171.81,-736 183.36,-811.8 296,-834 365.77,-847.75 385.63,-844.24 456,-834 562.45,-818.51 609.82,-838.89 688,-765 753.98,-702.64 672.4,-575.45 749.76,-565.61"/>
<polygon fill="salmon" stroke="salmon" stroke-width="2" points="750.22,-569.08 760,-565 749.81,-562.1 750.22,-569.08"/>
</g>
<!-- ugen_1&#45;&gt;ugen_4 -->
<g id="edge3" class="edge">
<title>ugen_1:e&#45;&gt;ugen_4:w</title>
<path fill="none" stroke="steelblue" stroke-width="2" d="M207.5,-652C273.02,-652 231.76,-766.86 286.02,-778.97"/>
<polygon fill="steelblue" stroke="steelblue" stroke-width="2" points="285.69,-782.45 296,-780 286.41,-775.49 285.69,-782.45"/>
</g>
<!-- ugen_1&#45;&gt;ugen_5 -->
<g id="edge4" class="edge">
<title>ugen_1:e&#45;&gt;ugen_5:w</title>
<path fill="none" stroke="steelblue" stroke-width="2" d="M207.5,-630C243.15,-630 254.56,-630 285.67,-630"/>
<polygon fill="steelblue" stroke="steelblue" stroke-width="2" points="286,-633.5 296,-630 286,-626.5 286,-633.5"/>
</g>
<!-- ugen_1&#45;&gt;ugen_6 -->
<g id="edge5" class="edge">
<title>ugen_1:e&#45;&gt;ugen_6:w</title>
<path fill="none" stroke="steelblue" stroke-width="2" d="M207.5,-609C373.8,-609 136.66,-252.81 285.62,-237.51"/>
<polygon fill="steelblue" stroke="steelblue" stroke-width="2" points="286.18,-240.98 296,-237 285.84,-233.99 286.18,-240.98"/>
</g>
<!-- ugen_1&#45;&gt;ugen_7 -->
<g id="edge6" class="edge">
<title>ugen_1:e&#45;&gt;ugen_7:w</title>
<path fill="none" stroke="steelblue" stroke-width="2" d="M207.5,-588C316.91,-588 191.55,-118.77 285.83,-88.53"/>
<polygon fill="steelblue" stroke="steelblue" stroke-width="2" points="286.63,-91.95 296,-87 285.59,-85.02 286.63,-91.95"/>
</g>
<!-- ugen_10&#45;&gt;ugen_14 -->
<g id="edge7" class="edge">
<title>ugen_10:e&#45;&gt;ugen_14:w</title>
<path fill="none" stroke="steelblue" stroke-width="2" d="M688,-673C749.94,-673 700.66,-558.2 750,-545.19"/>
<polygon fill="steelblue" stroke="steelblue" stroke-width="2" points="750.49,-548.66 760,-544 749.66,-541.71 750.49,-548.66"/>
</g>
<!-- ugen_11&#45;&gt;ugen_14 -->
<g id="edge8" class="edge">
<title>ugen_11:e&#45;&gt;ugen_14:w</title>
<path fill="none" stroke="steelblue" stroke-width="2" d="M688,-523C716.38,-523 725.88,-523 749.98,-523"/>
<polygon fill="steelblue" stroke="steelblue" stroke-width="2" points="750,-526.5 760,-523 750,-519.5 750,-526.5"/>
</g>
<!-- ugen_12&#45;&gt;ugen_14 -->
<g id="edge9" class="edge">
<title>ugen_12:e&#45;&gt;ugen_14:w</title>
<path fill="none" stroke="steelblue" stroke-width="2" d="M688,-373C749.94,-373 700.66,-487.8 750,-500.81"/>
<polygon fill="steelblue" stroke="steelblue" stroke-width="2" points="749.66,-504.29 760,-502 750.49,-497.34 749.66,-504.29"/>
</g>
<!-- ugen_13&#45;&gt;ugen_14 -->
<g id="edge10" class="edge">
<title>ugen_13:e&#45;&gt;ugen_14:w</title>
<path fill="none" stroke="steelblue" stroke-width="2" d="M688,-223C803.44,-223 650.75,-465.62 749.96,-480.3"/>
<polygon fill="steelblue" stroke="steelblue" stroke-width="2" points="749.78,-483.8 760,-481 750.27,-476.82 749.78,-483.8"/>
</g>
<!-- ugen_2&#45;&gt;ugen_4 -->
<g id="edge11" class="edge">
<title>ugen_2:e&#45;&gt;ugen_4:w</title>
<path fill="none" stroke="salmon" stroke-width="2" d="M224,-214C330.4,-214 195.49,-672 285.87,-702.42"/>
<polygon fill="salmon" stroke="salmon" stroke-width="2" points="285.58,-705.91 296,-704 286.66,-699 285.58,-705.91"/>
</g>
<!-- ugen_2&#45;&gt;ugen_5 -->
<g id="edge12" class="edge">
<title>ugen_2:e&#45;&gt;ugen_5:w</title>
<path fill="none" stroke="salmon" stroke-width="2" d="M224,-214C374.84,-214 152.43,-538.25 285.77,-553.45"/>
<polygon fill="salmon" stroke="salmon" stroke-width="2" points="285.83,-556.96 296,-554 286.2,-549.97 285.83,-556.96"/>
</g>
<!-- ugen_2&#45;&gt;ugen_6 -->
<g id="edge13" class="edge">
<title>ugen_2:e&#45;&gt;ugen_6:w</title>
<path fill="none" stroke="salmon" stroke-width="2" d="M224,-214C260.01,-214 257.25,-170.47 285.99,-162.31"/>
<polygon fill="salmon" stroke="salmon" stroke-width="2" points="286.54,-165.77 296,-161 285.63,-158.83 286.54,-165.77"/>
</g>
<!-- ugen_2&#45;&gt;ugen_7 -->
<g id="edge14" class="edge">
<title>ugen_2:e&#45;&gt;ugen_7:w</title>
<path fill="none" stroke="salmon" stroke-width="2" d="M224,-214C315.99,-214 209.28,-26.55 285.74,-11.91"/>
<polygon fill="salmon" stroke="salmon" stroke-width="2" points="286.35,-15.37 296,-11 285.73,-8.39 286.35,-15.37"/>
</g>
<!-- ugen_3&#45;&gt;ugen_4 -->
<g id="edge15" class="edge">
<title>ugen_3:e&#45;&gt;ugen_4:w</title>
<path fill="none" stroke="salmon" stroke-width="2" d="M224,-439C351.49,-439 175.08,-709.57 285.95,-724.37"/>
<polygon fill="salmon" stroke="salmon" stroke-width="2" points="285.8,-727.87 296,-725 286.24,-720.88 285.8,-727.87"/>
</g>
<!-- ugen_3&#45;&gt;ugen_5 -->
<g id="edge16" class="edge">
<title>ugen_3:e&#45;&gt;ugen_5:w</title>
<path fill="none" stroke="salmon" stroke-width="2" d="M224,-439C288.65,-439 234.3,-560.53 285.93,-573.82"/>
<polygon fill="salmon" stroke="salmon" stroke-width="2" points="285.66,-577.32 296,-575 286.47,-570.36 285.66,-577.32"/>
</g>
<!-- ugen_3&#45;&gt;ugen_6 -->
<g id="edge17" class="edge">
<title>ugen_3:e&#45;&gt;ugen_6:w</title>
<path fill="none" stroke="salmon" stroke-width="2" d="M224,-439C339.03,-439 187.12,-197.33 285.99,-182.69"/>
<polygon fill="salmon" stroke="salmon" stroke-width="2" points="286.27,-186.18 296,-182 285.78,-179.2 286.27,-186.18"/>
</g>
<!-- ugen_3&#45;&gt;ugen_7 -->
<g id="edge18" class="edge">
<title>ugen_3:e&#45;&gt;ugen_7:w</title>
<path fill="none" stroke="salmon" stroke-width="2" d="M224,-439C404.11,-439 123.66,-47.74 285.78,-32.46"/>
<polygon fill="salmon" stroke="salmon" stroke-width="2" points="286.17,-35.95 296,-32 285.85,-28.95 286.17,-35.95"/>
</g>
<!-- ugen_4&#45;&gt;ugen_10 -->
<g id="edge19" class="edge">
<title>ugen_4:e&#45;&gt;ugen_10:w</title>
<path fill="none" stroke="steelblue" stroke-width="2" d="M456,-742C487.17,-742 492.31,-717.19 517.99,-711.96"/>
<polygon fill="steelblue" stroke="steelblue" stroke-width="2" points="518.38,-715.44 528,-711 517.71,-708.47 518.38,-715.44"/>
</g>
<!-- ugen_5&#45;&gt;ugen_11 -->
<g id="edge20" class="edge">
<title>ugen_5:e&#45;&gt;ugen_11:w</title>
<path fill="none" stroke="steelblue" stroke-width="2" d="M456,-592C487.17,-592 492.31,-567.19 517.99,-561.96"/>
<polygon fill="steelblue" stroke="steelblue" stroke-width="2" points="518.38,-565.44 528,-561 517.71,-558.47 518.38,-565.44"/>
</g>
<!-- ugen_6&#45;&gt;ugen_12 -->
<g id="edge21" class="edge">
<title>ugen_6:e&#45;&gt;ugen_12:w</title>
<path fill="none" stroke="steelblue" stroke-width="2" d="M456,-199C551.82,-199 437.61,-395.56 517.83,-410.15"/>
<polygon fill="steelblue" stroke="steelblue" stroke-width="2" points="517.74,-413.65 528,-411 518.33,-406.67 517.74,-413.65"/>
</g>
<!-- ugen_7&#45;&gt;ugen_13 -->
<g id="edge22" class="edge">
<title>ugen_7:e&#45;&gt;ugen_13:w</title>
<path fill="none" stroke="steelblue" stroke-width="2" d="M456,-49C551.82,-49 437.61,-245.56 517.83,-260.15"/>
<polygon fill="steelblue" stroke="steelblue" stroke-width="2" points="517.74,-263.65 528,-261 518.33,-256.67 517.74,-263.65"/>
</g>
<!-- ugen_8&#45;&gt;ugen_10 -->
<g id="edge23" class="edge">
<title>ugen_8:e&#45;&gt;ugen_10:w</title>
<path fill="none" stroke="salmon" stroke-width="2" d="M425,-335C562.39,-335 395.91,-619.96 517.87,-634.43"/>
<polygon fill="salmon" stroke="salmon" stroke-width="2" points="517.82,-637.93 528,-635 518.21,-630.94 517.82,-637.93"/>
</g>
<!-- ugen_8&#45;&gt;ugen_11 -->
<g id="edge24" class="edge">
<title>ugen_8:e&#45;&gt;ugen_11:w</title>
<path fill="none" stroke="salmon" stroke-width="2" d="M425,-335C502.24,-335 452.13,-471.83 517.92,-484.12"/>
<polygon fill="salmon" stroke="salmon" stroke-width="2" points="517.73,-487.62 528,-485 518.34,-480.64 517.73,-487.62"/>
</g>
<!-- ugen_8&#45;&gt;ugen_12 -->
<g id="edge25" class="edge">
<title>ugen_8:e&#45;&gt;ugen_12:w</title>
<path fill="none" stroke="salmon" stroke-width="2" d="M425,-335C467.2,-335 480.22,-335 517.87,-335"/>
<polygon fill="salmon" stroke="salmon" stroke-width="2" points="518,-338.5 528,-335 518,-331.5 518,-338.5"/>
</g>
<!-- ugen_8&#45;&gt;ugen_13 -->
<g id="edge26" class="edge">
<title>ugen_8:e&#45;&gt;ugen_13:w</title>
<path fill="none" stroke="salmon" stroke-width="2" d="M425,-335C502.24,-335 452.13,-198.17 517.92,-185.88"/>
<polygon fill="salmon" stroke="salmon" stroke-width="2" points="518.34,-189.36 528,-185 517.73,-182.38 518.34,-189.36"/>
</g>
<!-- ugen_9&#45;&gt;ugen_10 -->
<g id="edge27" class="edge">
<title>ugen_9:e&#45;&gt;ugen_10:w</title>
<path fill="none" stroke="salmon" stroke-width="2" d="M425,-456C521.37,-456 434.77,-641.81 517.91,-655.24"/>
<polygon fill="salmon" stroke="salmon" stroke-width="2" points="517.76,-658.73 528,-656 518.29,-651.75 517.76,-658.73"/>
</g>
<!-- ugen_9&#45;&gt;ugen_11 -->
<g id="edge28" class="edge">
<title>ugen_9:e&#45;&gt;ugen_11:w</title>
<path fill="none" stroke="salmon" stroke-width="2" d="M425,-456C472.31,-456 476.7,-499.22 517.97,-505.29"/>
<polygon fill="salmon" stroke="salmon" stroke-width="2" points="517.78,-508.79 528,-506 518.27,-501.81 517.78,-508.79"/>
</g>
<!-- ugen_9&#45;&gt;ugen_12 -->
<g id="edge29" class="edge">
<title>ugen_9:e&#45;&gt;ugen_12:w</title>
<path fill="none" stroke="salmon" stroke-width="2" d="M425,-456C485.19,-456 466.7,-367.01 517.98,-356.93"/>
<polygon fill="salmon" stroke="salmon" stroke-width="2" points="518.36,-360.41 528,-356 517.72,-353.44 518.36,-360.41"/>
</g>
<!-- ugen_9&#45;&gt;ugen_13 -->
<g id="edge30" class="edge">
<title>ugen_9:e&#45;&gt;ugen_13:w</title>
<path fill="none" stroke="salmon" stroke-width="2" d="M425,-456C541.53,-456 415.91,-220.91 517.78,-206.67"/>
<polygon fill="salmon" stroke="salmon" stroke-width="2" points="518.25,-210.15 528,-206 517.79,-203.17 518.25,-210.15"/>
</g>
<!-- ugen_0 -->
<g id="node1" class="node">
<title>ugen_0</title>
<path fill="#ee9572" stroke="black" stroke-width="2" d="M12,-719C12,-719 45,-719 45,-719 51,-719 57,-725 57,-731 57,-731 57,-775 57,-775 57,-781 51,-787 45,-787 45,-787 12,-787 12,-787 6,-787 0,-781 0,-775 0,-775 0,-731 0,-731 0,-725 6,-719 12,-719"/>
<text text-anchor="middle" x="28.5" y="-773.4" font-family="Arial" font-size="12.00">Control</text>
<text text-anchor="middle" x="28.5" y="-760.4" font-family="Arial" font-size="12.00">(scalar)</text>
<polyline fill="none" stroke="black" stroke-width="2" points="0,-753 57,-753 "/>
<text text-anchor="middle" x="28.5" y="-739.4" font-family="Arial" font-size="12.00">out:</text>
<text text-anchor="middle" x="28.5" y="-726.4" font-family="Arial" font-size="12.00">0.0</text>
</g>
<!-- ugen_1 -->
<g id="node2" class="node">
<title>ugen_1</title>
<path fill="#bcd2ee" stroke="black" stroke-width="2" d="M159,-578C159,-578 194,-578 194,-578 200,-578 206,-584 206,-590 206,-590 206,-684 206,-684 206,-690 200,-696 194,-696 194,-696 159,-696 159,-696 153,-696 147,-690 147,-684 147,-684 147,-590 147,-590 147,-584 153,-578 159,-578"/>
<text text-anchor="middle" x="176.5" y="-682.4" font-family="Arial" font-size="12.00">In</text>
<text text-anchor="middle" x="176.5" y="-669.4" font-family="Arial" font-size="12.00">(audio)</text>
<polyline fill="none" stroke="black" stroke-width="2" points="147,-662 206,-662 "/>
<text text-anchor="middle" x="165" y="-616.9" font-family="Arial" font-size="12.00">bus</text>
<polyline fill="none" stroke="black" stroke-width="2" points="183,-578 183,-662 "/>
<text text-anchor="middle" x="194.5" y="-648.4" font-family="Arial" font-size="12.00">0</text>
<polyline fill="none" stroke="black" stroke-width="2" points="183,-641 206,-641 "/>
<text text-anchor="middle" x="194.5" y="-627.4" font-family="Arial" font-size="12.00">1</text>
<polyline fill="none" stroke="black" stroke-width="2" points="183,-620 206,-620 "/>
<text text-anchor="middle" x="194.5" y="-606.4" font-family="Arial" font-size="12.00">2</text>
<polyline fill="none" stroke="black" stroke-width="2" points="183,-599 206,-599 "/>
<text text-anchor="middle" x="194.5" y="-585.4" font-family="Arial" font-size="12.00">3</text>
</g>
<!-- ugen_10 -->
<g id="node3" class="node">
<title>ugen_10</title>
<path fill="#bcd2ee" stroke="black" stroke-width="2" d="M540,-624.5C540,-624.5 676,-624.5 676,-624.5 682,-624.5 688,-630.5 688,-636.5 688,-636.5 688,-743.5 688,-743.5 688,-749.5 682,-755.5 676,-755.5 676,-755.5 540,-755.5 540,-755.5 534,-755.5 528,-749.5 528,-743.5 528,-743.5 528,-636.5 528,-636.5 528,-630.5 534,-624.5 540,-624.5"/>
<text text-anchor="middle" x="608" y="-741.9" font-family="Arial" font-size="12.00">AllpassC</text>
<text text-anchor="middle" x="608" y="-728.9" font-family="Arial" font-size="12.00">(audio)</text>
<polyline fill="none" stroke="black" stroke-width="2" points="528,-721.5 688,-721.5 "/>
<text text-anchor="middle" x="596.5" y="-707.9" font-family="Arial" font-size="12.00">source</text>
<polyline fill="none" stroke="black" stroke-width="2" points="528,-700.5 665,-700.5 "/>
<text text-anchor="middle" x="596.5" y="-686.9" font-family="Arial" font-size="12.00">maximum_delay_time:</text>
<text text-anchor="middle" x="596.5" y="-673.9" font-family="Arial" font-size="12.00">0.1</text>
<polyline fill="none" stroke="black" stroke-width="2" points="528,-666.5 665,-666.5 "/>
<text text-anchor="middle" x="596.5" y="-652.9" font-family="Arial" font-size="12.00">delay_time</text>
<polyline fill="none" stroke="black" stroke-width="2" points="528,-645.5 665,-645.5 "/>
<text text-anchor="middle" x="596.5" y="-631.9" font-family="Arial" font-size="12.00">decay_time</text>
<polyline fill="none" stroke="black" stroke-width="2" points="665,-624.5 665,-721.5 "/>
<text text-anchor="middle" x="676.5" y="-669.9" font-family="Arial" font-size="12.00">0</text>
</g>
<!-- ugen_11 -->
<g id="node4" class="node">
<title>ugen_11</title>
<path fill="#bcd2ee" stroke="black" stroke-width="2" d="M540,-474.5C540,-474.5 676,-474.5 676,-474.5 682,-474.5 688,-480.5 688,-486.5 688,-486.5 688,-593.5 688,-593.5 688,-599.5 682,-605.5 676,-605.5 676,-605.5 540,-605.5 540,-605.5 534,-605.5 528,-599.5 528,-593.5 528,-593.5 528,-486.5 528,-486.5 528,-480.5 534,-474.5 540,-474.5"/>
<text text-anchor="middle" x="608" y="-591.9" font-family="Arial" font-size="12.00">AllpassC</text>
<text text-anchor="middle" x="608" y="-578.9" font-family="Arial" font-size="12.00">(audio)</text>
<polyline fill="none" stroke="black" stroke-width="2" points="528,-571.5 688,-571.5 "/>
<text text-anchor="middle" x="596.5" y="-557.9" font-family="Arial" font-size="12.00">source</text>
<polyline fill="none" stroke="black" stroke-width="2" points="528,-550.5 665,-550.5 "/>
<text text-anchor="middle" x="596.5" y="-536.9" font-family="Arial" font-size="12.00">maximum_delay_time:</text>
<text text-anchor="middle" x="596.5" y="-523.9" font-family="Arial" font-size="12.00">0.1</text>
<polyline fill="none" stroke="black" stroke-width="2" points="528,-516.5 665,-516.5 "/>
<text text-anchor="middle" x="596.5" y="-502.9" font-family="Arial" font-size="12.00">delay_time</text>
<polyline fill="none" stroke="black" stroke-width="2" points="528,-495.5 665,-495.5 "/>
<text text-anchor="middle" x="596.5" y="-481.9" font-family="Arial" font-size="12.00">decay_time</text>
<polyline fill="none" stroke="black" stroke-width="2" points="665,-474.5 665,-571.5 "/>
<text text-anchor="middle" x="676.5" y="-519.9" font-family="Arial" font-size="12.00">0</text>
</g>
<!-- ugen_12 -->
<g id="node5" class="node">
<title>ugen_12</title>
<path fill="#bcd2ee" stroke="black" stroke-width="2" d="M540,-324.5C540,-324.5 676,-324.5 676,-324.5 682,-324.5 688,-330.5 688,-336.5 688,-336.5 688,-443.5 688,-443.5 688,-449.5 682,-455.5 676,-455.5 676,-455.5 540,-455.5 540,-455.5 534,-455.5 528,-449.5 528,-443.5 528,-443.5 528,-336.5 528,-336.5 528,-330.5 534,-324.5 540,-324.5"/>
<text text-anchor="middle" x="608" y="-441.9" font-family="Arial" font-size="12.00">AllpassC</text>
<text text-anchor="middle" x="608" y="-428.9" font-family="Arial" font-size="12.00">(audio)</text>
<polyline fill="none" stroke="black" stroke-width="2" points="528,-421.5 688,-421.5 "/>
<text text-anchor="middle" x="596.5" y="-407.9" font-family="Arial" font-size="12.00">source</text>
<polyline fill="none" stroke="black" stroke-width="2" points="528,-400.5 665,-400.5 "/>
<text text-anchor="middle" x="596.5" y="-386.9" font-family="Arial" font-size="12.00">maximum_delay_time:</text>
<text text-anchor="middle" x="596.5" y="-373.9" font-family="Arial" font-size="12.00">0.1</text>
<polyline fill="none" stroke="black" stroke-width="2" points="528,-366.5 665,-366.5 "/>
<text text-anchor="middle" x="596.5" y="-352.9" font-family="Arial" font-size="12.00">delay_time</text>
<polyline fill="none" stroke="black" stroke-width="2" points="528,-345.5 665,-345.5 "/>
<text text-anchor="middle" x="596.5" y="-331.9" font-family="Arial" font-size="12.00">decay_time</text>
<polyline fill="none" stroke="black" stroke-width="2" points="665,-324.5 665,-421.5 "/>
<text text-anchor="middle" x="676.5" y="-369.9" font-family="Arial" font-size="12.00">0</text>
</g>
<!-- ugen_13 -->
<g id="node6" class="node">
<title>ugen_13</title>
<path fill="#bcd2ee" stroke="black" stroke-width="2" d="M540,-174.5C540,-174.5 676,-174.5 676,-174.5 682,-174.5 688,-180.5 688,-186.5 688,-186.5 688,-293.5 688,-293.5 688,-299.5 682,-305.5 676,-305.5 676,-305.5 540,-305.5 540,-305.5 534,-305.5 528,-299.5 528,-293.5 528,-293.5 528,-186.5 528,-186.5 528,-180.5 534,-174.5 540,-174.5"/>
<text text-anchor="middle" x="608" y="-291.9" font-family="Arial" font-size="12.00">AllpassC</text>
<text text-anchor="middle" x="608" y="-278.9" font-family="Arial" font-size="12.00">(audio)</text>
<polyline fill="none" stroke="black" stroke-width="2" points="528,-271.5 688,-271.5 "/>
<text text-anchor="middle" x="596.5" y="-257.9" font-family="Arial" font-size="12.00">source</text>
<polyline fill="none" stroke="black" stroke-width="2" points="528,-250.5 665,-250.5 "/>
<text text-anchor="middle" x="596.5" y="-236.9" font-family="Arial" font-size="12.00">maximum_delay_time:</text>
<text text-anchor="middle" x="596.5" y="-223.9" font-family="Arial" font-size="12.00">0.1</text>
<polyline fill="none" stroke="black" stroke-width="2" points="528,-216.5 665,-216.5 "/>
<text text-anchor="middle" x="596.5" y="-202.9" font-family="Arial" font-size="12.00">delay_time</text>
<polyline fill="none" stroke="black" stroke-width="2" points="528,-195.5 665,-195.5 "/>
<text text-anchor="middle" x="596.5" y="-181.9" font-family="Arial" font-size="12.00">decay_time</text>
<polyline fill="none" stroke="black" stroke-width="2" points="665,-174.5 665,-271.5 "/>
<text text-anchor="middle" x="676.5" y="-219.9" font-family="Arial" font-size="12.00">0</text>
</g>
<!-- ugen_14 -->
<g id="node7" class="node">
<title>ugen_14</title>
<path fill="#bcd2ee" stroke="black" stroke-width="2" d="M772,-470.5C772,-470.5 802,-470.5 802,-470.5 808,-470.5 814,-476.5 814,-482.5 814,-482.5 814,-597.5 814,-597.5 814,-603.5 808,-609.5 802,-609.5 802,-609.5 772,-609.5 772,-609.5 766,-609.5 760,-603.5 760,-597.5 760,-597.5 760,-482.5 760,-482.5 760,-476.5 766,-470.5 772,-470.5"/>
<text text-anchor="middle" x="787" y="-595.9" font-family="Arial" font-size="12.00">Out</text>
<text text-anchor="middle" x="787" y="-582.9" font-family="Arial" font-size="12.00">(audio)</text>
<polyline fill="none" stroke="black" stroke-width="2" points="760,-575.5 814,-575.5 "/>
<text text-anchor="middle" x="787" y="-561.9" font-family="Arial" font-size="12.00">bus</text>
<polyline fill="none" stroke="black" stroke-width="2" points="760,-554.5 814,-554.5 "/>
<text text-anchor="middle" x="787" y="-540.9" font-family="Arial" font-size="12.00">source</text>
<polyline fill="none" stroke="black" stroke-width="2" points="760,-533.5 814,-533.5 "/>
<text text-anchor="middle" x="787" y="-519.9" font-family="Arial" font-size="12.00"> </text>
<polyline fill="none" stroke="black" stroke-width="2" points="760,-512.5 814,-512.5 "/>
<text text-anchor="middle" x="787" y="-498.9" font-family="Arial" font-size="12.00"> </text>
<polyline fill="none" stroke="black" stroke-width="2" points="760,-491.5 814,-491.5 "/>
<text text-anchor="middle" x="787" y="-477.9" font-family="Arial" font-size="12.00"> </text>
</g>
<!-- ugen_2 -->
<g id="node8" class="node">
<title>ugen_2</title>
<path fill="#ee9572" stroke="black" stroke-width="2" d="M141,-180C141,-180 212,-180 212,-180 218,-180 224,-186 224,-192 224,-192 224,-270 224,-270 224,-276 218,-282 212,-282 212,-282 141,-282 141,-282 135,-282 129,-276 129,-270 129,-270 129,-192 129,-192 129,-186 135,-180 141,-180"/>
<text text-anchor="middle" x="176.5" y="-268.4" font-family="Arial" font-size="12.00">ExpRand</text>
<text text-anchor="middle" x="176.5" y="-255.4" font-family="Arial" font-size="12.00">(scalar)</text>
<polyline fill="none" stroke="black" stroke-width="2" points="129,-248 224,-248 "/>
<text text-anchor="middle" x="165" y="-234.4" font-family="Arial" font-size="12.00">minimum:</text>
<text text-anchor="middle" x="165" y="-221.4" font-family="Arial" font-size="12.00">0.01</text>
<polyline fill="none" stroke="black" stroke-width="2" points="129,-214 201,-214 "/>
<text text-anchor="middle" x="165" y="-200.4" font-family="Arial" font-size="12.00">maximum:</text>
<text text-anchor="middle" x="165" y="-187.4" font-family="Arial" font-size="12.00">0.1</text>
<polyline fill="none" stroke="black" stroke-width="2" points="201,-180 201,-248 "/>
<text text-anchor="middle" x="212.5" y="-210.9" font-family="Arial" font-size="12.00">0</text>
</g>
<!-- ugen_3 -->
<g id="node9" class="node">
<title>ugen_3</title>
<path fill="#ee9572" stroke="black" stroke-width="2" d="M141,-405C141,-405 212,-405 212,-405 218,-405 224,-411 224,-417 224,-417 224,-495 224,-495 224,-501 218,-507 212,-507 212,-507 141,-507 141,-507 135,-507 129,-501 129,-495 129,-495 129,-417 129,-417 129,-411 135,-405 141,-405"/>
<text text-anchor="middle" x="176.5" y="-493.4" font-family="Arial" font-size="12.00">ExpRand</text>
<text text-anchor="middle" x="176.5" y="-480.4" font-family="Arial" font-size="12.00">(scalar)</text>
<polyline fill="none" stroke="black" stroke-width="2" points="129,-473 224,-473 "/>
<text text-anchor="middle" x="165" y="-459.4" font-family="Arial" font-size="12.00">minimum:</text>
<text text-anchor="middle" x="165" y="-446.4" font-family="Arial" font-size="12.00">0.01</text>
<polyline fill="none" stroke="black" stroke-width="2" points="129,-439 201,-439 "/>
<text text-anchor="middle" x="165" y="-425.4" font-family="Arial" font-size="12.00">maximum:</text>
<text text-anchor="middle" x="165" y="-412.4" font-family="Arial" font-size="12.00">0.1</text>
<polyline fill="none" stroke="black" stroke-width="2" points="201,-405 201,-473 "/>
<text text-anchor="middle" x="212.5" y="-435.9" font-family="Arial" font-size="12.00">0</text>
</g>
<!-- ugen_4 -->
<g id="node10" class="node">
<title>ugen_4</title>
<path fill="#bcd2ee" stroke="black" stroke-width="2" d="M308,-693.5C308,-693.5 444,-693.5 444,-693.5 450,-693.5 456,-699.5 456,-705.5 456,-705.5 456,-812.5 456,-812.5 456,-818.5 450,-824.5 444,-824.5 444,-824.5 308,-824.5 308,-824.5 302,-824.5 296,-818.5 296,-812.5 296,-812.5 296,-705.5 296,-705.5 296,-699.5 302,-693.5 308,-693.5"/>
<text text-anchor="middle" x="376" y="-810.9" font-family="Arial" font-size="12.00">AllpassC</text>
<text text-anchor="middle" x="376" y="-797.9" font-family="Arial" font-size="12.00">(audio)</text>
<polyline fill="none" stroke="black" stroke-width="2" points="296,-790.5 456,-790.5 "/>
<text text-anchor="middle" x="364.5" y="-776.9" font-family="Arial" font-size="12.00">source</text>
<polyline fill="none" stroke="black" stroke-width="2" points="296,-769.5 433,-769.5 "/>
<text text-anchor="middle" x="364.5" y="-755.9" font-family="Arial" font-size="12.00">maximum_delay_time:</text>
<text text-anchor="middle" x="364.5" y="-742.9" font-family="Arial" font-size="12.00">0.1</text>
<polyline fill="none" stroke="black" stroke-width="2" points="296,-735.5 433,-735.5 "/>
<text text-anchor="middle" x="364.5" y="-721.9" font-family="Arial" font-size="12.00">delay_time</text>
<polyline fill="none" stroke="black" stroke-width="2" points="296,-714.5 433,-714.5 "/>
<text text-anchor="middle" x="364.5" y="-700.9" font-family="Arial" font-size="12.00">decay_time</text>
<polyline fill="none" stroke="black" stroke-width="2" points="433,-693.5 433,-790.5 "/>
<text text-anchor="middle" x="444.5" y="-738.9" font-family="Arial" font-size="12.00">0</text>
</g>
<!-- ugen_5 -->
<g id="node11" class="node">
<title>ugen_5</title>
<path fill="#bcd2ee" stroke="black" stroke-width="2" d="M308,-543.5C308,-543.5 444,-543.5 444,-543.5 450,-543.5 456,-549.5 456,-555.5 456,-555.5 456,-662.5 456,-662.5 456,-668.5 450,-674.5 444,-674.5 444,-674.5 308,-674.5 308,-674.5 302,-674.5 296,-668.5 296,-662.5 296,-662.5 296,-555.5 296,-555.5 296,-549.5 302,-543.5 308,-543.5"/>
<text text-anchor="middle" x="376" y="-660.9" font-family="Arial" font-size="12.00">AllpassC</text>
<text text-anchor="middle" x="376" y="-647.9" font-family="Arial" font-size="12.00">(audio)</text>
<polyline fill="none" stroke="black" stroke-width="2" points="296,-640.5 456,-640.5 "/>
<text text-anchor="middle" x="364.5" y="-626.9" font-family="Arial" font-size="12.00">source</text>
<polyline fill="none" stroke="black" stroke-width="2" points="296,-619.5 433,-619.5 "/>
<text text-anchor="middle" x="364.5" y="-605.9" font-family="Arial" font-size="12.00">maximum_delay_time:</text>
<text text-anchor="middle" x="364.5" y="-592.9" font-family="Arial" font-size="12.00">0.1</text>
<polyline fill="none" stroke="black" stroke-width="2" points="296,-585.5 433,-585.5 "/>
<text text-anchor="middle" x="364.5" y="-571.9" font-family="Arial" font-size="12.00">delay_time</text>
<polyline fill="none" stroke="black" stroke-width="2" points="296,-564.5 433,-564.5 "/>
<text text-anchor="middle" x="364.5" y="-550.9" font-family="Arial" font-size="12.00">decay_time</text>
<polyline fill="none" stroke="black" stroke-width="2" points="433,-543.5 433,-640.5 "/>
<text text-anchor="middle" x="444.5" y="-588.9" font-family="Arial" font-size="12.00">0</text>
</g>
<!-- ugen_6 -->
<g id="node12" class="node">
<title>ugen_6</title>
<path fill="#bcd2ee" stroke="black" stroke-width="2" d="M308,-150.5C308,-150.5 444,-150.5 444,-150.5 450,-150.5 456,-156.5 456,-162.5 456,-162.5 456,-269.5 456,-269.5 456,-275.5 450,-281.5 444,-281.5 444,-281.5 308,-281.5 308,-281.5 302,-281.5 296,-275.5 296,-269.5 296,-269.5 296,-162.5 296,-162.5 296,-156.5 302,-150.5 308,-150.5"/>
<text text-anchor="middle" x="376" y="-267.9" font-family="Arial" font-size="12.00">AllpassC</text>
<text text-anchor="middle" x="376" y="-254.9" font-family="Arial" font-size="12.00">(audio)</text>
<polyline fill="none" stroke="black" stroke-width="2" points="296,-247.5 456,-247.5 "/>
<text text-anchor="middle" x="364.5" y="-233.9" font-family="Arial" font-size="12.00">source</text>
<polyline fill="none" stroke="black" stroke-width="2" points="296,-226.5 433,-226.5 "/>
<text text-anchor="middle" x="364.5" y="-212.9" font-family="Arial" font-size="12.00">maximum_delay_time:</text>
<text text-anchor="middle" x="364.5" y="-199.9" font-family="Arial" font-size="12.00">0.1</text>
<polyline fill="none" stroke="black" stroke-width="2" points="296,-192.5 433,-192.5 "/>
<text text-anchor="middle" x="364.5" y="-178.9" font-family="Arial" font-size="12.00">delay_time</text>
<polyline fill="none" stroke="black" stroke-width="2" points="296,-171.5 433,-171.5 "/>
<text text-anchor="middle" x="364.5" y="-157.9" font-family="Arial" font-size="12.00">decay_time</text>
<polyline fill="none" stroke="black" stroke-width="2" points="433,-150.5 433,-247.5 "/>
<text text-anchor="middle" x="444.5" y="-195.9" font-family="Arial" font-size="12.00">0</text>
</g>
<!-- ugen_7 -->
<g id="node13" class="node">
<title>ugen_7</title>
<path fill="#bcd2ee" stroke="black" stroke-width="2" d="M308,-0.5C308,-0.5 444,-0.5 444,-0.5 450,-0.5 456,-6.5 456,-12.5 456,-12.5 456,-119.5 456,-119.5 456,-125.5 450,-131.5 444,-131.5 444,-131.5 308,-131.5 308,-131.5 302,-131.5 296,-125.5 296,-119.5 296,-119.5 296,-12.5 296,-12.5 296,-6.5 302,-0.5 308,-0.5"/>
<text text-anchor="middle" x="376" y="-117.9" font-family="Arial" font-size="12.00">AllpassC</text>
<text text-anchor="middle" x="376" y="-104.9" font-family="Arial" font-size="12.00">(audio)</text>
<polyline fill="none" stroke="black" stroke-width="2" points="296,-97.5 456,-97.5 "/>
<text text-anchor="middle" x="364.5" y="-83.9" font-family="Arial" font-size="12.00">source</text>
<polyline fill="none" stroke="black" stroke-width="2" points="296,-76.5 433,-76.5 "/>
<text text-anchor="middle" x="364.5" y="-62.9" font-family="Arial" font-size="12.00">maximum_delay_time:</text>
<text text-anchor="middle" x="364.5" y="-49.9" font-family="Arial" font-size="12.00">0.1</text>
<polyline fill="none" stroke="black" stroke-width="2" points="296,-42.5 433,-42.5 "/>
<text text-anchor="middle" x="364.5" y="-28.9" font-family="Arial" font-size="12.00">delay_time</text>
<polyline fill="none" stroke="black" stroke-width="2" points="296,-21.5 433,-21.5 "/>
<text text-anchor="middle" x="364.5" y="-7.9" font-family="Arial" font-size="12.00">decay_time</text>
<polyline fill="none" stroke="black" stroke-width="2" points="433,-0.5 433,-97.5 "/>
<text text-anchor="middle" x="444.5" y="-45.9" font-family="Arial" font-size="12.00">0</text>
</g>
<!-- ugen_8 -->
<g id="node14" class="node">
<title>ugen_8</title>
<path fill="#ee9572" stroke="black" stroke-width="2" d="M340.5,-301C340.5,-301 411.5,-301 411.5,-301 417.5,-301 423.5,-307 423.5,-313 423.5,-313 423.5,-391 423.5,-391 423.5,-397 417.5,-403 411.5,-403 411.5,-403 340.5,-403 340.5,-403 334.5,-403 328.5,-397 328.5,-391 328.5,-391 328.5,-313 328.5,-313 328.5,-307 334.5,-301 340.5,-301"/>
<text text-anchor="middle" x="376" y="-389.4" font-family="Arial" font-size="12.00">ExpRand</text>
<text text-anchor="middle" x="376" y="-376.4" font-family="Arial" font-size="12.00">(scalar)</text>
<polyline fill="none" stroke="black" stroke-width="2" points="328.5,-369 423.5,-369 "/>
<text text-anchor="middle" x="364.5" y="-355.4" font-family="Arial" font-size="12.00">minimum:</text>
<text text-anchor="middle" x="364.5" y="-342.4" font-family="Arial" font-size="12.00">0.01</text>
<polyline fill="none" stroke="black" stroke-width="2" points="328.5,-335 400.5,-335 "/>
<text text-anchor="middle" x="364.5" y="-321.4" font-family="Arial" font-size="12.00">maximum:</text>
<text text-anchor="middle" x="364.5" y="-308.4" font-family="Arial" font-size="12.00">0.1</text>
<polyline fill="none" stroke="black" stroke-width="2" points="400.5,-301 400.5,-369 "/>
<text text-anchor="middle" x="412" y="-331.9" font-family="Arial" font-size="12.00">0</text>
</g>
<!-- ugen_9 -->
<g id="node15" class="node">
<title>ugen_9</title>
<path fill="#ee9572" stroke="black" stroke-width="2" d="M340.5,-422C340.5,-422 411.5,-422 411.5,-422 417.5,-422 423.5,-428 423.5,-434 423.5,-434 423.5,-512 423.5,-512 423.5,-518 417.5,-524 411.5,-524 411.5,-524 340.5,-524 340.5,-524 334.5,-524 328.5,-518 328.5,-512 328.5,-512 328.5,-434 328.5,-434 328.5,-428 334.5,-422 340.5,-422"/>
<text text-anchor="middle" x="376" y="-510.4" font-family="Arial" font-size="12.00">ExpRand</text>
<text text-anchor="middle" x="376" y="-497.4" font-family="Arial" font-size="12.00">(scalar)</text>
<polyline fill="none" stroke="black" stroke-width="2" points="328.5,-490 423.5,-490 "/>
<text text-anchor="middle" x="364.5" y="-476.4" font-family="Arial" font-size="12.00">minimum:</text>
<text text-anchor="middle" x="364.5" y="-463.4" font-family="Arial" font-size="12.00">0.01</text>
<polyline fill="none" stroke="black" stroke-width="2" points="328.5,-456 400.5,-456 "/>
<text text-anchor="middle" x="364.5" y="-442.4" font-family="Arial" font-size="12.00">maximum:</text>
<text text-anchor="middle" x="364.5" y="-429.4" font-family="Arial" font-size="12.00">0.1</text>
<polyline fill="none" stroke="black" stroke-width="2" points="400.5,-422 400.5,-490 "/>
<text text-anchor="middle" x="412" y="-452.9" font-family="Arial" font-size="12.00">0</text>
</g>
</g>
</svg>
