<?xml version="1.0" encoding="UTF-8" standalone="no"?>
<!DOCTYPE svg PUBLIC "-//W3C//DTD SVG 1.1//EN"
 "http://www.w3.org/Graphics/SVG/1.1/DTD/svg11.dtd">
<!-- Generated by graphviz version 2.43.0 (0)
 -->
<!-- Title: synthdef_... Pages: 1 -->
<svg width="609pt" height="275pt"
 viewBox="0.00 0.00 609.00 274.50" xmlns="http://www.w3.org/2000/svg" xmlns:xlink="http://www.w3.org/1999/xlink">
<g id="graph0" class="graph" transform="scale(1 1) rotate(0) translate(4 270.5)">
<title>synthdef_...</title>
<!-- ugen_0&#45;&gt;ugen_1 -->
<g id="edge1" class="edge">
<title>ugen_0:e&#45;&gt;ugen_1:w</title>
<path fill="none" stroke="steelblue" stroke-width="2" d="M95,-198C123.6,-198 132.73,-190.92 156.92,-189.32"/>
<polygon fill="steelblue" stroke="steelblue" stroke-width="2" points="157.12,-192.82 167,-189 156.89,-185.82 157.12,-192.82"/>
</g>
<!-- ugen_1&#45;&gt;ugen_3 -->
<g id="edge2" class="edge">
<title>ugen_1:e&#45;&gt;ugen_3:w</title>
<path fill="none" stroke="steelblue" stroke-width="2" d="M263,-189C291.83,-189 300.58,-178.78 324.86,-176.46"/>
<polygon fill="steelblue" stroke="steelblue" stroke-width="2" points="325.17,-179.95 335,-176 324.85,-172.96 325.17,-179.95"/>
</g>
<!-- ugen_2&#45;&gt;ugen_3 -->
<g id="edge3" class="edge">
<title>ugen_2:e&#45;&gt;ugen_3:w</title>
<path fill="none" stroke="goldenrod" stroke-width="2" d="M256,-11C325.29,-11 268.44,-140.75 324.93,-153.92"/>
<polygon fill="goldenrod" stroke="goldenrod" stroke-width="2" points="324.68,-157.42 335,-155 325.43,-150.46 324.68,-157.42"/>
</g>
<!-- ugen_2&#45;&gt;ugen_7 -->
<g id="edge4" class="edge">
<title>ugen_2:e&#45;&gt;ugen_7:w</title>
<path fill="none" stroke="goldenrod" stroke-width="2" d="M256,-11C288.97,-11 296.84,-30.37 324.72,-34.31"/>
<polygon fill="goldenrod" stroke="goldenrod" stroke-width="2" points="324.79,-37.82 335,-35 325.26,-30.84 324.79,-37.82"/>
</g>
<!-- ugen_3&#45;&gt;ugen_4 -->
<g id="edge5" class="edge">
<title>ugen_3:e&#45;&gt;ugen_4:w</title>
<path fill="none" stroke="steelblue" stroke-width="2" d="M433,-165C461.38,-165 470.88,-165 494.98,-165"/>
<polygon fill="steelblue" stroke="steelblue" stroke-width="2" points="495,-168.5 505,-165 495,-161.5 495,-168.5"/>
</g>
<!-- ugen_5&#45;&gt;ugen_6 -->
<g id="edge6" class="edge">
<title>ugen_5:e&#45;&gt;ugen_6:w</title>
<path fill="none" stroke="steelblue" stroke-width="2" d="M95,-77C123.55,-77 132.76,-83.29 156.93,-84.72"/>
<polygon fill="steelblue" stroke="steelblue" stroke-width="2" points="156.91,-88.22 167,-85 157.1,-81.22 156.91,-88.22"/>
</g>
<!-- ugen_6&#45;&gt;ugen_7 -->
<g id="edge7" class="edge">
<title>ugen_6:e&#45;&gt;ugen_7:w</title>
<path fill="none" stroke="steelblue" stroke-width="2" d="M263,-85C293.72,-85 299.47,-62 324.73,-56.96"/>
<polygon fill="steelblue" stroke="steelblue" stroke-width="2" points="325.37,-60.42 335,-56 324.72,-53.45 325.37,-60.42"/>
</g>
<!-- ugen_7&#45;&gt;ugen_8 -->
<g id="edge8" class="edge">
<title>ugen_7:e&#45;&gt;ugen_8:w</title>
<path fill="none" stroke="steelblue" stroke-width="2" d="M433,-45C461.38,-45 470.88,-45 494.98,-45"/>
<polygon fill="steelblue" stroke="steelblue" stroke-width="2" points="495,-48.5 505,-45 495,-41.5 495,-48.5"/>
</g>
<!-- ugen_0 -->
<g id="node1" class="node">
<title>ugen_0</title>
<path fill="#bcd2ee" stroke="black" stroke-width="2" d="M12,-164C12,-164 83,-164 83,-164 89,-164 95,-170 95,-176 95,-176 95,-254 95,-254 95,-260 89,-266 83,-266 83,-266 12,-266 12,-266 6,-266 0,-260 0,-254 0,-254 0,-176 0,-176 0,-170 6,-164 12,-164"/>
<text text-anchor="middle" x="47.5" y="-252.4" font-family="Arial" font-size="12.00">SinOsc</text>
<text text-anchor="middle" x="47.5" y="-239.4" font-family="Arial" font-size="12.00">(audio)</text>
<polyline fill="none" stroke="black" stroke-width="2" points="0,-232 95,-232 "/>
<text text-anchor="middle" x="36" y="-218.4" font-family="Arial" font-size="12.00">frequency:</text>
<text text-anchor="middle" x="36" y="-205.4" font-family="Arial" font-size="12.00">440.0</text>
<polyline fill="none" stroke="black" stroke-width="2" points="0,-198 72,-198 "/>
<text text-anchor="middle" x="36" y="-184.4" font-family="Arial" font-size="12.00">phase:</text>
<text text-anchor="middle" x="36" y="-171.4" font-family="Arial" font-size="12.00">0.0</text>
<polyline fill="none" stroke="black" stroke-width="2" points="72,-164 72,-232 "/>
<text text-anchor="middle" x="83.5" y="-194.9" font-family="Arial" font-size="12.00">0</text>
</g>
<!-- ugen_1 -->
<g id="node2" class="node">
<title>ugen_1</title>
<path fill="#bcd2ee" stroke="black" stroke-width="2" d="M179,-179C179,-179 251,-179 251,-179 257,-179 263,-185 263,-191 263,-191 263,-235 263,-235 263,-241 257,-247 251,-247 251,-247 179,-247 179,-247 173,-247 167,-241 167,-235 167,-235 167,-191 167,-191 167,-185 173,-179 179,-179"/>
<text text-anchor="middle" x="215" y="-233.4" font-family="Arial" font-size="12.00">UnaryOpUGen</text>
<text text-anchor="middle" x="215" y="-220.4" font-family="Arial" font-size="12.00">[HZ_TO_MIDI]</text>
<text text-anchor="middle" x="215" y="-207.4" font-family="Arial" font-size="12.00">(audio)</text>
<polyline fill="none" stroke="black" stroke-width="2" points="167,-200 263,-200 "/>
<text text-anchor="middle" x="198.5" y="-186.4" font-family="Arial" font-size="12.00">source</text>
<polyline fill="none" stroke="black" stroke-width="2" points="230,-179 230,-200 "/>
<text text-anchor="middle" x="246.5" y="-186.4" font-family="Arial" font-size="12.00">0</text>
</g>
<!-- ugen_2 -->
<g id="node3" class="node">
<title>ugen_2</title>
<path fill="#eedc82" stroke="black" stroke-width="2" d="M187.5,-0.5C187.5,-0.5 242.5,-0.5 242.5,-0.5 248.5,-0.5 254.5,-6.5 254.5,-12.5 254.5,-12.5 254.5,-43.5 254.5,-43.5 254.5,-49.5 248.5,-55.5 242.5,-55.5 242.5,-55.5 187.5,-55.5 187.5,-55.5 181.5,-55.5 175.5,-49.5 175.5,-43.5 175.5,-43.5 175.5,-12.5 175.5,-12.5 175.5,-6.5 181.5,-0.5 187.5,-0.5"/>
<text text-anchor="middle" x="215" y="-41.9" font-family="Arial" font-size="12.00">WhiteNoise</text>
<text text-anchor="middle" x="215" y="-28.9" font-family="Arial" font-size="12.00">(control)</text>
<polyline fill="none" stroke="black" stroke-width="2" points="175.5,-21.5 254.5,-21.5 "/>
<text text-anchor="middle" x="215" y="-7.9" font-family="Arial" font-size="12.00">0</text>
</g>
<!-- ugen_3 -->
<g id="node4" class="node">
<title>ugen_3</title>
<path fill="#bcd2ee" stroke="black" stroke-width="2" d="M347,-144.5C347,-144.5 421,-144.5 421,-144.5 427,-144.5 433,-150.5 433,-156.5 433,-156.5 433,-221.5 433,-221.5 433,-227.5 427,-233.5 421,-233.5 421,-233.5 347,-233.5 347,-233.5 341,-233.5 335,-227.5 335,-221.5 335,-221.5 335,-156.5 335,-156.5 335,-150.5 341,-144.5 347,-144.5"/>
<text text-anchor="middle" x="384" y="-219.9" font-family="Arial" font-size="12.00">BinaryOpUGen</text>
<text text-anchor="middle" x="384" y="-206.9" font-family="Arial" font-size="12.00">[ADDITION]</text>
<text text-anchor="middle" x="384" y="-193.9" font-family="Arial" font-size="12.00">(audio)</text>
<polyline fill="none" stroke="black" stroke-width="2" points="335,-186.5 433,-186.5 "/>
<text text-anchor="middle" x="363.5" y="-172.9" font-family="Arial" font-size="12.00">left</text>
<polyline fill="none" stroke="black" stroke-width="2" points="335,-165.5 392,-165.5 "/>
<text text-anchor="middle" x="363.5" y="-151.9" font-family="Arial" font-size="12.00">right</text>
<polyline fill="none" stroke="black" stroke-width="2" points="392,-144.5 392,-186.5 "/>
<text text-anchor="middle" x="412.5" y="-162.4" font-family="Arial" font-size="12.00">0</text>
</g>
<!-- ugen_4 -->
<g id="node5" class="node">
<title>ugen_4</title>
<path fill="#bcd2ee" stroke="black" stroke-width="2" d="M517,-155C517,-155 589,-155 589,-155 595,-155 601,-161 601,-167 601,-167 601,-211 601,-211 601,-217 595,-223 589,-223 589,-223 517,-223 517,-223 511,-223 505,-217 505,-211 505,-211 505,-167 505,-167 505,-161 511,-155 517,-155"/>
<text text-anchor="middle" x="553" y="-209.4" font-family="Arial" font-size="12.00">UnaryOpUGen</text>
<text text-anchor="middle" x="553" y="-196.4" font-family="Arial" font-size="12.00">[MIDI_TO_HZ]</text>
<text text-anchor="middle" x="553" y="-183.4" font-family="Arial" font-size="12.00">(audio)</text>
<polyline fill="none" stroke="black" stroke-width="2" points="505,-176 601,-176 "/>
<text text-anchor="middle" x="536.5" y="-162.4" font-family="Arial" font-size="12.00">source</text>
<polyline fill="none" stroke="black" stroke-width="2" points="568,-155 568,-176 "/>
<text text-anchor="middle" x="584.5" y="-162.4" font-family="Arial" font-size="12.00">0</text>
</g>
<!-- ugen_5 -->
<g id="node6" class="node">
<title>ugen_5</title>
<path fill="#bcd2ee" stroke="black" stroke-width="2" d="M12,-43C12,-43 83,-43 83,-43 89,-43 95,-49 95,-55 95,-55 95,-133 95,-133 95,-139 89,-145 83,-145 83,-145 12,-145 12,-145 6,-145 0,-139 0,-133 0,-133 0,-55 0,-55 0,-49 6,-43 12,-43"/>
<text text-anchor="middle" x="47.5" y="-131.4" font-family="Arial" font-size="12.00">SinOsc</text>
<text text-anchor="middle" x="47.5" y="-118.4" font-family="Arial" font-size="12.00">(audio)</text>
<polyline fill="none" stroke="black" stroke-width="2" points="0,-111 95,-111 "/>
<text text-anchor="middle" x="36" y="-97.4" font-family="Arial" font-size="12.00">frequency:</text>
<text text-anchor="middle" x="36" y="-84.4" font-family="Arial" font-size="12.00">443.0</text>
<polyline fill="none" stroke="black" stroke-width="2" points="0,-77 72,-77 "/>
<text text-anchor="middle" x="36" y="-63.4" font-family="Arial" font-size="12.00">phase:</text>
<text text-anchor="middle" x="36" y="-50.4" font-family="Arial" font-size="12.00">0.0</text>
<polyline fill="none" stroke="black" stroke-width="2" points="72,-43 72,-111 "/>
<text text-anchor="middle" x="83.5" y="-73.9" font-family="Arial" font-size="12.00">0</text>
</g>
<!-- ugen_6 -->
<g id="node7" class="node">
<title>ugen_6</title>
<path fill="#bcd2ee" stroke="black" stroke-width="2" d="M179,-75C179,-75 251,-75 251,-75 257,-75 263,-81 263,-87 263,-87 263,-131 263,-131 263,-137 257,-143 251,-143 251,-143 179,-143 179,-143 173,-143 167,-137 167,-131 167,-131 167,-87 167,-87 167,-81 173,-75 179,-75"/>
<text text-anchor="middle" x="215" y="-129.4" font-family="Arial" font-size="12.00">UnaryOpUGen</text>
<text text-anchor="middle" x="215" y="-116.4" font-family="Arial" font-size="12.00">[HZ_TO_MIDI]</text>
<text text-anchor="middle" x="215" y="-103.4" font-family="Arial" font-size="12.00">(audio)</text>
<polyline fill="none" stroke="black" stroke-width="2" points="167,-96 263,-96 "/>
<text text-anchor="middle" x="198.5" y="-82.4" font-family="Arial" font-size="12.00">source</text>
<polyline fill="none" stroke="black" stroke-width="2" points="230,-75 230,-96 "/>
<text text-anchor="middle" x="246.5" y="-82.4" font-family="Arial" font-size="12.00">0</text>
</g>
<!-- ugen_7 -->
<g id="node8" class="node">
<title>ugen_7</title>
<path fill="#bcd2ee" stroke="black" stroke-width="2" d="M347,-24.5C347,-24.5 421,-24.5 421,-24.5 427,-24.5 433,-30.5 433,-36.5 433,-36.5 433,-101.5 433,-101.5 433,-107.5 427,-113.5 421,-113.5 421,-113.5 347,-113.5 347,-113.5 341,-113.5 335,-107.5 335,-101.5 335,-101.5 335,-36.5 335,-36.5 335,-30.5 341,-24.5 347,-24.5"/>
<text text-anchor="middle" x="384" y="-99.9" font-family="Arial" font-size="12.00">BinaryOpUGen</text>
<text text-anchor="middle" x="384" y="-86.9" font-family="Arial" font-size="12.00">[ADDITION]</text>
<text text-anchor="middle" x="384" y="-73.9" font-family="Arial" font-size="12.00">(audio)</text>
<polyline fill="none" stroke="black" stroke-width="2" points="335,-66.5 433,-66.5 "/>
<text text-anchor="middle" x="363.5" y="-52.9" font-family="Arial" font-size="12.00">left</text>
<polyline fill="none" stroke="black" stroke-width="2" points="335,-45.5 392,-45.5 "/>
<text text-anchor="middle" x="363.5" y="-31.9" font-family="Arial" font-size="12.00">right</text>
<polyline fill="none" stroke="black" stroke-width="2" points="392,-24.5 392,-66.5 "/>
<text text-anchor="middle" x="412.5" y="-42.4" font-family="Arial" font-size="12.00">0</text>
</g>
<!-- ugen_8 -->
<g id="node9" class="node">
<title>ugen_8</title>
<path fill="#bcd2ee" stroke="black" stroke-width="2" d="M517,-35C517,-35 589,-35 589,-35 595,-35 601,-41 601,-47 601,-47 601,-91 601,-91 601,-97 595,-103 589,-103 589,-103 517,-103 517,-103 511,-103 505,-97 505,-91 505,-91 505,-47 505,-47 505,-41 511,-35 517,-35"/>
<text text-anchor="middle" x="553" y="-89.4" font-family="Arial" font-size="12.00">UnaryOpUGen</text>
<text text-anchor="middle" x="553" y="-76.4" font-family="Arial" font-size="12.00">[MIDI_TO_HZ]</text>
<text text-anchor="middle" x="553" y="-63.4" font-family="Arial" font-size="12.00">(audio)</text>
<polyline fill="none" stroke="black" stroke-width="2" points="505,-56 601,-56 "/>
<text text-anchor="middle" x="536.5" y="-42.4" font-family="Arial" font-size="12.00">source</text>
<polyline fill="none" stroke="black" stroke-width="2" points="568,-35 568,-56 "/>
<text text-anchor="middle" x="584.5" y="-42.4" font-family="Arial" font-size="12.00">0</text>
</g>
</g>
</svg>
