<?xml version="1.0" encoding="UTF-8" standalone="no"?>
<!DOCTYPE svg PUBLIC "-//W3C//DTD SVG 1.1//EN"
 "http://www.w3.org/Graphics/SVG/1.1/DTD/svg11.dtd">
<!-- Generated by graphviz version 2.49.1 (20210923.0004)
 -->
<!-- Title: synthdef_f48b4d830ee617727b680aaa7bbdd130 Pages: 1 -->
<svg width="1437pt" height="470pt"
 viewBox="0.00 0.00 1437.00 470.38" xmlns="http://www.w3.org/2000/svg" xmlns:xlink="http://www.w3.org/1999/xlink">
<g id="graph0" class="graph" transform="scale(1 1) rotate(0) translate(4 466.38)">
<title>synthdef_f48b4d830ee617727b680aaa7bbdd130</title>
<!-- ugen_0&#45;&gt;ugen_1 -->
<g id="edge1" class="edge">
<title>ugen_0:e&#45;&gt;ugen_1:w</title>
<path fill="none" stroke="salmon" stroke-width="2" d="M63,-306.15C91.38,-306.15 100.88,-306.15 124.98,-306.15"/>
<polygon fill="salmon" stroke="salmon" stroke-width="2" points="125,-309.65 135,-306.15 125,-302.65 125,-309.65"/>
</g>
<!-- ugen_0&#45;&gt;ugen_12 -->
<g id="edge2" class="edge">
<title>ugen_0:e&#45;&gt;ugen_12:w</title>
<path fill="none" stroke="salmon" stroke-width="2" d="M63,-272.15C139.36,-272.15 72.3,-384.56 135,-428.15 225.77,-491.24 272.45,-447.15 383,-447.15 383,-447.15 383,-447.15 1031,-447.15 1189.73,-447.15 1211.87,-330.33 1364.74,-325.31"/>
<polygon fill="salmon" stroke="salmon" stroke-width="2" points="1365.06,-328.81 1375,-325.15 1364.94,-321.81 1365.06,-328.81"/>
</g>
<!-- ugen_0&#45;&gt;ugen_3 -->
<g id="edge3" class="edge">
<title>ugen_0:e&#45;&gt;ugen_3:w</title>
<path fill="none" stroke="salmon" stroke-width="2" d="M63,-272.15C96.21,-272.15 102.09,-256.63 135,-252.15 182.56,-245.66 199.68,-231.47 243,-252.15 301.84,-280.23 286.15,-352.92 342.84,-360.5"/>
<polygon fill="salmon" stroke="salmon" stroke-width="2" points="342.8,-364.01 353,-361.15 343.24,-357.02 342.8,-364.01"/>
</g>
<!-- ugen_1&#45;&gt;ugen_2 -->
<g id="edge4" class="edge">
<title>ugen_1:e&#45;&gt;ugen_2:w</title>
<path fill="none" stroke="goldenrod" stroke-width="2" d="M243,-323.15C278.15,-323.15 276.77,-282.44 304.79,-274.48"/>
<polygon fill="goldenrod" stroke="goldenrod" stroke-width="2" points="305.54,-277.92 315,-273.15 304.63,-270.97 305.54,-277.92"/>
</g>
<!-- ugen_10&#45;&gt;ugen_11 -->
<g id="edge5" class="edge">
<title>ugen_10:e&#45;&gt;ugen_11:w</title>
<path fill="none" stroke="steelblue" stroke-width="2" d="M1110,-193.15C1138.38,-193.15 1147.88,-193.15 1171.98,-193.15"/>
<polygon fill="steelblue" stroke="steelblue" stroke-width="2" points="1172,-196.65 1182,-193.15 1172,-189.65 1172,-196.65"/>
</g>
<!-- ugen_11&#45;&gt;ugen_12 -->
<g id="edge6" class="edge">
<title>ugen_11:e&#45;&gt;ugen_12:w</title>
<path fill="none" stroke="steelblue" stroke-width="2" d="M1303,-182.15C1362.15,-182.15 1318.14,-289.82 1364.8,-302.86"/>
<polygon fill="steelblue" stroke="steelblue" stroke-width="2" points="1364.64,-306.37 1375,-304.15 1365.52,-299.42 1364.64,-306.37"/>
</g>
<!-- ugen_2&#45;&gt;ugen_11 -->
<g id="edge7" class="edge">
<title>ugen_2:e&#45;&gt;ugen_11:w</title>
<path fill="none" stroke="goldenrod" stroke-width="2" d="M453,-273.15C545.8,-273.15 458.64,-142.02 525,-77.15 589.82,-13.77 628.57,-26.01 718,-11.15 788.15,0.52 808.99,6 878,-11.15 882.18,-12.19 1122.45,-142.44 1172.85,-167.87"/>
<polygon fill="goldenrod" stroke="goldenrod" stroke-width="2" points="1171.46,-171.08 1182,-172.15 1174.42,-164.74 1171.46,-171.08"/>
</g>
<!-- ugen_2&#45;&gt;ugen_4 -->
<g id="edge8" class="edge">
<title>ugen_2:e&#45;&gt;ugen_4:w</title>
<path fill="none" stroke="goldenrod" stroke-width="2" d="M453,-273.15C492.96,-273.15 483.5,-329.13 514.97,-338.75"/>
<polygon fill="goldenrod" stroke="goldenrod" stroke-width="2" points="514.61,-342.23 525,-340.15 515.58,-335.3 514.61,-342.23"/>
</g>
<!-- ugen_3&#45;&gt;ugen_4 -->
<g id="edge9" class="edge">
<title>ugen_3:e&#45;&gt;ugen_4:w</title>
<path fill="none" stroke="steelblue" stroke-width="2" d="M415,-361.15C460.36,-361.15 474.15,-361.15 514.95,-361.15"/>
<polygon fill="steelblue" stroke="steelblue" stroke-width="2" points="515,-364.65 525,-361.15 515,-357.65 515,-364.65"/>
</g>
<!-- ugen_4&#45;&gt;ugen_7 -->
<g id="edge10" class="edge">
<title>ugen_4:e&#45;&gt;ugen_7:w</title>
<path fill="none" stroke="steelblue" stroke-width="2" d="M646,-350.15C674.38,-350.15 683.88,-350.15 707.98,-350.15"/>
<polygon fill="steelblue" stroke="steelblue" stroke-width="2" points="708,-353.65 718,-350.15 708,-346.65 708,-353.65"/>
</g>
<!-- ugen_5&#45;&gt;ugen_7 -->
<g id="edge11" class="edge">
<title>ugen_5:e&#45;&gt;ugen_7:w</title>
<path fill="none" stroke="salmon" stroke-width="2" d="M634.5,-121.15C708.19,-121.15 647.15,-259.57 707.68,-273.09"/>
<polygon fill="salmon" stroke="salmon" stroke-width="2" points="707.69,-276.61 718,-274.15 708.41,-269.64 707.69,-276.61"/>
</g>
<!-- ugen_6&#45;&gt;ugen_7 -->
<g id="edge12" class="edge">
<title>ugen_6:e&#45;&gt;ugen_7:w</title>
<path fill="none" stroke="salmon" stroke-width="2" d="M634.5,-242.15C674.68,-242.15 674.45,-286.43 707.68,-294.04"/>
<polygon fill="salmon" stroke="salmon" stroke-width="2" points="707.68,-297.56 718,-295.15 708.43,-290.6 707.68,-297.56"/>
</g>
<!-- ugen_7&#45;&gt;ugen_10 -->
<g id="edge13" class="edge">
<title>ugen_7:e&#45;&gt;ugen_10:w</title>
<path fill="none" stroke="steelblue" stroke-width="2" d="M878,-312.15C922.4,-312.15 905.19,-243.31 939.97,-232.55"/>
<polygon fill="steelblue" stroke="steelblue" stroke-width="2" points="940.58,-236 950,-231.15 939.61,-229.07 940.58,-236"/>
</g>
<!-- ugen_8&#45;&gt;ugen_10 -->
<g id="edge14" class="edge">
<title>ugen_8:e&#45;&gt;ugen_10:w</title>
<path fill="none" stroke="salmon" stroke-width="2" d="M847,-55.15C907.19,-55.15 888.7,-144.14 939.98,-154.22"/>
<polygon fill="salmon" stroke="salmon" stroke-width="2" points="939.72,-157.71 950,-155.15 940.36,-150.74 939.72,-157.71"/>
</g>
<!-- ugen_9&#45;&gt;ugen_10 -->
<g id="edge15" class="edge">
<title>ugen_9:e&#45;&gt;ugen_10:w</title>
<path fill="none" stroke="salmon" stroke-width="2" d="M847,-176.15C889.2,-176.15 902.22,-176.15 939.87,-176.15"/>
<polygon fill="salmon" stroke="salmon" stroke-width="2" points="940,-179.65 950,-176.15 940,-172.65 940,-179.65"/>
</g>
<!-- ugen_0 -->
<g id="node1" class="node">
<title>ugen_0</title>
<path fill="#ee9572" stroke="black" stroke-width="2" d="M12,-255.15C12,-255.15 51,-255.15 51,-255.15 57,-255.15 63,-261.15 63,-267.15 63,-267.15 63,-345.15 63,-345.15 63,-351.15 57,-357.15 51,-357.15 51,-357.15 12,-357.15 12,-357.15 6,-357.15 0,-351.15 0,-345.15 0,-345.15 0,-267.15 0,-267.15 0,-261.15 6,-255.15 12,-255.15"/>
<text text-anchor="middle" x="31.5" y="-343.55" font-family="Arial" font-size="12.00">Control</text>
<text text-anchor="middle" x="31.5" y="-330.55" font-family="Arial" font-size="12.00">(scalar)</text>
<polyline fill="none" stroke="black" stroke-width="2" points="0,-323.15 63,-323.15 "/>
<text text-anchor="middle" x="31.5" y="-309.55" font-family="Arial" font-size="12.00">duration:</text>
<text text-anchor="middle" x="31.5" y="-296.55" font-family="Arial" font-size="12.00">1.0</text>
<polyline fill="none" stroke="black" stroke-width="2" points="0,-289.15 63,-289.15 "/>
<text text-anchor="middle" x="31.5" y="-275.55" font-family="Arial" font-size="12.00">out:</text>
<text text-anchor="middle" x="31.5" y="-262.55" font-family="Arial" font-size="12.00">0.0</text>
</g>
<!-- ugen_1 -->
<g id="node2" class="node">
<title>ugen_1</title>
<path fill="#eedc82" stroke="black" stroke-width="2" d="M147,-261.65C147,-261.65 231,-261.65 231,-261.65 237,-261.65 243,-267.65 243,-273.65 243,-273.65 243,-406.65 243,-406.65 243,-412.65 237,-418.65 231,-418.65 231,-418.65 147,-418.65 147,-418.65 141,-418.65 135,-412.65 135,-406.65 135,-406.65 135,-273.65 135,-273.65 135,-267.65 141,-261.65 147,-261.65"/>
<text text-anchor="middle" x="189" y="-405.05" font-family="Arial" font-size="12.00">Line</text>
<text text-anchor="middle" x="189" y="-392.05" font-family="Arial" font-size="12.00">(control)</text>
<polyline fill="none" stroke="black" stroke-width="2" points="135,-384.65 243,-384.65 "/>
<text text-anchor="middle" x="177.5" y="-371.05" font-family="Arial" font-size="12.00">start:</text>
<text text-anchor="middle" x="177.5" y="-358.05" font-family="Arial" font-size="12.00">0.0</text>
<polyline fill="none" stroke="black" stroke-width="2" points="135,-350.65 220,-350.65 "/>
<text text-anchor="middle" x="177.5" y="-337.05" font-family="Arial" font-size="12.00">stop:</text>
<text text-anchor="middle" x="177.5" y="-324.05" font-family="Arial" font-size="12.00">1.0</text>
<polyline fill="none" stroke="black" stroke-width="2" points="135,-316.65 220,-316.65 "/>
<text text-anchor="middle" x="177.5" y="-303.05" font-family="Arial" font-size="12.00">duration</text>
<polyline fill="none" stroke="black" stroke-width="2" points="135,-295.65 220,-295.65 "/>
<text text-anchor="middle" x="177.5" y="-282.05" font-family="Arial" font-size="12.00">done_action:</text>
<text text-anchor="middle" x="177.5" y="-269.05" font-family="Arial" font-size="12.00">2.0</text>
<polyline fill="none" stroke="black" stroke-width="2" points="220,-261.65 220,-384.65 "/>
<text text-anchor="middle" x="231.5" y="-320.05" font-family="Arial" font-size="12.00">0</text>
</g>
<!-- ugen_10 -->
<g id="node3" class="node">
<title>ugen_10</title>
<path fill="#bcd2ee" stroke="black" stroke-width="2" d="M962,-144.65C962,-144.65 1098,-144.65 1098,-144.65 1104,-144.65 1110,-150.65 1110,-156.65 1110,-156.65 1110,-263.65 1110,-263.65 1110,-269.65 1104,-275.65 1098,-275.65 1098,-275.65 962,-275.65 962,-275.65 956,-275.65 950,-269.65 950,-263.65 950,-263.65 950,-156.65 950,-156.65 950,-150.65 956,-144.65 962,-144.65"/>
<text text-anchor="middle" x="1030" y="-262.05" font-family="Arial" font-size="12.00">AllpassC</text>
<text text-anchor="middle" x="1030" y="-249.05" font-family="Arial" font-size="12.00">(audio)</text>
<polyline fill="none" stroke="black" stroke-width="2" points="950,-241.65 1110,-241.65 "/>
<text text-anchor="middle" x="1018.5" y="-228.05" font-family="Arial" font-size="12.00">source</text>
<polyline fill="none" stroke="black" stroke-width="2" points="950,-220.65 1087,-220.65 "/>
<text text-anchor="middle" x="1018.5" y="-207.05" font-family="Arial" font-size="12.00">maximum_delay_time:</text>
<text text-anchor="middle" x="1018.5" y="-194.05" font-family="Arial" font-size="12.00">0.1</text>
<polyline fill="none" stroke="black" stroke-width="2" points="950,-186.65 1087,-186.65 "/>
<text text-anchor="middle" x="1018.5" y="-173.05" font-family="Arial" font-size="12.00">delay_time</text>
<polyline fill="none" stroke="black" stroke-width="2" points="950,-165.65 1087,-165.65 "/>
<text text-anchor="middle" x="1018.5" y="-152.05" font-family="Arial" font-size="12.00">decay_time</text>
<polyline fill="none" stroke="black" stroke-width="2" points="1087,-144.65 1087,-241.65 "/>
<text text-anchor="middle" x="1098.5" y="-190.05" font-family="Arial" font-size="12.00">0</text>
</g>
<!-- ugen_11 -->
<g id="node4" class="node">
<title>ugen_11</title>
<path fill="#bcd2ee" stroke="black" stroke-width="2" d="M1194,-161.65C1194,-161.65 1291,-161.65 1291,-161.65 1297,-161.65 1303,-167.65 1303,-173.65 1303,-173.65 1303,-238.65 1303,-238.65 1303,-244.65 1297,-250.65 1291,-250.65 1291,-250.65 1194,-250.65 1194,-250.65 1188,-250.65 1182,-244.65 1182,-238.65 1182,-238.65 1182,-173.65 1182,-173.65 1182,-167.65 1188,-161.65 1194,-161.65"/>
<text text-anchor="middle" x="1242.5" y="-237.05" font-family="Arial" font-size="12.00">BinaryOpUGen</text>
<text text-anchor="middle" x="1242.5" y="-224.05" font-family="Arial" font-size="12.00">[MULTIPLICATION]</text>
<text text-anchor="middle" x="1242.5" y="-211.05" font-family="Arial" font-size="12.00">(audio)</text>
<polyline fill="none" stroke="black" stroke-width="2" points="1182,-203.65 1303,-203.65 "/>
<text text-anchor="middle" x="1216.5" y="-190.05" font-family="Arial" font-size="12.00">left</text>
<polyline fill="none" stroke="black" stroke-width="2" points="1182,-182.65 1251,-182.65 "/>
<text text-anchor="middle" x="1216.5" y="-169.05" font-family="Arial" font-size="12.00">right</text>
<polyline fill="none" stroke="black" stroke-width="2" points="1251,-161.65 1251,-203.65 "/>
<text text-anchor="middle" x="1277" y="-179.55" font-family="Arial" font-size="12.00">0</text>
</g>
<!-- ugen_12 -->
<g id="node5" class="node">
<title>ugen_12</title>
<path fill="#bcd2ee" stroke="black" stroke-width="2" d="M1387,-294.15C1387,-294.15 1417,-294.15 1417,-294.15 1423,-294.15 1429,-300.15 1429,-306.15 1429,-306.15 1429,-358.15 1429,-358.15 1429,-364.15 1423,-370.15 1417,-370.15 1417,-370.15 1387,-370.15 1387,-370.15 1381,-370.15 1375,-364.15 1375,-358.15 1375,-358.15 1375,-306.15 1375,-306.15 1375,-300.15 1381,-294.15 1387,-294.15"/>
<text text-anchor="middle" x="1402" y="-356.55" font-family="Arial" font-size="12.00">Out</text>
<text text-anchor="middle" x="1402" y="-343.55" font-family="Arial" font-size="12.00">(audio)</text>
<polyline fill="none" stroke="black" stroke-width="2" points="1375,-336.15 1429,-336.15 "/>
<text text-anchor="middle" x="1402" y="-322.55" font-family="Arial" font-size="12.00">bus</text>
<polyline fill="none" stroke="black" stroke-width="2" points="1375,-315.15 1429,-315.15 "/>
<text text-anchor="middle" x="1402" y="-301.55" font-family="Arial" font-size="12.00">source</text>
</g>
<!-- ugen_2 -->
<g id="node6" class="node">
<title>ugen_2</title>
<path fill="#eedc82" stroke="black" stroke-width="2" d="M327,-263.15C327,-263.15 441,-263.15 441,-263.15 447,-263.15 453,-269.15 453,-275.15 453,-275.15 453,-319.15 453,-319.15 453,-325.15 447,-331.15 441,-331.15 441,-331.15 327,-331.15 327,-331.15 321,-331.15 315,-325.15 315,-319.15 315,-319.15 315,-275.15 315,-275.15 315,-269.15 321,-263.15 327,-263.15"/>
<text text-anchor="middle" x="384" y="-317.55" font-family="Arial" font-size="12.00">UnaryOpUGen</text>
<text text-anchor="middle" x="384" y="-304.55" font-family="Arial" font-size="12.00">[HANNING_WINDOW]</text>
<text text-anchor="middle" x="384" y="-291.55" font-family="Arial" font-size="12.00">(control)</text>
<polyline fill="none" stroke="black" stroke-width="2" points="315,-284.15 453,-284.15 "/>
<text text-anchor="middle" x="357" y="-270.55" font-family="Arial" font-size="12.00">source</text>
<polyline fill="none" stroke="black" stroke-width="2" points="399,-263.15 399,-284.15 "/>
<text text-anchor="middle" x="426" y="-270.55" font-family="Arial" font-size="12.00">0</text>
</g>
<!-- ugen_3 -->
<g id="node7" class="node">
<title>ugen_3</title>
<path fill="#bcd2ee" stroke="black" stroke-width="2" d="M366.5,-350.65C366.5,-350.65 401.5,-350.65 401.5,-350.65 407.5,-350.65 413.5,-356.65 413.5,-362.65 413.5,-362.65 413.5,-393.65 413.5,-393.65 413.5,-399.65 407.5,-405.65 401.5,-405.65 401.5,-405.65 366.5,-405.65 366.5,-405.65 360.5,-405.65 354.5,-399.65 354.5,-393.65 354.5,-393.65 354.5,-362.65 354.5,-362.65 354.5,-356.65 360.5,-350.65 366.5,-350.65"/>
<text text-anchor="middle" x="384" y="-392.05" font-family="Arial" font-size="12.00">In</text>
<text text-anchor="middle" x="384" y="-379.05" font-family="Arial" font-size="12.00">(audio)</text>
<polyline fill="none" stroke="black" stroke-width="2" points="354.5,-371.65 413.5,-371.65 "/>
<text text-anchor="middle" x="372.5" y="-358.05" font-family="Arial" font-size="12.00">bus</text>
<polyline fill="none" stroke="black" stroke-width="2" points="390.5,-350.65 390.5,-371.65 "/>
<text text-anchor="middle" x="402" y="-358.05" font-family="Arial" font-size="12.00">0</text>
</g>
<!-- ugen_4 -->
<g id="node8" class="node">
<title>ugen_4</title>
<path fill="#bcd2ee" stroke="black" stroke-width="2" d="M537,-329.65C537,-329.65 634,-329.65 634,-329.65 640,-329.65 646,-335.65 646,-341.65 646,-341.65 646,-406.65 646,-406.65 646,-412.65 640,-418.65 634,-418.65 634,-418.65 537,-418.65 537,-418.65 531,-418.65 525,-412.65 525,-406.65 525,-406.65 525,-341.65 525,-341.65 525,-335.65 531,-329.65 537,-329.65"/>
<text text-anchor="middle" x="585.5" y="-405.05" font-family="Arial" font-size="12.00">BinaryOpUGen</text>
<text text-anchor="middle" x="585.5" y="-392.05" font-family="Arial" font-size="12.00">[MULTIPLICATION]</text>
<text text-anchor="middle" x="585.5" y="-379.05" font-family="Arial" font-size="12.00">(audio)</text>
<polyline fill="none" stroke="black" stroke-width="2" points="525,-371.65 646,-371.65 "/>
<text text-anchor="middle" x="559.5" y="-358.05" font-family="Arial" font-size="12.00">left</text>
<polyline fill="none" stroke="black" stroke-width="2" points="525,-350.65 594,-350.65 "/>
<text text-anchor="middle" x="559.5" y="-337.05" font-family="Arial" font-size="12.00">right</text>
<polyline fill="none" stroke="black" stroke-width="2" points="594,-329.65 594,-371.65 "/>
<text text-anchor="middle" x="620" y="-347.55" font-family="Arial" font-size="12.00">0</text>
</g>
<!-- ugen_5 -->
<g id="node9" class="node">
<title>ugen_5</title>
<path fill="#ee9572" stroke="black" stroke-width="2" d="M550,-87.15C550,-87.15 621,-87.15 621,-87.15 627,-87.15 633,-93.15 633,-99.15 633,-99.15 633,-177.15 633,-177.15 633,-183.15 627,-189.15 621,-189.15 621,-189.15 550,-189.15 550,-189.15 544,-189.15 538,-183.15 538,-177.15 538,-177.15 538,-99.15 538,-99.15 538,-93.15 544,-87.15 550,-87.15"/>
<text text-anchor="middle" x="585.5" y="-175.55" font-family="Arial" font-size="12.00">ExpRand</text>
<text text-anchor="middle" x="585.5" y="-162.55" font-family="Arial" font-size="12.00">(scalar)</text>
<polyline fill="none" stroke="black" stroke-width="2" points="538,-155.15 633,-155.15 "/>
<text text-anchor="middle" x="574" y="-141.55" font-family="Arial" font-size="12.00">minimum:</text>
<text text-anchor="middle" x="574" y="-128.55" font-family="Arial" font-size="12.00">0.01</text>
<polyline fill="none" stroke="black" stroke-width="2" points="538,-121.15 610,-121.15 "/>
<text text-anchor="middle" x="574" y="-107.55" font-family="Arial" font-size="12.00">maximum:</text>
<text text-anchor="middle" x="574" y="-94.55" font-family="Arial" font-size="12.00">0.1</text>
<polyline fill="none" stroke="black" stroke-width="2" points="610,-87.15 610,-155.15 "/>
<text text-anchor="middle" x="621.5" y="-118.05" font-family="Arial" font-size="12.00">0</text>
</g>
<!-- ugen_6 -->
<g id="node10" class="node">
<title>ugen_6</title>
<path fill="#ee9572" stroke="black" stroke-width="2" d="M550,-208.15C550,-208.15 621,-208.15 621,-208.15 627,-208.15 633,-214.15 633,-220.15 633,-220.15 633,-298.15 633,-298.15 633,-304.15 627,-310.15 621,-310.15 621,-310.15 550,-310.15 550,-310.15 544,-310.15 538,-304.15 538,-298.15 538,-298.15 538,-220.15 538,-220.15 538,-214.15 544,-208.15 550,-208.15"/>
<text text-anchor="middle" x="585.5" y="-296.55" font-family="Arial" font-size="12.00">ExpRand</text>
<text text-anchor="middle" x="585.5" y="-283.55" font-family="Arial" font-size="12.00">(scalar)</text>
<polyline fill="none" stroke="black" stroke-width="2" points="538,-276.15 633,-276.15 "/>
<text text-anchor="middle" x="574" y="-262.55" font-family="Arial" font-size="12.00">minimum:</text>
<text text-anchor="middle" x="574" y="-249.55" font-family="Arial" font-size="12.00">0.01</text>
<polyline fill="none" stroke="black" stroke-width="2" points="538,-242.15 610,-242.15 "/>
<text text-anchor="middle" x="574" y="-228.55" font-family="Arial" font-size="12.00">maximum:</text>
<text text-anchor="middle" x="574" y="-215.55" font-family="Arial" font-size="12.00">0.1</text>
<polyline fill="none" stroke="black" stroke-width="2" points="610,-208.15 610,-276.15 "/>
<text text-anchor="middle" x="621.5" y="-239.05" font-family="Arial" font-size="12.00">0</text>
</g>
<!-- ugen_7 -->
<g id="node11" class="node">
<title>ugen_7</title>
<path fill="#bcd2ee" stroke="black" stroke-width="2" d="M730,-263.65C730,-263.65 866,-263.65 866,-263.65 872,-263.65 878,-269.65 878,-275.65 878,-275.65 878,-382.65 878,-382.65 878,-388.65 872,-394.65 866,-394.65 866,-394.65 730,-394.65 730,-394.65 724,-394.65 718,-388.65 718,-382.65 718,-382.65 718,-275.65 718,-275.65 718,-269.65 724,-263.65 730,-263.65"/>
<text text-anchor="middle" x="798" y="-381.05" font-family="Arial" font-size="12.00">AllpassC</text>
<text text-anchor="middle" x="798" y="-368.05" font-family="Arial" font-size="12.00">(audio)</text>
<polyline fill="none" stroke="black" stroke-width="2" points="718,-360.65 878,-360.65 "/>
<text text-anchor="middle" x="786.5" y="-347.05" font-family="Arial" font-size="12.00">source</text>
<polyline fill="none" stroke="black" stroke-width="2" points="718,-339.65 855,-339.65 "/>
<text text-anchor="middle" x="786.5" y="-326.05" font-family="Arial" font-size="12.00">maximum_delay_time:</text>
<text text-anchor="middle" x="786.5" y="-313.05" font-family="Arial" font-size="12.00">0.1</text>
<polyline fill="none" stroke="black" stroke-width="2" points="718,-305.65 855,-305.65 "/>
<text text-anchor="middle" x="786.5" y="-292.05" font-family="Arial" font-size="12.00">delay_time</text>
<polyline fill="none" stroke="black" stroke-width="2" points="718,-284.65 855,-284.65 "/>
<text text-anchor="middle" x="786.5" y="-271.05" font-family="Arial" font-size="12.00">decay_time</text>
<polyline fill="none" stroke="black" stroke-width="2" points="855,-263.65 855,-360.65 "/>
<text text-anchor="middle" x="866.5" y="-309.05" font-family="Arial" font-size="12.00">0</text>
</g>
<!-- ugen_8 -->
<g id="node12" class="node">
<title>ugen_8</title>
<path fill="#ee9572" stroke="black" stroke-width="2" d="M762.5,-21.15C762.5,-21.15 833.5,-21.15 833.5,-21.15 839.5,-21.15 845.5,-27.15 845.5,-33.15 845.5,-33.15 845.5,-111.15 845.5,-111.15 845.5,-117.15 839.5,-123.15 833.5,-123.15 833.5,-123.15 762.5,-123.15 762.5,-123.15 756.5,-123.15 750.5,-117.15 750.5,-111.15 750.5,-111.15 750.5,-33.15 750.5,-33.15 750.5,-27.15 756.5,-21.15 762.5,-21.15"/>
<text text-anchor="middle" x="798" y="-109.55" font-family="Arial" font-size="12.00">ExpRand</text>
<text text-anchor="middle" x="798" y="-96.55" font-family="Arial" font-size="12.00">(scalar)</text>
<polyline fill="none" stroke="black" stroke-width="2" points="750.5,-89.15 845.5,-89.15 "/>
<text text-anchor="middle" x="786.5" y="-75.55" font-family="Arial" font-size="12.00">minimum:</text>
<text text-anchor="middle" x="786.5" y="-62.55" font-family="Arial" font-size="12.00">0.01</text>
<polyline fill="none" stroke="black" stroke-width="2" points="750.5,-55.15 822.5,-55.15 "/>
<text text-anchor="middle" x="786.5" y="-41.55" font-family="Arial" font-size="12.00">maximum:</text>
<text text-anchor="middle" x="786.5" y="-28.55" font-family="Arial" font-size="12.00">0.1</text>
<polyline fill="none" stroke="black" stroke-width="2" points="822.5,-21.15 822.5,-89.15 "/>
<text text-anchor="middle" x="834" y="-52.05" font-family="Arial" font-size="12.00">0</text>
</g>
<!-- ugen_9 -->
<g id="node13" class="node">
<title>ugen_9</title>
<path fill="#ee9572" stroke="black" stroke-width="2" d="M762.5,-142.15C762.5,-142.15 833.5,-142.15 833.5,-142.15 839.5,-142.15 845.5,-148.15 845.5,-154.15 845.5,-154.15 845.5,-232.15 845.5,-232.15 845.5,-238.15 839.5,-244.15 833.5,-244.15 833.5,-244.15 762.5,-244.15 762.5,-244.15 756.5,-244.15 750.5,-238.15 750.5,-232.15 750.5,-232.15 750.5,-154.15 750.5,-154.15 750.5,-148.15 756.5,-142.15 762.5,-142.15"/>
<text text-anchor="middle" x="798" y="-230.55" font-family="Arial" font-size="12.00">ExpRand</text>
<text text-anchor="middle" x="798" y="-217.55" font-family="Arial" font-size="12.00">(scalar)</text>
<polyline fill="none" stroke="black" stroke-width="2" points="750.5,-210.15 845.5,-210.15 "/>
<text text-anchor="middle" x="786.5" y="-196.55" font-family="Arial" font-size="12.00">minimum:</text>
<text text-anchor="middle" x="786.5" y="-183.55" font-family="Arial" font-size="12.00">0.01</text>
<polyline fill="none" stroke="black" stroke-width="2" points="750.5,-176.15 822.5,-176.15 "/>
<text text-anchor="middle" x="786.5" y="-162.55" font-family="Arial" font-size="12.00">maximum:</text>
<text text-anchor="middle" x="786.5" y="-149.55" font-family="Arial" font-size="12.00">0.1</text>
<polyline fill="none" stroke="black" stroke-width="2" points="822.5,-142.15 822.5,-210.15 "/>
<text text-anchor="middle" x="834" y="-173.05" font-family="Arial" font-size="12.00">0</text>
</g>
</g>
</svg>
