<?xml version="1.0" encoding="UTF-8" standalone="no"?>
<!DOCTYPE svg PUBLIC "-//W3C//DTD SVG 1.1//EN"
 "http://www.w3.org/Graphics/SVG/1.1/DTD/svg11.dtd">
<!-- Generated by graphviz version 2.40.1 (20161225.0304)
 -->
<!-- Title: synthdef_88dca305143542bd40a82d8a6a337306 Pages: 1 -->
<svg width="271pt" height="644pt"
 viewBox="0.00 0.00 271.00 643.50" xmlns="http://www.w3.org/2000/svg" xmlns:xlink="http://www.w3.org/1999/xlink">
<g id="graph0" class="graph" transform="scale(1 1) rotate(0) translate(4 639.5)">
<title>synthdef_88dca305143542bd40a82d8a6a337306</title>
<!-- ugen_0&#45;&gt;ugen_1 -->
<g id="edge1" class="edge">
<title>ugen_0:e&#45;&gt;ugen_1:w</title>
<path fill="none" stroke="#4682b4" stroke-width="2" d="M81,-147C109.375,-147 118.8795,-147 142.9792,-147"/>
<polygon fill="#4682b4" stroke="#4682b4" stroke-width="2" points="143,-150.5001 153,-147 143,-143.5001 143,-150.5001"/>
</g>
<!-- ugen_2&#45;&gt;ugen_3 -->
<g id="edge2" class="edge">
<title>ugen_2:e&#45;&gt;ugen_3:w</title>
<path fill="none" stroke="#4682b4" stroke-width="2" d="M81,-357C109.375,-357 118.8795,-357 142.9792,-357"/>
<polygon fill="#4682b4" stroke="#4682b4" stroke-width="2" points="143,-360.5001 153,-357 143,-353.5001 143,-360.5001"/>
</g>
<!-- ugen_4&#45;&gt;ugen_5 -->
<g id="edge3" class="edge">
<title>ugen_4:e&#45;&gt;ugen_5:w</title>
<path fill="none" stroke="#4682b4" stroke-width="2" d="M81,-567C109.375,-567 118.8795,-567 142.9792,-567"/>
<polygon fill="#4682b4" stroke="#4682b4" stroke-width="2" points="143,-570.5001 153,-567 143,-563.5001 143,-570.5001"/>
</g>
<!-- ugen_0 -->
<g id="node1" class="node">
<title>ugen_0</title>
<path fill="#bcd2ee" stroke="#000000" stroke-width="2" d="M12,-113C12,-113 69,-113 69,-113 75,-113 81,-119 81,-125 81,-125 81,-203 81,-203 81,-209 75,-215 69,-215 69,-215 12,-215 12,-215 6,-215 0,-209 0,-203 0,-203 0,-125 0,-125 0,-119 6,-113 12,-113"/>
<text text-anchor="middle" x="40.5" y="-201.4" font-family="Arial" font-size="12.00" fill="#000000">SinOsc</text>
<text text-anchor="middle" x="40.5" y="-188.4" font-family="Arial" font-size="12.00" fill="#000000">(audio)</text>
<polyline fill="none" stroke="#000000" stroke-width="2" points="0,-181 81,-181 "/>
<text text-anchor="middle" x="29.5" y="-167.4" font-family="Arial" font-size="12.00" fill="#000000">frequency:</text>
<text text-anchor="middle" x="29.5" y="-154.4" font-family="Arial" font-size="12.00" fill="#000000">440.0</text>
<polyline fill="none" stroke="#000000" stroke-width="2" points="0,-147 59,-147 "/>
<text text-anchor="middle" x="29.5" y="-133.4" font-family="Arial" font-size="12.00" fill="#000000">phase:</text>
<text text-anchor="middle" x="29.5" y="-120.4" font-family="Arial" font-size="12.00" fill="#000000">0.0</text>
<polyline fill="none" stroke="#000000" stroke-width="2" points="59,-113 59,-181 "/>
<text text-anchor="middle" x="70" y="-143.9" font-family="Arial" font-size="12.00" fill="#000000">0</text>
</g>
<!-- ugen_1 -->
<g id="node2" class="node">
<title>ugen_1</title>
<path fill="#bcd2ee" stroke="#000000" stroke-width="2" d="M165,-.5C165,-.5 251,-.5 251,-.5 257,-.5 263,-6.5 263,-12.5 263,-12.5 263,-179.5 263,-179.5 263,-185.5 257,-191.5 251,-191.5 251,-191.5 165,-191.5 165,-191.5 159,-191.5 153,-185.5 153,-179.5 153,-179.5 153,-12.5 153,-12.5 153,-6.5 159,-.5 165,-.5"/>
<text text-anchor="middle" x="208" y="-177.9" font-family="Arial" font-size="12.00" fill="#000000">LinExp</text>
<text text-anchor="middle" x="208" y="-164.9" font-family="Arial" font-size="12.00" fill="#000000">(audio)</text>
<polyline fill="none" stroke="#000000" stroke-width="2" points="153,-157.5 263,-157.5 "/>
<text text-anchor="middle" x="197" y="-143.9" font-family="Arial" font-size="12.00" fill="#000000">source</text>
<polyline fill="none" stroke="#000000" stroke-width="2" points="153,-136.5 241,-136.5 "/>
<text text-anchor="middle" x="197" y="-122.9" font-family="Arial" font-size="12.00" fill="#000000">input_minimum:</text>
<text text-anchor="middle" x="197" y="-109.9" font-family="Arial" font-size="12.00" fill="#000000">&#45;1.0</text>
<polyline fill="none" stroke="#000000" stroke-width="2" points="153,-102.5 241,-102.5 "/>
<text text-anchor="middle" x="197" y="-88.9" font-family="Arial" font-size="12.00" fill="#000000">input_maximum:</text>
<text text-anchor="middle" x="197" y="-75.9" font-family="Arial" font-size="12.00" fill="#000000">1.0</text>
<polyline fill="none" stroke="#000000" stroke-width="2" points="153,-68.5 241,-68.5 "/>
<text text-anchor="middle" x="197" y="-54.9" font-family="Arial" font-size="12.00" fill="#000000">output_minimum:</text>
<text text-anchor="middle" x="197" y="-41.9" font-family="Arial" font-size="12.00" fill="#000000">0.5</text>
<polyline fill="none" stroke="#000000" stroke-width="2" points="153,-34.5 241,-34.5 "/>
<text text-anchor="middle" x="197" y="-20.9" font-family="Arial" font-size="12.00" fill="#000000">output_maximum:</text>
<text text-anchor="middle" x="197" y="-7.9" font-family="Arial" font-size="12.00" fill="#000000">0.75</text>
<polyline fill="none" stroke="#000000" stroke-width="2" points="241,-.5 241,-157.5 "/>
<text text-anchor="middle" x="252" y="-75.9" font-family="Arial" font-size="12.00" fill="#000000">0</text>
</g>
<!-- ugen_2 -->
<g id="node3" class="node">
<title>ugen_2</title>
<path fill="#bcd2ee" stroke="#000000" stroke-width="2" d="M12,-323C12,-323 69,-323 69,-323 75,-323 81,-329 81,-335 81,-335 81,-413 81,-413 81,-419 75,-425 69,-425 69,-425 12,-425 12,-425 6,-425 0,-419 0,-413 0,-413 0,-335 0,-335 0,-329 6,-323 12,-323"/>
<text text-anchor="middle" x="40.5" y="-411.4" font-family="Arial" font-size="12.00" fill="#000000">SinOsc</text>
<text text-anchor="middle" x="40.5" y="-398.4" font-family="Arial" font-size="12.00" fill="#000000">(audio)</text>
<polyline fill="none" stroke="#000000" stroke-width="2" points="0,-391 81,-391 "/>
<text text-anchor="middle" x="29.5" y="-377.4" font-family="Arial" font-size="12.00" fill="#000000">frequency:</text>
<text text-anchor="middle" x="29.5" y="-364.4" font-family="Arial" font-size="12.00" fill="#000000">442.0</text>
<polyline fill="none" stroke="#000000" stroke-width="2" points="0,-357 59,-357 "/>
<text text-anchor="middle" x="29.5" y="-343.4" font-family="Arial" font-size="12.00" fill="#000000">phase:</text>
<text text-anchor="middle" x="29.5" y="-330.4" font-family="Arial" font-size="12.00" fill="#000000">0.0</text>
<polyline fill="none" stroke="#000000" stroke-width="2" points="59,-323 59,-391 "/>
<text text-anchor="middle" x="70" y="-353.9" font-family="Arial" font-size="12.00" fill="#000000">0</text>
</g>
<!-- ugen_3 -->
<g id="node4" class="node">
<title>ugen_3</title>
<path fill="#bcd2ee" stroke="#000000" stroke-width="2" d="M165,-210.5C165,-210.5 251,-210.5 251,-210.5 257,-210.5 263,-216.5 263,-222.5 263,-222.5 263,-389.5 263,-389.5 263,-395.5 257,-401.5 251,-401.5 251,-401.5 165,-401.5 165,-401.5 159,-401.5 153,-395.5 153,-389.5 153,-389.5 153,-222.5 153,-222.5 153,-216.5 159,-210.5 165,-210.5"/>
<text text-anchor="middle" x="208" y="-387.9" font-family="Arial" font-size="12.00" fill="#000000">LinExp</text>
<text text-anchor="middle" x="208" y="-374.9" font-family="Arial" font-size="12.00" fill="#000000">(audio)</text>
<polyline fill="none" stroke="#000000" stroke-width="2" points="153,-367.5 263,-367.5 "/>
<text text-anchor="middle" x="197" y="-353.9" font-family="Arial" font-size="12.00" fill="#000000">source</text>
<polyline fill="none" stroke="#000000" stroke-width="2" points="153,-346.5 241,-346.5 "/>
<text text-anchor="middle" x="197" y="-332.9" font-family="Arial" font-size="12.00" fill="#000000">input_minimum:</text>
<text text-anchor="middle" x="197" y="-319.9" font-family="Arial" font-size="12.00" fill="#000000">&#45;1.0</text>
<polyline fill="none" stroke="#000000" stroke-width="2" points="153,-312.5 241,-312.5 "/>
<text text-anchor="middle" x="197" y="-298.9" font-family="Arial" font-size="12.00" fill="#000000">input_maximum:</text>
<text text-anchor="middle" x="197" y="-285.9" font-family="Arial" font-size="12.00" fill="#000000">1.0</text>
<polyline fill="none" stroke="#000000" stroke-width="2" points="153,-278.5 241,-278.5 "/>
<text text-anchor="middle" x="197" y="-264.9" font-family="Arial" font-size="12.00" fill="#000000">output_minimum:</text>
<text text-anchor="middle" x="197" y="-251.9" font-family="Arial" font-size="12.00" fill="#000000">0.5</text>
<polyline fill="none" stroke="#000000" stroke-width="2" points="153,-244.5 241,-244.5 "/>
<text text-anchor="middle" x="197" y="-230.9" font-family="Arial" font-size="12.00" fill="#000000">output_maximum:</text>
<text text-anchor="middle" x="197" y="-217.9" font-family="Arial" font-size="12.00" fill="#000000">0.75</text>
<polyline fill="none" stroke="#000000" stroke-width="2" points="241,-210.5 241,-367.5 "/>
<text text-anchor="middle" x="252" y="-285.9" font-family="Arial" font-size="12.00" fill="#000000">0</text>
</g>
<!-- ugen_4 -->
<g id="node5" class="node">
<title>ugen_4</title>
<path fill="#bcd2ee" stroke="#000000" stroke-width="2" d="M12,-533C12,-533 69,-533 69,-533 75,-533 81,-539 81,-545 81,-545 81,-623 81,-623 81,-629 75,-635 69,-635 69,-635 12,-635 12,-635 6,-635 0,-629 0,-623 0,-623 0,-545 0,-545 0,-539 6,-533 12,-533"/>
<text text-anchor="middle" x="40.5" y="-621.4" font-family="Arial" font-size="12.00" fill="#000000">SinOsc</text>
<text text-anchor="middle" x="40.5" y="-608.4" font-family="Arial" font-size="12.00" fill="#000000">(audio)</text>
<polyline fill="none" stroke="#000000" stroke-width="2" points="0,-601 81,-601 "/>
<text text-anchor="middle" x="29.5" y="-587.4" font-family="Arial" font-size="12.00" fill="#000000">frequency:</text>
<text text-anchor="middle" x="29.5" y="-574.4" font-family="Arial" font-size="12.00" fill="#000000">443.0</text>
<polyline fill="none" stroke="#000000" stroke-width="2" points="0,-567 59,-567 "/>
<text text-anchor="middle" x="29.5" y="-553.4" font-family="Arial" font-size="12.00" fill="#000000">phase:</text>
<text text-anchor="middle" x="29.5" y="-540.4" font-family="Arial" font-size="12.00" fill="#000000">0.0</text>
<polyline fill="none" stroke="#000000" stroke-width="2" points="59,-533 59,-601 "/>
<text text-anchor="middle" x="70" y="-563.9" font-family="Arial" font-size="12.00" fill="#000000">0</text>
</g>
<!-- ugen_5 -->
<g id="node6" class="node">
<title>ugen_5</title>
<path fill="#bcd2ee" stroke="#000000" stroke-width="2" d="M165,-420.5C165,-420.5 251,-420.5 251,-420.5 257,-420.5 263,-426.5 263,-432.5 263,-432.5 263,-599.5 263,-599.5 263,-605.5 257,-611.5 251,-611.5 251,-611.5 165,-611.5 165,-611.5 159,-611.5 153,-605.5 153,-599.5 153,-599.5 153,-432.5 153,-432.5 153,-426.5 159,-420.5 165,-420.5"/>
<text text-anchor="middle" x="208" y="-597.9" font-family="Arial" font-size="12.00" fill="#000000">LinExp</text>
<text text-anchor="middle" x="208" y="-584.9" font-family="Arial" font-size="12.00" fill="#000000">(audio)</text>
<polyline fill="none" stroke="#000000" stroke-width="2" points="153,-577.5 263,-577.5 "/>
<text text-anchor="middle" x="197" y="-563.9" font-family="Arial" font-size="12.00" fill="#000000">source</text>
<polyline fill="none" stroke="#000000" stroke-width="2" points="153,-556.5 241,-556.5 "/>
<text text-anchor="middle" x="197" y="-542.9" font-family="Arial" font-size="12.00" fill="#000000">input_minimum:</text>
<text text-anchor="middle" x="197" y="-529.9" font-family="Arial" font-size="12.00" fill="#000000">&#45;1.0</text>
<polyline fill="none" stroke="#000000" stroke-width="2" points="153,-522.5 241,-522.5 "/>
<text text-anchor="middle" x="197" y="-508.9" font-family="Arial" font-size="12.00" fill="#000000">input_maximum:</text>
<text text-anchor="middle" x="197" y="-495.9" font-family="Arial" font-size="12.00" fill="#000000">1.0</text>
<polyline fill="none" stroke="#000000" stroke-width="2" points="153,-488.5 241,-488.5 "/>
<text text-anchor="middle" x="197" y="-474.9" font-family="Arial" font-size="12.00" fill="#000000">output_minimum:</text>
<text text-anchor="middle" x="197" y="-461.9" font-family="Arial" font-size="12.00" fill="#000000">0.5</text>
<polyline fill="none" stroke="#000000" stroke-width="2" points="153,-454.5 241,-454.5 "/>
<text text-anchor="middle" x="197" y="-440.9" font-family="Arial" font-size="12.00" fill="#000000">output_maximum:</text>
<text text-anchor="middle" x="197" y="-427.9" font-family="Arial" font-size="12.00" fill="#000000">0.75</text>
<polyline fill="none" stroke="#000000" stroke-width="2" points="241,-420.5 241,-577.5 "/>
<text text-anchor="middle" x="252" y="-495.9" font-family="Arial" font-size="12.00" fill="#000000">0</text>
</g>
</g>
</svg>
