<?xml version="1.0" encoding="UTF-8" standalone="no"?>
<!DOCTYPE svg PUBLIC "-//W3C//DTD SVG 1.1//EN"
 "http://www.w3.org/Graphics/SVG/1.1/DTD/svg11.dtd">
<!-- Generated by graphviz version 2.49.1 (20210923.0004)
 -->
<!-- Title: synthdef_01bebf935112af62ffdd282a99581904 Pages: 1 -->
<svg width="296pt" height="186pt"
 viewBox="0.00 0.00 296.00 185.50" xmlns="http://www.w3.org/2000/svg" xmlns:xlink="http://www.w3.org/1999/xlink">
<g id="graph0" class="graph" transform="scale(1 1) rotate(0) translate(4 181.5)">
<title>synthdef_01bebf935112af62ffdd282a99581904</title>
<!-- ugen_0&#45;&gt;ugen_2 -->
<g id="edge1" class="edge">
<title>ugen_0:e&#45;&gt;ugen_2:w</title>
<path fill="none" stroke="goldenrod" stroke-width="2" d="M88,-132.5C123.85,-132.5 127.94,-100.47 157.83,-94.46"/>
<polygon fill="goldenrod" stroke="goldenrod" stroke-width="2" points="158.37,-97.93 168,-93.5 157.71,-90.96 158.37,-97.93"/>
</g>
<!-- ugen_1&#45;&gt;ugen_2 -->
<g id="edge2" class="edge">
<title>ugen_1:e&#45;&gt;ugen_2:w</title>
<path fill="none" stroke="steelblue" stroke-width="2" d="M96,-34.5C128.51,-34.5 131.51,-65.17 158.03,-71.4"/>
<polygon fill="steelblue" stroke="steelblue" stroke-width="2" points="157.68,-74.89 168,-72.5 158.44,-67.93 157.68,-74.89"/>
</g>
<!-- ugen_0 -->
<g id="node1" class="node">
<title>ugen_0</title>
<path fill="#eedc82" stroke="black" stroke-width="2" d="M21,-122C21,-122 75,-122 75,-122 81,-122 87,-128 87,-134 87,-134 87,-165 87,-165 87,-171 81,-177 75,-177 75,-177 21,-177 21,-177 15,-177 9,-171 9,-165 9,-165 9,-134 9,-134 9,-128 15,-122 21,-122"/>
<text text-anchor="middle" x="48" y="-163.4" font-family="Arial" font-size="12.00">WhiteNoise</text>
<text text-anchor="middle" x="48" y="-150.4" font-family="Arial" font-size="12.00">(control)</text>
<polyline fill="none" stroke="black" stroke-width="2" points="9,-143 87,-143 "/>
<text text-anchor="middle" x="48" y="-129.4" font-family="Arial" font-size="12.00">0</text>
</g>
<!-- ugen_1 -->
<g id="node2" class="node">
<title>ugen_1</title>
<path fill="#bcd2ee" stroke="black" stroke-width="2" d="M12,-0.5C12,-0.5 84,-0.5 84,-0.5 90,-0.5 96,-6.5 96,-12.5 96,-12.5 96,-90.5 96,-90.5 96,-96.5 90,-102.5 84,-102.5 84,-102.5 12,-102.5 12,-102.5 6,-102.5 0,-96.5 0,-90.5 0,-90.5 0,-12.5 0,-12.5 0,-6.5 6,-0.5 12,-0.5"/>
<text text-anchor="middle" x="48" y="-88.9" font-family="Arial" font-size="12.00">SinOsc</text>
<text text-anchor="middle" x="48" y="-75.9" font-family="Arial" font-size="12.00">(audio)</text>
<polyline fill="none" stroke="black" stroke-width="2" points="0,-68.5 96,-68.5 "/>
<text text-anchor="middle" x="36.5" y="-54.9" font-family="Arial" font-size="12.00">frequency:</text>
<text text-anchor="middle" x="36.5" y="-41.9" font-family="Arial" font-size="12.00">440.0</text>
<polyline fill="none" stroke="black" stroke-width="2" points="0,-34.5 73,-34.5 "/>
<text text-anchor="middle" x="36.5" y="-20.9" font-family="Arial" font-size="12.00">phase:</text>
<text text-anchor="middle" x="36.5" y="-7.9" font-family="Arial" font-size="12.00">0.0</text>
<polyline fill="none" stroke="black" stroke-width="2" points="73,-0.5 73,-68.5 "/>
<text text-anchor="middle" x="84.5" y="-31.4" font-family="Arial" font-size="12.00">0</text>
</g>
<!-- ugen_2 -->
<g id="node3" class="node">
<title>ugen_2</title>
<path fill="#bcd2ee" stroke="black" stroke-width="2" d="M180,-62C180,-62 276,-62 276,-62 282,-62 288,-68 288,-74 288,-74 288,-139 288,-139 288,-145 282,-151 276,-151 276,-151 180,-151 180,-151 174,-151 168,-145 168,-139 168,-139 168,-74 168,-74 168,-68 174,-62 180,-62"/>
<text text-anchor="middle" x="228" y="-137.4" font-family="Arial" font-size="12.00">BinaryOpUGen</text>
<text text-anchor="middle" x="228" y="-124.4" font-family="Arial" font-size="12.00">[GREATER_THAN]</text>
<text text-anchor="middle" x="228" y="-111.4" font-family="Arial" font-size="12.00">(audio)</text>
<polyline fill="none" stroke="black" stroke-width="2" points="168,-104 288,-104 "/>
<text text-anchor="middle" x="202" y="-90.4" font-family="Arial" font-size="12.00">left</text>
<polyline fill="none" stroke="black" stroke-width="2" points="168,-83 236,-83 "/>
<text text-anchor="middle" x="202" y="-69.4" font-family="Arial" font-size="12.00">right</text>
<polyline fill="none" stroke="black" stroke-width="2" points="236,-62 236,-104 "/>
<text text-anchor="middle" x="262" y="-79.9" font-family="Arial" font-size="12.00">0</text>
</g>
</g>
</svg>
