<?xml version="1.0" encoding="UTF-8" standalone="no"?>
<!DOCTYPE svg PUBLIC "-//W3C//DTD SVG 1.1//EN"
 "http://www.w3.org/Graphics/SVG/1.1/DTD/svg11.dtd">
<!-- Generated by graphviz version 2.50.0 (20211204.2007)
 -->
<!-- Title: synthdef_e710843b0e0fbc5e6185afc6cdf90149 Pages: 1 -->
<svg width="253pt" height="132pt"
 viewBox="0.00 0.00 253.00 132.00" xmlns="http://www.w3.org/2000/svg" xmlns:xlink="http://www.w3.org/1999/xlink">
<g id="graph0" class="graph" transform="scale(1 1) rotate(0) translate(4 128)">
<title>synthdef_e710843b0e0fbc5e6185afc6cdf90149</title>
<!-- ugen_0&#45;&gt;ugen_1 -->
<g id="edge1" class="edge">
<title>ugen_0:e&#45;&gt;ugen_1:w</title>
<path fill="none" stroke="steelblue" stroke-width="2" d="M79,-79C107.38,-79 116.88,-79 140.98,-79"/>
<polygon fill="steelblue" stroke="steelblue" stroke-width="2" points="141,-82.5 151,-79 141,-75.5 141,-82.5"/>
</g>
<!-- ugen_0 -->
<g id="node1" class="node">
<title>ugen_0</title>
<path fill="#bcd2ee" stroke="black" stroke-width="2" d="M12,-68.5C12,-68.5 67,-68.5 67,-68.5 73,-68.5 79,-74.5 79,-80.5 79,-80.5 79,-111.5 79,-111.5 79,-117.5 73,-123.5 67,-123.5 67,-123.5 12,-123.5 12,-123.5 6,-123.5 0,-117.5 0,-111.5 0,-111.5 0,-80.5 0,-80.5 0,-74.5 6,-68.5 12,-68.5"/>
<text text-anchor="middle" x="39.5" y="-109.9" font-family="Arial" font-size="12.00">WhiteNoise</text>
<text text-anchor="middle" x="39.5" y="-96.9" font-family="Arial" font-size="12.00">(audio)</text>
<polyline fill="none" stroke="black" stroke-width="2" points="0,-89.5 79,-89.5 "/>
<text text-anchor="middle" x="39.5" y="-75.9" font-family="Arial" font-size="12.00">0</text>
</g>
<!-- ugen_1 -->
<g id="node2" class="node">
<title>ugen_1</title>
<path fill="#bcd2ee" stroke="black" stroke-width="2" d="M163,-0.5C163,-0.5 233,-0.5 233,-0.5 239,-0.5 245,-6.5 245,-12.5 245,-12.5 245,-111.5 245,-111.5 245,-117.5 239,-123.5 233,-123.5 233,-123.5 163,-123.5 163,-123.5 157,-123.5 151,-117.5 151,-111.5 151,-111.5 151,-12.5 151,-12.5 151,-6.5 157,-0.5 163,-0.5"/>
<text text-anchor="middle" x="198" y="-109.9" font-family="Arial" font-size="12.00">Clip</text>
<text text-anchor="middle" x="198" y="-96.9" font-family="Arial" font-size="12.00">(audio)</text>
<polyline fill="none" stroke="black" stroke-width="2" points="151,-89.5 245,-89.5 "/>
<text text-anchor="middle" x="186.5" y="-75.9" font-family="Arial" font-size="12.00">source</text>
<polyline fill="none" stroke="black" stroke-width="2" points="151,-68.5 222,-68.5 "/>
<text text-anchor="middle" x="186.5" y="-54.9" font-family="Arial" font-size="12.00">minimum:</text>
<text text-anchor="middle" x="186.5" y="-41.9" font-family="Arial" font-size="12.00">&#45;0.25</text>
<polyline fill="none" stroke="black" stroke-width="2" points="151,-34.5 222,-34.5 "/>
<text text-anchor="middle" x="186.5" y="-20.9" font-family="Arial" font-size="12.00">maximum:</text>
<text text-anchor="middle" x="186.5" y="-7.9" font-family="Arial" font-size="12.00">0.25</text>
<polyline fill="none" stroke="black" stroke-width="2" points="222,-0.5 222,-89.5 "/>
<text text-anchor="middle" x="233.5" y="-41.9" font-family="Arial" font-size="12.00">0</text>
</g>
</g>
</svg>
