<?xml version="1.0" encoding="UTF-8" standalone="no"?>
<!DOCTYPE svg PUBLIC "-//W3C//DTD SVG 1.1//EN"
 "http://www.w3.org/Graphics/SVG/1.1/DTD/svg11.dtd">
<!-- Generated by graphviz version 2.43.0 (0)
 -->
<!-- Title: synthdef_... Pages: 1 -->
<svg width="744pt" height="605pt"
 viewBox="0.00 0.00 744.00 605.00" xmlns="http://www.w3.org/2000/svg" xmlns:xlink="http://www.w3.org/1999/xlink">
<g id="graph0" class="graph" transform="scale(1 1) rotate(0) translate(4 601)">
<title>synthdef_...</title>
<!-- ugen_0&#45;&gt;ugen_2 -->
<g id="edge1" class="edge">
<title>ugen_0:e&#45;&gt;ugen_2:w</title>
<path fill="none" stroke="steelblue" stroke-width="2" d="M95,-528.5C123.38,-528.5 132.88,-528.5 156.98,-528.5"/>
<polygon fill="steelblue" stroke="steelblue" stroke-width="2" points="157,-532 167,-528.5 157,-525 157,-532"/>
</g>
<!-- ugen_1&#45;&gt;ugen_2 -->
<g id="edge2" class="edge">
<title>ugen_1:e&#45;&gt;ugen_2:w</title>
<path fill="none" stroke="goldenrod" stroke-width="2" d="M95,-271.5C201.02,-271.5 66.84,-492.09 156.91,-506.74"/>
<polygon fill="goldenrod" stroke="goldenrod" stroke-width="2" points="156.76,-510.24 167,-507.5 157.29,-503.26 156.76,-510.24"/>
</g>
<!-- ugen_1&#45;&gt;ugen_5 -->
<g id="edge3" class="edge">
<title>ugen_1:e&#45;&gt;ugen_5:w</title>
<path fill="none" stroke="goldenrod" stroke-width="2" d="M95,-271.5C127.7,-271.5 130.38,-302.98 156.98,-309.37"/>
<polygon fill="goldenrod" stroke="goldenrod" stroke-width="2" points="156.67,-312.86 167,-310.5 157.45,-305.91 156.67,-312.86"/>
</g>
<!-- ugen_1&#45;&gt;ugen_8 -->
<g id="edge4" class="edge">
<title>ugen_1:e&#45;&gt;ugen_8:w</title>
<path fill="none" stroke="goldenrod" stroke-width="2" d="M95,-271.5C168.4,-271.5 97.49,-128.55 156.8,-114.59"/>
<polygon fill="goldenrod" stroke="goldenrod" stroke-width="2" points="157.43,-118.05 167,-113.5 156.68,-111.09 157.43,-118.05"/>
</g>
<!-- ugen_2&#45;&gt;ugen_3 -->
<g id="edge5" class="edge">
<title>ugen_2:e&#45;&gt;ugen_3:w</title>
<path fill="none" stroke="steelblue" stroke-width="2" d="M266,-520.5C296.72,-520.5 302.47,-497.5 327.73,-492.46"/>
<polygon fill="steelblue" stroke="steelblue" stroke-width="2" points="328.37,-495.92 338,-491.5 327.72,-488.95 328.37,-495.92"/>
</g>
<!-- ugen_2&#45;&gt;ugen_3 -->
<g id="edge6" class="edge">
<title>ugen_2:e&#45;&gt;ugen_3:w</title>
<path fill="none" stroke="steelblue" stroke-width="2" d="M266,-484.5C294.98,-484.5 303.48,-472.71 327.82,-470.03"/>
<polygon fill="steelblue" stroke="steelblue" stroke-width="2" points="328.2,-473.52 338,-469.5 327.83,-466.53 328.2,-473.52"/>
</g>
<!-- ugen_2&#45;&gt;ugen_3 -->
<g id="edge7" class="edge">
<title>ugen_2:e&#45;&gt;ugen_3:w</title>
<path fill="none" stroke="steelblue" stroke-width="2" d="M266,-448.5C294.38,-448.5 303.88,-448.5 327.98,-448.5"/>
<polygon fill="steelblue" stroke="steelblue" stroke-width="2" points="328,-452 338,-448.5 328,-445 328,-452"/>
</g>
<!-- ugen_2&#45;&gt;ugen_3 -->
<g id="edge8" class="edge">
<title>ugen_2:e&#45;&gt;ugen_3:w</title>
<path fill="none" stroke="steelblue" stroke-width="2" d="M266,-412.5C294.98,-412.5 303.48,-424.29 327.82,-426.97"/>
<polygon fill="steelblue" stroke="steelblue" stroke-width="2" points="327.83,-430.47 338,-427.5 328.2,-423.48 327.83,-430.47"/>
</g>
<!-- ugen_3&#45;&gt;ugen_10 -->
<g id="edge9" class="edge">
<title>ugen_3:e&#45;&gt;ugen_10:w</title>
<path fill="none" stroke="steelblue" stroke-width="2" d="M438,-459.5C515.98,-459.5 436.21,-305.34 500.01,-291.49"/>
<polygon fill="steelblue" stroke="steelblue" stroke-width="2" points="500.4,-294.97 510,-290.5 499.7,-288.01 500.4,-294.97"/>
</g>
<!-- ugen_4&#45;&gt;ugen_5 -->
<g id="edge10" class="edge">
<title>ugen_4:e&#45;&gt;ugen_5:w</title>
<path fill="none" stroke="steelblue" stroke-width="2" d="M95,-375.5C128.69,-375.5 129.69,-339.98 156.74,-332.77"/>
<polygon fill="steelblue" stroke="steelblue" stroke-width="2" points="157.51,-336.2 167,-331.5 156.65,-329.25 157.51,-336.2"/>
</g>
<!-- ugen_5&#45;&gt;ugen_6 -->
<g id="edge11" class="edge">
<title>ugen_5:e&#45;&gt;ugen_6:w</title>
<path fill="none" stroke="steelblue" stroke-width="2" d="M266,-323.5C295.8,-323.5 303.09,-306.05 327.97,-302.23"/>
<polygon fill="steelblue" stroke="steelblue" stroke-width="2" points="328.28,-305.72 338,-301.5 327.77,-298.74 328.28,-305.72"/>
</g>
<!-- ugen_5&#45;&gt;ugen_6 -->
<g id="edge12" class="edge">
<title>ugen_5:e&#45;&gt;ugen_6:w</title>
<path fill="none" stroke="steelblue" stroke-width="2" d="M266,-287.5C294.55,-287.5 303.76,-281.21 327.93,-279.78"/>
<polygon fill="steelblue" stroke="steelblue" stroke-width="2" points="328.1,-283.28 338,-279.5 327.91,-276.28 328.1,-283.28"/>
</g>
<!-- ugen_5&#45;&gt;ugen_6 -->
<g id="edge13" class="edge">
<title>ugen_5:e&#45;&gt;ugen_6:w</title>
<path fill="none" stroke="steelblue" stroke-width="2" d="M266,-251.5C294.51,-251.5 303.79,-257 327.94,-258.25"/>
<polygon fill="steelblue" stroke="steelblue" stroke-width="2" points="327.92,-261.75 338,-258.5 328.09,-254.75 327.92,-261.75"/>
</g>
<!-- ugen_5&#45;&gt;ugen_6 -->
<g id="edge14" class="edge">
<title>ugen_5:e&#45;&gt;ugen_6:w</title>
<path fill="none" stroke="steelblue" stroke-width="2" d="M266,-215.5C295.8,-215.5 303.09,-232.95 327.97,-236.77"/>
<polygon fill="steelblue" stroke="steelblue" stroke-width="2" points="327.77,-240.26 338,-237.5 328.28,-233.28 327.77,-240.26"/>
</g>
<!-- ugen_6&#45;&gt;ugen_10 -->
<g id="edge15" class="edge">
<title>ugen_6:e&#45;&gt;ugen_10:w</title>
<path fill="none" stroke="steelblue" stroke-width="2" d="M438,-269.5C466.38,-269.5 475.88,-269.5 499.98,-269.5"/>
<polygon fill="steelblue" stroke="steelblue" stroke-width="2" points="500,-273 510,-269.5 500,-266 500,-273"/>
</g>
<!-- ugen_7&#45;&gt;ugen_8 -->
<g id="edge16" class="edge">
<title>ugen_7:e&#45;&gt;ugen_8:w</title>
<path fill="none" stroke="steelblue" stroke-width="2" d="M95,-134.5C123.38,-134.5 132.88,-134.5 156.98,-134.5"/>
<polygon fill="steelblue" stroke="steelblue" stroke-width="2" points="157,-138 167,-134.5 157,-131 157,-138"/>
</g>
<!-- ugen_8&#45;&gt;ugen_9 -->
<g id="edge17" class="edge">
<title>ugen_8:e&#45;&gt;ugen_9:w</title>
<path fill="none" stroke="steelblue" stroke-width="2" d="M266,-126.5C294.91,-126.5 303.53,-115.49 327.84,-113"/>
<polygon fill="steelblue" stroke="steelblue" stroke-width="2" points="328.18,-116.49 338,-112.5 327.84,-109.49 328.18,-116.49"/>
</g>
<!-- ugen_8&#45;&gt;ugen_9 -->
<g id="edge18" class="edge">
<title>ugen_8:e&#45;&gt;ugen_9:w</title>
<path fill="none" stroke="steelblue" stroke-width="2" d="M266,-90.5C294.38,-90.5 303.88,-90.5 327.98,-90.5"/>
<polygon fill="steelblue" stroke="steelblue" stroke-width="2" points="328,-94 338,-90.5 328,-87 328,-94"/>
</g>
<!-- ugen_8&#45;&gt;ugen_9 -->
<g id="edge19" class="edge">
<title>ugen_8:e&#45;&gt;ugen_9:w</title>
<path fill="none" stroke="steelblue" stroke-width="2" d="M266,-54.5C294.98,-54.5 303.48,-66.29 327.82,-68.97"/>
<polygon fill="steelblue" stroke="steelblue" stroke-width="2" points="327.83,-72.47 338,-69.5 328.2,-65.48 327.83,-72.47"/>
</g>
<!-- ugen_8&#45;&gt;ugen_9 -->
<g id="edge20" class="edge">
<title>ugen_8:e&#45;&gt;ugen_9:w</title>
<path fill="none" stroke="steelblue" stroke-width="2" d="M266,-18.5C297.01,-18.5 302.41,-42.51 328.02,-47.57"/>
<polygon fill="steelblue" stroke="steelblue" stroke-width="2" points="327.72,-51.06 338,-48.5 328.37,-44.09 327.72,-51.06"/>
</g>
<!-- ugen_9&#45;&gt;ugen_10 -->
<g id="edge21" class="edge">
<title>ugen_9:e&#45;&gt;ugen_10:w</title>
<path fill="none" stroke="steelblue" stroke-width="2" d="M438,-80.5C515.43,-80.5 436.87,-233.12 499.67,-247.43"/>
<polygon fill="steelblue" stroke="steelblue" stroke-width="2" points="499.69,-250.95 510,-248.5 500.42,-243.99 499.69,-250.95"/>
</g>
<!-- ugen_10&#45;&gt;ugen_11 -->
<g id="edge22" class="edge">
<title>ugen_10:e&#45;&gt;ugen_11:w</title>
<path fill="none" stroke="steelblue" stroke-width="2" d="M610,-269.5C638.38,-269.5 647.88,-269.5 671.98,-269.5"/>
<polygon fill="steelblue" stroke="steelblue" stroke-width="2" points="672,-273 682,-269.5 672,-266 672,-273"/>
</g>
<!-- ugen_0 -->
<g id="node1" class="node">
<title>ugen_0</title>
<path fill="#bcd2ee" stroke="black" stroke-width="2" d="M12,-494.5C12,-494.5 83,-494.5 83,-494.5 89,-494.5 95,-500.5 95,-506.5 95,-506.5 95,-584.5 95,-584.5 95,-590.5 89,-596.5 83,-596.5 83,-596.5 12,-596.5 12,-596.5 6,-596.5 0,-590.5 0,-584.5 0,-584.5 0,-506.5 0,-506.5 0,-500.5 6,-494.5 12,-494.5"/>
<text text-anchor="middle" x="47.5" y="-582.9" font-family="Arial" font-size="12.00">SinOsc</text>
<text text-anchor="middle" x="47.5" y="-569.9" font-family="Arial" font-size="12.00">(audio)</text>
<polyline fill="none" stroke="black" stroke-width="2" points="0,-562.5 95,-562.5 "/>
<text text-anchor="middle" x="36" y="-548.9" font-family="Arial" font-size="12.00">frequency:</text>
<text text-anchor="middle" x="36" y="-535.9" font-family="Arial" font-size="12.00">440.0</text>
<polyline fill="none" stroke="black" stroke-width="2" points="0,-528.5 72,-528.5 "/>
<text text-anchor="middle" x="36" y="-514.9" font-family="Arial" font-size="12.00">phase:</text>
<text text-anchor="middle" x="36" y="-501.9" font-family="Arial" font-size="12.00">0.0</text>
<polyline fill="none" stroke="black" stroke-width="2" points="72,-494.5 72,-562.5 "/>
<text text-anchor="middle" x="83.5" y="-525.4" font-family="Arial" font-size="12.00">0</text>
</g>
<!-- ugen_1 -->
<g id="node2" class="node">
<title>ugen_1</title>
<path fill="#eedc82" stroke="black" stroke-width="2" d="M12,-254.5C12,-254.5 83,-254.5 83,-254.5 89,-254.5 95,-260.5 95,-266.5 95,-266.5 95,-310.5 95,-310.5 95,-316.5 89,-322.5 83,-322.5 83,-322.5 12,-322.5 12,-322.5 6,-322.5 0,-316.5 0,-310.5 0,-310.5 0,-266.5 0,-266.5 0,-260.5 6,-254.5 12,-254.5"/>
<text text-anchor="middle" x="47.5" y="-308.9" font-family="Arial" font-size="12.00">LFNoise2</text>
<text text-anchor="middle" x="47.5" y="-295.9" font-family="Arial" font-size="12.00">(control)</text>
<polyline fill="none" stroke="black" stroke-width="2" points="0,-288.5 95,-288.5 "/>
<text text-anchor="middle" x="36" y="-274.9" font-family="Arial" font-size="12.00">frequency:</text>
<text text-anchor="middle" x="36" y="-261.9" font-family="Arial" font-size="12.00">500.0</text>
<polyline fill="none" stroke="black" stroke-width="2" points="72,-254.5 72,-288.5 "/>
<text text-anchor="middle" x="83.5" y="-268.4" font-family="Arial" font-size="12.00">0</text>
</g>
<!-- ugen_2 -->
<g id="node3" class="node">
<title>ugen_2</title>
<path fill="#bcd2ee" stroke="black" stroke-width="2" d="M179,-394.5C179,-394.5 254,-394.5 254,-394.5 260,-394.5 266,-400.5 266,-406.5 266,-406.5 266,-560.5 266,-560.5 266,-566.5 260,-572.5 254,-572.5 254,-572.5 179,-572.5 179,-572.5 173,-572.5 167,-566.5 167,-560.5 167,-560.5 167,-406.5 167,-406.5 167,-400.5 173,-394.5 179,-394.5"/>
<text text-anchor="middle" x="216.5" y="-558.9" font-family="Arial" font-size="12.00">PanAz</text>
<text text-anchor="middle" x="216.5" y="-545.9" font-family="Arial" font-size="12.00">(audio)</text>
<polyline fill="none" stroke="black" stroke-width="2" points="167,-538.5 266,-538.5 "/>
<text text-anchor="middle" x="205" y="-524.9" font-family="Arial" font-size="12.00">source</text>
<polyline fill="none" stroke="black" stroke-width="2" points="167,-517.5 243,-517.5 "/>
<text text-anchor="middle" x="205" y="-503.9" font-family="Arial" font-size="12.00">position</text>
<polyline fill="none" stroke="black" stroke-width="2" points="167,-496.5 243,-496.5 "/>
<text text-anchor="middle" x="205" y="-482.9" font-family="Arial" font-size="12.00">amplitude:</text>
<text text-anchor="middle" x="205" y="-469.9" font-family="Arial" font-size="12.00">1.0</text>
<polyline fill="none" stroke="black" stroke-width="2" points="167,-462.5 243,-462.5 "/>
<text text-anchor="middle" x="205" y="-448.9" font-family="Arial" font-size="12.00">width:</text>
<text text-anchor="middle" x="205" y="-435.9" font-family="Arial" font-size="12.00">2.0</text>
<polyline fill="none" stroke="black" stroke-width="2" points="167,-428.5 243,-428.5 "/>
<text text-anchor="middle" x="205" y="-414.9" font-family="Arial" font-size="12.00">orientation:</text>
<text text-anchor="middle" x="205" y="-401.9" font-family="Arial" font-size="12.00">0.5</text>
<polyline fill="none" stroke="black" stroke-width="2" points="243,-394.5 243,-538.5 "/>
<text text-anchor="middle" x="254.5" y="-517.4" font-family="Arial" font-size="12.00">0</text>
<polyline fill="none" stroke="black" stroke-width="2" points="243,-502.5 266,-502.5 "/>
<text text-anchor="middle" x="254.5" y="-481.4" font-family="Arial" font-size="12.00">1</text>
<polyline fill="none" stroke="black" stroke-width="2" points="243,-466.5 266,-466.5 "/>
<text text-anchor="middle" x="254.5" y="-445.4" font-family="Arial" font-size="12.00">2</text>
<polyline fill="none" stroke="black" stroke-width="2" points="243,-430.5 266,-430.5 "/>
<text text-anchor="middle" x="254.5" y="-409.4" font-family="Arial" font-size="12.00">3</text>
</g>
<!-- ugen_3 -->
<g id="node4" class="node">
<title>ugen_3</title>
<path fill="#bcd2ee" stroke="black" stroke-width="2" d="M350,-417.5C350,-417.5 426,-417.5 426,-417.5 432,-417.5 438,-423.5 438,-429.5 438,-429.5 438,-523.5 438,-523.5 438,-529.5 432,-535.5 426,-535.5 426,-535.5 350,-535.5 350,-535.5 344,-535.5 338,-529.5 338,-523.5 338,-523.5 338,-429.5 338,-429.5 338,-423.5 344,-417.5 350,-417.5"/>
<text text-anchor="middle" x="388" y="-521.9" font-family="Arial" font-size="12.00">Sum4</text>
<text text-anchor="middle" x="388" y="-508.9" font-family="Arial" font-size="12.00">(audio)</text>
<polyline fill="none" stroke="black" stroke-width="2" points="338,-501.5 438,-501.5 "/>
<text text-anchor="middle" x="376.5" y="-487.9" font-family="Arial" font-size="12.00">input_one</text>
<polyline fill="none" stroke="black" stroke-width="2" points="338,-480.5 415,-480.5 "/>
<text text-anchor="middle" x="376.5" y="-466.9" font-family="Arial" font-size="12.00">input_two</text>
<polyline fill="none" stroke="black" stroke-width="2" points="338,-459.5 415,-459.5 "/>
<text text-anchor="middle" x="376.5" y="-445.9" font-family="Arial" font-size="12.00">input_three</text>
<polyline fill="none" stroke="black" stroke-width="2" points="338,-438.5 415,-438.5 "/>
<text text-anchor="middle" x="376.5" y="-424.9" font-family="Arial" font-size="12.00">input_four</text>
<polyline fill="none" stroke="black" stroke-width="2" points="415,-417.5 415,-501.5 "/>
<text text-anchor="middle" x="426.5" y="-456.4" font-family="Arial" font-size="12.00">0</text>
</g>
<!-- ugen_4 -->
<g id="node5" class="node">
<title>ugen_4</title>
<path fill="#bcd2ee" stroke="black" stroke-width="2" d="M12,-341.5C12,-341.5 83,-341.5 83,-341.5 89,-341.5 95,-347.5 95,-353.5 95,-353.5 95,-431.5 95,-431.5 95,-437.5 89,-443.5 83,-443.5 83,-443.5 12,-443.5 12,-443.5 6,-443.5 0,-437.5 0,-431.5 0,-431.5 0,-353.5 0,-353.5 0,-347.5 6,-341.5 12,-341.5"/>
<text text-anchor="middle" x="47.5" y="-429.9" font-family="Arial" font-size="12.00">SinOsc</text>
<text text-anchor="middle" x="47.5" y="-416.9" font-family="Arial" font-size="12.00">(audio)</text>
<polyline fill="none" stroke="black" stroke-width="2" points="0,-409.5 95,-409.5 "/>
<text text-anchor="middle" x="36" y="-395.9" font-family="Arial" font-size="12.00">frequency:</text>
<text text-anchor="middle" x="36" y="-382.9" font-family="Arial" font-size="12.00">660.0</text>
<polyline fill="none" stroke="black" stroke-width="2" points="0,-375.5 72,-375.5 "/>
<text text-anchor="middle" x="36" y="-361.9" font-family="Arial" font-size="12.00">phase:</text>
<text text-anchor="middle" x="36" y="-348.9" font-family="Arial" font-size="12.00">0.0</text>
<polyline fill="none" stroke="black" stroke-width="2" points="72,-341.5 72,-409.5 "/>
<text text-anchor="middle" x="83.5" y="-372.4" font-family="Arial" font-size="12.00">0</text>
</g>
<!-- ugen_5 -->
<g id="node6" class="node">
<title>ugen_5</title>
<path fill="#bcd2ee" stroke="black" stroke-width="2" d="M179,-197.5C179,-197.5 254,-197.5 254,-197.5 260,-197.5 266,-203.5 266,-209.5 266,-209.5 266,-363.5 266,-363.5 266,-369.5 260,-375.5 254,-375.5 254,-375.5 179,-375.5 179,-375.5 173,-375.5 167,-369.5 167,-363.5 167,-363.5 167,-209.5 167,-209.5 167,-203.5 173,-197.5 179,-197.5"/>
<text text-anchor="middle" x="216.5" y="-361.9" font-family="Arial" font-size="12.00">PanAz</text>
<text text-anchor="middle" x="216.5" y="-348.9" font-family="Arial" font-size="12.00">(audio)</text>
<polyline fill="none" stroke="black" stroke-width="2" points="167,-341.5 266,-341.5 "/>
<text text-anchor="middle" x="205" y="-327.9" font-family="Arial" font-size="12.00">source</text>
<polyline fill="none" stroke="black" stroke-width="2" points="167,-320.5 243,-320.5 "/>
<text text-anchor="middle" x="205" y="-306.9" font-family="Arial" font-size="12.00">position</text>
<polyline fill="none" stroke="black" stroke-width="2" points="167,-299.5 243,-299.5 "/>
<text text-anchor="middle" x="205" y="-285.9" font-family="Arial" font-size="12.00">amplitude:</text>
<text text-anchor="middle" x="205" y="-272.9" font-family="Arial" font-size="12.00">1.0</text>
<polyline fill="none" stroke="black" stroke-width="2" points="167,-265.5 243,-265.5 "/>
<text text-anchor="middle" x="205" y="-251.9" font-family="Arial" font-size="12.00">width:</text>
<text text-anchor="middle" x="205" y="-238.9" font-family="Arial" font-size="12.00">2.0</text>
<polyline fill="none" stroke="black" stroke-width="2" points="167,-231.5 243,-231.5 "/>
<text text-anchor="middle" x="205" y="-217.9" font-family="Arial" font-size="12.00">orientation:</text>
<text text-anchor="middle" x="205" y="-204.9" font-family="Arial" font-size="12.00">0.5</text>
<polyline fill="none" stroke="black" stroke-width="2" points="243,-197.5 243,-341.5 "/>
<text text-anchor="middle" x="254.5" y="-320.4" font-family="Arial" font-size="12.00">0</text>
<polyline fill="none" stroke="black" stroke-width="2" points="243,-305.5 266,-305.5 "/>
<text text-anchor="middle" x="254.5" y="-284.4" font-family="Arial" font-size="12.00">1</text>
<polyline fill="none" stroke="black" stroke-width="2" points="243,-269.5 266,-269.5 "/>
<text text-anchor="middle" x="254.5" y="-248.4" font-family="Arial" font-size="12.00">2</text>
<polyline fill="none" stroke="black" stroke-width="2" points="243,-233.5 266,-233.5 "/>
<text text-anchor="middle" x="254.5" y="-212.4" font-family="Arial" font-size="12.00">3</text>
</g>
<!-- ugen_6 -->
<g id="node7" class="node">
<title>ugen_6</title>
<path fill="#bcd2ee" stroke="black" stroke-width="2" d="M350,-227.5C350,-227.5 426,-227.5 426,-227.5 432,-227.5 438,-233.5 438,-239.5 438,-239.5 438,-333.5 438,-333.5 438,-339.5 432,-345.5 426,-345.5 426,-345.5 350,-345.5 350,-345.5 344,-345.5 338,-339.5 338,-333.5 338,-333.5 338,-239.5 338,-239.5 338,-233.5 344,-227.5 350,-227.5"/>
<text text-anchor="middle" x="388" y="-331.9" font-family="Arial" font-size="12.00">Sum4</text>
<text text-anchor="middle" x="388" y="-318.9" font-family="Arial" font-size="12.00">(audio)</text>
<polyline fill="none" stroke="black" stroke-width="2" points="338,-311.5 438,-311.5 "/>
<text text-anchor="middle" x="376.5" y="-297.9" font-family="Arial" font-size="12.00">input_one</text>
<polyline fill="none" stroke="black" stroke-width="2" points="338,-290.5 415,-290.5 "/>
<text text-anchor="middle" x="376.5" y="-276.9" font-family="Arial" font-size="12.00">input_two</text>
<polyline fill="none" stroke="black" stroke-width="2" points="338,-269.5 415,-269.5 "/>
<text text-anchor="middle" x="376.5" y="-255.9" font-family="Arial" font-size="12.00">input_three</text>
<polyline fill="none" stroke="black" stroke-width="2" points="338,-248.5 415,-248.5 "/>
<text text-anchor="middle" x="376.5" y="-234.9" font-family="Arial" font-size="12.00">input_four</text>
<polyline fill="none" stroke="black" stroke-width="2" points="415,-227.5 415,-311.5 "/>
<text text-anchor="middle" x="426.5" y="-266.4" font-family="Arial" font-size="12.00">0</text>
</g>
<!-- ugen_7 -->
<g id="node8" class="node">
<title>ugen_7</title>
<path fill="#bcd2ee" stroke="black" stroke-width="2" d="M12,-100.5C12,-100.5 83,-100.5 83,-100.5 89,-100.5 95,-106.5 95,-112.5 95,-112.5 95,-190.5 95,-190.5 95,-196.5 89,-202.5 83,-202.5 83,-202.5 12,-202.5 12,-202.5 6,-202.5 0,-196.5 0,-190.5 0,-190.5 0,-112.5 0,-112.5 0,-106.5 6,-100.5 12,-100.5"/>
<text text-anchor="middle" x="47.5" y="-188.9" font-family="Arial" font-size="12.00">SinOsc</text>
<text text-anchor="middle" x="47.5" y="-175.9" font-family="Arial" font-size="12.00">(audio)</text>
<polyline fill="none" stroke="black" stroke-width="2" points="0,-168.5 95,-168.5 "/>
<text text-anchor="middle" x="36" y="-154.9" font-family="Arial" font-size="12.00">frequency:</text>
<text text-anchor="middle" x="36" y="-141.9" font-family="Arial" font-size="12.00">880.0</text>
<polyline fill="none" stroke="black" stroke-width="2" points="0,-134.5 72,-134.5 "/>
<text text-anchor="middle" x="36" y="-120.9" font-family="Arial" font-size="12.00">phase:</text>
<text text-anchor="middle" x="36" y="-107.9" font-family="Arial" font-size="12.00">0.0</text>
<polyline fill="none" stroke="black" stroke-width="2" points="72,-100.5 72,-168.5 "/>
<text text-anchor="middle" x="83.5" y="-131.4" font-family="Arial" font-size="12.00">0</text>
</g>
<!-- ugen_8 -->
<g id="node9" class="node">
<title>ugen_8</title>
<path fill="#bcd2ee" stroke="black" stroke-width="2" d="M179,-0.5C179,-0.5 254,-0.5 254,-0.5 260,-0.5 266,-6.5 266,-12.5 266,-12.5 266,-166.5 266,-166.5 266,-172.5 260,-178.5 254,-178.5 254,-178.5 179,-178.5 179,-178.5 173,-178.5 167,-172.5 167,-166.5 167,-166.5 167,-12.5 167,-12.5 167,-6.5 173,-0.5 179,-0.5"/>
<text text-anchor="middle" x="216.5" y="-164.9" font-family="Arial" font-size="12.00">PanAz</text>
<text text-anchor="middle" x="216.5" y="-151.9" font-family="Arial" font-size="12.00">(audio)</text>
<polyline fill="none" stroke="black" stroke-width="2" points="167,-144.5 266,-144.5 "/>
<text text-anchor="middle" x="205" y="-130.9" font-family="Arial" font-size="12.00">source</text>
<polyline fill="none" stroke="black" stroke-width="2" points="167,-123.5 243,-123.5 "/>
<text text-anchor="middle" x="205" y="-109.9" font-family="Arial" font-size="12.00">position</text>
<polyline fill="none" stroke="black" stroke-width="2" points="167,-102.5 243,-102.5 "/>
<text text-anchor="middle" x="205" y="-88.9" font-family="Arial" font-size="12.00">amplitude:</text>
<text text-anchor="middle" x="205" y="-75.9" font-family="Arial" font-size="12.00">1.0</text>
<polyline fill="none" stroke="black" stroke-width="2" points="167,-68.5 243,-68.5 "/>
<text text-anchor="middle" x="205" y="-54.9" font-family="Arial" font-size="12.00">width:</text>
<text text-anchor="middle" x="205" y="-41.9" font-family="Arial" font-size="12.00">2.0</text>
<polyline fill="none" stroke="black" stroke-width="2" points="167,-34.5 243,-34.5 "/>
<text text-anchor="middle" x="205" y="-20.9" font-family="Arial" font-size="12.00">orientation:</text>
<text text-anchor="middle" x="205" y="-7.9" font-family="Arial" font-size="12.00">0.5</text>
<polyline fill="none" stroke="black" stroke-width="2" points="243,-0.5 243,-144.5 "/>
<text text-anchor="middle" x="254.5" y="-123.4" font-family="Arial" font-size="12.00">0</text>
<polyline fill="none" stroke="black" stroke-width="2" points="243,-108.5 266,-108.5 "/>
<text text-anchor="middle" x="254.5" y="-87.4" font-family="Arial" font-size="12.00">1</text>
<polyline fill="none" stroke="black" stroke-width="2" points="243,-72.5 266,-72.5 "/>
<text text-anchor="middle" x="254.5" y="-51.4" font-family="Arial" font-size="12.00">2</text>
<polyline fill="none" stroke="black" stroke-width="2" points="243,-36.5 266,-36.5 "/>
<text text-anchor="middle" x="254.5" y="-15.4" font-family="Arial" font-size="12.00">3</text>
</g>
<!-- ugen_9 -->
<g id="node10" class="node">
<title>ugen_9</title>
<path fill="#bcd2ee" stroke="black" stroke-width="2" d="M350,-38.5C350,-38.5 426,-38.5 426,-38.5 432,-38.5 438,-44.5 438,-50.5 438,-50.5 438,-144.5 438,-144.5 438,-150.5 432,-156.5 426,-156.5 426,-156.5 350,-156.5 350,-156.5 344,-156.5 338,-150.5 338,-144.5 338,-144.5 338,-50.5 338,-50.5 338,-44.5 344,-38.5 350,-38.5"/>
<text text-anchor="middle" x="388" y="-142.9" font-family="Arial" font-size="12.00">Sum4</text>
<text text-anchor="middle" x="388" y="-129.9" font-family="Arial" font-size="12.00">(audio)</text>
<polyline fill="none" stroke="black" stroke-width="2" points="338,-122.5 438,-122.5 "/>
<text text-anchor="middle" x="376.5" y="-108.9" font-family="Arial" font-size="12.00">input_one</text>
<polyline fill="none" stroke="black" stroke-width="2" points="338,-101.5 415,-101.5 "/>
<text text-anchor="middle" x="376.5" y="-87.9" font-family="Arial" font-size="12.00">input_two</text>
<polyline fill="none" stroke="black" stroke-width="2" points="338,-80.5 415,-80.5 "/>
<text text-anchor="middle" x="376.5" y="-66.9" font-family="Arial" font-size="12.00">input_three</text>
<polyline fill="none" stroke="black" stroke-width="2" points="338,-59.5 415,-59.5 "/>
<text text-anchor="middle" x="376.5" y="-45.9" font-family="Arial" font-size="12.00">input_four</text>
<polyline fill="none" stroke="black" stroke-width="2" points="415,-38.5 415,-122.5 "/>
<text text-anchor="middle" x="426.5" y="-77.4" font-family="Arial" font-size="12.00">0</text>
</g>
<!-- ugen_10 -->
<g id="node11" class="node">
<title>ugen_10</title>
<path fill="#bcd2ee" stroke="black" stroke-width="2" d="M522,-238C522,-238 598,-238 598,-238 604,-238 610,-244 610,-250 610,-250 610,-323 610,-323 610,-329 604,-335 598,-335 598,-335 522,-335 522,-335 516,-335 510,-329 510,-323 510,-323 510,-250 510,-250 510,-244 516,-238 522,-238"/>
<text text-anchor="middle" x="560" y="-321.4" font-family="Arial" font-size="12.00">Sum3</text>
<text text-anchor="middle" x="560" y="-308.4" font-family="Arial" font-size="12.00">(audio)</text>
<polyline fill="none" stroke="black" stroke-width="2" points="510,-301 610,-301 "/>
<text text-anchor="middle" x="548.5" y="-287.4" font-family="Arial" font-size="12.00">input_one</text>
<polyline fill="none" stroke="black" stroke-width="2" points="510,-280 587,-280 "/>
<text text-anchor="middle" x="548.5" y="-266.4" font-family="Arial" font-size="12.00">input_two</text>
<polyline fill="none" stroke="black" stroke-width="2" points="510,-259 587,-259 "/>
<text text-anchor="middle" x="548.5" y="-245.4" font-family="Arial" font-size="12.00">input_three</text>
<polyline fill="none" stroke="black" stroke-width="2" points="587,-238 587,-301 "/>
<text text-anchor="middle" x="598.5" y="-266.4" font-family="Arial" font-size="12.00">0</text>
</g>
<!-- ugen_11 -->
<g id="node12" class="node">
<title>ugen_11</title>
<path fill="#bcd2ee" stroke="black" stroke-width="2" d="M694,-259C694,-259 724,-259 724,-259 730,-259 736,-265 736,-271 736,-271 736,-336 736,-336 736,-342 730,-348 724,-348 724,-348 694,-348 694,-348 688,-348 682,-342 682,-336 682,-336 682,-271 682,-271 682,-265 688,-259 694,-259"/>
<text text-anchor="middle" x="709" y="-334.4" font-family="Arial" font-size="12.00">Out</text>
<text text-anchor="middle" x="709" y="-321.4" font-family="Arial" font-size="12.00">(audio)</text>
<polyline fill="none" stroke="black" stroke-width="2" points="682,-314 736,-314 "/>
<text text-anchor="middle" x="709" y="-300.4" font-family="Arial" font-size="12.00">bus:</text>
<text text-anchor="middle" x="709" y="-287.4" font-family="Arial" font-size="12.00">0.0</text>
<polyline fill="none" stroke="black" stroke-width="2" points="682,-280 736,-280 "/>
<text text-anchor="middle" x="709" y="-266.4" font-family="Arial" font-size="12.00">source</text>
</g>
</g>
</svg>
