<?xml version="1.0" encoding="UTF-8" standalone="no"?>
<!DOCTYPE svg PUBLIC "-//W3C//DTD SVG 1.1//EN"
 "http://www.w3.org/Graphics/SVG/1.1/DTD/svg11.dtd">
<!-- Generated by graphviz version 2.49.1 (20210923.0004)
 -->
<!-- Title: synthdef_e2295e64ed7b9c949ec22ccdc82520e3 Pages: 1 -->
<svg width="249pt" height="132pt"
 viewBox="0.00 0.00 249.00 132.00" xmlns="http://www.w3.org/2000/svg" xmlns:xlink="http://www.w3.org/1999/xlink">
<g id="graph0" class="graph" transform="scale(1 1) rotate(0) translate(4 128)">
<title>synthdef_e2295e64ed7b9c949ec22ccdc82520e3</title>
<!-- ugen_0&#45;&gt;ugen_1 -->
<g id="edge1" class="edge">
<title>ugen_0:e&#45;&gt;ugen_1:w</title>
<path fill="none" stroke="steelblue" stroke-width="2" d="M78,-79C106.38,-79 115.88,-79 139.98,-79"/>
<polygon fill="steelblue" stroke="steelblue" stroke-width="2" points="140,-82.5 150,-79 140,-75.5 140,-82.5"/>
</g>
<!-- ugen_0 -->
<g id="node1" class="node">
<title>ugen_0</title>
<path fill="#bcd2ee" stroke="black" stroke-width="2" d="M12,-68.5C12,-68.5 66,-68.5 66,-68.5 72,-68.5 78,-74.5 78,-80.5 78,-80.5 78,-111.5 78,-111.5 78,-117.5 72,-123.5 66,-123.5 66,-123.5 12,-123.5 12,-123.5 6,-123.5 0,-117.5 0,-111.5 0,-111.5 0,-80.5 0,-80.5 0,-74.5 6,-68.5 12,-68.5"/>
<text text-anchor="middle" x="39" y="-109.9" font-family="Arial" font-size="12.00">WhiteNoise</text>
<text text-anchor="middle" x="39" y="-96.9" font-family="Arial" font-size="12.00">(audio)</text>
<polyline fill="none" stroke="black" stroke-width="2" points="0,-89.5 78,-89.5 "/>
<text text-anchor="middle" x="39" y="-75.9" font-family="Arial" font-size="12.00">0</text>
</g>
<!-- ugen_1 -->
<g id="node2" class="node">
<title>ugen_1</title>
<path fill="#bcd2ee" stroke="black" stroke-width="2" d="M162,-0.5C162,-0.5 229,-0.5 229,-0.5 235,-0.5 241,-6.5 241,-12.5 241,-12.5 241,-111.5 241,-111.5 241,-117.5 235,-123.5 229,-123.5 229,-123.5 162,-123.5 162,-123.5 156,-123.5 150,-117.5 150,-111.5 150,-111.5 150,-12.5 150,-12.5 150,-6.5 156,-0.5 162,-0.5"/>
<text text-anchor="middle" x="195.5" y="-109.9" font-family="Arial" font-size="12.00">MulAdd</text>
<text text-anchor="middle" x="195.5" y="-96.9" font-family="Arial" font-size="12.00">(audio)</text>
<polyline fill="none" stroke="black" stroke-width="2" points="150,-89.5 241,-89.5 "/>
<text text-anchor="middle" x="184" y="-75.9" font-family="Arial" font-size="12.00">source</text>
<polyline fill="none" stroke="black" stroke-width="2" points="150,-68.5 218,-68.5 "/>
<text text-anchor="middle" x="184" y="-54.9" font-family="Arial" font-size="12.00">multiplier:</text>
<text text-anchor="middle" x="184" y="-41.9" font-family="Arial" font-size="12.00">0.125</text>
<polyline fill="none" stroke="black" stroke-width="2" points="150,-34.5 218,-34.5 "/>
<text text-anchor="middle" x="184" y="-20.9" font-family="Arial" font-size="12.00">addend:</text>
<text text-anchor="middle" x="184" y="-7.9" font-family="Arial" font-size="12.00">0.625</text>
<polyline fill="none" stroke="black" stroke-width="2" points="218,-0.5 218,-89.5 "/>
<text text-anchor="middle" x="229.5" y="-41.9" font-family="Arial" font-size="12.00">0</text>
</g>
</g>
</svg>
