<?xml version="1.0" encoding="UTF-8" standalone="no"?>
<!DOCTYPE svg PUBLIC "-//W3C//DTD SVG 1.1//EN"
 "http://www.w3.org/Graphics/SVG/1.1/DTD/svg11.dtd">
<!-- Generated by graphviz version 2.43.0 (0)
 -->
<!-- Title: synthdef_fbe87bfdce229ac82c0eb5bb214fddbd Pages: 1 -->
<svg width="856pt" height="638pt"
 viewBox="0.00 0.00 856.00 637.50" xmlns="http://www.w3.org/2000/svg" xmlns:xlink="http://www.w3.org/1999/xlink">
<g id="graph0" class="graph" transform="scale(1 1) rotate(0) translate(4 633.5)">
<title>synthdef_fbe87bfdce229ac82c0eb5bb214fddbd</title>
<!-- ugen_0&#45;&gt;ugen_1 -->
<g id="edge1" class="edge">
<title>ugen_0:e&#45;&gt;ugen_1:w</title>
<path fill="none" stroke="salmon" stroke-width="2" d="M63,-477.5C95.7,-477.5 98.38,-508.98 124.98,-515.37"/>
<polygon fill="salmon" stroke="salmon" stroke-width="2" points="124.67,-518.86 135,-516.5 125.45,-511.91 124.67,-518.86"/>
</g>
<!-- ugen_0&#45;&gt;ugen_3 -->
<g id="edge2" class="edge">
<title>ugen_0:e&#45;&gt;ugen_3:w</title>
<path fill="none" stroke="salmon" stroke-width="2" d="M63,-443.5C112.77,-443.5 106.32,-380.14 148.41,-371.48"/>
<polygon fill="salmon" stroke="salmon" stroke-width="2" points="148.88,-374.95 158.5,-370.5 148.21,-367.98 148.88,-374.95"/>
</g>
<!-- ugen_0&#45;&gt;ugen_10 -->
<g id="edge3" class="edge">
<title>ugen_0:e&#45;&gt;ugen_10:w</title>
<path fill="none" stroke="salmon" stroke-width="2" d="M63,-443.5C349.79,-443.5 434.35,-510.32 708,-424.5 740.9,-414.18 741.94,-384.22 769.9,-378.46"/>
<polygon fill="salmon" stroke="salmon" stroke-width="2" points="770.38,-381.93 780,-377.5 769.71,-374.96 770.38,-381.93"/>
</g>
<!-- ugen_1&#45;&gt;ugen_2 -->
<g id="edge4" class="edge">
<title>ugen_1:e&#45;&gt;ugen_2:w</title>
<path fill="none" stroke="goldenrod" stroke-width="2" d="M244,-533.5C320.89,-533.5 465.7,-370.39 548.03,-357.33"/>
<polygon fill="goldenrod" stroke="goldenrod" stroke-width="2" points="548.32,-360.82 558,-356.5 547.74,-353.84 548.32,-360.82"/>
</g>
<!-- ugen_2&#45;&gt;ugen_10 -->
<g id="edge5" class="edge">
<title>ugen_2:e&#45;&gt;ugen_10:w</title>
<path fill="none" stroke="goldenrod" stroke-width="2" d="M698,-356.5C730.74,-356.5 741.42,-356.5 769.68,-356.5"/>
<polygon fill="goldenrod" stroke="goldenrod" stroke-width="2" points="770,-360 780,-356.5 770,-353 770,-360"/>
</g>
<!-- ugen_3&#45;&gt;ugen_6 -->
<g id="edge6" class="edge">
<title>ugen_3:e&#45;&gt;ugen_6:w</title>
<path fill="none" stroke="steelblue" stroke-width="2" d="M220.5,-370.5C263.08,-370.5 269.06,-335.66 305.92,-330.21"/>
<polygon fill="steelblue" stroke="steelblue" stroke-width="2" points="306.27,-333.7 316,-329.5 305.78,-326.71 306.27,-333.7"/>
</g>
<!-- ugen_4&#45;&gt;ugen_6 -->
<g id="edge7" class="edge">
<title>ugen_4:e&#45;&gt;ugen_6:w</title>
<path fill="none" stroke="salmon" stroke-width="2" d="M237.5,-151.5C291.02,-151.5 263.04,-240.78 306.05,-252.28"/>
<polygon fill="salmon" stroke="salmon" stroke-width="2" points="305.65,-255.76 316,-253.5 306.5,-248.81 305.65,-255.76"/>
</g>
<!-- ugen_5&#45;&gt;ugen_6 -->
<g id="edge8" class="edge">
<title>ugen_5:e&#45;&gt;ugen_6:w</title>
<path fill="none" stroke="salmon" stroke-width="2" d="M237.5,-272.5C268.72,-272.5 278.97,-274.1 305.77,-274.44"/>
<polygon fill="salmon" stroke="salmon" stroke-width="2" points="305.98,-277.94 316,-274.5 306.02,-270.94 305.98,-277.94"/>
</g>
<!-- ugen_6&#45;&gt;ugen_9 -->
<g id="edge9" class="edge">
<title>ugen_6:e&#45;&gt;ugen_9:w</title>
<path fill="none" stroke="steelblue" stroke-width="2" d="M476,-291.5C510.05,-291.5 510.55,-254.86 538.05,-247.7"/>
<polygon fill="steelblue" stroke="steelblue" stroke-width="2" points="538.49,-251.18 548,-246.5 537.65,-244.23 538.49,-251.18"/>
</g>
<!-- ugen_7&#45;&gt;ugen_9 -->
<g id="edge10" class="edge">
<title>ugen_7:e&#45;&gt;ugen_9:w</title>
<path fill="none" stroke="salmon" stroke-width="2" d="M444,-34.5C516.38,-34.5 476.32,-157.54 537.71,-169.56"/>
<polygon fill="salmon" stroke="salmon" stroke-width="2" points="537.72,-173.07 548,-170.5 538.36,-166.1 537.72,-173.07"/>
</g>
<!-- ugen_8&#45;&gt;ugen_9 -->
<g id="edge11" class="edge">
<title>ugen_8:e&#45;&gt;ugen_9:w</title>
<path fill="none" stroke="salmon" stroke-width="2" d="M444,-155.5C489.28,-155.5 497.94,-186.35 537.78,-190.93"/>
<polygon fill="salmon" stroke="salmon" stroke-width="2" points="537.82,-194.44 548,-191.5 538.21,-187.45 537.82,-194.44"/>
</g>
<!-- ugen_9&#45;&gt;ugen_10 -->
<g id="edge12" class="edge">
<title>ugen_9:e&#45;&gt;ugen_10:w</title>
<path fill="none" stroke="steelblue" stroke-width="2" d="M708,-208.5C769.08,-208.5 721.46,-321.05 769.81,-334.24"/>
<polygon fill="steelblue" stroke="steelblue" stroke-width="2" points="769.65,-337.75 780,-335.5 770.5,-330.8 769.65,-337.75"/>
</g>
<!-- ugen_0 -->
<g id="node1" class="node">
<title>ugen_0</title>
<path fill="#ee9572" stroke="black" stroke-width="2" d="M12,-426.5C12,-426.5 51,-426.5 51,-426.5 57,-426.5 63,-432.5 63,-438.5 63,-438.5 63,-516.5 63,-516.5 63,-522.5 57,-528.5 51,-528.5 51,-528.5 12,-528.5 12,-528.5 6,-528.5 0,-522.5 0,-516.5 0,-516.5 0,-438.5 0,-438.5 0,-432.5 6,-426.5 12,-426.5"/>
<text text-anchor="middle" x="31.5" y="-514.9" font-family="Arial" font-size="12.00">Control</text>
<text text-anchor="middle" x="31.5" y="-501.9" font-family="Arial" font-size="12.00">(scalar)</text>
<polyline fill="none" stroke="black" stroke-width="2" points="0,-494.5 63,-494.5 "/>
<text text-anchor="middle" x="31.5" y="-480.9" font-family="Arial" font-size="12.00">duration:</text>
<text text-anchor="middle" x="31.5" y="-467.9" font-family="Arial" font-size="12.00">1.0</text>
<polyline fill="none" stroke="black" stroke-width="2" points="0,-460.5 63,-460.5 "/>
<text text-anchor="middle" x="31.5" y="-446.9" font-family="Arial" font-size="12.00">out:</text>
<text text-anchor="middle" x="31.5" y="-433.9" font-family="Arial" font-size="12.00">0.0</text>
</g>
<!-- ugen_1 -->
<g id="node2" class="node">
<title>ugen_1</title>
<path fill="#eedc82" stroke="black" stroke-width="2" d="M147,-472C147,-472 232,-472 232,-472 238,-472 244,-478 244,-484 244,-484 244,-617 244,-617 244,-623 238,-629 232,-629 232,-629 147,-629 147,-629 141,-629 135,-623 135,-617 135,-617 135,-484 135,-484 135,-478 141,-472 147,-472"/>
<text text-anchor="middle" x="189.5" y="-615.4" font-family="Arial" font-size="12.00">Line</text>
<text text-anchor="middle" x="189.5" y="-602.4" font-family="Arial" font-size="12.00">(control)</text>
<polyline fill="none" stroke="black" stroke-width="2" points="135,-595 244,-595 "/>
<text text-anchor="middle" x="178" y="-581.4" font-family="Arial" font-size="12.00">start:</text>
<text text-anchor="middle" x="178" y="-568.4" font-family="Arial" font-size="12.00">0.0</text>
<polyline fill="none" stroke="black" stroke-width="2" points="135,-561 221,-561 "/>
<text text-anchor="middle" x="178" y="-547.4" font-family="Arial" font-size="12.00">stop:</text>
<text text-anchor="middle" x="178" y="-534.4" font-family="Arial" font-size="12.00">1.0</text>
<polyline fill="none" stroke="black" stroke-width="2" points="135,-527 221,-527 "/>
<text text-anchor="middle" x="178" y="-513.4" font-family="Arial" font-size="12.00">duration</text>
<polyline fill="none" stroke="black" stroke-width="2" points="135,-506 221,-506 "/>
<text text-anchor="middle" x="178" y="-492.4" font-family="Arial" font-size="12.00">done_action:</text>
<text text-anchor="middle" x="178" y="-479.4" font-family="Arial" font-size="12.00">2.0</text>
<polyline fill="none" stroke="black" stroke-width="2" points="221,-472 221,-595 "/>
<text text-anchor="middle" x="232.5" y="-530.4" font-family="Arial" font-size="12.00">0</text>
</g>
<!-- ugen_2 -->
<g id="node3" class="node">
<title>ugen_2</title>
<path fill="#eedc82" stroke="black" stroke-width="2" d="M571,-346.5C571,-346.5 685,-346.5 685,-346.5 691,-346.5 697,-352.5 697,-358.5 697,-358.5 697,-402.5 697,-402.5 697,-408.5 691,-414.5 685,-414.5 685,-414.5 571,-414.5 571,-414.5 565,-414.5 559,-408.5 559,-402.5 559,-402.5 559,-358.5 559,-358.5 559,-352.5 565,-346.5 571,-346.5"/>
<text text-anchor="middle" x="628" y="-400.9" font-family="Arial" font-size="12.00">UnaryOpUGen</text>
<text text-anchor="middle" x="628" y="-387.9" font-family="Arial" font-size="12.00">[HANNING_WINDOW]</text>
<text text-anchor="middle" x="628" y="-374.9" font-family="Arial" font-size="12.00">(control)</text>
<polyline fill="none" stroke="black" stroke-width="2" points="559,-367.5 697,-367.5 "/>
<text text-anchor="middle" x="601" y="-353.9" font-family="Arial" font-size="12.00">source</text>
<polyline fill="none" stroke="black" stroke-width="2" points="643,-346.5 643,-367.5 "/>
<text text-anchor="middle" x="670" y="-353.9" font-family="Arial" font-size="12.00">0</text>
</g>
<!-- ugen_3 -->
<g id="node4" class="node">
<title>ugen_3</title>
<path fill="#bcd2ee" stroke="black" stroke-width="2" d="M172,-360C172,-360 207,-360 207,-360 213,-360 219,-366 219,-372 219,-372 219,-403 219,-403 219,-409 213,-415 207,-415 207,-415 172,-415 172,-415 166,-415 160,-409 160,-403 160,-403 160,-372 160,-372 160,-366 166,-360 172,-360"/>
<text text-anchor="middle" x="189.5" y="-401.4" font-family="Arial" font-size="12.00">In</text>
<text text-anchor="middle" x="189.5" y="-388.4" font-family="Arial" font-size="12.00">(audio)</text>
<polyline fill="none" stroke="black" stroke-width="2" points="160,-381 219,-381 "/>
<text text-anchor="middle" x="178" y="-367.4" font-family="Arial" font-size="12.00">bus</text>
<polyline fill="none" stroke="black" stroke-width="2" points="196,-360 196,-381 "/>
<text text-anchor="middle" x="207.5" y="-367.4" font-family="Arial" font-size="12.00">0</text>
</g>
<!-- ugen_4 -->
<g id="node5" class="node">
<title>ugen_4</title>
<path fill="#ee9572" stroke="black" stroke-width="2" d="M154.5,-117.5C154.5,-117.5 224.5,-117.5 224.5,-117.5 230.5,-117.5 236.5,-123.5 236.5,-129.5 236.5,-129.5 236.5,-207.5 236.5,-207.5 236.5,-213.5 230.5,-219.5 224.5,-219.5 224.5,-219.5 154.5,-219.5 154.5,-219.5 148.5,-219.5 142.5,-213.5 142.5,-207.5 142.5,-207.5 142.5,-129.5 142.5,-129.5 142.5,-123.5 148.5,-117.5 154.5,-117.5"/>
<text text-anchor="middle" x="189.5" y="-205.9" font-family="Arial" font-size="12.00">ExpRand</text>
<text text-anchor="middle" x="189.5" y="-192.9" font-family="Arial" font-size="12.00">(scalar)</text>
<polyline fill="none" stroke="black" stroke-width="2" points="142.5,-185.5 236.5,-185.5 "/>
<text text-anchor="middle" x="178" y="-171.9" font-family="Arial" font-size="12.00">minimum:</text>
<text text-anchor="middle" x="178" y="-158.9" font-family="Arial" font-size="12.00">0.01</text>
<polyline fill="none" stroke="black" stroke-width="2" points="142.5,-151.5 213.5,-151.5 "/>
<text text-anchor="middle" x="178" y="-137.9" font-family="Arial" font-size="12.00">maximum:</text>
<text text-anchor="middle" x="178" y="-124.9" font-family="Arial" font-size="12.00">0.1</text>
<polyline fill="none" stroke="black" stroke-width="2" points="213.5,-117.5 213.5,-185.5 "/>
<text text-anchor="middle" x="225" y="-148.4" font-family="Arial" font-size="12.00">0</text>
</g>
<!-- ugen_5 -->
<g id="node6" class="node">
<title>ugen_5</title>
<path fill="#ee9572" stroke="black" stroke-width="2" d="M154.5,-238.5C154.5,-238.5 224.5,-238.5 224.5,-238.5 230.5,-238.5 236.5,-244.5 236.5,-250.5 236.5,-250.5 236.5,-328.5 236.5,-328.5 236.5,-334.5 230.5,-340.5 224.5,-340.5 224.5,-340.5 154.5,-340.5 154.5,-340.5 148.5,-340.5 142.5,-334.5 142.5,-328.5 142.5,-328.5 142.5,-250.5 142.5,-250.5 142.5,-244.5 148.5,-238.5 154.5,-238.5"/>
<text text-anchor="middle" x="189.5" y="-326.9" font-family="Arial" font-size="12.00">ExpRand</text>
<text text-anchor="middle" x="189.5" y="-313.9" font-family="Arial" font-size="12.00">(scalar)</text>
<polyline fill="none" stroke="black" stroke-width="2" points="142.5,-306.5 236.5,-306.5 "/>
<text text-anchor="middle" x="178" y="-292.9" font-family="Arial" font-size="12.00">minimum:</text>
<text text-anchor="middle" x="178" y="-279.9" font-family="Arial" font-size="12.00">0.01</text>
<polyline fill="none" stroke="black" stroke-width="2" points="142.5,-272.5 213.5,-272.5 "/>
<text text-anchor="middle" x="178" y="-258.9" font-family="Arial" font-size="12.00">maximum:</text>
<text text-anchor="middle" x="178" y="-245.9" font-family="Arial" font-size="12.00">0.1</text>
<polyline fill="none" stroke="black" stroke-width="2" points="213.5,-238.5 213.5,-306.5 "/>
<text text-anchor="middle" x="225" y="-269.4" font-family="Arial" font-size="12.00">0</text>
</g>
<!-- ugen_6 -->
<g id="node7" class="node">
<title>ugen_6</title>
<path fill="#bcd2ee" stroke="black" stroke-width="2" d="M328,-243C328,-243 464,-243 464,-243 470,-243 476,-249 476,-255 476,-255 476,-362 476,-362 476,-368 470,-374 464,-374 464,-374 328,-374 328,-374 322,-374 316,-368 316,-362 316,-362 316,-255 316,-255 316,-249 322,-243 328,-243"/>
<text text-anchor="middle" x="396" y="-360.4" font-family="Arial" font-size="12.00">AllpassC</text>
<text text-anchor="middle" x="396" y="-347.4" font-family="Arial" font-size="12.00">(audio)</text>
<polyline fill="none" stroke="black" stroke-width="2" points="316,-340 476,-340 "/>
<text text-anchor="middle" x="384.5" y="-326.4" font-family="Arial" font-size="12.00">source</text>
<polyline fill="none" stroke="black" stroke-width="2" points="316,-319 453,-319 "/>
<text text-anchor="middle" x="384.5" y="-305.4" font-family="Arial" font-size="12.00">maximum_delay_time:</text>
<text text-anchor="middle" x="384.5" y="-292.4" font-family="Arial" font-size="12.00">0.1</text>
<polyline fill="none" stroke="black" stroke-width="2" points="316,-285 453,-285 "/>
<text text-anchor="middle" x="384.5" y="-271.4" font-family="Arial" font-size="12.00">delay_time</text>
<polyline fill="none" stroke="black" stroke-width="2" points="316,-264 453,-264 "/>
<text text-anchor="middle" x="384.5" y="-250.4" font-family="Arial" font-size="12.00">decay_time</text>
<polyline fill="none" stroke="black" stroke-width="2" points="453,-243 453,-340 "/>
<text text-anchor="middle" x="464.5" y="-288.4" font-family="Arial" font-size="12.00">0</text>
</g>
<!-- ugen_7 -->
<g id="node8" class="node">
<title>ugen_7</title>
<path fill="#ee9572" stroke="black" stroke-width="2" d="M361,-0.5C361,-0.5 431,-0.5 431,-0.5 437,-0.5 443,-6.5 443,-12.5 443,-12.5 443,-90.5 443,-90.5 443,-96.5 437,-102.5 431,-102.5 431,-102.5 361,-102.5 361,-102.5 355,-102.5 349,-96.5 349,-90.5 349,-90.5 349,-12.5 349,-12.5 349,-6.5 355,-0.5 361,-0.5"/>
<text text-anchor="middle" x="396" y="-88.9" font-family="Arial" font-size="12.00">ExpRand</text>
<text text-anchor="middle" x="396" y="-75.9" font-family="Arial" font-size="12.00">(scalar)</text>
<polyline fill="none" stroke="black" stroke-width="2" points="349,-68.5 443,-68.5 "/>
<text text-anchor="middle" x="384.5" y="-54.9" font-family="Arial" font-size="12.00">minimum:</text>
<text text-anchor="middle" x="384.5" y="-41.9" font-family="Arial" font-size="12.00">0.01</text>
<polyline fill="none" stroke="black" stroke-width="2" points="349,-34.5 420,-34.5 "/>
<text text-anchor="middle" x="384.5" y="-20.9" font-family="Arial" font-size="12.00">maximum:</text>
<text text-anchor="middle" x="384.5" y="-7.9" font-family="Arial" font-size="12.00">0.1</text>
<polyline fill="none" stroke="black" stroke-width="2" points="420,-0.5 420,-68.5 "/>
<text text-anchor="middle" x="431.5" y="-31.4" font-family="Arial" font-size="12.00">0</text>
</g>
<!-- ugen_8 -->
<g id="node9" class="node">
<title>ugen_8</title>
<path fill="#ee9572" stroke="black" stroke-width="2" d="M361,-121.5C361,-121.5 431,-121.5 431,-121.5 437,-121.5 443,-127.5 443,-133.5 443,-133.5 443,-211.5 443,-211.5 443,-217.5 437,-223.5 431,-223.5 431,-223.5 361,-223.5 361,-223.5 355,-223.5 349,-217.5 349,-211.5 349,-211.5 349,-133.5 349,-133.5 349,-127.5 355,-121.5 361,-121.5"/>
<text text-anchor="middle" x="396" y="-209.9" font-family="Arial" font-size="12.00">ExpRand</text>
<text text-anchor="middle" x="396" y="-196.9" font-family="Arial" font-size="12.00">(scalar)</text>
<polyline fill="none" stroke="black" stroke-width="2" points="349,-189.5 443,-189.5 "/>
<text text-anchor="middle" x="384.5" y="-175.9" font-family="Arial" font-size="12.00">minimum:</text>
<text text-anchor="middle" x="384.5" y="-162.9" font-family="Arial" font-size="12.00">0.01</text>
<polyline fill="none" stroke="black" stroke-width="2" points="349,-155.5 420,-155.5 "/>
<text text-anchor="middle" x="384.5" y="-141.9" font-family="Arial" font-size="12.00">maximum:</text>
<text text-anchor="middle" x="384.5" y="-128.9" font-family="Arial" font-size="12.00">0.1</text>
<polyline fill="none" stroke="black" stroke-width="2" points="420,-121.5 420,-189.5 "/>
<text text-anchor="middle" x="431.5" y="-152.4" font-family="Arial" font-size="12.00">0</text>
</g>
<!-- ugen_9 -->
<g id="node10" class="node">
<title>ugen_9</title>
<path fill="#bcd2ee" stroke="black" stroke-width="2" d="M560,-160C560,-160 696,-160 696,-160 702,-160 708,-166 708,-172 708,-172 708,-279 708,-279 708,-285 702,-291 696,-291 696,-291 560,-291 560,-291 554,-291 548,-285 548,-279 548,-279 548,-172 548,-172 548,-166 554,-160 560,-160"/>
<text text-anchor="middle" x="628" y="-277.4" font-family="Arial" font-size="12.00">AllpassC</text>
<text text-anchor="middle" x="628" y="-264.4" font-family="Arial" font-size="12.00">(audio)</text>
<polyline fill="none" stroke="black" stroke-width="2" points="548,-257 708,-257 "/>
<text text-anchor="middle" x="616.5" y="-243.4" font-family="Arial" font-size="12.00">source</text>
<polyline fill="none" stroke="black" stroke-width="2" points="548,-236 685,-236 "/>
<text text-anchor="middle" x="616.5" y="-222.4" font-family="Arial" font-size="12.00">maximum_delay_time:</text>
<text text-anchor="middle" x="616.5" y="-209.4" font-family="Arial" font-size="12.00">0.1</text>
<polyline fill="none" stroke="black" stroke-width="2" points="548,-202 685,-202 "/>
<text text-anchor="middle" x="616.5" y="-188.4" font-family="Arial" font-size="12.00">delay_time</text>
<polyline fill="none" stroke="black" stroke-width="2" points="548,-181 685,-181 "/>
<text text-anchor="middle" x="616.5" y="-167.4" font-family="Arial" font-size="12.00">decay_time</text>
<polyline fill="none" stroke="black" stroke-width="2" points="685,-160 685,-257 "/>
<text text-anchor="middle" x="696.5" y="-205.4" font-family="Arial" font-size="12.00">0</text>
</g>
<!-- ugen_10 -->
<g id="node11" class="node">
<title>ugen_10</title>
<path fill="#bcd2ee" stroke="black" stroke-width="2" d="M792,-325C792,-325 836,-325 836,-325 842,-325 848,-331 848,-337 848,-337 848,-410 848,-410 848,-416 842,-422 836,-422 836,-422 792,-422 792,-422 786,-422 780,-416 780,-410 780,-410 780,-337 780,-337 780,-331 786,-325 792,-325"/>
<text text-anchor="middle" x="814" y="-408.4" font-family="Arial" font-size="12.00">XOut</text>
<text text-anchor="middle" x="814" y="-395.4" font-family="Arial" font-size="12.00">(audio)</text>
<polyline fill="none" stroke="black" stroke-width="2" points="780,-388 848,-388 "/>
<text text-anchor="middle" x="814" y="-374.4" font-family="Arial" font-size="12.00">bus</text>
<polyline fill="none" stroke="black" stroke-width="2" points="780,-367 848,-367 "/>
<text text-anchor="middle" x="814" y="-353.4" font-family="Arial" font-size="12.00">crossfade</text>
<polyline fill="none" stroke="black" stroke-width="2" points="780,-346 848,-346 "/>
<text text-anchor="middle" x="814" y="-332.4" font-family="Arial" font-size="12.00">source[0]</text>
</g>
</g>
</svg>
