<?xml version="1.0" encoding="UTF-8" standalone="no"?>
<!DOCTYPE svg PUBLIC "-//W3C//DTD SVG 1.1//EN"
 "http://www.w3.org/Graphics/SVG/1.1/DTD/svg11.dtd">
<!-- Generated by graphviz version 2.43.0 (0)
 -->
<!-- Title: synthdef_bed58e3650ffdd9c9bd17d654311b094 Pages: 1 -->
<svg width="103pt" height="232pt"
 viewBox="0.00 0.00 103.00 232.00" xmlns="http://www.w3.org/2000/svg" xmlns:xlink="http://www.w3.org/1999/xlink">
<g id="graph0" class="graph" transform="scale(1 1) rotate(0) translate(4 228)">
<title>synthdef_bed58e3650ffdd9c9bd17d654311b094</title>
<!-- ugen_0 -->
<g id="node1" class="node">
<title>ugen_0</title>
<path fill="#bcd2ee" stroke="black" stroke-width="2" d="M12,-0.5C12,-0.5 83,-0.5 83,-0.5 89,-0.5 95,-6.5 95,-12.5 95,-12.5 95,-90.5 95,-90.5 95,-96.5 89,-102.5 83,-102.5 83,-102.5 12,-102.5 12,-102.5 6,-102.5 0,-96.5 0,-90.5 0,-90.5 0,-12.5 0,-12.5 0,-6.5 6,-0.5 12,-0.5"/>
<text text-anchor="middle" x="47.5" y="-88.9" font-family="Arial" font-size="12.00">SinOsc</text>
<text text-anchor="middle" x="47.5" y="-75.9" font-family="Arial" font-size="12.00">(audio)</text>
<polyline fill="none" stroke="black" stroke-width="2" points="0,-68.5 95,-68.5 "/>
<text text-anchor="middle" x="36" y="-54.9" font-family="Arial" font-size="12.00">frequency:</text>
<text text-anchor="middle" x="36" y="-41.9" font-family="Arial" font-size="12.00">440.0</text>
<polyline fill="none" stroke="black" stroke-width="2" points="0,-34.5 72,-34.5 "/>
<text text-anchor="middle" x="36" y="-20.9" font-family="Arial" font-size="12.00">phase:</text>
<text text-anchor="middle" x="36" y="-7.9" font-family="Arial" font-size="12.00">0.0</text>
<polyline fill="none" stroke="black" stroke-width="2" points="72,-0.5 72,-68.5 "/>
<text text-anchor="middle" x="83.5" y="-31.4" font-family="Arial" font-size="12.00">0</text>
</g>
<!-- ugen_1 -->
<g id="node2" class="node">
<title>ugen_1</title>
<path fill="#bcd2ee" stroke="black" stroke-width="2" d="M12,-121.5C12,-121.5 83,-121.5 83,-121.5 89,-121.5 95,-127.5 95,-133.5 95,-133.5 95,-211.5 95,-211.5 95,-217.5 89,-223.5 83,-223.5 83,-223.5 12,-223.5 12,-223.5 6,-223.5 0,-217.5 0,-211.5 0,-211.5 0,-133.5 0,-133.5 0,-127.5 6,-121.5 12,-121.5"/>
<text text-anchor="middle" x="47.5" y="-209.9" font-family="Arial" font-size="12.00">SinOsc</text>
<text text-anchor="middle" x="47.5" y="-196.9" font-family="Arial" font-size="12.00">(audio)</text>
<polyline fill="none" stroke="black" stroke-width="2" points="0,-189.5 95,-189.5 "/>
<text text-anchor="middle" x="36" y="-175.9" font-family="Arial" font-size="12.00">frequency:</text>
<text text-anchor="middle" x="36" y="-162.9" font-family="Arial" font-size="12.00">443.0</text>
<polyline fill="none" stroke="black" stroke-width="2" points="0,-155.5 72,-155.5 "/>
<text text-anchor="middle" x="36" y="-141.9" font-family="Arial" font-size="12.00">phase:</text>
<text text-anchor="middle" x="36" y="-128.9" font-family="Arial" font-size="12.00">0.0</text>
<polyline fill="none" stroke="black" stroke-width="2" points="72,-121.5 72,-189.5 "/>
<text text-anchor="middle" x="83.5" y="-152.4" font-family="Arial" font-size="12.00">0</text>
</g>
</g>
</svg>
