<?xml version="1.0" encoding="UTF-8" standalone="no"?>
<!DOCTYPE svg PUBLIC "-//W3C//DTD SVG 1.1//EN"
 "http://www.w3.org/Graphics/SVG/1.1/DTD/svg11.dtd">
<!-- Generated by graphviz version 2.40.1 (20161225.0304)
 -->
<!-- Title: synthdef_e710843b0e0fbc5e6185afc6cdf90149 Pages: 1 -->
<svg width="223pt" height="132pt"
 viewBox="0.00 0.00 223.00 132.00" xmlns="http://www.w3.org/2000/svg" xmlns:xlink="http://www.w3.org/1999/xlink">
<g id="graph0" class="graph" transform="scale(1 1) rotate(0) translate(4 128)">
<title>synthdef_e710843b0e0fbc5e6185afc6cdf90149</title>
<!-- ugen_0&#45;&gt;ugen_1 -->
<g id="edge1" class="edge">
<title>ugen_0:e&#45;&gt;ugen_1:w</title>
<path fill="none" stroke="#4682b4" stroke-width="2" d="M63,-79C91.375,-79 100.8795,-79 124.9792,-79"/>
<polygon fill="#4682b4" stroke="#4682b4" stroke-width="2" points="125,-82.5001 135,-79 125,-75.5001 125,-82.5001"/>
</g>
<!-- ugen_0 -->
<g id="node1" class="node">
<title>ugen_0</title>
<path fill="#bcd2ee" stroke="#000000" stroke-width="2" d="M12,-68.5C12,-68.5 51,-68.5 51,-68.5 57,-68.5 63,-74.5 63,-80.5 63,-80.5 63,-111.5 63,-111.5 63,-117.5 57,-123.5 51,-123.5 51,-123.5 12,-123.5 12,-123.5 6,-123.5 0,-117.5 0,-111.5 0,-111.5 0,-80.5 0,-80.5 0,-74.5 6,-68.5 12,-68.5"/>
<text text-anchor="middle" x="31.5" y="-109.9" font-family="Arial" font-size="12.00" fill="#000000">WhiteNoise</text>
<text text-anchor="middle" x="31.5" y="-96.9" font-family="Arial" font-size="12.00" fill="#000000">(audio)</text>
<polyline fill="none" stroke="#000000" stroke-width="2" points="0,-89.5 63,-89.5 "/>
<text text-anchor="middle" x="31.5" y="-75.9" font-family="Arial" font-size="12.00" fill="#000000">0</text>
</g>
<!-- ugen_1 -->
<g id="node2" class="node">
<title>ugen_1</title>
<path fill="#bcd2ee" stroke="#000000" stroke-width="2" d="M147,-.5C147,-.5 203,-.5 203,-.5 209,-.5 215,-6.5 215,-12.5 215,-12.5 215,-111.5 215,-111.5 215,-117.5 209,-123.5 203,-123.5 203,-123.5 147,-123.5 147,-123.5 141,-123.5 135,-117.5 135,-111.5 135,-111.5 135,-12.5 135,-12.5 135,-6.5 141,-.5 147,-.5"/>
<text text-anchor="middle" x="175" y="-109.9" font-family="Arial" font-size="12.00" fill="#000000">Clip</text>
<text text-anchor="middle" x="175" y="-96.9" font-family="Arial" font-size="12.00" fill="#000000">(audio)</text>
<polyline fill="none" stroke="#000000" stroke-width="2" points="135,-89.5 215,-89.5 "/>
<text text-anchor="middle" x="164" y="-75.9" font-family="Arial" font-size="12.00" fill="#000000">source</text>
<polyline fill="none" stroke="#000000" stroke-width="2" points="135,-68.5 193,-68.5 "/>
<text text-anchor="middle" x="164" y="-54.9" font-family="Arial" font-size="12.00" fill="#000000">minimum:</text>
<text text-anchor="middle" x="164" y="-41.9" font-family="Arial" font-size="12.00" fill="#000000">&#45;0.25</text>
<polyline fill="none" stroke="#000000" stroke-width="2" points="135,-34.5 193,-34.5 "/>
<text text-anchor="middle" x="164" y="-20.9" font-family="Arial" font-size="12.00" fill="#000000">maximum:</text>
<text text-anchor="middle" x="164" y="-7.9" font-family="Arial" font-size="12.00" fill="#000000">0.25</text>
<polyline fill="none" stroke="#000000" stroke-width="2" points="193,-.5 193,-89.5 "/>
<text text-anchor="middle" x="204" y="-41.9" font-family="Arial" font-size="12.00" fill="#000000">0</text>
</g>
</g>
</svg>
