<?xml version="1.0" encoding="UTF-8" standalone="no"?>
<!DOCTYPE svg PUBLIC "-//W3C//DTD SVG 1.1//EN"
 "http://www.w3.org/Graphics/SVG/1.1/DTD/svg11.dtd">
<!-- Generated by graphviz version 2.49.1 (20210923.0004)
 -->
<!-- Title: synthdef_598ec4adfcfa0518ae5638a75c43087e Pages: 1 -->
<svg width="1146pt" height="446pt"
 viewBox="0.00 0.00 1146.00 446.00" xmlns="http://www.w3.org/2000/svg" xmlns:xlink="http://www.w3.org/1999/xlink">
<g id="graph0" class="graph" transform="scale(1 1) rotate(0) translate(4 442)">
<title>synthdef_598ec4adfcfa0518ae5638a75c43087e</title>
<!-- ugen_0&#45;&gt;ugen_1 -->
<g id="edge1" class="edge">
<title>ugen_0:e&#45;&gt;ugen_1:w</title>
<path fill="none" stroke="salmon" stroke-width="2" d="M57,-386.5C95.81,-386.5 102.14,-356.42 135.36,-351.25"/>
<polygon fill="salmon" stroke="salmon" stroke-width="2" points="135.79,-354.73 145.5,-350.5 135.27,-347.75 135.79,-354.73"/>
</g>
<!-- ugen_0&#45;&gt;ugen_11 -->
<g id="edge2" class="edge">
<title>ugen_0:e&#45;&gt;ugen_11:w</title>
<path fill="none" stroke="salmon" stroke-width="2" d="M57,-386.5C89.98,-386.5 96.44,-399.21 129,-404.5 237.24,-422.08 265.34,-423.5 375,-423.5 375,-423.5 375,-423.5 809.5,-423.5 934.11,-423.5 954.8,-340.25 1073.73,-335.69"/>
<polygon fill="salmon" stroke="salmon" stroke-width="2" points="1074.07,-339.19 1084,-335.5 1073.94,-332.19 1074.07,-339.19"/>
</g>
<!-- ugen_1&#45;&gt;ugen_4 -->
<g id="edge3" class="edge">
<title>ugen_1:e&#45;&gt;ugen_4:w</title>
<path fill="none" stroke="steelblue" stroke-width="2" d="M207.5,-350.5C244.29,-350.5 253.94,-333.1 285.85,-329.98"/>
<polygon fill="steelblue" stroke="steelblue" stroke-width="2" points="286.18,-333.47 296,-329.5 285.85,-326.47 286.18,-333.47"/>
</g>
<!-- ugen_10&#45;&gt;ugen_11 -->
<g id="edge4" class="edge">
<title>ugen_10:e&#45;&gt;ugen_11:w</title>
<path fill="none" stroke="steelblue" stroke-width="2" d="M1012,-227.5C1058.47,-227.5 1037.59,-302.07 1074.06,-313.13"/>
<polygon fill="steelblue" stroke="steelblue" stroke-width="2" points="1073.62,-316.61 1084,-314.5 1074.57,-309.67 1073.62,-316.61"/>
</g>
<!-- ugen_2&#45;&gt;ugen_4 -->
<g id="edge5" class="edge">
<title>ugen_2:e&#45;&gt;ugen_4:w</title>
<path fill="none" stroke="salmon" stroke-width="2" d="M224,-131.5C283.15,-131.5 239.14,-239.17 285.8,-252.21"/>
<polygon fill="salmon" stroke="salmon" stroke-width="2" points="285.64,-255.72 296,-253.5 286.52,-248.78 285.64,-255.72"/>
</g>
<!-- ugen_3&#45;&gt;ugen_4 -->
<g id="edge6" class="edge">
<title>ugen_3:e&#45;&gt;ugen_4:w</title>
<path fill="none" stroke="salmon" stroke-width="2" d="M224,-252.5C253.8,-252.5 261.09,-269.95 285.97,-273.77"/>
<polygon fill="salmon" stroke="salmon" stroke-width="2" points="285.77,-277.26 296,-274.5 286.28,-270.28 285.77,-277.26"/>
</g>
<!-- ugen_4&#45;&gt;ugen_7 -->
<g id="edge7" class="edge">
<title>ugen_4:e&#45;&gt;ugen_7:w</title>
<path fill="none" stroke="steelblue" stroke-width="2" d="M456,-291.5C489.28,-291.5 490.97,-257.6 517.84,-250.71"/>
<polygon fill="steelblue" stroke="steelblue" stroke-width="2" points="518.48,-254.16 528,-249.5 517.66,-247.21 518.48,-254.16"/>
</g>
<!-- ugen_5&#45;&gt;ugen_7 -->
<g id="edge8" class="edge">
<title>ugen_5:e&#45;&gt;ugen_7:w</title>
<path fill="none" stroke="salmon" stroke-width="2" d="M425,-34.5C498.29,-34.5 455.59,-160.77 518,-172.61"/>
<polygon fill="salmon" stroke="salmon" stroke-width="2" points="517.73,-176.1 528,-173.5 518.35,-169.13 517.73,-176.1"/>
</g>
<!-- ugen_6&#45;&gt;ugen_7 -->
<g id="edge9" class="edge">
<title>ugen_6:e&#45;&gt;ugen_7:w</title>
<path fill="none" stroke="salmon" stroke-width="2" d="M425,-155.5C470.32,-155.5 478.05,-188.93 517.79,-193.89"/>
<polygon fill="salmon" stroke="salmon" stroke-width="2" points="517.81,-197.39 528,-194.5 518.23,-190.41 517.81,-197.39"/>
</g>
<!-- ugen_7&#45;&gt;ugen_8 -->
<g id="edge10" class="edge">
<title>ugen_7:e&#45;&gt;ugen_8:w</title>
<path fill="none" stroke="steelblue" stroke-width="2" d="M688,-211.5C726.17,-211.5 719.76,-262.03 749.92,-271.11"/>
<polygon fill="steelblue" stroke="steelblue" stroke-width="2" points="749.62,-274.6 760,-272.5 750.57,-267.67 749.62,-274.6"/>
</g>
<!-- ugen_8&#45;&gt;ugen_10 -->
<g id="edge11" class="edge">
<title>ugen_8:e&#45;&gt;ugen_10:w</title>
<path fill="none" stroke="steelblue" stroke-width="2" d="M857,-255.5C885.38,-255.5 894.88,-255.5 918.98,-255.5"/>
<polygon fill="steelblue" stroke="steelblue" stroke-width="2" points="919,-259 929,-255.5 919,-252 919,-259"/>
</g>
<!-- ugen_9&#45;&gt;ugen_10 -->
<g id="edge12" class="edge">
<title>ugen_9:e&#45;&gt;ugen_10:w</title>
<path fill="none" stroke="salmon" stroke-width="2" d="M857,-140.5C894.65,-140.5 889.14,-189.37 919.04,-198.16"/>
<polygon fill="salmon" stroke="salmon" stroke-width="2" points="918.62,-201.63 929,-199.5 919.56,-194.7 918.62,-201.63"/>
</g>
<!-- ugen_0 -->
<g id="node1" class="node">
<title>ugen_0</title>
<path fill="#ee9572" stroke="black" stroke-width="2" d="M12,-369.5C12,-369.5 45,-369.5 45,-369.5 51,-369.5 57,-375.5 57,-381.5 57,-381.5 57,-425.5 57,-425.5 57,-431.5 51,-437.5 45,-437.5 45,-437.5 12,-437.5 12,-437.5 6,-437.5 0,-431.5 0,-425.5 0,-425.5 0,-381.5 0,-381.5 0,-375.5 6,-369.5 12,-369.5"/>
<text text-anchor="middle" x="28.5" y="-423.9" font-family="Arial" font-size="12.00">Control</text>
<text text-anchor="middle" x="28.5" y="-410.9" font-family="Arial" font-size="12.00">(scalar)</text>
<polyline fill="none" stroke="black" stroke-width="2" points="0,-403.5 57,-403.5 "/>
<text text-anchor="middle" x="28.5" y="-389.9" font-family="Arial" font-size="12.00">out:</text>
<text text-anchor="middle" x="28.5" y="-376.9" font-family="Arial" font-size="12.00">0.0</text>
</g>
<!-- ugen_1 -->
<g id="node2" class="node">
<title>ugen_1</title>
<path fill="#bcd2ee" stroke="black" stroke-width="2" d="M159,-340C159,-340 194,-340 194,-340 200,-340 206,-346 206,-352 206,-352 206,-383 206,-383 206,-389 200,-395 194,-395 194,-395 159,-395 159,-395 153,-395 147,-389 147,-383 147,-383 147,-352 147,-352 147,-346 153,-340 159,-340"/>
<text text-anchor="middle" x="176.5" y="-381.4" font-family="Arial" font-size="12.00">In</text>
<text text-anchor="middle" x="176.5" y="-368.4" font-family="Arial" font-size="12.00">(audio)</text>
<polyline fill="none" stroke="black" stroke-width="2" points="147,-361 206,-361 "/>
<text text-anchor="middle" x="165" y="-347.4" font-family="Arial" font-size="12.00">bus</text>
<polyline fill="none" stroke="black" stroke-width="2" points="183,-340 183,-361 "/>
<text text-anchor="middle" x="194.5" y="-347.4" font-family="Arial" font-size="12.00">0</text>
</g>
<!-- ugen_10 -->
<g id="node3" class="node">
<title>ugen_10</title>
<path fill="#bcd2ee" stroke="black" stroke-width="2" d="M941,-189.5C941,-189.5 1000,-189.5 1000,-189.5 1006,-189.5 1012,-195.5 1012,-201.5 1012,-201.5 1012,-287.5 1012,-287.5 1012,-293.5 1006,-299.5 1000,-299.5 1000,-299.5 941,-299.5 941,-299.5 935,-299.5 929,-293.5 929,-287.5 929,-287.5 929,-201.5 929,-201.5 929,-195.5 935,-189.5 941,-189.5"/>
<text text-anchor="middle" x="970.5" y="-285.9" font-family="Arial" font-size="12.00">Limiter</text>
<text text-anchor="middle" x="970.5" y="-272.9" font-family="Arial" font-size="12.00">(audio)</text>
<polyline fill="none" stroke="black" stroke-width="2" points="929,-265.5 1012,-265.5 "/>
<text text-anchor="middle" x="959" y="-251.9" font-family="Arial" font-size="12.00">source</text>
<polyline fill="none" stroke="black" stroke-width="2" points="929,-244.5 989,-244.5 "/>
<text text-anchor="middle" x="959" y="-230.9" font-family="Arial" font-size="12.00">level:</text>
<text text-anchor="middle" x="959" y="-217.9" font-family="Arial" font-size="12.00">1.0</text>
<polyline fill="none" stroke="black" stroke-width="2" points="929,-210.5 989,-210.5 "/>
<text text-anchor="middle" x="959" y="-196.9" font-family="Arial" font-size="12.00">duration</text>
<polyline fill="none" stroke="black" stroke-width="2" points="989,-189.5 989,-265.5 "/>
<text text-anchor="middle" x="1000.5" y="-224.4" font-family="Arial" font-size="12.00">0</text>
</g>
<!-- ugen_11 -->
<g id="node4" class="node">
<title>ugen_11</title>
<path fill="#bcd2ee" stroke="black" stroke-width="2" d="M1096,-304.5C1096,-304.5 1126,-304.5 1126,-304.5 1132,-304.5 1138,-310.5 1138,-316.5 1138,-316.5 1138,-368.5 1138,-368.5 1138,-374.5 1132,-380.5 1126,-380.5 1126,-380.5 1096,-380.5 1096,-380.5 1090,-380.5 1084,-374.5 1084,-368.5 1084,-368.5 1084,-316.5 1084,-316.5 1084,-310.5 1090,-304.5 1096,-304.5"/>
<text text-anchor="middle" x="1111" y="-366.9" font-family="Arial" font-size="12.00">Out</text>
<text text-anchor="middle" x="1111" y="-353.9" font-family="Arial" font-size="12.00">(audio)</text>
<polyline fill="none" stroke="black" stroke-width="2" points="1084,-346.5 1138,-346.5 "/>
<text text-anchor="middle" x="1111" y="-332.9" font-family="Arial" font-size="12.00">bus</text>
<polyline fill="none" stroke="black" stroke-width="2" points="1084,-325.5 1138,-325.5 "/>
<text text-anchor="middle" x="1111" y="-311.9" font-family="Arial" font-size="12.00">source</text>
</g>
<!-- ugen_2 -->
<g id="node5" class="node">
<title>ugen_2</title>
<path fill="#ee9572" stroke="black" stroke-width="2" d="M141,-97.5C141,-97.5 212,-97.5 212,-97.5 218,-97.5 224,-103.5 224,-109.5 224,-109.5 224,-187.5 224,-187.5 224,-193.5 218,-199.5 212,-199.5 212,-199.5 141,-199.5 141,-199.5 135,-199.5 129,-193.5 129,-187.5 129,-187.5 129,-109.5 129,-109.5 129,-103.5 135,-97.5 141,-97.5"/>
<text text-anchor="middle" x="176.5" y="-185.9" font-family="Arial" font-size="12.00">ExpRand</text>
<text text-anchor="middle" x="176.5" y="-172.9" font-family="Arial" font-size="12.00">(scalar)</text>
<polyline fill="none" stroke="black" stroke-width="2" points="129,-165.5 224,-165.5 "/>
<text text-anchor="middle" x="165" y="-151.9" font-family="Arial" font-size="12.00">minimum:</text>
<text text-anchor="middle" x="165" y="-138.9" font-family="Arial" font-size="12.00">0.01</text>
<polyline fill="none" stroke="black" stroke-width="2" points="129,-131.5 201,-131.5 "/>
<text text-anchor="middle" x="165" y="-117.9" font-family="Arial" font-size="12.00">maximum:</text>
<text text-anchor="middle" x="165" y="-104.9" font-family="Arial" font-size="12.00">0.1</text>
<polyline fill="none" stroke="black" stroke-width="2" points="201,-97.5 201,-165.5 "/>
<text text-anchor="middle" x="212.5" y="-128.4" font-family="Arial" font-size="12.00">0</text>
</g>
<!-- ugen_3 -->
<g id="node6" class="node">
<title>ugen_3</title>
<path fill="#ee9572" stroke="black" stroke-width="2" d="M141,-218.5C141,-218.5 212,-218.5 212,-218.5 218,-218.5 224,-224.5 224,-230.5 224,-230.5 224,-308.5 224,-308.5 224,-314.5 218,-320.5 212,-320.5 212,-320.5 141,-320.5 141,-320.5 135,-320.5 129,-314.5 129,-308.5 129,-308.5 129,-230.5 129,-230.5 129,-224.5 135,-218.5 141,-218.5"/>
<text text-anchor="middle" x="176.5" y="-306.9" font-family="Arial" font-size="12.00">ExpRand</text>
<text text-anchor="middle" x="176.5" y="-293.9" font-family="Arial" font-size="12.00">(scalar)</text>
<polyline fill="none" stroke="black" stroke-width="2" points="129,-286.5 224,-286.5 "/>
<text text-anchor="middle" x="165" y="-272.9" font-family="Arial" font-size="12.00">minimum:</text>
<text text-anchor="middle" x="165" y="-259.9" font-family="Arial" font-size="12.00">0.01</text>
<polyline fill="none" stroke="black" stroke-width="2" points="129,-252.5 201,-252.5 "/>
<text text-anchor="middle" x="165" y="-238.9" font-family="Arial" font-size="12.00">maximum:</text>
<text text-anchor="middle" x="165" y="-225.9" font-family="Arial" font-size="12.00">0.1</text>
<polyline fill="none" stroke="black" stroke-width="2" points="201,-218.5 201,-286.5 "/>
<text text-anchor="middle" x="212.5" y="-249.4" font-family="Arial" font-size="12.00">0</text>
</g>
<!-- ugen_4 -->
<g id="node7" class="node">
<title>ugen_4</title>
<path fill="#bcd2ee" stroke="black" stroke-width="2" d="M308,-243C308,-243 444,-243 444,-243 450,-243 456,-249 456,-255 456,-255 456,-362 456,-362 456,-368 450,-374 444,-374 444,-374 308,-374 308,-374 302,-374 296,-368 296,-362 296,-362 296,-255 296,-255 296,-249 302,-243 308,-243"/>
<text text-anchor="middle" x="376" y="-360.4" font-family="Arial" font-size="12.00">AllpassC</text>
<text text-anchor="middle" x="376" y="-347.4" font-family="Arial" font-size="12.00">(audio)</text>
<polyline fill="none" stroke="black" stroke-width="2" points="296,-340 456,-340 "/>
<text text-anchor="middle" x="364.5" y="-326.4" font-family="Arial" font-size="12.00">source</text>
<polyline fill="none" stroke="black" stroke-width="2" points="296,-319 433,-319 "/>
<text text-anchor="middle" x="364.5" y="-305.4" font-family="Arial" font-size="12.00">maximum_delay_time:</text>
<text text-anchor="middle" x="364.5" y="-292.4" font-family="Arial" font-size="12.00">0.1</text>
<polyline fill="none" stroke="black" stroke-width="2" points="296,-285 433,-285 "/>
<text text-anchor="middle" x="364.5" y="-271.4" font-family="Arial" font-size="12.00">delay_time</text>
<polyline fill="none" stroke="black" stroke-width="2" points="296,-264 433,-264 "/>
<text text-anchor="middle" x="364.5" y="-250.4" font-family="Arial" font-size="12.00">decay_time</text>
<polyline fill="none" stroke="black" stroke-width="2" points="433,-243 433,-340 "/>
<text text-anchor="middle" x="444.5" y="-288.4" font-family="Arial" font-size="12.00">0</text>
</g>
<!-- ugen_5 -->
<g id="node8" class="node">
<title>ugen_5</title>
<path fill="#ee9572" stroke="black" stroke-width="2" d="M340.5,-0.5C340.5,-0.5 411.5,-0.5 411.5,-0.5 417.5,-0.5 423.5,-6.5 423.5,-12.5 423.5,-12.5 423.5,-90.5 423.5,-90.5 423.5,-96.5 417.5,-102.5 411.5,-102.5 411.5,-102.5 340.5,-102.5 340.5,-102.5 334.5,-102.5 328.5,-96.5 328.5,-90.5 328.5,-90.5 328.5,-12.5 328.5,-12.5 328.5,-6.5 334.5,-0.5 340.5,-0.5"/>
<text text-anchor="middle" x="376" y="-88.9" font-family="Arial" font-size="12.00">ExpRand</text>
<text text-anchor="middle" x="376" y="-75.9" font-family="Arial" font-size="12.00">(scalar)</text>
<polyline fill="none" stroke="black" stroke-width="2" points="328.5,-68.5 423.5,-68.5 "/>
<text text-anchor="middle" x="364.5" y="-54.9" font-family="Arial" font-size="12.00">minimum:</text>
<text text-anchor="middle" x="364.5" y="-41.9" font-family="Arial" font-size="12.00">0.01</text>
<polyline fill="none" stroke="black" stroke-width="2" points="328.5,-34.5 400.5,-34.5 "/>
<text text-anchor="middle" x="364.5" y="-20.9" font-family="Arial" font-size="12.00">maximum:</text>
<text text-anchor="middle" x="364.5" y="-7.9" font-family="Arial" font-size="12.00">0.1</text>
<polyline fill="none" stroke="black" stroke-width="2" points="400.5,-0.5 400.5,-68.5 "/>
<text text-anchor="middle" x="412" y="-31.4" font-family="Arial" font-size="12.00">0</text>
</g>
<!-- ugen_6 -->
<g id="node9" class="node">
<title>ugen_6</title>
<path fill="#ee9572" stroke="black" stroke-width="2" d="M340.5,-121.5C340.5,-121.5 411.5,-121.5 411.5,-121.5 417.5,-121.5 423.5,-127.5 423.5,-133.5 423.5,-133.5 423.5,-211.5 423.5,-211.5 423.5,-217.5 417.5,-223.5 411.5,-223.5 411.5,-223.5 340.5,-223.5 340.5,-223.5 334.5,-223.5 328.5,-217.5 328.5,-211.5 328.5,-211.5 328.5,-133.5 328.5,-133.5 328.5,-127.5 334.5,-121.5 340.5,-121.5"/>
<text text-anchor="middle" x="376" y="-209.9" font-family="Arial" font-size="12.00">ExpRand</text>
<text text-anchor="middle" x="376" y="-196.9" font-family="Arial" font-size="12.00">(scalar)</text>
<polyline fill="none" stroke="black" stroke-width="2" points="328.5,-189.5 423.5,-189.5 "/>
<text text-anchor="middle" x="364.5" y="-175.9" font-family="Arial" font-size="12.00">minimum:</text>
<text text-anchor="middle" x="364.5" y="-162.9" font-family="Arial" font-size="12.00">0.01</text>
<polyline fill="none" stroke="black" stroke-width="2" points="328.5,-155.5 400.5,-155.5 "/>
<text text-anchor="middle" x="364.5" y="-141.9" font-family="Arial" font-size="12.00">maximum:</text>
<text text-anchor="middle" x="364.5" y="-128.9" font-family="Arial" font-size="12.00">0.1</text>
<polyline fill="none" stroke="black" stroke-width="2" points="400.5,-121.5 400.5,-189.5 "/>
<text text-anchor="middle" x="412" y="-152.4" font-family="Arial" font-size="12.00">0</text>
</g>
<!-- ugen_7 -->
<g id="node10" class="node">
<title>ugen_7</title>
<path fill="#bcd2ee" stroke="black" stroke-width="2" d="M540,-163C540,-163 676,-163 676,-163 682,-163 688,-169 688,-175 688,-175 688,-282 688,-282 688,-288 682,-294 676,-294 676,-294 540,-294 540,-294 534,-294 528,-288 528,-282 528,-282 528,-175 528,-175 528,-169 534,-163 540,-163"/>
<text text-anchor="middle" x="608" y="-280.4" font-family="Arial" font-size="12.00">AllpassC</text>
<text text-anchor="middle" x="608" y="-267.4" font-family="Arial" font-size="12.00">(audio)</text>
<polyline fill="none" stroke="black" stroke-width="2" points="528,-260 688,-260 "/>
<text text-anchor="middle" x="596.5" y="-246.4" font-family="Arial" font-size="12.00">source</text>
<polyline fill="none" stroke="black" stroke-width="2" points="528,-239 665,-239 "/>
<text text-anchor="middle" x="596.5" y="-225.4" font-family="Arial" font-size="12.00">maximum_delay_time:</text>
<text text-anchor="middle" x="596.5" y="-212.4" font-family="Arial" font-size="12.00">0.1</text>
<polyline fill="none" stroke="black" stroke-width="2" points="528,-205 665,-205 "/>
<text text-anchor="middle" x="596.5" y="-191.4" font-family="Arial" font-size="12.00">delay_time</text>
<polyline fill="none" stroke="black" stroke-width="2" points="528,-184 665,-184 "/>
<text text-anchor="middle" x="596.5" y="-170.4" font-family="Arial" font-size="12.00">decay_time</text>
<polyline fill="none" stroke="black" stroke-width="2" points="665,-163 665,-260 "/>
<text text-anchor="middle" x="676.5" y="-208.4" font-family="Arial" font-size="12.00">0</text>
</g>
<!-- ugen_8 -->
<g id="node11" class="node">
<title>ugen_8</title>
<path fill="#bcd2ee" stroke="black" stroke-width="2" d="M772,-228C772,-228 845,-228 845,-228 851,-228 857,-234 857,-240 857,-240 857,-305 857,-305 857,-311 851,-317 845,-317 845,-317 772,-317 772,-317 766,-317 760,-311 760,-305 760,-305 760,-240 760,-240 760,-234 766,-228 772,-228"/>
<text text-anchor="middle" x="808.5" y="-303.4" font-family="Arial" font-size="12.00">LeakDC</text>
<text text-anchor="middle" x="808.5" y="-290.4" font-family="Arial" font-size="12.00">(audio)</text>
<polyline fill="none" stroke="black" stroke-width="2" points="760,-283 857,-283 "/>
<text text-anchor="middle" x="797" y="-269.4" font-family="Arial" font-size="12.00">source</text>
<polyline fill="none" stroke="black" stroke-width="2" points="760,-262 834,-262 "/>
<text text-anchor="middle" x="797" y="-248.4" font-family="Arial" font-size="12.00">coefficient:</text>
<text text-anchor="middle" x="797" y="-235.4" font-family="Arial" font-size="12.00">0.995</text>
<polyline fill="none" stroke="black" stroke-width="2" points="834,-228 834,-283 "/>
<text text-anchor="middle" x="845.5" y="-252.4" font-family="Arial" font-size="12.00">0</text>
</g>
<!-- ugen_9 -->
<g id="node12" class="node">
<title>ugen_9</title>
<path fill="#ee9572" stroke="black" stroke-width="2" d="M773,-106.5C773,-106.5 844,-106.5 844,-106.5 850,-106.5 856,-112.5 856,-118.5 856,-118.5 856,-196.5 856,-196.5 856,-202.5 850,-208.5 844,-208.5 844,-208.5 773,-208.5 773,-208.5 767,-208.5 761,-202.5 761,-196.5 761,-196.5 761,-118.5 761,-118.5 761,-112.5 767,-106.5 773,-106.5"/>
<text text-anchor="middle" x="808.5" y="-194.9" font-family="Arial" font-size="12.00">Rand</text>
<text text-anchor="middle" x="808.5" y="-181.9" font-family="Arial" font-size="12.00">(scalar)</text>
<polyline fill="none" stroke="black" stroke-width="2" points="761,-174.5 856,-174.5 "/>
<text text-anchor="middle" x="797" y="-160.9" font-family="Arial" font-size="12.00">minimum:</text>
<text text-anchor="middle" x="797" y="-147.9" font-family="Arial" font-size="12.00">0.005</text>
<polyline fill="none" stroke="black" stroke-width="2" points="761,-140.5 833,-140.5 "/>
<text text-anchor="middle" x="797" y="-126.9" font-family="Arial" font-size="12.00">maximum:</text>
<text text-anchor="middle" x="797" y="-113.9" font-family="Arial" font-size="12.00">0.015</text>
<polyline fill="none" stroke="black" stroke-width="2" points="833,-106.5 833,-174.5 "/>
<text text-anchor="middle" x="844.5" y="-137.4" font-family="Arial" font-size="12.00">0</text>
</g>
</g>
</svg>
