<?xml version="1.0" encoding="UTF-8" standalone="no"?>
<!DOCTYPE svg PUBLIC "-//W3C//DTD SVG 1.1//EN"
 "http://www.w3.org/Graphics/SVG/1.1/DTD/svg11.dtd">
<!-- Generated by graphviz version 2.44.1 (20200629.0846)
 -->
<!-- Title: synthdef_4fbbd5cd7aa5d848a303c8b59008a9da Pages: 1 -->
<svg width="856pt" height="685pt"
 viewBox="0.00 0.00 856.00 684.50" xmlns="http://www.w3.org/2000/svg" xmlns:xlink="http://www.w3.org/1999/xlink">
<g id="graph0" class="graph" transform="scale(1 1) rotate(0) translate(4 680.5)">
<title>synthdef_4fbbd5cd7aa5d848a303c8b59008a9da</title>
<!-- ugen_0&#45;&gt;ugen_1 -->
<g id="edge1" class="edge">
<title>ugen_0:e&#45;&gt;ugen_1:w</title>
<path fill="none" stroke="salmon" stroke-width="2" d="M63,-524.5C95.7,-524.5 98.38,-555.98 124.98,-562.37"/>
<polygon fill="salmon" stroke="salmon" stroke-width="2" points="124.67,-565.86 135,-563.5 125.45,-558.91 124.67,-565.86"/>
</g>
<!-- ugen_0&#45;&gt;ugen_12 -->
<g id="edge2" class="edge">
<title>ugen_0:e&#45;&gt;ugen_12:w</title>
<path fill="none" stroke="salmon" stroke-width="2" d="M63,-490.5C349.79,-490.5 438.55,-569.72 708,-471.5 742.75,-458.83 740.13,-422.31 769.71,-415.57"/>
<polygon fill="salmon" stroke="salmon" stroke-width="2" points="770.42,-419.02 780,-414.5 769.69,-412.06 770.42,-419.02"/>
</g>
<!-- ugen_0&#45;&gt;ugen_3 -->
<g id="edge3" class="edge">
<title>ugen_0:e&#45;&gt;ugen_3:w</title>
<path fill="none" stroke="salmon" stroke-width="2" d="M63,-490.5C119.24,-490.5 101.26,-406.66 148.51,-396.5"/>
<polygon fill="salmon" stroke="salmon" stroke-width="2" points="148.9,-399.98 158.5,-395.5 148.2,-393.02 148.9,-399.98"/>
</g>
<!-- ugen_1&#45;&gt;ugen_2 -->
<g id="edge4" class="edge">
<title>ugen_1:e&#45;&gt;ugen_2:w</title>
<path fill="none" stroke="goldenrod" stroke-width="2" d="M244,-580.5C278.38,-580.5 286.46,-560.14 315.7,-556.17"/>
<polygon fill="goldenrod" stroke="goldenrod" stroke-width="2" points="316.25,-559.64 326,-555.5 315.79,-552.66 316.25,-559.64"/>
</g>
<!-- ugen_10&#45;&gt;ugen_11 -->
<g id="edge5" class="edge">
<title>ugen_10:e&#45;&gt;ugen_11:w</title>
<path fill="none" stroke="salmon" stroke-width="2" d="M444,-155.5C490.09,-155.5 497.41,-190.79 537.9,-195.89"/>
<polygon fill="salmon" stroke="salmon" stroke-width="2" points="537.81,-199.39 548,-196.5 538.23,-192.4 537.81,-199.39"/>
</g>
<!-- ugen_11&#45;&gt;ugen_12 -->
<g id="edge6" class="edge">
<title>ugen_11:e&#45;&gt;ugen_12:w</title>
<path fill="none" stroke="steelblue" stroke-width="2" d="M708,-213.5C781.79,-213.5 710.16,-357.35 769.75,-371.4"/>
<polygon fill="steelblue" stroke="steelblue" stroke-width="2" points="769.68,-374.91 780,-372.5 770.43,-367.95 769.68,-374.91"/>
</g>
<!-- ugen_2&#45;&gt;ugen_5 -->
<g id="edge7" class="edge">
<title>ugen_2:e&#45;&gt;ugen_5:w</title>
<path fill="none" stroke="goldenrod" stroke-width="2" d="M466,-555.5C543.11,-555.5 491.41,-417.76 556.95,-405.39"/>
<polygon fill="goldenrod" stroke="goldenrod" stroke-width="2" points="557.35,-408.87 567,-404.5 556.73,-401.89 557.35,-408.87"/>
</g>
<!-- ugen_3&#45;&gt;ugen_8 -->
<g id="edge8" class="edge">
<title>ugen_3:e&#45;&gt;ugen_8:w</title>
<path fill="none" stroke="steelblue" stroke-width="2" d="M220.5,-395.5C268.47,-395.5 265.19,-338.45 305.95,-330.43"/>
<polygon fill="steelblue" stroke="steelblue" stroke-width="2" points="306.37,-333.91 316,-329.5 305.72,-326.94 306.37,-333.91"/>
</g>
<!-- ugen_4&#45;&gt;ugen_5 -->
<g id="edge9" class="edge">
<title>ugen_4:e&#45;&gt;ugen_5:w</title>
<path fill="none" stroke="goldenrod" stroke-width="2" d="M427,-410.5C486.78,-410.5 501.97,-386.47 556.7,-383.75"/>
<polygon fill="goldenrod" stroke="goldenrod" stroke-width="2" points="557.09,-387.24 567,-383.5 556.92,-380.24 557.09,-387.24"/>
</g>
<!-- ugen_5&#45;&gt;ugen_12 -->
<g id="edge10" class="edge">
<title>ugen_5:e&#45;&gt;ugen_12:w</title>
<path fill="none" stroke="goldenrod" stroke-width="2" d="M689,-393.5C725.81,-393.5 737.49,-393.5 769.79,-393.5"/>
<polygon fill="goldenrod" stroke="goldenrod" stroke-width="2" points="770,-397 780,-393.5 770,-390 770,-397"/>
</g>
<!-- ugen_6&#45;&gt;ugen_8 -->
<g id="edge11" class="edge">
<title>ugen_6:e&#45;&gt;ugen_8:w</title>
<path fill="none" stroke="salmon" stroke-width="2" d="M237.5,-164.5C286.53,-164.5 266.66,-241.42 306,-252.24"/>
<polygon fill="salmon" stroke="salmon" stroke-width="2" points="305.64,-255.72 316,-253.5 306.52,-248.78 305.64,-255.72"/>
</g>
<!-- ugen_7&#45;&gt;ugen_8 -->
<g id="edge12" class="edge">
<title>ugen_7:e&#45;&gt;ugen_8:w</title>
<path fill="none" stroke="salmon" stroke-width="2" d="M237.5,-285.5C269.01,-285.5 278.77,-276.7 305.7,-274.84"/>
<polygon fill="salmon" stroke="salmon" stroke-width="2" points="306.12,-278.33 316,-274.5 305.89,-271.33 306.12,-278.33"/>
</g>
<!-- ugen_8&#45;&gt;ugen_11 -->
<g id="edge13" class="edge">
<title>ugen_8:e&#45;&gt;ugen_11:w</title>
<path fill="none" stroke="steelblue" stroke-width="2" d="M476,-291.5C508.89,-291.5 511.25,-259.21 537.94,-252.65"/>
<polygon fill="steelblue" stroke="steelblue" stroke-width="2" points="538.46,-256.12 548,-251.5 537.67,-249.16 538.46,-256.12"/>
</g>
<!-- ugen_9&#45;&gt;ugen_11 -->
<g id="edge14" class="edge">
<title>ugen_9:e&#45;&gt;ugen_11:w</title>
<path fill="none" stroke="salmon" stroke-width="2" d="M444,-34.5C518.22,-34.5 474.7,-162.59 537.88,-174.6"/>
<polygon fill="salmon" stroke="salmon" stroke-width="2" points="537.73,-178.1 548,-175.5 538.35,-171.13 537.73,-178.1"/>
</g>
<!-- ugen_0 -->
<g id="node1" class="node">
<title>ugen_0</title>
<path fill="#ee9572" stroke="black" stroke-width="2" d="M12,-473.5C12,-473.5 51,-473.5 51,-473.5 57,-473.5 63,-479.5 63,-485.5 63,-485.5 63,-563.5 63,-563.5 63,-569.5 57,-575.5 51,-575.5 51,-575.5 12,-575.5 12,-575.5 6,-575.5 0,-569.5 0,-563.5 0,-563.5 0,-485.5 0,-485.5 0,-479.5 6,-473.5 12,-473.5"/>
<text text-anchor="middle" x="31.5" y="-561.9" font-family="Arial" font-size="12.00">Control</text>
<text text-anchor="middle" x="31.5" y="-548.9" font-family="Arial" font-size="12.00">(scalar)</text>
<polyline fill="none" stroke="black" stroke-width="2" points="0,-541.5 63,-541.5 "/>
<text text-anchor="middle" x="31.5" y="-527.9" font-family="Arial" font-size="12.00">duration:</text>
<text text-anchor="middle" x="31.5" y="-514.9" font-family="Arial" font-size="12.00">1.0</text>
<polyline fill="none" stroke="black" stroke-width="2" points="0,-507.5 63,-507.5 "/>
<text text-anchor="middle" x="31.5" y="-493.9" font-family="Arial" font-size="12.00">out:</text>
<text text-anchor="middle" x="31.5" y="-480.9" font-family="Arial" font-size="12.00">0.0</text>
</g>
<!-- ugen_1 -->
<g id="node2" class="node">
<title>ugen_1</title>
<path fill="#eedc82" stroke="black" stroke-width="2" d="M147,-519C147,-519 232,-519 232,-519 238,-519 244,-525 244,-531 244,-531 244,-664 244,-664 244,-670 238,-676 232,-676 232,-676 147,-676 147,-676 141,-676 135,-670 135,-664 135,-664 135,-531 135,-531 135,-525 141,-519 147,-519"/>
<text text-anchor="middle" x="189.5" y="-662.4" font-family="Arial" font-size="12.00">Line</text>
<text text-anchor="middle" x="189.5" y="-649.4" font-family="Arial" font-size="12.00">(control)</text>
<polyline fill="none" stroke="black" stroke-width="2" points="135,-642 244,-642 "/>
<text text-anchor="middle" x="178" y="-628.4" font-family="Arial" font-size="12.00">start:</text>
<text text-anchor="middle" x="178" y="-615.4" font-family="Arial" font-size="12.00">0.0</text>
<polyline fill="none" stroke="black" stroke-width="2" points="135,-608 221,-608 "/>
<text text-anchor="middle" x="178" y="-594.4" font-family="Arial" font-size="12.00">stop:</text>
<text text-anchor="middle" x="178" y="-581.4" font-family="Arial" font-size="12.00">1.0</text>
<polyline fill="none" stroke="black" stroke-width="2" points="135,-574 221,-574 "/>
<text text-anchor="middle" x="178" y="-560.4" font-family="Arial" font-size="12.00">duration</text>
<polyline fill="none" stroke="black" stroke-width="2" points="135,-553 221,-553 "/>
<text text-anchor="middle" x="178" y="-539.4" font-family="Arial" font-size="12.00">done_action:</text>
<text text-anchor="middle" x="178" y="-526.4" font-family="Arial" font-size="12.00">2.0</text>
<polyline fill="none" stroke="black" stroke-width="2" points="221,-519 221,-642 "/>
<text text-anchor="middle" x="232.5" y="-577.4" font-family="Arial" font-size="12.00">0</text>
</g>
<!-- ugen_10 -->
<g id="node3" class="node">
<title>ugen_10</title>
<path fill="#ee9572" stroke="black" stroke-width="2" d="M361,-121.5C361,-121.5 431,-121.5 431,-121.5 437,-121.5 443,-127.5 443,-133.5 443,-133.5 443,-211.5 443,-211.5 443,-217.5 437,-223.5 431,-223.5 431,-223.5 361,-223.5 361,-223.5 355,-223.5 349,-217.5 349,-211.5 349,-211.5 349,-133.5 349,-133.5 349,-127.5 355,-121.5 361,-121.5"/>
<text text-anchor="middle" x="396" y="-209.9" font-family="Arial" font-size="12.00">ExpRand</text>
<text text-anchor="middle" x="396" y="-196.9" font-family="Arial" font-size="12.00">(scalar)</text>
<polyline fill="none" stroke="black" stroke-width="2" points="349,-189.5 443,-189.5 "/>
<text text-anchor="middle" x="384.5" y="-175.9" font-family="Arial" font-size="12.00">minimum:</text>
<text text-anchor="middle" x="384.5" y="-162.9" font-family="Arial" font-size="12.00">0.01</text>
<polyline fill="none" stroke="black" stroke-width="2" points="349,-155.5 420,-155.5 "/>
<text text-anchor="middle" x="384.5" y="-141.9" font-family="Arial" font-size="12.00">maximum:</text>
<text text-anchor="middle" x="384.5" y="-128.9" font-family="Arial" font-size="12.00">0.1</text>
<polyline fill="none" stroke="black" stroke-width="2" points="420,-121.5 420,-189.5 "/>
<text text-anchor="middle" x="431.5" y="-152.4" font-family="Arial" font-size="12.00">0</text>
</g>
<!-- ugen_11 -->
<g id="node4" class="node">
<title>ugen_11</title>
<path fill="#bcd2ee" stroke="black" stroke-width="2" d="M560,-165C560,-165 696,-165 696,-165 702,-165 708,-171 708,-177 708,-177 708,-284 708,-284 708,-290 702,-296 696,-296 696,-296 560,-296 560,-296 554,-296 548,-290 548,-284 548,-284 548,-177 548,-177 548,-171 554,-165 560,-165"/>
<text text-anchor="middle" x="628" y="-282.4" font-family="Arial" font-size="12.00">AllpassC</text>
<text text-anchor="middle" x="628" y="-269.4" font-family="Arial" font-size="12.00">(audio)</text>
<polyline fill="none" stroke="black" stroke-width="2" points="548,-262 708,-262 "/>
<text text-anchor="middle" x="616.5" y="-248.4" font-family="Arial" font-size="12.00">source</text>
<polyline fill="none" stroke="black" stroke-width="2" points="548,-241 685,-241 "/>
<text text-anchor="middle" x="616.5" y="-227.4" font-family="Arial" font-size="12.00">maximum_delay_time:</text>
<text text-anchor="middle" x="616.5" y="-214.4" font-family="Arial" font-size="12.00">0.1</text>
<polyline fill="none" stroke="black" stroke-width="2" points="548,-207 685,-207 "/>
<text text-anchor="middle" x="616.5" y="-193.4" font-family="Arial" font-size="12.00">delay_time</text>
<polyline fill="none" stroke="black" stroke-width="2" points="548,-186 685,-186 "/>
<text text-anchor="middle" x="616.5" y="-172.4" font-family="Arial" font-size="12.00">decay_time</text>
<polyline fill="none" stroke="black" stroke-width="2" points="685,-165 685,-262 "/>
<text text-anchor="middle" x="696.5" y="-210.4" font-family="Arial" font-size="12.00">0</text>
</g>
<!-- ugen_12 -->
<g id="node5" class="node">
<title>ugen_12</title>
<path fill="#bcd2ee" stroke="black" stroke-width="2" d="M792,-362C792,-362 836,-362 836,-362 842,-362 848,-368 848,-374 848,-374 848,-447 848,-447 848,-453 842,-459 836,-459 836,-459 792,-459 792,-459 786,-459 780,-453 780,-447 780,-447 780,-374 780,-374 780,-368 786,-362 792,-362"/>
<text text-anchor="middle" x="814" y="-445.4" font-family="Arial" font-size="12.00">XOut</text>
<text text-anchor="middle" x="814" y="-432.4" font-family="Arial" font-size="12.00">(audio)</text>
<polyline fill="none" stroke="black" stroke-width="2" points="780,-425 848,-425 "/>
<text text-anchor="middle" x="814" y="-411.4" font-family="Arial" font-size="12.00">bus</text>
<polyline fill="none" stroke="black" stroke-width="2" points="780,-404 848,-404 "/>
<text text-anchor="middle" x="814" y="-390.4" font-family="Arial" font-size="12.00">crossfade</text>
<polyline fill="none" stroke="black" stroke-width="2" points="780,-383 848,-383 "/>
<text text-anchor="middle" x="814" y="-369.4" font-family="Arial" font-size="12.00">source</text>
</g>
<!-- ugen_2 -->
<g id="node6" class="node">
<title>ugen_2</title>
<path fill="#eedc82" stroke="black" stroke-width="2" d="M339,-545.5C339,-545.5 453,-545.5 453,-545.5 459,-545.5 465,-551.5 465,-557.5 465,-557.5 465,-601.5 465,-601.5 465,-607.5 459,-613.5 453,-613.5 453,-613.5 339,-613.5 339,-613.5 333,-613.5 327,-607.5 327,-601.5 327,-601.5 327,-557.5 327,-557.5 327,-551.5 333,-545.5 339,-545.5"/>
<text text-anchor="middle" x="396" y="-599.9" font-family="Arial" font-size="12.00">UnaryOpUGen</text>
<text text-anchor="middle" x="396" y="-586.9" font-family="Arial" font-size="12.00">[HANNING_WINDOW]</text>
<text text-anchor="middle" x="396" y="-573.9" font-family="Arial" font-size="12.00">(control)</text>
<polyline fill="none" stroke="black" stroke-width="2" points="327,-566.5 465,-566.5 "/>
<text text-anchor="middle" x="369" y="-552.9" font-family="Arial" font-size="12.00">source</text>
<polyline fill="none" stroke="black" stroke-width="2" points="411,-545.5 411,-566.5 "/>
<text text-anchor="middle" x="438" y="-552.9" font-family="Arial" font-size="12.00">0</text>
</g>
<!-- ugen_3 -->
<g id="node7" class="node">
<title>ugen_3</title>
<path fill="#bcd2ee" stroke="black" stroke-width="2" d="M172,-385C172,-385 207,-385 207,-385 213,-385 219,-391 219,-397 219,-397 219,-428 219,-428 219,-434 213,-440 207,-440 207,-440 172,-440 172,-440 166,-440 160,-434 160,-428 160,-428 160,-397 160,-397 160,-391 166,-385 172,-385"/>
<text text-anchor="middle" x="189.5" y="-426.4" font-family="Arial" font-size="12.00">In</text>
<text text-anchor="middle" x="189.5" y="-413.4" font-family="Arial" font-size="12.00">(audio)</text>
<polyline fill="none" stroke="black" stroke-width="2" points="160,-406 219,-406 "/>
<text text-anchor="middle" x="178" y="-392.4" font-family="Arial" font-size="12.00">bus</text>
<polyline fill="none" stroke="black" stroke-width="2" points="196,-385 196,-406 "/>
<text text-anchor="middle" x="207.5" y="-392.4" font-family="Arial" font-size="12.00">0</text>
</g>
<!-- ugen_4 -->
<g id="node8" class="node">
<title>ugen_4</title>
<path fill="#eedc82" stroke="black" stroke-width="2" d="M378,-393.5C378,-393.5 414,-393.5 414,-393.5 420,-393.5 426,-399.5 426,-405.5 426,-405.5 426,-449.5 426,-449.5 426,-455.5 420,-461.5 414,-461.5 414,-461.5 378,-461.5 378,-461.5 372,-461.5 366,-455.5 366,-449.5 366,-449.5 366,-405.5 366,-405.5 366,-399.5 372,-393.5 378,-393.5"/>
<text text-anchor="middle" x="396" y="-447.9" font-family="Arial" font-size="12.00">Control</text>
<text text-anchor="middle" x="396" y="-434.9" font-family="Arial" font-size="12.00">(control)</text>
<polyline fill="none" stroke="black" stroke-width="2" points="366,-427.5 426,-427.5 "/>
<text text-anchor="middle" x="396" y="-413.9" font-family="Arial" font-size="12.00">level:</text>
<text text-anchor="middle" x="396" y="-400.9" font-family="Arial" font-size="12.00">1.0</text>
</g>
<!-- ugen_5 -->
<g id="node9" class="node">
<title>ugen_5</title>
<path fill="#eedc82" stroke="black" stroke-width="2" d="M580,-373C580,-373 676,-373 676,-373 682,-373 688,-379 688,-385 688,-385 688,-450 688,-450 688,-456 682,-462 676,-462 676,-462 580,-462 580,-462 574,-462 568,-456 568,-450 568,-450 568,-385 568,-385 568,-379 574,-373 580,-373"/>
<text text-anchor="middle" x="628" y="-448.4" font-family="Arial" font-size="12.00">BinaryOpUGen</text>
<text text-anchor="middle" x="628" y="-435.4" font-family="Arial" font-size="12.00">[MULTIPLICATION]</text>
<text text-anchor="middle" x="628" y="-422.4" font-family="Arial" font-size="12.00">(control)</text>
<polyline fill="none" stroke="black" stroke-width="2" points="568,-415 688,-415 "/>
<text text-anchor="middle" x="602" y="-401.4" font-family="Arial" font-size="12.00">left</text>
<polyline fill="none" stroke="black" stroke-width="2" points="568,-394 636,-394 "/>
<text text-anchor="middle" x="602" y="-380.4" font-family="Arial" font-size="12.00">right</text>
<polyline fill="none" stroke="black" stroke-width="2" points="636,-373 636,-415 "/>
<text text-anchor="middle" x="662" y="-390.9" font-family="Arial" font-size="12.00">0</text>
</g>
<!-- ugen_6 -->
<g id="node10" class="node">
<title>ugen_6</title>
<path fill="#ee9572" stroke="black" stroke-width="2" d="M154.5,-130.5C154.5,-130.5 224.5,-130.5 224.5,-130.5 230.5,-130.5 236.5,-136.5 236.5,-142.5 236.5,-142.5 236.5,-220.5 236.5,-220.5 236.5,-226.5 230.5,-232.5 224.5,-232.5 224.5,-232.5 154.5,-232.5 154.5,-232.5 148.5,-232.5 142.5,-226.5 142.5,-220.5 142.5,-220.5 142.5,-142.5 142.5,-142.5 142.5,-136.5 148.5,-130.5 154.5,-130.5"/>
<text text-anchor="middle" x="189.5" y="-218.9" font-family="Arial" font-size="12.00">ExpRand</text>
<text text-anchor="middle" x="189.5" y="-205.9" font-family="Arial" font-size="12.00">(scalar)</text>
<polyline fill="none" stroke="black" stroke-width="2" points="142.5,-198.5 236.5,-198.5 "/>
<text text-anchor="middle" x="178" y="-184.9" font-family="Arial" font-size="12.00">minimum:</text>
<text text-anchor="middle" x="178" y="-171.9" font-family="Arial" font-size="12.00">0.01</text>
<polyline fill="none" stroke="black" stroke-width="2" points="142.5,-164.5 213.5,-164.5 "/>
<text text-anchor="middle" x="178" y="-150.9" font-family="Arial" font-size="12.00">maximum:</text>
<text text-anchor="middle" x="178" y="-137.9" font-family="Arial" font-size="12.00">0.1</text>
<polyline fill="none" stroke="black" stroke-width="2" points="213.5,-130.5 213.5,-198.5 "/>
<text text-anchor="middle" x="225" y="-161.4" font-family="Arial" font-size="12.00">0</text>
</g>
<!-- ugen_7 -->
<g id="node11" class="node">
<title>ugen_7</title>
<path fill="#ee9572" stroke="black" stroke-width="2" d="M154.5,-251.5C154.5,-251.5 224.5,-251.5 224.5,-251.5 230.5,-251.5 236.5,-257.5 236.5,-263.5 236.5,-263.5 236.5,-341.5 236.5,-341.5 236.5,-347.5 230.5,-353.5 224.5,-353.5 224.5,-353.5 154.5,-353.5 154.5,-353.5 148.5,-353.5 142.5,-347.5 142.5,-341.5 142.5,-341.5 142.5,-263.5 142.5,-263.5 142.5,-257.5 148.5,-251.5 154.5,-251.5"/>
<text text-anchor="middle" x="189.5" y="-339.9" font-family="Arial" font-size="12.00">ExpRand</text>
<text text-anchor="middle" x="189.5" y="-326.9" font-family="Arial" font-size="12.00">(scalar)</text>
<polyline fill="none" stroke="black" stroke-width="2" points="142.5,-319.5 236.5,-319.5 "/>
<text text-anchor="middle" x="178" y="-305.9" font-family="Arial" font-size="12.00">minimum:</text>
<text text-anchor="middle" x="178" y="-292.9" font-family="Arial" font-size="12.00">0.01</text>
<polyline fill="none" stroke="black" stroke-width="2" points="142.5,-285.5 213.5,-285.5 "/>
<text text-anchor="middle" x="178" y="-271.9" font-family="Arial" font-size="12.00">maximum:</text>
<text text-anchor="middle" x="178" y="-258.9" font-family="Arial" font-size="12.00">0.1</text>
<polyline fill="none" stroke="black" stroke-width="2" points="213.5,-251.5 213.5,-319.5 "/>
<text text-anchor="middle" x="225" y="-282.4" font-family="Arial" font-size="12.00">0</text>
</g>
<!-- ugen_8 -->
<g id="node12" class="node">
<title>ugen_8</title>
<path fill="#bcd2ee" stroke="black" stroke-width="2" d="M328,-243C328,-243 464,-243 464,-243 470,-243 476,-249 476,-255 476,-255 476,-362 476,-362 476,-368 470,-374 464,-374 464,-374 328,-374 328,-374 322,-374 316,-368 316,-362 316,-362 316,-255 316,-255 316,-249 322,-243 328,-243"/>
<text text-anchor="middle" x="396" y="-360.4" font-family="Arial" font-size="12.00">AllpassC</text>
<text text-anchor="middle" x="396" y="-347.4" font-family="Arial" font-size="12.00">(audio)</text>
<polyline fill="none" stroke="black" stroke-width="2" points="316,-340 476,-340 "/>
<text text-anchor="middle" x="384.5" y="-326.4" font-family="Arial" font-size="12.00">source</text>
<polyline fill="none" stroke="black" stroke-width="2" points="316,-319 453,-319 "/>
<text text-anchor="middle" x="384.5" y="-305.4" font-family="Arial" font-size="12.00">maximum_delay_time:</text>
<text text-anchor="middle" x="384.5" y="-292.4" font-family="Arial" font-size="12.00">0.1</text>
<polyline fill="none" stroke="black" stroke-width="2" points="316,-285 453,-285 "/>
<text text-anchor="middle" x="384.5" y="-271.4" font-family="Arial" font-size="12.00">delay_time</text>
<polyline fill="none" stroke="black" stroke-width="2" points="316,-264 453,-264 "/>
<text text-anchor="middle" x="384.5" y="-250.4" font-family="Arial" font-size="12.00">decay_time</text>
<polyline fill="none" stroke="black" stroke-width="2" points="453,-243 453,-340 "/>
<text text-anchor="middle" x="464.5" y="-288.4" font-family="Arial" font-size="12.00">0</text>
</g>
<!-- ugen_9 -->
<g id="node13" class="node">
<title>ugen_9</title>
<path fill="#ee9572" stroke="black" stroke-width="2" d="M361,-0.5C361,-0.5 431,-0.5 431,-0.5 437,-0.5 443,-6.5 443,-12.5 443,-12.5 443,-90.5 443,-90.5 443,-96.5 437,-102.5 431,-102.5 431,-102.5 361,-102.5 361,-102.5 355,-102.5 349,-96.5 349,-90.5 349,-90.5 349,-12.5 349,-12.5 349,-6.5 355,-0.5 361,-0.5"/>
<text text-anchor="middle" x="396" y="-88.9" font-family="Arial" font-size="12.00">ExpRand</text>
<text text-anchor="middle" x="396" y="-75.9" font-family="Arial" font-size="12.00">(scalar)</text>
<polyline fill="none" stroke="black" stroke-width="2" points="349,-68.5 443,-68.5 "/>
<text text-anchor="middle" x="384.5" y="-54.9" font-family="Arial" font-size="12.00">minimum:</text>
<text text-anchor="middle" x="384.5" y="-41.9" font-family="Arial" font-size="12.00">0.01</text>
<polyline fill="none" stroke="black" stroke-width="2" points="349,-34.5 420,-34.5 "/>
<text text-anchor="middle" x="384.5" y="-20.9" font-family="Arial" font-size="12.00">maximum:</text>
<text text-anchor="middle" x="384.5" y="-7.9" font-family="Arial" font-size="12.00">0.1</text>
<polyline fill="none" stroke="black" stroke-width="2" points="420,-0.5 420,-68.5 "/>
<text text-anchor="middle" x="431.5" y="-31.4" font-family="Arial" font-size="12.00">0</text>
</g>
</g>
</svg>
