<?xml version="1.0" encoding="UTF-8" standalone="no"?>
<!DOCTYPE svg PUBLIC "-//W3C//DTD SVG 1.1//EN"
 "http://www.w3.org/Graphics/SVG/1.1/DTD/svg11.dtd">
<!-- Generated by graphviz version 2.50.0 (20211204.2007)
 -->
<!-- Title: synthdef_fa5c6ce33947883c713aeba0830cd7e3 Pages: 1 -->
<svg width="1258pt" height="502pt"
 viewBox="0.00 0.00 1258.00 501.84" xmlns="http://www.w3.org/2000/svg" xmlns:xlink="http://www.w3.org/1999/xlink">
<g id="graph0" class="graph" transform="scale(1 1) rotate(0) translate(4 497.84)">
<title>synthdef_fa5c6ce33947883c713aeba0830cd7e3</title>
<!-- ugen_0&#45;&gt;ugen_1 -->
<g id="edge1" class="edge">
<title>ugen_0:e&#45;&gt;ugen_1:w</title>
<path fill="none" stroke="salmon" stroke-width="2" d="M63,-337.5C91.38,-337.5 100.88,-337.5 124.98,-337.5"/>
<polygon fill="salmon" stroke="salmon" stroke-width="2" points="125,-341 135,-337.5 125,-334 125,-341"/>
</g>
<!-- ugen_0&#45;&gt;ugen_13 -->
<g id="edge2" class="edge">
<title>ugen_0:e&#45;&gt;ugen_13:w</title>
<path fill="none" stroke="salmon" stroke-width="2" d="M63,-303.5C139.36,-303.5 72.29,-415.93 135,-459.5 226.14,-522.83 273.01,-478.5 384,-478.5 384,-478.5 384,-478.5 799,-478.5 954.85,-478.5 976.62,-397.11 1110,-316.5 1140.22,-298.24 1142.8,-272.01 1172.02,-267.25"/>
<polygon fill="salmon" stroke="salmon" stroke-width="2" points="1172.29,-270.74 1182,-266.5 1171.76,-263.76 1172.29,-270.74"/>
</g>
<!-- ugen_0&#45;&gt;ugen_3 -->
<g id="edge3" class="edge">
<title>ugen_0:e&#45;&gt;ugen_3:w</title>
<path fill="none" stroke="salmon" stroke-width="2" d="M63,-303.5C113.02,-303.5 106.12,-239.27 148.37,-230.49"/>
<polygon fill="salmon" stroke="salmon" stroke-width="2" points="148.89,-233.96 158.5,-229.5 148.21,-226.99 148.89,-233.96"/>
</g>
<!-- ugen_1&#45;&gt;ugen_2 -->
<g id="edge4" class="edge">
<title>ugen_1:e&#45;&gt;ugen_2:w</title>
<path fill="none" stroke="goldenrod" stroke-width="2" d="M244,-354.5C278.93,-354.5 277.93,-314.6 305.84,-306.81"/>
<polygon fill="goldenrod" stroke="goldenrod" stroke-width="2" points="306.53,-310.25 316,-305.5 305.63,-303.31 306.53,-310.25"/>
</g>
<!-- ugen_10&#45;&gt;ugen_12 -->
<g id="edge5" class="edge">
<title>ugen_10:e&#45;&gt;ugen_12:w</title>
<path fill="none" stroke="salmon" stroke-width="2" d="M846,-86.5C906.49,-86.5 888.34,-175.49 939.92,-185.57"/>
<polygon fill="salmon" stroke="salmon" stroke-width="2" points="939.72,-189.07 950,-186.5 940.36,-182.1 939.72,-189.07"/>
</g>
<!-- ugen_11&#45;&gt;ugen_12 -->
<g id="edge6" class="edge">
<title>ugen_11:e&#45;&gt;ugen_12:w</title>
<path fill="none" stroke="salmon" stroke-width="2" d="M846,-207.5C888.61,-207.5 901.76,-207.5 939.77,-207.5"/>
<polygon fill="salmon" stroke="salmon" stroke-width="2" points="940,-211 950,-207.5 940,-204 940,-211"/>
</g>
<!-- ugen_12&#45;&gt;ugen_13 -->
<g id="edge7" class="edge">
<title>ugen_12:e&#45;&gt;ugen_13:w</title>
<path fill="none" stroke="steelblue" stroke-width="2" d="M1110,-224.5C1138.38,-224.5 1147.88,-224.5 1171.98,-224.5"/>
<polygon fill="steelblue" stroke="steelblue" stroke-width="2" points="1172,-228 1182,-224.5 1172,-221 1172,-228"/>
</g>
<!-- ugen_2&#45;&gt;ugen_4 -->
<g id="edge8" class="edge">
<title>ugen_2:e&#45;&gt;ugen_4:w</title>
<path fill="none" stroke="goldenrod" stroke-width="2" d="M454,-305.5C493.68,-305.5 484.71,-360.64 516.02,-370.12"/>
<polygon fill="goldenrod" stroke="goldenrod" stroke-width="2" points="515.61,-373.6 526,-371.5 516.57,-366.66 515.61,-373.6"/>
</g>
<!-- ugen_2&#45;&gt;ugen_6 -->
<g id="edge9" class="edge">
<title>ugen_2:e&#45;&gt;ugen_6:w</title>
<path fill="none" stroke="goldenrod" stroke-width="2" d="M454,-305.5C573.3,-305.5 413.02,-53.92 515.95,-39.17"/>
<polygon fill="goldenrod" stroke="goldenrod" stroke-width="2" points="516.26,-42.66 526,-38.5 515.79,-35.68 516.26,-42.66"/>
</g>
<!-- ugen_3&#45;&gt;ugen_4 -->
<g id="edge10" class="edge">
<title>ugen_3:e&#45;&gt;ugen_4:w</title>
<path fill="none" stroke="steelblue" stroke-width="2" d="M220.5,-229.5C296.93,-229.5 250.39,-333.31 316,-372.5 393.5,-418.8 429.53,-394.48 515.8,-392.61"/>
<polygon fill="steelblue" stroke="steelblue" stroke-width="2" points="516.04,-396.11 526,-392.5 515.96,-389.11 516.04,-396.11"/>
</g>
<!-- ugen_4&#45;&gt;ugen_9 -->
<g id="edge11" class="edge">
<title>ugen_4:e&#45;&gt;ugen_9:w</title>
<path fill="none" stroke="steelblue" stroke-width="2" d="M646,-381.5C674.38,-381.5 683.88,-381.5 707.98,-381.5"/>
<polygon fill="steelblue" stroke="steelblue" stroke-width="2" points="708,-385 718,-381.5 708,-378 708,-385"/>
</g>
<!-- ugen_5&#45;&gt;ugen_6 -->
<g id="edge12" class="edge">
<title>ugen_5:e&#45;&gt;ugen_6:w</title>
<path fill="none" stroke="goldenrod" stroke-width="2" d="M416,-17.5C461.36,-17.5 475.15,-17.5 515.95,-17.5"/>
<polygon fill="goldenrod" stroke="goldenrod" stroke-width="2" points="516,-21 526,-17.5 516,-14 516,-21"/>
</g>
<!-- ugen_6&#45;&gt;ugen_13 -->
<g id="edge13" class="edge">
<title>ugen_6:e&#45;&gt;ugen_13:w</title>
<path fill="none" stroke="goldenrod" stroke-width="2" d="M646,-27.5C749.33,-27.5 778.63,-14.17 878,-42.5 990.44,-74.55 1017.73,-94.7 1110,-166.5 1144.56,-193.4 1136.22,-237.84 1171.92,-244.62"/>
<polygon fill="goldenrod" stroke="goldenrod" stroke-width="2" points="1171.73,-248.12 1182,-245.5 1172.34,-241.14 1171.73,-248.12"/>
</g>
<!-- ugen_7&#45;&gt;ugen_9 -->
<g id="edge14" class="edge">
<title>ugen_7:e&#45;&gt;ugen_9:w</title>
<path fill="none" stroke="salmon" stroke-width="2" d="M634,-152.5C707.94,-152.5 646.77,-291.49 708.04,-304.52"/>
<polygon fill="salmon" stroke="salmon" stroke-width="2" points="707.71,-308.01 718,-305.5 708.39,-301.04 707.71,-308.01"/>
</g>
<!-- ugen_8&#45;&gt;ugen_9 -->
<g id="edge15" class="edge">
<title>ugen_8:e&#45;&gt;ugen_9:w</title>
<path fill="none" stroke="salmon" stroke-width="2" d="M634,-273.5C674.35,-273.5 674.24,-317.78 707.63,-325.39"/>
<polygon fill="salmon" stroke="salmon" stroke-width="2" points="707.68,-328.92 718,-326.5 708.43,-321.96 707.68,-328.92"/>
</g>
<!-- ugen_9&#45;&gt;ugen_12 -->
<g id="edge16" class="edge">
<title>ugen_9:e&#45;&gt;ugen_12:w</title>
<path fill="none" stroke="steelblue" stroke-width="2" d="M878,-343.5C922.4,-343.5 905.19,-274.66 939.97,-263.91"/>
<polygon fill="steelblue" stroke="steelblue" stroke-width="2" points="940.58,-267.35 950,-262.5 939.61,-260.42 940.58,-267.35"/>
</g>
<!-- ugen_0 -->
<g id="node1" class="node">
<title>ugen_0</title>
<path fill="#ee9572" stroke="black" stroke-width="2" d="M12,-286.5C12,-286.5 51,-286.5 51,-286.5 57,-286.5 63,-292.5 63,-298.5 63,-298.5 63,-376.5 63,-376.5 63,-382.5 57,-388.5 51,-388.5 51,-388.5 12,-388.5 12,-388.5 6,-388.5 0,-382.5 0,-376.5 0,-376.5 0,-298.5 0,-298.5 0,-292.5 6,-286.5 12,-286.5"/>
<text text-anchor="middle" x="31.5" y="-374.9" font-family="Arial" font-size="12.00">Control</text>
<text text-anchor="middle" x="31.5" y="-361.9" font-family="Arial" font-size="12.00">(scalar)</text>
<polyline fill="none" stroke="black" stroke-width="2" points="0,-354.5 63,-354.5 "/>
<text text-anchor="middle" x="31.5" y="-340.9" font-family="Arial" font-size="12.00">duration:</text>
<text text-anchor="middle" x="31.5" y="-327.9" font-family="Arial" font-size="12.00">1.0</text>
<polyline fill="none" stroke="black" stroke-width="2" points="0,-320.5 63,-320.5 "/>
<text text-anchor="middle" x="31.5" y="-306.9" font-family="Arial" font-size="12.00">out:</text>
<text text-anchor="middle" x="31.5" y="-293.9" font-family="Arial" font-size="12.00">0.0</text>
</g>
<!-- ugen_1 -->
<g id="node2" class="node">
<title>ugen_1</title>
<path fill="#eedc82" stroke="black" stroke-width="2" d="M147,-293C147,-293 232,-293 232,-293 238,-293 244,-299 244,-305 244,-305 244,-438 244,-438 244,-444 238,-450 232,-450 232,-450 147,-450 147,-450 141,-450 135,-444 135,-438 135,-438 135,-305 135,-305 135,-299 141,-293 147,-293"/>
<text text-anchor="middle" x="189.5" y="-436.4" font-family="Arial" font-size="12.00">Line</text>
<text text-anchor="middle" x="189.5" y="-423.4" font-family="Arial" font-size="12.00">(control)</text>
<polyline fill="none" stroke="black" stroke-width="2" points="135,-416 244,-416 "/>
<text text-anchor="middle" x="178" y="-402.4" font-family="Arial" font-size="12.00">start:</text>
<text text-anchor="middle" x="178" y="-389.4" font-family="Arial" font-size="12.00">0.0</text>
<polyline fill="none" stroke="black" stroke-width="2" points="135,-382 221,-382 "/>
<text text-anchor="middle" x="178" y="-368.4" font-family="Arial" font-size="12.00">stop:</text>
<text text-anchor="middle" x="178" y="-355.4" font-family="Arial" font-size="12.00">1.0</text>
<polyline fill="none" stroke="black" stroke-width="2" points="135,-348 221,-348 "/>
<text text-anchor="middle" x="178" y="-334.4" font-family="Arial" font-size="12.00">duration</text>
<polyline fill="none" stroke="black" stroke-width="2" points="135,-327 221,-327 "/>
<text text-anchor="middle" x="178" y="-313.4" font-family="Arial" font-size="12.00">done_action:</text>
<text text-anchor="middle" x="178" y="-300.4" font-family="Arial" font-size="12.00">2.0</text>
<polyline fill="none" stroke="black" stroke-width="2" points="221,-293 221,-416 "/>
<text text-anchor="middle" x="232.5" y="-351.4" font-family="Arial" font-size="12.00">0</text>
</g>
<!-- ugen_10 -->
<g id="node3" class="node">
<title>ugen_10</title>
<path fill="#ee9572" stroke="black" stroke-width="2" d="M763,-52.5C763,-52.5 833,-52.5 833,-52.5 839,-52.5 845,-58.5 845,-64.5 845,-64.5 845,-142.5 845,-142.5 845,-148.5 839,-154.5 833,-154.5 833,-154.5 763,-154.5 763,-154.5 757,-154.5 751,-148.5 751,-142.5 751,-142.5 751,-64.5 751,-64.5 751,-58.5 757,-52.5 763,-52.5"/>
<text text-anchor="middle" x="798" y="-140.9" font-family="Arial" font-size="12.00">ExpRand</text>
<text text-anchor="middle" x="798" y="-127.9" font-family="Arial" font-size="12.00">(scalar)</text>
<polyline fill="none" stroke="black" stroke-width="2" points="751,-120.5 845,-120.5 "/>
<text text-anchor="middle" x="786.5" y="-106.9" font-family="Arial" font-size="12.00">minimum:</text>
<text text-anchor="middle" x="786.5" y="-93.9" font-family="Arial" font-size="12.00">0.01</text>
<polyline fill="none" stroke="black" stroke-width="2" points="751,-86.5 822,-86.5 "/>
<text text-anchor="middle" x="786.5" y="-72.9" font-family="Arial" font-size="12.00">maximum:</text>
<text text-anchor="middle" x="786.5" y="-59.9" font-family="Arial" font-size="12.00">0.1</text>
<polyline fill="none" stroke="black" stroke-width="2" points="822,-52.5 822,-120.5 "/>
<text text-anchor="middle" x="833.5" y="-83.4" font-family="Arial" font-size="12.00">0</text>
</g>
<!-- ugen_11 -->
<g id="node4" class="node">
<title>ugen_11</title>
<path fill="#ee9572" stroke="black" stroke-width="2" d="M763,-173.5C763,-173.5 833,-173.5 833,-173.5 839,-173.5 845,-179.5 845,-185.5 845,-185.5 845,-263.5 845,-263.5 845,-269.5 839,-275.5 833,-275.5 833,-275.5 763,-275.5 763,-275.5 757,-275.5 751,-269.5 751,-263.5 751,-263.5 751,-185.5 751,-185.5 751,-179.5 757,-173.5 763,-173.5"/>
<text text-anchor="middle" x="798" y="-261.9" font-family="Arial" font-size="12.00">ExpRand</text>
<text text-anchor="middle" x="798" y="-248.9" font-family="Arial" font-size="12.00">(scalar)</text>
<polyline fill="none" stroke="black" stroke-width="2" points="751,-241.5 845,-241.5 "/>
<text text-anchor="middle" x="786.5" y="-227.9" font-family="Arial" font-size="12.00">minimum:</text>
<text text-anchor="middle" x="786.5" y="-214.9" font-family="Arial" font-size="12.00">0.01</text>
<polyline fill="none" stroke="black" stroke-width="2" points="751,-207.5 822,-207.5 "/>
<text text-anchor="middle" x="786.5" y="-193.9" font-family="Arial" font-size="12.00">maximum:</text>
<text text-anchor="middle" x="786.5" y="-180.9" font-family="Arial" font-size="12.00">0.1</text>
<polyline fill="none" stroke="black" stroke-width="2" points="822,-173.5 822,-241.5 "/>
<text text-anchor="middle" x="833.5" y="-204.4" font-family="Arial" font-size="12.00">0</text>
</g>
<!-- ugen_12 -->
<g id="node5" class="node">
<title>ugen_12</title>
<path fill="#bcd2ee" stroke="black" stroke-width="2" d="M962,-176C962,-176 1098,-176 1098,-176 1104,-176 1110,-182 1110,-188 1110,-188 1110,-295 1110,-295 1110,-301 1104,-307 1098,-307 1098,-307 962,-307 962,-307 956,-307 950,-301 950,-295 950,-295 950,-188 950,-188 950,-182 956,-176 962,-176"/>
<text text-anchor="middle" x="1030" y="-293.4" font-family="Arial" font-size="12.00">AllpassC</text>
<text text-anchor="middle" x="1030" y="-280.4" font-family="Arial" font-size="12.00">(audio)</text>
<polyline fill="none" stroke="black" stroke-width="2" points="950,-273 1110,-273 "/>
<text text-anchor="middle" x="1018.5" y="-259.4" font-family="Arial" font-size="12.00">source</text>
<polyline fill="none" stroke="black" stroke-width="2" points="950,-252 1087,-252 "/>
<text text-anchor="middle" x="1018.5" y="-238.4" font-family="Arial" font-size="12.00">maximum_delay_time:</text>
<text text-anchor="middle" x="1018.5" y="-225.4" font-family="Arial" font-size="12.00">0.1</text>
<polyline fill="none" stroke="black" stroke-width="2" points="950,-218 1087,-218 "/>
<text text-anchor="middle" x="1018.5" y="-204.4" font-family="Arial" font-size="12.00">delay_time</text>
<polyline fill="none" stroke="black" stroke-width="2" points="950,-197 1087,-197 "/>
<text text-anchor="middle" x="1018.5" y="-183.4" font-family="Arial" font-size="12.00">decay_time</text>
<polyline fill="none" stroke="black" stroke-width="2" points="1087,-176 1087,-273 "/>
<text text-anchor="middle" x="1098.5" y="-221.4" font-family="Arial" font-size="12.00">0</text>
</g>
<!-- ugen_13 -->
<g id="node6" class="node">
<title>ugen_13</title>
<path fill="#bcd2ee" stroke="black" stroke-width="2" d="M1194,-214C1194,-214 1238,-214 1238,-214 1244,-214 1250,-220 1250,-226 1250,-226 1250,-299 1250,-299 1250,-305 1244,-311 1238,-311 1238,-311 1194,-311 1194,-311 1188,-311 1182,-305 1182,-299 1182,-299 1182,-226 1182,-226 1182,-220 1188,-214 1194,-214"/>
<text text-anchor="middle" x="1216" y="-297.4" font-family="Arial" font-size="12.00">XOut</text>
<text text-anchor="middle" x="1216" y="-284.4" font-family="Arial" font-size="12.00">(audio)</text>
<polyline fill="none" stroke="black" stroke-width="2" points="1182,-277 1250,-277 "/>
<text text-anchor="middle" x="1216" y="-263.4" font-family="Arial" font-size="12.00">bus</text>
<polyline fill="none" stroke="black" stroke-width="2" points="1182,-256 1250,-256 "/>
<text text-anchor="middle" x="1216" y="-242.4" font-family="Arial" font-size="12.00">crossfade</text>
<polyline fill="none" stroke="black" stroke-width="2" points="1182,-235 1250,-235 "/>
<text text-anchor="middle" x="1216" y="-221.4" font-family="Arial" font-size="12.00">source</text>
</g>
<!-- ugen_2 -->
<g id="node7" class="node">
<title>ugen_2</title>
<path fill="#eedc82" stroke="black" stroke-width="2" d="M328,-295.5C328,-295.5 442,-295.5 442,-295.5 448,-295.5 454,-301.5 454,-307.5 454,-307.5 454,-351.5 454,-351.5 454,-357.5 448,-363.5 442,-363.5 442,-363.5 328,-363.5 328,-363.5 322,-363.5 316,-357.5 316,-351.5 316,-351.5 316,-307.5 316,-307.5 316,-301.5 322,-295.5 328,-295.5"/>
<text text-anchor="middle" x="385" y="-349.9" font-family="Arial" font-size="12.00">UnaryOpUGen</text>
<text text-anchor="middle" x="385" y="-336.9" font-family="Arial" font-size="12.00">[HANNING_WINDOW]</text>
<text text-anchor="middle" x="385" y="-323.9" font-family="Arial" font-size="12.00">(control)</text>
<polyline fill="none" stroke="black" stroke-width="2" points="316,-316.5 454,-316.5 "/>
<text text-anchor="middle" x="358" y="-302.9" font-family="Arial" font-size="12.00">source</text>
<polyline fill="none" stroke="black" stroke-width="2" points="400,-295.5 400,-316.5 "/>
<text text-anchor="middle" x="427" y="-302.9" font-family="Arial" font-size="12.00">0</text>
</g>
<!-- ugen_3 -->
<g id="node8" class="node">
<title>ugen_3</title>
<path fill="#bcd2ee" stroke="black" stroke-width="2" d="M172,-219C172,-219 207,-219 207,-219 213,-219 219,-225 219,-231 219,-231 219,-262 219,-262 219,-268 213,-274 207,-274 207,-274 172,-274 172,-274 166,-274 160,-268 160,-262 160,-262 160,-231 160,-231 160,-225 166,-219 172,-219"/>
<text text-anchor="middle" x="189.5" y="-260.4" font-family="Arial" font-size="12.00">In</text>
<text text-anchor="middle" x="189.5" y="-247.4" font-family="Arial" font-size="12.00">(audio)</text>
<polyline fill="none" stroke="black" stroke-width="2" points="160,-240 219,-240 "/>
<text text-anchor="middle" x="178" y="-226.4" font-family="Arial" font-size="12.00">bus</text>
<polyline fill="none" stroke="black" stroke-width="2" points="196,-219 196,-240 "/>
<text text-anchor="middle" x="207.5" y="-226.4" font-family="Arial" font-size="12.00">0</text>
</g>
<!-- ugen_4 -->
<g id="node9" class="node">
<title>ugen_4</title>
<path fill="#bcd2ee" stroke="black" stroke-width="2" d="M538,-361C538,-361 634,-361 634,-361 640,-361 646,-367 646,-373 646,-373 646,-438 646,-438 646,-444 640,-450 634,-450 634,-450 538,-450 538,-450 532,-450 526,-444 526,-438 526,-438 526,-373 526,-373 526,-367 532,-361 538,-361"/>
<text text-anchor="middle" x="586" y="-436.4" font-family="Arial" font-size="12.00">BinaryOpUGen</text>
<text text-anchor="middle" x="586" y="-423.4" font-family="Arial" font-size="12.00">[MULTIPLICATION]</text>
<text text-anchor="middle" x="586" y="-410.4" font-family="Arial" font-size="12.00">(audio)</text>
<polyline fill="none" stroke="black" stroke-width="2" points="526,-403 646,-403 "/>
<text text-anchor="middle" x="560" y="-389.4" font-family="Arial" font-size="12.00">left</text>
<polyline fill="none" stroke="black" stroke-width="2" points="526,-382 594,-382 "/>
<text text-anchor="middle" x="560" y="-368.4" font-family="Arial" font-size="12.00">right</text>
<polyline fill="none" stroke="black" stroke-width="2" points="594,-361 594,-403 "/>
<text text-anchor="middle" x="620" y="-378.9" font-family="Arial" font-size="12.00">0</text>
</g>
<!-- ugen_5 -->
<g id="node10" class="node">
<title>ugen_5</title>
<path fill="#eedc82" stroke="black" stroke-width="2" d="M367,-0.5C367,-0.5 403,-0.5 403,-0.5 409,-0.5 415,-6.5 415,-12.5 415,-12.5 415,-56.5 415,-56.5 415,-62.5 409,-68.5 403,-68.5 403,-68.5 367,-68.5 367,-68.5 361,-68.5 355,-62.5 355,-56.5 355,-56.5 355,-12.5 355,-12.5 355,-6.5 361,-0.5 367,-0.5"/>
<text text-anchor="middle" x="385" y="-54.9" font-family="Arial" font-size="12.00">Control</text>
<text text-anchor="middle" x="385" y="-41.9" font-family="Arial" font-size="12.00">(control)</text>
<polyline fill="none" stroke="black" stroke-width="2" points="355,-34.5 415,-34.5 "/>
<text text-anchor="middle" x="385" y="-20.9" font-family="Arial" font-size="12.00">level:</text>
<text text-anchor="middle" x="385" y="-7.9" font-family="Arial" font-size="12.00">1.0</text>
</g>
<!-- ugen_6 -->
<g id="node11" class="node">
<title>ugen_6</title>
<path fill="#eedc82" stroke="black" stroke-width="2" d="M538,-7C538,-7 634,-7 634,-7 640,-7 646,-13 646,-19 646,-19 646,-84 646,-84 646,-90 640,-96 634,-96 634,-96 538,-96 538,-96 532,-96 526,-90 526,-84 526,-84 526,-19 526,-19 526,-13 532,-7 538,-7"/>
<text text-anchor="middle" x="586" y="-82.4" font-family="Arial" font-size="12.00">BinaryOpUGen</text>
<text text-anchor="middle" x="586" y="-69.4" font-family="Arial" font-size="12.00">[MULTIPLICATION]</text>
<text text-anchor="middle" x="586" y="-56.4" font-family="Arial" font-size="12.00">(control)</text>
<polyline fill="none" stroke="black" stroke-width="2" points="526,-49 646,-49 "/>
<text text-anchor="middle" x="560" y="-35.4" font-family="Arial" font-size="12.00">left</text>
<polyline fill="none" stroke="black" stroke-width="2" points="526,-28 594,-28 "/>
<text text-anchor="middle" x="560" y="-14.4" font-family="Arial" font-size="12.00">right</text>
<polyline fill="none" stroke="black" stroke-width="2" points="594,-7 594,-49 "/>
<text text-anchor="middle" x="620" y="-24.9" font-family="Arial" font-size="12.00">0</text>
</g>
<!-- ugen_7 -->
<g id="node12" class="node">
<title>ugen_7</title>
<path fill="#ee9572" stroke="black" stroke-width="2" d="M551,-118.5C551,-118.5 621,-118.5 621,-118.5 627,-118.5 633,-124.5 633,-130.5 633,-130.5 633,-208.5 633,-208.5 633,-214.5 627,-220.5 621,-220.5 621,-220.5 551,-220.5 551,-220.5 545,-220.5 539,-214.5 539,-208.5 539,-208.5 539,-130.5 539,-130.5 539,-124.5 545,-118.5 551,-118.5"/>
<text text-anchor="middle" x="586" y="-206.9" font-family="Arial" font-size="12.00">ExpRand</text>
<text text-anchor="middle" x="586" y="-193.9" font-family="Arial" font-size="12.00">(scalar)</text>
<polyline fill="none" stroke="black" stroke-width="2" points="539,-186.5 633,-186.5 "/>
<text text-anchor="middle" x="574.5" y="-172.9" font-family="Arial" font-size="12.00">minimum:</text>
<text text-anchor="middle" x="574.5" y="-159.9" font-family="Arial" font-size="12.00">0.01</text>
<polyline fill="none" stroke="black" stroke-width="2" points="539,-152.5 610,-152.5 "/>
<text text-anchor="middle" x="574.5" y="-138.9" font-family="Arial" font-size="12.00">maximum:</text>
<text text-anchor="middle" x="574.5" y="-125.9" font-family="Arial" font-size="12.00">0.1</text>
<polyline fill="none" stroke="black" stroke-width="2" points="610,-118.5 610,-186.5 "/>
<text text-anchor="middle" x="621.5" y="-149.4" font-family="Arial" font-size="12.00">0</text>
</g>
<!-- ugen_8 -->
<g id="node13" class="node">
<title>ugen_8</title>
<path fill="#ee9572" stroke="black" stroke-width="2" d="M551,-239.5C551,-239.5 621,-239.5 621,-239.5 627,-239.5 633,-245.5 633,-251.5 633,-251.5 633,-329.5 633,-329.5 633,-335.5 627,-341.5 621,-341.5 621,-341.5 551,-341.5 551,-341.5 545,-341.5 539,-335.5 539,-329.5 539,-329.5 539,-251.5 539,-251.5 539,-245.5 545,-239.5 551,-239.5"/>
<text text-anchor="middle" x="586" y="-327.9" font-family="Arial" font-size="12.00">ExpRand</text>
<text text-anchor="middle" x="586" y="-314.9" font-family="Arial" font-size="12.00">(scalar)</text>
<polyline fill="none" stroke="black" stroke-width="2" points="539,-307.5 633,-307.5 "/>
<text text-anchor="middle" x="574.5" y="-293.9" font-family="Arial" font-size="12.00">minimum:</text>
<text text-anchor="middle" x="574.5" y="-280.9" font-family="Arial" font-size="12.00">0.01</text>
<polyline fill="none" stroke="black" stroke-width="2" points="539,-273.5 610,-273.5 "/>
<text text-anchor="middle" x="574.5" y="-259.9" font-family="Arial" font-size="12.00">maximum:</text>
<text text-anchor="middle" x="574.5" y="-246.9" font-family="Arial" font-size="12.00">0.1</text>
<polyline fill="none" stroke="black" stroke-width="2" points="610,-239.5 610,-307.5 "/>
<text text-anchor="middle" x="621.5" y="-270.4" font-family="Arial" font-size="12.00">0</text>
</g>
<!-- ugen_9 -->
<g id="node14" class="node">
<title>ugen_9</title>
<path fill="#bcd2ee" stroke="black" stroke-width="2" d="M730,-295C730,-295 866,-295 866,-295 872,-295 878,-301 878,-307 878,-307 878,-414 878,-414 878,-420 872,-426 866,-426 866,-426 730,-426 730,-426 724,-426 718,-420 718,-414 718,-414 718,-307 718,-307 718,-301 724,-295 730,-295"/>
<text text-anchor="middle" x="798" y="-412.4" font-family="Arial" font-size="12.00">AllpassC</text>
<text text-anchor="middle" x="798" y="-399.4" font-family="Arial" font-size="12.00">(audio)</text>
<polyline fill="none" stroke="black" stroke-width="2" points="718,-392 878,-392 "/>
<text text-anchor="middle" x="786.5" y="-378.4" font-family="Arial" font-size="12.00">source</text>
<polyline fill="none" stroke="black" stroke-width="2" points="718,-371 855,-371 "/>
<text text-anchor="middle" x="786.5" y="-357.4" font-family="Arial" font-size="12.00">maximum_delay_time:</text>
<text text-anchor="middle" x="786.5" y="-344.4" font-family="Arial" font-size="12.00">0.1</text>
<polyline fill="none" stroke="black" stroke-width="2" points="718,-337 855,-337 "/>
<text text-anchor="middle" x="786.5" y="-323.4" font-family="Arial" font-size="12.00">delay_time</text>
<polyline fill="none" stroke="black" stroke-width="2" points="718,-316 855,-316 "/>
<text text-anchor="middle" x="786.5" y="-302.4" font-family="Arial" font-size="12.00">decay_time</text>
<polyline fill="none" stroke="black" stroke-width="2" points="855,-295 855,-392 "/>
<text text-anchor="middle" x="866.5" y="-340.4" font-family="Arial" font-size="12.00">0</text>
</g>
</g>
</svg>
