<?xml version="1.0" encoding="UTF-8" standalone="no"?>
<!DOCTYPE svg PUBLIC "-//W3C//DTD SVG 1.1//EN"
 "http://www.w3.org/Graphics/SVG/1.1/DTD/svg11.dtd">
<!-- Generated by graphviz version 2.40.1 (20161225.0304)
 -->
<!-- Title: synthdef_d4e7b88df56af5070a88f09b0f8c633e Pages: 1 -->
<svg width="429pt" height="268pt"
 viewBox="0.00 0.00 429.00 268.00" xmlns="http://www.w3.org/2000/svg" xmlns:xlink="http://www.w3.org/1999/xlink">
<g id="graph0" class="graph" transform="scale(1 1) rotate(0) translate(4 264)">
<title>synthdef_d4e7b88df56af5070a88f09b0f8c633e</title>
<!-- ugen_0&#45;&gt;ugen_1 -->
<g id="edge1" class="edge">
<title>ugen_0:e&#45;&gt;ugen_1:w</title>
<path fill="none" stroke="#4682b4" stroke-width="2" d="M56,-208.5C88.0037,-208.5 91.7359,-179.6933 117.776,-173.6169"/>
<polygon fill="#4682b4" stroke="#4682b4" stroke-width="2" points="118.4393,-177.0653 128,-172.5 117.679,-170.1067 118.4393,-177.0653"/>
</g>
<!-- ugen_0&#45;&gt;ugen_2 -->
<g id="edge2" class="edge">
<title>ugen_0:e&#45;&gt;ugen_2:w</title>
<path fill="none" stroke="#4682b4" stroke-width="2" d="M56,-208.5C88.9848,-208.5 95.2623,-222.4698 128,-226.5 184.9038,-233.5052 200.407,-235.6838 257,-226.5 286.6537,-221.6879 293.8422,-206.4102 318.8894,-203.1258"/>
<polygon fill="#4682b4" stroke="#4682b4" stroke-width="2" points="319.2354,-206.6112 329,-202.5 318.8028,-199.6246 319.2354,-206.6112"/>
</g>
<!-- ugen_1&#45;&gt;ugen_2 -->
<g id="edge3" class="edge">
<title>ugen_1:e&#45;&gt;ugen_2:w</title>
<path fill="none" stroke="#4682b4" stroke-width="2" d="M257,-138.5C290.487,-138.5 291.8338,-173.2092 318.7923,-180.2595"/>
<polygon fill="#4682b4" stroke="#4682b4" stroke-width="2" points="318.6508,-183.7679 329,-181.5 319.4953,-176.8191 318.6508,-183.7679"/>
</g>
<!-- ugen_0 -->
<g id="node1" class="node">
<title>ugen_0</title>
<path fill="#bcd2ee" stroke="#000000" stroke-width="2" d="M12,-191.5C12,-191.5 44,-191.5 44,-191.5 50,-191.5 56,-197.5 56,-203.5 56,-203.5 56,-247.5 56,-247.5 56,-253.5 50,-259.5 44,-259.5 44,-259.5 12,-259.5 12,-259.5 6,-259.5 0,-253.5 0,-247.5 0,-247.5 0,-203.5 0,-203.5 0,-197.5 6,-191.5 12,-191.5"/>
<text text-anchor="middle" x="28" y="-245.9" font-family="Arial" font-size="12.00" fill="#000000">In</text>
<text text-anchor="middle" x="28" y="-232.9" font-family="Arial" font-size="12.00" fill="#000000">(audio)</text>
<polyline fill="none" stroke="#000000" stroke-width="2" points="0,-225.5 56,-225.5 "/>
<text text-anchor="middle" x="17" y="-211.9" font-family="Arial" font-size="12.00" fill="#000000">bus:</text>
<text text-anchor="middle" x="17" y="-198.9" font-family="Arial" font-size="12.00" fill="#000000">0.0</text>
<polyline fill="none" stroke="#000000" stroke-width="2" points="34,-191.5 34,-225.5 "/>
<text text-anchor="middle" x="45" y="-205.4" font-family="Arial" font-size="12.00" fill="#000000">0</text>
</g>
<!-- ugen_1 -->
<g id="node2" class="node">
<title>ugen_1</title>
<path fill="#bcd2ee" stroke="#000000" stroke-width="2" d="M140,-94C140,-94 245,-94 245,-94 251,-94 257,-100 257,-106 257,-106 257,-205 257,-205 257,-211 251,-217 245,-217 245,-217 140,-217 140,-217 134,-217 128,-211 128,-205 128,-205 128,-106 128,-106 128,-100 134,-94 140,-94"/>
<text text-anchor="middle" x="192.5" y="-203.4" font-family="Arial" font-size="12.00" fill="#000000">DelayN</text>
<text text-anchor="middle" x="192.5" y="-190.4" font-family="Arial" font-size="12.00" fill="#000000">(audio)</text>
<polyline fill="none" stroke="#000000" stroke-width="2" points="128,-183 257,-183 "/>
<text text-anchor="middle" x="181.5" y="-169.4" font-family="Arial" font-size="12.00" fill="#000000">source</text>
<polyline fill="none" stroke="#000000" stroke-width="2" points="128,-162 235,-162 "/>
<text text-anchor="middle" x="181.5" y="-148.4" font-family="Arial" font-size="12.00" fill="#000000">maximum_delay_time:</text>
<text text-anchor="middle" x="181.5" y="-135.4" font-family="Arial" font-size="12.00" fill="#000000">0.01</text>
<polyline fill="none" stroke="#000000" stroke-width="2" points="128,-128 235,-128 "/>
<text text-anchor="middle" x="181.5" y="-114.4" font-family="Arial" font-size="12.00" fill="#000000">delay_time:</text>
<text text-anchor="middle" x="181.5" y="-101.4" font-family="Arial" font-size="12.00" fill="#000000">0.01</text>
<polyline fill="none" stroke="#000000" stroke-width="2" points="235,-94 235,-183 "/>
<text text-anchor="middle" x="246" y="-135.4" font-family="Arial" font-size="12.00" fill="#000000">0</text>
</g>
<!-- ugen_2 -->
<g id="node3" class="node">
<title>ugen_2</title>
<path fill="#bcd2ee" stroke="#000000" stroke-width="2" d="M341,-.5C341,-.5 409,-.5 409,-.5 415,-.5 421,-6.5 421,-12.5 421,-12.5 421,-234.5 421,-234.5 421,-240.5 415,-246.5 409,-246.5 409,-246.5 341,-246.5 341,-246.5 335,-246.5 329,-240.5 329,-234.5 329,-234.5 329,-12.5 329,-12.5 329,-6.5 335,-.5 341,-.5"/>
<text text-anchor="middle" x="375" y="-232.9" font-family="Arial" font-size="12.00" fill="#000000">Compander</text>
<text text-anchor="middle" x="375" y="-219.9" font-family="Arial" font-size="12.00" fill="#000000">(audio)</text>
<polyline fill="none" stroke="#000000" stroke-width="2" points="329,-212.5 421,-212.5 "/>
<text text-anchor="middle" x="364" y="-198.9" font-family="Arial" font-size="12.00" fill="#000000">source</text>
<polyline fill="none" stroke="#000000" stroke-width="2" points="329,-191.5 399,-191.5 "/>
<text text-anchor="middle" x="364" y="-177.9" font-family="Arial" font-size="12.00" fill="#000000">control</text>
<polyline fill="none" stroke="#000000" stroke-width="2" points="329,-170.5 399,-170.5 "/>
<text text-anchor="middle" x="364" y="-156.9" font-family="Arial" font-size="12.00" fill="#000000">threshold:</text>
<text text-anchor="middle" x="364" y="-143.9" font-family="Arial" font-size="12.00" fill="#000000">0.5</text>
<polyline fill="none" stroke="#000000" stroke-width="2" points="329,-136.5 399,-136.5 "/>
<text text-anchor="middle" x="364" y="-122.9" font-family="Arial" font-size="12.00" fill="#000000">slope_below:</text>
<text text-anchor="middle" x="364" y="-109.9" font-family="Arial" font-size="12.00" fill="#000000">1.0</text>
<polyline fill="none" stroke="#000000" stroke-width="2" points="329,-102.5 399,-102.5 "/>
<text text-anchor="middle" x="364" y="-88.9" font-family="Arial" font-size="12.00" fill="#000000">slope_above:</text>
<text text-anchor="middle" x="364" y="-75.9" font-family="Arial" font-size="12.00" fill="#000000">1.0</text>
<polyline fill="none" stroke="#000000" stroke-width="2" points="329,-68.5 399,-68.5 "/>
<text text-anchor="middle" x="364" y="-54.9" font-family="Arial" font-size="12.00" fill="#000000">clamp_time:</text>
<text text-anchor="middle" x="364" y="-41.9" font-family="Arial" font-size="12.00" fill="#000000">0.01</text>
<polyline fill="none" stroke="#000000" stroke-width="2" points="329,-34.5 399,-34.5 "/>
<text text-anchor="middle" x="364" y="-20.9" font-family="Arial" font-size="12.00" fill="#000000">relax_time:</text>
<text text-anchor="middle" x="364" y="-7.9" font-family="Arial" font-size="12.00" fill="#000000">0.1</text>
<polyline fill="none" stroke="#000000" stroke-width="2" points="399,-.5 399,-212.5 "/>
<text text-anchor="middle" x="410" y="-103.4" font-family="Arial" font-size="12.00" fill="#000000">0</text>
</g>
</g>
</svg>
