<?xml version="1.0" encoding="UTF-8" standalone="no"?>
<!DOCTYPE svg PUBLIC "-//W3C//DTD SVG 1.1//EN"
 "http://www.w3.org/Graphics/SVG/1.1/DTD/svg11.dtd">
<!-- Generated by graphviz version 2.40.1 (20161225.0304)
 -->
<!-- Title: synthdef_808f0f1b0185316fb2437bbe6d142f4e Pages: 1 -->
<svg width="742pt" height="428pt"
 viewBox="0.00 0.00 742.00 428.43" xmlns="http://www.w3.org/2000/svg" xmlns:xlink="http://www.w3.org/1999/xlink">
<g id="graph0" class="graph" transform="scale(1 1) rotate(0) translate(4 424.4323)">
<title>synthdef_808f0f1b0185316fb2437bbe6d142f4e</title>
<!-- ugen_0&#45;&gt;ugen_1 -->
<g id="edge1" class="edge">
<title>ugen_0:e&#45;&gt;ugen_1:w</title>
<path fill="none" stroke="#fa8072" stroke-width="2" d="M54,-192.4323C140.0005,-192.4323 56.7519,-360.7285 128.8687,-374.534"/>
<polygon fill="#fa8072" stroke="#fa8072" stroke-width="2" points="128.7299,-378.0354 139,-375.4323 129.3482,-371.0627 128.7299,-378.0354"/>
</g>
<!-- ugen_0&#45;&gt;ugen_8 -->
<g id="edge2" class="edge">
<title>ugen_0:e&#45;&gt;ugen_8:w</title>
<path fill="none" stroke="#fa8072" stroke-width="2" d="M54,-158.4323C91.9733,-158.4323 93.9947,-132.8685 126,-112.4323 193.5444,-69.3037 201.0709,-37.8874 278,-15.4323 447.1593,33.9441 498.4153,-53.9674 669.8768,-57.3335"/>
<polygon fill="#fa8072" stroke="#fa8072" stroke-width="2" points="669.9663,-60.8344 680,-57.4323 670.0347,-53.8348 669.9663,-60.8344"/>
</g>
<!-- ugen_1&#45;&gt;ugen_4 -->
<g id="edge3" class="edge">
<title>ugen_1:e&#45;&gt;ugen_4:w</title>
<path fill="none" stroke="#4682b4" stroke-width="2" d="M193,-375.4323C228.2655,-375.4323 237.4625,-358.1853 267.8401,-354.9514"/>
<polygon fill="#4682b4" stroke="#4682b4" stroke-width="2" points="268.1917,-358.4381 278,-354.4323 267.8344,-351.4473 268.1917,-358.4381"/>
</g>
<!-- ugen_2&#45;&gt;ugen_4 -->
<g id="edge4" class="edge">
<title>ugen_2:e&#45;&gt;ugen_4:w</title>
<path fill="none" stroke="#fa8072" stroke-width="2" d="M206,-156.4323C265.1486,-156.4323 221.1404,-264.1061 267.7973,-277.1448"/>
<polygon fill="#fa8072" stroke="#fa8072" stroke-width="2" points="267.6404,-280.6526 278,-278.4323 268.5169,-273.7077 267.6404,-280.6526"/>
</g>
<!-- ugen_3&#45;&gt;ugen_4 -->
<g id="edge5" class="edge">
<title>ugen_3:e&#45;&gt;ugen_4:w</title>
<path fill="none" stroke="#fa8072" stroke-width="2" d="M206,-277.4323C235.8008,-277.4323 243.0889,-294.883 267.9651,-298.7004"/>
<polygon fill="#fa8072" stroke="#fa8072" stroke-width="2" points="267.7718,-302.1955 278,-299.4323 268.2812,-295.214 267.7718,-302.1955"/>
</g>
<!-- ugen_4&#45;&gt;ugen_7 -->
<g id="edge6" class="edge">
<title>ugen_4:e&#45;&gt;ugen_7:w</title>
<path fill="none" stroke="#4682b4" stroke-width="2" d="M407,-316.4323C469.6736,-316.4323 419.0507,-199.8519 468.89,-186.6455"/>
<polygon fill="#4682b4" stroke="#4682b4" stroke-width="2" points="469.4883,-190.0989 479,-185.4323 468.6542,-183.1488 469.4883,-190.0989"/>
</g>
<!-- ugen_5&#45;&gt;ugen_7 -->
<g id="edge7" class="edge">
<title>ugen_5:e&#45;&gt;ugen_7:w</title>
<path fill="none" stroke="#fa8072" stroke-width="2" d="M382.5,-59.4323C427.219,-59.4323 430.4453,-102.2859 469.0052,-108.647"/>
<polygon fill="#fa8072" stroke="#fa8072" stroke-width="2" points="468.7565,-112.1381 479,-109.4323 469.3049,-105.1596 468.7565,-112.1381"/>
</g>
<!-- ugen_6&#45;&gt;ugen_7 -->
<g id="edge8" class="edge">
<title>ugen_6:e&#45;&gt;ugen_7:w</title>
<path fill="none" stroke="#fa8072" stroke-width="2" d="M382.5,-180.4323C427.219,-180.4323 430.4453,-137.5788 469.0052,-131.2177"/>
<polygon fill="#fa8072" stroke="#fa8072" stroke-width="2" points="469.3049,-134.705 479,-130.4323 468.7565,-127.7266 469.3049,-134.705"/>
</g>
<!-- ugen_7&#45;&gt;ugen_8 -->
<g id="edge9" class="edge">
<title>ugen_7:e&#45;&gt;ugen_8:w</title>
<path fill="none" stroke="#4682b4" stroke-width="2" d="M608,-147.4323C663.0128,-147.4323 626.6423,-50.2798 669.8752,-37.7562"/>
<polygon fill="#4682b4" stroke="#4682b4" stroke-width="2" points="670.5382,-41.1994 680,-36.4323 669.6306,-34.2585 670.5382,-41.1994"/>
</g>
<!-- ugen_0 -->
<g id="node1" class="node">
<title>ugen_0</title>
<path fill="#ee9572" stroke="#000000" stroke-width="2" d="M12,-141.4323C12,-141.4323 42,-141.4323 42,-141.4323 48,-141.4323 54,-147.4323 54,-153.4323 54,-153.4323 54,-231.4323 54,-231.4323 54,-237.4323 48,-243.4323 42,-243.4323 42,-243.4323 12,-243.4323 12,-243.4323 6,-243.4323 0,-237.4323 0,-231.4323 0,-231.4323 0,-153.4323 0,-153.4323 0,-147.4323 6,-141.4323 12,-141.4323"/>
<text text-anchor="middle" x="27" y="-229.8323" font-family="Arial" font-size="12.00" fill="#000000">Control</text>
<text text-anchor="middle" x="27" y="-216.8323" font-family="Arial" font-size="12.00" fill="#000000">(scalar)</text>
<polyline fill="none" stroke="#000000" stroke-width="2" points="0,-209.4323 54,-209.4323 "/>
<text text-anchor="middle" x="27" y="-195.8323" font-family="Arial" font-size="12.00" fill="#000000">in_:</text>
<text text-anchor="middle" x="27" y="-182.8323" font-family="Arial" font-size="12.00" fill="#000000">0.0</text>
<polyline fill="none" stroke="#000000" stroke-width="2" points="0,-175.4323 54,-175.4323 "/>
<text text-anchor="middle" x="27" y="-161.8323" font-family="Arial" font-size="12.00" fill="#000000">out:</text>
<text text-anchor="middle" x="27" y="-148.8323" font-family="Arial" font-size="12.00" fill="#000000">0.0</text>
</g>
<!-- ugen_1 -->
<g id="node2" class="node">
<title>ugen_1</title>
<path fill="#bcd2ee" stroke="#000000" stroke-width="2" d="M151,-364.9323C151,-364.9323 181,-364.9323 181,-364.9323 187,-364.9323 193,-370.9323 193,-376.9323 193,-376.9323 193,-407.9323 193,-407.9323 193,-413.9323 187,-419.9323 181,-419.9323 181,-419.9323 151,-419.9323 151,-419.9323 145,-419.9323 139,-413.9323 139,-407.9323 139,-407.9323 139,-376.9323 139,-376.9323 139,-370.9323 145,-364.9323 151,-364.9323"/>
<text text-anchor="middle" x="166" y="-406.3323" font-family="Arial" font-size="12.00" fill="#000000">In</text>
<text text-anchor="middle" x="166" y="-393.3323" font-family="Arial" font-size="12.00" fill="#000000">(audio)</text>
<polyline fill="none" stroke="#000000" stroke-width="2" points="139,-385.9323 193,-385.9323 "/>
<text text-anchor="middle" x="154.5" y="-372.3323" font-family="Arial" font-size="12.00" fill="#000000">bus</text>
<polyline fill="none" stroke="#000000" stroke-width="2" points="170,-364.9323 170,-385.9323 "/>
<text text-anchor="middle" x="181.5" y="-372.3323" font-family="Arial" font-size="12.00" fill="#000000">0</text>
</g>
<!-- ugen_2 -->
<g id="node3" class="node">
<title>ugen_2</title>
<path fill="#ee9572" stroke="#000000" stroke-width="2" d="M138,-122.4323C138,-122.4323 194,-122.4323 194,-122.4323 200,-122.4323 206,-128.4323 206,-134.4323 206,-134.4323 206,-212.4323 206,-212.4323 206,-218.4323 200,-224.4323 194,-224.4323 194,-224.4323 138,-224.4323 138,-224.4323 132,-224.4323 126,-218.4323 126,-212.4323 126,-212.4323 126,-134.4323 126,-134.4323 126,-128.4323 132,-122.4323 138,-122.4323"/>
<text text-anchor="middle" x="166" y="-210.8323" font-family="Arial" font-size="12.00" fill="#000000">ExpRand</text>
<text text-anchor="middle" x="166" y="-197.8323" font-family="Arial" font-size="12.00" fill="#000000">(scalar)</text>
<polyline fill="none" stroke="#000000" stroke-width="2" points="126,-190.4323 206,-190.4323 "/>
<text text-anchor="middle" x="155" y="-176.8323" font-family="Arial" font-size="12.00" fill="#000000">minimum:</text>
<text text-anchor="middle" x="155" y="-163.8323" font-family="Arial" font-size="12.00" fill="#000000">0.01</text>
<polyline fill="none" stroke="#000000" stroke-width="2" points="126,-156.4323 184,-156.4323 "/>
<text text-anchor="middle" x="155" y="-142.8323" font-family="Arial" font-size="12.00" fill="#000000">maximum:</text>
<text text-anchor="middle" x="155" y="-129.8323" font-family="Arial" font-size="12.00" fill="#000000">0.1</text>
<polyline fill="none" stroke="#000000" stroke-width="2" points="184,-122.4323 184,-190.4323 "/>
<text text-anchor="middle" x="195" y="-153.3323" font-family="Arial" font-size="12.00" fill="#000000">0</text>
</g>
<!-- ugen_3 -->
<g id="node4" class="node">
<title>ugen_3</title>
<path fill="#ee9572" stroke="#000000" stroke-width="2" d="M138,-243.4323C138,-243.4323 194,-243.4323 194,-243.4323 200,-243.4323 206,-249.4323 206,-255.4323 206,-255.4323 206,-333.4323 206,-333.4323 206,-339.4323 200,-345.4323 194,-345.4323 194,-345.4323 138,-345.4323 138,-345.4323 132,-345.4323 126,-339.4323 126,-333.4323 126,-333.4323 126,-255.4323 126,-255.4323 126,-249.4323 132,-243.4323 138,-243.4323"/>
<text text-anchor="middle" x="166" y="-331.8323" font-family="Arial" font-size="12.00" fill="#000000">ExpRand</text>
<text text-anchor="middle" x="166" y="-318.8323" font-family="Arial" font-size="12.00" fill="#000000">(scalar)</text>
<polyline fill="none" stroke="#000000" stroke-width="2" points="126,-311.4323 206,-311.4323 "/>
<text text-anchor="middle" x="155" y="-297.8323" font-family="Arial" font-size="12.00" fill="#000000">minimum:</text>
<text text-anchor="middle" x="155" y="-284.8323" font-family="Arial" font-size="12.00" fill="#000000">0.01</text>
<polyline fill="none" stroke="#000000" stroke-width="2" points="126,-277.4323 184,-277.4323 "/>
<text text-anchor="middle" x="155" y="-263.8323" font-family="Arial" font-size="12.00" fill="#000000">maximum:</text>
<text text-anchor="middle" x="155" y="-250.8323" font-family="Arial" font-size="12.00" fill="#000000">0.1</text>
<polyline fill="none" stroke="#000000" stroke-width="2" points="184,-243.4323 184,-311.4323 "/>
<text text-anchor="middle" x="195" y="-274.3323" font-family="Arial" font-size="12.00" fill="#000000">0</text>
</g>
<!-- ugen_4 -->
<g id="node5" class="node">
<title>ugen_4</title>
<path fill="#bcd2ee" stroke="#000000" stroke-width="2" d="M290,-267.9323C290,-267.9323 395,-267.9323 395,-267.9323 401,-267.9323 407,-273.9323 407,-279.9323 407,-279.9323 407,-386.9323 407,-386.9323 407,-392.9323 401,-398.9323 395,-398.9323 395,-398.9323 290,-398.9323 290,-398.9323 284,-398.9323 278,-392.9323 278,-386.9323 278,-386.9323 278,-279.9323 278,-279.9323 278,-273.9323 284,-267.9323 290,-267.9323"/>
<text text-anchor="middle" x="342.5" y="-385.3323" font-family="Arial" font-size="12.00" fill="#000000">AllpassC</text>
<text text-anchor="middle" x="342.5" y="-372.3323" font-family="Arial" font-size="12.00" fill="#000000">(audio)</text>
<polyline fill="none" stroke="#000000" stroke-width="2" points="278,-364.9323 407,-364.9323 "/>
<text text-anchor="middle" x="331.5" y="-351.3323" font-family="Arial" font-size="12.00" fill="#000000">source</text>
<polyline fill="none" stroke="#000000" stroke-width="2" points="278,-343.9323 385,-343.9323 "/>
<text text-anchor="middle" x="331.5" y="-330.3323" font-family="Arial" font-size="12.00" fill="#000000">maximum_delay_time:</text>
<text text-anchor="middle" x="331.5" y="-317.3323" font-family="Arial" font-size="12.00" fill="#000000">0.1</text>
<polyline fill="none" stroke="#000000" stroke-width="2" points="278,-309.9323 385,-309.9323 "/>
<text text-anchor="middle" x="331.5" y="-296.3323" font-family="Arial" font-size="12.00" fill="#000000">delay_time</text>
<polyline fill="none" stroke="#000000" stroke-width="2" points="278,-288.9323 385,-288.9323 "/>
<text text-anchor="middle" x="331.5" y="-275.3323" font-family="Arial" font-size="12.00" fill="#000000">decay_time</text>
<polyline fill="none" stroke="#000000" stroke-width="2" points="385,-267.9323 385,-364.9323 "/>
<text text-anchor="middle" x="396" y="-313.3323" font-family="Arial" font-size="12.00" fill="#000000">0</text>
</g>
<!-- ugen_5 -->
<g id="node6" class="node">
<title>ugen_5</title>
<path fill="#ee9572" stroke="#000000" stroke-width="2" d="M314.5,-25.4323C314.5,-25.4323 370.5,-25.4323 370.5,-25.4323 376.5,-25.4323 382.5,-31.4323 382.5,-37.4323 382.5,-37.4323 382.5,-115.4323 382.5,-115.4323 382.5,-121.4323 376.5,-127.4323 370.5,-127.4323 370.5,-127.4323 314.5,-127.4323 314.5,-127.4323 308.5,-127.4323 302.5,-121.4323 302.5,-115.4323 302.5,-115.4323 302.5,-37.4323 302.5,-37.4323 302.5,-31.4323 308.5,-25.4323 314.5,-25.4323"/>
<text text-anchor="middle" x="342.5" y="-113.8323" font-family="Arial" font-size="12.00" fill="#000000">ExpRand</text>
<text text-anchor="middle" x="342.5" y="-100.8323" font-family="Arial" font-size="12.00" fill="#000000">(scalar)</text>
<polyline fill="none" stroke="#000000" stroke-width="2" points="302.5,-93.4323 382.5,-93.4323 "/>
<text text-anchor="middle" x="331.5" y="-79.8323" font-family="Arial" font-size="12.00" fill="#000000">minimum:</text>
<text text-anchor="middle" x="331.5" y="-66.8323" font-family="Arial" font-size="12.00" fill="#000000">0.01</text>
<polyline fill="none" stroke="#000000" stroke-width="2" points="302.5,-59.4323 360.5,-59.4323 "/>
<text text-anchor="middle" x="331.5" y="-45.8323" font-family="Arial" font-size="12.00" fill="#000000">maximum:</text>
<text text-anchor="middle" x="331.5" y="-32.8323" font-family="Arial" font-size="12.00" fill="#000000">0.1</text>
<polyline fill="none" stroke="#000000" stroke-width="2" points="360.5,-25.4323 360.5,-93.4323 "/>
<text text-anchor="middle" x="371.5" y="-56.3323" font-family="Arial" font-size="12.00" fill="#000000">0</text>
</g>
<!-- ugen_6 -->
<g id="node7" class="node">
<title>ugen_6</title>
<path fill="#ee9572" stroke="#000000" stroke-width="2" d="M314.5,-146.4323C314.5,-146.4323 370.5,-146.4323 370.5,-146.4323 376.5,-146.4323 382.5,-152.4323 382.5,-158.4323 382.5,-158.4323 382.5,-236.4323 382.5,-236.4323 382.5,-242.4323 376.5,-248.4323 370.5,-248.4323 370.5,-248.4323 314.5,-248.4323 314.5,-248.4323 308.5,-248.4323 302.5,-242.4323 302.5,-236.4323 302.5,-236.4323 302.5,-158.4323 302.5,-158.4323 302.5,-152.4323 308.5,-146.4323 314.5,-146.4323"/>
<text text-anchor="middle" x="342.5" y="-234.8323" font-family="Arial" font-size="12.00" fill="#000000">ExpRand</text>
<text text-anchor="middle" x="342.5" y="-221.8323" font-family="Arial" font-size="12.00" fill="#000000">(scalar)</text>
<polyline fill="none" stroke="#000000" stroke-width="2" points="302.5,-214.4323 382.5,-214.4323 "/>
<text text-anchor="middle" x="331.5" y="-200.8323" font-family="Arial" font-size="12.00" fill="#000000">minimum:</text>
<text text-anchor="middle" x="331.5" y="-187.8323" font-family="Arial" font-size="12.00" fill="#000000">0.01</text>
<polyline fill="none" stroke="#000000" stroke-width="2" points="302.5,-180.4323 360.5,-180.4323 "/>
<text text-anchor="middle" x="331.5" y="-166.8323" font-family="Arial" font-size="12.00" fill="#000000">maximum:</text>
<text text-anchor="middle" x="331.5" y="-153.8323" font-family="Arial" font-size="12.00" fill="#000000">0.1</text>
<polyline fill="none" stroke="#000000" stroke-width="2" points="360.5,-146.4323 360.5,-214.4323 "/>
<text text-anchor="middle" x="371.5" y="-177.3323" font-family="Arial" font-size="12.00" fill="#000000">0</text>
</g>
<!-- ugen_7 -->
<g id="node8" class="node">
<title>ugen_7</title>
<path fill="#bcd2ee" stroke="#000000" stroke-width="2" d="M491,-98.9323C491,-98.9323 596,-98.9323 596,-98.9323 602,-98.9323 608,-104.9323 608,-110.9323 608,-110.9323 608,-217.9323 608,-217.9323 608,-223.9323 602,-229.9323 596,-229.9323 596,-229.9323 491,-229.9323 491,-229.9323 485,-229.9323 479,-223.9323 479,-217.9323 479,-217.9323 479,-110.9323 479,-110.9323 479,-104.9323 485,-98.9323 491,-98.9323"/>
<text text-anchor="middle" x="543.5" y="-216.3323" font-family="Arial" font-size="12.00" fill="#000000">AllpassC</text>
<text text-anchor="middle" x="543.5" y="-203.3323" font-family="Arial" font-size="12.00" fill="#000000">(audio)</text>
<polyline fill="none" stroke="#000000" stroke-width="2" points="479,-195.9323 608,-195.9323 "/>
<text text-anchor="middle" x="532.5" y="-182.3323" font-family="Arial" font-size="12.00" fill="#000000">source</text>
<polyline fill="none" stroke="#000000" stroke-width="2" points="479,-174.9323 586,-174.9323 "/>
<text text-anchor="middle" x="532.5" y="-161.3323" font-family="Arial" font-size="12.00" fill="#000000">maximum_delay_time:</text>
<text text-anchor="middle" x="532.5" y="-148.3323" font-family="Arial" font-size="12.00" fill="#000000">0.1</text>
<polyline fill="none" stroke="#000000" stroke-width="2" points="479,-140.9323 586,-140.9323 "/>
<text text-anchor="middle" x="532.5" y="-127.3323" font-family="Arial" font-size="12.00" fill="#000000">delay_time</text>
<polyline fill="none" stroke="#000000" stroke-width="2" points="479,-119.9323 586,-119.9323 "/>
<text text-anchor="middle" x="532.5" y="-106.3323" font-family="Arial" font-size="12.00" fill="#000000">decay_time</text>
<polyline fill="none" stroke="#000000" stroke-width="2" points="586,-98.9323 586,-195.9323 "/>
<text text-anchor="middle" x="597" y="-144.3323" font-family="Arial" font-size="12.00" fill="#000000">0</text>
</g>
<!-- ugen_8 -->
<g id="node9" class="node">
<title>ugen_8</title>
<path fill="#bcd2ee" stroke="#000000" stroke-width="2" d="M692,-26.4323C692,-26.4323 722,-26.4323 722,-26.4323 728,-26.4323 734,-32.4323 734,-38.4323 734,-38.4323 734,-90.4323 734,-90.4323 734,-96.4323 728,-102.4323 722,-102.4323 722,-102.4323 692,-102.4323 692,-102.4323 686,-102.4323 680,-96.4323 680,-90.4323 680,-90.4323 680,-38.4323 680,-38.4323 680,-32.4323 686,-26.4323 692,-26.4323"/>
<text text-anchor="middle" x="707" y="-88.8323" font-family="Arial" font-size="12.00" fill="#000000">Out</text>
<text text-anchor="middle" x="707" y="-75.8323" font-family="Arial" font-size="12.00" fill="#000000">(audio)</text>
<polyline fill="none" stroke="#000000" stroke-width="2" points="680,-68.4323 734,-68.4323 "/>
<text text-anchor="middle" x="707" y="-54.8323" font-family="Arial" font-size="12.00" fill="#000000">bus</text>
<polyline fill="none" stroke="#000000" stroke-width="2" points="680,-47.4323 734,-47.4323 "/>
<text text-anchor="middle" x="707" y="-33.8323" font-family="Arial" font-size="12.00" fill="#000000">source</text>
</g>
</g>
</svg>
