<?xml version="1.0" encoding="UTF-8" standalone="no"?>
<!DOCTYPE svg PUBLIC "-//W3C//DTD SVG 1.1//EN"
 "http://www.w3.org/Graphics/SVG/1.1/DTD/svg11.dtd">
<!-- Generated by graphviz version 2.40.1 (20161225.0304)
 -->
<!-- Title: synthdef_6bbbeac53a3cf6df96ca1afd9af3fa95 Pages: 1 -->
<svg width="894pt" height="475pt"
 viewBox="0.00 0.00 894.00 475.00" xmlns="http://www.w3.org/2000/svg" xmlns:xlink="http://www.w3.org/1999/xlink">
<g id="graph0" class="graph" transform="scale(1 1) rotate(0) translate(4 471)">
<title>synthdef_6bbbeac53a3cf6df96ca1afd9af3fa95</title>
<!-- ugen_0&#45;&gt;ugen_1 -->
<g id="edge1" class="edge">
<title>ugen_0:e&#45;&gt;ugen_1:w</title>
<path fill="none" stroke="#fa8072" stroke-width="2" d="M54,-415.5C88.8168,-415.5 93.7072,-386.1879 122.6789,-380.4629"/>
<polygon fill="#fa8072" stroke="#fa8072" stroke-width="2" points="123.3684,-383.9139 133,-379.5 122.7181,-376.9441 123.3684,-383.9139"/>
</g>
<!-- ugen_0&#45;&gt;ugen_10 -->
<g id="edge2" class="edge">
<title>ugen_0:e&#45;&gt;ugen_10:w</title>
<path fill="none" stroke="#fa8072" stroke-width="2" d="M54,-415.5C86.9848,-415.5 93.5194,-427.7547 126,-433.5 205.2148,-447.5118 225.5556,-452.5 306,-452.5 306,-452.5 306,-452.5 482.5,-452.5 634.4674,-452.5 669.0152,-389.4315 815.7079,-386.5984"/>
<polygon fill="#fa8072" stroke="#fa8072" stroke-width="2" points="816.0339,-390.0955 826,-386.5 815.967,-383.0959 816.0339,-390.0955"/>
</g>
<!-- ugen_1&#45;&gt;ugen_3 -->
<g id="edge3" class="edge">
<title>ugen_1:e&#45;&gt;ugen_3:w</title>
<path fill="none" stroke="#4682b4" stroke-width="2" d="M187,-379.5C219.3635,-379.5 229.0725,-369.0065 256.8343,-366.875"/>
<polygon fill="#4682b4" stroke="#4682b4" stroke-width="2" points="257.1359,-370.3664 267,-366.5 256.8777,-363.3712 257.1359,-370.3664"/>
</g>
<!-- ugen_2&#45;&gt;ugen_3 -->
<g id="edge4" class="edge">
<title>ugen_2:e&#45;&gt;ugen_3:w</title>
<path fill="none" stroke="#4682b4" stroke-width="2" d="M194,-298.5C228.8191,-298.5 228.8202,-336.7685 256.8389,-344.2429"/>
<polygon fill="#4682b4" stroke="#4682b4" stroke-width="2" points="256.6459,-347.7456 267,-345.5 257.5054,-340.7986 256.6459,-347.7456"/>
</g>
<!-- ugen_3&#45;&gt;ugen_6 -->
<g id="edge5" class="edge">
<title>ugen_3:e&#45;&gt;ugen_6:w</title>
<path fill="none" stroke="#4682b4" stroke-width="2" d="M345,-355.5C375.6739,-355.5 382.2955,-334.8765 407.708,-330.3651"/>
<polygon fill="#4682b4" stroke="#4682b4" stroke-width="2" points="408.3283,-333.8254 418,-329.5 407.742,-326.85 408.3283,-333.8254"/>
</g>
<!-- ugen_4&#45;&gt;ugen_6 -->
<g id="edge6" class="edge">
<title>ugen_4:e&#45;&gt;ugen_6:w</title>
<path fill="none" stroke="#fa8072" stroke-width="2" d="M346,-126.5C407.0825,-126.5 359.4643,-239.0532 407.8085,-252.243"/>
<polygon fill="#fa8072" stroke="#fa8072" stroke-width="2" points="407.6467,-255.7495 418,-253.5 408.5037,-248.8022 407.6467,-255.7495"/>
</g>
<!-- ugen_5&#45;&gt;ugen_6 -->
<g id="edge7" class="edge">
<title>ugen_5:e&#45;&gt;ugen_6:w</title>
<path fill="none" stroke="#fa8072" stroke-width="2" d="M346,-247.5C376.438,-247.5 382.6608,-268.9167 407.8017,-273.6017"/>
<polygon fill="#fa8072" stroke="#fa8072" stroke-width="2" points="407.7314,-277.1089 418,-274.5 408.3457,-270.1359 407.7314,-277.1089"/>
</g>
<!-- ugen_6&#45;&gt;ugen_9 -->
<g id="edge8" class="edge">
<title>ugen_6:e&#45;&gt;ugen_9:w</title>
<path fill="none" stroke="#4682b4" stroke-width="2" d="M547,-291.5C580.0846,-291.5 582.1136,-258.4052 608.89,-251.6828"/>
<polygon fill="#4682b4" stroke="#4682b4" stroke-width="2" points="609.4745,-255.1384 619,-250.5 608.661,-248.1858 609.4745,-255.1384"/>
</g>
<!-- ugen_7&#45;&gt;ugen_9 -->
<g id="edge9" class="edge">
<title>ugen_7:e&#45;&gt;ugen_9:w</title>
<path fill="none" stroke="#fa8072" stroke-width="2" d="M522.5,-34.5C594.3815,-34.5 548.4542,-161.1619 608.831,-173.5312"/>
<polygon fill="#fa8072" stroke="#fa8072" stroke-width="2" points="608.7131,-177.0358 619,-174.5 609.377,-170.0673 608.7131,-177.0358"/>
</g>
<!-- ugen_8&#45;&gt;ugen_9 -->
<g id="edge10" class="edge">
<title>ugen_8:e&#45;&gt;ugen_9:w</title>
<path fill="none" stroke="#fa8072" stroke-width="2" d="M522.5,-155.5C565.3003,-155.5 571.7419,-189.4941 608.8611,-194.8057"/>
<polygon fill="#fa8072" stroke="#fa8072" stroke-width="2" points="608.7842,-198.3086 619,-195.5 609.2625,-191.3249 608.7842,-198.3086"/>
</g>
<!-- ugen_9&#45;&gt;ugen_10 -->
<g id="edge11" class="edge">
<title>ugen_9:e&#45;&gt;ugen_10:w</title>
<path fill="none" stroke="#4682b4" stroke-width="2" d="M748,-212.5C820.5999,-212.5 756.6036,-350.9234 815.8641,-364.4413"/>
<polygon fill="#4682b4" stroke="#4682b4" stroke-width="2" points="815.6905,-367.9421 826,-365.5 816.4177,-360.98 815.6905,-367.9421"/>
</g>
<!-- ugen_9&#45;&gt;ugen_11 -->
<g id="edge12" class="edge">
<title>ugen_9:e&#45;&gt;ugen_11:w</title>
<path fill="none" stroke="#4682b4" stroke-width="2" d="M748,-212.5C776.375,-212.5 785.8795,-212.5 809.9792,-212.5"/>
<polygon fill="#4682b4" stroke="#4682b4" stroke-width="2" points="810,-216.0001 820,-212.5 810,-209.0001 810,-216.0001"/>
</g>
<!-- ugen_0 -->
<g id="node1" class="node">
<title>ugen_0</title>
<path fill="#ee9572" stroke="#000000" stroke-width="2" d="M12,-398.5C12,-398.5 42,-398.5 42,-398.5 48,-398.5 54,-404.5 54,-410.5 54,-410.5 54,-454.5 54,-454.5 54,-460.5 48,-466.5 42,-466.5 42,-466.5 12,-466.5 12,-466.5 6,-466.5 0,-460.5 0,-454.5 0,-454.5 0,-410.5 0,-410.5 0,-404.5 6,-398.5 12,-398.5"/>
<text text-anchor="middle" x="27" y="-452.9" font-family="Arial" font-size="12.00" fill="#000000">Control</text>
<text text-anchor="middle" x="27" y="-439.9" font-family="Arial" font-size="12.00" fill="#000000">(scalar)</text>
<polyline fill="none" stroke="#000000" stroke-width="2" points="0,-432.5 54,-432.5 "/>
<text text-anchor="middle" x="27" y="-418.9" font-family="Arial" font-size="12.00" fill="#000000">out:</text>
<text text-anchor="middle" x="27" y="-405.9" font-family="Arial" font-size="12.00" fill="#000000">0.0</text>
</g>
<!-- ugen_1 -->
<g id="node2" class="node">
<title>ugen_1</title>
<path fill="#bcd2ee" stroke="#000000" stroke-width="2" d="M145,-369C145,-369 175,-369 175,-369 181,-369 187,-375 187,-381 187,-381 187,-412 187,-412 187,-418 181,-424 175,-424 175,-424 145,-424 145,-424 139,-424 133,-418 133,-412 133,-412 133,-381 133,-381 133,-375 139,-369 145,-369"/>
<text text-anchor="middle" x="160" y="-410.4" font-family="Arial" font-size="12.00" fill="#000000">In</text>
<text text-anchor="middle" x="160" y="-397.4" font-family="Arial" font-size="12.00" fill="#000000">(audio)</text>
<polyline fill="none" stroke="#000000" stroke-width="2" points="133,-390 187,-390 "/>
<text text-anchor="middle" x="148.5" y="-376.4" font-family="Arial" font-size="12.00" fill="#000000">bus</text>
<polyline fill="none" stroke="#000000" stroke-width="2" points="164,-369 164,-390 "/>
<text text-anchor="middle" x="175.5" y="-376.4" font-family="Arial" font-size="12.00" fill="#000000">0</text>
</g>
<!-- ugen_10 -->
<g id="node3" class="node">
<title>ugen_10</title>
<path fill="#bcd2ee" stroke="#000000" stroke-width="2" d="M838,-355.5C838,-355.5 868,-355.5 868,-355.5 874,-355.5 880,-361.5 880,-367.5 880,-367.5 880,-419.5 880,-419.5 880,-425.5 874,-431.5 868,-431.5 868,-431.5 838,-431.5 838,-431.5 832,-431.5 826,-425.5 826,-419.5 826,-419.5 826,-367.5 826,-367.5 826,-361.5 832,-355.5 838,-355.5"/>
<text text-anchor="middle" x="853" y="-417.9" font-family="Arial" font-size="12.00" fill="#000000">Out</text>
<text text-anchor="middle" x="853" y="-404.9" font-family="Arial" font-size="12.00" fill="#000000">(audio)</text>
<polyline fill="none" stroke="#000000" stroke-width="2" points="826,-397.5 880,-397.5 "/>
<text text-anchor="middle" x="853" y="-383.9" font-family="Arial" font-size="12.00" fill="#000000">bus</text>
<polyline fill="none" stroke="#000000" stroke-width="2" points="826,-376.5 880,-376.5 "/>
<text text-anchor="middle" x="853" y="-362.9" font-family="Arial" font-size="12.00" fill="#000000">source</text>
</g>
<!-- ugen_11 -->
<g id="node4" class="node">
<title>ugen_11</title>
<path fill="#bcd2ee" stroke="#000000" stroke-width="2" d="M832,-202C832,-202 874,-202 874,-202 880,-202 886,-208 886,-214 886,-214 886,-245 886,-245 886,-251 880,-257 874,-257 874,-257 832,-257 832,-257 826,-257 820,-251 820,-245 820,-245 820,-214 820,-214 820,-208 826,-202 832,-202"/>
<text text-anchor="middle" x="853" y="-243.4" font-family="Arial" font-size="12.00" fill="#000000">LocalOut</text>
<text text-anchor="middle" x="853" y="-230.4" font-family="Arial" font-size="12.00" fill="#000000">(audio)</text>
<polyline fill="none" stroke="#000000" stroke-width="2" points="820,-223 886,-223 "/>
<text text-anchor="middle" x="842" y="-209.4" font-family="Arial" font-size="12.00" fill="#000000">source</text>
<polyline fill="none" stroke="#000000" stroke-width="2" points="864,-202 864,-223 "/>
<text text-anchor="middle" x="875" y="-209.4" font-family="Arial" font-size="12.00" fill="#000000">0</text>
</g>
<!-- ugen_2 -->
<g id="node5" class="node">
<title>ugen_2</title>
<path fill="#bcd2ee" stroke="#000000" stroke-width="2" d="M138,-281.5C138,-281.5 182,-281.5 182,-281.5 188,-281.5 194,-287.5 194,-293.5 194,-293.5 194,-337.5 194,-337.5 194,-343.5 188,-349.5 182,-349.5 182,-349.5 138,-349.5 138,-349.5 132,-349.5 126,-343.5 126,-337.5 126,-337.5 126,-293.5 126,-293.5 126,-287.5 132,-281.5 138,-281.5"/>
<text text-anchor="middle" x="160" y="-335.9" font-family="Arial" font-size="12.00" fill="#000000">LocalIn</text>
<text text-anchor="middle" x="160" y="-322.9" font-family="Arial" font-size="12.00" fill="#000000">(audio)</text>
<polyline fill="none" stroke="#000000" stroke-width="2" points="126,-315.5 194,-315.5 "/>
<text text-anchor="middle" x="149" y="-301.9" font-family="Arial" font-size="12.00" fill="#000000">default:</text>
<text text-anchor="middle" x="149" y="-288.9" font-family="Arial" font-size="12.00" fill="#000000">0.0</text>
<polyline fill="none" stroke="#000000" stroke-width="2" points="172,-281.5 172,-315.5 "/>
<text text-anchor="middle" x="183" y="-295.4" font-family="Arial" font-size="12.00" fill="#000000">0</text>
</g>
<!-- ugen_3 -->
<g id="node6" class="node">
<title>ugen_3</title>
<path fill="#bcd2ee" stroke="#000000" stroke-width="2" d="M279,-335C279,-335 333,-335 333,-335 339,-335 345,-341 345,-347 345,-347 345,-412 345,-412 345,-418 339,-424 333,-424 333,-424 279,-424 279,-424 273,-424 267,-418 267,-412 267,-412 267,-347 267,-347 267,-341 273,-335 279,-335"/>
<text text-anchor="middle" x="306" y="-410.4" font-family="Arial" font-size="12.00" fill="#000000">BinaryOpUGen</text>
<text text-anchor="middle" x="306" y="-397.4" font-family="Arial" font-size="12.00" fill="#000000">[ADDITION]</text>
<text text-anchor="middle" x="306" y="-384.4" font-family="Arial" font-size="12.00" fill="#000000">(audio)</text>
<polyline fill="none" stroke="#000000" stroke-width="2" points="267,-377 345,-377 "/>
<text text-anchor="middle" x="289.5" y="-363.4" font-family="Arial" font-size="12.00" fill="#000000">left</text>
<polyline fill="none" stroke="#000000" stroke-width="2" points="267,-356 312,-356 "/>
<text text-anchor="middle" x="289.5" y="-342.4" font-family="Arial" font-size="12.00" fill="#000000">right</text>
<polyline fill="none" stroke="#000000" stroke-width="2" points="312,-335 312,-377 "/>
<text text-anchor="middle" x="328.5" y="-352.9" font-family="Arial" font-size="12.00" fill="#000000">0</text>
</g>
<!-- ugen_4 -->
<g id="node7" class="node">
<title>ugen_4</title>
<path fill="#ee9572" stroke="#000000" stroke-width="2" d="M278,-92.5C278,-92.5 334,-92.5 334,-92.5 340,-92.5 346,-98.5 346,-104.5 346,-104.5 346,-182.5 346,-182.5 346,-188.5 340,-194.5 334,-194.5 334,-194.5 278,-194.5 278,-194.5 272,-194.5 266,-188.5 266,-182.5 266,-182.5 266,-104.5 266,-104.5 266,-98.5 272,-92.5 278,-92.5"/>
<text text-anchor="middle" x="306" y="-180.9" font-family="Arial" font-size="12.00" fill="#000000">ExpRand</text>
<text text-anchor="middle" x="306" y="-167.9" font-family="Arial" font-size="12.00" fill="#000000">(scalar)</text>
<polyline fill="none" stroke="#000000" stroke-width="2" points="266,-160.5 346,-160.5 "/>
<text text-anchor="middle" x="295" y="-146.9" font-family="Arial" font-size="12.00" fill="#000000">minimum:</text>
<text text-anchor="middle" x="295" y="-133.9" font-family="Arial" font-size="12.00" fill="#000000">0.01</text>
<polyline fill="none" stroke="#000000" stroke-width="2" points="266,-126.5 324,-126.5 "/>
<text text-anchor="middle" x="295" y="-112.9" font-family="Arial" font-size="12.00" fill="#000000">maximum:</text>
<text text-anchor="middle" x="295" y="-99.9" font-family="Arial" font-size="12.00" fill="#000000">0.1</text>
<polyline fill="none" stroke="#000000" stroke-width="2" points="324,-92.5 324,-160.5 "/>
<text text-anchor="middle" x="335" y="-123.4" font-family="Arial" font-size="12.00" fill="#000000">0</text>
</g>
<!-- ugen_5 -->
<g id="node8" class="node">
<title>ugen_5</title>
<path fill="#ee9572" stroke="#000000" stroke-width="2" d="M278,-213.5C278,-213.5 334,-213.5 334,-213.5 340,-213.5 346,-219.5 346,-225.5 346,-225.5 346,-303.5 346,-303.5 346,-309.5 340,-315.5 334,-315.5 334,-315.5 278,-315.5 278,-315.5 272,-315.5 266,-309.5 266,-303.5 266,-303.5 266,-225.5 266,-225.5 266,-219.5 272,-213.5 278,-213.5"/>
<text text-anchor="middle" x="306" y="-301.9" font-family="Arial" font-size="12.00" fill="#000000">ExpRand</text>
<text text-anchor="middle" x="306" y="-288.9" font-family="Arial" font-size="12.00" fill="#000000">(scalar)</text>
<polyline fill="none" stroke="#000000" stroke-width="2" points="266,-281.5 346,-281.5 "/>
<text text-anchor="middle" x="295" y="-267.9" font-family="Arial" font-size="12.00" fill="#000000">minimum:</text>
<text text-anchor="middle" x="295" y="-254.9" font-family="Arial" font-size="12.00" fill="#000000">0.01</text>
<polyline fill="none" stroke="#000000" stroke-width="2" points="266,-247.5 324,-247.5 "/>
<text text-anchor="middle" x="295" y="-233.9" font-family="Arial" font-size="12.00" fill="#000000">maximum:</text>
<text text-anchor="middle" x="295" y="-220.9" font-family="Arial" font-size="12.00" fill="#000000">0.1</text>
<polyline fill="none" stroke="#000000" stroke-width="2" points="324,-213.5 324,-281.5 "/>
<text text-anchor="middle" x="335" y="-244.4" font-family="Arial" font-size="12.00" fill="#000000">0</text>
</g>
<!-- ugen_6 -->
<g id="node9" class="node">
<title>ugen_6</title>
<path fill="#bcd2ee" stroke="#000000" stroke-width="2" d="M430,-243C430,-243 535,-243 535,-243 541,-243 547,-249 547,-255 547,-255 547,-362 547,-362 547,-368 541,-374 535,-374 535,-374 430,-374 430,-374 424,-374 418,-368 418,-362 418,-362 418,-255 418,-255 418,-249 424,-243 430,-243"/>
<text text-anchor="middle" x="482.5" y="-360.4" font-family="Arial" font-size="12.00" fill="#000000">AllpassC</text>
<text text-anchor="middle" x="482.5" y="-347.4" font-family="Arial" font-size="12.00" fill="#000000">(audio)</text>
<polyline fill="none" stroke="#000000" stroke-width="2" points="418,-340 547,-340 "/>
<text text-anchor="middle" x="471.5" y="-326.4" font-family="Arial" font-size="12.00" fill="#000000">source</text>
<polyline fill="none" stroke="#000000" stroke-width="2" points="418,-319 525,-319 "/>
<text text-anchor="middle" x="471.5" y="-305.4" font-family="Arial" font-size="12.00" fill="#000000">maximum_delay_time:</text>
<text text-anchor="middle" x="471.5" y="-292.4" font-family="Arial" font-size="12.00" fill="#000000">0.1</text>
<polyline fill="none" stroke="#000000" stroke-width="2" points="418,-285 525,-285 "/>
<text text-anchor="middle" x="471.5" y="-271.4" font-family="Arial" font-size="12.00" fill="#000000">delay_time</text>
<polyline fill="none" stroke="#000000" stroke-width="2" points="418,-264 525,-264 "/>
<text text-anchor="middle" x="471.5" y="-250.4" font-family="Arial" font-size="12.00" fill="#000000">decay_time</text>
<polyline fill="none" stroke="#000000" stroke-width="2" points="525,-243 525,-340 "/>
<text text-anchor="middle" x="536" y="-288.4" font-family="Arial" font-size="12.00" fill="#000000">0</text>
</g>
<!-- ugen_7 -->
<g id="node10" class="node">
<title>ugen_7</title>
<path fill="#ee9572" stroke="#000000" stroke-width="2" d="M454.5,-.5C454.5,-.5 510.5,-.5 510.5,-.5 516.5,-.5 522.5,-6.5 522.5,-12.5 522.5,-12.5 522.5,-90.5 522.5,-90.5 522.5,-96.5 516.5,-102.5 510.5,-102.5 510.5,-102.5 454.5,-102.5 454.5,-102.5 448.5,-102.5 442.5,-96.5 442.5,-90.5 442.5,-90.5 442.5,-12.5 442.5,-12.5 442.5,-6.5 448.5,-.5 454.5,-.5"/>
<text text-anchor="middle" x="482.5" y="-88.9" font-family="Arial" font-size="12.00" fill="#000000">ExpRand</text>
<text text-anchor="middle" x="482.5" y="-75.9" font-family="Arial" font-size="12.00" fill="#000000">(scalar)</text>
<polyline fill="none" stroke="#000000" stroke-width="2" points="442.5,-68.5 522.5,-68.5 "/>
<text text-anchor="middle" x="471.5" y="-54.9" font-family="Arial" font-size="12.00" fill="#000000">minimum:</text>
<text text-anchor="middle" x="471.5" y="-41.9" font-family="Arial" font-size="12.00" fill="#000000">0.01</text>
<polyline fill="none" stroke="#000000" stroke-width="2" points="442.5,-34.5 500.5,-34.5 "/>
<text text-anchor="middle" x="471.5" y="-20.9" font-family="Arial" font-size="12.00" fill="#000000">maximum:</text>
<text text-anchor="middle" x="471.5" y="-7.9" font-family="Arial" font-size="12.00" fill="#000000">0.1</text>
<polyline fill="none" stroke="#000000" stroke-width="2" points="500.5,-.5 500.5,-68.5 "/>
<text text-anchor="middle" x="511.5" y="-31.4" font-family="Arial" font-size="12.00" fill="#000000">0</text>
</g>
<!-- ugen_8 -->
<g id="node11" class="node">
<title>ugen_8</title>
<path fill="#ee9572" stroke="#000000" stroke-width="2" d="M454.5,-121.5C454.5,-121.5 510.5,-121.5 510.5,-121.5 516.5,-121.5 522.5,-127.5 522.5,-133.5 522.5,-133.5 522.5,-211.5 522.5,-211.5 522.5,-217.5 516.5,-223.5 510.5,-223.5 510.5,-223.5 454.5,-223.5 454.5,-223.5 448.5,-223.5 442.5,-217.5 442.5,-211.5 442.5,-211.5 442.5,-133.5 442.5,-133.5 442.5,-127.5 448.5,-121.5 454.5,-121.5"/>
<text text-anchor="middle" x="482.5" y="-209.9" font-family="Arial" font-size="12.00" fill="#000000">ExpRand</text>
<text text-anchor="middle" x="482.5" y="-196.9" font-family="Arial" font-size="12.00" fill="#000000">(scalar)</text>
<polyline fill="none" stroke="#000000" stroke-width="2" points="442.5,-189.5 522.5,-189.5 "/>
<text text-anchor="middle" x="471.5" y="-175.9" font-family="Arial" font-size="12.00" fill="#000000">minimum:</text>
<text text-anchor="middle" x="471.5" y="-162.9" font-family="Arial" font-size="12.00" fill="#000000">0.01</text>
<polyline fill="none" stroke="#000000" stroke-width="2" points="442.5,-155.5 500.5,-155.5 "/>
<text text-anchor="middle" x="471.5" y="-141.9" font-family="Arial" font-size="12.00" fill="#000000">maximum:</text>
<text text-anchor="middle" x="471.5" y="-128.9" font-family="Arial" font-size="12.00" fill="#000000">0.1</text>
<polyline fill="none" stroke="#000000" stroke-width="2" points="500.5,-121.5 500.5,-189.5 "/>
<text text-anchor="middle" x="511.5" y="-152.4" font-family="Arial" font-size="12.00" fill="#000000">0</text>
</g>
<!-- ugen_9 -->
<g id="node12" class="node">
<title>ugen_9</title>
<path fill="#bcd2ee" stroke="#000000" stroke-width="2" d="M631,-164C631,-164 736,-164 736,-164 742,-164 748,-170 748,-176 748,-176 748,-283 748,-283 748,-289 742,-295 736,-295 736,-295 631,-295 631,-295 625,-295 619,-289 619,-283 619,-283 619,-176 619,-176 619,-170 625,-164 631,-164"/>
<text text-anchor="middle" x="683.5" y="-281.4" font-family="Arial" font-size="12.00" fill="#000000">AllpassC</text>
<text text-anchor="middle" x="683.5" y="-268.4" font-family="Arial" font-size="12.00" fill="#000000">(audio)</text>
<polyline fill="none" stroke="#000000" stroke-width="2" points="619,-261 748,-261 "/>
<text text-anchor="middle" x="672.5" y="-247.4" font-family="Arial" font-size="12.00" fill="#000000">source</text>
<polyline fill="none" stroke="#000000" stroke-width="2" points="619,-240 726,-240 "/>
<text text-anchor="middle" x="672.5" y="-226.4" font-family="Arial" font-size="12.00" fill="#000000">maximum_delay_time:</text>
<text text-anchor="middle" x="672.5" y="-213.4" font-family="Arial" font-size="12.00" fill="#000000">0.1</text>
<polyline fill="none" stroke="#000000" stroke-width="2" points="619,-206 726,-206 "/>
<text text-anchor="middle" x="672.5" y="-192.4" font-family="Arial" font-size="12.00" fill="#000000">delay_time</text>
<polyline fill="none" stroke="#000000" stroke-width="2" points="619,-185 726,-185 "/>
<text text-anchor="middle" x="672.5" y="-171.4" font-family="Arial" font-size="12.00" fill="#000000">decay_time</text>
<polyline fill="none" stroke="#000000" stroke-width="2" points="726,-164 726,-261 "/>
<text text-anchor="middle" x="737" y="-209.4" font-family="Arial" font-size="12.00" fill="#000000">0</text>
</g>
</g>
</svg>
