<?xml version="1.0" encoding="UTF-8" standalone="no"?>
<!DOCTYPE svg PUBLIC "-//W3C//DTD SVG 1.1//EN"
 "http://www.w3.org/Graphics/SVG/1.1/DTD/svg11.dtd">
<!-- Generated by graphviz version 2.40.1 (20161225.0304)
 -->
<!-- Title: synthdef_8bc96b58a52bebf76c1f5206d5ec376a Pages: 1 -->
<svg width="1144pt" height="602pt"
 viewBox="0.00 0.00 1144.00 602.00" xmlns="http://www.w3.org/2000/svg" xmlns:xlink="http://www.w3.org/1999/xlink">
<g id="graph0" class="graph" transform="scale(1 1) rotate(0) translate(4 598)">
<title>synthdef_8bc96b58a52bebf76c1f5206d5ec376a</title>
<!-- ugen_0&#45;&gt;ugen_1 -->
<g id="edge1" class="edge">
<title>ugen_0:e&#45;&gt;ugen_1:w</title>
<path fill="none" stroke="#fa8072" stroke-width="2" d="M54,-542.5C91.3404,-542.5 97.1367,-512.6782 128.809,-507.3196"/>
<polygon fill="#fa8072" stroke="#fa8072" stroke-width="2" points="129.3128,-510.7904 139,-506.5 128.7516,-503.813 129.3128,-510.7904"/>
</g>
<!-- ugen_0&#45;&gt;ugen_14 -->
<g id="edge2" class="edge">
<title>ugen_0:e&#45;&gt;ugen_14:w</title>
<path fill="none" stroke="#fa8072" stroke-width="2" d="M54,-542.5C86.9848,-542.5 93.47,-555.0413 126,-560.5 221.2602,-576.4852 245.9079,-579.5 342.5,-579.5 342.5,-579.5 342.5,-579.5 744.5,-579.5 913.7505,-579.5 909.4615,-394.3348 1071.5942,-386.7402"/>
<polygon fill="#fa8072" stroke="#fa8072" stroke-width="2" points="1072.0835,-390.2299 1082,-386.5 1071.9219,-383.2318 1072.0835,-390.2299"/>
</g>
<!-- ugen_1&#45;&gt;ugen_4 -->
<g id="edge3" class="edge">
<title>ugen_1:e&#45;&gt;ugen_4:w</title>
<path fill="none" stroke="#4682b4" stroke-width="2" d="M193,-506.5C228.2655,-506.5 237.4625,-489.2529 267.8401,-486.0191"/>
<polygon fill="#4682b4" stroke="#4682b4" stroke-width="2" points="268.1917,-489.5058 278,-485.5 267.8344,-482.5149 268.1917,-489.5058"/>
</g>
<!-- ugen_10&#45;&gt;ugen_13 -->
<g id="edge4" class="edge">
<title>ugen_10:e&#45;&gt;ugen_13:w</title>
<path fill="none" stroke="#4682b4" stroke-width="2" d="M809,-291.5C842.0846,-291.5 844.1136,-258.4052 870.89,-251.6828"/>
<polygon fill="#4682b4" stroke="#4682b4" stroke-width="2" points="871.4745,-255.1384 881,-250.5 870.661,-248.1858 871.4745,-255.1384"/>
</g>
<!-- ugen_11&#45;&gt;ugen_13 -->
<g id="edge5" class="edge">
<title>ugen_11:e&#45;&gt;ugen_13:w</title>
<path fill="none" stroke="#fa8072" stroke-width="2" d="M784.5,-34.5C856.3815,-34.5 810.4542,-161.1619 870.831,-173.5312"/>
<polygon fill="#fa8072" stroke="#fa8072" stroke-width="2" points="870.7131,-177.0358 881,-174.5 871.377,-170.0673 870.7131,-177.0358"/>
</g>
<!-- ugen_12&#45;&gt;ugen_13 -->
<g id="edge6" class="edge">
<title>ugen_12:e&#45;&gt;ugen_13:w</title>
<path fill="none" stroke="#fa8072" stroke-width="2" d="M784.5,-155.5C827.3003,-155.5 833.7419,-189.4941 870.8611,-194.8057"/>
<polygon fill="#fa8072" stroke="#fa8072" stroke-width="2" points="870.7842,-198.3086 881,-195.5 871.2625,-191.3249 870.7842,-198.3086"/>
</g>
<!-- ugen_13&#45;&gt;ugen_14 -->
<g id="edge7" class="edge">
<title>ugen_13:e&#45;&gt;ugen_14:w</title>
<path fill="none" stroke="#4682b4" stroke-width="2" d="M1010,-212.5C1081.4836,-212.5 1014.1281,-350.9234 1072.0531,-364.4413"/>
<polygon fill="#4682b4" stroke="#4682b4" stroke-width="2" points="1071.6857,-367.9219 1082,-365.5 1072.4266,-360.9612 1071.6857,-367.9219"/>
</g>
<!-- ugen_2&#45;&gt;ugen_4 -->
<g id="edge8" class="edge">
<title>ugen_2:e&#45;&gt;ugen_4:w</title>
<path fill="none" stroke="#fa8072" stroke-width="2" d="M206,-287.5C265.1486,-287.5 221.1404,-395.1738 267.7973,-408.2124"/>
<polygon fill="#fa8072" stroke="#fa8072" stroke-width="2" points="267.6404,-411.7203 278,-409.5 268.5169,-404.7754 267.6404,-411.7203"/>
</g>
<!-- ugen_3&#45;&gt;ugen_4 -->
<g id="edge9" class="edge">
<title>ugen_3:e&#45;&gt;ugen_4:w</title>
<path fill="none" stroke="#fa8072" stroke-width="2" d="M206,-408.5C235.8008,-408.5 243.0889,-425.9507 267.9651,-429.768"/>
<polygon fill="#fa8072" stroke="#fa8072" stroke-width="2" points="267.7718,-433.2631 278,-430.5 268.2812,-426.2817 267.7718,-433.2631"/>
</g>
<!-- ugen_4&#45;&gt;ugen_7 -->
<g id="edge10" class="edge">
<title>ugen_4:e&#45;&gt;ugen_7:w</title>
<path fill="none" stroke="#4682b4" stroke-width="2" d="M407,-447.5C439.8888,-447.5 442.2497,-415.2124 468.9375,-408.654"/>
<polygon fill="#4682b4" stroke="#4682b4" stroke-width="2" points="469.4639,-412.1166 479,-407.5 468.6663,-405.1622 469.4639,-412.1166"/>
</g>
<!-- ugen_5&#45;&gt;ugen_7 -->
<g id="edge11" class="edge">
<title>ugen_5:e&#45;&gt;ugen_7:w</title>
<path fill="none" stroke="#fa8072" stroke-width="2" d="M382.5,-190.5C454.73,-190.5 408.1568,-318.0666 468.7849,-330.5243"/>
<polygon fill="#fa8072" stroke="#fa8072" stroke-width="2" points="468.7125,-334.0332 479,-331.5 469.3781,-327.065 468.7125,-334.0332"/>
</g>
<!-- ugen_6&#45;&gt;ugen_7 -->
<g id="edge12" class="edge">
<title>ugen_6:e&#45;&gt;ugen_7:w</title>
<path fill="none" stroke="#fa8072" stroke-width="2" d="M382.5,-311.5C425.4588,-311.5 431.6205,-346.344 468.8298,-351.7884"/>
<polygon fill="#fa8072" stroke="#fa8072" stroke-width="2" points="468.7801,-355.2934 479,-352.5 469.2687,-348.3104 468.7801,-355.2934"/>
</g>
<!-- ugen_7&#45;&gt;ugen_10 -->
<g id="edge13" class="edge">
<title>ugen_7:e&#45;&gt;ugen_10:w</title>
<path fill="none" stroke="#4682b4" stroke-width="2" d="M608,-369.5C640.8888,-369.5 643.2497,-337.2124 669.9375,-330.654"/>
<polygon fill="#4682b4" stroke="#4682b4" stroke-width="2" points="670.4639,-334.1166 680,-329.5 669.6663,-327.1622 670.4639,-334.1166"/>
</g>
<!-- ugen_8&#45;&gt;ugen_10 -->
<g id="edge14" class="edge">
<title>ugen_8:e&#45;&gt;ugen_10:w</title>
<path fill="none" stroke="#fa8072" stroke-width="2" d="M583.5,-112.5C655.73,-112.5 609.1568,-240.0666 669.7849,-252.5243"/>
<polygon fill="#fa8072" stroke="#fa8072" stroke-width="2" points="669.7125,-256.0332 680,-253.5 670.3781,-249.065 669.7125,-256.0332"/>
</g>
<!-- ugen_9&#45;&gt;ugen_10 -->
<g id="edge15" class="edge">
<title>ugen_9:e&#45;&gt;ugen_10:w</title>
<path fill="none" stroke="#fa8072" stroke-width="2" d="M583.5,-233.5C626.4588,-233.5 632.6205,-268.344 669.8298,-273.7884"/>
<polygon fill="#fa8072" stroke="#fa8072" stroke-width="2" points="669.7801,-277.2934 680,-274.5 670.2687,-270.3104 669.7801,-277.2934"/>
</g>
<!-- ugen_0 -->
<g id="node1" class="node">
<title>ugen_0</title>
<path fill="#ee9572" stroke="#000000" stroke-width="2" d="M12,-525.5C12,-525.5 42,-525.5 42,-525.5 48,-525.5 54,-531.5 54,-537.5 54,-537.5 54,-581.5 54,-581.5 54,-587.5 48,-593.5 42,-593.5 42,-593.5 12,-593.5 12,-593.5 6,-593.5 0,-587.5 0,-581.5 0,-581.5 0,-537.5 0,-537.5 0,-531.5 6,-525.5 12,-525.5"/>
<text text-anchor="middle" x="27" y="-579.9" font-family="Arial" font-size="12.00" fill="#000000">Control</text>
<text text-anchor="middle" x="27" y="-566.9" font-family="Arial" font-size="12.00" fill="#000000">(scalar)</text>
<polyline fill="none" stroke="#000000" stroke-width="2" points="0,-559.5 54,-559.5 "/>
<text text-anchor="middle" x="27" y="-545.9" font-family="Arial" font-size="12.00" fill="#000000">out:</text>
<text text-anchor="middle" x="27" y="-532.9" font-family="Arial" font-size="12.00" fill="#000000">0.0</text>
</g>
<!-- ugen_1 -->
<g id="node2" class="node">
<title>ugen_1</title>
<path fill="#bcd2ee" stroke="#000000" stroke-width="2" d="M151,-496C151,-496 181,-496 181,-496 187,-496 193,-502 193,-508 193,-508 193,-539 193,-539 193,-545 187,-551 181,-551 181,-551 151,-551 151,-551 145,-551 139,-545 139,-539 139,-539 139,-508 139,-508 139,-502 145,-496 151,-496"/>
<text text-anchor="middle" x="166" y="-537.4" font-family="Arial" font-size="12.00" fill="#000000">In</text>
<text text-anchor="middle" x="166" y="-524.4" font-family="Arial" font-size="12.00" fill="#000000">(audio)</text>
<polyline fill="none" stroke="#000000" stroke-width="2" points="139,-517 193,-517 "/>
<text text-anchor="middle" x="154.5" y="-503.4" font-family="Arial" font-size="12.00" fill="#000000">bus</text>
<polyline fill="none" stroke="#000000" stroke-width="2" points="170,-496 170,-517 "/>
<text text-anchor="middle" x="181.5" y="-503.4" font-family="Arial" font-size="12.00" fill="#000000">0</text>
</g>
<!-- ugen_10 -->
<g id="node3" class="node">
<title>ugen_10</title>
<path fill="#bcd2ee" stroke="#000000" stroke-width="2" d="M692,-243C692,-243 797,-243 797,-243 803,-243 809,-249 809,-255 809,-255 809,-362 809,-362 809,-368 803,-374 797,-374 797,-374 692,-374 692,-374 686,-374 680,-368 680,-362 680,-362 680,-255 680,-255 680,-249 686,-243 692,-243"/>
<text text-anchor="middle" x="744.5" y="-360.4" font-family="Arial" font-size="12.00" fill="#000000">AllpassC</text>
<text text-anchor="middle" x="744.5" y="-347.4" font-family="Arial" font-size="12.00" fill="#000000">(audio)</text>
<polyline fill="none" stroke="#000000" stroke-width="2" points="680,-340 809,-340 "/>
<text text-anchor="middle" x="733.5" y="-326.4" font-family="Arial" font-size="12.00" fill="#000000">source</text>
<polyline fill="none" stroke="#000000" stroke-width="2" points="680,-319 787,-319 "/>
<text text-anchor="middle" x="733.5" y="-305.4" font-family="Arial" font-size="12.00" fill="#000000">maximum_delay_time:</text>
<text text-anchor="middle" x="733.5" y="-292.4" font-family="Arial" font-size="12.00" fill="#000000">0.1</text>
<polyline fill="none" stroke="#000000" stroke-width="2" points="680,-285 787,-285 "/>
<text text-anchor="middle" x="733.5" y="-271.4" font-family="Arial" font-size="12.00" fill="#000000">delay_time</text>
<polyline fill="none" stroke="#000000" stroke-width="2" points="680,-264 787,-264 "/>
<text text-anchor="middle" x="733.5" y="-250.4" font-family="Arial" font-size="12.00" fill="#000000">decay_time</text>
<polyline fill="none" stroke="#000000" stroke-width="2" points="787,-243 787,-340 "/>
<text text-anchor="middle" x="798" y="-288.4" font-family="Arial" font-size="12.00" fill="#000000">0</text>
</g>
<!-- ugen_11 -->
<g id="node4" class="node">
<title>ugen_11</title>
<path fill="#ee9572" stroke="#000000" stroke-width="2" d="M716.5,-.5C716.5,-.5 772.5,-.5 772.5,-.5 778.5,-.5 784.5,-6.5 784.5,-12.5 784.5,-12.5 784.5,-90.5 784.5,-90.5 784.5,-96.5 778.5,-102.5 772.5,-102.5 772.5,-102.5 716.5,-102.5 716.5,-102.5 710.5,-102.5 704.5,-96.5 704.5,-90.5 704.5,-90.5 704.5,-12.5 704.5,-12.5 704.5,-6.5 710.5,-.5 716.5,-.5"/>
<text text-anchor="middle" x="744.5" y="-88.9" font-family="Arial" font-size="12.00" fill="#000000">ExpRand</text>
<text text-anchor="middle" x="744.5" y="-75.9" font-family="Arial" font-size="12.00" fill="#000000">(scalar)</text>
<polyline fill="none" stroke="#000000" stroke-width="2" points="704.5,-68.5 784.5,-68.5 "/>
<text text-anchor="middle" x="733.5" y="-54.9" font-family="Arial" font-size="12.00" fill="#000000">minimum:</text>
<text text-anchor="middle" x="733.5" y="-41.9" font-family="Arial" font-size="12.00" fill="#000000">0.01</text>
<polyline fill="none" stroke="#000000" stroke-width="2" points="704.5,-34.5 762.5,-34.5 "/>
<text text-anchor="middle" x="733.5" y="-20.9" font-family="Arial" font-size="12.00" fill="#000000">maximum:</text>
<text text-anchor="middle" x="733.5" y="-7.9" font-family="Arial" font-size="12.00" fill="#000000">0.1</text>
<polyline fill="none" stroke="#000000" stroke-width="2" points="762.5,-.5 762.5,-68.5 "/>
<text text-anchor="middle" x="773.5" y="-31.4" font-family="Arial" font-size="12.00" fill="#000000">0</text>
</g>
<!-- ugen_12 -->
<g id="node5" class="node">
<title>ugen_12</title>
<path fill="#ee9572" stroke="#000000" stroke-width="2" d="M716.5,-121.5C716.5,-121.5 772.5,-121.5 772.5,-121.5 778.5,-121.5 784.5,-127.5 784.5,-133.5 784.5,-133.5 784.5,-211.5 784.5,-211.5 784.5,-217.5 778.5,-223.5 772.5,-223.5 772.5,-223.5 716.5,-223.5 716.5,-223.5 710.5,-223.5 704.5,-217.5 704.5,-211.5 704.5,-211.5 704.5,-133.5 704.5,-133.5 704.5,-127.5 710.5,-121.5 716.5,-121.5"/>
<text text-anchor="middle" x="744.5" y="-209.9" font-family="Arial" font-size="12.00" fill="#000000">ExpRand</text>
<text text-anchor="middle" x="744.5" y="-196.9" font-family="Arial" font-size="12.00" fill="#000000">(scalar)</text>
<polyline fill="none" stroke="#000000" stroke-width="2" points="704.5,-189.5 784.5,-189.5 "/>
<text text-anchor="middle" x="733.5" y="-175.9" font-family="Arial" font-size="12.00" fill="#000000">minimum:</text>
<text text-anchor="middle" x="733.5" y="-162.9" font-family="Arial" font-size="12.00" fill="#000000">0.01</text>
<polyline fill="none" stroke="#000000" stroke-width="2" points="704.5,-155.5 762.5,-155.5 "/>
<text text-anchor="middle" x="733.5" y="-141.9" font-family="Arial" font-size="12.00" fill="#000000">maximum:</text>
<text text-anchor="middle" x="733.5" y="-128.9" font-family="Arial" font-size="12.00" fill="#000000">0.1</text>
<polyline fill="none" stroke="#000000" stroke-width="2" points="762.5,-121.5 762.5,-189.5 "/>
<text text-anchor="middle" x="773.5" y="-152.4" font-family="Arial" font-size="12.00" fill="#000000">0</text>
</g>
<!-- ugen_13 -->
<g id="node6" class="node">
<title>ugen_13</title>
<path fill="#bcd2ee" stroke="#000000" stroke-width="2" d="M893,-164C893,-164 998,-164 998,-164 1004,-164 1010,-170 1010,-176 1010,-176 1010,-283 1010,-283 1010,-289 1004,-295 998,-295 998,-295 893,-295 893,-295 887,-295 881,-289 881,-283 881,-283 881,-176 881,-176 881,-170 887,-164 893,-164"/>
<text text-anchor="middle" x="945.5" y="-281.4" font-family="Arial" font-size="12.00" fill="#000000">AllpassC</text>
<text text-anchor="middle" x="945.5" y="-268.4" font-family="Arial" font-size="12.00" fill="#000000">(audio)</text>
<polyline fill="none" stroke="#000000" stroke-width="2" points="881,-261 1010,-261 "/>
<text text-anchor="middle" x="934.5" y="-247.4" font-family="Arial" font-size="12.00" fill="#000000">source</text>
<polyline fill="none" stroke="#000000" stroke-width="2" points="881,-240 988,-240 "/>
<text text-anchor="middle" x="934.5" y="-226.4" font-family="Arial" font-size="12.00" fill="#000000">maximum_delay_time:</text>
<text text-anchor="middle" x="934.5" y="-213.4" font-family="Arial" font-size="12.00" fill="#000000">0.1</text>
<polyline fill="none" stroke="#000000" stroke-width="2" points="881,-206 988,-206 "/>
<text text-anchor="middle" x="934.5" y="-192.4" font-family="Arial" font-size="12.00" fill="#000000">delay_time</text>
<polyline fill="none" stroke="#000000" stroke-width="2" points="881,-185 988,-185 "/>
<text text-anchor="middle" x="934.5" y="-171.4" font-family="Arial" font-size="12.00" fill="#000000">decay_time</text>
<polyline fill="none" stroke="#000000" stroke-width="2" points="988,-164 988,-261 "/>
<text text-anchor="middle" x="999" y="-209.4" font-family="Arial" font-size="12.00" fill="#000000">0</text>
</g>
<!-- ugen_14 -->
<g id="node7" class="node">
<title>ugen_14</title>
<path fill="#bcd2ee" stroke="#000000" stroke-width="2" d="M1094,-355.5C1094,-355.5 1124,-355.5 1124,-355.5 1130,-355.5 1136,-361.5 1136,-367.5 1136,-367.5 1136,-419.5 1136,-419.5 1136,-425.5 1130,-431.5 1124,-431.5 1124,-431.5 1094,-431.5 1094,-431.5 1088,-431.5 1082,-425.5 1082,-419.5 1082,-419.5 1082,-367.5 1082,-367.5 1082,-361.5 1088,-355.5 1094,-355.5"/>
<text text-anchor="middle" x="1109" y="-417.9" font-family="Arial" font-size="12.00" fill="#000000">Out</text>
<text text-anchor="middle" x="1109" y="-404.9" font-family="Arial" font-size="12.00" fill="#000000">(audio)</text>
<polyline fill="none" stroke="#000000" stroke-width="2" points="1082,-397.5 1136,-397.5 "/>
<text text-anchor="middle" x="1109" y="-383.9" font-family="Arial" font-size="12.00" fill="#000000">bus</text>
<polyline fill="none" stroke="#000000" stroke-width="2" points="1082,-376.5 1136,-376.5 "/>
<text text-anchor="middle" x="1109" y="-362.9" font-family="Arial" font-size="12.00" fill="#000000">source</text>
</g>
<!-- ugen_2 -->
<g id="node8" class="node">
<title>ugen_2</title>
<path fill="#ee9572" stroke="#000000" stroke-width="2" d="M138,-253.5C138,-253.5 194,-253.5 194,-253.5 200,-253.5 206,-259.5 206,-265.5 206,-265.5 206,-343.5 206,-343.5 206,-349.5 200,-355.5 194,-355.5 194,-355.5 138,-355.5 138,-355.5 132,-355.5 126,-349.5 126,-343.5 126,-343.5 126,-265.5 126,-265.5 126,-259.5 132,-253.5 138,-253.5"/>
<text text-anchor="middle" x="166" y="-341.9" font-family="Arial" font-size="12.00" fill="#000000">ExpRand</text>
<text text-anchor="middle" x="166" y="-328.9" font-family="Arial" font-size="12.00" fill="#000000">(scalar)</text>
<polyline fill="none" stroke="#000000" stroke-width="2" points="126,-321.5 206,-321.5 "/>
<text text-anchor="middle" x="155" y="-307.9" font-family="Arial" font-size="12.00" fill="#000000">minimum:</text>
<text text-anchor="middle" x="155" y="-294.9" font-family="Arial" font-size="12.00" fill="#000000">0.01</text>
<polyline fill="none" stroke="#000000" stroke-width="2" points="126,-287.5 184,-287.5 "/>
<text text-anchor="middle" x="155" y="-273.9" font-family="Arial" font-size="12.00" fill="#000000">maximum:</text>
<text text-anchor="middle" x="155" y="-260.9" font-family="Arial" font-size="12.00" fill="#000000">0.1</text>
<polyline fill="none" stroke="#000000" stroke-width="2" points="184,-253.5 184,-321.5 "/>
<text text-anchor="middle" x="195" y="-284.4" font-family="Arial" font-size="12.00" fill="#000000">0</text>
</g>
<!-- ugen_3 -->
<g id="node9" class="node">
<title>ugen_3</title>
<path fill="#ee9572" stroke="#000000" stroke-width="2" d="M138,-374.5C138,-374.5 194,-374.5 194,-374.5 200,-374.5 206,-380.5 206,-386.5 206,-386.5 206,-464.5 206,-464.5 206,-470.5 200,-476.5 194,-476.5 194,-476.5 138,-476.5 138,-476.5 132,-476.5 126,-470.5 126,-464.5 126,-464.5 126,-386.5 126,-386.5 126,-380.5 132,-374.5 138,-374.5"/>
<text text-anchor="middle" x="166" y="-462.9" font-family="Arial" font-size="12.00" fill="#000000">ExpRand</text>
<text text-anchor="middle" x="166" y="-449.9" font-family="Arial" font-size="12.00" fill="#000000">(scalar)</text>
<polyline fill="none" stroke="#000000" stroke-width="2" points="126,-442.5 206,-442.5 "/>
<text text-anchor="middle" x="155" y="-428.9" font-family="Arial" font-size="12.00" fill="#000000">minimum:</text>
<text text-anchor="middle" x="155" y="-415.9" font-family="Arial" font-size="12.00" fill="#000000">0.01</text>
<polyline fill="none" stroke="#000000" stroke-width="2" points="126,-408.5 184,-408.5 "/>
<text text-anchor="middle" x="155" y="-394.9" font-family="Arial" font-size="12.00" fill="#000000">maximum:</text>
<text text-anchor="middle" x="155" y="-381.9" font-family="Arial" font-size="12.00" fill="#000000">0.1</text>
<polyline fill="none" stroke="#000000" stroke-width="2" points="184,-374.5 184,-442.5 "/>
<text text-anchor="middle" x="195" y="-405.4" font-family="Arial" font-size="12.00" fill="#000000">0</text>
</g>
<!-- ugen_4 -->
<g id="node10" class="node">
<title>ugen_4</title>
<path fill="#bcd2ee" stroke="#000000" stroke-width="2" d="M290,-399C290,-399 395,-399 395,-399 401,-399 407,-405 407,-411 407,-411 407,-518 407,-518 407,-524 401,-530 395,-530 395,-530 290,-530 290,-530 284,-530 278,-524 278,-518 278,-518 278,-411 278,-411 278,-405 284,-399 290,-399"/>
<text text-anchor="middle" x="342.5" y="-516.4" font-family="Arial" font-size="12.00" fill="#000000">AllpassC</text>
<text text-anchor="middle" x="342.5" y="-503.4" font-family="Arial" font-size="12.00" fill="#000000">(audio)</text>
<polyline fill="none" stroke="#000000" stroke-width="2" points="278,-496 407,-496 "/>
<text text-anchor="middle" x="331.5" y="-482.4" font-family="Arial" font-size="12.00" fill="#000000">source</text>
<polyline fill="none" stroke="#000000" stroke-width="2" points="278,-475 385,-475 "/>
<text text-anchor="middle" x="331.5" y="-461.4" font-family="Arial" font-size="12.00" fill="#000000">maximum_delay_time:</text>
<text text-anchor="middle" x="331.5" y="-448.4" font-family="Arial" font-size="12.00" fill="#000000">0.1</text>
<polyline fill="none" stroke="#000000" stroke-width="2" points="278,-441 385,-441 "/>
<text text-anchor="middle" x="331.5" y="-427.4" font-family="Arial" font-size="12.00" fill="#000000">delay_time</text>
<polyline fill="none" stroke="#000000" stroke-width="2" points="278,-420 385,-420 "/>
<text text-anchor="middle" x="331.5" y="-406.4" font-family="Arial" font-size="12.00" fill="#000000">decay_time</text>
<polyline fill="none" stroke="#000000" stroke-width="2" points="385,-399 385,-496 "/>
<text text-anchor="middle" x="396" y="-444.4" font-family="Arial" font-size="12.00" fill="#000000">0</text>
</g>
<!-- ugen_5 -->
<g id="node11" class="node">
<title>ugen_5</title>
<path fill="#ee9572" stroke="#000000" stroke-width="2" d="M314.5,-156.5C314.5,-156.5 370.5,-156.5 370.5,-156.5 376.5,-156.5 382.5,-162.5 382.5,-168.5 382.5,-168.5 382.5,-246.5 382.5,-246.5 382.5,-252.5 376.5,-258.5 370.5,-258.5 370.5,-258.5 314.5,-258.5 314.5,-258.5 308.5,-258.5 302.5,-252.5 302.5,-246.5 302.5,-246.5 302.5,-168.5 302.5,-168.5 302.5,-162.5 308.5,-156.5 314.5,-156.5"/>
<text text-anchor="middle" x="342.5" y="-244.9" font-family="Arial" font-size="12.00" fill="#000000">ExpRand</text>
<text text-anchor="middle" x="342.5" y="-231.9" font-family="Arial" font-size="12.00" fill="#000000">(scalar)</text>
<polyline fill="none" stroke="#000000" stroke-width="2" points="302.5,-224.5 382.5,-224.5 "/>
<text text-anchor="middle" x="331.5" y="-210.9" font-family="Arial" font-size="12.00" fill="#000000">minimum:</text>
<text text-anchor="middle" x="331.5" y="-197.9" font-family="Arial" font-size="12.00" fill="#000000">0.01</text>
<polyline fill="none" stroke="#000000" stroke-width="2" points="302.5,-190.5 360.5,-190.5 "/>
<text text-anchor="middle" x="331.5" y="-176.9" font-family="Arial" font-size="12.00" fill="#000000">maximum:</text>
<text text-anchor="middle" x="331.5" y="-163.9" font-family="Arial" font-size="12.00" fill="#000000">0.1</text>
<polyline fill="none" stroke="#000000" stroke-width="2" points="360.5,-156.5 360.5,-224.5 "/>
<text text-anchor="middle" x="371.5" y="-187.4" font-family="Arial" font-size="12.00" fill="#000000">0</text>
</g>
<!-- ugen_6 -->
<g id="node12" class="node">
<title>ugen_6</title>
<path fill="#ee9572" stroke="#000000" stroke-width="2" d="M314.5,-277.5C314.5,-277.5 370.5,-277.5 370.5,-277.5 376.5,-277.5 382.5,-283.5 382.5,-289.5 382.5,-289.5 382.5,-367.5 382.5,-367.5 382.5,-373.5 376.5,-379.5 370.5,-379.5 370.5,-379.5 314.5,-379.5 314.5,-379.5 308.5,-379.5 302.5,-373.5 302.5,-367.5 302.5,-367.5 302.5,-289.5 302.5,-289.5 302.5,-283.5 308.5,-277.5 314.5,-277.5"/>
<text text-anchor="middle" x="342.5" y="-365.9" font-family="Arial" font-size="12.00" fill="#000000">ExpRand</text>
<text text-anchor="middle" x="342.5" y="-352.9" font-family="Arial" font-size="12.00" fill="#000000">(scalar)</text>
<polyline fill="none" stroke="#000000" stroke-width="2" points="302.5,-345.5 382.5,-345.5 "/>
<text text-anchor="middle" x="331.5" y="-331.9" font-family="Arial" font-size="12.00" fill="#000000">minimum:</text>
<text text-anchor="middle" x="331.5" y="-318.9" font-family="Arial" font-size="12.00" fill="#000000">0.01</text>
<polyline fill="none" stroke="#000000" stroke-width="2" points="302.5,-311.5 360.5,-311.5 "/>
<text text-anchor="middle" x="331.5" y="-297.9" font-family="Arial" font-size="12.00" fill="#000000">maximum:</text>
<text text-anchor="middle" x="331.5" y="-284.9" font-family="Arial" font-size="12.00" fill="#000000">0.1</text>
<polyline fill="none" stroke="#000000" stroke-width="2" points="360.5,-277.5 360.5,-345.5 "/>
<text text-anchor="middle" x="371.5" y="-308.4" font-family="Arial" font-size="12.00" fill="#000000">0</text>
</g>
<!-- ugen_7 -->
<g id="node13" class="node">
<title>ugen_7</title>
<path fill="#bcd2ee" stroke="#000000" stroke-width="2" d="M491,-321C491,-321 596,-321 596,-321 602,-321 608,-327 608,-333 608,-333 608,-440 608,-440 608,-446 602,-452 596,-452 596,-452 491,-452 491,-452 485,-452 479,-446 479,-440 479,-440 479,-333 479,-333 479,-327 485,-321 491,-321"/>
<text text-anchor="middle" x="543.5" y="-438.4" font-family="Arial" font-size="12.00" fill="#000000">AllpassC</text>
<text text-anchor="middle" x="543.5" y="-425.4" font-family="Arial" font-size="12.00" fill="#000000">(audio)</text>
<polyline fill="none" stroke="#000000" stroke-width="2" points="479,-418 608,-418 "/>
<text text-anchor="middle" x="532.5" y="-404.4" font-family="Arial" font-size="12.00" fill="#000000">source</text>
<polyline fill="none" stroke="#000000" stroke-width="2" points="479,-397 586,-397 "/>
<text text-anchor="middle" x="532.5" y="-383.4" font-family="Arial" font-size="12.00" fill="#000000">maximum_delay_time:</text>
<text text-anchor="middle" x="532.5" y="-370.4" font-family="Arial" font-size="12.00" fill="#000000">0.1</text>
<polyline fill="none" stroke="#000000" stroke-width="2" points="479,-363 586,-363 "/>
<text text-anchor="middle" x="532.5" y="-349.4" font-family="Arial" font-size="12.00" fill="#000000">delay_time</text>
<polyline fill="none" stroke="#000000" stroke-width="2" points="479,-342 586,-342 "/>
<text text-anchor="middle" x="532.5" y="-328.4" font-family="Arial" font-size="12.00" fill="#000000">decay_time</text>
<polyline fill="none" stroke="#000000" stroke-width="2" points="586,-321 586,-418 "/>
<text text-anchor="middle" x="597" y="-366.4" font-family="Arial" font-size="12.00" fill="#000000">0</text>
</g>
<!-- ugen_8 -->
<g id="node14" class="node">
<title>ugen_8</title>
<path fill="#ee9572" stroke="#000000" stroke-width="2" d="M515.5,-78.5C515.5,-78.5 571.5,-78.5 571.5,-78.5 577.5,-78.5 583.5,-84.5 583.5,-90.5 583.5,-90.5 583.5,-168.5 583.5,-168.5 583.5,-174.5 577.5,-180.5 571.5,-180.5 571.5,-180.5 515.5,-180.5 515.5,-180.5 509.5,-180.5 503.5,-174.5 503.5,-168.5 503.5,-168.5 503.5,-90.5 503.5,-90.5 503.5,-84.5 509.5,-78.5 515.5,-78.5"/>
<text text-anchor="middle" x="543.5" y="-166.9" font-family="Arial" font-size="12.00" fill="#000000">ExpRand</text>
<text text-anchor="middle" x="543.5" y="-153.9" font-family="Arial" font-size="12.00" fill="#000000">(scalar)</text>
<polyline fill="none" stroke="#000000" stroke-width="2" points="503.5,-146.5 583.5,-146.5 "/>
<text text-anchor="middle" x="532.5" y="-132.9" font-family="Arial" font-size="12.00" fill="#000000">minimum:</text>
<text text-anchor="middle" x="532.5" y="-119.9" font-family="Arial" font-size="12.00" fill="#000000">0.01</text>
<polyline fill="none" stroke="#000000" stroke-width="2" points="503.5,-112.5 561.5,-112.5 "/>
<text text-anchor="middle" x="532.5" y="-98.9" font-family="Arial" font-size="12.00" fill="#000000">maximum:</text>
<text text-anchor="middle" x="532.5" y="-85.9" font-family="Arial" font-size="12.00" fill="#000000">0.1</text>
<polyline fill="none" stroke="#000000" stroke-width="2" points="561.5,-78.5 561.5,-146.5 "/>
<text text-anchor="middle" x="572.5" y="-109.4" font-family="Arial" font-size="12.00" fill="#000000">0</text>
</g>
<!-- ugen_9 -->
<g id="node15" class="node">
<title>ugen_9</title>
<path fill="#ee9572" stroke="#000000" stroke-width="2" d="M515.5,-199.5C515.5,-199.5 571.5,-199.5 571.5,-199.5 577.5,-199.5 583.5,-205.5 583.5,-211.5 583.5,-211.5 583.5,-289.5 583.5,-289.5 583.5,-295.5 577.5,-301.5 571.5,-301.5 571.5,-301.5 515.5,-301.5 515.5,-301.5 509.5,-301.5 503.5,-295.5 503.5,-289.5 503.5,-289.5 503.5,-211.5 503.5,-211.5 503.5,-205.5 509.5,-199.5 515.5,-199.5"/>
<text text-anchor="middle" x="543.5" y="-287.9" font-family="Arial" font-size="12.00" fill="#000000">ExpRand</text>
<text text-anchor="middle" x="543.5" y="-274.9" font-family="Arial" font-size="12.00" fill="#000000">(scalar)</text>
<polyline fill="none" stroke="#000000" stroke-width="2" points="503.5,-267.5 583.5,-267.5 "/>
<text text-anchor="middle" x="532.5" y="-253.9" font-family="Arial" font-size="12.00" fill="#000000">minimum:</text>
<text text-anchor="middle" x="532.5" y="-240.9" font-family="Arial" font-size="12.00" fill="#000000">0.01</text>
<polyline fill="none" stroke="#000000" stroke-width="2" points="503.5,-233.5 561.5,-233.5 "/>
<text text-anchor="middle" x="532.5" y="-219.9" font-family="Arial" font-size="12.00" fill="#000000">maximum:</text>
<text text-anchor="middle" x="532.5" y="-206.9" font-family="Arial" font-size="12.00" fill="#000000">0.1</text>
<polyline fill="none" stroke="#000000" stroke-width="2" points="561.5,-199.5 561.5,-267.5 "/>
<text text-anchor="middle" x="572.5" y="-230.4" font-family="Arial" font-size="12.00" fill="#000000">0</text>
</g>
</g>
</svg>
