<?xml version="1.0" encoding="UTF-8" standalone="no"?>
<!DOCTYPE svg PUBLIC "-//W3C//DTD SVG 1.1//EN"
 "http://www.w3.org/Graphics/SVG/1.1/DTD/svg11.dtd">
<!-- Generated by graphviz version 2.49.1 (20210923.0004)
 -->
<!-- Title: synthdef_2386a4cef636d99392822c4841e78b43 Pages: 1 -->
<svg width="1015pt" height="446pt"
 viewBox="0.00 0.00 1015.00 446.00" xmlns="http://www.w3.org/2000/svg" xmlns:xlink="http://www.w3.org/1999/xlink">
<g id="graph0" class="graph" transform="scale(1 1) rotate(0) translate(4 442)">
<title>synthdef_2386a4cef636d99392822c4841e78b43</title>
<!-- ugen_0&#45;&gt;ugen_1 -->
<g id="edge1" class="edge">
<title>ugen_0:e&#45;&gt;ugen_1:w</title>
<path fill="none" stroke="salmon" stroke-width="2" d="M57,-386.5C95.81,-386.5 102.14,-356.42 135.36,-351.25"/>
<polygon fill="salmon" stroke="salmon" stroke-width="2" points="135.79,-354.73 145.5,-350.5 135.27,-347.75 135.79,-354.73"/>
</g>
<!-- ugen_0&#45;&gt;ugen_10 -->
<g id="edge2" class="edge">
<title>ugen_0:e&#45;&gt;ugen_10:w</title>
<path fill="none" stroke="salmon" stroke-width="2" d="M57,-386.5C89.98,-386.5 96.44,-399.21 129,-404.5 237.24,-422.08 265.34,-423.5 375,-423.5 375,-423.5 375,-423.5 609,-423.5 764.92,-423.5 792.51,-326.79 942.91,-322.64"/>
<polygon fill="salmon" stroke="salmon" stroke-width="2" points="943.05,-326.14 953,-322.5 942.95,-319.14 943.05,-326.14"/>
</g>
<!-- ugen_1&#45;&gt;ugen_5 -->
<g id="edge3" class="edge">
<title>ugen_1:e&#45;&gt;ugen_5:w</title>
<path fill="none" stroke="steelblue" stroke-width="2" d="M207.5,-350.5C244.29,-350.5 253.94,-333.1 285.85,-329.98"/>
<polygon fill="steelblue" stroke="steelblue" stroke-width="2" points="286.18,-333.47 296,-329.5 285.85,-326.47 286.18,-333.47"/>
</g>
<!-- ugen_2&#45;&gt;ugen_9 -->
<g id="edge4" class="edge">
<title>ugen_2:e&#45;&gt;ugen_9:w</title>
<path fill="none" stroke="goldenrod" stroke-width="2" d="M640,-93.5C705.23,-93.5 692.77,-181.44 749.8,-190.71"/>
<polygon fill="goldenrod" stroke="goldenrod" stroke-width="2" points="749.76,-194.22 760,-191.5 750.3,-187.24 749.76,-194.22"/>
</g>
<!-- ugen_3&#45;&gt;ugen_5 -->
<g id="edge5" class="edge">
<title>ugen_3:e&#45;&gt;ugen_5:w</title>
<path fill="none" stroke="salmon" stroke-width="2" d="M224,-131.5C283.15,-131.5 239.14,-239.17 285.8,-252.21"/>
<polygon fill="salmon" stroke="salmon" stroke-width="2" points="285.64,-255.72 296,-253.5 286.52,-248.78 285.64,-255.72"/>
</g>
<!-- ugen_4&#45;&gt;ugen_5 -->
<g id="edge6" class="edge">
<title>ugen_4:e&#45;&gt;ugen_5:w</title>
<path fill="none" stroke="salmon" stroke-width="2" d="M224,-252.5C253.8,-252.5 261.09,-269.95 285.97,-273.77"/>
<polygon fill="salmon" stroke="salmon" stroke-width="2" points="285.77,-277.26 296,-274.5 286.28,-270.28 285.77,-277.26"/>
</g>
<!-- ugen_5&#45;&gt;ugen_8 -->
<g id="edge7" class="edge">
<title>ugen_5:e&#45;&gt;ugen_8:w</title>
<path fill="none" stroke="steelblue" stroke-width="2" d="M456,-291.5C489.08,-291.5 491.11,-258.41 517.89,-251.68"/>
<polygon fill="steelblue" stroke="steelblue" stroke-width="2" points="518.47,-255.14 528,-250.5 517.66,-248.19 518.47,-255.14"/>
</g>
<!-- ugen_6&#45;&gt;ugen_8 -->
<g id="edge8" class="edge">
<title>ugen_6:e&#45;&gt;ugen_8:w</title>
<path fill="none" stroke="salmon" stroke-width="2" d="M425,-34.5C498.63,-34.5 455.3,-161.68 517.96,-173.61"/>
<polygon fill="salmon" stroke="salmon" stroke-width="2" points="517.73,-177.1 528,-174.5 518.35,-170.13 517.73,-177.1"/>
</g>
<!-- ugen_7&#45;&gt;ugen_8 -->
<g id="edge9" class="edge">
<title>ugen_7:e&#45;&gt;ugen_8:w</title>
<path fill="none" stroke="salmon" stroke-width="2" d="M425,-155.5C470.56,-155.5 477.97,-189.93 518.01,-194.9"/>
<polygon fill="salmon" stroke="salmon" stroke-width="2" points="517.81,-198.4 528,-195.5 518.23,-191.41 517.81,-198.4"/>
</g>
<!-- ugen_8&#45;&gt;ugen_9 -->
<g id="edge10" class="edge">
<title>ugen_8:e&#45;&gt;ugen_9:w</title>
<path fill="none" stroke="steelblue" stroke-width="2" d="M688,-212.5C716.38,-212.5 725.88,-212.5 749.98,-212.5"/>
<polygon fill="steelblue" stroke="steelblue" stroke-width="2" points="750,-216 760,-212.5 750,-209 750,-216"/>
</g>
<!-- ugen_9&#45;&gt;ugen_10 -->
<g id="edge11" class="edge">
<title>ugen_9:e&#45;&gt;ugen_10:w</title>
<path fill="none" stroke="steelblue" stroke-width="2" d="M881,-201.5C932.02,-201.5 902.93,-288.3 943,-300.16"/>
<polygon fill="steelblue" stroke="steelblue" stroke-width="2" points="942.62,-303.64 953,-301.5 943.55,-296.7 942.62,-303.64"/>
</g>
<!-- ugen_0 -->
<g id="node1" class="node">
<title>ugen_0</title>
<path fill="#ee9572" stroke="black" stroke-width="2" d="M12,-369.5C12,-369.5 45,-369.5 45,-369.5 51,-369.5 57,-375.5 57,-381.5 57,-381.5 57,-425.5 57,-425.5 57,-431.5 51,-437.5 45,-437.5 45,-437.5 12,-437.5 12,-437.5 6,-437.5 0,-431.5 0,-425.5 0,-425.5 0,-381.5 0,-381.5 0,-375.5 6,-369.5 12,-369.5"/>
<text text-anchor="middle" x="28.5" y="-423.9" font-family="Arial" font-size="12.00">Control</text>
<text text-anchor="middle" x="28.5" y="-410.9" font-family="Arial" font-size="12.00">(scalar)</text>
<polyline fill="none" stroke="black" stroke-width="2" points="0,-403.5 57,-403.5 "/>
<text text-anchor="middle" x="28.5" y="-389.9" font-family="Arial" font-size="12.00">out:</text>
<text text-anchor="middle" x="28.5" y="-376.9" font-family="Arial" font-size="12.00">0.0</text>
</g>
<!-- ugen_1 -->
<g id="node2" class="node">
<title>ugen_1</title>
<path fill="#bcd2ee" stroke="black" stroke-width="2" d="M159,-340C159,-340 194,-340 194,-340 200,-340 206,-346 206,-352 206,-352 206,-383 206,-383 206,-389 200,-395 194,-395 194,-395 159,-395 159,-395 153,-395 147,-389 147,-383 147,-383 147,-352 147,-352 147,-346 153,-340 159,-340"/>
<text text-anchor="middle" x="176.5" y="-381.4" font-family="Arial" font-size="12.00">In</text>
<text text-anchor="middle" x="176.5" y="-368.4" font-family="Arial" font-size="12.00">(audio)</text>
<polyline fill="none" stroke="black" stroke-width="2" points="147,-361 206,-361 "/>
<text text-anchor="middle" x="165" y="-347.4" font-family="Arial" font-size="12.00">bus</text>
<polyline fill="none" stroke="black" stroke-width="2" points="183,-340 183,-361 "/>
<text text-anchor="middle" x="194.5" y="-347.4" font-family="Arial" font-size="12.00">0</text>
</g>
<!-- ugen_10 -->
<g id="node3" class="node">
<title>ugen_10</title>
<path fill="#bcd2ee" stroke="black" stroke-width="2" d="M965,-291.5C965,-291.5 995,-291.5 995,-291.5 1001,-291.5 1007,-297.5 1007,-303.5 1007,-303.5 1007,-355.5 1007,-355.5 1007,-361.5 1001,-367.5 995,-367.5 995,-367.5 965,-367.5 965,-367.5 959,-367.5 953,-361.5 953,-355.5 953,-355.5 953,-303.5 953,-303.5 953,-297.5 959,-291.5 965,-291.5"/>
<text text-anchor="middle" x="980" y="-353.9" font-family="Arial" font-size="12.00">Out</text>
<text text-anchor="middle" x="980" y="-340.9" font-family="Arial" font-size="12.00">(audio)</text>
<polyline fill="none" stroke="black" stroke-width="2" points="953,-333.5 1007,-333.5 "/>
<text text-anchor="middle" x="980" y="-319.9" font-family="Arial" font-size="12.00">bus</text>
<polyline fill="none" stroke="black" stroke-width="2" points="953,-312.5 1007,-312.5 "/>
<text text-anchor="middle" x="980" y="-298.9" font-family="Arial" font-size="12.00">source</text>
</g>
<!-- ugen_2 -->
<g id="node4" class="node">
<title>ugen_2</title>
<path fill="#eedc82" stroke="black" stroke-width="2" d="M589.5,-76.5C589.5,-76.5 626.5,-76.5 626.5,-76.5 632.5,-76.5 638.5,-82.5 638.5,-88.5 638.5,-88.5 638.5,-132.5 638.5,-132.5 638.5,-138.5 632.5,-144.5 626.5,-144.5 626.5,-144.5 589.5,-144.5 589.5,-144.5 583.5,-144.5 577.5,-138.5 577.5,-132.5 577.5,-132.5 577.5,-88.5 577.5,-88.5 577.5,-82.5 583.5,-76.5 589.5,-76.5"/>
<text text-anchor="middle" x="608" y="-130.9" font-family="Arial" font-size="12.00">Control</text>
<text text-anchor="middle" x="608" y="-117.9" font-family="Arial" font-size="12.00">(control)</text>
<polyline fill="none" stroke="black" stroke-width="2" points="577.5,-110.5 638.5,-110.5 "/>
<text text-anchor="middle" x="608" y="-96.9" font-family="Arial" font-size="12.00">level:</text>
<text text-anchor="middle" x="608" y="-83.9" font-family="Arial" font-size="12.00">1.0</text>
</g>
<!-- ugen_3 -->
<g id="node5" class="node">
<title>ugen_3</title>
<path fill="#ee9572" stroke="black" stroke-width="2" d="M141,-97.5C141,-97.5 212,-97.5 212,-97.5 218,-97.5 224,-103.5 224,-109.5 224,-109.5 224,-187.5 224,-187.5 224,-193.5 218,-199.5 212,-199.5 212,-199.5 141,-199.5 141,-199.5 135,-199.5 129,-193.5 129,-187.5 129,-187.5 129,-109.5 129,-109.5 129,-103.5 135,-97.5 141,-97.5"/>
<text text-anchor="middle" x="176.5" y="-185.9" font-family="Arial" font-size="12.00">ExpRand</text>
<text text-anchor="middle" x="176.5" y="-172.9" font-family="Arial" font-size="12.00">(scalar)</text>
<polyline fill="none" stroke="black" stroke-width="2" points="129,-165.5 224,-165.5 "/>
<text text-anchor="middle" x="165" y="-151.9" font-family="Arial" font-size="12.00">minimum:</text>
<text text-anchor="middle" x="165" y="-138.9" font-family="Arial" font-size="12.00">0.01</text>
<polyline fill="none" stroke="black" stroke-width="2" points="129,-131.5 201,-131.5 "/>
<text text-anchor="middle" x="165" y="-117.9" font-family="Arial" font-size="12.00">maximum:</text>
<text text-anchor="middle" x="165" y="-104.9" font-family="Arial" font-size="12.00">0.1</text>
<polyline fill="none" stroke="black" stroke-width="2" points="201,-97.5 201,-165.5 "/>
<text text-anchor="middle" x="212.5" y="-128.4" font-family="Arial" font-size="12.00">0</text>
</g>
<!-- ugen_4 -->
<g id="node6" class="node">
<title>ugen_4</title>
<path fill="#ee9572" stroke="black" stroke-width="2" d="M141,-218.5C141,-218.5 212,-218.5 212,-218.5 218,-218.5 224,-224.5 224,-230.5 224,-230.5 224,-308.5 224,-308.5 224,-314.5 218,-320.5 212,-320.5 212,-320.5 141,-320.5 141,-320.5 135,-320.5 129,-314.5 129,-308.5 129,-308.5 129,-230.5 129,-230.5 129,-224.5 135,-218.5 141,-218.5"/>
<text text-anchor="middle" x="176.5" y="-306.9" font-family="Arial" font-size="12.00">ExpRand</text>
<text text-anchor="middle" x="176.5" y="-293.9" font-family="Arial" font-size="12.00">(scalar)</text>
<polyline fill="none" stroke="black" stroke-width="2" points="129,-286.5 224,-286.5 "/>
<text text-anchor="middle" x="165" y="-272.9" font-family="Arial" font-size="12.00">minimum:</text>
<text text-anchor="middle" x="165" y="-259.9" font-family="Arial" font-size="12.00">0.01</text>
<polyline fill="none" stroke="black" stroke-width="2" points="129,-252.5 201,-252.5 "/>
<text text-anchor="middle" x="165" y="-238.9" font-family="Arial" font-size="12.00">maximum:</text>
<text text-anchor="middle" x="165" y="-225.9" font-family="Arial" font-size="12.00">0.1</text>
<polyline fill="none" stroke="black" stroke-width="2" points="201,-218.5 201,-286.5 "/>
<text text-anchor="middle" x="212.5" y="-249.4" font-family="Arial" font-size="12.00">0</text>
</g>
<!-- ugen_5 -->
<g id="node7" class="node">
<title>ugen_5</title>
<path fill="#bcd2ee" stroke="black" stroke-width="2" d="M308,-243C308,-243 444,-243 444,-243 450,-243 456,-249 456,-255 456,-255 456,-362 456,-362 456,-368 450,-374 444,-374 444,-374 308,-374 308,-374 302,-374 296,-368 296,-362 296,-362 296,-255 296,-255 296,-249 302,-243 308,-243"/>
<text text-anchor="middle" x="376" y="-360.4" font-family="Arial" font-size="12.00">AllpassC</text>
<text text-anchor="middle" x="376" y="-347.4" font-family="Arial" font-size="12.00">(audio)</text>
<polyline fill="none" stroke="black" stroke-width="2" points="296,-340 456,-340 "/>
<text text-anchor="middle" x="364.5" y="-326.4" font-family="Arial" font-size="12.00">source</text>
<polyline fill="none" stroke="black" stroke-width="2" points="296,-319 433,-319 "/>
<text text-anchor="middle" x="364.5" y="-305.4" font-family="Arial" font-size="12.00">maximum_delay_time:</text>
<text text-anchor="middle" x="364.5" y="-292.4" font-family="Arial" font-size="12.00">0.1</text>
<polyline fill="none" stroke="black" stroke-width="2" points="296,-285 433,-285 "/>
<text text-anchor="middle" x="364.5" y="-271.4" font-family="Arial" font-size="12.00">delay_time</text>
<polyline fill="none" stroke="black" stroke-width="2" points="296,-264 433,-264 "/>
<text text-anchor="middle" x="364.5" y="-250.4" font-family="Arial" font-size="12.00">decay_time</text>
<polyline fill="none" stroke="black" stroke-width="2" points="433,-243 433,-340 "/>
<text text-anchor="middle" x="444.5" y="-288.4" font-family="Arial" font-size="12.00">0</text>
</g>
<!-- ugen_6 -->
<g id="node8" class="node">
<title>ugen_6</title>
<path fill="#ee9572" stroke="black" stroke-width="2" d="M340.5,-0.5C340.5,-0.5 411.5,-0.5 411.5,-0.5 417.5,-0.5 423.5,-6.5 423.5,-12.5 423.5,-12.5 423.5,-90.5 423.5,-90.5 423.5,-96.5 417.5,-102.5 411.5,-102.5 411.5,-102.5 340.5,-102.5 340.5,-102.5 334.5,-102.5 328.5,-96.5 328.5,-90.5 328.5,-90.5 328.5,-12.5 328.5,-12.5 328.5,-6.5 334.5,-0.5 340.5,-0.5"/>
<text text-anchor="middle" x="376" y="-88.9" font-family="Arial" font-size="12.00">ExpRand</text>
<text text-anchor="middle" x="376" y="-75.9" font-family="Arial" font-size="12.00">(scalar)</text>
<polyline fill="none" stroke="black" stroke-width="2" points="328.5,-68.5 423.5,-68.5 "/>
<text text-anchor="middle" x="364.5" y="-54.9" font-family="Arial" font-size="12.00">minimum:</text>
<text text-anchor="middle" x="364.5" y="-41.9" font-family="Arial" font-size="12.00">0.01</text>
<polyline fill="none" stroke="black" stroke-width="2" points="328.5,-34.5 400.5,-34.5 "/>
<text text-anchor="middle" x="364.5" y="-20.9" font-family="Arial" font-size="12.00">maximum:</text>
<text text-anchor="middle" x="364.5" y="-7.9" font-family="Arial" font-size="12.00">0.1</text>
<polyline fill="none" stroke="black" stroke-width="2" points="400.5,-0.5 400.5,-68.5 "/>
<text text-anchor="middle" x="412" y="-31.4" font-family="Arial" font-size="12.00">0</text>
</g>
<!-- ugen_7 -->
<g id="node9" class="node">
<title>ugen_7</title>
<path fill="#ee9572" stroke="black" stroke-width="2" d="M340.5,-121.5C340.5,-121.5 411.5,-121.5 411.5,-121.5 417.5,-121.5 423.5,-127.5 423.5,-133.5 423.5,-133.5 423.5,-211.5 423.5,-211.5 423.5,-217.5 417.5,-223.5 411.5,-223.5 411.5,-223.5 340.5,-223.5 340.5,-223.5 334.5,-223.5 328.5,-217.5 328.5,-211.5 328.5,-211.5 328.5,-133.5 328.5,-133.5 328.5,-127.5 334.5,-121.5 340.5,-121.5"/>
<text text-anchor="middle" x="376" y="-209.9" font-family="Arial" font-size="12.00">ExpRand</text>
<text text-anchor="middle" x="376" y="-196.9" font-family="Arial" font-size="12.00">(scalar)</text>
<polyline fill="none" stroke="black" stroke-width="2" points="328.5,-189.5 423.5,-189.5 "/>
<text text-anchor="middle" x="364.5" y="-175.9" font-family="Arial" font-size="12.00">minimum:</text>
<text text-anchor="middle" x="364.5" y="-162.9" font-family="Arial" font-size="12.00">0.01</text>
<polyline fill="none" stroke="black" stroke-width="2" points="328.5,-155.5 400.5,-155.5 "/>
<text text-anchor="middle" x="364.5" y="-141.9" font-family="Arial" font-size="12.00">maximum:</text>
<text text-anchor="middle" x="364.5" y="-128.9" font-family="Arial" font-size="12.00">0.1</text>
<polyline fill="none" stroke="black" stroke-width="2" points="400.5,-121.5 400.5,-189.5 "/>
<text text-anchor="middle" x="412" y="-152.4" font-family="Arial" font-size="12.00">0</text>
</g>
<!-- ugen_8 -->
<g id="node10" class="node">
<title>ugen_8</title>
<path fill="#bcd2ee" stroke="black" stroke-width="2" d="M540,-164C540,-164 676,-164 676,-164 682,-164 688,-170 688,-176 688,-176 688,-283 688,-283 688,-289 682,-295 676,-295 676,-295 540,-295 540,-295 534,-295 528,-289 528,-283 528,-283 528,-176 528,-176 528,-170 534,-164 540,-164"/>
<text text-anchor="middle" x="608" y="-281.4" font-family="Arial" font-size="12.00">AllpassC</text>
<text text-anchor="middle" x="608" y="-268.4" font-family="Arial" font-size="12.00">(audio)</text>
<polyline fill="none" stroke="black" stroke-width="2" points="528,-261 688,-261 "/>
<text text-anchor="middle" x="596.5" y="-247.4" font-family="Arial" font-size="12.00">source</text>
<polyline fill="none" stroke="black" stroke-width="2" points="528,-240 665,-240 "/>
<text text-anchor="middle" x="596.5" y="-226.4" font-family="Arial" font-size="12.00">maximum_delay_time:</text>
<text text-anchor="middle" x="596.5" y="-213.4" font-family="Arial" font-size="12.00">0.1</text>
<polyline fill="none" stroke="black" stroke-width="2" points="528,-206 665,-206 "/>
<text text-anchor="middle" x="596.5" y="-192.4" font-family="Arial" font-size="12.00">delay_time</text>
<polyline fill="none" stroke="black" stroke-width="2" points="528,-185 665,-185 "/>
<text text-anchor="middle" x="596.5" y="-171.4" font-family="Arial" font-size="12.00">decay_time</text>
<polyline fill="none" stroke="black" stroke-width="2" points="665,-164 665,-261 "/>
<text text-anchor="middle" x="676.5" y="-209.4" font-family="Arial" font-size="12.00">0</text>
</g>
<!-- ugen_9 -->
<g id="node11" class="node">
<title>ugen_9</title>
<path fill="#bcd2ee" stroke="black" stroke-width="2" d="M772,-181C772,-181 869,-181 869,-181 875,-181 881,-187 881,-193 881,-193 881,-258 881,-258 881,-264 875,-270 869,-270 869,-270 772,-270 772,-270 766,-270 760,-264 760,-258 760,-258 760,-193 760,-193 760,-187 766,-181 772,-181"/>
<text text-anchor="middle" x="820.5" y="-256.4" font-family="Arial" font-size="12.00">BinaryOpUGen</text>
<text text-anchor="middle" x="820.5" y="-243.4" font-family="Arial" font-size="12.00">[MULTIPLICATION]</text>
<text text-anchor="middle" x="820.5" y="-230.4" font-family="Arial" font-size="12.00">(audio)</text>
<polyline fill="none" stroke="black" stroke-width="2" points="760,-223 881,-223 "/>
<text text-anchor="middle" x="794.5" y="-209.4" font-family="Arial" font-size="12.00">left</text>
<polyline fill="none" stroke="black" stroke-width="2" points="760,-202 829,-202 "/>
<text text-anchor="middle" x="794.5" y="-188.4" font-family="Arial" font-size="12.00">right</text>
<polyline fill="none" stroke="black" stroke-width="2" points="829,-181 829,-223 "/>
<text text-anchor="middle" x="855" y="-198.9" font-family="Arial" font-size="12.00">0</text>
</g>
</g>
</svg>
