<?xml version="1.0" encoding="UTF-8" standalone="no"?>
<!DOCTYPE svg PUBLIC "-//W3C//DTD SVG 1.1//EN"
 "http://www.w3.org/Graphics/SVG/1.1/DTD/svg11.dtd">
<!-- Generated by graphviz version 2.43.0 (0)
 -->
<!-- Title: synthdef_808f0f1b0185316fb2437bbe6d142f4e Pages: 1 -->
<svg width="831pt" height="430pt"
 viewBox="0.00 0.00 831.00 430.11" xmlns="http://www.w3.org/2000/svg" xmlns:xlink="http://www.w3.org/1999/xlink">
<g id="graph0" class="graph" transform="scale(1 1) rotate(0) translate(4 426.11)">
<title>synthdef_808f0f1b0185316fb2437bbe6d142f4e</title>
<!-- ugen_0&#45;&gt;ugen_1 -->
<g id="edge1" class="edge">
<title>ugen_0:e&#45;&gt;ugen_1:w</title>
<path fill="none" stroke="salmon" stroke-width="2" d="M56,-194.11C142.55,-194.11 61.03,-362.4 133.79,-376.21"/>
<polygon fill="salmon" stroke="salmon" stroke-width="2" points="133.73,-379.72 144,-377.11 134.35,-372.74 133.73,-379.72"/>
</g>
<!-- ugen_0&#45;&gt;ugen_8 -->
<g id="edge2" class="edge">
<title>ugen_0:e&#45;&gt;ugen_8:w</title>
<path fill="none" stroke="salmon" stroke-width="2" d="M56,-160.11C93.74,-160.11 95.75,-134.7 128,-115.11 201.22,-70.62 211.35,-39.68 294,-17.11 490.43,36.55 549,-55.94 747.81,-59.03"/>
<polygon fill="salmon" stroke="salmon" stroke-width="2" points="747.97,-62.53 758,-59.11 748.03,-55.53 747.97,-62.53"/>
</g>
<!-- ugen_1&#45;&gt;ugen_4 -->
<g id="edge3" class="edge">
<title>ugen_1:e&#45;&gt;ugen_4:w</title>
<path fill="none" stroke="steelblue" stroke-width="2" d="M206,-377.11C242.6,-377.11 252.17,-359.71 283.91,-356.59"/>
<polygon fill="steelblue" stroke="steelblue" stroke-width="2" points="284.18,-360.08 294,-356.11 283.85,-353.08 284.18,-360.08"/>
</g>
<!-- ugen_2&#45;&gt;ugen_4 -->
<g id="edge4" class="edge">
<title>ugen_2:e&#45;&gt;ugen_4:w</title>
<path fill="none" stroke="salmon" stroke-width="2" d="M222,-158.11C281.15,-158.11 237.14,-265.78 283.8,-278.82"/>
<polygon fill="salmon" stroke="salmon" stroke-width="2" points="283.64,-282.33 294,-280.11 284.52,-275.38 283.64,-282.33"/>
</g>
<!-- ugen_3&#45;&gt;ugen_4 -->
<g id="edge5" class="edge">
<title>ugen_3:e&#45;&gt;ugen_4:w</title>
<path fill="none" stroke="salmon" stroke-width="2" d="M222,-279.11C251.8,-279.11 259.09,-296.56 283.97,-300.37"/>
<polygon fill="salmon" stroke="salmon" stroke-width="2" points="283.77,-303.87 294,-301.11 284.28,-296.89 283.77,-303.87"/>
</g>
<!-- ugen_4&#45;&gt;ugen_7 -->
<g id="edge6" class="edge">
<title>ugen_4:e&#45;&gt;ugen_7:w</title>
<path fill="none" stroke="steelblue" stroke-width="2" d="M454,-318.11C516.67,-318.11 466.05,-201.53 515.89,-188.32"/>
<polygon fill="steelblue" stroke="steelblue" stroke-width="2" points="516.49,-191.77 526,-187.11 515.65,-184.82 516.49,-191.77"/>
</g>
<!-- ugen_5&#45;&gt;ugen_7 -->
<g id="edge7" class="edge">
<title>ugen_5:e&#45;&gt;ugen_7:w</title>
<path fill="none" stroke="salmon" stroke-width="2" d="M422,-61.11C469.68,-61.11 474.27,-104.32 515.89,-110.4"/>
<polygon fill="salmon" stroke="salmon" stroke-width="2" points="515.78,-113.9 526,-111.11 516.27,-106.92 515.78,-113.9"/>
</g>
<!-- ugen_6&#45;&gt;ugen_7 -->
<g id="edge8" class="edge">
<title>ugen_6:e&#45;&gt;ugen_7:w</title>
<path fill="none" stroke="salmon" stroke-width="2" d="M422,-182.11C469.68,-182.11 474.27,-138.89 515.89,-132.81"/>
<polygon fill="salmon" stroke="salmon" stroke-width="2" points="516.27,-136.3 526,-132.11 515.78,-129.31 516.27,-136.3"/>
</g>
<!-- ugen_7&#45;&gt;ugen_8 -->
<g id="edge9" class="edge">
<title>ugen_7:e&#45;&gt;ugen_8:w</title>
<path fill="none" stroke="steelblue" stroke-width="2" d="M686,-149.11C741.01,-149.11 704.64,-51.95 747.88,-39.43"/>
<polygon fill="steelblue" stroke="steelblue" stroke-width="2" points="748.54,-42.87 758,-38.11 747.63,-35.93 748.54,-42.87"/>
</g>
<!-- ugen_0 -->
<g id="node1" class="node">
<title>ugen_0</title>
<path fill="#ee9572" stroke="black" stroke-width="2" d="M12,-143.11C12,-143.11 44,-143.11 44,-143.11 50,-143.11 56,-149.11 56,-155.11 56,-155.11 56,-233.11 56,-233.11 56,-239.11 50,-245.11 44,-245.11 44,-245.11 12,-245.11 12,-245.11 6,-245.11 0,-239.11 0,-233.11 0,-233.11 0,-155.11 0,-155.11 0,-149.11 6,-143.11 12,-143.11"/>
<text text-anchor="middle" x="28" y="-231.51" font-family="Arial" font-size="12.00">Control</text>
<text text-anchor="middle" x="28" y="-218.51" font-family="Arial" font-size="12.00">(scalar)</text>
<polyline fill="none" stroke="black" stroke-width="2" points="0,-211.11 56,-211.11 "/>
<text text-anchor="middle" x="28" y="-197.51" font-family="Arial" font-size="12.00">in_:</text>
<text text-anchor="middle" x="28" y="-184.51" font-family="Arial" font-size="12.00">0.0</text>
<polyline fill="none" stroke="black" stroke-width="2" points="0,-177.11 56,-177.11 "/>
<text text-anchor="middle" x="28" y="-163.51" font-family="Arial" font-size="12.00">out:</text>
<text text-anchor="middle" x="28" y="-150.51" font-family="Arial" font-size="12.00">0.0</text>
</g>
<!-- ugen_1 -->
<g id="node2" class="node">
<title>ugen_1</title>
<path fill="#bcd2ee" stroke="black" stroke-width="2" d="M157.5,-366.61C157.5,-366.61 192.5,-366.61 192.5,-366.61 198.5,-366.61 204.5,-372.61 204.5,-378.61 204.5,-378.61 204.5,-409.61 204.5,-409.61 204.5,-415.61 198.5,-421.61 192.5,-421.61 192.5,-421.61 157.5,-421.61 157.5,-421.61 151.5,-421.61 145.5,-415.61 145.5,-409.61 145.5,-409.61 145.5,-378.61 145.5,-378.61 145.5,-372.61 151.5,-366.61 157.5,-366.61"/>
<text text-anchor="middle" x="175" y="-408.01" font-family="Arial" font-size="12.00">In</text>
<text text-anchor="middle" x="175" y="-395.01" font-family="Arial" font-size="12.00">(audio)</text>
<polyline fill="none" stroke="black" stroke-width="2" points="145.5,-387.61 204.5,-387.61 "/>
<text text-anchor="middle" x="163.5" y="-374.01" font-family="Arial" font-size="12.00">bus</text>
<polyline fill="none" stroke="black" stroke-width="2" points="181.5,-366.61 181.5,-387.61 "/>
<text text-anchor="middle" x="193" y="-374.01" font-family="Arial" font-size="12.00">0</text>
</g>
<!-- ugen_2 -->
<g id="node3" class="node">
<title>ugen_2</title>
<path fill="#ee9572" stroke="black" stroke-width="2" d="M140,-124.11C140,-124.11 210,-124.11 210,-124.11 216,-124.11 222,-130.11 222,-136.11 222,-136.11 222,-214.11 222,-214.11 222,-220.11 216,-226.11 210,-226.11 210,-226.11 140,-226.11 140,-226.11 134,-226.11 128,-220.11 128,-214.11 128,-214.11 128,-136.11 128,-136.11 128,-130.11 134,-124.11 140,-124.11"/>
<text text-anchor="middle" x="175" y="-212.51" font-family="Arial" font-size="12.00">ExpRand</text>
<text text-anchor="middle" x="175" y="-199.51" font-family="Arial" font-size="12.00">(scalar)</text>
<polyline fill="none" stroke="black" stroke-width="2" points="128,-192.11 222,-192.11 "/>
<text text-anchor="middle" x="163.5" y="-178.51" font-family="Arial" font-size="12.00">minimum:</text>
<text text-anchor="middle" x="163.5" y="-165.51" font-family="Arial" font-size="12.00">0.01</text>
<polyline fill="none" stroke="black" stroke-width="2" points="128,-158.11 199,-158.11 "/>
<text text-anchor="middle" x="163.5" y="-144.51" font-family="Arial" font-size="12.00">maximum:</text>
<text text-anchor="middle" x="163.5" y="-131.51" font-family="Arial" font-size="12.00">0.1</text>
<polyline fill="none" stroke="black" stroke-width="2" points="199,-124.11 199,-192.11 "/>
<text text-anchor="middle" x="210.5" y="-155.01" font-family="Arial" font-size="12.00">0</text>
</g>
<!-- ugen_3 -->
<g id="node4" class="node">
<title>ugen_3</title>
<path fill="#ee9572" stroke="black" stroke-width="2" d="M140,-245.11C140,-245.11 210,-245.11 210,-245.11 216,-245.11 222,-251.11 222,-257.11 222,-257.11 222,-335.11 222,-335.11 222,-341.11 216,-347.11 210,-347.11 210,-347.11 140,-347.11 140,-347.11 134,-347.11 128,-341.11 128,-335.11 128,-335.11 128,-257.11 128,-257.11 128,-251.11 134,-245.11 140,-245.11"/>
<text text-anchor="middle" x="175" y="-333.51" font-family="Arial" font-size="12.00">ExpRand</text>
<text text-anchor="middle" x="175" y="-320.51" font-family="Arial" font-size="12.00">(scalar)</text>
<polyline fill="none" stroke="black" stroke-width="2" points="128,-313.11 222,-313.11 "/>
<text text-anchor="middle" x="163.5" y="-299.51" font-family="Arial" font-size="12.00">minimum:</text>
<text text-anchor="middle" x="163.5" y="-286.51" font-family="Arial" font-size="12.00">0.01</text>
<polyline fill="none" stroke="black" stroke-width="2" points="128,-279.11 199,-279.11 "/>
<text text-anchor="middle" x="163.5" y="-265.51" font-family="Arial" font-size="12.00">maximum:</text>
<text text-anchor="middle" x="163.5" y="-252.51" font-family="Arial" font-size="12.00">0.1</text>
<polyline fill="none" stroke="black" stroke-width="2" points="199,-245.11 199,-313.11 "/>
<text text-anchor="middle" x="210.5" y="-276.01" font-family="Arial" font-size="12.00">0</text>
</g>
<!-- ugen_4 -->
<g id="node5" class="node">
<title>ugen_4</title>
<path fill="#bcd2ee" stroke="black" stroke-width="2" d="M306,-269.61C306,-269.61 442,-269.61 442,-269.61 448,-269.61 454,-275.61 454,-281.61 454,-281.61 454,-388.61 454,-388.61 454,-394.61 448,-400.61 442,-400.61 442,-400.61 306,-400.61 306,-400.61 300,-400.61 294,-394.61 294,-388.61 294,-388.61 294,-281.61 294,-281.61 294,-275.61 300,-269.61 306,-269.61"/>
<text text-anchor="middle" x="374" y="-387.01" font-family="Arial" font-size="12.00">AllpassC</text>
<text text-anchor="middle" x="374" y="-374.01" font-family="Arial" font-size="12.00">(audio)</text>
<polyline fill="none" stroke="black" stroke-width="2" points="294,-366.61 454,-366.61 "/>
<text text-anchor="middle" x="362.5" y="-353.01" font-family="Arial" font-size="12.00">source</text>
<polyline fill="none" stroke="black" stroke-width="2" points="294,-345.61 431,-345.61 "/>
<text text-anchor="middle" x="362.5" y="-332.01" font-family="Arial" font-size="12.00">maximum_delay_time:</text>
<text text-anchor="middle" x="362.5" y="-319.01" font-family="Arial" font-size="12.00">0.1</text>
<polyline fill="none" stroke="black" stroke-width="2" points="294,-311.61 431,-311.61 "/>
<text text-anchor="middle" x="362.5" y="-298.01" font-family="Arial" font-size="12.00">delay_time</text>
<polyline fill="none" stroke="black" stroke-width="2" points="294,-290.61 431,-290.61 "/>
<text text-anchor="middle" x="362.5" y="-277.01" font-family="Arial" font-size="12.00">decay_time</text>
<polyline fill="none" stroke="black" stroke-width="2" points="431,-269.61 431,-366.61 "/>
<text text-anchor="middle" x="442.5" y="-315.01" font-family="Arial" font-size="12.00">0</text>
</g>
<!-- ugen_5 -->
<g id="node6" class="node">
<title>ugen_5</title>
<path fill="#ee9572" stroke="black" stroke-width="2" d="M339,-27.11C339,-27.11 409,-27.11 409,-27.11 415,-27.11 421,-33.11 421,-39.11 421,-39.11 421,-117.11 421,-117.11 421,-123.11 415,-129.11 409,-129.11 409,-129.11 339,-129.11 339,-129.11 333,-129.11 327,-123.11 327,-117.11 327,-117.11 327,-39.11 327,-39.11 327,-33.11 333,-27.11 339,-27.11"/>
<text text-anchor="middle" x="374" y="-115.51" font-family="Arial" font-size="12.00">ExpRand</text>
<text text-anchor="middle" x="374" y="-102.51" font-family="Arial" font-size="12.00">(scalar)</text>
<polyline fill="none" stroke="black" stroke-width="2" points="327,-95.11 421,-95.11 "/>
<text text-anchor="middle" x="362.5" y="-81.51" font-family="Arial" font-size="12.00">minimum:</text>
<text text-anchor="middle" x="362.5" y="-68.51" font-family="Arial" font-size="12.00">0.01</text>
<polyline fill="none" stroke="black" stroke-width="2" points="327,-61.11 398,-61.11 "/>
<text text-anchor="middle" x="362.5" y="-47.51" font-family="Arial" font-size="12.00">maximum:</text>
<text text-anchor="middle" x="362.5" y="-34.51" font-family="Arial" font-size="12.00">0.1</text>
<polyline fill="none" stroke="black" stroke-width="2" points="398,-27.11 398,-95.11 "/>
<text text-anchor="middle" x="409.5" y="-58.01" font-family="Arial" font-size="12.00">0</text>
</g>
<!-- ugen_6 -->
<g id="node7" class="node">
<title>ugen_6</title>
<path fill="#ee9572" stroke="black" stroke-width="2" d="M339,-148.11C339,-148.11 409,-148.11 409,-148.11 415,-148.11 421,-154.11 421,-160.11 421,-160.11 421,-238.11 421,-238.11 421,-244.11 415,-250.11 409,-250.11 409,-250.11 339,-250.11 339,-250.11 333,-250.11 327,-244.11 327,-238.11 327,-238.11 327,-160.11 327,-160.11 327,-154.11 333,-148.11 339,-148.11"/>
<text text-anchor="middle" x="374" y="-236.51" font-family="Arial" font-size="12.00">ExpRand</text>
<text text-anchor="middle" x="374" y="-223.51" font-family="Arial" font-size="12.00">(scalar)</text>
<polyline fill="none" stroke="black" stroke-width="2" points="327,-216.11 421,-216.11 "/>
<text text-anchor="middle" x="362.5" y="-202.51" font-family="Arial" font-size="12.00">minimum:</text>
<text text-anchor="middle" x="362.5" y="-189.51" font-family="Arial" font-size="12.00">0.01</text>
<polyline fill="none" stroke="black" stroke-width="2" points="327,-182.11 398,-182.11 "/>
<text text-anchor="middle" x="362.5" y="-168.51" font-family="Arial" font-size="12.00">maximum:</text>
<text text-anchor="middle" x="362.5" y="-155.51" font-family="Arial" font-size="12.00">0.1</text>
<polyline fill="none" stroke="black" stroke-width="2" points="398,-148.11 398,-216.11 "/>
<text text-anchor="middle" x="409.5" y="-179.01" font-family="Arial" font-size="12.00">0</text>
</g>
<!-- ugen_7 -->
<g id="node8" class="node">
<title>ugen_7</title>
<path fill="#bcd2ee" stroke="black" stroke-width="2" d="M538,-100.61C538,-100.61 674,-100.61 674,-100.61 680,-100.61 686,-106.61 686,-112.61 686,-112.61 686,-219.61 686,-219.61 686,-225.61 680,-231.61 674,-231.61 674,-231.61 538,-231.61 538,-231.61 532,-231.61 526,-225.61 526,-219.61 526,-219.61 526,-112.61 526,-112.61 526,-106.61 532,-100.61 538,-100.61"/>
<text text-anchor="middle" x="606" y="-218.01" font-family="Arial" font-size="12.00">AllpassC</text>
<text text-anchor="middle" x="606" y="-205.01" font-family="Arial" font-size="12.00">(audio)</text>
<polyline fill="none" stroke="black" stroke-width="2" points="526,-197.61 686,-197.61 "/>
<text text-anchor="middle" x="594.5" y="-184.01" font-family="Arial" font-size="12.00">source</text>
<polyline fill="none" stroke="black" stroke-width="2" points="526,-176.61 663,-176.61 "/>
<text text-anchor="middle" x="594.5" y="-163.01" font-family="Arial" font-size="12.00">maximum_delay_time:</text>
<text text-anchor="middle" x="594.5" y="-150.01" font-family="Arial" font-size="12.00">0.1</text>
<polyline fill="none" stroke="black" stroke-width="2" points="526,-142.61 663,-142.61 "/>
<text text-anchor="middle" x="594.5" y="-129.01" font-family="Arial" font-size="12.00">delay_time</text>
<polyline fill="none" stroke="black" stroke-width="2" points="526,-121.61 663,-121.61 "/>
<text text-anchor="middle" x="594.5" y="-108.01" font-family="Arial" font-size="12.00">decay_time</text>
<polyline fill="none" stroke="black" stroke-width="2" points="663,-100.61 663,-197.61 "/>
<text text-anchor="middle" x="674.5" y="-146.01" font-family="Arial" font-size="12.00">0</text>
</g>
<!-- ugen_8 -->
<g id="node9" class="node">
<title>ugen_8</title>
<path fill="#bcd2ee" stroke="black" stroke-width="2" d="M770,-28.11C770,-28.11 811,-28.11 811,-28.11 817,-28.11 823,-34.11 823,-40.11 823,-40.11 823,-92.11 823,-92.11 823,-98.11 817,-104.11 811,-104.11 811,-104.11 770,-104.11 770,-104.11 764,-104.11 758,-98.11 758,-92.11 758,-92.11 758,-40.11 758,-40.11 758,-34.11 764,-28.11 770,-28.11"/>
<text text-anchor="middle" x="790.5" y="-90.51" font-family="Arial" font-size="12.00">Out</text>
<text text-anchor="middle" x="790.5" y="-77.51" font-family="Arial" font-size="12.00">(audio)</text>
<polyline fill="none" stroke="black" stroke-width="2" points="758,-70.11 823,-70.11 "/>
<text text-anchor="middle" x="790.5" y="-56.51" font-family="Arial" font-size="12.00">bus</text>
<polyline fill="none" stroke="black" stroke-width="2" points="758,-49.11 823,-49.11 "/>
<text text-anchor="middle" x="790.5" y="-35.51" font-family="Arial" font-size="12.00">source[0]</text>
</g>
</g>
</svg>
