<?xml version="1.0" encoding="UTF-8" standalone="no"?>
<!DOCTYPE svg PUBLIC "-//W3C//DTD SVG 1.1//EN"
 "http://www.w3.org/Graphics/SVG/1.1/DTD/svg11.dtd">
<!-- Generated by graphviz version 2.49.1 (20210923.0004)
 -->
<!-- Title: synthdef_88dca305143542bd40a82d8a6a337306 Pages: 1 -->
<svg width="311pt" height="644pt"
 viewBox="0.00 0.00 311.00 643.50" xmlns="http://www.w3.org/2000/svg" xmlns:xlink="http://www.w3.org/1999/xlink">
<g id="graph0" class="graph" transform="scale(1 1) rotate(0) translate(4 639.5)">
<title>synthdef_88dca305143542bd40a82d8a6a337306</title>
<!-- ugen_0&#45;&gt;ugen_1 -->
<g id="edge1" class="edge">
<title>ugen_0:e&#45;&gt;ugen_1:w</title>
<path fill="none" stroke="steelblue" stroke-width="2" d="M96,-147C124.38,-147 133.88,-147 157.98,-147"/>
<polygon fill="steelblue" stroke="steelblue" stroke-width="2" points="158,-150.5 168,-147 158,-143.5 158,-150.5"/>
</g>
<!-- ugen_2&#45;&gt;ugen_3 -->
<g id="edge2" class="edge">
<title>ugen_2:e&#45;&gt;ugen_3:w</title>
<path fill="none" stroke="steelblue" stroke-width="2" d="M96,-357C124.38,-357 133.88,-357 157.98,-357"/>
<polygon fill="steelblue" stroke="steelblue" stroke-width="2" points="158,-360.5 168,-357 158,-353.5 158,-360.5"/>
</g>
<!-- ugen_4&#45;&gt;ugen_5 -->
<g id="edge3" class="edge">
<title>ugen_4:e&#45;&gt;ugen_5:w</title>
<path fill="none" stroke="steelblue" stroke-width="2" d="M96,-567C124.38,-567 133.88,-567 157.98,-567"/>
<polygon fill="steelblue" stroke="steelblue" stroke-width="2" points="158,-570.5 168,-567 158,-563.5 158,-570.5"/>
</g>
<!-- ugen_0 -->
<g id="node1" class="node">
<title>ugen_0</title>
<path fill="#bcd2ee" stroke="black" stroke-width="2" d="M12,-113C12,-113 84,-113 84,-113 90,-113 96,-119 96,-125 96,-125 96,-203 96,-203 96,-209 90,-215 84,-215 84,-215 12,-215 12,-215 6,-215 0,-209 0,-203 0,-203 0,-125 0,-125 0,-119 6,-113 12,-113"/>
<text text-anchor="middle" x="48" y="-201.4" font-family="Arial" font-size="12.00">SinOsc</text>
<text text-anchor="middle" x="48" y="-188.4" font-family="Arial" font-size="12.00">(audio)</text>
<polyline fill="none" stroke="black" stroke-width="2" points="0,-181 96,-181 "/>
<text text-anchor="middle" x="36.5" y="-167.4" font-family="Arial" font-size="12.00">frequency:</text>
<text text-anchor="middle" x="36.5" y="-154.4" font-family="Arial" font-size="12.00">440.0</text>
<polyline fill="none" stroke="black" stroke-width="2" points="0,-147 73,-147 "/>
<text text-anchor="middle" x="36.5" y="-133.4" font-family="Arial" font-size="12.00">phase:</text>
<text text-anchor="middle" x="36.5" y="-120.4" font-family="Arial" font-size="12.00">0.0</text>
<polyline fill="none" stroke="black" stroke-width="2" points="73,-113 73,-181 "/>
<text text-anchor="middle" x="84.5" y="-143.9" font-family="Arial" font-size="12.00">0</text>
</g>
<!-- ugen_1 -->
<g id="node2" class="node">
<title>ugen_1</title>
<path fill="#bcd2ee" stroke="black" stroke-width="2" d="M180,-0.5C180,-0.5 291,-0.5 291,-0.5 297,-0.5 303,-6.5 303,-12.5 303,-12.5 303,-179.5 303,-179.5 303,-185.5 297,-191.5 291,-191.5 291,-191.5 180,-191.5 180,-191.5 174,-191.5 168,-185.5 168,-179.5 168,-179.5 168,-12.5 168,-12.5 168,-6.5 174,-0.5 180,-0.5"/>
<text text-anchor="middle" x="235.5" y="-177.9" font-family="Arial" font-size="12.00">LinExp</text>
<text text-anchor="middle" x="235.5" y="-164.9" font-family="Arial" font-size="12.00">(audio)</text>
<polyline fill="none" stroke="black" stroke-width="2" points="168,-157.5 303,-157.5 "/>
<text text-anchor="middle" x="224" y="-143.9" font-family="Arial" font-size="12.00">source</text>
<polyline fill="none" stroke="black" stroke-width="2" points="168,-136.5 280,-136.5 "/>
<text text-anchor="middle" x="224" y="-122.9" font-family="Arial" font-size="12.00">input_minimum:</text>
<text text-anchor="middle" x="224" y="-109.9" font-family="Arial" font-size="12.00">&#45;1.0</text>
<polyline fill="none" stroke="black" stroke-width="2" points="168,-102.5 280,-102.5 "/>
<text text-anchor="middle" x="224" y="-88.9" font-family="Arial" font-size="12.00">input_maximum:</text>
<text text-anchor="middle" x="224" y="-75.9" font-family="Arial" font-size="12.00">1.0</text>
<polyline fill="none" stroke="black" stroke-width="2" points="168,-68.5 280,-68.5 "/>
<text text-anchor="middle" x="224" y="-54.9" font-family="Arial" font-size="12.00">output_minimum:</text>
<text text-anchor="middle" x="224" y="-41.9" font-family="Arial" font-size="12.00">0.5</text>
<polyline fill="none" stroke="black" stroke-width="2" points="168,-34.5 280,-34.5 "/>
<text text-anchor="middle" x="224" y="-20.9" font-family="Arial" font-size="12.00">output_maximum:</text>
<text text-anchor="middle" x="224" y="-7.9" font-family="Arial" font-size="12.00">0.75</text>
<polyline fill="none" stroke="black" stroke-width="2" points="280,-0.5 280,-157.5 "/>
<text text-anchor="middle" x="291.5" y="-75.9" font-family="Arial" font-size="12.00">0</text>
</g>
<!-- ugen_2 -->
<g id="node3" class="node">
<title>ugen_2</title>
<path fill="#bcd2ee" stroke="black" stroke-width="2" d="M12,-323C12,-323 84,-323 84,-323 90,-323 96,-329 96,-335 96,-335 96,-413 96,-413 96,-419 90,-425 84,-425 84,-425 12,-425 12,-425 6,-425 0,-419 0,-413 0,-413 0,-335 0,-335 0,-329 6,-323 12,-323"/>
<text text-anchor="middle" x="48" y="-411.4" font-family="Arial" font-size="12.00">SinOsc</text>
<text text-anchor="middle" x="48" y="-398.4" font-family="Arial" font-size="12.00">(audio)</text>
<polyline fill="none" stroke="black" stroke-width="2" points="0,-391 96,-391 "/>
<text text-anchor="middle" x="36.5" y="-377.4" font-family="Arial" font-size="12.00">frequency:</text>
<text text-anchor="middle" x="36.5" y="-364.4" font-family="Arial" font-size="12.00">442.0</text>
<polyline fill="none" stroke="black" stroke-width="2" points="0,-357 73,-357 "/>
<text text-anchor="middle" x="36.5" y="-343.4" font-family="Arial" font-size="12.00">phase:</text>
<text text-anchor="middle" x="36.5" y="-330.4" font-family="Arial" font-size="12.00">0.0</text>
<polyline fill="none" stroke="black" stroke-width="2" points="73,-323 73,-391 "/>
<text text-anchor="middle" x="84.5" y="-353.9" font-family="Arial" font-size="12.00">0</text>
</g>
<!-- ugen_3 -->
<g id="node4" class="node">
<title>ugen_3</title>
<path fill="#bcd2ee" stroke="black" stroke-width="2" d="M180,-210.5C180,-210.5 291,-210.5 291,-210.5 297,-210.5 303,-216.5 303,-222.5 303,-222.5 303,-389.5 303,-389.5 303,-395.5 297,-401.5 291,-401.5 291,-401.5 180,-401.5 180,-401.5 174,-401.5 168,-395.5 168,-389.5 168,-389.5 168,-222.5 168,-222.5 168,-216.5 174,-210.5 180,-210.5"/>
<text text-anchor="middle" x="235.5" y="-387.9" font-family="Arial" font-size="12.00">LinExp</text>
<text text-anchor="middle" x="235.5" y="-374.9" font-family="Arial" font-size="12.00">(audio)</text>
<polyline fill="none" stroke="black" stroke-width="2" points="168,-367.5 303,-367.5 "/>
<text text-anchor="middle" x="224" y="-353.9" font-family="Arial" font-size="12.00">source</text>
<polyline fill="none" stroke="black" stroke-width="2" points="168,-346.5 280,-346.5 "/>
<text text-anchor="middle" x="224" y="-332.9" font-family="Arial" font-size="12.00">input_minimum:</text>
<text text-anchor="middle" x="224" y="-319.9" font-family="Arial" font-size="12.00">&#45;1.0</text>
<polyline fill="none" stroke="black" stroke-width="2" points="168,-312.5 280,-312.5 "/>
<text text-anchor="middle" x="224" y="-298.9" font-family="Arial" font-size="12.00">input_maximum:</text>
<text text-anchor="middle" x="224" y="-285.9" font-family="Arial" font-size="12.00">1.0</text>
<polyline fill="none" stroke="black" stroke-width="2" points="168,-278.5 280,-278.5 "/>
<text text-anchor="middle" x="224" y="-264.9" font-family="Arial" font-size="12.00">output_minimum:</text>
<text text-anchor="middle" x="224" y="-251.9" font-family="Arial" font-size="12.00">0.5</text>
<polyline fill="none" stroke="black" stroke-width="2" points="168,-244.5 280,-244.5 "/>
<text text-anchor="middle" x="224" y="-230.9" font-family="Arial" font-size="12.00">output_maximum:</text>
<text text-anchor="middle" x="224" y="-217.9" font-family="Arial" font-size="12.00">0.75</text>
<polyline fill="none" stroke="black" stroke-width="2" points="280,-210.5 280,-367.5 "/>
<text text-anchor="middle" x="291.5" y="-285.9" font-family="Arial" font-size="12.00">0</text>
</g>
<!-- ugen_4 -->
<g id="node5" class="node">
<title>ugen_4</title>
<path fill="#bcd2ee" stroke="black" stroke-width="2" d="M12,-533C12,-533 84,-533 84,-533 90,-533 96,-539 96,-545 96,-545 96,-623 96,-623 96,-629 90,-635 84,-635 84,-635 12,-635 12,-635 6,-635 0,-629 0,-623 0,-623 0,-545 0,-545 0,-539 6,-533 12,-533"/>
<text text-anchor="middle" x="48" y="-621.4" font-family="Arial" font-size="12.00">SinOsc</text>
<text text-anchor="middle" x="48" y="-608.4" font-family="Arial" font-size="12.00">(audio)</text>
<polyline fill="none" stroke="black" stroke-width="2" points="0,-601 96,-601 "/>
<text text-anchor="middle" x="36.5" y="-587.4" font-family="Arial" font-size="12.00">frequency:</text>
<text text-anchor="middle" x="36.5" y="-574.4" font-family="Arial" font-size="12.00">443.0</text>
<polyline fill="none" stroke="black" stroke-width="2" points="0,-567 73,-567 "/>
<text text-anchor="middle" x="36.5" y="-553.4" font-family="Arial" font-size="12.00">phase:</text>
<text text-anchor="middle" x="36.5" y="-540.4" font-family="Arial" font-size="12.00">0.0</text>
<polyline fill="none" stroke="black" stroke-width="2" points="73,-533 73,-601 "/>
<text text-anchor="middle" x="84.5" y="-563.9" font-family="Arial" font-size="12.00">0</text>
</g>
<!-- ugen_5 -->
<g id="node6" class="node">
<title>ugen_5</title>
<path fill="#bcd2ee" stroke="black" stroke-width="2" d="M180,-420.5C180,-420.5 291,-420.5 291,-420.5 297,-420.5 303,-426.5 303,-432.5 303,-432.5 303,-599.5 303,-599.5 303,-605.5 297,-611.5 291,-611.5 291,-611.5 180,-611.5 180,-611.5 174,-611.5 168,-605.5 168,-599.5 168,-599.5 168,-432.5 168,-432.5 168,-426.5 174,-420.5 180,-420.5"/>
<text text-anchor="middle" x="235.5" y="-597.9" font-family="Arial" font-size="12.00">LinExp</text>
<text text-anchor="middle" x="235.5" y="-584.9" font-family="Arial" font-size="12.00">(audio)</text>
<polyline fill="none" stroke="black" stroke-width="2" points="168,-577.5 303,-577.5 "/>
<text text-anchor="middle" x="224" y="-563.9" font-family="Arial" font-size="12.00">source</text>
<polyline fill="none" stroke="black" stroke-width="2" points="168,-556.5 280,-556.5 "/>
<text text-anchor="middle" x="224" y="-542.9" font-family="Arial" font-size="12.00">input_minimum:</text>
<text text-anchor="middle" x="224" y="-529.9" font-family="Arial" font-size="12.00">&#45;1.0</text>
<polyline fill="none" stroke="black" stroke-width="2" points="168,-522.5 280,-522.5 "/>
<text text-anchor="middle" x="224" y="-508.9" font-family="Arial" font-size="12.00">input_maximum:</text>
<text text-anchor="middle" x="224" y="-495.9" font-family="Arial" font-size="12.00">1.0</text>
<polyline fill="none" stroke="black" stroke-width="2" points="168,-488.5 280,-488.5 "/>
<text text-anchor="middle" x="224" y="-474.9" font-family="Arial" font-size="12.00">output_minimum:</text>
<text text-anchor="middle" x="224" y="-461.9" font-family="Arial" font-size="12.00">0.5</text>
<polyline fill="none" stroke="black" stroke-width="2" points="168,-454.5 280,-454.5 "/>
<text text-anchor="middle" x="224" y="-440.9" font-family="Arial" font-size="12.00">output_maximum:</text>
<text text-anchor="middle" x="224" y="-427.9" font-family="Arial" font-size="12.00">0.75</text>
<polyline fill="none" stroke="black" stroke-width="2" points="280,-420.5 280,-577.5 "/>
<text text-anchor="middle" x="291.5" y="-495.9" font-family="Arial" font-size="12.00">0</text>
</g>
</g>
</svg>
