<?xml version="1.0" encoding="UTF-8" standalone="no"?>
<!DOCTYPE svg PUBLIC "-//W3C//DTD SVG 1.1//EN"
 "http://www.w3.org/Graphics/SVG/1.1/DTD/svg11.dtd">
<!-- Generated by graphviz version 2.49.1 (20210923.0004)
 -->
<!-- Title: synthdef_e710843b0e0fbc5e6185afc6cdf90149 Pages: 1 -->
<svg width="253pt" height="132pt"
 viewBox="0.00 0.00 253.00 132.00" xmlns="http://www.w3.org/2000/svg" xmlns:xlink="http://www.w3.org/1999/xlink">
<g id="graph0" class="graph" transform="scale(1 1) rotate(0) translate(4 128)">
<title>synthdef_e710843b0e0fbc5e6185afc6cdf90149</title>
<!-- ugen_0&#45;&gt;ugen_1 -->
<g id="edge1" class="edge">
<title>ugen_0:e&#45;&gt;ugen_1:w</title>
<path fill="none" stroke="steelblue" stroke-width="2" d="M78,-79C106.38,-79 115.88,-79 139.98,-79"/>
<polygon fill="steelblue" stroke="steelblue" stroke-width="2" points="140,-82.5 150,-79 140,-75.5 140,-82.5"/>
</g>
<!-- ugen_0 -->
<g id="node1" class="node">
<title>ugen_0</title>
<path fill="#bcd2ee" stroke="black" stroke-width="2" d="M12,-68.5C12,-68.5 66,-68.5 66,-68.5 72,-68.5 78,-74.5 78,-80.5 78,-80.5 78,-111.5 78,-111.5 78,-117.5 72,-123.5 66,-123.5 66,-123.5 12,-123.5 12,-123.5 6,-123.5 0,-117.5 0,-111.5 0,-111.5 0,-80.5 0,-80.5 0,-74.5 6,-68.5 12,-68.5"/>
<text text-anchor="middle" x="39" y="-109.9" font-family="Arial" font-size="12.00">WhiteNoise</text>
<text text-anchor="middle" x="39" y="-96.9" font-family="Arial" font-size="12.00">(audio)</text>
<polyline fill="none" stroke="black" stroke-width="2" points="0,-89.5 78,-89.5 "/>
<text text-anchor="middle" x="39" y="-75.9" font-family="Arial" font-size="12.00">0</text>
</g>
<!-- ugen_1 -->
<g id="node2" class="node">
<title>ugen_1</title>
<path fill="#bcd2ee" stroke="black" stroke-width="2" d="M162,-0.5C162,-0.5 233,-0.5 233,-0.5 239,-0.5 245,-6.5 245,-12.5 245,-12.5 245,-111.5 245,-111.5 245,-117.5 239,-123.5 233,-123.5 233,-123.5 162,-123.5 162,-123.5 156,-123.5 150,-117.5 150,-111.5 150,-111.5 150,-12.5 150,-12.5 150,-6.5 156,-0.5 162,-0.5"/>
<text text-anchor="middle" x="197.5" y="-109.9" font-family="Arial" font-size="12.00">Clip</text>
<text text-anchor="middle" x="197.5" y="-96.9" font-family="Arial" font-size="12.00">(audio)</text>
<polyline fill="none" stroke="black" stroke-width="2" points="150,-89.5 245,-89.5 "/>
<text text-anchor="middle" x="186" y="-75.9" font-family="Arial" font-size="12.00">source</text>
<polyline fill="none" stroke="black" stroke-width="2" points="150,-68.5 222,-68.5 "/>
<text text-anchor="middle" x="186" y="-54.9" font-family="Arial" font-size="12.00">minimum:</text>
<text text-anchor="middle" x="186" y="-41.9" font-family="Arial" font-size="12.00">&#45;0.25</text>
<polyline fill="none" stroke="black" stroke-width="2" points="150,-34.5 222,-34.5 "/>
<text text-anchor="middle" x="186" y="-20.9" font-family="Arial" font-size="12.00">maximum:</text>
<text text-anchor="middle" x="186" y="-7.9" font-family="Arial" font-size="12.00">0.25</text>
<polyline fill="none" stroke="black" stroke-width="2" points="222,-0.5 222,-89.5 "/>
<text text-anchor="middle" x="233.5" y="-41.9" font-family="Arial" font-size="12.00">0</text>
</g>
</g>
</svg>
