<?xml version="1.0" encoding="UTF-8" standalone="no"?>
<!DOCTYPE svg PUBLIC "-//W3C//DTD SVG 1.1//EN"
 "http://www.w3.org/Graphics/SVG/1.1/DTD/svg11.dtd">
<!-- Generated by graphviz version 2.40.1 (20161225.0304)
 -->
<!-- Title: synthdef_a1d26283f87b8b445db982ff0e831fb7 Pages: 1 -->
<svg width="245pt" height="353pt"
 viewBox="0.00 0.00 245.00 353.00" xmlns="http://www.w3.org/2000/svg" xmlns:xlink="http://www.w3.org/1999/xlink">
<g id="graph0" class="graph" transform="scale(1 1) rotate(0) translate(4 349)">
<title>synthdef_a1d26283f87b8b445db982ff0e831fb7</title>
<!-- ugen_0&#45;&gt;ugen_3 -->
<g id="edge1" class="edge">
<title>ugen_0:e&#45;&gt;ugen_3:w</title>
<path fill="none" stroke="#4682b4" stroke-width="2" d="M81,-276.5C132.0222,-276.5 102.9341,-189.7046 143.0037,-177.838"/>
<polygon fill="#4682b4" stroke="#4682b4" stroke-width="2" points="143.5528,-181.2958 153,-176.5 142.624,-174.3577 143.5528,-181.2958"/>
</g>
<!-- ugen_1&#45;&gt;ugen_3 -->
<g id="edge2" class="edge">
<title>ugen_1:e&#45;&gt;ugen_3:w</title>
<path fill="none" stroke="#4682b4" stroke-width="2" d="M81,-155.5C109.375,-155.5 118.8795,-155.5 142.9792,-155.5"/>
<polygon fill="#4682b4" stroke="#4682b4" stroke-width="2" points="143,-159.0001 153,-155.5 143,-152.0001 143,-159.0001"/>
</g>
<!-- ugen_2&#45;&gt;ugen_3 -->
<g id="edge3" class="edge">
<title>ugen_2:e&#45;&gt;ugen_3:w</title>
<path fill="none" stroke="#4682b4" stroke-width="2" d="M81,-34.5C132.0222,-34.5 102.9341,-121.2954 143.0037,-133.162"/>
<polygon fill="#4682b4" stroke="#4682b4" stroke-width="2" points="142.624,-136.6423 153,-134.5 143.5528,-129.7042 142.624,-136.6423"/>
</g>
<!-- ugen_0 -->
<g id="node1" class="node">
<title>ugen_0</title>
<path fill="#bcd2ee" stroke="#000000" stroke-width="2" d="M12,-242.5C12,-242.5 69,-242.5 69,-242.5 75,-242.5 81,-248.5 81,-254.5 81,-254.5 81,-332.5 81,-332.5 81,-338.5 75,-344.5 69,-344.5 69,-344.5 12,-344.5 12,-344.5 6,-344.5 0,-338.5 0,-332.5 0,-332.5 0,-254.5 0,-254.5 0,-248.5 6,-242.5 12,-242.5"/>
<text text-anchor="middle" x="40.5" y="-330.9" font-family="Arial" font-size="12.00" fill="#000000">SinOsc</text>
<text text-anchor="middle" x="40.5" y="-317.9" font-family="Arial" font-size="12.00" fill="#000000">(audio)</text>
<polyline fill="none" stroke="#000000" stroke-width="2" points="0,-310.5 81,-310.5 "/>
<text text-anchor="middle" x="29.5" y="-296.9" font-family="Arial" font-size="12.00" fill="#000000">frequency:</text>
<text text-anchor="middle" x="29.5" y="-283.9" font-family="Arial" font-size="12.00" fill="#000000">440.0</text>
<polyline fill="none" stroke="#000000" stroke-width="2" points="0,-276.5 59,-276.5 "/>
<text text-anchor="middle" x="29.5" y="-262.9" font-family="Arial" font-size="12.00" fill="#000000">phase:</text>
<text text-anchor="middle" x="29.5" y="-249.9" font-family="Arial" font-size="12.00" fill="#000000">0.0</text>
<polyline fill="none" stroke="#000000" stroke-width="2" points="59,-242.5 59,-310.5 "/>
<text text-anchor="middle" x="70" y="-273.4" font-family="Arial" font-size="12.00" fill="#000000">0</text>
</g>
<!-- ugen_1 -->
<g id="node2" class="node">
<title>ugen_1</title>
<path fill="#bcd2ee" stroke="#000000" stroke-width="2" d="M12,-121.5C12,-121.5 69,-121.5 69,-121.5 75,-121.5 81,-127.5 81,-133.5 81,-133.5 81,-211.5 81,-211.5 81,-217.5 75,-223.5 69,-223.5 69,-223.5 12,-223.5 12,-223.5 6,-223.5 0,-217.5 0,-211.5 0,-211.5 0,-133.5 0,-133.5 0,-127.5 6,-121.5 12,-121.5"/>
<text text-anchor="middle" x="40.5" y="-209.9" font-family="Arial" font-size="12.00" fill="#000000">SinOsc</text>
<text text-anchor="middle" x="40.5" y="-196.9" font-family="Arial" font-size="12.00" fill="#000000">(audio)</text>
<polyline fill="none" stroke="#000000" stroke-width="2" points="0,-189.5 81,-189.5 "/>
<text text-anchor="middle" x="29.5" y="-175.9" font-family="Arial" font-size="12.00" fill="#000000">frequency:</text>
<text text-anchor="middle" x="29.5" y="-162.9" font-family="Arial" font-size="12.00" fill="#000000">442.0</text>
<polyline fill="none" stroke="#000000" stroke-width="2" points="0,-155.5 59,-155.5 "/>
<text text-anchor="middle" x="29.5" y="-141.9" font-family="Arial" font-size="12.00" fill="#000000">phase:</text>
<text text-anchor="middle" x="29.5" y="-128.9" font-family="Arial" font-size="12.00" fill="#000000">0.0</text>
<polyline fill="none" stroke="#000000" stroke-width="2" points="59,-121.5 59,-189.5 "/>
<text text-anchor="middle" x="70" y="-152.4" font-family="Arial" font-size="12.00" fill="#000000">0</text>
</g>
<!-- ugen_2 -->
<g id="node3" class="node">
<title>ugen_2</title>
<path fill="#bcd2ee" stroke="#000000" stroke-width="2" d="M12,-.5C12,-.5 69,-.5 69,-.5 75,-.5 81,-6.5 81,-12.5 81,-12.5 81,-90.5 81,-90.5 81,-96.5 75,-102.5 69,-102.5 69,-102.5 12,-102.5 12,-102.5 6,-102.5 0,-96.5 0,-90.5 0,-90.5 0,-12.5 0,-12.5 0,-6.5 6,-.5 12,-.5"/>
<text text-anchor="middle" x="40.5" y="-88.9" font-family="Arial" font-size="12.00" fill="#000000">SinOsc</text>
<text text-anchor="middle" x="40.5" y="-75.9" font-family="Arial" font-size="12.00" fill="#000000">(audio)</text>
<polyline fill="none" stroke="#000000" stroke-width="2" points="0,-68.5 81,-68.5 "/>
<text text-anchor="middle" x="29.5" y="-54.9" font-family="Arial" font-size="12.00" fill="#000000">frequency:</text>
<text text-anchor="middle" x="29.5" y="-41.9" font-family="Arial" font-size="12.00" fill="#000000">443.0</text>
<polyline fill="none" stroke="#000000" stroke-width="2" points="0,-34.5 59,-34.5 "/>
<text text-anchor="middle" x="29.5" y="-20.9" font-family="Arial" font-size="12.00" fill="#000000">phase:</text>
<text text-anchor="middle" x="29.5" y="-7.9" font-family="Arial" font-size="12.00" fill="#000000">0.0</text>
<polyline fill="none" stroke="#000000" stroke-width="2" points="59,-.5 59,-68.5 "/>
<text text-anchor="middle" x="70" y="-31.4" font-family="Arial" font-size="12.00" fill="#000000">0</text>
</g>
<!-- ugen_3 -->
<g id="node4" class="node">
<title>ugen_3</title>
<path fill="#bcd2ee" stroke="#000000" stroke-width="2" d="M165,-124C165,-124 225,-124 225,-124 231,-124 237,-130 237,-136 237,-136 237,-209 237,-209 237,-215 231,-221 225,-221 225,-221 165,-221 165,-221 159,-221 153,-215 153,-209 153,-209 153,-136 153,-136 153,-130 159,-124 165,-124"/>
<text text-anchor="middle" x="195" y="-207.4" font-family="Arial" font-size="12.00" fill="#000000">Sum3</text>
<text text-anchor="middle" x="195" y="-194.4" font-family="Arial" font-size="12.00" fill="#000000">(audio)</text>
<polyline fill="none" stroke="#000000" stroke-width="2" points="153,-187 237,-187 "/>
<text text-anchor="middle" x="184" y="-173.4" font-family="Arial" font-size="12.00" fill="#000000">input_one</text>
<polyline fill="none" stroke="#000000" stroke-width="2" points="153,-166 215,-166 "/>
<text text-anchor="middle" x="184" y="-152.4" font-family="Arial" font-size="12.00" fill="#000000">input_two</text>
<polyline fill="none" stroke="#000000" stroke-width="2" points="153,-145 215,-145 "/>
<text text-anchor="middle" x="184" y="-131.4" font-family="Arial" font-size="12.00" fill="#000000">input_three</text>
<polyline fill="none" stroke="#000000" stroke-width="2" points="215,-124 215,-187 "/>
<text text-anchor="middle" x="226" y="-152.4" font-family="Arial" font-size="12.00" fill="#000000">0</text>
</g>
</g>
</svg>
