<?xml version="1.0" encoding="UTF-8" standalone="no"?>
<!DOCTYPE svg PUBLIC "-//W3C//DTD SVG 1.1//EN"
 "http://www.w3.org/Graphics/SVG/1.1/DTD/svg11.dtd">
<!-- Generated by graphviz version 2.49.1 (20210923.0004)
 -->
<!-- Title: synthdef_simple_sine Pages: 1 -->
<svg width="757pt" height="676pt"
 viewBox="0.00 0.00 757.00 675.50" xmlns="http://www.w3.org/2000/svg" xmlns:xlink="http://www.w3.org/1999/xlink">
<g id="graph0" class="graph" transform="scale(1 1) rotate(0) translate(4 671.5)">
<title>synthdef_simple_sine</title>
<!-- ugen_0&#45;&gt;ugen_1 -->
<g id="edge2" class="edge">
<title>ugen_0:e&#45;&gt;ugen_1:w</title>
<path fill="none" stroke="goldenrod" stroke-width="2" d="M73,-530.5C121.07,-530.5 97.34,-609.35 134.75,-621.05"/>
<polygon fill="goldenrod" stroke="goldenrod" stroke-width="2" points="134.61,-624.57 145,-622.5 135.59,-617.64 134.61,-624.57"/>
</g>
<!-- ugen_0&#45;&gt;ugen_2 -->
<g id="edge1" class="edge">
<title>ugen_0:e&#45;&gt;ugen_2:w</title>
<path fill="none" stroke="goldenrod" stroke-width="2" d="M73,-564.5C145.91,-564.5 164.11,-566.6 237,-568.5 265.38,-569.24 274.87,-570.24 298.98,-570.46"/>
<polygon fill="goldenrod" stroke="goldenrod" stroke-width="2" points="298.99,-573.96 309,-570.5 299.02,-566.96 298.99,-573.96"/>
</g>
<!-- ugen_0&#45;&gt;ugen_3 -->
<g id="edge3" class="edge">
<title>ugen_0:e&#45;&gt;ugen_3:w</title>
<path fill="none" stroke="goldenrod" stroke-width="2" d="M73,-496.5C176.87,-496.5 205.35,-496.5 304.37,-496.5"/>
<polygon fill="goldenrod" stroke="goldenrod" stroke-width="2" points="304.5,-500 314.5,-496.5 304.5,-493 304.5,-500"/>
</g>
<!-- ugen_1&#45;&gt;ugen_2 -->
<g id="edge4" class="edge">
<title>ugen_1:e&#45;&gt;ugen_2:w</title>
<path fill="none" stroke="steelblue" stroke-width="2" d="M237,-605.5C265.91,-605.5 274.53,-594.49 298.84,-592"/>
<polygon fill="steelblue" stroke="steelblue" stroke-width="2" points="299.18,-595.49 309,-591.5 298.84,-588.49 299.18,-595.49"/>
</g>
<!-- ugen_2&#45;&gt;ugen_4 -->
<g id="edge5" class="edge">
<title>ugen_2:e&#45;&gt;ugen_4:w</title>
<path fill="none" stroke="steelblue" stroke-width="2" d="M430,-580.5C501.48,-580.5 434.13,-442.08 492.05,-428.56"/>
<polygon fill="steelblue" stroke="steelblue" stroke-width="2" points="492.43,-432.04 502,-427.5 491.69,-425.08 492.43,-432.04"/>
</g>
<!-- ugen_3&#45;&gt;ugen_4 -->
<g id="edge6" class="edge">
<title>ugen_3:e&#45;&gt;ugen_4:w</title>
<path fill="none" stroke="goldenrod" stroke-width="2" d="M424.5,-253.5C497,-253.5 432.73,-391.92 491.88,-405.44"/>
<polygon fill="goldenrod" stroke="goldenrod" stroke-width="2" points="491.69,-408.94 502,-406.5 492.42,-401.98 491.69,-408.94"/>
</g>
<!-- ugen_4&#45;&gt;ugen_5 -->
<g id="edge7" class="edge">
<title>ugen_4:e&#45;&gt;ugen_5:w</title>
<path fill="none" stroke="steelblue" stroke-width="2" d="M623,-416.5C651.7,-416.5 660.66,-425.15 684.89,-427.11"/>
<polygon fill="steelblue" stroke="steelblue" stroke-width="2" points="684.87,-430.61 695,-427.5 685.14,-423.62 684.87,-430.61"/>
</g>
<!-- ugen_4&#45;&gt;ugen_5 -->
<g id="edge8" class="edge">
<title>ugen_4:e&#45;&gt;ugen_5:w</title>
<path fill="none" stroke="steelblue" stroke-width="2" d="M623,-416.5C651.65,-416.5 660.7,-408.64 684.91,-406.86"/>
<polygon fill="steelblue" stroke="steelblue" stroke-width="2" points="685.13,-410.35 695,-406.5 684.88,-403.35 685.13,-410.35"/>
</g>
<!-- ugen_0 -->
<g id="node1" class="node">
<title>ugen_0</title>
<path fill="#eedc82" stroke="black" stroke-width="2" d="M12,-479.5C12,-479.5 61,-479.5 61,-479.5 67,-479.5 73,-485.5 73,-491.5 73,-491.5 73,-603.5 73,-603.5 73,-609.5 67,-615.5 61,-615.5 61,-615.5 12,-615.5 12,-615.5 6,-615.5 0,-609.5 0,-603.5 0,-603.5 0,-491.5 0,-491.5 0,-485.5 6,-479.5 12,-479.5"/>
<text text-anchor="middle" x="36.5" y="-601.9" font-family="Arial" font-size="12.00">Control</text>
<text text-anchor="middle" x="36.5" y="-588.9" font-family="Arial" font-size="12.00">(control)</text>
<polyline fill="none" stroke="black" stroke-width="2" points="0,-581.5 73,-581.5 "/>
<text text-anchor="middle" x="36.5" y="-567.9" font-family="Arial" font-size="12.00">amplitude:</text>
<text text-anchor="middle" x="36.5" y="-554.9" font-family="Arial" font-size="12.00">0.1</text>
<polyline fill="none" stroke="black" stroke-width="2" points="0,-547.5 73,-547.5 "/>
<text text-anchor="middle" x="36.5" y="-533.9" font-family="Arial" font-size="12.00">frequency:</text>
<text text-anchor="middle" x="36.5" y="-520.9" font-family="Arial" font-size="12.00">440.0</text>
<polyline fill="none" stroke="black" stroke-width="2" points="0,-513.5 73,-513.5 "/>
<text text-anchor="middle" x="36.5" y="-499.9" font-family="Arial" font-size="12.00">gate:</text>
<text text-anchor="middle" x="36.5" y="-486.9" font-family="Arial" font-size="12.00">1.0</text>
</g>
<!-- ugen_1 -->
<g id="node2" class="node">
<title>ugen_1</title>
<path fill="#bcd2ee" stroke="black" stroke-width="2" d="M157,-578C157,-578 225,-578 225,-578 231,-578 237,-584 237,-590 237,-590 237,-655 237,-655 237,-661 231,-667 225,-667 225,-667 157,-667 157,-667 151,-667 145,-661 145,-655 145,-655 145,-590 145,-590 145,-584 151,-578 157,-578"/>
<text text-anchor="middle" x="191" y="-653.4" font-family="Arial" font-size="12.00">SinOsc</text>
<text text-anchor="middle" x="191" y="-640.4" font-family="Arial" font-size="12.00">(audio)</text>
<polyline fill="none" stroke="black" stroke-width="2" points="145,-633 237,-633 "/>
<text text-anchor="middle" x="179.5" y="-619.4" font-family="Arial" font-size="12.00">frequency</text>
<polyline fill="none" stroke="black" stroke-width="2" points="145,-612 214,-612 "/>
<text text-anchor="middle" x="179.5" y="-598.4" font-family="Arial" font-size="12.00">phase:</text>
<text text-anchor="middle" x="179.5" y="-585.4" font-family="Arial" font-size="12.00">0.0</text>
<polyline fill="none" stroke="black" stroke-width="2" points="214,-578 214,-633 "/>
<text text-anchor="middle" x="225.5" y="-602.4" font-family="Arial" font-size="12.00">0</text>
</g>
<!-- ugen_2 -->
<g id="node3" class="node">
<title>ugen_2</title>
<path fill="#bcd2ee" stroke="black" stroke-width="2" d="M321,-560C321,-560 418,-560 418,-560 424,-560 430,-566 430,-572 430,-572 430,-637 430,-637 430,-643 424,-649 418,-649 418,-649 321,-649 321,-649 315,-649 309,-643 309,-637 309,-637 309,-572 309,-572 309,-566 315,-560 321,-560"/>
<text text-anchor="middle" x="369.5" y="-635.4" font-family="Arial" font-size="12.00">BinaryOpUGen</text>
<text text-anchor="middle" x="369.5" y="-622.4" font-family="Arial" font-size="12.00">[MULTIPLICATION]</text>
<text text-anchor="middle" x="369.5" y="-609.4" font-family="Arial" font-size="12.00">(audio)</text>
<polyline fill="none" stroke="black" stroke-width="2" points="309,-602 430,-602 "/>
<text text-anchor="middle" x="343.5" y="-588.4" font-family="Arial" font-size="12.00">left</text>
<polyline fill="none" stroke="black" stroke-width="2" points="309,-581 378,-581 "/>
<text text-anchor="middle" x="343.5" y="-567.4" font-family="Arial" font-size="12.00">right</text>
<polyline fill="none" stroke="black" stroke-width="2" points="378,-560 378,-602 "/>
<text text-anchor="middle" x="404" y="-577.9" font-family="Arial" font-size="12.00">0</text>
</g>
<!-- ugen_3 -->
<g id="node4" class="node">
<title>ugen_3</title>
<path fill="#eedc82" stroke="black" stroke-width="2" d="M327.5,-0.5C327.5,-0.5 411.5,-0.5 411.5,-0.5 417.5,-0.5 423.5,-6.5 423.5,-12.5 423.5,-12.5 423.5,-528.5 423.5,-528.5 423.5,-534.5 417.5,-540.5 411.5,-540.5 411.5,-540.5 327.5,-540.5 327.5,-540.5 321.5,-540.5 315.5,-534.5 315.5,-528.5 315.5,-528.5 315.5,-12.5 315.5,-12.5 315.5,-6.5 321.5,-0.5 327.5,-0.5"/>
<text text-anchor="middle" x="369.5" y="-526.9" font-family="Arial" font-size="12.00">EnvGen</text>
<text text-anchor="middle" x="369.5" y="-513.9" font-family="Arial" font-size="12.00">(control)</text>
<polyline fill="none" stroke="black" stroke-width="2" points="315.5,-506.5 423.5,-506.5 "/>
<text text-anchor="middle" x="358" y="-492.9" font-family="Arial" font-size="12.00">gate</text>
<polyline fill="none" stroke="black" stroke-width="2" points="315.5,-485.5 400.5,-485.5 "/>
<text text-anchor="middle" x="358" y="-471.9" font-family="Arial" font-size="12.00">level_scale:</text>
<text text-anchor="middle" x="358" y="-458.9" font-family="Arial" font-size="12.00">1.0</text>
<polyline fill="none" stroke="black" stroke-width="2" points="315.5,-451.5 400.5,-451.5 "/>
<text text-anchor="middle" x="358" y="-437.9" font-family="Arial" font-size="12.00">level_bias:</text>
<text text-anchor="middle" x="358" y="-424.9" font-family="Arial" font-size="12.00">0.0</text>
<polyline fill="none" stroke="black" stroke-width="2" points="315.5,-417.5 400.5,-417.5 "/>
<text text-anchor="middle" x="358" y="-403.9" font-family="Arial" font-size="12.00">time_scale:</text>
<text text-anchor="middle" x="358" y="-390.9" font-family="Arial" font-size="12.00">1.0</text>
<polyline fill="none" stroke="black" stroke-width="2" points="315.5,-383.5 400.5,-383.5 "/>
<text text-anchor="middle" x="358" y="-369.9" font-family="Arial" font-size="12.00">done_action:</text>
<text text-anchor="middle" x="358" y="-356.9" font-family="Arial" font-size="12.00">2.0</text>
<polyline fill="none" stroke="black" stroke-width="2" points="315.5,-349.5 400.5,-349.5 "/>
<text text-anchor="middle" x="358" y="-335.9" font-family="Arial" font-size="12.00">envelope:</text>
<text text-anchor="middle" x="358" y="-322.9" font-family="Arial" font-size="12.00">0.0</text>
<polyline fill="none" stroke="black" stroke-width="2" points="315.5,-315.5 400.5,-315.5 "/>
<text text-anchor="middle" x="358" y="-301.9" font-family="Arial" font-size="12.00">3.0</text>
<polyline fill="none" stroke="black" stroke-width="2" points="315.5,-294.5 400.5,-294.5 "/>
<text text-anchor="middle" x="358" y="-280.9" font-family="Arial" font-size="12.00">2.0</text>
<polyline fill="none" stroke="black" stroke-width="2" points="315.5,-273.5 400.5,-273.5 "/>
<text text-anchor="middle" x="358" y="-259.9" font-family="Arial" font-size="12.00">&#45;99.0</text>
<polyline fill="none" stroke="black" stroke-width="2" points="315.5,-252.5 400.5,-252.5 "/>
<text text-anchor="middle" x="358" y="-238.9" font-family="Arial" font-size="12.00">1.0</text>
<polyline fill="none" stroke="black" stroke-width="2" points="315.5,-231.5 400.5,-231.5 "/>
<text text-anchor="middle" x="358" y="-217.9" font-family="Arial" font-size="12.00">0.01</text>
<polyline fill="none" stroke="black" stroke-width="2" points="315.5,-210.5 400.5,-210.5 "/>
<text text-anchor="middle" x="358" y="-196.9" font-family="Arial" font-size="12.00">5.0</text>
<polyline fill="none" stroke="black" stroke-width="2" points="315.5,-189.5 400.5,-189.5 "/>
<text text-anchor="middle" x="358" y="-175.9" font-family="Arial" font-size="12.00">&#45;4.0</text>
<polyline fill="none" stroke="black" stroke-width="2" points="315.5,-168.5 400.5,-168.5 "/>
<text text-anchor="middle" x="358" y="-154.9" font-family="Arial" font-size="12.00">0.5</text>
<polyline fill="none" stroke="black" stroke-width="2" points="315.5,-147.5 400.5,-147.5 "/>
<text text-anchor="middle" x="358" y="-133.9" font-family="Arial" font-size="12.00">0.3</text>
<polyline fill="none" stroke="black" stroke-width="2" points="315.5,-126.5 400.5,-126.5 "/>
<text text-anchor="middle" x="358" y="-112.9" font-family="Arial" font-size="12.00">5.0</text>
<polyline fill="none" stroke="black" stroke-width="2" points="315.5,-105.5 400.5,-105.5 "/>
<text text-anchor="middle" x="358" y="-91.9" font-family="Arial" font-size="12.00">&#45;4.0</text>
<polyline fill="none" stroke="black" stroke-width="2" points="315.5,-84.5 400.5,-84.5 "/>
<text text-anchor="middle" x="358" y="-70.9" font-family="Arial" font-size="12.00">0.0</text>
<polyline fill="none" stroke="black" stroke-width="2" points="315.5,-63.5 400.5,-63.5 "/>
<text text-anchor="middle" x="358" y="-49.9" font-family="Arial" font-size="12.00">1.0</text>
<polyline fill="none" stroke="black" stroke-width="2" points="315.5,-42.5 400.5,-42.5 "/>
<text text-anchor="middle" x="358" y="-28.9" font-family="Arial" font-size="12.00">5.0</text>
<polyline fill="none" stroke="black" stroke-width="2" points="315.5,-21.5 400.5,-21.5 "/>
<text text-anchor="middle" x="358" y="-7.9" font-family="Arial" font-size="12.00">&#45;4.0</text>
<polyline fill="none" stroke="black" stroke-width="2" points="400.5,-0.5 400.5,-506.5 "/>
<text text-anchor="middle" x="412" y="-250.4" font-family="Arial" font-size="12.00">0</text>
</g>
<!-- ugen_4 -->
<g id="node5" class="node">
<title>ugen_4</title>
<path fill="#bcd2ee" stroke="black" stroke-width="2" d="M514,-396C514,-396 611,-396 611,-396 617,-396 623,-402 623,-408 623,-408 623,-473 623,-473 623,-479 617,-485 611,-485 611,-485 514,-485 514,-485 508,-485 502,-479 502,-473 502,-473 502,-408 502,-408 502,-402 508,-396 514,-396"/>
<text text-anchor="middle" x="562.5" y="-471.4" font-family="Arial" font-size="12.00">BinaryOpUGen</text>
<text text-anchor="middle" x="562.5" y="-458.4" font-family="Arial" font-size="12.00">[MULTIPLICATION]</text>
<text text-anchor="middle" x="562.5" y="-445.4" font-family="Arial" font-size="12.00">(audio)</text>
<polyline fill="none" stroke="black" stroke-width="2" points="502,-438 623,-438 "/>
<text text-anchor="middle" x="536.5" y="-424.4" font-family="Arial" font-size="12.00">left</text>
<polyline fill="none" stroke="black" stroke-width="2" points="502,-417 571,-417 "/>
<text text-anchor="middle" x="536.5" y="-403.4" font-family="Arial" font-size="12.00">right</text>
<polyline fill="none" stroke="black" stroke-width="2" points="571,-396 571,-438 "/>
<text text-anchor="middle" x="597" y="-413.9" font-family="Arial" font-size="12.00">0</text>
</g>
<!-- ugen_5 -->
<g id="node6" class="node">
<title>ugen_5</title>
<path fill="#bcd2ee" stroke="black" stroke-width="2" d="M707,-396.5C707,-396.5 737,-396.5 737,-396.5 743,-396.5 749,-402.5 749,-408.5 749,-408.5 749,-494.5 749,-494.5 749,-500.5 743,-506.5 737,-506.5 737,-506.5 707,-506.5 707,-506.5 701,-506.5 695,-500.5 695,-494.5 695,-494.5 695,-408.5 695,-408.5 695,-402.5 701,-396.5 707,-396.5"/>
<text text-anchor="middle" x="722" y="-492.9" font-family="Arial" font-size="12.00">Out</text>
<text text-anchor="middle" x="722" y="-479.9" font-family="Arial" font-size="12.00">(audio)</text>
<polyline fill="none" stroke="black" stroke-width="2" points="695,-472.5 749,-472.5 "/>
<text text-anchor="middle" x="722" y="-458.9" font-family="Arial" font-size="12.00">bus:</text>
<text text-anchor="middle" x="722" y="-445.9" font-family="Arial" font-size="12.00">0.0</text>
<polyline fill="none" stroke="black" stroke-width="2" points="695,-438.5 749,-438.5 "/>
<text text-anchor="middle" x="722" y="-424.9" font-family="Arial" font-size="12.00">source</text>
<polyline fill="none" stroke="black" stroke-width="2" points="695,-417.5 749,-417.5 "/>
<text text-anchor="middle" x="722" y="-403.9" font-family="Arial" font-size="12.00"> </text>
</g>
</g>
</svg>
