<?xml version="1.0" encoding="UTF-8" standalone="no"?>
<!DOCTYPE svg PUBLIC "-//W3C//DTD SVG 1.1//EN"
 "http://www.w3.org/Graphics/SVG/1.1/DTD/svg11.dtd">
<!-- Generated by graphviz version 2.40.1 (20161225.0304)
 -->
<!-- Title: synthdef_000e997ea0d7e8637c9f9040547baa50 Pages: 1 -->
<svg width="241pt" height="440pt"
 viewBox="0.00 0.00 241.00 439.50" xmlns="http://www.w3.org/2000/svg" xmlns:xlink="http://www.w3.org/1999/xlink">
<g id="graph0" class="graph" transform="scale(1 1) rotate(0) translate(4 435.5)">
<title>synthdef_000e997ea0d7e8637c9f9040547baa50</title>
<!-- ugen_0&#45;&gt;ugen_1 -->
<g id="edge1" class="edge">
<title>ugen_0:e&#45;&gt;ugen_1:w</title>
<path fill="none" stroke="#4682b4" stroke-width="2" d="M81,-79C109.375,-79 118.8795,-79 142.9792,-79"/>
<polygon fill="#4682b4" stroke="#4682b4" stroke-width="2" points="143,-82.5001 153,-79 143,-75.5001 143,-82.5001"/>
</g>
<!-- ugen_2&#45;&gt;ugen_3 -->
<g id="edge2" class="edge">
<title>ugen_2:e&#45;&gt;ugen_3:w</title>
<path fill="none" stroke="#4682b4" stroke-width="2" d="M81,-221C109.375,-221 118.8795,-221 142.9792,-221"/>
<polygon fill="#4682b4" stroke="#4682b4" stroke-width="2" points="143,-224.5001 153,-221 143,-217.5001 143,-224.5001"/>
</g>
<!-- ugen_4&#45;&gt;ugen_5 -->
<g id="edge3" class="edge">
<title>ugen_4:e&#45;&gt;ugen_5:w</title>
<path fill="none" stroke="#4682b4" stroke-width="2" d="M81,-363C109.375,-363 118.8795,-363 142.9792,-363"/>
<polygon fill="#4682b4" stroke="#4682b4" stroke-width="2" points="143,-366.5001 153,-363 143,-359.5001 143,-366.5001"/>
</g>
<!-- ugen_0 -->
<g id="node1" class="node">
<title>ugen_0</title>
<path fill="#bcd2ee" stroke="#000000" stroke-width="2" d="M12,-45C12,-45 69,-45 69,-45 75,-45 81,-51 81,-57 81,-57 81,-135 81,-135 81,-141 75,-147 69,-147 69,-147 12,-147 12,-147 6,-147 0,-141 0,-135 0,-135 0,-57 0,-57 0,-51 6,-45 12,-45"/>
<text text-anchor="middle" x="40.5" y="-133.4" font-family="Arial" font-size="12.00" fill="#000000">SinOsc</text>
<text text-anchor="middle" x="40.5" y="-120.4" font-family="Arial" font-size="12.00" fill="#000000">(audio)</text>
<polyline fill="none" stroke="#000000" stroke-width="2" points="0,-113 81,-113 "/>
<text text-anchor="middle" x="29.5" y="-99.4" font-family="Arial" font-size="12.00" fill="#000000">frequency:</text>
<text text-anchor="middle" x="29.5" y="-86.4" font-family="Arial" font-size="12.00" fill="#000000">440.0</text>
<polyline fill="none" stroke="#000000" stroke-width="2" points="0,-79 59,-79 "/>
<text text-anchor="middle" x="29.5" y="-65.4" font-family="Arial" font-size="12.00" fill="#000000">phase:</text>
<text text-anchor="middle" x="29.5" y="-52.4" font-family="Arial" font-size="12.00" fill="#000000">0.0</text>
<polyline fill="none" stroke="#000000" stroke-width="2" points="59,-45 59,-113 "/>
<text text-anchor="middle" x="70" y="-75.9" font-family="Arial" font-size="12.00" fill="#000000">0</text>
</g>
<!-- ugen_1 -->
<g id="node2" class="node">
<title>ugen_1</title>
<path fill="#bcd2ee" stroke="#000000" stroke-width="2" d="M165,-.5C165,-.5 221,-.5 221,-.5 227,-.5 233,-6.5 233,-12.5 233,-12.5 233,-111.5 233,-111.5 233,-117.5 227,-123.5 221,-123.5 221,-123.5 165,-123.5 165,-123.5 159,-123.5 153,-117.5 153,-111.5 153,-111.5 153,-12.5 153,-12.5 153,-6.5 159,-.5 165,-.5"/>
<text text-anchor="middle" x="193" y="-109.9" font-family="Arial" font-size="12.00" fill="#000000">Clip</text>
<text text-anchor="middle" x="193" y="-96.9" font-family="Arial" font-size="12.00" fill="#000000">(audio)</text>
<polyline fill="none" stroke="#000000" stroke-width="2" points="153,-89.5 233,-89.5 "/>
<text text-anchor="middle" x="182" y="-75.9" font-family="Arial" font-size="12.00" fill="#000000">source</text>
<polyline fill="none" stroke="#000000" stroke-width="2" points="153,-68.5 211,-68.5 "/>
<text text-anchor="middle" x="182" y="-54.9" font-family="Arial" font-size="12.00" fill="#000000">minimum:</text>
<text text-anchor="middle" x="182" y="-41.9" font-family="Arial" font-size="12.00" fill="#000000">&#45;0.25</text>
<polyline fill="none" stroke="#000000" stroke-width="2" points="153,-34.5 211,-34.5 "/>
<text text-anchor="middle" x="182" y="-20.9" font-family="Arial" font-size="12.00" fill="#000000">maximum:</text>
<text text-anchor="middle" x="182" y="-7.9" font-family="Arial" font-size="12.00" fill="#000000">0.25</text>
<polyline fill="none" stroke="#000000" stroke-width="2" points="211,-.5 211,-89.5 "/>
<text text-anchor="middle" x="222" y="-41.9" font-family="Arial" font-size="12.00" fill="#000000">0</text>
</g>
<!-- ugen_2 -->
<g id="node3" class="node">
<title>ugen_2</title>
<path fill="#bcd2ee" stroke="#000000" stroke-width="2" d="M12,-187C12,-187 69,-187 69,-187 75,-187 81,-193 81,-199 81,-199 81,-277 81,-277 81,-283 75,-289 69,-289 69,-289 12,-289 12,-289 6,-289 0,-283 0,-277 0,-277 0,-199 0,-199 0,-193 6,-187 12,-187"/>
<text text-anchor="middle" x="40.5" y="-275.4" font-family="Arial" font-size="12.00" fill="#000000">SinOsc</text>
<text text-anchor="middle" x="40.5" y="-262.4" font-family="Arial" font-size="12.00" fill="#000000">(audio)</text>
<polyline fill="none" stroke="#000000" stroke-width="2" points="0,-255 81,-255 "/>
<text text-anchor="middle" x="29.5" y="-241.4" font-family="Arial" font-size="12.00" fill="#000000">frequency:</text>
<text text-anchor="middle" x="29.5" y="-228.4" font-family="Arial" font-size="12.00" fill="#000000">442.0</text>
<polyline fill="none" stroke="#000000" stroke-width="2" points="0,-221 59,-221 "/>
<text text-anchor="middle" x="29.5" y="-207.4" font-family="Arial" font-size="12.00" fill="#000000">phase:</text>
<text text-anchor="middle" x="29.5" y="-194.4" font-family="Arial" font-size="12.00" fill="#000000">0.0</text>
<polyline fill="none" stroke="#000000" stroke-width="2" points="59,-187 59,-255 "/>
<text text-anchor="middle" x="70" y="-217.9" font-family="Arial" font-size="12.00" fill="#000000">0</text>
</g>
<!-- ugen_3 -->
<g id="node4" class="node">
<title>ugen_3</title>
<path fill="#bcd2ee" stroke="#000000" stroke-width="2" d="M165,-142.5C165,-142.5 221,-142.5 221,-142.5 227,-142.5 233,-148.5 233,-154.5 233,-154.5 233,-253.5 233,-253.5 233,-259.5 227,-265.5 221,-265.5 221,-265.5 165,-265.5 165,-265.5 159,-265.5 153,-259.5 153,-253.5 153,-253.5 153,-154.5 153,-154.5 153,-148.5 159,-142.5 165,-142.5"/>
<text text-anchor="middle" x="193" y="-251.9" font-family="Arial" font-size="12.00" fill="#000000">Clip</text>
<text text-anchor="middle" x="193" y="-238.9" font-family="Arial" font-size="12.00" fill="#000000">(audio)</text>
<polyline fill="none" stroke="#000000" stroke-width="2" points="153,-231.5 233,-231.5 "/>
<text text-anchor="middle" x="182" y="-217.9" font-family="Arial" font-size="12.00" fill="#000000">source</text>
<polyline fill="none" stroke="#000000" stroke-width="2" points="153,-210.5 211,-210.5 "/>
<text text-anchor="middle" x="182" y="-196.9" font-family="Arial" font-size="12.00" fill="#000000">minimum:</text>
<text text-anchor="middle" x="182" y="-183.9" font-family="Arial" font-size="12.00" fill="#000000">&#45;0.25</text>
<polyline fill="none" stroke="#000000" stroke-width="2" points="153,-176.5 211,-176.5 "/>
<text text-anchor="middle" x="182" y="-162.9" font-family="Arial" font-size="12.00" fill="#000000">maximum:</text>
<text text-anchor="middle" x="182" y="-149.9" font-family="Arial" font-size="12.00" fill="#000000">0.25</text>
<polyline fill="none" stroke="#000000" stroke-width="2" points="211,-142.5 211,-231.5 "/>
<text text-anchor="middle" x="222" y="-183.9" font-family="Arial" font-size="12.00" fill="#000000">0</text>
</g>
<!-- ugen_4 -->
<g id="node5" class="node">
<title>ugen_4</title>
<path fill="#bcd2ee" stroke="#000000" stroke-width="2" d="M12,-329C12,-329 69,-329 69,-329 75,-329 81,-335 81,-341 81,-341 81,-419 81,-419 81,-425 75,-431 69,-431 69,-431 12,-431 12,-431 6,-431 0,-425 0,-419 0,-419 0,-341 0,-341 0,-335 6,-329 12,-329"/>
<text text-anchor="middle" x="40.5" y="-417.4" font-family="Arial" font-size="12.00" fill="#000000">SinOsc</text>
<text text-anchor="middle" x="40.5" y="-404.4" font-family="Arial" font-size="12.00" fill="#000000">(audio)</text>
<polyline fill="none" stroke="#000000" stroke-width="2" points="0,-397 81,-397 "/>
<text text-anchor="middle" x="29.5" y="-383.4" font-family="Arial" font-size="12.00" fill="#000000">frequency:</text>
<text text-anchor="middle" x="29.5" y="-370.4" font-family="Arial" font-size="12.00" fill="#000000">443.0</text>
<polyline fill="none" stroke="#000000" stroke-width="2" points="0,-363 59,-363 "/>
<text text-anchor="middle" x="29.5" y="-349.4" font-family="Arial" font-size="12.00" fill="#000000">phase:</text>
<text text-anchor="middle" x="29.5" y="-336.4" font-family="Arial" font-size="12.00" fill="#000000">0.0</text>
<polyline fill="none" stroke="#000000" stroke-width="2" points="59,-329 59,-397 "/>
<text text-anchor="middle" x="70" y="-359.9" font-family="Arial" font-size="12.00" fill="#000000">0</text>
</g>
<!-- ugen_5 -->
<g id="node6" class="node">
<title>ugen_5</title>
<path fill="#bcd2ee" stroke="#000000" stroke-width="2" d="M165,-284.5C165,-284.5 221,-284.5 221,-284.5 227,-284.5 233,-290.5 233,-296.5 233,-296.5 233,-395.5 233,-395.5 233,-401.5 227,-407.5 221,-407.5 221,-407.5 165,-407.5 165,-407.5 159,-407.5 153,-401.5 153,-395.5 153,-395.5 153,-296.5 153,-296.5 153,-290.5 159,-284.5 165,-284.5"/>
<text text-anchor="middle" x="193" y="-393.9" font-family="Arial" font-size="12.00" fill="#000000">Clip</text>
<text text-anchor="middle" x="193" y="-380.9" font-family="Arial" font-size="12.00" fill="#000000">(audio)</text>
<polyline fill="none" stroke="#000000" stroke-width="2" points="153,-373.5 233,-373.5 "/>
<text text-anchor="middle" x="182" y="-359.9" font-family="Arial" font-size="12.00" fill="#000000">source</text>
<polyline fill="none" stroke="#000000" stroke-width="2" points="153,-352.5 211,-352.5 "/>
<text text-anchor="middle" x="182" y="-338.9" font-family="Arial" font-size="12.00" fill="#000000">minimum:</text>
<text text-anchor="middle" x="182" y="-325.9" font-family="Arial" font-size="12.00" fill="#000000">&#45;0.25</text>
<polyline fill="none" stroke="#000000" stroke-width="2" points="153,-318.5 211,-318.5 "/>
<text text-anchor="middle" x="182" y="-304.9" font-family="Arial" font-size="12.00" fill="#000000">maximum:</text>
<text text-anchor="middle" x="182" y="-291.9" font-family="Arial" font-size="12.00" fill="#000000">0.25</text>
<polyline fill="none" stroke="#000000" stroke-width="2" points="211,-284.5 211,-373.5 "/>
<text text-anchor="middle" x="222" y="-325.9" font-family="Arial" font-size="12.00" fill="#000000">0</text>
</g>
</g>
</svg>
