<?xml version="1.0" encoding="UTF-8" standalone="no"?>
<!DOCTYPE svg PUBLIC "-//W3C//DTD SVG 1.1//EN"
 "http://www.w3.org/Graphics/SVG/1.1/DTD/svg11.dtd">
<!-- Generated by graphviz version 2.43.0 (0)
 -->
<!-- Title: synthdef_2cab916a99796ae78faab1257c0beaff Pages: 1 -->
<svg width="271pt" height="232pt"
 viewBox="0.00 0.00 271.00 232.00" xmlns="http://www.w3.org/2000/svg" xmlns:xlink="http://www.w3.org/1999/xlink">
<g id="graph0" class="graph" transform="scale(1 1) rotate(0) translate(4 228)">
<title>synthdef_2cab916a99796ae78faab1257c0beaff</title>
<!-- ugen_0&#45;&gt;ugen_1 -->
<g id="edge1" class="edge">
<title>ugen_0:e&#45;&gt;ugen_1:w</title>
<path fill="none" stroke="steelblue" stroke-width="2" d="M95,-34.5C123.38,-34.5 132.88,-34.5 156.98,-34.5"/>
<polygon fill="steelblue" stroke="steelblue" stroke-width="2" points="157,-38 167,-34.5 157,-31 157,-38"/>
</g>
<!-- ugen_2&#45;&gt;ugen_3 -->
<g id="edge2" class="edge">
<title>ugen_2:e&#45;&gt;ugen_3:w</title>
<path fill="none" stroke="steelblue" stroke-width="2" d="M95,-155.5C123.38,-155.5 132.88,-155.5 156.98,-155.5"/>
<polygon fill="steelblue" stroke="steelblue" stroke-width="2" points="157,-159 167,-155.5 157,-152 157,-159"/>
</g>
<!-- ugen_0 -->
<g id="node1" class="node">
<title>ugen_0</title>
<path fill="#bcd2ee" stroke="black" stroke-width="2" d="M12,-0.5C12,-0.5 83,-0.5 83,-0.5 89,-0.5 95,-6.5 95,-12.5 95,-12.5 95,-90.5 95,-90.5 95,-96.5 89,-102.5 83,-102.5 83,-102.5 12,-102.5 12,-102.5 6,-102.5 0,-96.5 0,-90.5 0,-90.5 0,-12.5 0,-12.5 0,-6.5 6,-0.5 12,-0.5"/>
<text text-anchor="middle" x="47.5" y="-88.9" font-family="Arial" font-size="12.00">SinOsc</text>
<text text-anchor="middle" x="47.5" y="-75.9" font-family="Arial" font-size="12.00">(audio)</text>
<polyline fill="none" stroke="black" stroke-width="2" points="0,-68.5 95,-68.5 "/>
<text text-anchor="middle" x="36" y="-54.9" font-family="Arial" font-size="12.00">frequency:</text>
<text text-anchor="middle" x="36" y="-41.9" font-family="Arial" font-size="12.00">440.0</text>
<polyline fill="none" stroke="black" stroke-width="2" points="0,-34.5 72,-34.5 "/>
<text text-anchor="middle" x="36" y="-20.9" font-family="Arial" font-size="12.00">phase:</text>
<text text-anchor="middle" x="36" y="-7.9" font-family="Arial" font-size="12.00">0.0</text>
<polyline fill="none" stroke="black" stroke-width="2" points="72,-0.5 72,-68.5 "/>
<text text-anchor="middle" x="83.5" y="-31.4" font-family="Arial" font-size="12.00">0</text>
</g>
<!-- ugen_1 -->
<g id="node2" class="node">
<title>ugen_1</title>
<path fill="#bcd2ee" stroke="black" stroke-width="2" d="M179,-24.5C179,-24.5 251,-24.5 251,-24.5 257,-24.5 263,-30.5 263,-36.5 263,-36.5 263,-80.5 263,-80.5 263,-86.5 257,-92.5 251,-92.5 251,-92.5 179,-92.5 179,-92.5 173,-92.5 167,-86.5 167,-80.5 167,-80.5 167,-36.5 167,-36.5 167,-30.5 173,-24.5 179,-24.5"/>
<text text-anchor="middle" x="215" y="-78.9" font-family="Arial" font-size="12.00">UnaryOpUGen</text>
<text text-anchor="middle" x="215" y="-65.9" font-family="Arial" font-size="12.00">[RAND]</text>
<text text-anchor="middle" x="215" y="-52.9" font-family="Arial" font-size="12.00">(audio)</text>
<polyline fill="none" stroke="black" stroke-width="2" points="167,-45.5 263,-45.5 "/>
<text text-anchor="middle" x="198.5" y="-31.9" font-family="Arial" font-size="12.00">source</text>
<polyline fill="none" stroke="black" stroke-width="2" points="230,-24.5 230,-45.5 "/>
<text text-anchor="middle" x="246.5" y="-31.9" font-family="Arial" font-size="12.00">0</text>
</g>
<!-- ugen_2 -->
<g id="node3" class="node">
<title>ugen_2</title>
<path fill="#bcd2ee" stroke="black" stroke-width="2" d="M12,-121.5C12,-121.5 83,-121.5 83,-121.5 89,-121.5 95,-127.5 95,-133.5 95,-133.5 95,-211.5 95,-211.5 95,-217.5 89,-223.5 83,-223.5 83,-223.5 12,-223.5 12,-223.5 6,-223.5 0,-217.5 0,-211.5 0,-211.5 0,-133.5 0,-133.5 0,-127.5 6,-121.5 12,-121.5"/>
<text text-anchor="middle" x="47.5" y="-209.9" font-family="Arial" font-size="12.00">SinOsc</text>
<text text-anchor="middle" x="47.5" y="-196.9" font-family="Arial" font-size="12.00">(audio)</text>
<polyline fill="none" stroke="black" stroke-width="2" points="0,-189.5 95,-189.5 "/>
<text text-anchor="middle" x="36" y="-175.9" font-family="Arial" font-size="12.00">frequency:</text>
<text text-anchor="middle" x="36" y="-162.9" font-family="Arial" font-size="12.00">443.0</text>
<polyline fill="none" stroke="black" stroke-width="2" points="0,-155.5 72,-155.5 "/>
<text text-anchor="middle" x="36" y="-141.9" font-family="Arial" font-size="12.00">phase:</text>
<text text-anchor="middle" x="36" y="-128.9" font-family="Arial" font-size="12.00">0.0</text>
<polyline fill="none" stroke="black" stroke-width="2" points="72,-121.5 72,-189.5 "/>
<text text-anchor="middle" x="83.5" y="-152.4" font-family="Arial" font-size="12.00">0</text>
</g>
<!-- ugen_3 -->
<g id="node4" class="node">
<title>ugen_3</title>
<path fill="#bcd2ee" stroke="black" stroke-width="2" d="M179,-145.5C179,-145.5 251,-145.5 251,-145.5 257,-145.5 263,-151.5 263,-157.5 263,-157.5 263,-201.5 263,-201.5 263,-207.5 257,-213.5 251,-213.5 251,-213.5 179,-213.5 179,-213.5 173,-213.5 167,-207.5 167,-201.5 167,-201.5 167,-157.5 167,-157.5 167,-151.5 173,-145.5 179,-145.5"/>
<text text-anchor="middle" x="215" y="-199.9" font-family="Arial" font-size="12.00">UnaryOpUGen</text>
<text text-anchor="middle" x="215" y="-186.9" font-family="Arial" font-size="12.00">[RAND]</text>
<text text-anchor="middle" x="215" y="-173.9" font-family="Arial" font-size="12.00">(audio)</text>
<polyline fill="none" stroke="black" stroke-width="2" points="167,-166.5 263,-166.5 "/>
<text text-anchor="middle" x="198.5" y="-152.9" font-family="Arial" font-size="12.00">source</text>
<polyline fill="none" stroke="black" stroke-width="2" points="230,-145.5 230,-166.5 "/>
<text text-anchor="middle" x="246.5" y="-152.9" font-family="Arial" font-size="12.00">0</text>
</g>
</g>
</svg>
