<?xml version="1.0" encoding="UTF-8" standalone="no"?>
<!DOCTYPE svg PUBLIC "-//W3C//DTD SVG 1.1//EN"
 "http://www.w3.org/Graphics/SVG/1.1/DTD/svg11.dtd">
<!-- Generated by graphviz version 2.49.1 (20210923.0004)
 -->
<!-- Title: synthdef_e87d41791847aa80d8a3e56318e506e4 Pages: 1 -->
<svg width="259pt" height="111pt"
 viewBox="0.00 0.00 259.00 111.00" xmlns="http://www.w3.org/2000/svg" xmlns:xlink="http://www.w3.org/1999/xlink">
<g id="graph0" class="graph" transform="scale(1 1) rotate(0) translate(4 107)">
<title>synthdef_e87d41791847aa80d8a3e56318e506e4</title>
<!-- ugen_0&#45;&gt;ugen_1 -->
<g id="edge1" class="edge">
<title>ugen_0:e&#45;&gt;ugen_1:w</title>
<path fill="none" stroke="steelblue" stroke-width="2" d="M81,-44.5C109.38,-44.5 118.88,-44.5 142.98,-44.5"/>
<polygon fill="steelblue" stroke="steelblue" stroke-width="2" points="143,-48 153,-44.5 143,-41 143,-48"/>
</g>
<!-- ugen_0 -->
<g id="node1" class="node">
<title>ugen_0</title>
<path fill="#bcd2ee" stroke="black" stroke-width="2" d="M12,-27.5C12,-27.5 69,-27.5 69,-27.5 75,-27.5 81,-33.5 81,-39.5 81,-39.5 81,-83.5 81,-83.5 81,-89.5 75,-95.5 69,-95.5 69,-95.5 12,-95.5 12,-95.5 6,-95.5 0,-89.5 0,-83.5 0,-83.5 0,-39.5 0,-39.5 0,-33.5 6,-27.5 12,-27.5"/>
<text text-anchor="middle" x="40.5" y="-81.9" font-family="Arial" font-size="12.00">Dust</text>
<text text-anchor="middle" x="40.5" y="-68.9" font-family="Arial" font-size="12.00">(audio)</text>
<polyline fill="none" stroke="black" stroke-width="2" points="0,-61.5 81,-61.5 "/>
<text text-anchor="middle" x="29" y="-47.9" font-family="Arial" font-size="12.00">density:</text>
<text text-anchor="middle" x="29" y="-34.9" font-family="Arial" font-size="12.00">11.5</text>
<polyline fill="none" stroke="black" stroke-width="2" points="58,-27.5 58,-61.5 "/>
<text text-anchor="middle" x="69.5" y="-41.4" font-family="Arial" font-size="12.00">0</text>
</g>
<!-- ugen_1 -->
<g id="node2" class="node">
<title>ugen_1</title>
<path fill="#bcd2ee" stroke="black" stroke-width="2" d="M165,-0.5C165,-0.5 239,-0.5 239,-0.5 245,-0.5 251,-6.5 251,-12.5 251,-12.5 251,-90.5 251,-90.5 251,-96.5 245,-102.5 239,-102.5 239,-102.5 165,-102.5 165,-102.5 159,-102.5 153,-96.5 153,-90.5 153,-90.5 153,-12.5 153,-12.5 153,-6.5 159,-0.5 165,-0.5"/>
<text text-anchor="middle" x="202" y="-88.9" font-family="Arial" font-size="12.00">BinaryOpUGen</text>
<text text-anchor="middle" x="202" y="-75.9" font-family="Arial" font-size="12.00">[LESS_THAN]</text>
<text text-anchor="middle" x="202" y="-62.9" font-family="Arial" font-size="12.00">(audio)</text>
<polyline fill="none" stroke="black" stroke-width="2" points="153,-55.5 251,-55.5 "/>
<text text-anchor="middle" x="182.5" y="-41.9" font-family="Arial" font-size="12.00">left</text>
<polyline fill="none" stroke="black" stroke-width="2" points="153,-34.5 212,-34.5 "/>
<text text-anchor="middle" x="182.5" y="-20.9" font-family="Arial" font-size="12.00">right:</text>
<text text-anchor="middle" x="182.5" y="-7.9" font-family="Arial" font-size="12.00">4.0</text>
<polyline fill="none" stroke="black" stroke-width="2" points="212,-0.5 212,-55.5 "/>
<text text-anchor="middle" x="231.5" y="-24.9" font-family="Arial" font-size="12.00">0</text>
</g>
</g>
</svg>
