<?xml version="1.0" encoding="UTF-8" standalone="no"?>
<!DOCTYPE svg PUBLIC "-//W3C//DTD SVG 1.1//EN"
 "http://www.w3.org/Graphics/SVG/1.1/DTD/svg11.dtd">
<!-- Generated by graphviz version 2.43.0 (0)
 -->
<!-- Title: synthdef_... Pages: 1 -->
<svg width="486pt" height="316pt"
 viewBox="0.00 0.00 486.00 315.50" xmlns="http://www.w3.org/2000/svg" xmlns:xlink="http://www.w3.org/1999/xlink">
<g id="graph0" class="graph" transform="scale(1 1) rotate(0) translate(4 311.5)">
<title>synthdef_...</title>
<!-- ugen_0&#45;&gt;ugen_1 -->
<g id="edge1" class="edge">
<title>ugen_0:e&#45;&gt;ugen_1:w</title>
<path fill="none" stroke="steelblue" stroke-width="2" d="M62,-208.5C98.25,-208.5 95.08,-252.85 123.94,-261.17"/>
<polygon fill="steelblue" stroke="steelblue" stroke-width="2" points="123.63,-264.65 134,-262.5 124.55,-257.72 123.63,-264.65"/>
</g>
<!-- ugen_0&#45;&gt;ugen_2 -->
<g id="edge2" class="edge">
<title>ugen_0:e&#45;&gt;ugen_2:w</title>
<path fill="none" stroke="steelblue" stroke-width="2" d="M62,-208.5C97.39,-208.5 99.47,-182.24 134,-174.5 203.39,-158.94 222.97,-171.06 294,-174.5 322.48,-175.88 331.78,-180.32 355.94,-181.3"/>
<polygon fill="steelblue" stroke="steelblue" stroke-width="2" points="355.93,-184.8 366,-181.5 356.07,-177.81 355.93,-184.8"/>
</g>
<!-- ugen_1&#45;&gt;ugen_2 -->
<g id="edge3" class="edge">
<title>ugen_1:e&#45;&gt;ugen_2:w</title>
<path fill="none" stroke="steelblue" stroke-width="2" d="M294,-228.5C324.3,-228.5 330.75,-207.88 355.84,-203.37"/>
<polygon fill="steelblue" stroke="steelblue" stroke-width="2" points="356.33,-206.84 366,-202.5 355.74,-199.86 356.33,-206.84"/>
</g>
<!-- ugen_0 -->
<g id="node1" class="node">
<title>ugen_0</title>
<path fill="#bcd2ee" stroke="black" stroke-width="2" d="M12,-191.5C12,-191.5 50,-191.5 50,-191.5 56,-191.5 62,-197.5 62,-203.5 62,-203.5 62,-247.5 62,-247.5 62,-253.5 56,-259.5 50,-259.5 50,-259.5 12,-259.5 12,-259.5 6,-259.5 0,-253.5 0,-247.5 0,-247.5 0,-203.5 0,-203.5 0,-197.5 6,-191.5 12,-191.5"/>
<text text-anchor="middle" x="31" y="-245.9" font-family="Arial" font-size="12.00">In</text>
<text text-anchor="middle" x="31" y="-232.9" font-family="Arial" font-size="12.00">(audio)</text>
<polyline fill="none" stroke="black" stroke-width="2" points="0,-225.5 62,-225.5 "/>
<text text-anchor="middle" x="19.5" y="-211.9" font-family="Arial" font-size="12.00">bus:</text>
<text text-anchor="middle" x="19.5" y="-198.9" font-family="Arial" font-size="12.00">0.0</text>
<polyline fill="none" stroke="black" stroke-width="2" points="39,-191.5 39,-225.5 "/>
<text text-anchor="middle" x="50.5" y="-205.4" font-family="Arial" font-size="12.00">0</text>
</g>
<!-- ugen_1 -->
<g id="node2" class="node">
<title>ugen_1</title>
<path fill="#bcd2ee" stroke="black" stroke-width="2" d="M146,-184C146,-184 282,-184 282,-184 288,-184 294,-190 294,-196 294,-196 294,-295 294,-295 294,-301 288,-307 282,-307 282,-307 146,-307 146,-307 140,-307 134,-301 134,-295 134,-295 134,-196 134,-196 134,-190 140,-184 146,-184"/>
<text text-anchor="middle" x="214" y="-293.4" font-family="Arial" font-size="12.00">DelayN</text>
<text text-anchor="middle" x="214" y="-280.4" font-family="Arial" font-size="12.00">(audio)</text>
<polyline fill="none" stroke="black" stroke-width="2" points="134,-273 294,-273 "/>
<text text-anchor="middle" x="202.5" y="-259.4" font-family="Arial" font-size="12.00">source</text>
<polyline fill="none" stroke="black" stroke-width="2" points="134,-252 271,-252 "/>
<text text-anchor="middle" x="202.5" y="-238.4" font-family="Arial" font-size="12.00">maximum_delay_time:</text>
<text text-anchor="middle" x="202.5" y="-225.4" font-family="Arial" font-size="12.00">0.01</text>
<polyline fill="none" stroke="black" stroke-width="2" points="134,-218 271,-218 "/>
<text text-anchor="middle" x="202.5" y="-204.4" font-family="Arial" font-size="12.00">delay_time:</text>
<text text-anchor="middle" x="202.5" y="-191.4" font-family="Arial" font-size="12.00">0.01</text>
<polyline fill="none" stroke="black" stroke-width="2" points="271,-184 271,-273 "/>
<text text-anchor="middle" x="282.5" y="-225.4" font-family="Arial" font-size="12.00">0</text>
</g>
<!-- ugen_2 -->
<g id="node3" class="node">
<title>ugen_2</title>
<path fill="#bcd2ee" stroke="black" stroke-width="2" d="M378,-0.5C378,-0.5 466,-0.5 466,-0.5 472,-0.5 478,-6.5 478,-12.5 478,-12.5 478,-234.5 478,-234.5 478,-240.5 472,-246.5 466,-246.5 466,-246.5 378,-246.5 378,-246.5 372,-246.5 366,-240.5 366,-234.5 366,-234.5 366,-12.5 366,-12.5 366,-6.5 372,-0.5 378,-0.5"/>
<text text-anchor="middle" x="422" y="-232.9" font-family="Arial" font-size="12.00">Compander</text>
<text text-anchor="middle" x="422" y="-219.9" font-family="Arial" font-size="12.00">(audio)</text>
<polyline fill="none" stroke="black" stroke-width="2" points="366,-212.5 478,-212.5 "/>
<text text-anchor="middle" x="410.5" y="-198.9" font-family="Arial" font-size="12.00">source</text>
<polyline fill="none" stroke="black" stroke-width="2" points="366,-191.5 455,-191.5 "/>
<text text-anchor="middle" x="410.5" y="-177.9" font-family="Arial" font-size="12.00">control</text>
<polyline fill="none" stroke="black" stroke-width="2" points="366,-170.5 455,-170.5 "/>
<text text-anchor="middle" x="410.5" y="-156.9" font-family="Arial" font-size="12.00">threshold:</text>
<text text-anchor="middle" x="410.5" y="-143.9" font-family="Arial" font-size="12.00">0.5</text>
<polyline fill="none" stroke="black" stroke-width="2" points="366,-136.5 455,-136.5 "/>
<text text-anchor="middle" x="410.5" y="-122.9" font-family="Arial" font-size="12.00">slope_below:</text>
<text text-anchor="middle" x="410.5" y="-109.9" font-family="Arial" font-size="12.00">1.0</text>
<polyline fill="none" stroke="black" stroke-width="2" points="366,-102.5 455,-102.5 "/>
<text text-anchor="middle" x="410.5" y="-88.9" font-family="Arial" font-size="12.00">slope_above:</text>
<text text-anchor="middle" x="410.5" y="-75.9" font-family="Arial" font-size="12.00">1.0</text>
<polyline fill="none" stroke="black" stroke-width="2" points="366,-68.5 455,-68.5 "/>
<text text-anchor="middle" x="410.5" y="-54.9" font-family="Arial" font-size="12.00">clamp_time:</text>
<text text-anchor="middle" x="410.5" y="-41.9" font-family="Arial" font-size="12.00">0.01</text>
<polyline fill="none" stroke="black" stroke-width="2" points="366,-34.5 455,-34.5 "/>
<text text-anchor="middle" x="410.5" y="-20.9" font-family="Arial" font-size="12.00">relax_time:</text>
<text text-anchor="middle" x="410.5" y="-7.9" font-family="Arial" font-size="12.00">0.1</text>
<polyline fill="none" stroke="black" stroke-width="2" points="455,-0.5 455,-212.5 "/>
<text text-anchor="middle" x="466.5" y="-103.4" font-family="Arial" font-size="12.00">0</text>
</g>
</g>
</svg>
