<?xml version="1.0" encoding="UTF-8" standalone="no"?>
<!DOCTYPE svg PUBLIC "-//W3C//DTD SVG 1.1//EN"
 "http://www.w3.org/Graphics/SVG/1.1/DTD/svg11.dtd">
<!-- Generated by graphviz version 2.49.1 (20210923.0004)
 -->
<!-- Title: synthdef_8bc96b58a52bebf76c1f5206d5ec376a Pages: 1 -->
<svg width="1286pt" height="602pt"
 viewBox="0.00 0.00 1286.00 602.00" xmlns="http://www.w3.org/2000/svg" xmlns:xlink="http://www.w3.org/1999/xlink">
<g id="graph0" class="graph" transform="scale(1 1) rotate(0) translate(4 598)">
<title>synthdef_8bc96b58a52bebf76c1f5206d5ec376a</title>
<!-- ugen_0&#45;&gt;ugen_1 -->
<g id="edge1" class="edge">
<title>ugen_0:e&#45;&gt;ugen_1:w</title>
<path fill="none" stroke="salmon" stroke-width="2" d="M57,-542.5C95.81,-542.5 102.14,-512.42 135.36,-507.25"/>
<polygon fill="salmon" stroke="salmon" stroke-width="2" points="135.79,-510.73 145.5,-506.5 135.27,-503.75 135.79,-510.73"/>
</g>
<!-- ugen_0&#45;&gt;ugen_14 -->
<g id="edge2" class="edge">
<title>ugen_0:e&#45;&gt;ugen_14:w</title>
<path fill="none" stroke="salmon" stroke-width="2" d="M57,-542.5C89.98,-542.5 96.44,-555.21 129,-560.5 237.24,-578.08 265.34,-579.5 375,-579.5 375,-579.5 375,-579.5 841,-579.5 1028.17,-579.5 1033.26,-393.41 1213.85,-386.69"/>
<polygon fill="salmon" stroke="salmon" stroke-width="2" points="1214.07,-390.18 1224,-386.5 1213.94,-383.18 1214.07,-390.18"/>
</g>
<!-- ugen_1&#45;&gt;ugen_4 -->
<g id="edge3" class="edge">
<title>ugen_1:e&#45;&gt;ugen_4:w</title>
<path fill="none" stroke="steelblue" stroke-width="2" d="M207.5,-506.5C244.29,-506.5 253.94,-489.1 285.85,-485.98"/>
<polygon fill="steelblue" stroke="steelblue" stroke-width="2" points="286.18,-489.47 296,-485.5 285.85,-482.47 286.18,-489.47"/>
</g>
<!-- ugen_10&#45;&gt;ugen_13 -->
<g id="edge4" class="edge">
<title>ugen_10:e&#45;&gt;ugen_13:w</title>
<path fill="none" stroke="steelblue" stroke-width="2" d="M920,-291.5C953.08,-291.5 955.11,-258.41 981.89,-251.68"/>
<polygon fill="steelblue" stroke="steelblue" stroke-width="2" points="982.47,-255.14 992,-250.5 981.66,-248.19 982.47,-255.14"/>
</g>
<!-- ugen_11&#45;&gt;ugen_13 -->
<g id="edge5" class="edge">
<title>ugen_11:e&#45;&gt;ugen_13:w</title>
<path fill="none" stroke="salmon" stroke-width="2" d="M889,-34.5C962.63,-34.5 919.3,-161.68 981.96,-173.61"/>
<polygon fill="salmon" stroke="salmon" stroke-width="2" points="981.73,-177.1 992,-174.5 982.35,-170.13 981.73,-177.1"/>
</g>
<!-- ugen_12&#45;&gt;ugen_13 -->
<g id="edge6" class="edge">
<title>ugen_12:e&#45;&gt;ugen_13:w</title>
<path fill="none" stroke="salmon" stroke-width="2" d="M889,-155.5C934.56,-155.5 941.97,-189.93 982.01,-194.9"/>
<polygon fill="salmon" stroke="salmon" stroke-width="2" points="981.81,-198.4 992,-195.5 982.23,-191.41 981.81,-198.4"/>
</g>
<!-- ugen_13&#45;&gt;ugen_14 -->
<g id="edge7" class="edge">
<title>ugen_13:e&#45;&gt;ugen_14:w</title>
<path fill="none" stroke="steelblue" stroke-width="2" d="M1152,-212.5C1223.48,-212.5 1156.13,-350.92 1214.05,-364.44"/>
<polygon fill="steelblue" stroke="steelblue" stroke-width="2" points="1213.69,-367.92 1224,-365.5 1214.43,-360.96 1213.69,-367.92"/>
</g>
<!-- ugen_2&#45;&gt;ugen_4 -->
<g id="edge8" class="edge">
<title>ugen_2:e&#45;&gt;ugen_4:w</title>
<path fill="none" stroke="salmon" stroke-width="2" d="M224,-287.5C283.15,-287.5 239.14,-395.17 285.8,-408.21"/>
<polygon fill="salmon" stroke="salmon" stroke-width="2" points="285.64,-411.72 296,-409.5 286.52,-404.78 285.64,-411.72"/>
</g>
<!-- ugen_3&#45;&gt;ugen_4 -->
<g id="edge9" class="edge">
<title>ugen_3:e&#45;&gt;ugen_4:w</title>
<path fill="none" stroke="salmon" stroke-width="2" d="M224,-408.5C253.8,-408.5 261.09,-425.95 285.97,-429.77"/>
<polygon fill="salmon" stroke="salmon" stroke-width="2" points="285.77,-433.26 296,-430.5 286.28,-426.28 285.77,-433.26"/>
</g>
<!-- ugen_4&#45;&gt;ugen_7 -->
<g id="edge10" class="edge">
<title>ugen_4:e&#45;&gt;ugen_7:w</title>
<path fill="none" stroke="steelblue" stroke-width="2" d="M456,-447.5C488.89,-447.5 491.25,-415.21 517.94,-408.65"/>
<polygon fill="steelblue" stroke="steelblue" stroke-width="2" points="518.46,-412.12 528,-407.5 517.67,-405.16 518.46,-412.12"/>
</g>
<!-- ugen_5&#45;&gt;ugen_7 -->
<g id="edge11" class="edge">
<title>ugen_5:e&#45;&gt;ugen_7:w</title>
<path fill="none" stroke="salmon" stroke-width="2" d="M425,-190.5C498.97,-190.5 455,-318.59 517.92,-330.6"/>
<polygon fill="salmon" stroke="salmon" stroke-width="2" points="517.73,-334.1 528,-331.5 518.35,-327.12 517.73,-334.1"/>
</g>
<!-- ugen_6&#45;&gt;ugen_7 -->
<g id="edge12" class="edge">
<title>ugen_6:e&#45;&gt;ugen_7:w</title>
<path fill="none" stroke="salmon" stroke-width="2" d="M425,-311.5C470.71,-311.5 477.85,-346.79 517.99,-351.89"/>
<polygon fill="salmon" stroke="salmon" stroke-width="2" points="517.81,-355.38 528,-352.5 518.23,-348.4 517.81,-355.38"/>
</g>
<!-- ugen_7&#45;&gt;ugen_10 -->
<g id="edge13" class="edge">
<title>ugen_7:e&#45;&gt;ugen_10:w</title>
<path fill="none" stroke="steelblue" stroke-width="2" d="M688,-369.5C720.89,-369.5 723.25,-337.21 749.94,-330.65"/>
<polygon fill="steelblue" stroke="steelblue" stroke-width="2" points="750.46,-334.12 760,-329.5 749.67,-327.16 750.46,-334.12"/>
</g>
<!-- ugen_8&#45;&gt;ugen_10 -->
<g id="edge14" class="edge">
<title>ugen_8:e&#45;&gt;ugen_10:w</title>
<path fill="none" stroke="salmon" stroke-width="2" d="M657,-112.5C730.97,-112.5 687,-240.59 749.92,-252.6"/>
<polygon fill="salmon" stroke="salmon" stroke-width="2" points="749.73,-256.1 760,-253.5 750.35,-249.12 749.73,-256.1"/>
</g>
<!-- ugen_9&#45;&gt;ugen_10 -->
<g id="edge15" class="edge">
<title>ugen_9:e&#45;&gt;ugen_10:w</title>
<path fill="none" stroke="salmon" stroke-width="2" d="M657,-233.5C702.71,-233.5 709.85,-268.79 749.99,-273.89"/>
<polygon fill="salmon" stroke="salmon" stroke-width="2" points="749.81,-277.38 760,-274.5 750.23,-270.4 749.81,-277.38"/>
</g>
<!-- ugen_0 -->
<g id="node1" class="node">
<title>ugen_0</title>
<path fill="#ee9572" stroke="black" stroke-width="2" d="M12,-525.5C12,-525.5 45,-525.5 45,-525.5 51,-525.5 57,-531.5 57,-537.5 57,-537.5 57,-581.5 57,-581.5 57,-587.5 51,-593.5 45,-593.5 45,-593.5 12,-593.5 12,-593.5 6,-593.5 0,-587.5 0,-581.5 0,-581.5 0,-537.5 0,-537.5 0,-531.5 6,-525.5 12,-525.5"/>
<text text-anchor="middle" x="28.5" y="-579.9" font-family="Arial" font-size="12.00">Control</text>
<text text-anchor="middle" x="28.5" y="-566.9" font-family="Arial" font-size="12.00">(scalar)</text>
<polyline fill="none" stroke="black" stroke-width="2" points="0,-559.5 57,-559.5 "/>
<text text-anchor="middle" x="28.5" y="-545.9" font-family="Arial" font-size="12.00">out:</text>
<text text-anchor="middle" x="28.5" y="-532.9" font-family="Arial" font-size="12.00">0.0</text>
</g>
<!-- ugen_1 -->
<g id="node2" class="node">
<title>ugen_1</title>
<path fill="#bcd2ee" stroke="black" stroke-width="2" d="M159,-496C159,-496 194,-496 194,-496 200,-496 206,-502 206,-508 206,-508 206,-539 206,-539 206,-545 200,-551 194,-551 194,-551 159,-551 159,-551 153,-551 147,-545 147,-539 147,-539 147,-508 147,-508 147,-502 153,-496 159,-496"/>
<text text-anchor="middle" x="176.5" y="-537.4" font-family="Arial" font-size="12.00">In</text>
<text text-anchor="middle" x="176.5" y="-524.4" font-family="Arial" font-size="12.00">(audio)</text>
<polyline fill="none" stroke="black" stroke-width="2" points="147,-517 206,-517 "/>
<text text-anchor="middle" x="165" y="-503.4" font-family="Arial" font-size="12.00">bus</text>
<polyline fill="none" stroke="black" stroke-width="2" points="183,-496 183,-517 "/>
<text text-anchor="middle" x="194.5" y="-503.4" font-family="Arial" font-size="12.00">0</text>
</g>
<!-- ugen_10 -->
<g id="node3" class="node">
<title>ugen_10</title>
<path fill="#bcd2ee" stroke="black" stroke-width="2" d="M772,-243C772,-243 908,-243 908,-243 914,-243 920,-249 920,-255 920,-255 920,-362 920,-362 920,-368 914,-374 908,-374 908,-374 772,-374 772,-374 766,-374 760,-368 760,-362 760,-362 760,-255 760,-255 760,-249 766,-243 772,-243"/>
<text text-anchor="middle" x="840" y="-360.4" font-family="Arial" font-size="12.00">AllpassC</text>
<text text-anchor="middle" x="840" y="-347.4" font-family="Arial" font-size="12.00">(audio)</text>
<polyline fill="none" stroke="black" stroke-width="2" points="760,-340 920,-340 "/>
<text text-anchor="middle" x="828.5" y="-326.4" font-family="Arial" font-size="12.00">source</text>
<polyline fill="none" stroke="black" stroke-width="2" points="760,-319 897,-319 "/>
<text text-anchor="middle" x="828.5" y="-305.4" font-family="Arial" font-size="12.00">maximum_delay_time:</text>
<text text-anchor="middle" x="828.5" y="-292.4" font-family="Arial" font-size="12.00">0.1</text>
<polyline fill="none" stroke="black" stroke-width="2" points="760,-285 897,-285 "/>
<text text-anchor="middle" x="828.5" y="-271.4" font-family="Arial" font-size="12.00">delay_time</text>
<polyline fill="none" stroke="black" stroke-width="2" points="760,-264 897,-264 "/>
<text text-anchor="middle" x="828.5" y="-250.4" font-family="Arial" font-size="12.00">decay_time</text>
<polyline fill="none" stroke="black" stroke-width="2" points="897,-243 897,-340 "/>
<text text-anchor="middle" x="908.5" y="-288.4" font-family="Arial" font-size="12.00">0</text>
</g>
<!-- ugen_11 -->
<g id="node4" class="node">
<title>ugen_11</title>
<path fill="#ee9572" stroke="black" stroke-width="2" d="M804.5,-0.5C804.5,-0.5 875.5,-0.5 875.5,-0.5 881.5,-0.5 887.5,-6.5 887.5,-12.5 887.5,-12.5 887.5,-90.5 887.5,-90.5 887.5,-96.5 881.5,-102.5 875.5,-102.5 875.5,-102.5 804.5,-102.5 804.5,-102.5 798.5,-102.5 792.5,-96.5 792.5,-90.5 792.5,-90.5 792.5,-12.5 792.5,-12.5 792.5,-6.5 798.5,-0.5 804.5,-0.5"/>
<text text-anchor="middle" x="840" y="-88.9" font-family="Arial" font-size="12.00">ExpRand</text>
<text text-anchor="middle" x="840" y="-75.9" font-family="Arial" font-size="12.00">(scalar)</text>
<polyline fill="none" stroke="black" stroke-width="2" points="792.5,-68.5 887.5,-68.5 "/>
<text text-anchor="middle" x="828.5" y="-54.9" font-family="Arial" font-size="12.00">minimum:</text>
<text text-anchor="middle" x="828.5" y="-41.9" font-family="Arial" font-size="12.00">0.01</text>
<polyline fill="none" stroke="black" stroke-width="2" points="792.5,-34.5 864.5,-34.5 "/>
<text text-anchor="middle" x="828.5" y="-20.9" font-family="Arial" font-size="12.00">maximum:</text>
<text text-anchor="middle" x="828.5" y="-7.9" font-family="Arial" font-size="12.00">0.1</text>
<polyline fill="none" stroke="black" stroke-width="2" points="864.5,-0.5 864.5,-68.5 "/>
<text text-anchor="middle" x="876" y="-31.4" font-family="Arial" font-size="12.00">0</text>
</g>
<!-- ugen_12 -->
<g id="node5" class="node">
<title>ugen_12</title>
<path fill="#ee9572" stroke="black" stroke-width="2" d="M804.5,-121.5C804.5,-121.5 875.5,-121.5 875.5,-121.5 881.5,-121.5 887.5,-127.5 887.5,-133.5 887.5,-133.5 887.5,-211.5 887.5,-211.5 887.5,-217.5 881.5,-223.5 875.5,-223.5 875.5,-223.5 804.5,-223.5 804.5,-223.5 798.5,-223.5 792.5,-217.5 792.5,-211.5 792.5,-211.5 792.5,-133.5 792.5,-133.5 792.5,-127.5 798.5,-121.5 804.5,-121.5"/>
<text text-anchor="middle" x="840" y="-209.9" font-family="Arial" font-size="12.00">ExpRand</text>
<text text-anchor="middle" x="840" y="-196.9" font-family="Arial" font-size="12.00">(scalar)</text>
<polyline fill="none" stroke="black" stroke-width="2" points="792.5,-189.5 887.5,-189.5 "/>
<text text-anchor="middle" x="828.5" y="-175.9" font-family="Arial" font-size="12.00">minimum:</text>
<text text-anchor="middle" x="828.5" y="-162.9" font-family="Arial" font-size="12.00">0.01</text>
<polyline fill="none" stroke="black" stroke-width="2" points="792.5,-155.5 864.5,-155.5 "/>
<text text-anchor="middle" x="828.5" y="-141.9" font-family="Arial" font-size="12.00">maximum:</text>
<text text-anchor="middle" x="828.5" y="-128.9" font-family="Arial" font-size="12.00">0.1</text>
<polyline fill="none" stroke="black" stroke-width="2" points="864.5,-121.5 864.5,-189.5 "/>
<text text-anchor="middle" x="876" y="-152.4" font-family="Arial" font-size="12.00">0</text>
</g>
<!-- ugen_13 -->
<g id="node6" class="node">
<title>ugen_13</title>
<path fill="#bcd2ee" stroke="black" stroke-width="2" d="M1004,-164C1004,-164 1140,-164 1140,-164 1146,-164 1152,-170 1152,-176 1152,-176 1152,-283 1152,-283 1152,-289 1146,-295 1140,-295 1140,-295 1004,-295 1004,-295 998,-295 992,-289 992,-283 992,-283 992,-176 992,-176 992,-170 998,-164 1004,-164"/>
<text text-anchor="middle" x="1072" y="-281.4" font-family="Arial" font-size="12.00">AllpassC</text>
<text text-anchor="middle" x="1072" y="-268.4" font-family="Arial" font-size="12.00">(audio)</text>
<polyline fill="none" stroke="black" stroke-width="2" points="992,-261 1152,-261 "/>
<text text-anchor="middle" x="1060.5" y="-247.4" font-family="Arial" font-size="12.00">source</text>
<polyline fill="none" stroke="black" stroke-width="2" points="992,-240 1129,-240 "/>
<text text-anchor="middle" x="1060.5" y="-226.4" font-family="Arial" font-size="12.00">maximum_delay_time:</text>
<text text-anchor="middle" x="1060.5" y="-213.4" font-family="Arial" font-size="12.00">0.1</text>
<polyline fill="none" stroke="black" stroke-width="2" points="992,-206 1129,-206 "/>
<text text-anchor="middle" x="1060.5" y="-192.4" font-family="Arial" font-size="12.00">delay_time</text>
<polyline fill="none" stroke="black" stroke-width="2" points="992,-185 1129,-185 "/>
<text text-anchor="middle" x="1060.5" y="-171.4" font-family="Arial" font-size="12.00">decay_time</text>
<polyline fill="none" stroke="black" stroke-width="2" points="1129,-164 1129,-261 "/>
<text text-anchor="middle" x="1140.5" y="-209.4" font-family="Arial" font-size="12.00">0</text>
</g>
<!-- ugen_14 -->
<g id="node7" class="node">
<title>ugen_14</title>
<path fill="#bcd2ee" stroke="black" stroke-width="2" d="M1236,-355.5C1236,-355.5 1266,-355.5 1266,-355.5 1272,-355.5 1278,-361.5 1278,-367.5 1278,-367.5 1278,-419.5 1278,-419.5 1278,-425.5 1272,-431.5 1266,-431.5 1266,-431.5 1236,-431.5 1236,-431.5 1230,-431.5 1224,-425.5 1224,-419.5 1224,-419.5 1224,-367.5 1224,-367.5 1224,-361.5 1230,-355.5 1236,-355.5"/>
<text text-anchor="middle" x="1251" y="-417.9" font-family="Arial" font-size="12.00">Out</text>
<text text-anchor="middle" x="1251" y="-404.9" font-family="Arial" font-size="12.00">(audio)</text>
<polyline fill="none" stroke="black" stroke-width="2" points="1224,-397.5 1278,-397.5 "/>
<text text-anchor="middle" x="1251" y="-383.9" font-family="Arial" font-size="12.00">bus</text>
<polyline fill="none" stroke="black" stroke-width="2" points="1224,-376.5 1278,-376.5 "/>
<text text-anchor="middle" x="1251" y="-362.9" font-family="Arial" font-size="12.00">source</text>
</g>
<!-- ugen_2 -->
<g id="node8" class="node">
<title>ugen_2</title>
<path fill="#ee9572" stroke="black" stroke-width="2" d="M141,-253.5C141,-253.5 212,-253.5 212,-253.5 218,-253.5 224,-259.5 224,-265.5 224,-265.5 224,-343.5 224,-343.5 224,-349.5 218,-355.5 212,-355.5 212,-355.5 141,-355.5 141,-355.5 135,-355.5 129,-349.5 129,-343.5 129,-343.5 129,-265.5 129,-265.5 129,-259.5 135,-253.5 141,-253.5"/>
<text text-anchor="middle" x="176.5" y="-341.9" font-family="Arial" font-size="12.00">ExpRand</text>
<text text-anchor="middle" x="176.5" y="-328.9" font-family="Arial" font-size="12.00">(scalar)</text>
<polyline fill="none" stroke="black" stroke-width="2" points="129,-321.5 224,-321.5 "/>
<text text-anchor="middle" x="165" y="-307.9" font-family="Arial" font-size="12.00">minimum:</text>
<text text-anchor="middle" x="165" y="-294.9" font-family="Arial" font-size="12.00">0.01</text>
<polyline fill="none" stroke="black" stroke-width="2" points="129,-287.5 201,-287.5 "/>
<text text-anchor="middle" x="165" y="-273.9" font-family="Arial" font-size="12.00">maximum:</text>
<text text-anchor="middle" x="165" y="-260.9" font-family="Arial" font-size="12.00">0.1</text>
<polyline fill="none" stroke="black" stroke-width="2" points="201,-253.5 201,-321.5 "/>
<text text-anchor="middle" x="212.5" y="-284.4" font-family="Arial" font-size="12.00">0</text>
</g>
<!-- ugen_3 -->
<g id="node9" class="node">
<title>ugen_3</title>
<path fill="#ee9572" stroke="black" stroke-width="2" d="M141,-374.5C141,-374.5 212,-374.5 212,-374.5 218,-374.5 224,-380.5 224,-386.5 224,-386.5 224,-464.5 224,-464.5 224,-470.5 218,-476.5 212,-476.5 212,-476.5 141,-476.5 141,-476.5 135,-476.5 129,-470.5 129,-464.5 129,-464.5 129,-386.5 129,-386.5 129,-380.5 135,-374.5 141,-374.5"/>
<text text-anchor="middle" x="176.5" y="-462.9" font-family="Arial" font-size="12.00">ExpRand</text>
<text text-anchor="middle" x="176.5" y="-449.9" font-family="Arial" font-size="12.00">(scalar)</text>
<polyline fill="none" stroke="black" stroke-width="2" points="129,-442.5 224,-442.5 "/>
<text text-anchor="middle" x="165" y="-428.9" font-family="Arial" font-size="12.00">minimum:</text>
<text text-anchor="middle" x="165" y="-415.9" font-family="Arial" font-size="12.00">0.01</text>
<polyline fill="none" stroke="black" stroke-width="2" points="129,-408.5 201,-408.5 "/>
<text text-anchor="middle" x="165" y="-394.9" font-family="Arial" font-size="12.00">maximum:</text>
<text text-anchor="middle" x="165" y="-381.9" font-family="Arial" font-size="12.00">0.1</text>
<polyline fill="none" stroke="black" stroke-width="2" points="201,-374.5 201,-442.5 "/>
<text text-anchor="middle" x="212.5" y="-405.4" font-family="Arial" font-size="12.00">0</text>
</g>
<!-- ugen_4 -->
<g id="node10" class="node">
<title>ugen_4</title>
<path fill="#bcd2ee" stroke="black" stroke-width="2" d="M308,-399C308,-399 444,-399 444,-399 450,-399 456,-405 456,-411 456,-411 456,-518 456,-518 456,-524 450,-530 444,-530 444,-530 308,-530 308,-530 302,-530 296,-524 296,-518 296,-518 296,-411 296,-411 296,-405 302,-399 308,-399"/>
<text text-anchor="middle" x="376" y="-516.4" font-family="Arial" font-size="12.00">AllpassC</text>
<text text-anchor="middle" x="376" y="-503.4" font-family="Arial" font-size="12.00">(audio)</text>
<polyline fill="none" stroke="black" stroke-width="2" points="296,-496 456,-496 "/>
<text text-anchor="middle" x="364.5" y="-482.4" font-family="Arial" font-size="12.00">source</text>
<polyline fill="none" stroke="black" stroke-width="2" points="296,-475 433,-475 "/>
<text text-anchor="middle" x="364.5" y="-461.4" font-family="Arial" font-size="12.00">maximum_delay_time:</text>
<text text-anchor="middle" x="364.5" y="-448.4" font-family="Arial" font-size="12.00">0.1</text>
<polyline fill="none" stroke="black" stroke-width="2" points="296,-441 433,-441 "/>
<text text-anchor="middle" x="364.5" y="-427.4" font-family="Arial" font-size="12.00">delay_time</text>
<polyline fill="none" stroke="black" stroke-width="2" points="296,-420 433,-420 "/>
<text text-anchor="middle" x="364.5" y="-406.4" font-family="Arial" font-size="12.00">decay_time</text>
<polyline fill="none" stroke="black" stroke-width="2" points="433,-399 433,-496 "/>
<text text-anchor="middle" x="444.5" y="-444.4" font-family="Arial" font-size="12.00">0</text>
</g>
<!-- ugen_5 -->
<g id="node11" class="node">
<title>ugen_5</title>
<path fill="#ee9572" stroke="black" stroke-width="2" d="M340.5,-156.5C340.5,-156.5 411.5,-156.5 411.5,-156.5 417.5,-156.5 423.5,-162.5 423.5,-168.5 423.5,-168.5 423.5,-246.5 423.5,-246.5 423.5,-252.5 417.5,-258.5 411.5,-258.5 411.5,-258.5 340.5,-258.5 340.5,-258.5 334.5,-258.5 328.5,-252.5 328.5,-246.5 328.5,-246.5 328.5,-168.5 328.5,-168.5 328.5,-162.5 334.5,-156.5 340.5,-156.5"/>
<text text-anchor="middle" x="376" y="-244.9" font-family="Arial" font-size="12.00">ExpRand</text>
<text text-anchor="middle" x="376" y="-231.9" font-family="Arial" font-size="12.00">(scalar)</text>
<polyline fill="none" stroke="black" stroke-width="2" points="328.5,-224.5 423.5,-224.5 "/>
<text text-anchor="middle" x="364.5" y="-210.9" font-family="Arial" font-size="12.00">minimum:</text>
<text text-anchor="middle" x="364.5" y="-197.9" font-family="Arial" font-size="12.00">0.01</text>
<polyline fill="none" stroke="black" stroke-width="2" points="328.5,-190.5 400.5,-190.5 "/>
<text text-anchor="middle" x="364.5" y="-176.9" font-family="Arial" font-size="12.00">maximum:</text>
<text text-anchor="middle" x="364.5" y="-163.9" font-family="Arial" font-size="12.00">0.1</text>
<polyline fill="none" stroke="black" stroke-width="2" points="400.5,-156.5 400.5,-224.5 "/>
<text text-anchor="middle" x="412" y="-187.4" font-family="Arial" font-size="12.00">0</text>
</g>
<!-- ugen_6 -->
<g id="node12" class="node">
<title>ugen_6</title>
<path fill="#ee9572" stroke="black" stroke-width="2" d="M340.5,-277.5C340.5,-277.5 411.5,-277.5 411.5,-277.5 417.5,-277.5 423.5,-283.5 423.5,-289.5 423.5,-289.5 423.5,-367.5 423.5,-367.5 423.5,-373.5 417.5,-379.5 411.5,-379.5 411.5,-379.5 340.5,-379.5 340.5,-379.5 334.5,-379.5 328.5,-373.5 328.5,-367.5 328.5,-367.5 328.5,-289.5 328.5,-289.5 328.5,-283.5 334.5,-277.5 340.5,-277.5"/>
<text text-anchor="middle" x="376" y="-365.9" font-family="Arial" font-size="12.00">ExpRand</text>
<text text-anchor="middle" x="376" y="-352.9" font-family="Arial" font-size="12.00">(scalar)</text>
<polyline fill="none" stroke="black" stroke-width="2" points="328.5,-345.5 423.5,-345.5 "/>
<text text-anchor="middle" x="364.5" y="-331.9" font-family="Arial" font-size="12.00">minimum:</text>
<text text-anchor="middle" x="364.5" y="-318.9" font-family="Arial" font-size="12.00">0.01</text>
<polyline fill="none" stroke="black" stroke-width="2" points="328.5,-311.5 400.5,-311.5 "/>
<text text-anchor="middle" x="364.5" y="-297.9" font-family="Arial" font-size="12.00">maximum:</text>
<text text-anchor="middle" x="364.5" y="-284.9" font-family="Arial" font-size="12.00">0.1</text>
<polyline fill="none" stroke="black" stroke-width="2" points="400.5,-277.5 400.5,-345.5 "/>
<text text-anchor="middle" x="412" y="-308.4" font-family="Arial" font-size="12.00">0</text>
</g>
<!-- ugen_7 -->
<g id="node13" class="node">
<title>ugen_7</title>
<path fill="#bcd2ee" stroke="black" stroke-width="2" d="M540,-321C540,-321 676,-321 676,-321 682,-321 688,-327 688,-333 688,-333 688,-440 688,-440 688,-446 682,-452 676,-452 676,-452 540,-452 540,-452 534,-452 528,-446 528,-440 528,-440 528,-333 528,-333 528,-327 534,-321 540,-321"/>
<text text-anchor="middle" x="608" y="-438.4" font-family="Arial" font-size="12.00">AllpassC</text>
<text text-anchor="middle" x="608" y="-425.4" font-family="Arial" font-size="12.00">(audio)</text>
<polyline fill="none" stroke="black" stroke-width="2" points="528,-418 688,-418 "/>
<text text-anchor="middle" x="596.5" y="-404.4" font-family="Arial" font-size="12.00">source</text>
<polyline fill="none" stroke="black" stroke-width="2" points="528,-397 665,-397 "/>
<text text-anchor="middle" x="596.5" y="-383.4" font-family="Arial" font-size="12.00">maximum_delay_time:</text>
<text text-anchor="middle" x="596.5" y="-370.4" font-family="Arial" font-size="12.00">0.1</text>
<polyline fill="none" stroke="black" stroke-width="2" points="528,-363 665,-363 "/>
<text text-anchor="middle" x="596.5" y="-349.4" font-family="Arial" font-size="12.00">delay_time</text>
<polyline fill="none" stroke="black" stroke-width="2" points="528,-342 665,-342 "/>
<text text-anchor="middle" x="596.5" y="-328.4" font-family="Arial" font-size="12.00">decay_time</text>
<polyline fill="none" stroke="black" stroke-width="2" points="665,-321 665,-418 "/>
<text text-anchor="middle" x="676.5" y="-366.4" font-family="Arial" font-size="12.00">0</text>
</g>
<!-- ugen_8 -->
<g id="node14" class="node">
<title>ugen_8</title>
<path fill="#ee9572" stroke="black" stroke-width="2" d="M572.5,-78.5C572.5,-78.5 643.5,-78.5 643.5,-78.5 649.5,-78.5 655.5,-84.5 655.5,-90.5 655.5,-90.5 655.5,-168.5 655.5,-168.5 655.5,-174.5 649.5,-180.5 643.5,-180.5 643.5,-180.5 572.5,-180.5 572.5,-180.5 566.5,-180.5 560.5,-174.5 560.5,-168.5 560.5,-168.5 560.5,-90.5 560.5,-90.5 560.5,-84.5 566.5,-78.5 572.5,-78.5"/>
<text text-anchor="middle" x="608" y="-166.9" font-family="Arial" font-size="12.00">ExpRand</text>
<text text-anchor="middle" x="608" y="-153.9" font-family="Arial" font-size="12.00">(scalar)</text>
<polyline fill="none" stroke="black" stroke-width="2" points="560.5,-146.5 655.5,-146.5 "/>
<text text-anchor="middle" x="596.5" y="-132.9" font-family="Arial" font-size="12.00">minimum:</text>
<text text-anchor="middle" x="596.5" y="-119.9" font-family="Arial" font-size="12.00">0.01</text>
<polyline fill="none" stroke="black" stroke-width="2" points="560.5,-112.5 632.5,-112.5 "/>
<text text-anchor="middle" x="596.5" y="-98.9" font-family="Arial" font-size="12.00">maximum:</text>
<text text-anchor="middle" x="596.5" y="-85.9" font-family="Arial" font-size="12.00">0.1</text>
<polyline fill="none" stroke="black" stroke-width="2" points="632.5,-78.5 632.5,-146.5 "/>
<text text-anchor="middle" x="644" y="-109.4" font-family="Arial" font-size="12.00">0</text>
</g>
<!-- ugen_9 -->
<g id="node15" class="node">
<title>ugen_9</title>
<path fill="#ee9572" stroke="black" stroke-width="2" d="M572.5,-199.5C572.5,-199.5 643.5,-199.5 643.5,-199.5 649.5,-199.5 655.5,-205.5 655.5,-211.5 655.5,-211.5 655.5,-289.5 655.5,-289.5 655.5,-295.5 649.5,-301.5 643.5,-301.5 643.5,-301.5 572.5,-301.5 572.5,-301.5 566.5,-301.5 560.5,-295.5 560.5,-289.5 560.5,-289.5 560.5,-211.5 560.5,-211.5 560.5,-205.5 566.5,-199.5 572.5,-199.5"/>
<text text-anchor="middle" x="608" y="-287.9" font-family="Arial" font-size="12.00">ExpRand</text>
<text text-anchor="middle" x="608" y="-274.9" font-family="Arial" font-size="12.00">(scalar)</text>
<polyline fill="none" stroke="black" stroke-width="2" points="560.5,-267.5 655.5,-267.5 "/>
<text text-anchor="middle" x="596.5" y="-253.9" font-family="Arial" font-size="12.00">minimum:</text>
<text text-anchor="middle" x="596.5" y="-240.9" font-family="Arial" font-size="12.00">0.01</text>
<polyline fill="none" stroke="black" stroke-width="2" points="560.5,-233.5 632.5,-233.5 "/>
<text text-anchor="middle" x="596.5" y="-219.9" font-family="Arial" font-size="12.00">maximum:</text>
<text text-anchor="middle" x="596.5" y="-206.9" font-family="Arial" font-size="12.00">0.1</text>
<polyline fill="none" stroke="black" stroke-width="2" points="632.5,-199.5 632.5,-267.5 "/>
<text text-anchor="middle" x="644" y="-230.4" font-family="Arial" font-size="12.00">0</text>
</g>
</g>
</svg>
