<?xml version="1.0" encoding="UTF-8" standalone="no"?>
<!DOCTYPE svg PUBLIC "-//W3C//DTD SVG 1.1//EN"
 "http://www.w3.org/Graphics/SVG/1.1/DTD/svg11.dtd">
<!-- Generated by graphviz version 2.40.1 (20161225.0304)
 -->
<!-- Title: synthdef_432af90c0e9e3274dad165e8747f06fd Pages: 1 -->
<svg width="358pt" height="179pt"
 viewBox="0.00 0.00 358.00 179.00" xmlns="http://www.w3.org/2000/svg" xmlns:xlink="http://www.w3.org/1999/xlink">
<g id="graph0" class="graph" transform="scale(1 1) rotate(0) translate(4 175)">
<title>synthdef_432af90c0e9e3274dad165e8747f06fd</title>
<!-- ugen_0&#45;&gt;ugen_2 -->
<g id="edge1" class="edge">
<title>ugen_0:e&#45;&gt;ugen_2:w</title>
<path fill="none" stroke="#4682b4" stroke-width="2" d="M56,-112.5C89.0846,-112.5 91.1136,-79.4052 117.89,-72.6828"/>
<polygon fill="#4682b4" stroke="#4682b4" stroke-width="2" points="118.4745,-76.1384 128,-71.5 117.661,-69.1858 118.4745,-76.1384"/>
</g>
<!-- ugen_1&#45;&gt;ugen_2 -->
<g id="edge2" class="edge">
<title>ugen_1:e&#45;&gt;ugen_2:w</title>
<path fill="none" stroke="#daa520" stroke-width="2" d="M56,-10.5C88.8888,-10.5 91.2497,-42.7876 117.9375,-49.346"/>
<polygon fill="#daa520" stroke="#daa520" stroke-width="2" points="117.6663,-52.8378 128,-50.5 118.4639,-45.8834 117.6663,-52.8378"/>
</g>
<!-- ugen_2&#45;&gt;ugen_3 -->
<g id="edge3" class="edge">
<title>ugen_2:e&#45;&gt;ugen_3:w</title>
<path fill="none" stroke="#4682b4" stroke-width="2" d="M224,-60.5C255.1655,-60.5 260.3089,-85.3058 285.9853,-90.5382"/>
<polygon fill="#4682b4" stroke="#4682b4" stroke-width="2" points="285.7112,-94.0279 296,-91.5 286.3804,-87.06 285.7112,-94.0279"/>
</g>
<!-- ugen_2&#45;&gt;ugen_3 -->
<g id="edge4" class="edge">
<title>ugen_2:e&#45;&gt;ugen_3:w</title>
<path fill="none" stroke="#4682b4" stroke-width="2" d="M224,-60.5C252.6474,-60.5 261.6997,-68.3627 285.9076,-70.1441"/>
<polygon fill="#4682b4" stroke="#4682b4" stroke-width="2" points="285.8828,-73.6453 296,-70.5 286.1296,-66.6497 285.8828,-73.6453"/>
</g>
<!-- ugen_2&#45;&gt;ugen_3 -->
<g id="edge5" class="edge">
<title>ugen_2:e&#45;&gt;ugen_3:w</title>
<path fill="none" stroke="#4682b4" stroke-width="2" d="M224,-60.5C252.7042,-60.5 261.6622,-51.851 285.8926,-49.8915"/>
<polygon fill="#4682b4" stroke="#4682b4" stroke-width="2" points="286.143,-53.3845 296,-49.5 285.872,-46.3898 286.143,-53.3845"/>
</g>
<!-- ugen_2&#45;&gt;ugen_3 -->
<g id="edge6" class="edge">
<title>ugen_2:e&#45;&gt;ugen_3:w</title>
<path fill="none" stroke="#4682b4" stroke-width="2" d="M224,-60.5C255.3248,-60.5 260.1999,-34.894 285.9455,-29.4928"/>
<polygon fill="#4682b4" stroke="#4682b4" stroke-width="2" points="286.3923,-32.9658 296,-28.5 285.7044,-25.9997 286.3923,-32.9658"/>
</g>
<!-- ugen_0 -->
<g id="node1" class="node">
<title>ugen_0</title>
<path fill="#bcd2ee" stroke="#000000" stroke-width="2" d="M12,-95.5C12,-95.5 44,-95.5 44,-95.5 50,-95.5 56,-101.5 56,-107.5 56,-107.5 56,-151.5 56,-151.5 56,-157.5 50,-163.5 44,-163.5 44,-163.5 12,-163.5 12,-163.5 6,-163.5 0,-157.5 0,-151.5 0,-151.5 0,-107.5 0,-107.5 0,-101.5 6,-95.5 12,-95.5"/>
<text text-anchor="middle" x="28" y="-149.9" font-family="Arial" font-size="12.00" fill="#000000">In</text>
<text text-anchor="middle" x="28" y="-136.9" font-family="Arial" font-size="12.00" fill="#000000">(audio)</text>
<polyline fill="none" stroke="#000000" stroke-width="2" points="0,-129.5 56,-129.5 "/>
<text text-anchor="middle" x="17" y="-115.9" font-family="Arial" font-size="12.00" fill="#000000">bus:</text>
<text text-anchor="middle" x="17" y="-102.9" font-family="Arial" font-size="12.00" fill="#000000">0.0</text>
<polyline fill="none" stroke="#000000" stroke-width="2" points="34,-95.5 34,-129.5 "/>
<text text-anchor="middle" x="45" y="-109.4" font-family="Arial" font-size="12.00" fill="#000000">0</text>
</g>
<!-- ugen_1 -->
<g id="node2" class="node">
<title>ugen_1</title>
<path fill="#eedc82" stroke="#000000" stroke-width="2" d="M12,-.5C12,-.5 44,-.5 44,-.5 50,-.5 56,-6.5 56,-12.5 56,-12.5 56,-64.5 56,-64.5 56,-70.5 50,-76.5 44,-76.5 44,-76.5 12,-76.5 12,-76.5 6,-76.5 0,-70.5 0,-64.5 0,-64.5 0,-12.5 0,-12.5 0,-6.5 6,-.5 12,-.5"/>
<text text-anchor="middle" x="28" y="-62.9" font-family="Arial" font-size="12.00" fill="#000000">In</text>
<text text-anchor="middle" x="28" y="-49.9" font-family="Arial" font-size="12.00" fill="#000000">(control)</text>
<polyline fill="none" stroke="#000000" stroke-width="2" points="0,-42.5 56,-42.5 "/>
<text text-anchor="middle" x="17" y="-24.9" font-family="Arial" font-size="12.00" fill="#000000">bus:</text>
<text text-anchor="middle" x="17" y="-11.9" font-family="Arial" font-size="12.00" fill="#000000">0.0</text>
<polyline fill="none" stroke="#000000" stroke-width="2" points="34,-.5 34,-42.5 "/>
<text text-anchor="middle" x="45" y="-28.9" font-family="Arial" font-size="12.00" fill="#000000">0</text>
<polyline fill="none" stroke="#000000" stroke-width="2" points="34,-21.5 56,-21.5 "/>
<text text-anchor="middle" x="45" y="-7.9" font-family="Arial" font-size="12.00" fill="#000000">1</text>
</g>
<!-- ugen_2 -->
<g id="node3" class="node">
<title>ugen_2</title>
<path fill="#bcd2ee" stroke="#000000" stroke-width="2" d="M140,-40C140,-40 212,-40 212,-40 218,-40 224,-46 224,-52 224,-52 224,-117 224,-117 224,-123 218,-129 212,-129 212,-129 140,-129 140,-129 134,-129 128,-123 128,-117 128,-117 128,-52 128,-52 128,-46 134,-40 140,-40"/>
<text text-anchor="middle" x="176" y="-115.4" font-family="Arial" font-size="12.00" fill="#000000">BinaryOpUGen</text>
<text text-anchor="middle" x="176" y="-102.4" font-family="Arial" font-size="12.00" fill="#000000">[MULTIPLICATION]</text>
<text text-anchor="middle" x="176" y="-89.4" font-family="Arial" font-size="12.00" fill="#000000">(audio)</text>
<polyline fill="none" stroke="#000000" stroke-width="2" points="128,-82 224,-82 "/>
<text text-anchor="middle" x="155" y="-68.4" font-family="Arial" font-size="12.00" fill="#000000">left</text>
<polyline fill="none" stroke="#000000" stroke-width="2" points="128,-61 182,-61 "/>
<text text-anchor="middle" x="155" y="-47.4" font-family="Arial" font-size="12.00" fill="#000000">right</text>
<polyline fill="none" stroke="#000000" stroke-width="2" points="182,-40 182,-82 "/>
<text text-anchor="middle" x="203" y="-57.9" font-family="Arial" font-size="12.00" fill="#000000">0</text>
</g>
<!-- ugen_3 -->
<g id="node4" class="node">
<title>ugen_3</title>
<path fill="#bcd2ee" stroke="#000000" stroke-width="2" d="M308,-18.5C308,-18.5 338,-18.5 338,-18.5 344,-18.5 350,-24.5 350,-30.5 350,-30.5 350,-158.5 350,-158.5 350,-164.5 344,-170.5 338,-170.5 338,-170.5 308,-170.5 308,-170.5 302,-170.5 296,-164.5 296,-158.5 296,-158.5 296,-30.5 296,-30.5 296,-24.5 302,-18.5 308,-18.5"/>
<text text-anchor="middle" x="323" y="-156.9" font-family="Arial" font-size="12.00" fill="#000000">Out</text>
<text text-anchor="middle" x="323" y="-143.9" font-family="Arial" font-size="12.00" fill="#000000">(audio)</text>
<polyline fill="none" stroke="#000000" stroke-width="2" points="296,-136.5 350,-136.5 "/>
<text text-anchor="middle" x="323" y="-122.9" font-family="Arial" font-size="12.00" fill="#000000">bus:</text>
<text text-anchor="middle" x="323" y="-109.9" font-family="Arial" font-size="12.00" fill="#000000">0.0</text>
<polyline fill="none" stroke="#000000" stroke-width="2" points="296,-102.5 350,-102.5 "/>
<text text-anchor="middle" x="323" y="-88.9" font-family="Arial" font-size="12.00" fill="#000000">source</text>
<polyline fill="none" stroke="#000000" stroke-width="2" points="296,-81.5 350,-81.5 "/>
<text text-anchor="middle" x="323" y="-67.9" font-family="Arial" font-size="12.00" fill="#000000"> </text>
<polyline fill="none" stroke="#000000" stroke-width="2" points="296,-60.5 350,-60.5 "/>
<text text-anchor="middle" x="323" y="-46.9" font-family="Arial" font-size="12.00" fill="#000000"> </text>
<polyline fill="none" stroke="#000000" stroke-width="2" points="296,-39.5 350,-39.5 "/>
<text text-anchor="middle" x="323" y="-25.9" font-family="Arial" font-size="12.00" fill="#000000"> </text>
</g>
</g>
</svg>
