<?xml version="1.0" encoding="UTF-8" standalone="no"?>
<!DOCTYPE svg PUBLIC "-//W3C//DTD SVG 1.1//EN"
 "http://www.w3.org/Graphics/SVG/1.1/DTD/svg11.dtd">
<!-- Generated by graphviz version 2.44.1 (20200629.0846)
 -->
<!-- Title: synthdef_test Pages: 1 -->
<svg width="399pt" height="232pt"
 viewBox="0.00 0.00 399.00 232.00" xmlns="http://www.w3.org/2000/svg" xmlns:xlink="http://www.w3.org/1999/xlink">
<g id="graph0" class="graph" transform="scale(1 1) rotate(0) translate(4 228)">
<title>synthdef_test</title>
<!-- ugen_0&#45;&gt;ugen_2 -->
<g id="edge1" class="edge">
<title>ugen_0:e&#45;&gt;ugen_2:w</title>
<path fill="none" stroke="steelblue" stroke-width="2" d="M95,-155.5C130.15,-155.5 128.77,-114.79 156.79,-106.84"/>
<polygon fill="steelblue" stroke="steelblue" stroke-width="2" points="157.54,-110.27 167,-105.5 156.63,-103.33 157.54,-110.27"/>
</g>
<!-- ugen_1&#45;&gt;ugen_2 -->
<g id="edge2" class="edge">
<title>ugen_1:e&#45;&gt;ugen_2:w</title>
<path fill="none" stroke="steelblue" stroke-width="2" d="M95,-34.5C130.15,-34.5 128.77,-75.21 156.79,-83.16"/>
<polygon fill="steelblue" stroke="steelblue" stroke-width="2" points="156.63,-86.67 167,-84.5 157.54,-79.73 156.63,-86.67"/>
</g>
<!-- ugen_2&#45;&gt;ugen_3 -->
<g id="edge3" class="edge">
<title>ugen_2:e&#45;&gt;ugen_3:w</title>
<path fill="none" stroke="steelblue" stroke-width="2" d="M265,-94.5C293.38,-94.5 302.88,-94.5 326.98,-94.5"/>
<polygon fill="steelblue" stroke="steelblue" stroke-width="2" points="327,-98 337,-94.5 327,-91 327,-98"/>
</g>
<!-- ugen_0 -->
<g id="node1" class="node">
<title>ugen_0</title>
<path fill="#bcd2ee" stroke="black" stroke-width="2" d="M12,-121.5C12,-121.5 83,-121.5 83,-121.5 89,-121.5 95,-127.5 95,-133.5 95,-133.5 95,-211.5 95,-211.5 95,-217.5 89,-223.5 83,-223.5 83,-223.5 12,-223.5 12,-223.5 6,-223.5 0,-217.5 0,-211.5 0,-211.5 0,-133.5 0,-133.5 0,-127.5 6,-121.5 12,-121.5"/>
<text text-anchor="middle" x="47.5" y="-209.9" font-family="Arial" font-size="12.00">SinOsc</text>
<text text-anchor="middle" x="47.5" y="-196.9" font-family="Arial" font-size="12.00">(audio)</text>
<polyline fill="none" stroke="black" stroke-width="2" points="0,-189.5 95,-189.5 "/>
<text text-anchor="middle" x="36" y="-175.9" font-family="Arial" font-size="12.00">frequency:</text>
<text text-anchor="middle" x="36" y="-162.9" font-family="Arial" font-size="12.00">440.0</text>
<polyline fill="none" stroke="black" stroke-width="2" points="0,-155.5 72,-155.5 "/>
<text text-anchor="middle" x="36" y="-141.9" font-family="Arial" font-size="12.00">phase:</text>
<text text-anchor="middle" x="36" y="-128.9" font-family="Arial" font-size="12.00">0.0</text>
<polyline fill="none" stroke="black" stroke-width="2" points="72,-121.5 72,-189.5 "/>
<text text-anchor="middle" x="83.5" y="-152.4" font-family="Arial" font-size="12.00">0</text>
</g>
<!-- ugen_1 -->
<g id="node2" class="node">
<title>ugen_1</title>
<path fill="#bcd2ee" stroke="black" stroke-width="2" d="M12,-0.5C12,-0.5 83,-0.5 83,-0.5 89,-0.5 95,-6.5 95,-12.5 95,-12.5 95,-90.5 95,-90.5 95,-96.5 89,-102.5 83,-102.5 83,-102.5 12,-102.5 12,-102.5 6,-102.5 0,-96.5 0,-90.5 0,-90.5 0,-12.5 0,-12.5 0,-6.5 6,-0.5 12,-0.5"/>
<text text-anchor="middle" x="47.5" y="-88.9" font-family="Arial" font-size="12.00">SinOsc</text>
<text text-anchor="middle" x="47.5" y="-75.9" font-family="Arial" font-size="12.00">(audio)</text>
<polyline fill="none" stroke="black" stroke-width="2" points="0,-68.5 95,-68.5 "/>
<text text-anchor="middle" x="36" y="-54.9" font-family="Arial" font-size="12.00">frequency:</text>
<text text-anchor="middle" x="36" y="-41.9" font-family="Arial" font-size="12.00">443.0</text>
<polyline fill="none" stroke="black" stroke-width="2" points="0,-34.5 72,-34.5 "/>
<text text-anchor="middle" x="36" y="-20.9" font-family="Arial" font-size="12.00">phase:</text>
<text text-anchor="middle" x="36" y="-7.9" font-family="Arial" font-size="12.00">0.0</text>
<polyline fill="none" stroke="black" stroke-width="2" points="72,-0.5 72,-68.5 "/>
<text text-anchor="middle" x="83.5" y="-31.4" font-family="Arial" font-size="12.00">0</text>
</g>
<!-- ugen_2 -->
<g id="node3" class="node">
<title>ugen_2</title>
<path fill="#bcd2ee" stroke="black" stroke-width="2" d="M179,-74C179,-74 253,-74 253,-74 259,-74 265,-80 265,-86 265,-86 265,-151 265,-151 265,-157 259,-163 253,-163 253,-163 179,-163 179,-163 173,-163 167,-157 167,-151 167,-151 167,-86 167,-86 167,-80 173,-74 179,-74"/>
<text text-anchor="middle" x="216" y="-149.4" font-family="Arial" font-size="12.00">BinaryOpUGen</text>
<text text-anchor="middle" x="216" y="-136.4" font-family="Arial" font-size="12.00">[ADDITION]</text>
<text text-anchor="middle" x="216" y="-123.4" font-family="Arial" font-size="12.00">(audio)</text>
<polyline fill="none" stroke="black" stroke-width="2" points="167,-116 265,-116 "/>
<text text-anchor="middle" x="195.5" y="-102.4" font-family="Arial" font-size="12.00">left</text>
<polyline fill="none" stroke="black" stroke-width="2" points="167,-95 224,-95 "/>
<text text-anchor="middle" x="195.5" y="-81.4" font-family="Arial" font-size="12.00">right</text>
<polyline fill="none" stroke="black" stroke-width="2" points="224,-74 224,-116 "/>
<text text-anchor="middle" x="244.5" y="-91.9" font-family="Arial" font-size="12.00">0</text>
</g>
<!-- ugen_3 -->
<g id="node4" class="node">
<title>ugen_3</title>
<path fill="#bcd2ee" stroke="black" stroke-width="2" d="M349,-84C349,-84 379,-84 379,-84 385,-84 391,-90 391,-96 391,-96 391,-161 391,-161 391,-167 385,-173 379,-173 379,-173 349,-173 349,-173 343,-173 337,-167 337,-161 337,-161 337,-96 337,-96 337,-90 343,-84 349,-84"/>
<text text-anchor="middle" x="364" y="-159.4" font-family="Arial" font-size="12.00">Out</text>
<text text-anchor="middle" x="364" y="-146.4" font-family="Arial" font-size="12.00">(audio)</text>
<polyline fill="none" stroke="black" stroke-width="2" points="337,-139 391,-139 "/>
<text text-anchor="middle" x="364" y="-125.4" font-family="Arial" font-size="12.00">bus:</text>
<text text-anchor="middle" x="364" y="-112.4" font-family="Arial" font-size="12.00">0.0</text>
<polyline fill="none" stroke="black" stroke-width="2" points="337,-105 391,-105 "/>
<text text-anchor="middle" x="364" y="-91.4" font-family="Arial" font-size="12.00">source</text>
</g>
</g>
</svg>
