<?xml version="1.0" encoding="UTF-8" standalone="no"?>
<!DOCTYPE svg PUBLIC "-//W3C//DTD SVG 1.1//EN"
 "http://www.w3.org/Graphics/SVG/1.1/DTD/svg11.dtd">
<!-- Generated by graphviz version 2.49.1 (20210923.0004)
 -->
<!-- Title: synthdef_6d43342b3787aa11a46cea54412407e1 Pages: 1 -->
<svg width="368pt" height="428pt"
 viewBox="0.00 0.00 368.00 428.00" xmlns="http://www.w3.org/2000/svg" xmlns:xlink="http://www.w3.org/1999/xlink">
<g id="graph0" class="graph" transform="scale(1 1) rotate(0) translate(4 424)">
<title>synthdef_6d43342b3787aa11a46cea54412407e1</title>
<!-- ugen_0&#45;&gt;ugen_2 -->
<g id="edge1" class="edge">
<title>ugen_0:e&#45;&gt;ugen_2:w</title>
<path fill="none" stroke="goldenrod" stroke-width="2" d="M88,-253.5C140.17,-253.5 115.95,-338.04 157.98,-349.27"/>
<polygon fill="goldenrod" stroke="goldenrod" stroke-width="2" points="157.65,-352.76 168,-350.5 158.5,-345.81 157.65,-352.76"/>
</g>
<!-- ugen_0&#45;&gt;ugen_4 -->
<g id="edge2" class="edge">
<title>ugen_0:e&#45;&gt;ugen_4:w</title>
<path fill="none" stroke="goldenrod" stroke-width="2" d="M88,-253.5C127.44,-253.5 125.57,-207.55 157.91,-199.65"/>
<polygon fill="goldenrod" stroke="goldenrod" stroke-width="2" points="158.46,-203.11 168,-198.5 157.67,-196.15 158.46,-203.11"/>
</g>
<!-- ugen_0&#45;&gt;ugen_6 -->
<g id="edge3" class="edge">
<title>ugen_0:e&#45;&gt;ugen_6:w</title>
<path fill="none" stroke="goldenrod" stroke-width="2" d="M88,-253.5C167.37,-253.5 92.3,-99.34 157.8,-85.49"/>
<polygon fill="goldenrod" stroke="goldenrod" stroke-width="2" points="158.39,-88.95 168,-84.5 157.71,-81.98 158.39,-88.95"/>
</g>
<!-- ugen_1&#45;&gt;ugen_2 -->
<g id="edge4" class="edge">
<title>ugen_1:e&#45;&gt;ugen_2:w</title>
<path fill="none" stroke="steelblue" stroke-width="2" d="M96,-351.5C125.8,-351.5 133.09,-334.05 157.97,-330.23"/>
<polygon fill="steelblue" stroke="steelblue" stroke-width="2" points="158.28,-333.72 168,-329.5 157.77,-326.74 158.28,-333.72"/>
</g>
<!-- ugen_3&#45;&gt;ugen_4 -->
<g id="edge5" class="edge">
<title>ugen_3:e&#45;&gt;ugen_4:w</title>
<path fill="none" stroke="steelblue" stroke-width="2" d="M96,-155.5C125.8,-155.5 133.09,-172.95 157.97,-176.77"/>
<polygon fill="steelblue" stroke="steelblue" stroke-width="2" points="157.77,-180.26 168,-177.5 158.28,-173.28 157.77,-180.26"/>
</g>
<!-- ugen_5&#45;&gt;ugen_6 -->
<g id="edge6" class="edge">
<title>ugen_5:e&#45;&gt;ugen_6:w</title>
<path fill="none" stroke="steelblue" stroke-width="2" d="M96,-34.5C126.72,-34.5 132.47,-57.5 157.73,-62.54"/>
<polygon fill="steelblue" stroke="steelblue" stroke-width="2" points="157.72,-66.05 168,-63.5 158.37,-59.08 157.72,-66.05"/>
</g>
<!-- ugen_0 -->
<g id="node1" class="node">
<title>ugen_0</title>
<path fill="#eedc82" stroke="black" stroke-width="2" d="M21,-243C21,-243 75,-243 75,-243 81,-243 87,-249 87,-255 87,-255 87,-286 87,-286 87,-292 81,-298 75,-298 75,-298 21,-298 21,-298 15,-298 9,-292 9,-286 9,-286 9,-255 9,-255 9,-249 15,-243 21,-243"/>
<text text-anchor="middle" x="48" y="-284.4" font-family="Arial" font-size="12.00">WhiteNoise</text>
<text text-anchor="middle" x="48" y="-271.4" font-family="Arial" font-size="12.00">(control)</text>
<polyline fill="none" stroke="black" stroke-width="2" points="9,-264 87,-264 "/>
<text text-anchor="middle" x="48" y="-250.4" font-family="Arial" font-size="12.00">0</text>
</g>
<!-- ugen_1 -->
<g id="node2" class="node">
<title>ugen_1</title>
<path fill="#bcd2ee" stroke="black" stroke-width="2" d="M12,-317.5C12,-317.5 84,-317.5 84,-317.5 90,-317.5 96,-323.5 96,-329.5 96,-329.5 96,-407.5 96,-407.5 96,-413.5 90,-419.5 84,-419.5 84,-419.5 12,-419.5 12,-419.5 6,-419.5 0,-413.5 0,-407.5 0,-407.5 0,-329.5 0,-329.5 0,-323.5 6,-317.5 12,-317.5"/>
<text text-anchor="middle" x="48" y="-405.9" font-family="Arial" font-size="12.00">SinOsc</text>
<text text-anchor="middle" x="48" y="-392.9" font-family="Arial" font-size="12.00">(audio)</text>
<polyline fill="none" stroke="black" stroke-width="2" points="0,-385.5 96,-385.5 "/>
<text text-anchor="middle" x="36.5" y="-371.9" font-family="Arial" font-size="12.00">frequency:</text>
<text text-anchor="middle" x="36.5" y="-358.9" font-family="Arial" font-size="12.00">440.0</text>
<polyline fill="none" stroke="black" stroke-width="2" points="0,-351.5 73,-351.5 "/>
<text text-anchor="middle" x="36.5" y="-337.9" font-family="Arial" font-size="12.00">phase:</text>
<text text-anchor="middle" x="36.5" y="-324.9" font-family="Arial" font-size="12.00">0.0</text>
<polyline fill="none" stroke="black" stroke-width="2" points="73,-317.5 73,-385.5 "/>
<text text-anchor="middle" x="84.5" y="-348.4" font-family="Arial" font-size="12.00">0</text>
</g>
<!-- ugen_2 -->
<g id="node3" class="node">
<title>ugen_2</title>
<path fill="#bcd2ee" stroke="black" stroke-width="2" d="M180,-319C180,-319 348,-319 348,-319 354,-319 360,-325 360,-331 360,-331 360,-396 360,-396 360,-402 354,-408 348,-408 348,-408 180,-408 180,-408 174,-408 168,-402 168,-396 168,-396 168,-331 168,-331 168,-325 174,-319 180,-319"/>
<text text-anchor="middle" x="264" y="-394.4" font-family="Arial" font-size="12.00">BinaryOpUGen</text>
<text text-anchor="middle" x="264" y="-381.4" font-family="Arial" font-size="12.00">[GREATER_THAN_OR_EQUAL]</text>
<text text-anchor="middle" x="264" y="-368.4" font-family="Arial" font-size="12.00">(audio)</text>
<polyline fill="none" stroke="black" stroke-width="2" points="168,-361 360,-361 "/>
<text text-anchor="middle" x="220" y="-347.4" font-family="Arial" font-size="12.00">left</text>
<polyline fill="none" stroke="black" stroke-width="2" points="168,-340 272,-340 "/>
<text text-anchor="middle" x="220" y="-326.4" font-family="Arial" font-size="12.00">right</text>
<polyline fill="none" stroke="black" stroke-width="2" points="272,-319 272,-361 "/>
<text text-anchor="middle" x="316" y="-336.9" font-family="Arial" font-size="12.00">0</text>
</g>
<!-- ugen_3 -->
<g id="node4" class="node">
<title>ugen_3</title>
<path fill="#bcd2ee" stroke="black" stroke-width="2" d="M12,-121.5C12,-121.5 84,-121.5 84,-121.5 90,-121.5 96,-127.5 96,-133.5 96,-133.5 96,-211.5 96,-211.5 96,-217.5 90,-223.5 84,-223.5 84,-223.5 12,-223.5 12,-223.5 6,-223.5 0,-217.5 0,-211.5 0,-211.5 0,-133.5 0,-133.5 0,-127.5 6,-121.5 12,-121.5"/>
<text text-anchor="middle" x="48" y="-209.9" font-family="Arial" font-size="12.00">SinOsc</text>
<text text-anchor="middle" x="48" y="-196.9" font-family="Arial" font-size="12.00">(audio)</text>
<polyline fill="none" stroke="black" stroke-width="2" points="0,-189.5 96,-189.5 "/>
<text text-anchor="middle" x="36.5" y="-175.9" font-family="Arial" font-size="12.00">frequency:</text>
<text text-anchor="middle" x="36.5" y="-162.9" font-family="Arial" font-size="12.00">442.0</text>
<polyline fill="none" stroke="black" stroke-width="2" points="0,-155.5 73,-155.5 "/>
<text text-anchor="middle" x="36.5" y="-141.9" font-family="Arial" font-size="12.00">phase:</text>
<text text-anchor="middle" x="36.5" y="-128.9" font-family="Arial" font-size="12.00">0.0</text>
<polyline fill="none" stroke="black" stroke-width="2" points="73,-121.5 73,-189.5 "/>
<text text-anchor="middle" x="84.5" y="-152.4" font-family="Arial" font-size="12.00">0</text>
</g>
<!-- ugen_4 -->
<g id="node5" class="node">
<title>ugen_4</title>
<path fill="#bcd2ee" stroke="black" stroke-width="2" d="M180,-167C180,-167 348,-167 348,-167 354,-167 360,-173 360,-179 360,-179 360,-244 360,-244 360,-250 354,-256 348,-256 348,-256 180,-256 180,-256 174,-256 168,-250 168,-244 168,-244 168,-179 168,-179 168,-173 174,-167 180,-167"/>
<text text-anchor="middle" x="264" y="-242.4" font-family="Arial" font-size="12.00">BinaryOpUGen</text>
<text text-anchor="middle" x="264" y="-229.4" font-family="Arial" font-size="12.00">[GREATER_THAN_OR_EQUAL]</text>
<text text-anchor="middle" x="264" y="-216.4" font-family="Arial" font-size="12.00">(audio)</text>
<polyline fill="none" stroke="black" stroke-width="2" points="168,-209 360,-209 "/>
<text text-anchor="middle" x="220" y="-195.4" font-family="Arial" font-size="12.00">left</text>
<polyline fill="none" stroke="black" stroke-width="2" points="168,-188 272,-188 "/>
<text text-anchor="middle" x="220" y="-174.4" font-family="Arial" font-size="12.00">right</text>
<polyline fill="none" stroke="black" stroke-width="2" points="272,-167 272,-209 "/>
<text text-anchor="middle" x="316" y="-184.9" font-family="Arial" font-size="12.00">0</text>
</g>
<!-- ugen_5 -->
<g id="node6" class="node">
<title>ugen_5</title>
<path fill="#bcd2ee" stroke="black" stroke-width="2" d="M12,-0.5C12,-0.5 84,-0.5 84,-0.5 90,-0.5 96,-6.5 96,-12.5 96,-12.5 96,-90.5 96,-90.5 96,-96.5 90,-102.5 84,-102.5 84,-102.5 12,-102.5 12,-102.5 6,-102.5 0,-96.5 0,-90.5 0,-90.5 0,-12.5 0,-12.5 0,-6.5 6,-0.5 12,-0.5"/>
<text text-anchor="middle" x="48" y="-88.9" font-family="Arial" font-size="12.00">SinOsc</text>
<text text-anchor="middle" x="48" y="-75.9" font-family="Arial" font-size="12.00">(audio)</text>
<polyline fill="none" stroke="black" stroke-width="2" points="0,-68.5 96,-68.5 "/>
<text text-anchor="middle" x="36.5" y="-54.9" font-family="Arial" font-size="12.00">frequency:</text>
<text text-anchor="middle" x="36.5" y="-41.9" font-family="Arial" font-size="12.00">443.0</text>
<polyline fill="none" stroke="black" stroke-width="2" points="0,-34.5 73,-34.5 "/>
<text text-anchor="middle" x="36.5" y="-20.9" font-family="Arial" font-size="12.00">phase:</text>
<text text-anchor="middle" x="36.5" y="-7.9" font-family="Arial" font-size="12.00">0.0</text>
<polyline fill="none" stroke="black" stroke-width="2" points="73,-0.5 73,-68.5 "/>
<text text-anchor="middle" x="84.5" y="-31.4" font-family="Arial" font-size="12.00">0</text>
</g>
<!-- ugen_6 -->
<g id="node7" class="node">
<title>ugen_6</title>
<path fill="#bcd2ee" stroke="black" stroke-width="2" d="M180,-53C180,-53 348,-53 348,-53 354,-53 360,-59 360,-65 360,-65 360,-130 360,-130 360,-136 354,-142 348,-142 348,-142 180,-142 180,-142 174,-142 168,-136 168,-130 168,-130 168,-65 168,-65 168,-59 174,-53 180,-53"/>
<text text-anchor="middle" x="264" y="-128.4" font-family="Arial" font-size="12.00">BinaryOpUGen</text>
<text text-anchor="middle" x="264" y="-115.4" font-family="Arial" font-size="12.00">[GREATER_THAN_OR_EQUAL]</text>
<text text-anchor="middle" x="264" y="-102.4" font-family="Arial" font-size="12.00">(audio)</text>
<polyline fill="none" stroke="black" stroke-width="2" points="168,-95 360,-95 "/>
<text text-anchor="middle" x="220" y="-81.4" font-family="Arial" font-size="12.00">left</text>
<polyline fill="none" stroke="black" stroke-width="2" points="168,-74 272,-74 "/>
<text text-anchor="middle" x="220" y="-60.4" font-family="Arial" font-size="12.00">right</text>
<polyline fill="none" stroke="black" stroke-width="2" points="272,-53 272,-95 "/>
<text text-anchor="middle" x="316" y="-70.9" font-family="Arial" font-size="12.00">0</text>
</g>
</g>
</svg>
