<?xml version="1.0" encoding="UTF-8" standalone="no"?>
<!DOCTYPE svg PUBLIC "-//W3C//DTD SVG 1.1//EN"
 "http://www.w3.org/Graphics/SVG/1.1/DTD/svg11.dtd">
<!-- Generated by graphviz version 2.50.0 (20211204.2007)
 -->
<!-- Title: synthdef_21bcaf49922e2c4124d4cadba85c00ac Pages: 1 -->
<svg width="271pt" height="84pt"
 viewBox="0.00 0.00 271.00 84.00" xmlns="http://www.w3.org/2000/svg" xmlns:xlink="http://www.w3.org/1999/xlink">
<g id="graph0" class="graph" transform="scale(1 1) rotate(0) translate(4 80)">
<title>synthdef_21bcaf49922e2c4124d4cadba85c00ac</title>
<!-- ugen_0&#45;&gt;ugen_1 -->
<g id="edge1" class="edge">
<title>ugen_0:e&#45;&gt;ugen_1:w</title>
<path fill="none" stroke="steelblue" stroke-width="2" d="M95,-17.5C123.38,-17.5 132.88,-17.5 156.98,-17.5"/>
<polygon fill="steelblue" stroke="steelblue" stroke-width="2" points="157,-21 167,-17.5 157,-14 157,-21"/>
</g>
<!-- ugen_0 -->
<g id="node1" class="node">
<title>ugen_0</title>
<path fill="#bcd2ee" stroke="black" stroke-width="2" d="M12,-0.5C12,-0.5 83,-0.5 83,-0.5 89,-0.5 95,-6.5 95,-12.5 95,-12.5 95,-56.5 95,-56.5 95,-62.5 89,-68.5 83,-68.5 83,-68.5 12,-68.5 12,-68.5 6,-68.5 0,-62.5 0,-56.5 0,-56.5 0,-12.5 0,-12.5 0,-6.5 6,-0.5 12,-0.5"/>
<text text-anchor="middle" x="47.5" y="-54.9" font-family="Arial" font-size="12.00">LFNoise2</text>
<text text-anchor="middle" x="47.5" y="-41.9" font-family="Arial" font-size="12.00">(audio)</text>
<polyline fill="none" stroke="black" stroke-width="2" points="0,-34.5 95,-34.5 "/>
<text text-anchor="middle" x="36" y="-20.9" font-family="Arial" font-size="12.00">frequency:</text>
<text text-anchor="middle" x="36" y="-7.9" font-family="Arial" font-size="12.00">500.0</text>
<polyline fill="none" stroke="black" stroke-width="2" points="72,-0.5 72,-34.5 "/>
<text text-anchor="middle" x="83.5" y="-14.4" font-family="Arial" font-size="12.00">0</text>
</g>
<!-- ugen_1 -->
<g id="node2" class="node">
<title>ugen_1</title>
<path fill="#bcd2ee" stroke="black" stroke-width="2" d="M179,-7.5C179,-7.5 251,-7.5 251,-7.5 257,-7.5 263,-13.5 263,-19.5 263,-19.5 263,-63.5 263,-63.5 263,-69.5 257,-75.5 251,-75.5 251,-75.5 179,-75.5 179,-75.5 173,-75.5 167,-69.5 167,-63.5 167,-63.5 167,-19.5 167,-19.5 167,-13.5 173,-7.5 179,-7.5"/>
<text text-anchor="middle" x="215" y="-61.9" font-family="Arial" font-size="12.00">UnaryOpUGen</text>
<text text-anchor="middle" x="215" y="-48.9" font-family="Arial" font-size="12.00">[S_CURVE]</text>
<text text-anchor="middle" x="215" y="-35.9" font-family="Arial" font-size="12.00">(audio)</text>
<polyline fill="none" stroke="black" stroke-width="2" points="167,-28.5 263,-28.5 "/>
<text text-anchor="middle" x="198.5" y="-14.9" font-family="Arial" font-size="12.00">source</text>
<polyline fill="none" stroke="black" stroke-width="2" points="230,-7.5 230,-28.5 "/>
<text text-anchor="middle" x="246.5" y="-14.9" font-family="Arial" font-size="12.00">0</text>
</g>
</g>
</svg>
