<?xml version="1.0" encoding="UTF-8" standalone="no"?>
<!DOCTYPE svg PUBLIC "-//W3C//DTD SVG 1.1//EN"
 "http://www.w3.org/Graphics/SVG/1.1/DTD/svg11.dtd">
<!-- Generated by graphviz version 2.40.1 (20161225.0304)
 -->
<!-- Title: synthdef_2f1fa110743854c82a7bf87b4c692da2 Pages: 1 -->
<svg width="742pt" height="850pt"
 viewBox="0.00 0.00 742.00 850.08" xmlns="http://www.w3.org/2000/svg" xmlns:xlink="http://www.w3.org/1999/xlink">
<g id="graph0" class="graph" transform="scale(1 1) rotate(0) translate(4 846.0846)">
<title>synthdef_2f1fa110743854c82a7bf87b4c692da2</title>
<!-- ugen_0&#45;&gt;ugen_1 -->
<g id="edge1" class="edge">
<title>ugen_0:e&#45;&gt;ugen_1:w</title>
<path fill="none" stroke="#fa8072" stroke-width="2" d="M54,-736C114.17,-736 79.7376,-633.1955 128.8214,-621.1481"/>
<polygon fill="#fa8072" stroke="#fa8072" stroke-width="2" points="129.4553,-624.5989 139,-620 128.6707,-617.643 129.4553,-624.5989"/>
</g>
<!-- ugen_0&#45;&gt;ugen_14 -->
<g id="edge2" class="edge">
<title>ugen_0:e&#45;&gt;ugen_14:w</title>
<path fill="none" stroke="#fa8072" stroke-width="2" d="M54,-736C162.6664,-736 171.6357,-811.7509 278,-834 334.1187,-845.7388 350.4485,-843.4363 407,-834 500.1624,-818.4547 540.7185,-831.2879 608,-765 672.6691,-701.2859 592.3003,-575.3422 669.752,-565.6"/>
<polygon fill="#fa8072" stroke="#fa8072" stroke-width="2" points="670.2217,-569.0786 680,-565 669.8125,-562.0906 670.2217,-569.0786"/>
</g>
<!-- ugen_1&#45;&gt;ugen_4 -->
<g id="edge3" class="edge">
<title>ugen_1:e&#45;&gt;ugen_4:w</title>
<path fill="none" stroke="#4682b4" stroke-width="2" d="M193,-652C257.5553,-652 214.9932,-766.3828 267.8325,-778.8934"/>
<polygon fill="#4682b4" stroke="#4682b4" stroke-width="2" points="267.68,-782.3974 278,-780 268.4374,-775.4385 267.68,-782.3974"/>
</g>
<!-- ugen_1&#45;&gt;ugen_5 -->
<g id="edge4" class="edge">
<title>ugen_1:e&#45;&gt;ugen_5:w</title>
<path fill="none" stroke="#4682b4" stroke-width="2" d="M193,-630C227.0885,-630 238.1074,-630 267.6901,-630"/>
<polygon fill="#4682b4" stroke="#4682b4" stroke-width="2" points="268,-633.5001 278,-630 268,-626.5001 268,-633.5001"/>
</g>
<!-- ugen_1&#45;&gt;ugen_6 -->
<g id="edge5" class="edge">
<title>ugen_1:e&#45;&gt;ugen_6:w</title>
<path fill="none" stroke="#4682b4" stroke-width="2" d="M193,-609C358.9508,-609 119.1321,-252.8127 267.6475,-237.5077"/>
<polygon fill="#4682b4" stroke="#4682b4" stroke-width="2" points="268.1835,-240.9858 278,-237 267.8405,-233.9942 268.1835,-240.9858"/>
</g>
<!-- ugen_1&#45;&gt;ugen_7 -->
<g id="edge6" class="edge">
<title>ugen_1:e&#45;&gt;ugen_7:w</title>
<path fill="none" stroke="#4682b4" stroke-width="2" d="M193,-588C302.2852,-588 173.8903,-118.7707 267.8562,-88.5274"/>
<polygon fill="#4682b4" stroke="#4682b4" stroke-width="2" points="268.6326,-91.95 278,-87 267.5903,-85.0281 268.6326,-91.95"/>
</g>
<!-- ugen_10&#45;&gt;ugen_14 -->
<g id="edge7" class="edge">
<title>ugen_10:e&#45;&gt;ugen_14:w</title>
<path fill="none" stroke="#4682b4" stroke-width="2" d="M608,-673C669.9401,-673 620.6596,-558.1994 670.0005,-545.1947"/>
<polygon fill="#4682b4" stroke="#4682b4" stroke-width="2" points="670.4859,-548.6617 680,-544 669.6554,-541.7111 670.4859,-548.6617"/>
</g>
<!-- ugen_11&#45;&gt;ugen_14 -->
<g id="edge8" class="edge">
<title>ugen_11:e&#45;&gt;ugen_14:w</title>
<path fill="none" stroke="#4682b4" stroke-width="2" d="M608,-523C636.375,-523 645.8795,-523 669.9792,-523"/>
<polygon fill="#4682b4" stroke="#4682b4" stroke-width="2" points="670,-526.5001 680,-523 670,-519.5001 670,-526.5001"/>
</g>
<!-- ugen_12&#45;&gt;ugen_14 -->
<g id="edge9" class="edge">
<title>ugen_12:e&#45;&gt;ugen_14:w</title>
<path fill="none" stroke="#4682b4" stroke-width="2" d="M608,-373C669.9401,-373 620.6596,-487.8006 670.0005,-500.8053"/>
<polygon fill="#4682b4" stroke="#4682b4" stroke-width="2" points="669.6554,-504.2889 680,-502 670.4859,-497.3383 669.6554,-504.2889"/>
</g>
<!-- ugen_13&#45;&gt;ugen_14 -->
<g id="edge10" class="edge">
<title>ugen_13:e&#45;&gt;ugen_14:w</title>
<path fill="none" stroke="#4682b4" stroke-width="2" d="M608,-223C723.4441,-223 570.7472,-465.6154 669.9562,-480.305"/>
<polygon fill="#4682b4" stroke="#4682b4" stroke-width="2" points="669.7822,-483.8012 680,-481 670.2655,-476.8179 669.7822,-483.8012"/>
</g>
<!-- ugen_2&#45;&gt;ugen_4 -->
<g id="edge11" class="edge">
<title>ugen_2:e&#45;&gt;ugen_4:w</title>
<path fill="none" stroke="#fa8072" stroke-width="2" d="M206,-214C312.4038,-214 177.4931,-672.0011 267.8721,-702.4153"/>
<polygon fill="#fa8072" stroke="#fa8072" stroke-width="2" points="267.5791,-705.9119 278,-704 268.6613,-698.9961 267.5791,-705.9119"/>
</g>
<!-- ugen_2&#45;&gt;ugen_5 -->
<g id="edge12" class="edge">
<title>ugen_2:e&#45;&gt;ugen_5:w</title>
<path fill="none" stroke="#fa8072" stroke-width="2" d="M206,-214C356.842,-214 134.4286,-538.2493 267.7743,-553.4485"/>
<polygon fill="#fa8072" stroke="#fa8072" stroke-width="2" points="267.826,-556.9562 278,-554 268.2031,-549.9664 267.826,-556.9562"/>
</g>
<!-- ugen_2&#45;&gt;ugen_6 -->
<g id="edge13" class="edge">
<title>ugen_2:e&#45;&gt;ugen_6:w</title>
<path fill="none" stroke="#fa8072" stroke-width="2" d="M206,-214C242.0098,-214 239.2508,-170.4717 267.9914,-162.3101"/>
<polygon fill="#fa8072" stroke="#fa8072" stroke-width="2" points="268.5389,-165.7684 278,-161 267.6303,-158.8276 268.5389,-165.7684"/>
</g>
<!-- ugen_2&#45;&gt;ugen_7 -->
<g id="edge14" class="edge">
<title>ugen_2:e&#45;&gt;ugen_7:w</title>
<path fill="none" stroke="#fa8072" stroke-width="2" d="M206,-214C297.9896,-214 191.2753,-26.5496 267.7411,-11.9051"/>
<polygon fill="#fa8072" stroke="#fa8072" stroke-width="2" points="268.3463,-15.3654 278,-11 267.7311,-8.3924 268.3463,-15.3654"/>
</g>
<!-- ugen_3&#45;&gt;ugen_4 -->
<g id="edge15" class="edge">
<title>ugen_3:e&#45;&gt;ugen_4:w</title>
<path fill="none" stroke="#fa8072" stroke-width="2" d="M206,-439C333.4931,-439 157.0817,-709.5732 267.955,-724.3702"/>
<polygon fill="#fa8072" stroke="#fa8072" stroke-width="2" points="267.8005,-727.8673 278,-725 268.2386,-720.881 267.8005,-727.8673"/>
</g>
<!-- ugen_3&#45;&gt;ugen_5 -->
<g id="edge16" class="edge">
<title>ugen_3:e&#45;&gt;ugen_5:w</title>
<path fill="none" stroke="#fa8072" stroke-width="2" d="M206,-439C270.6523,-439 216.2951,-560.5317 267.9307,-573.8243"/>
<polygon fill="#fa8072" stroke="#fa8072" stroke-width="2" points="267.6615,-577.3165 278,-575 268.4734,-570.3638 267.6615,-577.3165"/>
</g>
<!-- ugen_3&#45;&gt;ugen_6 -->
<g id="edge17" class="edge">
<title>ugen_3:e&#45;&gt;ugen_6:w</title>
<path fill="none" stroke="#fa8072" stroke-width="2" d="M206,-439C321.029,-439 169.1246,-197.325 267.9916,-182.6923"/>
<polygon fill="#fa8072" stroke="#fa8072" stroke-width="2" points="268.2654,-186.1819 278,-182 267.7823,-179.1986 268.2654,-186.1819"/>
</g>
<!-- ugen_3&#45;&gt;ugen_7 -->
<g id="edge18" class="edge">
<title>ugen_3:e&#45;&gt;ugen_7:w</title>
<path fill="none" stroke="#fa8072" stroke-width="2" d="M206,-439C386.1097,-439 105.6586,-47.7432 267.7776,-32.4597"/>
<polygon fill="#fa8072" stroke="#fa8072" stroke-width="2" points="268.1674,-35.9458 278,-32 267.8528,-28.9529 268.1674,-35.9458"/>
</g>
<!-- ugen_4&#45;&gt;ugen_10 -->
<g id="edge19" class="edge">
<title>ugen_4:e&#45;&gt;ugen_10:w</title>
<path fill="none" stroke="#4682b4" stroke-width="2" d="M407,-742C438.1655,-742 443.3089,-717.1942 468.9853,-711.9618"/>
<polygon fill="#4682b4" stroke="#4682b4" stroke-width="2" points="469.3804,-715.44 479,-711 468.7112,-708.4721 469.3804,-715.44"/>
</g>
<!-- ugen_5&#45;&gt;ugen_11 -->
<g id="edge20" class="edge">
<title>ugen_5:e&#45;&gt;ugen_11:w</title>
<path fill="none" stroke="#4682b4" stroke-width="2" d="M407,-592C438.1655,-592 443.3089,-567.1942 468.9853,-561.9618"/>
<polygon fill="#4682b4" stroke="#4682b4" stroke-width="2" points="469.3804,-565.44 479,-561 468.7112,-558.4721 469.3804,-565.44"/>
</g>
<!-- ugen_6&#45;&gt;ugen_12 -->
<g id="edge21" class="edge">
<title>ugen_6:e&#45;&gt;ugen_12:w</title>
<path fill="none" stroke="#4682b4" stroke-width="2" d="M407,-199C502.8152,-199 388.6071,-395.5576 468.8347,-410.1458"/>
<polygon fill="#4682b4" stroke="#4682b4" stroke-width="2" points="468.742,-413.6503 479,-411 469.3282,-406.6749 468.742,-413.6503"/>
</g>
<!-- ugen_7&#45;&gt;ugen_13 -->
<g id="edge22" class="edge">
<title>ugen_7:e&#45;&gt;ugen_13:w</title>
<path fill="none" stroke="#4682b4" stroke-width="2" d="M407,-49C502.8152,-49 388.6071,-245.5576 468.8347,-260.1458"/>
<polygon fill="#4682b4" stroke="#4682b4" stroke-width="2" points="468.742,-263.6503 479,-261 469.3282,-256.6749 468.742,-263.6503"/>
</g>
<!-- ugen_8&#45;&gt;ugen_10 -->
<g id="edge23" class="edge">
<title>ugen_8:e&#45;&gt;ugen_10:w</title>
<path fill="none" stroke="#fa8072" stroke-width="2" d="M382.5,-335C519.0053,-335 348.0544,-619.959 468.9467,-634.4296"/>
<polygon fill="#fa8072" stroke="#fa8072" stroke-width="2" points="468.8178,-637.9278 479,-635 469.2143,-630.9391 468.8178,-637.9278"/>
</g>
<!-- ugen_8&#45;&gt;ugen_11 -->
<g id="edge24" class="edge">
<title>ugen_8:e&#45;&gt;ugen_11:w</title>
<path fill="none" stroke="#fa8072" stroke-width="2" d="M382.5,-335C458.0552,-335 405.2349,-471.2671 468.7549,-484.0421"/>
<polygon fill="#fa8072" stroke="#fa8072" stroke-width="2" points="468.7176,-487.5538 479,-485 469.3693,-480.5842 468.7176,-487.5538"/>
</g>
<!-- ugen_8&#45;&gt;ugen_12 -->
<g id="edge25" class="edge">
<title>ugen_8:e&#45;&gt;ugen_12:w</title>
<path fill="none" stroke="#fa8072" stroke-width="2" d="M382.5,-335C421.7031,-335 434.0307,-335 468.6146,-335"/>
<polygon fill="#fa8072" stroke="#fa8072" stroke-width="2" points="469,-338.5001 479,-335 469,-331.5001 469,-338.5001"/>
</g>
<!-- ugen_8&#45;&gt;ugen_13 -->
<g id="edge26" class="edge">
<title>ugen_8:e&#45;&gt;ugen_13:w</title>
<path fill="none" stroke="#fa8072" stroke-width="2" d="M382.5,-335C458.0552,-335 405.2349,-198.7329 468.7549,-185.9579"/>
<polygon fill="#fa8072" stroke="#fa8072" stroke-width="2" points="469.3693,-189.4158 479,-185 468.7176,-182.4462 469.3693,-189.4158"/>
</g>
<!-- ugen_9&#45;&gt;ugen_10 -->
<g id="edge27" class="edge">
<title>ugen_9:e&#45;&gt;ugen_10:w</title>
<path fill="none" stroke="#fa8072" stroke-width="2" d="M382.5,-456C477.5324,-456 387.5181,-641.4317 468.8166,-655.1942"/>
<polygon fill="#fa8072" stroke="#fa8072" stroke-width="2" points="468.755,-658.7002 479,-656 469.3073,-651.722 468.755,-658.7002"/>
</g>
<!-- ugen_9&#45;&gt;ugen_11 -->
<g id="edge28" class="edge">
<title>ugen_9:e&#45;&gt;ugen_11:w</title>
<path fill="none" stroke="#fa8072" stroke-width="2" d="M382.5,-456C427.219,-456 430.4453,-498.8535 469.0052,-505.2146"/>
<polygon fill="#fa8072" stroke="#fa8072" stroke-width="2" points="468.7565,-508.7058 479,-506 469.3049,-501.7273 468.7565,-508.7058"/>
</g>
<!-- ugen_9&#45;&gt;ugen_12 -->
<g id="edge29" class="edge">
<title>ugen_9:e&#45;&gt;ugen_12:w</title>
<path fill="none" stroke="#fa8072" stroke-width="2" d="M382.5,-456C440.6448,-456 420.0987,-367.3754 469.0219,-356.9897"/>
<polygon fill="#fa8072" stroke="#fa8072" stroke-width="2" points="469.3943,-360.4701 479,-356 468.7033,-353.5042 469.3943,-360.4701"/>
</g>
<!-- ugen_9&#45;&gt;ugen_13 -->
<g id="edge30" class="edge">
<title>ugen_9:e&#45;&gt;ugen_13:w</title>
<path fill="none" stroke="#fa8072" stroke-width="2" d="M382.5,-456C497.9958,-456 368.2393,-220.9076 468.8858,-206.6735"/>
<polygon fill="#fa8072" stroke="#fa8072" stroke-width="2" points="469.2547,-210.1568 479,-206 468.7895,-203.1722 469.2547,-210.1568"/>
</g>
<!-- ugen_0 -->
<g id="node1" class="node">
<title>ugen_0</title>
<path fill="#ee9572" stroke="#000000" stroke-width="2" d="M12,-719C12,-719 42,-719 42,-719 48,-719 54,-725 54,-731 54,-731 54,-775 54,-775 54,-781 48,-787 42,-787 42,-787 12,-787 12,-787 6,-787 0,-781 0,-775 0,-775 0,-731 0,-731 0,-725 6,-719 12,-719"/>
<text text-anchor="middle" x="27" y="-773.4" font-family="Arial" font-size="12.00" fill="#000000">Control</text>
<text text-anchor="middle" x="27" y="-760.4" font-family="Arial" font-size="12.00" fill="#000000">(scalar)</text>
<polyline fill="none" stroke="#000000" stroke-width="2" points="0,-753 54,-753 "/>
<text text-anchor="middle" x="27" y="-739.4" font-family="Arial" font-size="12.00" fill="#000000">out:</text>
<text text-anchor="middle" x="27" y="-726.4" font-family="Arial" font-size="12.00" fill="#000000">0.0</text>
</g>
<!-- ugen_1 -->
<g id="node2" class="node">
<title>ugen_1</title>
<path fill="#bcd2ee" stroke="#000000" stroke-width="2" d="M151,-578C151,-578 181,-578 181,-578 187,-578 193,-584 193,-590 193,-590 193,-684 193,-684 193,-690 187,-696 181,-696 181,-696 151,-696 151,-696 145,-696 139,-690 139,-684 139,-684 139,-590 139,-590 139,-584 145,-578 151,-578"/>
<text text-anchor="middle" x="166" y="-682.4" font-family="Arial" font-size="12.00" fill="#000000">In</text>
<text text-anchor="middle" x="166" y="-669.4" font-family="Arial" font-size="12.00" fill="#000000">(audio)</text>
<polyline fill="none" stroke="#000000" stroke-width="2" points="139,-662 193,-662 "/>
<text text-anchor="middle" x="154.5" y="-616.9" font-family="Arial" font-size="12.00" fill="#000000">bus</text>
<polyline fill="none" stroke="#000000" stroke-width="2" points="170,-578 170,-662 "/>
<text text-anchor="middle" x="181.5" y="-648.4" font-family="Arial" font-size="12.00" fill="#000000">0</text>
<polyline fill="none" stroke="#000000" stroke-width="2" points="170,-641 193,-641 "/>
<text text-anchor="middle" x="181.5" y="-627.4" font-family="Arial" font-size="12.00" fill="#000000">1</text>
<polyline fill="none" stroke="#000000" stroke-width="2" points="170,-620 193,-620 "/>
<text text-anchor="middle" x="181.5" y="-606.4" font-family="Arial" font-size="12.00" fill="#000000">2</text>
<polyline fill="none" stroke="#000000" stroke-width="2" points="170,-599 193,-599 "/>
<text text-anchor="middle" x="181.5" y="-585.4" font-family="Arial" font-size="12.00" fill="#000000">3</text>
</g>
<!-- ugen_10 -->
<g id="node3" class="node">
<title>ugen_10</title>
<path fill="#bcd2ee" stroke="#000000" stroke-width="2" d="M491,-624.5C491,-624.5 596,-624.5 596,-624.5 602,-624.5 608,-630.5 608,-636.5 608,-636.5 608,-743.5 608,-743.5 608,-749.5 602,-755.5 596,-755.5 596,-755.5 491,-755.5 491,-755.5 485,-755.5 479,-749.5 479,-743.5 479,-743.5 479,-636.5 479,-636.5 479,-630.5 485,-624.5 491,-624.5"/>
<text text-anchor="middle" x="543.5" y="-741.9" font-family="Arial" font-size="12.00" fill="#000000">AllpassC</text>
<text text-anchor="middle" x="543.5" y="-728.9" font-family="Arial" font-size="12.00" fill="#000000">(audio)</text>
<polyline fill="none" stroke="#000000" stroke-width="2" points="479,-721.5 608,-721.5 "/>
<text text-anchor="middle" x="532.5" y="-707.9" font-family="Arial" font-size="12.00" fill="#000000">source</text>
<polyline fill="none" stroke="#000000" stroke-width="2" points="479,-700.5 586,-700.5 "/>
<text text-anchor="middle" x="532.5" y="-686.9" font-family="Arial" font-size="12.00" fill="#000000">maximum_delay_time:</text>
<text text-anchor="middle" x="532.5" y="-673.9" font-family="Arial" font-size="12.00" fill="#000000">0.1</text>
<polyline fill="none" stroke="#000000" stroke-width="2" points="479,-666.5 586,-666.5 "/>
<text text-anchor="middle" x="532.5" y="-652.9" font-family="Arial" font-size="12.00" fill="#000000">delay_time</text>
<polyline fill="none" stroke="#000000" stroke-width="2" points="479,-645.5 586,-645.5 "/>
<text text-anchor="middle" x="532.5" y="-631.9" font-family="Arial" font-size="12.00" fill="#000000">decay_time</text>
<polyline fill="none" stroke="#000000" stroke-width="2" points="586,-624.5 586,-721.5 "/>
<text text-anchor="middle" x="597" y="-669.9" font-family="Arial" font-size="12.00" fill="#000000">0</text>
</g>
<!-- ugen_11 -->
<g id="node4" class="node">
<title>ugen_11</title>
<path fill="#bcd2ee" stroke="#000000" stroke-width="2" d="M491,-474.5C491,-474.5 596,-474.5 596,-474.5 602,-474.5 608,-480.5 608,-486.5 608,-486.5 608,-593.5 608,-593.5 608,-599.5 602,-605.5 596,-605.5 596,-605.5 491,-605.5 491,-605.5 485,-605.5 479,-599.5 479,-593.5 479,-593.5 479,-486.5 479,-486.5 479,-480.5 485,-474.5 491,-474.5"/>
<text text-anchor="middle" x="543.5" y="-591.9" font-family="Arial" font-size="12.00" fill="#000000">AllpassC</text>
<text text-anchor="middle" x="543.5" y="-578.9" font-family="Arial" font-size="12.00" fill="#000000">(audio)</text>
<polyline fill="none" stroke="#000000" stroke-width="2" points="479,-571.5 608,-571.5 "/>
<text text-anchor="middle" x="532.5" y="-557.9" font-family="Arial" font-size="12.00" fill="#000000">source</text>
<polyline fill="none" stroke="#000000" stroke-width="2" points="479,-550.5 586,-550.5 "/>
<text text-anchor="middle" x="532.5" y="-536.9" font-family="Arial" font-size="12.00" fill="#000000">maximum_delay_time:</text>
<text text-anchor="middle" x="532.5" y="-523.9" font-family="Arial" font-size="12.00" fill="#000000">0.1</text>
<polyline fill="none" stroke="#000000" stroke-width="2" points="479,-516.5 586,-516.5 "/>
<text text-anchor="middle" x="532.5" y="-502.9" font-family="Arial" font-size="12.00" fill="#000000">delay_time</text>
<polyline fill="none" stroke="#000000" stroke-width="2" points="479,-495.5 586,-495.5 "/>
<text text-anchor="middle" x="532.5" y="-481.9" font-family="Arial" font-size="12.00" fill="#000000">decay_time</text>
<polyline fill="none" stroke="#000000" stroke-width="2" points="586,-474.5 586,-571.5 "/>
<text text-anchor="middle" x="597" y="-519.9" font-family="Arial" font-size="12.00" fill="#000000">0</text>
</g>
<!-- ugen_12 -->
<g id="node5" class="node">
<title>ugen_12</title>
<path fill="#bcd2ee" stroke="#000000" stroke-width="2" d="M491,-324.5C491,-324.5 596,-324.5 596,-324.5 602,-324.5 608,-330.5 608,-336.5 608,-336.5 608,-443.5 608,-443.5 608,-449.5 602,-455.5 596,-455.5 596,-455.5 491,-455.5 491,-455.5 485,-455.5 479,-449.5 479,-443.5 479,-443.5 479,-336.5 479,-336.5 479,-330.5 485,-324.5 491,-324.5"/>
<text text-anchor="middle" x="543.5" y="-441.9" font-family="Arial" font-size="12.00" fill="#000000">AllpassC</text>
<text text-anchor="middle" x="543.5" y="-428.9" font-family="Arial" font-size="12.00" fill="#000000">(audio)</text>
<polyline fill="none" stroke="#000000" stroke-width="2" points="479,-421.5 608,-421.5 "/>
<text text-anchor="middle" x="532.5" y="-407.9" font-family="Arial" font-size="12.00" fill="#000000">source</text>
<polyline fill="none" stroke="#000000" stroke-width="2" points="479,-400.5 586,-400.5 "/>
<text text-anchor="middle" x="532.5" y="-386.9" font-family="Arial" font-size="12.00" fill="#000000">maximum_delay_time:</text>
<text text-anchor="middle" x="532.5" y="-373.9" font-family="Arial" font-size="12.00" fill="#000000">0.1</text>
<polyline fill="none" stroke="#000000" stroke-width="2" points="479,-366.5 586,-366.5 "/>
<text text-anchor="middle" x="532.5" y="-352.9" font-family="Arial" font-size="12.00" fill="#000000">delay_time</text>
<polyline fill="none" stroke="#000000" stroke-width="2" points="479,-345.5 586,-345.5 "/>
<text text-anchor="middle" x="532.5" y="-331.9" font-family="Arial" font-size="12.00" fill="#000000">decay_time</text>
<polyline fill="none" stroke="#000000" stroke-width="2" points="586,-324.5 586,-421.5 "/>
<text text-anchor="middle" x="597" y="-369.9" font-family="Arial" font-size="12.00" fill="#000000">0</text>
</g>
<!-- ugen_13 -->
<g id="node6" class="node">
<title>ugen_13</title>
<path fill="#bcd2ee" stroke="#000000" stroke-width="2" d="M491,-174.5C491,-174.5 596,-174.5 596,-174.5 602,-174.5 608,-180.5 608,-186.5 608,-186.5 608,-293.5 608,-293.5 608,-299.5 602,-305.5 596,-305.5 596,-305.5 491,-305.5 491,-305.5 485,-305.5 479,-299.5 479,-293.5 479,-293.5 479,-186.5 479,-186.5 479,-180.5 485,-174.5 491,-174.5"/>
<text text-anchor="middle" x="543.5" y="-291.9" font-family="Arial" font-size="12.00" fill="#000000">AllpassC</text>
<text text-anchor="middle" x="543.5" y="-278.9" font-family="Arial" font-size="12.00" fill="#000000">(audio)</text>
<polyline fill="none" stroke="#000000" stroke-width="2" points="479,-271.5 608,-271.5 "/>
<text text-anchor="middle" x="532.5" y="-257.9" font-family="Arial" font-size="12.00" fill="#000000">source</text>
<polyline fill="none" stroke="#000000" stroke-width="2" points="479,-250.5 586,-250.5 "/>
<text text-anchor="middle" x="532.5" y="-236.9" font-family="Arial" font-size="12.00" fill="#000000">maximum_delay_time:</text>
<text text-anchor="middle" x="532.5" y="-223.9" font-family="Arial" font-size="12.00" fill="#000000">0.1</text>
<polyline fill="none" stroke="#000000" stroke-width="2" points="479,-216.5 586,-216.5 "/>
<text text-anchor="middle" x="532.5" y="-202.9" font-family="Arial" font-size="12.00" fill="#000000">delay_time</text>
<polyline fill="none" stroke="#000000" stroke-width="2" points="479,-195.5 586,-195.5 "/>
<text text-anchor="middle" x="532.5" y="-181.9" font-family="Arial" font-size="12.00" fill="#000000">decay_time</text>
<polyline fill="none" stroke="#000000" stroke-width="2" points="586,-174.5 586,-271.5 "/>
<text text-anchor="middle" x="597" y="-219.9" font-family="Arial" font-size="12.00" fill="#000000">0</text>
</g>
<!-- ugen_14 -->
<g id="node7" class="node">
<title>ugen_14</title>
<path fill="#bcd2ee" stroke="#000000" stroke-width="2" d="M692,-470.5C692,-470.5 722,-470.5 722,-470.5 728,-470.5 734,-476.5 734,-482.5 734,-482.5 734,-597.5 734,-597.5 734,-603.5 728,-609.5 722,-609.5 722,-609.5 692,-609.5 692,-609.5 686,-609.5 680,-603.5 680,-597.5 680,-597.5 680,-482.5 680,-482.5 680,-476.5 686,-470.5 692,-470.5"/>
<text text-anchor="middle" x="707" y="-595.9" font-family="Arial" font-size="12.00" fill="#000000">Out</text>
<text text-anchor="middle" x="707" y="-582.9" font-family="Arial" font-size="12.00" fill="#000000">(audio)</text>
<polyline fill="none" stroke="#000000" stroke-width="2" points="680,-575.5 734,-575.5 "/>
<text text-anchor="middle" x="707" y="-561.9" font-family="Arial" font-size="12.00" fill="#000000">bus</text>
<polyline fill="none" stroke="#000000" stroke-width="2" points="680,-554.5 734,-554.5 "/>
<text text-anchor="middle" x="707" y="-540.9" font-family="Arial" font-size="12.00" fill="#000000">source</text>
<polyline fill="none" stroke="#000000" stroke-width="2" points="680,-533.5 734,-533.5 "/>
<text text-anchor="middle" x="707" y="-519.9" font-family="Arial" font-size="12.00" fill="#000000"> </text>
<polyline fill="none" stroke="#000000" stroke-width="2" points="680,-512.5 734,-512.5 "/>
<text text-anchor="middle" x="707" y="-498.9" font-family="Arial" font-size="12.00" fill="#000000"> </text>
<polyline fill="none" stroke="#000000" stroke-width="2" points="680,-491.5 734,-491.5 "/>
<text text-anchor="middle" x="707" y="-477.9" font-family="Arial" font-size="12.00" fill="#000000"> </text>
</g>
<!-- ugen_2 -->
<g id="node8" class="node">
<title>ugen_2</title>
<path fill="#ee9572" stroke="#000000" stroke-width="2" d="M138,-180C138,-180 194,-180 194,-180 200,-180 206,-186 206,-192 206,-192 206,-270 206,-270 206,-276 200,-282 194,-282 194,-282 138,-282 138,-282 132,-282 126,-276 126,-270 126,-270 126,-192 126,-192 126,-186 132,-180 138,-180"/>
<text text-anchor="middle" x="166" y="-268.4" font-family="Arial" font-size="12.00" fill="#000000">ExpRand</text>
<text text-anchor="middle" x="166" y="-255.4" font-family="Arial" font-size="12.00" fill="#000000">(scalar)</text>
<polyline fill="none" stroke="#000000" stroke-width="2" points="126,-248 206,-248 "/>
<text text-anchor="middle" x="155" y="-234.4" font-family="Arial" font-size="12.00" fill="#000000">minimum:</text>
<text text-anchor="middle" x="155" y="-221.4" font-family="Arial" font-size="12.00" fill="#000000">0.01</text>
<polyline fill="none" stroke="#000000" stroke-width="2" points="126,-214 184,-214 "/>
<text text-anchor="middle" x="155" y="-200.4" font-family="Arial" font-size="12.00" fill="#000000">maximum:</text>
<text text-anchor="middle" x="155" y="-187.4" font-family="Arial" font-size="12.00" fill="#000000">0.1</text>
<polyline fill="none" stroke="#000000" stroke-width="2" points="184,-180 184,-248 "/>
<text text-anchor="middle" x="195" y="-210.9" font-family="Arial" font-size="12.00" fill="#000000">0</text>
</g>
<!-- ugen_3 -->
<g id="node9" class="node">
<title>ugen_3</title>
<path fill="#ee9572" stroke="#000000" stroke-width="2" d="M138,-405C138,-405 194,-405 194,-405 200,-405 206,-411 206,-417 206,-417 206,-495 206,-495 206,-501 200,-507 194,-507 194,-507 138,-507 138,-507 132,-507 126,-501 126,-495 126,-495 126,-417 126,-417 126,-411 132,-405 138,-405"/>
<text text-anchor="middle" x="166" y="-493.4" font-family="Arial" font-size="12.00" fill="#000000">ExpRand</text>
<text text-anchor="middle" x="166" y="-480.4" font-family="Arial" font-size="12.00" fill="#000000">(scalar)</text>
<polyline fill="none" stroke="#000000" stroke-width="2" points="126,-473 206,-473 "/>
<text text-anchor="middle" x="155" y="-459.4" font-family="Arial" font-size="12.00" fill="#000000">minimum:</text>
<text text-anchor="middle" x="155" y="-446.4" font-family="Arial" font-size="12.00" fill="#000000">0.01</text>
<polyline fill="none" stroke="#000000" stroke-width="2" points="126,-439 184,-439 "/>
<text text-anchor="middle" x="155" y="-425.4" font-family="Arial" font-size="12.00" fill="#000000">maximum:</text>
<text text-anchor="middle" x="155" y="-412.4" font-family="Arial" font-size="12.00" fill="#000000">0.1</text>
<polyline fill="none" stroke="#000000" stroke-width="2" points="184,-405 184,-473 "/>
<text text-anchor="middle" x="195" y="-435.9" font-family="Arial" font-size="12.00" fill="#000000">0</text>
</g>
<!-- ugen_4 -->
<g id="node10" class="node">
<title>ugen_4</title>
<path fill="#bcd2ee" stroke="#000000" stroke-width="2" d="M290,-693.5C290,-693.5 395,-693.5 395,-693.5 401,-693.5 407,-699.5 407,-705.5 407,-705.5 407,-812.5 407,-812.5 407,-818.5 401,-824.5 395,-824.5 395,-824.5 290,-824.5 290,-824.5 284,-824.5 278,-818.5 278,-812.5 278,-812.5 278,-705.5 278,-705.5 278,-699.5 284,-693.5 290,-693.5"/>
<text text-anchor="middle" x="342.5" y="-810.9" font-family="Arial" font-size="12.00" fill="#000000">AllpassC</text>
<text text-anchor="middle" x="342.5" y="-797.9" font-family="Arial" font-size="12.00" fill="#000000">(audio)</text>
<polyline fill="none" stroke="#000000" stroke-width="2" points="278,-790.5 407,-790.5 "/>
<text text-anchor="middle" x="331.5" y="-776.9" font-family="Arial" font-size="12.00" fill="#000000">source</text>
<polyline fill="none" stroke="#000000" stroke-width="2" points="278,-769.5 385,-769.5 "/>
<text text-anchor="middle" x="331.5" y="-755.9" font-family="Arial" font-size="12.00" fill="#000000">maximum_delay_time:</text>
<text text-anchor="middle" x="331.5" y="-742.9" font-family="Arial" font-size="12.00" fill="#000000">0.1</text>
<polyline fill="none" stroke="#000000" stroke-width="2" points="278,-735.5 385,-735.5 "/>
<text text-anchor="middle" x="331.5" y="-721.9" font-family="Arial" font-size="12.00" fill="#000000">delay_time</text>
<polyline fill="none" stroke="#000000" stroke-width="2" points="278,-714.5 385,-714.5 "/>
<text text-anchor="middle" x="331.5" y="-700.9" font-family="Arial" font-size="12.00" fill="#000000">decay_time</text>
<polyline fill="none" stroke="#000000" stroke-width="2" points="385,-693.5 385,-790.5 "/>
<text text-anchor="middle" x="396" y="-738.9" font-family="Arial" font-size="12.00" fill="#000000">0</text>
</g>
<!-- ugen_5 -->
<g id="node11" class="node">
<title>ugen_5</title>
<path fill="#bcd2ee" stroke="#000000" stroke-width="2" d="M290,-543.5C290,-543.5 395,-543.5 395,-543.5 401,-543.5 407,-549.5 407,-555.5 407,-555.5 407,-662.5 407,-662.5 407,-668.5 401,-674.5 395,-674.5 395,-674.5 290,-674.5 290,-674.5 284,-674.5 278,-668.5 278,-662.5 278,-662.5 278,-555.5 278,-555.5 278,-549.5 284,-543.5 290,-543.5"/>
<text text-anchor="middle" x="342.5" y="-660.9" font-family="Arial" font-size="12.00" fill="#000000">AllpassC</text>
<text text-anchor="middle" x="342.5" y="-647.9" font-family="Arial" font-size="12.00" fill="#000000">(audio)</text>
<polyline fill="none" stroke="#000000" stroke-width="2" points="278,-640.5 407,-640.5 "/>
<text text-anchor="middle" x="331.5" y="-626.9" font-family="Arial" font-size="12.00" fill="#000000">source</text>
<polyline fill="none" stroke="#000000" stroke-width="2" points="278,-619.5 385,-619.5 "/>
<text text-anchor="middle" x="331.5" y="-605.9" font-family="Arial" font-size="12.00" fill="#000000">maximum_delay_time:</text>
<text text-anchor="middle" x="331.5" y="-592.9" font-family="Arial" font-size="12.00" fill="#000000">0.1</text>
<polyline fill="none" stroke="#000000" stroke-width="2" points="278,-585.5 385,-585.5 "/>
<text text-anchor="middle" x="331.5" y="-571.9" font-family="Arial" font-size="12.00" fill="#000000">delay_time</text>
<polyline fill="none" stroke="#000000" stroke-width="2" points="278,-564.5 385,-564.5 "/>
<text text-anchor="middle" x="331.5" y="-550.9" font-family="Arial" font-size="12.00" fill="#000000">decay_time</text>
<polyline fill="none" stroke="#000000" stroke-width="2" points="385,-543.5 385,-640.5 "/>
<text text-anchor="middle" x="396" y="-588.9" font-family="Arial" font-size="12.00" fill="#000000">0</text>
</g>
<!-- ugen_6 -->
<g id="node12" class="node">
<title>ugen_6</title>
<path fill="#bcd2ee" stroke="#000000" stroke-width="2" d="M290,-150.5C290,-150.5 395,-150.5 395,-150.5 401,-150.5 407,-156.5 407,-162.5 407,-162.5 407,-269.5 407,-269.5 407,-275.5 401,-281.5 395,-281.5 395,-281.5 290,-281.5 290,-281.5 284,-281.5 278,-275.5 278,-269.5 278,-269.5 278,-162.5 278,-162.5 278,-156.5 284,-150.5 290,-150.5"/>
<text text-anchor="middle" x="342.5" y="-267.9" font-family="Arial" font-size="12.00" fill="#000000">AllpassC</text>
<text text-anchor="middle" x="342.5" y="-254.9" font-family="Arial" font-size="12.00" fill="#000000">(audio)</text>
<polyline fill="none" stroke="#000000" stroke-width="2" points="278,-247.5 407,-247.5 "/>
<text text-anchor="middle" x="331.5" y="-233.9" font-family="Arial" font-size="12.00" fill="#000000">source</text>
<polyline fill="none" stroke="#000000" stroke-width="2" points="278,-226.5 385,-226.5 "/>
<text text-anchor="middle" x="331.5" y="-212.9" font-family="Arial" font-size="12.00" fill="#000000">maximum_delay_time:</text>
<text text-anchor="middle" x="331.5" y="-199.9" font-family="Arial" font-size="12.00" fill="#000000">0.1</text>
<polyline fill="none" stroke="#000000" stroke-width="2" points="278,-192.5 385,-192.5 "/>
<text text-anchor="middle" x="331.5" y="-178.9" font-family="Arial" font-size="12.00" fill="#000000">delay_time</text>
<polyline fill="none" stroke="#000000" stroke-width="2" points="278,-171.5 385,-171.5 "/>
<text text-anchor="middle" x="331.5" y="-157.9" font-family="Arial" font-size="12.00" fill="#000000">decay_time</text>
<polyline fill="none" stroke="#000000" stroke-width="2" points="385,-150.5 385,-247.5 "/>
<text text-anchor="middle" x="396" y="-195.9" font-family="Arial" font-size="12.00" fill="#000000">0</text>
</g>
<!-- ugen_7 -->
<g id="node13" class="node">
<title>ugen_7</title>
<path fill="#bcd2ee" stroke="#000000" stroke-width="2" d="M290,-.5C290,-.5 395,-.5 395,-.5 401,-.5 407,-6.5 407,-12.5 407,-12.5 407,-119.5 407,-119.5 407,-125.5 401,-131.5 395,-131.5 395,-131.5 290,-131.5 290,-131.5 284,-131.5 278,-125.5 278,-119.5 278,-119.5 278,-12.5 278,-12.5 278,-6.5 284,-.5 290,-.5"/>
<text text-anchor="middle" x="342.5" y="-117.9" font-family="Arial" font-size="12.00" fill="#000000">AllpassC</text>
<text text-anchor="middle" x="342.5" y="-104.9" font-family="Arial" font-size="12.00" fill="#000000">(audio)</text>
<polyline fill="none" stroke="#000000" stroke-width="2" points="278,-97.5 407,-97.5 "/>
<text text-anchor="middle" x="331.5" y="-83.9" font-family="Arial" font-size="12.00" fill="#000000">source</text>
<polyline fill="none" stroke="#000000" stroke-width="2" points="278,-76.5 385,-76.5 "/>
<text text-anchor="middle" x="331.5" y="-62.9" font-family="Arial" font-size="12.00" fill="#000000">maximum_delay_time:</text>
<text text-anchor="middle" x="331.5" y="-49.9" font-family="Arial" font-size="12.00" fill="#000000">0.1</text>
<polyline fill="none" stroke="#000000" stroke-width="2" points="278,-42.5 385,-42.5 "/>
<text text-anchor="middle" x="331.5" y="-28.9" font-family="Arial" font-size="12.00" fill="#000000">delay_time</text>
<polyline fill="none" stroke="#000000" stroke-width="2" points="278,-21.5 385,-21.5 "/>
<text text-anchor="middle" x="331.5" y="-7.9" font-family="Arial" font-size="12.00" fill="#000000">decay_time</text>
<polyline fill="none" stroke="#000000" stroke-width="2" points="385,-.5 385,-97.5 "/>
<text text-anchor="middle" x="396" y="-45.9" font-family="Arial" font-size="12.00" fill="#000000">0</text>
</g>
<!-- ugen_8 -->
<g id="node14" class="node">
<title>ugen_8</title>
<path fill="#ee9572" stroke="#000000" stroke-width="2" d="M314.5,-301C314.5,-301 370.5,-301 370.5,-301 376.5,-301 382.5,-307 382.5,-313 382.5,-313 382.5,-391 382.5,-391 382.5,-397 376.5,-403 370.5,-403 370.5,-403 314.5,-403 314.5,-403 308.5,-403 302.5,-397 302.5,-391 302.5,-391 302.5,-313 302.5,-313 302.5,-307 308.5,-301 314.5,-301"/>
<text text-anchor="middle" x="342.5" y="-389.4" font-family="Arial" font-size="12.00" fill="#000000">ExpRand</text>
<text text-anchor="middle" x="342.5" y="-376.4" font-family="Arial" font-size="12.00" fill="#000000">(scalar)</text>
<polyline fill="none" stroke="#000000" stroke-width="2" points="302.5,-369 382.5,-369 "/>
<text text-anchor="middle" x="331.5" y="-355.4" font-family="Arial" font-size="12.00" fill="#000000">minimum:</text>
<text text-anchor="middle" x="331.5" y="-342.4" font-family="Arial" font-size="12.00" fill="#000000">0.01</text>
<polyline fill="none" stroke="#000000" stroke-width="2" points="302.5,-335 360.5,-335 "/>
<text text-anchor="middle" x="331.5" y="-321.4" font-family="Arial" font-size="12.00" fill="#000000">maximum:</text>
<text text-anchor="middle" x="331.5" y="-308.4" font-family="Arial" font-size="12.00" fill="#000000">0.1</text>
<polyline fill="none" stroke="#000000" stroke-width="2" points="360.5,-301 360.5,-369 "/>
<text text-anchor="middle" x="371.5" y="-331.9" font-family="Arial" font-size="12.00" fill="#000000">0</text>
</g>
<!-- ugen_9 -->
<g id="node15" class="node">
<title>ugen_9</title>
<path fill="#ee9572" stroke="#000000" stroke-width="2" d="M314.5,-422C314.5,-422 370.5,-422 370.5,-422 376.5,-422 382.5,-428 382.5,-434 382.5,-434 382.5,-512 382.5,-512 382.5,-518 376.5,-524 370.5,-524 370.5,-524 314.5,-524 314.5,-524 308.5,-524 302.5,-518 302.5,-512 302.5,-512 302.5,-434 302.5,-434 302.5,-428 308.5,-422 314.5,-422"/>
<text text-anchor="middle" x="342.5" y="-510.4" font-family="Arial" font-size="12.00" fill="#000000">ExpRand</text>
<text text-anchor="middle" x="342.5" y="-497.4" font-family="Arial" font-size="12.00" fill="#000000">(scalar)</text>
<polyline fill="none" stroke="#000000" stroke-width="2" points="302.5,-490 382.5,-490 "/>
<text text-anchor="middle" x="331.5" y="-476.4" font-family="Arial" font-size="12.00" fill="#000000">minimum:</text>
<text text-anchor="middle" x="331.5" y="-463.4" font-family="Arial" font-size="12.00" fill="#000000">0.01</text>
<polyline fill="none" stroke="#000000" stroke-width="2" points="302.5,-456 360.5,-456 "/>
<text text-anchor="middle" x="331.5" y="-442.4" font-family="Arial" font-size="12.00" fill="#000000">maximum:</text>
<text text-anchor="middle" x="331.5" y="-429.4" font-family="Arial" font-size="12.00" fill="#000000">0.1</text>
<polyline fill="none" stroke="#000000" stroke-width="2" points="360.5,-422 360.5,-490 "/>
<text text-anchor="middle" x="371.5" y="-452.9" font-family="Arial" font-size="12.00" fill="#000000">0</text>
</g>
</g>
</svg>
