<?xml version="1.0" encoding="UTF-8" standalone="no"?>
<!DOCTYPE svg PUBLIC "-//W3C//DTD SVG 1.1//EN"
 "http://www.w3.org/Graphics/SVG/1.1/DTD/svg11.dtd">
<!-- Generated by graphviz version 2.43.0 (0)
 -->
<!-- Title: synthdef_f21696d155a2686700992f0e9a04a79c Pages: 1 -->
<svg width="293pt" height="78pt"
 viewBox="0.00 0.00 293.00 77.50" xmlns="http://www.w3.org/2000/svg" xmlns:xlink="http://www.w3.org/1999/xlink">
<g id="graph0" class="graph" transform="scale(1 1) rotate(0) translate(4 73.5)">
<title>synthdef_f21696d155a2686700992f0e9a04a79c</title>
<!-- ugen_0&#45;&gt;ugen_1 -->
<g id="edge1" class="edge">
<title>ugen_0:e&#45;&gt;ugen_1:w</title>
<path fill="none" stroke="steelblue" stroke-width="2" d="M79,-11C107.38,-11 116.88,-11 140.98,-11"/>
<polygon fill="steelblue" stroke="steelblue" stroke-width="2" points="141,-14.5 151,-11 141,-7.5 141,-14.5"/>
</g>
<!-- ugen_0 -->
<g id="node1" class="node">
<title>ugen_0</title>
<path fill="#bcd2ee" stroke="black" stroke-width="2" d="M12,-0.5C12,-0.5 67,-0.5 67,-0.5 73,-0.5 79,-6.5 79,-12.5 79,-12.5 79,-43.5 79,-43.5 79,-49.5 73,-55.5 67,-55.5 67,-55.5 12,-55.5 12,-55.5 6,-55.5 0,-49.5 0,-43.5 0,-43.5 0,-12.5 0,-12.5 0,-6.5 6,-0.5 12,-0.5"/>
<text text-anchor="middle" x="39.5" y="-41.9" font-family="Arial" font-size="12.00">WhiteNoise</text>
<text text-anchor="middle" x="39.5" y="-28.9" font-family="Arial" font-size="12.00">(audio)</text>
<polyline fill="none" stroke="black" stroke-width="2" points="0,-21.5 79,-21.5 "/>
<text text-anchor="middle" x="39.5" y="-7.9" font-family="Arial" font-size="12.00">0</text>
</g>
<!-- ugen_1 -->
<g id="node2" class="node">
<title>ugen_1</title>
<path fill="#bcd2ee" stroke="black" stroke-width="2" d="M163,-1C163,-1 273,-1 273,-1 279,-1 285,-7 285,-13 285,-13 285,-57 285,-57 285,-63 279,-69 273,-69 273,-69 163,-69 163,-69 157,-69 151,-63 151,-57 151,-57 151,-13 151,-13 151,-7 157,-1 163,-1"/>
<text text-anchor="middle" x="218" y="-55.4" font-family="Arial" font-size="12.00">UnaryOpUGen</text>
<text text-anchor="middle" x="218" y="-42.4" font-family="Arial" font-size="12.00">[ABSOLUTE_VALUE]</text>
<text text-anchor="middle" x="218" y="-29.4" font-family="Arial" font-size="12.00">(audio)</text>
<polyline fill="none" stroke="black" stroke-width="2" points="151,-22 285,-22 "/>
<text text-anchor="middle" x="192" y="-8.4" font-family="Arial" font-size="12.00">source</text>
<polyline fill="none" stroke="black" stroke-width="2" points="233,-1 233,-22 "/>
<text text-anchor="middle" x="259" y="-8.4" font-family="Arial" font-size="12.00">0</text>
</g>
</g>
</svg>
