<?xml version="1.0" encoding="UTF-8" standalone="no"?>
<!DOCTYPE svg PUBLIC "-//W3C//DTD SVG 1.1//EN"
 "http://www.w3.org/Graphics/SVG/1.1/DTD/svg11.dtd">
<!-- Generated by graphviz version 2.49.1 (20210923.0004)
 -->
<!-- Title: synthdef_9ffc96952d8a081f877924018f36d463 Pages: 1 -->
<svg width="876pt" height="446pt"
 viewBox="0.00 0.00 876.00 446.00" xmlns="http://www.w3.org/2000/svg" xmlns:xlink="http://www.w3.org/1999/xlink">
<g id="graph0" class="graph" transform="scale(1 1) rotate(0) translate(4 442)">
<title>synthdef_9ffc96952d8a081f877924018f36d463</title>
<!-- ugen_0&#45;&gt;ugen_1 -->
<g id="edge1" class="edge">
<title>ugen_0:e&#45;&gt;ugen_1:w</title>
<path fill="none" stroke="salmon" stroke-width="2" d="M57,-386.5C95.81,-386.5 102.14,-356.42 135.36,-351.25"/>
<polygon fill="salmon" stroke="salmon" stroke-width="2" points="135.79,-354.73 145.5,-350.5 135.27,-347.75 135.79,-354.73"/>
</g>
<!-- ugen_0&#45;&gt;ugen_8 -->
<g id="edge2" class="edge">
<title>ugen_0:e&#45;&gt;ugen_8:w</title>
<path fill="none" stroke="salmon" stroke-width="2" d="M57,-386.5C89.98,-386.5 96.26,-400.47 129,-404.5 170.91,-409.66 181.8,-405.85 224,-404.5 470.74,-396.61 533.99,-369.26 775.84,-368.52"/>
<polygon fill="salmon" stroke="salmon" stroke-width="2" points="776.01,-372.02 786,-368.5 775.99,-365.02 776.01,-372.02"/>
</g>
<!-- ugen_1&#45;&gt;ugen_4 -->
<g id="edge3" class="edge">
<title>ugen_1:e&#45;&gt;ugen_4:w</title>
<path fill="none" stroke="steelblue" stroke-width="2" d="M207.5,-350.5C244.29,-350.5 253.94,-333.1 285.85,-329.98"/>
<polygon fill="steelblue" stroke="steelblue" stroke-width="2" points="286.18,-333.47 296,-329.5 285.85,-326.47 286.18,-333.47"/>
</g>
<!-- ugen_2&#45;&gt;ugen_4 -->
<g id="edge4" class="edge">
<title>ugen_2:e&#45;&gt;ugen_4:w</title>
<path fill="none" stroke="salmon" stroke-width="2" d="M224,-131.5C283.15,-131.5 239.14,-239.17 285.8,-252.21"/>
<polygon fill="salmon" stroke="salmon" stroke-width="2" points="285.64,-255.72 296,-253.5 286.52,-248.78 285.64,-255.72"/>
</g>
<!-- ugen_3&#45;&gt;ugen_4 -->
<g id="edge5" class="edge">
<title>ugen_3:e&#45;&gt;ugen_4:w</title>
<path fill="none" stroke="salmon" stroke-width="2" d="M224,-252.5C253.8,-252.5 261.09,-269.95 285.97,-273.77"/>
<polygon fill="salmon" stroke="salmon" stroke-width="2" points="285.77,-277.26 296,-274.5 286.28,-270.28 285.77,-277.26"/>
</g>
<!-- ugen_4&#45;&gt;ugen_7 -->
<g id="edge6" class="edge">
<title>ugen_4:e&#45;&gt;ugen_7:w</title>
<path fill="none" stroke="steelblue" stroke-width="2" d="M456,-291.5C490.48,-291.5 490.24,-253.23 517.94,-245.76"/>
<polygon fill="steelblue" stroke="steelblue" stroke-width="2" points="518.51,-249.21 528,-244.5 517.64,-242.27 518.51,-249.21"/>
</g>
<!-- ugen_5&#45;&gt;ugen_7 -->
<g id="edge7" class="edge">
<title>ugen_5:e&#45;&gt;ugen_7:w</title>
<path fill="none" stroke="salmon" stroke-width="2" d="M425,-34.5C496.45,-34.5 457.2,-155.73 517.84,-167.57"/>
<polygon fill="salmon" stroke="salmon" stroke-width="2" points="517.72,-171.08 528,-168.5 518.36,-164.11 517.72,-171.08"/>
</g>
<!-- ugen_6&#45;&gt;ugen_7 -->
<g id="edge8" class="edge">
<title>ugen_6:e&#45;&gt;ugen_7:w</title>
<path fill="none" stroke="salmon" stroke-width="2" d="M425,-155.5C469.63,-155.5 478.59,-184.64 517.92,-188.97"/>
<polygon fill="salmon" stroke="salmon" stroke-width="2" points="517.83,-192.47 528,-189.5 518.2,-185.48 517.83,-192.47"/>
</g>
<!-- ugen_7&#45;&gt;ugen_8 -->
<g id="edge9" class="edge">
<title>ugen_7:e&#45;&gt;ugen_8:w</title>
<path fill="none" stroke="steelblue" stroke-width="2" d="M688,-206.5C760.59,-206.5 714.71,-334.07 775.73,-346.52"/>
<polygon fill="steelblue" stroke="steelblue" stroke-width="2" points="775.71,-350.04 786,-347.5 776.38,-343.07 775.71,-350.04"/>
</g>
<!-- ugen_7&#45;&gt;ugen_9 -->
<g id="edge10" class="edge">
<title>ugen_7:e&#45;&gt;ugen_9:w</title>
<path fill="none" stroke="steelblue" stroke-width="2" d="M688,-206.5C716.38,-206.5 725.88,-206.5 749.98,-206.5"/>
<polygon fill="steelblue" stroke="steelblue" stroke-width="2" points="750,-210 760,-206.5 750,-203 750,-210"/>
</g>
<!-- ugen_0 -->
<g id="node1" class="node">
<title>ugen_0</title>
<path fill="#ee9572" stroke="black" stroke-width="2" d="M12,-369.5C12,-369.5 45,-369.5 45,-369.5 51,-369.5 57,-375.5 57,-381.5 57,-381.5 57,-425.5 57,-425.5 57,-431.5 51,-437.5 45,-437.5 45,-437.5 12,-437.5 12,-437.5 6,-437.5 0,-431.5 0,-425.5 0,-425.5 0,-381.5 0,-381.5 0,-375.5 6,-369.5 12,-369.5"/>
<text text-anchor="middle" x="28.5" y="-423.9" font-family="Arial" font-size="12.00">Control</text>
<text text-anchor="middle" x="28.5" y="-410.9" font-family="Arial" font-size="12.00">(scalar)</text>
<polyline fill="none" stroke="black" stroke-width="2" points="0,-403.5 57,-403.5 "/>
<text text-anchor="middle" x="28.5" y="-389.9" font-family="Arial" font-size="12.00">out:</text>
<text text-anchor="middle" x="28.5" y="-376.9" font-family="Arial" font-size="12.00">0.0</text>
</g>
<!-- ugen_1 -->
<g id="node2" class="node">
<title>ugen_1</title>
<path fill="#bcd2ee" stroke="black" stroke-width="2" d="M159,-340C159,-340 194,-340 194,-340 200,-340 206,-346 206,-352 206,-352 206,-383 206,-383 206,-389 200,-395 194,-395 194,-395 159,-395 159,-395 153,-395 147,-389 147,-383 147,-383 147,-352 147,-352 147,-346 153,-340 159,-340"/>
<text text-anchor="middle" x="176.5" y="-381.4" font-family="Arial" font-size="12.00">In</text>
<text text-anchor="middle" x="176.5" y="-368.4" font-family="Arial" font-size="12.00">(audio)</text>
<polyline fill="none" stroke="black" stroke-width="2" points="147,-361 206,-361 "/>
<text text-anchor="middle" x="165" y="-347.4" font-family="Arial" font-size="12.00">bus</text>
<polyline fill="none" stroke="black" stroke-width="2" points="183,-340 183,-361 "/>
<text text-anchor="middle" x="194.5" y="-347.4" font-family="Arial" font-size="12.00">0</text>
</g>
<!-- ugen_2 -->
<g id="node3" class="node">
<title>ugen_2</title>
<path fill="#ee9572" stroke="black" stroke-width="2" d="M141,-97.5C141,-97.5 212,-97.5 212,-97.5 218,-97.5 224,-103.5 224,-109.5 224,-109.5 224,-187.5 224,-187.5 224,-193.5 218,-199.5 212,-199.5 212,-199.5 141,-199.5 141,-199.5 135,-199.5 129,-193.5 129,-187.5 129,-187.5 129,-109.5 129,-109.5 129,-103.5 135,-97.5 141,-97.5"/>
<text text-anchor="middle" x="176.5" y="-185.9" font-family="Arial" font-size="12.00">ExpRand</text>
<text text-anchor="middle" x="176.5" y="-172.9" font-family="Arial" font-size="12.00">(scalar)</text>
<polyline fill="none" stroke="black" stroke-width="2" points="129,-165.5 224,-165.5 "/>
<text text-anchor="middle" x="165" y="-151.9" font-family="Arial" font-size="12.00">minimum:</text>
<text text-anchor="middle" x="165" y="-138.9" font-family="Arial" font-size="12.00">0.01</text>
<polyline fill="none" stroke="black" stroke-width="2" points="129,-131.5 201,-131.5 "/>
<text text-anchor="middle" x="165" y="-117.9" font-family="Arial" font-size="12.00">maximum:</text>
<text text-anchor="middle" x="165" y="-104.9" font-family="Arial" font-size="12.00">0.1</text>
<polyline fill="none" stroke="black" stroke-width="2" points="201,-97.5 201,-165.5 "/>
<text text-anchor="middle" x="212.5" y="-128.4" font-family="Arial" font-size="12.00">0</text>
</g>
<!-- ugen_3 -->
<g id="node4" class="node">
<title>ugen_3</title>
<path fill="#ee9572" stroke="black" stroke-width="2" d="M141,-218.5C141,-218.5 212,-218.5 212,-218.5 218,-218.5 224,-224.5 224,-230.5 224,-230.5 224,-308.5 224,-308.5 224,-314.5 218,-320.5 212,-320.5 212,-320.5 141,-320.5 141,-320.5 135,-320.5 129,-314.5 129,-308.5 129,-308.5 129,-230.5 129,-230.5 129,-224.5 135,-218.5 141,-218.5"/>
<text text-anchor="middle" x="176.5" y="-306.9" font-family="Arial" font-size="12.00">ExpRand</text>
<text text-anchor="middle" x="176.5" y="-293.9" font-family="Arial" font-size="12.00">(scalar)</text>
<polyline fill="none" stroke="black" stroke-width="2" points="129,-286.5 224,-286.5 "/>
<text text-anchor="middle" x="165" y="-272.9" font-family="Arial" font-size="12.00">minimum:</text>
<text text-anchor="middle" x="165" y="-259.9" font-family="Arial" font-size="12.00">0.01</text>
<polyline fill="none" stroke="black" stroke-width="2" points="129,-252.5 201,-252.5 "/>
<text text-anchor="middle" x="165" y="-238.9" font-family="Arial" font-size="12.00">maximum:</text>
<text text-anchor="middle" x="165" y="-225.9" font-family="Arial" font-size="12.00">0.1</text>
<polyline fill="none" stroke="black" stroke-width="2" points="201,-218.5 201,-286.5 "/>
<text text-anchor="middle" x="212.5" y="-249.4" font-family="Arial" font-size="12.00">0</text>
</g>
<!-- ugen_4 -->
<g id="node5" class="node">
<title>ugen_4</title>
<path fill="#bcd2ee" stroke="black" stroke-width="2" d="M308,-243C308,-243 444,-243 444,-243 450,-243 456,-249 456,-255 456,-255 456,-362 456,-362 456,-368 450,-374 444,-374 444,-374 308,-374 308,-374 302,-374 296,-368 296,-362 296,-362 296,-255 296,-255 296,-249 302,-243 308,-243"/>
<text text-anchor="middle" x="376" y="-360.4" font-family="Arial" font-size="12.00">AllpassC</text>
<text text-anchor="middle" x="376" y="-347.4" font-family="Arial" font-size="12.00">(audio)</text>
<polyline fill="none" stroke="black" stroke-width="2" points="296,-340 456,-340 "/>
<text text-anchor="middle" x="364.5" y="-326.4" font-family="Arial" font-size="12.00">source</text>
<polyline fill="none" stroke="black" stroke-width="2" points="296,-319 433,-319 "/>
<text text-anchor="middle" x="364.5" y="-305.4" font-family="Arial" font-size="12.00">maximum_delay_time:</text>
<text text-anchor="middle" x="364.5" y="-292.4" font-family="Arial" font-size="12.00">0.1</text>
<polyline fill="none" stroke="black" stroke-width="2" points="296,-285 433,-285 "/>
<text text-anchor="middle" x="364.5" y="-271.4" font-family="Arial" font-size="12.00">delay_time</text>
<polyline fill="none" stroke="black" stroke-width="2" points="296,-264 433,-264 "/>
<text text-anchor="middle" x="364.5" y="-250.4" font-family="Arial" font-size="12.00">decay_time</text>
<polyline fill="none" stroke="black" stroke-width="2" points="433,-243 433,-340 "/>
<text text-anchor="middle" x="444.5" y="-288.4" font-family="Arial" font-size="12.00">0</text>
</g>
<!-- ugen_5 -->
<g id="node6" class="node">
<title>ugen_5</title>
<path fill="#ee9572" stroke="black" stroke-width="2" d="M340.5,-0.5C340.5,-0.5 411.5,-0.5 411.5,-0.5 417.5,-0.5 423.5,-6.5 423.5,-12.5 423.5,-12.5 423.5,-90.5 423.5,-90.5 423.5,-96.5 417.5,-102.5 411.5,-102.5 411.5,-102.5 340.5,-102.5 340.5,-102.5 334.5,-102.5 328.5,-96.5 328.5,-90.5 328.5,-90.5 328.5,-12.5 328.5,-12.5 328.5,-6.5 334.5,-0.5 340.5,-0.5"/>
<text text-anchor="middle" x="376" y="-88.9" font-family="Arial" font-size="12.00">ExpRand</text>
<text text-anchor="middle" x="376" y="-75.9" font-family="Arial" font-size="12.00">(scalar)</text>
<polyline fill="none" stroke="black" stroke-width="2" points="328.5,-68.5 423.5,-68.5 "/>
<text text-anchor="middle" x="364.5" y="-54.9" font-family="Arial" font-size="12.00">minimum:</text>
<text text-anchor="middle" x="364.5" y="-41.9" font-family="Arial" font-size="12.00">0.01</text>
<polyline fill="none" stroke="black" stroke-width="2" points="328.5,-34.5 400.5,-34.5 "/>
<text text-anchor="middle" x="364.5" y="-20.9" font-family="Arial" font-size="12.00">maximum:</text>
<text text-anchor="middle" x="364.5" y="-7.9" font-family="Arial" font-size="12.00">0.1</text>
<polyline fill="none" stroke="black" stroke-width="2" points="400.5,-0.5 400.5,-68.5 "/>
<text text-anchor="middle" x="412" y="-31.4" font-family="Arial" font-size="12.00">0</text>
</g>
<!-- ugen_6 -->
<g id="node7" class="node">
<title>ugen_6</title>
<path fill="#ee9572" stroke="black" stroke-width="2" d="M340.5,-121.5C340.5,-121.5 411.5,-121.5 411.5,-121.5 417.5,-121.5 423.5,-127.5 423.5,-133.5 423.5,-133.5 423.5,-211.5 423.5,-211.5 423.5,-217.5 417.5,-223.5 411.5,-223.5 411.5,-223.5 340.5,-223.5 340.5,-223.5 334.5,-223.5 328.5,-217.5 328.5,-211.5 328.5,-211.5 328.5,-133.5 328.5,-133.5 328.5,-127.5 334.5,-121.5 340.5,-121.5"/>
<text text-anchor="middle" x="376" y="-209.9" font-family="Arial" font-size="12.00">ExpRand</text>
<text text-anchor="middle" x="376" y="-196.9" font-family="Arial" font-size="12.00">(scalar)</text>
<polyline fill="none" stroke="black" stroke-width="2" points="328.5,-189.5 423.5,-189.5 "/>
<text text-anchor="middle" x="364.5" y="-175.9" font-family="Arial" font-size="12.00">minimum:</text>
<text text-anchor="middle" x="364.5" y="-162.9" font-family="Arial" font-size="12.00">0.01</text>
<polyline fill="none" stroke="black" stroke-width="2" points="328.5,-155.5 400.5,-155.5 "/>
<text text-anchor="middle" x="364.5" y="-141.9" font-family="Arial" font-size="12.00">maximum:</text>
<text text-anchor="middle" x="364.5" y="-128.9" font-family="Arial" font-size="12.00">0.1</text>
<polyline fill="none" stroke="black" stroke-width="2" points="400.5,-121.5 400.5,-189.5 "/>
<text text-anchor="middle" x="412" y="-152.4" font-family="Arial" font-size="12.00">0</text>
</g>
<!-- ugen_7 -->
<g id="node8" class="node">
<title>ugen_7</title>
<path fill="#bcd2ee" stroke="black" stroke-width="2" d="M540,-158C540,-158 676,-158 676,-158 682,-158 688,-164 688,-170 688,-170 688,-277 688,-277 688,-283 682,-289 676,-289 676,-289 540,-289 540,-289 534,-289 528,-283 528,-277 528,-277 528,-170 528,-170 528,-164 534,-158 540,-158"/>
<text text-anchor="middle" x="608" y="-275.4" font-family="Arial" font-size="12.00">AllpassC</text>
<text text-anchor="middle" x="608" y="-262.4" font-family="Arial" font-size="12.00">(audio)</text>
<polyline fill="none" stroke="black" stroke-width="2" points="528,-255 688,-255 "/>
<text text-anchor="middle" x="596.5" y="-241.4" font-family="Arial" font-size="12.00">source</text>
<polyline fill="none" stroke="black" stroke-width="2" points="528,-234 665,-234 "/>
<text text-anchor="middle" x="596.5" y="-220.4" font-family="Arial" font-size="12.00">maximum_delay_time:</text>
<text text-anchor="middle" x="596.5" y="-207.4" font-family="Arial" font-size="12.00">0.1</text>
<polyline fill="none" stroke="black" stroke-width="2" points="528,-200 665,-200 "/>
<text text-anchor="middle" x="596.5" y="-186.4" font-family="Arial" font-size="12.00">delay_time</text>
<polyline fill="none" stroke="black" stroke-width="2" points="528,-179 665,-179 "/>
<text text-anchor="middle" x="596.5" y="-165.4" font-family="Arial" font-size="12.00">decay_time</text>
<polyline fill="none" stroke="black" stroke-width="2" points="665,-158 665,-255 "/>
<text text-anchor="middle" x="676.5" y="-203.4" font-family="Arial" font-size="12.00">0</text>
</g>
<!-- ugen_8 -->
<g id="node9" class="node">
<title>ugen_8</title>
<path fill="#bcd2ee" stroke="black" stroke-width="2" d="M799,-337.5C799,-337.5 829,-337.5 829,-337.5 835,-337.5 841,-343.5 841,-349.5 841,-349.5 841,-401.5 841,-401.5 841,-407.5 835,-413.5 829,-413.5 829,-413.5 799,-413.5 799,-413.5 793,-413.5 787,-407.5 787,-401.5 787,-401.5 787,-349.5 787,-349.5 787,-343.5 793,-337.5 799,-337.5"/>
<text text-anchor="middle" x="814" y="-399.9" font-family="Arial" font-size="12.00">Out</text>
<text text-anchor="middle" x="814" y="-386.9" font-family="Arial" font-size="12.00">(audio)</text>
<polyline fill="none" stroke="black" stroke-width="2" points="787,-379.5 841,-379.5 "/>
<text text-anchor="middle" x="814" y="-365.9" font-family="Arial" font-size="12.00">bus</text>
<polyline fill="none" stroke="black" stroke-width="2" points="787,-358.5 841,-358.5 "/>
<text text-anchor="middle" x="814" y="-344.9" font-family="Arial" font-size="12.00">source</text>
</g>
<!-- ugen_9 -->
<g id="node10" class="node">
<title>ugen_9</title>
<path fill="#eedc82" stroke="black" stroke-width="2" d="M772,-94C772,-94 856,-94 856,-94 862,-94 868,-100 868,-106 868,-106 868,-239 868,-239 868,-245 862,-251 856,-251 856,-251 772,-251 772,-251 766,-251 760,-245 760,-239 760,-239 760,-106 760,-106 760,-100 766,-94 772,-94"/>
<text text-anchor="middle" x="814" y="-237.4" font-family="Arial" font-size="12.00">DetectSilence</text>
<text text-anchor="middle" x="814" y="-224.4" font-family="Arial" font-size="12.00">(control)</text>
<polyline fill="none" stroke="black" stroke-width="2" points="760,-217 868,-217 "/>
<text text-anchor="middle" x="802.5" y="-203.4" font-family="Arial" font-size="12.00">source</text>
<polyline fill="none" stroke="black" stroke-width="2" points="760,-196 845,-196 "/>
<text text-anchor="middle" x="802.5" y="-182.4" font-family="Arial" font-size="12.00">threshold:</text>
<text text-anchor="middle" x="802.5" y="-169.4" font-family="Arial" font-size="12.00">0.0001</text>
<polyline fill="none" stroke="black" stroke-width="2" points="760,-162 845,-162 "/>
<text text-anchor="middle" x="802.5" y="-148.4" font-family="Arial" font-size="12.00">time:</text>
<text text-anchor="middle" x="802.5" y="-135.4" font-family="Arial" font-size="12.00">0.1</text>
<polyline fill="none" stroke="black" stroke-width="2" points="760,-128 845,-128 "/>
<text text-anchor="middle" x="802.5" y="-114.4" font-family="Arial" font-size="12.00">done_action:</text>
<text text-anchor="middle" x="802.5" y="-101.4" font-family="Arial" font-size="12.00">2.0</text>
<polyline fill="none" stroke="black" stroke-width="2" points="845,-94 845,-217 "/>
<text text-anchor="middle" x="856.5" y="-152.4" font-family="Arial" font-size="12.00">0</text>
</g>
</g>
</svg>
