<?xml version="1.0" encoding="UTF-8" standalone="no"?>
<!DOCTYPE svg PUBLIC "-//W3C//DTD SVG 1.1//EN"
 "http://www.w3.org/Graphics/SVG/1.1/DTD/svg11.dtd">
<!-- Generated by graphviz version 2.49.1 (20210923.0004)
 -->
<!-- Title: synthdef_0eeea16179e4d9b4441b878fd108af92 Pages: 1 -->
<svg width="573pt" height="605pt"
 viewBox="0.00 0.00 573.00 605.00" xmlns="http://www.w3.org/2000/svg" xmlns:xlink="http://www.w3.org/1999/xlink">
<g id="graph0" class="graph" transform="scale(1 1) rotate(0) translate(4 601)">
<title>synthdef_0eeea16179e4d9b4441b878fd108af92</title>
<!-- ugen_0&#45;&gt;ugen_2 -->
<g id="edge1" class="edge">
<title>ugen_0:e&#45;&gt;ugen_2:w</title>
<path fill="none" stroke="steelblue" stroke-width="2" d="M96,-528.5C124.38,-528.5 133.88,-528.5 157.98,-528.5"/>
<polygon fill="steelblue" stroke="steelblue" stroke-width="2" points="158,-532 168,-528.5 158,-525 158,-532"/>
</g>
<!-- ugen_1&#45;&gt;ugen_2 -->
<g id="edge2" class="edge">
<title>ugen_1:e&#45;&gt;ugen_2:w</title>
<path fill="none" stroke="goldenrod" stroke-width="2" d="M96,-271.5C202.02,-271.5 67.84,-492.09 157.91,-506.74"/>
<polygon fill="goldenrod" stroke="goldenrod" stroke-width="2" points="157.76,-510.24 168,-507.5 158.29,-503.26 157.76,-510.24"/>
</g>
<!-- ugen_1&#45;&gt;ugen_4 -->
<g id="edge3" class="edge">
<title>ugen_1:e&#45;&gt;ugen_4:w</title>
<path fill="none" stroke="goldenrod" stroke-width="2" d="M96,-271.5C128.7,-271.5 131.38,-302.98 157.98,-309.37"/>
<polygon fill="goldenrod" stroke="goldenrod" stroke-width="2" points="157.67,-312.86 168,-310.5 158.45,-305.91 157.67,-312.86"/>
</g>
<!-- ugen_1&#45;&gt;ugen_6 -->
<g id="edge4" class="edge">
<title>ugen_1:e&#45;&gt;ugen_6:w</title>
<path fill="none" stroke="goldenrod" stroke-width="2" d="M96,-271.5C169.4,-271.5 98.49,-128.55 157.8,-114.59"/>
<polygon fill="goldenrod" stroke="goldenrod" stroke-width="2" points="158.43,-118.05 168,-113.5 157.68,-111.09 158.43,-118.05"/>
</g>
<!-- ugen_10&#45;&gt;ugen_11 -->
<g id="edge5" class="edge">
<title>ugen_10:e&#45;&gt;ugen_11:w</title>
<path fill="none" stroke="steelblue" stroke-width="2" d="M439,-95.5C506.03,-95.5 447.18,-222.92 500.93,-236.36"/>
<polygon fill="steelblue" stroke="steelblue" stroke-width="2" points="500.67,-239.85 511,-237.5 501.46,-232.89 500.67,-239.85"/>
</g>
<!-- ugen_2&#45;&gt;ugen_10 -->
<g id="edge9" class="edge">
<title>ugen_2:e&#45;&gt;ugen_10:w</title>
<path fill="none" stroke="steelblue" stroke-width="2" d="M267,-412.5C398.82,-412.5 213.86,-131.9 328.98,-117.11"/>
<polygon fill="steelblue" stroke="steelblue" stroke-width="2" points="329.23,-120.6 339,-116.5 328.81,-113.61 329.23,-120.6"/>
</g>
<!-- ugen_2&#45;&gt;ugen_7 -->
<g id="edge6" class="edge">
<title>ugen_2:e&#45;&gt;ugen_7:w</title>
<path fill="none" stroke="steelblue" stroke-width="2" d="M267,-520.5C303.74,-520.5 299.73,-474.51 328.82,-465.88"/>
<polygon fill="steelblue" stroke="steelblue" stroke-width="2" points="329.56,-469.32 339,-464.5 328.62,-462.38 329.56,-469.32"/>
</g>
<!-- ugen_2&#45;&gt;ugen_8 -->
<g id="edge7" class="edge">
<title>ugen_2:e&#45;&gt;ugen_8:w</title>
<path fill="none" stroke="steelblue" stroke-width="2" d="M267,-484.5C331.65,-484.5 277.3,-362.97 328.93,-349.68"/>
<polygon fill="steelblue" stroke="steelblue" stroke-width="2" points="329.47,-353.14 339,-348.5 328.66,-346.18 329.47,-353.14"/>
</g>
<!-- ugen_2&#45;&gt;ugen_9 -->
<g id="edge8" class="edge">
<title>ugen_2:e&#45;&gt;ugen_9:w</title>
<path fill="none" stroke="steelblue" stroke-width="2" d="M267,-448.5C364.44,-448.5 247.17,-248.23 328.67,-233.37"/>
<polygon fill="steelblue" stroke="steelblue" stroke-width="2" points="329.33,-236.83 339,-232.5 328.74,-229.85 329.33,-236.83"/>
</g>
<!-- ugen_3&#45;&gt;ugen_4 -->
<g id="edge10" class="edge">
<title>ugen_3:e&#45;&gt;ugen_4:w</title>
<path fill="none" stroke="steelblue" stroke-width="2" d="M96,-375.5C129.69,-375.5 130.69,-339.98 157.74,-332.77"/>
<polygon fill="steelblue" stroke="steelblue" stroke-width="2" points="158.51,-336.2 168,-331.5 157.65,-329.25 158.51,-336.2"/>
</g>
<!-- ugen_4&#45;&gt;ugen_10 -->
<g id="edge14" class="edge">
<title>ugen_4:e&#45;&gt;ugen_10:w</title>
<path fill="none" stroke="steelblue" stroke-width="2" d="M267,-215.5C325.43,-215.5 282.73,-109.59 328.91,-96.77"/>
<polygon fill="steelblue" stroke="steelblue" stroke-width="2" points="329.51,-100.22 339,-95.5 328.64,-93.27 329.51,-100.22"/>
</g>
<!-- ugen_4&#45;&gt;ugen_7 -->
<g id="edge11" class="edge">
<title>ugen_4:e&#45;&gt;ugen_7:w</title>
<path fill="none" stroke="steelblue" stroke-width="2" d="M267,-323.5C325.43,-323.5 282.73,-429.41 328.91,-442.23"/>
<polygon fill="steelblue" stroke="steelblue" stroke-width="2" points="328.64,-445.73 339,-443.5 329.51,-438.78 328.64,-445.73"/>
</g>
<!-- ugen_4&#45;&gt;ugen_8 -->
<g id="edge12" class="edge">
<title>ugen_4:e&#45;&gt;ugen_8:w</title>
<path fill="none" stroke="steelblue" stroke-width="2" d="M267,-287.5C299.89,-287.5 302.25,-319.79 328.94,-326.35"/>
<polygon fill="steelblue" stroke="steelblue" stroke-width="2" points="328.67,-329.84 339,-327.5 329.46,-322.88 328.67,-329.84"/>
</g>
<!-- ugen_4&#45;&gt;ugen_9 -->
<g id="edge13" class="edge">
<title>ugen_4:e&#45;&gt;ugen_9:w</title>
<path fill="none" stroke="steelblue" stroke-width="2" d="M267,-251.5C299.89,-251.5 302.25,-219.21 328.94,-212.65"/>
<polygon fill="steelblue" stroke="steelblue" stroke-width="2" points="329.46,-216.12 339,-211.5 328.67,-209.16 329.46,-216.12"/>
</g>
<!-- ugen_5&#45;&gt;ugen_6 -->
<g id="edge15" class="edge">
<title>ugen_5:e&#45;&gt;ugen_6:w</title>
<path fill="none" stroke="steelblue" stroke-width="2" d="M96,-134.5C124.38,-134.5 133.88,-134.5 157.98,-134.5"/>
<polygon fill="steelblue" stroke="steelblue" stroke-width="2" points="158,-138 168,-134.5 158,-131 158,-138"/>
</g>
<!-- ugen_6&#45;&gt;ugen_10 -->
<g id="edge19" class="edge">
<title>ugen_6:e&#45;&gt;ugen_10:w</title>
<path fill="none" stroke="steelblue" stroke-width="2" d="M267,-18.5C303.74,-18.5 299.73,-64.49 328.82,-73.12"/>
<polygon fill="steelblue" stroke="steelblue" stroke-width="2" points="328.62,-76.62 339,-74.5 329.56,-69.68 328.62,-76.62"/>
</g>
<!-- ugen_6&#45;&gt;ugen_7 -->
<g id="edge16" class="edge">
<title>ugen_6:e&#45;&gt;ugen_7:w</title>
<path fill="none" stroke="steelblue" stroke-width="2" d="M267,-126.5C398.82,-126.5 213.86,-407.1 328.98,-421.89"/>
<polygon fill="steelblue" stroke="steelblue" stroke-width="2" points="328.81,-425.39 339,-422.5 329.23,-418.4 328.81,-425.39"/>
</g>
<!-- ugen_6&#45;&gt;ugen_8 -->
<g id="edge17" class="edge">
<title>ugen_6:e&#45;&gt;ugen_8:w</title>
<path fill="none" stroke="steelblue" stroke-width="2" d="M267,-90.5C364.44,-90.5 247.17,-290.77 328.67,-305.63"/>
<polygon fill="steelblue" stroke="steelblue" stroke-width="2" points="328.74,-309.15 339,-306.5 329.33,-302.17 328.74,-309.15"/>
</g>
<!-- ugen_6&#45;&gt;ugen_9 -->
<g id="edge18" class="edge">
<title>ugen_6:e&#45;&gt;ugen_9:w</title>
<path fill="none" stroke="steelblue" stroke-width="2" d="M267,-54.5C331.65,-54.5 277.3,-176.03 328.93,-189.32"/>
<polygon fill="steelblue" stroke="steelblue" stroke-width="2" points="328.66,-192.82 339,-190.5 329.47,-185.86 328.66,-192.82"/>
</g>
<!-- ugen_7&#45;&gt;ugen_11 -->
<g id="edge20" class="edge">
<title>ugen_7:e&#45;&gt;ugen_11:w</title>
<path fill="none" stroke="steelblue" stroke-width="2" d="M439,-443.5C506.4,-443.5 446.87,-315.18 500.88,-301.65"/>
<polygon fill="steelblue" stroke="steelblue" stroke-width="2" points="501.46,-305.11 511,-300.5 500.67,-298.15 501.46,-305.11"/>
</g>
<!-- ugen_8&#45;&gt;ugen_11 -->
<g id="edge21" class="edge">
<title>ugen_8:e&#45;&gt;ugen_11:w</title>
<path fill="none" stroke="steelblue" stroke-width="2" d="M439,-327.5C473.7,-327.5 473.09,-288.42 500.89,-280.78"/>
<polygon fill="steelblue" stroke="steelblue" stroke-width="2" points="501.52,-284.23 511,-279.5 500.64,-277.29 501.52,-284.23"/>
</g>
<!-- ugen_9&#45;&gt;ugen_11 -->
<g id="edge22" class="edge">
<title>ugen_9:e&#45;&gt;ugen_11:w</title>
<path fill="none" stroke="steelblue" stroke-width="2" d="M439,-211.5C473.48,-211.5 473.24,-249.77 500.94,-257.24"/>
<polygon fill="steelblue" stroke="steelblue" stroke-width="2" points="500.64,-260.73 511,-258.5 501.51,-253.79 500.64,-260.73"/>
</g>
<!-- ugen_0 -->
<g id="node1" class="node">
<title>ugen_0</title>
<path fill="#bcd2ee" stroke="black" stroke-width="2" d="M12,-494.5C12,-494.5 84,-494.5 84,-494.5 90,-494.5 96,-500.5 96,-506.5 96,-506.5 96,-584.5 96,-584.5 96,-590.5 90,-596.5 84,-596.5 84,-596.5 12,-596.5 12,-596.5 6,-596.5 0,-590.5 0,-584.5 0,-584.5 0,-506.5 0,-506.5 0,-500.5 6,-494.5 12,-494.5"/>
<text text-anchor="middle" x="48" y="-582.9" font-family="Arial" font-size="12.00">SinOsc</text>
<text text-anchor="middle" x="48" y="-569.9" font-family="Arial" font-size="12.00">(audio)</text>
<polyline fill="none" stroke="black" stroke-width="2" points="0,-562.5 96,-562.5 "/>
<text text-anchor="middle" x="36.5" y="-548.9" font-family="Arial" font-size="12.00">frequency:</text>
<text text-anchor="middle" x="36.5" y="-535.9" font-family="Arial" font-size="12.00">440.0</text>
<polyline fill="none" stroke="black" stroke-width="2" points="0,-528.5 73,-528.5 "/>
<text text-anchor="middle" x="36.5" y="-514.9" font-family="Arial" font-size="12.00">phase:</text>
<text text-anchor="middle" x="36.5" y="-501.9" font-family="Arial" font-size="12.00">0.0</text>
<polyline fill="none" stroke="black" stroke-width="2" points="73,-494.5 73,-562.5 "/>
<text text-anchor="middle" x="84.5" y="-525.4" font-family="Arial" font-size="12.00">0</text>
</g>
<!-- ugen_1 -->
<g id="node2" class="node">
<title>ugen_1</title>
<path fill="#eedc82" stroke="black" stroke-width="2" d="M12,-254.5C12,-254.5 84,-254.5 84,-254.5 90,-254.5 96,-260.5 96,-266.5 96,-266.5 96,-310.5 96,-310.5 96,-316.5 90,-322.5 84,-322.5 84,-322.5 12,-322.5 12,-322.5 6,-322.5 0,-316.5 0,-310.5 0,-310.5 0,-266.5 0,-266.5 0,-260.5 6,-254.5 12,-254.5"/>
<text text-anchor="middle" x="48" y="-308.9" font-family="Arial" font-size="12.00">LFNoise2</text>
<text text-anchor="middle" x="48" y="-295.9" font-family="Arial" font-size="12.00">(control)</text>
<polyline fill="none" stroke="black" stroke-width="2" points="0,-288.5 96,-288.5 "/>
<text text-anchor="middle" x="36.5" y="-274.9" font-family="Arial" font-size="12.00">frequency:</text>
<text text-anchor="middle" x="36.5" y="-261.9" font-family="Arial" font-size="12.00">500.0</text>
<polyline fill="none" stroke="black" stroke-width="2" points="73,-254.5 73,-288.5 "/>
<text text-anchor="middle" x="84.5" y="-268.4" font-family="Arial" font-size="12.00">0</text>
</g>
<!-- ugen_10 -->
<g id="node3" class="node">
<title>ugen_10</title>
<path fill="#bcd2ee" stroke="black" stroke-width="2" d="M351,-64C351,-64 427,-64 427,-64 433,-64 439,-70 439,-76 439,-76 439,-149 439,-149 439,-155 433,-161 427,-161 427,-161 351,-161 351,-161 345,-161 339,-155 339,-149 339,-149 339,-76 339,-76 339,-70 345,-64 351,-64"/>
<text text-anchor="middle" x="389" y="-147.4" font-family="Arial" font-size="12.00">Sum3</text>
<text text-anchor="middle" x="389" y="-134.4" font-family="Arial" font-size="12.00">(audio)</text>
<polyline fill="none" stroke="black" stroke-width="2" points="339,-127 439,-127 "/>
<text text-anchor="middle" x="377.5" y="-113.4" font-family="Arial" font-size="12.00">input_one</text>
<polyline fill="none" stroke="black" stroke-width="2" points="339,-106 416,-106 "/>
<text text-anchor="middle" x="377.5" y="-92.4" font-family="Arial" font-size="12.00">input_two</text>
<polyline fill="none" stroke="black" stroke-width="2" points="339,-85 416,-85 "/>
<text text-anchor="middle" x="377.5" y="-71.4" font-family="Arial" font-size="12.00">input_three</text>
<polyline fill="none" stroke="black" stroke-width="2" points="416,-64 416,-127 "/>
<text text-anchor="middle" x="427.5" y="-92.4" font-family="Arial" font-size="12.00">0</text>
</g>
<!-- ugen_11 -->
<g id="node4" class="node">
<title>ugen_11</title>
<path fill="#bcd2ee" stroke="black" stroke-width="2" d="M523,-227.5C523,-227.5 553,-227.5 553,-227.5 559,-227.5 565,-233.5 565,-239.5 565,-239.5 565,-367.5 565,-367.5 565,-373.5 559,-379.5 553,-379.5 553,-379.5 523,-379.5 523,-379.5 517,-379.5 511,-373.5 511,-367.5 511,-367.5 511,-239.5 511,-239.5 511,-233.5 517,-227.5 523,-227.5"/>
<text text-anchor="middle" x="538" y="-365.9" font-family="Arial" font-size="12.00">Out</text>
<text text-anchor="middle" x="538" y="-352.9" font-family="Arial" font-size="12.00">(audio)</text>
<polyline fill="none" stroke="black" stroke-width="2" points="511,-345.5 565,-345.5 "/>
<text text-anchor="middle" x="538" y="-331.9" font-family="Arial" font-size="12.00">bus:</text>
<text text-anchor="middle" x="538" y="-318.9" font-family="Arial" font-size="12.00">0.0</text>
<polyline fill="none" stroke="black" stroke-width="2" points="511,-311.5 565,-311.5 "/>
<text text-anchor="middle" x="538" y="-297.9" font-family="Arial" font-size="12.00">source</text>
<polyline fill="none" stroke="black" stroke-width="2" points="511,-290.5 565,-290.5 "/>
<text text-anchor="middle" x="538" y="-276.9" font-family="Arial" font-size="12.00"> </text>
<polyline fill="none" stroke="black" stroke-width="2" points="511,-269.5 565,-269.5 "/>
<text text-anchor="middle" x="538" y="-255.9" font-family="Arial" font-size="12.00"> </text>
<polyline fill="none" stroke="black" stroke-width="2" points="511,-248.5 565,-248.5 "/>
<text text-anchor="middle" x="538" y="-234.9" font-family="Arial" font-size="12.00"> </text>
</g>
<!-- ugen_2 -->
<g id="node5" class="node">
<title>ugen_2</title>
<path fill="#bcd2ee" stroke="black" stroke-width="2" d="M180,-394.5C180,-394.5 255,-394.5 255,-394.5 261,-394.5 267,-400.5 267,-406.5 267,-406.5 267,-560.5 267,-560.5 267,-566.5 261,-572.5 255,-572.5 255,-572.5 180,-572.5 180,-572.5 174,-572.5 168,-566.5 168,-560.5 168,-560.5 168,-406.5 168,-406.5 168,-400.5 174,-394.5 180,-394.5"/>
<text text-anchor="middle" x="217.5" y="-558.9" font-family="Arial" font-size="12.00">PanAz</text>
<text text-anchor="middle" x="217.5" y="-545.9" font-family="Arial" font-size="12.00">(audio)</text>
<polyline fill="none" stroke="black" stroke-width="2" points="168,-538.5 267,-538.5 "/>
<text text-anchor="middle" x="206" y="-524.9" font-family="Arial" font-size="12.00">source</text>
<polyline fill="none" stroke="black" stroke-width="2" points="168,-517.5 244,-517.5 "/>
<text text-anchor="middle" x="206" y="-503.9" font-family="Arial" font-size="12.00">position</text>
<polyline fill="none" stroke="black" stroke-width="2" points="168,-496.5 244,-496.5 "/>
<text text-anchor="middle" x="206" y="-482.9" font-family="Arial" font-size="12.00">amplitude:</text>
<text text-anchor="middle" x="206" y="-469.9" font-family="Arial" font-size="12.00">1.0</text>
<polyline fill="none" stroke="black" stroke-width="2" points="168,-462.5 244,-462.5 "/>
<text text-anchor="middle" x="206" y="-448.9" font-family="Arial" font-size="12.00">width:</text>
<text text-anchor="middle" x="206" y="-435.9" font-family="Arial" font-size="12.00">2.0</text>
<polyline fill="none" stroke="black" stroke-width="2" points="168,-428.5 244,-428.5 "/>
<text text-anchor="middle" x="206" y="-414.9" font-family="Arial" font-size="12.00">orientation:</text>
<text text-anchor="middle" x="206" y="-401.9" font-family="Arial" font-size="12.00">0.5</text>
<polyline fill="none" stroke="black" stroke-width="2" points="244,-394.5 244,-538.5 "/>
<text text-anchor="middle" x="255.5" y="-517.4" font-family="Arial" font-size="12.00">0</text>
<polyline fill="none" stroke="black" stroke-width="2" points="244,-502.5 267,-502.5 "/>
<text text-anchor="middle" x="255.5" y="-481.4" font-family="Arial" font-size="12.00">1</text>
<polyline fill="none" stroke="black" stroke-width="2" points="244,-466.5 267,-466.5 "/>
<text text-anchor="middle" x="255.5" y="-445.4" font-family="Arial" font-size="12.00">2</text>
<polyline fill="none" stroke="black" stroke-width="2" points="244,-430.5 267,-430.5 "/>
<text text-anchor="middle" x="255.5" y="-409.4" font-family="Arial" font-size="12.00">3</text>
</g>
<!-- ugen_3 -->
<g id="node6" class="node">
<title>ugen_3</title>
<path fill="#bcd2ee" stroke="black" stroke-width="2" d="M12,-341.5C12,-341.5 84,-341.5 84,-341.5 90,-341.5 96,-347.5 96,-353.5 96,-353.5 96,-431.5 96,-431.5 96,-437.5 90,-443.5 84,-443.5 84,-443.5 12,-443.5 12,-443.5 6,-443.5 0,-437.5 0,-431.5 0,-431.5 0,-353.5 0,-353.5 0,-347.5 6,-341.5 12,-341.5"/>
<text text-anchor="middle" x="48" y="-429.9" font-family="Arial" font-size="12.00">SinOsc</text>
<text text-anchor="middle" x="48" y="-416.9" font-family="Arial" font-size="12.00">(audio)</text>
<polyline fill="none" stroke="black" stroke-width="2" points="0,-409.5 96,-409.5 "/>
<text text-anchor="middle" x="36.5" y="-395.9" font-family="Arial" font-size="12.00">frequency:</text>
<text text-anchor="middle" x="36.5" y="-382.9" font-family="Arial" font-size="12.00">660.0</text>
<polyline fill="none" stroke="black" stroke-width="2" points="0,-375.5 73,-375.5 "/>
<text text-anchor="middle" x="36.5" y="-361.9" font-family="Arial" font-size="12.00">phase:</text>
<text text-anchor="middle" x="36.5" y="-348.9" font-family="Arial" font-size="12.00">0.0</text>
<polyline fill="none" stroke="black" stroke-width="2" points="73,-341.5 73,-409.5 "/>
<text text-anchor="middle" x="84.5" y="-372.4" font-family="Arial" font-size="12.00">0</text>
</g>
<!-- ugen_4 -->
<g id="node7" class="node">
<title>ugen_4</title>
<path fill="#bcd2ee" stroke="black" stroke-width="2" d="M180,-197.5C180,-197.5 255,-197.5 255,-197.5 261,-197.5 267,-203.5 267,-209.5 267,-209.5 267,-363.5 267,-363.5 267,-369.5 261,-375.5 255,-375.5 255,-375.5 180,-375.5 180,-375.5 174,-375.5 168,-369.5 168,-363.5 168,-363.5 168,-209.5 168,-209.5 168,-203.5 174,-197.5 180,-197.5"/>
<text text-anchor="middle" x="217.5" y="-361.9" font-family="Arial" font-size="12.00">PanAz</text>
<text text-anchor="middle" x="217.5" y="-348.9" font-family="Arial" font-size="12.00">(audio)</text>
<polyline fill="none" stroke="black" stroke-width="2" points="168,-341.5 267,-341.5 "/>
<text text-anchor="middle" x="206" y="-327.9" font-family="Arial" font-size="12.00">source</text>
<polyline fill="none" stroke="black" stroke-width="2" points="168,-320.5 244,-320.5 "/>
<text text-anchor="middle" x="206" y="-306.9" font-family="Arial" font-size="12.00">position</text>
<polyline fill="none" stroke="black" stroke-width="2" points="168,-299.5 244,-299.5 "/>
<text text-anchor="middle" x="206" y="-285.9" font-family="Arial" font-size="12.00">amplitude:</text>
<text text-anchor="middle" x="206" y="-272.9" font-family="Arial" font-size="12.00">1.0</text>
<polyline fill="none" stroke="black" stroke-width="2" points="168,-265.5 244,-265.5 "/>
<text text-anchor="middle" x="206" y="-251.9" font-family="Arial" font-size="12.00">width:</text>
<text text-anchor="middle" x="206" y="-238.9" font-family="Arial" font-size="12.00">2.0</text>
<polyline fill="none" stroke="black" stroke-width="2" points="168,-231.5 244,-231.5 "/>
<text text-anchor="middle" x="206" y="-217.9" font-family="Arial" font-size="12.00">orientation:</text>
<text text-anchor="middle" x="206" y="-204.9" font-family="Arial" font-size="12.00">0.5</text>
<polyline fill="none" stroke="black" stroke-width="2" points="244,-197.5 244,-341.5 "/>
<text text-anchor="middle" x="255.5" y="-320.4" font-family="Arial" font-size="12.00">0</text>
<polyline fill="none" stroke="black" stroke-width="2" points="244,-305.5 267,-305.5 "/>
<text text-anchor="middle" x="255.5" y="-284.4" font-family="Arial" font-size="12.00">1</text>
<polyline fill="none" stroke="black" stroke-width="2" points="244,-269.5 267,-269.5 "/>
<text text-anchor="middle" x="255.5" y="-248.4" font-family="Arial" font-size="12.00">2</text>
<polyline fill="none" stroke="black" stroke-width="2" points="244,-233.5 267,-233.5 "/>
<text text-anchor="middle" x="255.5" y="-212.4" font-family="Arial" font-size="12.00">3</text>
</g>
<!-- ugen_5 -->
<g id="node8" class="node">
<title>ugen_5</title>
<path fill="#bcd2ee" stroke="black" stroke-width="2" d="M12,-100.5C12,-100.5 84,-100.5 84,-100.5 90,-100.5 96,-106.5 96,-112.5 96,-112.5 96,-190.5 96,-190.5 96,-196.5 90,-202.5 84,-202.5 84,-202.5 12,-202.5 12,-202.5 6,-202.5 0,-196.5 0,-190.5 0,-190.5 0,-112.5 0,-112.5 0,-106.5 6,-100.5 12,-100.5"/>
<text text-anchor="middle" x="48" y="-188.9" font-family="Arial" font-size="12.00">SinOsc</text>
<text text-anchor="middle" x="48" y="-175.9" font-family="Arial" font-size="12.00">(audio)</text>
<polyline fill="none" stroke="black" stroke-width="2" points="0,-168.5 96,-168.5 "/>
<text text-anchor="middle" x="36.5" y="-154.9" font-family="Arial" font-size="12.00">frequency:</text>
<text text-anchor="middle" x="36.5" y="-141.9" font-family="Arial" font-size="12.00">880.0</text>
<polyline fill="none" stroke="black" stroke-width="2" points="0,-134.5 73,-134.5 "/>
<text text-anchor="middle" x="36.5" y="-120.9" font-family="Arial" font-size="12.00">phase:</text>
<text text-anchor="middle" x="36.5" y="-107.9" font-family="Arial" font-size="12.00">0.0</text>
<polyline fill="none" stroke="black" stroke-width="2" points="73,-100.5 73,-168.5 "/>
<text text-anchor="middle" x="84.5" y="-131.4" font-family="Arial" font-size="12.00">0</text>
</g>
<!-- ugen_6 -->
<g id="node9" class="node">
<title>ugen_6</title>
<path fill="#bcd2ee" stroke="black" stroke-width="2" d="M180,-0.5C180,-0.5 255,-0.5 255,-0.5 261,-0.5 267,-6.5 267,-12.5 267,-12.5 267,-166.5 267,-166.5 267,-172.5 261,-178.5 255,-178.5 255,-178.5 180,-178.5 180,-178.5 174,-178.5 168,-172.5 168,-166.5 168,-166.5 168,-12.5 168,-12.5 168,-6.5 174,-0.5 180,-0.5"/>
<text text-anchor="middle" x="217.5" y="-164.9" font-family="Arial" font-size="12.00">PanAz</text>
<text text-anchor="middle" x="217.5" y="-151.9" font-family="Arial" font-size="12.00">(audio)</text>
<polyline fill="none" stroke="black" stroke-width="2" points="168,-144.5 267,-144.5 "/>
<text text-anchor="middle" x="206" y="-130.9" font-family="Arial" font-size="12.00">source</text>
<polyline fill="none" stroke="black" stroke-width="2" points="168,-123.5 244,-123.5 "/>
<text text-anchor="middle" x="206" y="-109.9" font-family="Arial" font-size="12.00">position</text>
<polyline fill="none" stroke="black" stroke-width="2" points="168,-102.5 244,-102.5 "/>
<text text-anchor="middle" x="206" y="-88.9" font-family="Arial" font-size="12.00">amplitude:</text>
<text text-anchor="middle" x="206" y="-75.9" font-family="Arial" font-size="12.00">1.0</text>
<polyline fill="none" stroke="black" stroke-width="2" points="168,-68.5 244,-68.5 "/>
<text text-anchor="middle" x="206" y="-54.9" font-family="Arial" font-size="12.00">width:</text>
<text text-anchor="middle" x="206" y="-41.9" font-family="Arial" font-size="12.00">2.0</text>
<polyline fill="none" stroke="black" stroke-width="2" points="168,-34.5 244,-34.5 "/>
<text text-anchor="middle" x="206" y="-20.9" font-family="Arial" font-size="12.00">orientation:</text>
<text text-anchor="middle" x="206" y="-7.9" font-family="Arial" font-size="12.00">0.5</text>
<polyline fill="none" stroke="black" stroke-width="2" points="244,-0.5 244,-144.5 "/>
<text text-anchor="middle" x="255.5" y="-123.4" font-family="Arial" font-size="12.00">0</text>
<polyline fill="none" stroke="black" stroke-width="2" points="244,-108.5 267,-108.5 "/>
<text text-anchor="middle" x="255.5" y="-87.4" font-family="Arial" font-size="12.00">1</text>
<polyline fill="none" stroke="black" stroke-width="2" points="244,-72.5 267,-72.5 "/>
<text text-anchor="middle" x="255.5" y="-51.4" font-family="Arial" font-size="12.00">2</text>
<polyline fill="none" stroke="black" stroke-width="2" points="244,-36.5 267,-36.5 "/>
<text text-anchor="middle" x="255.5" y="-15.4" font-family="Arial" font-size="12.00">3</text>
</g>
<!-- ugen_7 -->
<g id="node10" class="node">
<title>ugen_7</title>
<path fill="#bcd2ee" stroke="black" stroke-width="2" d="M351,-412C351,-412 427,-412 427,-412 433,-412 439,-418 439,-424 439,-424 439,-497 439,-497 439,-503 433,-509 427,-509 427,-509 351,-509 351,-509 345,-509 339,-503 339,-497 339,-497 339,-424 339,-424 339,-418 345,-412 351,-412"/>
<text text-anchor="middle" x="389" y="-495.4" font-family="Arial" font-size="12.00">Sum3</text>
<text text-anchor="middle" x="389" y="-482.4" font-family="Arial" font-size="12.00">(audio)</text>
<polyline fill="none" stroke="black" stroke-width="2" points="339,-475 439,-475 "/>
<text text-anchor="middle" x="377.5" y="-461.4" font-family="Arial" font-size="12.00">input_one</text>
<polyline fill="none" stroke="black" stroke-width="2" points="339,-454 416,-454 "/>
<text text-anchor="middle" x="377.5" y="-440.4" font-family="Arial" font-size="12.00">input_two</text>
<polyline fill="none" stroke="black" stroke-width="2" points="339,-433 416,-433 "/>
<text text-anchor="middle" x="377.5" y="-419.4" font-family="Arial" font-size="12.00">input_three</text>
<polyline fill="none" stroke="black" stroke-width="2" points="416,-412 416,-475 "/>
<text text-anchor="middle" x="427.5" y="-440.4" font-family="Arial" font-size="12.00">0</text>
</g>
<!-- ugen_8 -->
<g id="node11" class="node">
<title>ugen_8</title>
<path fill="#bcd2ee" stroke="black" stroke-width="2" d="M351,-296C351,-296 427,-296 427,-296 433,-296 439,-302 439,-308 439,-308 439,-381 439,-381 439,-387 433,-393 427,-393 427,-393 351,-393 351,-393 345,-393 339,-387 339,-381 339,-381 339,-308 339,-308 339,-302 345,-296 351,-296"/>
<text text-anchor="middle" x="389" y="-379.4" font-family="Arial" font-size="12.00">Sum3</text>
<text text-anchor="middle" x="389" y="-366.4" font-family="Arial" font-size="12.00">(audio)</text>
<polyline fill="none" stroke="black" stroke-width="2" points="339,-359 439,-359 "/>
<text text-anchor="middle" x="377.5" y="-345.4" font-family="Arial" font-size="12.00">input_one</text>
<polyline fill="none" stroke="black" stroke-width="2" points="339,-338 416,-338 "/>
<text text-anchor="middle" x="377.5" y="-324.4" font-family="Arial" font-size="12.00">input_two</text>
<polyline fill="none" stroke="black" stroke-width="2" points="339,-317 416,-317 "/>
<text text-anchor="middle" x="377.5" y="-303.4" font-family="Arial" font-size="12.00">input_three</text>
<polyline fill="none" stroke="black" stroke-width="2" points="416,-296 416,-359 "/>
<text text-anchor="middle" x="427.5" y="-324.4" font-family="Arial" font-size="12.00">0</text>
</g>
<!-- ugen_9 -->
<g id="node12" class="node">
<title>ugen_9</title>
<path fill="#bcd2ee" stroke="black" stroke-width="2" d="M351,-180C351,-180 427,-180 427,-180 433,-180 439,-186 439,-192 439,-192 439,-265 439,-265 439,-271 433,-277 427,-277 427,-277 351,-277 351,-277 345,-277 339,-271 339,-265 339,-265 339,-192 339,-192 339,-186 345,-180 351,-180"/>
<text text-anchor="middle" x="389" y="-263.4" font-family="Arial" font-size="12.00">Sum3</text>
<text text-anchor="middle" x="389" y="-250.4" font-family="Arial" font-size="12.00">(audio)</text>
<polyline fill="none" stroke="black" stroke-width="2" points="339,-243 439,-243 "/>
<text text-anchor="middle" x="377.5" y="-229.4" font-family="Arial" font-size="12.00">input_one</text>
<polyline fill="none" stroke="black" stroke-width="2" points="339,-222 416,-222 "/>
<text text-anchor="middle" x="377.5" y="-208.4" font-family="Arial" font-size="12.00">input_two</text>
<polyline fill="none" stroke="black" stroke-width="2" points="339,-201 416,-201 "/>
<text text-anchor="middle" x="377.5" y="-187.4" font-family="Arial" font-size="12.00">input_three</text>
<polyline fill="none" stroke="black" stroke-width="2" points="416,-180 416,-243 "/>
<text text-anchor="middle" x="427.5" y="-208.4" font-family="Arial" font-size="12.00">0</text>
</g>
</g>
</svg>
