<?xml version="1.0" encoding="UTF-8" standalone="no"?>
<!DOCTYPE svg PUBLIC "-//W3C//DTD SVG 1.1//EN"
 "http://www.w3.org/Graphics/SVG/1.1/DTD/svg11.dtd">
<!-- Generated by graphviz version 2.43.0 (0)
 -->
<!-- Title: synthdef_5fc6d9c46b66d3804aacae7fe5eb1991 Pages: 1 -->
<svg width="759pt" height="558pt"
 viewBox="0.00 0.00 759.00 558.00" xmlns="http://www.w3.org/2000/svg" xmlns:xlink="http://www.w3.org/1999/xlink">
<g id="graph0" class="graph" transform="scale(1 1) rotate(0) translate(4 554)">
<title>synthdef_5fc6d9c46b66d3804aacae7fe5eb1991</title>
<!-- ugen_0&#45;&gt;ugen_1 -->
<g id="edge1" class="edge">
<title>ugen_0:e&#45;&gt;ugen_1:w</title>
<path fill="none" stroke="steelblue" stroke-width="2" d="M95,-467C123.38,-467 132.88,-467 156.98,-467"/>
<polygon fill="steelblue" stroke="steelblue" stroke-width="2" points="157,-470.5 167,-467 157,-463.5 157,-470.5"/>
</g>
<!-- ugen_1&#45;&gt;ugen_2 -->
<g id="edge2" class="edge">
<title>ugen_1:e&#45;&gt;ugen_2:w</title>
<path fill="none" stroke="steelblue" stroke-width="2" d="M252,-456C286.93,-456 285.93,-495.9 313.84,-503.69"/>
<polygon fill="steelblue" stroke="steelblue" stroke-width="2" points="313.63,-507.19 324,-505 314.53,-500.25 313.63,-507.19"/>
</g>
<!-- ugen_1&#45;&gt;ugen_3 -->
<g id="edge3" class="edge">
<title>ugen_1:e&#45;&gt;ugen_3:w</title>
<path fill="none" stroke="steelblue" stroke-width="2" d="M252,-411C286.7,-411 286.09,-371.92 313.89,-364.28"/>
<polygon fill="steelblue" stroke="steelblue" stroke-width="2" points="314.52,-367.73 324,-363 313.64,-360.79 314.52,-367.73"/>
</g>
<!-- ugen_2&#45;&gt;ugen_4 -->
<g id="edge4" class="edge">
<title>ugen_2:e&#45;&gt;ugen_4:w</title>
<path fill="none" stroke="steelblue" stroke-width="2" d="M409,-494C459.69,-494 431.2,-408.07 471.06,-396.32"/>
<polygon fill="steelblue" stroke="steelblue" stroke-width="2" points="471.55,-399.79 481,-395 470.63,-392.85 471.55,-399.79"/>
</g>
<!-- ugen_2&#45;&gt;ugen_4 -->
<g id="edge5" class="edge">
<title>ugen_2:e&#45;&gt;ugen_4:w</title>
<path fill="none" stroke="steelblue" stroke-width="2" d="M409,-449C451.71,-449 437.47,-384.96 470.84,-374.45"/>
<polygon fill="steelblue" stroke="steelblue" stroke-width="2" points="471.59,-377.88 481,-373 470.61,-370.95 471.59,-377.88"/>
</g>
<!-- ugen_3&#45;&gt;ugen_4 -->
<g id="edge6" class="edge">
<title>ugen_3:e&#45;&gt;ugen_4:w</title>
<path fill="none" stroke="steelblue" stroke-width="2" d="M409,-352C437.38,-352 446.88,-352 470.98,-352"/>
<polygon fill="steelblue" stroke="steelblue" stroke-width="2" points="471,-355.5 481,-352 471,-348.5 471,-355.5"/>
</g>
<!-- ugen_3&#45;&gt;ugen_4 -->
<g id="edge7" class="edge">
<title>ugen_3:e&#45;&gt;ugen_4:w</title>
<path fill="none" stroke="steelblue" stroke-width="2" d="M409,-307C439.04,-307 445.93,-326.04 470.9,-330.2"/>
<polygon fill="steelblue" stroke="steelblue" stroke-width="2" points="470.76,-333.7 481,-331 471.31,-326.72 470.76,-333.7"/>
</g>
<!-- ugen_4&#45;&gt;ugen_10 -->
<g id="edge8" class="edge">
<title>ugen_4:e&#45;&gt;ugen_10:w</title>
<path fill="none" stroke="steelblue" stroke-width="2" d="M581,-363C629.72,-363 604.84,-282.44 642.63,-270.48"/>
<polygon fill="steelblue" stroke="steelblue" stroke-width="2" points="643.59,-273.87 653,-269 642.61,-266.94 643.59,-273.87"/>
</g>
<!-- ugen_5&#45;&gt;ugen_6 -->
<g id="edge9" class="edge">
<title>ugen_5:e&#45;&gt;ugen_6:w</title>
<path fill="none" stroke="steelblue" stroke-width="2" d="M95,-184C123.38,-184 132.88,-184 156.98,-184"/>
<polygon fill="steelblue" stroke="steelblue" stroke-width="2" points="157,-187.5 167,-184 157,-180.5 157,-187.5"/>
</g>
<!-- ugen_6&#45;&gt;ugen_7 -->
<g id="edge10" class="edge">
<title>ugen_6:e&#45;&gt;ugen_7:w</title>
<path fill="none" stroke="steelblue" stroke-width="2" d="M252,-173C286.7,-173 286.09,-212.08 313.89,-219.72"/>
<polygon fill="steelblue" stroke="steelblue" stroke-width="2" points="313.64,-223.21 324,-221 314.52,-216.27 313.64,-223.21"/>
</g>
<!-- ugen_6&#45;&gt;ugen_8 -->
<g id="edge11" class="edge">
<title>ugen_6:e&#45;&gt;ugen_8:w</title>
<path fill="none" stroke="steelblue" stroke-width="2" d="M252,-128C286.93,-128 285.93,-88.1 313.84,-80.31"/>
<polygon fill="steelblue" stroke="steelblue" stroke-width="2" points="314.53,-83.75 324,-79 313.63,-76.81 314.53,-83.75"/>
</g>
<!-- ugen_7&#45;&gt;ugen_9 -->
<g id="edge12" class="edge">
<title>ugen_7:e&#45;&gt;ugen_9:w</title>
<path fill="none" stroke="steelblue" stroke-width="2" d="M409,-210C438.92,-210 446.01,-191.76 470.93,-187.77"/>
<polygon fill="steelblue" stroke="steelblue" stroke-width="2" points="471.29,-191.25 481,-187 470.76,-184.27 471.29,-191.25"/>
</g>
<!-- ugen_7&#45;&gt;ugen_9 -->
<g id="edge13" class="edge">
<title>ugen_7:e&#45;&gt;ugen_9:w</title>
<path fill="none" stroke="steelblue" stroke-width="2" d="M409,-165C437.38,-165 446.88,-165 470.98,-165"/>
<polygon fill="steelblue" stroke="steelblue" stroke-width="2" points="471,-168.5 481,-165 471,-161.5 471,-168.5"/>
</g>
<!-- ugen_8&#45;&gt;ugen_9 -->
<g id="edge14" class="edge">
<title>ugen_8:e&#45;&gt;ugen_9:w</title>
<path fill="none" stroke="steelblue" stroke-width="2" d="M409,-68C451.71,-68 437.47,-132.04 470.84,-142.55"/>
<polygon fill="steelblue" stroke="steelblue" stroke-width="2" points="470.61,-146.05 481,-144 471.59,-139.12 470.61,-146.05"/>
</g>
<!-- ugen_8&#45;&gt;ugen_9 -->
<g id="edge15" class="edge">
<title>ugen_8:e&#45;&gt;ugen_9:w</title>
<path fill="none" stroke="steelblue" stroke-width="2" d="M409,-23C460.02,-23 430.93,-109.8 471,-121.66"/>
<polygon fill="steelblue" stroke="steelblue" stroke-width="2" points="470.62,-125.14 481,-123 471.55,-118.2 470.62,-125.14"/>
</g>
<!-- ugen_9&#45;&gt;ugen_10 -->
<g id="edge16" class="edge">
<title>ugen_9:e&#45;&gt;ugen_10:w</title>
<path fill="none" stroke="steelblue" stroke-width="2" d="M581,-155C629.39,-155 605.09,-234.71 642.69,-246.54"/>
<polygon fill="steelblue" stroke="steelblue" stroke-width="2" points="642.61,-250.06 653,-248 643.59,-243.13 642.61,-250.06"/>
</g>
<!-- ugen_0 -->
<g id="node1" class="node">
<title>ugen_0</title>
<path fill="#bcd2ee" stroke="black" stroke-width="2" d="M12,-433C12,-433 83,-433 83,-433 89,-433 95,-439 95,-445 95,-445 95,-523 95,-523 95,-529 89,-535 83,-535 83,-535 12,-535 12,-535 6,-535 0,-529 0,-523 0,-523 0,-445 0,-445 0,-439 6,-433 12,-433"/>
<text text-anchor="middle" x="47.5" y="-521.4" font-family="Arial" font-size="12.00">SinOsc</text>
<text text-anchor="middle" x="47.5" y="-508.4" font-family="Arial" font-size="12.00">(audio)</text>
<polyline fill="none" stroke="black" stroke-width="2" points="0,-501 95,-501 "/>
<text text-anchor="middle" x="36" y="-487.4" font-family="Arial" font-size="12.00">frequency:</text>
<text text-anchor="middle" x="36" y="-474.4" font-family="Arial" font-size="12.00">440.0</text>
<polyline fill="none" stroke="black" stroke-width="2" points="0,-467 72,-467 "/>
<text text-anchor="middle" x="36" y="-453.4" font-family="Arial" font-size="12.00">phase:</text>
<text text-anchor="middle" x="36" y="-440.4" font-family="Arial" font-size="12.00">0.0</text>
<polyline fill="none" stroke="black" stroke-width="2" points="72,-433 72,-501 "/>
<text text-anchor="middle" x="83.5" y="-463.9" font-family="Arial" font-size="12.00">0</text>
</g>
<!-- ugen_1 -->
<g id="node2" class="node">
<title>ugen_1</title>
<path fill="#bcd2ee" stroke="black" stroke-width="2" d="M179,-388.5C179,-388.5 240,-388.5 240,-388.5 246,-388.5 252,-394.5 252,-400.5 252,-400.5 252,-499.5 252,-499.5 252,-505.5 246,-511.5 240,-511.5 240,-511.5 179,-511.5 179,-511.5 173,-511.5 167,-505.5 167,-499.5 167,-499.5 167,-400.5 167,-400.5 167,-394.5 173,-388.5 179,-388.5"/>
<text text-anchor="middle" x="209.5" y="-497.9" font-family="Arial" font-size="12.00">Pan2</text>
<text text-anchor="middle" x="209.5" y="-484.9" font-family="Arial" font-size="12.00">(audio)</text>
<polyline fill="none" stroke="black" stroke-width="2" points="167,-477.5 252,-477.5 "/>
<text text-anchor="middle" x="198" y="-463.9" font-family="Arial" font-size="12.00">source</text>
<polyline fill="none" stroke="black" stroke-width="2" points="167,-456.5 229,-456.5 "/>
<text text-anchor="middle" x="198" y="-442.9" font-family="Arial" font-size="12.00">position:</text>
<text text-anchor="middle" x="198" y="-429.9" font-family="Arial" font-size="12.00">0.0</text>
<polyline fill="none" stroke="black" stroke-width="2" points="167,-422.5 229,-422.5 "/>
<text text-anchor="middle" x="198" y="-408.9" font-family="Arial" font-size="12.00">level:</text>
<text text-anchor="middle" x="198" y="-395.9" font-family="Arial" font-size="12.00">1.0</text>
<polyline fill="none" stroke="black" stroke-width="2" points="229,-388.5 229,-477.5 "/>
<text text-anchor="middle" x="240.5" y="-452.4" font-family="Arial" font-size="12.00">0</text>
<polyline fill="none" stroke="black" stroke-width="2" points="229,-433.5 252,-433.5 "/>
<text text-anchor="middle" x="240.5" y="-407.9" font-family="Arial" font-size="12.00">1</text>
</g>
<!-- ugen_10 -->
<g id="node3" class="node">
<title>ugen_10</title>
<path fill="#bcd2ee" stroke="black" stroke-width="2" d="M665,-237.5C665,-237.5 739,-237.5 739,-237.5 745,-237.5 751,-243.5 751,-249.5 751,-249.5 751,-314.5 751,-314.5 751,-320.5 745,-326.5 739,-326.5 739,-326.5 665,-326.5 665,-326.5 659,-326.5 653,-320.5 653,-314.5 653,-314.5 653,-249.5 653,-249.5 653,-243.5 659,-237.5 665,-237.5"/>
<text text-anchor="middle" x="702" y="-312.9" font-family="Arial" font-size="12.00">BinaryOpUGen</text>
<text text-anchor="middle" x="702" y="-299.9" font-family="Arial" font-size="12.00">[ADDITION]</text>
<text text-anchor="middle" x="702" y="-286.9" font-family="Arial" font-size="12.00">(audio)</text>
<polyline fill="none" stroke="black" stroke-width="2" points="653,-279.5 751,-279.5 "/>
<text text-anchor="middle" x="681.5" y="-265.9" font-family="Arial" font-size="12.00">left</text>
<polyline fill="none" stroke="black" stroke-width="2" points="653,-258.5 710,-258.5 "/>
<text text-anchor="middle" x="681.5" y="-244.9" font-family="Arial" font-size="12.00">right</text>
<polyline fill="none" stroke="black" stroke-width="2" points="710,-237.5 710,-279.5 "/>
<text text-anchor="middle" x="730.5" y="-255.4" font-family="Arial" font-size="12.00">0</text>
</g>
<!-- ugen_2 -->
<g id="node4" class="node">
<title>ugen_2</title>
<path fill="#bcd2ee" stroke="black" stroke-width="2" d="M336,-426.5C336,-426.5 397,-426.5 397,-426.5 403,-426.5 409,-432.5 409,-438.5 409,-438.5 409,-537.5 409,-537.5 409,-543.5 403,-549.5 397,-549.5 397,-549.5 336,-549.5 336,-549.5 330,-549.5 324,-543.5 324,-537.5 324,-537.5 324,-438.5 324,-438.5 324,-432.5 330,-426.5 336,-426.5"/>
<text text-anchor="middle" x="366.5" y="-535.9" font-family="Arial" font-size="12.00">Pan2</text>
<text text-anchor="middle" x="366.5" y="-522.9" font-family="Arial" font-size="12.00">(audio)</text>
<polyline fill="none" stroke="black" stroke-width="2" points="324,-515.5 409,-515.5 "/>
<text text-anchor="middle" x="355" y="-501.9" font-family="Arial" font-size="12.00">source</text>
<polyline fill="none" stroke="black" stroke-width="2" points="324,-494.5 386,-494.5 "/>
<text text-anchor="middle" x="355" y="-480.9" font-family="Arial" font-size="12.00">position:</text>
<text text-anchor="middle" x="355" y="-467.9" font-family="Arial" font-size="12.00">0.0</text>
<polyline fill="none" stroke="black" stroke-width="2" points="324,-460.5 386,-460.5 "/>
<text text-anchor="middle" x="355" y="-446.9" font-family="Arial" font-size="12.00">level:</text>
<text text-anchor="middle" x="355" y="-433.9" font-family="Arial" font-size="12.00">1.0</text>
<polyline fill="none" stroke="black" stroke-width="2" points="386,-426.5 386,-515.5 "/>
<text text-anchor="middle" x="397.5" y="-490.4" font-family="Arial" font-size="12.00">0</text>
<polyline fill="none" stroke="black" stroke-width="2" points="386,-471.5 409,-471.5 "/>
<text text-anchor="middle" x="397.5" y="-445.9" font-family="Arial" font-size="12.00">1</text>
</g>
<!-- ugen_3 -->
<g id="node5" class="node">
<title>ugen_3</title>
<path fill="#bcd2ee" stroke="black" stroke-width="2" d="M336,-284.5C336,-284.5 397,-284.5 397,-284.5 403,-284.5 409,-290.5 409,-296.5 409,-296.5 409,-395.5 409,-395.5 409,-401.5 403,-407.5 397,-407.5 397,-407.5 336,-407.5 336,-407.5 330,-407.5 324,-401.5 324,-395.5 324,-395.5 324,-296.5 324,-296.5 324,-290.5 330,-284.5 336,-284.5"/>
<text text-anchor="middle" x="366.5" y="-393.9" font-family="Arial" font-size="12.00">Pan2</text>
<text text-anchor="middle" x="366.5" y="-380.9" font-family="Arial" font-size="12.00">(audio)</text>
<polyline fill="none" stroke="black" stroke-width="2" points="324,-373.5 409,-373.5 "/>
<text text-anchor="middle" x="355" y="-359.9" font-family="Arial" font-size="12.00">source</text>
<polyline fill="none" stroke="black" stroke-width="2" points="324,-352.5 386,-352.5 "/>
<text text-anchor="middle" x="355" y="-338.9" font-family="Arial" font-size="12.00">position:</text>
<text text-anchor="middle" x="355" y="-325.9" font-family="Arial" font-size="12.00">0.0</text>
<polyline fill="none" stroke="black" stroke-width="2" points="324,-318.5 386,-318.5 "/>
<text text-anchor="middle" x="355" y="-304.9" font-family="Arial" font-size="12.00">level:</text>
<text text-anchor="middle" x="355" y="-291.9" font-family="Arial" font-size="12.00">1.0</text>
<polyline fill="none" stroke="black" stroke-width="2" points="386,-284.5 386,-373.5 "/>
<text text-anchor="middle" x="397.5" y="-348.4" font-family="Arial" font-size="12.00">0</text>
<polyline fill="none" stroke="black" stroke-width="2" points="386,-329.5 409,-329.5 "/>
<text text-anchor="middle" x="397.5" y="-303.9" font-family="Arial" font-size="12.00">1</text>
</g>
<!-- ugen_4 -->
<g id="node6" class="node">
<title>ugen_4</title>
<path fill="#bcd2ee" stroke="black" stroke-width="2" d="M493,-321C493,-321 569,-321 569,-321 575,-321 581,-327 581,-333 581,-333 581,-427 581,-427 581,-433 575,-439 569,-439 569,-439 493,-439 493,-439 487,-439 481,-433 481,-427 481,-427 481,-333 481,-333 481,-327 487,-321 493,-321"/>
<text text-anchor="middle" x="531" y="-425.4" font-family="Arial" font-size="12.00">Sum4</text>
<text text-anchor="middle" x="531" y="-412.4" font-family="Arial" font-size="12.00">(audio)</text>
<polyline fill="none" stroke="black" stroke-width="2" points="481,-405 581,-405 "/>
<text text-anchor="middle" x="519.5" y="-391.4" font-family="Arial" font-size="12.00">input_one</text>
<polyline fill="none" stroke="black" stroke-width="2" points="481,-384 558,-384 "/>
<text text-anchor="middle" x="519.5" y="-370.4" font-family="Arial" font-size="12.00">input_two</text>
<polyline fill="none" stroke="black" stroke-width="2" points="481,-363 558,-363 "/>
<text text-anchor="middle" x="519.5" y="-349.4" font-family="Arial" font-size="12.00">input_three</text>
<polyline fill="none" stroke="black" stroke-width="2" points="481,-342 558,-342 "/>
<text text-anchor="middle" x="519.5" y="-328.4" font-family="Arial" font-size="12.00">input_four</text>
<polyline fill="none" stroke="black" stroke-width="2" points="558,-321 558,-405 "/>
<text text-anchor="middle" x="569.5" y="-359.9" font-family="Arial" font-size="12.00">0</text>
</g>
<!-- ugen_5 -->
<g id="node7" class="node">
<title>ugen_5</title>
<path fill="#bcd2ee" stroke="black" stroke-width="2" d="M12,-150C12,-150 83,-150 83,-150 89,-150 95,-156 95,-162 95,-162 95,-240 95,-240 95,-246 89,-252 83,-252 83,-252 12,-252 12,-252 6,-252 0,-246 0,-240 0,-240 0,-162 0,-162 0,-156 6,-150 12,-150"/>
<text text-anchor="middle" x="47.5" y="-238.4" font-family="Arial" font-size="12.00">SinOsc</text>
<text text-anchor="middle" x="47.5" y="-225.4" font-family="Arial" font-size="12.00">(audio)</text>
<polyline fill="none" stroke="black" stroke-width="2" points="0,-218 95,-218 "/>
<text text-anchor="middle" x="36" y="-204.4" font-family="Arial" font-size="12.00">frequency:</text>
<text text-anchor="middle" x="36" y="-191.4" font-family="Arial" font-size="12.00">443.0</text>
<polyline fill="none" stroke="black" stroke-width="2" points="0,-184 72,-184 "/>
<text text-anchor="middle" x="36" y="-170.4" font-family="Arial" font-size="12.00">phase:</text>
<text text-anchor="middle" x="36" y="-157.4" font-family="Arial" font-size="12.00">0.0</text>
<polyline fill="none" stroke="black" stroke-width="2" points="72,-150 72,-218 "/>
<text text-anchor="middle" x="83.5" y="-180.9" font-family="Arial" font-size="12.00">0</text>
</g>
<!-- ugen_6 -->
<g id="node8" class="node">
<title>ugen_6</title>
<path fill="#bcd2ee" stroke="black" stroke-width="2" d="M179,-105.5C179,-105.5 240,-105.5 240,-105.5 246,-105.5 252,-111.5 252,-117.5 252,-117.5 252,-216.5 252,-216.5 252,-222.5 246,-228.5 240,-228.5 240,-228.5 179,-228.5 179,-228.5 173,-228.5 167,-222.5 167,-216.5 167,-216.5 167,-117.5 167,-117.5 167,-111.5 173,-105.5 179,-105.5"/>
<text text-anchor="middle" x="209.5" y="-214.9" font-family="Arial" font-size="12.00">Pan2</text>
<text text-anchor="middle" x="209.5" y="-201.9" font-family="Arial" font-size="12.00">(audio)</text>
<polyline fill="none" stroke="black" stroke-width="2" points="167,-194.5 252,-194.5 "/>
<text text-anchor="middle" x="198" y="-180.9" font-family="Arial" font-size="12.00">source</text>
<polyline fill="none" stroke="black" stroke-width="2" points="167,-173.5 229,-173.5 "/>
<text text-anchor="middle" x="198" y="-159.9" font-family="Arial" font-size="12.00">position:</text>
<text text-anchor="middle" x="198" y="-146.9" font-family="Arial" font-size="12.00">0.0</text>
<polyline fill="none" stroke="black" stroke-width="2" points="167,-139.5 229,-139.5 "/>
<text text-anchor="middle" x="198" y="-125.9" font-family="Arial" font-size="12.00">level:</text>
<text text-anchor="middle" x="198" y="-112.9" font-family="Arial" font-size="12.00">1.0</text>
<polyline fill="none" stroke="black" stroke-width="2" points="229,-105.5 229,-194.5 "/>
<text text-anchor="middle" x="240.5" y="-169.4" font-family="Arial" font-size="12.00">0</text>
<polyline fill="none" stroke="black" stroke-width="2" points="229,-150.5 252,-150.5 "/>
<text text-anchor="middle" x="240.5" y="-124.9" font-family="Arial" font-size="12.00">1</text>
</g>
<!-- ugen_7 -->
<g id="node9" class="node">
<title>ugen_7</title>
<path fill="#bcd2ee" stroke="black" stroke-width="2" d="M336,-142.5C336,-142.5 397,-142.5 397,-142.5 403,-142.5 409,-148.5 409,-154.5 409,-154.5 409,-253.5 409,-253.5 409,-259.5 403,-265.5 397,-265.5 397,-265.5 336,-265.5 336,-265.5 330,-265.5 324,-259.5 324,-253.5 324,-253.5 324,-154.5 324,-154.5 324,-148.5 330,-142.5 336,-142.5"/>
<text text-anchor="middle" x="366.5" y="-251.9" font-family="Arial" font-size="12.00">Pan2</text>
<text text-anchor="middle" x="366.5" y="-238.9" font-family="Arial" font-size="12.00">(audio)</text>
<polyline fill="none" stroke="black" stroke-width="2" points="324,-231.5 409,-231.5 "/>
<text text-anchor="middle" x="355" y="-217.9" font-family="Arial" font-size="12.00">source</text>
<polyline fill="none" stroke="black" stroke-width="2" points="324,-210.5 386,-210.5 "/>
<text text-anchor="middle" x="355" y="-196.9" font-family="Arial" font-size="12.00">position:</text>
<text text-anchor="middle" x="355" y="-183.9" font-family="Arial" font-size="12.00">0.0</text>
<polyline fill="none" stroke="black" stroke-width="2" points="324,-176.5 386,-176.5 "/>
<text text-anchor="middle" x="355" y="-162.9" font-family="Arial" font-size="12.00">level:</text>
<text text-anchor="middle" x="355" y="-149.9" font-family="Arial" font-size="12.00">1.0</text>
<polyline fill="none" stroke="black" stroke-width="2" points="386,-142.5 386,-231.5 "/>
<text text-anchor="middle" x="397.5" y="-206.4" font-family="Arial" font-size="12.00">0</text>
<polyline fill="none" stroke="black" stroke-width="2" points="386,-187.5 409,-187.5 "/>
<text text-anchor="middle" x="397.5" y="-161.9" font-family="Arial" font-size="12.00">1</text>
</g>
<!-- ugen_8 -->
<g id="node10" class="node">
<title>ugen_8</title>
<path fill="#bcd2ee" stroke="black" stroke-width="2" d="M336,-0.5C336,-0.5 397,-0.5 397,-0.5 403,-0.5 409,-6.5 409,-12.5 409,-12.5 409,-111.5 409,-111.5 409,-117.5 403,-123.5 397,-123.5 397,-123.5 336,-123.5 336,-123.5 330,-123.5 324,-117.5 324,-111.5 324,-111.5 324,-12.5 324,-12.5 324,-6.5 330,-0.5 336,-0.5"/>
<text text-anchor="middle" x="366.5" y="-109.9" font-family="Arial" font-size="12.00">Pan2</text>
<text text-anchor="middle" x="366.5" y="-96.9" font-family="Arial" font-size="12.00">(audio)</text>
<polyline fill="none" stroke="black" stroke-width="2" points="324,-89.5 409,-89.5 "/>
<text text-anchor="middle" x="355" y="-75.9" font-family="Arial" font-size="12.00">source</text>
<polyline fill="none" stroke="black" stroke-width="2" points="324,-68.5 386,-68.5 "/>
<text text-anchor="middle" x="355" y="-54.9" font-family="Arial" font-size="12.00">position:</text>
<text text-anchor="middle" x="355" y="-41.9" font-family="Arial" font-size="12.00">0.0</text>
<polyline fill="none" stroke="black" stroke-width="2" points="324,-34.5 386,-34.5 "/>
<text text-anchor="middle" x="355" y="-20.9" font-family="Arial" font-size="12.00">level:</text>
<text text-anchor="middle" x="355" y="-7.9" font-family="Arial" font-size="12.00">1.0</text>
<polyline fill="none" stroke="black" stroke-width="2" points="386,-0.5 386,-89.5 "/>
<text text-anchor="middle" x="397.5" y="-64.4" font-family="Arial" font-size="12.00">0</text>
<polyline fill="none" stroke="black" stroke-width="2" points="386,-45.5 409,-45.5 "/>
<text text-anchor="middle" x="397.5" y="-19.9" font-family="Arial" font-size="12.00">1</text>
</g>
<!-- ugen_9 -->
<g id="node11" class="node">
<title>ugen_9</title>
<path fill="#bcd2ee" stroke="black" stroke-width="2" d="M493,-113C493,-113 569,-113 569,-113 575,-113 581,-119 581,-125 581,-125 581,-219 581,-219 581,-225 575,-231 569,-231 569,-231 493,-231 493,-231 487,-231 481,-225 481,-219 481,-219 481,-125 481,-125 481,-119 487,-113 493,-113"/>
<text text-anchor="middle" x="531" y="-217.4" font-family="Arial" font-size="12.00">Sum4</text>
<text text-anchor="middle" x="531" y="-204.4" font-family="Arial" font-size="12.00">(audio)</text>
<polyline fill="none" stroke="black" stroke-width="2" points="481,-197 581,-197 "/>
<text text-anchor="middle" x="519.5" y="-183.4" font-family="Arial" font-size="12.00">input_one</text>
<polyline fill="none" stroke="black" stroke-width="2" points="481,-176 558,-176 "/>
<text text-anchor="middle" x="519.5" y="-162.4" font-family="Arial" font-size="12.00">input_two</text>
<polyline fill="none" stroke="black" stroke-width="2" points="481,-155 558,-155 "/>
<text text-anchor="middle" x="519.5" y="-141.4" font-family="Arial" font-size="12.00">input_three</text>
<polyline fill="none" stroke="black" stroke-width="2" points="481,-134 558,-134 "/>
<text text-anchor="middle" x="519.5" y="-120.4" font-family="Arial" font-size="12.00">input_four</text>
<polyline fill="none" stroke="black" stroke-width="2" points="558,-113 558,-197 "/>
<text text-anchor="middle" x="569.5" y="-151.9" font-family="Arial" font-size="12.00">0</text>
</g>
</g>
</svg>
