<?xml version="1.0" encoding="UTF-8" standalone="no"?>
<!DOCTYPE svg PUBLIC "-//W3C//DTD SVG 1.1//EN"
 "http://www.w3.org/Graphics/SVG/1.1/DTD/svg11.dtd">
<!-- Generated by graphviz version 2.44.1 (20200629.0846)
 -->
<!-- Title: synthdef_f48b4d830ee617727b680aaa7bbdd130 Pages: 1 -->
<svg width="1436pt" height="471pt"
 viewBox="0.00 0.00 1436.00 470.50" xmlns="http://www.w3.org/2000/svg" xmlns:xlink="http://www.w3.org/1999/xlink">
<g id="graph0" class="graph" transform="scale(1 1) rotate(0) translate(4 466.5)">
<title>synthdef_f48b4d830ee617727b680aaa7bbdd130</title>
<!-- ugen_0&#45;&gt;ugen_1 -->
<g id="edge1" class="edge">
<title>ugen_0:e&#45;&gt;ugen_1:w</title>
<path fill="none" stroke="salmon" stroke-width="2" d="M63,-306.16C91.38,-306.16 100.88,-306.16 124.98,-306.16"/>
<polygon fill="salmon" stroke="salmon" stroke-width="2" points="125,-309.66 135,-306.16 125,-302.66 125,-309.66"/>
</g>
<!-- ugen_0&#45;&gt;ugen_12 -->
<g id="edge2" class="edge">
<title>ugen_0:e&#45;&gt;ugen_12:w</title>
<path fill="none" stroke="salmon" stroke-width="2" d="M63,-272.16C139.36,-272.16 72.29,-384.59 135,-428.16 226.14,-491.5 273.01,-447.16 384,-447.16 384,-447.16 384,-447.16 1031,-447.16 1189.32,-447.16 1211.3,-330.35 1363.77,-325.33"/>
<polygon fill="salmon" stroke="salmon" stroke-width="2" points="1364.06,-328.83 1374,-325.16 1363.94,-321.83 1364.06,-328.83"/>
</g>
<!-- ugen_0&#45;&gt;ugen_3 -->
<g id="edge3" class="edge">
<title>ugen_0:e&#45;&gt;ugen_3:w</title>
<path fill="none" stroke="salmon" stroke-width="2" d="M63,-272.16C96.21,-272.16 102.09,-256.65 135,-252.16 183,-245.62 200.28,-231.3 244,-252.16 302.84,-280.25 287.15,-352.93 343.84,-360.52"/>
<polygon fill="salmon" stroke="salmon" stroke-width="2" points="343.8,-364.03 354,-361.16 344.24,-357.04 343.8,-364.03"/>
</g>
<!-- ugen_1&#45;&gt;ugen_2 -->
<g id="edge4" class="edge">
<title>ugen_1:e&#45;&gt;ugen_2:w</title>
<path fill="none" stroke="goldenrod" stroke-width="2" d="M244,-323.16C279.15,-323.16 277.77,-282.45 305.79,-274.5"/>
<polygon fill="goldenrod" stroke="goldenrod" stroke-width="2" points="306.54,-277.93 316,-273.16 305.63,-270.99 306.54,-277.93"/>
</g>
<!-- ugen_10&#45;&gt;ugen_11 -->
<g id="edge5" class="edge">
<title>ugen_10:e&#45;&gt;ugen_11:w</title>
<path fill="none" stroke="steelblue" stroke-width="2" d="M1110,-193.16C1138.38,-193.16 1147.88,-193.16 1171.98,-193.16"/>
<polygon fill="steelblue" stroke="steelblue" stroke-width="2" points="1172,-196.66 1182,-193.16 1172,-189.66 1172,-196.66"/>
</g>
<!-- ugen_11&#45;&gt;ugen_12 -->
<g id="edge6" class="edge">
<title>ugen_11:e&#45;&gt;ugen_12:w</title>
<path fill="none" stroke="steelblue" stroke-width="2" d="M1302,-182.16C1361.15,-182.16 1317.14,-289.84 1363.8,-302.88"/>
<polygon fill="steelblue" stroke="steelblue" stroke-width="2" points="1363.64,-306.38 1374,-304.16 1364.52,-299.44 1363.64,-306.38"/>
</g>
<!-- ugen_2&#45;&gt;ugen_11 -->
<g id="edge7" class="edge">
<title>ugen_2:e&#45;&gt;ugen_11:w</title>
<path fill="none" stroke="goldenrod" stroke-width="2" d="M454,-273.16C546.8,-273.16 459.69,-142.09 526,-77.16 590.47,-14.03 629,-26.03 718,-11.16 788.14,0.55 808.99,5.98 878,-11.16 882.18,-12.2 1122.45,-142.46 1172.85,-167.89"/>
<polygon fill="goldenrod" stroke="goldenrod" stroke-width="2" points="1171.46,-171.1 1182,-172.16 1174.42,-164.76 1171.46,-171.1"/>
</g>
<!-- ugen_2&#45;&gt;ugen_4 -->
<g id="edge8" class="edge">
<title>ugen_2:e&#45;&gt;ugen_4:w</title>
<path fill="none" stroke="goldenrod" stroke-width="2" d="M454,-273.16C493.96,-273.16 484.5,-329.14 515.97,-338.76"/>
<polygon fill="goldenrod" stroke="goldenrod" stroke-width="2" points="515.61,-342.25 526,-340.16 516.58,-335.32 515.61,-342.25"/>
</g>
<!-- ugen_3&#45;&gt;ugen_4 -->
<g id="edge9" class="edge">
<title>ugen_3:e&#45;&gt;ugen_4:w</title>
<path fill="none" stroke="steelblue" stroke-width="2" d="M416,-361.16C461.36,-361.16 475.15,-361.16 515.95,-361.16"/>
<polygon fill="steelblue" stroke="steelblue" stroke-width="2" points="516,-364.66 526,-361.16 516,-357.66 516,-364.66"/>
</g>
<!-- ugen_4&#45;&gt;ugen_7 -->
<g id="edge10" class="edge">
<title>ugen_4:e&#45;&gt;ugen_7:w</title>
<path fill="none" stroke="steelblue" stroke-width="2" d="M646,-350.16C674.38,-350.16 683.88,-350.16 707.98,-350.16"/>
<polygon fill="steelblue" stroke="steelblue" stroke-width="2" points="708,-353.66 718,-350.16 708,-346.66 708,-353.66"/>
</g>
<!-- ugen_5&#45;&gt;ugen_7 -->
<g id="edge11" class="edge">
<title>ugen_5:e&#45;&gt;ugen_7:w</title>
<path fill="none" stroke="salmon" stroke-width="2" d="M634,-121.16C707.94,-121.16 646.77,-260.16 708.04,-273.19"/>
<polygon fill="salmon" stroke="salmon" stroke-width="2" points="707.71,-276.67 718,-274.16 708.39,-269.7 707.71,-276.67"/>
</g>
<!-- ugen_6&#45;&gt;ugen_7 -->
<g id="edge12" class="edge">
<title>ugen_6:e&#45;&gt;ugen_7:w</title>
<path fill="none" stroke="salmon" stroke-width="2" d="M634,-242.16C674.35,-242.16 674.24,-286.45 707.63,-294.06"/>
<polygon fill="salmon" stroke="salmon" stroke-width="2" points="707.68,-297.58 718,-295.16 708.43,-290.62 707.68,-297.58"/>
</g>
<!-- ugen_7&#45;&gt;ugen_10 -->
<g id="edge13" class="edge">
<title>ugen_7:e&#45;&gt;ugen_10:w</title>
<path fill="none" stroke="steelblue" stroke-width="2" d="M878,-312.16C922.4,-312.16 905.19,-243.33 939.97,-232.57"/>
<polygon fill="steelblue" stroke="steelblue" stroke-width="2" points="940.58,-236.02 950,-231.16 939.61,-229.09 940.58,-236.02"/>
</g>
<!-- ugen_8&#45;&gt;ugen_10 -->
<g id="edge14" class="edge">
<title>ugen_8:e&#45;&gt;ugen_10:w</title>
<path fill="none" stroke="salmon" stroke-width="2" d="M846,-55.16C906.49,-55.16 888.34,-144.16 939.92,-154.24"/>
<polygon fill="salmon" stroke="salmon" stroke-width="2" points="939.72,-157.73 950,-155.16 940.36,-150.76 939.72,-157.73"/>
</g>
<!-- ugen_9&#45;&gt;ugen_10 -->
<g id="edge15" class="edge">
<title>ugen_9:e&#45;&gt;ugen_10:w</title>
<path fill="none" stroke="salmon" stroke-width="2" d="M846,-176.16C888.61,-176.16 901.76,-176.16 939.77,-176.16"/>
<polygon fill="salmon" stroke="salmon" stroke-width="2" points="940,-179.66 950,-176.16 940,-172.66 940,-179.66"/>
</g>
<!-- ugen_0 -->
<g id="node1" class="node">
<title>ugen_0</title>
<path fill="#ee9572" stroke="black" stroke-width="2" d="M12,-255.16C12,-255.16 51,-255.16 51,-255.16 57,-255.16 63,-261.16 63,-267.16 63,-267.16 63,-345.16 63,-345.16 63,-351.16 57,-357.16 51,-357.16 51,-357.16 12,-357.16 12,-357.16 6,-357.16 0,-351.16 0,-345.16 0,-345.16 0,-267.16 0,-267.16 0,-261.16 6,-255.16 12,-255.16"/>
<text text-anchor="middle" x="31.5" y="-343.56" font-family="Arial" font-size="12.00">Control</text>
<text text-anchor="middle" x="31.5" y="-330.56" font-family="Arial" font-size="12.00">(scalar)</text>
<polyline fill="none" stroke="black" stroke-width="2" points="0,-323.16 63,-323.16 "/>
<text text-anchor="middle" x="31.5" y="-309.56" font-family="Arial" font-size="12.00">duration:</text>
<text text-anchor="middle" x="31.5" y="-296.56" font-family="Arial" font-size="12.00">1.0</text>
<polyline fill="none" stroke="black" stroke-width="2" points="0,-289.16 63,-289.16 "/>
<text text-anchor="middle" x="31.5" y="-275.56" font-family="Arial" font-size="12.00">out:</text>
<text text-anchor="middle" x="31.5" y="-262.56" font-family="Arial" font-size="12.00">0.0</text>
</g>
<!-- ugen_1 -->
<g id="node2" class="node">
<title>ugen_1</title>
<path fill="#eedc82" stroke="black" stroke-width="2" d="M147,-261.66C147,-261.66 232,-261.66 232,-261.66 238,-261.66 244,-267.66 244,-273.66 244,-273.66 244,-406.66 244,-406.66 244,-412.66 238,-418.66 232,-418.66 232,-418.66 147,-418.66 147,-418.66 141,-418.66 135,-412.66 135,-406.66 135,-406.66 135,-273.66 135,-273.66 135,-267.66 141,-261.66 147,-261.66"/>
<text text-anchor="middle" x="189.5" y="-405.06" font-family="Arial" font-size="12.00">Line</text>
<text text-anchor="middle" x="189.5" y="-392.06" font-family="Arial" font-size="12.00">(control)</text>
<polyline fill="none" stroke="black" stroke-width="2" points="135,-384.66 244,-384.66 "/>
<text text-anchor="middle" x="178" y="-371.06" font-family="Arial" font-size="12.00">start:</text>
<text text-anchor="middle" x="178" y="-358.06" font-family="Arial" font-size="12.00">0.0</text>
<polyline fill="none" stroke="black" stroke-width="2" points="135,-350.66 221,-350.66 "/>
<text text-anchor="middle" x="178" y="-337.06" font-family="Arial" font-size="12.00">stop:</text>
<text text-anchor="middle" x="178" y="-324.06" font-family="Arial" font-size="12.00">1.0</text>
<polyline fill="none" stroke="black" stroke-width="2" points="135,-316.66 221,-316.66 "/>
<text text-anchor="middle" x="178" y="-303.06" font-family="Arial" font-size="12.00">duration</text>
<polyline fill="none" stroke="black" stroke-width="2" points="135,-295.66 221,-295.66 "/>
<text text-anchor="middle" x="178" y="-282.06" font-family="Arial" font-size="12.00">done_action:</text>
<text text-anchor="middle" x="178" y="-269.06" font-family="Arial" font-size="12.00">2.0</text>
<polyline fill="none" stroke="black" stroke-width="2" points="221,-261.66 221,-384.66 "/>
<text text-anchor="middle" x="232.5" y="-320.06" font-family="Arial" font-size="12.00">0</text>
</g>
<!-- ugen_10 -->
<g id="node3" class="node">
<title>ugen_10</title>
<path fill="#bcd2ee" stroke="black" stroke-width="2" d="M962,-144.66C962,-144.66 1098,-144.66 1098,-144.66 1104,-144.66 1110,-150.66 1110,-156.66 1110,-156.66 1110,-263.66 1110,-263.66 1110,-269.66 1104,-275.66 1098,-275.66 1098,-275.66 962,-275.66 962,-275.66 956,-275.66 950,-269.66 950,-263.66 950,-263.66 950,-156.66 950,-156.66 950,-150.66 956,-144.66 962,-144.66"/>
<text text-anchor="middle" x="1030" y="-262.06" font-family="Arial" font-size="12.00">AllpassC</text>
<text text-anchor="middle" x="1030" y="-249.06" font-family="Arial" font-size="12.00">(audio)</text>
<polyline fill="none" stroke="black" stroke-width="2" points="950,-241.66 1110,-241.66 "/>
<text text-anchor="middle" x="1018.5" y="-228.06" font-family="Arial" font-size="12.00">source</text>
<polyline fill="none" stroke="black" stroke-width="2" points="950,-220.66 1087,-220.66 "/>
<text text-anchor="middle" x="1018.5" y="-207.06" font-family="Arial" font-size="12.00">maximum_delay_time:</text>
<text text-anchor="middle" x="1018.5" y="-194.06" font-family="Arial" font-size="12.00">0.1</text>
<polyline fill="none" stroke="black" stroke-width="2" points="950,-186.66 1087,-186.66 "/>
<text text-anchor="middle" x="1018.5" y="-173.06" font-family="Arial" font-size="12.00">delay_time</text>
<polyline fill="none" stroke="black" stroke-width="2" points="950,-165.66 1087,-165.66 "/>
<text text-anchor="middle" x="1018.5" y="-152.06" font-family="Arial" font-size="12.00">decay_time</text>
<polyline fill="none" stroke="black" stroke-width="2" points="1087,-144.66 1087,-241.66 "/>
<text text-anchor="middle" x="1098.5" y="-190.06" font-family="Arial" font-size="12.00">0</text>
</g>
<!-- ugen_11 -->
<g id="node4" class="node">
<title>ugen_11</title>
<path fill="#bcd2ee" stroke="black" stroke-width="2" d="M1194,-161.66C1194,-161.66 1290,-161.66 1290,-161.66 1296,-161.66 1302,-167.66 1302,-173.66 1302,-173.66 1302,-238.66 1302,-238.66 1302,-244.66 1296,-250.66 1290,-250.66 1290,-250.66 1194,-250.66 1194,-250.66 1188,-250.66 1182,-244.66 1182,-238.66 1182,-238.66 1182,-173.66 1182,-173.66 1182,-167.66 1188,-161.66 1194,-161.66"/>
<text text-anchor="middle" x="1242" y="-237.06" font-family="Arial" font-size="12.00">BinaryOpUGen</text>
<text text-anchor="middle" x="1242" y="-224.06" font-family="Arial" font-size="12.00">[MULTIPLICATION]</text>
<text text-anchor="middle" x="1242" y="-211.06" font-family="Arial" font-size="12.00">(audio)</text>
<polyline fill="none" stroke="black" stroke-width="2" points="1182,-203.66 1302,-203.66 "/>
<text text-anchor="middle" x="1216" y="-190.06" font-family="Arial" font-size="12.00">left</text>
<polyline fill="none" stroke="black" stroke-width="2" points="1182,-182.66 1250,-182.66 "/>
<text text-anchor="middle" x="1216" y="-169.06" font-family="Arial" font-size="12.00">right</text>
<polyline fill="none" stroke="black" stroke-width="2" points="1250,-161.66 1250,-203.66 "/>
<text text-anchor="middle" x="1276" y="-179.56" font-family="Arial" font-size="12.00">0</text>
</g>
<!-- ugen_12 -->
<g id="node5" class="node">
<title>ugen_12</title>
<path fill="#bcd2ee" stroke="black" stroke-width="2" d="M1386,-294.16C1386,-294.16 1416,-294.16 1416,-294.16 1422,-294.16 1428,-300.16 1428,-306.16 1428,-306.16 1428,-358.16 1428,-358.16 1428,-364.16 1422,-370.16 1416,-370.16 1416,-370.16 1386,-370.16 1386,-370.16 1380,-370.16 1374,-364.16 1374,-358.16 1374,-358.16 1374,-306.16 1374,-306.16 1374,-300.16 1380,-294.16 1386,-294.16"/>
<text text-anchor="middle" x="1401" y="-356.56" font-family="Arial" font-size="12.00">Out</text>
<text text-anchor="middle" x="1401" y="-343.56" font-family="Arial" font-size="12.00">(audio)</text>
<polyline fill="none" stroke="black" stroke-width="2" points="1374,-336.16 1428,-336.16 "/>
<text text-anchor="middle" x="1401" y="-322.56" font-family="Arial" font-size="12.00">bus</text>
<polyline fill="none" stroke="black" stroke-width="2" points="1374,-315.16 1428,-315.16 "/>
<text text-anchor="middle" x="1401" y="-301.56" font-family="Arial" font-size="12.00">source</text>
</g>
<!-- ugen_2 -->
<g id="node6" class="node">
<title>ugen_2</title>
<path fill="#eedc82" stroke="black" stroke-width="2" d="M328,-263.16C328,-263.16 442,-263.16 442,-263.16 448,-263.16 454,-269.16 454,-275.16 454,-275.16 454,-319.16 454,-319.16 454,-325.16 448,-331.16 442,-331.16 442,-331.16 328,-331.16 328,-331.16 322,-331.16 316,-325.16 316,-319.16 316,-319.16 316,-275.16 316,-275.16 316,-269.16 322,-263.16 328,-263.16"/>
<text text-anchor="middle" x="385" y="-317.56" font-family="Arial" font-size="12.00">UnaryOpUGen</text>
<text text-anchor="middle" x="385" y="-304.56" font-family="Arial" font-size="12.00">[HANNING_WINDOW]</text>
<text text-anchor="middle" x="385" y="-291.56" font-family="Arial" font-size="12.00">(control)</text>
<polyline fill="none" stroke="black" stroke-width="2" points="316,-284.16 454,-284.16 "/>
<text text-anchor="middle" x="358" y="-270.56" font-family="Arial" font-size="12.00">source</text>
<polyline fill="none" stroke="black" stroke-width="2" points="400,-263.16 400,-284.16 "/>
<text text-anchor="middle" x="427" y="-270.56" font-family="Arial" font-size="12.00">0</text>
</g>
<!-- ugen_3 -->
<g id="node7" class="node">
<title>ugen_3</title>
<path fill="#bcd2ee" stroke="black" stroke-width="2" d="M367.5,-350.66C367.5,-350.66 402.5,-350.66 402.5,-350.66 408.5,-350.66 414.5,-356.66 414.5,-362.66 414.5,-362.66 414.5,-393.66 414.5,-393.66 414.5,-399.66 408.5,-405.66 402.5,-405.66 402.5,-405.66 367.5,-405.66 367.5,-405.66 361.5,-405.66 355.5,-399.66 355.5,-393.66 355.5,-393.66 355.5,-362.66 355.5,-362.66 355.5,-356.66 361.5,-350.66 367.5,-350.66"/>
<text text-anchor="middle" x="385" y="-392.06" font-family="Arial" font-size="12.00">In</text>
<text text-anchor="middle" x="385" y="-379.06" font-family="Arial" font-size="12.00">(audio)</text>
<polyline fill="none" stroke="black" stroke-width="2" points="355.5,-371.66 414.5,-371.66 "/>
<text text-anchor="middle" x="373.5" y="-358.06" font-family="Arial" font-size="12.00">bus</text>
<polyline fill="none" stroke="black" stroke-width="2" points="391.5,-350.66 391.5,-371.66 "/>
<text text-anchor="middle" x="403" y="-358.06" font-family="Arial" font-size="12.00">0</text>
</g>
<!-- ugen_4 -->
<g id="node8" class="node">
<title>ugen_4</title>
<path fill="#bcd2ee" stroke="black" stroke-width="2" d="M538,-329.66C538,-329.66 634,-329.66 634,-329.66 640,-329.66 646,-335.66 646,-341.66 646,-341.66 646,-406.66 646,-406.66 646,-412.66 640,-418.66 634,-418.66 634,-418.66 538,-418.66 538,-418.66 532,-418.66 526,-412.66 526,-406.66 526,-406.66 526,-341.66 526,-341.66 526,-335.66 532,-329.66 538,-329.66"/>
<text text-anchor="middle" x="586" y="-405.06" font-family="Arial" font-size="12.00">BinaryOpUGen</text>
<text text-anchor="middle" x="586" y="-392.06" font-family="Arial" font-size="12.00">[MULTIPLICATION]</text>
<text text-anchor="middle" x="586" y="-379.06" font-family="Arial" font-size="12.00">(audio)</text>
<polyline fill="none" stroke="black" stroke-width="2" points="526,-371.66 646,-371.66 "/>
<text text-anchor="middle" x="560" y="-358.06" font-family="Arial" font-size="12.00">left</text>
<polyline fill="none" stroke="black" stroke-width="2" points="526,-350.66 594,-350.66 "/>
<text text-anchor="middle" x="560" y="-337.06" font-family="Arial" font-size="12.00">right</text>
<polyline fill="none" stroke="black" stroke-width="2" points="594,-329.66 594,-371.66 "/>
<text text-anchor="middle" x="620" y="-347.56" font-family="Arial" font-size="12.00">0</text>
</g>
<!-- ugen_5 -->
<g id="node9" class="node">
<title>ugen_5</title>
<path fill="#ee9572" stroke="black" stroke-width="2" d="M551,-87.16C551,-87.16 621,-87.16 621,-87.16 627,-87.16 633,-93.16 633,-99.16 633,-99.16 633,-177.16 633,-177.16 633,-183.16 627,-189.16 621,-189.16 621,-189.16 551,-189.16 551,-189.16 545,-189.16 539,-183.16 539,-177.16 539,-177.16 539,-99.16 539,-99.16 539,-93.16 545,-87.16 551,-87.16"/>
<text text-anchor="middle" x="586" y="-175.56" font-family="Arial" font-size="12.00">ExpRand</text>
<text text-anchor="middle" x="586" y="-162.56" font-family="Arial" font-size="12.00">(scalar)</text>
<polyline fill="none" stroke="black" stroke-width="2" points="539,-155.16 633,-155.16 "/>
<text text-anchor="middle" x="574.5" y="-141.56" font-family="Arial" font-size="12.00">minimum:</text>
<text text-anchor="middle" x="574.5" y="-128.56" font-family="Arial" font-size="12.00">0.01</text>
<polyline fill="none" stroke="black" stroke-width="2" points="539,-121.16 610,-121.16 "/>
<text text-anchor="middle" x="574.5" y="-107.56" font-family="Arial" font-size="12.00">maximum:</text>
<text text-anchor="middle" x="574.5" y="-94.56" font-family="Arial" font-size="12.00">0.1</text>
<polyline fill="none" stroke="black" stroke-width="2" points="610,-87.16 610,-155.16 "/>
<text text-anchor="middle" x="621.5" y="-118.06" font-family="Arial" font-size="12.00">0</text>
</g>
<!-- ugen_6 -->
<g id="node10" class="node">
<title>ugen_6</title>
<path fill="#ee9572" stroke="black" stroke-width="2" d="M551,-208.16C551,-208.16 621,-208.16 621,-208.16 627,-208.16 633,-214.16 633,-220.16 633,-220.16 633,-298.16 633,-298.16 633,-304.16 627,-310.16 621,-310.16 621,-310.16 551,-310.16 551,-310.16 545,-310.16 539,-304.16 539,-298.16 539,-298.16 539,-220.16 539,-220.16 539,-214.16 545,-208.16 551,-208.16"/>
<text text-anchor="middle" x="586" y="-296.56" font-family="Arial" font-size="12.00">ExpRand</text>
<text text-anchor="middle" x="586" y="-283.56" font-family="Arial" font-size="12.00">(scalar)</text>
<polyline fill="none" stroke="black" stroke-width="2" points="539,-276.16 633,-276.16 "/>
<text text-anchor="middle" x="574.5" y="-262.56" font-family="Arial" font-size="12.00">minimum:</text>
<text text-anchor="middle" x="574.5" y="-249.56" font-family="Arial" font-size="12.00">0.01</text>
<polyline fill="none" stroke="black" stroke-width="2" points="539,-242.16 610,-242.16 "/>
<text text-anchor="middle" x="574.5" y="-228.56" font-family="Arial" font-size="12.00">maximum:</text>
<text text-anchor="middle" x="574.5" y="-215.56" font-family="Arial" font-size="12.00">0.1</text>
<polyline fill="none" stroke="black" stroke-width="2" points="610,-208.16 610,-276.16 "/>
<text text-anchor="middle" x="621.5" y="-239.06" font-family="Arial" font-size="12.00">0</text>
</g>
<!-- ugen_7 -->
<g id="node11" class="node">
<title>ugen_7</title>
<path fill="#bcd2ee" stroke="black" stroke-width="2" d="M730,-263.66C730,-263.66 866,-263.66 866,-263.66 872,-263.66 878,-269.66 878,-275.66 878,-275.66 878,-382.66 878,-382.66 878,-388.66 872,-394.66 866,-394.66 866,-394.66 730,-394.66 730,-394.66 724,-394.66 718,-388.66 718,-382.66 718,-382.66 718,-275.66 718,-275.66 718,-269.66 724,-263.66 730,-263.66"/>
<text text-anchor="middle" x="798" y="-381.06" font-family="Arial" font-size="12.00">AllpassC</text>
<text text-anchor="middle" x="798" y="-368.06" font-family="Arial" font-size="12.00">(audio)</text>
<polyline fill="none" stroke="black" stroke-width="2" points="718,-360.66 878,-360.66 "/>
<text text-anchor="middle" x="786.5" y="-347.06" font-family="Arial" font-size="12.00">source</text>
<polyline fill="none" stroke="black" stroke-width="2" points="718,-339.66 855,-339.66 "/>
<text text-anchor="middle" x="786.5" y="-326.06" font-family="Arial" font-size="12.00">maximum_delay_time:</text>
<text text-anchor="middle" x="786.5" y="-313.06" font-family="Arial" font-size="12.00">0.1</text>
<polyline fill="none" stroke="black" stroke-width="2" points="718,-305.66 855,-305.66 "/>
<text text-anchor="middle" x="786.5" y="-292.06" font-family="Arial" font-size="12.00">delay_time</text>
<polyline fill="none" stroke="black" stroke-width="2" points="718,-284.66 855,-284.66 "/>
<text text-anchor="middle" x="786.5" y="-271.06" font-family="Arial" font-size="12.00">decay_time</text>
<polyline fill="none" stroke="black" stroke-width="2" points="855,-263.66 855,-360.66 "/>
<text text-anchor="middle" x="866.5" y="-309.06" font-family="Arial" font-size="12.00">0</text>
</g>
<!-- ugen_8 -->
<g id="node12" class="node">
<title>ugen_8</title>
<path fill="#ee9572" stroke="black" stroke-width="2" d="M763,-21.16C763,-21.16 833,-21.16 833,-21.16 839,-21.16 845,-27.16 845,-33.16 845,-33.16 845,-111.16 845,-111.16 845,-117.16 839,-123.16 833,-123.16 833,-123.16 763,-123.16 763,-123.16 757,-123.16 751,-117.16 751,-111.16 751,-111.16 751,-33.16 751,-33.16 751,-27.16 757,-21.16 763,-21.16"/>
<text text-anchor="middle" x="798" y="-109.56" font-family="Arial" font-size="12.00">ExpRand</text>
<text text-anchor="middle" x="798" y="-96.56" font-family="Arial" font-size="12.00">(scalar)</text>
<polyline fill="none" stroke="black" stroke-width="2" points="751,-89.16 845,-89.16 "/>
<text text-anchor="middle" x="786.5" y="-75.56" font-family="Arial" font-size="12.00">minimum:</text>
<text text-anchor="middle" x="786.5" y="-62.56" font-family="Arial" font-size="12.00">0.01</text>
<polyline fill="none" stroke="black" stroke-width="2" points="751,-55.16 822,-55.16 "/>
<text text-anchor="middle" x="786.5" y="-41.56" font-family="Arial" font-size="12.00">maximum:</text>
<text text-anchor="middle" x="786.5" y="-28.56" font-family="Arial" font-size="12.00">0.1</text>
<polyline fill="none" stroke="black" stroke-width="2" points="822,-21.16 822,-89.16 "/>
<text text-anchor="middle" x="833.5" y="-52.06" font-family="Arial" font-size="12.00">0</text>
</g>
<!-- ugen_9 -->
<g id="node13" class="node">
<title>ugen_9</title>
<path fill="#ee9572" stroke="black" stroke-width="2" d="M763,-142.16C763,-142.16 833,-142.16 833,-142.16 839,-142.16 845,-148.16 845,-154.16 845,-154.16 845,-232.16 845,-232.16 845,-238.16 839,-244.16 833,-244.16 833,-244.16 763,-244.16 763,-244.16 757,-244.16 751,-238.16 751,-232.16 751,-232.16 751,-154.16 751,-154.16 751,-148.16 757,-142.16 763,-142.16"/>
<text text-anchor="middle" x="798" y="-230.56" font-family="Arial" font-size="12.00">ExpRand</text>
<text text-anchor="middle" x="798" y="-217.56" font-family="Arial" font-size="12.00">(scalar)</text>
<polyline fill="none" stroke="black" stroke-width="2" points="751,-210.16 845,-210.16 "/>
<text text-anchor="middle" x="786.5" y="-196.56" font-family="Arial" font-size="12.00">minimum:</text>
<text text-anchor="middle" x="786.5" y="-183.56" font-family="Arial" font-size="12.00">0.01</text>
<polyline fill="none" stroke="black" stroke-width="2" points="751,-176.16 822,-176.16 "/>
<text text-anchor="middle" x="786.5" y="-162.56" font-family="Arial" font-size="12.00">maximum:</text>
<text text-anchor="middle" x="786.5" y="-149.56" font-family="Arial" font-size="12.00">0.1</text>
<polyline fill="none" stroke="black" stroke-width="2" points="822,-142.16 822,-210.16 "/>
<text text-anchor="middle" x="833.5" y="-173.06" font-family="Arial" font-size="12.00">0</text>
</g>
</g>
</svg>
