<?xml version="1.0" encoding="UTF-8" standalone="no"?>
<!DOCTYPE svg PUBLIC "-//W3C//DTD SVG 1.1//EN"
 "http://www.w3.org/Graphics/SVG/1.1/DTD/svg11.dtd">
<!-- Generated by graphviz version 2.43.0 (0)
 -->
<!-- Title: synthdef_89f3a65da5a2767291b672090d70afbb Pages: 1 -->
<svg width="417pt" height="558pt"
 viewBox="0.00 0.00 417.00 558.00" xmlns="http://www.w3.org/2000/svg" xmlns:xlink="http://www.w3.org/1999/xlink">
<g id="graph0" class="graph" transform="scale(1 1) rotate(0) translate(4 554)">
<title>synthdef_89f3a65da5a2767291b672090d70afbb</title>
<!-- ugen_0&#45;&gt;ugen_1 -->
<g id="edge1" class="edge">
<title>ugen_0:e&#45;&gt;ugen_1:w</title>
<path fill="none" stroke="steelblue" stroke-width="2" d="M95,-184C123.38,-184 132.88,-184 156.98,-184"/>
<polygon fill="steelblue" stroke="steelblue" stroke-width="2" points="157,-187.5 167,-184 157,-180.5 157,-187.5"/>
</g>
<!-- ugen_1&#45;&gt;ugen_2 -->
<g id="edge2" class="edge">
<title>ugen_1:e&#45;&gt;ugen_2:w</title>
<path fill="none" stroke="steelblue" stroke-width="2" d="M252,-173C286.7,-173 286.09,-212.08 313.89,-219.72"/>
<polygon fill="steelblue" stroke="steelblue" stroke-width="2" points="313.64,-223.21 324,-221 314.52,-216.27 313.64,-223.21"/>
</g>
<!-- ugen_1&#45;&gt;ugen_3 -->
<g id="edge3" class="edge">
<title>ugen_1:e&#45;&gt;ugen_3:w</title>
<path fill="none" stroke="steelblue" stroke-width="2" d="M252,-128C286.93,-128 285.93,-88.1 313.84,-80.31"/>
<polygon fill="steelblue" stroke="steelblue" stroke-width="2" points="314.53,-83.75 324,-79 313.63,-76.81 314.53,-83.75"/>
</g>
<!-- ugen_4&#45;&gt;ugen_5 -->
<g id="edge4" class="edge">
<title>ugen_4:e&#45;&gt;ugen_5:w</title>
<path fill="none" stroke="steelblue" stroke-width="2" d="M95,-467C123.38,-467 132.88,-467 156.98,-467"/>
<polygon fill="steelblue" stroke="steelblue" stroke-width="2" points="157,-470.5 167,-467 157,-463.5 157,-470.5"/>
</g>
<!-- ugen_5&#45;&gt;ugen_6 -->
<g id="edge5" class="edge">
<title>ugen_5:e&#45;&gt;ugen_6:w</title>
<path fill="none" stroke="steelblue" stroke-width="2" d="M252,-456C286.93,-456 285.93,-495.9 313.84,-503.69"/>
<polygon fill="steelblue" stroke="steelblue" stroke-width="2" points="313.63,-507.19 324,-505 314.53,-500.25 313.63,-507.19"/>
</g>
<!-- ugen_5&#45;&gt;ugen_7 -->
<g id="edge6" class="edge">
<title>ugen_5:e&#45;&gt;ugen_7:w</title>
<path fill="none" stroke="steelblue" stroke-width="2" d="M252,-411C286.7,-411 286.09,-371.92 313.89,-364.28"/>
<polygon fill="steelblue" stroke="steelblue" stroke-width="2" points="314.52,-367.73 324,-363 313.64,-360.79 314.52,-367.73"/>
</g>
<!-- ugen_0 -->
<g id="node1" class="node">
<title>ugen_0</title>
<path fill="#bcd2ee" stroke="black" stroke-width="2" d="M12,-150C12,-150 83,-150 83,-150 89,-150 95,-156 95,-162 95,-162 95,-240 95,-240 95,-246 89,-252 83,-252 83,-252 12,-252 12,-252 6,-252 0,-246 0,-240 0,-240 0,-162 0,-162 0,-156 6,-150 12,-150"/>
<text text-anchor="middle" x="47.5" y="-238.4" font-family="Arial" font-size="12.00">SinOsc</text>
<text text-anchor="middle" x="47.5" y="-225.4" font-family="Arial" font-size="12.00">(audio)</text>
<polyline fill="none" stroke="black" stroke-width="2" points="0,-218 95,-218 "/>
<text text-anchor="middle" x="36" y="-204.4" font-family="Arial" font-size="12.00">frequency:</text>
<text text-anchor="middle" x="36" y="-191.4" font-family="Arial" font-size="12.00">440.0</text>
<polyline fill="none" stroke="black" stroke-width="2" points="0,-184 72,-184 "/>
<text text-anchor="middle" x="36" y="-170.4" font-family="Arial" font-size="12.00">phase:</text>
<text text-anchor="middle" x="36" y="-157.4" font-family="Arial" font-size="12.00">0.0</text>
<polyline fill="none" stroke="black" stroke-width="2" points="72,-150 72,-218 "/>
<text text-anchor="middle" x="83.5" y="-180.9" font-family="Arial" font-size="12.00">0</text>
</g>
<!-- ugen_1 -->
<g id="node2" class="node">
<title>ugen_1</title>
<path fill="#bcd2ee" stroke="black" stroke-width="2" d="M179,-105.5C179,-105.5 240,-105.5 240,-105.5 246,-105.5 252,-111.5 252,-117.5 252,-117.5 252,-216.5 252,-216.5 252,-222.5 246,-228.5 240,-228.5 240,-228.5 179,-228.5 179,-228.5 173,-228.5 167,-222.5 167,-216.5 167,-216.5 167,-117.5 167,-117.5 167,-111.5 173,-105.5 179,-105.5"/>
<text text-anchor="middle" x="209.5" y="-214.9" font-family="Arial" font-size="12.00">Pan2</text>
<text text-anchor="middle" x="209.5" y="-201.9" font-family="Arial" font-size="12.00">(audio)</text>
<polyline fill="none" stroke="black" stroke-width="2" points="167,-194.5 252,-194.5 "/>
<text text-anchor="middle" x="198" y="-180.9" font-family="Arial" font-size="12.00">source</text>
<polyline fill="none" stroke="black" stroke-width="2" points="167,-173.5 229,-173.5 "/>
<text text-anchor="middle" x="198" y="-159.9" font-family="Arial" font-size="12.00">position:</text>
<text text-anchor="middle" x="198" y="-146.9" font-family="Arial" font-size="12.00">0.0</text>
<polyline fill="none" stroke="black" stroke-width="2" points="167,-139.5 229,-139.5 "/>
<text text-anchor="middle" x="198" y="-125.9" font-family="Arial" font-size="12.00">level:</text>
<text text-anchor="middle" x="198" y="-112.9" font-family="Arial" font-size="12.00">1.0</text>
<polyline fill="none" stroke="black" stroke-width="2" points="229,-105.5 229,-194.5 "/>
<text text-anchor="middle" x="240.5" y="-169.4" font-family="Arial" font-size="12.00">0</text>
<polyline fill="none" stroke="black" stroke-width="2" points="229,-150.5 252,-150.5 "/>
<text text-anchor="middle" x="240.5" y="-124.9" font-family="Arial" font-size="12.00">1</text>
</g>
<!-- ugen_2 -->
<g id="node3" class="node">
<title>ugen_2</title>
<path fill="#bcd2ee" stroke="black" stroke-width="2" d="M336,-142.5C336,-142.5 397,-142.5 397,-142.5 403,-142.5 409,-148.5 409,-154.5 409,-154.5 409,-253.5 409,-253.5 409,-259.5 403,-265.5 397,-265.5 397,-265.5 336,-265.5 336,-265.5 330,-265.5 324,-259.5 324,-253.5 324,-253.5 324,-154.5 324,-154.5 324,-148.5 330,-142.5 336,-142.5"/>
<text text-anchor="middle" x="366.5" y="-251.9" font-family="Arial" font-size="12.00">Pan2</text>
<text text-anchor="middle" x="366.5" y="-238.9" font-family="Arial" font-size="12.00">(audio)</text>
<polyline fill="none" stroke="black" stroke-width="2" points="324,-231.5 409,-231.5 "/>
<text text-anchor="middle" x="355" y="-217.9" font-family="Arial" font-size="12.00">source</text>
<polyline fill="none" stroke="black" stroke-width="2" points="324,-210.5 386,-210.5 "/>
<text text-anchor="middle" x="355" y="-196.9" font-family="Arial" font-size="12.00">position:</text>
<text text-anchor="middle" x="355" y="-183.9" font-family="Arial" font-size="12.00">0.0</text>
<polyline fill="none" stroke="black" stroke-width="2" points="324,-176.5 386,-176.5 "/>
<text text-anchor="middle" x="355" y="-162.9" font-family="Arial" font-size="12.00">level:</text>
<text text-anchor="middle" x="355" y="-149.9" font-family="Arial" font-size="12.00">1.0</text>
<polyline fill="none" stroke="black" stroke-width="2" points="386,-142.5 386,-231.5 "/>
<text text-anchor="middle" x="397.5" y="-206.4" font-family="Arial" font-size="12.00">0</text>
<polyline fill="none" stroke="black" stroke-width="2" points="386,-187.5 409,-187.5 "/>
<text text-anchor="middle" x="397.5" y="-161.9" font-family="Arial" font-size="12.00">1</text>
</g>
<!-- ugen_3 -->
<g id="node4" class="node">
<title>ugen_3</title>
<path fill="#bcd2ee" stroke="black" stroke-width="2" d="M336,-0.5C336,-0.5 397,-0.5 397,-0.5 403,-0.5 409,-6.5 409,-12.5 409,-12.5 409,-111.5 409,-111.5 409,-117.5 403,-123.5 397,-123.5 397,-123.5 336,-123.5 336,-123.5 330,-123.5 324,-117.5 324,-111.5 324,-111.5 324,-12.5 324,-12.5 324,-6.5 330,-0.5 336,-0.5"/>
<text text-anchor="middle" x="366.5" y="-109.9" font-family="Arial" font-size="12.00">Pan2</text>
<text text-anchor="middle" x="366.5" y="-96.9" font-family="Arial" font-size="12.00">(audio)</text>
<polyline fill="none" stroke="black" stroke-width="2" points="324,-89.5 409,-89.5 "/>
<text text-anchor="middle" x="355" y="-75.9" font-family="Arial" font-size="12.00">source</text>
<polyline fill="none" stroke="black" stroke-width="2" points="324,-68.5 386,-68.5 "/>
<text text-anchor="middle" x="355" y="-54.9" font-family="Arial" font-size="12.00">position:</text>
<text text-anchor="middle" x="355" y="-41.9" font-family="Arial" font-size="12.00">0.0</text>
<polyline fill="none" stroke="black" stroke-width="2" points="324,-34.5 386,-34.5 "/>
<text text-anchor="middle" x="355" y="-20.9" font-family="Arial" font-size="12.00">level:</text>
<text text-anchor="middle" x="355" y="-7.9" font-family="Arial" font-size="12.00">1.0</text>
<polyline fill="none" stroke="black" stroke-width="2" points="386,-0.5 386,-89.5 "/>
<text text-anchor="middle" x="397.5" y="-64.4" font-family="Arial" font-size="12.00">0</text>
<polyline fill="none" stroke="black" stroke-width="2" points="386,-45.5 409,-45.5 "/>
<text text-anchor="middle" x="397.5" y="-19.9" font-family="Arial" font-size="12.00">1</text>
</g>
<!-- ugen_4 -->
<g id="node5" class="node">
<title>ugen_4</title>
<path fill="#bcd2ee" stroke="black" stroke-width="2" d="M12,-433C12,-433 83,-433 83,-433 89,-433 95,-439 95,-445 95,-445 95,-523 95,-523 95,-529 89,-535 83,-535 83,-535 12,-535 12,-535 6,-535 0,-529 0,-523 0,-523 0,-445 0,-445 0,-439 6,-433 12,-433"/>
<text text-anchor="middle" x="47.5" y="-521.4" font-family="Arial" font-size="12.00">SinOsc</text>
<text text-anchor="middle" x="47.5" y="-508.4" font-family="Arial" font-size="12.00">(audio)</text>
<polyline fill="none" stroke="black" stroke-width="2" points="0,-501 95,-501 "/>
<text text-anchor="middle" x="36" y="-487.4" font-family="Arial" font-size="12.00">frequency:</text>
<text text-anchor="middle" x="36" y="-474.4" font-family="Arial" font-size="12.00">443.0</text>
<polyline fill="none" stroke="black" stroke-width="2" points="0,-467 72,-467 "/>
<text text-anchor="middle" x="36" y="-453.4" font-family="Arial" font-size="12.00">phase:</text>
<text text-anchor="middle" x="36" y="-440.4" font-family="Arial" font-size="12.00">0.0</text>
<polyline fill="none" stroke="black" stroke-width="2" points="72,-433 72,-501 "/>
<text text-anchor="middle" x="83.5" y="-463.9" font-family="Arial" font-size="12.00">0</text>
</g>
<!-- ugen_5 -->
<g id="node6" class="node">
<title>ugen_5</title>
<path fill="#bcd2ee" stroke="black" stroke-width="2" d="M179,-388.5C179,-388.5 240,-388.5 240,-388.5 246,-388.5 252,-394.5 252,-400.5 252,-400.5 252,-499.5 252,-499.5 252,-505.5 246,-511.5 240,-511.5 240,-511.5 179,-511.5 179,-511.5 173,-511.5 167,-505.5 167,-499.5 167,-499.5 167,-400.5 167,-400.5 167,-394.5 173,-388.5 179,-388.5"/>
<text text-anchor="middle" x="209.5" y="-497.9" font-family="Arial" font-size="12.00">Pan2</text>
<text text-anchor="middle" x="209.5" y="-484.9" font-family="Arial" font-size="12.00">(audio)</text>
<polyline fill="none" stroke="black" stroke-width="2" points="167,-477.5 252,-477.5 "/>
<text text-anchor="middle" x="198" y="-463.9" font-family="Arial" font-size="12.00">source</text>
<polyline fill="none" stroke="black" stroke-width="2" points="167,-456.5 229,-456.5 "/>
<text text-anchor="middle" x="198" y="-442.9" font-family="Arial" font-size="12.00">position:</text>
<text text-anchor="middle" x="198" y="-429.9" font-family="Arial" font-size="12.00">0.0</text>
<polyline fill="none" stroke="black" stroke-width="2" points="167,-422.5 229,-422.5 "/>
<text text-anchor="middle" x="198" y="-408.9" font-family="Arial" font-size="12.00">level:</text>
<text text-anchor="middle" x="198" y="-395.9" font-family="Arial" font-size="12.00">1.0</text>
<polyline fill="none" stroke="black" stroke-width="2" points="229,-388.5 229,-477.5 "/>
<text text-anchor="middle" x="240.5" y="-452.4" font-family="Arial" font-size="12.00">0</text>
<polyline fill="none" stroke="black" stroke-width="2" points="229,-433.5 252,-433.5 "/>
<text text-anchor="middle" x="240.5" y="-407.9" font-family="Arial" font-size="12.00">1</text>
</g>
<!-- ugen_6 -->
<g id="node7" class="node">
<title>ugen_6</title>
<path fill="#bcd2ee" stroke="black" stroke-width="2" d="M336,-426.5C336,-426.5 397,-426.5 397,-426.5 403,-426.5 409,-432.5 409,-438.5 409,-438.5 409,-537.5 409,-537.5 409,-543.5 403,-549.5 397,-549.5 397,-549.5 336,-549.5 336,-549.5 330,-549.5 324,-543.5 324,-537.5 324,-537.5 324,-438.5 324,-438.5 324,-432.5 330,-426.5 336,-426.5"/>
<text text-anchor="middle" x="366.5" y="-535.9" font-family="Arial" font-size="12.00">Pan2</text>
<text text-anchor="middle" x="366.5" y="-522.9" font-family="Arial" font-size="12.00">(audio)</text>
<polyline fill="none" stroke="black" stroke-width="2" points="324,-515.5 409,-515.5 "/>
<text text-anchor="middle" x="355" y="-501.9" font-family="Arial" font-size="12.00">source</text>
<polyline fill="none" stroke="black" stroke-width="2" points="324,-494.5 386,-494.5 "/>
<text text-anchor="middle" x="355" y="-480.9" font-family="Arial" font-size="12.00">position:</text>
<text text-anchor="middle" x="355" y="-467.9" font-family="Arial" font-size="12.00">0.0</text>
<polyline fill="none" stroke="black" stroke-width="2" points="324,-460.5 386,-460.5 "/>
<text text-anchor="middle" x="355" y="-446.9" font-family="Arial" font-size="12.00">level:</text>
<text text-anchor="middle" x="355" y="-433.9" font-family="Arial" font-size="12.00">1.0</text>
<polyline fill="none" stroke="black" stroke-width="2" points="386,-426.5 386,-515.5 "/>
<text text-anchor="middle" x="397.5" y="-490.4" font-family="Arial" font-size="12.00">0</text>
<polyline fill="none" stroke="black" stroke-width="2" points="386,-471.5 409,-471.5 "/>
<text text-anchor="middle" x="397.5" y="-445.9" font-family="Arial" font-size="12.00">1</text>
</g>
<!-- ugen_7 -->
<g id="node8" class="node">
<title>ugen_7</title>
<path fill="#bcd2ee" stroke="black" stroke-width="2" d="M336,-284.5C336,-284.5 397,-284.5 397,-284.5 403,-284.5 409,-290.5 409,-296.5 409,-296.5 409,-395.5 409,-395.5 409,-401.5 403,-407.5 397,-407.5 397,-407.5 336,-407.5 336,-407.5 330,-407.5 324,-401.5 324,-395.5 324,-395.5 324,-296.5 324,-296.5 324,-290.5 330,-284.5 336,-284.5"/>
<text text-anchor="middle" x="366.5" y="-393.9" font-family="Arial" font-size="12.00">Pan2</text>
<text text-anchor="middle" x="366.5" y="-380.9" font-family="Arial" font-size="12.00">(audio)</text>
<polyline fill="none" stroke="black" stroke-width="2" points="324,-373.5 409,-373.5 "/>
<text text-anchor="middle" x="355" y="-359.9" font-family="Arial" font-size="12.00">source</text>
<polyline fill="none" stroke="black" stroke-width="2" points="324,-352.5 386,-352.5 "/>
<text text-anchor="middle" x="355" y="-338.9" font-family="Arial" font-size="12.00">position:</text>
<text text-anchor="middle" x="355" y="-325.9" font-family="Arial" font-size="12.00">0.0</text>
<polyline fill="none" stroke="black" stroke-width="2" points="324,-318.5 386,-318.5 "/>
<text text-anchor="middle" x="355" y="-304.9" font-family="Arial" font-size="12.00">level:</text>
<text text-anchor="middle" x="355" y="-291.9" font-family="Arial" font-size="12.00">1.0</text>
<polyline fill="none" stroke="black" stroke-width="2" points="386,-284.5 386,-373.5 "/>
<text text-anchor="middle" x="397.5" y="-348.4" font-family="Arial" font-size="12.00">0</text>
<polyline fill="none" stroke="black" stroke-width="2" points="386,-329.5 409,-329.5 "/>
<text text-anchor="middle" x="397.5" y="-303.9" font-family="Arial" font-size="12.00">1</text>
</g>
</g>
</svg>
