<?xml version="1.0" encoding="UTF-8" standalone="no"?>
<!DOCTYPE svg PUBLIC "-//W3C//DTD SVG 1.1//EN"
 "http://www.w3.org/Graphics/SVG/1.1/DTD/svg11.dtd">
<!-- Generated by graphviz version 2.40.1 (20161225.0304)
 -->
<!-- Title: synthdef_6c705751c4a7751b9bc68ff9e67706f0 Pages: 1 -->
<svg width="1099pt" height="461pt"
 viewBox="0.00 0.00 1099.00 461.00" xmlns="http://www.w3.org/2000/svg" xmlns:xlink="http://www.w3.org/1999/xlink">
<g id="graph0" class="graph" transform="scale(1 1) rotate(0) translate(4 457)">
<title>synthdef_6c705751c4a7751b9bc68ff9e67706f0</title>
<!-- ugen_0&#45;&gt;ugen_1 -->
<g id="edge1" class="edge">
<title>ugen_0:e&#45;&gt;ugen_1:w</title>
<path fill="none" stroke="#fa8072" stroke-width="2" d="M54,-254C82.375,-254 91.8795,-254 115.9792,-254"/>
<polygon fill="#fa8072" stroke="#fa8072" stroke-width="2" points="116,-257.5001 126,-254 116,-250.5001 116,-257.5001"/>
</g>
<!-- ugen_0&#45;&gt;ugen_11 -->
<g id="edge2" class="edge">
<title>ugen_0:e&#45;&gt;ugen_11:w</title>
<path fill="none" stroke="#fa8072" stroke-width="2" d="M54,-220C214.8964,-220 180.6036,0 341.5,0 341.5,0 341.5,0 699.5,0 848.5066,0 883.043,-58.2905 1026.9074,-60.9091"/>
<polygon fill="#fa8072" stroke="#fa8072" stroke-width="2" points="1026.9688,-64.4097 1037,-61 1027.032,-57.4099 1026.9688,-64.4097"/>
</g>
<!-- ugen_0&#45;&gt;ugen_3 -->
<g id="edge3" class="edge">
<title>ugen_0:e&#45;&gt;ugen_3:w</title>
<path fill="none" stroke="#fa8072" stroke-width="2" d="M54,-220C130.3617,-220 63.8252,-331.6671 126,-376 191.7467,-422.8799 227.3108,-397.319 304.3781,-395.1433"/>
<polygon fill="#fa8072" stroke="#fa8072" stroke-width="2" points="304.5506,-398.6413 314.5,-395 304.4514,-391.642 304.5506,-398.6413"/>
</g>
<!-- ugen_1&#45;&gt;ugen_2 -->
<g id="edge4" class="edge">
<title>ugen_1:e&#45;&gt;ugen_2:w</title>
<path fill="none" stroke="#daa520" stroke-width="2" d="M216,-271C245.2483,-271 253.303,-285.1529 277.7496,-288.3594"/>
<polygon fill="#daa520" stroke="#daa520" stroke-width="2" points="277.8011,-291.8693 288,-289 278.2378,-284.883 277.8011,-291.8693"/>
</g>
<!-- ugen_10&#45;&gt;ugen_11 -->
<g id="edge5" class="edge">
<title>ugen_10:e&#45;&gt;ugen_11:w</title>
<path fill="none" stroke="#4682b4" stroke-width="2" d="M965,-151C1020.0128,-151 983.6423,-53.8475 1026.8752,-41.3239"/>
<polygon fill="#4682b4" stroke="#4682b4" stroke-width="2" points="1027.5382,-44.7671 1037,-40 1026.6306,-37.8262 1027.5382,-44.7671"/>
</g>
<!-- ugen_2&#45;&gt;ugen_4 -->
<g id="edge6" class="edge">
<title>ugen_2:e&#45;&gt;ugen_4:w</title>
<path fill="none" stroke="#daa520" stroke-width="2" d="M395,-289C440.6413,-289 421.2453,-361.2375 456.7246,-372.5247"/>
<polygon fill="#daa520" stroke="#daa520" stroke-width="2" points="456.6041,-376.0432 467,-374 457.599,-369.1142 456.6041,-376.0432"/>
</g>
<!-- ugen_3&#45;&gt;ugen_4 -->
<g id="edge7" class="edge">
<title>ugen_3:e&#45;&gt;ugen_4:w</title>
<path fill="none" stroke="#4682b4" stroke-width="2" d="M368.5,-395C408.6866,-395 421.2057,-395 456.8531,-395"/>
<polygon fill="#4682b4" stroke="#4682b4" stroke-width="2" points="457,-398.5001 467,-395 457,-391.5001 457,-398.5001"/>
</g>
<!-- ugen_4&#45;&gt;ugen_7 -->
<g id="edge8" class="edge">
<title>ugen_4:e&#45;&gt;ugen_7:w</title>
<path fill="none" stroke="#4682b4" stroke-width="2" d="M563,-384C593.3013,-384 599.7526,-363.3765 624.8368,-358.8651"/>
<polygon fill="#4682b4" stroke="#4682b4" stroke-width="2" points="625.3329,-362.3356 635,-358 624.7392,-355.3608 625.3329,-362.3356"/>
</g>
<!-- ugen_5&#45;&gt;ugen_7 -->
<g id="edge9" class="edge">
<title>ugen_5:e&#45;&gt;ugen_7:w</title>
<path fill="none" stroke="#fa8072" stroke-width="2" d="M555,-155C617.9311,-155 573.9564,-268.0207 624.7771,-280.8238"/>
<polygon fill="#fa8072" stroke="#fa8072" stroke-width="2" points="624.6655,-284.334 635,-282 625.4656,-277.3799 624.6655,-284.334"/>
</g>
<!-- ugen_6&#45;&gt;ugen_7 -->
<g id="edge10" class="edge">
<title>ugen_6:e&#45;&gt;ugen_7:w</title>
<path fill="none" stroke="#fa8072" stroke-width="2" d="M555,-276C588.8613,-276 596.1969,-297.9841 624.8774,-302.2778"/>
<polygon fill="#fa8072" stroke="#fa8072" stroke-width="2" points="624.7762,-305.7794 635,-303 625.2745,-298.7971 624.7762,-305.7794"/>
</g>
<!-- ugen_7&#45;&gt;ugen_10 -->
<g id="edge11" class="edge">
<title>ugen_7:e&#45;&gt;ugen_10:w</title>
<path fill="none" stroke="#4682b4" stroke-width="2" d="M764,-320C826.6736,-320 776.0507,-203.4196 825.89,-190.2132"/>
<polygon fill="#4682b4" stroke="#4682b4" stroke-width="2" points="826.4883,-193.6666 836,-189 825.6542,-186.7165 826.4883,-193.6666"/>
</g>
<!-- ugen_8&#45;&gt;ugen_10 -->
<g id="edge12" class="edge">
<title>ugen_8:e&#45;&gt;ugen_10:w</title>
<path fill="none" stroke="#fa8072" stroke-width="2" d="M739.5,-63C784.219,-63 787.4453,-105.8535 826.0052,-112.2146"/>
<polygon fill="#fa8072" stroke="#fa8072" stroke-width="2" points="825.7565,-115.7058 836,-113 826.3049,-108.7273 825.7565,-115.7058"/>
</g>
<!-- ugen_9&#45;&gt;ugen_10 -->
<g id="edge13" class="edge">
<title>ugen_9:e&#45;&gt;ugen_10:w</title>
<path fill="none" stroke="#fa8072" stroke-width="2" d="M739.5,-184C784.219,-184 787.4453,-141.1465 826.0052,-134.7854"/>
<polygon fill="#fa8072" stroke="#fa8072" stroke-width="2" points="826.3049,-138.2727 836,-134 825.7565,-131.2942 826.3049,-138.2727"/>
</g>
<!-- ugen_0 -->
<g id="node1" class="node">
<title>ugen_0</title>
<path fill="#ee9572" stroke="#000000" stroke-width="2" d="M12,-203C12,-203 42,-203 42,-203 48,-203 54,-209 54,-215 54,-215 54,-293 54,-293 54,-299 48,-305 42,-305 42,-305 12,-305 12,-305 6,-305 0,-299 0,-293 0,-293 0,-215 0,-215 0,-209 6,-203 12,-203"/>
<text text-anchor="middle" x="27" y="-291.4" font-family="Arial" font-size="12.00" fill="#000000">Control</text>
<text text-anchor="middle" x="27" y="-278.4" font-family="Arial" font-size="12.00" fill="#000000">(scalar)</text>
<polyline fill="none" stroke="#000000" stroke-width="2" points="0,-271 54,-271 "/>
<text text-anchor="middle" x="27" y="-257.4" font-family="Arial" font-size="12.00" fill="#000000">duration:</text>
<text text-anchor="middle" x="27" y="-244.4" font-family="Arial" font-size="12.00" fill="#000000">1.0</text>
<polyline fill="none" stroke="#000000" stroke-width="2" points="0,-237 54,-237 "/>
<text text-anchor="middle" x="27" y="-223.4" font-family="Arial" font-size="12.00" fill="#000000">out:</text>
<text text-anchor="middle" x="27" y="-210.4" font-family="Arial" font-size="12.00" fill="#000000">0.0</text>
</g>
<!-- ugen_1 -->
<g id="node2" class="node">
<title>ugen_1</title>
<path fill="#eedc82" stroke="#000000" stroke-width="2" d="M138,-209.5C138,-209.5 204,-209.5 204,-209.5 210,-209.5 216,-215.5 216,-221.5 216,-221.5 216,-354.5 216,-354.5 216,-360.5 210,-366.5 204,-366.5 204,-366.5 138,-366.5 138,-366.5 132,-366.5 126,-360.5 126,-354.5 126,-354.5 126,-221.5 126,-221.5 126,-215.5 132,-209.5 138,-209.5"/>
<text text-anchor="middle" x="171" y="-352.9" font-family="Arial" font-size="12.00" fill="#000000">Line</text>
<text text-anchor="middle" x="171" y="-339.9" font-family="Arial" font-size="12.00" fill="#000000">(control)</text>
<polyline fill="none" stroke="#000000" stroke-width="2" points="126,-332.5 216,-332.5 "/>
<text text-anchor="middle" x="160" y="-318.9" font-family="Arial" font-size="12.00" fill="#000000">start:</text>
<text text-anchor="middle" x="160" y="-305.9" font-family="Arial" font-size="12.00" fill="#000000">0.0</text>
<polyline fill="none" stroke="#000000" stroke-width="2" points="126,-298.5 194,-298.5 "/>
<text text-anchor="middle" x="160" y="-284.9" font-family="Arial" font-size="12.00" fill="#000000">stop:</text>
<text text-anchor="middle" x="160" y="-271.9" font-family="Arial" font-size="12.00" fill="#000000">1.0</text>
<polyline fill="none" stroke="#000000" stroke-width="2" points="126,-264.5 194,-264.5 "/>
<text text-anchor="middle" x="160" y="-250.9" font-family="Arial" font-size="12.00" fill="#000000">duration</text>
<polyline fill="none" stroke="#000000" stroke-width="2" points="126,-243.5 194,-243.5 "/>
<text text-anchor="middle" x="160" y="-229.9" font-family="Arial" font-size="12.00" fill="#000000">done_action:</text>
<text text-anchor="middle" x="160" y="-216.9" font-family="Arial" font-size="12.00" fill="#000000">2.0</text>
<polyline fill="none" stroke="#000000" stroke-width="2" points="194,-209.5 194,-332.5 "/>
<text text-anchor="middle" x="205" y="-267.9" font-family="Arial" font-size="12.00" fill="#000000">0</text>
</g>
<!-- ugen_10 -->
<g id="node3" class="node">
<title>ugen_10</title>
<path fill="#bcd2ee" stroke="#000000" stroke-width="2" d="M848,-102.5C848,-102.5 953,-102.5 953,-102.5 959,-102.5 965,-108.5 965,-114.5 965,-114.5 965,-221.5 965,-221.5 965,-227.5 959,-233.5 953,-233.5 953,-233.5 848,-233.5 848,-233.5 842,-233.5 836,-227.5 836,-221.5 836,-221.5 836,-114.5 836,-114.5 836,-108.5 842,-102.5 848,-102.5"/>
<text text-anchor="middle" x="900.5" y="-219.9" font-family="Arial" font-size="12.00" fill="#000000">AllpassC</text>
<text text-anchor="middle" x="900.5" y="-206.9" font-family="Arial" font-size="12.00" fill="#000000">(audio)</text>
<polyline fill="none" stroke="#000000" stroke-width="2" points="836,-199.5 965,-199.5 "/>
<text text-anchor="middle" x="889.5" y="-185.9" font-family="Arial" font-size="12.00" fill="#000000">source</text>
<polyline fill="none" stroke="#000000" stroke-width="2" points="836,-178.5 943,-178.5 "/>
<text text-anchor="middle" x="889.5" y="-164.9" font-family="Arial" font-size="12.00" fill="#000000">maximum_delay_time:</text>
<text text-anchor="middle" x="889.5" y="-151.9" font-family="Arial" font-size="12.00" fill="#000000">0.1</text>
<polyline fill="none" stroke="#000000" stroke-width="2" points="836,-144.5 943,-144.5 "/>
<text text-anchor="middle" x="889.5" y="-130.9" font-family="Arial" font-size="12.00" fill="#000000">delay_time</text>
<polyline fill="none" stroke="#000000" stroke-width="2" points="836,-123.5 943,-123.5 "/>
<text text-anchor="middle" x="889.5" y="-109.9" font-family="Arial" font-size="12.00" fill="#000000">decay_time</text>
<polyline fill="none" stroke="#000000" stroke-width="2" points="943,-102.5 943,-199.5 "/>
<text text-anchor="middle" x="954" y="-147.9" font-family="Arial" font-size="12.00" fill="#000000">0</text>
</g>
<!-- ugen_11 -->
<g id="node4" class="node">
<title>ugen_11</title>
<path fill="#bcd2ee" stroke="#000000" stroke-width="2" d="M1049,-30C1049,-30 1079,-30 1079,-30 1085,-30 1091,-36 1091,-42 1091,-42 1091,-94 1091,-94 1091,-100 1085,-106 1079,-106 1079,-106 1049,-106 1049,-106 1043,-106 1037,-100 1037,-94 1037,-94 1037,-42 1037,-42 1037,-36 1043,-30 1049,-30"/>
<text text-anchor="middle" x="1064" y="-92.4" font-family="Arial" font-size="12.00" fill="#000000">Out</text>
<text text-anchor="middle" x="1064" y="-79.4" font-family="Arial" font-size="12.00" fill="#000000">(audio)</text>
<polyline fill="none" stroke="#000000" stroke-width="2" points="1037,-72 1091,-72 "/>
<text text-anchor="middle" x="1064" y="-58.4" font-family="Arial" font-size="12.00" fill="#000000">bus</text>
<polyline fill="none" stroke="#000000" stroke-width="2" points="1037,-51 1091,-51 "/>
<text text-anchor="middle" x="1064" y="-37.4" font-family="Arial" font-size="12.00" fill="#000000">source</text>
</g>
<!-- ugen_2 -->
<g id="node5" class="node">
<title>ugen_2</title>
<path fill="#eedc82" stroke="#000000" stroke-width="2" d="M300,-279C300,-279 383,-279 383,-279 389,-279 395,-285 395,-291 395,-291 395,-335 395,-335 395,-341 389,-347 383,-347 383,-347 300,-347 300,-347 294,-347 288,-341 288,-335 288,-335 288,-291 288,-291 288,-285 294,-279 300,-279"/>
<text text-anchor="middle" x="341.5" y="-333.4" font-family="Arial" font-size="12.00" fill="#000000">UnaryOpUGen</text>
<text text-anchor="middle" x="341.5" y="-320.4" font-family="Arial" font-size="12.00" fill="#000000">[HANNING_WINDOW]</text>
<text text-anchor="middle" x="341.5" y="-307.4" font-family="Arial" font-size="12.00" fill="#000000">(control)</text>
<polyline fill="none" stroke="#000000" stroke-width="2" points="288,-300 395,-300 "/>
<text text-anchor="middle" x="320" y="-286.4" font-family="Arial" font-size="12.00" fill="#000000">source</text>
<polyline fill="none" stroke="#000000" stroke-width="2" points="352,-279 352,-300 "/>
<text text-anchor="middle" x="373.5" y="-286.4" font-family="Arial" font-size="12.00" fill="#000000">0</text>
</g>
<!-- ugen_3 -->
<g id="node6" class="node">
<title>ugen_3</title>
<path fill="#bcd2ee" stroke="#000000" stroke-width="2" d="M326.5,-384.5C326.5,-384.5 356.5,-384.5 356.5,-384.5 362.5,-384.5 368.5,-390.5 368.5,-396.5 368.5,-396.5 368.5,-427.5 368.5,-427.5 368.5,-433.5 362.5,-439.5 356.5,-439.5 356.5,-439.5 326.5,-439.5 326.5,-439.5 320.5,-439.5 314.5,-433.5 314.5,-427.5 314.5,-427.5 314.5,-396.5 314.5,-396.5 314.5,-390.5 320.5,-384.5 326.5,-384.5"/>
<text text-anchor="middle" x="341.5" y="-425.9" font-family="Arial" font-size="12.00" fill="#000000">In</text>
<text text-anchor="middle" x="341.5" y="-412.9" font-family="Arial" font-size="12.00" fill="#000000">(audio)</text>
<polyline fill="none" stroke="#000000" stroke-width="2" points="314.5,-405.5 368.5,-405.5 "/>
<text text-anchor="middle" x="330" y="-391.9" font-family="Arial" font-size="12.00" fill="#000000">bus</text>
<polyline fill="none" stroke="#000000" stroke-width="2" points="345.5,-384.5 345.5,-405.5 "/>
<text text-anchor="middle" x="357" y="-391.9" font-family="Arial" font-size="12.00" fill="#000000">0</text>
</g>
<!-- ugen_4 -->
<g id="node7" class="node">
<title>ugen_4</title>
<path fill="#bcd2ee" stroke="#000000" stroke-width="2" d="M479,-363.5C479,-363.5 551,-363.5 551,-363.5 557,-363.5 563,-369.5 563,-375.5 563,-375.5 563,-440.5 563,-440.5 563,-446.5 557,-452.5 551,-452.5 551,-452.5 479,-452.5 479,-452.5 473,-452.5 467,-446.5 467,-440.5 467,-440.5 467,-375.5 467,-375.5 467,-369.5 473,-363.5 479,-363.5"/>
<text text-anchor="middle" x="515" y="-438.9" font-family="Arial" font-size="12.00" fill="#000000">BinaryOpUGen</text>
<text text-anchor="middle" x="515" y="-425.9" font-family="Arial" font-size="12.00" fill="#000000">[MULTIPLICATION]</text>
<text text-anchor="middle" x="515" y="-412.9" font-family="Arial" font-size="12.00" fill="#000000">(audio)</text>
<polyline fill="none" stroke="#000000" stroke-width="2" points="467,-405.5 563,-405.5 "/>
<text text-anchor="middle" x="494" y="-391.9" font-family="Arial" font-size="12.00" fill="#000000">left</text>
<polyline fill="none" stroke="#000000" stroke-width="2" points="467,-384.5 521,-384.5 "/>
<text text-anchor="middle" x="494" y="-370.9" font-family="Arial" font-size="12.00" fill="#000000">right</text>
<polyline fill="none" stroke="#000000" stroke-width="2" points="521,-363.5 521,-405.5 "/>
<text text-anchor="middle" x="542" y="-381.4" font-family="Arial" font-size="12.00" fill="#000000">0</text>
</g>
<!-- ugen_5 -->
<g id="node8" class="node">
<title>ugen_5</title>
<path fill="#ee9572" stroke="#000000" stroke-width="2" d="M487,-121C487,-121 543,-121 543,-121 549,-121 555,-127 555,-133 555,-133 555,-211 555,-211 555,-217 549,-223 543,-223 543,-223 487,-223 487,-223 481,-223 475,-217 475,-211 475,-211 475,-133 475,-133 475,-127 481,-121 487,-121"/>
<text text-anchor="middle" x="515" y="-209.4" font-family="Arial" font-size="12.00" fill="#000000">ExpRand</text>
<text text-anchor="middle" x="515" y="-196.4" font-family="Arial" font-size="12.00" fill="#000000">(scalar)</text>
<polyline fill="none" stroke="#000000" stroke-width="2" points="475,-189 555,-189 "/>
<text text-anchor="middle" x="504" y="-175.4" font-family="Arial" font-size="12.00" fill="#000000">minimum:</text>
<text text-anchor="middle" x="504" y="-162.4" font-family="Arial" font-size="12.00" fill="#000000">0.01</text>
<polyline fill="none" stroke="#000000" stroke-width="2" points="475,-155 533,-155 "/>
<text text-anchor="middle" x="504" y="-141.4" font-family="Arial" font-size="12.00" fill="#000000">maximum:</text>
<text text-anchor="middle" x="504" y="-128.4" font-family="Arial" font-size="12.00" fill="#000000">0.1</text>
<polyline fill="none" stroke="#000000" stroke-width="2" points="533,-121 533,-189 "/>
<text text-anchor="middle" x="544" y="-151.9" font-family="Arial" font-size="12.00" fill="#000000">0</text>
</g>
<!-- ugen_6 -->
<g id="node9" class="node">
<title>ugen_6</title>
<path fill="#ee9572" stroke="#000000" stroke-width="2" d="M487,-242C487,-242 543,-242 543,-242 549,-242 555,-248 555,-254 555,-254 555,-332 555,-332 555,-338 549,-344 543,-344 543,-344 487,-344 487,-344 481,-344 475,-338 475,-332 475,-332 475,-254 475,-254 475,-248 481,-242 487,-242"/>
<text text-anchor="middle" x="515" y="-330.4" font-family="Arial" font-size="12.00" fill="#000000">ExpRand</text>
<text text-anchor="middle" x="515" y="-317.4" font-family="Arial" font-size="12.00" fill="#000000">(scalar)</text>
<polyline fill="none" stroke="#000000" stroke-width="2" points="475,-310 555,-310 "/>
<text text-anchor="middle" x="504" y="-296.4" font-family="Arial" font-size="12.00" fill="#000000">minimum:</text>
<text text-anchor="middle" x="504" y="-283.4" font-family="Arial" font-size="12.00" fill="#000000">0.01</text>
<polyline fill="none" stroke="#000000" stroke-width="2" points="475,-276 533,-276 "/>
<text text-anchor="middle" x="504" y="-262.4" font-family="Arial" font-size="12.00" fill="#000000">maximum:</text>
<text text-anchor="middle" x="504" y="-249.4" font-family="Arial" font-size="12.00" fill="#000000">0.1</text>
<polyline fill="none" stroke="#000000" stroke-width="2" points="533,-242 533,-310 "/>
<text text-anchor="middle" x="544" y="-272.9" font-family="Arial" font-size="12.00" fill="#000000">0</text>
</g>
<!-- ugen_7 -->
<g id="node10" class="node">
<title>ugen_7</title>
<path fill="#bcd2ee" stroke="#000000" stroke-width="2" d="M647,-271.5C647,-271.5 752,-271.5 752,-271.5 758,-271.5 764,-277.5 764,-283.5 764,-283.5 764,-390.5 764,-390.5 764,-396.5 758,-402.5 752,-402.5 752,-402.5 647,-402.5 647,-402.5 641,-402.5 635,-396.5 635,-390.5 635,-390.5 635,-283.5 635,-283.5 635,-277.5 641,-271.5 647,-271.5"/>
<text text-anchor="middle" x="699.5" y="-388.9" font-family="Arial" font-size="12.00" fill="#000000">AllpassC</text>
<text text-anchor="middle" x="699.5" y="-375.9" font-family="Arial" font-size="12.00" fill="#000000">(audio)</text>
<polyline fill="none" stroke="#000000" stroke-width="2" points="635,-368.5 764,-368.5 "/>
<text text-anchor="middle" x="688.5" y="-354.9" font-family="Arial" font-size="12.00" fill="#000000">source</text>
<polyline fill="none" stroke="#000000" stroke-width="2" points="635,-347.5 742,-347.5 "/>
<text text-anchor="middle" x="688.5" y="-333.9" font-family="Arial" font-size="12.00" fill="#000000">maximum_delay_time:</text>
<text text-anchor="middle" x="688.5" y="-320.9" font-family="Arial" font-size="12.00" fill="#000000">0.1</text>
<polyline fill="none" stroke="#000000" stroke-width="2" points="635,-313.5 742,-313.5 "/>
<text text-anchor="middle" x="688.5" y="-299.9" font-family="Arial" font-size="12.00" fill="#000000">delay_time</text>
<polyline fill="none" stroke="#000000" stroke-width="2" points="635,-292.5 742,-292.5 "/>
<text text-anchor="middle" x="688.5" y="-278.9" font-family="Arial" font-size="12.00" fill="#000000">decay_time</text>
<polyline fill="none" stroke="#000000" stroke-width="2" points="742,-271.5 742,-368.5 "/>
<text text-anchor="middle" x="753" y="-316.9" font-family="Arial" font-size="12.00" fill="#000000">0</text>
</g>
<!-- ugen_8 -->
<g id="node11" class="node">
<title>ugen_8</title>
<path fill="#ee9572" stroke="#000000" stroke-width="2" d="M671.5,-29C671.5,-29 727.5,-29 727.5,-29 733.5,-29 739.5,-35 739.5,-41 739.5,-41 739.5,-119 739.5,-119 739.5,-125 733.5,-131 727.5,-131 727.5,-131 671.5,-131 671.5,-131 665.5,-131 659.5,-125 659.5,-119 659.5,-119 659.5,-41 659.5,-41 659.5,-35 665.5,-29 671.5,-29"/>
<text text-anchor="middle" x="699.5" y="-117.4" font-family="Arial" font-size="12.00" fill="#000000">ExpRand</text>
<text text-anchor="middle" x="699.5" y="-104.4" font-family="Arial" font-size="12.00" fill="#000000">(scalar)</text>
<polyline fill="none" stroke="#000000" stroke-width="2" points="659.5,-97 739.5,-97 "/>
<text text-anchor="middle" x="688.5" y="-83.4" font-family="Arial" font-size="12.00" fill="#000000">minimum:</text>
<text text-anchor="middle" x="688.5" y="-70.4" font-family="Arial" font-size="12.00" fill="#000000">0.01</text>
<polyline fill="none" stroke="#000000" stroke-width="2" points="659.5,-63 717.5,-63 "/>
<text text-anchor="middle" x="688.5" y="-49.4" font-family="Arial" font-size="12.00" fill="#000000">maximum:</text>
<text text-anchor="middle" x="688.5" y="-36.4" font-family="Arial" font-size="12.00" fill="#000000">0.1</text>
<polyline fill="none" stroke="#000000" stroke-width="2" points="717.5,-29 717.5,-97 "/>
<text text-anchor="middle" x="728.5" y="-59.9" font-family="Arial" font-size="12.00" fill="#000000">0</text>
</g>
<!-- ugen_9 -->
<g id="node12" class="node">
<title>ugen_9</title>
<path fill="#ee9572" stroke="#000000" stroke-width="2" d="M671.5,-150C671.5,-150 727.5,-150 727.5,-150 733.5,-150 739.5,-156 739.5,-162 739.5,-162 739.5,-240 739.5,-240 739.5,-246 733.5,-252 727.5,-252 727.5,-252 671.5,-252 671.5,-252 665.5,-252 659.5,-246 659.5,-240 659.5,-240 659.5,-162 659.5,-162 659.5,-156 665.5,-150 671.5,-150"/>
<text text-anchor="middle" x="699.5" y="-238.4" font-family="Arial" font-size="12.00" fill="#000000">ExpRand</text>
<text text-anchor="middle" x="699.5" y="-225.4" font-family="Arial" font-size="12.00" fill="#000000">(scalar)</text>
<polyline fill="none" stroke="#000000" stroke-width="2" points="659.5,-218 739.5,-218 "/>
<text text-anchor="middle" x="688.5" y="-204.4" font-family="Arial" font-size="12.00" fill="#000000">minimum:</text>
<text text-anchor="middle" x="688.5" y="-191.4" font-family="Arial" font-size="12.00" fill="#000000">0.01</text>
<polyline fill="none" stroke="#000000" stroke-width="2" points="659.5,-184 717.5,-184 "/>
<text text-anchor="middle" x="688.5" y="-170.4" font-family="Arial" font-size="12.00" fill="#000000">maximum:</text>
<text text-anchor="middle" x="688.5" y="-157.4" font-family="Arial" font-size="12.00" fill="#000000">0.1</text>
<polyline fill="none" stroke="#000000" stroke-width="2" points="717.5,-150 717.5,-218 "/>
<text text-anchor="middle" x="728.5" y="-180.9" font-family="Arial" font-size="12.00" fill="#000000">0</text>
</g>
</g>
</svg>
