<?xml version="1.0" encoding="UTF-8" standalone="no"?>
<!DOCTYPE svg PUBLIC "-//W3C//DTD SVG 1.1//EN"
 "http://www.w3.org/Graphics/SVG/1.1/DTD/svg11.dtd">
<!-- Generated by graphviz version 2.43.0 (0)
 -->
<!-- Title: synthdef_simple_sine Pages: 1 -->
<svg width="754pt" height="676pt"
 viewBox="0.00 0.00 754.00 675.50" xmlns="http://www.w3.org/2000/svg" xmlns:xlink="http://www.w3.org/1999/xlink">
<g id="graph0" class="graph" transform="scale(1 1) rotate(0) translate(4 671.5)">
<title>synthdef_simple_sine</title>
<!-- ugen_0&#45;&gt;ugen_1 -->
<g id="edge2" class="edge">
<title>ugen_0:e&#45;&gt;ugen_1:w</title>
<path fill="none" stroke="goldenrod" stroke-width="2" d="M72,-530.5C120.07,-530.5 96.34,-609.35 133.75,-621.05"/>
<polygon fill="goldenrod" stroke="goldenrod" stroke-width="2" points="133.61,-624.57 144,-622.5 134.59,-617.64 133.61,-624.57"/>
</g>
<!-- ugen_0&#45;&gt;ugen_2 -->
<g id="edge1" class="edge">
<title>ugen_0:e&#45;&gt;ugen_2:w</title>
<path fill="none" stroke="goldenrod" stroke-width="2" d="M72,-564.5C144.91,-564.5 163.11,-566.6 236,-568.5 264.38,-569.24 273.87,-570.24 297.98,-570.46"/>
<polygon fill="goldenrod" stroke="goldenrod" stroke-width="2" points="297.99,-573.96 308,-570.5 298.02,-566.96 297.99,-573.96"/>
</g>
<!-- ugen_0&#45;&gt;ugen_3 -->
<g id="edge3" class="edge">
<title>ugen_0:e&#45;&gt;ugen_3:w</title>
<path fill="none" stroke="goldenrod" stroke-width="2" d="M72,-496.5C175.23,-496.5 203.53,-496.5 301.93,-496.5"/>
<polygon fill="goldenrod" stroke="goldenrod" stroke-width="2" points="302,-500 312,-496.5 302,-493 302,-500"/>
</g>
<!-- ugen_1&#45;&gt;ugen_2 -->
<g id="edge4" class="edge">
<title>ugen_1:e&#45;&gt;ugen_2:w</title>
<path fill="none" stroke="steelblue" stroke-width="2" d="M236,-605.5C264.91,-605.5 273.53,-594.49 297.84,-592"/>
<polygon fill="steelblue" stroke="steelblue" stroke-width="2" points="298.18,-595.49 308,-591.5 297.84,-588.49 298.18,-595.49"/>
</g>
<!-- ugen_2&#45;&gt;ugen_4 -->
<g id="edge5" class="edge">
<title>ugen_2:e&#45;&gt;ugen_4:w</title>
<path fill="none" stroke="steelblue" stroke-width="2" d="M428,-580.5C499.48,-580.5 432.13,-442.08 490.05,-428.56"/>
<polygon fill="steelblue" stroke="steelblue" stroke-width="2" points="490.43,-432.04 500,-427.5 489.69,-425.08 490.43,-432.04"/>
</g>
<!-- ugen_3&#45;&gt;ugen_4 -->
<g id="edge6" class="edge">
<title>ugen_3:e&#45;&gt;ugen_4:w</title>
<path fill="none" stroke="goldenrod" stroke-width="2" d="M424,-253.5C496.22,-253.5 431.12,-391.92 489.93,-405.44"/>
<polygon fill="goldenrod" stroke="goldenrod" stroke-width="2" points="489.69,-408.94 500,-406.5 490.42,-401.97 489.69,-408.94"/>
</g>
<!-- ugen_4&#45;&gt;ugen_5 -->
<g id="edge7" class="edge">
<title>ugen_4:e&#45;&gt;ugen_5:w</title>
<path fill="none" stroke="steelblue" stroke-width="2" d="M620,-416.5C648.7,-416.5 657.66,-425.15 681.89,-427.11"/>
<polygon fill="steelblue" stroke="steelblue" stroke-width="2" points="681.87,-430.61 692,-427.5 682.14,-423.62 681.87,-430.61"/>
</g>
<!-- ugen_4&#45;&gt;ugen_5 -->
<g id="edge8" class="edge">
<title>ugen_4:e&#45;&gt;ugen_5:w</title>
<path fill="none" stroke="steelblue" stroke-width="2" d="M620,-416.5C648.65,-416.5 657.7,-408.64 681.91,-406.86"/>
<polygon fill="steelblue" stroke="steelblue" stroke-width="2" points="682.13,-410.35 692,-406.5 681.88,-403.35 682.13,-410.35"/>
</g>
<!-- ugen_0 -->
<g id="node1" class="node">
<title>ugen_0</title>
<path fill="#eedc82" stroke="black" stroke-width="2" d="M12,-479.5C12,-479.5 60,-479.5 60,-479.5 66,-479.5 72,-485.5 72,-491.5 72,-491.5 72,-603.5 72,-603.5 72,-609.5 66,-615.5 60,-615.5 60,-615.5 12,-615.5 12,-615.5 6,-615.5 0,-609.5 0,-603.5 0,-603.5 0,-491.5 0,-491.5 0,-485.5 6,-479.5 12,-479.5"/>
<text text-anchor="middle" x="36" y="-601.9" font-family="Arial" font-size="12.00">Control</text>
<text text-anchor="middle" x="36" y="-588.9" font-family="Arial" font-size="12.00">(control)</text>
<polyline fill="none" stroke="black" stroke-width="2" points="0,-581.5 72,-581.5 "/>
<text text-anchor="middle" x="36" y="-567.9" font-family="Arial" font-size="12.00">amplitude:</text>
<text text-anchor="middle" x="36" y="-554.9" font-family="Arial" font-size="12.00">0.1</text>
<polyline fill="none" stroke="black" stroke-width="2" points="0,-547.5 72,-547.5 "/>
<text text-anchor="middle" x="36" y="-533.9" font-family="Arial" font-size="12.00">frequency:</text>
<text text-anchor="middle" x="36" y="-520.9" font-family="Arial" font-size="12.00">440.0</text>
<polyline fill="none" stroke="black" stroke-width="2" points="0,-513.5 72,-513.5 "/>
<text text-anchor="middle" x="36" y="-499.9" font-family="Arial" font-size="12.00">gate:</text>
<text text-anchor="middle" x="36" y="-486.9" font-family="Arial" font-size="12.00">1.0</text>
</g>
<!-- ugen_1 -->
<g id="node2" class="node">
<title>ugen_1</title>
<path fill="#bcd2ee" stroke="black" stroke-width="2" d="M156,-578C156,-578 224,-578 224,-578 230,-578 236,-584 236,-590 236,-590 236,-655 236,-655 236,-661 230,-667 224,-667 224,-667 156,-667 156,-667 150,-667 144,-661 144,-655 144,-655 144,-590 144,-590 144,-584 150,-578 156,-578"/>
<text text-anchor="middle" x="190" y="-653.4" font-family="Arial" font-size="12.00">SinOsc</text>
<text text-anchor="middle" x="190" y="-640.4" font-family="Arial" font-size="12.00">(audio)</text>
<polyline fill="none" stroke="black" stroke-width="2" points="144,-633 236,-633 "/>
<text text-anchor="middle" x="178.5" y="-619.4" font-family="Arial" font-size="12.00">frequency</text>
<polyline fill="none" stroke="black" stroke-width="2" points="144,-612 213,-612 "/>
<text text-anchor="middle" x="178.5" y="-598.4" font-family="Arial" font-size="12.00">phase:</text>
<text text-anchor="middle" x="178.5" y="-585.4" font-family="Arial" font-size="12.00">0.0</text>
<polyline fill="none" stroke="black" stroke-width="2" points="213,-578 213,-633 "/>
<text text-anchor="middle" x="224.5" y="-602.4" font-family="Arial" font-size="12.00">0</text>
</g>
<!-- ugen_2 -->
<g id="node3" class="node">
<title>ugen_2</title>
<path fill="#bcd2ee" stroke="black" stroke-width="2" d="M320,-560C320,-560 416,-560 416,-560 422,-560 428,-566 428,-572 428,-572 428,-637 428,-637 428,-643 422,-649 416,-649 416,-649 320,-649 320,-649 314,-649 308,-643 308,-637 308,-637 308,-572 308,-572 308,-566 314,-560 320,-560"/>
<text text-anchor="middle" x="368" y="-635.4" font-family="Arial" font-size="12.00">BinaryOpUGen</text>
<text text-anchor="middle" x="368" y="-622.4" font-family="Arial" font-size="12.00">[MULTIPLICATION]</text>
<text text-anchor="middle" x="368" y="-609.4" font-family="Arial" font-size="12.00">(audio)</text>
<polyline fill="none" stroke="black" stroke-width="2" points="308,-602 428,-602 "/>
<text text-anchor="middle" x="342" y="-588.4" font-family="Arial" font-size="12.00">left</text>
<polyline fill="none" stroke="black" stroke-width="2" points="308,-581 376,-581 "/>
<text text-anchor="middle" x="342" y="-567.4" font-family="Arial" font-size="12.00">right</text>
<polyline fill="none" stroke="black" stroke-width="2" points="376,-560 376,-602 "/>
<text text-anchor="middle" x="402" y="-577.9" font-family="Arial" font-size="12.00">0</text>
</g>
<!-- ugen_3 -->
<g id="node4" class="node">
<title>ugen_3</title>
<path fill="#eedc82" stroke="black" stroke-width="2" d="M325.5,-0.5C325.5,-0.5 410.5,-0.5 410.5,-0.5 416.5,-0.5 422.5,-6.5 422.5,-12.5 422.5,-12.5 422.5,-528.5 422.5,-528.5 422.5,-534.5 416.5,-540.5 410.5,-540.5 410.5,-540.5 325.5,-540.5 325.5,-540.5 319.5,-540.5 313.5,-534.5 313.5,-528.5 313.5,-528.5 313.5,-12.5 313.5,-12.5 313.5,-6.5 319.5,-0.5 325.5,-0.5"/>
<text text-anchor="middle" x="368" y="-526.9" font-family="Arial" font-size="12.00">EnvGen</text>
<text text-anchor="middle" x="368" y="-513.9" font-family="Arial" font-size="12.00">(control)</text>
<polyline fill="none" stroke="black" stroke-width="2" points="313.5,-506.5 422.5,-506.5 "/>
<text text-anchor="middle" x="356.5" y="-492.9" font-family="Arial" font-size="12.00">gate</text>
<polyline fill="none" stroke="black" stroke-width="2" points="313.5,-485.5 399.5,-485.5 "/>
<text text-anchor="middle" x="356.5" y="-471.9" font-family="Arial" font-size="12.00">level_scale:</text>
<text text-anchor="middle" x="356.5" y="-458.9" font-family="Arial" font-size="12.00">1.0</text>
<polyline fill="none" stroke="black" stroke-width="2" points="313.5,-451.5 399.5,-451.5 "/>
<text text-anchor="middle" x="356.5" y="-437.9" font-family="Arial" font-size="12.00">level_bias:</text>
<text text-anchor="middle" x="356.5" y="-424.9" font-family="Arial" font-size="12.00">0.0</text>
<polyline fill="none" stroke="black" stroke-width="2" points="313.5,-417.5 399.5,-417.5 "/>
<text text-anchor="middle" x="356.5" y="-403.9" font-family="Arial" font-size="12.00">time_scale:</text>
<text text-anchor="middle" x="356.5" y="-390.9" font-family="Arial" font-size="12.00">1.0</text>
<polyline fill="none" stroke="black" stroke-width="2" points="313.5,-383.5 399.5,-383.5 "/>
<text text-anchor="middle" x="356.5" y="-369.9" font-family="Arial" font-size="12.00">done_action:</text>
<text text-anchor="middle" x="356.5" y="-356.9" font-family="Arial" font-size="12.00">2.0</text>
<polyline fill="none" stroke="black" stroke-width="2" points="313.5,-349.5 399.5,-349.5 "/>
<text text-anchor="middle" x="356.5" y="-335.9" font-family="Arial" font-size="12.00">envelope:</text>
<text text-anchor="middle" x="356.5" y="-322.9" font-family="Arial" font-size="12.00">0.0</text>
<polyline fill="none" stroke="black" stroke-width="2" points="313.5,-315.5 399.5,-315.5 "/>
<text text-anchor="middle" x="356.5" y="-301.9" font-family="Arial" font-size="12.00">3.0</text>
<polyline fill="none" stroke="black" stroke-width="2" points="313.5,-294.5 399.5,-294.5 "/>
<text text-anchor="middle" x="356.5" y="-280.9" font-family="Arial" font-size="12.00">2.0</text>
<polyline fill="none" stroke="black" stroke-width="2" points="313.5,-273.5 399.5,-273.5 "/>
<text text-anchor="middle" x="356.5" y="-259.9" font-family="Arial" font-size="12.00">&#45;99.0</text>
<polyline fill="none" stroke="black" stroke-width="2" points="313.5,-252.5 399.5,-252.5 "/>
<text text-anchor="middle" x="356.5" y="-238.9" font-family="Arial" font-size="12.00">1.0</text>
<polyline fill="none" stroke="black" stroke-width="2" points="313.5,-231.5 399.5,-231.5 "/>
<text text-anchor="middle" x="356.5" y="-217.9" font-family="Arial" font-size="12.00">0.01</text>
<polyline fill="none" stroke="black" stroke-width="2" points="313.5,-210.5 399.5,-210.5 "/>
<text text-anchor="middle" x="356.5" y="-196.9" font-family="Arial" font-size="12.00">5.0</text>
<polyline fill="none" stroke="black" stroke-width="2" points="313.5,-189.5 399.5,-189.5 "/>
<text text-anchor="middle" x="356.5" y="-175.9" font-family="Arial" font-size="12.00">&#45;4.0</text>
<polyline fill="none" stroke="black" stroke-width="2" points="313.5,-168.5 399.5,-168.5 "/>
<text text-anchor="middle" x="356.5" y="-154.9" font-family="Arial" font-size="12.00">0.5</text>
<polyline fill="none" stroke="black" stroke-width="2" points="313.5,-147.5 399.5,-147.5 "/>
<text text-anchor="middle" x="356.5" y="-133.9" font-family="Arial" font-size="12.00">0.3</text>
<polyline fill="none" stroke="black" stroke-width="2" points="313.5,-126.5 399.5,-126.5 "/>
<text text-anchor="middle" x="356.5" y="-112.9" font-family="Arial" font-size="12.00">5.0</text>
<polyline fill="none" stroke="black" stroke-width="2" points="313.5,-105.5 399.5,-105.5 "/>
<text text-anchor="middle" x="356.5" y="-91.9" font-family="Arial" font-size="12.00">&#45;4.0</text>
<polyline fill="none" stroke="black" stroke-width="2" points="313.5,-84.5 399.5,-84.5 "/>
<text text-anchor="middle" x="356.5" y="-70.9" font-family="Arial" font-size="12.00">0.0</text>
<polyline fill="none" stroke="black" stroke-width="2" points="313.5,-63.5 399.5,-63.5 "/>
<text text-anchor="middle" x="356.5" y="-49.9" font-family="Arial" font-size="12.00">1.0</text>
<polyline fill="none" stroke="black" stroke-width="2" points="313.5,-42.5 399.5,-42.5 "/>
<text text-anchor="middle" x="356.5" y="-28.9" font-family="Arial" font-size="12.00">5.0</text>
<polyline fill="none" stroke="black" stroke-width="2" points="313.5,-21.5 399.5,-21.5 "/>
<text text-anchor="middle" x="356.5" y="-7.9" font-family="Arial" font-size="12.00">&#45;4.0</text>
<polyline fill="none" stroke="black" stroke-width="2" points="399.5,-0.5 399.5,-506.5 "/>
<text text-anchor="middle" x="411" y="-250.4" font-family="Arial" font-size="12.00">0</text>
</g>
<!-- ugen_4 -->
<g id="node5" class="node">
<title>ugen_4</title>
<path fill="#bcd2ee" stroke="black" stroke-width="2" d="M512,-396C512,-396 608,-396 608,-396 614,-396 620,-402 620,-408 620,-408 620,-473 620,-473 620,-479 614,-485 608,-485 608,-485 512,-485 512,-485 506,-485 500,-479 500,-473 500,-473 500,-408 500,-408 500,-402 506,-396 512,-396"/>
<text text-anchor="middle" x="560" y="-471.4" font-family="Arial" font-size="12.00">BinaryOpUGen</text>
<text text-anchor="middle" x="560" y="-458.4" font-family="Arial" font-size="12.00">[MULTIPLICATION]</text>
<text text-anchor="middle" x="560" y="-445.4" font-family="Arial" font-size="12.00">(audio)</text>
<polyline fill="none" stroke="black" stroke-width="2" points="500,-438 620,-438 "/>
<text text-anchor="middle" x="534" y="-424.4" font-family="Arial" font-size="12.00">left</text>
<polyline fill="none" stroke="black" stroke-width="2" points="500,-417 568,-417 "/>
<text text-anchor="middle" x="534" y="-403.4" font-family="Arial" font-size="12.00">right</text>
<polyline fill="none" stroke="black" stroke-width="2" points="568,-396 568,-438 "/>
<text text-anchor="middle" x="594" y="-413.9" font-family="Arial" font-size="12.00">0</text>
</g>
<!-- ugen_5 -->
<g id="node6" class="node">
<title>ugen_5</title>
<path fill="#bcd2ee" stroke="black" stroke-width="2" d="M704,-396.5C704,-396.5 734,-396.5 734,-396.5 740,-396.5 746,-402.5 746,-408.5 746,-408.5 746,-494.5 746,-494.5 746,-500.5 740,-506.5 734,-506.5 734,-506.5 704,-506.5 704,-506.5 698,-506.5 692,-500.5 692,-494.5 692,-494.5 692,-408.5 692,-408.5 692,-402.5 698,-396.5 704,-396.5"/>
<text text-anchor="middle" x="719" y="-492.9" font-family="Arial" font-size="12.00">Out</text>
<text text-anchor="middle" x="719" y="-479.9" font-family="Arial" font-size="12.00">(audio)</text>
<polyline fill="none" stroke="black" stroke-width="2" points="692,-472.5 746,-472.5 "/>
<text text-anchor="middle" x="719" y="-458.9" font-family="Arial" font-size="12.00">bus:</text>
<text text-anchor="middle" x="719" y="-445.9" font-family="Arial" font-size="12.00">0.0</text>
<polyline fill="none" stroke="black" stroke-width="2" points="692,-438.5 746,-438.5 "/>
<text text-anchor="middle" x="719" y="-424.9" font-family="Arial" font-size="12.00">source</text>
<polyline fill="none" stroke="black" stroke-width="2" points="692,-417.5 746,-417.5 "/>
<text text-anchor="middle" x="719" y="-403.9" font-family="Arial" font-size="12.00"> </text>
</g>
</g>
</svg>
