<?xml version="1.0" encoding="UTF-8" standalone="no"?>
<!DOCTYPE svg PUBLIC "-//W3C//DTD SVG 1.1//EN"
 "http://www.w3.org/Graphics/SVG/1.1/DTD/svg11.dtd">
<!-- Generated by graphviz version 2.40.1 (20161225.0304)
 -->
<!-- Title: synthdef_mix2 Pages: 1 -->
<svg width="388pt" height="1295pt"
 viewBox="0.00 0.00 388.00 1295.00" xmlns="http://www.w3.org/2000/svg" xmlns:xlink="http://www.w3.org/1999/xlink">
<g id="graph0" class="graph" transform="scale(1 1) rotate(0) translate(4 1291)">
<title>synthdef_mix2</title>
<!-- ugen_0&#45;&gt;ugen_4 -->
<g id="edge1" class="edge">
<title>ugen_0:e&#45;&gt;ugen_4:w</title>
<path fill="none" stroke="#4682b4" stroke-width="2" d="M68,-1235.5C130.6736,-1235.5 80.0507,-1118.9196 129.89,-1105.7132"/>
<polygon fill="#4682b4" stroke="#4682b4" stroke-width="2" points="130.4883,-1109.1666 140,-1104.5 129.6542,-1102.2165 130.4883,-1109.1666"/>
</g>
<!-- ugen_1&#45;&gt;ugen_4 -->
<g id="edge2" class="edge">
<title>ugen_1:e&#45;&gt;ugen_4:w</title>
<path fill="none" stroke="#4682b4" stroke-width="2" d="M68,-1148.5C107.6796,-1148.5 98.707,-1093.3563 130.0245,-1083.8785"/>
<polygon fill="#4682b4" stroke="#4682b4" stroke-width="2" points="130.5733,-1087.336 140,-1082.5 129.615,-1080.4019 130.5733,-1087.336"/>
</g>
<!-- ugen_10&#45;&gt;ugen_14 -->
<g id="edge3" class="edge">
<title>ugen_10:e&#45;&gt;ugen_14:w</title>
<path fill="none" stroke="#4682b4" stroke-width="2" d="M68,-887.5C130.6736,-887.5 80.0507,-770.9196 129.89,-757.7132"/>
<polygon fill="#4682b4" stroke="#4682b4" stroke-width="2" points="130.4883,-761.1666 140,-756.5 129.6542,-754.2165 130.4883,-761.1666"/>
</g>
<!-- ugen_11&#45;&gt;ugen_14 -->
<g id="edge4" class="edge">
<title>ugen_11:e&#45;&gt;ugen_14:w</title>
<path fill="none" stroke="#4682b4" stroke-width="2" d="M68,-800.5C107.6796,-800.5 98.707,-745.3563 130.0245,-735.8785"/>
<polygon fill="#4682b4" stroke="#4682b4" stroke-width="2" points="130.5733,-739.336 140,-734.5 129.615,-732.4019 130.5733,-739.336"/>
</g>
<!-- ugen_12&#45;&gt;ugen_14 -->
<g id="edge5" class="edge">
<title>ugen_12:e&#45;&gt;ugen_14:w</title>
<path fill="none" stroke="#4682b4" stroke-width="2" d="M68,-713.5C96.375,-713.5 105.8795,-713.5 129.9792,-713.5"/>
<polygon fill="#4682b4" stroke="#4682b4" stroke-width="2" points="130,-717.0001 140,-713.5 130,-710.0001 130,-717.0001"/>
</g>
<!-- ugen_13&#45;&gt;ugen_14 -->
<g id="edge6" class="edge">
<title>ugen_13:e&#45;&gt;ugen_14:w</title>
<path fill="none" stroke="#4682b4" stroke-width="2" d="M68,-626.5C107.6796,-626.5 98.707,-681.6437 130.0245,-691.1215"/>
<polygon fill="#4682b4" stroke="#4682b4" stroke-width="2" points="129.615,-694.5981 140,-692.5 130.5733,-687.664 129.615,-694.5981"/>
</g>
<!-- ugen_14&#45;&gt;ugen_19 -->
<g id="edge7" class="edge">
<title>ugen_14:e&#45;&gt;ugen_19:w</title>
<path fill="none" stroke="#4682b4" stroke-width="2" d="M224,-724.5C272.3932,-724.5 248.091,-644.7924 285.6934,-632.9608"/>
<polygon fill="#4682b4" stroke="#4682b4" stroke-width="2" points="286.5902,-636.3688 296,-631.5 285.6078,-629.438 286.5902,-636.3688"/>
</g>
<!-- ugen_15&#45;&gt;ugen_18 -->
<g id="edge8" class="edge">
<title>ugen_15:e&#45;&gt;ugen_18:w</title>
<path fill="none" stroke="#4682b4" stroke-width="2" d="M68,-539.5C99.4884,-539.5 104.0881,-513.0939 129.9047,-507.5238"/>
<polygon fill="#4682b4" stroke="#4682b4" stroke-width="2" points="130.4042,-510.9912 140,-506.5 129.6979,-504.0269 130.4042,-510.9912"/>
</g>
<!-- ugen_16&#45;&gt;ugen_18 -->
<g id="edge9" class="edge">
<title>ugen_16:e&#45;&gt;ugen_18:w</title>
<path fill="none" stroke="#4682b4" stroke-width="2" d="M68,-452.5C99.4884,-452.5 104.0881,-478.9061 129.9047,-484.4762"/>
<polygon fill="#4682b4" stroke="#4682b4" stroke-width="2" points="129.6979,-487.9731 140,-485.5 130.4042,-481.0088 129.6979,-487.9731"/>
</g>
<!-- ugen_17&#45;&gt;ugen_18 -->
<g id="edge10" class="edge">
<title>ugen_17:e&#45;&gt;ugen_18:w</title>
<path fill="none" stroke="#4682b4" stroke-width="2" d="M68,-365.5C118.6867,-365.5 90.2007,-451.4275 130.063,-463.1754"/>
<polygon fill="#4682b4" stroke="#4682b4" stroke-width="2" points="129.6252,-466.6479 140,-464.5 130.5502,-459.7093 129.6252,-466.6479"/>
</g>
<!-- ugen_18&#45;&gt;ugen_19 -->
<g id="edge11" class="edge">
<title>ugen_18:e&#45;&gt;ugen_19:w</title>
<path fill="none" stroke="#4682b4" stroke-width="2" d="M224,-485.5C284.356,-485.5 238.0632,-596.2807 285.9212,-609.2628"/>
<polygon fill="#4682b4" stroke="#4682b4" stroke-width="2" points="285.648,-612.7555 296,-610.5 286.501,-605.8076 285.648,-612.7555"/>
</g>
<!-- ugen_2&#45;&gt;ugen_4 -->
<g id="edge12" class="edge">
<title>ugen_2:e&#45;&gt;ugen_4:w</title>
<path fill="none" stroke="#4682b4" stroke-width="2" d="M68,-1061.5C96.375,-1061.5 105.8795,-1061.5 129.9792,-1061.5"/>
<polygon fill="#4682b4" stroke="#4682b4" stroke-width="2" points="130,-1065.0001 140,-1061.5 130,-1058.0001 130,-1065.0001"/>
</g>
<!-- ugen_3&#45;&gt;ugen_4 -->
<g id="edge13" class="edge">
<title>ugen_3:e&#45;&gt;ugen_4:w</title>
<path fill="none" stroke="#4682b4" stroke-width="2" d="M68,-974.5C107.6796,-974.5 98.707,-1029.6437 130.0245,-1039.1215"/>
<polygon fill="#4682b4" stroke="#4682b4" stroke-width="2" points="129.615,-1042.5981 140,-1040.5 130.5733,-1035.664 129.615,-1042.5981"/>
</g>
<!-- ugen_4&#45;&gt;ugen_19 -->
<g id="edge14" class="edge">
<title>ugen_4:e&#45;&gt;ugen_19:w</title>
<path fill="none" stroke="#4682b4" stroke-width="2" d="M224,-1072.5C400.2491,-1072.5 127.2929,-689.8951 285.995,-674.9495"/>
<polygon fill="#4682b4" stroke="#4682b4" stroke-width="2" points="286.1672,-678.4454 296,-674.5 285.8529,-671.4525 286.1672,-678.4454"/>
</g>
<!-- ugen_5&#45;&gt;ugen_9 -->
<g id="edge15" class="edge">
<title>ugen_5:e&#45;&gt;ugen_9:w</title>
<path fill="none" stroke="#4682b4" stroke-width="2" d="M68,-278.5C107.4063,-278.5 98.9099,-224.1918 130.0829,-214.8576"/>
<polygon fill="#4682b4" stroke="#4682b4" stroke-width="2" points="130.5671,-218.3241 140,-213.5 129.6177,-211.3887 130.5671,-218.3241"/>
</g>
<!-- ugen_6&#45;&gt;ugen_9 -->
<g id="edge16" class="edge">
<title>ugen_6:e&#45;&gt;ugen_9:w</title>
<path fill="none" stroke="#4682b4" stroke-width="2" d="M68,-191.5C96.375,-191.5 105.8795,-191.5 129.9792,-191.5"/>
<polygon fill="#4682b4" stroke="#4682b4" stroke-width="2" points="130,-195.0001 140,-191.5 130,-188.0001 130,-195.0001"/>
</g>
<!-- ugen_7&#45;&gt;ugen_9 -->
<g id="edge17" class="edge">
<title>ugen_7:e&#45;&gt;ugen_9:w</title>
<path fill="none" stroke="#4682b4" stroke-width="2" d="M68,-104.5C107.6796,-104.5 98.707,-159.6437 130.0245,-169.1215"/>
<polygon fill="#4682b4" stroke="#4682b4" stroke-width="2" points="129.615,-172.5981 140,-170.5 130.5733,-165.664 129.615,-172.5981"/>
</g>
<!-- ugen_8&#45;&gt;ugen_9 -->
<g id="edge18" class="edge">
<title>ugen_8:e&#45;&gt;ugen_9:w</title>
<path fill="none" stroke="#4682b4" stroke-width="2" d="M68,-17.5C131.0414,-17.5 79.7455,-134.9704 129.8346,-148.2775"/>
<polygon fill="#4682b4" stroke="#4682b4" stroke-width="2" points="129.6536,-151.7809 140,-149.5 130.4895,-144.831 129.6536,-151.7809"/>
</g>
<!-- ugen_9&#45;&gt;ugen_19 -->
<g id="edge19" class="edge">
<title>ugen_9:e&#45;&gt;ugen_19:w</title>
<path fill="none" stroke="#4682b4" stroke-width="2" d="M224,-181.5C432.2494,-181.5 95.7516,-636.9911 285.9137,-652.1149"/>
<polygon fill="#4682b4" stroke="#4682b4" stroke-width="2" points="285.8737,-655.6158 296,-652.5 286.1409,-648.6209 285.8737,-655.6158"/>
</g>
<!-- ugen_0 -->
<g id="node1" class="node">
<title>ugen_0</title>
<path fill="#bcd2ee" stroke="#000000" stroke-width="2" d="M12,-1218.5C12,-1218.5 56,-1218.5 56,-1218.5 62,-1218.5 68,-1224.5 68,-1230.5 68,-1230.5 68,-1274.5 68,-1274.5 68,-1280.5 62,-1286.5 56,-1286.5 56,-1286.5 12,-1286.5 12,-1286.5 6,-1286.5 0,-1280.5 0,-1274.5 0,-1274.5 0,-1230.5 0,-1230.5 0,-1224.5 6,-1218.5 12,-1218.5"/>
<text text-anchor="middle" x="34" y="-1272.9" font-family="Arial" font-size="12.00" fill="#000000">DC</text>
<text text-anchor="middle" x="34" y="-1259.9" font-family="Arial" font-size="12.00" fill="#000000">(audio)</text>
<polyline fill="none" stroke="#000000" stroke-width="2" points="0,-1252.5 68,-1252.5 "/>
<text text-anchor="middle" x="23" y="-1238.9" font-family="Arial" font-size="12.00" fill="#000000">source:</text>
<text text-anchor="middle" x="23" y="-1225.9" font-family="Arial" font-size="12.00" fill="#000000">1.0</text>
<polyline fill="none" stroke="#000000" stroke-width="2" points="46,-1218.5 46,-1252.5 "/>
<text text-anchor="middle" x="57" y="-1232.4" font-family="Arial" font-size="12.00" fill="#000000">0</text>
</g>
<!-- ugen_1 -->
<g id="node2" class="node">
<title>ugen_1</title>
<path fill="#bcd2ee" stroke="#000000" stroke-width="2" d="M12,-1131.5C12,-1131.5 56,-1131.5 56,-1131.5 62,-1131.5 68,-1137.5 68,-1143.5 68,-1143.5 68,-1187.5 68,-1187.5 68,-1193.5 62,-1199.5 56,-1199.5 56,-1199.5 12,-1199.5 12,-1199.5 6,-1199.5 0,-1193.5 0,-1187.5 0,-1187.5 0,-1143.5 0,-1143.5 0,-1137.5 6,-1131.5 12,-1131.5"/>
<text text-anchor="middle" x="34" y="-1185.9" font-family="Arial" font-size="12.00" fill="#000000">DC</text>
<text text-anchor="middle" x="34" y="-1172.9" font-family="Arial" font-size="12.00" fill="#000000">(audio)</text>
<polyline fill="none" stroke="#000000" stroke-width="2" points="0,-1165.5 68,-1165.5 "/>
<text text-anchor="middle" x="23" y="-1151.9" font-family="Arial" font-size="12.00" fill="#000000">source:</text>
<text text-anchor="middle" x="23" y="-1138.9" font-family="Arial" font-size="12.00" fill="#000000">1.0</text>
<polyline fill="none" stroke="#000000" stroke-width="2" points="46,-1131.5 46,-1165.5 "/>
<text text-anchor="middle" x="57" y="-1145.4" font-family="Arial" font-size="12.00" fill="#000000">0</text>
</g>
<!-- ugen_10 -->
<g id="node3" class="node">
<title>ugen_10</title>
<path fill="#bcd2ee" stroke="#000000" stroke-width="2" d="M12,-870.5C12,-870.5 56,-870.5 56,-870.5 62,-870.5 68,-876.5 68,-882.5 68,-882.5 68,-926.5 68,-926.5 68,-932.5 62,-938.5 56,-938.5 56,-938.5 12,-938.5 12,-938.5 6,-938.5 0,-932.5 0,-926.5 0,-926.5 0,-882.5 0,-882.5 0,-876.5 6,-870.5 12,-870.5"/>
<text text-anchor="middle" x="34" y="-924.9" font-family="Arial" font-size="12.00" fill="#000000">DC</text>
<text text-anchor="middle" x="34" y="-911.9" font-family="Arial" font-size="12.00" fill="#000000">(audio)</text>
<polyline fill="none" stroke="#000000" stroke-width="2" points="0,-904.5 68,-904.5 "/>
<text text-anchor="middle" x="23" y="-890.9" font-family="Arial" font-size="12.00" fill="#000000">source:</text>
<text text-anchor="middle" x="23" y="-877.9" font-family="Arial" font-size="12.00" fill="#000000">1.0</text>
<polyline fill="none" stroke="#000000" stroke-width="2" points="46,-870.5 46,-904.5 "/>
<text text-anchor="middle" x="57" y="-884.4" font-family="Arial" font-size="12.00" fill="#000000">0</text>
</g>
<!-- ugen_11 -->
<g id="node4" class="node">
<title>ugen_11</title>
<path fill="#bcd2ee" stroke="#000000" stroke-width="2" d="M12,-783.5C12,-783.5 56,-783.5 56,-783.5 62,-783.5 68,-789.5 68,-795.5 68,-795.5 68,-839.5 68,-839.5 68,-845.5 62,-851.5 56,-851.5 56,-851.5 12,-851.5 12,-851.5 6,-851.5 0,-845.5 0,-839.5 0,-839.5 0,-795.5 0,-795.5 0,-789.5 6,-783.5 12,-783.5"/>
<text text-anchor="middle" x="34" y="-837.9" font-family="Arial" font-size="12.00" fill="#000000">DC</text>
<text text-anchor="middle" x="34" y="-824.9" font-family="Arial" font-size="12.00" fill="#000000">(audio)</text>
<polyline fill="none" stroke="#000000" stroke-width="2" points="0,-817.5 68,-817.5 "/>
<text text-anchor="middle" x="23" y="-803.9" font-family="Arial" font-size="12.00" fill="#000000">source:</text>
<text text-anchor="middle" x="23" y="-790.9" font-family="Arial" font-size="12.00" fill="#000000">1.0</text>
<polyline fill="none" stroke="#000000" stroke-width="2" points="46,-783.5 46,-817.5 "/>
<text text-anchor="middle" x="57" y="-797.4" font-family="Arial" font-size="12.00" fill="#000000">0</text>
</g>
<!-- ugen_12 -->
<g id="node5" class="node">
<title>ugen_12</title>
<path fill="#bcd2ee" stroke="#000000" stroke-width="2" d="M12,-696.5C12,-696.5 56,-696.5 56,-696.5 62,-696.5 68,-702.5 68,-708.5 68,-708.5 68,-752.5 68,-752.5 68,-758.5 62,-764.5 56,-764.5 56,-764.5 12,-764.5 12,-764.5 6,-764.5 0,-758.5 0,-752.5 0,-752.5 0,-708.5 0,-708.5 0,-702.5 6,-696.5 12,-696.5"/>
<text text-anchor="middle" x="34" y="-750.9" font-family="Arial" font-size="12.00" fill="#000000">DC</text>
<text text-anchor="middle" x="34" y="-737.9" font-family="Arial" font-size="12.00" fill="#000000">(audio)</text>
<polyline fill="none" stroke="#000000" stroke-width="2" points="0,-730.5 68,-730.5 "/>
<text text-anchor="middle" x="23" y="-716.9" font-family="Arial" font-size="12.00" fill="#000000">source:</text>
<text text-anchor="middle" x="23" y="-703.9" font-family="Arial" font-size="12.00" fill="#000000">1.0</text>
<polyline fill="none" stroke="#000000" stroke-width="2" points="46,-696.5 46,-730.5 "/>
<text text-anchor="middle" x="57" y="-710.4" font-family="Arial" font-size="12.00" fill="#000000">0</text>
</g>
<!-- ugen_13 -->
<g id="node6" class="node">
<title>ugen_13</title>
<path fill="#bcd2ee" stroke="#000000" stroke-width="2" d="M12,-609.5C12,-609.5 56,-609.5 56,-609.5 62,-609.5 68,-615.5 68,-621.5 68,-621.5 68,-665.5 68,-665.5 68,-671.5 62,-677.5 56,-677.5 56,-677.5 12,-677.5 12,-677.5 6,-677.5 0,-671.5 0,-665.5 0,-665.5 0,-621.5 0,-621.5 0,-615.5 6,-609.5 12,-609.5"/>
<text text-anchor="middle" x="34" y="-663.9" font-family="Arial" font-size="12.00" fill="#000000">DC</text>
<text text-anchor="middle" x="34" y="-650.9" font-family="Arial" font-size="12.00" fill="#000000">(audio)</text>
<polyline fill="none" stroke="#000000" stroke-width="2" points="0,-643.5 68,-643.5 "/>
<text text-anchor="middle" x="23" y="-629.9" font-family="Arial" font-size="12.00" fill="#000000">source:</text>
<text text-anchor="middle" x="23" y="-616.9" font-family="Arial" font-size="12.00" fill="#000000">1.0</text>
<polyline fill="none" stroke="#000000" stroke-width="2" points="46,-609.5 46,-643.5 "/>
<text text-anchor="middle" x="57" y="-623.4" font-family="Arial" font-size="12.00" fill="#000000">0</text>
</g>
<!-- ugen_14 -->
<g id="node7" class="node">
<title>ugen_14</title>
<path fill="#bcd2ee" stroke="#000000" stroke-width="2" d="M152,-682.5C152,-682.5 212,-682.5 212,-682.5 218,-682.5 224,-688.5 224,-694.5 224,-694.5 224,-788.5 224,-788.5 224,-794.5 218,-800.5 212,-800.5 212,-800.5 152,-800.5 152,-800.5 146,-800.5 140,-794.5 140,-788.5 140,-788.5 140,-694.5 140,-694.5 140,-688.5 146,-682.5 152,-682.5"/>
<text text-anchor="middle" x="182" y="-786.9" font-family="Arial" font-size="12.00" fill="#000000">Sum4</text>
<text text-anchor="middle" x="182" y="-773.9" font-family="Arial" font-size="12.00" fill="#000000">(audio)</text>
<polyline fill="none" stroke="#000000" stroke-width="2" points="140,-766.5 224,-766.5 "/>
<text text-anchor="middle" x="171" y="-752.9" font-family="Arial" font-size="12.00" fill="#000000">input_one</text>
<polyline fill="none" stroke="#000000" stroke-width="2" points="140,-745.5 202,-745.5 "/>
<text text-anchor="middle" x="171" y="-731.9" font-family="Arial" font-size="12.00" fill="#000000">input_two</text>
<polyline fill="none" stroke="#000000" stroke-width="2" points="140,-724.5 202,-724.5 "/>
<text text-anchor="middle" x="171" y="-710.9" font-family="Arial" font-size="12.00" fill="#000000">input_three</text>
<polyline fill="none" stroke="#000000" stroke-width="2" points="140,-703.5 202,-703.5 "/>
<text text-anchor="middle" x="171" y="-689.9" font-family="Arial" font-size="12.00" fill="#000000">input_four</text>
<polyline fill="none" stroke="#000000" stroke-width="2" points="202,-682.5 202,-766.5 "/>
<text text-anchor="middle" x="213" y="-721.4" font-family="Arial" font-size="12.00" fill="#000000">0</text>
</g>
<!-- ugen_15 -->
<g id="node8" class="node">
<title>ugen_15</title>
<path fill="#bcd2ee" stroke="#000000" stroke-width="2" d="M12,-522.5C12,-522.5 56,-522.5 56,-522.5 62,-522.5 68,-528.5 68,-534.5 68,-534.5 68,-578.5 68,-578.5 68,-584.5 62,-590.5 56,-590.5 56,-590.5 12,-590.5 12,-590.5 6,-590.5 0,-584.5 0,-578.5 0,-578.5 0,-534.5 0,-534.5 0,-528.5 6,-522.5 12,-522.5"/>
<text text-anchor="middle" x="34" y="-576.9" font-family="Arial" font-size="12.00" fill="#000000">DC</text>
<text text-anchor="middle" x="34" y="-563.9" font-family="Arial" font-size="12.00" fill="#000000">(audio)</text>
<polyline fill="none" stroke="#000000" stroke-width="2" points="0,-556.5 68,-556.5 "/>
<text text-anchor="middle" x="23" y="-542.9" font-family="Arial" font-size="12.00" fill="#000000">source:</text>
<text text-anchor="middle" x="23" y="-529.9" font-family="Arial" font-size="12.00" fill="#000000">1.0</text>
<polyline fill="none" stroke="#000000" stroke-width="2" points="46,-522.5 46,-556.5 "/>
<text text-anchor="middle" x="57" y="-536.4" font-family="Arial" font-size="12.00" fill="#000000">0</text>
</g>
<!-- ugen_16 -->
<g id="node9" class="node">
<title>ugen_16</title>
<path fill="#bcd2ee" stroke="#000000" stroke-width="2" d="M12,-435.5C12,-435.5 56,-435.5 56,-435.5 62,-435.5 68,-441.5 68,-447.5 68,-447.5 68,-491.5 68,-491.5 68,-497.5 62,-503.5 56,-503.5 56,-503.5 12,-503.5 12,-503.5 6,-503.5 0,-497.5 0,-491.5 0,-491.5 0,-447.5 0,-447.5 0,-441.5 6,-435.5 12,-435.5"/>
<text text-anchor="middle" x="34" y="-489.9" font-family="Arial" font-size="12.00" fill="#000000">DC</text>
<text text-anchor="middle" x="34" y="-476.9" font-family="Arial" font-size="12.00" fill="#000000">(audio)</text>
<polyline fill="none" stroke="#000000" stroke-width="2" points="0,-469.5 68,-469.5 "/>
<text text-anchor="middle" x="23" y="-455.9" font-family="Arial" font-size="12.00" fill="#000000">source:</text>
<text text-anchor="middle" x="23" y="-442.9" font-family="Arial" font-size="12.00" fill="#000000">1.0</text>
<polyline fill="none" stroke="#000000" stroke-width="2" points="46,-435.5 46,-469.5 "/>
<text text-anchor="middle" x="57" y="-449.4" font-family="Arial" font-size="12.00" fill="#000000">0</text>
</g>
<!-- ugen_17 -->
<g id="node10" class="node">
<title>ugen_17</title>
<path fill="#bcd2ee" stroke="#000000" stroke-width="2" d="M12,-348.5C12,-348.5 56,-348.5 56,-348.5 62,-348.5 68,-354.5 68,-360.5 68,-360.5 68,-404.5 68,-404.5 68,-410.5 62,-416.5 56,-416.5 56,-416.5 12,-416.5 12,-416.5 6,-416.5 0,-410.5 0,-404.5 0,-404.5 0,-360.5 0,-360.5 0,-354.5 6,-348.5 12,-348.5"/>
<text text-anchor="middle" x="34" y="-402.9" font-family="Arial" font-size="12.00" fill="#000000">DC</text>
<text text-anchor="middle" x="34" y="-389.9" font-family="Arial" font-size="12.00" fill="#000000">(audio)</text>
<polyline fill="none" stroke="#000000" stroke-width="2" points="0,-382.5 68,-382.5 "/>
<text text-anchor="middle" x="23" y="-368.9" font-family="Arial" font-size="12.00" fill="#000000">source:</text>
<text text-anchor="middle" x="23" y="-355.9" font-family="Arial" font-size="12.00" fill="#000000">1.0</text>
<polyline fill="none" stroke="#000000" stroke-width="2" points="46,-348.5 46,-382.5 "/>
<text text-anchor="middle" x="57" y="-362.4" font-family="Arial" font-size="12.00" fill="#000000">0</text>
</g>
<!-- ugen_18 -->
<g id="node11" class="node">
<title>ugen_18</title>
<path fill="#bcd2ee" stroke="#000000" stroke-width="2" d="M152,-454C152,-454 212,-454 212,-454 218,-454 224,-460 224,-466 224,-466 224,-539 224,-539 224,-545 218,-551 212,-551 212,-551 152,-551 152,-551 146,-551 140,-545 140,-539 140,-539 140,-466 140,-466 140,-460 146,-454 152,-454"/>
<text text-anchor="middle" x="182" y="-537.4" font-family="Arial" font-size="12.00" fill="#000000">Sum3</text>
<text text-anchor="middle" x="182" y="-524.4" font-family="Arial" font-size="12.00" fill="#000000">(audio)</text>
<polyline fill="none" stroke="#000000" stroke-width="2" points="140,-517 224,-517 "/>
<text text-anchor="middle" x="171" y="-503.4" font-family="Arial" font-size="12.00" fill="#000000">input_one</text>
<polyline fill="none" stroke="#000000" stroke-width="2" points="140,-496 202,-496 "/>
<text text-anchor="middle" x="171" y="-482.4" font-family="Arial" font-size="12.00" fill="#000000">input_two</text>
<polyline fill="none" stroke="#000000" stroke-width="2" points="140,-475 202,-475 "/>
<text text-anchor="middle" x="171" y="-461.4" font-family="Arial" font-size="12.00" fill="#000000">input_three</text>
<polyline fill="none" stroke="#000000" stroke-width="2" points="202,-454 202,-517 "/>
<text text-anchor="middle" x="213" y="-482.4" font-family="Arial" font-size="12.00" fill="#000000">0</text>
</g>
<!-- ugen_19 -->
<g id="node12" class="node">
<title>ugen_19</title>
<path fill="#bcd2ee" stroke="#000000" stroke-width="2" d="M308,-600.5C308,-600.5 368,-600.5 368,-600.5 374,-600.5 380,-606.5 380,-612.5 380,-612.5 380,-706.5 380,-706.5 380,-712.5 374,-718.5 368,-718.5 368,-718.5 308,-718.5 308,-718.5 302,-718.5 296,-712.5 296,-706.5 296,-706.5 296,-612.5 296,-612.5 296,-606.5 302,-600.5 308,-600.5"/>
<text text-anchor="middle" x="338" y="-704.9" font-family="Arial" font-size="12.00" fill="#000000">Sum4</text>
<text text-anchor="middle" x="338" y="-691.9" font-family="Arial" font-size="12.00" fill="#000000">(audio)</text>
<polyline fill="none" stroke="#000000" stroke-width="2" points="296,-684.5 380,-684.5 "/>
<text text-anchor="middle" x="327" y="-670.9" font-family="Arial" font-size="12.00" fill="#000000">input_one</text>
<polyline fill="none" stroke="#000000" stroke-width="2" points="296,-663.5 358,-663.5 "/>
<text text-anchor="middle" x="327" y="-649.9" font-family="Arial" font-size="12.00" fill="#000000">input_two</text>
<polyline fill="none" stroke="#000000" stroke-width="2" points="296,-642.5 358,-642.5 "/>
<text text-anchor="middle" x="327" y="-628.9" font-family="Arial" font-size="12.00" fill="#000000">input_three</text>
<polyline fill="none" stroke="#000000" stroke-width="2" points="296,-621.5 358,-621.5 "/>
<text text-anchor="middle" x="327" y="-607.9" font-family="Arial" font-size="12.00" fill="#000000">input_four</text>
<polyline fill="none" stroke="#000000" stroke-width="2" points="358,-600.5 358,-684.5 "/>
<text text-anchor="middle" x="369" y="-639.4" font-family="Arial" font-size="12.00" fill="#000000">0</text>
</g>
<!-- ugen_2 -->
<g id="node13" class="node">
<title>ugen_2</title>
<path fill="#bcd2ee" stroke="#000000" stroke-width="2" d="M12,-1044.5C12,-1044.5 56,-1044.5 56,-1044.5 62,-1044.5 68,-1050.5 68,-1056.5 68,-1056.5 68,-1100.5 68,-1100.5 68,-1106.5 62,-1112.5 56,-1112.5 56,-1112.5 12,-1112.5 12,-1112.5 6,-1112.5 0,-1106.5 0,-1100.5 0,-1100.5 0,-1056.5 0,-1056.5 0,-1050.5 6,-1044.5 12,-1044.5"/>
<text text-anchor="middle" x="34" y="-1098.9" font-family="Arial" font-size="12.00" fill="#000000">DC</text>
<text text-anchor="middle" x="34" y="-1085.9" font-family="Arial" font-size="12.00" fill="#000000">(audio)</text>
<polyline fill="none" stroke="#000000" stroke-width="2" points="0,-1078.5 68,-1078.5 "/>
<text text-anchor="middle" x="23" y="-1064.9" font-family="Arial" font-size="12.00" fill="#000000">source:</text>
<text text-anchor="middle" x="23" y="-1051.9" font-family="Arial" font-size="12.00" fill="#000000">1.0</text>
<polyline fill="none" stroke="#000000" stroke-width="2" points="46,-1044.5 46,-1078.5 "/>
<text text-anchor="middle" x="57" y="-1058.4" font-family="Arial" font-size="12.00" fill="#000000">0</text>
</g>
<!-- ugen_3 -->
<g id="node14" class="node">
<title>ugen_3</title>
<path fill="#bcd2ee" stroke="#000000" stroke-width="2" d="M12,-957.5C12,-957.5 56,-957.5 56,-957.5 62,-957.5 68,-963.5 68,-969.5 68,-969.5 68,-1013.5 68,-1013.5 68,-1019.5 62,-1025.5 56,-1025.5 56,-1025.5 12,-1025.5 12,-1025.5 6,-1025.5 0,-1019.5 0,-1013.5 0,-1013.5 0,-969.5 0,-969.5 0,-963.5 6,-957.5 12,-957.5"/>
<text text-anchor="middle" x="34" y="-1011.9" font-family="Arial" font-size="12.00" fill="#000000">DC</text>
<text text-anchor="middle" x="34" y="-998.9" font-family="Arial" font-size="12.00" fill="#000000">(audio)</text>
<polyline fill="none" stroke="#000000" stroke-width="2" points="0,-991.5 68,-991.5 "/>
<text text-anchor="middle" x="23" y="-977.9" font-family="Arial" font-size="12.00" fill="#000000">source:</text>
<text text-anchor="middle" x="23" y="-964.9" font-family="Arial" font-size="12.00" fill="#000000">1.0</text>
<polyline fill="none" stroke="#000000" stroke-width="2" points="46,-957.5 46,-991.5 "/>
<text text-anchor="middle" x="57" y="-971.4" font-family="Arial" font-size="12.00" fill="#000000">0</text>
</g>
<!-- ugen_4 -->
<g id="node15" class="node">
<title>ugen_4</title>
<path fill="#bcd2ee" stroke="#000000" stroke-width="2" d="M152,-1030.5C152,-1030.5 212,-1030.5 212,-1030.5 218,-1030.5 224,-1036.5 224,-1042.5 224,-1042.5 224,-1136.5 224,-1136.5 224,-1142.5 218,-1148.5 212,-1148.5 212,-1148.5 152,-1148.5 152,-1148.5 146,-1148.5 140,-1142.5 140,-1136.5 140,-1136.5 140,-1042.5 140,-1042.5 140,-1036.5 146,-1030.5 152,-1030.5"/>
<text text-anchor="middle" x="182" y="-1134.9" font-family="Arial" font-size="12.00" fill="#000000">Sum4</text>
<text text-anchor="middle" x="182" y="-1121.9" font-family="Arial" font-size="12.00" fill="#000000">(audio)</text>
<polyline fill="none" stroke="#000000" stroke-width="2" points="140,-1114.5 224,-1114.5 "/>
<text text-anchor="middle" x="171" y="-1100.9" font-family="Arial" font-size="12.00" fill="#000000">input_one</text>
<polyline fill="none" stroke="#000000" stroke-width="2" points="140,-1093.5 202,-1093.5 "/>
<text text-anchor="middle" x="171" y="-1079.9" font-family="Arial" font-size="12.00" fill="#000000">input_two</text>
<polyline fill="none" stroke="#000000" stroke-width="2" points="140,-1072.5 202,-1072.5 "/>
<text text-anchor="middle" x="171" y="-1058.9" font-family="Arial" font-size="12.00" fill="#000000">input_three</text>
<polyline fill="none" stroke="#000000" stroke-width="2" points="140,-1051.5 202,-1051.5 "/>
<text text-anchor="middle" x="171" y="-1037.9" font-family="Arial" font-size="12.00" fill="#000000">input_four</text>
<polyline fill="none" stroke="#000000" stroke-width="2" points="202,-1030.5 202,-1114.5 "/>
<text text-anchor="middle" x="213" y="-1069.4" font-family="Arial" font-size="12.00" fill="#000000">0</text>
</g>
<!-- ugen_5 -->
<g id="node16" class="node">
<title>ugen_5</title>
<path fill="#bcd2ee" stroke="#000000" stroke-width="2" d="M12,-261.5C12,-261.5 56,-261.5 56,-261.5 62,-261.5 68,-267.5 68,-273.5 68,-273.5 68,-317.5 68,-317.5 68,-323.5 62,-329.5 56,-329.5 56,-329.5 12,-329.5 12,-329.5 6,-329.5 0,-323.5 0,-317.5 0,-317.5 0,-273.5 0,-273.5 0,-267.5 6,-261.5 12,-261.5"/>
<text text-anchor="middle" x="34" y="-315.9" font-family="Arial" font-size="12.00" fill="#000000">DC</text>
<text text-anchor="middle" x="34" y="-302.9" font-family="Arial" font-size="12.00" fill="#000000">(audio)</text>
<polyline fill="none" stroke="#000000" stroke-width="2" points="0,-295.5 68,-295.5 "/>
<text text-anchor="middle" x="23" y="-281.9" font-family="Arial" font-size="12.00" fill="#000000">source:</text>
<text text-anchor="middle" x="23" y="-268.9" font-family="Arial" font-size="12.00" fill="#000000">1.0</text>
<polyline fill="none" stroke="#000000" stroke-width="2" points="46,-261.5 46,-295.5 "/>
<text text-anchor="middle" x="57" y="-275.4" font-family="Arial" font-size="12.00" fill="#000000">0</text>
</g>
<!-- ugen_6 -->
<g id="node17" class="node">
<title>ugen_6</title>
<path fill="#bcd2ee" stroke="#000000" stroke-width="2" d="M12,-174.5C12,-174.5 56,-174.5 56,-174.5 62,-174.5 68,-180.5 68,-186.5 68,-186.5 68,-230.5 68,-230.5 68,-236.5 62,-242.5 56,-242.5 56,-242.5 12,-242.5 12,-242.5 6,-242.5 0,-236.5 0,-230.5 0,-230.5 0,-186.5 0,-186.5 0,-180.5 6,-174.5 12,-174.5"/>
<text text-anchor="middle" x="34" y="-228.9" font-family="Arial" font-size="12.00" fill="#000000">DC</text>
<text text-anchor="middle" x="34" y="-215.9" font-family="Arial" font-size="12.00" fill="#000000">(audio)</text>
<polyline fill="none" stroke="#000000" stroke-width="2" points="0,-208.5 68,-208.5 "/>
<text text-anchor="middle" x="23" y="-194.9" font-family="Arial" font-size="12.00" fill="#000000">source:</text>
<text text-anchor="middle" x="23" y="-181.9" font-family="Arial" font-size="12.00" fill="#000000">1.0</text>
<polyline fill="none" stroke="#000000" stroke-width="2" points="46,-174.5 46,-208.5 "/>
<text text-anchor="middle" x="57" y="-188.4" font-family="Arial" font-size="12.00" fill="#000000">0</text>
</g>
<!-- ugen_7 -->
<g id="node18" class="node">
<title>ugen_7</title>
<path fill="#bcd2ee" stroke="#000000" stroke-width="2" d="M12,-87.5C12,-87.5 56,-87.5 56,-87.5 62,-87.5 68,-93.5 68,-99.5 68,-99.5 68,-143.5 68,-143.5 68,-149.5 62,-155.5 56,-155.5 56,-155.5 12,-155.5 12,-155.5 6,-155.5 0,-149.5 0,-143.5 0,-143.5 0,-99.5 0,-99.5 0,-93.5 6,-87.5 12,-87.5"/>
<text text-anchor="middle" x="34" y="-141.9" font-family="Arial" font-size="12.00" fill="#000000">DC</text>
<text text-anchor="middle" x="34" y="-128.9" font-family="Arial" font-size="12.00" fill="#000000">(audio)</text>
<polyline fill="none" stroke="#000000" stroke-width="2" points="0,-121.5 68,-121.5 "/>
<text text-anchor="middle" x="23" y="-107.9" font-family="Arial" font-size="12.00" fill="#000000">source:</text>
<text text-anchor="middle" x="23" y="-94.9" font-family="Arial" font-size="12.00" fill="#000000">1.0</text>
<polyline fill="none" stroke="#000000" stroke-width="2" points="46,-87.5 46,-121.5 "/>
<text text-anchor="middle" x="57" y="-101.4" font-family="Arial" font-size="12.00" fill="#000000">0</text>
</g>
<!-- ugen_8 -->
<g id="node19" class="node">
<title>ugen_8</title>
<path fill="#bcd2ee" stroke="#000000" stroke-width="2" d="M12,-.5C12,-.5 56,-.5 56,-.5 62,-.5 68,-6.5 68,-12.5 68,-12.5 68,-56.5 68,-56.5 68,-62.5 62,-68.5 56,-68.5 56,-68.5 12,-68.5 12,-68.5 6,-68.5 0,-62.5 0,-56.5 0,-56.5 0,-12.5 0,-12.5 0,-6.5 6,-.5 12,-.5"/>
<text text-anchor="middle" x="34" y="-54.9" font-family="Arial" font-size="12.00" fill="#000000">DC</text>
<text text-anchor="middle" x="34" y="-41.9" font-family="Arial" font-size="12.00" fill="#000000">(audio)</text>
<polyline fill="none" stroke="#000000" stroke-width="2" points="0,-34.5 68,-34.5 "/>
<text text-anchor="middle" x="23" y="-20.9" font-family="Arial" font-size="12.00" fill="#000000">source:</text>
<text text-anchor="middle" x="23" y="-7.9" font-family="Arial" font-size="12.00" fill="#000000">1.0</text>
<polyline fill="none" stroke="#000000" stroke-width="2" points="46,-.5 46,-34.5 "/>
<text text-anchor="middle" x="57" y="-14.4" font-family="Arial" font-size="12.00" fill="#000000">0</text>
</g>
<!-- ugen_9 -->
<g id="node20" class="node">
<title>ugen_9</title>
<path fill="#bcd2ee" stroke="#000000" stroke-width="2" d="M152,-139.5C152,-139.5 212,-139.5 212,-139.5 218,-139.5 224,-145.5 224,-151.5 224,-151.5 224,-245.5 224,-245.5 224,-251.5 218,-257.5 212,-257.5 212,-257.5 152,-257.5 152,-257.5 146,-257.5 140,-251.5 140,-245.5 140,-245.5 140,-151.5 140,-151.5 140,-145.5 146,-139.5 152,-139.5"/>
<text text-anchor="middle" x="182" y="-243.9" font-family="Arial" font-size="12.00" fill="#000000">Sum4</text>
<text text-anchor="middle" x="182" y="-230.9" font-family="Arial" font-size="12.00" fill="#000000">(audio)</text>
<polyline fill="none" stroke="#000000" stroke-width="2" points="140,-223.5 224,-223.5 "/>
<text text-anchor="middle" x="171" y="-209.9" font-family="Arial" font-size="12.00" fill="#000000">input_one</text>
<polyline fill="none" stroke="#000000" stroke-width="2" points="140,-202.5 202,-202.5 "/>
<text text-anchor="middle" x="171" y="-188.9" font-family="Arial" font-size="12.00" fill="#000000">input_two</text>
<polyline fill="none" stroke="#000000" stroke-width="2" points="140,-181.5 202,-181.5 "/>
<text text-anchor="middle" x="171" y="-167.9" font-family="Arial" font-size="12.00" fill="#000000">input_three</text>
<polyline fill="none" stroke="#000000" stroke-width="2" points="140,-160.5 202,-160.5 "/>
<text text-anchor="middle" x="171" y="-146.9" font-family="Arial" font-size="12.00" fill="#000000">input_four</text>
<polyline fill="none" stroke="#000000" stroke-width="2" points="202,-139.5 202,-223.5 "/>
<text text-anchor="middle" x="213" y="-178.4" font-family="Arial" font-size="12.00" fill="#000000">0</text>
</g>
</g>
</svg>
