<?xml version="1.0" encoding="UTF-8" standalone="no"?>
<!DOCTYPE svg PUBLIC "-//W3C//DTD SVG 1.1//EN"
 "http://www.w3.org/Graphics/SVG/1.1/DTD/svg11.dtd">
<!-- Generated by graphviz version 2.40.1 (20161225.0304)
 -->
<!-- Title: synthdef_6f8d08d5a9a3d1aa845dd7b06301293d Pages: 1 -->
<svg width="682pt" height="605pt"
 viewBox="0.00 0.00 682.00 605.00" xmlns="http://www.w3.org/2000/svg" xmlns:xlink="http://www.w3.org/1999/xlink">
<g id="graph0" class="graph" transform="scale(1 1) rotate(0) translate(4 601)">
<title>synthdef_6f8d08d5a9a3d1aa845dd7b06301293d</title>
<!-- ugen_0&#45;&gt;ugen_2 -->
<g id="edge1" class="edge">
<title>ugen_0:e&#45;&gt;ugen_2:w</title>
<path fill="none" stroke="#4682b4" stroke-width="2" d="M81,-528.5C109.375,-528.5 118.8795,-528.5 142.9792,-528.5"/>
<polygon fill="#4682b4" stroke="#4682b4" stroke-width="2" points="143,-532.0001 153,-528.5 143,-525.0001 143,-532.0001"/>
</g>
<!-- ugen_1&#45;&gt;ugen_2 -->
<g id="edge2" class="edge">
<title>ugen_1:e&#45;&gt;ugen_2:w</title>
<path fill="none" stroke="#daa520" stroke-width="2" d="M81,-271.5C187.0205,-271.5 52.8382,-492.0883 142.9078,-506.7367"/>
<polygon fill="#daa520" stroke="#daa520" stroke-width="2" points="142.7645,-510.2358 153,-507.5 143.2925,-503.2557 142.7645,-510.2358"/>
</g>
<!-- ugen_1&#45;&gt;ugen_5 -->
<g id="edge3" class="edge">
<title>ugen_1:e&#45;&gt;ugen_5:w</title>
<path fill="none" stroke="#daa520" stroke-width="2" d="M81,-271.5C113.6968,-271.5 116.3832,-302.9804 142.9841,-309.3749"/>
<polygon fill="#daa520" stroke="#daa520" stroke-width="2" points="142.6718,-312.8617 153,-310.5 143.4533,-305.9055 142.6718,-312.8617"/>
</g>
<!-- ugen_1&#45;&gt;ugen_8 -->
<g id="edge4" class="edge">
<title>ugen_1:e&#45;&gt;ugen_8:w</title>
<path fill="none" stroke="#daa520" stroke-width="2" d="M81,-271.5C154.4016,-271.5 83.491,-128.553 142.7996,-114.5933"/>
<polygon fill="#daa520" stroke="#daa520" stroke-width="2" points="143.43,-118.0459 153,-113.5 142.6839,-111.0858 143.43,-118.0459"/>
</g>
<!-- ugen_10&#45;&gt;ugen_11 -->
<g id="edge5" class="edge">
<title>ugen_10:e&#45;&gt;ugen_11:w</title>
<path fill="none" stroke="#4682b4" stroke-width="2" d="M548,-269.5C576.375,-269.5 585.8795,-269.5 609.9792,-269.5"/>
<polygon fill="#4682b4" stroke="#4682b4" stroke-width="2" points="610,-273.0001 620,-269.5 610,-266.0001 610,-273.0001"/>
</g>
<!-- ugen_2&#45;&gt;ugen_3 -->
<g id="edge6" class="edge">
<title>ugen_2:e&#45;&gt;ugen_3:w</title>
<path fill="none" stroke="#4682b4" stroke-width="2" d="M236,-520.5C266.7249,-520.5 272.468,-497.4968 297.7282,-492.4649"/>
<polygon fill="#4682b4" stroke="#4682b4" stroke-width="2" points="298.3712,-495.92 308,-491.5 297.7165,-488.9507 298.3712,-495.92"/>
</g>
<!-- ugen_2&#45;&gt;ugen_3 -->
<g id="edge7" class="edge">
<title>ugen_2:e&#45;&gt;ugen_3:w</title>
<path fill="none" stroke="#4682b4" stroke-width="2" d="M236,-484.5C264.9842,-484.5 273.4773,-472.7059 297.819,-470.0339"/>
<polygon fill="#4682b4" stroke="#4682b4" stroke-width="2" points="298.197,-473.5189 308,-469.5 297.8304,-466.5285 298.197,-473.5189"/>
</g>
<!-- ugen_2&#45;&gt;ugen_3 -->
<g id="edge8" class="edge">
<title>ugen_2:e&#45;&gt;ugen_3:w</title>
<path fill="none" stroke="#4682b4" stroke-width="2" d="M236,-448.5C264.375,-448.5 273.8795,-448.5 297.9792,-448.5"/>
<polygon fill="#4682b4" stroke="#4682b4" stroke-width="2" points="298,-452.0001 308,-448.5 298,-445.0001 298,-452.0001"/>
</g>
<!-- ugen_2&#45;&gt;ugen_3 -->
<g id="edge9" class="edge">
<title>ugen_2:e&#45;&gt;ugen_3:w</title>
<path fill="none" stroke="#4682b4" stroke-width="2" d="M236,-412.5C264.9842,-412.5 273.4773,-424.2941 297.819,-426.9661"/>
<polygon fill="#4682b4" stroke="#4682b4" stroke-width="2" points="297.8304,-430.4715 308,-427.5 298.197,-423.4811 297.8304,-430.4715"/>
</g>
<!-- ugen_3&#45;&gt;ugen_10 -->
<g id="edge10" class="edge">
<title>ugen_3:e&#45;&gt;ugen_10:w</title>
<path fill="none" stroke="#4682b4" stroke-width="2" d="M392,-459.5C469.976,-459.5 390.209,-305.3426 454.0128,-291.4925"/>
<polygon fill="#4682b4" stroke="#4682b4" stroke-width="2" points="454.3952,-294.9718 464,-290.5 453.7029,-288.0061 454.3952,-294.9718"/>
</g>
<!-- ugen_4&#45;&gt;ugen_5 -->
<g id="edge11" class="edge">
<title>ugen_4:e&#45;&gt;ugen_5:w</title>
<path fill="none" stroke="#4682b4" stroke-width="2" d="M81,-375.5C114.6934,-375.5 115.6902,-339.9836 142.7421,-332.7694"/>
<polygon fill="#4682b4" stroke="#4682b4" stroke-width="2" points="143.5056,-336.2017 153,-331.5 142.6458,-329.2547 143.5056,-336.2017"/>
</g>
<!-- ugen_5&#45;&gt;ugen_6 -->
<g id="edge12" class="edge">
<title>ugen_5:e&#45;&gt;ugen_6:w</title>
<path fill="none" stroke="#4682b4" stroke-width="2" d="M236,-323.5C265.8008,-323.5 273.0889,-306.0493 297.9651,-302.232"/>
<polygon fill="#4682b4" stroke="#4682b4" stroke-width="2" points="298.2812,-305.7183 308,-301.5 297.7718,-298.7369 298.2812,-305.7183"/>
</g>
<!-- ugen_5&#45;&gt;ugen_6 -->
<g id="edge13" class="edge">
<title>ugen_5:e&#45;&gt;ugen_6:w</title>
<path fill="none" stroke="#4682b4" stroke-width="2" d="M236,-287.5C264.5496,-287.5 273.7642,-281.2098 297.9333,-279.7847"/>
<polygon fill="#4682b4" stroke="#4682b4" stroke-width="2" points="298.103,-283.2814 308,-279.5 297.905,-276.2842 298.103,-283.2814"/>
</g>
<!-- ugen_5&#45;&gt;ugen_6 -->
<g id="edge14" class="edge">
<title>ugen_5:e&#45;&gt;ugen_6:w</title>
<path fill="none" stroke="#4682b4" stroke-width="2" d="M236,-251.5C264.5088,-251.5 273.7912,-257.0039 297.944,-258.2509"/>
<polygon fill="#4682b4" stroke="#4682b4" stroke-width="2" points="297.9163,-261.7512 308,-258.5 298.0898,-254.7533 297.9163,-261.7512"/>
</g>
<!-- ugen_5&#45;&gt;ugen_6 -->
<g id="edge15" class="edge">
<title>ugen_5:e&#45;&gt;ugen_6:w</title>
<path fill="none" stroke="#4682b4" stroke-width="2" d="M236,-215.5C265.8008,-215.5 273.0889,-232.9507 297.9651,-236.768"/>
<polygon fill="#4682b4" stroke="#4682b4" stroke-width="2" points="297.7718,-240.2631 308,-237.5 298.2812,-233.2817 297.7718,-240.2631"/>
</g>
<!-- ugen_6&#45;&gt;ugen_10 -->
<g id="edge16" class="edge">
<title>ugen_6:e&#45;&gt;ugen_10:w</title>
<path fill="none" stroke="#4682b4" stroke-width="2" d="M392,-269.5C420.375,-269.5 429.8795,-269.5 453.9792,-269.5"/>
<polygon fill="#4682b4" stroke="#4682b4" stroke-width="2" points="454,-273.0001 464,-269.5 454,-266.0001 454,-273.0001"/>
</g>
<!-- ugen_7&#45;&gt;ugen_8 -->
<g id="edge17" class="edge">
<title>ugen_7:e&#45;&gt;ugen_8:w</title>
<path fill="none" stroke="#4682b4" stroke-width="2" d="M81,-134.5C109.375,-134.5 118.8795,-134.5 142.9792,-134.5"/>
<polygon fill="#4682b4" stroke="#4682b4" stroke-width="2" points="143,-138.0001 153,-134.5 143,-131.0001 143,-138.0001"/>
</g>
<!-- ugen_8&#45;&gt;ugen_9 -->
<g id="edge18" class="edge">
<title>ugen_8:e&#45;&gt;ugen_9:w</title>
<path fill="none" stroke="#4682b4" stroke-width="2" d="M236,-126.5C264.9064,-126.5 273.5287,-115.4922 297.8395,-112.9983"/>
<polygon fill="#4682b4" stroke="#4682b4" stroke-width="2" points="298.1835,-116.4857 308,-112.5 297.8405,-109.4941 298.1835,-116.4857"/>
</g>
<!-- ugen_8&#45;&gt;ugen_9 -->
<g id="edge19" class="edge">
<title>ugen_8:e&#45;&gt;ugen_9:w</title>
<path fill="none" stroke="#4682b4" stroke-width="2" d="M236,-90.5C264.375,-90.5 273.8795,-90.5 297.9792,-90.5"/>
<polygon fill="#4682b4" stroke="#4682b4" stroke-width="2" points="298,-94.0001 308,-90.5 298,-87.0001 298,-94.0001"/>
</g>
<!-- ugen_8&#45;&gt;ugen_9 -->
<g id="edge20" class="edge">
<title>ugen_8:e&#45;&gt;ugen_9:w</title>
<path fill="none" stroke="#4682b4" stroke-width="2" d="M236,-54.5C264.9842,-54.5 273.4773,-66.2941 297.819,-68.9661"/>
<polygon fill="#4682b4" stroke="#4682b4" stroke-width="2" points="297.8304,-72.4715 308,-69.5 298.197,-65.4811 297.8304,-72.4715"/>
</g>
<!-- ugen_8&#45;&gt;ugen_9 -->
<g id="edge21" class="edge">
<title>ugen_8:e&#45;&gt;ugen_9:w</title>
<path fill="none" stroke="#4682b4" stroke-width="2" d="M236,-18.5C267.0104,-18.5 272.4149,-42.5056 298.024,-47.5693"/>
<polygon fill="#4682b4" stroke="#4682b4" stroke-width="2" points="297.7181,-51.0558 308,-48.5 298.3684,-44.0861 297.7181,-51.0558"/>
</g>
<!-- ugen_9&#45;&gt;ugen_10 -->
<g id="edge22" class="edge">
<title>ugen_9:e&#45;&gt;ugen_10:w</title>
<path fill="none" stroke="#4682b4" stroke-width="2" d="M392,-80.5C469.427,-80.5 390.8694,-233.1191 453.6728,-247.4272"/>
<polygon fill="#4682b4" stroke="#4682b4" stroke-width="2" points="453.6919,-250.9479 464,-248.5 454.4152,-243.9854 453.6919,-250.9479"/>
</g>
<!-- ugen_0 -->
<g id="node1" class="node">
<title>ugen_0</title>
<path fill="#bcd2ee" stroke="#000000" stroke-width="2" d="M12,-494.5C12,-494.5 69,-494.5 69,-494.5 75,-494.5 81,-500.5 81,-506.5 81,-506.5 81,-584.5 81,-584.5 81,-590.5 75,-596.5 69,-596.5 69,-596.5 12,-596.5 12,-596.5 6,-596.5 0,-590.5 0,-584.5 0,-584.5 0,-506.5 0,-506.5 0,-500.5 6,-494.5 12,-494.5"/>
<text text-anchor="middle" x="40.5" y="-582.9" font-family="Arial" font-size="12.00" fill="#000000">SinOsc</text>
<text text-anchor="middle" x="40.5" y="-569.9" font-family="Arial" font-size="12.00" fill="#000000">(audio)</text>
<polyline fill="none" stroke="#000000" stroke-width="2" points="0,-562.5 81,-562.5 "/>
<text text-anchor="middle" x="29.5" y="-548.9" font-family="Arial" font-size="12.00" fill="#000000">frequency:</text>
<text text-anchor="middle" x="29.5" y="-535.9" font-family="Arial" font-size="12.00" fill="#000000">440.0</text>
<polyline fill="none" stroke="#000000" stroke-width="2" points="0,-528.5 59,-528.5 "/>
<text text-anchor="middle" x="29.5" y="-514.9" font-family="Arial" font-size="12.00" fill="#000000">phase:</text>
<text text-anchor="middle" x="29.5" y="-501.9" font-family="Arial" font-size="12.00" fill="#000000">0.0</text>
<polyline fill="none" stroke="#000000" stroke-width="2" points="59,-494.5 59,-562.5 "/>
<text text-anchor="middle" x="70" y="-525.4" font-family="Arial" font-size="12.00" fill="#000000">0</text>
</g>
<!-- ugen_1 -->
<g id="node2" class="node">
<title>ugen_1</title>
<path fill="#eedc82" stroke="#000000" stroke-width="2" d="M12,-254.5C12,-254.5 69,-254.5 69,-254.5 75,-254.5 81,-260.5 81,-266.5 81,-266.5 81,-310.5 81,-310.5 81,-316.5 75,-322.5 69,-322.5 69,-322.5 12,-322.5 12,-322.5 6,-322.5 0,-316.5 0,-310.5 0,-310.5 0,-266.5 0,-266.5 0,-260.5 6,-254.5 12,-254.5"/>
<text text-anchor="middle" x="40.5" y="-308.9" font-family="Arial" font-size="12.00" fill="#000000">LFNoise2</text>
<text text-anchor="middle" x="40.5" y="-295.9" font-family="Arial" font-size="12.00" fill="#000000">(control)</text>
<polyline fill="none" stroke="#000000" stroke-width="2" points="0,-288.5 81,-288.5 "/>
<text text-anchor="middle" x="29.5" y="-274.9" font-family="Arial" font-size="12.00" fill="#000000">frequency:</text>
<text text-anchor="middle" x="29.5" y="-261.9" font-family="Arial" font-size="12.00" fill="#000000">500.0</text>
<polyline fill="none" stroke="#000000" stroke-width="2" points="59,-254.5 59,-288.5 "/>
<text text-anchor="middle" x="70" y="-268.4" font-family="Arial" font-size="12.00" fill="#000000">0</text>
</g>
<!-- ugen_10 -->
<g id="node3" class="node">
<title>ugen_10</title>
<path fill="#bcd2ee" stroke="#000000" stroke-width="2" d="M476,-238C476,-238 536,-238 536,-238 542,-238 548,-244 548,-250 548,-250 548,-323 548,-323 548,-329 542,-335 536,-335 536,-335 476,-335 476,-335 470,-335 464,-329 464,-323 464,-323 464,-250 464,-250 464,-244 470,-238 476,-238"/>
<text text-anchor="middle" x="506" y="-321.4" font-family="Arial" font-size="12.00" fill="#000000">Sum3</text>
<text text-anchor="middle" x="506" y="-308.4" font-family="Arial" font-size="12.00" fill="#000000">(audio)</text>
<polyline fill="none" stroke="#000000" stroke-width="2" points="464,-301 548,-301 "/>
<text text-anchor="middle" x="495" y="-287.4" font-family="Arial" font-size="12.00" fill="#000000">input_one</text>
<polyline fill="none" stroke="#000000" stroke-width="2" points="464,-280 526,-280 "/>
<text text-anchor="middle" x="495" y="-266.4" font-family="Arial" font-size="12.00" fill="#000000">input_two</text>
<polyline fill="none" stroke="#000000" stroke-width="2" points="464,-259 526,-259 "/>
<text text-anchor="middle" x="495" y="-245.4" font-family="Arial" font-size="12.00" fill="#000000">input_three</text>
<polyline fill="none" stroke="#000000" stroke-width="2" points="526,-238 526,-301 "/>
<text text-anchor="middle" x="537" y="-266.4" font-family="Arial" font-size="12.00" fill="#000000">0</text>
</g>
<!-- ugen_11 -->
<g id="node4" class="node">
<title>ugen_11</title>
<path fill="#bcd2ee" stroke="#000000" stroke-width="2" d="M632,-259C632,-259 662,-259 662,-259 668,-259 674,-265 674,-271 674,-271 674,-336 674,-336 674,-342 668,-348 662,-348 662,-348 632,-348 632,-348 626,-348 620,-342 620,-336 620,-336 620,-271 620,-271 620,-265 626,-259 632,-259"/>
<text text-anchor="middle" x="647" y="-334.4" font-family="Arial" font-size="12.00" fill="#000000">Out</text>
<text text-anchor="middle" x="647" y="-321.4" font-family="Arial" font-size="12.00" fill="#000000">(audio)</text>
<polyline fill="none" stroke="#000000" stroke-width="2" points="620,-314 674,-314 "/>
<text text-anchor="middle" x="647" y="-300.4" font-family="Arial" font-size="12.00" fill="#000000">bus:</text>
<text text-anchor="middle" x="647" y="-287.4" font-family="Arial" font-size="12.00" fill="#000000">0.0</text>
<polyline fill="none" stroke="#000000" stroke-width="2" points="620,-280 674,-280 "/>
<text text-anchor="middle" x="647" y="-266.4" font-family="Arial" font-size="12.00" fill="#000000">source</text>
</g>
<!-- ugen_2 -->
<g id="node5" class="node">
<title>ugen_2</title>
<path fill="#bcd2ee" stroke="#000000" stroke-width="2" d="M165,-394.5C165,-394.5 224,-394.5 224,-394.5 230,-394.5 236,-400.5 236,-406.5 236,-406.5 236,-560.5 236,-560.5 236,-566.5 230,-572.5 224,-572.5 224,-572.5 165,-572.5 165,-572.5 159,-572.5 153,-566.5 153,-560.5 153,-560.5 153,-406.5 153,-406.5 153,-400.5 159,-394.5 165,-394.5"/>
<text text-anchor="middle" x="194.5" y="-558.9" font-family="Arial" font-size="12.00" fill="#000000">PanAz</text>
<text text-anchor="middle" x="194.5" y="-545.9" font-family="Arial" font-size="12.00" fill="#000000">(audio)</text>
<polyline fill="none" stroke="#000000" stroke-width="2" points="153,-538.5 236,-538.5 "/>
<text text-anchor="middle" x="183.5" y="-524.9" font-family="Arial" font-size="12.00" fill="#000000">source</text>
<polyline fill="none" stroke="#000000" stroke-width="2" points="153,-517.5 214,-517.5 "/>
<text text-anchor="middle" x="183.5" y="-503.9" font-family="Arial" font-size="12.00" fill="#000000">position</text>
<polyline fill="none" stroke="#000000" stroke-width="2" points="153,-496.5 214,-496.5 "/>
<text text-anchor="middle" x="183.5" y="-482.9" font-family="Arial" font-size="12.00" fill="#000000">amplitude:</text>
<text text-anchor="middle" x="183.5" y="-469.9" font-family="Arial" font-size="12.00" fill="#000000">1.0</text>
<polyline fill="none" stroke="#000000" stroke-width="2" points="153,-462.5 214,-462.5 "/>
<text text-anchor="middle" x="183.5" y="-448.9" font-family="Arial" font-size="12.00" fill="#000000">width:</text>
<text text-anchor="middle" x="183.5" y="-435.9" font-family="Arial" font-size="12.00" fill="#000000">2.0</text>
<polyline fill="none" stroke="#000000" stroke-width="2" points="153,-428.5 214,-428.5 "/>
<text text-anchor="middle" x="183.5" y="-414.9" font-family="Arial" font-size="12.00" fill="#000000">orientation:</text>
<text text-anchor="middle" x="183.5" y="-401.9" font-family="Arial" font-size="12.00" fill="#000000">0.5</text>
<polyline fill="none" stroke="#000000" stroke-width="2" points="214,-394.5 214,-538.5 "/>
<text text-anchor="middle" x="225" y="-517.4" font-family="Arial" font-size="12.00" fill="#000000">0</text>
<polyline fill="none" stroke="#000000" stroke-width="2" points="214,-502.5 236,-502.5 "/>
<text text-anchor="middle" x="225" y="-481.4" font-family="Arial" font-size="12.00" fill="#000000">1</text>
<polyline fill="none" stroke="#000000" stroke-width="2" points="214,-466.5 236,-466.5 "/>
<text text-anchor="middle" x="225" y="-445.4" font-family="Arial" font-size="12.00" fill="#000000">2</text>
<polyline fill="none" stroke="#000000" stroke-width="2" points="214,-430.5 236,-430.5 "/>
<text text-anchor="middle" x="225" y="-409.4" font-family="Arial" font-size="12.00" fill="#000000">3</text>
</g>
<!-- ugen_3 -->
<g id="node6" class="node">
<title>ugen_3</title>
<path fill="#bcd2ee" stroke="#000000" stroke-width="2" d="M320,-417.5C320,-417.5 380,-417.5 380,-417.5 386,-417.5 392,-423.5 392,-429.5 392,-429.5 392,-523.5 392,-523.5 392,-529.5 386,-535.5 380,-535.5 380,-535.5 320,-535.5 320,-535.5 314,-535.5 308,-529.5 308,-523.5 308,-523.5 308,-429.5 308,-429.5 308,-423.5 314,-417.5 320,-417.5"/>
<text text-anchor="middle" x="350" y="-521.9" font-family="Arial" font-size="12.00" fill="#000000">Sum4</text>
<text text-anchor="middle" x="350" y="-508.9" font-family="Arial" font-size="12.00" fill="#000000">(audio)</text>
<polyline fill="none" stroke="#000000" stroke-width="2" points="308,-501.5 392,-501.5 "/>
<text text-anchor="middle" x="339" y="-487.9" font-family="Arial" font-size="12.00" fill="#000000">input_one</text>
<polyline fill="none" stroke="#000000" stroke-width="2" points="308,-480.5 370,-480.5 "/>
<text text-anchor="middle" x="339" y="-466.9" font-family="Arial" font-size="12.00" fill="#000000">input_two</text>
<polyline fill="none" stroke="#000000" stroke-width="2" points="308,-459.5 370,-459.5 "/>
<text text-anchor="middle" x="339" y="-445.9" font-family="Arial" font-size="12.00" fill="#000000">input_three</text>
<polyline fill="none" stroke="#000000" stroke-width="2" points="308,-438.5 370,-438.5 "/>
<text text-anchor="middle" x="339" y="-424.9" font-family="Arial" font-size="12.00" fill="#000000">input_four</text>
<polyline fill="none" stroke="#000000" stroke-width="2" points="370,-417.5 370,-501.5 "/>
<text text-anchor="middle" x="381" y="-456.4" font-family="Arial" font-size="12.00" fill="#000000">0</text>
</g>
<!-- ugen_4 -->
<g id="node7" class="node">
<title>ugen_4</title>
<path fill="#bcd2ee" stroke="#000000" stroke-width="2" d="M12,-341.5C12,-341.5 69,-341.5 69,-341.5 75,-341.5 81,-347.5 81,-353.5 81,-353.5 81,-431.5 81,-431.5 81,-437.5 75,-443.5 69,-443.5 69,-443.5 12,-443.5 12,-443.5 6,-443.5 0,-437.5 0,-431.5 0,-431.5 0,-353.5 0,-353.5 0,-347.5 6,-341.5 12,-341.5"/>
<text text-anchor="middle" x="40.5" y="-429.9" font-family="Arial" font-size="12.00" fill="#000000">SinOsc</text>
<text text-anchor="middle" x="40.5" y="-416.9" font-family="Arial" font-size="12.00" fill="#000000">(audio)</text>
<polyline fill="none" stroke="#000000" stroke-width="2" points="0,-409.5 81,-409.5 "/>
<text text-anchor="middle" x="29.5" y="-395.9" font-family="Arial" font-size="12.00" fill="#000000">frequency:</text>
<text text-anchor="middle" x="29.5" y="-382.9" font-family="Arial" font-size="12.00" fill="#000000">660.0</text>
<polyline fill="none" stroke="#000000" stroke-width="2" points="0,-375.5 59,-375.5 "/>
<text text-anchor="middle" x="29.5" y="-361.9" font-family="Arial" font-size="12.00" fill="#000000">phase:</text>
<text text-anchor="middle" x="29.5" y="-348.9" font-family="Arial" font-size="12.00" fill="#000000">0.0</text>
<polyline fill="none" stroke="#000000" stroke-width="2" points="59,-341.5 59,-409.5 "/>
<text text-anchor="middle" x="70" y="-372.4" font-family="Arial" font-size="12.00" fill="#000000">0</text>
</g>
<!-- ugen_5 -->
<g id="node8" class="node">
<title>ugen_5</title>
<path fill="#bcd2ee" stroke="#000000" stroke-width="2" d="M165,-197.5C165,-197.5 224,-197.5 224,-197.5 230,-197.5 236,-203.5 236,-209.5 236,-209.5 236,-363.5 236,-363.5 236,-369.5 230,-375.5 224,-375.5 224,-375.5 165,-375.5 165,-375.5 159,-375.5 153,-369.5 153,-363.5 153,-363.5 153,-209.5 153,-209.5 153,-203.5 159,-197.5 165,-197.5"/>
<text text-anchor="middle" x="194.5" y="-361.9" font-family="Arial" font-size="12.00" fill="#000000">PanAz</text>
<text text-anchor="middle" x="194.5" y="-348.9" font-family="Arial" font-size="12.00" fill="#000000">(audio)</text>
<polyline fill="none" stroke="#000000" stroke-width="2" points="153,-341.5 236,-341.5 "/>
<text text-anchor="middle" x="183.5" y="-327.9" font-family="Arial" font-size="12.00" fill="#000000">source</text>
<polyline fill="none" stroke="#000000" stroke-width="2" points="153,-320.5 214,-320.5 "/>
<text text-anchor="middle" x="183.5" y="-306.9" font-family="Arial" font-size="12.00" fill="#000000">position</text>
<polyline fill="none" stroke="#000000" stroke-width="2" points="153,-299.5 214,-299.5 "/>
<text text-anchor="middle" x="183.5" y="-285.9" font-family="Arial" font-size="12.00" fill="#000000">amplitude:</text>
<text text-anchor="middle" x="183.5" y="-272.9" font-family="Arial" font-size="12.00" fill="#000000">1.0</text>
<polyline fill="none" stroke="#000000" stroke-width="2" points="153,-265.5 214,-265.5 "/>
<text text-anchor="middle" x="183.5" y="-251.9" font-family="Arial" font-size="12.00" fill="#000000">width:</text>
<text text-anchor="middle" x="183.5" y="-238.9" font-family="Arial" font-size="12.00" fill="#000000">2.0</text>
<polyline fill="none" stroke="#000000" stroke-width="2" points="153,-231.5 214,-231.5 "/>
<text text-anchor="middle" x="183.5" y="-217.9" font-family="Arial" font-size="12.00" fill="#000000">orientation:</text>
<text text-anchor="middle" x="183.5" y="-204.9" font-family="Arial" font-size="12.00" fill="#000000">0.5</text>
<polyline fill="none" stroke="#000000" stroke-width="2" points="214,-197.5 214,-341.5 "/>
<text text-anchor="middle" x="225" y="-320.4" font-family="Arial" font-size="12.00" fill="#000000">0</text>
<polyline fill="none" stroke="#000000" stroke-width="2" points="214,-305.5 236,-305.5 "/>
<text text-anchor="middle" x="225" y="-284.4" font-family="Arial" font-size="12.00" fill="#000000">1</text>
<polyline fill="none" stroke="#000000" stroke-width="2" points="214,-269.5 236,-269.5 "/>
<text text-anchor="middle" x="225" y="-248.4" font-family="Arial" font-size="12.00" fill="#000000">2</text>
<polyline fill="none" stroke="#000000" stroke-width="2" points="214,-233.5 236,-233.5 "/>
<text text-anchor="middle" x="225" y="-212.4" font-family="Arial" font-size="12.00" fill="#000000">3</text>
</g>
<!-- ugen_6 -->
<g id="node9" class="node">
<title>ugen_6</title>
<path fill="#bcd2ee" stroke="#000000" stroke-width="2" d="M320,-227.5C320,-227.5 380,-227.5 380,-227.5 386,-227.5 392,-233.5 392,-239.5 392,-239.5 392,-333.5 392,-333.5 392,-339.5 386,-345.5 380,-345.5 380,-345.5 320,-345.5 320,-345.5 314,-345.5 308,-339.5 308,-333.5 308,-333.5 308,-239.5 308,-239.5 308,-233.5 314,-227.5 320,-227.5"/>
<text text-anchor="middle" x="350" y="-331.9" font-family="Arial" font-size="12.00" fill="#000000">Sum4</text>
<text text-anchor="middle" x="350" y="-318.9" font-family="Arial" font-size="12.00" fill="#000000">(audio)</text>
<polyline fill="none" stroke="#000000" stroke-width="2" points="308,-311.5 392,-311.5 "/>
<text text-anchor="middle" x="339" y="-297.9" font-family="Arial" font-size="12.00" fill="#000000">input_one</text>
<polyline fill="none" stroke="#000000" stroke-width="2" points="308,-290.5 370,-290.5 "/>
<text text-anchor="middle" x="339" y="-276.9" font-family="Arial" font-size="12.00" fill="#000000">input_two</text>
<polyline fill="none" stroke="#000000" stroke-width="2" points="308,-269.5 370,-269.5 "/>
<text text-anchor="middle" x="339" y="-255.9" font-family="Arial" font-size="12.00" fill="#000000">input_three</text>
<polyline fill="none" stroke="#000000" stroke-width="2" points="308,-248.5 370,-248.5 "/>
<text text-anchor="middle" x="339" y="-234.9" font-family="Arial" font-size="12.00" fill="#000000">input_four</text>
<polyline fill="none" stroke="#000000" stroke-width="2" points="370,-227.5 370,-311.5 "/>
<text text-anchor="middle" x="381" y="-266.4" font-family="Arial" font-size="12.00" fill="#000000">0</text>
</g>
<!-- ugen_7 -->
<g id="node10" class="node">
<title>ugen_7</title>
<path fill="#bcd2ee" stroke="#000000" stroke-width="2" d="M12,-100.5C12,-100.5 69,-100.5 69,-100.5 75,-100.5 81,-106.5 81,-112.5 81,-112.5 81,-190.5 81,-190.5 81,-196.5 75,-202.5 69,-202.5 69,-202.5 12,-202.5 12,-202.5 6,-202.5 0,-196.5 0,-190.5 0,-190.5 0,-112.5 0,-112.5 0,-106.5 6,-100.5 12,-100.5"/>
<text text-anchor="middle" x="40.5" y="-188.9" font-family="Arial" font-size="12.00" fill="#000000">SinOsc</text>
<text text-anchor="middle" x="40.5" y="-175.9" font-family="Arial" font-size="12.00" fill="#000000">(audio)</text>
<polyline fill="none" stroke="#000000" stroke-width="2" points="0,-168.5 81,-168.5 "/>
<text text-anchor="middle" x="29.5" y="-154.9" font-family="Arial" font-size="12.00" fill="#000000">frequency:</text>
<text text-anchor="middle" x="29.5" y="-141.9" font-family="Arial" font-size="12.00" fill="#000000">880.0</text>
<polyline fill="none" stroke="#000000" stroke-width="2" points="0,-134.5 59,-134.5 "/>
<text text-anchor="middle" x="29.5" y="-120.9" font-family="Arial" font-size="12.00" fill="#000000">phase:</text>
<text text-anchor="middle" x="29.5" y="-107.9" font-family="Arial" font-size="12.00" fill="#000000">0.0</text>
<polyline fill="none" stroke="#000000" stroke-width="2" points="59,-100.5 59,-168.5 "/>
<text text-anchor="middle" x="70" y="-131.4" font-family="Arial" font-size="12.00" fill="#000000">0</text>
</g>
<!-- ugen_8 -->
<g id="node11" class="node">
<title>ugen_8</title>
<path fill="#bcd2ee" stroke="#000000" stroke-width="2" d="M165,-.5C165,-.5 224,-.5 224,-.5 230,-.5 236,-6.5 236,-12.5 236,-12.5 236,-166.5 236,-166.5 236,-172.5 230,-178.5 224,-178.5 224,-178.5 165,-178.5 165,-178.5 159,-178.5 153,-172.5 153,-166.5 153,-166.5 153,-12.5 153,-12.5 153,-6.5 159,-.5 165,-.5"/>
<text text-anchor="middle" x="194.5" y="-164.9" font-family="Arial" font-size="12.00" fill="#000000">PanAz</text>
<text text-anchor="middle" x="194.5" y="-151.9" font-family="Arial" font-size="12.00" fill="#000000">(audio)</text>
<polyline fill="none" stroke="#000000" stroke-width="2" points="153,-144.5 236,-144.5 "/>
<text text-anchor="middle" x="183.5" y="-130.9" font-family="Arial" font-size="12.00" fill="#000000">source</text>
<polyline fill="none" stroke="#000000" stroke-width="2" points="153,-123.5 214,-123.5 "/>
<text text-anchor="middle" x="183.5" y="-109.9" font-family="Arial" font-size="12.00" fill="#000000">position</text>
<polyline fill="none" stroke="#000000" stroke-width="2" points="153,-102.5 214,-102.5 "/>
<text text-anchor="middle" x="183.5" y="-88.9" font-family="Arial" font-size="12.00" fill="#000000">amplitude:</text>
<text text-anchor="middle" x="183.5" y="-75.9" font-family="Arial" font-size="12.00" fill="#000000">1.0</text>
<polyline fill="none" stroke="#000000" stroke-width="2" points="153,-68.5 214,-68.5 "/>
<text text-anchor="middle" x="183.5" y="-54.9" font-family="Arial" font-size="12.00" fill="#000000">width:</text>
<text text-anchor="middle" x="183.5" y="-41.9" font-family="Arial" font-size="12.00" fill="#000000">2.0</text>
<polyline fill="none" stroke="#000000" stroke-width="2" points="153,-34.5 214,-34.5 "/>
<text text-anchor="middle" x="183.5" y="-20.9" font-family="Arial" font-size="12.00" fill="#000000">orientation:</text>
<text text-anchor="middle" x="183.5" y="-7.9" font-family="Arial" font-size="12.00" fill="#000000">0.5</text>
<polyline fill="none" stroke="#000000" stroke-width="2" points="214,-.5 214,-144.5 "/>
<text text-anchor="middle" x="225" y="-123.4" font-family="Arial" font-size="12.00" fill="#000000">0</text>
<polyline fill="none" stroke="#000000" stroke-width="2" points="214,-108.5 236,-108.5 "/>
<text text-anchor="middle" x="225" y="-87.4" font-family="Arial" font-size="12.00" fill="#000000">1</text>
<polyline fill="none" stroke="#000000" stroke-width="2" points="214,-72.5 236,-72.5 "/>
<text text-anchor="middle" x="225" y="-51.4" font-family="Arial" font-size="12.00" fill="#000000">2</text>
<polyline fill="none" stroke="#000000" stroke-width="2" points="214,-36.5 236,-36.5 "/>
<text text-anchor="middle" x="225" y="-15.4" font-family="Arial" font-size="12.00" fill="#000000">3</text>
</g>
<!-- ugen_9 -->
<g id="node12" class="node">
<title>ugen_9</title>
<path fill="#bcd2ee" stroke="#000000" stroke-width="2" d="M320,-38.5C320,-38.5 380,-38.5 380,-38.5 386,-38.5 392,-44.5 392,-50.5 392,-50.5 392,-144.5 392,-144.5 392,-150.5 386,-156.5 380,-156.5 380,-156.5 320,-156.5 320,-156.5 314,-156.5 308,-150.5 308,-144.5 308,-144.5 308,-50.5 308,-50.5 308,-44.5 314,-38.5 320,-38.5"/>
<text text-anchor="middle" x="350" y="-142.9" font-family="Arial" font-size="12.00" fill="#000000">Sum4</text>
<text text-anchor="middle" x="350" y="-129.9" font-family="Arial" font-size="12.00" fill="#000000">(audio)</text>
<polyline fill="none" stroke="#000000" stroke-width="2" points="308,-122.5 392,-122.5 "/>
<text text-anchor="middle" x="339" y="-108.9" font-family="Arial" font-size="12.00" fill="#000000">input_one</text>
<polyline fill="none" stroke="#000000" stroke-width="2" points="308,-101.5 370,-101.5 "/>
<text text-anchor="middle" x="339" y="-87.9" font-family="Arial" font-size="12.00" fill="#000000">input_two</text>
<polyline fill="none" stroke="#000000" stroke-width="2" points="308,-80.5 370,-80.5 "/>
<text text-anchor="middle" x="339" y="-66.9" font-family="Arial" font-size="12.00" fill="#000000">input_three</text>
<polyline fill="none" stroke="#000000" stroke-width="2" points="308,-59.5 370,-59.5 "/>
<text text-anchor="middle" x="339" y="-45.9" font-family="Arial" font-size="12.00" fill="#000000">input_four</text>
<polyline fill="none" stroke="#000000" stroke-width="2" points="370,-38.5 370,-122.5 "/>
<text text-anchor="middle" x="381" y="-77.4" font-family="Arial" font-size="12.00" fill="#000000">0</text>
</g>
</g>
</svg>
