<?xml version="1.0" encoding="UTF-8" standalone="no"?>
<!DOCTYPE svg PUBLIC "-//W3C//DTD SVG 1.1//EN"
 "http://www.w3.org/Graphics/SVG/1.1/DTD/svg11.dtd">
<!-- Generated by graphviz version 2.44.1 (20200629.0846)
 -->
<!-- Title: synthdef_000e997ea0d7e8637c9f9040547baa50 Pages: 1 -->
<svg width="269pt" height="440pt"
 viewBox="0.00 0.00 269.00 439.50" xmlns="http://www.w3.org/2000/svg" xmlns:xlink="http://www.w3.org/1999/xlink">
<g id="graph0" class="graph" transform="scale(1 1) rotate(0) translate(4 435.5)">
<title>synthdef_000e997ea0d7e8637c9f9040547baa50</title>
<!-- ugen_0&#45;&gt;ugen_1 -->
<g id="edge1" class="edge">
<title>ugen_0:e&#45;&gt;ugen_1:w</title>
<path fill="none" stroke="steelblue" stroke-width="2" d="M95,-79C123.38,-79 132.88,-79 156.98,-79"/>
<polygon fill="steelblue" stroke="steelblue" stroke-width="2" points="157,-82.5 167,-79 157,-75.5 157,-82.5"/>
</g>
<!-- ugen_2&#45;&gt;ugen_3 -->
<g id="edge2" class="edge">
<title>ugen_2:e&#45;&gt;ugen_3:w</title>
<path fill="none" stroke="steelblue" stroke-width="2" d="M95,-221C123.38,-221 132.88,-221 156.98,-221"/>
<polygon fill="steelblue" stroke="steelblue" stroke-width="2" points="157,-224.5 167,-221 157,-217.5 157,-224.5"/>
</g>
<!-- ugen_4&#45;&gt;ugen_5 -->
<g id="edge3" class="edge">
<title>ugen_4:e&#45;&gt;ugen_5:w</title>
<path fill="none" stroke="steelblue" stroke-width="2" d="M95,-363C123.38,-363 132.88,-363 156.98,-363"/>
<polygon fill="steelblue" stroke="steelblue" stroke-width="2" points="157,-366.5 167,-363 157,-359.5 157,-366.5"/>
</g>
<!-- ugen_0 -->
<g id="node1" class="node">
<title>ugen_0</title>
<path fill="#bcd2ee" stroke="black" stroke-width="2" d="M12,-45C12,-45 83,-45 83,-45 89,-45 95,-51 95,-57 95,-57 95,-135 95,-135 95,-141 89,-147 83,-147 83,-147 12,-147 12,-147 6,-147 0,-141 0,-135 0,-135 0,-57 0,-57 0,-51 6,-45 12,-45"/>
<text text-anchor="middle" x="47.5" y="-133.4" font-family="Arial" font-size="12.00">SinOsc</text>
<text text-anchor="middle" x="47.5" y="-120.4" font-family="Arial" font-size="12.00">(audio)</text>
<polyline fill="none" stroke="black" stroke-width="2" points="0,-113 95,-113 "/>
<text text-anchor="middle" x="36" y="-99.4" font-family="Arial" font-size="12.00">frequency:</text>
<text text-anchor="middle" x="36" y="-86.4" font-family="Arial" font-size="12.00">440.0</text>
<polyline fill="none" stroke="black" stroke-width="2" points="0,-79 72,-79 "/>
<text text-anchor="middle" x="36" y="-65.4" font-family="Arial" font-size="12.00">phase:</text>
<text text-anchor="middle" x="36" y="-52.4" font-family="Arial" font-size="12.00">0.0</text>
<polyline fill="none" stroke="black" stroke-width="2" points="72,-45 72,-113 "/>
<text text-anchor="middle" x="83.5" y="-75.9" font-family="Arial" font-size="12.00">0</text>
</g>
<!-- ugen_1 -->
<g id="node2" class="node">
<title>ugen_1</title>
<path fill="#bcd2ee" stroke="black" stroke-width="2" d="M179,-0.5C179,-0.5 249,-0.5 249,-0.5 255,-0.5 261,-6.5 261,-12.5 261,-12.5 261,-111.5 261,-111.5 261,-117.5 255,-123.5 249,-123.5 249,-123.5 179,-123.5 179,-123.5 173,-123.5 167,-117.5 167,-111.5 167,-111.5 167,-12.5 167,-12.5 167,-6.5 173,-0.5 179,-0.5"/>
<text text-anchor="middle" x="214" y="-109.9" font-family="Arial" font-size="12.00">Clip</text>
<text text-anchor="middle" x="214" y="-96.9" font-family="Arial" font-size="12.00">(audio)</text>
<polyline fill="none" stroke="black" stroke-width="2" points="167,-89.5 261,-89.5 "/>
<text text-anchor="middle" x="202.5" y="-75.9" font-family="Arial" font-size="12.00">source</text>
<polyline fill="none" stroke="black" stroke-width="2" points="167,-68.5 238,-68.5 "/>
<text text-anchor="middle" x="202.5" y="-54.9" font-family="Arial" font-size="12.00">minimum:</text>
<text text-anchor="middle" x="202.5" y="-41.9" font-family="Arial" font-size="12.00">&#45;0.25</text>
<polyline fill="none" stroke="black" stroke-width="2" points="167,-34.5 238,-34.5 "/>
<text text-anchor="middle" x="202.5" y="-20.9" font-family="Arial" font-size="12.00">maximum:</text>
<text text-anchor="middle" x="202.5" y="-7.9" font-family="Arial" font-size="12.00">0.25</text>
<polyline fill="none" stroke="black" stroke-width="2" points="238,-0.5 238,-89.5 "/>
<text text-anchor="middle" x="249.5" y="-41.9" font-family="Arial" font-size="12.00">0</text>
</g>
<!-- ugen_2 -->
<g id="node3" class="node">
<title>ugen_2</title>
<path fill="#bcd2ee" stroke="black" stroke-width="2" d="M12,-187C12,-187 83,-187 83,-187 89,-187 95,-193 95,-199 95,-199 95,-277 95,-277 95,-283 89,-289 83,-289 83,-289 12,-289 12,-289 6,-289 0,-283 0,-277 0,-277 0,-199 0,-199 0,-193 6,-187 12,-187"/>
<text text-anchor="middle" x="47.5" y="-275.4" font-family="Arial" font-size="12.00">SinOsc</text>
<text text-anchor="middle" x="47.5" y="-262.4" font-family="Arial" font-size="12.00">(audio)</text>
<polyline fill="none" stroke="black" stroke-width="2" points="0,-255 95,-255 "/>
<text text-anchor="middle" x="36" y="-241.4" font-family="Arial" font-size="12.00">frequency:</text>
<text text-anchor="middle" x="36" y="-228.4" font-family="Arial" font-size="12.00">442.0</text>
<polyline fill="none" stroke="black" stroke-width="2" points="0,-221 72,-221 "/>
<text text-anchor="middle" x="36" y="-207.4" font-family="Arial" font-size="12.00">phase:</text>
<text text-anchor="middle" x="36" y="-194.4" font-family="Arial" font-size="12.00">0.0</text>
<polyline fill="none" stroke="black" stroke-width="2" points="72,-187 72,-255 "/>
<text text-anchor="middle" x="83.5" y="-217.9" font-family="Arial" font-size="12.00">0</text>
</g>
<!-- ugen_3 -->
<g id="node4" class="node">
<title>ugen_3</title>
<path fill="#bcd2ee" stroke="black" stroke-width="2" d="M179,-142.5C179,-142.5 249,-142.5 249,-142.5 255,-142.5 261,-148.5 261,-154.5 261,-154.5 261,-253.5 261,-253.5 261,-259.5 255,-265.5 249,-265.5 249,-265.5 179,-265.5 179,-265.5 173,-265.5 167,-259.5 167,-253.5 167,-253.5 167,-154.5 167,-154.5 167,-148.5 173,-142.5 179,-142.5"/>
<text text-anchor="middle" x="214" y="-251.9" font-family="Arial" font-size="12.00">Clip</text>
<text text-anchor="middle" x="214" y="-238.9" font-family="Arial" font-size="12.00">(audio)</text>
<polyline fill="none" stroke="black" stroke-width="2" points="167,-231.5 261,-231.5 "/>
<text text-anchor="middle" x="202.5" y="-217.9" font-family="Arial" font-size="12.00">source</text>
<polyline fill="none" stroke="black" stroke-width="2" points="167,-210.5 238,-210.5 "/>
<text text-anchor="middle" x="202.5" y="-196.9" font-family="Arial" font-size="12.00">minimum:</text>
<text text-anchor="middle" x="202.5" y="-183.9" font-family="Arial" font-size="12.00">&#45;0.25</text>
<polyline fill="none" stroke="black" stroke-width="2" points="167,-176.5 238,-176.5 "/>
<text text-anchor="middle" x="202.5" y="-162.9" font-family="Arial" font-size="12.00">maximum:</text>
<text text-anchor="middle" x="202.5" y="-149.9" font-family="Arial" font-size="12.00">0.25</text>
<polyline fill="none" stroke="black" stroke-width="2" points="238,-142.5 238,-231.5 "/>
<text text-anchor="middle" x="249.5" y="-183.9" font-family="Arial" font-size="12.00">0</text>
</g>
<!-- ugen_4 -->
<g id="node5" class="node">
<title>ugen_4</title>
<path fill="#bcd2ee" stroke="black" stroke-width="2" d="M12,-329C12,-329 83,-329 83,-329 89,-329 95,-335 95,-341 95,-341 95,-419 95,-419 95,-425 89,-431 83,-431 83,-431 12,-431 12,-431 6,-431 0,-425 0,-419 0,-419 0,-341 0,-341 0,-335 6,-329 12,-329"/>
<text text-anchor="middle" x="47.5" y="-417.4" font-family="Arial" font-size="12.00">SinOsc</text>
<text text-anchor="middle" x="47.5" y="-404.4" font-family="Arial" font-size="12.00">(audio)</text>
<polyline fill="none" stroke="black" stroke-width="2" points="0,-397 95,-397 "/>
<text text-anchor="middle" x="36" y="-383.4" font-family="Arial" font-size="12.00">frequency:</text>
<text text-anchor="middle" x="36" y="-370.4" font-family="Arial" font-size="12.00">443.0</text>
<polyline fill="none" stroke="black" stroke-width="2" points="0,-363 72,-363 "/>
<text text-anchor="middle" x="36" y="-349.4" font-family="Arial" font-size="12.00">phase:</text>
<text text-anchor="middle" x="36" y="-336.4" font-family="Arial" font-size="12.00">0.0</text>
<polyline fill="none" stroke="black" stroke-width="2" points="72,-329 72,-397 "/>
<text text-anchor="middle" x="83.5" y="-359.9" font-family="Arial" font-size="12.00">0</text>
</g>
<!-- ugen_5 -->
<g id="node6" class="node">
<title>ugen_5</title>
<path fill="#bcd2ee" stroke="black" stroke-width="2" d="M179,-284.5C179,-284.5 249,-284.5 249,-284.5 255,-284.5 261,-290.5 261,-296.5 261,-296.5 261,-395.5 261,-395.5 261,-401.5 255,-407.5 249,-407.5 249,-407.5 179,-407.5 179,-407.5 173,-407.5 167,-401.5 167,-395.5 167,-395.5 167,-296.5 167,-296.5 167,-290.5 173,-284.5 179,-284.5"/>
<text text-anchor="middle" x="214" y="-393.9" font-family="Arial" font-size="12.00">Clip</text>
<text text-anchor="middle" x="214" y="-380.9" font-family="Arial" font-size="12.00">(audio)</text>
<polyline fill="none" stroke="black" stroke-width="2" points="167,-373.5 261,-373.5 "/>
<text text-anchor="middle" x="202.5" y="-359.9" font-family="Arial" font-size="12.00">source</text>
<polyline fill="none" stroke="black" stroke-width="2" points="167,-352.5 238,-352.5 "/>
<text text-anchor="middle" x="202.5" y="-338.9" font-family="Arial" font-size="12.00">minimum:</text>
<text text-anchor="middle" x="202.5" y="-325.9" font-family="Arial" font-size="12.00">&#45;0.25</text>
<polyline fill="none" stroke="black" stroke-width="2" points="167,-318.5 238,-318.5 "/>
<text text-anchor="middle" x="202.5" y="-304.9" font-family="Arial" font-size="12.00">maximum:</text>
<text text-anchor="middle" x="202.5" y="-291.9" font-family="Arial" font-size="12.00">0.25</text>
<polyline fill="none" stroke="black" stroke-width="2" points="238,-284.5 238,-373.5 "/>
<text text-anchor="middle" x="249.5" y="-325.9" font-family="Arial" font-size="12.00">0</text>
</g>
</g>
</svg>
