<?xml version="1.0" encoding="UTF-8" standalone="no"?>
<!DOCTYPE svg PUBLIC "-//W3C//DTD SVG 1.1//EN"
 "http://www.w3.org/Graphics/SVG/1.1/DTD/svg11.dtd">
<!-- Generated by graphviz version 2.50.0 (20211204.2007)
 -->
<!-- Title: synthdef_9ffc96952d8a081f877924018f36d463 Pages: 1 -->
<svg width="875pt" height="446pt"
 viewBox="0.00 0.00 875.00 446.00" xmlns="http://www.w3.org/2000/svg" xmlns:xlink="http://www.w3.org/1999/xlink">
<g id="graph0" class="graph" transform="scale(1 1) rotate(0) translate(4 442)">
<title>synthdef_9ffc96952d8a081f877924018f36d463</title>
<!-- ugen_0&#45;&gt;ugen_1 -->
<g id="edge1" class="edge">
<title>ugen_0:e&#45;&gt;ugen_1:w</title>
<path fill="none" stroke="salmon" stroke-width="2" d="M56,-386.5C94.63,-386.5 100.86,-356.42 133.92,-351.25"/>
<polygon fill="salmon" stroke="salmon" stroke-width="2" points="134.29,-354.73 144,-350.5 133.77,-347.75 134.29,-354.73"/>
</g>
<!-- ugen_0&#45;&gt;ugen_8 -->
<g id="edge2" class="edge">
<title>ugen_0:e&#45;&gt;ugen_8:w</title>
<path fill="none" stroke="salmon" stroke-width="2" d="M56,-386.5C88.98,-386.5 95.26,-400.47 128,-404.5 169.46,-409.6 180.24,-405.83 222,-404.5 468.96,-396.61 532.27,-369.26 774.33,-368.52"/>
<polygon fill="salmon" stroke="salmon" stroke-width="2" points="774.51,-372.02 784.5,-368.5 774.49,-365.02 774.51,-372.02"/>
</g>
<!-- ugen_1&#45;&gt;ugen_4 -->
<g id="edge3" class="edge">
<title>ugen_1:e&#45;&gt;ugen_4:w</title>
<path fill="none" stroke="steelblue" stroke-width="2" d="M206,-350.5C242.6,-350.5 252.17,-333.1 283.91,-329.98"/>
<polygon fill="steelblue" stroke="steelblue" stroke-width="2" points="284.18,-333.47 294,-329.5 283.85,-326.48 284.18,-333.47"/>
</g>
<!-- ugen_2&#45;&gt;ugen_4 -->
<g id="edge4" class="edge">
<title>ugen_2:e&#45;&gt;ugen_4:w</title>
<path fill="none" stroke="salmon" stroke-width="2" d="M222,-131.5C281.15,-131.5 237.14,-239.17 283.8,-252.21"/>
<polygon fill="salmon" stroke="salmon" stroke-width="2" points="283.64,-255.72 294,-253.5 284.52,-248.78 283.64,-255.72"/>
</g>
<!-- ugen_3&#45;&gt;ugen_4 -->
<g id="edge5" class="edge">
<title>ugen_3:e&#45;&gt;ugen_4:w</title>
<path fill="none" stroke="salmon" stroke-width="2" d="M222,-252.5C251.8,-252.5 259.09,-269.95 283.97,-273.77"/>
<polygon fill="salmon" stroke="salmon" stroke-width="2" points="283.77,-277.26 294,-274.5 284.28,-270.28 283.77,-277.26"/>
</g>
<!-- ugen_4&#45;&gt;ugen_7 -->
<g id="edge6" class="edge">
<title>ugen_4:e&#45;&gt;ugen_7:w</title>
<path fill="none" stroke="steelblue" stroke-width="2" d="M454,-291.5C488.48,-291.5 488.24,-253.23 515.94,-245.76"/>
<polygon fill="steelblue" stroke="steelblue" stroke-width="2" points="516.51,-249.21 526,-244.5 515.64,-242.27 516.51,-249.21"/>
</g>
<!-- ugen_5&#45;&gt;ugen_7 -->
<g id="edge7" class="edge">
<title>ugen_5:e&#45;&gt;ugen_7:w</title>
<path fill="none" stroke="salmon" stroke-width="2" d="M422,-34.5C493.71,-34.5 454.89,-155.73 515.8,-167.57"/>
<polygon fill="salmon" stroke="salmon" stroke-width="2" points="515.72,-171.08 526,-168.5 516.36,-164.11 515.72,-171.08"/>
</g>
<!-- ugen_6&#45;&gt;ugen_7 -->
<g id="edge8" class="edge">
<title>ugen_6:e&#45;&gt;ugen_7:w</title>
<path fill="none" stroke="salmon" stroke-width="2" d="M422,-155.5C467.02,-155.5 476.14,-184.64 515.83,-188.97"/>
<polygon fill="salmon" stroke="salmon" stroke-width="2" points="515.83,-192.47 526,-189.5 516.2,-185.48 515.83,-192.47"/>
</g>
<!-- ugen_7&#45;&gt;ugen_8 -->
<g id="edge9" class="edge">
<title>ugen_7:e&#45;&gt;ugen_8:w</title>
<path fill="none" stroke="steelblue" stroke-width="2" d="M686,-206.5C758.71,-206.5 713.06,-334.07 774.21,-346.52"/>
<polygon fill="steelblue" stroke="steelblue" stroke-width="2" points="774.21,-350.04 784.5,-347.5 774.87,-343.07 774.21,-350.04"/>
</g>
<!-- ugen_7&#45;&gt;ugen_9 -->
<g id="edge10" class="edge">
<title>ugen_7:e&#45;&gt;ugen_9:w</title>
<path fill="none" stroke="steelblue" stroke-width="2" d="M686,-206.5C714.38,-206.5 723.88,-206.5 747.98,-206.5"/>
<polygon fill="steelblue" stroke="steelblue" stroke-width="2" points="748,-210 758,-206.5 748,-203 748,-210"/>
</g>
<!-- ugen_0 -->
<g id="node1" class="node">
<title>ugen_0</title>
<path fill="#ee9572" stroke="black" stroke-width="2" d="M12,-369.5C12,-369.5 44,-369.5 44,-369.5 50,-369.5 56,-375.5 56,-381.5 56,-381.5 56,-425.5 56,-425.5 56,-431.5 50,-437.5 44,-437.5 44,-437.5 12,-437.5 12,-437.5 6,-437.5 0,-431.5 0,-425.5 0,-425.5 0,-381.5 0,-381.5 0,-375.5 6,-369.5 12,-369.5"/>
<text text-anchor="middle" x="28" y="-423.9" font-family="Arial" font-size="12.00">Control</text>
<text text-anchor="middle" x="28" y="-410.9" font-family="Arial" font-size="12.00">(scalar)</text>
<polyline fill="none" stroke="black" stroke-width="2" points="0,-403.5 56,-403.5 "/>
<text text-anchor="middle" x="28" y="-389.9" font-family="Arial" font-size="12.00">out:</text>
<text text-anchor="middle" x="28" y="-376.9" font-family="Arial" font-size="12.00">0.0</text>
</g>
<!-- ugen_1 -->
<g id="node2" class="node">
<title>ugen_1</title>
<path fill="#bcd2ee" stroke="black" stroke-width="2" d="M157.5,-340C157.5,-340 192.5,-340 192.5,-340 198.5,-340 204.5,-346 204.5,-352 204.5,-352 204.5,-383 204.5,-383 204.5,-389 198.5,-395 192.5,-395 192.5,-395 157.5,-395 157.5,-395 151.5,-395 145.5,-389 145.5,-383 145.5,-383 145.5,-352 145.5,-352 145.5,-346 151.5,-340 157.5,-340"/>
<text text-anchor="middle" x="175" y="-381.4" font-family="Arial" font-size="12.00">In</text>
<text text-anchor="middle" x="175" y="-368.4" font-family="Arial" font-size="12.00">(audio)</text>
<polyline fill="none" stroke="black" stroke-width="2" points="145.5,-361 204.5,-361 "/>
<text text-anchor="middle" x="163.5" y="-347.4" font-family="Arial" font-size="12.00">bus</text>
<polyline fill="none" stroke="black" stroke-width="2" points="181.5,-340 181.5,-361 "/>
<text text-anchor="middle" x="193" y="-347.4" font-family="Arial" font-size="12.00">0</text>
</g>
<!-- ugen_2 -->
<g id="node3" class="node">
<title>ugen_2</title>
<path fill="#ee9572" stroke="black" stroke-width="2" d="M140,-97.5C140,-97.5 210,-97.5 210,-97.5 216,-97.5 222,-103.5 222,-109.5 222,-109.5 222,-187.5 222,-187.5 222,-193.5 216,-199.5 210,-199.5 210,-199.5 140,-199.5 140,-199.5 134,-199.5 128,-193.5 128,-187.5 128,-187.5 128,-109.5 128,-109.5 128,-103.5 134,-97.5 140,-97.5"/>
<text text-anchor="middle" x="175" y="-185.9" font-family="Arial" font-size="12.00">ExpRand</text>
<text text-anchor="middle" x="175" y="-172.9" font-family="Arial" font-size="12.00">(scalar)</text>
<polyline fill="none" stroke="black" stroke-width="2" points="128,-165.5 222,-165.5 "/>
<text text-anchor="middle" x="163.5" y="-151.9" font-family="Arial" font-size="12.00">minimum:</text>
<text text-anchor="middle" x="163.5" y="-138.9" font-family="Arial" font-size="12.00">0.01</text>
<polyline fill="none" stroke="black" stroke-width="2" points="128,-131.5 199,-131.5 "/>
<text text-anchor="middle" x="163.5" y="-117.9" font-family="Arial" font-size="12.00">maximum:</text>
<text text-anchor="middle" x="163.5" y="-104.9" font-family="Arial" font-size="12.00">0.1</text>
<polyline fill="none" stroke="black" stroke-width="2" points="199,-97.5 199,-165.5 "/>
<text text-anchor="middle" x="210.5" y="-128.4" font-family="Arial" font-size="12.00">0</text>
</g>
<!-- ugen_3 -->
<g id="node4" class="node">
<title>ugen_3</title>
<path fill="#ee9572" stroke="black" stroke-width="2" d="M140,-218.5C140,-218.5 210,-218.5 210,-218.5 216,-218.5 222,-224.5 222,-230.5 222,-230.5 222,-308.5 222,-308.5 222,-314.5 216,-320.5 210,-320.5 210,-320.5 140,-320.5 140,-320.5 134,-320.5 128,-314.5 128,-308.5 128,-308.5 128,-230.5 128,-230.5 128,-224.5 134,-218.5 140,-218.5"/>
<text text-anchor="middle" x="175" y="-306.9" font-family="Arial" font-size="12.00">ExpRand</text>
<text text-anchor="middle" x="175" y="-293.9" font-family="Arial" font-size="12.00">(scalar)</text>
<polyline fill="none" stroke="black" stroke-width="2" points="128,-286.5 222,-286.5 "/>
<text text-anchor="middle" x="163.5" y="-272.9" font-family="Arial" font-size="12.00">minimum:</text>
<text text-anchor="middle" x="163.5" y="-259.9" font-family="Arial" font-size="12.00">0.01</text>
<polyline fill="none" stroke="black" stroke-width="2" points="128,-252.5 199,-252.5 "/>
<text text-anchor="middle" x="163.5" y="-238.9" font-family="Arial" font-size="12.00">maximum:</text>
<text text-anchor="middle" x="163.5" y="-225.9" font-family="Arial" font-size="12.00">0.1</text>
<polyline fill="none" stroke="black" stroke-width="2" points="199,-218.5 199,-286.5 "/>
<text text-anchor="middle" x="210.5" y="-249.4" font-family="Arial" font-size="12.00">0</text>
</g>
<!-- ugen_4 -->
<g id="node5" class="node">
<title>ugen_4</title>
<path fill="#bcd2ee" stroke="black" stroke-width="2" d="M306,-243C306,-243 442,-243 442,-243 448,-243 454,-249 454,-255 454,-255 454,-362 454,-362 454,-368 448,-374 442,-374 442,-374 306,-374 306,-374 300,-374 294,-368 294,-362 294,-362 294,-255 294,-255 294,-249 300,-243 306,-243"/>
<text text-anchor="middle" x="374" y="-360.4" font-family="Arial" font-size="12.00">AllpassC</text>
<text text-anchor="middle" x="374" y="-347.4" font-family="Arial" font-size="12.00">(audio)</text>
<polyline fill="none" stroke="black" stroke-width="2" points="294,-340 454,-340 "/>
<text text-anchor="middle" x="362.5" y="-326.4" font-family="Arial" font-size="12.00">source</text>
<polyline fill="none" stroke="black" stroke-width="2" points="294,-319 431,-319 "/>
<text text-anchor="middle" x="362.5" y="-305.4" font-family="Arial" font-size="12.00">maximum_delay_time:</text>
<text text-anchor="middle" x="362.5" y="-292.4" font-family="Arial" font-size="12.00">0.1</text>
<polyline fill="none" stroke="black" stroke-width="2" points="294,-285 431,-285 "/>
<text text-anchor="middle" x="362.5" y="-271.4" font-family="Arial" font-size="12.00">delay_time</text>
<polyline fill="none" stroke="black" stroke-width="2" points="294,-264 431,-264 "/>
<text text-anchor="middle" x="362.5" y="-250.4" font-family="Arial" font-size="12.00">decay_time</text>
<polyline fill="none" stroke="black" stroke-width="2" points="431,-243 431,-340 "/>
<text text-anchor="middle" x="442.5" y="-288.4" font-family="Arial" font-size="12.00">0</text>
</g>
<!-- ugen_5 -->
<g id="node6" class="node">
<title>ugen_5</title>
<path fill="#ee9572" stroke="black" stroke-width="2" d="M339,-0.5C339,-0.5 409,-0.5 409,-0.5 415,-0.5 421,-6.5 421,-12.5 421,-12.5 421,-90.5 421,-90.5 421,-96.5 415,-102.5 409,-102.5 409,-102.5 339,-102.5 339,-102.5 333,-102.5 327,-96.5 327,-90.5 327,-90.5 327,-12.5 327,-12.5 327,-6.5 333,-0.5 339,-0.5"/>
<text text-anchor="middle" x="374" y="-88.9" font-family="Arial" font-size="12.00">ExpRand</text>
<text text-anchor="middle" x="374" y="-75.9" font-family="Arial" font-size="12.00">(scalar)</text>
<polyline fill="none" stroke="black" stroke-width="2" points="327,-68.5 421,-68.5 "/>
<text text-anchor="middle" x="362.5" y="-54.9" font-family="Arial" font-size="12.00">minimum:</text>
<text text-anchor="middle" x="362.5" y="-41.9" font-family="Arial" font-size="12.00">0.01</text>
<polyline fill="none" stroke="black" stroke-width="2" points="327,-34.5 398,-34.5 "/>
<text text-anchor="middle" x="362.5" y="-20.9" font-family="Arial" font-size="12.00">maximum:</text>
<text text-anchor="middle" x="362.5" y="-7.9" font-family="Arial" font-size="12.00">0.1</text>
<polyline fill="none" stroke="black" stroke-width="2" points="398,-0.5 398,-68.5 "/>
<text text-anchor="middle" x="409.5" y="-31.4" font-family="Arial" font-size="12.00">0</text>
</g>
<!-- ugen_6 -->
<g id="node7" class="node">
<title>ugen_6</title>
<path fill="#ee9572" stroke="black" stroke-width="2" d="M339,-121.5C339,-121.5 409,-121.5 409,-121.5 415,-121.5 421,-127.5 421,-133.5 421,-133.5 421,-211.5 421,-211.5 421,-217.5 415,-223.5 409,-223.5 409,-223.5 339,-223.5 339,-223.5 333,-223.5 327,-217.5 327,-211.5 327,-211.5 327,-133.5 327,-133.5 327,-127.5 333,-121.5 339,-121.5"/>
<text text-anchor="middle" x="374" y="-209.9" font-family="Arial" font-size="12.00">ExpRand</text>
<text text-anchor="middle" x="374" y="-196.9" font-family="Arial" font-size="12.00">(scalar)</text>
<polyline fill="none" stroke="black" stroke-width="2" points="327,-189.5 421,-189.5 "/>
<text text-anchor="middle" x="362.5" y="-175.9" font-family="Arial" font-size="12.00">minimum:</text>
<text text-anchor="middle" x="362.5" y="-162.9" font-family="Arial" font-size="12.00">0.01</text>
<polyline fill="none" stroke="black" stroke-width="2" points="327,-155.5 398,-155.5 "/>
<text text-anchor="middle" x="362.5" y="-141.9" font-family="Arial" font-size="12.00">maximum:</text>
<text text-anchor="middle" x="362.5" y="-128.9" font-family="Arial" font-size="12.00">0.1</text>
<polyline fill="none" stroke="black" stroke-width="2" points="398,-121.5 398,-189.5 "/>
<text text-anchor="middle" x="409.5" y="-152.4" font-family="Arial" font-size="12.00">0</text>
</g>
<!-- ugen_7 -->
<g id="node8" class="node">
<title>ugen_7</title>
<path fill="#bcd2ee" stroke="black" stroke-width="2" d="M538,-158C538,-158 674,-158 674,-158 680,-158 686,-164 686,-170 686,-170 686,-277 686,-277 686,-283 680,-289 674,-289 674,-289 538,-289 538,-289 532,-289 526,-283 526,-277 526,-277 526,-170 526,-170 526,-164 532,-158 538,-158"/>
<text text-anchor="middle" x="606" y="-275.4" font-family="Arial" font-size="12.00">AllpassC</text>
<text text-anchor="middle" x="606" y="-262.4" font-family="Arial" font-size="12.00">(audio)</text>
<polyline fill="none" stroke="black" stroke-width="2" points="526,-255 686,-255 "/>
<text text-anchor="middle" x="594.5" y="-241.4" font-family="Arial" font-size="12.00">source</text>
<polyline fill="none" stroke="black" stroke-width="2" points="526,-234 663,-234 "/>
<text text-anchor="middle" x="594.5" y="-220.4" font-family="Arial" font-size="12.00">maximum_delay_time:</text>
<text text-anchor="middle" x="594.5" y="-207.4" font-family="Arial" font-size="12.00">0.1</text>
<polyline fill="none" stroke="black" stroke-width="2" points="526,-200 663,-200 "/>
<text text-anchor="middle" x="594.5" y="-186.4" font-family="Arial" font-size="12.00">delay_time</text>
<polyline fill="none" stroke="black" stroke-width="2" points="526,-179 663,-179 "/>
<text text-anchor="middle" x="594.5" y="-165.4" font-family="Arial" font-size="12.00">decay_time</text>
<polyline fill="none" stroke="black" stroke-width="2" points="663,-158 663,-255 "/>
<text text-anchor="middle" x="674.5" y="-203.4" font-family="Arial" font-size="12.00">0</text>
</g>
<!-- ugen_8 -->
<g id="node9" class="node">
<title>ugen_8</title>
<path fill="#bcd2ee" stroke="black" stroke-width="2" d="M797.5,-337.5C797.5,-337.5 827.5,-337.5 827.5,-337.5 833.5,-337.5 839.5,-343.5 839.5,-349.5 839.5,-349.5 839.5,-401.5 839.5,-401.5 839.5,-407.5 833.5,-413.5 827.5,-413.5 827.5,-413.5 797.5,-413.5 797.5,-413.5 791.5,-413.5 785.5,-407.5 785.5,-401.5 785.5,-401.5 785.5,-349.5 785.5,-349.5 785.5,-343.5 791.5,-337.5 797.5,-337.5"/>
<text text-anchor="middle" x="812.5" y="-399.9" font-family="Arial" font-size="12.00">Out</text>
<text text-anchor="middle" x="812.5" y="-386.9" font-family="Arial" font-size="12.00">(audio)</text>
<polyline fill="none" stroke="black" stroke-width="2" points="785.5,-379.5 839.5,-379.5 "/>
<text text-anchor="middle" x="812.5" y="-365.9" font-family="Arial" font-size="12.00">bus</text>
<polyline fill="none" stroke="black" stroke-width="2" points="785.5,-358.5 839.5,-358.5 "/>
<text text-anchor="middle" x="812.5" y="-344.9" font-family="Arial" font-size="12.00">source</text>
</g>
<!-- ugen_9 -->
<g id="node10" class="node">
<title>ugen_9</title>
<path fill="#eedc82" stroke="black" stroke-width="2" d="M770,-94C770,-94 855,-94 855,-94 861,-94 867,-100 867,-106 867,-106 867,-239 867,-239 867,-245 861,-251 855,-251 855,-251 770,-251 770,-251 764,-251 758,-245 758,-239 758,-239 758,-106 758,-106 758,-100 764,-94 770,-94"/>
<text text-anchor="middle" x="812.5" y="-237.4" font-family="Arial" font-size="12.00">DetectSilence</text>
<text text-anchor="middle" x="812.5" y="-224.4" font-family="Arial" font-size="12.00">(control)</text>
<polyline fill="none" stroke="black" stroke-width="2" points="758,-217 867,-217 "/>
<text text-anchor="middle" x="801" y="-203.4" font-family="Arial" font-size="12.00">source</text>
<polyline fill="none" stroke="black" stroke-width="2" points="758,-196 844,-196 "/>
<text text-anchor="middle" x="801" y="-182.4" font-family="Arial" font-size="12.00">threshold:</text>
<text text-anchor="middle" x="801" y="-169.4" font-family="Arial" font-size="12.00">0.0001</text>
<polyline fill="none" stroke="black" stroke-width="2" points="758,-162 844,-162 "/>
<text text-anchor="middle" x="801" y="-148.4" font-family="Arial" font-size="12.00">time:</text>
<text text-anchor="middle" x="801" y="-135.4" font-family="Arial" font-size="12.00">0.1</text>
<polyline fill="none" stroke="black" stroke-width="2" points="758,-128 844,-128 "/>
<text text-anchor="middle" x="801" y="-114.4" font-family="Arial" font-size="12.00">done_action:</text>
<text text-anchor="middle" x="801" y="-101.4" font-family="Arial" font-size="12.00">2.0</text>
<polyline fill="none" stroke="black" stroke-width="2" points="844,-94 844,-217 "/>
<text text-anchor="middle" x="855.5" y="-152.4" font-family="Arial" font-size="12.00">0</text>
</g>
</g>
</svg>
