<?xml version="1.0" encoding="UTF-8" standalone="no"?>
<!DOCTYPE svg PUBLIC "-//W3C//DTD SVG 1.1//EN"
 "http://www.w3.org/Graphics/SVG/1.1/DTD/svg11.dtd">
<!-- Generated by graphviz version 2.43.0 (0)
 -->
<!-- Title: G Pages: 1 -->
<svg width="2508pt" height="1247pt"
 viewBox="0.00 0.00 2508.00 1246.98" xmlns="http://www.w3.org/2000/svg" xmlns:xlink="http://www.w3.org/1999/xlink">
<g id="graph0" class="graph" transform="scale(1 1) rotate(0) translate(4 1242.98)">
<title>G</title>
<g id="clust2" class="cluster">
<title>cluster_1</title>
<path fill="transparent" stroke="black" stroke-width="2" d="M276,-1004.98C276,-1004.98 432,-1004.98 432,-1004.98 438,-1004.98 444,-1010.98 444,-1016.98 444,-1016.98 444,-1218.98 444,-1218.98 444,-1224.98 438,-1230.98 432,-1230.98 432,-1230.98 276,-1230.98 276,-1230.98 270,-1230.98 264,-1224.98 264,-1218.98 264,-1218.98 264,-1016.98 264,-1016.98 264,-1010.98 270,-1004.98 276,-1004.98"/>
<text text-anchor="middle" x="354" y="-1215.78" font-family="Arial" font-size="14.00">[0.0]</text>
</g>
<g id="clust3" class="cluster">
<title>cluster_1_0</title>
<path fill="transparent" stroke="black" stroke-width="2" stroke-dasharray="5,2" d="M284,-1012.98C284,-1012.98 424,-1012.98 424,-1012.98 430,-1012.98 436,-1018.98 436,-1024.98 436,-1024.98 436,-1187.98 436,-1187.98 436,-1193.98 430,-1199.98 424,-1199.98 424,-1199.98 284,-1199.98 284,-1199.98 278,-1199.98 272,-1193.98 272,-1187.98 272,-1187.98 272,-1024.98 272,-1024.98 272,-1018.98 278,-1012.98 284,-1012.98"/>
<text text-anchor="middle" x="354" y="-1184.78" font-family="Arial" font-size="14.00">1000</text>
</g>
<g id="clust4" class="cluster">
<title>cluster_2</title>
<path fill="transparent" stroke="black" stroke-width="2" d="M20,-770.98C20,-770.98 688,-770.98 688,-770.98 694,-770.98 700,-776.98 700,-782.98 700,-782.98 700,-984.98 700,-984.98 700,-990.98 694,-996.98 688,-996.98 688,-996.98 20,-996.98 20,-996.98 14,-996.98 8,-990.98 8,-984.98 8,-984.98 8,-782.98 8,-782.98 8,-776.98 14,-770.98 20,-770.98"/>
<text text-anchor="middle" x="354" y="-981.78" font-family="Arial" font-size="14.00">[5.0]</text>
</g>
<g id="clust5" class="cluster">
<title>cluster_2_0</title>
<path fill="transparent" stroke="black" stroke-width="2" stroke-dasharray="5,2" d="M28,-778.98C28,-778.98 680,-778.98 680,-778.98 686,-778.98 692,-784.98 692,-790.98 692,-790.98 692,-953.98 692,-953.98 692,-959.98 686,-965.98 680,-965.98 680,-965.98 28,-965.98 28,-965.98 22,-965.98 16,-959.98 16,-953.98 16,-953.98 16,-790.98 16,-790.98 16,-784.98 22,-778.98 28,-778.98"/>
<text text-anchor="middle" x="354" y="-950.78" font-family="Arial" font-size="14.00">1000</text>
</g>
<g id="clust6" class="cluster">
<title>cluster_3</title>
<path fill="transparent" stroke="black" stroke-width="2" d="M276,-536.98C276,-536.98 1200,-536.98 1200,-536.98 1206,-536.98 1212,-542.98 1212,-548.98 1212,-548.98 1212,-750.98 1212,-750.98 1212,-756.98 1206,-762.98 1200,-762.98 1200,-762.98 276,-762.98 276,-762.98 270,-762.98 264,-756.98 264,-750.98 264,-750.98 264,-548.98 264,-548.98 264,-542.98 270,-536.98 276,-536.98"/>
<text text-anchor="middle" x="738" y="-747.78" font-family="Arial" font-size="14.00">[7.5]</text>
</g>
<g id="clust7" class="cluster">
<title>cluster_3_0</title>
<path fill="transparent" stroke="black" stroke-width="2" stroke-dasharray="5,2" d="M284,-544.98C284,-544.98 1192,-544.98 1192,-544.98 1198,-544.98 1204,-550.98 1204,-556.98 1204,-556.98 1204,-719.98 1204,-719.98 1204,-725.98 1198,-731.98 1192,-731.98 1192,-731.98 284,-731.98 284,-731.98 278,-731.98 272,-725.98 272,-719.98 272,-719.98 272,-556.98 272,-556.98 272,-550.98 278,-544.98 284,-544.98"/>
<text text-anchor="middle" x="738" y="-716.78" font-family="Arial" font-size="14.00">1000</text>
</g>
<g id="clust8" class="cluster">
<title>cluster_4</title>
<path fill="transparent" stroke="black" stroke-width="2" d="M788,-302.98C788,-302.98 1456,-302.98 1456,-302.98 1462,-302.98 1468,-308.98 1468,-314.98 1468,-314.98 1468,-516.98 1468,-516.98 1468,-522.98 1462,-528.98 1456,-528.98 1456,-528.98 788,-528.98 788,-528.98 782,-528.98 776,-522.98 776,-516.98 776,-516.98 776,-314.98 776,-314.98 776,-308.98 782,-302.98 788,-302.98"/>
<text text-anchor="middle" x="1122" y="-513.78" font-family="Arial" font-size="14.00">[10.0]</text>
</g>
<g id="clust9" class="cluster">
<title>cluster_4_0</title>
<path fill="transparent" stroke="black" stroke-width="2" stroke-dasharray="5,2" d="M796,-310.98C796,-310.98 1448,-310.98 1448,-310.98 1454,-310.98 1460,-316.98 1460,-322.98 1460,-322.98 1460,-485.98 1460,-485.98 1460,-491.98 1454,-497.98 1448,-497.98 1448,-497.98 796,-497.98 796,-497.98 790,-497.98 784,-491.98 784,-485.98 784,-485.98 784,-322.98 784,-322.98 784,-316.98 790,-310.98 796,-310.98"/>
<text text-anchor="middle" x="1122" y="-482.78" font-family="Arial" font-size="14.00">1000</text>
</g>
<g id="clust10" class="cluster">
<title>cluster_5</title>
<path fill="transparent" stroke="black" stroke-width="2" d="M1300,-68.98C1300,-68.98 1968,-68.98 1968,-68.98 1974,-68.98 1980,-74.98 1980,-80.98 1980,-80.98 1980,-282.98 1980,-282.98 1980,-288.98 1974,-294.98 1968,-294.98 1968,-294.98 1300,-294.98 1300,-294.98 1294,-294.98 1288,-288.98 1288,-282.98 1288,-282.98 1288,-80.98 1288,-80.98 1288,-74.98 1294,-68.98 1300,-68.98"/>
<text text-anchor="middle" x="1634" y="-279.78" font-family="Arial" font-size="14.00">[11.0]</text>
</g>
<g id="clust11" class="cluster">
<title>cluster_5_0</title>
<path fill="transparent" stroke="black" stroke-width="2" stroke-dasharray="5,2" d="M1308,-76.98C1308,-76.98 1960,-76.98 1960,-76.98 1966,-76.98 1972,-82.98 1972,-88.98 1972,-88.98 1972,-251.98 1972,-251.98 1972,-257.98 1966,-263.98 1960,-263.98 1960,-263.98 1308,-263.98 1308,-263.98 1302,-263.98 1296,-257.98 1296,-251.98 1296,-251.98 1296,-88.98 1296,-88.98 1296,-82.98 1302,-76.98 1308,-76.98"/>
<text text-anchor="middle" x="1634" y="-248.78" font-family="Arial" font-size="14.00">1000</text>
</g>
<g id="clust12" class="cluster">
<title>cluster_6</title>
<path fill="transparent" stroke="black" stroke-width="2" d="M1812,-302.98C1812,-302.98 2224,-302.98 2224,-302.98 2230,-302.98 2236,-308.98 2236,-314.98 2236,-314.98 2236,-516.98 2236,-516.98 2236,-522.98 2230,-528.98 2224,-528.98 2224,-528.98 1812,-528.98 1812,-528.98 1806,-528.98 1800,-522.98 1800,-516.98 1800,-516.98 1800,-314.98 1800,-314.98 1800,-308.98 1806,-302.98 1812,-302.98"/>
<text text-anchor="middle" x="2018" y="-513.78" font-family="Arial" font-size="14.00">[12.5]</text>
</g>
<g id="clust13" class="cluster">
<title>cluster_6_0</title>
<path fill="transparent" stroke="black" stroke-width="2" stroke-dasharray="5,2" d="M1820,-310.98C1820,-310.98 2216,-310.98 2216,-310.98 2222,-310.98 2228,-316.98 2228,-322.98 2228,-322.98 2228,-485.98 2228,-485.98 2228,-491.98 2222,-497.98 2216,-497.98 2216,-497.98 1820,-497.98 1820,-497.98 1814,-497.98 1808,-491.98 1808,-485.98 1808,-485.98 1808,-322.98 1808,-322.98 1808,-316.98 1814,-310.98 1820,-310.98"/>
<text text-anchor="middle" x="2018" y="-482.78" font-family="Arial" font-size="14.00">1000</text>
</g>
<g id="clust14" class="cluster">
<title>cluster_7</title>
<path fill="transparent" stroke="black" stroke-width="2" d="M2324,-302.98C2324,-302.98 2480,-302.98 2480,-302.98 2486,-302.98 2492,-308.98 2492,-314.98 2492,-314.98 2492,-516.98 2492,-516.98 2492,-522.98 2486,-528.98 2480,-528.98 2480,-528.98 2324,-528.98 2324,-528.98 2318,-528.98 2312,-522.98 2312,-516.98 2312,-516.98 2312,-314.98 2312,-314.98 2312,-308.98 2318,-302.98 2324,-302.98"/>
<text text-anchor="middle" x="2402" y="-513.78" font-family="Arial" font-size="14.00">[15.0]</text>
</g>
<g id="clust15" class="cluster">
<title>cluster_7_0</title>
<path fill="transparent" stroke="black" stroke-width="2" stroke-dasharray="5,2" d="M2332,-310.98C2332,-310.98 2472,-310.98 2472,-310.98 2478,-310.98 2484,-316.98 2484,-322.98 2484,-322.98 2484,-485.98 2484,-485.98 2484,-491.98 2478,-497.98 2472,-497.98 2472,-497.98 2332,-497.98 2332,-497.98 2326,-497.98 2320,-491.98 2320,-485.98 2320,-485.98 2320,-322.98 2320,-322.98 2320,-316.98 2326,-310.98 2332,-310.98"/>
<text text-anchor="middle" x="2402" y="-482.78" font-family="Arial" font-size="14.00">1000</text>
</g>
<!-- node_1_0_0 -->
<g id="node1" class="node">
<title>node_1_0_0</title>
<path fill="lightgrey" stroke="black" stroke-width="2" d="M292,-1021.48C292,-1021.48 416,-1021.48 416,-1021.48 422,-1021.48 428,-1027.48 428,-1033.48 428,-1033.48 428,-1156.48 428,-1156.48 428,-1162.48 422,-1168.48 416,-1168.48 416,-1168.48 292,-1168.48 292,-1168.48 286,-1168.48 280,-1162.48 280,-1156.48 280,-1156.48 280,-1033.48 280,-1033.48 280,-1027.48 286,-1021.48 292,-1021.48"/>
<text text-anchor="middle" x="354" y="-1154.88" font-family="Arial" font-size="12.00">[1001]</text>
<polyline fill="none" stroke="black" stroke-width="2" points="280,-1147.48 428,-1147.48 "/>
<text text-anchor="middle" x="354" y="-1133.88" font-family="Arial" font-size="12.00">default</text>
<polyline fill="none" stroke="black" stroke-width="2" points="280,-1126.48 428,-1126.48 "/>
<text text-anchor="middle" x="354" y="-1112.88" font-family="Arial" font-size="12.00">amplitude: (0.1, None)</text>
<polyline fill="none" stroke="black" stroke-width="2" points="280,-1105.48 428,-1105.48 "/>
<text text-anchor="middle" x="354" y="-1091.88" font-family="Arial" font-size="12.00">frequency: (440.0, None)</text>
<polyline fill="none" stroke="black" stroke-width="2" points="280,-1084.48 428,-1084.48 "/>
<text text-anchor="middle" x="354" y="-1070.88" font-family="Arial" font-size="12.00">gate: (1.0, None)</text>
<polyline fill="none" stroke="black" stroke-width="2" points="280,-1063.48 428,-1063.48 "/>
<text text-anchor="middle" x="354" y="-1049.88" font-family="Arial" font-size="12.00">out: (0.0, None)</text>
<polyline fill="none" stroke="black" stroke-width="2" points="280,-1042.48 428,-1042.48 "/>
<text text-anchor="middle" x="354" y="-1028.88" font-family="Arial" font-size="12.00">pan: (0.5, None)</text>
</g>
<!-- node_2_0_2 -->
<g id="node4" class="node">
<title>node_2_0_2</title>
<path fill="lightgrey" stroke="black" stroke-width="2" d="M548,-787.48C548,-787.48 672,-787.48 672,-787.48 678,-787.48 684,-793.48 684,-799.48 684,-799.48 684,-922.48 684,-922.48 684,-928.48 678,-934.48 672,-934.48 672,-934.48 548,-934.48 548,-934.48 542,-934.48 536,-928.48 536,-922.48 536,-922.48 536,-799.48 536,-799.48 536,-793.48 542,-787.48 548,-787.48"/>
<text text-anchor="middle" x="610" y="-920.88" font-family="Arial" font-size="12.00">[1001]</text>
<polyline fill="none" stroke="black" stroke-width="2" points="536,-913.48 684,-913.48 "/>
<text text-anchor="middle" x="610" y="-899.88" font-family="Arial" font-size="12.00">default</text>
<polyline fill="none" stroke="black" stroke-width="2" points="536,-892.48 684,-892.48 "/>
<text text-anchor="middle" x="610" y="-878.88" font-family="Arial" font-size="12.00">amplitude: (0.1, None)</text>
<polyline fill="none" stroke="black" stroke-width="2" points="536,-871.48 684,-871.48 "/>
<text text-anchor="middle" x="610" y="-857.88" font-family="Arial" font-size="12.00">frequency: (440.0, None)</text>
<polyline fill="none" stroke="black" stroke-width="2" points="536,-850.48 684,-850.48 "/>
<text text-anchor="middle" x="610" y="-836.88" font-family="Arial" font-size="12.00">gate: (1.0, None)</text>
<polyline fill="none" stroke="black" stroke-width="2" points="536,-829.48 684,-829.48 "/>
<text text-anchor="middle" x="610" y="-815.88" font-family="Arial" font-size="12.00">out: (0.0, None)</text>
<polyline fill="none" stroke="black" stroke-width="2" points="536,-808.48 684,-808.48 "/>
<text text-anchor="middle" x="610" y="-794.88" font-family="Arial" font-size="12.00">pan: (0.5, None)</text>
</g>
<!-- node_1_0_0&#45;&gt;node_2_0_2 -->
<g id="edge11" class="edge">
<title>node_1_0_0:f_0_0_0&#45;&gt;node_2_0_2:f_0_0_0</title>
<path fill="none" stroke="black" stroke-width="2" d="M429,-1157.98C539.78,-1157.98 429.02,-938.37 525.96,-924.65"/>
<polygon fill="black" stroke="black" stroke-width="2" points="526.26,-928.14 536,-923.98 525.79,-921.15 526.26,-928.14"/>
</g>
<!-- node_2_0_0 -->
<g id="node2" class="node">
<title>node_2_0_0</title>
<path fill="lightgrey" stroke="black" stroke-width="2" d="M36,-787.48C36,-787.48 160,-787.48 160,-787.48 166,-787.48 172,-793.48 172,-799.48 172,-799.48 172,-922.48 172,-922.48 172,-928.48 166,-934.48 160,-934.48 160,-934.48 36,-934.48 36,-934.48 30,-934.48 24,-928.48 24,-922.48 24,-922.48 24,-799.48 24,-799.48 24,-793.48 30,-787.48 36,-787.48"/>
<text text-anchor="middle" x="98" y="-920.88" font-family="Arial" font-size="12.00">[1003]</text>
<polyline fill="none" stroke="black" stroke-width="2" points="24,-913.48 172,-913.48 "/>
<text text-anchor="middle" x="98" y="-899.88" font-family="Arial" font-size="12.00">default</text>
<polyline fill="none" stroke="black" stroke-width="2" points="24,-892.48 172,-892.48 "/>
<text text-anchor="middle" x="98" y="-878.88" font-family="Arial" font-size="12.00">amplitude: (0.1, None)</text>
<polyline fill="none" stroke="black" stroke-width="2" points="24,-871.48 172,-871.48 "/>
<text text-anchor="middle" x="98" y="-857.88" font-family="Arial" font-size="12.00">frequency: (440.0, None)</text>
<polyline fill="none" stroke="black" stroke-width="2" points="24,-850.48 172,-850.48 "/>
<text text-anchor="middle" x="98" y="-836.88" font-family="Arial" font-size="12.00">gate: (1.0, None)</text>
<polyline fill="none" stroke="black" stroke-width="2" points="24,-829.48 172,-829.48 "/>
<text text-anchor="middle" x="98" y="-815.88" font-family="Arial" font-size="12.00">out: (0.0, None)</text>
<polyline fill="none" stroke="black" stroke-width="2" points="24,-808.48 172,-808.48 "/>
<text text-anchor="middle" x="98" y="-794.88" font-family="Arial" font-size="12.00">pan: (0.5, None)</text>
</g>
<!-- node_2_0_1 -->
<g id="node3" class="node">
<title>node_2_0_1</title>
<path fill="lightgrey" stroke="black" stroke-width="2" d="M292,-787.48C292,-787.48 416,-787.48 416,-787.48 422,-787.48 428,-793.48 428,-799.48 428,-799.48 428,-922.48 428,-922.48 428,-928.48 422,-934.48 416,-934.48 416,-934.48 292,-934.48 292,-934.48 286,-934.48 280,-928.48 280,-922.48 280,-922.48 280,-799.48 280,-799.48 280,-793.48 286,-787.48 292,-787.48"/>
<text text-anchor="middle" x="354" y="-920.88" font-family="Arial" font-size="12.00">[1002]</text>
<polyline fill="none" stroke="black" stroke-width="2" points="280,-913.48 428,-913.48 "/>
<text text-anchor="middle" x="354" y="-899.88" font-family="Arial" font-size="12.00">default</text>
<polyline fill="none" stroke="black" stroke-width="2" points="280,-892.48 428,-892.48 "/>
<text text-anchor="middle" x="354" y="-878.88" font-family="Arial" font-size="12.00">amplitude: (0.1, None)</text>
<polyline fill="none" stroke="black" stroke-width="2" points="280,-871.48 428,-871.48 "/>
<text text-anchor="middle" x="354" y="-857.88" font-family="Arial" font-size="12.00">frequency: (440.0, None)</text>
<polyline fill="none" stroke="black" stroke-width="2" points="280,-850.48 428,-850.48 "/>
<text text-anchor="middle" x="354" y="-836.88" font-family="Arial" font-size="12.00">gate: (1.0, None)</text>
<polyline fill="none" stroke="black" stroke-width="2" points="280,-829.48 428,-829.48 "/>
<text text-anchor="middle" x="354" y="-815.88" font-family="Arial" font-size="12.00">out: (0.0, None)</text>
<polyline fill="none" stroke="black" stroke-width="2" points="280,-808.48 428,-808.48 "/>
<text text-anchor="middle" x="354" y="-794.88" font-family="Arial" font-size="12.00">pan: (0.5, None)</text>
</g>
<!-- node_2_0_0&#45;&gt;node_2_0_1 -->
<g id="edge1" class="edge">
<title>node_2_0_0&#45;&gt;node_2_0_1</title>
<path fill="none" stroke="black" stroke-width="2" d="M172.13,-860.98C202.67,-860.98 238.33,-860.98 269.87,-860.98"/>
<polygon fill="black" stroke="black" stroke-width="2" points="269.95,-864.48 279.95,-860.98 269.95,-857.48 269.95,-864.48"/>
</g>
<!-- node_3_0_0 -->
<g id="node5" class="node">
<title>node_3_0_0</title>
<path fill="lightgrey" stroke="black" stroke-width="2" d="M292,-553.48C292,-553.48 416,-553.48 416,-553.48 422,-553.48 428,-559.48 428,-565.48 428,-565.48 428,-688.48 428,-688.48 428,-694.48 422,-700.48 416,-700.48 416,-700.48 292,-700.48 292,-700.48 286,-700.48 280,-694.48 280,-688.48 280,-688.48 280,-565.48 280,-565.48 280,-559.48 286,-553.48 292,-553.48"/>
<text text-anchor="middle" x="354" y="-686.88" font-family="Arial" font-size="12.00">[1003]</text>
<polyline fill="none" stroke="black" stroke-width="2" points="280,-679.48 428,-679.48 "/>
<text text-anchor="middle" x="354" y="-665.88" font-family="Arial" font-size="12.00">default</text>
<polyline fill="none" stroke="black" stroke-width="2" points="280,-658.48 428,-658.48 "/>
<text text-anchor="middle" x="354" y="-644.88" font-family="Arial" font-size="12.00">amplitude: (0.1, None)</text>
<polyline fill="none" stroke="black" stroke-width="2" points="280,-637.48 428,-637.48 "/>
<text text-anchor="middle" x="354" y="-623.88" font-family="Arial" font-size="12.00">frequency: (440.0, None)</text>
<polyline fill="none" stroke="black" stroke-width="2" points="280,-616.48 428,-616.48 "/>
<text text-anchor="middle" x="354" y="-602.88" font-family="Arial" font-size="12.00">gate: (1.0, None)</text>
<polyline fill="none" stroke="black" stroke-width="2" points="280,-595.48 428,-595.48 "/>
<text text-anchor="middle" x="354" y="-581.88" font-family="Arial" font-size="12.00">out: (0.0, None)</text>
<polyline fill="none" stroke="black" stroke-width="2" points="280,-574.48 428,-574.48 "/>
<text text-anchor="middle" x="354" y="-560.88" font-family="Arial" font-size="12.00">pan: (0.5, None)</text>
</g>
<!-- node_2_0_0&#45;&gt;node_3_0_0 -->
<g id="edge12" class="edge">
<title>node_2_0_0:f_0_0_0&#45;&gt;node_3_0_0:f_0_0_0</title>
<path fill="none" stroke="black" stroke-width="2" d="M172,-923.98C282.78,-923.98 172.02,-704.37 268.96,-690.65"/>
<polygon fill="black" stroke="black" stroke-width="2" points="269.26,-694.14 279,-689.98 268.79,-687.15 269.26,-694.14"/>
</g>
<!-- node_2_0_1&#45;&gt;node_2_0_2 -->
<g id="edge2" class="edge">
<title>node_2_0_1&#45;&gt;node_2_0_2</title>
<path fill="none" stroke="black" stroke-width="2" d="M428.13,-860.98C458.67,-860.98 494.33,-860.98 525.87,-860.98"/>
<polygon fill="black" stroke="black" stroke-width="2" points="525.95,-864.48 535.95,-860.98 525.95,-857.48 525.95,-864.48"/>
</g>
<!-- node_3_0_2 -->
<g id="node7" class="node">
<title>node_3_0_2</title>
<path fill="lightgrey" stroke="black" stroke-width="2" d="M804,-553.48C804,-553.48 928,-553.48 928,-553.48 934,-553.48 940,-559.48 940,-565.48 940,-565.48 940,-688.48 940,-688.48 940,-694.48 934,-700.48 928,-700.48 928,-700.48 804,-700.48 804,-700.48 798,-700.48 792,-694.48 792,-688.48 792,-688.48 792,-565.48 792,-565.48 792,-559.48 798,-553.48 804,-553.48"/>
<text text-anchor="middle" x="866" y="-686.88" font-family="Arial" font-size="12.00">[1002]</text>
<polyline fill="none" stroke="black" stroke-width="2" points="792,-679.48 940,-679.48 "/>
<text text-anchor="middle" x="866" y="-665.88" font-family="Arial" font-size="12.00">default</text>
<polyline fill="none" stroke="black" stroke-width="2" points="792,-658.48 940,-658.48 "/>
<text text-anchor="middle" x="866" y="-644.88" font-family="Arial" font-size="12.00">amplitude: (0.1, None)</text>
<polyline fill="none" stroke="black" stroke-width="2" points="792,-637.48 940,-637.48 "/>
<text text-anchor="middle" x="866" y="-623.88" font-family="Arial" font-size="12.00">frequency: (440.0, None)</text>
<polyline fill="none" stroke="black" stroke-width="2" points="792,-616.48 940,-616.48 "/>
<text text-anchor="middle" x="866" y="-602.88" font-family="Arial" font-size="12.00">gate: (1.0, None)</text>
<polyline fill="none" stroke="black" stroke-width="2" points="792,-595.48 940,-595.48 "/>
<text text-anchor="middle" x="866" y="-581.88" font-family="Arial" font-size="12.00">out: (0.0, None)</text>
<polyline fill="none" stroke="black" stroke-width="2" points="792,-574.48 940,-574.48 "/>
<text text-anchor="middle" x="866" y="-560.88" font-family="Arial" font-size="12.00">pan: (0.5, None)</text>
</g>
<!-- node_2_0_1&#45;&gt;node_3_0_2 -->
<g id="edge13" class="edge">
<title>node_2_0_1:f_0_0_0&#45;&gt;node_3_0_2:f_0_0_0</title>
<path fill="none" stroke="black" stroke-width="2" d="M429,-923.98C509.45,-923.98 471.25,-825.72 536,-777.98 558.24,-761.58 730.71,-700.63 781.01,-691.2"/>
<polygon fill="black" stroke="black" stroke-width="2" points="781.5,-694.67 791,-689.98 780.65,-687.72 781.5,-694.67"/>
</g>
<!-- node_3_0_3 -->
<g id="node8" class="node">
<title>node_3_0_3</title>
<path fill="lightgrey" stroke="black" stroke-width="2" d="M1060,-553.48C1060,-553.48 1184,-553.48 1184,-553.48 1190,-553.48 1196,-559.48 1196,-565.48 1196,-565.48 1196,-688.48 1196,-688.48 1196,-694.48 1190,-700.48 1184,-700.48 1184,-700.48 1060,-700.48 1060,-700.48 1054,-700.48 1048,-694.48 1048,-688.48 1048,-688.48 1048,-565.48 1048,-565.48 1048,-559.48 1054,-553.48 1060,-553.48"/>
<text text-anchor="middle" x="1122" y="-686.88" font-family="Arial" font-size="12.00">[1001]</text>
<polyline fill="none" stroke="black" stroke-width="2" points="1048,-679.48 1196,-679.48 "/>
<text text-anchor="middle" x="1122" y="-665.88" font-family="Arial" font-size="12.00">default</text>
<polyline fill="none" stroke="black" stroke-width="2" points="1048,-658.48 1196,-658.48 "/>
<text text-anchor="middle" x="1122" y="-644.88" font-family="Arial" font-size="12.00">amplitude: (0.1, None)</text>
<polyline fill="none" stroke="black" stroke-width="2" points="1048,-637.48 1196,-637.48 "/>
<text text-anchor="middle" x="1122" y="-623.88" font-family="Arial" font-size="12.00">frequency: (440.0, None)</text>
<polyline fill="none" stroke="black" stroke-width="2" points="1048,-616.48 1196,-616.48 "/>
<text text-anchor="middle" x="1122" y="-602.88" font-family="Arial" font-size="12.00">gate: (1.0, None)</text>
<polyline fill="none" stroke="black" stroke-width="2" points="1048,-595.48 1196,-595.48 "/>
<text text-anchor="middle" x="1122" y="-581.88" font-family="Arial" font-size="12.00">out: (0.0, None)</text>
<polyline fill="none" stroke="black" stroke-width="2" points="1048,-574.48 1196,-574.48 "/>
<text text-anchor="middle" x="1122" y="-560.88" font-family="Arial" font-size="12.00">pan: (0.5, None)</text>
</g>
<!-- node_2_0_2&#45;&gt;node_3_0_3 -->
<g id="edge14" class="edge">
<title>node_2_0_2:f_0_0_0&#45;&gt;node_3_0_3:f_0_0_0</title>
<path fill="none" stroke="black" stroke-width="2" d="M685,-923.98C873.48,-923.98 856.74,-698.36 1037.8,-690.2"/>
<polygon fill="black" stroke="black" stroke-width="2" points="1038.08,-693.7 1048,-689.98 1037.92,-686.7 1038.08,-693.7"/>
</g>
<!-- node_3_0_1 -->
<g id="node6" class="node">
<title>node_3_0_1</title>
<path fill="lightgrey" stroke="black" stroke-width="2" d="M548,-553.48C548,-553.48 672,-553.48 672,-553.48 678,-553.48 684,-559.48 684,-565.48 684,-565.48 684,-688.48 684,-688.48 684,-694.48 678,-700.48 672,-700.48 672,-700.48 548,-700.48 548,-700.48 542,-700.48 536,-694.48 536,-688.48 536,-688.48 536,-565.48 536,-565.48 536,-559.48 542,-553.48 548,-553.48"/>
<text text-anchor="middle" x="610" y="-686.88" font-family="Arial" font-size="12.00">[1004]</text>
<polyline fill="none" stroke="black" stroke-width="2" points="536,-679.48 684,-679.48 "/>
<text text-anchor="middle" x="610" y="-665.88" font-family="Arial" font-size="12.00">default</text>
<polyline fill="none" stroke="black" stroke-width="2" points="536,-658.48 684,-658.48 "/>
<text text-anchor="middle" x="610" y="-644.88" font-family="Arial" font-size="12.00">amplitude: (0.1, None)</text>
<polyline fill="none" stroke="black" stroke-width="2" points="536,-637.48 684,-637.48 "/>
<text text-anchor="middle" x="610" y="-623.88" font-family="Arial" font-size="12.00">frequency: (440.0, None)</text>
<polyline fill="none" stroke="black" stroke-width="2" points="536,-616.48 684,-616.48 "/>
<text text-anchor="middle" x="610" y="-602.88" font-family="Arial" font-size="12.00">gate: (1.0, None)</text>
<polyline fill="none" stroke="black" stroke-width="2" points="536,-595.48 684,-595.48 "/>
<text text-anchor="middle" x="610" y="-581.88" font-family="Arial" font-size="12.00">out: (0.0, None)</text>
<polyline fill="none" stroke="black" stroke-width="2" points="536,-574.48 684,-574.48 "/>
<text text-anchor="middle" x="610" y="-560.88" font-family="Arial" font-size="12.00">pan: (0.5, None)</text>
</g>
<!-- node_3_0_0&#45;&gt;node_3_0_1 -->
<g id="edge3" class="edge">
<title>node_3_0_0&#45;&gt;node_3_0_1</title>
<path fill="none" stroke="black" stroke-width="2" d="M428.13,-626.98C458.67,-626.98 494.33,-626.98 525.87,-626.98"/>
<polygon fill="black" stroke="black" stroke-width="2" points="525.95,-630.48 535.95,-626.98 525.95,-623.48 525.95,-630.48"/>
</g>
<!-- node_3_0_1&#45;&gt;node_3_0_2 -->
<g id="edge4" class="edge">
<title>node_3_0_1&#45;&gt;node_3_0_2</title>
<path fill="none" stroke="black" stroke-width="2" d="M684.13,-626.98C714.67,-626.98 750.33,-626.98 781.87,-626.98"/>
<polygon fill="black" stroke="black" stroke-width="2" points="781.95,-630.48 791.95,-626.98 781.95,-623.48 781.95,-630.48"/>
</g>
<!-- node_4_0_0 -->
<g id="node9" class="node">
<title>node_4_0_0</title>
<path fill="lightgrey" stroke="black" stroke-width="2" d="M804,-319.48C804,-319.48 928,-319.48 928,-319.48 934,-319.48 940,-325.48 940,-331.48 940,-331.48 940,-454.48 940,-454.48 940,-460.48 934,-466.48 928,-466.48 928,-466.48 804,-466.48 804,-466.48 798,-466.48 792,-460.48 792,-454.48 792,-454.48 792,-331.48 792,-331.48 792,-325.48 798,-319.48 804,-319.48"/>
<text text-anchor="middle" x="866" y="-452.88" font-family="Arial" font-size="12.00">[1004]</text>
<polyline fill="none" stroke="black" stroke-width="2" points="792,-445.48 940,-445.48 "/>
<text text-anchor="middle" x="866" y="-431.88" font-family="Arial" font-size="12.00">default</text>
<polyline fill="none" stroke="black" stroke-width="2" points="792,-424.48 940,-424.48 "/>
<text text-anchor="middle" x="866" y="-410.88" font-family="Arial" font-size="12.00">amplitude: (0.1, None)</text>
<polyline fill="none" stroke="black" stroke-width="2" points="792,-403.48 940,-403.48 "/>
<text text-anchor="middle" x="866" y="-389.88" font-family="Arial" font-size="12.00">frequency: (440.0, None)</text>
<polyline fill="none" stroke="black" stroke-width="2" points="792,-382.48 940,-382.48 "/>
<text text-anchor="middle" x="866" y="-368.88" font-family="Arial" font-size="12.00">gate: (1.0, None)</text>
<polyline fill="none" stroke="black" stroke-width="2" points="792,-361.48 940,-361.48 "/>
<text text-anchor="middle" x="866" y="-347.88" font-family="Arial" font-size="12.00">out: (0.0, None)</text>
<polyline fill="none" stroke="black" stroke-width="2" points="792,-340.48 940,-340.48 "/>
<text text-anchor="middle" x="866" y="-326.88" font-family="Arial" font-size="12.00">pan: (0.5, None)</text>
</g>
<!-- node_3_0_1&#45;&gt;node_4_0_0 -->
<g id="edge15" class="edge">
<title>node_3_0_1:f_0_0_0&#45;&gt;node_4_0_0:f_0_0_0</title>
<path fill="none" stroke="black" stroke-width="2" d="M685,-689.98C795.61,-689.98 684.24,-470.37 780.97,-456.65"/>
<polygon fill="black" stroke="black" stroke-width="2" points="781.26,-460.14 791,-455.98 780.79,-453.15 781.26,-460.14"/>
</g>
<!-- node_3_0_2&#45;&gt;node_3_0_3 -->
<g id="edge5" class="edge">
<title>node_3_0_2&#45;&gt;node_3_0_3</title>
<path fill="none" stroke="black" stroke-width="2" d="M940.13,-626.98C970.67,-626.98 1006.33,-626.98 1037.87,-626.98"/>
<polygon fill="black" stroke="black" stroke-width="2" points="1037.95,-630.48 1047.95,-626.98 1037.95,-623.48 1037.95,-630.48"/>
</g>
<!-- node_4_0_1 -->
<g id="node10" class="node">
<title>node_4_0_1</title>
<path fill="lightgrey" stroke="black" stroke-width="2" d="M1060,-319.48C1060,-319.48 1184,-319.48 1184,-319.48 1190,-319.48 1196,-325.48 1196,-331.48 1196,-331.48 1196,-454.48 1196,-454.48 1196,-460.48 1190,-466.48 1184,-466.48 1184,-466.48 1060,-466.48 1060,-466.48 1054,-466.48 1048,-460.48 1048,-454.48 1048,-454.48 1048,-331.48 1048,-331.48 1048,-325.48 1054,-319.48 1060,-319.48"/>
<text text-anchor="middle" x="1122" y="-452.88" font-family="Arial" font-size="12.00">[1002]</text>
<polyline fill="none" stroke="black" stroke-width="2" points="1048,-445.48 1196,-445.48 "/>
<text text-anchor="middle" x="1122" y="-431.88" font-family="Arial" font-size="12.00">default</text>
<polyline fill="none" stroke="black" stroke-width="2" points="1048,-424.48 1196,-424.48 "/>
<text text-anchor="middle" x="1122" y="-410.88" font-family="Arial" font-size="12.00">amplitude: (0.1, None)</text>
<polyline fill="none" stroke="black" stroke-width="2" points="1048,-403.48 1196,-403.48 "/>
<text text-anchor="middle" x="1122" y="-389.88" font-family="Arial" font-size="12.00">frequency: (440.0, None)</text>
<polyline fill="none" stroke="black" stroke-width="2" points="1048,-382.48 1196,-382.48 "/>
<text text-anchor="middle" x="1122" y="-368.88" font-family="Arial" font-size="12.00">gate: (1.0, None)</text>
<polyline fill="none" stroke="black" stroke-width="2" points="1048,-361.48 1196,-361.48 "/>
<text text-anchor="middle" x="1122" y="-347.88" font-family="Arial" font-size="12.00">out: (0.0, None)</text>
<polyline fill="none" stroke="black" stroke-width="2" points="1048,-340.48 1196,-340.48 "/>
<text text-anchor="middle" x="1122" y="-326.88" font-family="Arial" font-size="12.00">pan: (0.5, None)</text>
</g>
<!-- node_3_0_2&#45;&gt;node_4_0_1 -->
<g id="edge16" class="edge">
<title>node_3_0_2:f_0_0_0&#45;&gt;node_4_0_1:f_0_0_0</title>
<path fill="none" stroke="black" stroke-width="2" d="M940,-689.98C1050.96,-689.98 940.8,-470.37 1037.94,-456.65"/>
<polygon fill="black" stroke="black" stroke-width="2" points="1038.26,-460.14 1048,-455.98 1037.79,-453.15 1038.26,-460.14"/>
</g>
<!-- node_4_0_2 -->
<g id="node11" class="node">
<title>node_4_0_2</title>
<path fill="lightgrey" stroke="black" stroke-width="2" d="M1316,-319.48C1316,-319.48 1440,-319.48 1440,-319.48 1446,-319.48 1452,-325.48 1452,-331.48 1452,-331.48 1452,-454.48 1452,-454.48 1452,-460.48 1446,-466.48 1440,-466.48 1440,-466.48 1316,-466.48 1316,-466.48 1310,-466.48 1304,-460.48 1304,-454.48 1304,-454.48 1304,-331.48 1304,-331.48 1304,-325.48 1310,-319.48 1316,-319.48"/>
<text text-anchor="middle" x="1378" y="-452.88" font-family="Arial" font-size="12.00">[1001]</text>
<polyline fill="none" stroke="black" stroke-width="2" points="1304,-445.48 1452,-445.48 "/>
<text text-anchor="middle" x="1378" y="-431.88" font-family="Arial" font-size="12.00">default</text>
<polyline fill="none" stroke="black" stroke-width="2" points="1304,-424.48 1452,-424.48 "/>
<text text-anchor="middle" x="1378" y="-410.88" font-family="Arial" font-size="12.00">amplitude: (0.1, None)</text>
<polyline fill="none" stroke="black" stroke-width="2" points="1304,-403.48 1452,-403.48 "/>
<text text-anchor="middle" x="1378" y="-389.88" font-family="Arial" font-size="12.00">frequency: (440.0, None)</text>
<polyline fill="none" stroke="black" stroke-width="2" points="1304,-382.48 1452,-382.48 "/>
<text text-anchor="middle" x="1378" y="-368.88" font-family="Arial" font-size="12.00">gate: (1.0, None)</text>
<polyline fill="none" stroke="black" stroke-width="2" points="1304,-361.48 1452,-361.48 "/>
<text text-anchor="middle" x="1378" y="-347.88" font-family="Arial" font-size="12.00">out: (0.0, None)</text>
<polyline fill="none" stroke="black" stroke-width="2" points="1304,-340.48 1452,-340.48 "/>
<text text-anchor="middle" x="1378" y="-326.88" font-family="Arial" font-size="12.00">pan: (0.5, None)</text>
</g>
<!-- node_3_0_3&#45;&gt;node_4_0_2 -->
<g id="edge17" class="edge">
<title>node_3_0_3:f_0_0_0&#45;&gt;node_4_0_2:f_0_0_0</title>
<path fill="none" stroke="black" stroke-width="2" d="M1197,-689.98C1307.61,-689.98 1196.24,-470.37 1292.97,-456.65"/>
<polygon fill="black" stroke="black" stroke-width="2" points="1293.26,-460.14 1303,-455.98 1292.79,-453.15 1293.26,-460.14"/>
</g>
<!-- node_4_0_0&#45;&gt;node_4_0_1 -->
<g id="edge6" class="edge">
<title>node_4_0_0&#45;&gt;node_4_0_1</title>
<path fill="none" stroke="black" stroke-width="2" d="M940.13,-392.98C970.67,-392.98 1006.33,-392.98 1037.87,-392.98"/>
<polygon fill="black" stroke="black" stroke-width="2" points="1037.95,-396.48 1047.95,-392.98 1037.95,-389.48 1037.95,-396.48"/>
</g>
<!-- node_5_0_0 -->
<g id="node12" class="node">
<title>node_5_0_0</title>
<path fill="lightgrey" stroke="black" stroke-width="2" d="M1316,-85.48C1316,-85.48 1440,-85.48 1440,-85.48 1446,-85.48 1452,-91.48 1452,-97.48 1452,-97.48 1452,-220.48 1452,-220.48 1452,-226.48 1446,-232.48 1440,-232.48 1440,-232.48 1316,-232.48 1316,-232.48 1310,-232.48 1304,-226.48 1304,-220.48 1304,-220.48 1304,-97.48 1304,-97.48 1304,-91.48 1310,-85.48 1316,-85.48"/>
<text text-anchor="middle" x="1378" y="-218.88" font-family="Arial" font-size="12.00">[1004]</text>
<polyline fill="none" stroke="black" stroke-width="2" points="1304,-211.48 1452,-211.48 "/>
<text text-anchor="middle" x="1378" y="-197.88" font-family="Arial" font-size="12.00">default</text>
<polyline fill="none" stroke="black" stroke-width="2" points="1304,-190.48 1452,-190.48 "/>
<text text-anchor="middle" x="1378" y="-176.88" font-family="Arial" font-size="12.00">amplitude: (0.1, None)</text>
<polyline fill="none" stroke="black" stroke-width="2" points="1304,-169.48 1452,-169.48 "/>
<text text-anchor="middle" x="1378" y="-155.88" font-family="Arial" font-size="12.00">frequency: (440.0, None)</text>
<polyline fill="none" stroke="black" stroke-width="2" points="1304,-148.48 1452,-148.48 "/>
<text text-anchor="middle" x="1378" y="-134.88" font-family="Arial" font-size="12.00">gate: (1.0, None)</text>
<polyline fill="none" stroke="black" stroke-width="2" points="1304,-127.48 1452,-127.48 "/>
<text text-anchor="middle" x="1378" y="-113.88" font-family="Arial" font-size="12.00">out: (0.0, None)</text>
<polyline fill="none" stroke="black" stroke-width="2" points="1304,-106.48 1452,-106.48 "/>
<text text-anchor="middle" x="1378" y="-92.88" font-family="Arial" font-size="12.00">pan: (0.5, None)</text>
</g>
<!-- node_4_0_0&#45;&gt;node_5_0_0 -->
<g id="edge18" class="edge">
<title>node_4_0_0:f_0_0_0&#45;&gt;node_5_0_0:f_0_0_0</title>
<path fill="none" stroke="black" stroke-width="2" d="M940,-455.98C1020.71,-455.98 982.93,-357.73 1048,-309.98 1141.82,-241.12 1180.8,-223.02 1292.67,-222.02"/>
<polygon fill="black" stroke="black" stroke-width="2" points="1293.02,-225.52 1303,-221.98 1292.98,-218.52 1293.02,-225.52"/>
</g>
<!-- node_4_0_1&#45;&gt;node_4_0_2 -->
<g id="edge7" class="edge">
<title>node_4_0_1&#45;&gt;node_4_0_2</title>
<path fill="none" stroke="black" stroke-width="2" d="M1196.13,-392.98C1226.67,-392.98 1262.33,-392.98 1293.87,-392.98"/>
<polygon fill="black" stroke="black" stroke-width="2" points="1293.95,-396.48 1303.95,-392.98 1293.95,-389.48 1293.95,-396.48"/>
</g>
<!-- node_5_0_2 -->
<g id="node14" class="node">
<title>node_5_0_2</title>
<path fill="lightgrey" stroke="black" stroke-width="2" d="M1828,-85.48C1828,-85.48 1952,-85.48 1952,-85.48 1958,-85.48 1964,-91.48 1964,-97.48 1964,-97.48 1964,-220.48 1964,-220.48 1964,-226.48 1958,-232.48 1952,-232.48 1952,-232.48 1828,-232.48 1828,-232.48 1822,-232.48 1816,-226.48 1816,-220.48 1816,-220.48 1816,-97.48 1816,-97.48 1816,-91.48 1822,-85.48 1828,-85.48"/>
<text text-anchor="middle" x="1890" y="-218.88" font-family="Arial" font-size="12.00">[1002]</text>
<polyline fill="none" stroke="black" stroke-width="2" points="1816,-211.48 1964,-211.48 "/>
<text text-anchor="middle" x="1890" y="-197.88" font-family="Arial" font-size="12.00">default</text>
<polyline fill="none" stroke="black" stroke-width="2" points="1816,-190.48 1964,-190.48 "/>
<text text-anchor="middle" x="1890" y="-176.88" font-family="Arial" font-size="12.00">amplitude: (0.1, None)</text>
<polyline fill="none" stroke="black" stroke-width="2" points="1816,-169.48 1964,-169.48 "/>
<text text-anchor="middle" x="1890" y="-155.88" font-family="Arial" font-size="12.00">frequency: (440.0, None)</text>
<polyline fill="none" stroke="black" stroke-width="2" points="1816,-148.48 1964,-148.48 "/>
<text text-anchor="middle" x="1890" y="-134.88" font-family="Arial" font-size="12.00">gate: (1.0, None)</text>
<polyline fill="none" stroke="black" stroke-width="2" points="1816,-127.48 1964,-127.48 "/>
<text text-anchor="middle" x="1890" y="-113.88" font-family="Arial" font-size="12.00">out: (0.0, None)</text>
<polyline fill="none" stroke="black" stroke-width="2" points="1816,-106.48 1964,-106.48 "/>
<text text-anchor="middle" x="1890" y="-92.88" font-family="Arial" font-size="12.00">pan: (0.5, None)</text>
</g>
<!-- node_4_0_1&#45;&gt;node_5_0_2 -->
<g id="edge19" class="edge">
<title>node_4_0_1:f_0_0_0&#45;&gt;node_5_0_2:f_0_0_0</title>
<path fill="none" stroke="black" stroke-width="2" d="M1197,-455.98C1370.66,-455.98 1151.65,-183.53 1288,-75.98 1434.56,39.63 1541.5,8.42 1708,-75.98 1776.53,-110.72 1738.38,-212.28 1804.9,-221.33"/>
<polygon fill="black" stroke="black" stroke-width="2" points="1804.8,-224.83 1815,-221.98 1805.24,-217.85 1804.8,-224.83"/>
</g>
<!-- node_5_0_1 -->
<g id="node13" class="node">
<title>node_5_0_1</title>
<path fill="lightgrey" stroke="black" stroke-width="2" d="M1572,-85.48C1572,-85.48 1696,-85.48 1696,-85.48 1702,-85.48 1708,-91.48 1708,-97.48 1708,-97.48 1708,-220.48 1708,-220.48 1708,-226.48 1702,-232.48 1696,-232.48 1696,-232.48 1572,-232.48 1572,-232.48 1566,-232.48 1560,-226.48 1560,-220.48 1560,-220.48 1560,-97.48 1560,-97.48 1560,-91.48 1566,-85.48 1572,-85.48"/>
<text text-anchor="middle" x="1634" y="-218.88" font-family="Arial" font-size="12.00">[1001]</text>
<polyline fill="none" stroke="black" stroke-width="2" points="1560,-211.48 1708,-211.48 "/>
<text text-anchor="middle" x="1634" y="-197.88" font-family="Arial" font-size="12.00">default</text>
<polyline fill="none" stroke="black" stroke-width="2" points="1560,-190.48 1708,-190.48 "/>
<text text-anchor="middle" x="1634" y="-176.88" font-family="Arial" font-size="12.00">amplitude: (0.1, None)</text>
<polyline fill="none" stroke="black" stroke-width="2" points="1560,-169.48 1708,-169.48 "/>
<text text-anchor="middle" x="1634" y="-155.88" font-family="Arial" font-size="12.00">frequency: (440.0, None)</text>
<polyline fill="none" stroke="black" stroke-width="2" points="1560,-148.48 1708,-148.48 "/>
<text text-anchor="middle" x="1634" y="-134.88" font-family="Arial" font-size="12.00">gate: (1.0, None)</text>
<polyline fill="none" stroke="black" stroke-width="2" points="1560,-127.48 1708,-127.48 "/>
<text text-anchor="middle" x="1634" y="-113.88" font-family="Arial" font-size="12.00">out: (0.0, None)</text>
<polyline fill="none" stroke="black" stroke-width="2" points="1560,-106.48 1708,-106.48 "/>
<text text-anchor="middle" x="1634" y="-92.88" font-family="Arial" font-size="12.00">pan: (0.5, None)</text>
</g>
<!-- node_4_0_2&#45;&gt;node_5_0_1 -->
<g id="edge20" class="edge">
<title>node_4_0_2:f_0_0_0&#45;&gt;node_5_0_1:f_0_0_0</title>
<path fill="none" stroke="black" stroke-width="2" d="M1453,-455.98C1563.78,-455.98 1453.02,-236.37 1549.96,-222.65"/>
<polygon fill="black" stroke="black" stroke-width="2" points="1550.26,-226.14 1560,-221.98 1549.79,-219.15 1550.26,-226.14"/>
</g>
<!-- node_5_0_0&#45;&gt;node_5_0_1 -->
<g id="edge8" class="edge">
<title>node_5_0_0&#45;&gt;node_5_0_1</title>
<path fill="none" stroke="black" stroke-width="2" d="M1452.13,-158.98C1482.67,-158.98 1518.33,-158.98 1549.87,-158.98"/>
<polygon fill="black" stroke="black" stroke-width="2" points="1549.95,-162.48 1559.95,-158.98 1549.95,-155.48 1549.95,-162.48"/>
</g>
<!-- node_5_0_1&#45;&gt;node_5_0_2 -->
<g id="edge9" class="edge">
<title>node_5_0_1&#45;&gt;node_5_0_2</title>
<path fill="none" stroke="black" stroke-width="2" d="M1708.13,-158.98C1738.67,-158.98 1774.33,-158.98 1805.87,-158.98"/>
<polygon fill="black" stroke="black" stroke-width="2" points="1805.95,-162.48 1815.95,-158.98 1805.95,-155.48 1805.95,-162.48"/>
</g>
<!-- node_6_0_0 -->
<g id="node15" class="node">
<title>node_6_0_0</title>
<path fill="lightgrey" stroke="black" stroke-width="2" d="M1828,-319.48C1828,-319.48 1952,-319.48 1952,-319.48 1958,-319.48 1964,-325.48 1964,-331.48 1964,-331.48 1964,-454.48 1964,-454.48 1964,-460.48 1958,-466.48 1952,-466.48 1952,-466.48 1828,-466.48 1828,-466.48 1822,-466.48 1816,-460.48 1816,-454.48 1816,-454.48 1816,-331.48 1816,-331.48 1816,-325.48 1822,-319.48 1828,-319.48"/>
<text text-anchor="middle" x="1890" y="-452.88" font-family="Arial" font-size="12.00">[1001]</text>
<polyline fill="none" stroke="black" stroke-width="2" points="1816,-445.48 1964,-445.48 "/>
<text text-anchor="middle" x="1890" y="-431.88" font-family="Arial" font-size="12.00">default</text>
<polyline fill="none" stroke="black" stroke-width="2" points="1816,-424.48 1964,-424.48 "/>
<text text-anchor="middle" x="1890" y="-410.88" font-family="Arial" font-size="12.00">amplitude: (0.1, None)</text>
<polyline fill="none" stroke="black" stroke-width="2" points="1816,-403.48 1964,-403.48 "/>
<text text-anchor="middle" x="1890" y="-389.88" font-family="Arial" font-size="12.00">frequency: (440.0, None)</text>
<polyline fill="none" stroke="black" stroke-width="2" points="1816,-382.48 1964,-382.48 "/>
<text text-anchor="middle" x="1890" y="-368.88" font-family="Arial" font-size="12.00">gate: (1.0, None)</text>
<polyline fill="none" stroke="black" stroke-width="2" points="1816,-361.48 1964,-361.48 "/>
<text text-anchor="middle" x="1890" y="-347.88" font-family="Arial" font-size="12.00">out: (0.0, None)</text>
<polyline fill="none" stroke="black" stroke-width="2" points="1816,-340.48 1964,-340.48 "/>
<text text-anchor="middle" x="1890" y="-326.88" font-family="Arial" font-size="12.00">pan: (0.5, None)</text>
</g>
<!-- node_5_0_1&#45;&gt;node_6_0_0 -->
<g id="edge21" class="edge">
<title>node_5_0_1:f_0_0_0&#45;&gt;node_6_0_0:f_0_0_0</title>
<path fill="none" stroke="black" stroke-width="2" d="M1708,-221.98C1818.78,-221.98 1708.02,-441.58 1804.96,-455.31"/>
<polygon fill="black" stroke="black" stroke-width="2" points="1804.79,-458.8 1815,-455.98 1805.26,-451.82 1804.79,-458.8"/>
</g>
<!-- node_6_0_1 -->
<g id="node16" class="node">
<title>node_6_0_1</title>
<path fill="lightgrey" stroke="black" stroke-width="2" d="M2084,-319.48C2084,-319.48 2208,-319.48 2208,-319.48 2214,-319.48 2220,-325.48 2220,-331.48 2220,-331.48 2220,-454.48 2220,-454.48 2220,-460.48 2214,-466.48 2208,-466.48 2208,-466.48 2084,-466.48 2084,-466.48 2078,-466.48 2072,-460.48 2072,-454.48 2072,-454.48 2072,-331.48 2072,-331.48 2072,-325.48 2078,-319.48 2084,-319.48"/>
<text text-anchor="middle" x="2146" y="-452.88" font-family="Arial" font-size="12.00">[1002]</text>
<polyline fill="none" stroke="black" stroke-width="2" points="2072,-445.48 2220,-445.48 "/>
<text text-anchor="middle" x="2146" y="-431.88" font-family="Arial" font-size="12.00">default</text>
<polyline fill="none" stroke="black" stroke-width="2" points="2072,-424.48 2220,-424.48 "/>
<text text-anchor="middle" x="2146" y="-410.88" font-family="Arial" font-size="12.00">amplitude: (0.1, None)</text>
<polyline fill="none" stroke="black" stroke-width="2" points="2072,-403.48 2220,-403.48 "/>
<text text-anchor="middle" x="2146" y="-389.88" font-family="Arial" font-size="12.00">frequency: (440.0, None)</text>
<polyline fill="none" stroke="black" stroke-width="2" points="2072,-382.48 2220,-382.48 "/>
<text text-anchor="middle" x="2146" y="-368.88" font-family="Arial" font-size="12.00">gate: (1.0, None)</text>
<polyline fill="none" stroke="black" stroke-width="2" points="2072,-361.48 2220,-361.48 "/>
<text text-anchor="middle" x="2146" y="-347.88" font-family="Arial" font-size="12.00">out: (0.0, None)</text>
<polyline fill="none" stroke="black" stroke-width="2" points="2072,-340.48 2220,-340.48 "/>
<text text-anchor="middle" x="2146" y="-326.88" font-family="Arial" font-size="12.00">pan: (0.5, None)</text>
</g>
<!-- node_5_0_2&#45;&gt;node_6_0_1 -->
<g id="edge22" class="edge">
<title>node_5_0_2:f_0_0_0&#45;&gt;node_6_0_1:f_0_0_0</title>
<path fill="none" stroke="black" stroke-width="2" d="M1965,-221.98C2075.78,-221.98 1965.02,-441.58 2061.96,-455.31"/>
<polygon fill="black" stroke="black" stroke-width="2" points="2061.79,-458.8 2072,-455.98 2062.26,-451.82 2061.79,-458.8"/>
</g>
<!-- node_6_0_0&#45;&gt;node_6_0_1 -->
<g id="edge10" class="edge">
<title>node_6_0_0&#45;&gt;node_6_0_1</title>
<path fill="none" stroke="black" stroke-width="2" d="M1964.13,-392.98C1994.67,-392.98 2030.33,-392.98 2061.87,-392.98"/>
<polygon fill="black" stroke="black" stroke-width="2" points="2061.95,-396.48 2071.95,-392.98 2061.95,-389.48 2061.95,-396.48"/>
</g>
<!-- node_7_0_0 -->
<g id="node17" class="node">
<title>node_7_0_0</title>
<path fill="lightgrey" stroke="black" stroke-width="2" d="M2340,-319.48C2340,-319.48 2464,-319.48 2464,-319.48 2470,-319.48 2476,-325.48 2476,-331.48 2476,-331.48 2476,-454.48 2476,-454.48 2476,-460.48 2470,-466.48 2464,-466.48 2464,-466.48 2340,-466.48 2340,-466.48 2334,-466.48 2328,-460.48 2328,-454.48 2328,-454.48 2328,-331.48 2328,-331.48 2328,-325.48 2334,-319.48 2340,-319.48"/>
<text text-anchor="middle" x="2402" y="-452.88" font-family="Arial" font-size="12.00">[1002]</text>
<polyline fill="none" stroke="black" stroke-width="2" points="2328,-445.48 2476,-445.48 "/>
<text text-anchor="middle" x="2402" y="-431.88" font-family="Arial" font-size="12.00">default</text>
<polyline fill="none" stroke="black" stroke-width="2" points="2328,-424.48 2476,-424.48 "/>
<text text-anchor="middle" x="2402" y="-410.88" font-family="Arial" font-size="12.00">amplitude: (0.1, None)</text>
<polyline fill="none" stroke="black" stroke-width="2" points="2328,-403.48 2476,-403.48 "/>
<text text-anchor="middle" x="2402" y="-389.88" font-family="Arial" font-size="12.00">frequency: (440.0, None)</text>
<polyline fill="none" stroke="black" stroke-width="2" points="2328,-382.48 2476,-382.48 "/>
<text text-anchor="middle" x="2402" y="-368.88" font-family="Arial" font-size="12.00">gate: (1.0, None)</text>
<polyline fill="none" stroke="black" stroke-width="2" points="2328,-361.48 2476,-361.48 "/>
<text text-anchor="middle" x="2402" y="-347.88" font-family="Arial" font-size="12.00">out: (0.0, None)</text>
<polyline fill="none" stroke="black" stroke-width="2" points="2328,-340.48 2476,-340.48 "/>
<text text-anchor="middle" x="2402" y="-326.88" font-family="Arial" font-size="12.00">pan: (0.5, None)</text>
</g>
<!-- node_6_0_1&#45;&gt;node_7_0_0 -->
<g id="edge23" class="edge">
<title>node_6_0_1:f_0_0_0&#45;&gt;node_7_0_0:f_0_0_0</title>
<path fill="none" stroke="black" stroke-width="2" d="M2221,-455.98C2264.43,-455.98 2277.83,-455.98 2316.57,-455.98"/>
<polygon fill="black" stroke="black" stroke-width="2" points="2317,-459.48 2327,-455.98 2317,-452.48 2317,-459.48"/>
</g>
</g>
</svg>
