<?xml version="1.0" encoding="UTF-8" standalone="no"?>
<!DOCTYPE svg PUBLIC "-//W3C//DTD SVG 1.1//EN"
 "http://www.w3.org/Graphics/SVG/1.1/DTD/svg11.dtd">
<!-- Generated by graphviz version 2.43.0 (0)
 -->
<!-- Title: synthdef_02392c193be8e99778d5f4fbfc5abf48 Pages: 1 -->
<svg width="998pt" height="475pt"
 viewBox="0.00 0.00 998.00 475.00" xmlns="http://www.w3.org/2000/svg" xmlns:xlink="http://www.w3.org/1999/xlink">
<g id="graph0" class="graph" transform="scale(1 1) rotate(0) translate(4 471)">
<title>synthdef_02392c193be8e99778d5f4fbfc5abf48</title>
<!-- ugen_0&#45;&gt;ugen_1 -->
<g id="edge1" class="edge">
<title>ugen_0:e&#45;&gt;ugen_1:w</title>
<path fill="none" stroke="salmon" stroke-width="2" d="M56,-415.5C93.9,-415.5 99.97,-385.68 132.15,-380.32"/>
<polygon fill="salmon" stroke="salmon" stroke-width="2" points="132.81,-383.78 142.5,-379.5 132.25,-376.8 132.81,-383.78"/>
</g>
<!-- ugen_0&#45;&gt;ugen_10 -->
<g id="edge2" class="edge">
<title>ugen_0:e&#45;&gt;ugen_10:w</title>
<path fill="none" stroke="salmon" stroke-width="2" d="M56,-415.5C88.98,-415.5 95.48,-428 128,-433.5 220.84,-449.19 244.84,-452.5 339,-452.5 339,-452.5 339,-452.5 542,-452.5 711.19,-452.5 750.67,-389.18 914.54,-386.58"/>
<polygon fill="salmon" stroke="salmon" stroke-width="2" points="915.03,-390.08 925,-386.5 914.97,-383.08 915.03,-390.08"/>
</g>
<!-- ugen_1&#45;&gt;ugen_3 -->
<g id="edge3" class="edge">
<title>ugen_1:e&#45;&gt;ugen_3:w</title>
<path fill="none" stroke="steelblue" stroke-width="2" d="M204.5,-379.5C239.73,-379.5 250.22,-368.82 280.81,-366.82"/>
<polygon fill="steelblue" stroke="steelblue" stroke-width="2" points="281.12,-370.31 291,-366.5 280.89,-363.32 281.12,-370.31"/>
</g>
<!-- ugen_2&#45;&gt;ugen_3 -->
<g id="edge4" class="edge">
<title>ugen_2:e&#45;&gt;ugen_3:w</title>
<path fill="none" stroke="steelblue" stroke-width="2" d="M219,-298.5C253.48,-298.5 253.24,-336.77 280.94,-344.24"/>
<polygon fill="steelblue" stroke="steelblue" stroke-width="2" points="280.64,-347.73 291,-345.5 281.51,-340.79 280.64,-347.73"/>
</g>
<!-- ugen_3&#45;&gt;ugen_6 -->
<g id="edge5" class="edge">
<title>ugen_3:e&#45;&gt;ugen_6:w</title>
<path fill="none" stroke="steelblue" stroke-width="2" d="M389,-355.5C419.3,-355.5 425.75,-334.88 450.84,-330.37"/>
<polygon fill="steelblue" stroke="steelblue" stroke-width="2" points="451.33,-333.84 461,-329.5 450.74,-326.86 451.33,-333.84"/>
</g>
<!-- ugen_4&#45;&gt;ugen_6 -->
<g id="edge6" class="edge">
<title>ugen_4:e&#45;&gt;ugen_6:w</title>
<path fill="none" stroke="salmon" stroke-width="2" d="M388,-126.5C449.29,-126.5 402.18,-239.05 450.77,-252.24"/>
<polygon fill="salmon" stroke="salmon" stroke-width="2" points="450.65,-255.75 461,-253.5 451.5,-248.81 450.65,-255.75"/>
</g>
<!-- ugen_5&#45;&gt;ugen_6 -->
<g id="edge7" class="edge">
<title>ugen_5:e&#45;&gt;ugen_6:w</title>
<path fill="none" stroke="salmon" stroke-width="2" d="M388,-247.5C418.94,-247.5 425.26,-269.11 451.01,-273.66"/>
<polygon fill="salmon" stroke="salmon" stroke-width="2" points="450.74,-277.15 461,-274.5 451.33,-270.18 450.74,-277.15"/>
</g>
<!-- ugen_6&#45;&gt;ugen_9 -->
<g id="edge8" class="edge">
<title>ugen_6:e&#45;&gt;ugen_9:w</title>
<path fill="none" stroke="steelblue" stroke-width="2" d="M621,-291.5C654.08,-291.5 656.11,-258.41 682.89,-251.68"/>
<polygon fill="steelblue" stroke="steelblue" stroke-width="2" points="683.47,-255.14 693,-250.5 682.66,-248.19 683.47,-255.14"/>
</g>
<!-- ugen_7&#45;&gt;ugen_9 -->
<g id="edge9" class="edge">
<title>ugen_7:e&#45;&gt;ugen_9:w</title>
<path fill="none" stroke="salmon" stroke-width="2" d="M589,-34.5C662.88,-34.5 619.99,-161.68 682.92,-173.61"/>
<polygon fill="salmon" stroke="salmon" stroke-width="2" points="682.73,-177.1 693,-174.5 683.35,-170.13 682.73,-177.1"/>
</g>
<!-- ugen_8&#45;&gt;ugen_9 -->
<g id="edge10" class="edge">
<title>ugen_8:e&#45;&gt;ugen_9:w</title>
<path fill="none" stroke="salmon" stroke-width="2" d="M589,-155.5C634.94,-155.5 642.53,-189.93 682.93,-194.9"/>
<polygon fill="salmon" stroke="salmon" stroke-width="2" points="682.81,-198.4 693,-195.5 683.22,-191.41 682.81,-198.4"/>
</g>
<!-- ugen_9&#45;&gt;ugen_10 -->
<g id="edge11" class="edge">
<title>ugen_9:e&#45;&gt;ugen_10:w</title>
<path fill="none" stroke="steelblue" stroke-width="2" d="M853,-212.5C924.48,-212.5 857.13,-350.92 915.05,-364.44"/>
<polygon fill="steelblue" stroke="steelblue" stroke-width="2" points="914.69,-367.92 925,-365.5 915.43,-360.96 914.69,-367.92"/>
</g>
<!-- ugen_9&#45;&gt;ugen_11 -->
<g id="edge12" class="edge">
<title>ugen_9:e&#45;&gt;ugen_11:w</title>
<path fill="none" stroke="steelblue" stroke-width="2" d="M853,-212.5C881.38,-212.5 890.88,-212.5 914.98,-212.5"/>
<polygon fill="steelblue" stroke="steelblue" stroke-width="2" points="915,-216 925,-212.5 915,-209 915,-216"/>
</g>
<!-- ugen_0 -->
<g id="node1" class="node">
<title>ugen_0</title>
<path fill="#ee9572" stroke="black" stroke-width="2" d="M12,-398.5C12,-398.5 44,-398.5 44,-398.5 50,-398.5 56,-404.5 56,-410.5 56,-410.5 56,-454.5 56,-454.5 56,-460.5 50,-466.5 44,-466.5 44,-466.5 12,-466.5 12,-466.5 6,-466.5 0,-460.5 0,-454.5 0,-454.5 0,-410.5 0,-410.5 0,-404.5 6,-398.5 12,-398.5"/>
<text text-anchor="middle" x="28" y="-452.9" font-family="Arial" font-size="12.00">Control</text>
<text text-anchor="middle" x="28" y="-439.9" font-family="Arial" font-size="12.00">(scalar)</text>
<polyline fill="none" stroke="black" stroke-width="2" points="0,-432.5 56,-432.5 "/>
<text text-anchor="middle" x="28" y="-418.9" font-family="Arial" font-size="12.00">out:</text>
<text text-anchor="middle" x="28" y="-405.9" font-family="Arial" font-size="12.00">0.0</text>
</g>
<!-- ugen_1 -->
<g id="node2" class="node">
<title>ugen_1</title>
<path fill="#bcd2ee" stroke="black" stroke-width="2" d="M156,-369C156,-369 191,-369 191,-369 197,-369 203,-375 203,-381 203,-381 203,-412 203,-412 203,-418 197,-424 191,-424 191,-424 156,-424 156,-424 150,-424 144,-418 144,-412 144,-412 144,-381 144,-381 144,-375 150,-369 156,-369"/>
<text text-anchor="middle" x="173.5" y="-410.4" font-family="Arial" font-size="12.00">In</text>
<text text-anchor="middle" x="173.5" y="-397.4" font-family="Arial" font-size="12.00">(audio)</text>
<polyline fill="none" stroke="black" stroke-width="2" points="144,-390 203,-390 "/>
<text text-anchor="middle" x="162" y="-376.4" font-family="Arial" font-size="12.00">bus</text>
<polyline fill="none" stroke="black" stroke-width="2" points="180,-369 180,-390 "/>
<text text-anchor="middle" x="191.5" y="-376.4" font-family="Arial" font-size="12.00">0</text>
</g>
<!-- ugen_10 -->
<g id="node3" class="node">
<title>ugen_10</title>
<path fill="#bcd2ee" stroke="black" stroke-width="2" d="M937,-355.5C937,-355.5 978,-355.5 978,-355.5 984,-355.5 990,-361.5 990,-367.5 990,-367.5 990,-419.5 990,-419.5 990,-425.5 984,-431.5 978,-431.5 978,-431.5 937,-431.5 937,-431.5 931,-431.5 925,-425.5 925,-419.5 925,-419.5 925,-367.5 925,-367.5 925,-361.5 931,-355.5 937,-355.5"/>
<text text-anchor="middle" x="957.5" y="-417.9" font-family="Arial" font-size="12.00">Out</text>
<text text-anchor="middle" x="957.5" y="-404.9" font-family="Arial" font-size="12.00">(audio)</text>
<polyline fill="none" stroke="black" stroke-width="2" points="925,-397.5 990,-397.5 "/>
<text text-anchor="middle" x="957.5" y="-383.9" font-family="Arial" font-size="12.00">bus</text>
<polyline fill="none" stroke="black" stroke-width="2" points="925,-376.5 990,-376.5 "/>
<text text-anchor="middle" x="957.5" y="-362.9" font-family="Arial" font-size="12.00">source[0]</text>
</g>
<!-- ugen_11 -->
<g id="node4" class="node">
<title>ugen_11</title>
<path fill="#bcd2ee" stroke="black" stroke-width="2" d="M937,-202C937,-202 978,-202 978,-202 984,-202 990,-208 990,-214 990,-214 990,-245 990,-245 990,-251 984,-257 978,-257 978,-257 937,-257 937,-257 931,-257 925,-251 925,-245 925,-245 925,-214 925,-214 925,-208 931,-202 937,-202"/>
<text text-anchor="middle" x="957.5" y="-243.4" font-family="Arial" font-size="12.00">LocalOut</text>
<text text-anchor="middle" x="957.5" y="-230.4" font-family="Arial" font-size="12.00">(audio)</text>
<polyline fill="none" stroke="black" stroke-width="2" points="925,-223 990,-223 "/>
<text text-anchor="middle" x="957.5" y="-209.4" font-family="Arial" font-size="12.00">source[0]</text>
</g>
<!-- ugen_2 -->
<g id="node5" class="node">
<title>ugen_2</title>
<path fill="#bcd2ee" stroke="black" stroke-width="2" d="M140,-281.5C140,-281.5 207,-281.5 207,-281.5 213,-281.5 219,-287.5 219,-293.5 219,-293.5 219,-337.5 219,-337.5 219,-343.5 213,-349.5 207,-349.5 207,-349.5 140,-349.5 140,-349.5 134,-349.5 128,-343.5 128,-337.5 128,-337.5 128,-293.5 128,-293.5 128,-287.5 134,-281.5 140,-281.5"/>
<text text-anchor="middle" x="173.5" y="-335.9" font-family="Arial" font-size="12.00">LocalIn</text>
<text text-anchor="middle" x="173.5" y="-322.9" font-family="Arial" font-size="12.00">(audio)</text>
<polyline fill="none" stroke="black" stroke-width="2" points="128,-315.5 219,-315.5 "/>
<text text-anchor="middle" x="162" y="-301.9" font-family="Arial" font-size="12.00">default[0]:</text>
<text text-anchor="middle" x="162" y="-288.9" font-family="Arial" font-size="12.00">0.0</text>
<polyline fill="none" stroke="black" stroke-width="2" points="196,-281.5 196,-315.5 "/>
<text text-anchor="middle" x="207.5" y="-295.4" font-family="Arial" font-size="12.00">0</text>
</g>
<!-- ugen_3 -->
<g id="node6" class="node">
<title>ugen_3</title>
<path fill="#bcd2ee" stroke="black" stroke-width="2" d="M303,-335C303,-335 377,-335 377,-335 383,-335 389,-341 389,-347 389,-347 389,-412 389,-412 389,-418 383,-424 377,-424 377,-424 303,-424 303,-424 297,-424 291,-418 291,-412 291,-412 291,-347 291,-347 291,-341 297,-335 303,-335"/>
<text text-anchor="middle" x="340" y="-410.4" font-family="Arial" font-size="12.00">BinaryOpUGen</text>
<text text-anchor="middle" x="340" y="-397.4" font-family="Arial" font-size="12.00">[ADDITION]</text>
<text text-anchor="middle" x="340" y="-384.4" font-family="Arial" font-size="12.00">(audio)</text>
<polyline fill="none" stroke="black" stroke-width="2" points="291,-377 389,-377 "/>
<text text-anchor="middle" x="319.5" y="-363.4" font-family="Arial" font-size="12.00">left</text>
<polyline fill="none" stroke="black" stroke-width="2" points="291,-356 348,-356 "/>
<text text-anchor="middle" x="319.5" y="-342.4" font-family="Arial" font-size="12.00">right</text>
<polyline fill="none" stroke="black" stroke-width="2" points="348,-335 348,-377 "/>
<text text-anchor="middle" x="368.5" y="-352.9" font-family="Arial" font-size="12.00">0</text>
</g>
<!-- ugen_4 -->
<g id="node7" class="node">
<title>ugen_4</title>
<path fill="#ee9572" stroke="black" stroke-width="2" d="M305,-92.5C305,-92.5 375,-92.5 375,-92.5 381,-92.5 387,-98.5 387,-104.5 387,-104.5 387,-182.5 387,-182.5 387,-188.5 381,-194.5 375,-194.5 375,-194.5 305,-194.5 305,-194.5 299,-194.5 293,-188.5 293,-182.5 293,-182.5 293,-104.5 293,-104.5 293,-98.5 299,-92.5 305,-92.5"/>
<text text-anchor="middle" x="340" y="-180.9" font-family="Arial" font-size="12.00">ExpRand</text>
<text text-anchor="middle" x="340" y="-167.9" font-family="Arial" font-size="12.00">(scalar)</text>
<polyline fill="none" stroke="black" stroke-width="2" points="293,-160.5 387,-160.5 "/>
<text text-anchor="middle" x="328.5" y="-146.9" font-family="Arial" font-size="12.00">minimum:</text>
<text text-anchor="middle" x="328.5" y="-133.9" font-family="Arial" font-size="12.00">0.01</text>
<polyline fill="none" stroke="black" stroke-width="2" points="293,-126.5 364,-126.5 "/>
<text text-anchor="middle" x="328.5" y="-112.9" font-family="Arial" font-size="12.00">maximum:</text>
<text text-anchor="middle" x="328.5" y="-99.9" font-family="Arial" font-size="12.00">0.1</text>
<polyline fill="none" stroke="black" stroke-width="2" points="364,-92.5 364,-160.5 "/>
<text text-anchor="middle" x="375.5" y="-123.4" font-family="Arial" font-size="12.00">0</text>
</g>
<!-- ugen_5 -->
<g id="node8" class="node">
<title>ugen_5</title>
<path fill="#ee9572" stroke="black" stroke-width="2" d="M305,-213.5C305,-213.5 375,-213.5 375,-213.5 381,-213.5 387,-219.5 387,-225.5 387,-225.5 387,-303.5 387,-303.5 387,-309.5 381,-315.5 375,-315.5 375,-315.5 305,-315.5 305,-315.5 299,-315.5 293,-309.5 293,-303.5 293,-303.5 293,-225.5 293,-225.5 293,-219.5 299,-213.5 305,-213.5"/>
<text text-anchor="middle" x="340" y="-301.9" font-family="Arial" font-size="12.00">ExpRand</text>
<text text-anchor="middle" x="340" y="-288.9" font-family="Arial" font-size="12.00">(scalar)</text>
<polyline fill="none" stroke="black" stroke-width="2" points="293,-281.5 387,-281.5 "/>
<text text-anchor="middle" x="328.5" y="-267.9" font-family="Arial" font-size="12.00">minimum:</text>
<text text-anchor="middle" x="328.5" y="-254.9" font-family="Arial" font-size="12.00">0.01</text>
<polyline fill="none" stroke="black" stroke-width="2" points="293,-247.5 364,-247.5 "/>
<text text-anchor="middle" x="328.5" y="-233.9" font-family="Arial" font-size="12.00">maximum:</text>
<text text-anchor="middle" x="328.5" y="-220.9" font-family="Arial" font-size="12.00">0.1</text>
<polyline fill="none" stroke="black" stroke-width="2" points="364,-213.5 364,-281.5 "/>
<text text-anchor="middle" x="375.5" y="-244.4" font-family="Arial" font-size="12.00">0</text>
</g>
<!-- ugen_6 -->
<g id="node9" class="node">
<title>ugen_6</title>
<path fill="#bcd2ee" stroke="black" stroke-width="2" d="M473,-243C473,-243 609,-243 609,-243 615,-243 621,-249 621,-255 621,-255 621,-362 621,-362 621,-368 615,-374 609,-374 609,-374 473,-374 473,-374 467,-374 461,-368 461,-362 461,-362 461,-255 461,-255 461,-249 467,-243 473,-243"/>
<text text-anchor="middle" x="541" y="-360.4" font-family="Arial" font-size="12.00">AllpassC</text>
<text text-anchor="middle" x="541" y="-347.4" font-family="Arial" font-size="12.00">(audio)</text>
<polyline fill="none" stroke="black" stroke-width="2" points="461,-340 621,-340 "/>
<text text-anchor="middle" x="529.5" y="-326.4" font-family="Arial" font-size="12.00">source</text>
<polyline fill="none" stroke="black" stroke-width="2" points="461,-319 598,-319 "/>
<text text-anchor="middle" x="529.5" y="-305.4" font-family="Arial" font-size="12.00">maximum_delay_time:</text>
<text text-anchor="middle" x="529.5" y="-292.4" font-family="Arial" font-size="12.00">0.1</text>
<polyline fill="none" stroke="black" stroke-width="2" points="461,-285 598,-285 "/>
<text text-anchor="middle" x="529.5" y="-271.4" font-family="Arial" font-size="12.00">delay_time</text>
<polyline fill="none" stroke="black" stroke-width="2" points="461,-264 598,-264 "/>
<text text-anchor="middle" x="529.5" y="-250.4" font-family="Arial" font-size="12.00">decay_time</text>
<polyline fill="none" stroke="black" stroke-width="2" points="598,-243 598,-340 "/>
<text text-anchor="middle" x="609.5" y="-288.4" font-family="Arial" font-size="12.00">0</text>
</g>
<!-- ugen_7 -->
<g id="node10" class="node">
<title>ugen_7</title>
<path fill="#ee9572" stroke="black" stroke-width="2" d="M506,-0.5C506,-0.5 576,-0.5 576,-0.5 582,-0.5 588,-6.5 588,-12.5 588,-12.5 588,-90.5 588,-90.5 588,-96.5 582,-102.5 576,-102.5 576,-102.5 506,-102.5 506,-102.5 500,-102.5 494,-96.5 494,-90.5 494,-90.5 494,-12.5 494,-12.5 494,-6.5 500,-0.5 506,-0.5"/>
<text text-anchor="middle" x="541" y="-88.9" font-family="Arial" font-size="12.00">ExpRand</text>
<text text-anchor="middle" x="541" y="-75.9" font-family="Arial" font-size="12.00">(scalar)</text>
<polyline fill="none" stroke="black" stroke-width="2" points="494,-68.5 588,-68.5 "/>
<text text-anchor="middle" x="529.5" y="-54.9" font-family="Arial" font-size="12.00">minimum:</text>
<text text-anchor="middle" x="529.5" y="-41.9" font-family="Arial" font-size="12.00">0.01</text>
<polyline fill="none" stroke="black" stroke-width="2" points="494,-34.5 565,-34.5 "/>
<text text-anchor="middle" x="529.5" y="-20.9" font-family="Arial" font-size="12.00">maximum:</text>
<text text-anchor="middle" x="529.5" y="-7.9" font-family="Arial" font-size="12.00">0.1</text>
<polyline fill="none" stroke="black" stroke-width="2" points="565,-0.5 565,-68.5 "/>
<text text-anchor="middle" x="576.5" y="-31.4" font-family="Arial" font-size="12.00">0</text>
</g>
<!-- ugen_8 -->
<g id="node11" class="node">
<title>ugen_8</title>
<path fill="#ee9572" stroke="black" stroke-width="2" d="M506,-121.5C506,-121.5 576,-121.5 576,-121.5 582,-121.5 588,-127.5 588,-133.5 588,-133.5 588,-211.5 588,-211.5 588,-217.5 582,-223.5 576,-223.5 576,-223.5 506,-223.5 506,-223.5 500,-223.5 494,-217.5 494,-211.5 494,-211.5 494,-133.5 494,-133.5 494,-127.5 500,-121.5 506,-121.5"/>
<text text-anchor="middle" x="541" y="-209.9" font-family="Arial" font-size="12.00">ExpRand</text>
<text text-anchor="middle" x="541" y="-196.9" font-family="Arial" font-size="12.00">(scalar)</text>
<polyline fill="none" stroke="black" stroke-width="2" points="494,-189.5 588,-189.5 "/>
<text text-anchor="middle" x="529.5" y="-175.9" font-family="Arial" font-size="12.00">minimum:</text>
<text text-anchor="middle" x="529.5" y="-162.9" font-family="Arial" font-size="12.00">0.01</text>
<polyline fill="none" stroke="black" stroke-width="2" points="494,-155.5 565,-155.5 "/>
<text text-anchor="middle" x="529.5" y="-141.9" font-family="Arial" font-size="12.00">maximum:</text>
<text text-anchor="middle" x="529.5" y="-128.9" font-family="Arial" font-size="12.00">0.1</text>
<polyline fill="none" stroke="black" stroke-width="2" points="565,-121.5 565,-189.5 "/>
<text text-anchor="middle" x="576.5" y="-152.4" font-family="Arial" font-size="12.00">0</text>
</g>
<!-- ugen_9 -->
<g id="node12" class="node">
<title>ugen_9</title>
<path fill="#bcd2ee" stroke="black" stroke-width="2" d="M705,-164C705,-164 841,-164 841,-164 847,-164 853,-170 853,-176 853,-176 853,-283 853,-283 853,-289 847,-295 841,-295 841,-295 705,-295 705,-295 699,-295 693,-289 693,-283 693,-283 693,-176 693,-176 693,-170 699,-164 705,-164"/>
<text text-anchor="middle" x="773" y="-281.4" font-family="Arial" font-size="12.00">AllpassC</text>
<text text-anchor="middle" x="773" y="-268.4" font-family="Arial" font-size="12.00">(audio)</text>
<polyline fill="none" stroke="black" stroke-width="2" points="693,-261 853,-261 "/>
<text text-anchor="middle" x="761.5" y="-247.4" font-family="Arial" font-size="12.00">source</text>
<polyline fill="none" stroke="black" stroke-width="2" points="693,-240 830,-240 "/>
<text text-anchor="middle" x="761.5" y="-226.4" font-family="Arial" font-size="12.00">maximum_delay_time:</text>
<text text-anchor="middle" x="761.5" y="-213.4" font-family="Arial" font-size="12.00">0.1</text>
<polyline fill="none" stroke="black" stroke-width="2" points="693,-206 830,-206 "/>
<text text-anchor="middle" x="761.5" y="-192.4" font-family="Arial" font-size="12.00">delay_time</text>
<polyline fill="none" stroke="black" stroke-width="2" points="693,-185 830,-185 "/>
<text text-anchor="middle" x="761.5" y="-171.4" font-family="Arial" font-size="12.00">decay_time</text>
<polyline fill="none" stroke="black" stroke-width="2" points="830,-164 830,-261 "/>
<text text-anchor="middle" x="841.5" y="-209.4" font-family="Arial" font-size="12.00">0</text>
</g>
</g>
</svg>
