<?xml version="1.0" encoding="UTF-8" standalone="no"?>
<!DOCTYPE svg PUBLIC "-//W3C//DTD SVG 1.1//EN"
 "http://www.w3.org/Graphics/SVG/1.1/DTD/svg11.dtd">
<!-- Generated by graphviz version 2.40.1 (20161225.0304)
 -->
<!-- Title: synthdef_bfa60877061daf112516cc3ec8c7ff69 Pages: 1 -->
<svg width="228pt" height="111pt"
 viewBox="0.00 0.00 228.00 111.00" xmlns="http://www.w3.org/2000/svg" xmlns:xlink="http://www.w3.org/1999/xlink">
<g id="graph0" class="graph" transform="scale(1 1) rotate(0) translate(4 107)">
<title>synthdef_bfa60877061daf112516cc3ec8c7ff69</title>
<!-- ugen_0&#45;&gt;ugen_1 -->
<g id="edge1" class="edge">
<title>ugen_0:e&#45;&gt;ugen_1:w</title>
<path fill="none" stroke="#4682b4" stroke-width="2" d="M70,-44.5C98.375,-44.5 107.8795,-44.5 131.9792,-44.5"/>
<polygon fill="#4682b4" stroke="#4682b4" stroke-width="2" points="132,-48.0001 142,-44.5 132,-41.0001 132,-48.0001"/>
</g>
<!-- ugen_0 -->
<g id="node1" class="node">
<title>ugen_0</title>
<path fill="#bcd2ee" stroke="#000000" stroke-width="2" d="M12,-27.5C12,-27.5 58,-27.5 58,-27.5 64,-27.5 70,-33.5 70,-39.5 70,-39.5 70,-83.5 70,-83.5 70,-89.5 64,-95.5 58,-95.5 58,-95.5 12,-95.5 12,-95.5 6,-95.5 0,-89.5 0,-83.5 0,-83.5 0,-39.5 0,-39.5 0,-33.5 6,-27.5 12,-27.5"/>
<text text-anchor="middle" x="35" y="-81.9" font-family="Arial" font-size="12.00" fill="#000000">Dust</text>
<text text-anchor="middle" x="35" y="-68.9" font-family="Arial" font-size="12.00" fill="#000000">(audio)</text>
<polyline fill="none" stroke="#000000" stroke-width="2" points="0,-61.5 70,-61.5 "/>
<text text-anchor="middle" x="24" y="-47.9" font-family="Arial" font-size="12.00" fill="#000000">density:</text>
<text text-anchor="middle" x="24" y="-34.9" font-family="Arial" font-size="12.00" fill="#000000">11.5</text>
<polyline fill="none" stroke="#000000" stroke-width="2" points="48,-27.5 48,-61.5 "/>
<text text-anchor="middle" x="59" y="-41.4" font-family="Arial" font-size="12.00" fill="#000000">0</text>
</g>
<!-- ugen_1 -->
<g id="node2" class="node">
<title>ugen_1</title>
<path fill="#bcd2ee" stroke="#000000" stroke-width="2" d="M154,-.5C154,-.5 208,-.5 208,-.5 214,-.5 220,-6.5 220,-12.5 220,-12.5 220,-90.5 220,-90.5 220,-96.5 214,-102.5 208,-102.5 208,-102.5 154,-102.5 154,-102.5 148,-102.5 142,-96.5 142,-90.5 142,-90.5 142,-12.5 142,-12.5 142,-6.5 148,-.5 154,-.5"/>
<text text-anchor="middle" x="181" y="-88.9" font-family="Arial" font-size="12.00" fill="#000000">BinaryOpUGen</text>
<text text-anchor="middle" x="181" y="-75.9" font-family="Arial" font-size="12.00" fill="#000000">[MODULO]</text>
<text text-anchor="middle" x="181" y="-62.9" font-family="Arial" font-size="12.00" fill="#000000">(audio)</text>
<polyline fill="none" stroke="#000000" stroke-width="2" points="142,-55.5 220,-55.5 "/>
<text text-anchor="middle" x="165" y="-41.9" font-family="Arial" font-size="12.00" fill="#000000">left</text>
<polyline fill="none" stroke="#000000" stroke-width="2" points="142,-34.5 188,-34.5 "/>
<text text-anchor="middle" x="165" y="-20.9" font-family="Arial" font-size="12.00" fill="#000000">right:</text>
<text text-anchor="middle" x="165" y="-7.9" font-family="Arial" font-size="12.00" fill="#000000">4.0</text>
<polyline fill="none" stroke="#000000" stroke-width="2" points="188,-.5 188,-55.5 "/>
<text text-anchor="middle" x="204" y="-24.9" font-family="Arial" font-size="12.00" fill="#000000">0</text>
</g>
</g>
</svg>
