<?xml version="1.0" encoding="UTF-8" standalone="no"?>
<!DOCTYPE svg PUBLIC "-//W3C//DTD SVG 1.1//EN"
 "http://www.w3.org/Graphics/SVG/1.1/DTD/svg11.dtd">
<!-- Generated by graphviz version 2.49.1 (20210923.0004)
 -->
<!-- Title: synthdef_67098a4ddab35f6e1333a80a226bf559 Pages: 1 -->
<svg width="264pt" height="364pt"
 viewBox="0.00 0.00 264.00 363.50" xmlns="http://www.w3.org/2000/svg" xmlns:xlink="http://www.w3.org/1999/xlink">
<g id="graph0" class="graph" transform="scale(1 1) rotate(0) translate(4 359.5)">
<title>synthdef_67098a4ddab35f6e1333a80a226bf559</title>
<!-- ugen_0&#45;&gt;ugen_1 -->
<g id="edge1" class="edge">
<title>ugen_0:e&#45;&gt;ugen_1:w</title>
<path fill="none" stroke="steelblue" stroke-width="2" d="M96,-45C124.38,-45 133.88,-45 157.98,-45"/>
<polygon fill="steelblue" stroke="steelblue" stroke-width="2" points="158,-48.5 168,-45 158,-41.5 158,-48.5"/>
</g>
<!-- ugen_2&#45;&gt;ugen_3 -->
<g id="edge2" class="edge">
<title>ugen_2:e&#45;&gt;ugen_3:w</title>
<path fill="none" stroke="steelblue" stroke-width="2" d="M96,-166C124.38,-166 133.88,-166 157.98,-166"/>
<polygon fill="steelblue" stroke="steelblue" stroke-width="2" points="158,-169.5 168,-166 158,-162.5 158,-169.5"/>
</g>
<!-- ugen_4&#45;&gt;ugen_5 -->
<g id="edge3" class="edge">
<title>ugen_4:e&#45;&gt;ugen_5:w</title>
<path fill="none" stroke="steelblue" stroke-width="2" d="M96,-287C124.38,-287 133.88,-287 157.98,-287"/>
<polygon fill="steelblue" stroke="steelblue" stroke-width="2" points="158,-290.5 168,-287 158,-283.5 158,-290.5"/>
</g>
<!-- ugen_0 -->
<g id="node1" class="node">
<title>ugen_0</title>
<path fill="#bcd2ee" stroke="black" stroke-width="2" d="M12,-11C12,-11 84,-11 84,-11 90,-11 96,-17 96,-23 96,-23 96,-101 96,-101 96,-107 90,-113 84,-113 84,-113 12,-113 12,-113 6,-113 0,-107 0,-101 0,-101 0,-23 0,-23 0,-17 6,-11 12,-11"/>
<text text-anchor="middle" x="48" y="-99.4" font-family="Arial" font-size="12.00">SinOsc</text>
<text text-anchor="middle" x="48" y="-86.4" font-family="Arial" font-size="12.00">(audio)</text>
<polyline fill="none" stroke="black" stroke-width="2" points="0,-79 96,-79 "/>
<text text-anchor="middle" x="36.5" y="-65.4" font-family="Arial" font-size="12.00">frequency:</text>
<text text-anchor="middle" x="36.5" y="-52.4" font-family="Arial" font-size="12.00">440.0</text>
<polyline fill="none" stroke="black" stroke-width="2" points="0,-45 73,-45 "/>
<text text-anchor="middle" x="36.5" y="-31.4" font-family="Arial" font-size="12.00">phase:</text>
<text text-anchor="middle" x="36.5" y="-18.4" font-family="Arial" font-size="12.00">0.0</text>
<polyline fill="none" stroke="black" stroke-width="2" points="73,-11 73,-79 "/>
<text text-anchor="middle" x="84.5" y="-41.9" font-family="Arial" font-size="12.00">0</text>
</g>
<!-- ugen_1 -->
<g id="node2" class="node">
<title>ugen_1</title>
<path fill="#bcd2ee" stroke="black" stroke-width="2" d="M180,-0.5C180,-0.5 244,-0.5 244,-0.5 250,-0.5 256,-6.5 256,-12.5 256,-12.5 256,-77.5 256,-77.5 256,-83.5 250,-89.5 244,-89.5 244,-89.5 180,-89.5 180,-89.5 174,-89.5 168,-83.5 168,-77.5 168,-77.5 168,-12.5 168,-12.5 168,-6.5 174,-0.5 180,-0.5"/>
<text text-anchor="middle" x="212" y="-75.9" font-family="Arial" font-size="12.00">Lag</text>
<text text-anchor="middle" x="212" y="-62.9" font-family="Arial" font-size="12.00">(audio)</text>
<polyline fill="none" stroke="black" stroke-width="2" points="168,-55.5 256,-55.5 "/>
<text text-anchor="middle" x="200.5" y="-41.9" font-family="Arial" font-size="12.00">source</text>
<polyline fill="none" stroke="black" stroke-width="2" points="168,-34.5 233,-34.5 "/>
<text text-anchor="middle" x="200.5" y="-20.9" font-family="Arial" font-size="12.00">lag_time:</text>
<text text-anchor="middle" x="200.5" y="-7.9" font-family="Arial" font-size="12.00">0.5</text>
<polyline fill="none" stroke="black" stroke-width="2" points="233,-0.5 233,-55.5 "/>
<text text-anchor="middle" x="244.5" y="-24.9" font-family="Arial" font-size="12.00">0</text>
</g>
<!-- ugen_2 -->
<g id="node3" class="node">
<title>ugen_2</title>
<path fill="#bcd2ee" stroke="black" stroke-width="2" d="M12,-132C12,-132 84,-132 84,-132 90,-132 96,-138 96,-144 96,-144 96,-222 96,-222 96,-228 90,-234 84,-234 84,-234 12,-234 12,-234 6,-234 0,-228 0,-222 0,-222 0,-144 0,-144 0,-138 6,-132 12,-132"/>
<text text-anchor="middle" x="48" y="-220.4" font-family="Arial" font-size="12.00">SinOsc</text>
<text text-anchor="middle" x="48" y="-207.4" font-family="Arial" font-size="12.00">(audio)</text>
<polyline fill="none" stroke="black" stroke-width="2" points="0,-200 96,-200 "/>
<text text-anchor="middle" x="36.5" y="-186.4" font-family="Arial" font-size="12.00">frequency:</text>
<text text-anchor="middle" x="36.5" y="-173.4" font-family="Arial" font-size="12.00">442.0</text>
<polyline fill="none" stroke="black" stroke-width="2" points="0,-166 73,-166 "/>
<text text-anchor="middle" x="36.5" y="-152.4" font-family="Arial" font-size="12.00">phase:</text>
<text text-anchor="middle" x="36.5" y="-139.4" font-family="Arial" font-size="12.00">0.0</text>
<polyline fill="none" stroke="black" stroke-width="2" points="73,-132 73,-200 "/>
<text text-anchor="middle" x="84.5" y="-162.9" font-family="Arial" font-size="12.00">0</text>
</g>
<!-- ugen_3 -->
<g id="node4" class="node">
<title>ugen_3</title>
<path fill="#bcd2ee" stroke="black" stroke-width="2" d="M180,-121.5C180,-121.5 244,-121.5 244,-121.5 250,-121.5 256,-127.5 256,-133.5 256,-133.5 256,-198.5 256,-198.5 256,-204.5 250,-210.5 244,-210.5 244,-210.5 180,-210.5 180,-210.5 174,-210.5 168,-204.5 168,-198.5 168,-198.5 168,-133.5 168,-133.5 168,-127.5 174,-121.5 180,-121.5"/>
<text text-anchor="middle" x="212" y="-196.9" font-family="Arial" font-size="12.00">Lag</text>
<text text-anchor="middle" x="212" y="-183.9" font-family="Arial" font-size="12.00">(audio)</text>
<polyline fill="none" stroke="black" stroke-width="2" points="168,-176.5 256,-176.5 "/>
<text text-anchor="middle" x="200.5" y="-162.9" font-family="Arial" font-size="12.00">source</text>
<polyline fill="none" stroke="black" stroke-width="2" points="168,-155.5 233,-155.5 "/>
<text text-anchor="middle" x="200.5" y="-141.9" font-family="Arial" font-size="12.00">lag_time:</text>
<text text-anchor="middle" x="200.5" y="-128.9" font-family="Arial" font-size="12.00">0.5</text>
<polyline fill="none" stroke="black" stroke-width="2" points="233,-121.5 233,-176.5 "/>
<text text-anchor="middle" x="244.5" y="-145.9" font-family="Arial" font-size="12.00">0</text>
</g>
<!-- ugen_4 -->
<g id="node5" class="node">
<title>ugen_4</title>
<path fill="#bcd2ee" stroke="black" stroke-width="2" d="M12,-253C12,-253 84,-253 84,-253 90,-253 96,-259 96,-265 96,-265 96,-343 96,-343 96,-349 90,-355 84,-355 84,-355 12,-355 12,-355 6,-355 0,-349 0,-343 0,-343 0,-265 0,-265 0,-259 6,-253 12,-253"/>
<text text-anchor="middle" x="48" y="-341.4" font-family="Arial" font-size="12.00">SinOsc</text>
<text text-anchor="middle" x="48" y="-328.4" font-family="Arial" font-size="12.00">(audio)</text>
<polyline fill="none" stroke="black" stroke-width="2" points="0,-321 96,-321 "/>
<text text-anchor="middle" x="36.5" y="-307.4" font-family="Arial" font-size="12.00">frequency:</text>
<text text-anchor="middle" x="36.5" y="-294.4" font-family="Arial" font-size="12.00">443.0</text>
<polyline fill="none" stroke="black" stroke-width="2" points="0,-287 73,-287 "/>
<text text-anchor="middle" x="36.5" y="-273.4" font-family="Arial" font-size="12.00">phase:</text>
<text text-anchor="middle" x="36.5" y="-260.4" font-family="Arial" font-size="12.00">0.0</text>
<polyline fill="none" stroke="black" stroke-width="2" points="73,-253 73,-321 "/>
<text text-anchor="middle" x="84.5" y="-283.9" font-family="Arial" font-size="12.00">0</text>
</g>
<!-- ugen_5 -->
<g id="node6" class="node">
<title>ugen_5</title>
<path fill="#bcd2ee" stroke="black" stroke-width="2" d="M180,-242.5C180,-242.5 244,-242.5 244,-242.5 250,-242.5 256,-248.5 256,-254.5 256,-254.5 256,-319.5 256,-319.5 256,-325.5 250,-331.5 244,-331.5 244,-331.5 180,-331.5 180,-331.5 174,-331.5 168,-325.5 168,-319.5 168,-319.5 168,-254.5 168,-254.5 168,-248.5 174,-242.5 180,-242.5"/>
<text text-anchor="middle" x="212" y="-317.9" font-family="Arial" font-size="12.00">Lag</text>
<text text-anchor="middle" x="212" y="-304.9" font-family="Arial" font-size="12.00">(audio)</text>
<polyline fill="none" stroke="black" stroke-width="2" points="168,-297.5 256,-297.5 "/>
<text text-anchor="middle" x="200.5" y="-283.9" font-family="Arial" font-size="12.00">source</text>
<polyline fill="none" stroke="black" stroke-width="2" points="168,-276.5 233,-276.5 "/>
<text text-anchor="middle" x="200.5" y="-262.9" font-family="Arial" font-size="12.00">lag_time:</text>
<text text-anchor="middle" x="200.5" y="-249.9" font-family="Arial" font-size="12.00">0.5</text>
<polyline fill="none" stroke="black" stroke-width="2" points="233,-242.5 233,-297.5 "/>
<text text-anchor="middle" x="244.5" y="-266.9" font-family="Arial" font-size="12.00">0</text>
</g>
</g>
</svg>
