<?xml version="1.0" encoding="UTF-8" standalone="no"?>
<!DOCTYPE svg PUBLIC "-//W3C//DTD SVG 1.1//EN"
 "http://www.w3.org/Graphics/SVG/1.1/DTD/svg11.dtd">
<!-- Generated by graphviz version 2.40.1 (20161225.0304)
 -->
<!-- Title: synthdef_9ffc96952d8a081f877924018f36d463 Pages: 1 -->
<svg width="778pt" height="446pt"
 viewBox="0.00 0.00 778.00 446.00" xmlns="http://www.w3.org/2000/svg" xmlns:xlink="http://www.w3.org/1999/xlink">
<g id="graph0" class="graph" transform="scale(1 1) rotate(0) translate(4 442)">
<title>synthdef_9ffc96952d8a081f877924018f36d463</title>
<!-- ugen_0&#45;&gt;ugen_1 -->
<g id="edge1" class="edge">
<title>ugen_0:e&#45;&gt;ugen_1:w</title>
<path fill="none" stroke="#fa8072" stroke-width="2" d="M54,-386.5C91.3404,-386.5 97.1367,-356.6782 128.809,-351.3196"/>
<polygon fill="#fa8072" stroke="#fa8072" stroke-width="2" points="129.3128,-354.7904 139,-350.5 128.7516,-347.813 129.3128,-354.7904"/>
</g>
<!-- ugen_0&#45;&gt;ugen_8 -->
<g id="edge2" class="edge">
<title>ugen_0:e&#45;&gt;ugen_8:w</title>
<path fill="none" stroke="#fa8072" stroke-width="2" d="M54,-386.5C86.9848,-386.5 93.2623,-400.4698 126,-404.5 161.2892,-408.8443 170.4682,-405.7982 206,-404.5 421.6815,-396.6197 477.032,-369.37 687.8426,-368.5203"/>
<polygon fill="#fa8072" stroke="#fa8072" stroke-width="2" points="688.0071,-372.0201 698,-368.5 687.993,-365.0201 688.0071,-372.0201"/>
</g>
<!-- ugen_1&#45;&gt;ugen_4 -->
<g id="edge3" class="edge">
<title>ugen_1:e&#45;&gt;ugen_4:w</title>
<path fill="none" stroke="#4682b4" stroke-width="2" d="M193,-350.5C228.2655,-350.5 237.4625,-333.2529 267.8401,-330.0191"/>
<polygon fill="#4682b4" stroke="#4682b4" stroke-width="2" points="268.1917,-333.5058 278,-329.5 267.8344,-326.5149 268.1917,-333.5058"/>
</g>
<!-- ugen_2&#45;&gt;ugen_4 -->
<g id="edge4" class="edge">
<title>ugen_2:e&#45;&gt;ugen_4:w</title>
<path fill="none" stroke="#fa8072" stroke-width="2" d="M206,-131.5C265.1486,-131.5 221.1404,-239.1738 267.7973,-252.2124"/>
<polygon fill="#fa8072" stroke="#fa8072" stroke-width="2" points="267.6404,-255.7203 278,-253.5 268.5169,-248.7754 267.6404,-255.7203"/>
</g>
<!-- ugen_3&#45;&gt;ugen_4 -->
<g id="edge5" class="edge">
<title>ugen_3:e&#45;&gt;ugen_4:w</title>
<path fill="none" stroke="#fa8072" stroke-width="2" d="M206,-252.5C235.8008,-252.5 243.0889,-269.9507 267.9651,-273.768"/>
<polygon fill="#fa8072" stroke="#fa8072" stroke-width="2" points="267.7718,-277.2631 278,-274.5 268.2812,-270.2817 267.7718,-277.2631"/>
</g>
<!-- ugen_4&#45;&gt;ugen_7 -->
<g id="edge6" class="edge">
<title>ugen_4:e&#45;&gt;ugen_7:w</title>
<path fill="none" stroke="#4682b4" stroke-width="2" d="M407,-291.5C441.4826,-291.5 441.2439,-253.2315 468.945,-245.7571"/>
<polygon fill="#4682b4" stroke="#4682b4" stroke-width="2" points="469.5115,-249.2136 479,-244.5 468.643,-242.2677 469.5115,-249.2136"/>
</g>
<!-- ugen_5&#45;&gt;ugen_7 -->
<g id="edge7" class="edge">
<title>ugen_5:e&#45;&gt;ugen_7:w</title>
<path fill="none" stroke="#fa8072" stroke-width="2" d="M382.5,-34.5C452.1646,-34.5 410.3964,-155.2362 468.7436,-167.4984"/>
<polygon fill="#fa8072" stroke="#fa8072" stroke-width="2" points="468.7071,-171.0114 479,-168.5 469.3875,-164.0446 468.7071,-171.0114"/>
</g>
<!-- ugen_6&#45;&gt;ugen_7 -->
<g id="edge8" class="edge">
<title>ugen_6:e&#45;&gt;ugen_7:w</title>
<path fill="none" stroke="#fa8072" stroke-width="2" d="M382.5,-155.5C424.2429,-155.5 432.3471,-184.1507 468.5712,-188.8512"/>
<polygon fill="#fa8072" stroke="#fa8072" stroke-width="2" points="468.8019,-192.3722 479,-189.5 469.2367,-185.3857 468.8019,-192.3722"/>
</g>
<!-- ugen_7&#45;&gt;ugen_8 -->
<g id="edge9" class="edge">
<title>ugen_7:e&#45;&gt;ugen_8:w</title>
<path fill="none" stroke="#4682b4" stroke-width="2" d="M608,-206.5C678.7144,-206.5 629.0696,-334.0666 688.0302,-346.5243"/>
<polygon fill="#4682b4" stroke="#4682b4" stroke-width="2" points="687.7066,-350.0093 698,-347.5 688.3885,-343.0426 687.7066,-350.0093"/>
</g>
<!-- ugen_7&#45;&gt;ugen_9 -->
<g id="edge10" class="edge">
<title>ugen_7:e&#45;&gt;ugen_9:w</title>
<path fill="none" stroke="#4682b4" stroke-width="2" d="M608,-206.5C636.375,-206.5 645.8795,-206.5 669.9792,-206.5"/>
<polygon fill="#4682b4" stroke="#4682b4" stroke-width="2" points="670,-210.0001 680,-206.5 670,-203.0001 670,-210.0001"/>
</g>
<!-- ugen_0 -->
<g id="node1" class="node">
<title>ugen_0</title>
<path fill="#ee9572" stroke="#000000" stroke-width="2" d="M12,-369.5C12,-369.5 42,-369.5 42,-369.5 48,-369.5 54,-375.5 54,-381.5 54,-381.5 54,-425.5 54,-425.5 54,-431.5 48,-437.5 42,-437.5 42,-437.5 12,-437.5 12,-437.5 6,-437.5 0,-431.5 0,-425.5 0,-425.5 0,-381.5 0,-381.5 0,-375.5 6,-369.5 12,-369.5"/>
<text text-anchor="middle" x="27" y="-423.9" font-family="Arial" font-size="12.00" fill="#000000">Control</text>
<text text-anchor="middle" x="27" y="-410.9" font-family="Arial" font-size="12.00" fill="#000000">(scalar)</text>
<polyline fill="none" stroke="#000000" stroke-width="2" points="0,-403.5 54,-403.5 "/>
<text text-anchor="middle" x="27" y="-389.9" font-family="Arial" font-size="12.00" fill="#000000">out:</text>
<text text-anchor="middle" x="27" y="-376.9" font-family="Arial" font-size="12.00" fill="#000000">0.0</text>
</g>
<!-- ugen_1 -->
<g id="node2" class="node">
<title>ugen_1</title>
<path fill="#bcd2ee" stroke="#000000" stroke-width="2" d="M151,-340C151,-340 181,-340 181,-340 187,-340 193,-346 193,-352 193,-352 193,-383 193,-383 193,-389 187,-395 181,-395 181,-395 151,-395 151,-395 145,-395 139,-389 139,-383 139,-383 139,-352 139,-352 139,-346 145,-340 151,-340"/>
<text text-anchor="middle" x="166" y="-381.4" font-family="Arial" font-size="12.00" fill="#000000">In</text>
<text text-anchor="middle" x="166" y="-368.4" font-family="Arial" font-size="12.00" fill="#000000">(audio)</text>
<polyline fill="none" stroke="#000000" stroke-width="2" points="139,-361 193,-361 "/>
<text text-anchor="middle" x="154.5" y="-347.4" font-family="Arial" font-size="12.00" fill="#000000">bus</text>
<polyline fill="none" stroke="#000000" stroke-width="2" points="170,-340 170,-361 "/>
<text text-anchor="middle" x="181.5" y="-347.4" font-family="Arial" font-size="12.00" fill="#000000">0</text>
</g>
<!-- ugen_2 -->
<g id="node3" class="node">
<title>ugen_2</title>
<path fill="#ee9572" stroke="#000000" stroke-width="2" d="M138,-97.5C138,-97.5 194,-97.5 194,-97.5 200,-97.5 206,-103.5 206,-109.5 206,-109.5 206,-187.5 206,-187.5 206,-193.5 200,-199.5 194,-199.5 194,-199.5 138,-199.5 138,-199.5 132,-199.5 126,-193.5 126,-187.5 126,-187.5 126,-109.5 126,-109.5 126,-103.5 132,-97.5 138,-97.5"/>
<text text-anchor="middle" x="166" y="-185.9" font-family="Arial" font-size="12.00" fill="#000000">ExpRand</text>
<text text-anchor="middle" x="166" y="-172.9" font-family="Arial" font-size="12.00" fill="#000000">(scalar)</text>
<polyline fill="none" stroke="#000000" stroke-width="2" points="126,-165.5 206,-165.5 "/>
<text text-anchor="middle" x="155" y="-151.9" font-family="Arial" font-size="12.00" fill="#000000">minimum:</text>
<text text-anchor="middle" x="155" y="-138.9" font-family="Arial" font-size="12.00" fill="#000000">0.01</text>
<polyline fill="none" stroke="#000000" stroke-width="2" points="126,-131.5 184,-131.5 "/>
<text text-anchor="middle" x="155" y="-117.9" font-family="Arial" font-size="12.00" fill="#000000">maximum:</text>
<text text-anchor="middle" x="155" y="-104.9" font-family="Arial" font-size="12.00" fill="#000000">0.1</text>
<polyline fill="none" stroke="#000000" stroke-width="2" points="184,-97.5 184,-165.5 "/>
<text text-anchor="middle" x="195" y="-128.4" font-family="Arial" font-size="12.00" fill="#000000">0</text>
</g>
<!-- ugen_3 -->
<g id="node4" class="node">
<title>ugen_3</title>
<path fill="#ee9572" stroke="#000000" stroke-width="2" d="M138,-218.5C138,-218.5 194,-218.5 194,-218.5 200,-218.5 206,-224.5 206,-230.5 206,-230.5 206,-308.5 206,-308.5 206,-314.5 200,-320.5 194,-320.5 194,-320.5 138,-320.5 138,-320.5 132,-320.5 126,-314.5 126,-308.5 126,-308.5 126,-230.5 126,-230.5 126,-224.5 132,-218.5 138,-218.5"/>
<text text-anchor="middle" x="166" y="-306.9" font-family="Arial" font-size="12.00" fill="#000000">ExpRand</text>
<text text-anchor="middle" x="166" y="-293.9" font-family="Arial" font-size="12.00" fill="#000000">(scalar)</text>
<polyline fill="none" stroke="#000000" stroke-width="2" points="126,-286.5 206,-286.5 "/>
<text text-anchor="middle" x="155" y="-272.9" font-family="Arial" font-size="12.00" fill="#000000">minimum:</text>
<text text-anchor="middle" x="155" y="-259.9" font-family="Arial" font-size="12.00" fill="#000000">0.01</text>
<polyline fill="none" stroke="#000000" stroke-width="2" points="126,-252.5 184,-252.5 "/>
<text text-anchor="middle" x="155" y="-238.9" font-family="Arial" font-size="12.00" fill="#000000">maximum:</text>
<text text-anchor="middle" x="155" y="-225.9" font-family="Arial" font-size="12.00" fill="#000000">0.1</text>
<polyline fill="none" stroke="#000000" stroke-width="2" points="184,-218.5 184,-286.5 "/>
<text text-anchor="middle" x="195" y="-249.4" font-family="Arial" font-size="12.00" fill="#000000">0</text>
</g>
<!-- ugen_4 -->
<g id="node5" class="node">
<title>ugen_4</title>
<path fill="#bcd2ee" stroke="#000000" stroke-width="2" d="M290,-243C290,-243 395,-243 395,-243 401,-243 407,-249 407,-255 407,-255 407,-362 407,-362 407,-368 401,-374 395,-374 395,-374 290,-374 290,-374 284,-374 278,-368 278,-362 278,-362 278,-255 278,-255 278,-249 284,-243 290,-243"/>
<text text-anchor="middle" x="342.5" y="-360.4" font-family="Arial" font-size="12.00" fill="#000000">AllpassC</text>
<text text-anchor="middle" x="342.5" y="-347.4" font-family="Arial" font-size="12.00" fill="#000000">(audio)</text>
<polyline fill="none" stroke="#000000" stroke-width="2" points="278,-340 407,-340 "/>
<text text-anchor="middle" x="331.5" y="-326.4" font-family="Arial" font-size="12.00" fill="#000000">source</text>
<polyline fill="none" stroke="#000000" stroke-width="2" points="278,-319 385,-319 "/>
<text text-anchor="middle" x="331.5" y="-305.4" font-family="Arial" font-size="12.00" fill="#000000">maximum_delay_time:</text>
<text text-anchor="middle" x="331.5" y="-292.4" font-family="Arial" font-size="12.00" fill="#000000">0.1</text>
<polyline fill="none" stroke="#000000" stroke-width="2" points="278,-285 385,-285 "/>
<text text-anchor="middle" x="331.5" y="-271.4" font-family="Arial" font-size="12.00" fill="#000000">delay_time</text>
<polyline fill="none" stroke="#000000" stroke-width="2" points="278,-264 385,-264 "/>
<text text-anchor="middle" x="331.5" y="-250.4" font-family="Arial" font-size="12.00" fill="#000000">decay_time</text>
<polyline fill="none" stroke="#000000" stroke-width="2" points="385,-243 385,-340 "/>
<text text-anchor="middle" x="396" y="-288.4" font-family="Arial" font-size="12.00" fill="#000000">0</text>
</g>
<!-- ugen_5 -->
<g id="node6" class="node">
<title>ugen_5</title>
<path fill="#ee9572" stroke="#000000" stroke-width="2" d="M314.5,-.5C314.5,-.5 370.5,-.5 370.5,-.5 376.5,-.5 382.5,-6.5 382.5,-12.5 382.5,-12.5 382.5,-90.5 382.5,-90.5 382.5,-96.5 376.5,-102.5 370.5,-102.5 370.5,-102.5 314.5,-102.5 314.5,-102.5 308.5,-102.5 302.5,-96.5 302.5,-90.5 302.5,-90.5 302.5,-12.5 302.5,-12.5 302.5,-6.5 308.5,-.5 314.5,-.5"/>
<text text-anchor="middle" x="342.5" y="-88.9" font-family="Arial" font-size="12.00" fill="#000000">ExpRand</text>
<text text-anchor="middle" x="342.5" y="-75.9" font-family="Arial" font-size="12.00" fill="#000000">(scalar)</text>
<polyline fill="none" stroke="#000000" stroke-width="2" points="302.5,-68.5 382.5,-68.5 "/>
<text text-anchor="middle" x="331.5" y="-54.9" font-family="Arial" font-size="12.00" fill="#000000">minimum:</text>
<text text-anchor="middle" x="331.5" y="-41.9" font-family="Arial" font-size="12.00" fill="#000000">0.01</text>
<polyline fill="none" stroke="#000000" stroke-width="2" points="302.5,-34.5 360.5,-34.5 "/>
<text text-anchor="middle" x="331.5" y="-20.9" font-family="Arial" font-size="12.00" fill="#000000">maximum:</text>
<text text-anchor="middle" x="331.5" y="-7.9" font-family="Arial" font-size="12.00" fill="#000000">0.1</text>
<polyline fill="none" stroke="#000000" stroke-width="2" points="360.5,-.5 360.5,-68.5 "/>
<text text-anchor="middle" x="371.5" y="-31.4" font-family="Arial" font-size="12.00" fill="#000000">0</text>
</g>
<!-- ugen_6 -->
<g id="node7" class="node">
<title>ugen_6</title>
<path fill="#ee9572" stroke="#000000" stroke-width="2" d="M314.5,-121.5C314.5,-121.5 370.5,-121.5 370.5,-121.5 376.5,-121.5 382.5,-127.5 382.5,-133.5 382.5,-133.5 382.5,-211.5 382.5,-211.5 382.5,-217.5 376.5,-223.5 370.5,-223.5 370.5,-223.5 314.5,-223.5 314.5,-223.5 308.5,-223.5 302.5,-217.5 302.5,-211.5 302.5,-211.5 302.5,-133.5 302.5,-133.5 302.5,-127.5 308.5,-121.5 314.5,-121.5"/>
<text text-anchor="middle" x="342.5" y="-209.9" font-family="Arial" font-size="12.00" fill="#000000">ExpRand</text>
<text text-anchor="middle" x="342.5" y="-196.9" font-family="Arial" font-size="12.00" fill="#000000">(scalar)</text>
<polyline fill="none" stroke="#000000" stroke-width="2" points="302.5,-189.5 382.5,-189.5 "/>
<text text-anchor="middle" x="331.5" y="-175.9" font-family="Arial" font-size="12.00" fill="#000000">minimum:</text>
<text text-anchor="middle" x="331.5" y="-162.9" font-family="Arial" font-size="12.00" fill="#000000">0.01</text>
<polyline fill="none" stroke="#000000" stroke-width="2" points="302.5,-155.5 360.5,-155.5 "/>
<text text-anchor="middle" x="331.5" y="-141.9" font-family="Arial" font-size="12.00" fill="#000000">maximum:</text>
<text text-anchor="middle" x="331.5" y="-128.9" font-family="Arial" font-size="12.00" fill="#000000">0.1</text>
<polyline fill="none" stroke="#000000" stroke-width="2" points="360.5,-121.5 360.5,-189.5 "/>
<text text-anchor="middle" x="371.5" y="-152.4" font-family="Arial" font-size="12.00" fill="#000000">0</text>
</g>
<!-- ugen_7 -->
<g id="node8" class="node">
<title>ugen_7</title>
<path fill="#bcd2ee" stroke="#000000" stroke-width="2" d="M491,-158C491,-158 596,-158 596,-158 602,-158 608,-164 608,-170 608,-170 608,-277 608,-277 608,-283 602,-289 596,-289 596,-289 491,-289 491,-289 485,-289 479,-283 479,-277 479,-277 479,-170 479,-170 479,-164 485,-158 491,-158"/>
<text text-anchor="middle" x="543.5" y="-275.4" font-family="Arial" font-size="12.00" fill="#000000">AllpassC</text>
<text text-anchor="middle" x="543.5" y="-262.4" font-family="Arial" font-size="12.00" fill="#000000">(audio)</text>
<polyline fill="none" stroke="#000000" stroke-width="2" points="479,-255 608,-255 "/>
<text text-anchor="middle" x="532.5" y="-241.4" font-family="Arial" font-size="12.00" fill="#000000">source</text>
<polyline fill="none" stroke="#000000" stroke-width="2" points="479,-234 586,-234 "/>
<text text-anchor="middle" x="532.5" y="-220.4" font-family="Arial" font-size="12.00" fill="#000000">maximum_delay_time:</text>
<text text-anchor="middle" x="532.5" y="-207.4" font-family="Arial" font-size="12.00" fill="#000000">0.1</text>
<polyline fill="none" stroke="#000000" stroke-width="2" points="479,-200 586,-200 "/>
<text text-anchor="middle" x="532.5" y="-186.4" font-family="Arial" font-size="12.00" fill="#000000">delay_time</text>
<polyline fill="none" stroke="#000000" stroke-width="2" points="479,-179 586,-179 "/>
<text text-anchor="middle" x="532.5" y="-165.4" font-family="Arial" font-size="12.00" fill="#000000">decay_time</text>
<polyline fill="none" stroke="#000000" stroke-width="2" points="586,-158 586,-255 "/>
<text text-anchor="middle" x="597" y="-203.4" font-family="Arial" font-size="12.00" fill="#000000">0</text>
</g>
<!-- ugen_8 -->
<g id="node9" class="node">
<title>ugen_8</title>
<path fill="#bcd2ee" stroke="#000000" stroke-width="2" d="M710,-337.5C710,-337.5 740,-337.5 740,-337.5 746,-337.5 752,-343.5 752,-349.5 752,-349.5 752,-401.5 752,-401.5 752,-407.5 746,-413.5 740,-413.5 740,-413.5 710,-413.5 710,-413.5 704,-413.5 698,-407.5 698,-401.5 698,-401.5 698,-349.5 698,-349.5 698,-343.5 704,-337.5 710,-337.5"/>
<text text-anchor="middle" x="725" y="-399.9" font-family="Arial" font-size="12.00" fill="#000000">Out</text>
<text text-anchor="middle" x="725" y="-386.9" font-family="Arial" font-size="12.00" fill="#000000">(audio)</text>
<polyline fill="none" stroke="#000000" stroke-width="2" points="698,-379.5 752,-379.5 "/>
<text text-anchor="middle" x="725" y="-365.9" font-family="Arial" font-size="12.00" fill="#000000">bus</text>
<polyline fill="none" stroke="#000000" stroke-width="2" points="698,-358.5 752,-358.5 "/>
<text text-anchor="middle" x="725" y="-344.9" font-family="Arial" font-size="12.00" fill="#000000">source</text>
</g>
<!-- ugen_9 -->
<g id="node10" class="node">
<title>ugen_9</title>
<path fill="#eedc82" stroke="#000000" stroke-width="2" d="M692,-94C692,-94 758,-94 758,-94 764,-94 770,-100 770,-106 770,-106 770,-239 770,-239 770,-245 764,-251 758,-251 758,-251 692,-251 692,-251 686,-251 680,-245 680,-239 680,-239 680,-106 680,-106 680,-100 686,-94 692,-94"/>
<text text-anchor="middle" x="725" y="-237.4" font-family="Arial" font-size="12.00" fill="#000000">DetectSilence</text>
<text text-anchor="middle" x="725" y="-224.4" font-family="Arial" font-size="12.00" fill="#000000">(control)</text>
<polyline fill="none" stroke="#000000" stroke-width="2" points="680,-217 770,-217 "/>
<text text-anchor="middle" x="714" y="-203.4" font-family="Arial" font-size="12.00" fill="#000000">source</text>
<polyline fill="none" stroke="#000000" stroke-width="2" points="680,-196 748,-196 "/>
<text text-anchor="middle" x="714" y="-182.4" font-family="Arial" font-size="12.00" fill="#000000">threshold:</text>
<text text-anchor="middle" x="714" y="-169.4" font-family="Arial" font-size="12.00" fill="#000000">0.0001</text>
<polyline fill="none" stroke="#000000" stroke-width="2" points="680,-162 748,-162 "/>
<text text-anchor="middle" x="714" y="-148.4" font-family="Arial" font-size="12.00" fill="#000000">time:</text>
<text text-anchor="middle" x="714" y="-135.4" font-family="Arial" font-size="12.00" fill="#000000">0.1</text>
<polyline fill="none" stroke="#000000" stroke-width="2" points="680,-128 748,-128 "/>
<text text-anchor="middle" x="714" y="-114.4" font-family="Arial" font-size="12.00" fill="#000000">done_action:</text>
<text text-anchor="middle" x="714" y="-101.4" font-family="Arial" font-size="12.00" fill="#000000">2.0</text>
<polyline fill="none" stroke="#000000" stroke-width="2" points="748,-94 748,-217 "/>
<text text-anchor="middle" x="759" y="-152.4" font-family="Arial" font-size="12.00" fill="#000000">0</text>
</g>
</g>
</svg>
