<?xml version="1.0" encoding="UTF-8" standalone="no"?>
<!DOCTYPE svg PUBLIC "-//W3C//DTD SVG 1.1//EN"
 "http://www.w3.org/Graphics/SVG/1.1/DTD/svg11.dtd">
<!-- Generated by graphviz version 2.50.0 (20211204.2007)
 -->
<!-- Title: G Pages: 1 -->
<svg width="182pt" height="367pt"
 viewBox="0.00 0.00 182.00 367.00" xmlns="http://www.w3.org/2000/svg" xmlns:xlink="http://www.w3.org/1999/xlink">
<g id="graph0" class="graph" transform="scale(1 1) rotate(0) translate(4 363)">
<title>G</title>
<!-- root&#45;node&#45;0&#45;&gt;group&#45;1 -->
<g id="edge1" class="edge">
<title>root&#45;node&#45;0&#45;&gt;group&#45;1</title>
<path fill="none" stroke="black" stroke-width="2" d="M67.5,-316.27C67.5,-308.13 67.5,-298.58 67.5,-289.66"/>
<polygon fill="black" stroke="black" stroke-width="2" points="71,-289.6 67.5,-279.6 64,-289.6 71,-289.6"/>
</g>
<!-- group&#45;1&#45;&gt;group&#45;1000 -->
<g id="edge2" class="edge">
<title>group&#45;1&#45;&gt;group&#45;1000</title>
<path fill="none" stroke="black" stroke-width="2" d="M67.5,-237.27C67.5,-229.13 67.5,-219.58 67.5,-210.66"/>
<polygon fill="black" stroke="black" stroke-width="2" points="71,-210.6 67.5,-200.6 64,-210.6 71,-210.6"/>
</g>
<!-- group&#45;1000&#45;&gt;synth&#45;1001 -->
<g id="edge3" class="edge">
<title>group&#45;1000&#45;&gt;synth&#45;1001</title>
<path fill="none" stroke="black" stroke-width="2" d="M57.52,-158.27C53.37,-149.87 48.48,-139.96 43.95,-130.79"/>
<polygon fill="black" stroke="black" stroke-width="2" points="46.98,-129.01 39.42,-121.6 40.7,-132.11 46.98,-129.01"/>
</g>
<!-- group&#45;1000&#45;&gt;group&#45;1002 -->
<g id="edge4" class="edge">
<title>group&#45;1000&#45;&gt;group&#45;1002</title>
<path fill="none" stroke="black" stroke-width="2" d="M77.75,-158.27C82,-149.87 87.02,-139.96 91.67,-130.79"/>
<polygon fill="black" stroke="black" stroke-width="2" points="94.93,-132.1 96.32,-121.6 88.68,-128.94 94.93,-132.1"/>
</g>
<!-- group&#45;1002&#45;&gt;synth&#45;1003 -->
<g id="edge5" class="edge">
<title>group&#45;1002&#45;&gt;synth&#45;1003</title>
<path fill="none" stroke="black" stroke-width="2" d="M96.25,-79.27C92,-70.87 86.98,-60.96 82.33,-51.79"/>
<polygon fill="black" stroke="black" stroke-width="2" points="85.32,-49.94 77.68,-42.6 79.07,-53.1 85.32,-49.94"/>
</g>
<!-- group&#45;1002&#45;&gt;synth&#45;1004 -->
<g id="edge6" class="edge">
<title>group&#45;1002&#45;&gt;synth&#45;1004</title>
<path fill="none" stroke="black" stroke-width="2" d="M116.48,-79.27C120.63,-70.87 125.52,-60.96 130.05,-51.79"/>
<polygon fill="black" stroke="black" stroke-width="2" points="133.3,-53.11 134.58,-42.6 127.02,-50.01 133.3,-53.11"/>
</g>
<!-- root&#45;node&#45;0 -->
<g id="node1" class="node">
<title>root&#45;node&#45;0</title>
<path fill="#ee9572" stroke="black" stroke-width="2" d="M44,-316.5C44,-316.5 91,-316.5 91,-316.5 97,-316.5 103,-322.5 103,-328.5 103,-328.5 103,-346.5 103,-346.5 103,-352.5 97,-358.5 91,-358.5 91,-358.5 44,-358.5 44,-358.5 38,-358.5 32,-352.5 32,-346.5 32,-346.5 32,-328.5 32,-328.5 32,-322.5 38,-316.5 44,-316.5"/>
<text text-anchor="middle" x="67.5" y="-344.9" font-family="Arial" font-size="12.00">RootNode</text>
<polyline fill="none" stroke="black" stroke-width="2" points="32,-337.5 103,-337.5 "/>
<text text-anchor="middle" x="67.5" y="-323.9" font-family="Arial" font-size="12.00">id: 0</text>
</g>
<!-- group&#45;1 -->
<g id="node2" class="node">
<title>group&#45;1</title>
<path fill="#bcd2ee" stroke="black" stroke-width="2" d="M52.5,-237.5C52.5,-237.5 82.5,-237.5 82.5,-237.5 88.5,-237.5 94.5,-243.5 94.5,-249.5 94.5,-249.5 94.5,-267.5 94.5,-267.5 94.5,-273.5 88.5,-279.5 82.5,-279.5 82.5,-279.5 52.5,-279.5 52.5,-279.5 46.5,-279.5 40.5,-273.5 40.5,-267.5 40.5,-267.5 40.5,-249.5 40.5,-249.5 40.5,-243.5 46.5,-237.5 52.5,-237.5"/>
<text text-anchor="middle" x="67.5" y="-265.9" font-family="Arial" font-size="12.00">Group</text>
<polyline fill="none" stroke="black" stroke-width="2" points="40.5,-258.5 94.5,-258.5 "/>
<text text-anchor="middle" x="67.5" y="-244.9" font-family="Arial" font-size="12.00">id: 1</text>
</g>
<!-- group&#45;1000 -->
<g id="node3" class="node">
<title>group&#45;1000</title>
<path fill="#bcd2ee" stroke="black" stroke-width="2" d="M50,-158.5C50,-158.5 85,-158.5 85,-158.5 91,-158.5 97,-164.5 97,-170.5 97,-170.5 97,-188.5 97,-188.5 97,-194.5 91,-200.5 85,-200.5 85,-200.5 50,-200.5 50,-200.5 44,-200.5 38,-194.5 38,-188.5 38,-188.5 38,-170.5 38,-170.5 38,-164.5 44,-158.5 50,-158.5"/>
<text text-anchor="middle" x="67.5" y="-186.9" font-family="Arial" font-size="12.00">Group</text>
<polyline fill="none" stroke="black" stroke-width="2" points="38,-179.5 97,-179.5 "/>
<text text-anchor="middle" x="67.5" y="-165.9" font-family="Arial" font-size="12.00">id: 1000</text>
</g>
<!-- synth&#45;1001 -->
<g id="node4" class="node">
<title>synth&#45;1001</title>
<path fill="#eedc82" stroke="black" stroke-width="2" d="M12,-79.5C12,-79.5 47,-79.5 47,-79.5 53,-79.5 59,-85.5 59,-91.5 59,-91.5 59,-109.5 59,-109.5 59,-115.5 53,-121.5 47,-121.5 47,-121.5 12,-121.5 12,-121.5 6,-121.5 0,-115.5 0,-109.5 0,-109.5 0,-91.5 0,-91.5 0,-85.5 6,-79.5 12,-79.5"/>
<text text-anchor="middle" x="29.5" y="-107.9" font-family="Arial" font-size="12.00">Synth</text>
<polyline fill="none" stroke="black" stroke-width="2" points="0,-100.5 59,-100.5 "/>
<text text-anchor="middle" x="29.5" y="-86.9" font-family="Arial" font-size="12.00">id: 1001</text>
</g>
<!-- group&#45;1002 -->
<g id="node5" class="node">
<title>group&#45;1002</title>
<path fill="#bcd2ee" stroke="black" stroke-width="2" d="M89,-79.5C89,-79.5 124,-79.5 124,-79.5 130,-79.5 136,-85.5 136,-91.5 136,-91.5 136,-109.5 136,-109.5 136,-115.5 130,-121.5 124,-121.5 124,-121.5 89,-121.5 89,-121.5 83,-121.5 77,-115.5 77,-109.5 77,-109.5 77,-91.5 77,-91.5 77,-85.5 83,-79.5 89,-79.5"/>
<text text-anchor="middle" x="106.5" y="-107.9" font-family="Arial" font-size="12.00">Group</text>
<polyline fill="none" stroke="black" stroke-width="2" points="77,-100.5 136,-100.5 "/>
<text text-anchor="middle" x="106.5" y="-86.9" font-family="Arial" font-size="12.00">id: 1002</text>
</g>
<!-- synth&#45;1003 -->
<g id="node6" class="node">
<title>synth&#45;1003</title>
<path fill="#eedc82" stroke="black" stroke-width="2" d="M50,-0.5C50,-0.5 85,-0.5 85,-0.5 91,-0.5 97,-6.5 97,-12.5 97,-12.5 97,-30.5 97,-30.5 97,-36.5 91,-42.5 85,-42.5 85,-42.5 50,-42.5 50,-42.5 44,-42.5 38,-36.5 38,-30.5 38,-30.5 38,-12.5 38,-12.5 38,-6.5 44,-0.5 50,-0.5"/>
<text text-anchor="middle" x="67.5" y="-28.9" font-family="Arial" font-size="12.00">Synth</text>
<polyline fill="none" stroke="black" stroke-width="2" points="38,-21.5 97,-21.5 "/>
<text text-anchor="middle" x="67.5" y="-7.9" font-family="Arial" font-size="12.00">id: 1003</text>
</g>
<!-- synth&#45;1004 -->
<g id="node7" class="node">
<title>synth&#45;1004</title>
<path fill="#eedc82" stroke="black" stroke-width="2" d="M127,-0.5C127,-0.5 162,-0.5 162,-0.5 168,-0.5 174,-6.5 174,-12.5 174,-12.5 174,-30.5 174,-30.5 174,-36.5 168,-42.5 162,-42.5 162,-42.5 127,-42.5 127,-42.5 121,-42.5 115,-36.5 115,-30.5 115,-30.5 115,-12.5 115,-12.5 115,-6.5 121,-0.5 127,-0.5"/>
<text text-anchor="middle" x="144.5" y="-28.9" font-family="Arial" font-size="12.00">Synth</text>
<polyline fill="none" stroke="black" stroke-width="2" points="115,-21.5 174,-21.5 "/>
<text text-anchor="middle" x="144.5" y="-7.9" font-family="Arial" font-size="12.00">id: 1004</text>
</g>
</g>
</svg>
