<?xml version="1.0" encoding="UTF-8" standalone="no"?>
<!DOCTYPE svg PUBLIC "-//W3C//DTD SVG 1.1//EN"
 "http://www.w3.org/Graphics/SVG/1.1/DTD/svg11.dtd">
<!-- Generated by graphviz version 2.49.1 (20210923.0004)
 -->
<!-- Title: synthdef_0cdff384d8e500d7ab0fb634be46492a Pages: 1 -->
<svg width="822pt" height="707pt"
 viewBox="0.00 0.00 822.00 707.20" xmlns="http://www.w3.org/2000/svg" xmlns:xlink="http://www.w3.org/1999/xlink">
<g id="graph0" class="graph" transform="scale(1 1) rotate(0) translate(4 703.2)">
<title>synthdef_0cdff384d8e500d7ab0fb634be46492a</title>
<!-- ugen_0&#45;&gt;ugen_1 -->
<g id="edge1" class="edge">
<title>ugen_0:e&#45;&gt;ugen_1:w</title>
<path fill="none" stroke="salmon" stroke-width="2" d="M57,-250.2C186.42,-250.2 21.92,-520.77 135.27,-535.57"/>
<polygon fill="salmon" stroke="salmon" stroke-width="2" points="135.3,-539.08 145.5,-536.2 135.73,-532.09 135.3,-539.08"/>
</g>
<!-- ugen_0&#45;&gt;ugen_12 -->
<g id="edge2" class="edge">
<title>ugen_0:e&#45;&gt;ugen_12:w</title>
<path fill="none" stroke="salmon" stroke-width="2" d="M57,-250.2C205.97,-250.2 158.13,-71.63 296,-15.2 361.81,11.73 385.73,-4.27 456,-15.2 562.94,-31.84 609.19,-15.02 688,-89.2 749.9,-147.46 677.77,-265.04 749.93,-274.58"/>
<polygon fill="salmon" stroke="salmon" stroke-width="2" points="749.8,-278.08 760,-275.2 750.23,-271.09 749.8,-278.08"/>
</g>
<!-- ugen_1&#45;&gt;ugen_4 -->
<g id="edge3" class="edge">
<title>ugen_1:e&#45;&gt;ugen_4:w</title>
<path fill="none" stroke="steelblue" stroke-width="2" d="M207.5,-557.2C262.21,-557.2 240.83,-642.46 286.03,-653.11"/>
<polygon fill="steelblue" stroke="steelblue" stroke-width="2" points="285.68,-656.59 296,-654.2 286.44,-649.64 285.68,-656.59"/>
</g>
<!-- ugen_1&#45;&gt;ugen_5 -->
<g id="edge4" class="edge">
<title>ugen_1:e&#45;&gt;ugen_5:w</title>
<path fill="none" stroke="steelblue" stroke-width="2" d="M207.5,-536.2C245.73,-536.2 253.07,-509.47 285.99,-504.87"/>
<polygon fill="steelblue" stroke="steelblue" stroke-width="2" points="286.26,-508.36 296,-504.2 285.79,-501.38 286.26,-508.36"/>
</g>
<!-- ugen_1&#45;&gt;ugen_6 -->
<g id="edge5" class="edge">
<title>ugen_1:e&#45;&gt;ugen_6:w</title>
<path fill="none" stroke="steelblue" stroke-width="2" d="M207.5,-515.2C387.72,-515.2 122.91,-126.83 285.75,-111.66"/>
<polygon fill="steelblue" stroke="steelblue" stroke-width="2" points="286.17,-115.14 296,-111.2 285.85,-108.15 286.17,-115.14"/>
</g>
<!-- ugen_10&#45;&gt;ugen_12 -->
<g id="edge6" class="edge">
<title>ugen_10:e&#45;&gt;ugen_12:w</title>
<path fill="none" stroke="steelblue" stroke-width="2" d="M688,-297.2C727.41,-297.2 718.91,-242.89 750.08,-233.56"/>
<polygon fill="steelblue" stroke="steelblue" stroke-width="2" points="750.57,-237.03 760,-232.2 749.62,-230.09 750.57,-237.03"/>
</g>
<!-- ugen_11&#45;&gt;ugen_12 -->
<g id="edge7" class="edge">
<title>ugen_11:e&#45;&gt;ugen_12:w</title>
<path fill="none" stroke="steelblue" stroke-width="2" d="M688,-147.2C726.97,-147.2 719.18,-200.22 749.75,-209.74"/>
<polygon fill="steelblue" stroke="steelblue" stroke-width="2" points="749.61,-213.26 760,-211.2 750.59,-206.33 749.61,-213.26"/>
</g>
<!-- ugen_2&#45;&gt;ugen_4 -->
<g id="edge8" class="edge">
<title>ugen_2:e&#45;&gt;ugen_4:w</title>
<path fill="none" stroke="salmon" stroke-width="2" d="M224,-296.2C349.69,-296.2 176.97,-562.45 285.76,-577.54"/>
<polygon fill="salmon" stroke="salmon" stroke-width="2" points="285.79,-581.05 296,-578.2 286.25,-574.06 285.79,-581.05"/>
</g>
<!-- ugen_2&#45;&gt;ugen_5 -->
<g id="edge9" class="edge">
<title>ugen_2:e&#45;&gt;ugen_5:w</title>
<path fill="none" stroke="salmon" stroke-width="2" d="M224,-296.2C287.04,-296.2 235.75,-413.67 285.83,-426.98"/>
<polygon fill="salmon" stroke="salmon" stroke-width="2" points="285.65,-430.48 296,-428.2 286.49,-423.53 285.65,-430.48"/>
</g>
<!-- ugen_2&#45;&gt;ugen_6 -->
<g id="edge10" class="edge">
<title>ugen_2:e&#45;&gt;ugen_6:w</title>
<path fill="none" stroke="salmon" stroke-width="2" d="M224,-296.2C340.69,-296.2 185.61,-50.76 285.85,-35.9"/>
<polygon fill="salmon" stroke="salmon" stroke-width="2" points="286.27,-39.38 296,-35.2 285.78,-32.4 286.27,-39.38"/>
</g>
<!-- ugen_3&#45;&gt;ugen_4 -->
<g id="edge11" class="edge">
<title>ugen_3:e&#45;&gt;ugen_4:w</title>
<path fill="none" stroke="salmon" stroke-width="2" d="M224,-417.2C307.25,-417.2 217.43,-583.9 285.8,-598.22"/>
<polygon fill="salmon" stroke="salmon" stroke-width="2" points="285.71,-601.73 296,-599.2 286.38,-594.76 285.71,-601.73"/>
</g>
<!-- ugen_3&#45;&gt;ugen_5 -->
<g id="edge12" class="edge">
<title>ugen_3:e&#45;&gt;ugen_5:w</title>
<path fill="none" stroke="salmon" stroke-width="2" d="M224,-417.2C255.32,-417.2 260.2,-442.81 285.95,-448.21"/>
<polygon fill="salmon" stroke="salmon" stroke-width="2" points="285.7,-451.7 296,-449.2 286.39,-444.74 285.7,-451.7"/>
</g>
<!-- ugen_3&#45;&gt;ugen_6 -->
<g id="edge13" class="edge">
<title>ugen_3:e&#45;&gt;ugen_6:w</title>
<path fill="none" stroke="salmon" stroke-width="2" d="M224,-417.2C383.93,-417.2 143.65,-72.24 285.6,-56.74"/>
<polygon fill="salmon" stroke="salmon" stroke-width="2" points="286.19,-60.21 296,-56.2 285.83,-53.22 286.19,-60.21"/>
</g>
<!-- ugen_4&#45;&gt;ugen_9 -->
<g id="edge14" class="edge">
<title>ugen_4:e&#45;&gt;ugen_9:w</title>
<path fill="none" stroke="steelblue" stroke-width="2" d="M456,-616.2C518.67,-616.2 468.05,-499.62 517.89,-486.41"/>
<polygon fill="steelblue" stroke="steelblue" stroke-width="2" points="518.49,-489.87 528,-485.2 517.65,-482.92 518.49,-489.87"/>
</g>
<!-- ugen_5&#45;&gt;ugen_10 -->
<g id="edge15" class="edge">
<title>ugen_5:e&#45;&gt;ugen_10:w</title>
<path fill="none" stroke="steelblue" stroke-width="2" d="M456,-466.2C518.67,-466.2 468.05,-349.62 517.89,-336.41"/>
<polygon fill="steelblue" stroke="steelblue" stroke-width="2" points="518.49,-339.87 528,-335.2 517.65,-332.92 518.49,-339.87"/>
</g>
<!-- ugen_6&#45;&gt;ugen_11 -->
<g id="edge16" class="edge">
<title>ugen_6:e&#45;&gt;ugen_11:w</title>
<path fill="none" stroke="steelblue" stroke-width="2" d="M456,-73.2C511.36,-73.2 474.36,-171.23 517.82,-183.87"/>
<polygon fill="steelblue" stroke="steelblue" stroke-width="2" points="517.63,-187.37 528,-185.2 518.54,-180.43 517.63,-187.37"/>
</g>
<!-- ugen_7&#45;&gt;ugen_10 -->
<g id="edge17" class="edge">
<title>ugen_7:e&#45;&gt;ugen_10:w</title>
<path fill="none" stroke="salmon" stroke-width="2" d="M425,-209.2C472.31,-209.2 476.7,-252.42 517.97,-258.49"/>
<polygon fill="salmon" stroke="salmon" stroke-width="2" points="517.78,-261.99 528,-259.2 518.27,-255.01 517.78,-261.99"/>
</g>
<!-- ugen_7&#45;&gt;ugen_11 -->
<g id="edge18" class="edge">
<title>ugen_7:e&#45;&gt;ugen_11:w</title>
<path fill="none" stroke="salmon" stroke-width="2" d="M425,-209.2C485.19,-209.2 466.7,-120.21 517.98,-110.13"/>
<polygon fill="salmon" stroke="salmon" stroke-width="2" points="518.36,-113.61 528,-109.2 517.72,-106.64 518.36,-113.61"/>
</g>
<!-- ugen_7&#45;&gt;ugen_9 -->
<g id="edge19" class="edge">
<title>ugen_7:e&#45;&gt;ugen_9:w</title>
<path fill="none" stroke="salmon" stroke-width="2" d="M425,-209.2C521.37,-209.2 434.77,-395.01 517.91,-408.44"/>
<polygon fill="salmon" stroke="salmon" stroke-width="2" points="517.76,-411.94 528,-409.2 518.29,-404.96 517.76,-411.94"/>
</g>
<!-- ugen_8&#45;&gt;ugen_10 -->
<g id="edge20" class="edge">
<title>ugen_8:e&#45;&gt;ugen_10:w</title>
<path fill="none" stroke="salmon" stroke-width="2" d="M425,-330.2C472.31,-330.2 476.7,-286.99 517.97,-280.91"/>
<polygon fill="salmon" stroke="salmon" stroke-width="2" points="518.27,-284.4 528,-280.2 517.78,-277.41 518.27,-284.4"/>
</g>
<!-- ugen_8&#45;&gt;ugen_11 -->
<g id="edge21" class="edge">
<title>ugen_8:e&#45;&gt;ugen_11:w</title>
<path fill="none" stroke="salmon" stroke-width="2" d="M425,-330.2C521.37,-330.2 434.77,-144.39 517.91,-130.97"/>
<polygon fill="salmon" stroke="salmon" stroke-width="2" points="518.29,-134.45 528,-130.2 517.76,-127.47 518.29,-134.45"/>
</g>
<!-- ugen_8&#45;&gt;ugen_9 -->
<g id="edge22" class="edge">
<title>ugen_8:e&#45;&gt;ugen_9:w</title>
<path fill="none" stroke="salmon" stroke-width="2" d="M425,-330.2C485.19,-330.2 466.7,-419.19 517.98,-429.28"/>
<polygon fill="salmon" stroke="salmon" stroke-width="2" points="517.72,-432.77 528,-430.2 518.36,-425.8 517.72,-432.77"/>
</g>
<!-- ugen_9&#45;&gt;ugen_12 -->
<g id="edge23" class="edge">
<title>ugen_9:e&#45;&gt;ugen_12:w</title>
<path fill="none" stroke="steelblue" stroke-width="2" d="M688,-447.2C776.2,-447.2 676.87,-268.79 749.68,-254.15"/>
<polygon fill="steelblue" stroke="steelblue" stroke-width="2" points="750.36,-257.61 760,-253.2 749.72,-250.64 750.36,-257.61"/>
</g>
<!-- ugen_0 -->
<g id="node1" class="node">
<title>ugen_0</title>
<path fill="#ee9572" stroke="black" stroke-width="2" d="M12,-233.2C12,-233.2 45,-233.2 45,-233.2 51,-233.2 57,-239.2 57,-245.2 57,-245.2 57,-289.2 57,-289.2 57,-295.2 51,-301.2 45,-301.2 45,-301.2 12,-301.2 12,-301.2 6,-301.2 0,-295.2 0,-289.2 0,-289.2 0,-245.2 0,-245.2 0,-239.2 6,-233.2 12,-233.2"/>
<text text-anchor="middle" x="28.5" y="-287.6" font-family="Arial" font-size="12.00">Control</text>
<text text-anchor="middle" x="28.5" y="-274.6" font-family="Arial" font-size="12.00">(scalar)</text>
<polyline fill="none" stroke="black" stroke-width="2" points="0,-267.2 57,-267.2 "/>
<text text-anchor="middle" x="28.5" y="-253.6" font-family="Arial" font-size="12.00">out:</text>
<text text-anchor="middle" x="28.5" y="-240.6" font-family="Arial" font-size="12.00">0.0</text>
</g>
<!-- ugen_1 -->
<g id="node2" class="node">
<title>ugen_1</title>
<path fill="#bcd2ee" stroke="black" stroke-width="2" d="M159,-504.7C159,-504.7 194,-504.7 194,-504.7 200,-504.7 206,-510.7 206,-516.7 206,-516.7 206,-589.7 206,-589.7 206,-595.7 200,-601.7 194,-601.7 194,-601.7 159,-601.7 159,-601.7 153,-601.7 147,-595.7 147,-589.7 147,-589.7 147,-516.7 147,-516.7 147,-510.7 153,-504.7 159,-504.7"/>
<text text-anchor="middle" x="176.5" y="-588.1" font-family="Arial" font-size="12.00">In</text>
<text text-anchor="middle" x="176.5" y="-575.1" font-family="Arial" font-size="12.00">(audio)</text>
<polyline fill="none" stroke="black" stroke-width="2" points="147,-567.7 206,-567.7 "/>
<text text-anchor="middle" x="165" y="-533.1" font-family="Arial" font-size="12.00">bus</text>
<polyline fill="none" stroke="black" stroke-width="2" points="183,-504.7 183,-567.7 "/>
<text text-anchor="middle" x="194.5" y="-554.1" font-family="Arial" font-size="12.00">0</text>
<polyline fill="none" stroke="black" stroke-width="2" points="183,-546.7 206,-546.7 "/>
<text text-anchor="middle" x="194.5" y="-533.1" font-family="Arial" font-size="12.00">1</text>
<polyline fill="none" stroke="black" stroke-width="2" points="183,-525.7 206,-525.7 "/>
<text text-anchor="middle" x="194.5" y="-512.1" font-family="Arial" font-size="12.00">2</text>
</g>
<!-- ugen_10 -->
<g id="node3" class="node">
<title>ugen_10</title>
<path fill="#bcd2ee" stroke="black" stroke-width="2" d="M540,-248.7C540,-248.7 676,-248.7 676,-248.7 682,-248.7 688,-254.7 688,-260.7 688,-260.7 688,-367.7 688,-367.7 688,-373.7 682,-379.7 676,-379.7 676,-379.7 540,-379.7 540,-379.7 534,-379.7 528,-373.7 528,-367.7 528,-367.7 528,-260.7 528,-260.7 528,-254.7 534,-248.7 540,-248.7"/>
<text text-anchor="middle" x="608" y="-366.1" font-family="Arial" font-size="12.00">AllpassC</text>
<text text-anchor="middle" x="608" y="-353.1" font-family="Arial" font-size="12.00">(audio)</text>
<polyline fill="none" stroke="black" stroke-width="2" points="528,-345.7 688,-345.7 "/>
<text text-anchor="middle" x="596.5" y="-332.1" font-family="Arial" font-size="12.00">source</text>
<polyline fill="none" stroke="black" stroke-width="2" points="528,-324.7 665,-324.7 "/>
<text text-anchor="middle" x="596.5" y="-311.1" font-family="Arial" font-size="12.00">maximum_delay_time:</text>
<text text-anchor="middle" x="596.5" y="-298.1" font-family="Arial" font-size="12.00">0.1</text>
<polyline fill="none" stroke="black" stroke-width="2" points="528,-290.7 665,-290.7 "/>
<text text-anchor="middle" x="596.5" y="-277.1" font-family="Arial" font-size="12.00">delay_time</text>
<polyline fill="none" stroke="black" stroke-width="2" points="528,-269.7 665,-269.7 "/>
<text text-anchor="middle" x="596.5" y="-256.1" font-family="Arial" font-size="12.00">decay_time</text>
<polyline fill="none" stroke="black" stroke-width="2" points="665,-248.7 665,-345.7 "/>
<text text-anchor="middle" x="676.5" y="-294.1" font-family="Arial" font-size="12.00">0</text>
</g>
<!-- ugen_11 -->
<g id="node4" class="node">
<title>ugen_11</title>
<path fill="#bcd2ee" stroke="black" stroke-width="2" d="M540,-98.7C540,-98.7 676,-98.7 676,-98.7 682,-98.7 688,-104.7 688,-110.7 688,-110.7 688,-217.7 688,-217.7 688,-223.7 682,-229.7 676,-229.7 676,-229.7 540,-229.7 540,-229.7 534,-229.7 528,-223.7 528,-217.7 528,-217.7 528,-110.7 528,-110.7 528,-104.7 534,-98.7 540,-98.7"/>
<text text-anchor="middle" x="608" y="-216.1" font-family="Arial" font-size="12.00">AllpassC</text>
<text text-anchor="middle" x="608" y="-203.1" font-family="Arial" font-size="12.00">(audio)</text>
<polyline fill="none" stroke="black" stroke-width="2" points="528,-195.7 688,-195.7 "/>
<text text-anchor="middle" x="596.5" y="-182.1" font-family="Arial" font-size="12.00">source</text>
<polyline fill="none" stroke="black" stroke-width="2" points="528,-174.7 665,-174.7 "/>
<text text-anchor="middle" x="596.5" y="-161.1" font-family="Arial" font-size="12.00">maximum_delay_time:</text>
<text text-anchor="middle" x="596.5" y="-148.1" font-family="Arial" font-size="12.00">0.1</text>
<polyline fill="none" stroke="black" stroke-width="2" points="528,-140.7 665,-140.7 "/>
<text text-anchor="middle" x="596.5" y="-127.1" font-family="Arial" font-size="12.00">delay_time</text>
<polyline fill="none" stroke="black" stroke-width="2" points="528,-119.7 665,-119.7 "/>
<text text-anchor="middle" x="596.5" y="-106.1" font-family="Arial" font-size="12.00">decay_time</text>
<polyline fill="none" stroke="black" stroke-width="2" points="665,-98.7 665,-195.7 "/>
<text text-anchor="middle" x="676.5" y="-144.1" font-family="Arial" font-size="12.00">0</text>
</g>
<!-- ugen_12 -->
<g id="node5" class="node">
<title>ugen_12</title>
<path fill="#bcd2ee" stroke="black" stroke-width="2" d="M772,-201.2C772,-201.2 802,-201.2 802,-201.2 808,-201.2 814,-207.2 814,-213.2 814,-213.2 814,-307.2 814,-307.2 814,-313.2 808,-319.2 802,-319.2 802,-319.2 772,-319.2 772,-319.2 766,-319.2 760,-313.2 760,-307.2 760,-307.2 760,-213.2 760,-213.2 760,-207.2 766,-201.2 772,-201.2"/>
<text text-anchor="middle" x="787" y="-305.6" font-family="Arial" font-size="12.00">Out</text>
<text text-anchor="middle" x="787" y="-292.6" font-family="Arial" font-size="12.00">(audio)</text>
<polyline fill="none" stroke="black" stroke-width="2" points="760,-285.2 814,-285.2 "/>
<text text-anchor="middle" x="787" y="-271.6" font-family="Arial" font-size="12.00">bus</text>
<polyline fill="none" stroke="black" stroke-width="2" points="760,-264.2 814,-264.2 "/>
<text text-anchor="middle" x="787" y="-250.6" font-family="Arial" font-size="12.00">source</text>
<polyline fill="none" stroke="black" stroke-width="2" points="760,-243.2 814,-243.2 "/>
<text text-anchor="middle" x="787" y="-229.6" font-family="Arial" font-size="12.00"> </text>
<polyline fill="none" stroke="black" stroke-width="2" points="760,-222.2 814,-222.2 "/>
<text text-anchor="middle" x="787" y="-208.6" font-family="Arial" font-size="12.00"> </text>
</g>
<!-- ugen_2 -->
<g id="node6" class="node">
<title>ugen_2</title>
<path fill="#ee9572" stroke="black" stroke-width="2" d="M141,-262.2C141,-262.2 212,-262.2 212,-262.2 218,-262.2 224,-268.2 224,-274.2 224,-274.2 224,-352.2 224,-352.2 224,-358.2 218,-364.2 212,-364.2 212,-364.2 141,-364.2 141,-364.2 135,-364.2 129,-358.2 129,-352.2 129,-352.2 129,-274.2 129,-274.2 129,-268.2 135,-262.2 141,-262.2"/>
<text text-anchor="middle" x="176.5" y="-350.6" font-family="Arial" font-size="12.00">ExpRand</text>
<text text-anchor="middle" x="176.5" y="-337.6" font-family="Arial" font-size="12.00">(scalar)</text>
<polyline fill="none" stroke="black" stroke-width="2" points="129,-330.2 224,-330.2 "/>
<text text-anchor="middle" x="165" y="-316.6" font-family="Arial" font-size="12.00">minimum:</text>
<text text-anchor="middle" x="165" y="-303.6" font-family="Arial" font-size="12.00">0.01</text>
<polyline fill="none" stroke="black" stroke-width="2" points="129,-296.2 201,-296.2 "/>
<text text-anchor="middle" x="165" y="-282.6" font-family="Arial" font-size="12.00">maximum:</text>
<text text-anchor="middle" x="165" y="-269.6" font-family="Arial" font-size="12.00">0.1</text>
<polyline fill="none" stroke="black" stroke-width="2" points="201,-262.2 201,-330.2 "/>
<text text-anchor="middle" x="212.5" y="-293.1" font-family="Arial" font-size="12.00">0</text>
</g>
<!-- ugen_3 -->
<g id="node7" class="node">
<title>ugen_3</title>
<path fill="#ee9572" stroke="black" stroke-width="2" d="M141,-383.2C141,-383.2 212,-383.2 212,-383.2 218,-383.2 224,-389.2 224,-395.2 224,-395.2 224,-473.2 224,-473.2 224,-479.2 218,-485.2 212,-485.2 212,-485.2 141,-485.2 141,-485.2 135,-485.2 129,-479.2 129,-473.2 129,-473.2 129,-395.2 129,-395.2 129,-389.2 135,-383.2 141,-383.2"/>
<text text-anchor="middle" x="176.5" y="-471.6" font-family="Arial" font-size="12.00">ExpRand</text>
<text text-anchor="middle" x="176.5" y="-458.6" font-family="Arial" font-size="12.00">(scalar)</text>
<polyline fill="none" stroke="black" stroke-width="2" points="129,-451.2 224,-451.2 "/>
<text text-anchor="middle" x="165" y="-437.6" font-family="Arial" font-size="12.00">minimum:</text>
<text text-anchor="middle" x="165" y="-424.6" font-family="Arial" font-size="12.00">0.01</text>
<polyline fill="none" stroke="black" stroke-width="2" points="129,-417.2 201,-417.2 "/>
<text text-anchor="middle" x="165" y="-403.6" font-family="Arial" font-size="12.00">maximum:</text>
<text text-anchor="middle" x="165" y="-390.6" font-family="Arial" font-size="12.00">0.1</text>
<polyline fill="none" stroke="black" stroke-width="2" points="201,-383.2 201,-451.2 "/>
<text text-anchor="middle" x="212.5" y="-414.1" font-family="Arial" font-size="12.00">0</text>
</g>
<!-- ugen_4 -->
<g id="node8" class="node">
<title>ugen_4</title>
<path fill="#bcd2ee" stroke="black" stroke-width="2" d="M308,-567.7C308,-567.7 444,-567.7 444,-567.7 450,-567.7 456,-573.7 456,-579.7 456,-579.7 456,-686.7 456,-686.7 456,-692.7 450,-698.7 444,-698.7 444,-698.7 308,-698.7 308,-698.7 302,-698.7 296,-692.7 296,-686.7 296,-686.7 296,-579.7 296,-579.7 296,-573.7 302,-567.7 308,-567.7"/>
<text text-anchor="middle" x="376" y="-685.1" font-family="Arial" font-size="12.00">AllpassC</text>
<text text-anchor="middle" x="376" y="-672.1" font-family="Arial" font-size="12.00">(audio)</text>
<polyline fill="none" stroke="black" stroke-width="2" points="296,-664.7 456,-664.7 "/>
<text text-anchor="middle" x="364.5" y="-651.1" font-family="Arial" font-size="12.00">source</text>
<polyline fill="none" stroke="black" stroke-width="2" points="296,-643.7 433,-643.7 "/>
<text text-anchor="middle" x="364.5" y="-630.1" font-family="Arial" font-size="12.00">maximum_delay_time:</text>
<text text-anchor="middle" x="364.5" y="-617.1" font-family="Arial" font-size="12.00">0.1</text>
<polyline fill="none" stroke="black" stroke-width="2" points="296,-609.7 433,-609.7 "/>
<text text-anchor="middle" x="364.5" y="-596.1" font-family="Arial" font-size="12.00">delay_time</text>
<polyline fill="none" stroke="black" stroke-width="2" points="296,-588.7 433,-588.7 "/>
<text text-anchor="middle" x="364.5" y="-575.1" font-family="Arial" font-size="12.00">decay_time</text>
<polyline fill="none" stroke="black" stroke-width="2" points="433,-567.7 433,-664.7 "/>
<text text-anchor="middle" x="444.5" y="-613.1" font-family="Arial" font-size="12.00">0</text>
</g>
<!-- ugen_5 -->
<g id="node9" class="node">
<title>ugen_5</title>
<path fill="#bcd2ee" stroke="black" stroke-width="2" d="M308,-417.7C308,-417.7 444,-417.7 444,-417.7 450,-417.7 456,-423.7 456,-429.7 456,-429.7 456,-536.7 456,-536.7 456,-542.7 450,-548.7 444,-548.7 444,-548.7 308,-548.7 308,-548.7 302,-548.7 296,-542.7 296,-536.7 296,-536.7 296,-429.7 296,-429.7 296,-423.7 302,-417.7 308,-417.7"/>
<text text-anchor="middle" x="376" y="-535.1" font-family="Arial" font-size="12.00">AllpassC</text>
<text text-anchor="middle" x="376" y="-522.1" font-family="Arial" font-size="12.00">(audio)</text>
<polyline fill="none" stroke="black" stroke-width="2" points="296,-514.7 456,-514.7 "/>
<text text-anchor="middle" x="364.5" y="-501.1" font-family="Arial" font-size="12.00">source</text>
<polyline fill="none" stroke="black" stroke-width="2" points="296,-493.7 433,-493.7 "/>
<text text-anchor="middle" x="364.5" y="-480.1" font-family="Arial" font-size="12.00">maximum_delay_time:</text>
<text text-anchor="middle" x="364.5" y="-467.1" font-family="Arial" font-size="12.00">0.1</text>
<polyline fill="none" stroke="black" stroke-width="2" points="296,-459.7 433,-459.7 "/>
<text text-anchor="middle" x="364.5" y="-446.1" font-family="Arial" font-size="12.00">delay_time</text>
<polyline fill="none" stroke="black" stroke-width="2" points="296,-438.7 433,-438.7 "/>
<text text-anchor="middle" x="364.5" y="-425.1" font-family="Arial" font-size="12.00">decay_time</text>
<polyline fill="none" stroke="black" stroke-width="2" points="433,-417.7 433,-514.7 "/>
<text text-anchor="middle" x="444.5" y="-463.1" font-family="Arial" font-size="12.00">0</text>
</g>
<!-- ugen_6 -->
<g id="node10" class="node">
<title>ugen_6</title>
<path fill="#bcd2ee" stroke="black" stroke-width="2" d="M308,-24.7C308,-24.7 444,-24.7 444,-24.7 450,-24.7 456,-30.7 456,-36.7 456,-36.7 456,-143.7 456,-143.7 456,-149.7 450,-155.7 444,-155.7 444,-155.7 308,-155.7 308,-155.7 302,-155.7 296,-149.7 296,-143.7 296,-143.7 296,-36.7 296,-36.7 296,-30.7 302,-24.7 308,-24.7"/>
<text text-anchor="middle" x="376" y="-142.1" font-family="Arial" font-size="12.00">AllpassC</text>
<text text-anchor="middle" x="376" y="-129.1" font-family="Arial" font-size="12.00">(audio)</text>
<polyline fill="none" stroke="black" stroke-width="2" points="296,-121.7 456,-121.7 "/>
<text text-anchor="middle" x="364.5" y="-108.1" font-family="Arial" font-size="12.00">source</text>
<polyline fill="none" stroke="black" stroke-width="2" points="296,-100.7 433,-100.7 "/>
<text text-anchor="middle" x="364.5" y="-87.1" font-family="Arial" font-size="12.00">maximum_delay_time:</text>
<text text-anchor="middle" x="364.5" y="-74.1" font-family="Arial" font-size="12.00">0.1</text>
<polyline fill="none" stroke="black" stroke-width="2" points="296,-66.7 433,-66.7 "/>
<text text-anchor="middle" x="364.5" y="-53.1" font-family="Arial" font-size="12.00">delay_time</text>
<polyline fill="none" stroke="black" stroke-width="2" points="296,-45.7 433,-45.7 "/>
<text text-anchor="middle" x="364.5" y="-32.1" font-family="Arial" font-size="12.00">decay_time</text>
<polyline fill="none" stroke="black" stroke-width="2" points="433,-24.7 433,-121.7 "/>
<text text-anchor="middle" x="444.5" y="-70.1" font-family="Arial" font-size="12.00">0</text>
</g>
<!-- ugen_7 -->
<g id="node11" class="node">
<title>ugen_7</title>
<path fill="#ee9572" stroke="black" stroke-width="2" d="M340.5,-175.2C340.5,-175.2 411.5,-175.2 411.5,-175.2 417.5,-175.2 423.5,-181.2 423.5,-187.2 423.5,-187.2 423.5,-265.2 423.5,-265.2 423.5,-271.2 417.5,-277.2 411.5,-277.2 411.5,-277.2 340.5,-277.2 340.5,-277.2 334.5,-277.2 328.5,-271.2 328.5,-265.2 328.5,-265.2 328.5,-187.2 328.5,-187.2 328.5,-181.2 334.5,-175.2 340.5,-175.2"/>
<text text-anchor="middle" x="376" y="-263.6" font-family="Arial" font-size="12.00">ExpRand</text>
<text text-anchor="middle" x="376" y="-250.6" font-family="Arial" font-size="12.00">(scalar)</text>
<polyline fill="none" stroke="black" stroke-width="2" points="328.5,-243.2 423.5,-243.2 "/>
<text text-anchor="middle" x="364.5" y="-229.6" font-family="Arial" font-size="12.00">minimum:</text>
<text text-anchor="middle" x="364.5" y="-216.6" font-family="Arial" font-size="12.00">0.01</text>
<polyline fill="none" stroke="black" stroke-width="2" points="328.5,-209.2 400.5,-209.2 "/>
<text text-anchor="middle" x="364.5" y="-195.6" font-family="Arial" font-size="12.00">maximum:</text>
<text text-anchor="middle" x="364.5" y="-182.6" font-family="Arial" font-size="12.00">0.1</text>
<polyline fill="none" stroke="black" stroke-width="2" points="400.5,-175.2 400.5,-243.2 "/>
<text text-anchor="middle" x="412" y="-206.1" font-family="Arial" font-size="12.00">0</text>
</g>
<!-- ugen_8 -->
<g id="node12" class="node">
<title>ugen_8</title>
<path fill="#ee9572" stroke="black" stroke-width="2" d="M340.5,-296.2C340.5,-296.2 411.5,-296.2 411.5,-296.2 417.5,-296.2 423.5,-302.2 423.5,-308.2 423.5,-308.2 423.5,-386.2 423.5,-386.2 423.5,-392.2 417.5,-398.2 411.5,-398.2 411.5,-398.2 340.5,-398.2 340.5,-398.2 334.5,-398.2 328.5,-392.2 328.5,-386.2 328.5,-386.2 328.5,-308.2 328.5,-308.2 328.5,-302.2 334.5,-296.2 340.5,-296.2"/>
<text text-anchor="middle" x="376" y="-384.6" font-family="Arial" font-size="12.00">ExpRand</text>
<text text-anchor="middle" x="376" y="-371.6" font-family="Arial" font-size="12.00">(scalar)</text>
<polyline fill="none" stroke="black" stroke-width="2" points="328.5,-364.2 423.5,-364.2 "/>
<text text-anchor="middle" x="364.5" y="-350.6" font-family="Arial" font-size="12.00">minimum:</text>
<text text-anchor="middle" x="364.5" y="-337.6" font-family="Arial" font-size="12.00">0.01</text>
<polyline fill="none" stroke="black" stroke-width="2" points="328.5,-330.2 400.5,-330.2 "/>
<text text-anchor="middle" x="364.5" y="-316.6" font-family="Arial" font-size="12.00">maximum:</text>
<text text-anchor="middle" x="364.5" y="-303.6" font-family="Arial" font-size="12.00">0.1</text>
<polyline fill="none" stroke="black" stroke-width="2" points="400.5,-296.2 400.5,-364.2 "/>
<text text-anchor="middle" x="412" y="-327.1" font-family="Arial" font-size="12.00">0</text>
</g>
<!-- ugen_9 -->
<g id="node13" class="node">
<title>ugen_9</title>
<path fill="#bcd2ee" stroke="black" stroke-width="2" d="M540,-398.7C540,-398.7 676,-398.7 676,-398.7 682,-398.7 688,-404.7 688,-410.7 688,-410.7 688,-517.7 688,-517.7 688,-523.7 682,-529.7 676,-529.7 676,-529.7 540,-529.7 540,-529.7 534,-529.7 528,-523.7 528,-517.7 528,-517.7 528,-410.7 528,-410.7 528,-404.7 534,-398.7 540,-398.7"/>
<text text-anchor="middle" x="608" y="-516.1" font-family="Arial" font-size="12.00">AllpassC</text>
<text text-anchor="middle" x="608" y="-503.1" font-family="Arial" font-size="12.00">(audio)</text>
<polyline fill="none" stroke="black" stroke-width="2" points="528,-495.7 688,-495.7 "/>
<text text-anchor="middle" x="596.5" y="-482.1" font-family="Arial" font-size="12.00">source</text>
<polyline fill="none" stroke="black" stroke-width="2" points="528,-474.7 665,-474.7 "/>
<text text-anchor="middle" x="596.5" y="-461.1" font-family="Arial" font-size="12.00">maximum_delay_time:</text>
<text text-anchor="middle" x="596.5" y="-448.1" font-family="Arial" font-size="12.00">0.1</text>
<polyline fill="none" stroke="black" stroke-width="2" points="528,-440.7 665,-440.7 "/>
<text text-anchor="middle" x="596.5" y="-427.1" font-family="Arial" font-size="12.00">delay_time</text>
<polyline fill="none" stroke="black" stroke-width="2" points="528,-419.7 665,-419.7 "/>
<text text-anchor="middle" x="596.5" y="-406.1" font-family="Arial" font-size="12.00">decay_time</text>
<polyline fill="none" stroke="black" stroke-width="2" points="665,-398.7 665,-495.7 "/>
<text text-anchor="middle" x="676.5" y="-444.1" font-family="Arial" font-size="12.00">0</text>
</g>
</g>
</svg>
