<?xml version="1.0" encoding="UTF-8" standalone="no"?>
<!DOCTYPE svg PUBLIC "-//W3C//DTD SVG 1.1//EN"
 "http://www.w3.org/Graphics/SVG/1.1/DTD/svg11.dtd">
<!-- Generated by graphviz version 2.43.0 (0)
 -->
<!-- Title: synthdef_b99a652403a53399ca50439b05bbea5a Pages: 1 -->
<svg width="1012pt" height="504pt"
 viewBox="0.00 0.00 1012.00 503.50" xmlns="http://www.w3.org/2000/svg" xmlns:xlink="http://www.w3.org/1999/xlink">
<g id="graph0" class="graph" transform="scale(1 1) rotate(0) translate(4 499.5)">
<title>synthdef_b99a652403a53399ca50439b05bbea5a</title>
<!-- ugen_0&#45;&gt;ugen_1 -->
<g id="edge1" class="edge">
<title>ugen_0:e&#45;&gt;ugen_1:w</title>
<path fill="none" stroke="goldenrod" stroke-width="2" d="M405,-444C465.08,-444 482.56,-444 537.98,-444"/>
<polygon fill="goldenrod" stroke="goldenrod" stroke-width="2" points="538,-447.5 548,-444 538,-440.5 538,-447.5"/>
</g>
<!-- ugen_1&#45;&gt;ugen_10 -->
<g id="edge2" class="edge">
<title>ugen_1:e&#45;&gt;ugen_10:w</title>
<path fill="none" stroke="goldenrod" stroke-width="2" d="M664,-376C758.96,-376 666.76,-189.64 747.83,-175.81"/>
<polygon fill="goldenrod" stroke="goldenrod" stroke-width="2" points="748.31,-179.28 758,-175 747.75,-172.31 748.31,-179.28"/>
</g>
<!-- ugen_10&#45;&gt;ugen_11 -->
<g id="edge3" class="edge">
<title>ugen_10:e&#45;&gt;ugen_11:w</title>
<path fill="none" stroke="steelblue" stroke-width="2" d="M878,-185C931.17,-185 898.18,-92.61 939.9,-80.34"/>
<polygon fill="steelblue" stroke="steelblue" stroke-width="2" points="940.55,-83.79 950,-79 939.63,-76.85 940.55,-83.79"/>
</g>
<!-- ugen_2&#45;&gt;ugen_11 -->
<g id="edge4" class="edge">
<title>ugen_2:e&#45;&gt;ugen_11:w</title>
<path fill="none" stroke="salmon" stroke-width="2" d="M56,-179C98.23,-179 93.68,-141.61 128,-117 226.06,-46.68 252.33,0 373,0 373,0 373,0 607,0 762.38,0 790.06,-95.75 939.95,-99.86"/>
<polygon fill="salmon" stroke="salmon" stroke-width="2" points="939.95,-103.36 950,-100 940.05,-96.36 939.95,-103.36"/>
</g>
<!-- ugen_2&#45;&gt;ugen_3 -->
<g id="edge5" class="edge">
<title>ugen_2:e&#45;&gt;ugen_3:w</title>
<path fill="none" stroke="salmon" stroke-width="2" d="M56,-179C149.51,-179 54.49,-364.43 134.01,-378.19"/>
<polygon fill="salmon" stroke="salmon" stroke-width="2" points="133.75,-381.68 144,-379 134.31,-374.71 133.75,-381.68"/>
</g>
<!-- ugen_3&#45;&gt;ugen_6 -->
<g id="edge6" class="edge">
<title>ugen_3:e&#45;&gt;ugen_6:w</title>
<path fill="none" stroke="steelblue" stroke-width="2" d="M206,-379C242.6,-379 252.17,-361.6 283.91,-358.48"/>
<polygon fill="steelblue" stroke="steelblue" stroke-width="2" points="284.18,-361.97 294,-358 283.85,-354.98 284.18,-361.97"/>
</g>
<!-- ugen_4&#45;&gt;ugen_6 -->
<g id="edge7" class="edge">
<title>ugen_4:e&#45;&gt;ugen_6:w</title>
<path fill="none" stroke="salmon" stroke-width="2" d="M222,-160C281.15,-160 237.14,-267.67 283.8,-280.71"/>
<polygon fill="salmon" stroke="salmon" stroke-width="2" points="283.64,-284.22 294,-282 284.52,-277.28 283.64,-284.22"/>
</g>
<!-- ugen_5&#45;&gt;ugen_6 -->
<g id="edge8" class="edge">
<title>ugen_5:e&#45;&gt;ugen_6:w</title>
<path fill="none" stroke="salmon" stroke-width="2" d="M222,-281C251.8,-281 259.09,-298.45 283.97,-302.27"/>
<polygon fill="salmon" stroke="salmon" stroke-width="2" points="283.77,-305.76 294,-303 284.28,-298.78 283.77,-305.76"/>
</g>
<!-- ugen_6&#45;&gt;ugen_9 -->
<g id="edge9" class="edge">
<title>ugen_6:e&#45;&gt;ugen_9:w</title>
<path fill="none" stroke="steelblue" stroke-width="2" d="M454,-320C499.95,-320 480.01,-246.91 515.66,-235.49"/>
<polygon fill="steelblue" stroke="steelblue" stroke-width="2" points="516.6,-238.89 526,-234 515.6,-231.97 516.6,-238.89"/>
</g>
<!-- ugen_7&#45;&gt;ugen_9 -->
<g id="edge10" class="edge">
<title>ugen_7:e&#45;&gt;ugen_9:w</title>
<path fill="none" stroke="salmon" stroke-width="2" d="M422,-63C480.94,-63 465.59,-147.19 515.82,-157.06"/>
<polygon fill="salmon" stroke="salmon" stroke-width="2" points="515.72,-160.56 526,-158 516.36,-153.59 515.72,-160.56"/>
</g>
<!-- ugen_8&#45;&gt;ugen_9 -->
<g id="edge11" class="edge">
<title>ugen_8:e&#45;&gt;ugen_9:w</title>
<path fill="none" stroke="salmon" stroke-width="2" d="M422,-184C464.66,-184 477.72,-179.75 515.76,-179.09"/>
<polygon fill="salmon" stroke="salmon" stroke-width="2" points="516.03,-182.58 526,-179 515.97,-175.58 516.03,-182.58"/>
</g>
<!-- ugen_9&#45;&gt;ugen_10 -->
<g id="edge12" class="edge">
<title>ugen_9:e&#45;&gt;ugen_10:w</title>
<path fill="none" stroke="steelblue" stroke-width="2" d="M686,-196C714.38,-196 723.88,-196 747.98,-196"/>
<polygon fill="steelblue" stroke="steelblue" stroke-width="2" points="748,-199.5 758,-196 748,-192.5 748,-199.5"/>
</g>
<!-- ugen_0 -->
<g id="node1" class="node">
<title>ugen_0</title>
<path fill="#eedc82" stroke="black" stroke-width="2" d="M356,-427C356,-427 392,-427 392,-427 398,-427 404,-433 404,-439 404,-439 404,-483 404,-483 404,-489 398,-495 392,-495 392,-495 356,-495 356,-495 350,-495 344,-489 344,-483 344,-483 344,-439 344,-439 344,-433 350,-427 356,-427"/>
<text text-anchor="middle" x="374" y="-481.4" font-family="Arial" font-size="12.00">Control</text>
<text text-anchor="middle" x="374" y="-468.4" font-family="Arial" font-size="12.00">(control)</text>
<polyline fill="none" stroke="black" stroke-width="2" points="344,-461 404,-461 "/>
<text text-anchor="middle" x="374" y="-447.4" font-family="Arial" font-size="12.00">gate:</text>
<text text-anchor="middle" x="374" y="-434.4" font-family="Arial" font-size="12.00">1.0</text>
</g>
<!-- ugen_1 -->
<g id="node2" class="node">
<title>ugen_1</title>
<path fill="#eedc82" stroke="black" stroke-width="2" d="M561.5,-297.5C561.5,-297.5 650.5,-297.5 650.5,-297.5 656.5,-297.5 662.5,-303.5 662.5,-309.5 662.5,-309.5 662.5,-476.5 662.5,-476.5 662.5,-482.5 656.5,-488.5 650.5,-488.5 650.5,-488.5 561.5,-488.5 561.5,-488.5 555.5,-488.5 549.5,-482.5 549.5,-476.5 549.5,-476.5 549.5,-309.5 549.5,-309.5 549.5,-303.5 555.5,-297.5 561.5,-297.5"/>
<text text-anchor="middle" x="606" y="-474.9" font-family="Arial" font-size="12.00">Linen</text>
<text text-anchor="middle" x="606" y="-461.9" font-family="Arial" font-size="12.00">(control)</text>
<polyline fill="none" stroke="black" stroke-width="2" points="549.5,-454.5 662.5,-454.5 "/>
<text text-anchor="middle" x="594.5" y="-440.9" font-family="Arial" font-size="12.00">gate</text>
<polyline fill="none" stroke="black" stroke-width="2" points="549.5,-433.5 639.5,-433.5 "/>
<text text-anchor="middle" x="594.5" y="-419.9" font-family="Arial" font-size="12.00">attack_time:</text>
<text text-anchor="middle" x="594.5" y="-406.9" font-family="Arial" font-size="12.00">0.02</text>
<polyline fill="none" stroke="black" stroke-width="2" points="549.5,-399.5 639.5,-399.5 "/>
<text text-anchor="middle" x="594.5" y="-385.9" font-family="Arial" font-size="12.00">sustain_level:</text>
<text text-anchor="middle" x="594.5" y="-372.9" font-family="Arial" font-size="12.00">1.0</text>
<polyline fill="none" stroke="black" stroke-width="2" points="549.5,-365.5 639.5,-365.5 "/>
<text text-anchor="middle" x="594.5" y="-351.9" font-family="Arial" font-size="12.00">release_time:</text>
<text text-anchor="middle" x="594.5" y="-338.9" font-family="Arial" font-size="12.00">0.02</text>
<polyline fill="none" stroke="black" stroke-width="2" points="549.5,-331.5 639.5,-331.5 "/>
<text text-anchor="middle" x="594.5" y="-317.9" font-family="Arial" font-size="12.00">done_action:</text>
<text text-anchor="middle" x="594.5" y="-304.9" font-family="Arial" font-size="12.00">2.0</text>
<polyline fill="none" stroke="black" stroke-width="2" points="639.5,-297.5 639.5,-454.5 "/>
<text text-anchor="middle" x="651" y="-372.9" font-family="Arial" font-size="12.00">0</text>
</g>
<!-- ugen_10 -->
<g id="node3" class="node">
<title>ugen_10</title>
<path fill="#bcd2ee" stroke="black" stroke-width="2" d="M770,-164.5C770,-164.5 866,-164.5 866,-164.5 872,-164.5 878,-170.5 878,-176.5 878,-176.5 878,-241.5 878,-241.5 878,-247.5 872,-253.5 866,-253.5 866,-253.5 770,-253.5 770,-253.5 764,-253.5 758,-247.5 758,-241.5 758,-241.5 758,-176.5 758,-176.5 758,-170.5 764,-164.5 770,-164.5"/>
<text text-anchor="middle" x="818" y="-239.9" font-family="Arial" font-size="12.00">BinaryOpUGen</text>
<text text-anchor="middle" x="818" y="-226.9" font-family="Arial" font-size="12.00">[MULTIPLICATION]</text>
<text text-anchor="middle" x="818" y="-213.9" font-family="Arial" font-size="12.00">(audio)</text>
<polyline fill="none" stroke="black" stroke-width="2" points="758,-206.5 878,-206.5 "/>
<text text-anchor="middle" x="792" y="-192.9" font-family="Arial" font-size="12.00">left</text>
<polyline fill="none" stroke="black" stroke-width="2" points="758,-185.5 826,-185.5 "/>
<text text-anchor="middle" x="792" y="-171.9" font-family="Arial" font-size="12.00">right</text>
<polyline fill="none" stroke="black" stroke-width="2" points="826,-164.5 826,-206.5 "/>
<text text-anchor="middle" x="852" y="-182.4" font-family="Arial" font-size="12.00">0</text>
</g>
<!-- ugen_11 -->
<g id="node4" class="node">
<title>ugen_11</title>
<path fill="#bcd2ee" stroke="black" stroke-width="2" d="M962,-69C962,-69 992,-69 992,-69 998,-69 1004,-75 1004,-81 1004,-81 1004,-133 1004,-133 1004,-139 998,-145 992,-145 992,-145 962,-145 962,-145 956,-145 950,-139 950,-133 950,-133 950,-81 950,-81 950,-75 956,-69 962,-69"/>
<text text-anchor="middle" x="977" y="-131.4" font-family="Arial" font-size="12.00">Out</text>
<text text-anchor="middle" x="977" y="-118.4" font-family="Arial" font-size="12.00">(audio)</text>
<polyline fill="none" stroke="black" stroke-width="2" points="950,-111 1004,-111 "/>
<text text-anchor="middle" x="977" y="-97.4" font-family="Arial" font-size="12.00">bus</text>
<polyline fill="none" stroke="black" stroke-width="2" points="950,-90 1004,-90 "/>
<text text-anchor="middle" x="977" y="-76.4" font-family="Arial" font-size="12.00">source</text>
</g>
<!-- ugen_2 -->
<g id="node5" class="node">
<title>ugen_2</title>
<path fill="#ee9572" stroke="black" stroke-width="2" d="M12,-162C12,-162 44,-162 44,-162 50,-162 56,-168 56,-174 56,-174 56,-218 56,-218 56,-224 50,-230 44,-230 44,-230 12,-230 12,-230 6,-230 0,-224 0,-218 0,-218 0,-174 0,-174 0,-168 6,-162 12,-162"/>
<text text-anchor="middle" x="28" y="-216.4" font-family="Arial" font-size="12.00">Control</text>
<text text-anchor="middle" x="28" y="-203.4" font-family="Arial" font-size="12.00">(scalar)</text>
<polyline fill="none" stroke="black" stroke-width="2" points="0,-196 56,-196 "/>
<text text-anchor="middle" x="28" y="-182.4" font-family="Arial" font-size="12.00">out:</text>
<text text-anchor="middle" x="28" y="-169.4" font-family="Arial" font-size="12.00">0.0</text>
</g>
<!-- ugen_3 -->
<g id="node6" class="node">
<title>ugen_3</title>
<path fill="#bcd2ee" stroke="black" stroke-width="2" d="M157.5,-368.5C157.5,-368.5 192.5,-368.5 192.5,-368.5 198.5,-368.5 204.5,-374.5 204.5,-380.5 204.5,-380.5 204.5,-411.5 204.5,-411.5 204.5,-417.5 198.5,-423.5 192.5,-423.5 192.5,-423.5 157.5,-423.5 157.5,-423.5 151.5,-423.5 145.5,-417.5 145.5,-411.5 145.5,-411.5 145.5,-380.5 145.5,-380.5 145.5,-374.5 151.5,-368.5 157.5,-368.5"/>
<text text-anchor="middle" x="175" y="-409.9" font-family="Arial" font-size="12.00">In</text>
<text text-anchor="middle" x="175" y="-396.9" font-family="Arial" font-size="12.00">(audio)</text>
<polyline fill="none" stroke="black" stroke-width="2" points="145.5,-389.5 204.5,-389.5 "/>
<text text-anchor="middle" x="163.5" y="-375.9" font-family="Arial" font-size="12.00">bus</text>
<polyline fill="none" stroke="black" stroke-width="2" points="181.5,-368.5 181.5,-389.5 "/>
<text text-anchor="middle" x="193" y="-375.9" font-family="Arial" font-size="12.00">0</text>
</g>
<!-- ugen_4 -->
<g id="node7" class="node">
<title>ugen_4</title>
<path fill="#ee9572" stroke="black" stroke-width="2" d="M140,-126C140,-126 210,-126 210,-126 216,-126 222,-132 222,-138 222,-138 222,-216 222,-216 222,-222 216,-228 210,-228 210,-228 140,-228 140,-228 134,-228 128,-222 128,-216 128,-216 128,-138 128,-138 128,-132 134,-126 140,-126"/>
<text text-anchor="middle" x="175" y="-214.4" font-family="Arial" font-size="12.00">ExpRand</text>
<text text-anchor="middle" x="175" y="-201.4" font-family="Arial" font-size="12.00">(scalar)</text>
<polyline fill="none" stroke="black" stroke-width="2" points="128,-194 222,-194 "/>
<text text-anchor="middle" x="163.5" y="-180.4" font-family="Arial" font-size="12.00">minimum:</text>
<text text-anchor="middle" x="163.5" y="-167.4" font-family="Arial" font-size="12.00">0.01</text>
<polyline fill="none" stroke="black" stroke-width="2" points="128,-160 199,-160 "/>
<text text-anchor="middle" x="163.5" y="-146.4" font-family="Arial" font-size="12.00">maximum:</text>
<text text-anchor="middle" x="163.5" y="-133.4" font-family="Arial" font-size="12.00">0.1</text>
<polyline fill="none" stroke="black" stroke-width="2" points="199,-126 199,-194 "/>
<text text-anchor="middle" x="210.5" y="-156.9" font-family="Arial" font-size="12.00">0</text>
</g>
<!-- ugen_5 -->
<g id="node8" class="node">
<title>ugen_5</title>
<path fill="#ee9572" stroke="black" stroke-width="2" d="M140,-247C140,-247 210,-247 210,-247 216,-247 222,-253 222,-259 222,-259 222,-337 222,-337 222,-343 216,-349 210,-349 210,-349 140,-349 140,-349 134,-349 128,-343 128,-337 128,-337 128,-259 128,-259 128,-253 134,-247 140,-247"/>
<text text-anchor="middle" x="175" y="-335.4" font-family="Arial" font-size="12.00">ExpRand</text>
<text text-anchor="middle" x="175" y="-322.4" font-family="Arial" font-size="12.00">(scalar)</text>
<polyline fill="none" stroke="black" stroke-width="2" points="128,-315 222,-315 "/>
<text text-anchor="middle" x="163.5" y="-301.4" font-family="Arial" font-size="12.00">minimum:</text>
<text text-anchor="middle" x="163.5" y="-288.4" font-family="Arial" font-size="12.00">0.01</text>
<polyline fill="none" stroke="black" stroke-width="2" points="128,-281 199,-281 "/>
<text text-anchor="middle" x="163.5" y="-267.4" font-family="Arial" font-size="12.00">maximum:</text>
<text text-anchor="middle" x="163.5" y="-254.4" font-family="Arial" font-size="12.00">0.1</text>
<polyline fill="none" stroke="black" stroke-width="2" points="199,-247 199,-315 "/>
<text text-anchor="middle" x="210.5" y="-277.9" font-family="Arial" font-size="12.00">0</text>
</g>
<!-- ugen_6 -->
<g id="node9" class="node">
<title>ugen_6</title>
<path fill="#bcd2ee" stroke="black" stroke-width="2" d="M306,-271.5C306,-271.5 442,-271.5 442,-271.5 448,-271.5 454,-277.5 454,-283.5 454,-283.5 454,-390.5 454,-390.5 454,-396.5 448,-402.5 442,-402.5 442,-402.5 306,-402.5 306,-402.5 300,-402.5 294,-396.5 294,-390.5 294,-390.5 294,-283.5 294,-283.5 294,-277.5 300,-271.5 306,-271.5"/>
<text text-anchor="middle" x="374" y="-388.9" font-family="Arial" font-size="12.00">AllpassC</text>
<text text-anchor="middle" x="374" y="-375.9" font-family="Arial" font-size="12.00">(audio)</text>
<polyline fill="none" stroke="black" stroke-width="2" points="294,-368.5 454,-368.5 "/>
<text text-anchor="middle" x="362.5" y="-354.9" font-family="Arial" font-size="12.00">source</text>
<polyline fill="none" stroke="black" stroke-width="2" points="294,-347.5 431,-347.5 "/>
<text text-anchor="middle" x="362.5" y="-333.9" font-family="Arial" font-size="12.00">maximum_delay_time:</text>
<text text-anchor="middle" x="362.5" y="-320.9" font-family="Arial" font-size="12.00">0.1</text>
<polyline fill="none" stroke="black" stroke-width="2" points="294,-313.5 431,-313.5 "/>
<text text-anchor="middle" x="362.5" y="-299.9" font-family="Arial" font-size="12.00">delay_time</text>
<polyline fill="none" stroke="black" stroke-width="2" points="294,-292.5 431,-292.5 "/>
<text text-anchor="middle" x="362.5" y="-278.9" font-family="Arial" font-size="12.00">decay_time</text>
<polyline fill="none" stroke="black" stroke-width="2" points="431,-271.5 431,-368.5 "/>
<text text-anchor="middle" x="442.5" y="-316.9" font-family="Arial" font-size="12.00">0</text>
</g>
<!-- ugen_7 -->
<g id="node10" class="node">
<title>ugen_7</title>
<path fill="#ee9572" stroke="black" stroke-width="2" d="M339,-29C339,-29 409,-29 409,-29 415,-29 421,-35 421,-41 421,-41 421,-119 421,-119 421,-125 415,-131 409,-131 409,-131 339,-131 339,-131 333,-131 327,-125 327,-119 327,-119 327,-41 327,-41 327,-35 333,-29 339,-29"/>
<text text-anchor="middle" x="374" y="-117.4" font-family="Arial" font-size="12.00">ExpRand</text>
<text text-anchor="middle" x="374" y="-104.4" font-family="Arial" font-size="12.00">(scalar)</text>
<polyline fill="none" stroke="black" stroke-width="2" points="327,-97 421,-97 "/>
<text text-anchor="middle" x="362.5" y="-83.4" font-family="Arial" font-size="12.00">minimum:</text>
<text text-anchor="middle" x="362.5" y="-70.4" font-family="Arial" font-size="12.00">0.01</text>
<polyline fill="none" stroke="black" stroke-width="2" points="327,-63 398,-63 "/>
<text text-anchor="middle" x="362.5" y="-49.4" font-family="Arial" font-size="12.00">maximum:</text>
<text text-anchor="middle" x="362.5" y="-36.4" font-family="Arial" font-size="12.00">0.1</text>
<polyline fill="none" stroke="black" stroke-width="2" points="398,-29 398,-97 "/>
<text text-anchor="middle" x="409.5" y="-59.9" font-family="Arial" font-size="12.00">0</text>
</g>
<!-- ugen_8 -->
<g id="node11" class="node">
<title>ugen_8</title>
<path fill="#ee9572" stroke="black" stroke-width="2" d="M339,-150C339,-150 409,-150 409,-150 415,-150 421,-156 421,-162 421,-162 421,-240 421,-240 421,-246 415,-252 409,-252 409,-252 339,-252 339,-252 333,-252 327,-246 327,-240 327,-240 327,-162 327,-162 327,-156 333,-150 339,-150"/>
<text text-anchor="middle" x="374" y="-238.4" font-family="Arial" font-size="12.00">ExpRand</text>
<text text-anchor="middle" x="374" y="-225.4" font-family="Arial" font-size="12.00">(scalar)</text>
<polyline fill="none" stroke="black" stroke-width="2" points="327,-218 421,-218 "/>
<text text-anchor="middle" x="362.5" y="-204.4" font-family="Arial" font-size="12.00">minimum:</text>
<text text-anchor="middle" x="362.5" y="-191.4" font-family="Arial" font-size="12.00">0.01</text>
<polyline fill="none" stroke="black" stroke-width="2" points="327,-184 398,-184 "/>
<text text-anchor="middle" x="362.5" y="-170.4" font-family="Arial" font-size="12.00">maximum:</text>
<text text-anchor="middle" x="362.5" y="-157.4" font-family="Arial" font-size="12.00">0.1</text>
<polyline fill="none" stroke="black" stroke-width="2" points="398,-150 398,-218 "/>
<text text-anchor="middle" x="409.5" y="-180.9" font-family="Arial" font-size="12.00">0</text>
</g>
<!-- ugen_9 -->
<g id="node12" class="node">
<title>ugen_9</title>
<path fill="#bcd2ee" stroke="black" stroke-width="2" d="M538,-147.5C538,-147.5 674,-147.5 674,-147.5 680,-147.5 686,-153.5 686,-159.5 686,-159.5 686,-266.5 686,-266.5 686,-272.5 680,-278.5 674,-278.5 674,-278.5 538,-278.5 538,-278.5 532,-278.5 526,-272.5 526,-266.5 526,-266.5 526,-159.5 526,-159.5 526,-153.5 532,-147.5 538,-147.5"/>
<text text-anchor="middle" x="606" y="-264.9" font-family="Arial" font-size="12.00">AllpassC</text>
<text text-anchor="middle" x="606" y="-251.9" font-family="Arial" font-size="12.00">(audio)</text>
<polyline fill="none" stroke="black" stroke-width="2" points="526,-244.5 686,-244.5 "/>
<text text-anchor="middle" x="594.5" y="-230.9" font-family="Arial" font-size="12.00">source</text>
<polyline fill="none" stroke="black" stroke-width="2" points="526,-223.5 663,-223.5 "/>
<text text-anchor="middle" x="594.5" y="-209.9" font-family="Arial" font-size="12.00">maximum_delay_time:</text>
<text text-anchor="middle" x="594.5" y="-196.9" font-family="Arial" font-size="12.00">0.1</text>
<polyline fill="none" stroke="black" stroke-width="2" points="526,-189.5 663,-189.5 "/>
<text text-anchor="middle" x="594.5" y="-175.9" font-family="Arial" font-size="12.00">delay_time</text>
<polyline fill="none" stroke="black" stroke-width="2" points="526,-168.5 663,-168.5 "/>
<text text-anchor="middle" x="594.5" y="-154.9" font-family="Arial" font-size="12.00">decay_time</text>
<polyline fill="none" stroke="black" stroke-width="2" points="663,-147.5 663,-244.5 "/>
<text text-anchor="middle" x="674.5" y="-192.9" font-family="Arial" font-size="12.00">0</text>
</g>
</g>
</svg>
