<?xml version="1.0" encoding="UTF-8" standalone="no"?>
<!DOCTYPE svg PUBLIC "-//W3C//DTD SVG 1.1//EN"
 "http://www.w3.org/Graphics/SVG/1.1/DTD/svg11.dtd">
<!-- Generated by graphviz version 2.40.1 (20161225.0304)
 -->
<!-- Title: synthdef_ebb1820b9d08a639565b5090b53681db Pages: 1 -->
<svg width="272pt" height="84pt"
 viewBox="0.00 0.00 272.00 84.00" xmlns="http://www.w3.org/2000/svg" xmlns:xlink="http://www.w3.org/1999/xlink">
<g id="graph0" class="graph" transform="scale(1 1) rotate(0) translate(4 80)">
<title>synthdef_ebb1820b9d08a639565b5090b53681db</title>
<!-- ugen_0&#45;&gt;ugen_1 -->
<g id="edge1" class="edge">
<title>ugen_0:e&#45;&gt;ugen_1:w</title>
<path fill="none" stroke="#4682b4" stroke-width="2" d="M81,-17.5C109.375,-17.5 118.8795,-17.5 142.9792,-17.5"/>
<polygon fill="#4682b4" stroke="#4682b4" stroke-width="2" points="143,-21.0001 153,-17.5 143,-14.0001 143,-21.0001"/>
</g>
<!-- ugen_0 -->
<g id="node1" class="node">
<title>ugen_0</title>
<path fill="#bcd2ee" stroke="#000000" stroke-width="2" d="M12,-.5C12,-.5 69,-.5 69,-.5 75,-.5 81,-6.5 81,-12.5 81,-12.5 81,-56.5 81,-56.5 81,-62.5 75,-68.5 69,-68.5 69,-68.5 12,-68.5 12,-68.5 6,-68.5 0,-62.5 0,-56.5 0,-56.5 0,-12.5 0,-12.5 0,-6.5 6,-.5 12,-.5"/>
<text text-anchor="middle" x="40.5" y="-54.9" font-family="Arial" font-size="12.00" fill="#000000">LFNoise2</text>
<text text-anchor="middle" x="40.5" y="-41.9" font-family="Arial" font-size="12.00" fill="#000000">(audio)</text>
<polyline fill="none" stroke="#000000" stroke-width="2" points="0,-34.5 81,-34.5 "/>
<text text-anchor="middle" x="29.5" y="-20.9" font-family="Arial" font-size="12.00" fill="#000000">frequency:</text>
<text text-anchor="middle" x="29.5" y="-7.9" font-family="Arial" font-size="12.00" fill="#000000">500.0</text>
<polyline fill="none" stroke="#000000" stroke-width="2" points="59,-.5 59,-34.5 "/>
<text text-anchor="middle" x="70" y="-14.4" font-family="Arial" font-size="12.00" fill="#000000">0</text>
</g>
<!-- ugen_1 -->
<g id="node2" class="node">
<title>ugen_1</title>
<path fill="#bcd2ee" stroke="#000000" stroke-width="2" d="M165,-7.5C165,-7.5 252,-7.5 252,-7.5 258,-7.5 264,-13.5 264,-19.5 264,-19.5 264,-63.5 264,-63.5 264,-69.5 258,-75.5 252,-75.5 252,-75.5 165,-75.5 165,-75.5 159,-75.5 153,-69.5 153,-63.5 153,-63.5 153,-19.5 153,-19.5 153,-13.5 159,-7.5 165,-7.5"/>
<text text-anchor="middle" x="208.5" y="-61.9" font-family="Arial" font-size="12.00" fill="#000000">UnaryOpUGen</text>
<text text-anchor="middle" x="208.5" y="-48.9" font-family="Arial" font-size="12.00" fill="#000000">[TRIANGLE_WINDOW]</text>
<text text-anchor="middle" x="208.5" y="-35.9" font-family="Arial" font-size="12.00" fill="#000000">(audio)</text>
<polyline fill="none" stroke="#000000" stroke-width="2" points="153,-28.5 264,-28.5 "/>
<text text-anchor="middle" x="186" y="-14.9" font-family="Arial" font-size="12.00" fill="#000000">source</text>
<polyline fill="none" stroke="#000000" stroke-width="2" points="219,-7.5 219,-28.5 "/>
<text text-anchor="middle" x="241.5" y="-14.9" font-family="Arial" font-size="12.00" fill="#000000">0</text>
</g>
</g>
</svg>
