<?xml version="1.0" encoding="UTF-8" standalone="no"?>
<!DOCTYPE svg PUBLIC "-//W3C//DTD SVG 1.1//EN"
 "http://www.w3.org/Graphics/SVG/1.1/DTD/svg11.dtd">
<!-- Generated by graphviz version 2.43.0 (0)
 -->
<!-- Title: synthdef_... Pages: 1 -->
<svg width="263pt" height="243pt"
 viewBox="0.00 0.00 263.00 242.50" xmlns="http://www.w3.org/2000/svg" xmlns:xlink="http://www.w3.org/1999/xlink">
<g id="graph0" class="graph" transform="scale(1 1) rotate(0) translate(4 238.5)">
<title>synthdef_...</title>
<!-- ugen_0&#45;&gt;ugen_1 -->
<g id="edge1" class="edge">
<title>ugen_0:e&#45;&gt;ugen_1:w</title>
<path fill="none" stroke="steelblue" stroke-width="2" d="M95,-45C123.38,-45 132.88,-45 156.98,-45"/>
<polygon fill="steelblue" stroke="steelblue" stroke-width="2" points="157,-48.5 167,-45 157,-41.5 157,-48.5"/>
</g>
<!-- ugen_2&#45;&gt;ugen_3 -->
<g id="edge2" class="edge">
<title>ugen_2:e&#45;&gt;ugen_3:w</title>
<path fill="none" stroke="steelblue" stroke-width="2" d="M95,-166C123.38,-166 132.88,-166 156.98,-166"/>
<polygon fill="steelblue" stroke="steelblue" stroke-width="2" points="157,-169.5 167,-166 157,-162.5 157,-169.5"/>
</g>
<!-- ugen_0 -->
<g id="node1" class="node">
<title>ugen_0</title>
<path fill="#bcd2ee" stroke="black" stroke-width="2" d="M12,-11C12,-11 83,-11 83,-11 89,-11 95,-17 95,-23 95,-23 95,-101 95,-101 95,-107 89,-113 83,-113 83,-113 12,-113 12,-113 6,-113 0,-107 0,-101 0,-101 0,-23 0,-23 0,-17 6,-11 12,-11"/>
<text text-anchor="middle" x="47.5" y="-99.4" font-family="Arial" font-size="12.00">SinOsc</text>
<text text-anchor="middle" x="47.5" y="-86.4" font-family="Arial" font-size="12.00">(audio)</text>
<polyline fill="none" stroke="black" stroke-width="2" points="0,-79 95,-79 "/>
<text text-anchor="middle" x="36" y="-65.4" font-family="Arial" font-size="12.00">frequency:</text>
<text text-anchor="middle" x="36" y="-52.4" font-family="Arial" font-size="12.00">440.0</text>
<polyline fill="none" stroke="black" stroke-width="2" points="0,-45 72,-45 "/>
<text text-anchor="middle" x="36" y="-31.4" font-family="Arial" font-size="12.00">phase:</text>
<text text-anchor="middle" x="36" y="-18.4" font-family="Arial" font-size="12.00">0.0</text>
<polyline fill="none" stroke="black" stroke-width="2" points="72,-11 72,-79 "/>
<text text-anchor="middle" x="83.5" y="-41.9" font-family="Arial" font-size="12.00">0</text>
</g>
<!-- ugen_1 -->
<g id="node2" class="node">
<title>ugen_1</title>
<path fill="#bcd2ee" stroke="black" stroke-width="2" d="M179,-0.5C179,-0.5 243,-0.5 243,-0.5 249,-0.5 255,-6.5 255,-12.5 255,-12.5 255,-77.5 255,-77.5 255,-83.5 249,-89.5 243,-89.5 243,-89.5 179,-89.5 179,-89.5 173,-89.5 167,-83.5 167,-77.5 167,-77.5 167,-12.5 167,-12.5 167,-6.5 173,-0.5 179,-0.5"/>
<text text-anchor="middle" x="211" y="-75.9" font-family="Arial" font-size="12.00">Lag</text>
<text text-anchor="middle" x="211" y="-62.9" font-family="Arial" font-size="12.00">(audio)</text>
<polyline fill="none" stroke="black" stroke-width="2" points="167,-55.5 255,-55.5 "/>
<text text-anchor="middle" x="199.5" y="-41.9" font-family="Arial" font-size="12.00">source</text>
<polyline fill="none" stroke="black" stroke-width="2" points="167,-34.5 232,-34.5 "/>
<text text-anchor="middle" x="199.5" y="-20.9" font-family="Arial" font-size="12.00">lag_time:</text>
<text text-anchor="middle" x="199.5" y="-7.9" font-family="Arial" font-size="12.00">0.25</text>
<polyline fill="none" stroke="black" stroke-width="2" points="232,-0.5 232,-55.5 "/>
<text text-anchor="middle" x="243.5" y="-24.9" font-family="Arial" font-size="12.00">0</text>
</g>
<!-- ugen_2 -->
<g id="node3" class="node">
<title>ugen_2</title>
<path fill="#bcd2ee" stroke="black" stroke-width="2" d="M12,-132C12,-132 83,-132 83,-132 89,-132 95,-138 95,-144 95,-144 95,-222 95,-222 95,-228 89,-234 83,-234 83,-234 12,-234 12,-234 6,-234 0,-228 0,-222 0,-222 0,-144 0,-144 0,-138 6,-132 12,-132"/>
<text text-anchor="middle" x="47.5" y="-220.4" font-family="Arial" font-size="12.00">SinOsc</text>
<text text-anchor="middle" x="47.5" y="-207.4" font-family="Arial" font-size="12.00">(audio)</text>
<polyline fill="none" stroke="black" stroke-width="2" points="0,-200 95,-200 "/>
<text text-anchor="middle" x="36" y="-186.4" font-family="Arial" font-size="12.00">frequency:</text>
<text text-anchor="middle" x="36" y="-173.4" font-family="Arial" font-size="12.00">443.0</text>
<polyline fill="none" stroke="black" stroke-width="2" points="0,-166 72,-166 "/>
<text text-anchor="middle" x="36" y="-152.4" font-family="Arial" font-size="12.00">phase:</text>
<text text-anchor="middle" x="36" y="-139.4" font-family="Arial" font-size="12.00">0.0</text>
<polyline fill="none" stroke="black" stroke-width="2" points="72,-132 72,-200 "/>
<text text-anchor="middle" x="83.5" y="-162.9" font-family="Arial" font-size="12.00">0</text>
</g>
<!-- ugen_3 -->
<g id="node4" class="node">
<title>ugen_3</title>
<path fill="#bcd2ee" stroke="black" stroke-width="2" d="M179,-121.5C179,-121.5 243,-121.5 243,-121.5 249,-121.5 255,-127.5 255,-133.5 255,-133.5 255,-198.5 255,-198.5 255,-204.5 249,-210.5 243,-210.5 243,-210.5 179,-210.5 179,-210.5 173,-210.5 167,-204.5 167,-198.5 167,-198.5 167,-133.5 167,-133.5 167,-127.5 173,-121.5 179,-121.5"/>
<text text-anchor="middle" x="211" y="-196.9" font-family="Arial" font-size="12.00">Lag</text>
<text text-anchor="middle" x="211" y="-183.9" font-family="Arial" font-size="12.00">(audio)</text>
<polyline fill="none" stroke="black" stroke-width="2" points="167,-176.5 255,-176.5 "/>
<text text-anchor="middle" x="199.5" y="-162.9" font-family="Arial" font-size="12.00">source</text>
<polyline fill="none" stroke="black" stroke-width="2" points="167,-155.5 232,-155.5 "/>
<text text-anchor="middle" x="199.5" y="-141.9" font-family="Arial" font-size="12.00">lag_time:</text>
<text text-anchor="middle" x="199.5" y="-128.9" font-family="Arial" font-size="12.00">0.25</text>
<polyline fill="none" stroke="black" stroke-width="2" points="232,-121.5 232,-176.5 "/>
<text text-anchor="middle" x="243.5" y="-145.9" font-family="Arial" font-size="12.00">0</text>
</g>
</g>
</svg>
