<?xml version="1.0" encoding="UTF-8" standalone="no"?>
<!DOCTYPE svg PUBLIC "-//W3C//DTD SVG 1.1//EN"
 "http://www.w3.org/Graphics/SVG/1.1/DTD/svg11.dtd">
<!-- Generated by graphviz version 2.49.1 (20210923.0004)
 -->
<!-- Title: synthdef_001520731aee5371fefab6b505cf64dd Pages: 1 -->
<svg width="578pt" height="213pt"
 viewBox="0.00 0.00 578.00 212.50" xmlns="http://www.w3.org/2000/svg" xmlns:xlink="http://www.w3.org/1999/xlink">
<g id="graph0" class="graph" transform="scale(1 1) rotate(0) translate(4 208.5)">
<title>synthdef_001520731aee5371fefab6b505cf64dd</title>
<!-- ugen_0&#45;&gt;ugen_1 -->
<g id="edge1" class="edge">
<title>ugen_0:e&#45;&gt;ugen_1:w</title>
<path fill="none" stroke="goldenrod" stroke-width="2" d="M75,-45C103.38,-45 112.88,-45 136.98,-45"/>
<polygon fill="goldenrod" stroke="goldenrod" stroke-width="2" points="137,-48.5 147,-45 137,-41.5 137,-48.5"/>
</g>
<!-- ugen_1&#45;&gt;ugen_4 -->
<g id="edge2" class="edge">
<title>ugen_1:e&#45;&gt;ugen_4:w</title>
<path fill="none" stroke="goldenrod" stroke-width="2" d="M251,-28C284.49,-28 285.83,-62.71 312.79,-69.76"/>
<polygon fill="goldenrod" stroke="goldenrod" stroke-width="2" points="312.65,-73.27 323,-71 313.5,-66.32 312.65,-73.27"/>
</g>
<!-- ugen_2&#45;&gt;ugen_3 -->
<g id="edge3" class="edge">
<title>ugen_2:e&#45;&gt;ugen_3:w</title>
<path fill="none" stroke="goldenrod" stroke-width="2" d="M75,-153C105.61,-153 115.69,-153 141.97,-153"/>
<polygon fill="goldenrod" stroke="goldenrod" stroke-width="2" points="142,-156.5 152,-153 142,-149.5 142,-156.5"/>
</g>
<!-- ugen_3&#45;&gt;ugen_4 -->
<g id="edge4" class="edge">
<title>ugen_3:e&#45;&gt;ugen_4:w</title>
<path fill="none" stroke="steelblue" stroke-width="2" d="M246,-136C281.72,-136 283.57,-99.86 312.93,-93.09"/>
<polygon fill="steelblue" stroke="steelblue" stroke-width="2" points="313.43,-96.55 323,-92 312.68,-89.59 313.43,-96.55"/>
</g>
<!-- ugen_4&#45;&gt;ugen_5 -->
<g id="edge5" class="edge">
<title>ugen_4:e&#45;&gt;ugen_5:w</title>
<path fill="none" stroke="steelblue" stroke-width="2" d="M444,-81C472.38,-81 481.88,-81 505.98,-81"/>
<polygon fill="steelblue" stroke="steelblue" stroke-width="2" points="506,-84.5 516,-81 506,-77.5 506,-84.5"/>
</g>
<!-- ugen_0 -->
<g id="node1" class="node">
<title>ugen_0</title>
<path fill="#eedc82" stroke="black" stroke-width="2" d="M12,-28C12,-28 63,-28 63,-28 69,-28 75,-34 75,-40 75,-40 75,-84 75,-84 75,-90 69,-96 63,-96 63,-96 12,-96 12,-96 6,-96 0,-90 0,-84 0,-84 0,-40 0,-40 0,-34 6,-28 12,-28"/>
<text text-anchor="middle" x="37.5" y="-82.4" font-family="Arial" font-size="12.00">TrigControl</text>
<text text-anchor="middle" x="37.5" y="-69.4" font-family="Arial" font-size="12.00">(control)</text>
<polyline fill="none" stroke="black" stroke-width="2" points="0,-62 75,-62 "/>
<text text-anchor="middle" x="37.5" y="-48.4" font-family="Arial" font-size="12.00">trigger:</text>
<text text-anchor="middle" x="37.5" y="-35.4" font-family="Arial" font-size="12.00">0.0</text>
</g>
<!-- ugen_1 -->
<g id="node2" class="node">
<title>ugen_1</title>
<path fill="#eedc82" stroke="black" stroke-width="2" d="M159,-0.5C159,-0.5 239,-0.5 239,-0.5 245,-0.5 251,-6.5 251,-12.5 251,-12.5 251,-77.5 251,-77.5 251,-83.5 245,-89.5 239,-89.5 239,-89.5 159,-89.5 159,-89.5 153,-89.5 147,-83.5 147,-77.5 147,-77.5 147,-12.5 147,-12.5 147,-6.5 153,-0.5 159,-0.5"/>
<text text-anchor="middle" x="199" y="-75.9" font-family="Arial" font-size="12.00">Decay</text>
<text text-anchor="middle" x="199" y="-62.9" font-family="Arial" font-size="12.00">(control)</text>
<polyline fill="none" stroke="black" stroke-width="2" points="147,-55.5 251,-55.5 "/>
<text text-anchor="middle" x="187.5" y="-41.9" font-family="Arial" font-size="12.00">source</text>
<polyline fill="none" stroke="black" stroke-width="2" points="147,-34.5 228,-34.5 "/>
<text text-anchor="middle" x="187.5" y="-20.9" font-family="Arial" font-size="12.00">decay_time:</text>
<text text-anchor="middle" x="187.5" y="-7.9" font-family="Arial" font-size="12.00">0.5</text>
<polyline fill="none" stroke="black" stroke-width="2" points="228,-0.5 228,-55.5 "/>
<text text-anchor="middle" x="239.5" y="-24.9" font-family="Arial" font-size="12.00">0</text>
</g>
<!-- ugen_2 -->
<g id="node3" class="node">
<title>ugen_2</title>
<path fill="#eedc82" stroke="black" stroke-width="2" d="M13,-136C13,-136 62,-136 62,-136 68,-136 74,-142 74,-148 74,-148 74,-192 74,-192 74,-198 68,-204 62,-204 62,-204 13,-204 13,-204 7,-204 1,-198 1,-192 1,-192 1,-148 1,-148 1,-142 7,-136 13,-136"/>
<text text-anchor="middle" x="37.5" y="-190.4" font-family="Arial" font-size="12.00">Control</text>
<text text-anchor="middle" x="37.5" y="-177.4" font-family="Arial" font-size="12.00">(control)</text>
<polyline fill="none" stroke="black" stroke-width="2" points="1,-170 74,-170 "/>
<text text-anchor="middle" x="37.5" y="-156.4" font-family="Arial" font-size="12.00">frequency:</text>
<text text-anchor="middle" x="37.5" y="-143.4" font-family="Arial" font-size="12.00">440.0</text>
</g>
<!-- ugen_3 -->
<g id="node4" class="node">
<title>ugen_3</title>
<path fill="#bcd2ee" stroke="black" stroke-width="2" d="M165,-108.5C165,-108.5 233,-108.5 233,-108.5 239,-108.5 245,-114.5 245,-120.5 245,-120.5 245,-185.5 245,-185.5 245,-191.5 239,-197.5 233,-197.5 233,-197.5 165,-197.5 165,-197.5 159,-197.5 153,-191.5 153,-185.5 153,-185.5 153,-120.5 153,-120.5 153,-114.5 159,-108.5 165,-108.5"/>
<text text-anchor="middle" x="199" y="-183.9" font-family="Arial" font-size="12.00">SinOsc</text>
<text text-anchor="middle" x="199" y="-170.9" font-family="Arial" font-size="12.00">(audio)</text>
<polyline fill="none" stroke="black" stroke-width="2" points="153,-163.5 245,-163.5 "/>
<text text-anchor="middle" x="187.5" y="-149.9" font-family="Arial" font-size="12.00">frequency</text>
<polyline fill="none" stroke="black" stroke-width="2" points="153,-142.5 222,-142.5 "/>
<text text-anchor="middle" x="187.5" y="-128.9" font-family="Arial" font-size="12.00">phase:</text>
<text text-anchor="middle" x="187.5" y="-115.9" font-family="Arial" font-size="12.00">0.0</text>
<polyline fill="none" stroke="black" stroke-width="2" points="222,-108.5 222,-163.5 "/>
<text text-anchor="middle" x="233.5" y="-132.9" font-family="Arial" font-size="12.00">0</text>
</g>
<!-- ugen_4 -->
<g id="node5" class="node">
<title>ugen_4</title>
<path fill="#bcd2ee" stroke="black" stroke-width="2" d="M335,-60.5C335,-60.5 432,-60.5 432,-60.5 438,-60.5 444,-66.5 444,-72.5 444,-72.5 444,-137.5 444,-137.5 444,-143.5 438,-149.5 432,-149.5 432,-149.5 335,-149.5 335,-149.5 329,-149.5 323,-143.5 323,-137.5 323,-137.5 323,-72.5 323,-72.5 323,-66.5 329,-60.5 335,-60.5"/>
<text text-anchor="middle" x="383.5" y="-135.9" font-family="Arial" font-size="12.00">BinaryOpUGen</text>
<text text-anchor="middle" x="383.5" y="-122.9" font-family="Arial" font-size="12.00">[MULTIPLICATION]</text>
<text text-anchor="middle" x="383.5" y="-109.9" font-family="Arial" font-size="12.00">(audio)</text>
<polyline fill="none" stroke="black" stroke-width="2" points="323,-102.5 444,-102.5 "/>
<text text-anchor="middle" x="357.5" y="-88.9" font-family="Arial" font-size="12.00">left</text>
<polyline fill="none" stroke="black" stroke-width="2" points="323,-81.5 392,-81.5 "/>
<text text-anchor="middle" x="357.5" y="-67.9" font-family="Arial" font-size="12.00">right</text>
<polyline fill="none" stroke="black" stroke-width="2" points="392,-60.5 392,-102.5 "/>
<text text-anchor="middle" x="418" y="-78.4" font-family="Arial" font-size="12.00">0</text>
</g>
<!-- ugen_5 -->
<g id="node6" class="node">
<title>ugen_5</title>
<path fill="#bcd2ee" stroke="black" stroke-width="2" d="M528,-70.5C528,-70.5 558,-70.5 558,-70.5 564,-70.5 570,-76.5 570,-82.5 570,-82.5 570,-147.5 570,-147.5 570,-153.5 564,-159.5 558,-159.5 558,-159.5 528,-159.5 528,-159.5 522,-159.5 516,-153.5 516,-147.5 516,-147.5 516,-82.5 516,-82.5 516,-76.5 522,-70.5 528,-70.5"/>
<text text-anchor="middle" x="543" y="-145.9" font-family="Arial" font-size="12.00">Out</text>
<text text-anchor="middle" x="543" y="-132.9" font-family="Arial" font-size="12.00">(audio)</text>
<polyline fill="none" stroke="black" stroke-width="2" points="516,-125.5 570,-125.5 "/>
<text text-anchor="middle" x="543" y="-111.9" font-family="Arial" font-size="12.00">bus:</text>
<text text-anchor="middle" x="543" y="-98.9" font-family="Arial" font-size="12.00">0.0</text>
<polyline fill="none" stroke="black" stroke-width="2" points="516,-91.5 570,-91.5 "/>
<text text-anchor="middle" x="543" y="-77.9" font-family="Arial" font-size="12.00">source</text>
</g>
</g>
</svg>
