<?xml version="1.0" encoding="UTF-8" standalone="no"?>
<!DOCTYPE svg PUBLIC "-//W3C//DTD SVG 1.1//EN"
 "http://www.w3.org/Graphics/SVG/1.1/DTD/svg11.dtd">
<!-- Generated by graphviz version 2.50.0 (20211204.2007)
 -->
<!-- Title: synthdef_1ca2e8f3f541b9365413a0dbf9028e95 Pages: 1 -->
<svg width="285pt" height="377pt"
 viewBox="0.00 0.00 285.00 377.00" xmlns="http://www.w3.org/2000/svg" xmlns:xlink="http://www.w3.org/1999/xlink">
<g id="graph0" class="graph" transform="scale(1 1) rotate(0) translate(4 373)">
<title>synthdef_1ca2e8f3f541b9365413a0dbf9028e95</title>
<!-- ugen_0&#45;&gt;ugen_1 -->
<g id="edge1" class="edge">
<title>ugen_0:e&#45;&gt;ugen_1:w</title>
<path fill="none" stroke="steelblue" stroke-width="2" d="M95,-34.5C123.38,-34.5 132.88,-34.5 156.98,-34.5"/>
<polygon fill="steelblue" stroke="steelblue" stroke-width="2" points="157,-38 167,-34.5 157,-31 157,-38"/>
</g>
<!-- ugen_2&#45;&gt;ugen_3 -->
<g id="edge2" class="edge">
<title>ugen_2:e&#45;&gt;ugen_3:w</title>
<path fill="none" stroke="steelblue" stroke-width="2" d="M95,-155.5C123.38,-155.5 132.88,-155.5 156.98,-155.5"/>
<polygon fill="steelblue" stroke="steelblue" stroke-width="2" points="157,-159 167,-155.5 157,-152 157,-159"/>
</g>
<!-- ugen_4&#45;&gt;ugen_5 -->
<g id="edge3" class="edge">
<title>ugen_4:e&#45;&gt;ugen_5:w</title>
<path fill="none" stroke="steelblue" stroke-width="2" d="M95,-276.5C123.38,-276.5 132.88,-276.5 156.98,-276.5"/>
<polygon fill="steelblue" stroke="steelblue" stroke-width="2" points="157,-280 167,-276.5 157,-273 157,-280"/>
</g>
<!-- ugen_0 -->
<g id="node1" class="node">
<title>ugen_0</title>
<path fill="#bcd2ee" stroke="black" stroke-width="2" d="M12,-0.5C12,-0.5 83,-0.5 83,-0.5 89,-0.5 95,-6.5 95,-12.5 95,-12.5 95,-90.5 95,-90.5 95,-96.5 89,-102.5 83,-102.5 83,-102.5 12,-102.5 12,-102.5 6,-102.5 0,-96.5 0,-90.5 0,-90.5 0,-12.5 0,-12.5 0,-6.5 6,-0.5 12,-0.5"/>
<text text-anchor="middle" x="47.5" y="-88.9" font-family="Arial" font-size="12.00">SinOsc</text>
<text text-anchor="middle" x="47.5" y="-75.9" font-family="Arial" font-size="12.00">(audio)</text>
<polyline fill="none" stroke="black" stroke-width="2" points="0,-68.5 95,-68.5 "/>
<text text-anchor="middle" x="36" y="-54.9" font-family="Arial" font-size="12.00">frequency:</text>
<text text-anchor="middle" x="36" y="-41.9" font-family="Arial" font-size="12.00">440.0</text>
<polyline fill="none" stroke="black" stroke-width="2" points="0,-34.5 72,-34.5 "/>
<text text-anchor="middle" x="36" y="-20.9" font-family="Arial" font-size="12.00">phase:</text>
<text text-anchor="middle" x="36" y="-7.9" font-family="Arial" font-size="12.00">0.0</text>
<polyline fill="none" stroke="black" stroke-width="2" points="72,-0.5 72,-68.5 "/>
<text text-anchor="middle" x="83.5" y="-31.4" font-family="Arial" font-size="12.00">0</text>
</g>
<!-- ugen_1 -->
<g id="node2" class="node">
<title>ugen_1</title>
<path fill="#bcd2ee" stroke="black" stroke-width="2" d="M179,-24.5C179,-24.5 265,-24.5 265,-24.5 271,-24.5 277,-30.5 277,-36.5 277,-36.5 277,-114.5 277,-114.5 277,-120.5 271,-126.5 265,-126.5 265,-126.5 179,-126.5 179,-126.5 173,-126.5 167,-120.5 167,-114.5 167,-114.5 167,-36.5 167,-36.5 167,-30.5 173,-24.5 179,-24.5"/>
<text text-anchor="middle" x="222" y="-112.9" font-family="Arial" font-size="12.00">BinaryOpUGen</text>
<text text-anchor="middle" x="222" y="-99.9" font-family="Arial" font-size="12.00">[SUBTRACTION]</text>
<text text-anchor="middle" x="222" y="-86.9" font-family="Arial" font-size="12.00">(audio)</text>
<polyline fill="none" stroke="black" stroke-width="2" points="167,-79.5 277,-79.5 "/>
<text text-anchor="middle" x="200.5" y="-65.9" font-family="Arial" font-size="12.00">left:</text>
<text text-anchor="middle" x="200.5" y="-52.9" font-family="Arial" font-size="12.00">220.0</text>
<polyline fill="none" stroke="black" stroke-width="2" points="167,-45.5 234,-45.5 "/>
<text text-anchor="middle" x="200.5" y="-31.9" font-family="Arial" font-size="12.00">right</text>
<polyline fill="none" stroke="black" stroke-width="2" points="234,-24.5 234,-79.5 "/>
<text text-anchor="middle" x="255.5" y="-48.9" font-family="Arial" font-size="12.00">0</text>
</g>
<!-- ugen_2 -->
<g id="node3" class="node">
<title>ugen_2</title>
<path fill="#bcd2ee" stroke="black" stroke-width="2" d="M12,-121.5C12,-121.5 83,-121.5 83,-121.5 89,-121.5 95,-127.5 95,-133.5 95,-133.5 95,-211.5 95,-211.5 95,-217.5 89,-223.5 83,-223.5 83,-223.5 12,-223.5 12,-223.5 6,-223.5 0,-217.5 0,-211.5 0,-211.5 0,-133.5 0,-133.5 0,-127.5 6,-121.5 12,-121.5"/>
<text text-anchor="middle" x="47.5" y="-209.9" font-family="Arial" font-size="12.00">SinOsc</text>
<text text-anchor="middle" x="47.5" y="-196.9" font-family="Arial" font-size="12.00">(audio)</text>
<polyline fill="none" stroke="black" stroke-width="2" points="0,-189.5 95,-189.5 "/>
<text text-anchor="middle" x="36" y="-175.9" font-family="Arial" font-size="12.00">frequency:</text>
<text text-anchor="middle" x="36" y="-162.9" font-family="Arial" font-size="12.00">442.0</text>
<polyline fill="none" stroke="black" stroke-width="2" points="0,-155.5 72,-155.5 "/>
<text text-anchor="middle" x="36" y="-141.9" font-family="Arial" font-size="12.00">phase:</text>
<text text-anchor="middle" x="36" y="-128.9" font-family="Arial" font-size="12.00">0.0</text>
<polyline fill="none" stroke="black" stroke-width="2" points="72,-121.5 72,-189.5 "/>
<text text-anchor="middle" x="83.5" y="-152.4" font-family="Arial" font-size="12.00">0</text>
</g>
<!-- ugen_3 -->
<g id="node4" class="node">
<title>ugen_3</title>
<path fill="#bcd2ee" stroke="black" stroke-width="2" d="M179,-145.5C179,-145.5 265,-145.5 265,-145.5 271,-145.5 277,-151.5 277,-157.5 277,-157.5 277,-235.5 277,-235.5 277,-241.5 271,-247.5 265,-247.5 265,-247.5 179,-247.5 179,-247.5 173,-247.5 167,-241.5 167,-235.5 167,-235.5 167,-157.5 167,-157.5 167,-151.5 173,-145.5 179,-145.5"/>
<text text-anchor="middle" x="222" y="-233.9" font-family="Arial" font-size="12.00">BinaryOpUGen</text>
<text text-anchor="middle" x="222" y="-220.9" font-family="Arial" font-size="12.00">[SUBTRACTION]</text>
<text text-anchor="middle" x="222" y="-207.9" font-family="Arial" font-size="12.00">(audio)</text>
<polyline fill="none" stroke="black" stroke-width="2" points="167,-200.5 277,-200.5 "/>
<text text-anchor="middle" x="200.5" y="-186.9" font-family="Arial" font-size="12.00">left:</text>
<text text-anchor="middle" x="200.5" y="-173.9" font-family="Arial" font-size="12.00">330.0</text>
<polyline fill="none" stroke="black" stroke-width="2" points="167,-166.5 234,-166.5 "/>
<text text-anchor="middle" x="200.5" y="-152.9" font-family="Arial" font-size="12.00">right</text>
<polyline fill="none" stroke="black" stroke-width="2" points="234,-145.5 234,-200.5 "/>
<text text-anchor="middle" x="255.5" y="-169.9" font-family="Arial" font-size="12.00">0</text>
</g>
<!-- ugen_4 -->
<g id="node5" class="node">
<title>ugen_4</title>
<path fill="#bcd2ee" stroke="black" stroke-width="2" d="M12,-242.5C12,-242.5 83,-242.5 83,-242.5 89,-242.5 95,-248.5 95,-254.5 95,-254.5 95,-332.5 95,-332.5 95,-338.5 89,-344.5 83,-344.5 83,-344.5 12,-344.5 12,-344.5 6,-344.5 0,-338.5 0,-332.5 0,-332.5 0,-254.5 0,-254.5 0,-248.5 6,-242.5 12,-242.5"/>
<text text-anchor="middle" x="47.5" y="-330.9" font-family="Arial" font-size="12.00">SinOsc</text>
<text text-anchor="middle" x="47.5" y="-317.9" font-family="Arial" font-size="12.00">(audio)</text>
<polyline fill="none" stroke="black" stroke-width="2" points="0,-310.5 95,-310.5 "/>
<text text-anchor="middle" x="36" y="-296.9" font-family="Arial" font-size="12.00">frequency:</text>
<text text-anchor="middle" x="36" y="-283.9" font-family="Arial" font-size="12.00">443.0</text>
<polyline fill="none" stroke="black" stroke-width="2" points="0,-276.5 72,-276.5 "/>
<text text-anchor="middle" x="36" y="-262.9" font-family="Arial" font-size="12.00">phase:</text>
<text text-anchor="middle" x="36" y="-249.9" font-family="Arial" font-size="12.00">0.0</text>
<polyline fill="none" stroke="black" stroke-width="2" points="72,-242.5 72,-310.5 "/>
<text text-anchor="middle" x="83.5" y="-273.4" font-family="Arial" font-size="12.00">0</text>
</g>
<!-- ugen_5 -->
<g id="node6" class="node">
<title>ugen_5</title>
<path fill="#bcd2ee" stroke="black" stroke-width="2" d="M179,-266.5C179,-266.5 265,-266.5 265,-266.5 271,-266.5 277,-272.5 277,-278.5 277,-278.5 277,-356.5 277,-356.5 277,-362.5 271,-368.5 265,-368.5 265,-368.5 179,-368.5 179,-368.5 173,-368.5 167,-362.5 167,-356.5 167,-356.5 167,-278.5 167,-278.5 167,-272.5 173,-266.5 179,-266.5"/>
<text text-anchor="middle" x="222" y="-354.9" font-family="Arial" font-size="12.00">BinaryOpUGen</text>
<text text-anchor="middle" x="222" y="-341.9" font-family="Arial" font-size="12.00">[SUBTRACTION]</text>
<text text-anchor="middle" x="222" y="-328.9" font-family="Arial" font-size="12.00">(audio)</text>
<polyline fill="none" stroke="black" stroke-width="2" points="167,-321.5 277,-321.5 "/>
<text text-anchor="middle" x="200.5" y="-307.9" font-family="Arial" font-size="12.00">left:</text>
<text text-anchor="middle" x="200.5" y="-294.9" font-family="Arial" font-size="12.00">220.0</text>
<polyline fill="none" stroke="black" stroke-width="2" points="167,-287.5 234,-287.5 "/>
<text text-anchor="middle" x="200.5" y="-273.9" font-family="Arial" font-size="12.00">right</text>
<polyline fill="none" stroke="black" stroke-width="2" points="234,-266.5 234,-321.5 "/>
<text text-anchor="middle" x="255.5" y="-290.9" font-family="Arial" font-size="12.00">0</text>
</g>
</g>
</svg>
