<?xml version="1.0" encoding="UTF-8" standalone="no"?>
<!DOCTYPE svg PUBLIC "-//W3C//DTD SVG 1.1//EN"
 "http://www.w3.org/Graphics/SVG/1.1/DTD/svg11.dtd">
<!-- Generated by graphviz version 2.43.0 (0)
 -->
<!-- Title: synthdef_39e1f9d61589c4acaaf297cc961d65e4 Pages: 1 -->
<svg width="617pt" height="111pt"
 viewBox="0.00 0.00 617.00 111.00" xmlns="http://www.w3.org/2000/svg" xmlns:xlink="http://www.w3.org/1999/xlink">
<g id="graph0" class="graph" transform="scale(1 1) rotate(0) translate(4 107)">
<title>synthdef_39e1f9d61589c4acaaf297cc961d65e4</title>
<!-- ugen_0&#45;&gt;ugen_1 -->
<g id="edge1" class="edge">
<title>ugen_0:e&#45;&gt;ugen_1:w</title>
<path fill="none" stroke="steelblue" stroke-width="2" d="M62,-44.5C90.38,-44.5 99.88,-44.5 123.98,-44.5"/>
<polygon fill="steelblue" stroke="steelblue" stroke-width="2" points="124,-48 134,-44.5 124,-41 124,-48"/>
</g>
<!-- ugen_1&#45;&gt;ugen_2 -->
<g id="edge2" class="edge">
<title>ugen_1:e&#45;&gt;ugen_2:w</title>
<path fill="none" stroke="steelblue" stroke-width="2" d="M210,-44.5C238.38,-44.5 247.88,-44.5 271.98,-44.5"/>
<polygon fill="steelblue" stroke="steelblue" stroke-width="2" points="272,-48 282,-44.5 272,-41 272,-48"/>
</g>
<!-- ugen_2&#45;&gt;ugen_3 -->
<g id="edge3" class="edge">
<title>ugen_2:e&#45;&gt;ugen_3:w</title>
<path fill="none" stroke="steelblue" stroke-width="2" d="M416,-44.5C444.38,-44.5 453.88,-44.5 477.98,-44.5"/>
<polygon fill="steelblue" stroke="steelblue" stroke-width="2" points="478,-48 488,-44.5 478,-41 478,-48"/>
</g>
<!-- ugen_0 -->
<g id="node1" class="node">
<title>ugen_0</title>
<path fill="#bcd2ee" stroke="black" stroke-width="2" d="M12,-27.5C12,-27.5 50,-27.5 50,-27.5 56,-27.5 62,-33.5 62,-39.5 62,-39.5 62,-83.5 62,-83.5 62,-89.5 56,-95.5 50,-95.5 50,-95.5 12,-95.5 12,-95.5 6,-95.5 0,-89.5 0,-83.5 0,-83.5 0,-39.5 0,-39.5 0,-33.5 6,-27.5 12,-27.5"/>
<text text-anchor="middle" x="31" y="-81.9" font-family="Arial" font-size="12.00">In</text>
<text text-anchor="middle" x="31" y="-68.9" font-family="Arial" font-size="12.00">(audio)</text>
<polyline fill="none" stroke="black" stroke-width="2" points="0,-61.5 62,-61.5 "/>
<text text-anchor="middle" x="19.5" y="-47.9" font-family="Arial" font-size="12.00">bus:</text>
<text text-anchor="middle" x="19.5" y="-34.9" font-family="Arial" font-size="12.00">0.0</text>
<polyline fill="none" stroke="black" stroke-width="2" points="39,-27.5 39,-61.5 "/>
<text text-anchor="middle" x="50.5" y="-41.4" font-family="Arial" font-size="12.00">0</text>
</g>
<!-- ugen_1 -->
<g id="node2" class="node">
<title>ugen_1</title>
<path fill="#bcd2ee" stroke="black" stroke-width="2" d="M146,-34C146,-34 198,-34 198,-34 204,-34 210,-40 210,-46 210,-46 210,-77 210,-77 210,-83 204,-89 198,-89 198,-89 146,-89 146,-89 140,-89 134,-83 134,-77 134,-77 134,-46 134,-46 134,-40 140,-34 146,-34"/>
<text text-anchor="middle" x="172" y="-75.4" font-family="Arial" font-size="12.00">HPZ1</text>
<text text-anchor="middle" x="172" y="-62.4" font-family="Arial" font-size="12.00">(audio)</text>
<polyline fill="none" stroke="black" stroke-width="2" points="134,-55 210,-55 "/>
<text text-anchor="middle" x="160.5" y="-41.4" font-family="Arial" font-size="12.00">source</text>
<polyline fill="none" stroke="black" stroke-width="2" points="187,-34 187,-55 "/>
<text text-anchor="middle" x="198.5" y="-41.4" font-family="Arial" font-size="12.00">0</text>
</g>
<!-- ugen_2 -->
<g id="node3" class="node">
<title>ugen_2</title>
<path fill="#bcd2ee" stroke="black" stroke-width="2" d="M294,-34.5C294,-34.5 404,-34.5 404,-34.5 410,-34.5 416,-40.5 416,-46.5 416,-46.5 416,-90.5 416,-90.5 416,-96.5 410,-102.5 404,-102.5 404,-102.5 294,-102.5 294,-102.5 288,-102.5 282,-96.5 282,-90.5 282,-90.5 282,-46.5 282,-46.5 282,-40.5 288,-34.5 294,-34.5"/>
<text text-anchor="middle" x="349" y="-88.9" font-family="Arial" font-size="12.00">UnaryOpUGen</text>
<text text-anchor="middle" x="349" y="-75.9" font-family="Arial" font-size="12.00">[ABSOLUTE_VALUE]</text>
<text text-anchor="middle" x="349" y="-62.9" font-family="Arial" font-size="12.00">(audio)</text>
<polyline fill="none" stroke="black" stroke-width="2" points="282,-55.5 416,-55.5 "/>
<text text-anchor="middle" x="323" y="-41.9" font-family="Arial" font-size="12.00">source</text>
<polyline fill="none" stroke="black" stroke-width="2" points="364,-34.5 364,-55.5 "/>
<text text-anchor="middle" x="390" y="-41.9" font-family="Arial" font-size="12.00">0</text>
</g>
<!-- ugen_3 -->
<g id="node4" class="node">
<title>ugen_3</title>
<path fill="#bcd2ee" stroke="black" stroke-width="2" d="M500,-0.5C500,-0.5 597,-0.5 597,-0.5 603,-0.5 609,-6.5 609,-12.5 609,-12.5 609,-90.5 609,-90.5 609,-96.5 603,-102.5 597,-102.5 597,-102.5 500,-102.5 500,-102.5 494,-102.5 488,-96.5 488,-90.5 488,-90.5 488,-12.5 488,-12.5 488,-6.5 494,-0.5 500,-0.5"/>
<text text-anchor="middle" x="548.5" y="-88.9" font-family="Arial" font-size="12.00">BinaryOpUGen</text>
<text text-anchor="middle" x="548.5" y="-75.9" font-family="Arial" font-size="12.00">[GREATER_THAN]</text>
<text text-anchor="middle" x="548.5" y="-62.9" font-family="Arial" font-size="12.00">(audio)</text>
<polyline fill="none" stroke="black" stroke-width="2" points="488,-55.5 609,-55.5 "/>
<text text-anchor="middle" x="523" y="-41.9" font-family="Arial" font-size="12.00">left</text>
<polyline fill="none" stroke="black" stroke-width="2" points="488,-34.5 558,-34.5 "/>
<text text-anchor="middle" x="523" y="-20.9" font-family="Arial" font-size="12.00">right:</text>
<text text-anchor="middle" x="523" y="-7.9" font-family="Arial" font-size="12.00">0.0</text>
<polyline fill="none" stroke="black" stroke-width="2" points="558,-0.5 558,-55.5 "/>
<text text-anchor="middle" x="583.5" y="-24.9" font-family="Arial" font-size="12.00">0</text>
</g>
</g>
</svg>
