<?xml version="1.0" encoding="UTF-8" standalone="no"?>
<!DOCTYPE svg PUBLIC "-//W3C//DTD SVG 1.1//EN"
 "http://www.w3.org/Graphics/SVG/1.1/DTD/svg11.dtd">
<!-- Generated by graphviz version 2.40.1 (20161225.0304)
 -->
<!-- Title: synthdef_ea2b5e5cec4e2d5a1bef0a8dda522bd3 Pages: 1 -->
<svg width="257pt" height="186pt"
 viewBox="0.00 0.00 257.00 185.50" xmlns="http://www.w3.org/2000/svg" xmlns:xlink="http://www.w3.org/1999/xlink">
<g id="graph0" class="graph" transform="scale(1 1) rotate(0) translate(4 181.5)">
<title>synthdef_ea2b5e5cec4e2d5a1bef0a8dda522bd3</title>
<!-- ugen_0&#45;&gt;ugen_2 -->
<g id="edge1" class="edge">
<title>ugen_0:e&#45;&gt;ugen_2:w</title>
<path fill="none" stroke="#daa520" stroke-width="2" d="M72.5,-132.5C108.5284,-132.5 112.7184,-100.4697 142.7771,-94.4641"/>
<polygon fill="#daa520" stroke="#daa520" stroke-width="2" points="143.3728,-97.9235 153,-93.5 142.7155,-90.9544 143.3728,-97.9235"/>
</g>
<!-- ugen_1&#45;&gt;ugen_2 -->
<g id="edge2" class="edge">
<title>ugen_1:e&#45;&gt;ugen_2:w</title>
<path fill="none" stroke="#4682b4" stroke-width="2" d="M81,-34.5C113.5085,-34.5 116.5141,-65.1732 143.0298,-71.4037"/>
<polygon fill="#4682b4" stroke="#4682b4" stroke-width="2" points="142.6773,-74.886 153,-72.5 143.4425,-67.9279 142.6773,-74.886"/>
</g>
<!-- ugen_0 -->
<g id="node1" class="node">
<title>ugen_0</title>
<path fill="#eedc82" stroke="#000000" stroke-width="2" d="M21,-122C21,-122 60,-122 60,-122 66,-122 72,-128 72,-134 72,-134 72,-165 72,-165 72,-171 66,-177 60,-177 60,-177 21,-177 21,-177 15,-177 9,-171 9,-165 9,-165 9,-134 9,-134 9,-128 15,-122 21,-122"/>
<text text-anchor="middle" x="40.5" y="-163.4" font-family="Arial" font-size="12.00" fill="#000000">WhiteNoise</text>
<text text-anchor="middle" x="40.5" y="-150.4" font-family="Arial" font-size="12.00" fill="#000000">(control)</text>
<polyline fill="none" stroke="#000000" stroke-width="2" points="9,-143 72,-143 "/>
<text text-anchor="middle" x="40.5" y="-129.4" font-family="Arial" font-size="12.00" fill="#000000">0</text>
</g>
<!-- ugen_1 -->
<g id="node2" class="node">
<title>ugen_1</title>
<path fill="#bcd2ee" stroke="#000000" stroke-width="2" d="M12,-.5C12,-.5 69,-.5 69,-.5 75,-.5 81,-6.5 81,-12.5 81,-12.5 81,-90.5 81,-90.5 81,-96.5 75,-102.5 69,-102.5 69,-102.5 12,-102.5 12,-102.5 6,-102.5 0,-96.5 0,-90.5 0,-90.5 0,-12.5 0,-12.5 0,-6.5 6,-.5 12,-.5"/>
<text text-anchor="middle" x="40.5" y="-88.9" font-family="Arial" font-size="12.00" fill="#000000">SinOsc</text>
<text text-anchor="middle" x="40.5" y="-75.9" font-family="Arial" font-size="12.00" fill="#000000">(audio)</text>
<polyline fill="none" stroke="#000000" stroke-width="2" points="0,-68.5 81,-68.5 "/>
<text text-anchor="middle" x="29.5" y="-54.9" font-family="Arial" font-size="12.00" fill="#000000">frequency:</text>
<text text-anchor="middle" x="29.5" y="-41.9" font-family="Arial" font-size="12.00" fill="#000000">440.0</text>
<polyline fill="none" stroke="#000000" stroke-width="2" points="0,-34.5 59,-34.5 "/>
<text text-anchor="middle" x="29.5" y="-20.9" font-family="Arial" font-size="12.00" fill="#000000">phase:</text>
<text text-anchor="middle" x="29.5" y="-7.9" font-family="Arial" font-size="12.00" fill="#000000">0.0</text>
<polyline fill="none" stroke="#000000" stroke-width="2" points="59,-.5 59,-68.5 "/>
<text text-anchor="middle" x="70" y="-31.4" font-family="Arial" font-size="12.00" fill="#000000">0</text>
</g>
<!-- ugen_2 -->
<g id="node3" class="node">
<title>ugen_2</title>
<path fill="#bcd2ee" stroke="#000000" stroke-width="2" d="M165,-62C165,-62 237,-62 237,-62 243,-62 249,-68 249,-74 249,-74 249,-139 249,-139 249,-145 243,-151 237,-151 237,-151 165,-151 165,-151 159,-151 153,-145 153,-139 153,-139 153,-74 153,-74 153,-68 159,-62 165,-62"/>
<text text-anchor="middle" x="201" y="-137.4" font-family="Arial" font-size="12.00" fill="#000000">BinaryOpUGen</text>
<text text-anchor="middle" x="201" y="-124.4" font-family="Arial" font-size="12.00" fill="#000000">[MULTIPLICATION]</text>
<text text-anchor="middle" x="201" y="-111.4" font-family="Arial" font-size="12.00" fill="#000000">(audio)</text>
<polyline fill="none" stroke="#000000" stroke-width="2" points="153,-104 249,-104 "/>
<text text-anchor="middle" x="180" y="-90.4" font-family="Arial" font-size="12.00" fill="#000000">left</text>
<polyline fill="none" stroke="#000000" stroke-width="2" points="153,-83 207,-83 "/>
<text text-anchor="middle" x="180" y="-69.4" font-family="Arial" font-size="12.00" fill="#000000">right</text>
<polyline fill="none" stroke="#000000" stroke-width="2" points="207,-62 207,-104 "/>
<text text-anchor="middle" x="228" y="-79.9" font-family="Arial" font-size="12.00" fill="#000000">0</text>
</g>
</g>
</svg>
