<?xml version="1.0" encoding="UTF-8" standalone="no"?>
<!DOCTYPE svg PUBLIC "-//W3C//DTD SVG 1.1//EN"
 "http://www.w3.org/Graphics/SVG/1.1/DTD/svg11.dtd">
<!-- Generated by graphviz version 2.43.0 (0)
 -->
<!-- Title: synthdef_a1d26283f87b8b445db982ff0e831fb7 Pages: 1 -->
<svg width="275pt" height="353pt"
 viewBox="0.00 0.00 275.00 353.00" xmlns="http://www.w3.org/2000/svg" xmlns:xlink="http://www.w3.org/1999/xlink">
<g id="graph0" class="graph" transform="scale(1 1) rotate(0) translate(4 349)">
<title>synthdef_a1d26283f87b8b445db982ff0e831fb7</title>
<!-- ugen_0&#45;&gt;ugen_3 -->
<g id="edge1" class="edge">
<title>ugen_0:e&#45;&gt;ugen_3:w</title>
<path fill="none" stroke="steelblue" stroke-width="2" d="M95,-276.5C146.02,-276.5 116.93,-189.7 157,-177.84"/>
<polygon fill="steelblue" stroke="steelblue" stroke-width="2" points="157.55,-181.3 167,-176.5 156.62,-174.36 157.55,-181.3"/>
</g>
<!-- ugen_1&#45;&gt;ugen_3 -->
<g id="edge2" class="edge">
<title>ugen_1:e&#45;&gt;ugen_3:w</title>
<path fill="none" stroke="steelblue" stroke-width="2" d="M95,-155.5C123.38,-155.5 132.88,-155.5 156.98,-155.5"/>
<polygon fill="steelblue" stroke="steelblue" stroke-width="2" points="157,-159 167,-155.5 157,-152 157,-159"/>
</g>
<!-- ugen_2&#45;&gt;ugen_3 -->
<g id="edge3" class="edge">
<title>ugen_2:e&#45;&gt;ugen_3:w</title>
<path fill="none" stroke="steelblue" stroke-width="2" d="M95,-34.5C146.02,-34.5 116.93,-121.3 157,-133.16"/>
<polygon fill="steelblue" stroke="steelblue" stroke-width="2" points="156.62,-136.64 167,-134.5 157.55,-129.7 156.62,-136.64"/>
</g>
<!-- ugen_0 -->
<g id="node1" class="node">
<title>ugen_0</title>
<path fill="#bcd2ee" stroke="black" stroke-width="2" d="M12,-242.5C12,-242.5 83,-242.5 83,-242.5 89,-242.5 95,-248.5 95,-254.5 95,-254.5 95,-332.5 95,-332.5 95,-338.5 89,-344.5 83,-344.5 83,-344.5 12,-344.5 12,-344.5 6,-344.5 0,-338.5 0,-332.5 0,-332.5 0,-254.5 0,-254.5 0,-248.5 6,-242.5 12,-242.5"/>
<text text-anchor="middle" x="47.5" y="-330.9" font-family="Arial" font-size="12.00">SinOsc</text>
<text text-anchor="middle" x="47.5" y="-317.9" font-family="Arial" font-size="12.00">(audio)</text>
<polyline fill="none" stroke="black" stroke-width="2" points="0,-310.5 95,-310.5 "/>
<text text-anchor="middle" x="36" y="-296.9" font-family="Arial" font-size="12.00">frequency:</text>
<text text-anchor="middle" x="36" y="-283.9" font-family="Arial" font-size="12.00">440.0</text>
<polyline fill="none" stroke="black" stroke-width="2" points="0,-276.5 72,-276.5 "/>
<text text-anchor="middle" x="36" y="-262.9" font-family="Arial" font-size="12.00">phase:</text>
<text text-anchor="middle" x="36" y="-249.9" font-family="Arial" font-size="12.00">0.0</text>
<polyline fill="none" stroke="black" stroke-width="2" points="72,-242.5 72,-310.5 "/>
<text text-anchor="middle" x="83.5" y="-273.4" font-family="Arial" font-size="12.00">0</text>
</g>
<!-- ugen_1 -->
<g id="node2" class="node">
<title>ugen_1</title>
<path fill="#bcd2ee" stroke="black" stroke-width="2" d="M12,-121.5C12,-121.5 83,-121.5 83,-121.5 89,-121.5 95,-127.5 95,-133.5 95,-133.5 95,-211.5 95,-211.5 95,-217.5 89,-223.5 83,-223.5 83,-223.5 12,-223.5 12,-223.5 6,-223.5 0,-217.5 0,-211.5 0,-211.5 0,-133.5 0,-133.5 0,-127.5 6,-121.5 12,-121.5"/>
<text text-anchor="middle" x="47.5" y="-209.9" font-family="Arial" font-size="12.00">SinOsc</text>
<text text-anchor="middle" x="47.5" y="-196.9" font-family="Arial" font-size="12.00">(audio)</text>
<polyline fill="none" stroke="black" stroke-width="2" points="0,-189.5 95,-189.5 "/>
<text text-anchor="middle" x="36" y="-175.9" font-family="Arial" font-size="12.00">frequency:</text>
<text text-anchor="middle" x="36" y="-162.9" font-family="Arial" font-size="12.00">442.0</text>
<polyline fill="none" stroke="black" stroke-width="2" points="0,-155.5 72,-155.5 "/>
<text text-anchor="middle" x="36" y="-141.9" font-family="Arial" font-size="12.00">phase:</text>
<text text-anchor="middle" x="36" y="-128.9" font-family="Arial" font-size="12.00">0.0</text>
<polyline fill="none" stroke="black" stroke-width="2" points="72,-121.5 72,-189.5 "/>
<text text-anchor="middle" x="83.5" y="-152.4" font-family="Arial" font-size="12.00">0</text>
</g>
<!-- ugen_2 -->
<g id="node3" class="node">
<title>ugen_2</title>
<path fill="#bcd2ee" stroke="black" stroke-width="2" d="M12,-0.5C12,-0.5 83,-0.5 83,-0.5 89,-0.5 95,-6.5 95,-12.5 95,-12.5 95,-90.5 95,-90.5 95,-96.5 89,-102.5 83,-102.5 83,-102.5 12,-102.5 12,-102.5 6,-102.5 0,-96.5 0,-90.5 0,-90.5 0,-12.5 0,-12.5 0,-6.5 6,-0.5 12,-0.5"/>
<text text-anchor="middle" x="47.5" y="-88.9" font-family="Arial" font-size="12.00">SinOsc</text>
<text text-anchor="middle" x="47.5" y="-75.9" font-family="Arial" font-size="12.00">(audio)</text>
<polyline fill="none" stroke="black" stroke-width="2" points="0,-68.5 95,-68.5 "/>
<text text-anchor="middle" x="36" y="-54.9" font-family="Arial" font-size="12.00">frequency:</text>
<text text-anchor="middle" x="36" y="-41.9" font-family="Arial" font-size="12.00">443.0</text>
<polyline fill="none" stroke="black" stroke-width="2" points="0,-34.5 72,-34.5 "/>
<text text-anchor="middle" x="36" y="-20.9" font-family="Arial" font-size="12.00">phase:</text>
<text text-anchor="middle" x="36" y="-7.9" font-family="Arial" font-size="12.00">0.0</text>
<polyline fill="none" stroke="black" stroke-width="2" points="72,-0.5 72,-68.5 "/>
<text text-anchor="middle" x="83.5" y="-31.4" font-family="Arial" font-size="12.00">0</text>
</g>
<!-- ugen_3 -->
<g id="node4" class="node">
<title>ugen_3</title>
<path fill="#bcd2ee" stroke="black" stroke-width="2" d="M179,-124C179,-124 255,-124 255,-124 261,-124 267,-130 267,-136 267,-136 267,-209 267,-209 267,-215 261,-221 255,-221 255,-221 179,-221 179,-221 173,-221 167,-215 167,-209 167,-209 167,-136 167,-136 167,-130 173,-124 179,-124"/>
<text text-anchor="middle" x="217" y="-207.4" font-family="Arial" font-size="12.00">Sum3</text>
<text text-anchor="middle" x="217" y="-194.4" font-family="Arial" font-size="12.00">(audio)</text>
<polyline fill="none" stroke="black" stroke-width="2" points="167,-187 267,-187 "/>
<text text-anchor="middle" x="205.5" y="-173.4" font-family="Arial" font-size="12.00">input_one</text>
<polyline fill="none" stroke="black" stroke-width="2" points="167,-166 244,-166 "/>
<text text-anchor="middle" x="205.5" y="-152.4" font-family="Arial" font-size="12.00">input_two</text>
<polyline fill="none" stroke="black" stroke-width="2" points="167,-145 244,-145 "/>
<text text-anchor="middle" x="205.5" y="-131.4" font-family="Arial" font-size="12.00">input_three</text>
<polyline fill="none" stroke="black" stroke-width="2" points="244,-124 244,-187 "/>
<text text-anchor="middle" x="255.5" y="-152.4" font-family="Arial" font-size="12.00">0</text>
</g>
</g>
</svg>
