<?xml version="1.0" encoding="UTF-8" standalone="no"?>
<!DOCTYPE svg PUBLIC "-//W3C//DTD SVG 1.1//EN"
 "http://www.w3.org/Graphics/SVG/1.1/DTD/svg11.dtd">
<!-- Generated by graphviz version 2.49.1 (20210923.0004)
 -->
<!-- Title: synthdef_6b830f9f0f6049ef52d3fdb8fd2f231e Pages: 1 -->
<svg width="1227pt" height="587pt"
 viewBox="0.00 0.00 1227.00 587.00" xmlns="http://www.w3.org/2000/svg" xmlns:xlink="http://www.w3.org/1999/xlink">
<g id="graph0" class="graph" transform="scale(1 1) rotate(0) translate(4 583)">
<title>synthdef_6b830f9f0f6049ef52d3fdb8fd2f231e</title>
<!-- ugen_0&#45;&gt;ugen_1 -->
<g id="edge1" class="edge">
<title>ugen_0:e&#45;&gt;ugen_1:w</title>
<path fill="none" stroke="salmon" stroke-width="2" d="M63,-392C105.12,-392 91.91,-454.36 124.96,-464.59"/>
<polygon fill="salmon" stroke="salmon" stroke-width="2" points="124.61,-468.07 135,-466 125.59,-461.14 124.61,-468.07"/>
</g>
<!-- ugen_0&#45;&gt;ugen_13 -->
<g id="edge2" class="edge">
<title>ugen_0:e&#45;&gt;ugen_13:w</title>
<path fill="none" stroke="salmon" stroke-width="2" d="M63,-358C184.19,-358 55.16,-186.17 135,-95 215.78,-2.76 271.39,0 394,0 394,0 394,0 840.5,0 982.16,0 1018.27,-33.38 1154.98,-34.94"/>
<polygon fill="salmon" stroke="salmon" stroke-width="2" points="1154.98,-38.44 1165,-35 1155.02,-31.44 1154.98,-38.44"/>
</g>
<!-- ugen_0&#45;&gt;ugen_3 -->
<g id="edge3" class="edge">
<title>ugen_0:e&#45;&gt;ugen_3:w</title>
<path fill="none" stroke="salmon" stroke-width="2" d="M63,-358C101.59,-358 113.73,-358 147.78,-358"/>
<polygon fill="salmon" stroke="salmon" stroke-width="2" points="148,-361.5 158,-358 148,-354.5 148,-361.5"/>
</g>
<!-- ugen_1&#45;&gt;ugen_2 -->
<g id="edge4" class="edge">
<title>ugen_1:e&#45;&gt;ugen_2:w</title>
<path fill="none" stroke="goldenrod" stroke-width="2" d="M243,-483C380.67,-483 414.27,-438.27 546.86,-436.08"/>
<polygon fill="goldenrod" stroke="goldenrod" stroke-width="2" points="547.03,-439.58 557,-436 546.97,-432.58 547.03,-439.58"/>
</g>
<!-- ugen_10&#45;&gt;ugen_11 -->
<g id="edge5" class="edge">
<title>ugen_10:e&#45;&gt;ugen_11:w</title>
<path fill="none" stroke="steelblue" stroke-width="2" d="M707,-201C763.18,-201 724.63,-100.8 768.97,-88.28"/>
<polygon fill="steelblue" stroke="steelblue" stroke-width="2" points="769.52,-91.74 779,-87 768.64,-84.79 769.52,-91.74"/>
</g>
<!-- ugen_10&#45;&gt;ugen_14 -->
<g id="edge6" class="edge">
<title>ugen_10:e&#45;&gt;ugen_14:w</title>
<path fill="none" stroke="steelblue" stroke-width="2" d="M707,-201C751.19,-201 739.03,-264.74 774.42,-274.7"/>
<polygon fill="steelblue" stroke="steelblue" stroke-width="2" points="774.13,-278.19 784.5,-276 775.03,-271.25 774.13,-278.19"/>
</g>
<!-- ugen_11&#45;&gt;ugen_12 -->
<g id="edge7" class="edge">
<title>ugen_11:e&#45;&gt;ugen_12:w</title>
<path fill="none" stroke="steelblue" stroke-width="2" d="M900,-76C928.38,-76 937.88,-76 961.98,-76"/>
<polygon fill="steelblue" stroke="steelblue" stroke-width="2" points="962,-79.5 972,-76 962,-72.5 962,-79.5"/>
</g>
<!-- ugen_12&#45;&gt;ugen_13 -->
<g id="edge8" class="edge">
<title>ugen_12:e&#45;&gt;ugen_13:w</title>
<path fill="none" stroke="steelblue" stroke-width="2" d="M1093,-65C1128.38,-65 1126.61,-23.47 1154.73,-15.36"/>
<polygon fill="steelblue" stroke="steelblue" stroke-width="2" points="1155.55,-18.79 1165,-14 1154.63,-11.85 1155.55,-18.79"/>
</g>
<!-- ugen_2&#45;&gt;ugen_12 -->
<g id="edge9" class="edge">
<title>ugen_2:e&#45;&gt;ugen_12:w</title>
<path fill="none" stroke="goldenrod" stroke-width="2" d="M697,-436C798.78,-436 836.57,-409.6 900,-330 976.51,-233.99 853.03,-64.92 961.88,-55.42"/>
<polygon fill="goldenrod" stroke="goldenrod" stroke-width="2" points="962.15,-58.91 972,-55 961.86,-51.92 962.15,-58.91"/>
</g>
<!-- ugen_3&#45;&gt;ugen_7 -->
<g id="edge10" class="edge">
<title>ugen_3:e&#45;&gt;ugen_7:w</title>
<path fill="none" stroke="steelblue" stroke-width="2" d="M220,-358C258.59,-358 270.73,-358 304.78,-358"/>
<polygon fill="steelblue" stroke="steelblue" stroke-width="2" points="305,-361.5 315,-358 305,-354.5 305,-361.5"/>
</g>
<!-- ugen_4&#45;&gt;ugen_11 -->
<g id="edge11" class="edge">
<title>ugen_4:e&#45;&gt;ugen_11:w</title>
<path fill="none" stroke="goldenrod" stroke-width="2" d="M659,-66C708.79,-66 723.72,-66 768.88,-66"/>
<polygon fill="goldenrod" stroke="goldenrod" stroke-width="2" points="769,-69.5 779,-66 769,-62.5 769,-69.5"/>
</g>
<!-- ugen_5&#45;&gt;ugen_7 -->
<g id="edge12" class="edge">
<title>ugen_5:e&#45;&gt;ugen_7:w</title>
<path fill="none" stroke="salmon" stroke-width="2" d="M238,-139C306.52,-139 249.3,-267.85 305.05,-280.93"/>
<polygon fill="salmon" stroke="salmon" stroke-width="2" points="304.68,-284.41 315,-282 305.43,-277.45 304.68,-284.41"/>
</g>
<!-- ugen_6&#45;&gt;ugen_7 -->
<g id="edge13" class="edge">
<title>ugen_6:e&#45;&gt;ugen_7:w</title>
<path fill="none" stroke="salmon" stroke-width="2" d="M238,-260C273.52,-260 275.71,-295.32 304.98,-301.94"/>
<polygon fill="salmon" stroke="salmon" stroke-width="2" points="304.69,-305.43 315,-303 305.43,-298.46 304.69,-305.43"/>
</g>
<!-- ugen_7&#45;&gt;ugen_10 -->
<g id="edge14" class="edge">
<title>ugen_7:e&#45;&gt;ugen_10:w</title>
<path fill="none" stroke="steelblue" stroke-width="2" d="M475,-320C519.4,-320 502.19,-251.16 536.97,-240.41"/>
<polygon fill="steelblue" stroke="steelblue" stroke-width="2" points="537.58,-243.85 547,-239 536.61,-236.92 537.58,-243.85"/>
</g>
<!-- ugen_8&#45;&gt;ugen_10 -->
<g id="edge15" class="edge">
<title>ugen_8:e&#45;&gt;ugen_10:w</title>
<path fill="none" stroke="salmon" stroke-width="2" d="M444,-63C504.19,-63 485.7,-151.99 536.98,-162.07"/>
<polygon fill="salmon" stroke="salmon" stroke-width="2" points="536.72,-165.56 547,-163 537.36,-158.59 536.72,-165.56"/>
</g>
<!-- ugen_9&#45;&gt;ugen_10 -->
<g id="edge16" class="edge">
<title>ugen_9:e&#45;&gt;ugen_10:w</title>
<path fill="none" stroke="salmon" stroke-width="2" d="M444,-184C486.2,-184 499.22,-184 536.87,-184"/>
<polygon fill="salmon" stroke="salmon" stroke-width="2" points="537,-187.5 547,-184 537,-180.5 537,-187.5"/>
</g>
<!-- ugen_0 -->
<g id="node1" class="node">
<title>ugen_0</title>
<path fill="#ee9572" stroke="black" stroke-width="2" d="M12,-341C12,-341 51,-341 51,-341 57,-341 63,-347 63,-353 63,-353 63,-431 63,-431 63,-437 57,-443 51,-443 51,-443 12,-443 12,-443 6,-443 0,-437 0,-431 0,-431 0,-353 0,-353 0,-347 6,-341 12,-341"/>
<text text-anchor="middle" x="31.5" y="-429.4" font-family="Arial" font-size="12.00">Control</text>
<text text-anchor="middle" x="31.5" y="-416.4" font-family="Arial" font-size="12.00">(scalar)</text>
<polyline fill="none" stroke="black" stroke-width="2" points="0,-409 63,-409 "/>
<text text-anchor="middle" x="31.5" y="-395.4" font-family="Arial" font-size="12.00">duration:</text>
<text text-anchor="middle" x="31.5" y="-382.4" font-family="Arial" font-size="12.00">1.0</text>
<polyline fill="none" stroke="black" stroke-width="2" points="0,-375 63,-375 "/>
<text text-anchor="middle" x="31.5" y="-361.4" font-family="Arial" font-size="12.00">out:</text>
<text text-anchor="middle" x="31.5" y="-348.4" font-family="Arial" font-size="12.00">0.0</text>
</g>
<!-- ugen_1 -->
<g id="node2" class="node">
<title>ugen_1</title>
<path fill="#eedc82" stroke="black" stroke-width="2" d="M147,-421.5C147,-421.5 231,-421.5 231,-421.5 237,-421.5 243,-427.5 243,-433.5 243,-433.5 243,-566.5 243,-566.5 243,-572.5 237,-578.5 231,-578.5 231,-578.5 147,-578.5 147,-578.5 141,-578.5 135,-572.5 135,-566.5 135,-566.5 135,-433.5 135,-433.5 135,-427.5 141,-421.5 147,-421.5"/>
<text text-anchor="middle" x="189" y="-564.9" font-family="Arial" font-size="12.00">Line</text>
<text text-anchor="middle" x="189" y="-551.9" font-family="Arial" font-size="12.00">(control)</text>
<polyline fill="none" stroke="black" stroke-width="2" points="135,-544.5 243,-544.5 "/>
<text text-anchor="middle" x="177.5" y="-530.9" font-family="Arial" font-size="12.00">start:</text>
<text text-anchor="middle" x="177.5" y="-517.9" font-family="Arial" font-size="12.00">0.0</text>
<polyline fill="none" stroke="black" stroke-width="2" points="135,-510.5 220,-510.5 "/>
<text text-anchor="middle" x="177.5" y="-496.9" font-family="Arial" font-size="12.00">stop:</text>
<text text-anchor="middle" x="177.5" y="-483.9" font-family="Arial" font-size="12.00">1.0</text>
<polyline fill="none" stroke="black" stroke-width="2" points="135,-476.5 220,-476.5 "/>
<text text-anchor="middle" x="177.5" y="-462.9" font-family="Arial" font-size="12.00">duration</text>
<polyline fill="none" stroke="black" stroke-width="2" points="135,-455.5 220,-455.5 "/>
<text text-anchor="middle" x="177.5" y="-441.9" font-family="Arial" font-size="12.00">done_action:</text>
<text text-anchor="middle" x="177.5" y="-428.9" font-family="Arial" font-size="12.00">2.0</text>
<polyline fill="none" stroke="black" stroke-width="2" points="220,-421.5 220,-544.5 "/>
<text text-anchor="middle" x="231.5" y="-479.9" font-family="Arial" font-size="12.00">0</text>
</g>
<!-- ugen_10 -->
<g id="node3" class="node">
<title>ugen_10</title>
<path fill="#bcd2ee" stroke="black" stroke-width="2" d="M559,-152.5C559,-152.5 695,-152.5 695,-152.5 701,-152.5 707,-158.5 707,-164.5 707,-164.5 707,-271.5 707,-271.5 707,-277.5 701,-283.5 695,-283.5 695,-283.5 559,-283.5 559,-283.5 553,-283.5 547,-277.5 547,-271.5 547,-271.5 547,-164.5 547,-164.5 547,-158.5 553,-152.5 559,-152.5"/>
<text text-anchor="middle" x="627" y="-269.9" font-family="Arial" font-size="12.00">AllpassC</text>
<text text-anchor="middle" x="627" y="-256.9" font-family="Arial" font-size="12.00">(audio)</text>
<polyline fill="none" stroke="black" stroke-width="2" points="547,-249.5 707,-249.5 "/>
<text text-anchor="middle" x="615.5" y="-235.9" font-family="Arial" font-size="12.00">source</text>
<polyline fill="none" stroke="black" stroke-width="2" points="547,-228.5 684,-228.5 "/>
<text text-anchor="middle" x="615.5" y="-214.9" font-family="Arial" font-size="12.00">maximum_delay_time:</text>
<text text-anchor="middle" x="615.5" y="-201.9" font-family="Arial" font-size="12.00">0.1</text>
<polyline fill="none" stroke="black" stroke-width="2" points="547,-194.5 684,-194.5 "/>
<text text-anchor="middle" x="615.5" y="-180.9" font-family="Arial" font-size="12.00">delay_time</text>
<polyline fill="none" stroke="black" stroke-width="2" points="547,-173.5 684,-173.5 "/>
<text text-anchor="middle" x="615.5" y="-159.9" font-family="Arial" font-size="12.00">decay_time</text>
<polyline fill="none" stroke="black" stroke-width="2" points="684,-152.5 684,-249.5 "/>
<text text-anchor="middle" x="695.5" y="-197.9" font-family="Arial" font-size="12.00">0</text>
</g>
<!-- ugen_11 -->
<g id="node4" class="node">
<title>ugen_11</title>
<path fill="#bcd2ee" stroke="black" stroke-width="2" d="M791,-55.5C791,-55.5 888,-55.5 888,-55.5 894,-55.5 900,-61.5 900,-67.5 900,-67.5 900,-132.5 900,-132.5 900,-138.5 894,-144.5 888,-144.5 888,-144.5 791,-144.5 791,-144.5 785,-144.5 779,-138.5 779,-132.5 779,-132.5 779,-67.5 779,-67.5 779,-61.5 785,-55.5 791,-55.5"/>
<text text-anchor="middle" x="839.5" y="-130.9" font-family="Arial" font-size="12.00">BinaryOpUGen</text>
<text text-anchor="middle" x="839.5" y="-117.9" font-family="Arial" font-size="12.00">[MULTIPLICATION]</text>
<text text-anchor="middle" x="839.5" y="-104.9" font-family="Arial" font-size="12.00">(audio)</text>
<polyline fill="none" stroke="black" stroke-width="2" points="779,-97.5 900,-97.5 "/>
<text text-anchor="middle" x="813.5" y="-83.9" font-family="Arial" font-size="12.00">left</text>
<polyline fill="none" stroke="black" stroke-width="2" points="779,-76.5 848,-76.5 "/>
<text text-anchor="middle" x="813.5" y="-62.9" font-family="Arial" font-size="12.00">right</text>
<polyline fill="none" stroke="black" stroke-width="2" points="848,-55.5 848,-97.5 "/>
<text text-anchor="middle" x="874" y="-73.4" font-family="Arial" font-size="12.00">0</text>
</g>
<!-- ugen_12 -->
<g id="node5" class="node">
<title>ugen_12</title>
<path fill="#bcd2ee" stroke="black" stroke-width="2" d="M984,-44.5C984,-44.5 1081,-44.5 1081,-44.5 1087,-44.5 1093,-50.5 1093,-56.5 1093,-56.5 1093,-121.5 1093,-121.5 1093,-127.5 1087,-133.5 1081,-133.5 1081,-133.5 984,-133.5 984,-133.5 978,-133.5 972,-127.5 972,-121.5 972,-121.5 972,-56.5 972,-56.5 972,-50.5 978,-44.5 984,-44.5"/>
<text text-anchor="middle" x="1032.5" y="-119.9" font-family="Arial" font-size="12.00">BinaryOpUGen</text>
<text text-anchor="middle" x="1032.5" y="-106.9" font-family="Arial" font-size="12.00">[MULTIPLICATION]</text>
<text text-anchor="middle" x="1032.5" y="-93.9" font-family="Arial" font-size="12.00">(audio)</text>
<polyline fill="none" stroke="black" stroke-width="2" points="972,-86.5 1093,-86.5 "/>
<text text-anchor="middle" x="1006.5" y="-72.9" font-family="Arial" font-size="12.00">left</text>
<polyline fill="none" stroke="black" stroke-width="2" points="972,-65.5 1041,-65.5 "/>
<text text-anchor="middle" x="1006.5" y="-51.9" font-family="Arial" font-size="12.00">right</text>
<polyline fill="none" stroke="black" stroke-width="2" points="1041,-44.5 1041,-86.5 "/>
<text text-anchor="middle" x="1067" y="-62.4" font-family="Arial" font-size="12.00">0</text>
</g>
<!-- ugen_13 -->
<g id="node6" class="node">
<title>ugen_13</title>
<path fill="#bcd2ee" stroke="black" stroke-width="2" d="M1177,-4C1177,-4 1207,-4 1207,-4 1213,-4 1219,-10 1219,-16 1219,-16 1219,-68 1219,-68 1219,-74 1213,-80 1207,-80 1207,-80 1177,-80 1177,-80 1171,-80 1165,-74 1165,-68 1165,-68 1165,-16 1165,-16 1165,-10 1171,-4 1177,-4"/>
<text text-anchor="middle" x="1192" y="-66.4" font-family="Arial" font-size="12.00">Out</text>
<text text-anchor="middle" x="1192" y="-53.4" font-family="Arial" font-size="12.00">(audio)</text>
<polyline fill="none" stroke="black" stroke-width="2" points="1165,-46 1219,-46 "/>
<text text-anchor="middle" x="1192" y="-32.4" font-family="Arial" font-size="12.00">bus</text>
<polyline fill="none" stroke="black" stroke-width="2" points="1165,-25 1219,-25 "/>
<text text-anchor="middle" x="1192" y="-11.4" font-family="Arial" font-size="12.00">source</text>
</g>
<!-- ugen_14 -->
<g id="node7" class="node">
<title>ugen_14</title>
<path fill="#eedc82" stroke="black" stroke-width="2" d="M797.5,-163.5C797.5,-163.5 881.5,-163.5 881.5,-163.5 887.5,-163.5 893.5,-169.5 893.5,-175.5 893.5,-175.5 893.5,-308.5 893.5,-308.5 893.5,-314.5 887.5,-320.5 881.5,-320.5 881.5,-320.5 797.5,-320.5 797.5,-320.5 791.5,-320.5 785.5,-314.5 785.5,-308.5 785.5,-308.5 785.5,-175.5 785.5,-175.5 785.5,-169.5 791.5,-163.5 797.5,-163.5"/>
<text text-anchor="middle" x="839.5" y="-306.9" font-family="Arial" font-size="12.00">DetectSilence</text>
<text text-anchor="middle" x="839.5" y="-293.9" font-family="Arial" font-size="12.00">(control)</text>
<polyline fill="none" stroke="black" stroke-width="2" points="785.5,-286.5 893.5,-286.5 "/>
<text text-anchor="middle" x="828" y="-272.9" font-family="Arial" font-size="12.00">source</text>
<polyline fill="none" stroke="black" stroke-width="2" points="785.5,-265.5 870.5,-265.5 "/>
<text text-anchor="middle" x="828" y="-251.9" font-family="Arial" font-size="12.00">threshold:</text>
<text text-anchor="middle" x="828" y="-238.9" font-family="Arial" font-size="12.00">0.0001</text>
<polyline fill="none" stroke="black" stroke-width="2" points="785.5,-231.5 870.5,-231.5 "/>
<text text-anchor="middle" x="828" y="-217.9" font-family="Arial" font-size="12.00">time:</text>
<text text-anchor="middle" x="828" y="-204.9" font-family="Arial" font-size="12.00">0.1</text>
<polyline fill="none" stroke="black" stroke-width="2" points="785.5,-197.5 870.5,-197.5 "/>
<text text-anchor="middle" x="828" y="-183.9" font-family="Arial" font-size="12.00">done_action:</text>
<text text-anchor="middle" x="828" y="-170.9" font-family="Arial" font-size="12.00">2.0</text>
<polyline fill="none" stroke="black" stroke-width="2" points="870.5,-163.5 870.5,-286.5 "/>
<text text-anchor="middle" x="882" y="-221.9" font-family="Arial" font-size="12.00">0</text>
</g>
<!-- ugen_2 -->
<g id="node8" class="node">
<title>ugen_2</title>
<path fill="#eedc82" stroke="black" stroke-width="2" d="M570,-426C570,-426 684,-426 684,-426 690,-426 696,-432 696,-438 696,-438 696,-482 696,-482 696,-488 690,-494 684,-494 684,-494 570,-494 570,-494 564,-494 558,-488 558,-482 558,-482 558,-438 558,-438 558,-432 564,-426 570,-426"/>
<text text-anchor="middle" x="627" y="-480.4" font-family="Arial" font-size="12.00">UnaryOpUGen</text>
<text text-anchor="middle" x="627" y="-467.4" font-family="Arial" font-size="12.00">[HANNING_WINDOW]</text>
<text text-anchor="middle" x="627" y="-454.4" font-family="Arial" font-size="12.00">(control)</text>
<polyline fill="none" stroke="black" stroke-width="2" points="558,-447 696,-447 "/>
<text text-anchor="middle" x="600" y="-433.4" font-family="Arial" font-size="12.00">source</text>
<polyline fill="none" stroke="black" stroke-width="2" points="642,-426 642,-447 "/>
<text text-anchor="middle" x="669" y="-433.4" font-family="Arial" font-size="12.00">0</text>
</g>
<!-- ugen_3 -->
<g id="node9" class="node">
<title>ugen_3</title>
<path fill="#bcd2ee" stroke="black" stroke-width="2" d="M171.5,-347.5C171.5,-347.5 206.5,-347.5 206.5,-347.5 212.5,-347.5 218.5,-353.5 218.5,-359.5 218.5,-359.5 218.5,-390.5 218.5,-390.5 218.5,-396.5 212.5,-402.5 206.5,-402.5 206.5,-402.5 171.5,-402.5 171.5,-402.5 165.5,-402.5 159.5,-396.5 159.5,-390.5 159.5,-390.5 159.5,-359.5 159.5,-359.5 159.5,-353.5 165.5,-347.5 171.5,-347.5"/>
<text text-anchor="middle" x="189" y="-388.9" font-family="Arial" font-size="12.00">In</text>
<text text-anchor="middle" x="189" y="-375.9" font-family="Arial" font-size="12.00">(audio)</text>
<polyline fill="none" stroke="black" stroke-width="2" points="159.5,-368.5 218.5,-368.5 "/>
<text text-anchor="middle" x="177.5" y="-354.9" font-family="Arial" font-size="12.00">bus</text>
<polyline fill="none" stroke="black" stroke-width="2" points="195.5,-347.5 195.5,-368.5 "/>
<text text-anchor="middle" x="207" y="-354.9" font-family="Arial" font-size="12.00">0</text>
</g>
<!-- ugen_4 -->
<g id="node10" class="node">
<title>ugen_4</title>
<path fill="#eedc82" stroke="black" stroke-width="2" d="M608.5,-49C608.5,-49 645.5,-49 645.5,-49 651.5,-49 657.5,-55 657.5,-61 657.5,-61 657.5,-105 657.5,-105 657.5,-111 651.5,-117 645.5,-117 645.5,-117 608.5,-117 608.5,-117 602.5,-117 596.5,-111 596.5,-105 596.5,-105 596.5,-61 596.5,-61 596.5,-55 602.5,-49 608.5,-49"/>
<text text-anchor="middle" x="627" y="-103.4" font-family="Arial" font-size="12.00">Control</text>
<text text-anchor="middle" x="627" y="-90.4" font-family="Arial" font-size="12.00">(control)</text>
<polyline fill="none" stroke="black" stroke-width="2" points="596.5,-83 657.5,-83 "/>
<text text-anchor="middle" x="627" y="-69.4" font-family="Arial" font-size="12.00">level:</text>
<text text-anchor="middle" x="627" y="-56.4" font-family="Arial" font-size="12.00">1.0</text>
</g>
<!-- ugen_5 -->
<g id="node11" class="node">
<title>ugen_5</title>
<path fill="#ee9572" stroke="black" stroke-width="2" d="M153.5,-105C153.5,-105 224.5,-105 224.5,-105 230.5,-105 236.5,-111 236.5,-117 236.5,-117 236.5,-195 236.5,-195 236.5,-201 230.5,-207 224.5,-207 224.5,-207 153.5,-207 153.5,-207 147.5,-207 141.5,-201 141.5,-195 141.5,-195 141.5,-117 141.5,-117 141.5,-111 147.5,-105 153.5,-105"/>
<text text-anchor="middle" x="189" y="-193.4" font-family="Arial" font-size="12.00">ExpRand</text>
<text text-anchor="middle" x="189" y="-180.4" font-family="Arial" font-size="12.00">(scalar)</text>
<polyline fill="none" stroke="black" stroke-width="2" points="141.5,-173 236.5,-173 "/>
<text text-anchor="middle" x="177.5" y="-159.4" font-family="Arial" font-size="12.00">minimum:</text>
<text text-anchor="middle" x="177.5" y="-146.4" font-family="Arial" font-size="12.00">0.01</text>
<polyline fill="none" stroke="black" stroke-width="2" points="141.5,-139 213.5,-139 "/>
<text text-anchor="middle" x="177.5" y="-125.4" font-family="Arial" font-size="12.00">maximum:</text>
<text text-anchor="middle" x="177.5" y="-112.4" font-family="Arial" font-size="12.00">0.1</text>
<polyline fill="none" stroke="black" stroke-width="2" points="213.5,-105 213.5,-173 "/>
<text text-anchor="middle" x="225" y="-135.9" font-family="Arial" font-size="12.00">0</text>
</g>
<!-- ugen_6 -->
<g id="node12" class="node">
<title>ugen_6</title>
<path fill="#ee9572" stroke="black" stroke-width="2" d="M153.5,-226C153.5,-226 224.5,-226 224.5,-226 230.5,-226 236.5,-232 236.5,-238 236.5,-238 236.5,-316 236.5,-316 236.5,-322 230.5,-328 224.5,-328 224.5,-328 153.5,-328 153.5,-328 147.5,-328 141.5,-322 141.5,-316 141.5,-316 141.5,-238 141.5,-238 141.5,-232 147.5,-226 153.5,-226"/>
<text text-anchor="middle" x="189" y="-314.4" font-family="Arial" font-size="12.00">ExpRand</text>
<text text-anchor="middle" x="189" y="-301.4" font-family="Arial" font-size="12.00">(scalar)</text>
<polyline fill="none" stroke="black" stroke-width="2" points="141.5,-294 236.5,-294 "/>
<text text-anchor="middle" x="177.5" y="-280.4" font-family="Arial" font-size="12.00">minimum:</text>
<text text-anchor="middle" x="177.5" y="-267.4" font-family="Arial" font-size="12.00">0.01</text>
<polyline fill="none" stroke="black" stroke-width="2" points="141.5,-260 213.5,-260 "/>
<text text-anchor="middle" x="177.5" y="-246.4" font-family="Arial" font-size="12.00">maximum:</text>
<text text-anchor="middle" x="177.5" y="-233.4" font-family="Arial" font-size="12.00">0.1</text>
<polyline fill="none" stroke="black" stroke-width="2" points="213.5,-226 213.5,-294 "/>
<text text-anchor="middle" x="225" y="-256.9" font-family="Arial" font-size="12.00">0</text>
</g>
<!-- ugen_7 -->
<g id="node13" class="node">
<title>ugen_7</title>
<path fill="#bcd2ee" stroke="black" stroke-width="2" d="M327,-271.5C327,-271.5 463,-271.5 463,-271.5 469,-271.5 475,-277.5 475,-283.5 475,-283.5 475,-390.5 475,-390.5 475,-396.5 469,-402.5 463,-402.5 463,-402.5 327,-402.5 327,-402.5 321,-402.5 315,-396.5 315,-390.5 315,-390.5 315,-283.5 315,-283.5 315,-277.5 321,-271.5 327,-271.5"/>
<text text-anchor="middle" x="395" y="-388.9" font-family="Arial" font-size="12.00">AllpassC</text>
<text text-anchor="middle" x="395" y="-375.9" font-family="Arial" font-size="12.00">(audio)</text>
<polyline fill="none" stroke="black" stroke-width="2" points="315,-368.5 475,-368.5 "/>
<text text-anchor="middle" x="383.5" y="-354.9" font-family="Arial" font-size="12.00">source</text>
<polyline fill="none" stroke="black" stroke-width="2" points="315,-347.5 452,-347.5 "/>
<text text-anchor="middle" x="383.5" y="-333.9" font-family="Arial" font-size="12.00">maximum_delay_time:</text>
<text text-anchor="middle" x="383.5" y="-320.9" font-family="Arial" font-size="12.00">0.1</text>
<polyline fill="none" stroke="black" stroke-width="2" points="315,-313.5 452,-313.5 "/>
<text text-anchor="middle" x="383.5" y="-299.9" font-family="Arial" font-size="12.00">delay_time</text>
<polyline fill="none" stroke="black" stroke-width="2" points="315,-292.5 452,-292.5 "/>
<text text-anchor="middle" x="383.5" y="-278.9" font-family="Arial" font-size="12.00">decay_time</text>
<polyline fill="none" stroke="black" stroke-width="2" points="452,-271.5 452,-368.5 "/>
<text text-anchor="middle" x="463.5" y="-316.9" font-family="Arial" font-size="12.00">0</text>
</g>
<!-- ugen_8 -->
<g id="node14" class="node">
<title>ugen_8</title>
<path fill="#ee9572" stroke="black" stroke-width="2" d="M359.5,-29C359.5,-29 430.5,-29 430.5,-29 436.5,-29 442.5,-35 442.5,-41 442.5,-41 442.5,-119 442.5,-119 442.5,-125 436.5,-131 430.5,-131 430.5,-131 359.5,-131 359.5,-131 353.5,-131 347.5,-125 347.5,-119 347.5,-119 347.5,-41 347.5,-41 347.5,-35 353.5,-29 359.5,-29"/>
<text text-anchor="middle" x="395" y="-117.4" font-family="Arial" font-size="12.00">ExpRand</text>
<text text-anchor="middle" x="395" y="-104.4" font-family="Arial" font-size="12.00">(scalar)</text>
<polyline fill="none" stroke="black" stroke-width="2" points="347.5,-97 442.5,-97 "/>
<text text-anchor="middle" x="383.5" y="-83.4" font-family="Arial" font-size="12.00">minimum:</text>
<text text-anchor="middle" x="383.5" y="-70.4" font-family="Arial" font-size="12.00">0.01</text>
<polyline fill="none" stroke="black" stroke-width="2" points="347.5,-63 419.5,-63 "/>
<text text-anchor="middle" x="383.5" y="-49.4" font-family="Arial" font-size="12.00">maximum:</text>
<text text-anchor="middle" x="383.5" y="-36.4" font-family="Arial" font-size="12.00">0.1</text>
<polyline fill="none" stroke="black" stroke-width="2" points="419.5,-29 419.5,-97 "/>
<text text-anchor="middle" x="431" y="-59.9" font-family="Arial" font-size="12.00">0</text>
</g>
<!-- ugen_9 -->
<g id="node15" class="node">
<title>ugen_9</title>
<path fill="#ee9572" stroke="black" stroke-width="2" d="M359.5,-150C359.5,-150 430.5,-150 430.5,-150 436.5,-150 442.5,-156 442.5,-162 442.5,-162 442.5,-240 442.5,-240 442.5,-246 436.5,-252 430.5,-252 430.5,-252 359.5,-252 359.5,-252 353.5,-252 347.5,-246 347.5,-240 347.5,-240 347.5,-162 347.5,-162 347.5,-156 353.5,-150 359.5,-150"/>
<text text-anchor="middle" x="395" y="-238.4" font-family="Arial" font-size="12.00">ExpRand</text>
<text text-anchor="middle" x="395" y="-225.4" font-family="Arial" font-size="12.00">(scalar)</text>
<polyline fill="none" stroke="black" stroke-width="2" points="347.5,-218 442.5,-218 "/>
<text text-anchor="middle" x="383.5" y="-204.4" font-family="Arial" font-size="12.00">minimum:</text>
<text text-anchor="middle" x="383.5" y="-191.4" font-family="Arial" font-size="12.00">0.01</text>
<polyline fill="none" stroke="black" stroke-width="2" points="347.5,-184 419.5,-184 "/>
<text text-anchor="middle" x="383.5" y="-170.4" font-family="Arial" font-size="12.00">maximum:</text>
<text text-anchor="middle" x="383.5" y="-157.4" font-family="Arial" font-size="12.00">0.1</text>
<polyline fill="none" stroke="black" stroke-width="2" points="419.5,-150 419.5,-218 "/>
<text text-anchor="middle" x="431" y="-180.9" font-family="Arial" font-size="12.00">0</text>
</g>
</g>
</svg>
