<?xml version="1.0" encoding="UTF-8" standalone="no"?>
<!DOCTYPE svg PUBLIC "-//W3C//DTD SVG 1.1//EN"
 "http://www.w3.org/Graphics/SVG/1.1/DTD/svg11.dtd">
<!-- Generated by graphviz version 2.49.1 (20210923.0004)
 -->
<!-- Title: synthdef_d71b3081490f800d5136c87f5fef46d1 Pages: 1 -->
<svg width="296pt" height="377pt"
 viewBox="0.00 0.00 296.00 377.00" xmlns="http://www.w3.org/2000/svg" xmlns:xlink="http://www.w3.org/1999/xlink">
<g id="graph0" class="graph" transform="scale(1 1) rotate(0) translate(4 373)">
<title>synthdef_d71b3081490f800d5136c87f5fef46d1</title>
<!-- ugen_0&#45;&gt;ugen_1 -->
<g id="edge1" class="edge">
<title>ugen_0:e&#45;&gt;ugen_1:w</title>
<path fill="none" stroke="steelblue" stroke-width="2" d="M96,-34.5C124.38,-34.5 133.88,-34.5 157.98,-34.5"/>
<polygon fill="steelblue" stroke="steelblue" stroke-width="2" points="158,-38 168,-34.5 158,-31 158,-38"/>
</g>
<!-- ugen_2&#45;&gt;ugen_3 -->
<g id="edge2" class="edge">
<title>ugen_2:e&#45;&gt;ugen_3:w</title>
<path fill="none" stroke="steelblue" stroke-width="2" d="M96,-155.5C124.38,-155.5 133.88,-155.5 157.98,-155.5"/>
<polygon fill="steelblue" stroke="steelblue" stroke-width="2" points="158,-159 168,-155.5 158,-152 158,-159"/>
</g>
<!-- ugen_4&#45;&gt;ugen_5 -->
<g id="edge3" class="edge">
<title>ugen_4:e&#45;&gt;ugen_5:w</title>
<path fill="none" stroke="steelblue" stroke-width="2" d="M96,-276.5C124.38,-276.5 133.88,-276.5 157.98,-276.5"/>
<polygon fill="steelblue" stroke="steelblue" stroke-width="2" points="158,-280 168,-276.5 158,-273 158,-280"/>
</g>
<!-- ugen_0 -->
<g id="node1" class="node">
<title>ugen_0</title>
<path fill="#bcd2ee" stroke="black" stroke-width="2" d="M12,-0.5C12,-0.5 84,-0.5 84,-0.5 90,-0.5 96,-6.5 96,-12.5 96,-12.5 96,-90.5 96,-90.5 96,-96.5 90,-102.5 84,-102.5 84,-102.5 12,-102.5 12,-102.5 6,-102.5 0,-96.5 0,-90.5 0,-90.5 0,-12.5 0,-12.5 0,-6.5 6,-0.5 12,-0.5"/>
<text text-anchor="middle" x="48" y="-88.9" font-family="Arial" font-size="12.00">SinOsc</text>
<text text-anchor="middle" x="48" y="-75.9" font-family="Arial" font-size="12.00">(audio)</text>
<polyline fill="none" stroke="black" stroke-width="2" points="0,-68.5 96,-68.5 "/>
<text text-anchor="middle" x="36.5" y="-54.9" font-family="Arial" font-size="12.00">frequency:</text>
<text text-anchor="middle" x="36.5" y="-41.9" font-family="Arial" font-size="12.00">440.0</text>
<polyline fill="none" stroke="black" stroke-width="2" points="0,-34.5 73,-34.5 "/>
<text text-anchor="middle" x="36.5" y="-20.9" font-family="Arial" font-size="12.00">phase:</text>
<text text-anchor="middle" x="36.5" y="-7.9" font-family="Arial" font-size="12.00">0.0</text>
<polyline fill="none" stroke="black" stroke-width="2" points="73,-0.5 73,-68.5 "/>
<text text-anchor="middle" x="84.5" y="-31.4" font-family="Arial" font-size="12.00">0</text>
</g>
<!-- ugen_1 -->
<g id="node2" class="node">
<title>ugen_1</title>
<path fill="#bcd2ee" stroke="black" stroke-width="2" d="M180,-24.5C180,-24.5 276,-24.5 276,-24.5 282,-24.5 288,-30.5 288,-36.5 288,-36.5 288,-114.5 288,-114.5 288,-120.5 282,-126.5 276,-126.5 276,-126.5 180,-126.5 180,-126.5 174,-126.5 168,-120.5 168,-114.5 168,-114.5 168,-36.5 168,-36.5 168,-30.5 174,-24.5 180,-24.5"/>
<text text-anchor="middle" x="228" y="-112.9" font-family="Arial" font-size="12.00">BinaryOpUGen</text>
<text text-anchor="middle" x="228" y="-99.9" font-family="Arial" font-size="12.00">[FLOAT_DIVISION]</text>
<text text-anchor="middle" x="228" y="-86.9" font-family="Arial" font-size="12.00">(audio)</text>
<polyline fill="none" stroke="black" stroke-width="2" points="168,-79.5 288,-79.5 "/>
<text text-anchor="middle" x="204" y="-65.9" font-family="Arial" font-size="12.00">left:</text>
<text text-anchor="middle" x="204" y="-52.9" font-family="Arial" font-size="12.00">220.0</text>
<polyline fill="none" stroke="black" stroke-width="2" points="168,-45.5 240,-45.5 "/>
<text text-anchor="middle" x="204" y="-31.9" font-family="Arial" font-size="12.00">right</text>
<polyline fill="none" stroke="black" stroke-width="2" points="240,-24.5 240,-79.5 "/>
<text text-anchor="middle" x="264" y="-48.9" font-family="Arial" font-size="12.00">0</text>
</g>
<!-- ugen_2 -->
<g id="node3" class="node">
<title>ugen_2</title>
<path fill="#bcd2ee" stroke="black" stroke-width="2" d="M12,-121.5C12,-121.5 84,-121.5 84,-121.5 90,-121.5 96,-127.5 96,-133.5 96,-133.5 96,-211.5 96,-211.5 96,-217.5 90,-223.5 84,-223.5 84,-223.5 12,-223.5 12,-223.5 6,-223.5 0,-217.5 0,-211.5 0,-211.5 0,-133.5 0,-133.5 0,-127.5 6,-121.5 12,-121.5"/>
<text text-anchor="middle" x="48" y="-209.9" font-family="Arial" font-size="12.00">SinOsc</text>
<text text-anchor="middle" x="48" y="-196.9" font-family="Arial" font-size="12.00">(audio)</text>
<polyline fill="none" stroke="black" stroke-width="2" points="0,-189.5 96,-189.5 "/>
<text text-anchor="middle" x="36.5" y="-175.9" font-family="Arial" font-size="12.00">frequency:</text>
<text text-anchor="middle" x="36.5" y="-162.9" font-family="Arial" font-size="12.00">442.0</text>
<polyline fill="none" stroke="black" stroke-width="2" points="0,-155.5 73,-155.5 "/>
<text text-anchor="middle" x="36.5" y="-141.9" font-family="Arial" font-size="12.00">phase:</text>
<text text-anchor="middle" x="36.5" y="-128.9" font-family="Arial" font-size="12.00">0.0</text>
<polyline fill="none" stroke="black" stroke-width="2" points="73,-121.5 73,-189.5 "/>
<text text-anchor="middle" x="84.5" y="-152.4" font-family="Arial" font-size="12.00">0</text>
</g>
<!-- ugen_3 -->
<g id="node4" class="node">
<title>ugen_3</title>
<path fill="#bcd2ee" stroke="black" stroke-width="2" d="M180,-145.5C180,-145.5 276,-145.5 276,-145.5 282,-145.5 288,-151.5 288,-157.5 288,-157.5 288,-235.5 288,-235.5 288,-241.5 282,-247.5 276,-247.5 276,-247.5 180,-247.5 180,-247.5 174,-247.5 168,-241.5 168,-235.5 168,-235.5 168,-157.5 168,-157.5 168,-151.5 174,-145.5 180,-145.5"/>
<text text-anchor="middle" x="228" y="-233.9" font-family="Arial" font-size="12.00">BinaryOpUGen</text>
<text text-anchor="middle" x="228" y="-220.9" font-family="Arial" font-size="12.00">[FLOAT_DIVISION]</text>
<text text-anchor="middle" x="228" y="-207.9" font-family="Arial" font-size="12.00">(audio)</text>
<polyline fill="none" stroke="black" stroke-width="2" points="168,-200.5 288,-200.5 "/>
<text text-anchor="middle" x="204" y="-186.9" font-family="Arial" font-size="12.00">left:</text>
<text text-anchor="middle" x="204" y="-173.9" font-family="Arial" font-size="12.00">330.0</text>
<polyline fill="none" stroke="black" stroke-width="2" points="168,-166.5 240,-166.5 "/>
<text text-anchor="middle" x="204" y="-152.9" font-family="Arial" font-size="12.00">right</text>
<polyline fill="none" stroke="black" stroke-width="2" points="240,-145.5 240,-200.5 "/>
<text text-anchor="middle" x="264" y="-169.9" font-family="Arial" font-size="12.00">0</text>
</g>
<!-- ugen_4 -->
<g id="node5" class="node">
<title>ugen_4</title>
<path fill="#bcd2ee" stroke="black" stroke-width="2" d="M12,-242.5C12,-242.5 84,-242.5 84,-242.5 90,-242.5 96,-248.5 96,-254.5 96,-254.5 96,-332.5 96,-332.5 96,-338.5 90,-344.5 84,-344.5 84,-344.5 12,-344.5 12,-344.5 6,-344.5 0,-338.5 0,-332.5 0,-332.5 0,-254.5 0,-254.5 0,-248.5 6,-242.5 12,-242.5"/>
<text text-anchor="middle" x="48" y="-330.9" font-family="Arial" font-size="12.00">SinOsc</text>
<text text-anchor="middle" x="48" y="-317.9" font-family="Arial" font-size="12.00">(audio)</text>
<polyline fill="none" stroke="black" stroke-width="2" points="0,-310.5 96,-310.5 "/>
<text text-anchor="middle" x="36.5" y="-296.9" font-family="Arial" font-size="12.00">frequency:</text>
<text text-anchor="middle" x="36.5" y="-283.9" font-family="Arial" font-size="12.00">443.0</text>
<polyline fill="none" stroke="black" stroke-width="2" points="0,-276.5 73,-276.5 "/>
<text text-anchor="middle" x="36.5" y="-262.9" font-family="Arial" font-size="12.00">phase:</text>
<text text-anchor="middle" x="36.5" y="-249.9" font-family="Arial" font-size="12.00">0.0</text>
<polyline fill="none" stroke="black" stroke-width="2" points="73,-242.5 73,-310.5 "/>
<text text-anchor="middle" x="84.5" y="-273.4" font-family="Arial" font-size="12.00">0</text>
</g>
<!-- ugen_5 -->
<g id="node6" class="node">
<title>ugen_5</title>
<path fill="#bcd2ee" stroke="black" stroke-width="2" d="M180,-266.5C180,-266.5 276,-266.5 276,-266.5 282,-266.5 288,-272.5 288,-278.5 288,-278.5 288,-356.5 288,-356.5 288,-362.5 282,-368.5 276,-368.5 276,-368.5 180,-368.5 180,-368.5 174,-368.5 168,-362.5 168,-356.5 168,-356.5 168,-278.5 168,-278.5 168,-272.5 174,-266.5 180,-266.5"/>
<text text-anchor="middle" x="228" y="-354.9" font-family="Arial" font-size="12.00">BinaryOpUGen</text>
<text text-anchor="middle" x="228" y="-341.9" font-family="Arial" font-size="12.00">[FLOAT_DIVISION]</text>
<text text-anchor="middle" x="228" y="-328.9" font-family="Arial" font-size="12.00">(audio)</text>
<polyline fill="none" stroke="black" stroke-width="2" points="168,-321.5 288,-321.5 "/>
<text text-anchor="middle" x="204" y="-307.9" font-family="Arial" font-size="12.00">left:</text>
<text text-anchor="middle" x="204" y="-294.9" font-family="Arial" font-size="12.00">220.0</text>
<polyline fill="none" stroke="black" stroke-width="2" points="168,-287.5 240,-287.5 "/>
<text text-anchor="middle" x="204" y="-273.9" font-family="Arial" font-size="12.00">right</text>
<polyline fill="none" stroke="black" stroke-width="2" points="240,-266.5 240,-321.5 "/>
<text text-anchor="middle" x="264" y="-290.9" font-family="Arial" font-size="12.00">0</text>
</g>
</g>
</svg>
