<?xml version="1.0" encoding="UTF-8" standalone="no"?>
<!DOCTYPE svg PUBLIC "-//W3C//DTD SVG 1.1//EN"
 "http://www.w3.org/Graphics/SVG/1.1/DTD/svg11.dtd">
<!-- Generated by graphviz version 2.40.1 (20161225.0304)
 -->
<!-- Title: synthdef_0eeea16179e4d9b4441b878fd108af92 Pages: 1 -->
<svg width="526pt" height="605pt"
 viewBox="0.00 0.00 526.00 605.00" xmlns="http://www.w3.org/2000/svg" xmlns:xlink="http://www.w3.org/1999/xlink">
<g id="graph0" class="graph" transform="scale(1 1) rotate(0) translate(4 601)">
<title>synthdef_0eeea16179e4d9b4441b878fd108af92</title>
<!-- ugen_0&#45;&gt;ugen_2 -->
<g id="edge1" class="edge">
<title>ugen_0:e&#45;&gt;ugen_2:w</title>
<path fill="none" stroke="#4682b4" stroke-width="2" d="M81,-528.5C109.375,-528.5 118.8795,-528.5 142.9792,-528.5"/>
<polygon fill="#4682b4" stroke="#4682b4" stroke-width="2" points="143,-532.0001 153,-528.5 143,-525.0001 143,-532.0001"/>
</g>
<!-- ugen_1&#45;&gt;ugen_2 -->
<g id="edge2" class="edge">
<title>ugen_1:e&#45;&gt;ugen_2:w</title>
<path fill="none" stroke="#daa520" stroke-width="2" d="M81,-271.5C187.0205,-271.5 52.8382,-492.0883 142.9078,-506.7367"/>
<polygon fill="#daa520" stroke="#daa520" stroke-width="2" points="142.7645,-510.2358 153,-507.5 143.2925,-503.2557 142.7645,-510.2358"/>
</g>
<!-- ugen_1&#45;&gt;ugen_4 -->
<g id="edge3" class="edge">
<title>ugen_1:e&#45;&gt;ugen_4:w</title>
<path fill="none" stroke="#daa520" stroke-width="2" d="M81,-271.5C113.6968,-271.5 116.3832,-302.9804 142.9841,-309.3749"/>
<polygon fill="#daa520" stroke="#daa520" stroke-width="2" points="142.6718,-312.8617 153,-310.5 143.4533,-305.9055 142.6718,-312.8617"/>
</g>
<!-- ugen_1&#45;&gt;ugen_6 -->
<g id="edge4" class="edge">
<title>ugen_1:e&#45;&gt;ugen_6:w</title>
<path fill="none" stroke="#daa520" stroke-width="2" d="M81,-271.5C154.4016,-271.5 83.491,-128.553 142.7996,-114.5933"/>
<polygon fill="#daa520" stroke="#daa520" stroke-width="2" points="143.43,-118.0459 153,-113.5 142.6839,-111.0858 143.43,-118.0459"/>
</g>
<!-- ugen_10&#45;&gt;ugen_11 -->
<g id="edge5" class="edge">
<title>ugen_10:e&#45;&gt;ugen_11:w</title>
<path fill="none" stroke="#4682b4" stroke-width="2" d="M392,-95.5C459.0287,-95.5 400.1819,-222.9183 453.9347,-236.357"/>
<polygon fill="#4682b4" stroke="#4682b4" stroke-width="2" points="453.6689,-239.8492 464,-237.5 454.4588,-232.8939 453.6689,-239.8492"/>
</g>
<!-- ugen_2&#45;&gt;ugen_10 -->
<g id="edge9" class="edge">
<title>ugen_2:e&#45;&gt;ugen_10:w</title>
<path fill="none" stroke="#4682b4" stroke-width="2" d="M236,-412.5C367.8216,-412.5 182.8588,-131.9036 297.9751,-117.1065"/>
<polygon fill="#4682b4" stroke="#4682b4" stroke-width="2" points="298.2296,-120.5976 308,-116.5 297.8069,-113.6104 298.2296,-120.5976"/>
</g>
<!-- ugen_2&#45;&gt;ugen_7 -->
<g id="edge6" class="edge">
<title>ugen_2:e&#45;&gt;ugen_7:w</title>
<path fill="none" stroke="#4682b4" stroke-width="2" d="M236,-520.5C272.739,-520.5 268.7267,-474.5078 297.8248,-465.8843"/>
<polygon fill="#4682b4" stroke="#4682b4" stroke-width="2" points="298.5631,-469.3162 308,-464.5 297.6194,-462.3801 298.5631,-469.3162"/>
</g>
<!-- ugen_2&#45;&gt;ugen_8 -->
<g id="edge7" class="edge">
<title>ugen_2:e&#45;&gt;ugen_8:w</title>
<path fill="none" stroke="#4682b4" stroke-width="2" d="M236,-484.5C300.6523,-484.5 246.2951,-362.9683 297.9307,-349.6757"/>
<polygon fill="#4682b4" stroke="#4682b4" stroke-width="2" points="298.4734,-353.1362 308,-348.5 297.6615,-346.1835 298.4734,-353.1362"/>
</g>
<!-- ugen_2&#45;&gt;ugen_9 -->
<g id="edge8" class="edge">
<title>ugen_2:e&#45;&gt;ugen_9:w</title>
<path fill="none" stroke="#4682b4" stroke-width="2" d="M236,-448.5C333.4377,-448.5 216.1653,-248.2338 297.6674,-233.3703"/>
<polygon fill="#4682b4" stroke="#4682b4" stroke-width="2" points="298.3291,-236.827 308,-232.5 297.7415,-229.8517 298.3291,-236.827"/>
</g>
<!-- ugen_3&#45;&gt;ugen_4 -->
<g id="edge10" class="edge">
<title>ugen_3:e&#45;&gt;ugen_4:w</title>
<path fill="none" stroke="#4682b4" stroke-width="2" d="M81,-375.5C114.6934,-375.5 115.6902,-339.9836 142.7421,-332.7694"/>
<polygon fill="#4682b4" stroke="#4682b4" stroke-width="2" points="143.5056,-336.2017 153,-331.5 142.6458,-329.2547 143.5056,-336.2017"/>
</g>
<!-- ugen_4&#45;&gt;ugen_10 -->
<g id="edge14" class="edge">
<title>ugen_4:e&#45;&gt;ugen_10:w</title>
<path fill="none" stroke="#4682b4" stroke-width="2" d="M236,-215.5C294.431,-215.5 251.7276,-109.5913 297.9119,-96.7665"/>
<polygon fill="#4682b4" stroke="#4682b4" stroke-width="2" points="298.5139,-100.2185 308,-95.5 297.6419,-93.273 298.5139,-100.2185"/>
</g>
<!-- ugen_4&#45;&gt;ugen_7 -->
<g id="edge11" class="edge">
<title>ugen_4:e&#45;&gt;ugen_7:w</title>
<path fill="none" stroke="#4682b4" stroke-width="2" d="M236,-323.5C294.431,-323.5 251.7276,-429.4087 297.9119,-442.2335"/>
<polygon fill="#4682b4" stroke="#4682b4" stroke-width="2" points="297.6419,-445.727 308,-443.5 298.5139,-438.7815 297.6419,-445.727"/>
</g>
<!-- ugen_4&#45;&gt;ugen_8 -->
<g id="edge12" class="edge">
<title>ugen_4:e&#45;&gt;ugen_8:w</title>
<path fill="none" stroke="#4682b4" stroke-width="2" d="M236,-287.5C268.8888,-287.5 271.2497,-319.7876 297.9375,-326.346"/>
<polygon fill="#4682b4" stroke="#4682b4" stroke-width="2" points="297.6663,-329.8378 308,-327.5 298.4639,-322.8834 297.6663,-329.8378"/>
</g>
<!-- ugen_4&#45;&gt;ugen_9 -->
<g id="edge13" class="edge">
<title>ugen_4:e&#45;&gt;ugen_9:w</title>
<path fill="none" stroke="#4682b4" stroke-width="2" d="M236,-251.5C268.8888,-251.5 271.2497,-219.2124 297.9375,-212.654"/>
<polygon fill="#4682b4" stroke="#4682b4" stroke-width="2" points="298.4639,-216.1166 308,-211.5 297.6663,-209.1622 298.4639,-216.1166"/>
</g>
<!-- ugen_5&#45;&gt;ugen_6 -->
<g id="edge15" class="edge">
<title>ugen_5:e&#45;&gt;ugen_6:w</title>
<path fill="none" stroke="#4682b4" stroke-width="2" d="M81,-134.5C109.375,-134.5 118.8795,-134.5 142.9792,-134.5"/>
<polygon fill="#4682b4" stroke="#4682b4" stroke-width="2" points="143,-138.0001 153,-134.5 143,-131.0001 143,-138.0001"/>
</g>
<!-- ugen_6&#45;&gt;ugen_10 -->
<g id="edge19" class="edge">
<title>ugen_6:e&#45;&gt;ugen_10:w</title>
<path fill="none" stroke="#4682b4" stroke-width="2" d="M236,-18.5C272.739,-18.5 268.7267,-64.4922 297.8248,-73.1157"/>
<polygon fill="#4682b4" stroke="#4682b4" stroke-width="2" points="297.6194,-76.6199 308,-74.5 298.5631,-69.6838 297.6194,-76.6199"/>
</g>
<!-- ugen_6&#45;&gt;ugen_7 -->
<g id="edge16" class="edge">
<title>ugen_6:e&#45;&gt;ugen_7:w</title>
<path fill="none" stroke="#4682b4" stroke-width="2" d="M236,-126.5C367.8216,-126.5 182.8588,-407.0964 297.9751,-421.8935"/>
<polygon fill="#4682b4" stroke="#4682b4" stroke-width="2" points="297.8069,-425.3896 308,-422.5 298.2296,-418.4024 297.8069,-425.3896"/>
</g>
<!-- ugen_6&#45;&gt;ugen_8 -->
<g id="edge17" class="edge">
<title>ugen_6:e&#45;&gt;ugen_8:w</title>
<path fill="none" stroke="#4682b4" stroke-width="2" d="M236,-90.5C333.4377,-90.5 216.1653,-290.7662 297.6674,-305.6297"/>
<polygon fill="#4682b4" stroke="#4682b4" stroke-width="2" points="297.7415,-309.1483 308,-306.5 298.3291,-302.173 297.7415,-309.1483"/>
</g>
<!-- ugen_6&#45;&gt;ugen_9 -->
<g id="edge18" class="edge">
<title>ugen_6:e&#45;&gt;ugen_9:w</title>
<path fill="none" stroke="#4682b4" stroke-width="2" d="M236,-54.5C300.6523,-54.5 246.2951,-176.0317 297.9307,-189.3243"/>
<polygon fill="#4682b4" stroke="#4682b4" stroke-width="2" points="297.6615,-192.8165 308,-190.5 298.4734,-185.8638 297.6615,-192.8165"/>
</g>
<!-- ugen_7&#45;&gt;ugen_11 -->
<g id="edge20" class="edge">
<title>ugen_7:e&#45;&gt;ugen_11:w</title>
<path fill="none" stroke="#4682b4" stroke-width="2" d="M392,-443.5C459.4045,-443.5 399.8656,-315.1844 453.8815,-301.6511"/>
<polygon fill="#4682b4" stroke="#4682b4" stroke-width="2" points="454.4597,-305.108 464,-300.5 453.6684,-298.1528 454.4597,-305.108"/>
</g>
<!-- ugen_8&#45;&gt;ugen_11 -->
<g id="edge21" class="edge">
<title>ugen_8:e&#45;&gt;ugen_11:w</title>
<path fill="none" stroke="#4682b4" stroke-width="2" d="M392,-327.5C426.7034,-327.5 426.0877,-288.4172 453.8929,-280.7839"/>
<polygon fill="#4682b4" stroke="#4682b4" stroke-width="2" points="454.5208,-284.2323 464,-279.5 453.6386,-277.2881 454.5208,-284.2323"/>
</g>
<!-- ugen_9&#45;&gt;ugen_11 -->
<g id="edge22" class="edge">
<title>ugen_9:e&#45;&gt;ugen_11:w</title>
<path fill="none" stroke="#4682b4" stroke-width="2" d="M392,-211.5C426.4826,-211.5 426.2439,-249.7685 453.945,-257.2429"/>
<polygon fill="#4682b4" stroke="#4682b4" stroke-width="2" points="453.643,-260.7323 464,-258.5 454.5115,-253.7864 453.643,-260.7323"/>
</g>
<!-- ugen_0 -->
<g id="node1" class="node">
<title>ugen_0</title>
<path fill="#bcd2ee" stroke="#000000" stroke-width="2" d="M12,-494.5C12,-494.5 69,-494.5 69,-494.5 75,-494.5 81,-500.5 81,-506.5 81,-506.5 81,-584.5 81,-584.5 81,-590.5 75,-596.5 69,-596.5 69,-596.5 12,-596.5 12,-596.5 6,-596.5 0,-590.5 0,-584.5 0,-584.5 0,-506.5 0,-506.5 0,-500.5 6,-494.5 12,-494.5"/>
<text text-anchor="middle" x="40.5" y="-582.9" font-family="Arial" font-size="12.00" fill="#000000">SinOsc</text>
<text text-anchor="middle" x="40.5" y="-569.9" font-family="Arial" font-size="12.00" fill="#000000">(audio)</text>
<polyline fill="none" stroke="#000000" stroke-width="2" points="0,-562.5 81,-562.5 "/>
<text text-anchor="middle" x="29.5" y="-548.9" font-family="Arial" font-size="12.00" fill="#000000">frequency:</text>
<text text-anchor="middle" x="29.5" y="-535.9" font-family="Arial" font-size="12.00" fill="#000000">440.0</text>
<polyline fill="none" stroke="#000000" stroke-width="2" points="0,-528.5 59,-528.5 "/>
<text text-anchor="middle" x="29.5" y="-514.9" font-family="Arial" font-size="12.00" fill="#000000">phase:</text>
<text text-anchor="middle" x="29.5" y="-501.9" font-family="Arial" font-size="12.00" fill="#000000">0.0</text>
<polyline fill="none" stroke="#000000" stroke-width="2" points="59,-494.5 59,-562.5 "/>
<text text-anchor="middle" x="70" y="-525.4" font-family="Arial" font-size="12.00" fill="#000000">0</text>
</g>
<!-- ugen_1 -->
<g id="node2" class="node">
<title>ugen_1</title>
<path fill="#eedc82" stroke="#000000" stroke-width="2" d="M12,-254.5C12,-254.5 69,-254.5 69,-254.5 75,-254.5 81,-260.5 81,-266.5 81,-266.5 81,-310.5 81,-310.5 81,-316.5 75,-322.5 69,-322.5 69,-322.5 12,-322.5 12,-322.5 6,-322.5 0,-316.5 0,-310.5 0,-310.5 0,-266.5 0,-266.5 0,-260.5 6,-254.5 12,-254.5"/>
<text text-anchor="middle" x="40.5" y="-308.9" font-family="Arial" font-size="12.00" fill="#000000">LFNoise2</text>
<text text-anchor="middle" x="40.5" y="-295.9" font-family="Arial" font-size="12.00" fill="#000000">(control)</text>
<polyline fill="none" stroke="#000000" stroke-width="2" points="0,-288.5 81,-288.5 "/>
<text text-anchor="middle" x="29.5" y="-274.9" font-family="Arial" font-size="12.00" fill="#000000">frequency:</text>
<text text-anchor="middle" x="29.5" y="-261.9" font-family="Arial" font-size="12.00" fill="#000000">500.0</text>
<polyline fill="none" stroke="#000000" stroke-width="2" points="59,-254.5 59,-288.5 "/>
<text text-anchor="middle" x="70" y="-268.4" font-family="Arial" font-size="12.00" fill="#000000">0</text>
</g>
<!-- ugen_10 -->
<g id="node3" class="node">
<title>ugen_10</title>
<path fill="#bcd2ee" stroke="#000000" stroke-width="2" d="M320,-64C320,-64 380,-64 380,-64 386,-64 392,-70 392,-76 392,-76 392,-149 392,-149 392,-155 386,-161 380,-161 380,-161 320,-161 320,-161 314,-161 308,-155 308,-149 308,-149 308,-76 308,-76 308,-70 314,-64 320,-64"/>
<text text-anchor="middle" x="350" y="-147.4" font-family="Arial" font-size="12.00" fill="#000000">Sum3</text>
<text text-anchor="middle" x="350" y="-134.4" font-family="Arial" font-size="12.00" fill="#000000">(audio)</text>
<polyline fill="none" stroke="#000000" stroke-width="2" points="308,-127 392,-127 "/>
<text text-anchor="middle" x="339" y="-113.4" font-family="Arial" font-size="12.00" fill="#000000">input_one</text>
<polyline fill="none" stroke="#000000" stroke-width="2" points="308,-106 370,-106 "/>
<text text-anchor="middle" x="339" y="-92.4" font-family="Arial" font-size="12.00" fill="#000000">input_two</text>
<polyline fill="none" stroke="#000000" stroke-width="2" points="308,-85 370,-85 "/>
<text text-anchor="middle" x="339" y="-71.4" font-family="Arial" font-size="12.00" fill="#000000">input_three</text>
<polyline fill="none" stroke="#000000" stroke-width="2" points="370,-64 370,-127 "/>
<text text-anchor="middle" x="381" y="-92.4" font-family="Arial" font-size="12.00" fill="#000000">0</text>
</g>
<!-- ugen_11 -->
<g id="node4" class="node">
<title>ugen_11</title>
<path fill="#bcd2ee" stroke="#000000" stroke-width="2" d="M476,-227.5C476,-227.5 506,-227.5 506,-227.5 512,-227.5 518,-233.5 518,-239.5 518,-239.5 518,-367.5 518,-367.5 518,-373.5 512,-379.5 506,-379.5 506,-379.5 476,-379.5 476,-379.5 470,-379.5 464,-373.5 464,-367.5 464,-367.5 464,-239.5 464,-239.5 464,-233.5 470,-227.5 476,-227.5"/>
<text text-anchor="middle" x="491" y="-365.9" font-family="Arial" font-size="12.00" fill="#000000">Out</text>
<text text-anchor="middle" x="491" y="-352.9" font-family="Arial" font-size="12.00" fill="#000000">(audio)</text>
<polyline fill="none" stroke="#000000" stroke-width="2" points="464,-345.5 518,-345.5 "/>
<text text-anchor="middle" x="491" y="-331.9" font-family="Arial" font-size="12.00" fill="#000000">bus:</text>
<text text-anchor="middle" x="491" y="-318.9" font-family="Arial" font-size="12.00" fill="#000000">0.0</text>
<polyline fill="none" stroke="#000000" stroke-width="2" points="464,-311.5 518,-311.5 "/>
<text text-anchor="middle" x="491" y="-297.9" font-family="Arial" font-size="12.00" fill="#000000">source</text>
<polyline fill="none" stroke="#000000" stroke-width="2" points="464,-290.5 518,-290.5 "/>
<text text-anchor="middle" x="491" y="-276.9" font-family="Arial" font-size="12.00" fill="#000000"> </text>
<polyline fill="none" stroke="#000000" stroke-width="2" points="464,-269.5 518,-269.5 "/>
<text text-anchor="middle" x="491" y="-255.9" font-family="Arial" font-size="12.00" fill="#000000"> </text>
<polyline fill="none" stroke="#000000" stroke-width="2" points="464,-248.5 518,-248.5 "/>
<text text-anchor="middle" x="491" y="-234.9" font-family="Arial" font-size="12.00" fill="#000000"> </text>
</g>
<!-- ugen_2 -->
<g id="node5" class="node">
<title>ugen_2</title>
<path fill="#bcd2ee" stroke="#000000" stroke-width="2" d="M165,-394.5C165,-394.5 224,-394.5 224,-394.5 230,-394.5 236,-400.5 236,-406.5 236,-406.5 236,-560.5 236,-560.5 236,-566.5 230,-572.5 224,-572.5 224,-572.5 165,-572.5 165,-572.5 159,-572.5 153,-566.5 153,-560.5 153,-560.5 153,-406.5 153,-406.5 153,-400.5 159,-394.5 165,-394.5"/>
<text text-anchor="middle" x="194.5" y="-558.9" font-family="Arial" font-size="12.00" fill="#000000">PanAz</text>
<text text-anchor="middle" x="194.5" y="-545.9" font-family="Arial" font-size="12.00" fill="#000000">(audio)</text>
<polyline fill="none" stroke="#000000" stroke-width="2" points="153,-538.5 236,-538.5 "/>
<text text-anchor="middle" x="183.5" y="-524.9" font-family="Arial" font-size="12.00" fill="#000000">source</text>
<polyline fill="none" stroke="#000000" stroke-width="2" points="153,-517.5 214,-517.5 "/>
<text text-anchor="middle" x="183.5" y="-503.9" font-family="Arial" font-size="12.00" fill="#000000">position</text>
<polyline fill="none" stroke="#000000" stroke-width="2" points="153,-496.5 214,-496.5 "/>
<text text-anchor="middle" x="183.5" y="-482.9" font-family="Arial" font-size="12.00" fill="#000000">amplitude:</text>
<text text-anchor="middle" x="183.5" y="-469.9" font-family="Arial" font-size="12.00" fill="#000000">1.0</text>
<polyline fill="none" stroke="#000000" stroke-width="2" points="153,-462.5 214,-462.5 "/>
<text text-anchor="middle" x="183.5" y="-448.9" font-family="Arial" font-size="12.00" fill="#000000">width:</text>
<text text-anchor="middle" x="183.5" y="-435.9" font-family="Arial" font-size="12.00" fill="#000000">2.0</text>
<polyline fill="none" stroke="#000000" stroke-width="2" points="153,-428.5 214,-428.5 "/>
<text text-anchor="middle" x="183.5" y="-414.9" font-family="Arial" font-size="12.00" fill="#000000">orientation:</text>
<text text-anchor="middle" x="183.5" y="-401.9" font-family="Arial" font-size="12.00" fill="#000000">0.5</text>
<polyline fill="none" stroke="#000000" stroke-width="2" points="214,-394.5 214,-538.5 "/>
<text text-anchor="middle" x="225" y="-517.4" font-family="Arial" font-size="12.00" fill="#000000">0</text>
<polyline fill="none" stroke="#000000" stroke-width="2" points="214,-502.5 236,-502.5 "/>
<text text-anchor="middle" x="225" y="-481.4" font-family="Arial" font-size="12.00" fill="#000000">1</text>
<polyline fill="none" stroke="#000000" stroke-width="2" points="214,-466.5 236,-466.5 "/>
<text text-anchor="middle" x="225" y="-445.4" font-family="Arial" font-size="12.00" fill="#000000">2</text>
<polyline fill="none" stroke="#000000" stroke-width="2" points="214,-430.5 236,-430.5 "/>
<text text-anchor="middle" x="225" y="-409.4" font-family="Arial" font-size="12.00" fill="#000000">3</text>
</g>
<!-- ugen_3 -->
<g id="node6" class="node">
<title>ugen_3</title>
<path fill="#bcd2ee" stroke="#000000" stroke-width="2" d="M12,-341.5C12,-341.5 69,-341.5 69,-341.5 75,-341.5 81,-347.5 81,-353.5 81,-353.5 81,-431.5 81,-431.5 81,-437.5 75,-443.5 69,-443.5 69,-443.5 12,-443.5 12,-443.5 6,-443.5 0,-437.5 0,-431.5 0,-431.5 0,-353.5 0,-353.5 0,-347.5 6,-341.5 12,-341.5"/>
<text text-anchor="middle" x="40.5" y="-429.9" font-family="Arial" font-size="12.00" fill="#000000">SinOsc</text>
<text text-anchor="middle" x="40.5" y="-416.9" font-family="Arial" font-size="12.00" fill="#000000">(audio)</text>
<polyline fill="none" stroke="#000000" stroke-width="2" points="0,-409.5 81,-409.5 "/>
<text text-anchor="middle" x="29.5" y="-395.9" font-family="Arial" font-size="12.00" fill="#000000">frequency:</text>
<text text-anchor="middle" x="29.5" y="-382.9" font-family="Arial" font-size="12.00" fill="#000000">660.0</text>
<polyline fill="none" stroke="#000000" stroke-width="2" points="0,-375.5 59,-375.5 "/>
<text text-anchor="middle" x="29.5" y="-361.9" font-family="Arial" font-size="12.00" fill="#000000">phase:</text>
<text text-anchor="middle" x="29.5" y="-348.9" font-family="Arial" font-size="12.00" fill="#000000">0.0</text>
<polyline fill="none" stroke="#000000" stroke-width="2" points="59,-341.5 59,-409.5 "/>
<text text-anchor="middle" x="70" y="-372.4" font-family="Arial" font-size="12.00" fill="#000000">0</text>
</g>
<!-- ugen_4 -->
<g id="node7" class="node">
<title>ugen_4</title>
<path fill="#bcd2ee" stroke="#000000" stroke-width="2" d="M165,-197.5C165,-197.5 224,-197.5 224,-197.5 230,-197.5 236,-203.5 236,-209.5 236,-209.5 236,-363.5 236,-363.5 236,-369.5 230,-375.5 224,-375.5 224,-375.5 165,-375.5 165,-375.5 159,-375.5 153,-369.5 153,-363.5 153,-363.5 153,-209.5 153,-209.5 153,-203.5 159,-197.5 165,-197.5"/>
<text text-anchor="middle" x="194.5" y="-361.9" font-family="Arial" font-size="12.00" fill="#000000">PanAz</text>
<text text-anchor="middle" x="194.5" y="-348.9" font-family="Arial" font-size="12.00" fill="#000000">(audio)</text>
<polyline fill="none" stroke="#000000" stroke-width="2" points="153,-341.5 236,-341.5 "/>
<text text-anchor="middle" x="183.5" y="-327.9" font-family="Arial" font-size="12.00" fill="#000000">source</text>
<polyline fill="none" stroke="#000000" stroke-width="2" points="153,-320.5 214,-320.5 "/>
<text text-anchor="middle" x="183.5" y="-306.9" font-family="Arial" font-size="12.00" fill="#000000">position</text>
<polyline fill="none" stroke="#000000" stroke-width="2" points="153,-299.5 214,-299.5 "/>
<text text-anchor="middle" x="183.5" y="-285.9" font-family="Arial" font-size="12.00" fill="#000000">amplitude:</text>
<text text-anchor="middle" x="183.5" y="-272.9" font-family="Arial" font-size="12.00" fill="#000000">1.0</text>
<polyline fill="none" stroke="#000000" stroke-width="2" points="153,-265.5 214,-265.5 "/>
<text text-anchor="middle" x="183.5" y="-251.9" font-family="Arial" font-size="12.00" fill="#000000">width:</text>
<text text-anchor="middle" x="183.5" y="-238.9" font-family="Arial" font-size="12.00" fill="#000000">2.0</text>
<polyline fill="none" stroke="#000000" stroke-width="2" points="153,-231.5 214,-231.5 "/>
<text text-anchor="middle" x="183.5" y="-217.9" font-family="Arial" font-size="12.00" fill="#000000">orientation:</text>
<text text-anchor="middle" x="183.5" y="-204.9" font-family="Arial" font-size="12.00" fill="#000000">0.5</text>
<polyline fill="none" stroke="#000000" stroke-width="2" points="214,-197.5 214,-341.5 "/>
<text text-anchor="middle" x="225" y="-320.4" font-family="Arial" font-size="12.00" fill="#000000">0</text>
<polyline fill="none" stroke="#000000" stroke-width="2" points="214,-305.5 236,-305.5 "/>
<text text-anchor="middle" x="225" y="-284.4" font-family="Arial" font-size="12.00" fill="#000000">1</text>
<polyline fill="none" stroke="#000000" stroke-width="2" points="214,-269.5 236,-269.5 "/>
<text text-anchor="middle" x="225" y="-248.4" font-family="Arial" font-size="12.00" fill="#000000">2</text>
<polyline fill="none" stroke="#000000" stroke-width="2" points="214,-233.5 236,-233.5 "/>
<text text-anchor="middle" x="225" y="-212.4" font-family="Arial" font-size="12.00" fill="#000000">3</text>
</g>
<!-- ugen_5 -->
<g id="node8" class="node">
<title>ugen_5</title>
<path fill="#bcd2ee" stroke="#000000" stroke-width="2" d="M12,-100.5C12,-100.5 69,-100.5 69,-100.5 75,-100.5 81,-106.5 81,-112.5 81,-112.5 81,-190.5 81,-190.5 81,-196.5 75,-202.5 69,-202.5 69,-202.5 12,-202.5 12,-202.5 6,-202.5 0,-196.5 0,-190.5 0,-190.5 0,-112.5 0,-112.5 0,-106.5 6,-100.5 12,-100.5"/>
<text text-anchor="middle" x="40.5" y="-188.9" font-family="Arial" font-size="12.00" fill="#000000">SinOsc</text>
<text text-anchor="middle" x="40.5" y="-175.9" font-family="Arial" font-size="12.00" fill="#000000">(audio)</text>
<polyline fill="none" stroke="#000000" stroke-width="2" points="0,-168.5 81,-168.5 "/>
<text text-anchor="middle" x="29.5" y="-154.9" font-family="Arial" font-size="12.00" fill="#000000">frequency:</text>
<text text-anchor="middle" x="29.5" y="-141.9" font-family="Arial" font-size="12.00" fill="#000000">880.0</text>
<polyline fill="none" stroke="#000000" stroke-width="2" points="0,-134.5 59,-134.5 "/>
<text text-anchor="middle" x="29.5" y="-120.9" font-family="Arial" font-size="12.00" fill="#000000">phase:</text>
<text text-anchor="middle" x="29.5" y="-107.9" font-family="Arial" font-size="12.00" fill="#000000">0.0</text>
<polyline fill="none" stroke="#000000" stroke-width="2" points="59,-100.5 59,-168.5 "/>
<text text-anchor="middle" x="70" y="-131.4" font-family="Arial" font-size="12.00" fill="#000000">0</text>
</g>
<!-- ugen_6 -->
<g id="node9" class="node">
<title>ugen_6</title>
<path fill="#bcd2ee" stroke="#000000" stroke-width="2" d="M165,-.5C165,-.5 224,-.5 224,-.5 230,-.5 236,-6.5 236,-12.5 236,-12.5 236,-166.5 236,-166.5 236,-172.5 230,-178.5 224,-178.5 224,-178.5 165,-178.5 165,-178.5 159,-178.5 153,-172.5 153,-166.5 153,-166.5 153,-12.5 153,-12.5 153,-6.5 159,-.5 165,-.5"/>
<text text-anchor="middle" x="194.5" y="-164.9" font-family="Arial" font-size="12.00" fill="#000000">PanAz</text>
<text text-anchor="middle" x="194.5" y="-151.9" font-family="Arial" font-size="12.00" fill="#000000">(audio)</text>
<polyline fill="none" stroke="#000000" stroke-width="2" points="153,-144.5 236,-144.5 "/>
<text text-anchor="middle" x="183.5" y="-130.9" font-family="Arial" font-size="12.00" fill="#000000">source</text>
<polyline fill="none" stroke="#000000" stroke-width="2" points="153,-123.5 214,-123.5 "/>
<text text-anchor="middle" x="183.5" y="-109.9" font-family="Arial" font-size="12.00" fill="#000000">position</text>
<polyline fill="none" stroke="#000000" stroke-width="2" points="153,-102.5 214,-102.5 "/>
<text text-anchor="middle" x="183.5" y="-88.9" font-family="Arial" font-size="12.00" fill="#000000">amplitude:</text>
<text text-anchor="middle" x="183.5" y="-75.9" font-family="Arial" font-size="12.00" fill="#000000">1.0</text>
<polyline fill="none" stroke="#000000" stroke-width="2" points="153,-68.5 214,-68.5 "/>
<text text-anchor="middle" x="183.5" y="-54.9" font-family="Arial" font-size="12.00" fill="#000000">width:</text>
<text text-anchor="middle" x="183.5" y="-41.9" font-family="Arial" font-size="12.00" fill="#000000">2.0</text>
<polyline fill="none" stroke="#000000" stroke-width="2" points="153,-34.5 214,-34.5 "/>
<text text-anchor="middle" x="183.5" y="-20.9" font-family="Arial" font-size="12.00" fill="#000000">orientation:</text>
<text text-anchor="middle" x="183.5" y="-7.9" font-family="Arial" font-size="12.00" fill="#000000">0.5</text>
<polyline fill="none" stroke="#000000" stroke-width="2" points="214,-.5 214,-144.5 "/>
<text text-anchor="middle" x="225" y="-123.4" font-family="Arial" font-size="12.00" fill="#000000">0</text>
<polyline fill="none" stroke="#000000" stroke-width="2" points="214,-108.5 236,-108.5 "/>
<text text-anchor="middle" x="225" y="-87.4" font-family="Arial" font-size="12.00" fill="#000000">1</text>
<polyline fill="none" stroke="#000000" stroke-width="2" points="214,-72.5 236,-72.5 "/>
<text text-anchor="middle" x="225" y="-51.4" font-family="Arial" font-size="12.00" fill="#000000">2</text>
<polyline fill="none" stroke="#000000" stroke-width="2" points="214,-36.5 236,-36.5 "/>
<text text-anchor="middle" x="225" y="-15.4" font-family="Arial" font-size="12.00" fill="#000000">3</text>
</g>
<!-- ugen_7 -->
<g id="node10" class="node">
<title>ugen_7</title>
<path fill="#bcd2ee" stroke="#000000" stroke-width="2" d="M320,-412C320,-412 380,-412 380,-412 386,-412 392,-418 392,-424 392,-424 392,-497 392,-497 392,-503 386,-509 380,-509 380,-509 320,-509 320,-509 314,-509 308,-503 308,-497 308,-497 308,-424 308,-424 308,-418 314,-412 320,-412"/>
<text text-anchor="middle" x="350" y="-495.4" font-family="Arial" font-size="12.00" fill="#000000">Sum3</text>
<text text-anchor="middle" x="350" y="-482.4" font-family="Arial" font-size="12.00" fill="#000000">(audio)</text>
<polyline fill="none" stroke="#000000" stroke-width="2" points="308,-475 392,-475 "/>
<text text-anchor="middle" x="339" y="-461.4" font-family="Arial" font-size="12.00" fill="#000000">input_one</text>
<polyline fill="none" stroke="#000000" stroke-width="2" points="308,-454 370,-454 "/>
<text text-anchor="middle" x="339" y="-440.4" font-family="Arial" font-size="12.00" fill="#000000">input_two</text>
<polyline fill="none" stroke="#000000" stroke-width="2" points="308,-433 370,-433 "/>
<text text-anchor="middle" x="339" y="-419.4" font-family="Arial" font-size="12.00" fill="#000000">input_three</text>
<polyline fill="none" stroke="#000000" stroke-width="2" points="370,-412 370,-475 "/>
<text text-anchor="middle" x="381" y="-440.4" font-family="Arial" font-size="12.00" fill="#000000">0</text>
</g>
<!-- ugen_8 -->
<g id="node11" class="node">
<title>ugen_8</title>
<path fill="#bcd2ee" stroke="#000000" stroke-width="2" d="M320,-296C320,-296 380,-296 380,-296 386,-296 392,-302 392,-308 392,-308 392,-381 392,-381 392,-387 386,-393 380,-393 380,-393 320,-393 320,-393 314,-393 308,-387 308,-381 308,-381 308,-308 308,-308 308,-302 314,-296 320,-296"/>
<text text-anchor="middle" x="350" y="-379.4" font-family="Arial" font-size="12.00" fill="#000000">Sum3</text>
<text text-anchor="middle" x="350" y="-366.4" font-family="Arial" font-size="12.00" fill="#000000">(audio)</text>
<polyline fill="none" stroke="#000000" stroke-width="2" points="308,-359 392,-359 "/>
<text text-anchor="middle" x="339" y="-345.4" font-family="Arial" font-size="12.00" fill="#000000">input_one</text>
<polyline fill="none" stroke="#000000" stroke-width="2" points="308,-338 370,-338 "/>
<text text-anchor="middle" x="339" y="-324.4" font-family="Arial" font-size="12.00" fill="#000000">input_two</text>
<polyline fill="none" stroke="#000000" stroke-width="2" points="308,-317 370,-317 "/>
<text text-anchor="middle" x="339" y="-303.4" font-family="Arial" font-size="12.00" fill="#000000">input_three</text>
<polyline fill="none" stroke="#000000" stroke-width="2" points="370,-296 370,-359 "/>
<text text-anchor="middle" x="381" y="-324.4" font-family="Arial" font-size="12.00" fill="#000000">0</text>
</g>
<!-- ugen_9 -->
<g id="node12" class="node">
<title>ugen_9</title>
<path fill="#bcd2ee" stroke="#000000" stroke-width="2" d="M320,-180C320,-180 380,-180 380,-180 386,-180 392,-186 392,-192 392,-192 392,-265 392,-265 392,-271 386,-277 380,-277 380,-277 320,-277 320,-277 314,-277 308,-271 308,-265 308,-265 308,-192 308,-192 308,-186 314,-180 320,-180"/>
<text text-anchor="middle" x="350" y="-263.4" font-family="Arial" font-size="12.00" fill="#000000">Sum3</text>
<text text-anchor="middle" x="350" y="-250.4" font-family="Arial" font-size="12.00" fill="#000000">(audio)</text>
<polyline fill="none" stroke="#000000" stroke-width="2" points="308,-243 392,-243 "/>
<text text-anchor="middle" x="339" y="-229.4" font-family="Arial" font-size="12.00" fill="#000000">input_one</text>
<polyline fill="none" stroke="#000000" stroke-width="2" points="308,-222 370,-222 "/>
<text text-anchor="middle" x="339" y="-208.4" font-family="Arial" font-size="12.00" fill="#000000">input_two</text>
<polyline fill="none" stroke="#000000" stroke-width="2" points="308,-201 370,-201 "/>
<text text-anchor="middle" x="339" y="-187.4" font-family="Arial" font-size="12.00" fill="#000000">input_three</text>
<polyline fill="none" stroke="#000000" stroke-width="2" points="370,-180 370,-243 "/>
<text text-anchor="middle" x="381" y="-208.4" font-family="Arial" font-size="12.00" fill="#000000">0</text>
</g>
</g>
</svg>
