<?xml version="1.0" encoding="UTF-8" standalone="no"?>
<!DOCTYPE svg PUBLIC "-//W3C//DTD SVG 1.1//EN"
 "http://www.w3.org/Graphics/SVG/1.1/DTD/svg11.dtd">
<!-- Generated by graphviz version 2.44.1 (20200629.0846)
 -->
<!-- Title: synthdef_9c4eb4778dc0faf39459fa8a5cd45c19 Pages: 1 -->
<svg width="370pt" height="115pt"
 viewBox="0.00 0.00 370.00 115.00" xmlns="http://www.w3.org/2000/svg" xmlns:xlink="http://www.w3.org/1999/xlink">
<g id="graph0" class="graph" transform="scale(1 1) rotate(0) translate(4 111)">
<title>synthdef_9c4eb4778dc0faf39459fa8a5cd45c19</title>
<!-- ugen_0&#45;&gt;ugen_1 -->
<g id="edge1" class="edge">
<title>ugen_0:e&#45;&gt;ugen_1:w</title>
<path fill="none" stroke="goldenrod" stroke-width="2" d="M72,-45C100.38,-45 109.88,-45 133.98,-45"/>
<polygon fill="goldenrod" stroke="goldenrod" stroke-width="2" points="134,-48.5 144,-45 134,-41.5 134,-48.5"/>
</g>
<!-- ugen_1&#45;&gt;ugen_2 -->
<g id="edge2" class="edge">
<title>ugen_1:e&#45;&gt;ugen_2:w</title>
<path fill="none" stroke="steelblue" stroke-width="2" d="M236,-28C264.38,-28 273.88,-28 297.98,-28"/>
<polygon fill="steelblue" stroke="steelblue" stroke-width="2" points="298,-31.5 308,-28 298,-24.5 298,-31.5"/>
</g>
<!-- ugen_0 -->
<g id="node1" class="node">
<title>ugen_0</title>
<path fill="#eedc82" stroke="black" stroke-width="2" d="M12,-28C12,-28 60,-28 60,-28 66,-28 72,-34 72,-40 72,-40 72,-84 72,-84 72,-90 66,-96 60,-96 60,-96 12,-96 12,-96 6,-96 0,-90 0,-84 0,-84 0,-40 0,-40 0,-34 6,-28 12,-28"/>
<text text-anchor="middle" x="36" y="-82.4" font-family="Arial" font-size="12.00">Control</text>
<text text-anchor="middle" x="36" y="-69.4" font-family="Arial" font-size="12.00">(control)</text>
<polyline fill="none" stroke="black" stroke-width="2" points="0,-62 72,-62 "/>
<text text-anchor="middle" x="36" y="-48.4" font-family="Arial" font-size="12.00">frequency:</text>
<text text-anchor="middle" x="36" y="-35.4" font-family="Arial" font-size="12.00">440.0</text>
</g>
<!-- ugen_1 -->
<g id="node2" class="node">
<title>ugen_1</title>
<path fill="#bcd2ee" stroke="black" stroke-width="2" d="M156,-0.5C156,-0.5 224,-0.5 224,-0.5 230,-0.5 236,-6.5 236,-12.5 236,-12.5 236,-77.5 236,-77.5 236,-83.5 230,-89.5 224,-89.5 224,-89.5 156,-89.5 156,-89.5 150,-89.5 144,-83.5 144,-77.5 144,-77.5 144,-12.5 144,-12.5 144,-6.5 150,-0.5 156,-0.5"/>
<text text-anchor="middle" x="190" y="-75.9" font-family="Arial" font-size="12.00">SinOsc</text>
<text text-anchor="middle" x="190" y="-62.9" font-family="Arial" font-size="12.00">(audio)</text>
<polyline fill="none" stroke="black" stroke-width="2" points="144,-55.5 236,-55.5 "/>
<text text-anchor="middle" x="178.5" y="-41.9" font-family="Arial" font-size="12.00">frequency</text>
<polyline fill="none" stroke="black" stroke-width="2" points="144,-34.5 213,-34.5 "/>
<text text-anchor="middle" x="178.5" y="-20.9" font-family="Arial" font-size="12.00">phase:</text>
<text text-anchor="middle" x="178.5" y="-7.9" font-family="Arial" font-size="12.00">0.0</text>
<polyline fill="none" stroke="black" stroke-width="2" points="213,-0.5 213,-55.5 "/>
<text text-anchor="middle" x="224.5" y="-24.9" font-family="Arial" font-size="12.00">0</text>
</g>
<!-- ugen_2 -->
<g id="node3" class="node">
<title>ugen_2</title>
<path fill="#bcd2ee" stroke="black" stroke-width="2" d="M320,-17.5C320,-17.5 350,-17.5 350,-17.5 356,-17.5 362,-23.5 362,-29.5 362,-29.5 362,-94.5 362,-94.5 362,-100.5 356,-106.5 350,-106.5 350,-106.5 320,-106.5 320,-106.5 314,-106.5 308,-100.5 308,-94.5 308,-94.5 308,-29.5 308,-29.5 308,-23.5 314,-17.5 320,-17.5"/>
<text text-anchor="middle" x="335" y="-92.9" font-family="Arial" font-size="12.00">Out</text>
<text text-anchor="middle" x="335" y="-79.9" font-family="Arial" font-size="12.00">(audio)</text>
<polyline fill="none" stroke="black" stroke-width="2" points="308,-72.5 362,-72.5 "/>
<text text-anchor="middle" x="335" y="-58.9" font-family="Arial" font-size="12.00">bus:</text>
<text text-anchor="middle" x="335" y="-45.9" font-family="Arial" font-size="12.00">0.0</text>
<polyline fill="none" stroke="black" stroke-width="2" points="308,-38.5 362,-38.5 "/>
<text text-anchor="middle" x="335" y="-24.9" font-family="Arial" font-size="12.00">source</text>
</g>
</g>
</svg>
