<?xml version="1.0" encoding="UTF-8" standalone="no"?>
<!DOCTYPE svg PUBLIC "-//W3C//DTD SVG 1.1//EN"
 "http://www.w3.org/Graphics/SVG/1.1/DTD/svg11.dtd">
<!-- Generated by graphviz version 2.40.1 (20161225.0304)
 -->
<!-- Title: synthdef_9c4eb4778dc0faf39459fa8a5cd45c19 Pages: 1 -->
<svg width="343pt" height="115pt"
 viewBox="0.00 0.00 343.00 115.00" xmlns="http://www.w3.org/2000/svg" xmlns:xlink="http://www.w3.org/1999/xlink">
<g id="graph0" class="graph" transform="scale(1 1) rotate(0) translate(4 111)">
<title>synthdef_9c4eb4778dc0faf39459fa8a5cd45c19</title>
<!-- ugen_0&#45;&gt;ugen_1 -->
<g id="edge1" class="edge">
<title>ugen_0:e&#45;&gt;ugen_1:w</title>
<path fill="none" stroke="#daa520" stroke-width="2" d="M59,-45C87.375,-45 96.8795,-45 120.9792,-45"/>
<polygon fill="#daa520" stroke="#daa520" stroke-width="2" points="121,-48.5001 131,-45 121,-41.5001 121,-48.5001"/>
</g>
<!-- ugen_1&#45;&gt;ugen_2 -->
<g id="edge2" class="edge">
<title>ugen_1:e&#45;&gt;ugen_2:w</title>
<path fill="none" stroke="#4682b4" stroke-width="2" d="M209,-28C237.375,-28 246.8795,-28 270.9792,-28"/>
<polygon fill="#4682b4" stroke="#4682b4" stroke-width="2" points="271,-31.5001 281,-28 271,-24.5001 271,-31.5001"/>
</g>
<!-- ugen_0 -->
<g id="node1" class="node">
<title>ugen_0</title>
<path fill="#eedc82" stroke="#000000" stroke-width="2" d="M12,-28C12,-28 47,-28 47,-28 53,-28 59,-34 59,-40 59,-40 59,-84 59,-84 59,-90 53,-96 47,-96 47,-96 12,-96 12,-96 6,-96 0,-90 0,-84 0,-84 0,-40 0,-40 0,-34 6,-28 12,-28"/>
<text text-anchor="middle" x="29.5" y="-82.4" font-family="Arial" font-size="12.00" fill="#000000">Control</text>
<text text-anchor="middle" x="29.5" y="-69.4" font-family="Arial" font-size="12.00" fill="#000000">(control)</text>
<polyline fill="none" stroke="#000000" stroke-width="2" points="0,-62 59,-62 "/>
<text text-anchor="middle" x="29.5" y="-48.4" font-family="Arial" font-size="12.00" fill="#000000">frequency:</text>
<text text-anchor="middle" x="29.5" y="-35.4" font-family="Arial" font-size="12.00" fill="#000000">440.0</text>
</g>
<!-- ugen_1 -->
<g id="node2" class="node">
<title>ugen_1</title>
<path fill="#bcd2ee" stroke="#000000" stroke-width="2" d="M143,-.5C143,-.5 197,-.5 197,-.5 203,-.5 209,-6.5 209,-12.5 209,-12.5 209,-77.5 209,-77.5 209,-83.5 203,-89.5 197,-89.5 197,-89.5 143,-89.5 143,-89.5 137,-89.5 131,-83.5 131,-77.5 131,-77.5 131,-12.5 131,-12.5 131,-6.5 137,-.5 143,-.5"/>
<text text-anchor="middle" x="170" y="-75.9" font-family="Arial" font-size="12.00" fill="#000000">SinOsc</text>
<text text-anchor="middle" x="170" y="-62.9" font-family="Arial" font-size="12.00" fill="#000000">(audio)</text>
<polyline fill="none" stroke="#000000" stroke-width="2" points="131,-55.5 209,-55.5 "/>
<text text-anchor="middle" x="159" y="-41.9" font-family="Arial" font-size="12.00" fill="#000000">frequency</text>
<polyline fill="none" stroke="#000000" stroke-width="2" points="131,-34.5 187,-34.5 "/>
<text text-anchor="middle" x="159" y="-20.9" font-family="Arial" font-size="12.00" fill="#000000">phase:</text>
<text text-anchor="middle" x="159" y="-7.9" font-family="Arial" font-size="12.00" fill="#000000">0.0</text>
<polyline fill="none" stroke="#000000" stroke-width="2" points="187,-.5 187,-55.5 "/>
<text text-anchor="middle" x="198" y="-24.9" font-family="Arial" font-size="12.00" fill="#000000">0</text>
</g>
<!-- ugen_2 -->
<g id="node3" class="node">
<title>ugen_2</title>
<path fill="#bcd2ee" stroke="#000000" stroke-width="2" d="M293,-17.5C293,-17.5 323,-17.5 323,-17.5 329,-17.5 335,-23.5 335,-29.5 335,-29.5 335,-94.5 335,-94.5 335,-100.5 329,-106.5 323,-106.5 323,-106.5 293,-106.5 293,-106.5 287,-106.5 281,-100.5 281,-94.5 281,-94.5 281,-29.5 281,-29.5 281,-23.5 287,-17.5 293,-17.5"/>
<text text-anchor="middle" x="308" y="-92.9" font-family="Arial" font-size="12.00" fill="#000000">Out</text>
<text text-anchor="middle" x="308" y="-79.9" font-family="Arial" font-size="12.00" fill="#000000">(audio)</text>
<polyline fill="none" stroke="#000000" stroke-width="2" points="281,-72.5 335,-72.5 "/>
<text text-anchor="middle" x="308" y="-58.9" font-family="Arial" font-size="12.00" fill="#000000">bus:</text>
<text text-anchor="middle" x="308" y="-45.9" font-family="Arial" font-size="12.00" fill="#000000">0.0</text>
<polyline fill="none" stroke="#000000" stroke-width="2" points="281,-38.5 335,-38.5 "/>
<text text-anchor="middle" x="308" y="-24.9" font-family="Arial" font-size="12.00" fill="#000000">source</text>
</g>
</g>
</svg>
