<?xml version="1.0" encoding="UTF-8" standalone="no"?>
<!DOCTYPE svg PUBLIC "-//W3C//DTD SVG 1.1//EN"
 "http://www.w3.org/Graphics/SVG/1.1/DTD/svg11.dtd">
<!-- Generated by graphviz version 2.43.0 (0)
 -->
<!-- Title: synthdef_c29dcbe7455de10f65eac155b812021d Pages: 1 -->
<svg width="824pt" height="420pt"
 viewBox="0.00 0.00 824.00 420.08" xmlns="http://www.w3.org/2000/svg" xmlns:xlink="http://www.w3.org/1999/xlink">
<g id="graph0" class="graph" transform="scale(1 1) rotate(0) translate(4 416.08)">
<title>synthdef_c29dcbe7455de10f65eac155b812021d</title>
<!-- ugen_0&#45;&gt;ugen_1 -->
<g id="edge3" class="edge">
<title>ugen_0:e&#45;&gt;ugen_1:w</title>
<path fill="none" stroke="salmon" stroke-width="2" d="M60,-317.5C186.9,-317.5 17.3,-49.76 127.99,-35.12"/>
<polygon fill="salmon" stroke="salmon" stroke-width="2" points="128.24,-38.61 138,-34.5 127.8,-31.63 128.24,-38.61"/>
</g>
<!-- ugen_0&#45;&gt;ugen_2 -->
<g id="edge1" class="edge">
<title>ugen_0:e&#45;&gt;ugen_2:w</title>
<path fill="none" stroke="salmon" stroke-width="2" d="M60,-351.5C95.44,-351.5 106.8,-351.5 137.73,-351.5"/>
<polygon fill="salmon" stroke="salmon" stroke-width="2" points="138,-355 148,-351.5 138,-348 138,-355"/>
</g>
<!-- ugen_0&#45;&gt;ugen_9 -->
<g id="edge2" class="edge">
<title>ugen_0:e&#45;&gt;ugen_9:w</title>
<path fill="none" stroke="salmon" stroke-width="2" d="M60,-351.5C100,-351.5 94.05,-392.85 132,-405.5 171.63,-418.71 184.26,-407.29 226,-405.5 461.5,-395.41 521.22,-360.51 751.95,-359.52"/>
<polygon fill="salmon" stroke="salmon" stroke-width="2" points="752.01,-363.02 762,-359.5 751.99,-356.02 752.01,-363.02"/>
</g>
<!-- ugen_2&#45;&gt;ugen_5 -->
<g id="edge4" class="edge">
<title>ugen_2:e&#45;&gt;ugen_5:w</title>
<path fill="none" stroke="steelblue" stroke-width="2" d="M210,-351.5C246.69,-351.5 256.09,-333.28 287.88,-330"/>
<polygon fill="steelblue" stroke="steelblue" stroke-width="2" points="288.19,-333.49 298,-329.5 287.84,-326.5 288.19,-333.49"/>
</g>
<!-- ugen_3&#45;&gt;ugen_5 -->
<g id="edge5" class="edge">
<title>ugen_3:e&#45;&gt;ugen_5:w</title>
<path fill="none" stroke="salmon" stroke-width="2" d="M226,-132.5C284.79,-132.5 241.43,-239.29 287.85,-252.22"/>
<polygon fill="salmon" stroke="salmon" stroke-width="2" points="287.64,-255.72 298,-253.5 288.52,-248.78 287.64,-255.72"/>
</g>
<!-- ugen_4&#45;&gt;ugen_5 -->
<g id="edge6" class="edge">
<title>ugen_4:e&#45;&gt;ugen_5:w</title>
<path fill="none" stroke="salmon" stroke-width="2" d="M226,-253.5C255.69,-253.5 263.17,-270.16 287.99,-273.8"/>
<polygon fill="salmon" stroke="salmon" stroke-width="2" points="287.78,-277.29 298,-274.5 288.27,-270.31 287.78,-277.29"/>
</g>
<!-- ugen_5&#45;&gt;ugen_8 -->
<g id="edge7" class="edge">
<title>ugen_5:e&#45;&gt;ugen_8:w</title>
<path fill="none" stroke="steelblue" stroke-width="2" d="M458,-291.5C491.08,-291.5 493.11,-258.41 519.89,-251.68"/>
<polygon fill="steelblue" stroke="steelblue" stroke-width="2" points="520.47,-255.14 530,-250.5 519.66,-248.19 520.47,-255.14"/>
</g>
<!-- ugen_6&#45;&gt;ugen_8 -->
<g id="edge8" class="edge">
<title>ugen_6:e&#45;&gt;ugen_8:w</title>
<path fill="none" stroke="salmon" stroke-width="2" d="M426,-34.5C499.88,-34.5 456.99,-161.68 519.92,-173.61"/>
<polygon fill="salmon" stroke="salmon" stroke-width="2" points="519.73,-177.1 530,-174.5 520.35,-170.13 519.73,-177.1"/>
</g>
<!-- ugen_7&#45;&gt;ugen_8 -->
<g id="edge9" class="edge">
<title>ugen_7:e&#45;&gt;ugen_8:w</title>
<path fill="none" stroke="salmon" stroke-width="2" d="M426,-155.5C471.94,-155.5 479.53,-189.93 519.93,-194.9"/>
<polygon fill="salmon" stroke="salmon" stroke-width="2" points="519.81,-198.4 530,-195.5 520.22,-191.41 519.81,-198.4"/>
</g>
<!-- ugen_8&#45;&gt;ugen_9 -->
<g id="edge10" class="edge">
<title>ugen_8:e&#45;&gt;ugen_9:w</title>
<path fill="none" stroke="steelblue" stroke-width="2" d="M690,-212.5C750.72,-212.5 703.76,-324.17 751.86,-337.25"/>
<polygon fill="steelblue" stroke="steelblue" stroke-width="2" points="751.65,-340.75 762,-338.5 752.5,-333.8 751.65,-340.75"/>
</g>
<!-- ugen_0 -->
<g id="node1" class="node">
<title>ugen_0</title>
<path fill="#ee9572" stroke="black" stroke-width="2" d="M12,-300.5C12,-300.5 48,-300.5 48,-300.5 54,-300.5 60,-306.5 60,-312.5 60,-312.5 60,-390.5 60,-390.5 60,-396.5 54,-402.5 48,-402.5 48,-402.5 12,-402.5 12,-402.5 6,-402.5 0,-396.5 0,-390.5 0,-390.5 0,-312.5 0,-312.5 0,-306.5 6,-300.5 12,-300.5"/>
<text text-anchor="middle" x="30" y="-388.9" font-family="Arial" font-size="12.00">Control</text>
<text text-anchor="middle" x="30" y="-375.9" font-family="Arial" font-size="12.00">(scalar)</text>
<polyline fill="none" stroke="black" stroke-width="2" points="0,-368.5 60,-368.5 "/>
<text text-anchor="middle" x="30" y="-354.9" font-family="Arial" font-size="12.00">out:</text>
<text text-anchor="middle" x="30" y="-341.9" font-family="Arial" font-size="12.00">0.0</text>
<polyline fill="none" stroke="black" stroke-width="2" points="0,-334.5 60,-334.5 "/>
<text text-anchor="middle" x="30" y="-320.9" font-family="Arial" font-size="12.00">rand_id:</text>
<text text-anchor="middle" x="30" y="-307.9" font-family="Arial" font-size="12.00">23.0</text>
</g>
<!-- ugen_1 -->
<g id="node2" class="node">
<title>ugen_1</title>
<path fill="#ee9572" stroke="black" stroke-width="2" d="M151,-24C151,-24 207,-24 207,-24 213,-24 219,-30 219,-36 219,-36 219,-67 219,-67 219,-73 213,-79 207,-79 207,-79 151,-79 151,-79 145,-79 139,-73 139,-67 139,-67 139,-36 139,-36 139,-30 145,-24 151,-24"/>
<text text-anchor="middle" x="179" y="-65.4" font-family="Arial" font-size="12.00">RandID</text>
<text text-anchor="middle" x="179" y="-52.4" font-family="Arial" font-size="12.00">(scalar)</text>
<polyline fill="none" stroke="black" stroke-width="2" points="139,-45 219,-45 "/>
<text text-anchor="middle" x="167.5" y="-31.4" font-family="Arial" font-size="12.00">rand_id</text>
<polyline fill="none" stroke="black" stroke-width="2" points="196,-24 196,-45 "/>
<text text-anchor="middle" x="207.5" y="-31.4" font-family="Arial" font-size="12.00">0</text>
</g>
<!-- ugen_2 -->
<g id="node3" class="node">
<title>ugen_2</title>
<path fill="#bcd2ee" stroke="black" stroke-width="2" d="M161.5,-341C161.5,-341 196.5,-341 196.5,-341 202.5,-341 208.5,-347 208.5,-353 208.5,-353 208.5,-384 208.5,-384 208.5,-390 202.5,-396 196.5,-396 196.5,-396 161.5,-396 161.5,-396 155.5,-396 149.5,-390 149.5,-384 149.5,-384 149.5,-353 149.5,-353 149.5,-347 155.5,-341 161.5,-341"/>
<text text-anchor="middle" x="179" y="-382.4" font-family="Arial" font-size="12.00">In</text>
<text text-anchor="middle" x="179" y="-369.4" font-family="Arial" font-size="12.00">(audio)</text>
<polyline fill="none" stroke="black" stroke-width="2" points="149.5,-362 208.5,-362 "/>
<text text-anchor="middle" x="167.5" y="-348.4" font-family="Arial" font-size="12.00">bus</text>
<polyline fill="none" stroke="black" stroke-width="2" points="185.5,-341 185.5,-362 "/>
<text text-anchor="middle" x="197" y="-348.4" font-family="Arial" font-size="12.00">0</text>
</g>
<!-- ugen_3 -->
<g id="node4" class="node">
<title>ugen_3</title>
<path fill="#ee9572" stroke="black" stroke-width="2" d="M144,-98.5C144,-98.5 214,-98.5 214,-98.5 220,-98.5 226,-104.5 226,-110.5 226,-110.5 226,-188.5 226,-188.5 226,-194.5 220,-200.5 214,-200.5 214,-200.5 144,-200.5 144,-200.5 138,-200.5 132,-194.5 132,-188.5 132,-188.5 132,-110.5 132,-110.5 132,-104.5 138,-98.5 144,-98.5"/>
<text text-anchor="middle" x="179" y="-186.9" font-family="Arial" font-size="12.00">ExpRand</text>
<text text-anchor="middle" x="179" y="-173.9" font-family="Arial" font-size="12.00">(scalar)</text>
<polyline fill="none" stroke="black" stroke-width="2" points="132,-166.5 226,-166.5 "/>
<text text-anchor="middle" x="167.5" y="-152.9" font-family="Arial" font-size="12.00">minimum:</text>
<text text-anchor="middle" x="167.5" y="-139.9" font-family="Arial" font-size="12.00">0.01</text>
<polyline fill="none" stroke="black" stroke-width="2" points="132,-132.5 203,-132.5 "/>
<text text-anchor="middle" x="167.5" y="-118.9" font-family="Arial" font-size="12.00">maximum:</text>
<text text-anchor="middle" x="167.5" y="-105.9" font-family="Arial" font-size="12.00">0.1</text>
<polyline fill="none" stroke="black" stroke-width="2" points="203,-98.5 203,-166.5 "/>
<text text-anchor="middle" x="214.5" y="-129.4" font-family="Arial" font-size="12.00">0</text>
</g>
<!-- ugen_4 -->
<g id="node5" class="node">
<title>ugen_4</title>
<path fill="#ee9572" stroke="black" stroke-width="2" d="M144,-219.5C144,-219.5 214,-219.5 214,-219.5 220,-219.5 226,-225.5 226,-231.5 226,-231.5 226,-309.5 226,-309.5 226,-315.5 220,-321.5 214,-321.5 214,-321.5 144,-321.5 144,-321.5 138,-321.5 132,-315.5 132,-309.5 132,-309.5 132,-231.5 132,-231.5 132,-225.5 138,-219.5 144,-219.5"/>
<text text-anchor="middle" x="179" y="-307.9" font-family="Arial" font-size="12.00">ExpRand</text>
<text text-anchor="middle" x="179" y="-294.9" font-family="Arial" font-size="12.00">(scalar)</text>
<polyline fill="none" stroke="black" stroke-width="2" points="132,-287.5 226,-287.5 "/>
<text text-anchor="middle" x="167.5" y="-273.9" font-family="Arial" font-size="12.00">minimum:</text>
<text text-anchor="middle" x="167.5" y="-260.9" font-family="Arial" font-size="12.00">0.01</text>
<polyline fill="none" stroke="black" stroke-width="2" points="132,-253.5 203,-253.5 "/>
<text text-anchor="middle" x="167.5" y="-239.9" font-family="Arial" font-size="12.00">maximum:</text>
<text text-anchor="middle" x="167.5" y="-226.9" font-family="Arial" font-size="12.00">0.1</text>
<polyline fill="none" stroke="black" stroke-width="2" points="203,-219.5 203,-287.5 "/>
<text text-anchor="middle" x="214.5" y="-250.4" font-family="Arial" font-size="12.00">0</text>
</g>
<!-- ugen_5 -->
<g id="node6" class="node">
<title>ugen_5</title>
<path fill="#bcd2ee" stroke="black" stroke-width="2" d="M310,-243C310,-243 446,-243 446,-243 452,-243 458,-249 458,-255 458,-255 458,-362 458,-362 458,-368 452,-374 446,-374 446,-374 310,-374 310,-374 304,-374 298,-368 298,-362 298,-362 298,-255 298,-255 298,-249 304,-243 310,-243"/>
<text text-anchor="middle" x="378" y="-360.4" font-family="Arial" font-size="12.00">AllpassC</text>
<text text-anchor="middle" x="378" y="-347.4" font-family="Arial" font-size="12.00">(audio)</text>
<polyline fill="none" stroke="black" stroke-width="2" points="298,-340 458,-340 "/>
<text text-anchor="middle" x="366.5" y="-326.4" font-family="Arial" font-size="12.00">source</text>
<polyline fill="none" stroke="black" stroke-width="2" points="298,-319 435,-319 "/>
<text text-anchor="middle" x="366.5" y="-305.4" font-family="Arial" font-size="12.00">maximum_delay_time:</text>
<text text-anchor="middle" x="366.5" y="-292.4" font-family="Arial" font-size="12.00">0.1</text>
<polyline fill="none" stroke="black" stroke-width="2" points="298,-285 435,-285 "/>
<text text-anchor="middle" x="366.5" y="-271.4" font-family="Arial" font-size="12.00">delay_time</text>
<polyline fill="none" stroke="black" stroke-width="2" points="298,-264 435,-264 "/>
<text text-anchor="middle" x="366.5" y="-250.4" font-family="Arial" font-size="12.00">decay_time</text>
<polyline fill="none" stroke="black" stroke-width="2" points="435,-243 435,-340 "/>
<text text-anchor="middle" x="446.5" y="-288.4" font-family="Arial" font-size="12.00">0</text>
</g>
<!-- ugen_6 -->
<g id="node7" class="node">
<title>ugen_6</title>
<path fill="#ee9572" stroke="black" stroke-width="2" d="M343,-0.5C343,-0.5 413,-0.5 413,-0.5 419,-0.5 425,-6.5 425,-12.5 425,-12.5 425,-90.5 425,-90.5 425,-96.5 419,-102.5 413,-102.5 413,-102.5 343,-102.5 343,-102.5 337,-102.5 331,-96.5 331,-90.5 331,-90.5 331,-12.5 331,-12.5 331,-6.5 337,-0.5 343,-0.5"/>
<text text-anchor="middle" x="378" y="-88.9" font-family="Arial" font-size="12.00">ExpRand</text>
<text text-anchor="middle" x="378" y="-75.9" font-family="Arial" font-size="12.00">(scalar)</text>
<polyline fill="none" stroke="black" stroke-width="2" points="331,-68.5 425,-68.5 "/>
<text text-anchor="middle" x="366.5" y="-54.9" font-family="Arial" font-size="12.00">minimum:</text>
<text text-anchor="middle" x="366.5" y="-41.9" font-family="Arial" font-size="12.00">0.01</text>
<polyline fill="none" stroke="black" stroke-width="2" points="331,-34.5 402,-34.5 "/>
<text text-anchor="middle" x="366.5" y="-20.9" font-family="Arial" font-size="12.00">maximum:</text>
<text text-anchor="middle" x="366.5" y="-7.9" font-family="Arial" font-size="12.00">0.1</text>
<polyline fill="none" stroke="black" stroke-width="2" points="402,-0.5 402,-68.5 "/>
<text text-anchor="middle" x="413.5" y="-31.4" font-family="Arial" font-size="12.00">0</text>
</g>
<!-- ugen_7 -->
<g id="node8" class="node">
<title>ugen_7</title>
<path fill="#ee9572" stroke="black" stroke-width="2" d="M343,-121.5C343,-121.5 413,-121.5 413,-121.5 419,-121.5 425,-127.5 425,-133.5 425,-133.5 425,-211.5 425,-211.5 425,-217.5 419,-223.5 413,-223.5 413,-223.5 343,-223.5 343,-223.5 337,-223.5 331,-217.5 331,-211.5 331,-211.5 331,-133.5 331,-133.5 331,-127.5 337,-121.5 343,-121.5"/>
<text text-anchor="middle" x="378" y="-209.9" font-family="Arial" font-size="12.00">ExpRand</text>
<text text-anchor="middle" x="378" y="-196.9" font-family="Arial" font-size="12.00">(scalar)</text>
<polyline fill="none" stroke="black" stroke-width="2" points="331,-189.5 425,-189.5 "/>
<text text-anchor="middle" x="366.5" y="-175.9" font-family="Arial" font-size="12.00">minimum:</text>
<text text-anchor="middle" x="366.5" y="-162.9" font-family="Arial" font-size="12.00">0.01</text>
<polyline fill="none" stroke="black" stroke-width="2" points="331,-155.5 402,-155.5 "/>
<text text-anchor="middle" x="366.5" y="-141.9" font-family="Arial" font-size="12.00">maximum:</text>
<text text-anchor="middle" x="366.5" y="-128.9" font-family="Arial" font-size="12.00">0.1</text>
<polyline fill="none" stroke="black" stroke-width="2" points="402,-121.5 402,-189.5 "/>
<text text-anchor="middle" x="413.5" y="-152.4" font-family="Arial" font-size="12.00">0</text>
</g>
<!-- ugen_8 -->
<g id="node9" class="node">
<title>ugen_8</title>
<path fill="#bcd2ee" stroke="black" stroke-width="2" d="M542,-164C542,-164 678,-164 678,-164 684,-164 690,-170 690,-176 690,-176 690,-283 690,-283 690,-289 684,-295 678,-295 678,-295 542,-295 542,-295 536,-295 530,-289 530,-283 530,-283 530,-176 530,-176 530,-170 536,-164 542,-164"/>
<text text-anchor="middle" x="610" y="-281.4" font-family="Arial" font-size="12.00">AllpassC</text>
<text text-anchor="middle" x="610" y="-268.4" font-family="Arial" font-size="12.00">(audio)</text>
<polyline fill="none" stroke="black" stroke-width="2" points="530,-261 690,-261 "/>
<text text-anchor="middle" x="598.5" y="-247.4" font-family="Arial" font-size="12.00">source</text>
<polyline fill="none" stroke="black" stroke-width="2" points="530,-240 667,-240 "/>
<text text-anchor="middle" x="598.5" y="-226.4" font-family="Arial" font-size="12.00">maximum_delay_time:</text>
<text text-anchor="middle" x="598.5" y="-213.4" font-family="Arial" font-size="12.00">0.1</text>
<polyline fill="none" stroke="black" stroke-width="2" points="530,-206 667,-206 "/>
<text text-anchor="middle" x="598.5" y="-192.4" font-family="Arial" font-size="12.00">delay_time</text>
<polyline fill="none" stroke="black" stroke-width="2" points="530,-185 667,-185 "/>
<text text-anchor="middle" x="598.5" y="-171.4" font-family="Arial" font-size="12.00">decay_time</text>
<polyline fill="none" stroke="black" stroke-width="2" points="667,-164 667,-261 "/>
<text text-anchor="middle" x="678.5" y="-209.4" font-family="Arial" font-size="12.00">0</text>
</g>
<!-- ugen_9 -->
<g id="node10" class="node">
<title>ugen_9</title>
<path fill="#bcd2ee" stroke="black" stroke-width="2" d="M774,-328.5C774,-328.5 804,-328.5 804,-328.5 810,-328.5 816,-334.5 816,-340.5 816,-340.5 816,-392.5 816,-392.5 816,-398.5 810,-404.5 804,-404.5 804,-404.5 774,-404.5 774,-404.5 768,-404.5 762,-398.5 762,-392.5 762,-392.5 762,-340.5 762,-340.5 762,-334.5 768,-328.5 774,-328.5"/>
<text text-anchor="middle" x="789" y="-390.9" font-family="Arial" font-size="12.00">Out</text>
<text text-anchor="middle" x="789" y="-377.9" font-family="Arial" font-size="12.00">(audio)</text>
<polyline fill="none" stroke="black" stroke-width="2" points="762,-370.5 816,-370.5 "/>
<text text-anchor="middle" x="789" y="-356.9" font-family="Arial" font-size="12.00">bus</text>
<polyline fill="none" stroke="black" stroke-width="2" points="762,-349.5 816,-349.5 "/>
<text text-anchor="middle" x="789" y="-335.9" font-family="Arial" font-size="12.00">source</text>
</g>
</g>
</svg>
