<?xml version="1.0" encoding="UTF-8" standalone="no"?>
<!DOCTYPE svg PUBLIC "-//W3C//DTD SVG 1.1//EN"
 "http://www.w3.org/Graphics/SVG/1.1/DTD/svg11.dtd">
<!-- Generated by graphviz version 2.40.1 (20161225.0304)
 -->
<!-- Title: synthdef_001520731aee5371fefab6b505cf64dd Pages: 1 -->
<svg width="522pt" height="213pt"
 viewBox="0.00 0.00 522.00 212.50" xmlns="http://www.w3.org/2000/svg" xmlns:xlink="http://www.w3.org/1999/xlink">
<g id="graph0" class="graph" transform="scale(1 1) rotate(0) translate(4 208.5)">
<title>synthdef_001520731aee5371fefab6b505cf64dd</title>
<!-- ugen_0&#45;&gt;ugen_1 -->
<g id="edge1" class="edge">
<title>ugen_0:e&#45;&gt;ugen_1:w</title>
<path fill="none" stroke="#daa520" stroke-width="2" d="M61,-45C89.375,-45 98.8795,-45 122.9792,-45"/>
<polygon fill="#daa520" stroke="#daa520" stroke-width="2" points="123,-48.5001 133,-45 123,-41.5001 123,-48.5001"/>
</g>
<!-- ugen_1&#45;&gt;ugen_4 -->
<g id="edge2" class="edge">
<title>ugen_1:e&#45;&gt;ugen_4:w</title>
<path fill="none" stroke="#daa520" stroke-width="2" d="M220,-28C253.487,-28 254.8338,-62.7092 281.7923,-69.7595"/>
<polygon fill="#daa520" stroke="#daa520" stroke-width="2" points="281.6508,-73.2679 292,-71 282.4953,-66.3191 281.6508,-73.2679"/>
</g>
<!-- ugen_2&#45;&gt;ugen_3 -->
<g id="edge3" class="edge">
<title>ugen_2:e&#45;&gt;ugen_3:w</title>
<path fill="none" stroke="#daa520" stroke-width="2" d="M60.5,-153C91.1128,-153 101.1876,-153 127.4682,-153"/>
<polygon fill="#daa520" stroke="#daa520" stroke-width="2" points="127.5,-156.5001 137.5,-153 127.5,-149.5001 127.5,-156.5001"/>
</g>
<!-- ugen_3&#45;&gt;ugen_4 -->
<g id="edge4" class="edge">
<title>ugen_3:e&#45;&gt;ugen_4:w</title>
<path fill="none" stroke="#4682b4" stroke-width="2" d="M215.5,-136C251.0456,-136 252.7802,-99.8633 281.9863,-93.0876"/>
<polygon fill="#4682b4" stroke="#4682b4" stroke-width="2" points="282.4364,-96.5594 292,-92 281.6805,-89.6004 282.4364,-96.5594"/>
</g>
<!-- ugen_4&#45;&gt;ugen_5 -->
<g id="edge5" class="edge">
<title>ugen_4:e&#45;&gt;ugen_5:w</title>
<path fill="none" stroke="#4682b4" stroke-width="2" d="M388,-81C416.375,-81 425.8795,-81 449.9792,-81"/>
<polygon fill="#4682b4" stroke="#4682b4" stroke-width="2" points="450,-84.5001 460,-81 450,-77.5001 450,-84.5001"/>
</g>
<!-- ugen_0 -->
<g id="node1" class="node">
<title>ugen_0</title>
<path fill="#eedc82" stroke="#000000" stroke-width="2" d="M12,-28C12,-28 49,-28 49,-28 55,-28 61,-34 61,-40 61,-40 61,-84 61,-84 61,-90 55,-96 49,-96 49,-96 12,-96 12,-96 6,-96 0,-90 0,-84 0,-84 0,-40 0,-40 0,-34 6,-28 12,-28"/>
<text text-anchor="middle" x="30.5" y="-82.4" font-family="Arial" font-size="12.00" fill="#000000">TrigControl</text>
<text text-anchor="middle" x="30.5" y="-69.4" font-family="Arial" font-size="12.00" fill="#000000">(control)</text>
<polyline fill="none" stroke="#000000" stroke-width="2" points="0,-62 61,-62 "/>
<text text-anchor="middle" x="30.5" y="-48.4" font-family="Arial" font-size="12.00" fill="#000000">trigger:</text>
<text text-anchor="middle" x="30.5" y="-35.4" font-family="Arial" font-size="12.00" fill="#000000">0.0</text>
</g>
<!-- ugen_1 -->
<g id="node2" class="node">
<title>ugen_1</title>
<path fill="#eedc82" stroke="#000000" stroke-width="2" d="M145,-.5C145,-.5 208,-.5 208,-.5 214,-.5 220,-6.5 220,-12.5 220,-12.5 220,-77.5 220,-77.5 220,-83.5 214,-89.5 208,-89.5 208,-89.5 145,-89.5 145,-89.5 139,-89.5 133,-83.5 133,-77.5 133,-77.5 133,-12.5 133,-12.5 133,-6.5 139,-.5 145,-.5"/>
<text text-anchor="middle" x="176.5" y="-75.9" font-family="Arial" font-size="12.00" fill="#000000">Decay</text>
<text text-anchor="middle" x="176.5" y="-62.9" font-family="Arial" font-size="12.00" fill="#000000">(control)</text>
<polyline fill="none" stroke="#000000" stroke-width="2" points="133,-55.5 220,-55.5 "/>
<text text-anchor="middle" x="165.5" y="-41.9" font-family="Arial" font-size="12.00" fill="#000000">source</text>
<polyline fill="none" stroke="#000000" stroke-width="2" points="133,-34.5 198,-34.5 "/>
<text text-anchor="middle" x="165.5" y="-20.9" font-family="Arial" font-size="12.00" fill="#000000">decay_time:</text>
<text text-anchor="middle" x="165.5" y="-7.9" font-family="Arial" font-size="12.00" fill="#000000">0.5</text>
<polyline fill="none" stroke="#000000" stroke-width="2" points="198,-.5 198,-55.5 "/>
<text text-anchor="middle" x="209" y="-24.9" font-family="Arial" font-size="12.00" fill="#000000">0</text>
</g>
<!-- ugen_2 -->
<g id="node3" class="node">
<title>ugen_2</title>
<path fill="#eedc82" stroke="#000000" stroke-width="2" d="M13,-136C13,-136 48,-136 48,-136 54,-136 60,-142 60,-148 60,-148 60,-192 60,-192 60,-198 54,-204 48,-204 48,-204 13,-204 13,-204 7,-204 1,-198 1,-192 1,-192 1,-148 1,-148 1,-142 7,-136 13,-136"/>
<text text-anchor="middle" x="30.5" y="-190.4" font-family="Arial" font-size="12.00" fill="#000000">Control</text>
<text text-anchor="middle" x="30.5" y="-177.4" font-family="Arial" font-size="12.00" fill="#000000">(control)</text>
<polyline fill="none" stroke="#000000" stroke-width="2" points="1,-170 60,-170 "/>
<text text-anchor="middle" x="30.5" y="-156.4" font-family="Arial" font-size="12.00" fill="#000000">frequency:</text>
<text text-anchor="middle" x="30.5" y="-143.4" font-family="Arial" font-size="12.00" fill="#000000">440.0</text>
</g>
<!-- ugen_3 -->
<g id="node4" class="node">
<title>ugen_3</title>
<path fill="#bcd2ee" stroke="#000000" stroke-width="2" d="M149.5,-108.5C149.5,-108.5 203.5,-108.5 203.5,-108.5 209.5,-108.5 215.5,-114.5 215.5,-120.5 215.5,-120.5 215.5,-185.5 215.5,-185.5 215.5,-191.5 209.5,-197.5 203.5,-197.5 203.5,-197.5 149.5,-197.5 149.5,-197.5 143.5,-197.5 137.5,-191.5 137.5,-185.5 137.5,-185.5 137.5,-120.5 137.5,-120.5 137.5,-114.5 143.5,-108.5 149.5,-108.5"/>
<text text-anchor="middle" x="176.5" y="-183.9" font-family="Arial" font-size="12.00" fill="#000000">SinOsc</text>
<text text-anchor="middle" x="176.5" y="-170.9" font-family="Arial" font-size="12.00" fill="#000000">(audio)</text>
<polyline fill="none" stroke="#000000" stroke-width="2" points="137.5,-163.5 215.5,-163.5 "/>
<text text-anchor="middle" x="165.5" y="-149.9" font-family="Arial" font-size="12.00" fill="#000000">frequency</text>
<polyline fill="none" stroke="#000000" stroke-width="2" points="137.5,-142.5 193.5,-142.5 "/>
<text text-anchor="middle" x="165.5" y="-128.9" font-family="Arial" font-size="12.00" fill="#000000">phase:</text>
<text text-anchor="middle" x="165.5" y="-115.9" font-family="Arial" font-size="12.00" fill="#000000">0.0</text>
<polyline fill="none" stroke="#000000" stroke-width="2" points="193.5,-108.5 193.5,-163.5 "/>
<text text-anchor="middle" x="204.5" y="-132.9" font-family="Arial" font-size="12.00" fill="#000000">0</text>
</g>
<!-- ugen_4 -->
<g id="node5" class="node">
<title>ugen_4</title>
<path fill="#bcd2ee" stroke="#000000" stroke-width="2" d="M304,-60.5C304,-60.5 376,-60.5 376,-60.5 382,-60.5 388,-66.5 388,-72.5 388,-72.5 388,-137.5 388,-137.5 388,-143.5 382,-149.5 376,-149.5 376,-149.5 304,-149.5 304,-149.5 298,-149.5 292,-143.5 292,-137.5 292,-137.5 292,-72.5 292,-72.5 292,-66.5 298,-60.5 304,-60.5"/>
<text text-anchor="middle" x="340" y="-135.9" font-family="Arial" font-size="12.00" fill="#000000">BinaryOpUGen</text>
<text text-anchor="middle" x="340" y="-122.9" font-family="Arial" font-size="12.00" fill="#000000">[MULTIPLICATION]</text>
<text text-anchor="middle" x="340" y="-109.9" font-family="Arial" font-size="12.00" fill="#000000">(audio)</text>
<polyline fill="none" stroke="#000000" stroke-width="2" points="292,-102.5 388,-102.5 "/>
<text text-anchor="middle" x="319" y="-88.9" font-family="Arial" font-size="12.00" fill="#000000">left</text>
<polyline fill="none" stroke="#000000" stroke-width="2" points="292,-81.5 346,-81.5 "/>
<text text-anchor="middle" x="319" y="-67.9" font-family="Arial" font-size="12.00" fill="#000000">right</text>
<polyline fill="none" stroke="#000000" stroke-width="2" points="346,-60.5 346,-102.5 "/>
<text text-anchor="middle" x="367" y="-78.4" font-family="Arial" font-size="12.00" fill="#000000">0</text>
</g>
<!-- ugen_5 -->
<g id="node6" class="node">
<title>ugen_5</title>
<path fill="#bcd2ee" stroke="#000000" stroke-width="2" d="M472,-70.5C472,-70.5 502,-70.5 502,-70.5 508,-70.5 514,-76.5 514,-82.5 514,-82.5 514,-147.5 514,-147.5 514,-153.5 508,-159.5 502,-159.5 502,-159.5 472,-159.5 472,-159.5 466,-159.5 460,-153.5 460,-147.5 460,-147.5 460,-82.5 460,-82.5 460,-76.5 466,-70.5 472,-70.5"/>
<text text-anchor="middle" x="487" y="-145.9" font-family="Arial" font-size="12.00" fill="#000000">Out</text>
<text text-anchor="middle" x="487" y="-132.9" font-family="Arial" font-size="12.00" fill="#000000">(audio)</text>
<polyline fill="none" stroke="#000000" stroke-width="2" points="460,-125.5 514,-125.5 "/>
<text text-anchor="middle" x="487" y="-111.9" font-family="Arial" font-size="12.00" fill="#000000">bus:</text>
<text text-anchor="middle" x="487" y="-98.9" font-family="Arial" font-size="12.00" fill="#000000">0.0</text>
<polyline fill="none" stroke="#000000" stroke-width="2" points="460,-91.5 514,-91.5 "/>
<text text-anchor="middle" x="487" y="-77.9" font-family="Arial" font-size="12.00" fill="#000000">source</text>
</g>
</g>
</svg>
