<?xml version="1.0" encoding="UTF-8" standalone="no"?>
<!DOCTYPE svg PUBLIC "-//W3C//DTD SVG 1.1//EN"
 "http://www.w3.org/Graphics/SVG/1.1/DTD/svg11.dtd">
<!-- Generated by graphviz version 2.44.1 (20200629.0846)
 -->
<!-- Title: synthdef_ef2c11e55da5af28e2ae77c5c8934f3d Pages: 1 -->
<svg width="70pt" height="77pt"
 viewBox="0.00 0.00 70.00 77.00" xmlns="http://www.w3.org/2000/svg" xmlns:xlink="http://www.w3.org/1999/xlink">
<g id="graph0" class="graph" transform="scale(1 1) rotate(0) translate(4 73)">
<title>synthdef_ef2c11e55da5af28e2ae77c5c8934f3d</title>
<!-- ugen_0 -->
<g id="node1" class="node">
<title>ugen_0</title>
<path fill="#eedc82" stroke="black" stroke-width="2" d="M12,-0.5C12,-0.5 50,-0.5 50,-0.5 56,-0.5 62,-6.5 62,-12.5 62,-12.5 62,-56.5 62,-56.5 62,-62.5 56,-68.5 50,-68.5 50,-68.5 12,-68.5 12,-68.5 6,-68.5 0,-62.5 0,-56.5 0,-56.5 0,-12.5 0,-12.5 0,-6.5 6,-0.5 12,-0.5"/>
<text text-anchor="middle" x="31" y="-54.9" font-family="Arial" font-size="12.00">In</text>
<text text-anchor="middle" x="31" y="-41.9" font-family="Arial" font-size="12.00">(control)</text>
<polyline fill="none" stroke="black" stroke-width="2" points="0,-34.5 62,-34.5 "/>
<text text-anchor="middle" x="19.5" y="-20.9" font-family="Arial" font-size="12.00">bus:</text>
<text text-anchor="middle" x="19.5" y="-7.9" font-family="Arial" font-size="12.00">8.0</text>
<polyline fill="none" stroke="black" stroke-width="2" points="39,-0.5 39,-34.5 "/>
<text text-anchor="middle" x="50.5" y="-14.4" font-family="Arial" font-size="12.00">0</text>
</g>
</g>
</svg>
