<?xml version="1.0" encoding="UTF-8" standalone="no"?>
<!DOCTYPE svg PUBLIC "-//W3C//DTD SVG 1.1//EN"
 "http://www.w3.org/Graphics/SVG/1.1/DTD/svg11.dtd">
<!-- Generated by graphviz version 2.43.0 (0)
 -->
<!-- Title: synthdef_f73a7b56a8c5dd1b3f492734e43f806d Pages: 1 -->
<svg width="273pt" height="353pt"
 viewBox="0.00 0.00 273.00 353.00" xmlns="http://www.w3.org/2000/svg" xmlns:xlink="http://www.w3.org/1999/xlink">
<g id="graph0" class="graph" transform="scale(1 1) rotate(0) translate(4 349)">
<title>synthdef_f73a7b56a8c5dd1b3f492734e43f806d</title>
<!-- ugen_0&#45;&gt;ugen_1 -->
<g id="edge1" class="edge">
<title>ugen_0:e&#45;&gt;ugen_1:w</title>
<path fill="none" stroke="steelblue" stroke-width="2" d="M95,-70.5C133.17,-70.5 126.76,-121.03 156.92,-130.11"/>
<polygon fill="steelblue" stroke="steelblue" stroke-width="2" points="156.62,-133.6 167,-131.5 157.57,-126.67 156.62,-133.6"/>
</g>
<!-- ugen_0&#45;&gt;ugen_2 -->
<g id="edge2" class="edge">
<title>ugen_0:e&#45;&gt;ugen_2:w</title>
<path fill="none" stroke="steelblue" stroke-width="2" d="M95,-70.5C132.91,-70.5 126.95,-20.8 156.98,-11.87"/>
<polygon fill="steelblue" stroke="steelblue" stroke-width="2" points="157.56,-15.32 167,-10.5 156.62,-8.38 157.56,-15.32"/>
</g>
<!-- ugen_3&#45;&gt;ugen_4 -->
<g id="edge3" class="edge">
<title>ugen_3:e&#45;&gt;ugen_4:w</title>
<path fill="none" stroke="steelblue" stroke-width="2" d="M95,-252.5C123.38,-252.5 132.88,-252.5 156.98,-252.5"/>
<polygon fill="steelblue" stroke="steelblue" stroke-width="2" points="157,-256 167,-252.5 157,-249 157,-256"/>
</g>
<!-- ugen_0 -->
<g id="node1" class="node">
<title>ugen_0</title>
<path fill="#bcd2ee" stroke="black" stroke-width="2" d="M12,-36.5C12,-36.5 83,-36.5 83,-36.5 89,-36.5 95,-42.5 95,-48.5 95,-48.5 95,-126.5 95,-126.5 95,-132.5 89,-138.5 83,-138.5 83,-138.5 12,-138.5 12,-138.5 6,-138.5 0,-132.5 0,-126.5 0,-126.5 0,-48.5 0,-48.5 0,-42.5 6,-36.5 12,-36.5"/>
<text text-anchor="middle" x="47.5" y="-124.9" font-family="Arial" font-size="12.00">SinOsc</text>
<text text-anchor="middle" x="47.5" y="-111.9" font-family="Arial" font-size="12.00">(audio)</text>
<polyline fill="none" stroke="black" stroke-width="2" points="0,-104.5 95,-104.5 "/>
<text text-anchor="middle" x="36" y="-90.9" font-family="Arial" font-size="12.00">frequency:</text>
<text text-anchor="middle" x="36" y="-77.9" font-family="Arial" font-size="12.00">440.0</text>
<polyline fill="none" stroke="black" stroke-width="2" points="0,-70.5 72,-70.5 "/>
<text text-anchor="middle" x="36" y="-56.9" font-family="Arial" font-size="12.00">phase:</text>
<text text-anchor="middle" x="36" y="-43.9" font-family="Arial" font-size="12.00">0.0</text>
<polyline fill="none" stroke="black" stroke-width="2" points="72,-36.5 72,-104.5 "/>
<text text-anchor="middle" x="83.5" y="-67.4" font-family="Arial" font-size="12.00">0</text>
</g>
<!-- ugen_1 -->
<g id="node2" class="node">
<title>ugen_1</title>
<path fill="#bcd2ee" stroke="black" stroke-width="2" d="M179,-121.5C179,-121.5 253,-121.5 253,-121.5 259,-121.5 265,-127.5 265,-133.5 265,-133.5 265,-211.5 265,-211.5 265,-217.5 259,-223.5 253,-223.5 253,-223.5 179,-223.5 179,-223.5 173,-223.5 167,-217.5 167,-211.5 167,-211.5 167,-133.5 167,-133.5 167,-127.5 173,-121.5 179,-121.5"/>
<text text-anchor="middle" x="216" y="-209.9" font-family="Arial" font-size="12.00">BinaryOpUGen</text>
<text text-anchor="middle" x="216" y="-196.9" font-family="Arial" font-size="12.00">[BITWISE_OR]</text>
<text text-anchor="middle" x="216" y="-183.9" font-family="Arial" font-size="12.00">(audio)</text>
<polyline fill="none" stroke="black" stroke-width="2" points="167,-176.5 265,-176.5 "/>
<text text-anchor="middle" x="195.5" y="-162.9" font-family="Arial" font-size="12.00">left:</text>
<text text-anchor="middle" x="195.5" y="-149.9" font-family="Arial" font-size="12.00">1.0</text>
<polyline fill="none" stroke="black" stroke-width="2" points="167,-142.5 224,-142.5 "/>
<text text-anchor="middle" x="195.5" y="-128.9" font-family="Arial" font-size="12.00">right</text>
<polyline fill="none" stroke="black" stroke-width="2" points="224,-121.5 224,-176.5 "/>
<text text-anchor="middle" x="244.5" y="-145.9" font-family="Arial" font-size="12.00">0</text>
</g>
<!-- ugen_2 -->
<g id="node3" class="node">
<title>ugen_2</title>
<path fill="#bcd2ee" stroke="black" stroke-width="2" d="M179,-0.5C179,-0.5 253,-0.5 253,-0.5 259,-0.5 265,-6.5 265,-12.5 265,-12.5 265,-90.5 265,-90.5 265,-96.5 259,-102.5 253,-102.5 253,-102.5 179,-102.5 179,-102.5 173,-102.5 167,-96.5 167,-90.5 167,-90.5 167,-12.5 167,-12.5 167,-6.5 173,-0.5 179,-0.5"/>
<text text-anchor="middle" x="216" y="-88.9" font-family="Arial" font-size="12.00">BinaryOpUGen</text>
<text text-anchor="middle" x="216" y="-75.9" font-family="Arial" font-size="12.00">[BITWISE_OR]</text>
<text text-anchor="middle" x="216" y="-62.9" font-family="Arial" font-size="12.00">(audio)</text>
<polyline fill="none" stroke="black" stroke-width="2" points="167,-55.5 265,-55.5 "/>
<text text-anchor="middle" x="195.5" y="-41.9" font-family="Arial" font-size="12.00">left:</text>
<text text-anchor="middle" x="195.5" y="-28.9" font-family="Arial" font-size="12.00">3.0</text>
<polyline fill="none" stroke="black" stroke-width="2" points="167,-21.5 224,-21.5 "/>
<text text-anchor="middle" x="195.5" y="-7.9" font-family="Arial" font-size="12.00">right</text>
<polyline fill="none" stroke="black" stroke-width="2" points="224,-0.5 224,-55.5 "/>
<text text-anchor="middle" x="244.5" y="-24.9" font-family="Arial" font-size="12.00">0</text>
</g>
<!-- ugen_3 -->
<g id="node4" class="node">
<title>ugen_3</title>
<path fill="#bcd2ee" stroke="black" stroke-width="2" d="M12,-218.5C12,-218.5 83,-218.5 83,-218.5 89,-218.5 95,-224.5 95,-230.5 95,-230.5 95,-308.5 95,-308.5 95,-314.5 89,-320.5 83,-320.5 83,-320.5 12,-320.5 12,-320.5 6,-320.5 0,-314.5 0,-308.5 0,-308.5 0,-230.5 0,-230.5 0,-224.5 6,-218.5 12,-218.5"/>
<text text-anchor="middle" x="47.5" y="-306.9" font-family="Arial" font-size="12.00">SinOsc</text>
<text text-anchor="middle" x="47.5" y="-293.9" font-family="Arial" font-size="12.00">(audio)</text>
<polyline fill="none" stroke="black" stroke-width="2" points="0,-286.5 95,-286.5 "/>
<text text-anchor="middle" x="36" y="-272.9" font-family="Arial" font-size="12.00">frequency:</text>
<text text-anchor="middle" x="36" y="-259.9" font-family="Arial" font-size="12.00">443.0</text>
<polyline fill="none" stroke="black" stroke-width="2" points="0,-252.5 72,-252.5 "/>
<text text-anchor="middle" x="36" y="-238.9" font-family="Arial" font-size="12.00">phase:</text>
<text text-anchor="middle" x="36" y="-225.9" font-family="Arial" font-size="12.00">0.0</text>
<polyline fill="none" stroke="black" stroke-width="2" points="72,-218.5 72,-286.5 "/>
<text text-anchor="middle" x="83.5" y="-249.4" font-family="Arial" font-size="12.00">0</text>
</g>
<!-- ugen_4 -->
<g id="node5" class="node">
<title>ugen_4</title>
<path fill="#bcd2ee" stroke="black" stroke-width="2" d="M179,-242.5C179,-242.5 253,-242.5 253,-242.5 259,-242.5 265,-248.5 265,-254.5 265,-254.5 265,-332.5 265,-332.5 265,-338.5 259,-344.5 253,-344.5 253,-344.5 179,-344.5 179,-344.5 173,-344.5 167,-338.5 167,-332.5 167,-332.5 167,-254.5 167,-254.5 167,-248.5 173,-242.5 179,-242.5"/>
<text text-anchor="middle" x="216" y="-330.9" font-family="Arial" font-size="12.00">BinaryOpUGen</text>
<text text-anchor="middle" x="216" y="-317.9" font-family="Arial" font-size="12.00">[BITWISE_OR]</text>
<text text-anchor="middle" x="216" y="-304.9" font-family="Arial" font-size="12.00">(audio)</text>
<polyline fill="none" stroke="black" stroke-width="2" points="167,-297.5 265,-297.5 "/>
<text text-anchor="middle" x="195.5" y="-283.9" font-family="Arial" font-size="12.00">left:</text>
<text text-anchor="middle" x="195.5" y="-270.9" font-family="Arial" font-size="12.00">2.0</text>
<polyline fill="none" stroke="black" stroke-width="2" points="167,-263.5 224,-263.5 "/>
<text text-anchor="middle" x="195.5" y="-249.9" font-family="Arial" font-size="12.00">right</text>
<polyline fill="none" stroke="black" stroke-width="2" points="224,-242.5 224,-297.5 "/>
<text text-anchor="middle" x="244.5" y="-266.9" font-family="Arial" font-size="12.00">0</text>
</g>
</g>
</svg>
