<?xml version="1.0" encoding="UTF-8" standalone="no"?>
<!DOCTYPE svg PUBLIC "-//W3C//DTD SVG 1.1//EN"
 "http://www.w3.org/Graphics/SVG/1.1/DTD/svg11.dtd">
<!-- Generated by graphviz version 2.49.1 (20210923.0004)
 -->
<!-- Title: synthdef_9c4eb4778dc0faf39459fa8a5cd45c19 Pages: 1 -->
<svg width="371pt" height="115pt"
 viewBox="0.00 0.00 371.00 115.00" xmlns="http://www.w3.org/2000/svg" xmlns:xlink="http://www.w3.org/1999/xlink">
<g id="graph0" class="graph" transform="scale(1 1) rotate(0) translate(4 111)">
<title>synthdef_9c4eb4778dc0faf39459fa8a5cd45c19</title>
<!-- ugen_0&#45;&gt;ugen_1 -->
<g id="edge1" class="edge">
<title>ugen_0:e&#45;&gt;ugen_1:w</title>
<path fill="none" stroke="goldenrod" stroke-width="2" d="M73,-45C101.38,-45 110.88,-45 134.98,-45"/>
<polygon fill="goldenrod" stroke="goldenrod" stroke-width="2" points="135,-48.5 145,-45 135,-41.5 135,-48.5"/>
</g>
<!-- ugen_1&#45;&gt;ugen_2 -->
<g id="edge2" class="edge">
<title>ugen_1:e&#45;&gt;ugen_2:w</title>
<path fill="none" stroke="steelblue" stroke-width="2" d="M237,-28C265.38,-28 274.88,-28 298.98,-28"/>
<polygon fill="steelblue" stroke="steelblue" stroke-width="2" points="299,-31.5 309,-28 299,-24.5 299,-31.5"/>
</g>
<!-- ugen_0 -->
<g id="node1" class="node">
<title>ugen_0</title>
<path fill="#eedc82" stroke="black" stroke-width="2" d="M12,-28C12,-28 61,-28 61,-28 67,-28 73,-34 73,-40 73,-40 73,-84 73,-84 73,-90 67,-96 61,-96 61,-96 12,-96 12,-96 6,-96 0,-90 0,-84 0,-84 0,-40 0,-40 0,-34 6,-28 12,-28"/>
<text text-anchor="middle" x="36.5" y="-82.4" font-family="Arial" font-size="12.00">Control</text>
<text text-anchor="middle" x="36.5" y="-69.4" font-family="Arial" font-size="12.00">(control)</text>
<polyline fill="none" stroke="black" stroke-width="2" points="0,-62 73,-62 "/>
<text text-anchor="middle" x="36.5" y="-48.4" font-family="Arial" font-size="12.00">frequency:</text>
<text text-anchor="middle" x="36.5" y="-35.4" font-family="Arial" font-size="12.00">440.0</text>
</g>
<!-- ugen_1 -->
<g id="node2" class="node">
<title>ugen_1</title>
<path fill="#bcd2ee" stroke="black" stroke-width="2" d="M157,-0.5C157,-0.5 225,-0.5 225,-0.5 231,-0.5 237,-6.5 237,-12.5 237,-12.5 237,-77.5 237,-77.5 237,-83.5 231,-89.5 225,-89.5 225,-89.5 157,-89.5 157,-89.5 151,-89.5 145,-83.5 145,-77.5 145,-77.5 145,-12.5 145,-12.5 145,-6.5 151,-0.5 157,-0.5"/>
<text text-anchor="middle" x="191" y="-75.9" font-family="Arial" font-size="12.00">SinOsc</text>
<text text-anchor="middle" x="191" y="-62.9" font-family="Arial" font-size="12.00">(audio)</text>
<polyline fill="none" stroke="black" stroke-width="2" points="145,-55.5 237,-55.5 "/>
<text text-anchor="middle" x="179.5" y="-41.9" font-family="Arial" font-size="12.00">frequency</text>
<polyline fill="none" stroke="black" stroke-width="2" points="145,-34.5 214,-34.5 "/>
<text text-anchor="middle" x="179.5" y="-20.9" font-family="Arial" font-size="12.00">phase:</text>
<text text-anchor="middle" x="179.5" y="-7.9" font-family="Arial" font-size="12.00">0.0</text>
<polyline fill="none" stroke="black" stroke-width="2" points="214,-0.5 214,-55.5 "/>
<text text-anchor="middle" x="225.5" y="-24.9" font-family="Arial" font-size="12.00">0</text>
</g>
<!-- ugen_2 -->
<g id="node3" class="node">
<title>ugen_2</title>
<path fill="#bcd2ee" stroke="black" stroke-width="2" d="M321,-17.5C321,-17.5 351,-17.5 351,-17.5 357,-17.5 363,-23.5 363,-29.5 363,-29.5 363,-94.5 363,-94.5 363,-100.5 357,-106.5 351,-106.5 351,-106.5 321,-106.5 321,-106.5 315,-106.5 309,-100.5 309,-94.5 309,-94.5 309,-29.5 309,-29.5 309,-23.5 315,-17.5 321,-17.5"/>
<text text-anchor="middle" x="336" y="-92.9" font-family="Arial" font-size="12.00">Out</text>
<text text-anchor="middle" x="336" y="-79.9" font-family="Arial" font-size="12.00">(audio)</text>
<polyline fill="none" stroke="black" stroke-width="2" points="309,-72.5 363,-72.5 "/>
<text text-anchor="middle" x="336" y="-58.9" font-family="Arial" font-size="12.00">bus:</text>
<text text-anchor="middle" x="336" y="-45.9" font-family="Arial" font-size="12.00">0.0</text>
<polyline fill="none" stroke="black" stroke-width="2" points="309,-38.5 363,-38.5 "/>
<text text-anchor="middle" x="336" y="-24.9" font-family="Arial" font-size="12.00">source</text>
</g>
</g>
</svg>
