<?xml version="1.0" encoding="UTF-8" standalone="no"?>
<!DOCTYPE svg PUBLIC "-//W3C//DTD SVG 1.1//EN"
 "http://www.w3.org/Graphics/SVG/1.1/DTD/svg11.dtd">
<!-- Generated by graphviz version 2.40.1 (20161225.0304)
 -->
<!-- Title: synthdef_test Pages: 1 -->
<svg width="365pt" height="232pt"
 viewBox="0.00 0.00 365.00 232.00" xmlns="http://www.w3.org/2000/svg" xmlns:xlink="http://www.w3.org/1999/xlink">
<g id="graph0" class="graph" transform="scale(1 1) rotate(0) translate(4 228)">
<title>synthdef_test</title>
<!-- ugen_0&#45;&gt;ugen_2 -->
<g id="edge1" class="edge">
<title>ugen_0:e&#45;&gt;ugen_2:w</title>
<path fill="none" stroke="#4682b4" stroke-width="2" d="M81,-155.5C116.1547,-155.5 114.7687,-114.7888 142.7865,-106.8374"/>
<polygon fill="#4682b4" stroke="#4682b4" stroke-width="2" points="143.5391,-110.2688 153,-105.5 142.6302,-103.3281 143.5391,-110.2688"/>
</g>
<!-- ugen_1&#45;&gt;ugen_2 -->
<g id="edge2" class="edge">
<title>ugen_1:e&#45;&gt;ugen_2:w</title>
<path fill="none" stroke="#4682b4" stroke-width="2" d="M81,-34.5C116.1547,-34.5 114.7687,-75.2112 142.7865,-83.1626"/>
<polygon fill="#4682b4" stroke="#4682b4" stroke-width="2" points="142.6302,-86.6719 153,-84.5 143.5391,-79.7312 142.6302,-86.6719"/>
</g>
<!-- ugen_2&#45;&gt;ugen_3 -->
<g id="edge3" class="edge">
<title>ugen_2:e&#45;&gt;ugen_3:w</title>
<path fill="none" stroke="#4682b4" stroke-width="2" d="M231,-94.5C259.375,-94.5 268.8795,-94.5 292.9792,-94.5"/>
<polygon fill="#4682b4" stroke="#4682b4" stroke-width="2" points="293,-98.0001 303,-94.5 293,-91.0001 293,-98.0001"/>
</g>
<!-- ugen_0 -->
<g id="node1" class="node">
<title>ugen_0</title>
<path fill="#bcd2ee" stroke="#000000" stroke-width="2" d="M12,-121.5C12,-121.5 69,-121.5 69,-121.5 75,-121.5 81,-127.5 81,-133.5 81,-133.5 81,-211.5 81,-211.5 81,-217.5 75,-223.5 69,-223.5 69,-223.5 12,-223.5 12,-223.5 6,-223.5 0,-217.5 0,-211.5 0,-211.5 0,-133.5 0,-133.5 0,-127.5 6,-121.5 12,-121.5"/>
<text text-anchor="middle" x="40.5" y="-209.9" font-family="Arial" font-size="12.00" fill="#000000">SinOsc</text>
<text text-anchor="middle" x="40.5" y="-196.9" font-family="Arial" font-size="12.00" fill="#000000">(audio)</text>
<polyline fill="none" stroke="#000000" stroke-width="2" points="0,-189.5 81,-189.5 "/>
<text text-anchor="middle" x="29.5" y="-175.9" font-family="Arial" font-size="12.00" fill="#000000">frequency:</text>
<text text-anchor="middle" x="29.5" y="-162.9" font-family="Arial" font-size="12.00" fill="#000000">440.0</text>
<polyline fill="none" stroke="#000000" stroke-width="2" points="0,-155.5 59,-155.5 "/>
<text text-anchor="middle" x="29.5" y="-141.9" font-family="Arial" font-size="12.00" fill="#000000">phase:</text>
<text text-anchor="middle" x="29.5" y="-128.9" font-family="Arial" font-size="12.00" fill="#000000">0.0</text>
<polyline fill="none" stroke="#000000" stroke-width="2" points="59,-121.5 59,-189.5 "/>
<text text-anchor="middle" x="70" y="-152.4" font-family="Arial" font-size="12.00" fill="#000000">0</text>
</g>
<!-- ugen_1 -->
<g id="node2" class="node">
<title>ugen_1</title>
<path fill="#bcd2ee" stroke="#000000" stroke-width="2" d="M12,-.5C12,-.5 69,-.5 69,-.5 75,-.5 81,-6.5 81,-12.5 81,-12.5 81,-90.5 81,-90.5 81,-96.5 75,-102.5 69,-102.5 69,-102.5 12,-102.5 12,-102.5 6,-102.5 0,-96.5 0,-90.5 0,-90.5 0,-12.5 0,-12.5 0,-6.5 6,-.5 12,-.5"/>
<text text-anchor="middle" x="40.5" y="-88.9" font-family="Arial" font-size="12.00" fill="#000000">SinOsc</text>
<text text-anchor="middle" x="40.5" y="-75.9" font-family="Arial" font-size="12.00" fill="#000000">(audio)</text>
<polyline fill="none" stroke="#000000" stroke-width="2" points="0,-68.5 81,-68.5 "/>
<text text-anchor="middle" x="29.5" y="-54.9" font-family="Arial" font-size="12.00" fill="#000000">frequency:</text>
<text text-anchor="middle" x="29.5" y="-41.9" font-family="Arial" font-size="12.00" fill="#000000">443.0</text>
<polyline fill="none" stroke="#000000" stroke-width="2" points="0,-34.5 59,-34.5 "/>
<text text-anchor="middle" x="29.5" y="-20.9" font-family="Arial" font-size="12.00" fill="#000000">phase:</text>
<text text-anchor="middle" x="29.5" y="-7.9" font-family="Arial" font-size="12.00" fill="#000000">0.0</text>
<polyline fill="none" stroke="#000000" stroke-width="2" points="59,-.5 59,-68.5 "/>
<text text-anchor="middle" x="70" y="-31.4" font-family="Arial" font-size="12.00" fill="#000000">0</text>
</g>
<!-- ugen_2 -->
<g id="node3" class="node">
<title>ugen_2</title>
<path fill="#bcd2ee" stroke="#000000" stroke-width="2" d="M165,-74C165,-74 219,-74 219,-74 225,-74 231,-80 231,-86 231,-86 231,-151 231,-151 231,-157 225,-163 219,-163 219,-163 165,-163 165,-163 159,-163 153,-157 153,-151 153,-151 153,-86 153,-86 153,-80 159,-74 165,-74"/>
<text text-anchor="middle" x="192" y="-149.4" font-family="Arial" font-size="12.00" fill="#000000">BinaryOpUGen</text>
<text text-anchor="middle" x="192" y="-136.4" font-family="Arial" font-size="12.00" fill="#000000">[ADDITION]</text>
<text text-anchor="middle" x="192" y="-123.4" font-family="Arial" font-size="12.00" fill="#000000">(audio)</text>
<polyline fill="none" stroke="#000000" stroke-width="2" points="153,-116 231,-116 "/>
<text text-anchor="middle" x="175.5" y="-102.4" font-family="Arial" font-size="12.00" fill="#000000">left</text>
<polyline fill="none" stroke="#000000" stroke-width="2" points="153,-95 198,-95 "/>
<text text-anchor="middle" x="175.5" y="-81.4" font-family="Arial" font-size="12.00" fill="#000000">right</text>
<polyline fill="none" stroke="#000000" stroke-width="2" points="198,-74 198,-116 "/>
<text text-anchor="middle" x="214.5" y="-91.9" font-family="Arial" font-size="12.00" fill="#000000">0</text>
</g>
<!-- ugen_3 -->
<g id="node4" class="node">
<title>ugen_3</title>
<path fill="#bcd2ee" stroke="#000000" stroke-width="2" d="M315,-84C315,-84 345,-84 345,-84 351,-84 357,-90 357,-96 357,-96 357,-161 357,-161 357,-167 351,-173 345,-173 345,-173 315,-173 315,-173 309,-173 303,-167 303,-161 303,-161 303,-96 303,-96 303,-90 309,-84 315,-84"/>
<text text-anchor="middle" x="330" y="-159.4" font-family="Arial" font-size="12.00" fill="#000000">Out</text>
<text text-anchor="middle" x="330" y="-146.4" font-family="Arial" font-size="12.00" fill="#000000">(audio)</text>
<polyline fill="none" stroke="#000000" stroke-width="2" points="303,-139 357,-139 "/>
<text text-anchor="middle" x="330" y="-125.4" font-family="Arial" font-size="12.00" fill="#000000">bus:</text>
<text text-anchor="middle" x="330" y="-112.4" font-family="Arial" font-size="12.00" fill="#000000">0.0</text>
<polyline fill="none" stroke="#000000" stroke-width="2" points="303,-105 357,-105 "/>
<text text-anchor="middle" x="330" y="-91.4" font-family="Arial" font-size="12.00" fill="#000000">source</text>
</g>
</g>
</svg>
