<?xml version="1.0" encoding="UTF-8" standalone="no"?>
<!DOCTYPE svg PUBLIC "-//W3C//DTD SVG 1.1//EN"
 "http://www.w3.org/Graphics/SVG/1.1/DTD/svg11.dtd">
<!-- Generated by graphviz version 2.49.1 (20210923.0004)
 -->
<!-- Title: synthdef_a1d26283f87b8b445db982ff0e831fb7 Pages: 1 -->
<svg width="276pt" height="353pt"
 viewBox="0.00 0.00 276.00 353.00" xmlns="http://www.w3.org/2000/svg" xmlns:xlink="http://www.w3.org/1999/xlink">
<g id="graph0" class="graph" transform="scale(1 1) rotate(0) translate(4 349)">
<title>synthdef_a1d26283f87b8b445db982ff0e831fb7</title>
<!-- ugen_0&#45;&gt;ugen_3 -->
<g id="edge1" class="edge">
<title>ugen_0:e&#45;&gt;ugen_3:w</title>
<path fill="none" stroke="steelblue" stroke-width="2" d="M96,-276.5C147.02,-276.5 117.93,-189.7 158,-177.84"/>
<polygon fill="steelblue" stroke="steelblue" stroke-width="2" points="158.55,-181.3 168,-176.5 157.62,-174.36 158.55,-181.3"/>
</g>
<!-- ugen_1&#45;&gt;ugen_3 -->
<g id="edge2" class="edge">
<title>ugen_1:e&#45;&gt;ugen_3:w</title>
<path fill="none" stroke="steelblue" stroke-width="2" d="M96,-155.5C124.38,-155.5 133.88,-155.5 157.98,-155.5"/>
<polygon fill="steelblue" stroke="steelblue" stroke-width="2" points="158,-159 168,-155.5 158,-152 158,-159"/>
</g>
<!-- ugen_2&#45;&gt;ugen_3 -->
<g id="edge3" class="edge">
<title>ugen_2:e&#45;&gt;ugen_3:w</title>
<path fill="none" stroke="steelblue" stroke-width="2" d="M96,-34.5C147.02,-34.5 117.93,-121.3 158,-133.16"/>
<polygon fill="steelblue" stroke="steelblue" stroke-width="2" points="157.62,-136.64 168,-134.5 158.55,-129.7 157.62,-136.64"/>
</g>
<!-- ugen_0 -->
<g id="node1" class="node">
<title>ugen_0</title>
<path fill="#bcd2ee" stroke="black" stroke-width="2" d="M12,-242.5C12,-242.5 84,-242.5 84,-242.5 90,-242.5 96,-248.5 96,-254.5 96,-254.5 96,-332.5 96,-332.5 96,-338.5 90,-344.5 84,-344.5 84,-344.5 12,-344.5 12,-344.5 6,-344.5 0,-338.5 0,-332.5 0,-332.5 0,-254.5 0,-254.5 0,-248.5 6,-242.5 12,-242.5"/>
<text text-anchor="middle" x="48" y="-330.9" font-family="Arial" font-size="12.00">SinOsc</text>
<text text-anchor="middle" x="48" y="-317.9" font-family="Arial" font-size="12.00">(audio)</text>
<polyline fill="none" stroke="black" stroke-width="2" points="0,-310.5 96,-310.5 "/>
<text text-anchor="middle" x="36.5" y="-296.9" font-family="Arial" font-size="12.00">frequency:</text>
<text text-anchor="middle" x="36.5" y="-283.9" font-family="Arial" font-size="12.00">440.0</text>
<polyline fill="none" stroke="black" stroke-width="2" points="0,-276.5 73,-276.5 "/>
<text text-anchor="middle" x="36.5" y="-262.9" font-family="Arial" font-size="12.00">phase:</text>
<text text-anchor="middle" x="36.5" y="-249.9" font-family="Arial" font-size="12.00">0.0</text>
<polyline fill="none" stroke="black" stroke-width="2" points="73,-242.5 73,-310.5 "/>
<text text-anchor="middle" x="84.5" y="-273.4" font-family="Arial" font-size="12.00">0</text>
</g>
<!-- ugen_1 -->
<g id="node2" class="node">
<title>ugen_1</title>
<path fill="#bcd2ee" stroke="black" stroke-width="2" d="M12,-121.5C12,-121.5 84,-121.5 84,-121.5 90,-121.5 96,-127.5 96,-133.5 96,-133.5 96,-211.5 96,-211.5 96,-217.5 90,-223.5 84,-223.5 84,-223.5 12,-223.5 12,-223.5 6,-223.5 0,-217.5 0,-211.5 0,-211.5 0,-133.5 0,-133.5 0,-127.5 6,-121.5 12,-121.5"/>
<text text-anchor="middle" x="48" y="-209.9" font-family="Arial" font-size="12.00">SinOsc</text>
<text text-anchor="middle" x="48" y="-196.9" font-family="Arial" font-size="12.00">(audio)</text>
<polyline fill="none" stroke="black" stroke-width="2" points="0,-189.5 96,-189.5 "/>
<text text-anchor="middle" x="36.5" y="-175.9" font-family="Arial" font-size="12.00">frequency:</text>
<text text-anchor="middle" x="36.5" y="-162.9" font-family="Arial" font-size="12.00">442.0</text>
<polyline fill="none" stroke="black" stroke-width="2" points="0,-155.5 73,-155.5 "/>
<text text-anchor="middle" x="36.5" y="-141.9" font-family="Arial" font-size="12.00">phase:</text>
<text text-anchor="middle" x="36.5" y="-128.9" font-family="Arial" font-size="12.00">0.0</text>
<polyline fill="none" stroke="black" stroke-width="2" points="73,-121.5 73,-189.5 "/>
<text text-anchor="middle" x="84.5" y="-152.4" font-family="Arial" font-size="12.00">0</text>
</g>
<!-- ugen_2 -->
<g id="node3" class="node">
<title>ugen_2</title>
<path fill="#bcd2ee" stroke="black" stroke-width="2" d="M12,-0.5C12,-0.5 84,-0.5 84,-0.5 90,-0.5 96,-6.5 96,-12.5 96,-12.5 96,-90.5 96,-90.5 96,-96.5 90,-102.5 84,-102.5 84,-102.5 12,-102.5 12,-102.5 6,-102.5 0,-96.5 0,-90.5 0,-90.5 0,-12.5 0,-12.5 0,-6.5 6,-0.5 12,-0.5"/>
<text text-anchor="middle" x="48" y="-88.9" font-family="Arial" font-size="12.00">SinOsc</text>
<text text-anchor="middle" x="48" y="-75.9" font-family="Arial" font-size="12.00">(audio)</text>
<polyline fill="none" stroke="black" stroke-width="2" points="0,-68.5 96,-68.5 "/>
<text text-anchor="middle" x="36.5" y="-54.9" font-family="Arial" font-size="12.00">frequency:</text>
<text text-anchor="middle" x="36.5" y="-41.9" font-family="Arial" font-size="12.00">443.0</text>
<polyline fill="none" stroke="black" stroke-width="2" points="0,-34.5 73,-34.5 "/>
<text text-anchor="middle" x="36.5" y="-20.9" font-family="Arial" font-size="12.00">phase:</text>
<text text-anchor="middle" x="36.5" y="-7.9" font-family="Arial" font-size="12.00">0.0</text>
<polyline fill="none" stroke="black" stroke-width="2" points="73,-0.5 73,-68.5 "/>
<text text-anchor="middle" x="84.5" y="-31.4" font-family="Arial" font-size="12.00">0</text>
</g>
<!-- ugen_3 -->
<g id="node4" class="node">
<title>ugen_3</title>
<path fill="#bcd2ee" stroke="black" stroke-width="2" d="M180,-124C180,-124 256,-124 256,-124 262,-124 268,-130 268,-136 268,-136 268,-209 268,-209 268,-215 262,-221 256,-221 256,-221 180,-221 180,-221 174,-221 168,-215 168,-209 168,-209 168,-136 168,-136 168,-130 174,-124 180,-124"/>
<text text-anchor="middle" x="218" y="-207.4" font-family="Arial" font-size="12.00">Sum3</text>
<text text-anchor="middle" x="218" y="-194.4" font-family="Arial" font-size="12.00">(audio)</text>
<polyline fill="none" stroke="black" stroke-width="2" points="168,-187 268,-187 "/>
<text text-anchor="middle" x="206.5" y="-173.4" font-family="Arial" font-size="12.00">input_one</text>
<polyline fill="none" stroke="black" stroke-width="2" points="168,-166 245,-166 "/>
<text text-anchor="middle" x="206.5" y="-152.4" font-family="Arial" font-size="12.00">input_two</text>
<polyline fill="none" stroke="black" stroke-width="2" points="168,-145 245,-145 "/>
<text text-anchor="middle" x="206.5" y="-131.4" font-family="Arial" font-size="12.00">input_three</text>
<polyline fill="none" stroke="black" stroke-width="2" points="245,-124 245,-187 "/>
<text text-anchor="middle" x="256.5" y="-152.4" font-family="Arial" font-size="12.00">0</text>
</g>
</g>
</svg>
