<?xml version="1.0" encoding="UTF-8" standalone="no"?>
<!DOCTYPE svg PUBLIC "-//W3C//DTD SVG 1.1//EN"
 "http://www.w3.org/Graphics/SVG/1.1/DTD/svg11.dtd">
<!-- Generated by graphviz version 2.43.0 (0)
 -->
<!-- Title: synthdef_598ec4adfcfa0518ae5638a75c43087e Pages: 1 -->
<svg width="1155pt" height="446pt"
 viewBox="0.00 0.00 1155.00 446.00" xmlns="http://www.w3.org/2000/svg" xmlns:xlink="http://www.w3.org/1999/xlink">
<g id="graph0" class="graph" transform="scale(1 1) rotate(0) translate(4 442)">
<title>synthdef_598ec4adfcfa0518ae5638a75c43087e</title>
<!-- ugen_0&#45;&gt;ugen_1 -->
<g id="edge1" class="edge">
<title>ugen_0:e&#45;&gt;ugen_1:w</title>
<path fill="none" stroke="salmon" stroke-width="2" d="M56,-386.5C94.63,-386.5 100.86,-356.42 133.92,-351.25"/>
<polygon fill="salmon" stroke="salmon" stroke-width="2" points="134.29,-354.73 144,-350.5 133.77,-347.75 134.29,-354.73"/>
</g>
<!-- ugen_0&#45;&gt;ugen_11 -->
<g id="edge2" class="edge">
<title>ugen_0:e&#45;&gt;ugen_11:w</title>
<path fill="none" stroke="salmon" stroke-width="2" d="M56,-386.5C88.98,-386.5 95.44,-399.21 128,-404.5 235.8,-422.03 263.78,-423.5 373,-423.5 373,-423.5 373,-423.5 807.5,-423.5 932.11,-423.5 952.8,-340.25 1071.73,-335.69"/>
<polygon fill="salmon" stroke="salmon" stroke-width="2" points="1072.07,-339.19 1082,-335.5 1071.94,-332.19 1072.07,-339.19"/>
</g>
<!-- ugen_1&#45;&gt;ugen_4 -->
<g id="edge3" class="edge">
<title>ugen_1:e&#45;&gt;ugen_4:w</title>
<path fill="none" stroke="steelblue" stroke-width="2" d="M206,-350.5C242.6,-350.5 252.17,-333.1 283.91,-329.98"/>
<polygon fill="steelblue" stroke="steelblue" stroke-width="2" points="284.18,-333.47 294,-329.5 283.85,-326.48 284.18,-333.47"/>
</g>
<!-- ugen_10&#45;&gt;ugen_11 -->
<g id="edge4" class="edge">
<title>ugen_10:e&#45;&gt;ugen_11:w</title>
<path fill="none" stroke="steelblue" stroke-width="2" d="M1010,-227.5C1056.47,-227.5 1035.59,-302.07 1072.06,-313.13"/>
<polygon fill="steelblue" stroke="steelblue" stroke-width="2" points="1071.62,-316.61 1082,-314.5 1072.57,-309.67 1071.62,-316.61"/>
</g>
<!-- ugen_2&#45;&gt;ugen_4 -->
<g id="edge5" class="edge">
<title>ugen_2:e&#45;&gt;ugen_4:w</title>
<path fill="none" stroke="salmon" stroke-width="2" d="M222,-131.5C281.15,-131.5 237.14,-239.17 283.8,-252.21"/>
<polygon fill="salmon" stroke="salmon" stroke-width="2" points="283.64,-255.72 294,-253.5 284.52,-248.78 283.64,-255.72"/>
</g>
<!-- ugen_3&#45;&gt;ugen_4 -->
<g id="edge6" class="edge">
<title>ugen_3:e&#45;&gt;ugen_4:w</title>
<path fill="none" stroke="salmon" stroke-width="2" d="M222,-252.5C251.8,-252.5 259.09,-269.95 283.97,-273.77"/>
<polygon fill="salmon" stroke="salmon" stroke-width="2" points="283.77,-277.26 294,-274.5 284.28,-270.28 283.77,-277.26"/>
</g>
<!-- ugen_4&#45;&gt;ugen_7 -->
<g id="edge7" class="edge">
<title>ugen_4:e&#45;&gt;ugen_7:w</title>
<path fill="none" stroke="steelblue" stroke-width="2" d="M454,-291.5C487.28,-291.5 488.97,-257.6 515.84,-250.71"/>
<polygon fill="steelblue" stroke="steelblue" stroke-width="2" points="516.48,-254.16 526,-249.5 515.66,-247.21 516.48,-254.16"/>
</g>
<!-- ugen_5&#45;&gt;ugen_7 -->
<g id="edge8" class="edge">
<title>ugen_5:e&#45;&gt;ugen_7:w</title>
<path fill="none" stroke="salmon" stroke-width="2" d="M422,-34.5C495.54,-34.5 453.28,-160.77 515.96,-172.61"/>
<polygon fill="salmon" stroke="salmon" stroke-width="2" points="515.73,-176.11 526,-173.5 516.35,-169.13 515.73,-176.11"/>
</g>
<!-- ugen_6&#45;&gt;ugen_7 -->
<g id="edge9" class="edge">
<title>ugen_6:e&#45;&gt;ugen_7:w</title>
<path fill="none" stroke="salmon" stroke-width="2" d="M422,-155.5C467.8,-155.5 475.64,-189.07 515.96,-193.92"/>
<polygon fill="salmon" stroke="salmon" stroke-width="2" points="515.81,-197.42 526,-194.5 516.22,-190.43 515.81,-197.42"/>
</g>
<!-- ugen_7&#45;&gt;ugen_8 -->
<g id="edge10" class="edge">
<title>ugen_7:e&#45;&gt;ugen_8:w</title>
<path fill="none" stroke="steelblue" stroke-width="2" d="M686,-211.5C724.17,-211.5 717.76,-262.03 747.92,-271.11"/>
<polygon fill="steelblue" stroke="steelblue" stroke-width="2" points="747.62,-274.6 758,-272.5 748.57,-267.67 747.62,-274.6"/>
</g>
<!-- ugen_8&#45;&gt;ugen_10 -->
<g id="edge11" class="edge">
<title>ugen_8:e&#45;&gt;ugen_10:w</title>
<path fill="none" stroke="steelblue" stroke-width="2" d="M855,-255.5C883.38,-255.5 892.88,-255.5 916.98,-255.5"/>
<polygon fill="steelblue" stroke="steelblue" stroke-width="2" points="917,-259 927,-255.5 917,-252 917,-259"/>
</g>
<!-- ugen_9&#45;&gt;ugen_10 -->
<g id="edge12" class="edge">
<title>ugen_9:e&#45;&gt;ugen_10:w</title>
<path fill="none" stroke="salmon" stroke-width="2" d="M854.5,-140.5C892.31,-140.5 886.94,-189.37 916.99,-198.16"/>
<polygon fill="salmon" stroke="salmon" stroke-width="2" points="916.62,-201.64 927,-199.5 917.55,-194.7 916.62,-201.64"/>
</g>
<!-- ugen_0 -->
<g id="node1" class="node">
<title>ugen_0</title>
<path fill="#ee9572" stroke="black" stroke-width="2" d="M12,-369.5C12,-369.5 44,-369.5 44,-369.5 50,-369.5 56,-375.5 56,-381.5 56,-381.5 56,-425.5 56,-425.5 56,-431.5 50,-437.5 44,-437.5 44,-437.5 12,-437.5 12,-437.5 6,-437.5 0,-431.5 0,-425.5 0,-425.5 0,-381.5 0,-381.5 0,-375.5 6,-369.5 12,-369.5"/>
<text text-anchor="middle" x="28" y="-423.9" font-family="Arial" font-size="12.00">Control</text>
<text text-anchor="middle" x="28" y="-410.9" font-family="Arial" font-size="12.00">(scalar)</text>
<polyline fill="none" stroke="black" stroke-width="2" points="0,-403.5 56,-403.5 "/>
<text text-anchor="middle" x="28" y="-389.9" font-family="Arial" font-size="12.00">out:</text>
<text text-anchor="middle" x="28" y="-376.9" font-family="Arial" font-size="12.00">0.0</text>
</g>
<!-- ugen_1 -->
<g id="node2" class="node">
<title>ugen_1</title>
<path fill="#bcd2ee" stroke="black" stroke-width="2" d="M157.5,-340C157.5,-340 192.5,-340 192.5,-340 198.5,-340 204.5,-346 204.5,-352 204.5,-352 204.5,-383 204.5,-383 204.5,-389 198.5,-395 192.5,-395 192.5,-395 157.5,-395 157.5,-395 151.5,-395 145.5,-389 145.5,-383 145.5,-383 145.5,-352 145.5,-352 145.5,-346 151.5,-340 157.5,-340"/>
<text text-anchor="middle" x="175" y="-381.4" font-family="Arial" font-size="12.00">In</text>
<text text-anchor="middle" x="175" y="-368.4" font-family="Arial" font-size="12.00">(audio)</text>
<polyline fill="none" stroke="black" stroke-width="2" points="145.5,-361 204.5,-361 "/>
<text text-anchor="middle" x="163.5" y="-347.4" font-family="Arial" font-size="12.00">bus</text>
<polyline fill="none" stroke="black" stroke-width="2" points="181.5,-340 181.5,-361 "/>
<text text-anchor="middle" x="193" y="-347.4" font-family="Arial" font-size="12.00">0</text>
</g>
<!-- ugen_10 -->
<g id="node3" class="node">
<title>ugen_10</title>
<path fill="#bcd2ee" stroke="black" stroke-width="2" d="M939,-189.5C939,-189.5 998,-189.5 998,-189.5 1004,-189.5 1010,-195.5 1010,-201.5 1010,-201.5 1010,-287.5 1010,-287.5 1010,-293.5 1004,-299.5 998,-299.5 998,-299.5 939,-299.5 939,-299.5 933,-299.5 927,-293.5 927,-287.5 927,-287.5 927,-201.5 927,-201.5 927,-195.5 933,-189.5 939,-189.5"/>
<text text-anchor="middle" x="968.5" y="-285.9" font-family="Arial" font-size="12.00">Limiter</text>
<text text-anchor="middle" x="968.5" y="-272.9" font-family="Arial" font-size="12.00">(audio)</text>
<polyline fill="none" stroke="black" stroke-width="2" points="927,-265.5 1010,-265.5 "/>
<text text-anchor="middle" x="957" y="-251.9" font-family="Arial" font-size="12.00">source</text>
<polyline fill="none" stroke="black" stroke-width="2" points="927,-244.5 987,-244.5 "/>
<text text-anchor="middle" x="957" y="-230.9" font-family="Arial" font-size="12.00">level:</text>
<text text-anchor="middle" x="957" y="-217.9" font-family="Arial" font-size="12.00">1.0</text>
<polyline fill="none" stroke="black" stroke-width="2" points="927,-210.5 987,-210.5 "/>
<text text-anchor="middle" x="957" y="-196.9" font-family="Arial" font-size="12.00">duration</text>
<polyline fill="none" stroke="black" stroke-width="2" points="987,-189.5 987,-265.5 "/>
<text text-anchor="middle" x="998.5" y="-224.4" font-family="Arial" font-size="12.00">0</text>
</g>
<!-- ugen_11 -->
<g id="node4" class="node">
<title>ugen_11</title>
<path fill="#bcd2ee" stroke="black" stroke-width="2" d="M1094,-304.5C1094,-304.5 1135,-304.5 1135,-304.5 1141,-304.5 1147,-310.5 1147,-316.5 1147,-316.5 1147,-368.5 1147,-368.5 1147,-374.5 1141,-380.5 1135,-380.5 1135,-380.5 1094,-380.5 1094,-380.5 1088,-380.5 1082,-374.5 1082,-368.5 1082,-368.5 1082,-316.5 1082,-316.5 1082,-310.5 1088,-304.5 1094,-304.5"/>
<text text-anchor="middle" x="1114.5" y="-366.9" font-family="Arial" font-size="12.00">Out</text>
<text text-anchor="middle" x="1114.5" y="-353.9" font-family="Arial" font-size="12.00">(audio)</text>
<polyline fill="none" stroke="black" stroke-width="2" points="1082,-346.5 1147,-346.5 "/>
<text text-anchor="middle" x="1114.5" y="-332.9" font-family="Arial" font-size="12.00">bus</text>
<polyline fill="none" stroke="black" stroke-width="2" points="1082,-325.5 1147,-325.5 "/>
<text text-anchor="middle" x="1114.5" y="-311.9" font-family="Arial" font-size="12.00">source[0]</text>
</g>
<!-- ugen_2 -->
<g id="node5" class="node">
<title>ugen_2</title>
<path fill="#ee9572" stroke="black" stroke-width="2" d="M140,-97.5C140,-97.5 210,-97.5 210,-97.5 216,-97.5 222,-103.5 222,-109.5 222,-109.5 222,-187.5 222,-187.5 222,-193.5 216,-199.5 210,-199.5 210,-199.5 140,-199.5 140,-199.5 134,-199.5 128,-193.5 128,-187.5 128,-187.5 128,-109.5 128,-109.5 128,-103.5 134,-97.5 140,-97.5"/>
<text text-anchor="middle" x="175" y="-185.9" font-family="Arial" font-size="12.00">ExpRand</text>
<text text-anchor="middle" x="175" y="-172.9" font-family="Arial" font-size="12.00">(scalar)</text>
<polyline fill="none" stroke="black" stroke-width="2" points="128,-165.5 222,-165.5 "/>
<text text-anchor="middle" x="163.5" y="-151.9" font-family="Arial" font-size="12.00">minimum:</text>
<text text-anchor="middle" x="163.5" y="-138.9" font-family="Arial" font-size="12.00">0.01</text>
<polyline fill="none" stroke="black" stroke-width="2" points="128,-131.5 199,-131.5 "/>
<text text-anchor="middle" x="163.5" y="-117.9" font-family="Arial" font-size="12.00">maximum:</text>
<text text-anchor="middle" x="163.5" y="-104.9" font-family="Arial" font-size="12.00">0.1</text>
<polyline fill="none" stroke="black" stroke-width="2" points="199,-97.5 199,-165.5 "/>
<text text-anchor="middle" x="210.5" y="-128.4" font-family="Arial" font-size="12.00">0</text>
</g>
<!-- ugen_3 -->
<g id="node6" class="node">
<title>ugen_3</title>
<path fill="#ee9572" stroke="black" stroke-width="2" d="M140,-218.5C140,-218.5 210,-218.5 210,-218.5 216,-218.5 222,-224.5 222,-230.5 222,-230.5 222,-308.5 222,-308.5 222,-314.5 216,-320.5 210,-320.5 210,-320.5 140,-320.5 140,-320.5 134,-320.5 128,-314.5 128,-308.5 128,-308.5 128,-230.5 128,-230.5 128,-224.5 134,-218.5 140,-218.5"/>
<text text-anchor="middle" x="175" y="-306.9" font-family="Arial" font-size="12.00">ExpRand</text>
<text text-anchor="middle" x="175" y="-293.9" font-family="Arial" font-size="12.00">(scalar)</text>
<polyline fill="none" stroke="black" stroke-width="2" points="128,-286.5 222,-286.5 "/>
<text text-anchor="middle" x="163.5" y="-272.9" font-family="Arial" font-size="12.00">minimum:</text>
<text text-anchor="middle" x="163.5" y="-259.9" font-family="Arial" font-size="12.00">0.01</text>
<polyline fill="none" stroke="black" stroke-width="2" points="128,-252.5 199,-252.5 "/>
<text text-anchor="middle" x="163.5" y="-238.9" font-family="Arial" font-size="12.00">maximum:</text>
<text text-anchor="middle" x="163.5" y="-225.9" font-family="Arial" font-size="12.00">0.1</text>
<polyline fill="none" stroke="black" stroke-width="2" points="199,-218.5 199,-286.5 "/>
<text text-anchor="middle" x="210.5" y="-249.4" font-family="Arial" font-size="12.00">0</text>
</g>
<!-- ugen_4 -->
<g id="node7" class="node">
<title>ugen_4</title>
<path fill="#bcd2ee" stroke="black" stroke-width="2" d="M306,-243C306,-243 442,-243 442,-243 448,-243 454,-249 454,-255 454,-255 454,-362 454,-362 454,-368 448,-374 442,-374 442,-374 306,-374 306,-374 300,-374 294,-368 294,-362 294,-362 294,-255 294,-255 294,-249 300,-243 306,-243"/>
<text text-anchor="middle" x="374" y="-360.4" font-family="Arial" font-size="12.00">AllpassC</text>
<text text-anchor="middle" x="374" y="-347.4" font-family="Arial" font-size="12.00">(audio)</text>
<polyline fill="none" stroke="black" stroke-width="2" points="294,-340 454,-340 "/>
<text text-anchor="middle" x="362.5" y="-326.4" font-family="Arial" font-size="12.00">source</text>
<polyline fill="none" stroke="black" stroke-width="2" points="294,-319 431,-319 "/>
<text text-anchor="middle" x="362.5" y="-305.4" font-family="Arial" font-size="12.00">maximum_delay_time:</text>
<text text-anchor="middle" x="362.5" y="-292.4" font-family="Arial" font-size="12.00">0.1</text>
<polyline fill="none" stroke="black" stroke-width="2" points="294,-285 431,-285 "/>
<text text-anchor="middle" x="362.5" y="-271.4" font-family="Arial" font-size="12.00">delay_time</text>
<polyline fill="none" stroke="black" stroke-width="2" points="294,-264 431,-264 "/>
<text text-anchor="middle" x="362.5" y="-250.4" font-family="Arial" font-size="12.00">decay_time</text>
<polyline fill="none" stroke="black" stroke-width="2" points="431,-243 431,-340 "/>
<text text-anchor="middle" x="442.5" y="-288.4" font-family="Arial" font-size="12.00">0</text>
</g>
<!-- ugen_5 -->
<g id="node8" class="node">
<title>ugen_5</title>
<path fill="#ee9572" stroke="black" stroke-width="2" d="M339,-0.5C339,-0.5 409,-0.5 409,-0.5 415,-0.5 421,-6.5 421,-12.5 421,-12.5 421,-90.5 421,-90.5 421,-96.5 415,-102.5 409,-102.5 409,-102.5 339,-102.5 339,-102.5 333,-102.5 327,-96.5 327,-90.5 327,-90.5 327,-12.5 327,-12.5 327,-6.5 333,-0.5 339,-0.5"/>
<text text-anchor="middle" x="374" y="-88.9" font-family="Arial" font-size="12.00">ExpRand</text>
<text text-anchor="middle" x="374" y="-75.9" font-family="Arial" font-size="12.00">(scalar)</text>
<polyline fill="none" stroke="black" stroke-width="2" points="327,-68.5 421,-68.5 "/>
<text text-anchor="middle" x="362.5" y="-54.9" font-family="Arial" font-size="12.00">minimum:</text>
<text text-anchor="middle" x="362.5" y="-41.9" font-family="Arial" font-size="12.00">0.01</text>
<polyline fill="none" stroke="black" stroke-width="2" points="327,-34.5 398,-34.5 "/>
<text text-anchor="middle" x="362.5" y="-20.9" font-family="Arial" font-size="12.00">maximum:</text>
<text text-anchor="middle" x="362.5" y="-7.9" font-family="Arial" font-size="12.00">0.1</text>
<polyline fill="none" stroke="black" stroke-width="2" points="398,-0.5 398,-68.5 "/>
<text text-anchor="middle" x="409.5" y="-31.4" font-family="Arial" font-size="12.00">0</text>
</g>
<!-- ugen_6 -->
<g id="node9" class="node">
<title>ugen_6</title>
<path fill="#ee9572" stroke="black" stroke-width="2" d="M339,-121.5C339,-121.5 409,-121.5 409,-121.5 415,-121.5 421,-127.5 421,-133.5 421,-133.5 421,-211.5 421,-211.5 421,-217.5 415,-223.5 409,-223.5 409,-223.5 339,-223.5 339,-223.5 333,-223.5 327,-217.5 327,-211.5 327,-211.5 327,-133.5 327,-133.5 327,-127.5 333,-121.5 339,-121.5"/>
<text text-anchor="middle" x="374" y="-209.9" font-family="Arial" font-size="12.00">ExpRand</text>
<text text-anchor="middle" x="374" y="-196.9" font-family="Arial" font-size="12.00">(scalar)</text>
<polyline fill="none" stroke="black" stroke-width="2" points="327,-189.5 421,-189.5 "/>
<text text-anchor="middle" x="362.5" y="-175.9" font-family="Arial" font-size="12.00">minimum:</text>
<text text-anchor="middle" x="362.5" y="-162.9" font-family="Arial" font-size="12.00">0.01</text>
<polyline fill="none" stroke="black" stroke-width="2" points="327,-155.5 398,-155.5 "/>
<text text-anchor="middle" x="362.5" y="-141.9" font-family="Arial" font-size="12.00">maximum:</text>
<text text-anchor="middle" x="362.5" y="-128.9" font-family="Arial" font-size="12.00">0.1</text>
<polyline fill="none" stroke="black" stroke-width="2" points="398,-121.5 398,-189.5 "/>
<text text-anchor="middle" x="409.5" y="-152.4" font-family="Arial" font-size="12.00">0</text>
</g>
<!-- ugen_7 -->
<g id="node10" class="node">
<title>ugen_7</title>
<path fill="#bcd2ee" stroke="black" stroke-width="2" d="M538,-163C538,-163 674,-163 674,-163 680,-163 686,-169 686,-175 686,-175 686,-282 686,-282 686,-288 680,-294 674,-294 674,-294 538,-294 538,-294 532,-294 526,-288 526,-282 526,-282 526,-175 526,-175 526,-169 532,-163 538,-163"/>
<text text-anchor="middle" x="606" y="-280.4" font-family="Arial" font-size="12.00">AllpassC</text>
<text text-anchor="middle" x="606" y="-267.4" font-family="Arial" font-size="12.00">(audio)</text>
<polyline fill="none" stroke="black" stroke-width="2" points="526,-260 686,-260 "/>
<text text-anchor="middle" x="594.5" y="-246.4" font-family="Arial" font-size="12.00">source</text>
<polyline fill="none" stroke="black" stroke-width="2" points="526,-239 663,-239 "/>
<text text-anchor="middle" x="594.5" y="-225.4" font-family="Arial" font-size="12.00">maximum_delay_time:</text>
<text text-anchor="middle" x="594.5" y="-212.4" font-family="Arial" font-size="12.00">0.1</text>
<polyline fill="none" stroke="black" stroke-width="2" points="526,-205 663,-205 "/>
<text text-anchor="middle" x="594.5" y="-191.4" font-family="Arial" font-size="12.00">delay_time</text>
<polyline fill="none" stroke="black" stroke-width="2" points="526,-184 663,-184 "/>
<text text-anchor="middle" x="594.5" y="-170.4" font-family="Arial" font-size="12.00">decay_time</text>
<polyline fill="none" stroke="black" stroke-width="2" points="663,-163 663,-260 "/>
<text text-anchor="middle" x="674.5" y="-208.4" font-family="Arial" font-size="12.00">0</text>
</g>
<!-- ugen_8 -->
<g id="node11" class="node">
<title>ugen_8</title>
<path fill="#bcd2ee" stroke="black" stroke-width="2" d="M770,-228C770,-228 843,-228 843,-228 849,-228 855,-234 855,-240 855,-240 855,-305 855,-305 855,-311 849,-317 843,-317 843,-317 770,-317 770,-317 764,-317 758,-311 758,-305 758,-305 758,-240 758,-240 758,-234 764,-228 770,-228"/>
<text text-anchor="middle" x="806.5" y="-303.4" font-family="Arial" font-size="12.00">LeakDC</text>
<text text-anchor="middle" x="806.5" y="-290.4" font-family="Arial" font-size="12.00">(audio)</text>
<polyline fill="none" stroke="black" stroke-width="2" points="758,-283 855,-283 "/>
<text text-anchor="middle" x="795" y="-269.4" font-family="Arial" font-size="12.00">source</text>
<polyline fill="none" stroke="black" stroke-width="2" points="758,-262 832,-262 "/>
<text text-anchor="middle" x="795" y="-248.4" font-family="Arial" font-size="12.00">coefficient:</text>
<text text-anchor="middle" x="795" y="-235.4" font-family="Arial" font-size="12.00">0.995</text>
<polyline fill="none" stroke="black" stroke-width="2" points="832,-228 832,-283 "/>
<text text-anchor="middle" x="843.5" y="-252.4" font-family="Arial" font-size="12.00">0</text>
</g>
<!-- ugen_9 -->
<g id="node12" class="node">
<title>ugen_9</title>
<path fill="#ee9572" stroke="black" stroke-width="2" d="M771.5,-106.5C771.5,-106.5 841.5,-106.5 841.5,-106.5 847.5,-106.5 853.5,-112.5 853.5,-118.5 853.5,-118.5 853.5,-196.5 853.5,-196.5 853.5,-202.5 847.5,-208.5 841.5,-208.5 841.5,-208.5 771.5,-208.5 771.5,-208.5 765.5,-208.5 759.5,-202.5 759.5,-196.5 759.5,-196.5 759.5,-118.5 759.5,-118.5 759.5,-112.5 765.5,-106.5 771.5,-106.5"/>
<text text-anchor="middle" x="806.5" y="-194.9" font-family="Arial" font-size="12.00">Rand</text>
<text text-anchor="middle" x="806.5" y="-181.9" font-family="Arial" font-size="12.00">(scalar)</text>
<polyline fill="none" stroke="black" stroke-width="2" points="759.5,-174.5 853.5,-174.5 "/>
<text text-anchor="middle" x="795" y="-160.9" font-family="Arial" font-size="12.00">minimum:</text>
<text text-anchor="middle" x="795" y="-147.9" font-family="Arial" font-size="12.00">0.005</text>
<polyline fill="none" stroke="black" stroke-width="2" points="759.5,-140.5 830.5,-140.5 "/>
<text text-anchor="middle" x="795" y="-126.9" font-family="Arial" font-size="12.00">maximum:</text>
<text text-anchor="middle" x="795" y="-113.9" font-family="Arial" font-size="12.00">0.015</text>
<polyline fill="none" stroke="black" stroke-width="2" points="830.5,-106.5 830.5,-174.5 "/>
<text text-anchor="middle" x="842" y="-137.4" font-family="Arial" font-size="12.00">0</text>
</g>
</g>
</svg>
