<?xml version="1.0" encoding="UTF-8" standalone="no"?>
<!DOCTYPE svg PUBLIC "-//W3C//DTD SVG 1.1//EN"
 "http://www.w3.org/Graphics/SVG/1.1/DTD/svg11.dtd">
<!-- Generated by graphviz version 2.50.0 (20211204.2007)
 -->
<!-- Title: synthdef_e8a51cf53dfa55e0add56de9d2c441f5 Pages: 1 -->
<svg width="1189pt" height="475pt"
 viewBox="0.00 0.00 1189.00 475.00" xmlns="http://www.w3.org/2000/svg" xmlns:xlink="http://www.w3.org/1999/xlink">
<g id="graph0" class="graph" transform="scale(1 1) rotate(0) translate(4 471)">
<title>synthdef_e8a51cf53dfa55e0add56de9d2c441f5</title>
<!-- ugen_0&#45;&gt;ugen_1 -->
<g id="edge1" class="edge">
<title>ugen_0:e&#45;&gt;ugen_1:w</title>
<path fill="none" stroke="salmon" stroke-width="2" d="M56,-415.5C91.52,-415.5 96.59,-385.93 126.39,-380.39"/>
<polygon fill="salmon" stroke="salmon" stroke-width="2" points="126.85,-383.86 136.5,-379.5 126.23,-376.89 126.85,-383.86"/>
</g>
<!-- ugen_0&#45;&gt;ugen_10 -->
<g id="edge2" class="edge">
<title>ugen_0:e&#45;&gt;ugen_10:w</title>
<path fill="none" stroke="salmon" stroke-width="2" d="M56,-415.5C88.98,-415.5 95.49,-427.92 128,-433.5 215.56,-448.54 238.15,-452.5 327,-452.5 327,-452.5 327,-452.5 530,-452.5 626.27,-452.5 831.22,-294.54 934.71,-284.05"/>
<polygon fill="salmon" stroke="salmon" stroke-width="2" points="935.2,-287.53 945,-283.5 934.83,-280.54 935.2,-287.53"/>
</g>
<!-- ugen_1&#45;&gt;ugen_3 -->
<g id="edge3" class="edge">
<title>ugen_1:e&#45;&gt;ugen_3:w</title>
<path fill="none" stroke="steelblue" stroke-width="2" d="M198.5,-379.5C231.06,-379.5 240.84,-369.01 268.77,-366.88"/>
<polygon fill="steelblue" stroke="steelblue" stroke-width="2" points="269.14,-370.36 279,-366.5 268.88,-363.37 269.14,-370.36"/>
</g>
<!-- ugen_11&#45;&gt;ugen_12 -->
<g id="edge4" class="edge">
<title>ugen_11:e&#45;&gt;ugen_12:w</title>
<path fill="none" stroke="goldenrod" stroke-width="2" d="M810,-76.5C860.32,-76.5 859.48,-132.28 903.01,-139.69"/>
<polygon fill="goldenrod" stroke="goldenrod" stroke-width="2" points="902.75,-143.18 913,-140.5 903.32,-136.2 902.75,-143.18"/>
</g>
<!-- ugen_12&#45;&gt;ugen_13 -->
<g id="edge5" class="edge">
<title>ugen_12:e&#45;&gt;ugen_13:w</title>
<path fill="none" stroke="steelblue" stroke-width="2" d="M1033,-150.5C1061.38,-150.5 1070.88,-150.5 1094.98,-150.5"/>
<polygon fill="steelblue" stroke="steelblue" stroke-width="2" points="1095,-154 1105,-150.5 1095,-147 1095,-154"/>
</g>
<!-- ugen_2&#45;&gt;ugen_3 -->
<g id="edge6" class="edge">
<title>ugen_2:e&#45;&gt;ugen_3:w</title>
<path fill="none" stroke="steelblue" stroke-width="2" d="M207,-298.5C241.48,-298.5 241.24,-336.77 268.94,-344.24"/>
<polygon fill="steelblue" stroke="steelblue" stroke-width="2" points="268.64,-347.73 279,-345.5 269.51,-340.79 268.64,-347.73"/>
</g>
<!-- ugen_3&#45;&gt;ugen_6 -->
<g id="edge7" class="edge">
<title>ugen_3:e&#45;&gt;ugen_6:w</title>
<path fill="none" stroke="steelblue" stroke-width="2" d="M377,-355.5C407.3,-355.5 413.75,-334.88 438.84,-330.37"/>
<polygon fill="steelblue" stroke="steelblue" stroke-width="2" points="439.33,-333.84 449,-329.5 438.74,-326.86 439.33,-333.84"/>
</g>
<!-- ugen_4&#45;&gt;ugen_6 -->
<g id="edge8" class="edge">
<title>ugen_4:e&#45;&gt;ugen_6:w</title>
<path fill="none" stroke="salmon" stroke-width="2" d="M376,-126.5C437.29,-126.5 390.18,-239.05 438.77,-252.24"/>
<polygon fill="salmon" stroke="salmon" stroke-width="2" points="438.65,-255.75 449,-253.5 439.5,-248.81 438.65,-255.75"/>
</g>
<!-- ugen_5&#45;&gt;ugen_6 -->
<g id="edge9" class="edge">
<title>ugen_5:e&#45;&gt;ugen_6:w</title>
<path fill="none" stroke="salmon" stroke-width="2" d="M376,-247.5C406.94,-247.5 413.26,-269.11 439.01,-273.66"/>
<polygon fill="salmon" stroke="salmon" stroke-width="2" points="438.74,-277.15 449,-274.5 439.33,-270.18 438.74,-277.15"/>
</g>
<!-- ugen_6&#45;&gt;ugen_9 -->
<g id="edge10" class="edge">
<title>ugen_6:e&#45;&gt;ugen_9:w</title>
<path fill="none" stroke="steelblue" stroke-width="2" d="M609,-291.5C642.08,-291.5 644.11,-258.41 670.89,-251.68"/>
<polygon fill="steelblue" stroke="steelblue" stroke-width="2" points="671.47,-255.14 681,-250.5 670.66,-248.19 671.47,-255.14"/>
</g>
<!-- ugen_7&#45;&gt;ugen_9 -->
<g id="edge11" class="edge">
<title>ugen_7:e&#45;&gt;ugen_9:w</title>
<path fill="none" stroke="salmon" stroke-width="2" d="M577,-34.5C650.88,-34.5 607.99,-161.68 670.92,-173.61"/>
<polygon fill="salmon" stroke="salmon" stroke-width="2" points="670.73,-177.1 681,-174.5 671.35,-170.13 670.73,-177.1"/>
</g>
<!-- ugen_8&#45;&gt;ugen_9 -->
<g id="edge12" class="edge">
<title>ugen_8:e&#45;&gt;ugen_9:w</title>
<path fill="none" stroke="salmon" stroke-width="2" d="M577,-155.5C622.94,-155.5 630.53,-189.93 670.93,-194.9"/>
<polygon fill="salmon" stroke="salmon" stroke-width="2" points="670.81,-198.4 681,-195.5 671.22,-191.41 670.81,-198.4"/>
</g>
<!-- ugen_9&#45;&gt;ugen_10 -->
<g id="edge13" class="edge">
<title>ugen_9:e&#45;&gt;ugen_10:w</title>
<path fill="none" stroke="steelblue" stroke-width="2" d="M841,-212.5C888.68,-212.5 893.27,-255.72 934.89,-261.79"/>
<polygon fill="steelblue" stroke="steelblue" stroke-width="2" points="934.78,-265.29 945,-262.5 935.27,-258.31 934.78,-265.29"/>
</g>
<!-- ugen_9&#45;&gt;ugen_12 -->
<g id="edge14" class="edge">
<title>ugen_9:e&#45;&gt;ugen_12:w</title>
<path fill="none" stroke="steelblue" stroke-width="2" d="M841,-212.5C876.38,-212.5 874.61,-170.97 902.73,-162.86"/>
<polygon fill="steelblue" stroke="steelblue" stroke-width="2" points="903.55,-166.29 913,-161.5 902.63,-159.35 903.55,-166.29"/>
</g>
<!-- ugen_0 -->
<g id="node1" class="node">
<title>ugen_0</title>
<path fill="#ee9572" stroke="black" stroke-width="2" d="M12,-398.5C12,-398.5 44,-398.5 44,-398.5 50,-398.5 56,-404.5 56,-410.5 56,-410.5 56,-454.5 56,-454.5 56,-460.5 50,-466.5 44,-466.5 44,-466.5 12,-466.5 12,-466.5 6,-466.5 0,-460.5 0,-454.5 0,-454.5 0,-410.5 0,-410.5 0,-404.5 6,-398.5 12,-398.5"/>
<text text-anchor="middle" x="28" y="-452.9" font-family="Arial" font-size="12.00">Control</text>
<text text-anchor="middle" x="28" y="-439.9" font-family="Arial" font-size="12.00">(scalar)</text>
<polyline fill="none" stroke="black" stroke-width="2" points="0,-432.5 56,-432.5 "/>
<text text-anchor="middle" x="28" y="-418.9" font-family="Arial" font-size="12.00">out:</text>
<text text-anchor="middle" x="28" y="-405.9" font-family="Arial" font-size="12.00">0.0</text>
</g>
<!-- ugen_1 -->
<g id="node2" class="node">
<title>ugen_1</title>
<path fill="#bcd2ee" stroke="black" stroke-width="2" d="M150,-369C150,-369 185,-369 185,-369 191,-369 197,-375 197,-381 197,-381 197,-412 197,-412 197,-418 191,-424 185,-424 185,-424 150,-424 150,-424 144,-424 138,-418 138,-412 138,-412 138,-381 138,-381 138,-375 144,-369 150,-369"/>
<text text-anchor="middle" x="167.5" y="-410.4" font-family="Arial" font-size="12.00">In</text>
<text text-anchor="middle" x="167.5" y="-397.4" font-family="Arial" font-size="12.00">(audio)</text>
<polyline fill="none" stroke="black" stroke-width="2" points="138,-390 197,-390 "/>
<text text-anchor="middle" x="156" y="-376.4" font-family="Arial" font-size="12.00">bus</text>
<polyline fill="none" stroke="black" stroke-width="2" points="174,-369 174,-390 "/>
<text text-anchor="middle" x="185.5" y="-376.4" font-family="Arial" font-size="12.00">0</text>
</g>
<!-- ugen_10 -->
<g id="node3" class="node">
<title>ugen_10</title>
<path fill="#bcd2ee" stroke="black" stroke-width="2" d="M958,-252.5C958,-252.5 988,-252.5 988,-252.5 994,-252.5 1000,-258.5 1000,-264.5 1000,-264.5 1000,-316.5 1000,-316.5 1000,-322.5 994,-328.5 988,-328.5 988,-328.5 958,-328.5 958,-328.5 952,-328.5 946,-322.5 946,-316.5 946,-316.5 946,-264.5 946,-264.5 946,-258.5 952,-252.5 958,-252.5"/>
<text text-anchor="middle" x="973" y="-314.9" font-family="Arial" font-size="12.00">Out</text>
<text text-anchor="middle" x="973" y="-301.9" font-family="Arial" font-size="12.00">(audio)</text>
<polyline fill="none" stroke="black" stroke-width="2" points="946,-294.5 1000,-294.5 "/>
<text text-anchor="middle" x="973" y="-280.9" font-family="Arial" font-size="12.00">bus</text>
<polyline fill="none" stroke="black" stroke-width="2" points="946,-273.5 1000,-273.5 "/>
<text text-anchor="middle" x="973" y="-259.9" font-family="Arial" font-size="12.00">source</text>
</g>
<!-- ugen_11 -->
<g id="node4" class="node">
<title>ugen_11</title>
<path fill="#eedc82" stroke="black" stroke-width="2" d="M725.5,-42.5C725.5,-42.5 796.5,-42.5 796.5,-42.5 802.5,-42.5 808.5,-48.5 808.5,-54.5 808.5,-54.5 808.5,-132.5 808.5,-132.5 808.5,-138.5 802.5,-144.5 796.5,-144.5 796.5,-144.5 725.5,-144.5 725.5,-144.5 719.5,-144.5 713.5,-138.5 713.5,-132.5 713.5,-132.5 713.5,-54.5 713.5,-54.5 713.5,-48.5 719.5,-42.5 725.5,-42.5"/>
<text text-anchor="middle" x="761" y="-130.9" font-family="Arial" font-size="12.00">SinOsc</text>
<text text-anchor="middle" x="761" y="-117.9" font-family="Arial" font-size="12.00">(control)</text>
<polyline fill="none" stroke="black" stroke-width="2" points="713.5,-110.5 808.5,-110.5 "/>
<text text-anchor="middle" x="749.5" y="-96.9" font-family="Arial" font-size="12.00">frequency:</text>
<text text-anchor="middle" x="749.5" y="-83.9" font-family="Arial" font-size="12.00">0.3</text>
<polyline fill="none" stroke="black" stroke-width="2" points="713.5,-76.5 785.5,-76.5 "/>
<text text-anchor="middle" x="749.5" y="-62.9" font-family="Arial" font-size="12.00">phase:</text>
<text text-anchor="middle" x="749.5" y="-49.9" font-family="Arial" font-size="12.00">0.0</text>
<polyline fill="none" stroke="black" stroke-width="2" points="785.5,-42.5 785.5,-110.5 "/>
<text text-anchor="middle" x="797" y="-73.4" font-family="Arial" font-size="12.00">0</text>
</g>
<!-- ugen_12 -->
<g id="node5" class="node">
<title>ugen_12</title>
<path fill="#bcd2ee" stroke="black" stroke-width="2" d="M925,-130C925,-130 1021,-130 1021,-130 1027,-130 1033,-136 1033,-142 1033,-142 1033,-207 1033,-207 1033,-213 1027,-219 1021,-219 1021,-219 925,-219 925,-219 919,-219 913,-213 913,-207 913,-207 913,-142 913,-142 913,-136 919,-130 925,-130"/>
<text text-anchor="middle" x="973" y="-205.4" font-family="Arial" font-size="12.00">BinaryOpUGen</text>
<text text-anchor="middle" x="973" y="-192.4" font-family="Arial" font-size="12.00">[MULTIPLICATION]</text>
<text text-anchor="middle" x="973" y="-179.4" font-family="Arial" font-size="12.00">(audio)</text>
<polyline fill="none" stroke="black" stroke-width="2" points="913,-172 1033,-172 "/>
<text text-anchor="middle" x="947" y="-158.4" font-family="Arial" font-size="12.00">left</text>
<polyline fill="none" stroke="black" stroke-width="2" points="913,-151 981,-151 "/>
<text text-anchor="middle" x="947" y="-137.4" font-family="Arial" font-size="12.00">right</text>
<polyline fill="none" stroke="black" stroke-width="2" points="981,-130 981,-172 "/>
<text text-anchor="middle" x="1007" y="-147.9" font-family="Arial" font-size="12.00">0</text>
</g>
<!-- ugen_13 -->
<g id="node6" class="node">
<title>ugen_13</title>
<path fill="#bcd2ee" stroke="black" stroke-width="2" d="M1117,-140C1117,-140 1169,-140 1169,-140 1175,-140 1181,-146 1181,-152 1181,-152 1181,-183 1181,-183 1181,-189 1175,-195 1169,-195 1169,-195 1117,-195 1117,-195 1111,-195 1105,-189 1105,-183 1105,-183 1105,-152 1105,-152 1105,-146 1111,-140 1117,-140"/>
<text text-anchor="middle" x="1143" y="-181.4" font-family="Arial" font-size="12.00">LocalOut</text>
<text text-anchor="middle" x="1143" y="-168.4" font-family="Arial" font-size="12.00">(audio)</text>
<polyline fill="none" stroke="black" stroke-width="2" points="1105,-161 1181,-161 "/>
<text text-anchor="middle" x="1131.5" y="-147.4" font-family="Arial" font-size="12.00">source</text>
<polyline fill="none" stroke="black" stroke-width="2" points="1158,-140 1158,-161 "/>
<text text-anchor="middle" x="1169.5" y="-147.4" font-family="Arial" font-size="12.00">0</text>
</g>
<!-- ugen_2 -->
<g id="node7" class="node">
<title>ugen_2</title>
<path fill="#bcd2ee" stroke="black" stroke-width="2" d="M140,-281.5C140,-281.5 195,-281.5 195,-281.5 201,-281.5 207,-287.5 207,-293.5 207,-293.5 207,-337.5 207,-337.5 207,-343.5 201,-349.5 195,-349.5 195,-349.5 140,-349.5 140,-349.5 134,-349.5 128,-343.5 128,-337.5 128,-337.5 128,-293.5 128,-293.5 128,-287.5 134,-281.5 140,-281.5"/>
<text text-anchor="middle" x="167.5" y="-335.9" font-family="Arial" font-size="12.00">LocalIn</text>
<text text-anchor="middle" x="167.5" y="-322.9" font-family="Arial" font-size="12.00">(audio)</text>
<polyline fill="none" stroke="black" stroke-width="2" points="128,-315.5 207,-315.5 "/>
<text text-anchor="middle" x="156" y="-301.9" font-family="Arial" font-size="12.00">default:</text>
<text text-anchor="middle" x="156" y="-288.9" font-family="Arial" font-size="12.00">0.0</text>
<polyline fill="none" stroke="black" stroke-width="2" points="184,-281.5 184,-315.5 "/>
<text text-anchor="middle" x="195.5" y="-295.4" font-family="Arial" font-size="12.00">0</text>
</g>
<!-- ugen_3 -->
<g id="node8" class="node">
<title>ugen_3</title>
<path fill="#bcd2ee" stroke="black" stroke-width="2" d="M291,-335C291,-335 365,-335 365,-335 371,-335 377,-341 377,-347 377,-347 377,-412 377,-412 377,-418 371,-424 365,-424 365,-424 291,-424 291,-424 285,-424 279,-418 279,-412 279,-412 279,-347 279,-347 279,-341 285,-335 291,-335"/>
<text text-anchor="middle" x="328" y="-410.4" font-family="Arial" font-size="12.00">BinaryOpUGen</text>
<text text-anchor="middle" x="328" y="-397.4" font-family="Arial" font-size="12.00">[ADDITION]</text>
<text text-anchor="middle" x="328" y="-384.4" font-family="Arial" font-size="12.00">(audio)</text>
<polyline fill="none" stroke="black" stroke-width="2" points="279,-377 377,-377 "/>
<text text-anchor="middle" x="307.5" y="-363.4" font-family="Arial" font-size="12.00">left</text>
<polyline fill="none" stroke="black" stroke-width="2" points="279,-356 336,-356 "/>
<text text-anchor="middle" x="307.5" y="-342.4" font-family="Arial" font-size="12.00">right</text>
<polyline fill="none" stroke="black" stroke-width="2" points="336,-335 336,-377 "/>
<text text-anchor="middle" x="356.5" y="-352.9" font-family="Arial" font-size="12.00">0</text>
</g>
<!-- ugen_4 -->
<g id="node9" class="node">
<title>ugen_4</title>
<path fill="#ee9572" stroke="black" stroke-width="2" d="M293,-92.5C293,-92.5 363,-92.5 363,-92.5 369,-92.5 375,-98.5 375,-104.5 375,-104.5 375,-182.5 375,-182.5 375,-188.5 369,-194.5 363,-194.5 363,-194.5 293,-194.5 293,-194.5 287,-194.5 281,-188.5 281,-182.5 281,-182.5 281,-104.5 281,-104.5 281,-98.5 287,-92.5 293,-92.5"/>
<text text-anchor="middle" x="328" y="-180.9" font-family="Arial" font-size="12.00">ExpRand</text>
<text text-anchor="middle" x="328" y="-167.9" font-family="Arial" font-size="12.00">(scalar)</text>
<polyline fill="none" stroke="black" stroke-width="2" points="281,-160.5 375,-160.5 "/>
<text text-anchor="middle" x="316.5" y="-146.9" font-family="Arial" font-size="12.00">minimum:</text>
<text text-anchor="middle" x="316.5" y="-133.9" font-family="Arial" font-size="12.00">0.01</text>
<polyline fill="none" stroke="black" stroke-width="2" points="281,-126.5 352,-126.5 "/>
<text text-anchor="middle" x="316.5" y="-112.9" font-family="Arial" font-size="12.00">maximum:</text>
<text text-anchor="middle" x="316.5" y="-99.9" font-family="Arial" font-size="12.00">0.1</text>
<polyline fill="none" stroke="black" stroke-width="2" points="352,-92.5 352,-160.5 "/>
<text text-anchor="middle" x="363.5" y="-123.4" font-family="Arial" font-size="12.00">0</text>
</g>
<!-- ugen_5 -->
<g id="node10" class="node">
<title>ugen_5</title>
<path fill="#ee9572" stroke="black" stroke-width="2" d="M293,-213.5C293,-213.5 363,-213.5 363,-213.5 369,-213.5 375,-219.5 375,-225.5 375,-225.5 375,-303.5 375,-303.5 375,-309.5 369,-315.5 363,-315.5 363,-315.5 293,-315.5 293,-315.5 287,-315.5 281,-309.5 281,-303.5 281,-303.5 281,-225.5 281,-225.5 281,-219.5 287,-213.5 293,-213.5"/>
<text text-anchor="middle" x="328" y="-301.9" font-family="Arial" font-size="12.00">ExpRand</text>
<text text-anchor="middle" x="328" y="-288.9" font-family="Arial" font-size="12.00">(scalar)</text>
<polyline fill="none" stroke="black" stroke-width="2" points="281,-281.5 375,-281.5 "/>
<text text-anchor="middle" x="316.5" y="-267.9" font-family="Arial" font-size="12.00">minimum:</text>
<text text-anchor="middle" x="316.5" y="-254.9" font-family="Arial" font-size="12.00">0.01</text>
<polyline fill="none" stroke="black" stroke-width="2" points="281,-247.5 352,-247.5 "/>
<text text-anchor="middle" x="316.5" y="-233.9" font-family="Arial" font-size="12.00">maximum:</text>
<text text-anchor="middle" x="316.5" y="-220.9" font-family="Arial" font-size="12.00">0.1</text>
<polyline fill="none" stroke="black" stroke-width="2" points="352,-213.5 352,-281.5 "/>
<text text-anchor="middle" x="363.5" y="-244.4" font-family="Arial" font-size="12.00">0</text>
</g>
<!-- ugen_6 -->
<g id="node11" class="node">
<title>ugen_6</title>
<path fill="#bcd2ee" stroke="black" stroke-width="2" d="M461,-243C461,-243 597,-243 597,-243 603,-243 609,-249 609,-255 609,-255 609,-362 609,-362 609,-368 603,-374 597,-374 597,-374 461,-374 461,-374 455,-374 449,-368 449,-362 449,-362 449,-255 449,-255 449,-249 455,-243 461,-243"/>
<text text-anchor="middle" x="529" y="-360.4" font-family="Arial" font-size="12.00">AllpassC</text>
<text text-anchor="middle" x="529" y="-347.4" font-family="Arial" font-size="12.00">(audio)</text>
<polyline fill="none" stroke="black" stroke-width="2" points="449,-340 609,-340 "/>
<text text-anchor="middle" x="517.5" y="-326.4" font-family="Arial" font-size="12.00">source</text>
<polyline fill="none" stroke="black" stroke-width="2" points="449,-319 586,-319 "/>
<text text-anchor="middle" x="517.5" y="-305.4" font-family="Arial" font-size="12.00">maximum_delay_time:</text>
<text text-anchor="middle" x="517.5" y="-292.4" font-family="Arial" font-size="12.00">0.1</text>
<polyline fill="none" stroke="black" stroke-width="2" points="449,-285 586,-285 "/>
<text text-anchor="middle" x="517.5" y="-271.4" font-family="Arial" font-size="12.00">delay_time</text>
<polyline fill="none" stroke="black" stroke-width="2" points="449,-264 586,-264 "/>
<text text-anchor="middle" x="517.5" y="-250.4" font-family="Arial" font-size="12.00">decay_time</text>
<polyline fill="none" stroke="black" stroke-width="2" points="586,-243 586,-340 "/>
<text text-anchor="middle" x="597.5" y="-288.4" font-family="Arial" font-size="12.00">0</text>
</g>
<!-- ugen_7 -->
<g id="node12" class="node">
<title>ugen_7</title>
<path fill="#ee9572" stroke="black" stroke-width="2" d="M494,-0.5C494,-0.5 564,-0.5 564,-0.5 570,-0.5 576,-6.5 576,-12.5 576,-12.5 576,-90.5 576,-90.5 576,-96.5 570,-102.5 564,-102.5 564,-102.5 494,-102.5 494,-102.5 488,-102.5 482,-96.5 482,-90.5 482,-90.5 482,-12.5 482,-12.5 482,-6.5 488,-0.5 494,-0.5"/>
<text text-anchor="middle" x="529" y="-88.9" font-family="Arial" font-size="12.00">ExpRand</text>
<text text-anchor="middle" x="529" y="-75.9" font-family="Arial" font-size="12.00">(scalar)</text>
<polyline fill="none" stroke="black" stroke-width="2" points="482,-68.5 576,-68.5 "/>
<text text-anchor="middle" x="517.5" y="-54.9" font-family="Arial" font-size="12.00">minimum:</text>
<text text-anchor="middle" x="517.5" y="-41.9" font-family="Arial" font-size="12.00">0.01</text>
<polyline fill="none" stroke="black" stroke-width="2" points="482,-34.5 553,-34.5 "/>
<text text-anchor="middle" x="517.5" y="-20.9" font-family="Arial" font-size="12.00">maximum:</text>
<text text-anchor="middle" x="517.5" y="-7.9" font-family="Arial" font-size="12.00">0.1</text>
<polyline fill="none" stroke="black" stroke-width="2" points="553,-0.5 553,-68.5 "/>
<text text-anchor="middle" x="564.5" y="-31.4" font-family="Arial" font-size="12.00">0</text>
</g>
<!-- ugen_8 -->
<g id="node13" class="node">
<title>ugen_8</title>
<path fill="#ee9572" stroke="black" stroke-width="2" d="M494,-121.5C494,-121.5 564,-121.5 564,-121.5 570,-121.5 576,-127.5 576,-133.5 576,-133.5 576,-211.5 576,-211.5 576,-217.5 570,-223.5 564,-223.5 564,-223.5 494,-223.5 494,-223.5 488,-223.5 482,-217.5 482,-211.5 482,-211.5 482,-133.5 482,-133.5 482,-127.5 488,-121.5 494,-121.5"/>
<text text-anchor="middle" x="529" y="-209.9" font-family="Arial" font-size="12.00">ExpRand</text>
<text text-anchor="middle" x="529" y="-196.9" font-family="Arial" font-size="12.00">(scalar)</text>
<polyline fill="none" stroke="black" stroke-width="2" points="482,-189.5 576,-189.5 "/>
<text text-anchor="middle" x="517.5" y="-175.9" font-family="Arial" font-size="12.00">minimum:</text>
<text text-anchor="middle" x="517.5" y="-162.9" font-family="Arial" font-size="12.00">0.01</text>
<polyline fill="none" stroke="black" stroke-width="2" points="482,-155.5 553,-155.5 "/>
<text text-anchor="middle" x="517.5" y="-141.9" font-family="Arial" font-size="12.00">maximum:</text>
<text text-anchor="middle" x="517.5" y="-128.9" font-family="Arial" font-size="12.00">0.1</text>
<polyline fill="none" stroke="black" stroke-width="2" points="553,-121.5 553,-189.5 "/>
<text text-anchor="middle" x="564.5" y="-152.4" font-family="Arial" font-size="12.00">0</text>
</g>
<!-- ugen_9 -->
<g id="node14" class="node">
<title>ugen_9</title>
<path fill="#bcd2ee" stroke="black" stroke-width="2" d="M693,-164C693,-164 829,-164 829,-164 835,-164 841,-170 841,-176 841,-176 841,-283 841,-283 841,-289 835,-295 829,-295 829,-295 693,-295 693,-295 687,-295 681,-289 681,-283 681,-283 681,-176 681,-176 681,-170 687,-164 693,-164"/>
<text text-anchor="middle" x="761" y="-281.4" font-family="Arial" font-size="12.00">AllpassC</text>
<text text-anchor="middle" x="761" y="-268.4" font-family="Arial" font-size="12.00">(audio)</text>
<polyline fill="none" stroke="black" stroke-width="2" points="681,-261 841,-261 "/>
<text text-anchor="middle" x="749.5" y="-247.4" font-family="Arial" font-size="12.00">source</text>
<polyline fill="none" stroke="black" stroke-width="2" points="681,-240 818,-240 "/>
<text text-anchor="middle" x="749.5" y="-226.4" font-family="Arial" font-size="12.00">maximum_delay_time:</text>
<text text-anchor="middle" x="749.5" y="-213.4" font-family="Arial" font-size="12.00">0.1</text>
<polyline fill="none" stroke="black" stroke-width="2" points="681,-206 818,-206 "/>
<text text-anchor="middle" x="749.5" y="-192.4" font-family="Arial" font-size="12.00">delay_time</text>
<polyline fill="none" stroke="black" stroke-width="2" points="681,-185 818,-185 "/>
<text text-anchor="middle" x="749.5" y="-171.4" font-family="Arial" font-size="12.00">decay_time</text>
<polyline fill="none" stroke="black" stroke-width="2" points="818,-164 818,-261 "/>
<text text-anchor="middle" x="829.5" y="-209.4" font-family="Arial" font-size="12.00">0</text>
</g>
</g>
</svg>
