<?xml version="1.0" encoding="UTF-8" standalone="no"?>
<!DOCTYPE svg PUBLIC "-//W3C//DTD SVG 1.1//EN"
 "http://www.w3.org/Graphics/SVG/1.1/DTD/svg11.dtd">
<!-- Generated by graphviz version 2.49.1 (20210923.0004)
 -->
<!-- Title: synthdef_c481c3d42e3cfcee0267250247dab51f Pages: 1 -->
<svg width="610pt" height="319pt"
 viewBox="0.00 0.00 610.00 319.00" xmlns="http://www.w3.org/2000/svg" xmlns:xlink="http://www.w3.org/1999/xlink">
<g id="graph0" class="graph" transform="scale(1 1) rotate(0) translate(4 315)">
<title>synthdef_c481c3d42e3cfcee0267250247dab51f</title>
<!-- ugen_0&#45;&gt;ugen_1 -->
<g id="edge1" class="edge">
<title>ugen_0:e&#45;&gt;ugen_1:w</title>
<path fill="none" stroke="steelblue" stroke-width="2" d="M96,-165.5C124.38,-165.5 133.88,-165.5 157.98,-165.5"/>
<polygon fill="steelblue" stroke="steelblue" stroke-width="2" points="158,-169 168,-165.5 158,-162 158,-169"/>
</g>
<!-- ugen_1&#45;&gt;ugen_2 -->
<g id="edge2" class="edge">
<title>ugen_1:e&#45;&gt;ugen_2:w</title>
<path fill="none" stroke="steelblue" stroke-width="2" d="M264,-165.5C310.47,-165.5 289.59,-240.07 326.06,-251.13"/>
<polygon fill="steelblue" stroke="steelblue" stroke-width="2" points="325.62,-254.61 336,-252.5 326.57,-247.67 325.62,-254.61"/>
</g>
<!-- ugen_1&#45;&gt;ugen_3 -->
<g id="edge3" class="edge">
<title>ugen_1:e&#45;&gt;ugen_3:w</title>
<path fill="none" stroke="steelblue" stroke-width="2" d="M264,-165.5C292.38,-165.5 301.88,-165.5 325.98,-165.5"/>
<polygon fill="steelblue" stroke="steelblue" stroke-width="2" points="326,-169 336,-165.5 326,-162 326,-169"/>
</g>
<!-- ugen_1&#45;&gt;ugen_5 -->
<g id="edge4" class="edge">
<title>ugen_1:e&#45;&gt;ugen_5:w</title>
<path fill="none" stroke="steelblue" stroke-width="2" d="M264,-165.5C322.79,-165.5 279.43,-58.71 325.85,-45.78"/>
<polygon fill="steelblue" stroke="steelblue" stroke-width="2" points="326.52,-49.22 336,-44.5 325.64,-42.28 326.52,-49.22"/>
</g>
<!-- ugen_3&#45;&gt;ugen_4 -->
<g id="edge5" class="edge">
<title>ugen_3:e&#45;&gt;ugen_4:w</title>
<path fill="none" stroke="steelblue" stroke-width="2" d="M434,-148.5C462.38,-148.5 471.88,-148.5 495.98,-148.5"/>
<polygon fill="steelblue" stroke="steelblue" stroke-width="2" points="496,-152 506,-148.5 496,-145 496,-152"/>
</g>
<!-- ugen_5&#45;&gt;ugen_6 -->
<g id="edge6" class="edge">
<title>ugen_5:e&#45;&gt;ugen_6:w</title>
<path fill="none" stroke="steelblue" stroke-width="2" d="M434,-27.5C462.38,-27.5 471.88,-27.5 495.98,-27.5"/>
<polygon fill="steelblue" stroke="steelblue" stroke-width="2" points="496,-31 506,-27.5 496,-24 496,-31"/>
</g>
<!-- ugen_0 -->
<g id="node1" class="node">
<title>ugen_0</title>
<path fill="#bcd2ee" stroke="black" stroke-width="2" d="M12,-148.5C12,-148.5 84,-148.5 84,-148.5 90,-148.5 96,-154.5 96,-160.5 96,-160.5 96,-204.5 96,-204.5 96,-210.5 90,-216.5 84,-216.5 84,-216.5 12,-216.5 12,-216.5 6,-216.5 0,-210.5 0,-204.5 0,-204.5 0,-160.5 0,-160.5 0,-154.5 6,-148.5 12,-148.5"/>
<text text-anchor="middle" x="48" y="-202.9" font-family="Arial" font-size="12.00">LFNoise2</text>
<text text-anchor="middle" x="48" y="-189.9" font-family="Arial" font-size="12.00">(audio)</text>
<polyline fill="none" stroke="black" stroke-width="2" points="0,-182.5 96,-182.5 "/>
<text text-anchor="middle" x="36.5" y="-168.9" font-family="Arial" font-size="12.00">frequency:</text>
<text text-anchor="middle" x="36.5" y="-155.9" font-family="Arial" font-size="12.00">500.0</text>
<polyline fill="none" stroke="black" stroke-width="2" points="73,-148.5 73,-182.5 "/>
<text text-anchor="middle" x="84.5" y="-162.4" font-family="Arial" font-size="12.00">0</text>
</g>
<!-- ugen_1 -->
<g id="node2" class="node">
<title>ugen_1</title>
<path fill="#bcd2ee" stroke="black" stroke-width="2" d="M180,-155.5C180,-155.5 252,-155.5 252,-155.5 258,-155.5 264,-161.5 264,-167.5 264,-167.5 264,-211.5 264,-211.5 264,-217.5 258,-223.5 252,-223.5 252,-223.5 180,-223.5 180,-223.5 174,-223.5 168,-217.5 168,-211.5 168,-211.5 168,-167.5 168,-167.5 168,-161.5 174,-155.5 180,-155.5"/>
<text text-anchor="middle" x="216" y="-209.9" font-family="Arial" font-size="12.00">UnaryOpUGen</text>
<text text-anchor="middle" x="216" y="-196.9" font-family="Arial" font-size="12.00">[HZ_TO_MIDI]</text>
<text text-anchor="middle" x="216" y="-183.9" font-family="Arial" font-size="12.00">(audio)</text>
<polyline fill="none" stroke="black" stroke-width="2" points="168,-176.5 264,-176.5 "/>
<text text-anchor="middle" x="199.5" y="-162.9" font-family="Arial" font-size="12.00">source</text>
<polyline fill="none" stroke="black" stroke-width="2" points="231,-155.5 231,-176.5 "/>
<text text-anchor="middle" x="247.5" y="-162.9" font-family="Arial" font-size="12.00">0</text>
</g>
<!-- ugen_2 -->
<g id="node3" class="node">
<title>ugen_2</title>
<path fill="#bcd2ee" stroke="black" stroke-width="2" d="M349,-242.5C349,-242.5 421,-242.5 421,-242.5 427,-242.5 433,-248.5 433,-254.5 433,-254.5 433,-298.5 433,-298.5 433,-304.5 427,-310.5 421,-310.5 421,-310.5 349,-310.5 349,-310.5 343,-310.5 337,-304.5 337,-298.5 337,-298.5 337,-254.5 337,-254.5 337,-248.5 343,-242.5 349,-242.5"/>
<text text-anchor="middle" x="385" y="-296.9" font-family="Arial" font-size="12.00">UnaryOpUGen</text>
<text text-anchor="middle" x="385" y="-283.9" font-family="Arial" font-size="12.00">[MIDI_TO_HZ]</text>
<text text-anchor="middle" x="385" y="-270.9" font-family="Arial" font-size="12.00">(audio)</text>
<polyline fill="none" stroke="black" stroke-width="2" points="337,-263.5 433,-263.5 "/>
<text text-anchor="middle" x="368.5" y="-249.9" font-family="Arial" font-size="12.00">source</text>
<polyline fill="none" stroke="black" stroke-width="2" points="400,-242.5 400,-263.5 "/>
<text text-anchor="middle" x="416.5" y="-249.9" font-family="Arial" font-size="12.00">0</text>
</g>
<!-- ugen_3 -->
<g id="node4" class="node">
<title>ugen_3</title>
<path fill="#bcd2ee" stroke="black" stroke-width="2" d="M348,-121.5C348,-121.5 422,-121.5 422,-121.5 428,-121.5 434,-127.5 434,-133.5 434,-133.5 434,-211.5 434,-211.5 434,-217.5 428,-223.5 422,-223.5 422,-223.5 348,-223.5 348,-223.5 342,-223.5 336,-217.5 336,-211.5 336,-211.5 336,-133.5 336,-133.5 336,-127.5 342,-121.5 348,-121.5"/>
<text text-anchor="middle" x="385" y="-209.9" font-family="Arial" font-size="12.00">BinaryOpUGen</text>
<text text-anchor="middle" x="385" y="-196.9" font-family="Arial" font-size="12.00">[ADDITION]</text>
<text text-anchor="middle" x="385" y="-183.9" font-family="Arial" font-size="12.00">(audio)</text>
<polyline fill="none" stroke="black" stroke-width="2" points="336,-176.5 434,-176.5 "/>
<text text-anchor="middle" x="365.5" y="-162.9" font-family="Arial" font-size="12.00">left</text>
<polyline fill="none" stroke="black" stroke-width="2" points="336,-155.5 395,-155.5 "/>
<text text-anchor="middle" x="365.5" y="-141.9" font-family="Arial" font-size="12.00">right:</text>
<text text-anchor="middle" x="365.5" y="-128.9" font-family="Arial" font-size="12.00">3.0</text>
<polyline fill="none" stroke="black" stroke-width="2" points="395,-121.5 395,-176.5 "/>
<text text-anchor="middle" x="414.5" y="-145.9" font-family="Arial" font-size="12.00">0</text>
</g>
<!-- ugen_4 -->
<g id="node5" class="node">
<title>ugen_4</title>
<path fill="#bcd2ee" stroke="black" stroke-width="2" d="M518,-138.5C518,-138.5 590,-138.5 590,-138.5 596,-138.5 602,-144.5 602,-150.5 602,-150.5 602,-194.5 602,-194.5 602,-200.5 596,-206.5 590,-206.5 590,-206.5 518,-206.5 518,-206.5 512,-206.5 506,-200.5 506,-194.5 506,-194.5 506,-150.5 506,-150.5 506,-144.5 512,-138.5 518,-138.5"/>
<text text-anchor="middle" x="554" y="-192.9" font-family="Arial" font-size="12.00">UnaryOpUGen</text>
<text text-anchor="middle" x="554" y="-179.9" font-family="Arial" font-size="12.00">[MIDI_TO_HZ]</text>
<text text-anchor="middle" x="554" y="-166.9" font-family="Arial" font-size="12.00">(audio)</text>
<polyline fill="none" stroke="black" stroke-width="2" points="506,-159.5 602,-159.5 "/>
<text text-anchor="middle" x="537.5" y="-145.9" font-family="Arial" font-size="12.00">source</text>
<polyline fill="none" stroke="black" stroke-width="2" points="569,-138.5 569,-159.5 "/>
<text text-anchor="middle" x="585.5" y="-145.9" font-family="Arial" font-size="12.00">0</text>
</g>
<!-- ugen_5 -->
<g id="node6" class="node">
<title>ugen_5</title>
<path fill="#bcd2ee" stroke="black" stroke-width="2" d="M348,-0.5C348,-0.5 422,-0.5 422,-0.5 428,-0.5 434,-6.5 434,-12.5 434,-12.5 434,-90.5 434,-90.5 434,-96.5 428,-102.5 422,-102.5 422,-102.5 348,-102.5 348,-102.5 342,-102.5 336,-96.5 336,-90.5 336,-90.5 336,-12.5 336,-12.5 336,-6.5 342,-0.5 348,-0.5"/>
<text text-anchor="middle" x="385" y="-88.9" font-family="Arial" font-size="12.00">BinaryOpUGen</text>
<text text-anchor="middle" x="385" y="-75.9" font-family="Arial" font-size="12.00">[ADDITION]</text>
<text text-anchor="middle" x="385" y="-62.9" font-family="Arial" font-size="12.00">(audio)</text>
<polyline fill="none" stroke="black" stroke-width="2" points="336,-55.5 434,-55.5 "/>
<text text-anchor="middle" x="365.5" y="-41.9" font-family="Arial" font-size="12.00">left</text>
<polyline fill="none" stroke="black" stroke-width="2" points="336,-34.5 395,-34.5 "/>
<text text-anchor="middle" x="365.5" y="-20.9" font-family="Arial" font-size="12.00">right:</text>
<text text-anchor="middle" x="365.5" y="-7.9" font-family="Arial" font-size="12.00">7.0</text>
<polyline fill="none" stroke="black" stroke-width="2" points="395,-0.5 395,-55.5 "/>
<text text-anchor="middle" x="414.5" y="-24.9" font-family="Arial" font-size="12.00">0</text>
</g>
<!-- ugen_6 -->
<g id="node7" class="node">
<title>ugen_6</title>
<path fill="#bcd2ee" stroke="black" stroke-width="2" d="M518,-17.5C518,-17.5 590,-17.5 590,-17.5 596,-17.5 602,-23.5 602,-29.5 602,-29.5 602,-73.5 602,-73.5 602,-79.5 596,-85.5 590,-85.5 590,-85.5 518,-85.5 518,-85.5 512,-85.5 506,-79.5 506,-73.5 506,-73.5 506,-29.5 506,-29.5 506,-23.5 512,-17.5 518,-17.5"/>
<text text-anchor="middle" x="554" y="-71.9" font-family="Arial" font-size="12.00">UnaryOpUGen</text>
<text text-anchor="middle" x="554" y="-58.9" font-family="Arial" font-size="12.00">[MIDI_TO_HZ]</text>
<text text-anchor="middle" x="554" y="-45.9" font-family="Arial" font-size="12.00">(audio)</text>
<polyline fill="none" stroke="black" stroke-width="2" points="506,-38.5 602,-38.5 "/>
<text text-anchor="middle" x="537.5" y="-24.9" font-family="Arial" font-size="12.00">source</text>
<polyline fill="none" stroke="black" stroke-width="2" points="569,-17.5 569,-38.5 "/>
<text text-anchor="middle" x="585.5" y="-24.9" font-family="Arial" font-size="12.00">0</text>
</g>
</g>
</svg>
