<?xml version="1.0" encoding="UTF-8" standalone="no"?>
<!DOCTYPE svg PUBLIC "-//W3C//DTD SVG 1.1//EN"
 "http://www.w3.org/Graphics/SVG/1.1/DTD/svg11.dtd">
<!-- Generated by graphviz version 2.44.1 (20200629.0846)
 -->
<!-- Title: synthdef_350f2065d4edc69244399dcaff5a1ceb Pages: 1 -->
<svg width="103pt" height="77pt"
 viewBox="0.00 0.00 103.00 77.00" xmlns="http://www.w3.org/2000/svg" xmlns:xlink="http://www.w3.org/1999/xlink">
<g id="graph0" class="graph" transform="scale(1 1) rotate(0) translate(4 73)">
<title>synthdef_350f2065d4edc69244399dcaff5a1ceb</title>
<!-- ugen_0 -->
<g id="node1" class="node">
<title>ugen_0</title>
<path fill="#bcd2ee" stroke="black" stroke-width="2" d="M12,-0.5C12,-0.5 83,-0.5 83,-0.5 89,-0.5 95,-6.5 95,-12.5 95,-12.5 95,-56.5 95,-56.5 95,-62.5 89,-68.5 83,-68.5 83,-68.5 12,-68.5 12,-68.5 6,-68.5 0,-62.5 0,-56.5 0,-56.5 0,-12.5 0,-12.5 0,-6.5 6,-0.5 12,-0.5"/>
<text text-anchor="middle" x="47.5" y="-54.9" font-family="Arial" font-size="12.00">LFNoise2</text>
<text text-anchor="middle" x="47.5" y="-41.9" font-family="Arial" font-size="12.00">(audio)</text>
<polyline fill="none" stroke="black" stroke-width="2" points="0,-34.5 95,-34.5 "/>
<text text-anchor="middle" x="36" y="-20.9" font-family="Arial" font-size="12.00">frequency:</text>
<text text-anchor="middle" x="36" y="-7.9" font-family="Arial" font-size="12.00">500.0</text>
<polyline fill="none" stroke="black" stroke-width="2" points="72,-0.5 72,-34.5 "/>
<text text-anchor="middle" x="83.5" y="-14.4" font-family="Arial" font-size="12.00">0</text>
</g>
</g>
</svg>
