<?xml version="1.0" encoding="UTF-8" standalone="no"?>
<!DOCTYPE svg PUBLIC "-//W3C//DTD SVG 1.1//EN"
 "http://www.w3.org/Graphics/SVG/1.1/DTD/svg11.dtd">
<!-- Generated by graphviz version 2.40.1 (20161225.0304)
 -->
<!-- Title: synthdef_fb63450852ac2df2fad1242e27a913d6 Pages: 1 -->
<svg width="64pt" height="77pt"
 viewBox="0.00 0.00 64.00 77.00" xmlns="http://www.w3.org/2000/svg" xmlns:xlink="http://www.w3.org/1999/xlink">
<g id="graph0" class="graph" transform="scale(1 1) rotate(0) translate(4 73)">
<title>synthdef_fb63450852ac2df2fad1242e27a913d6</title>
<!-- ugen_0 -->
<g id="node1" class="node">
<title>ugen_0</title>
<path fill="#bcd2ee" stroke="#000000" stroke-width="2" d="M12,-.5C12,-.5 44,-.5 44,-.5 50,-.5 56,-6.5 56,-12.5 56,-12.5 56,-56.5 56,-56.5 56,-62.5 50,-68.5 44,-68.5 44,-68.5 12,-68.5 12,-68.5 6,-68.5 0,-62.5 0,-56.5 0,-56.5 0,-12.5 0,-12.5 0,-6.5 6,-.5 12,-.5"/>
<text text-anchor="middle" x="28" y="-54.9" font-family="Arial" font-size="12.00" fill="#000000">In</text>
<text text-anchor="middle" x="28" y="-41.9" font-family="Arial" font-size="12.00" fill="#000000">(audio)</text>
<polyline fill="none" stroke="#000000" stroke-width="2" points="0,-34.5 56,-34.5 "/>
<text text-anchor="middle" x="17" y="-20.9" font-family="Arial" font-size="12.00" fill="#000000">bus:</text>
<text text-anchor="middle" x="17" y="-7.9" font-family="Arial" font-size="12.00" fill="#000000">8.0</text>
<polyline fill="none" stroke="#000000" stroke-width="2" points="34,-.5 34,-34.5 "/>
<text text-anchor="middle" x="45" y="-14.4" font-family="Arial" font-size="12.00" fill="#000000">0</text>
</g>
</g>
</svg>
