<?xml version="1.0" encoding="UTF-8" standalone="no"?>
<!DOCTYPE svg PUBLIC "-//W3C//DTD SVG 1.1//EN"
 "http://www.w3.org/Graphics/SVG/1.1/DTD/svg11.dtd">
<!-- Generated by graphviz version 2.44.1 (20200629.0846)
 -->
<!-- Title: InheritanceGraph Pages: 1 -->
<svg width="728pt" height="572pt"
 viewBox="0.00 0.00 727.54 572.16" xmlns="http://www.w3.org/2000/svg" xmlns:xlink="http://www.w3.org/1999/xlink">
<g id="graph0" class="graph" transform="scale(1 1) rotate(0) translate(4 568.16)">
<title>InheritanceGraph</title>
<g id="clust1" class="cluster">
<title>cluster_builtins</title>
<path fill="transparent" stroke="#bcd2ee" stroke-width="2" stroke-dasharray="5,2" d="M20,-95.16C20,-95.16 55,-95.16 55,-95.16 61,-95.16 67,-101.16 67,-107.16 67,-107.16 67,-138.16 67,-138.16 67,-144.16 61,-150.16 55,-150.16 55,-150.16 20,-150.16 20,-150.16 14,-150.16 8,-144.16 8,-138.16 8,-138.16 8,-107.16 8,-107.16 8,-101.16 14,-95.16 20,-95.16"/>
<text text-anchor="middle" x="37.5" y="-138.16" font-family="Arial" font-size="10.00">builtins</text>
</g>
<g id="clust2" class="cluster">
<title>cluster_supriya.nonrealtime.bases</title>
<path fill="transparent" stroke="#bcd2ee" stroke-width="2" stroke-dasharray="5,2" d="M267,-245.16C267,-245.16 373.54,-245.16 373.54,-245.16 379.54,-245.16 385.54,-251.16 385.54,-257.16 385.54,-257.16 385.54,-310.16 385.54,-310.16 385.54,-316.16 379.54,-322.16 373.54,-322.16 373.54,-322.16 267,-322.16 267,-322.16 261,-322.16 255,-316.16 255,-310.16 255,-310.16 255,-257.16 255,-257.16 255,-251.16 261,-245.16 267,-245.16"/>
<text text-anchor="middle" x="320.27" y="-310.16" font-family="Arial" font-size="10.00">supriya.nonrealtime.bases</text>
</g>
<g id="clust3" class="cluster">
<title>cluster_supriya.nonrealtime.buffers</title>
<path fill="transparent" stroke="#bcd2ee" stroke-width="2" stroke-dasharray="5,2" d="M507.54,-227.16C507.54,-227.16 617.54,-227.16 617.54,-227.16 623.54,-227.16 629.54,-233.16 629.54,-239.16 629.54,-239.16 629.54,-318.16 629.54,-318.16 629.54,-324.16 623.54,-330.16 617.54,-330.16 617.54,-330.16 507.54,-330.16 507.54,-330.16 501.54,-330.16 495.54,-324.16 495.54,-318.16 495.54,-318.16 495.54,-239.16 495.54,-239.16 495.54,-233.16 501.54,-227.16 507.54,-227.16"/>
<text text-anchor="middle" x="562.54" y="-318.16" font-family="Arial" font-size="10.00">supriya.nonrealtime.buffers</text>
</g>
<g id="clust4" class="cluster">
<title>cluster_supriya.nonrealtime.buses</title>
<path fill="transparent" stroke="#bcd2ee" stroke-width="2" stroke-dasharray="5,2" d="M425.04,-449.16C425.04,-449.16 699.54,-449.16 699.54,-449.16 705.54,-449.16 711.54,-455.16 711.54,-461.16 711.54,-461.16 711.54,-544.16 711.54,-544.16 711.54,-550.16 705.54,-556.16 699.54,-556.16 699.54,-556.16 425.04,-556.16 425.04,-556.16 419.04,-556.16 413.04,-550.16 413.04,-544.16 413.04,-544.16 413.04,-461.16 413.04,-461.16 413.04,-455.16 419.04,-449.16 425.04,-449.16"/>
<text text-anchor="middle" x="562.29" y="-544.16" font-family="Arial" font-size="10.00">supriya.nonrealtime.buses</text>
</g>
<g id="clust5" class="cluster">
<title>cluster_supriya.nonrealtime.nodes</title>
<path fill="transparent" stroke="#bcd2ee" stroke-width="2" stroke-dasharray="5,2" d="M426.54,-338.16C426.54,-338.16 697.54,-338.16 697.54,-338.16 703.54,-338.16 709.54,-344.16 709.54,-350.16 709.54,-350.16 709.54,-429.16 709.54,-429.16 709.54,-435.16 703.54,-441.16 697.54,-441.16 697.54,-441.16 426.54,-441.16 426.54,-441.16 420.54,-441.16 414.54,-435.16 414.54,-429.16 414.54,-429.16 414.54,-350.16 414.54,-350.16 414.54,-344.16 420.54,-338.16 426.54,-338.16"/>
<text text-anchor="middle" x="562.04" y="-429.16" font-family="Arial" font-size="10.00">supriya.nonrealtime.nodes</text>
</g>
<g id="clust6" class="cluster">
<title>cluster_supriya.nonrealtime.renderer</title>
<path fill="transparent" stroke="#bcd2ee" stroke-width="2" stroke-dasharray="5,2" d="M261.77,-11.16C261.77,-11.16 377.77,-11.16 377.77,-11.16 383.77,-11.16 389.77,-17.16 389.77,-23.16 389.77,-23.16 389.77,-64.16 389.77,-64.16 389.77,-70.16 383.77,-76.16 377.77,-76.16 377.77,-76.16 261.77,-76.16 261.77,-76.16 255.77,-76.16 249.77,-70.16 249.77,-64.16 249.77,-64.16 249.77,-23.16 249.77,-23.16 249.77,-17.16 255.77,-11.16 261.77,-11.16"/>
<text text-anchor="middle" x="319.77" y="-64.16" font-family="Arial" font-size="10.00">supriya.nonrealtime.renderer</text>
</g>
<g id="clust7" class="cluster">
<title>cluster_supriya.nonrealtime.sessions</title>
<path fill="transparent" stroke="#bcd2ee" stroke-width="2" stroke-dasharray="5,2" d="M99,-169.16C99,-169.16 218,-169.16 218,-169.16 224,-169.16 230,-175.16 230,-181.16 230,-181.16 230,-212.16 230,-212.16 230,-218.16 224,-224.16 218,-224.16 218,-224.16 99,-224.16 99,-224.16 93,-224.16 87,-218.16 87,-212.16 87,-212.16 87,-181.16 87,-181.16 87,-175.16 93,-169.16 99,-169.16"/>
<text text-anchor="middle" x="158.5" y="-212.16" font-family="Arial" font-size="10.00">supriya.nonrealtime.sessions</text>
</g>
<g id="clust8" class="cluster">
<title>cluster_supriya.nonrealtime.states</title>
<path fill="transparent" stroke="#bcd2ee" stroke-width="2" stroke-dasharray="5,2" d="M508.54,-19.16C508.54,-19.16 615.54,-19.16 615.54,-19.16 621.54,-19.16 627.54,-25.16 627.54,-31.16 627.54,-31.16 627.54,-207.16 627.54,-207.16 627.54,-213.16 621.54,-219.16 615.54,-219.16 615.54,-219.16 508.54,-219.16 508.54,-219.16 502.54,-219.16 496.54,-213.16 496.54,-207.16 496.54,-207.16 496.54,-31.16 496.54,-31.16 496.54,-25.16 502.54,-19.16 508.54,-19.16"/>
<text text-anchor="middle" x="562.04" y="-207.16" font-family="Arial" font-size="10.00">supriya.nonrealtime.states</text>
</g>
<g id="clust9" class="cluster">
<title>cluster_supriya.system</title>
<path fill="transparent" stroke="#bcd2ee" stroke-width="2" stroke-dasharray="5,2" d="M137,-84.16C137,-84.16 463.54,-84.16 463.54,-84.16 469.54,-84.16 475.54,-90.16 475.54,-96.16 475.54,-96.16 475.54,-149.16 475.54,-149.16 475.54,-155.16 469.54,-161.16 463.54,-161.16 463.54,-161.16 137,-161.16 137,-161.16 131,-161.16 125,-155.16 125,-149.16 125,-149.16 125,-96.16 125,-96.16 125,-90.16 131,-84.16 137,-84.16"/>
<text text-anchor="middle" x="300.27" y="-149.16" font-family="Arial" font-size="10.00">supriya.system</text>
</g>
<!-- builtins.object&#45;&gt;supriya.nonrealtime.sessions.Session -->
<g id="edge7" class="edge">
<title>builtins.object&#45;&gt;supriya.nonrealtime.sessions.Session</title>
<path fill="none" stroke="lightslategrey" d="M45.23,-123.03C53.68,-134.71 69.25,-153.97 87,-165.16 97.5,-171.78 110.15,-176.55 121.79,-179.91"/>
<polygon fill="lightslategrey" stroke="lightslategrey" points="121.12,-183.36 131.68,-182.52 122.91,-176.59 121.12,-183.36"/>
</g>
<!-- builtins.object&#45;&gt;supriya.nonrealtime.states.DoNotPropagate -->
<g id="edge8" class="edge">
<title>builtins.object&#45;&gt;supriya.nonrealtime.states.DoNotPropagate</title>
<path fill="none" stroke="lightslategrey" d="M51.44,-103.65C83.19,-81.03 168.31,-24.59 249.77,-7.16 346.26,13.49 461.93,-15.57 521.41,-34.36"/>
<polygon fill="lightslategrey" stroke="lightslategrey" points="520.56,-37.76 531.16,-37.5 522.72,-31.1 520.56,-37.76"/>
</g>
<!-- builtins.object&#45;&gt;supriya.system.SupriyaObject -->
<g id="edge9" class="edge">
<title>builtins.object&#45;&gt;supriya.system.SupriyaObject</title>
<path fill="none" stroke="lightslategrey" d="M59.14,-113.16C76.65,-113.16 102.11,-113.16 122.68,-113.16"/>
<polygon fill="lightslategrey" stroke="lightslategrey" points="122.92,-116.66 132.92,-113.16 122.92,-109.66 122.92,-116.66"/>
</g>
<!-- supriya.nonrealtime.bases.SessionObject&#45;&gt;supriya.nonrealtime.buffers.Buffer -->
<g id="edge10" class="edge">
<title>supriya.nonrealtime.bases.SessionObject&#45;&gt;supriya.nonrealtime.buffers.Buffer</title>
<path fill="none" stroke="lightslategrey" d="M356.22,-276.96C403.49,-280.7 486.36,-287.25 530.82,-290.77"/>
<polygon fill="lightslategrey" stroke="lightslategrey" points="530.75,-294.28 540.99,-291.57 531.3,-287.3 530.75,-294.28"/>
</g>
<!-- supriya.nonrealtime.bases.SessionObject&#45;&gt;supriya.nonrealtime.buffers.BufferGroup -->
<g id="edge11" class="edge">
<title>supriya.nonrealtime.bases.SessionObject&#45;&gt;supriya.nonrealtime.buffers.BufferGroup</title>
<path fill="none" stroke="lightslategrey" d="M356.22,-270.62C403.25,-265.92 485.52,-257.7 530.14,-253.25"/>
<polygon fill="lightslategrey" stroke="lightslategrey" points="530.76,-256.7 540.37,-252.22 530.07,-249.74 530.76,-256.7"/>
</g>
<!-- supriya.nonrealtime.bases.SessionObject&#45;&gt;supriya.nonrealtime.buses.Bus -->
<g id="edge12" class="edge">
<title>supriya.nonrealtime.bases.SessionObject&#45;&gt;supriya.nonrealtime.buses.Bus</title>
<path fill="none" stroke="lightslategrey" d="M325.13,-295.45C334.72,-337.97 361.04,-434.74 413.04,-498.16 414.31,-499.71 415.74,-501.18 417.27,-502.57"/>
<polygon fill="lightslategrey" stroke="lightslategrey" points="415.33,-505.5 425.41,-508.77 419.58,-499.93 415.33,-505.5"/>
</g>
<!-- supriya.nonrealtime.bases.SessionObject&#45;&gt;supriya.nonrealtime.buses.BusGroup -->
<g id="edge13" class="edge">
<title>supriya.nonrealtime.bases.SessionObject&#45;&gt;supriya.nonrealtime.buses.BusGroup</title>
<path fill="none" stroke="lightslategrey" d="M329.57,-294.74C344.3,-328 375.98,-394.95 413.04,-445.16 414.58,-447.25 416.26,-449.33 418.02,-451.37"/>
<polygon fill="lightslategrey" stroke="lightslategrey" points="415.65,-453.96 425,-458.94 420.79,-449.22 415.65,-453.96"/>
</g>
<!-- supriya.nonrealtime.bases.SessionObject&#45;&gt;supriya.nonrealtime.nodes.Node -->
<g id="edge14" class="edge">
<title>supriya.nonrealtime.bases.SessionObject&#45;&gt;supriya.nonrealtime.nodes.Node</title>
<path fill="none" stroke="lightslategrey" d="M343.49,-290.52C365.47,-306.36 398.53,-330.18 420.08,-345.7"/>
<polygon fill="lightslategrey" stroke="lightslategrey" points="418.11,-348.59 428.27,-351.6 422.2,-342.91 418.11,-348.59"/>
</g>
<!-- supriya.nonrealtime.bases.SessionObject&#45;&gt;supriya.nonrealtime.states.Moment -->
<g id="edge15" class="edge">
<title>supriya.nonrealtime.bases.SessionObject&#45;&gt;supriya.nonrealtime.states.Moment</title>
<path fill="none" stroke="lightslategrey" d="M350.71,-262.69C395.46,-245.56 479.55,-213.36 526.71,-195.3"/>
<polygon fill="lightslategrey" stroke="lightslategrey" points="528.1,-198.52 536.19,-191.67 525.6,-191.98 528.1,-198.52"/>
</g>
<!-- supriya.nonrealtime.bases.SessionObject&#45;&gt;supriya.nonrealtime.states.State -->
<g id="edge16" class="edge">
<title>supriya.nonrealtime.bases.SessionObject&#45;&gt;supriya.nonrealtime.states.State</title>
<path fill="none" stroke="lightslategrey" d="M342.44,-257.42C374.33,-233.54 436.5,-189.76 495.54,-164.16 507.1,-159.15 520.37,-155.02 531.93,-151.91"/>
<polygon fill="lightslategrey" stroke="lightslategrey" points="533.14,-155.21 541.96,-149.34 531.41,-148.43 533.14,-155.21"/>
</g>
<!-- supriya.nonrealtime.buses.BusGroup&#45;&gt;supriya.nonrealtime.buses.AudioInputBusGroup -->
<g id="edge1" class="edge">
<title>supriya.nonrealtime.buses.BusGroup&#45;&gt;supriya.nonrealtime.buses.AudioInputBusGroup</title>
<path fill="none" stroke="lightslategrey" d="M464.28,-475.75C482.56,-477.15 509.47,-479.21 530.27,-480.8"/>
<polygon fill="lightslategrey" stroke="lightslategrey" points="530.27,-484.31 540.51,-481.59 530.81,-477.33 530.27,-484.31"/>
</g>
<!-- supriya.nonrealtime.buses.BusGroup&#45;&gt;supriya.nonrealtime.buses.AudioOutputBusGroup -->
<g id="edge2" class="edge">
<title>supriya.nonrealtime.buses.BusGroup&#45;&gt;supriya.nonrealtime.buses.AudioOutputBusGroup</title>
<path fill="none" stroke="lightslategrey" d="M463.41,-489.2C467.48,-492.42 471.69,-495.85 475.54,-499.16 484.83,-507.17 484.15,-513.61 495.54,-518.16 545.74,-538.2 609.65,-525.33 647.42,-514.21"/>
<polygon fill="lightslategrey" stroke="lightslategrey" points="648.82,-517.44 657.35,-511.15 646.76,-510.75 648.82,-517.44"/>
</g>
<!-- supriya.nonrealtime.nodes.Group&#45;&gt;supriya.nonrealtime.nodes.RootNode -->
<g id="edge3" class="edge">
<title>supriya.nonrealtime.nodes.Group&#45;&gt;supriya.nonrealtime.nodes.RootNode</title>
<path fill="none" stroke="lightslategrey" d="M583.6,-361.16C602.07,-361.16 629.39,-361.16 650.16,-361.16"/>
<polygon fill="lightslategrey" stroke="lightslategrey" points="650.34,-364.66 660.34,-361.16 650.34,-357.66 650.34,-364.66"/>
</g>
<!-- supriya.nonrealtime.nodes.Node&#45;&gt;supriya.nonrealtime.nodes.Group -->
<g id="edge4" class="edge">
<title>supriya.nonrealtime.nodes.Node&#45;&gt;supriya.nonrealtime.nodes.Group</title>
<path fill="none" stroke="lightslategrey" d="M462.68,-361.16C480.93,-361.16 508.71,-361.16 530.11,-361.16"/>
<polygon fill="lightslategrey" stroke="lightslategrey" points="530.32,-364.66 540.32,-361.16 530.32,-357.66 530.32,-364.66"/>
</g>
<!-- supriya.nonrealtime.nodes.Node&#45;&gt;supriya.nonrealtime.nodes.Synth -->
<g id="edge5" class="edge">
<title>supriya.nonrealtime.nodes.Node&#45;&gt;supriya.nonrealtime.nodes.Synth</title>
<path fill="none" stroke="lightslategrey" d="M462.98,-369.42C472.61,-373.22 484.52,-377.46 495.54,-380.16 548.8,-393.19 612.57,-399.5 649.33,-402.27"/>
<polygon fill="lightslategrey" stroke="lightslategrey" points="649.17,-405.77 659.4,-402.99 649.67,-398.79 649.17,-405.77"/>
</g>
<!-- supriya.system.SupriyaObject&#45;&gt;supriya.nonrealtime.bases.SessionObject -->
<g id="edge17" class="edge">
<title>supriya.system.SupriyaObject&#45;&gt;supriya.nonrealtime.bases.SessionObject</title>
<path fill="none" stroke="lightslategrey" d="M182.54,-128.16C196.96,-137.88 215.38,-151.27 230,-165.16 256.36,-190.2 282.1,-223.01 299.02,-246.06"/>
<polygon fill="lightslategrey" stroke="lightslategrey" points="296.35,-248.34 305.05,-254.39 302.01,-244.23 296.35,-248.34"/>
</g>
<!-- supriya.system.SupriyaObject&#45;&gt;supriya.nonrealtime.renderer.SessionRenderer -->
<g id="edge18" class="edge">
<title>supriya.system.SupriyaObject&#45;&gt;supriya.nonrealtime.renderer.SessionRenderer</title>
<path fill="none" stroke="lightslategrey" d="M183.27,-101.16C209.69,-88.1 252.23,-67.06 282.59,-52.05"/>
<polygon fill="lightslategrey" stroke="lightslategrey" points="284.18,-55.17 291.6,-47.6 281.08,-48.89 284.18,-55.17"/>
</g>
<!-- supriya.system.SupriyaObject&#45;&gt;supriya.system.SupriyaValueObject -->
<g id="edge6" class="edge">
<title>supriya.system.SupriyaObject&#45;&gt;supriya.system.SupriyaValueObject</title>
<path fill="none" stroke="lightslategrey" d="M183.09,-113.16C233.34,-113.16 349.48,-113.16 407.4,-113.16"/>
<polygon fill="lightslategrey" stroke="lightslategrey" points="407.51,-116.66 417.51,-113.16 407.51,-109.66 407.51,-116.66"/>
</g>
<!-- supriya.system.SupriyaValueObject&#45;&gt;supriya.nonrealtime.states.NodeTransition -->
<g id="edge19" class="edge">
<title>supriya.system.SupriyaValueObject&#45;&gt;supriya.nonrealtime.states.NodeTransition</title>
<path fill="none" stroke="lightslategrey" d="M467.6,-110.91C483.39,-109.43 504.39,-107.46 522.47,-105.77"/>
<polygon fill="lightslategrey" stroke="lightslategrey" points="522.82,-109.25 532.45,-104.84 522.17,-102.28 522.82,-109.25"/>
</g>
<!-- builtins.object -->
<g id="node1" class="node">
<title>builtins.object</title>
<g id="a_node1"><a xlink:href="https://docs.python.org/3/library/functions.html#object" xlink:title="object" target="_top">
<path fill="#fbb4ae" stroke="#fbb4ae" stroke-width="2" d="M52.67,-122.66C52.67,-122.66 22.33,-122.66 22.33,-122.66 19.17,-122.66 16,-119.49 16,-116.33 16,-116.33 16,-109.99 16,-109.99 16,-106.83 19.17,-103.66 22.33,-103.66 22.33,-103.66 52.67,-103.66 52.67,-103.66 55.83,-103.66 59,-106.83 59,-109.99 59,-109.99 59,-116.33 59,-116.33 59,-119.49 55.83,-122.66 52.67,-122.66"/>
<text text-anchor="middle" x="37.5" y="-110.66" font-family="Arial" font-size="10.00">object</text>
</a>
</g>
</g>
<!-- supriya.nonrealtime.bases.SessionObject -->
<g id="node2" class="node">
<title>supriya.nonrealtime.bases.SessionObject</title>
<g id="a_node2"><a xlink:href="../api/supriya/nonrealtime/bases.html#supriya.nonrealtime.bases.SessionObject" xlink:title="Session\nObject" target="_top">
<ellipse fill="none" stroke="#b3cde3" stroke-width="2" cx="319.77" cy="-274.16" rx="36.54" ry="21.43"/>
<text text-anchor="middle" x="319.77" y="-277.16" font-family="Arial" font-size="10.00">Session</text>
<text text-anchor="middle" x="319.77" y="-266.16" font-family="Arial" font-size="10.00">Object</text>
</a>
</g>
</g>
<!-- supriya.nonrealtime.buffers.Buffer -->
<g id="node3" class="node">
<title>supriya.nonrealtime.buffers.Buffer</title>
<g id="a_node3"><a xlink:href="../api/supriya/nonrealtime/buffers.html#supriya.nonrealtime.buffers.Buffer" xlink:title="Buffer" target="_top">
<path fill="#ccebc5" stroke="#ccebc5" stroke-width="2" d="M576.71,-302.66C576.71,-302.66 547.37,-302.66 547.37,-302.66 544.21,-302.66 541.04,-299.49 541.04,-296.33 541.04,-296.33 541.04,-289.99 541.04,-289.99 541.04,-286.83 544.21,-283.66 547.37,-283.66 547.37,-283.66 576.71,-283.66 576.71,-283.66 579.87,-283.66 583.04,-286.83 583.04,-289.99 583.04,-289.99 583.04,-296.33 583.04,-296.33 583.04,-299.49 579.87,-302.66 576.71,-302.66"/>
<text text-anchor="middle" x="562.04" y="-290.66" font-family="Arial" font-size="10.00">Buffer</text>
</a>
</g>
</g>
<!-- supriya.nonrealtime.buffers.BufferGroup -->
<g id="node4" class="node">
<title>supriya.nonrealtime.buffers.BufferGroup</title>
<g id="a_node4"><a xlink:href="../api/supriya/nonrealtime/buffers.html#supriya.nonrealtime.buffers.BufferGroup" xlink:title="Buffer\nGroup" target="_top">
<path fill="#ccebc5" stroke="#ccebc5" stroke-width="2" d="M573.54,-265.16C573.54,-265.16 550.54,-265.16 550.54,-265.16 545.54,-265.16 540.54,-260.16 540.54,-255.16 540.54,-255.16 540.54,-245.16 540.54,-245.16 540.54,-240.16 545.54,-235.16 550.54,-235.16 550.54,-235.16 573.54,-235.16 573.54,-235.16 578.54,-235.16 583.54,-240.16 583.54,-245.16 583.54,-245.16 583.54,-255.16 583.54,-255.16 583.54,-260.16 578.54,-265.16 573.54,-265.16"/>
<text text-anchor="middle" x="562.04" y="-253.16" font-family="Arial" font-size="10.00">Buffer</text>
<text text-anchor="middle" x="562.04" y="-242.16" font-family="Arial" font-size="10.00">Group</text>
</a>
</g>
</g>
<!-- supriya.nonrealtime.buses.AudioInputBusGroup -->
<g id="node5" class="node">
<title>supriya.nonrealtime.buses.AudioInputBusGroup</title>
<g id="a_node5"><a xlink:href="../api/supriya/nonrealtime/buses.html#supriya.nonrealtime.buses.AudioInputBusGroup" xlink:title="Audio\nInput\nBus\nGroup" target="_top">
<path fill="#decbe4" stroke="#decbe4" stroke-width="2" d="M571.54,-509.16C571.54,-509.16 552.54,-509.16 552.54,-509.16 546.54,-509.16 540.54,-503.16 540.54,-497.16 540.54,-497.16 540.54,-469.16 540.54,-469.16 540.54,-463.16 546.54,-457.16 552.54,-457.16 552.54,-457.16 571.54,-457.16 571.54,-457.16 577.54,-457.16 583.54,-463.16 583.54,-469.16 583.54,-469.16 583.54,-497.16 583.54,-497.16 583.54,-503.16 577.54,-509.16 571.54,-509.16"/>
<text text-anchor="middle" x="562.04" y="-497.16" font-family="Arial" font-size="10.00">Audio</text>
<text text-anchor="middle" x="562.04" y="-486.16" font-family="Arial" font-size="10.00">Input</text>
<text text-anchor="middle" x="562.04" y="-475.16" font-family="Arial" font-size="10.00">Bus</text>
<text text-anchor="middle" x="562.04" y="-464.16" font-family="Arial" font-size="10.00">Group</text>
</a>
</g>
</g>
<!-- supriya.nonrealtime.buses.AudioOutputBusGroup -->
<g id="node6" class="node">
<title>supriya.nonrealtime.buses.AudioOutputBusGroup</title>
<g id="a_node6"><a xlink:href="../api/supriya/nonrealtime/buses.html#supriya.nonrealtime.buses.AudioOutputBusGroup" xlink:title="Audio\nOutput\nBus\nGroup" target="_top">
<path fill="#decbe4" stroke="#decbe4" stroke-width="2" d="M691.54,-529.16C691.54,-529.16 669.54,-529.16 669.54,-529.16 663.54,-529.16 657.54,-523.16 657.54,-517.16 657.54,-517.16 657.54,-489.16 657.54,-489.16 657.54,-483.16 663.54,-477.16 669.54,-477.16 669.54,-477.16 691.54,-477.16 691.54,-477.16 697.54,-477.16 703.54,-483.16 703.54,-489.16 703.54,-489.16 703.54,-517.16 703.54,-517.16 703.54,-523.16 697.54,-529.16 691.54,-529.16"/>
<text text-anchor="middle" x="680.54" y="-517.16" font-family="Arial" font-size="10.00">Audio</text>
<text text-anchor="middle" x="680.54" y="-506.16" font-family="Arial" font-size="10.00">Output</text>
<text text-anchor="middle" x="680.54" y="-495.16" font-family="Arial" font-size="10.00">Bus</text>
<text text-anchor="middle" x="680.54" y="-484.16" font-family="Arial" font-size="10.00">Group</text>
</a>
</g>
</g>
<!-- supriya.nonrealtime.buses.Bus -->
<g id="node7" class="node">
<title>supriya.nonrealtime.buses.Bus</title>
<g id="a_node7"><a xlink:href="../api/supriya/nonrealtime/buses.html#supriya.nonrealtime.buses.Bus" xlink:title="Bus" target="_top">
<path fill="#decbe4" stroke="#decbe4" stroke-width="2" d="M453.21,-526.66C453.21,-526.66 431.87,-526.66 431.87,-526.66 428.71,-526.66 425.54,-523.49 425.54,-520.33 425.54,-520.33 425.54,-513.99 425.54,-513.99 425.54,-510.83 428.71,-507.66 431.87,-507.66 431.87,-507.66 453.21,-507.66 453.21,-507.66 456.37,-507.66 459.54,-510.83 459.54,-513.99 459.54,-513.99 459.54,-520.33 459.54,-520.33 459.54,-523.49 456.37,-526.66 453.21,-526.66"/>
<text text-anchor="middle" x="442.54" y="-514.66" font-family="Arial" font-size="10.00">Bus</text>
</a>
</g>
</g>
<!-- supriya.nonrealtime.buses.BusGroup -->
<g id="node8" class="node">
<title>supriya.nonrealtime.buses.BusGroup</title>
<g id="a_node8"><a xlink:href="../api/supriya/nonrealtime/buses.html#supriya.nonrealtime.buses.BusGroup" xlink:title="Bus\nGroup" target="_top">
<path fill="#decbe4" stroke="#decbe4" stroke-width="2" d="M454.04,-489.16C454.04,-489.16 431.04,-489.16 431.04,-489.16 426.04,-489.16 421.04,-484.16 421.04,-479.16 421.04,-479.16 421.04,-469.16 421.04,-469.16 421.04,-464.16 426.04,-459.16 431.04,-459.16 431.04,-459.16 454.04,-459.16 454.04,-459.16 459.04,-459.16 464.04,-464.16 464.04,-469.16 464.04,-469.16 464.04,-479.16 464.04,-479.16 464.04,-484.16 459.04,-489.16 454.04,-489.16"/>
<text text-anchor="middle" x="442.54" y="-477.16" font-family="Arial" font-size="10.00">Bus</text>
<text text-anchor="middle" x="442.54" y="-466.16" font-family="Arial" font-size="10.00">Group</text>
</a>
</g>
</g>
<!-- supriya.nonrealtime.nodes.Group -->
<g id="node9" class="node">
<title>supriya.nonrealtime.nodes.Group</title>
<g id="a_node9"><a xlink:href="../api/supriya/nonrealtime/nodes.html#supriya.nonrealtime.nodes.Group" xlink:title="Group" target="_top">
<path fill="#fed9a6" stroke="#fed9a6" stroke-width="2" d="M577.21,-370.66C577.21,-370.66 546.87,-370.66 546.87,-370.66 543.71,-370.66 540.54,-367.49 540.54,-364.33 540.54,-364.33 540.54,-357.99 540.54,-357.99 540.54,-354.83 543.71,-351.66 546.87,-351.66 546.87,-351.66 577.21,-351.66 577.21,-351.66 580.37,-351.66 583.54,-354.83 583.54,-357.99 583.54,-357.99 583.54,-364.33 583.54,-364.33 583.54,-367.49 580.37,-370.66 577.21,-370.66"/>
<text text-anchor="middle" x="562.04" y="-358.66" font-family="Arial" font-size="10.00">Group</text>
</a>
</g>
</g>
<!-- supriya.nonrealtime.nodes.RootNode -->
<g id="node10" class="node">
<title>supriya.nonrealtime.nodes.RootNode</title>
<g id="a_node10"><a xlink:href="../api/supriya/nonrealtime/nodes.html#supriya.nonrealtime.nodes.RootNode" xlink:title="Root\nNode" target="_top">
<path fill="#fed9a6" stroke="#fed9a6" stroke-width="2" d="M690.54,-376.16C690.54,-376.16 670.54,-376.16 670.54,-376.16 665.54,-376.16 660.54,-371.16 660.54,-366.16 660.54,-366.16 660.54,-356.16 660.54,-356.16 660.54,-351.16 665.54,-346.16 670.54,-346.16 670.54,-346.16 690.54,-346.16 690.54,-346.16 695.54,-346.16 700.54,-351.16 700.54,-356.16 700.54,-356.16 700.54,-366.16 700.54,-366.16 700.54,-371.16 695.54,-376.16 690.54,-376.16"/>
<text text-anchor="middle" x="680.54" y="-364.16" font-family="Arial" font-size="10.00">Root</text>
<text text-anchor="middle" x="680.54" y="-353.16" font-family="Arial" font-size="10.00">Node</text>
</a>
</g>
</g>
<!-- supriya.nonrealtime.nodes.Node -->
<g id="node11" class="node">
<title>supriya.nonrealtime.nodes.Node</title>
<g id="a_node11"><a xlink:href="../api/supriya/nonrealtime/nodes.html#supriya.nonrealtime.nodes.Node" xlink:title="Node" target="_top">
<path fill="#fed9a6" stroke="#fed9a6" stroke-width="2" d="M456.21,-370.66C456.21,-370.66 428.87,-370.66 428.87,-370.66 425.71,-370.66 422.54,-367.49 422.54,-364.33 422.54,-364.33 422.54,-357.99 422.54,-357.99 422.54,-354.83 425.71,-351.66 428.87,-351.66 428.87,-351.66 456.21,-351.66 456.21,-351.66 459.37,-351.66 462.54,-354.83 462.54,-357.99 462.54,-357.99 462.54,-364.33 462.54,-364.33 462.54,-367.49 459.37,-370.66 456.21,-370.66"/>
<text text-anchor="middle" x="442.54" y="-358.66" font-family="Arial" font-size="10.00">Node</text>
</a>
</g>
</g>
<!-- supriya.nonrealtime.nodes.Synth -->
<g id="node12" class="node">
<title>supriya.nonrealtime.nodes.Synth</title>
<g id="a_node12"><a xlink:href="../api/supriya/nonrealtime/nodes.html#supriya.nonrealtime.nodes.Synth" xlink:title="Synth" target="_top">
<path fill="#fed9a6" stroke="#fed9a6" stroke-width="2" d="M695.21,-413.66C695.21,-413.66 665.87,-413.66 665.87,-413.66 662.71,-413.66 659.54,-410.49 659.54,-407.33 659.54,-407.33 659.54,-400.99 659.54,-400.99 659.54,-397.83 662.71,-394.66 665.87,-394.66 665.87,-394.66 695.21,-394.66 695.21,-394.66 698.37,-394.66 701.54,-397.83 701.54,-400.99 701.54,-400.99 701.54,-407.33 701.54,-407.33 701.54,-410.49 698.37,-413.66 695.21,-413.66"/>
<text text-anchor="middle" x="680.54" y="-401.66" font-family="Arial" font-size="10.00">Synth</text>
</a>
</g>
</g>
<!-- supriya.nonrealtime.renderer.SessionRenderer -->
<g id="node13" class="node">
<title>supriya.nonrealtime.renderer.SessionRenderer</title>
<g id="a_node13"><a xlink:href="../api/supriya/nonrealtime/renderer.html#supriya.nonrealtime.renderer.SessionRenderer" xlink:title="Session\nRenderer" target="_top">
<path fill="#ffffcc" stroke="#ffffcc" stroke-width="2" d="M337.77,-49.16C337.77,-49.16 301.77,-49.16 301.77,-49.16 296.77,-49.16 291.77,-44.16 291.77,-39.16 291.77,-39.16 291.77,-29.16 291.77,-29.16 291.77,-24.16 296.77,-19.16 301.77,-19.16 301.77,-19.16 337.77,-19.16 337.77,-19.16 342.77,-19.16 347.77,-24.16 347.77,-29.16 347.77,-29.16 347.77,-39.16 347.77,-39.16 347.77,-44.16 342.77,-49.16 337.77,-49.16"/>
<text text-anchor="middle" x="319.77" y="-37.16" font-family="Arial" font-size="10.00">Session</text>
<text text-anchor="middle" x="319.77" y="-26.16" font-family="Arial" font-size="10.00">Renderer</text>
</a>
</g>
</g>
<!-- supriya.nonrealtime.sessions.Session -->
<g id="node14" class="node">
<title>supriya.nonrealtime.sessions.Session</title>
<g id="a_node14"><a xlink:href="../api/supriya/nonrealtime/sessions.html#supriya.nonrealtime.sessions.Session" xlink:title="Session" target="_top">
<path fill="#e5d8bd" stroke="#e5d8bd" stroke-width="2" d="M177.67,-196.66C177.67,-196.66 138.33,-196.66 138.33,-196.66 135.17,-196.66 132,-193.49 132,-190.33 132,-190.33 132,-183.99 132,-183.99 132,-180.83 135.17,-177.66 138.33,-177.66 138.33,-177.66 177.67,-177.66 177.67,-177.66 180.83,-177.66 184,-180.83 184,-183.99 184,-183.99 184,-190.33 184,-190.33 184,-193.49 180.83,-196.66 177.67,-196.66"/>
<text text-anchor="middle" x="158" y="-184.66" font-family="Arial" font-size="10.00">Session</text>
</a>
</g>
</g>
<!-- supriya.nonrealtime.states.DoNotPropagate -->
<g id="node15" class="node">
<title>supriya.nonrealtime.states.DoNotPropagate</title>
<g id="a_node15"><a xlink:href="../api/supriya/nonrealtime/states.html#supriya.nonrealtime.states.DoNotPropagate" xlink:title="Do\nNot\nPropagate" target="_top">
<path fill="#fddaec" stroke="#fddaec" stroke-width="2" d="M580.54,-68.66C580.54,-68.66 543.54,-68.66 543.54,-68.66 537.54,-68.66 531.54,-62.66 531.54,-56.66 531.54,-56.66 531.54,-39.66 531.54,-39.66 531.54,-33.66 537.54,-27.66 543.54,-27.66 543.54,-27.66 580.54,-27.66 580.54,-27.66 586.54,-27.66 592.54,-33.66 592.54,-39.66 592.54,-39.66 592.54,-56.66 592.54,-56.66 592.54,-62.66 586.54,-68.66 580.54,-68.66"/>
<text text-anchor="middle" x="562.04" y="-56.66" font-family="Arial" font-size="10.00">Do</text>
<text text-anchor="middle" x="562.04" y="-45.66" font-family="Arial" font-size="10.00">Not</text>
<text text-anchor="middle" x="562.04" y="-34.66" font-family="Arial" font-size="10.00">Propagate</text>
</a>
</g>
</g>
<!-- supriya.nonrealtime.states.Moment -->
<g id="node16" class="node">
<title>supriya.nonrealtime.states.Moment</title>
<g id="a_node16"><a xlink:href="../api/supriya/nonrealtime/states.html#supriya.nonrealtime.states.Moment" xlink:title="Moment" target="_top">
<path fill="#fddaec" stroke="#fddaec" stroke-width="2" d="M581.71,-191.66C581.71,-191.66 542.37,-191.66 542.37,-191.66 539.21,-191.66 536.04,-188.49 536.04,-185.33 536.04,-185.33 536.04,-178.99 536.04,-178.99 536.04,-175.83 539.21,-172.66 542.37,-172.66 542.37,-172.66 581.71,-172.66 581.71,-172.66 584.87,-172.66 588.04,-175.83 588.04,-178.99 588.04,-178.99 588.04,-185.33 588.04,-185.33 588.04,-188.49 584.87,-191.66 581.71,-191.66"/>
<text text-anchor="middle" x="562.04" y="-179.66" font-family="Arial" font-size="10.00">Moment</text>
</a>
</g>
</g>
<!-- supriya.nonrealtime.states.NodeTransition -->
<g id="node17" class="node">
<title>supriya.nonrealtime.states.NodeTransition</title>
<g id="a_node17"><a xlink:href="../api/supriya/nonrealtime/states.html#supriya.nonrealtime.states.NodeTransition" xlink:title="Node\nTransition" target="_top">
<path fill="#fddaec" stroke="#fddaec" stroke-width="2" d="M581.54,-117.16C581.54,-117.16 542.54,-117.16 542.54,-117.16 537.54,-117.16 532.54,-112.16 532.54,-107.16 532.54,-107.16 532.54,-97.16 532.54,-97.16 532.54,-92.16 537.54,-87.16 542.54,-87.16 542.54,-87.16 581.54,-87.16 581.54,-87.16 586.54,-87.16 591.54,-92.16 591.54,-97.16 591.54,-97.16 591.54,-107.16 591.54,-107.16 591.54,-112.16 586.54,-117.16 581.54,-117.16"/>
<text text-anchor="middle" x="562.04" y="-105.16" font-family="Arial" font-size="10.00">Node</text>
<text text-anchor="middle" x="562.04" y="-94.16" font-family="Arial" font-size="10.00">Transition</text>
</a>
</g>
</g>
<!-- supriya.nonrealtime.states.State -->
<g id="node18" class="node">
<title>supriya.nonrealtime.states.State</title>
<g id="a_node18"><a xlink:href="../api/supriya/nonrealtime/states.html#supriya.nonrealtime.states.State" xlink:title="State" target="_top">
<path fill="#fddaec" stroke="#fddaec" stroke-width="2" d="M575.71,-154.66C575.71,-154.66 548.37,-154.66 548.37,-154.66 545.21,-154.66 542.04,-151.49 542.04,-148.33 542.04,-148.33 542.04,-141.99 542.04,-141.99 542.04,-138.83 545.21,-135.66 548.37,-135.66 548.37,-135.66 575.71,-135.66 575.71,-135.66 578.87,-135.66 582.04,-138.83 582.04,-141.99 582.04,-141.99 582.04,-148.33 582.04,-148.33 582.04,-151.49 578.87,-154.66 575.71,-154.66"/>
<text text-anchor="middle" x="562.04" y="-142.66" font-family="Arial" font-size="10.00">State</text>
</a>
</g>
</g>
<!-- supriya.system.SupriyaObject -->
<g id="node19" class="node">
<title>supriya.system.SupriyaObject</title>
<g id="a_node19"><a xlink:href="../api/supriya/nonrealtime/../system.html#supriya.system.SupriyaObject" xlink:title="Supriya\nObject" target="_top">
<path fill="#f2f2f2" stroke="#f2f2f2" stroke-width="2" d="M173,-128.16C173,-128.16 143,-128.16 143,-128.16 138,-128.16 133,-123.16 133,-118.16 133,-118.16 133,-108.16 133,-108.16 133,-103.16 138,-98.16 143,-98.16 143,-98.16 173,-98.16 173,-98.16 178,-98.16 183,-103.16 183,-108.16 183,-108.16 183,-118.16 183,-118.16 183,-123.16 178,-128.16 173,-128.16"/>
<text text-anchor="middle" x="158" y="-116.16" font-family="Arial" font-size="10.00">Supriya</text>
<text text-anchor="middle" x="158" y="-105.16" font-family="Arial" font-size="10.00">Object</text>
</a>
</g>
</g>
<!-- supriya.system.SupriyaValueObject -->
<g id="node20" class="node">
<title>supriya.system.SupriyaValueObject</title>
<g id="a_node20"><a xlink:href="../api/supriya/nonrealtime/../system.html#supriya.system.SupriyaValueObject" xlink:title="Supriya\nValue\nObject" target="_top">
<path fill="#f2f2f2" stroke="#f2f2f2" stroke-width="2" d="M455.54,-133.66C455.54,-133.66 429.54,-133.66 429.54,-133.66 423.54,-133.66 417.54,-127.66 417.54,-121.66 417.54,-121.66 417.54,-104.66 417.54,-104.66 417.54,-98.66 423.54,-92.66 429.54,-92.66 429.54,-92.66 455.54,-92.66 455.54,-92.66 461.54,-92.66 467.54,-98.66 467.54,-104.66 467.54,-104.66 467.54,-121.66 467.54,-121.66 467.54,-127.66 461.54,-133.66 455.54,-133.66"/>
<text text-anchor="middle" x="442.54" y="-121.66" font-family="Arial" font-size="10.00">Supriya</text>
<text text-anchor="middle" x="442.54" y="-110.66" font-family="Arial" font-size="10.00">Value</text>
<text text-anchor="middle" x="442.54" y="-99.66" font-family="Arial" font-size="10.00">Object</text>
</a>
</g>
</g>
</g>
</svg>
