<?xml version="1.0" encoding="UTF-8" standalone="no"?>
<!DOCTYPE svg PUBLIC "-//W3C//DTD SVG 1.1//EN"
 "http://www.w3.org/Graphics/SVG/1.1/DTD/svg11.dtd">
<!-- Generated by graphviz version 2.40.1 (20161225.0304)
 -->
<!-- Title: InheritanceGraph Pages: 1 -->
<svg width="148pt" height="79pt"
 viewBox="0.00 0.00 148.00 79.00" xmlns="http://www.w3.org/2000/svg" xmlns:xlink="http://www.w3.org/1999/xlink">
<g id="graph0" class="graph" transform="scale(1 1) rotate(0) translate(4 75)">
<title>InheritanceGraph</title>
<g id="clust1" class="cluster">
<title>cluster_builtins</title>
<path fill="transparent" stroke="#bcd2ee" stroke-width="2" stroke-dasharray="5,2" d="M20,-8C20,-8 49,-8 49,-8 55,-8 61,-14 61,-20 61,-20 61,-51 61,-51 61,-57 55,-63 49,-63 49,-63 20,-63 20,-63 14,-63 8,-57 8,-51 8,-51 8,-20 8,-20 8,-14 14,-8 20,-8"/>
<text text-anchor="middle" x="34.5" y="-51" font-family="Arial" font-size="10.00" fill="#000000">builtins</text>
</g>
<g id="clust2" class="cluster">
<title>cluster_supriya.live</title>
<path fill="transparent" stroke="#bcd2ee" stroke-width="2" stroke-dasharray="5,2" d="M93,-8C93,-8 123,-8 123,-8 129,-8 135,-14 135,-20 135,-20 135,-51 135,-51 135,-57 129,-63 123,-63 123,-63 93,-63 93,-63 87,-63 81,-57 81,-51 81,-51 81,-20 81,-20 81,-14 87,-8 93,-8"/>
<text text-anchor="middle" x="108" y="-51" font-family="Arial" font-size="10.00" fill="#000000">supriya.live</text>
</g>
<!-- builtins.object&#45;&gt;supriya.live.Note.Note -->
<g id="edge1" class="edge">
<title>builtins.object&#45;&gt;supriya.live.Note.Note</title>
<path fill="none" stroke="#778899" d="M53.0472,-26C61.6987,-26 72.1509,-26 81.607,-26"/>
<polygon fill="#778899" stroke="#778899" points="81.7108,-29.5001 91.7108,-26 81.7107,-22.5001 81.7108,-29.5001"/>
</g>
<!-- builtins.object -->
<g id="node1" class="node">
<title>builtins.object</title>
<g id="a_node1"><a xlink:href="https://docs.python.org/3.6/library/functions.html#object" xlink:title="object" target="_top">
<path fill="#fbb4ae" stroke="#fbb4ae" stroke-width="2" d="M46.6667,-35.5C46.6667,-35.5 22.3333,-35.5 22.3333,-35.5 19.1667,-35.5 16,-32.3333 16,-29.1667 16,-29.1667 16,-22.8333 16,-22.8333 16,-19.6667 19.1667,-16.5 22.3333,-16.5 22.3333,-16.5 46.6667,-16.5 46.6667,-16.5 49.8333,-16.5 53,-19.6667 53,-22.8333 53,-22.8333 53,-29.1667 53,-29.1667 53,-32.3333 49.8333,-35.5 46.6667,-35.5"/>
<text text-anchor="middle" x="34.5" y="-23.5" font-family="Arial" font-size="10.00" fill="#000000">object</text>
</a>
</g>
</g>
<!-- supriya.live.Note.Note -->
<g id="node2" class="node">
<title>supriya.live.Note.Note</title>
<g id="a_node2"><a xlink:href="../api/supriya/live/Note.html#supriya.live.Note.Note" xlink:title="Note" target="_top">
<path fill="#000000" stroke="#000000" stroke-width="2" d="M117.6667,-35.5C117.6667,-35.5 98.3333,-35.5 98.3333,-35.5 95.1667,-35.5 92,-32.3333 92,-29.1667 92,-29.1667 92,-22.8333 92,-22.8333 92,-19.6667 95.1667,-16.5 98.3333,-16.5 98.3333,-16.5 117.6667,-16.5 117.6667,-16.5 120.8333,-16.5 124,-19.6667 124,-22.8333 124,-22.8333 124,-29.1667 124,-29.1667 124,-32.3333 120.8333,-35.5 117.6667,-35.5"/>
<text text-anchor="middle" x="108" y="-23.5" font-family="Arial" font-size="10.00" fill="#ffffff">Note</text>
</a>
</g>
</g>
</g>
</svg>
