<?xml version="1.0" encoding="UTF-8" standalone="no"?>
<!DOCTYPE svg PUBLIC "-//W3C//DTD SVG 1.1//EN"
 "http://www.w3.org/Graphics/SVG/1.1/DTD/svg11.dtd">
<!-- Generated by graphviz version 2.44.1 (20200629.0846)
 -->
<!-- Title: InheritanceGraph Pages: 1 -->
<svg width="666pt" height="1131pt"
 viewBox="0.00 0.00 666.40 1131.00" xmlns="http://www.w3.org/2000/svg" xmlns:xlink="http://www.w3.org/1999/xlink">
<g id="graph0" class="graph" transform="scale(1 1) rotate(0) translate(4 1127)">
<title>InheritanceGraph</title>
<g id="clust1" class="cluster">
<title>cluster_builtins</title>
<path fill="transparent" stroke="#bcd2ee" stroke-width="2" stroke-dasharray="5,2" d="M20,-550C20,-550 55,-550 55,-550 61,-550 67,-556 67,-562 67,-562 67,-593 67,-593 67,-599 61,-605 55,-605 55,-605 20,-605 20,-605 14,-605 8,-599 8,-593 8,-593 8,-562 8,-562 8,-556 14,-550 20,-550"/>
<text text-anchor="middle" x="37.5" y="-593" font-family="Arial" font-size="10.00">builtins</text>
</g>
<g id="clust2" class="cluster">
<title>cluster_supriya.synthdefs.bases</title>
<path fill="transparent" stroke="#bcd2ee" stroke-width="2" stroke-dasharray="5,2" d="M347,-547C347,-547 445.4,-547 445.4,-547 451.4,-547 457.4,-553 457.4,-559 457.4,-559 457.4,-596 457.4,-596 457.4,-602 451.4,-608 445.4,-608 445.4,-608 347,-608 347,-608 341,-608 335,-602 335,-596 335,-596 335,-559 335,-559 335,-553 341,-547 347,-547"/>
<text text-anchor="middle" x="396.2" y="-596" font-family="Arial" font-size="10.00">supriya.synthdefs.bases</text>
</g>
<g id="clust3" class="cluster">
<title>cluster_supriya.synthdefs.mixins</title>
<path fill="transparent" stroke="#bcd2ee" stroke-width="2" stroke-dasharray="5,2" d="M202,-539C202,-539 303,-539 303,-539 309,-539 315,-545 315,-551 315,-551 315,-604 315,-604 315,-610 309,-616 303,-616 303,-616 202,-616 202,-616 196,-616 190,-610 190,-604 190,-604 190,-551 190,-551 190,-545 196,-539 202,-539"/>
<text text-anchor="middle" x="252.5" y="-604" font-family="Arial" font-size="10.00">supriya.synthdefs.mixins</text>
</g>
<g id="clust4" class="cluster">
<title>cluster_supriya.system</title>
<path fill="transparent" stroke="#bcd2ee" stroke-width="2" stroke-dasharray="5,2" d="M99,-545C99,-545 158,-545 158,-545 164,-545 170,-551 170,-557 170,-557 170,-598 170,-598 170,-604 164,-610 158,-610 158,-610 99,-610 99,-610 93,-610 87,-604 87,-598 87,-598 87,-557 87,-557 87,-551 93,-545 99,-545"/>
<text text-anchor="middle" x="128.5" y="-598" font-family="Arial" font-size="10.00">supriya.system</text>
</g>
<g id="clust5" class="cluster">
<title>cluster_supriya.ugens.chaos</title>
<path fill="transparent" stroke="#bcd2ee" stroke-width="2" stroke-dasharray="5,2" d="M563.4,-8C563.4,-8 646.4,-8 646.4,-8 652.4,-8 658.4,-14 658.4,-20 658.4,-20 658.4,-1103 658.4,-1103 658.4,-1109 652.4,-1115 646.4,-1115 646.4,-1115 563.4,-1115 563.4,-1115 557.4,-1115 551.4,-1109 551.4,-1103 551.4,-1103 551.4,-20 551.4,-20 551.4,-14 557.4,-8 563.4,-8"/>
<text text-anchor="middle" x="604.9" y="-1103" font-family="Arial" font-size="10.00">supriya.ugens.chaos</text>
</g>
<!-- builtins.object&#45;&gt;supriya.system.SupriyaObject -->
<g id="edge1" class="edge">
<title>builtins.object&#45;&gt;supriya.system.SupriyaObject</title>
<path fill="none" stroke="lightslategrey" d="M59.03,-568C69.03,-568 81.34,-568 92.72,-568"/>
<polygon fill="lightslategrey" stroke="lightslategrey" points="92.82,-571.5 102.82,-568 92.82,-564.5 92.82,-571.5"/>
</g>
<!-- supriya.synthdefs.bases.UGen&#45;&gt;supriya.ugens.chaos.CuspL -->
<g id="edge2" class="edge">
<title>supriya.synthdefs.bases.UGen&#45;&gt;supriya.ugens.chaos.CuspL</title>
<path fill="none" stroke="lightslategrey" d="M399.53,-581.47C409.24,-626.88 442.96,-778.33 485.4,-899 509.56,-967.71 500.36,-997.04 551.4,-1049 557.81,-1055.53 566.33,-1060.46 574.61,-1064.11"/>
<polygon fill="lightslategrey" stroke="lightslategrey" points="573.5,-1067.43 584.09,-1067.81 576.05,-1060.91 573.5,-1067.43"/>
</g>
<!-- supriya.synthdefs.bases.UGen&#45;&gt;supriya.ugens.chaos.CuspN -->
<g id="edge3" class="edge">
<title>supriya.synthdefs.bases.UGen&#45;&gt;supriya.ugens.chaos.CuspN</title>
<path fill="none" stroke="lightslategrey" d="M399.3,-581.63C408.07,-626.23 438.63,-771.39 485.4,-884 508.3,-939.14 507.5,-960.53 551.4,-1001 558.07,-1007.15 566.6,-1011.97 574.8,-1015.62"/>
<polygon fill="lightslategrey" stroke="lightslategrey" points="573.58,-1018.9 584.16,-1019.38 576.19,-1012.4 573.58,-1018.9"/>
</g>
<!-- supriya.synthdefs.bases.UGen&#45;&gt;supriya.ugens.chaos.FBSineC -->
<g id="edge4" class="edge">
<title>supriya.synthdefs.bases.UGen&#45;&gt;supriya.ugens.chaos.FBSineC</title>
<path fill="none" stroke="lightslategrey" d="M398.02,-581.57C404.1,-636.57 434.35,-845.09 551.4,-953 556.93,-958.1 563.73,-962.28 570.56,-965.64"/>
<polygon fill="lightslategrey" stroke="lightslategrey" points="569.23,-968.88 579.8,-969.72 572.07,-962.47 569.23,-968.88"/>
</g>
<!-- supriya.synthdefs.bases.UGen&#45;&gt;supriya.ugens.chaos.FBSineL -->
<g id="edge5" class="edge">
<title>supriya.synthdefs.bases.UGen&#45;&gt;supriya.ugens.chaos.FBSineL</title>
<path fill="none" stroke="lightslategrey" d="M398.99,-581.47C408.25,-631.74 447.45,-810.24 551.4,-905 556.95,-910.07 563.77,-914.23 570.61,-917.59"/>
<polygon fill="lightslategrey" stroke="lightslategrey" points="569.27,-920.83 579.84,-921.68 572.11,-914.43 569.27,-920.83"/>
</g>
<!-- supriya.synthdefs.bases.UGen&#45;&gt;supriya.ugens.chaos.FBSineN -->
<g id="edge6" class="edge">
<title>supriya.synthdefs.bases.UGen&#45;&gt;supriya.ugens.chaos.FBSineN</title>
<path fill="none" stroke="lightslategrey" d="M400.21,-581.29C412.79,-626.41 459.79,-775.46 551.4,-857 556.96,-861.95 563.73,-866.06 570.51,-869.4"/>
<polygon fill="lightslategrey" stroke="lightslategrey" points="569.1,-872.6 579.66,-873.48 571.95,-866.21 569.1,-872.6"/>
</g>
<!-- supriya.synthdefs.bases.UGen&#45;&gt;supriya.ugens.chaos.GbmanL -->
<g id="edge7" class="edge">
<title>supriya.synthdefs.bases.UGen&#45;&gt;supriya.ugens.chaos.GbmanL</title>
<path fill="none" stroke="lightslategrey" d="M401.97,-581.4C418.28,-621.31 471.68,-740.81 551.4,-809 557.16,-813.93 564.11,-818.06 571.03,-821.42"/>
<polygon fill="lightslategrey" stroke="lightslategrey" points="569.76,-824.68 580.32,-825.53 572.59,-818.28 569.76,-824.68"/>
</g>
<!-- supriya.synthdefs.bases.UGen&#45;&gt;supriya.ugens.chaos.GbmanN -->
<g id="edge8" class="edge">
<title>supriya.synthdefs.bases.UGen&#45;&gt;supriya.ugens.chaos.GbmanN</title>
<path fill="none" stroke="lightslategrey" d="M404.12,-580.97C424.01,-614.74 481.72,-706.5 551.4,-761 557.32,-765.63 564.28,-769.62 571.15,-772.95"/>
<polygon fill="lightslategrey" stroke="lightslategrey" points="569.8,-776.17 580.36,-777.06 572.65,-769.78 569.8,-776.17"/>
</g>
<!-- supriya.synthdefs.bases.UGen&#45;&gt;supriya.ugens.chaos.HenonC -->
<g id="edge9" class="edge">
<title>supriya.synthdefs.bases.UGen&#45;&gt;supriya.ugens.chaos.HenonC</title>
<path fill="none" stroke="lightslategrey" d="M407.61,-580.69C431.46,-607.81 490.94,-672.28 551.4,-713 557.86,-717.35 565.24,-721.29 572.37,-724.66"/>
<polygon fill="lightslategrey" stroke="lightslategrey" points="571.27,-728 581.83,-728.88 574.12,-721.61 571.27,-728"/>
</g>
<!-- supriya.synthdefs.bases.UGen&#45;&gt;supriya.ugens.chaos.HenonL -->
<g id="edge10" class="edge">
<title>supriya.synthdefs.bases.UGen&#45;&gt;supriya.ugens.chaos.HenonL</title>
<path fill="none" stroke="lightslategrey" d="M412.99,-579.19C440.75,-598.03 499.27,-636.78 551.4,-665 558.13,-668.65 565.52,-672.27 572.56,-675.55"/>
<polygon fill="lightslategrey" stroke="lightslategrey" points="571.29,-678.83 581.84,-679.79 574.2,-672.46 571.29,-678.83"/>
</g>
<!-- supriya.synthdefs.bases.UGen&#45;&gt;supriya.ugens.chaos.HenonN -->
<g id="edge11" class="edge">
<title>supriya.synthdefs.bases.UGen&#45;&gt;supriya.ugens.chaos.HenonN</title>
<path fill="none" stroke="lightslategrey" d="M419.61,-576.09C456.78,-589.22 530.29,-615.18 572.2,-629.98"/>
<polygon fill="lightslategrey" stroke="lightslategrey" points="571.04,-633.28 581.63,-633.31 573.37,-626.68 571.04,-633.28"/>
</g>
<!-- supriya.synthdefs.bases.UGen&#45;&gt;supriya.ugens.chaos.LatoocarfianC -->
<g id="edge12" class="edge">
<title>supriya.synthdefs.bases.UGen&#45;&gt;supriya.ugens.chaos.LatoocarfianC</title>
<path fill="none" stroke="lightslategrey" d="M424.57,-571.37C459.11,-575.55 518.38,-582.72 559.16,-587.65"/>
<polygon fill="lightslategrey" stroke="lightslategrey" points="558.75,-591.13 569.1,-588.85 559.59,-584.18 558.75,-591.13"/>
</g>
<!-- supriya.synthdefs.bases.UGen&#45;&gt;supriya.ugens.chaos.LatoocarfianL -->
<g id="edge13" class="edge">
<title>supriya.synthdefs.bases.UGen&#45;&gt;supriya.ugens.chaos.LatoocarfianL</title>
<path fill="none" stroke="lightslategrey" d="M425.01,-564.85C459.59,-561 518.49,-554.45 559.09,-549.93"/>
<polygon fill="lightslategrey" stroke="lightslategrey" points="559.7,-553.38 569.25,-548.8 558.93,-546.43 559.7,-553.38"/>
</g>
<!-- supriya.synthdefs.bases.UGen&#45;&gt;supriya.ugens.chaos.LatoocarfianN -->
<g id="edge14" class="edge">
<title>supriya.synthdefs.bases.UGen&#45;&gt;supriya.ugens.chaos.LatoocarfianN</title>
<path fill="none" stroke="lightslategrey" d="M420.01,-559.99C453.8,-548.39 517.01,-526.67 559.65,-512.03"/>
<polygon fill="lightslategrey" stroke="lightslategrey" points="560.9,-515.3 569.22,-508.74 558.62,-508.68 560.9,-515.3"/>
</g>
<!-- supriya.synthdefs.bases.UGen&#45;&gt;supriya.ugens.chaos.LinCongC -->
<g id="edge15" class="edge">
<title>supriya.synthdefs.bases.UGen&#45;&gt;supriya.ugens.chaos.LinCongC</title>
<path fill="none" stroke="lightslategrey" d="M413.77,-557.3C442.19,-539.55 501.03,-502.99 551.4,-473 559.12,-468.4 567.54,-463.5 575.32,-459.01"/>
<polygon fill="lightslategrey" stroke="lightslategrey" points="577.13,-462 584.06,-453.99 573.65,-455.93 577.13,-462"/>
</g>
<!-- supriya.synthdefs.bases.UGen&#45;&gt;supriya.ugens.chaos.LinCongL -->
<g id="edge16" class="edge">
<title>supriya.synthdefs.bases.UGen&#45;&gt;supriya.ugens.chaos.LinCongL</title>
<path fill="none" stroke="lightslategrey" d="M407.38,-555.31C431.25,-527.47 491.51,-459.83 551.4,-414 558.85,-408.29 567.5,-402.89 575.58,-398.28"/>
<polygon fill="lightslategrey" stroke="lightslategrey" points="577.3,-401.33 584.36,-393.44 573.92,-395.2 577.3,-401.33"/>
</g>
<!-- supriya.synthdefs.bases.UGen&#45;&gt;supriya.ugens.chaos.LinCongN -->
<g id="edge17" class="edge">
<title>supriya.synthdefs.bases.UGen&#45;&gt;supriya.ugens.chaos.LinCongN</title>
<path fill="none" stroke="lightslategrey" d="M403.66,-554.79C423.06,-518.98 480.92,-418.45 551.4,-355 558.49,-348.62 567.16,-342.96 575.37,-338.33"/>
<polygon fill="lightslategrey" stroke="lightslategrey" points="577.16,-341.34 584.34,-333.55 573.87,-335.17 577.16,-341.34"/>
</g>
<!-- supriya.synthdefs.bases.UGen&#45;&gt;supriya.ugens.chaos.LorenzL -->
<g id="edge18" class="edge">
<title>supriya.synthdefs.bases.UGen&#45;&gt;supriya.ugens.chaos.LorenzL</title>
<path fill="none" stroke="lightslategrey" d="M401.06,-554.54C415.65,-511.46 466.6,-375.14 551.4,-296 557.37,-290.43 564.82,-285.87 572.19,-282.24"/>
<polygon fill="lightslategrey" stroke="lightslategrey" points="573.67,-285.41 581.37,-278.14 570.81,-279.02 573.67,-285.41"/>
</g>
<!-- supriya.synthdefs.bases.UGen&#45;&gt;supriya.ugens.chaos.QuadC -->
<g id="edge19" class="edge">
<title>supriya.synthdefs.bases.UGen&#45;&gt;supriya.ugens.chaos.QuadC</title>
<path fill="none" stroke="lightslategrey" d="M399.51,-554.67C410.31,-506.5 453.59,-339.41 551.4,-247 558.05,-240.72 566.63,-235.85 574.9,-232.19"/>
<polygon fill="lightslategrey" stroke="lightslategrey" points="576.34,-235.39 584.34,-228.44 573.75,-228.89 576.34,-235.39"/>
</g>
<!-- supriya.synthdefs.bases.UGen&#45;&gt;supriya.ugens.chaos.QuadL -->
<g id="edge20" class="edge">
<title>supriya.synthdefs.bases.UGen&#45;&gt;supriya.ugens.chaos.QuadL</title>
<path fill="none" stroke="lightslategrey" d="M398.46,-554.42C406.05,-501.19 440.83,-304.5 551.4,-199 558.01,-192.69 566.59,-187.81 574.87,-184.15"/>
<polygon fill="lightslategrey" stroke="lightslategrey" points="576.3,-187.35 584.3,-180.41 573.72,-180.84 576.3,-187.35"/>
</g>
<!-- supriya.synthdefs.bases.UGen&#45;&gt;supriya.ugens.chaos.QuadN -->
<g id="edge21" class="edge">
<title>supriya.synthdefs.bases.UGen&#45;&gt;supriya.ugens.chaos.QuadN</title>
<path fill="none" stroke="lightslategrey" d="M397.59,-554.56C402.1,-497.15 427.48,-270 551.4,-151 557.99,-144.66 566.57,-139.78 574.84,-136.13"/>
<polygon fill="lightslategrey" stroke="lightslategrey" points="576.27,-139.33 584.28,-132.39 573.7,-132.82 576.27,-139.33"/>
</g>
<!-- supriya.synthdefs.bases.UGen&#45;&gt;supriya.ugens.chaos.StandardL -->
<g id="edge22" class="edge">
<title>supriya.synthdefs.bases.UGen&#45;&gt;supriya.ugens.chaos.StandardL</title>
<path fill="none" stroke="lightslategrey" d="M399.19,-554.6C407.93,-508.72 439.2,-354.14 485.4,-233 508.48,-172.46 504.73,-147.95 551.4,-103 555.85,-98.71 561.2,-95.09 566.76,-92.07"/>
<polygon fill="lightslategrey" stroke="lightslategrey" points="568.69,-95.03 576.17,-87.53 565.65,-88.72 568.69,-95.03"/>
</g>
<!-- supriya.synthdefs.bases.UGen&#45;&gt;supriya.ugens.chaos.StandardN -->
<g id="edge23" class="edge">
<title>supriya.synthdefs.bases.UGen&#45;&gt;supriya.ugens.chaos.StandardN</title>
<path fill="none" stroke="lightslategrey" d="M396.65,-554.41C397.17,-489.5 407.89,-208 551.4,-55 555.82,-50.29 561.34,-46.42 567.13,-43.28"/>
<polygon fill="lightslategrey" stroke="lightslategrey" points="568.78,-46.36 576.31,-38.91 565.78,-40.04 568.78,-46.36"/>
</g>
<!-- supriya.synthdefs.mixins.UGenMethodMixin&#45;&gt;supriya.synthdefs.bases.UGen -->
<g id="edge24" class="edge">
<title>supriya.synthdefs.mixins.UGenMethodMixin&#45;&gt;supriya.synthdefs.bases.UGen</title>
<path fill="none" stroke="lightslategrey" d="M277.13,-568C298.5,-568 330.36,-568 355.53,-568"/>
<polygon fill="lightslategrey" stroke="lightslategrey" points="355.86,-571.5 365.86,-568 355.86,-564.5 355.86,-571.5"/>
</g>
<!-- supriya.system.SupriyaObject&#45;&gt;supriya.synthdefs.mixins.UGenMethodMixin -->
<g id="edge25" class="edge">
<title>supriya.system.SupriyaObject&#45;&gt;supriya.synthdefs.mixins.UGenMethodMixin</title>
<path fill="none" stroke="lightslategrey" d="M153.2,-568C171.61,-568 197.17,-568 217.61,-568"/>
<polygon fill="lightslategrey" stroke="lightslategrey" points="217.77,-571.5 227.77,-568 217.77,-564.5 217.77,-571.5"/>
</g>
<!-- builtins.object -->
<g id="node1" class="node">
<title>builtins.object</title>
<g id="a_node1"><a xlink:href="https://docs.python.org/3/library/functions.html#object" xlink:title="object" target="_top">
<path fill="#fbb4ae" stroke="#fbb4ae" stroke-width="2" d="M52.67,-577.5C52.67,-577.5 22.33,-577.5 22.33,-577.5 19.17,-577.5 16,-574.33 16,-571.17 16,-571.17 16,-564.83 16,-564.83 16,-561.67 19.17,-558.5 22.33,-558.5 22.33,-558.5 52.67,-558.5 52.67,-558.5 55.83,-558.5 59,-561.67 59,-564.83 59,-564.83 59,-571.17 59,-571.17 59,-574.33 55.83,-577.5 52.67,-577.5"/>
<text text-anchor="middle" x="37.5" y="-565.5" font-family="Arial" font-size="10.00">object</text>
</a>
</g>
</g>
<!-- supriya.synthdefs.bases.UGen -->
<g id="node2" class="node">
<title>supriya.synthdefs.bases.UGen</title>
<g id="a_node2"><a xlink:href="../api/supriya/ugens/../synthdefs/bases.html#supriya.synthdefs.bases.UGen" xlink:title="UGen" target="_top">
<ellipse fill="none" stroke="#b3cde3" stroke-width="2" cx="395.7" cy="-568" rx="29.9" ry="13.37"/>
<text text-anchor="middle" x="395.7" y="-565.5" font-family="Arial" font-size="10.00">UGen</text>
</a>
</g>
</g>
<!-- supriya.synthdefs.mixins.UGenMethodMixin -->
<g id="node3" class="node">
<title>supriya.synthdefs.mixins.UGenMethodMixin</title>
<g id="a_node3"><a xlink:href="../api/supriya/ugens/../synthdefs/mixins.html#supriya.synthdefs.mixins.UGenMethodMixin" xlink:title="UGen\nMethod\nMixin" target="_top">
<path fill="#ccebc5" stroke="#ccebc5" stroke-width="2" d="M265,-588.5C265,-588.5 240,-588.5 240,-588.5 234,-588.5 228,-582.5 228,-576.5 228,-576.5 228,-559.5 228,-559.5 228,-553.5 234,-547.5 240,-547.5 240,-547.5 265,-547.5 265,-547.5 271,-547.5 277,-553.5 277,-559.5 277,-559.5 277,-576.5 277,-576.5 277,-582.5 271,-588.5 265,-588.5"/>
<text text-anchor="middle" x="252.5" y="-576.5" font-family="Arial" font-size="10.00">UGen</text>
<text text-anchor="middle" x="252.5" y="-565.5" font-family="Arial" font-size="10.00">Method</text>
<text text-anchor="middle" x="252.5" y="-554.5" font-family="Arial" font-size="10.00">Mixin</text>
</a>
</g>
</g>
<!-- supriya.system.SupriyaObject -->
<g id="node4" class="node">
<title>supriya.system.SupriyaObject</title>
<g id="a_node4"><a xlink:href="../api/supriya/ugens/../system.html#supriya.system.SupriyaObject" xlink:title="Supriya\nObject" target="_top">
<path fill="#decbe4" stroke="#decbe4" stroke-width="2" d="M143,-583C143,-583 113,-583 113,-583 108,-583 103,-578 103,-573 103,-573 103,-563 103,-563 103,-558 108,-553 113,-553 113,-553 143,-553 143,-553 148,-553 153,-558 153,-563 153,-563 153,-573 153,-573 153,-578 148,-583 143,-583"/>
<text text-anchor="middle" x="128" y="-571" font-family="Arial" font-size="10.00">Supriya</text>
<text text-anchor="middle" x="128" y="-560" font-family="Arial" font-size="10.00">Object</text>
</a>
</g>
</g>
<!-- supriya.ugens.chaos.CuspL -->
<g id="node5" class="node">
<title>supriya.ugens.chaos.CuspL</title>
<g id="a_node5"><a xlink:href="../api/supriya/ugens/chaos.html#supriya.ugens.chaos.CuspL" xlink:title="Cusp\nL" target="_top">
<path fill="black" stroke="black" stroke-width="2" d="M614.4,-1088C614.4,-1088 594.4,-1088 594.4,-1088 589.4,-1088 584.4,-1083 584.4,-1078 584.4,-1078 584.4,-1068 584.4,-1068 584.4,-1063 589.4,-1058 594.4,-1058 594.4,-1058 614.4,-1058 614.4,-1058 619.4,-1058 624.4,-1063 624.4,-1068 624.4,-1068 624.4,-1078 624.4,-1078 624.4,-1083 619.4,-1088 614.4,-1088"/>
<text text-anchor="middle" x="604.4" y="-1076" font-family="Arial" font-size="10.00" fill="white">Cusp</text>
<text text-anchor="middle" x="604.4" y="-1065" font-family="Arial" font-size="10.00" fill="white">L</text>
</a>
</g>
</g>
<!-- supriya.ugens.chaos.CuspN -->
<g id="node6" class="node">
<title>supriya.ugens.chaos.CuspN</title>
<g id="a_node6"><a xlink:href="../api/supriya/ugens/chaos.html#supriya.ugens.chaos.CuspN" xlink:title="Cusp\nN" target="_top">
<path fill="black" stroke="black" stroke-width="2" d="M614.4,-1040C614.4,-1040 594.4,-1040 594.4,-1040 589.4,-1040 584.4,-1035 584.4,-1030 584.4,-1030 584.4,-1020 584.4,-1020 584.4,-1015 589.4,-1010 594.4,-1010 594.4,-1010 614.4,-1010 614.4,-1010 619.4,-1010 624.4,-1015 624.4,-1020 624.4,-1020 624.4,-1030 624.4,-1030 624.4,-1035 619.4,-1040 614.4,-1040"/>
<text text-anchor="middle" x="604.4" y="-1028" font-family="Arial" font-size="10.00" fill="white">Cusp</text>
<text text-anchor="middle" x="604.4" y="-1017" font-family="Arial" font-size="10.00" fill="white">N</text>
</a>
</g>
</g>
<!-- supriya.ugens.chaos.FBSineC -->
<g id="node7" class="node">
<title>supriya.ugens.chaos.FBSineC</title>
<g id="a_node7"><a xlink:href="../api/supriya/ugens/chaos.html#supriya.ugens.chaos.FBSineC" xlink:title="FBSine\nC" target="_top">
<path fill="black" stroke="black" stroke-width="2" d="M618.9,-992C618.9,-992 589.9,-992 589.9,-992 584.9,-992 579.9,-987 579.9,-982 579.9,-982 579.9,-972 579.9,-972 579.9,-967 584.9,-962 589.9,-962 589.9,-962 618.9,-962 618.9,-962 623.9,-962 628.9,-967 628.9,-972 628.9,-972 628.9,-982 628.9,-982 628.9,-987 623.9,-992 618.9,-992"/>
<text text-anchor="middle" x="604.4" y="-980" font-family="Arial" font-size="10.00" fill="white">FBSine</text>
<text text-anchor="middle" x="604.4" y="-969" font-family="Arial" font-size="10.00" fill="white">C</text>
</a>
</g>
</g>
<!-- supriya.ugens.chaos.FBSineL -->
<g id="node8" class="node">
<title>supriya.ugens.chaos.FBSineL</title>
<g id="a_node8"><a xlink:href="../api/supriya/ugens/chaos.html#supriya.ugens.chaos.FBSineL" xlink:title="FBSine\nL" target="_top">
<path fill="black" stroke="black" stroke-width="2" d="M618.9,-944C618.9,-944 589.9,-944 589.9,-944 584.9,-944 579.9,-939 579.9,-934 579.9,-934 579.9,-924 579.9,-924 579.9,-919 584.9,-914 589.9,-914 589.9,-914 618.9,-914 618.9,-914 623.9,-914 628.9,-919 628.9,-924 628.9,-924 628.9,-934 628.9,-934 628.9,-939 623.9,-944 618.9,-944"/>
<text text-anchor="middle" x="604.4" y="-932" font-family="Arial" font-size="10.00" fill="white">FBSine</text>
<text text-anchor="middle" x="604.4" y="-921" font-family="Arial" font-size="10.00" fill="white">L</text>
</a>
</g>
</g>
<!-- supriya.ugens.chaos.FBSineN -->
<g id="node9" class="node">
<title>supriya.ugens.chaos.FBSineN</title>
<g id="a_node9"><a xlink:href="../api/supriya/ugens/chaos.html#supriya.ugens.chaos.FBSineN" xlink:title="FBSine\nN" target="_top">
<path fill="black" stroke="black" stroke-width="2" d="M618.9,-896C618.9,-896 589.9,-896 589.9,-896 584.9,-896 579.9,-891 579.9,-886 579.9,-886 579.9,-876 579.9,-876 579.9,-871 584.9,-866 589.9,-866 589.9,-866 618.9,-866 618.9,-866 623.9,-866 628.9,-871 628.9,-876 628.9,-876 628.9,-886 628.9,-886 628.9,-891 623.9,-896 618.9,-896"/>
<text text-anchor="middle" x="604.4" y="-884" font-family="Arial" font-size="10.00" fill="white">FBSine</text>
<text text-anchor="middle" x="604.4" y="-873" font-family="Arial" font-size="10.00" fill="white">N</text>
</a>
</g>
</g>
<!-- supriya.ugens.chaos.GbmanL -->
<g id="node10" class="node">
<title>supriya.ugens.chaos.GbmanL</title>
<g id="a_node10"><a xlink:href="../api/supriya/ugens/chaos.html#supriya.ugens.chaos.GbmanL" xlink:title="Gbman\nL" target="_top">
<path fill="black" stroke="black" stroke-width="2" d="M618.4,-848C618.4,-848 590.4,-848 590.4,-848 585.4,-848 580.4,-843 580.4,-838 580.4,-838 580.4,-828 580.4,-828 580.4,-823 585.4,-818 590.4,-818 590.4,-818 618.4,-818 618.4,-818 623.4,-818 628.4,-823 628.4,-828 628.4,-828 628.4,-838 628.4,-838 628.4,-843 623.4,-848 618.4,-848"/>
<text text-anchor="middle" x="604.4" y="-836" font-family="Arial" font-size="10.00" fill="white">Gbman</text>
<text text-anchor="middle" x="604.4" y="-825" font-family="Arial" font-size="10.00" fill="white">L</text>
</a>
</g>
</g>
<!-- supriya.ugens.chaos.GbmanN -->
<g id="node11" class="node">
<title>supriya.ugens.chaos.GbmanN</title>
<g id="a_node11"><a xlink:href="../api/supriya/ugens/chaos.html#supriya.ugens.chaos.GbmanN" xlink:title="Gbman\nN" target="_top">
<path fill="black" stroke="black" stroke-width="2" d="M618.4,-800C618.4,-800 590.4,-800 590.4,-800 585.4,-800 580.4,-795 580.4,-790 580.4,-790 580.4,-780 580.4,-780 580.4,-775 585.4,-770 590.4,-770 590.4,-770 618.4,-770 618.4,-770 623.4,-770 628.4,-775 628.4,-780 628.4,-780 628.4,-790 628.4,-790 628.4,-795 623.4,-800 618.4,-800"/>
<text text-anchor="middle" x="604.4" y="-788" font-family="Arial" font-size="10.00" fill="white">Gbman</text>
<text text-anchor="middle" x="604.4" y="-777" font-family="Arial" font-size="10.00" fill="white">N</text>
</a>
</g>
</g>
<!-- supriya.ugens.chaos.HenonC -->
<g id="node12" class="node">
<title>supriya.ugens.chaos.HenonC</title>
<g id="a_node12"><a xlink:href="../api/supriya/ugens/chaos.html#supriya.ugens.chaos.HenonC" xlink:title="Henon\nC" target="_top">
<path fill="black" stroke="black" stroke-width="2" d="M616.9,-752C616.9,-752 591.9,-752 591.9,-752 586.9,-752 581.9,-747 581.9,-742 581.9,-742 581.9,-732 581.9,-732 581.9,-727 586.9,-722 591.9,-722 591.9,-722 616.9,-722 616.9,-722 621.9,-722 626.9,-727 626.9,-732 626.9,-732 626.9,-742 626.9,-742 626.9,-747 621.9,-752 616.9,-752"/>
<text text-anchor="middle" x="604.4" y="-740" font-family="Arial" font-size="10.00" fill="white">Henon</text>
<text text-anchor="middle" x="604.4" y="-729" font-family="Arial" font-size="10.00" fill="white">C</text>
</a>
</g>
</g>
<!-- supriya.ugens.chaos.HenonL -->
<g id="node13" class="node">
<title>supriya.ugens.chaos.HenonL</title>
<g id="a_node13"><a xlink:href="../api/supriya/ugens/chaos.html#supriya.ugens.chaos.HenonL" xlink:title="Henon\nL" target="_top">
<path fill="black" stroke="black" stroke-width="2" d="M616.9,-704C616.9,-704 591.9,-704 591.9,-704 586.9,-704 581.9,-699 581.9,-694 581.9,-694 581.9,-684 581.9,-684 581.9,-679 586.9,-674 591.9,-674 591.9,-674 616.9,-674 616.9,-674 621.9,-674 626.9,-679 626.9,-684 626.9,-684 626.9,-694 626.9,-694 626.9,-699 621.9,-704 616.9,-704"/>
<text text-anchor="middle" x="604.4" y="-692" font-family="Arial" font-size="10.00" fill="white">Henon</text>
<text text-anchor="middle" x="604.4" y="-681" font-family="Arial" font-size="10.00" fill="white">L</text>
</a>
</g>
</g>
<!-- supriya.ugens.chaos.HenonN -->
<g id="node14" class="node">
<title>supriya.ugens.chaos.HenonN</title>
<g id="a_node14"><a xlink:href="../api/supriya/ugens/chaos.html#supriya.ugens.chaos.HenonN" xlink:title="Henon\nN" target="_top">
<path fill="black" stroke="black" stroke-width="2" d="M616.9,-656C616.9,-656 591.9,-656 591.9,-656 586.9,-656 581.9,-651 581.9,-646 581.9,-646 581.9,-636 581.9,-636 581.9,-631 586.9,-626 591.9,-626 591.9,-626 616.9,-626 616.9,-626 621.9,-626 626.9,-631 626.9,-636 626.9,-636 626.9,-646 626.9,-646 626.9,-651 621.9,-656 616.9,-656"/>
<text text-anchor="middle" x="604.4" y="-644" font-family="Arial" font-size="10.00" fill="white">Henon</text>
<text text-anchor="middle" x="604.4" y="-633" font-family="Arial" font-size="10.00" fill="white">N</text>
</a>
</g>
</g>
<!-- supriya.ugens.chaos.LatoocarfianC -->
<g id="node15" class="node">
<title>supriya.ugens.chaos.LatoocarfianC</title>
<g id="a_node15"><a xlink:href="../api/supriya/ugens/chaos.html#supriya.ugens.chaos.LatoocarfianC" xlink:title="Latoocarfian\nC" target="_top">
<path fill="black" stroke="black" stroke-width="2" d="M629.4,-608C629.4,-608 579.4,-608 579.4,-608 574.4,-608 569.4,-603 569.4,-598 569.4,-598 569.4,-588 569.4,-588 569.4,-583 574.4,-578 579.4,-578 579.4,-578 629.4,-578 629.4,-578 634.4,-578 639.4,-583 639.4,-588 639.4,-588 639.4,-598 639.4,-598 639.4,-603 634.4,-608 629.4,-608"/>
<text text-anchor="middle" x="604.4" y="-596" font-family="Arial" font-size="10.00" fill="white">Latoocarfian</text>
<text text-anchor="middle" x="604.4" y="-585" font-family="Arial" font-size="10.00" fill="white">C</text>
</a>
</g>
</g>
<!-- supriya.ugens.chaos.LatoocarfianL -->
<g id="node16" class="node">
<title>supriya.ugens.chaos.LatoocarfianL</title>
<g id="a_node16"><a xlink:href="../api/supriya/ugens/chaos.html#supriya.ugens.chaos.LatoocarfianL" xlink:title="Latoocarfian\nL" target="_top">
<path fill="black" stroke="black" stroke-width="2" d="M629.4,-560C629.4,-560 579.4,-560 579.4,-560 574.4,-560 569.4,-555 569.4,-550 569.4,-550 569.4,-540 569.4,-540 569.4,-535 574.4,-530 579.4,-530 579.4,-530 629.4,-530 629.4,-530 634.4,-530 639.4,-535 639.4,-540 639.4,-540 639.4,-550 639.4,-550 639.4,-555 634.4,-560 629.4,-560"/>
<text text-anchor="middle" x="604.4" y="-548" font-family="Arial" font-size="10.00" fill="white">Latoocarfian</text>
<text text-anchor="middle" x="604.4" y="-537" font-family="Arial" font-size="10.00" fill="white">L</text>
</a>
</g>
</g>
<!-- supriya.ugens.chaos.LatoocarfianN -->
<g id="node17" class="node">
<title>supriya.ugens.chaos.LatoocarfianN</title>
<g id="a_node17"><a xlink:href="../api/supriya/ugens/chaos.html#supriya.ugens.chaos.LatoocarfianN" xlink:title="Latoocarfian\nN" target="_top">
<path fill="black" stroke="black" stroke-width="2" d="M629.4,-512C629.4,-512 579.4,-512 579.4,-512 574.4,-512 569.4,-507 569.4,-502 569.4,-502 569.4,-492 569.4,-492 569.4,-487 574.4,-482 579.4,-482 579.4,-482 629.4,-482 629.4,-482 634.4,-482 639.4,-487 639.4,-492 639.4,-492 639.4,-502 639.4,-502 639.4,-507 634.4,-512 629.4,-512"/>
<text text-anchor="middle" x="604.4" y="-500" font-family="Arial" font-size="10.00" fill="white">Latoocarfian</text>
<text text-anchor="middle" x="604.4" y="-489" font-family="Arial" font-size="10.00" fill="white">N</text>
</a>
</g>
</g>
<!-- supriya.ugens.chaos.LinCongC -->
<g id="node18" class="node">
<title>supriya.ugens.chaos.LinCongC</title>
<g id="a_node18"><a xlink:href="../api/supriya/ugens/chaos.html#supriya.ugens.chaos.LinCongC" xlink:title="Lin\nCong\nC" target="_top">
<path fill="black" stroke="black" stroke-width="2" d="M612.4,-463.5C612.4,-463.5 596.4,-463.5 596.4,-463.5 590.4,-463.5 584.4,-457.5 584.4,-451.5 584.4,-451.5 584.4,-434.5 584.4,-434.5 584.4,-428.5 590.4,-422.5 596.4,-422.5 596.4,-422.5 612.4,-422.5 612.4,-422.5 618.4,-422.5 624.4,-428.5 624.4,-434.5 624.4,-434.5 624.4,-451.5 624.4,-451.5 624.4,-457.5 618.4,-463.5 612.4,-463.5"/>
<text text-anchor="middle" x="604.4" y="-451.5" font-family="Arial" font-size="10.00" fill="white">Lin</text>
<text text-anchor="middle" x="604.4" y="-440.5" font-family="Arial" font-size="10.00" fill="white">Cong</text>
<text text-anchor="middle" x="604.4" y="-429.5" font-family="Arial" font-size="10.00" fill="white">C</text>
</a>
</g>
</g>
<!-- supriya.ugens.chaos.LinCongL -->
<g id="node19" class="node">
<title>supriya.ugens.chaos.LinCongL</title>
<g id="a_node19"><a xlink:href="../api/supriya/ugens/chaos.html#supriya.ugens.chaos.LinCongL" xlink:title="Lin\nCong\nL" target="_top">
<path fill="black" stroke="black" stroke-width="2" d="M612.4,-404.5C612.4,-404.5 596.4,-404.5 596.4,-404.5 590.4,-404.5 584.4,-398.5 584.4,-392.5 584.4,-392.5 584.4,-375.5 584.4,-375.5 584.4,-369.5 590.4,-363.5 596.4,-363.5 596.4,-363.5 612.4,-363.5 612.4,-363.5 618.4,-363.5 624.4,-369.5 624.4,-375.5 624.4,-375.5 624.4,-392.5 624.4,-392.5 624.4,-398.5 618.4,-404.5 612.4,-404.5"/>
<text text-anchor="middle" x="604.4" y="-392.5" font-family="Arial" font-size="10.00" fill="white">Lin</text>
<text text-anchor="middle" x="604.4" y="-381.5" font-family="Arial" font-size="10.00" fill="white">Cong</text>
<text text-anchor="middle" x="604.4" y="-370.5" font-family="Arial" font-size="10.00" fill="white">L</text>
</a>
</g>
</g>
<!-- supriya.ugens.chaos.LinCongN -->
<g id="node20" class="node">
<title>supriya.ugens.chaos.LinCongN</title>
<g id="a_node20"><a xlink:href="../api/supriya/ugens/chaos.html#supriya.ugens.chaos.LinCongN" xlink:title="Lin\nCong\nN" target="_top">
<path fill="black" stroke="black" stroke-width="2" d="M612.4,-345.5C612.4,-345.5 596.4,-345.5 596.4,-345.5 590.4,-345.5 584.4,-339.5 584.4,-333.5 584.4,-333.5 584.4,-316.5 584.4,-316.5 584.4,-310.5 590.4,-304.5 596.4,-304.5 596.4,-304.5 612.4,-304.5 612.4,-304.5 618.4,-304.5 624.4,-310.5 624.4,-316.5 624.4,-316.5 624.4,-333.5 624.4,-333.5 624.4,-339.5 618.4,-345.5 612.4,-345.5"/>
<text text-anchor="middle" x="604.4" y="-333.5" font-family="Arial" font-size="10.00" fill="white">Lin</text>
<text text-anchor="middle" x="604.4" y="-322.5" font-family="Arial" font-size="10.00" fill="white">Cong</text>
<text text-anchor="middle" x="604.4" y="-311.5" font-family="Arial" font-size="10.00" fill="white">N</text>
</a>
</g>
</g>
<!-- supriya.ugens.chaos.LorenzL -->
<g id="node21" class="node">
<title>supriya.ugens.chaos.LorenzL</title>
<g id="a_node21"><a xlink:href="../api/supriya/ugens/chaos.html#supriya.ugens.chaos.LorenzL" xlink:title="Lorenz\nL" target="_top">
<path fill="black" stroke="black" stroke-width="2" d="M617.4,-286C617.4,-286 591.4,-286 591.4,-286 586.4,-286 581.4,-281 581.4,-276 581.4,-276 581.4,-266 581.4,-266 581.4,-261 586.4,-256 591.4,-256 591.4,-256 617.4,-256 617.4,-256 622.4,-256 627.4,-261 627.4,-266 627.4,-266 627.4,-276 627.4,-276 627.4,-281 622.4,-286 617.4,-286"/>
<text text-anchor="middle" x="604.4" y="-274" font-family="Arial" font-size="10.00" fill="white">Lorenz</text>
<text text-anchor="middle" x="604.4" y="-263" font-family="Arial" font-size="10.00" fill="white">L</text>
</a>
</g>
</g>
<!-- supriya.ugens.chaos.QuadC -->
<g id="node22" class="node">
<title>supriya.ugens.chaos.QuadC</title>
<g id="a_node22"><a xlink:href="../api/supriya/ugens/chaos.html#supriya.ugens.chaos.QuadC" xlink:title="Quad\nC" target="_top">
<path fill="black" stroke="black" stroke-width="2" d="M614.4,-238C614.4,-238 594.4,-238 594.4,-238 589.4,-238 584.4,-233 584.4,-228 584.4,-228 584.4,-218 584.4,-218 584.4,-213 589.4,-208 594.4,-208 594.4,-208 614.4,-208 614.4,-208 619.4,-208 624.4,-213 624.4,-218 624.4,-218 624.4,-228 624.4,-228 624.4,-233 619.4,-238 614.4,-238"/>
<text text-anchor="middle" x="604.4" y="-226" font-family="Arial" font-size="10.00" fill="white">Quad</text>
<text text-anchor="middle" x="604.4" y="-215" font-family="Arial" font-size="10.00" fill="white">C</text>
</a>
</g>
</g>
<!-- supriya.ugens.chaos.QuadL -->
<g id="node23" class="node">
<title>supriya.ugens.chaos.QuadL</title>
<g id="a_node23"><a xlink:href="../api/supriya/ugens/chaos.html#supriya.ugens.chaos.QuadL" xlink:title="Quad\nL" target="_top">
<path fill="black" stroke="black" stroke-width="2" d="M614.4,-190C614.4,-190 594.4,-190 594.4,-190 589.4,-190 584.4,-185 584.4,-180 584.4,-180 584.4,-170 584.4,-170 584.4,-165 589.4,-160 594.4,-160 594.4,-160 614.4,-160 614.4,-160 619.4,-160 624.4,-165 624.4,-170 624.4,-170 624.4,-180 624.4,-180 624.4,-185 619.4,-190 614.4,-190"/>
<text text-anchor="middle" x="604.4" y="-178" font-family="Arial" font-size="10.00" fill="white">Quad</text>
<text text-anchor="middle" x="604.4" y="-167" font-family="Arial" font-size="10.00" fill="white">L</text>
</a>
</g>
</g>
<!-- supriya.ugens.chaos.QuadN -->
<g id="node24" class="node">
<title>supriya.ugens.chaos.QuadN</title>
<g id="a_node24"><a xlink:href="../api/supriya/ugens/chaos.html#supriya.ugens.chaos.QuadN" xlink:title="Quad\nN" target="_top">
<path fill="black" stroke="black" stroke-width="2" d="M614.4,-142C614.4,-142 594.4,-142 594.4,-142 589.4,-142 584.4,-137 584.4,-132 584.4,-132 584.4,-122 584.4,-122 584.4,-117 589.4,-112 594.4,-112 594.4,-112 614.4,-112 614.4,-112 619.4,-112 624.4,-117 624.4,-122 624.4,-122 624.4,-132 624.4,-132 624.4,-137 619.4,-142 614.4,-142"/>
<text text-anchor="middle" x="604.4" y="-130" font-family="Arial" font-size="10.00" fill="white">Quad</text>
<text text-anchor="middle" x="604.4" y="-119" font-family="Arial" font-size="10.00" fill="white">N</text>
</a>
</g>
</g>
<!-- supriya.ugens.chaos.StandardL -->
<g id="node25" class="node">
<title>supriya.ugens.chaos.StandardL</title>
<g id="a_node25"><a xlink:href="../api/supriya/ugens/chaos.html#supriya.ugens.chaos.StandardL" xlink:title="Standard\nL" target="_top">
<path fill="black" stroke="black" stroke-width="2" d="M622.4,-94C622.4,-94 586.4,-94 586.4,-94 581.4,-94 576.4,-89 576.4,-84 576.4,-84 576.4,-74 576.4,-74 576.4,-69 581.4,-64 586.4,-64 586.4,-64 622.4,-64 622.4,-64 627.4,-64 632.4,-69 632.4,-74 632.4,-74 632.4,-84 632.4,-84 632.4,-89 627.4,-94 622.4,-94"/>
<text text-anchor="middle" x="604.4" y="-82" font-family="Arial" font-size="10.00" fill="white">Standard</text>
<text text-anchor="middle" x="604.4" y="-71" font-family="Arial" font-size="10.00" fill="white">L</text>
</a>
</g>
</g>
<!-- supriya.ugens.chaos.StandardN -->
<g id="node26" class="node">
<title>supriya.ugens.chaos.StandardN</title>
<g id="a_node26"><a xlink:href="../api/supriya/ugens/chaos.html#supriya.ugens.chaos.StandardN" xlink:title="Standard\nN" target="_top">
<path fill="black" stroke="black" stroke-width="2" d="M622.4,-46C622.4,-46 586.4,-46 586.4,-46 581.4,-46 576.4,-41 576.4,-36 576.4,-36 576.4,-26 576.4,-26 576.4,-21 581.4,-16 586.4,-16 586.4,-16 622.4,-16 622.4,-16 627.4,-16 632.4,-21 632.4,-26 632.4,-26 632.4,-36 632.4,-36 632.4,-41 627.4,-46 622.4,-46"/>
<text text-anchor="middle" x="604.4" y="-34" font-family="Arial" font-size="10.00" fill="white">Standard</text>
<text text-anchor="middle" x="604.4" y="-23" font-family="Arial" font-size="10.00" fill="white">N</text>
</a>
</g>
</g>
</g>
</svg>
