<?xml version="1.0" encoding="UTF-8" standalone="no"?>
<!DOCTYPE svg PUBLIC "-//W3C//DTD SVG 1.1//EN"
 "http://www.w3.org/Graphics/SVG/1.1/DTD/svg11.dtd">
<!-- Generated by graphviz version 2.40.1 (20161225.0304)
 -->
<!-- Title: InheritanceGraph Pages: 1 -->
<svg width="427pt" height="89pt"
 viewBox="0.00 0.00 426.52 89.00" xmlns="http://www.w3.org/2000/svg" xmlns:xlink="http://www.w3.org/1999/xlink">
<g id="graph0" class="graph" transform="scale(1 1) rotate(0) translate(4 85)">
<title>InheritanceGraph</title>
<g id="clust1" class="cluster">
<title>cluster_abc</title>
<path fill="transparent" stroke="#bcd2ee" stroke-width="2" stroke-dasharray="5,2" d="M93,-13C93,-13 117,-13 117,-13 123,-13 129,-19 129,-25 129,-25 129,-56 129,-56 129,-62 123,-68 117,-68 117,-68 93,-68 93,-68 87,-68 81,-62 81,-56 81,-56 81,-25 81,-25 81,-19 87,-13 93,-13"/>
<text text-anchor="middle" x="105" y="-56" font-family="Arial" font-size="10.00" fill="#000000">abc</text>
</g>
<g id="clust2" class="cluster">
<title>cluster_builtins</title>
<path fill="transparent" stroke="#bcd2ee" stroke-width="2" stroke-dasharray="5,2" d="M20,-13C20,-13 49,-13 49,-13 55,-13 61,-19 61,-25 61,-25 61,-56 61,-56 61,-62 55,-68 49,-68 49,-68 20,-68 20,-68 14,-68 8,-62 8,-56 8,-56 8,-25 8,-25 8,-19 14,-13 20,-13"/>
<text text-anchor="middle" x="34.5" y="-56" font-family="Arial" font-size="10.00" fill="#000000">builtins</text>
</g>
<g id="clust3" class="cluster">
<title>cluster_supriya.cli</title>
<path fill="transparent" stroke="#bcd2ee" stroke-width="2" stroke-dasharray="5,2" d="M364.5219,-8C364.5219,-8 398.5219,-8 398.5219,-8 404.5219,-8 410.5219,-14 410.5219,-20 410.5219,-20 410.5219,-61 410.5219,-61 410.5219,-67 404.5219,-73 398.5219,-73 398.5219,-73 364.5219,-73 364.5219,-73 358.5219,-73 352.5219,-67 352.5219,-61 352.5219,-61 352.5219,-20 352.5219,-20 352.5219,-14 358.5219,-8 364.5219,-8"/>
<text text-anchor="middle" x="381.5219" y="-61" font-family="Arial" font-size="10.00" fill="#000000">supriya.cli</text>
</g>
<g id="clust4" class="cluster">
<title>cluster_uqbar.cli</title>
<path fill="transparent" stroke="#bcd2ee" stroke-width="2" stroke-dasharray="5,2" d="M161,-10C161,-10 320.5219,-10 320.5219,-10 326.5219,-10 332.5219,-16 332.5219,-22 332.5219,-22 332.5219,-59 332.5219,-59 332.5219,-65 326.5219,-71 320.5219,-71 320.5219,-71 161,-71 161,-71 155,-71 149,-65 149,-59 149,-59 149,-22 149,-22 149,-16 155,-10 161,-10"/>
<text text-anchor="middle" x="240.7609" y="-59" font-family="Arial" font-size="10.00" fill="#000000">uqbar.cli</text>
</g>
<!-- abc.ABC&#45;&gt;uqbar.cli.CLI.CLI -->
<g id="edge2" class="edge">
<title>abc.ABC&#45;&gt;uqbar.cli.CLI.CLI</title>
<path fill="none" stroke="#778899" d="M121.2923,-31C128.8224,-31 138.0128,-31 146.7317,-31"/>
<polygon fill="#778899" stroke="#778899" points="146.9896,-34.5001 156.9895,-31 146.9895,-27.5001 146.9896,-34.5001"/>
</g>
<!-- builtins.object&#45;&gt;abc.ABC -->
<g id="edge3" class="edge">
<title>builtins.object&#45;&gt;abc.ABC</title>
<path fill="none" stroke="#778899" d="M53.023,-31C60.8254,-31 70.0511,-31 78.5482,-31"/>
<polygon fill="#778899" stroke="#778899" points="78.7595,-34.5001 88.7595,-31 78.7595,-27.5001 78.7595,-34.5001"/>
</g>
<!-- uqbar.cli.CLI.CLI&#45;&gt;uqbar.cli.CLIAggregator.CLIAggregator -->
<g id="edge1" class="edge">
<title>uqbar.cli.CLI.CLI&#45;&gt;uqbar.cli.CLIAggregator.CLIAggregator</title>
<path fill="none" stroke="#778899" d="M196.9037,-31C204.3105,-31 213.1111,-31 222.1472,-31"/>
<polygon fill="#778899" stroke="#778899" points="222.3876,-34.5001 232.3876,-31 222.3876,-27.5001 222.3876,-34.5001"/>
</g>
<!-- uqbar.cli.CLIAggregator.CLIAggregator&#45;&gt;supriya.cli.SupriyaScript.SupriyaScript -->
<g id="edge4" class="edge">
<title>uqbar.cli.CLIAggregator.CLIAggregator&#45;&gt;supriya.cli.SupriyaScript.SupriyaScript</title>
<path fill="none" stroke="#778899" d="M324.6202,-31C333.3319,-31 342.2529,-31 350.3705,-31"/>
<polygon fill="#778899" stroke="#778899" points="350.4939,-34.5001 360.4939,-31 350.4939,-27.5001 350.4939,-34.5001"/>
</g>
<!-- abc.ABC -->
<g id="node1" class="node">
<title>abc.ABC</title>
<g id="a_node1"><a xlink:href="https://docs.python.org/3.6/library/abc.html#abc.ABC" xlink:title="ABC" target="_top">
<path fill="#fbb4ae" stroke="#fbb4ae" stroke-width="2" d="M114.6667,-40.5C114.6667,-40.5 95.3333,-40.5 95.3333,-40.5 92.1667,-40.5 89,-37.3333 89,-34.1667 89,-34.1667 89,-27.8333 89,-27.8333 89,-24.6667 92.1667,-21.5 95.3333,-21.5 95.3333,-21.5 114.6667,-21.5 114.6667,-21.5 117.8333,-21.5 121,-24.6667 121,-27.8333 121,-27.8333 121,-34.1667 121,-34.1667 121,-37.3333 117.8333,-40.5 114.6667,-40.5"/>
<text text-anchor="middle" x="105" y="-28.5" font-family="Arial" font-size="10.00" fill="#000000">ABC</text>
</a>
</g>
</g>
<!-- builtins.object -->
<g id="node2" class="node">
<title>builtins.object</title>
<g id="a_node2"><a xlink:href="https://docs.python.org/3.6/library/functions.html#object" xlink:title="object" target="_top">
<path fill="#b3cde3" stroke="#b3cde3" stroke-width="2" d="M46.6667,-40.5C46.6667,-40.5 22.3333,-40.5 22.3333,-40.5 19.1667,-40.5 16,-37.3333 16,-34.1667 16,-34.1667 16,-27.8333 16,-27.8333 16,-24.6667 19.1667,-21.5 22.3333,-21.5 22.3333,-21.5 46.6667,-21.5 46.6667,-21.5 49.8333,-21.5 53,-24.6667 53,-27.8333 53,-27.8333 53,-34.1667 53,-34.1667 53,-37.3333 49.8333,-40.5 46.6667,-40.5"/>
<text text-anchor="middle" x="34.5" y="-28.5" font-family="Arial" font-size="10.00" fill="#000000">object</text>
</a>
</g>
</g>
<!-- supriya.cli.SupriyaScript.SupriyaScript -->
<g id="node3" class="node">
<title>supriya.cli.SupriyaScript.SupriyaScript</title>
<g id="a_node3"><a xlink:href="../api/supriya/cli/SupriyaScript.html#supriya.cli.SupriyaScript.SupriyaScript" xlink:title="Supriya\nScript" target="_top">
<path fill="#000000" stroke="#000000" stroke-width="2" d="M392.5219,-46C392.5219,-46 370.5219,-46 370.5219,-46 365.5219,-46 360.5219,-41 360.5219,-36 360.5219,-36 360.5219,-26 360.5219,-26 360.5219,-21 365.5219,-16 370.5219,-16 370.5219,-16 392.5219,-16 392.5219,-16 397.5219,-16 402.5219,-21 402.5219,-26 402.5219,-26 402.5219,-36 402.5219,-36 402.5219,-41 397.5219,-46 392.5219,-46"/>
<text text-anchor="middle" x="381.5219" y="-34" font-family="Arial" font-size="10.00" fill="#ffffff">Supriya</text>
<text text-anchor="middle" x="381.5219" y="-23" font-family="Arial" font-size="10.00" fill="#ffffff">Script</text>
</a>
</g>
</g>
<!-- uqbar.cli.CLI.CLI -->
<g id="node4" class="node">
<title>uqbar.cli.CLI.CLI</title>
<ellipse fill="none" stroke="#decbe4" stroke-width="2" cx="176.799" cy="-31" rx="19.6" ry="13.3704"/>
<text text-anchor="middle" x="176.799" y="-28.5" font-family="Arial" font-size="10.00" fill="#000000">CLI</text>
</g>
<!-- uqbar.cli.CLIAggregator.CLIAggregator -->
<g id="node5" class="node">
<title>uqbar.cli.CLIAggregator.CLIAggregator</title>
<ellipse fill="none" stroke="#decbe4" stroke-width="2" cx="278.5599" cy="-31" rx="45.9239" ry="13.3704"/>
<text text-anchor="middle" x="278.5599" y="-28.5" font-family="Arial" font-size="10.00" fill="#000000">CLIAggregator</text>
</g>
</g>
</svg>
