<?xml version="1.0" encoding="UTF-8" standalone="no"?>
<!DOCTYPE svg PUBLIC "-//W3C//DTD SVG 1.1//EN"
 "http://www.w3.org/Graphics/SVG/1.1/DTD/svg11.dtd">
<!-- Generated by graphviz version 2.40.1 (20161225.0304)
 -->
<!-- Title: InheritanceGraph Pages: 1 -->
<svg width="296pt" height="160pt"
 viewBox="0.00 0.00 296.00 160.00" xmlns="http://www.w3.org/2000/svg" xmlns:xlink="http://www.w3.org/1999/xlink">
<g id="graph0" class="graph" transform="scale(1 1) rotate(0) translate(4 156)">
<title>InheritanceGraph</title>
<g id="clust1" class="cluster">
<title>cluster_builtins</title>
<path fill="transparent" stroke="#bcd2ee" stroke-width="2" stroke-dasharray="5,2" d="M20,-51C20,-51 49,-51 49,-51 55,-51 61,-57 61,-63 61,-63 61,-94 61,-94 61,-100 55,-106 49,-106 49,-106 20,-106 20,-106 14,-106 8,-100 8,-94 8,-94 8,-63 8,-63 8,-57 14,-51 20,-51"/>
<text text-anchor="middle" x="34.5" y="-94" font-family="Arial" font-size="10.00" fill="#000000">builtins</text>
</g>
<g id="clust2" class="cluster">
<title>cluster_supriya.live</title>
<path fill="transparent" stroke="#bcd2ee" stroke-width="2" stroke-dasharray="5,2" d="M93,-8C93,-8 268,-8 268,-8 274,-8 280,-14 280,-20 280,-20 280,-132 280,-132 280,-138 274,-144 268,-144 268,-144 93,-144 93,-144 87,-144 81,-138 81,-132 81,-132 81,-20 81,-20 81,-14 87,-8 93,-8"/>
<text text-anchor="middle" x="180.5" y="-132" font-family="Arial" font-size="10.00" fill="#000000">supriya.live</text>
</g>
<!-- builtins.object&#45;&gt;supriya.live.Slot.Slot -->
<g id="edge5" class="edge">
<title>builtins.object&#45;&gt;supriya.live.Slot.Slot</title>
<path fill="none" stroke="#778899" d="M53.3546,-69C61.2102,-69 70.4388,-69 78.8231,-69"/>
<polygon fill="#778899" stroke="#778899" points="78.8247,-72.5001 88.8247,-69 78.8246,-65.5001 78.8247,-72.5001"/>
</g>
<!-- supriya.live.PatternSlot.PatternSlot&#45;&gt;supriya.live.AutoPatternSlot.AutoPatternSlot -->
<g id="edge1" class="edge">
<title>supriya.live.PatternSlot.PatternSlot&#45;&gt;supriya.live.AutoPatternSlot.AutoPatternSlot</title>
<path fill="none" stroke="#778899" d="M195.1346,-42.8561C202.9889,-42.0401 212.1178,-41.0917 220.7121,-40.1987"/>
<polygon fill="#778899" stroke="#778899" points="221.2237,-43.6645 230.8085,-39.1498 220.5003,-36.702 221.2237,-43.6645"/>
</g>
<!-- supriya.live.PatternSlot.PatternSlot&#45;&gt;supriya.live.TriggerPatternSlot.TriggerPatternSlot -->
<g id="edge2" class="edge">
<title>supriya.live.PatternSlot.PatternSlot&#45;&gt;supriya.live.TriggerPatternSlot.TriggerPatternSlot</title>
<path fill="none" stroke="#778899" d="M195.1346,-58.6671C203.5067,-64.2123 213.3271,-70.7167 222.4046,-76.729"/>
<polygon fill="#778899" stroke="#778899" points="220.5386,-79.6912 230.8085,-82.2952 224.404,-73.8552 220.5386,-79.6912"/>
</g>
<!-- supriya.live.Slot.Slot&#45;&gt;supriya.live.PatternSlot.PatternSlot -->
<g id="edge3" class="edge">
<title>supriya.live.Slot.Slot&#45;&gt;supriya.live.PatternSlot.PatternSlot</title>
<path fill="none" stroke="#778899" d="M118.2112,-64.0272C125.7877,-61.4661 135.3148,-58.2457 144.3656,-55.1863"/>
<polygon fill="#778899" stroke="#778899" points="145.5323,-58.4865 153.8849,-51.9685 143.2907,-51.8551 145.5323,-58.4865"/>
</g>
<!-- supriya.live.Slot.Slot&#45;&gt;supriya.live.SynthSlot.SynthSlot -->
<g id="edge4" class="edge">
<title>supriya.live.Slot.Slot&#45;&gt;supriya.live.SynthSlot.SynthSlot</title>
<path fill="none" stroke="#778899" d="M118.2112,-73.9728C126.411,-76.7446 136.8954,-80.2886 146.5881,-83.565"/>
<polygon fill="#778899" stroke="#778899" points="145.6791,-86.9522 156.2734,-86.8389 147.9208,-80.3208 145.6791,-86.9522"/>
</g>
<!-- builtins.object -->
<g id="node1" class="node">
<title>builtins.object</title>
<g id="a_node1"><a xlink:href="https://docs.python.org/3.6/library/functions.html#object" xlink:title="object" target="_top">
<path fill="#fbb4ae" stroke="#fbb4ae" stroke-width="2" d="M46.6667,-78.5C46.6667,-78.5 22.3333,-78.5 22.3333,-78.5 19.1667,-78.5 16,-75.3333 16,-72.1667 16,-72.1667 16,-65.8333 16,-65.8333 16,-62.6667 19.1667,-59.5 22.3333,-59.5 22.3333,-59.5 46.6667,-59.5 46.6667,-59.5 49.8333,-59.5 53,-62.6667 53,-65.8333 53,-65.8333 53,-72.1667 53,-72.1667 53,-75.3333 49.8333,-78.5 46.6667,-78.5"/>
<text text-anchor="middle" x="34.5" y="-66.5" font-family="Arial" font-size="10.00" fill="#000000">object</text>
</a>
</g>
</g>
<!-- supriya.live.AutoPatternSlot.AutoPatternSlot -->
<g id="node2" class="node">
<title>supriya.live.AutoPatternSlot.AutoPatternSlot</title>
<g id="a_node2"><a xlink:href="../api/supriya/live/AutoPatternSlot.html#supriya.live.AutoPatternSlot.AutoPatternSlot" xlink:title="Auto\nPattern\nSlot" target="_top">
<path fill="#b3cde3" stroke="#b3cde3" stroke-width="2" d="M260,-57.5C260,-57.5 243,-57.5 243,-57.5 237,-57.5 231,-51.5 231,-45.5 231,-45.5 231,-28.5 231,-28.5 231,-22.5 237,-16.5 243,-16.5 243,-16.5 260,-16.5 260,-16.5 266,-16.5 272,-22.5 272,-28.5 272,-28.5 272,-45.5 272,-45.5 272,-51.5 266,-57.5 260,-57.5"/>
<text text-anchor="middle" x="251.5" y="-45.5" font-family="Arial" font-size="10.00" fill="#000000">Auto</text>
<text text-anchor="middle" x="251.5" y="-34.5" font-family="Arial" font-size="10.00" fill="#000000">Pattern</text>
<text text-anchor="middle" x="251.5" y="-23.5" font-family="Arial" font-size="10.00" fill="#000000">Slot</text>
</a>
</g>
</g>
<!-- supriya.live.PatternSlot.PatternSlot -->
<g id="node3" class="node">
<title>supriya.live.PatternSlot.PatternSlot</title>
<g id="a_node3"><a xlink:href="../api/supriya/live/PatternSlot.html#supriya.live.PatternSlot.PatternSlot" xlink:title="Pattern\nSlot" target="_top">
<path fill="#b3cde3" stroke="#b3cde3" stroke-width="2" d="M185,-60C185,-60 164,-60 164,-60 159,-60 154,-55 154,-50 154,-50 154,-40 154,-40 154,-35 159,-30 164,-30 164,-30 185,-30 185,-30 190,-30 195,-35 195,-40 195,-40 195,-50 195,-50 195,-55 190,-60 185,-60"/>
<text text-anchor="middle" x="174.5" y="-48" font-family="Arial" font-size="10.00" fill="#000000">Pattern</text>
<text text-anchor="middle" x="174.5" y="-37" font-family="Arial" font-size="10.00" fill="#000000">Slot</text>
</a>
</g>
</g>
<!-- supriya.live.Slot.Slot -->
<g id="node4" class="node">
<title>supriya.live.Slot.Slot</title>
<g id="a_node4"><a xlink:href="../api/supriya/live/Slot.html#supriya.live.Slot.Slot" xlink:title="Slot" target="_top">
<path fill="#000000" stroke="#000000" stroke-width="2" d="M111.6667,-78.5C111.6667,-78.5 95.3333,-78.5 95.3333,-78.5 92.1667,-78.5 89,-75.3333 89,-72.1667 89,-72.1667 89,-65.8333 89,-65.8333 89,-62.6667 92.1667,-59.5 95.3333,-59.5 95.3333,-59.5 111.6667,-59.5 111.6667,-59.5 114.8333,-59.5 118,-62.6667 118,-65.8333 118,-65.8333 118,-72.1667 118,-72.1667 118,-75.3333 114.8333,-78.5 111.6667,-78.5"/>
<text text-anchor="middle" x="103.5" y="-66.5" font-family="Arial" font-size="10.00" fill="#ffffff">Slot</text>
</a>
</g>
</g>
<!-- supriya.live.SynthSlot.SynthSlot -->
<g id="node5" class="node">
<title>supriya.live.SynthSlot.SynthSlot</title>
<g id="a_node5"><a xlink:href="../api/supriya/live/SynthSlot.html#supriya.live.SynthSlot.SynthSlot" xlink:title="Synth\nSlot" target="_top">
<path fill="#b3cde3" stroke="#b3cde3" stroke-width="2" d="M182.5,-108C182.5,-108 166.5,-108 166.5,-108 161.5,-108 156.5,-103 156.5,-98 156.5,-98 156.5,-88 156.5,-88 156.5,-83 161.5,-78 166.5,-78 166.5,-78 182.5,-78 182.5,-78 187.5,-78 192.5,-83 192.5,-88 192.5,-88 192.5,-98 192.5,-98 192.5,-103 187.5,-108 182.5,-108"/>
<text text-anchor="middle" x="174.5" y="-96" font-family="Arial" font-size="10.00" fill="#000000">Synth</text>
<text text-anchor="middle" x="174.5" y="-85" font-family="Arial" font-size="10.00" fill="#000000">Slot</text>
</a>
</g>
</g>
<!-- supriya.live.TriggerPatternSlot.TriggerPatternSlot -->
<g id="node6" class="node">
<title>supriya.live.TriggerPatternSlot.TriggerPatternSlot</title>
<g id="a_node6"><a xlink:href="../api/supriya/live/TriggerPatternSlot.html#supriya.live.TriggerPatternSlot.TriggerPatternSlot" xlink:title="Trigger\nPattern\nSlot" target="_top">
<path fill="#b3cde3" stroke="#b3cde3" stroke-width="2" d="M260,-116.5C260,-116.5 243,-116.5 243,-116.5 237,-116.5 231,-110.5 231,-104.5 231,-104.5 231,-87.5 231,-87.5 231,-81.5 237,-75.5 243,-75.5 243,-75.5 260,-75.5 260,-75.5 266,-75.5 272,-81.5 272,-87.5 272,-87.5 272,-104.5 272,-104.5 272,-110.5 266,-116.5 260,-116.5"/>
<text text-anchor="middle" x="251.5" y="-104.5" font-family="Arial" font-size="10.00" fill="#000000">Trigger</text>
<text text-anchor="middle" x="251.5" y="-93.5" font-family="Arial" font-size="10.00" fill="#000000">Pattern</text>
<text text-anchor="middle" x="251.5" y="-82.5" font-family="Arial" font-size="10.00" fill="#000000">Slot</text>
</a>
</g>
</g>
</g>
</svg>
