<?xml version="1.0" encoding="UTF-8" standalone="no"?>
<!DOCTYPE svg PUBLIC "-//W3C//DTD SVG 1.1//EN"
 "http://www.w3.org/Graphics/SVG/1.1/DTD/svg11.dtd">
<!-- Generated by graphviz version 2.40.1 (20161225.0304)
 -->
<!-- Title: InheritanceGraph Pages: 1 -->
<svg width="414pt" height="101pt"
 viewBox="0.00 0.00 413.91 101.00" xmlns="http://www.w3.org/2000/svg" xmlns:xlink="http://www.w3.org/1999/xlink">
<g id="graph0" class="graph" transform="scale(1 1) rotate(0) translate(4 97)">
<title>InheritanceGraph</title>
<g id="clust1" class="cluster">
<title>cluster_builtins</title>
<path fill="transparent" stroke="#bcd2ee" stroke-width="2" stroke-dasharray="5,2" d="M20,-19C20,-19 49,-19 49,-19 55,-19 61,-25 61,-31 61,-31 61,-62 61,-62 61,-68 55,-74 49,-74 49,-74 20,-74 20,-74 14,-74 8,-68 8,-62 8,-62 8,-31 8,-31 8,-25 14,-19 20,-19"/>
<text text-anchor="middle" x="34.5" y="-62" font-family="Arial" font-size="10.00" fill="#000000">builtins</text>
</g>
<g id="clust2" class="cluster">
<title>cluster_supriya.synthdefs</title>
<path fill="transparent" stroke="#bcd2ee" stroke-width="2" stroke-dasharray="5,2" d="M180,-8C180,-8 231,-8 231,-8 237,-8 243,-14 243,-20 243,-20 243,-73 243,-73 243,-79 237,-85 231,-85 231,-85 180,-85 180,-85 174,-85 168,-79 168,-73 168,-73 168,-20 168,-20 168,-14 174,-8 180,-8"/>
<text text-anchor="middle" x="205.5" y="-73" font-family="Arial" font-size="10.00" fill="#000000">supriya.synthdefs</text>
</g>
<g id="clust3" class="cluster">
<title>cluster_supriya.system</title>
<path fill="transparent" stroke="#bcd2ee" stroke-width="2" stroke-dasharray="5,2" d="M93,-14C93,-14 136,-14 136,-14 142,-14 148,-20 148,-26 148,-26 148,-67 148,-67 148,-73 142,-79 136,-79 136,-79 93,-79 93,-79 87,-79 81,-73 81,-67 81,-67 81,-26 81,-26 81,-20 87,-14 93,-14"/>
<text text-anchor="middle" x="114.5" y="-67" font-family="Arial" font-size="10.00" fill="#000000">supriya.system</text>
</g>
<g id="clust4" class="cluster">
<title>cluster_supriya.ugens</title>
<path fill="transparent" stroke="#bcd2ee" stroke-width="2" stroke-dasharray="5,2" d="M275,-16C275,-16 385.9117,-16 385.9117,-16 391.9117,-16 397.9117,-22 397.9117,-28 397.9117,-28 397.9117,-65 397.9117,-65 397.9117,-71 391.9117,-77 385.9117,-77 385.9117,-77 275,-77 275,-77 269,-77 263,-71 263,-65 263,-65 263,-28 263,-28 263,-22 269,-16 275,-16"/>
<text text-anchor="middle" x="330.4558" y="-65" font-family="Arial" font-size="10.00" fill="#000000">supriya.ugens</text>
</g>
<!-- builtins.object&#45;&gt;supriya.system.SupriyaObject.SupriyaObject -->
<g id="edge2" class="edge">
<title>builtins.object&#45;&gt;supriya.system.SupriyaObject.SupriyaObject</title>
<path fill="none" stroke="#778899" d="M53.3404,-37C62.0401,-37 72.6079,-37 82.4698,-37"/>
<polygon fill="#778899" stroke="#778899" points="82.7722,-40.5001 92.7722,-37 82.7721,-33.5001 82.7722,-40.5001"/>
</g>
<!-- supriya.synthdefs.UGenMethodMixin.UGenMethodMixin&#45;&gt;supriya.ugens.UGen.UGen -->
<g id="edge3" class="edge">
<title>supriya.synthdefs.UGenMethodMixin.UGenMethodMixin&#45;&gt;supriya.ugens.UGen.UGen</title>
<path fill="none" stroke="#778899" d="M226.2117,-37C236.3925,-37 248.8752,-37 260.4793,-37"/>
<polygon fill="#778899" stroke="#778899" points="260.7979,-40.5001 270.7978,-37 260.7978,-33.5001 260.7979,-40.5001"/>
</g>
<!-- supriya.system.SupriyaObject.SupriyaObject&#45;&gt;supriya.synthdefs.UGenMethodMixin.UGenMethodMixin -->
<g id="edge4" class="edge">
<title>supriya.system.SupriyaObject.SupriyaObject&#45;&gt;supriya.synthdefs.UGenMethodMixin.UGenMethodMixin</title>
<path fill="none" stroke="#778899" d="M135.106,-37C146.5093,-37 160.815,-37 173.5087,-37"/>
<polygon fill="#778899" stroke="#778899" points="173.6933,-40.5001 183.6933,-37 173.6932,-33.5001 173.6933,-40.5001"/>
</g>
<!-- supriya.ugens.UGen.UGen&#45;&gt;supriya.ugens.Duty.Duty -->
<g id="edge1" class="edge">
<title>supriya.ugens.UGen.UGen&#45;&gt;supriya.ugens.Duty.Duty</title>
<path fill="none" stroke="#778899" d="M322.2475,-37C330.3257,-37 339.2522,-37 347.3805,-37"/>
<polygon fill="#778899" stroke="#778899" points="347.4676,-40.5001 357.4675,-37 347.4675,-33.5001 347.4676,-40.5001"/>
</g>
<!-- builtins.object -->
<g id="node1" class="node">
<title>builtins.object</title>
<g id="a_node1"><a xlink:href="https://docs.python.org/3.6/library/functions.html#object" xlink:title="object" target="_top">
<path fill="#fbb4ae" stroke="#fbb4ae" stroke-width="2" d="M46.6667,-46.5C46.6667,-46.5 22.3333,-46.5 22.3333,-46.5 19.1667,-46.5 16,-43.3333 16,-40.1667 16,-40.1667 16,-33.8333 16,-33.8333 16,-30.6667 19.1667,-27.5 22.3333,-27.5 22.3333,-27.5 46.6667,-27.5 46.6667,-27.5 49.8333,-27.5 53,-30.6667 53,-33.8333 53,-33.8333 53,-40.1667 53,-40.1667 53,-43.3333 49.8333,-46.5 46.6667,-46.5"/>
<text text-anchor="middle" x="34.5" y="-34.5" font-family="Arial" font-size="10.00" fill="#000000">object</text>
</a>
</g>
</g>
<!-- supriya.synthdefs.UGenMethodMixin.UGenMethodMixin -->
<g id="node2" class="node">
<title>supriya.synthdefs.UGenMethodMixin.UGenMethodMixin</title>
<g id="a_node2"><a xlink:href="../api/supriya/ugens/../synthdefs/UGenMethodMixin.html#supriya.synthdefs.UGenMethodMixin.UGenMethodMixin" xlink:title="UGen\nMethod\nMixin" target="_top">
<path fill="#b3cde3" stroke="#b3cde3" stroke-width="2" d="M214,-57.5C214,-57.5 196,-57.5 196,-57.5 190,-57.5 184,-51.5 184,-45.5 184,-45.5 184,-28.5 184,-28.5 184,-22.5 190,-16.5 196,-16.5 196,-16.5 214,-16.5 214,-16.5 220,-16.5 226,-22.5 226,-28.5 226,-28.5 226,-45.5 226,-45.5 226,-51.5 220,-57.5 214,-57.5"/>
<text text-anchor="middle" x="205" y="-45.5" font-family="Arial" font-size="10.00" fill="#000000">UGen</text>
<text text-anchor="middle" x="205" y="-34.5" font-family="Arial" font-size="10.00" fill="#000000">Method</text>
<text text-anchor="middle" x="205" y="-23.5" font-family="Arial" font-size="10.00" fill="#000000">Mixin</text>
</a>
</g>
</g>
<!-- supriya.system.SupriyaObject.SupriyaObject -->
<g id="node3" class="node">
<title>supriya.system.SupriyaObject.SupriyaObject</title>
<g id="a_node3"><a xlink:href="../api/supriya/ugens/../system/SupriyaObject.html#supriya.system.SupriyaObject.SupriyaObject" xlink:title="Supriya\nObject" target="_top">
<path fill="#ccebc5" stroke="#ccebc5" stroke-width="2" d="M125,-52C125,-52 103,-52 103,-52 98,-52 93,-47 93,-42 93,-42 93,-32 93,-32 93,-27 98,-22 103,-22 103,-22 125,-22 125,-22 130,-22 135,-27 135,-32 135,-32 135,-42 135,-42 135,-47 130,-52 125,-52"/>
<text text-anchor="middle" x="114" y="-40" font-family="Arial" font-size="10.00" fill="#000000">Supriya</text>
<text text-anchor="middle" x="114" y="-29" font-family="Arial" font-size="10.00" fill="#000000">Object</text>
</a>
</g>
</g>
<!-- supriya.ugens.Duty.Duty -->
<g id="node4" class="node">
<title>supriya.ugens.Duty.Duty</title>
<g id="a_node4"><a xlink:href="../api/supriya/ugens/Duty.html#supriya.ugens.Duty.Duty" xlink:title="Duty" target="_top">
<path fill="#000000" stroke="#000000" stroke-width="2" d="M383.5784,-46.5C383.5784,-46.5 364.245,-46.5 364.245,-46.5 361.0784,-46.5 357.9117,-43.3333 357.9117,-40.1667 357.9117,-40.1667 357.9117,-33.8333 357.9117,-33.8333 357.9117,-30.6667 361.0784,-27.5 364.245,-27.5 364.245,-27.5 383.5784,-27.5 383.5784,-27.5 386.745,-27.5 389.9117,-30.6667 389.9117,-33.8333 389.9117,-33.8333 389.9117,-40.1667 389.9117,-40.1667 389.9117,-43.3333 386.745,-46.5 383.5784,-46.5"/>
<text text-anchor="middle" x="373.9117" y="-34.5" font-family="Arial" font-size="10.00" fill="#ffffff">Duty</text>
</a>
</g>
</g>
<!-- supriya.ugens.UGen.UGen -->
<g id="node5" class="node">
<title>supriya.ugens.UGen.UGen</title>
<g id="a_node5"><a xlink:href="../api/supriya/ugens/UGen.html#supriya.ugens.UGen.UGen" xlink:title="UGen" target="_top">
<ellipse fill="none" stroke="#decbe4" stroke-width="2" cx="296.4558" cy="-37" rx="25.4118" ry="13.3704"/>
<text text-anchor="middle" x="296.4558" y="-34.5" font-family="Arial" font-size="10.00" fill="#000000">UGen</text>
</a>
</g>
</g>
</g>
</svg>
