<?xml version="1.0" encoding="UTF-8" standalone="no"?>
<!DOCTYPE svg PUBLIC "-//W3C//DTD SVG 1.1//EN"
 "http://www.w3.org/Graphics/SVG/1.1/DTD/svg11.dtd">
<!-- Generated by graphviz version 2.44.1 (20200629.0846)
 -->
<!-- Title: InheritanceGraph Pages: 1 -->
<svg width="709pt" height="443pt"
 viewBox="0.00 0.00 708.79 443.00" xmlns="http://www.w3.org/2000/svg" xmlns:xlink="http://www.w3.org/1999/xlink">
<g id="graph0" class="graph" transform="scale(1 1) rotate(0) translate(4 439)">
<title>InheritanceGraph</title>
<g id="clust1" class="cluster">
<title>cluster_builtins</title>
<path fill="transparent" stroke="#bcd2ee" stroke-width="2" stroke-dasharray="5,2" d="M20,-278C20,-278 55,-278 55,-278 61,-278 67,-284 67,-290 67,-290 67,-321 67,-321 67,-327 61,-333 55,-333 55,-333 20,-333 20,-333 14,-333 8,-327 8,-321 8,-321 8,-290 8,-290 8,-284 14,-278 20,-278"/>
<text text-anchor="middle" x="37.5" y="-321" font-family="Arial" font-size="10.00">builtins</text>
</g>
<g id="clust2" class="cluster">
<title>cluster_supriya.synthdefs.bases</title>
<path fill="transparent" stroke="#bcd2ee" stroke-width="2" stroke-dasharray="5,2" d="M384,-245C384,-245 530.79,-245 530.79,-245 536.79,-245 542.79,-251 542.79,-257 542.79,-257 542.79,-342 542.79,-342 542.79,-348 536.79,-354 530.79,-354 530.79,-354 384,-354 384,-354 378,-354 372,-348 372,-342 372,-342 372,-257 372,-257 372,-251 378,-245 384,-245"/>
<text text-anchor="middle" x="457.4" y="-342" font-family="Arial" font-size="10.00">supriya.synthdefs.bases</text>
</g>
<g id="clust3" class="cluster">
<title>cluster_supriya.synthdefs.mixins</title>
<path fill="transparent" stroke="#bcd2ee" stroke-width="2" stroke-dasharray="5,2" d="M239,-227C239,-227 340,-227 340,-227 346,-227 352,-233 352,-239 352,-239 352,-292 352,-292 352,-298 346,-304 340,-304 340,-304 239,-304 239,-304 233,-304 227,-298 227,-292 227,-292 227,-239 227,-239 227,-233 233,-227 239,-227"/>
<text text-anchor="middle" x="289.5" y="-292" font-family="Arial" font-size="10.00">supriya.synthdefs.mixins</text>
</g>
<g id="clust4" class="cluster">
<title>cluster_supriya.system</title>
<path fill="transparent" stroke="#bcd2ee" stroke-width="2" stroke-dasharray="5,2" d="M136,-236C136,-236 195,-236 195,-236 201,-236 207,-242 207,-248 207,-248 207,-289 207,-289 207,-295 201,-301 195,-301 195,-301 136,-301 136,-301 130,-301 124,-295 124,-289 124,-289 124,-248 124,-248 124,-242 130,-236 136,-236"/>
<text text-anchor="middle" x="165.5" y="-289" font-family="Arial" font-size="10.00">supriya.system</text>
</g>
<g id="clust5" class="cluster">
<title>cluster_supriya.ugens.inout</title>
<path fill="transparent" stroke="#bcd2ee" stroke-width="2" stroke-dasharray="5,2" d="M611.79,-8C611.79,-8 688.79,-8 688.79,-8 694.79,-8 700.79,-14 700.79,-20 700.79,-20 700.79,-415 700.79,-415 700.79,-421 694.79,-427 688.79,-427 688.79,-427 611.79,-427 611.79,-427 605.79,-427 599.79,-421 599.79,-415 599.79,-415 599.79,-20 599.79,-20 599.79,-14 605.79,-8 611.79,-8"/>
<text text-anchor="middle" x="650.29" y="-415" font-family="Arial" font-size="10.00">supriya.ugens.inout</text>
</g>
<!-- builtins.object&#45;&gt;supriya.synthdefs.bases.PseudoUGen -->
<g id="edge2" class="edge">
<title>builtins.object&#45;&gt;supriya.synthdefs.bases.PseudoUGen</title>
<path fill="none" stroke="lightslategrey" d="M59.19,-298.62C76.49,-300.71 101.81,-303.51 124,-305 214.23,-311.05 320.85,-312.03 374.38,-312.09"/>
<polygon fill="lightslategrey" stroke="lightslategrey" points="374.67,-315.59 384.67,-312.1 374.67,-308.59 374.67,-315.59"/>
</g>
<!-- builtins.object&#45;&gt;supriya.system.SupriyaObject -->
<g id="edge3" class="edge">
<title>builtins.object&#45;&gt;supriya.system.SupriyaObject</title>
<path fill="none" stroke="lightslategrey" d="M59.22,-289.89C78.42,-284.23 107.34,-275.71 129.93,-269.04"/>
<polygon fill="lightslategrey" stroke="lightslategrey" points="131.2,-272.32 139.81,-266.13 129.23,-265.6 131.2,-272.32"/>
</g>
<!-- supriya.synthdefs.bases.MultiOutUGen&#45;&gt;supriya.ugens.inout.In -->
<g id="edge4" class="edge">
<title>supriya.synthdefs.bases.MultiOutUGen&#45;&gt;supriya.ugens.inout.In</title>
<path fill="none" stroke="lightslategrey" d="M527.5,-317.68C545.69,-333.64 573.04,-355.89 599.79,-371 608.55,-375.95 618.85,-380.13 627.78,-383.3"/>
<polygon fill="lightslategrey" stroke="lightslategrey" points="626.86,-386.69 637.46,-386.55 629.09,-380.05 626.86,-386.69"/>
</g>
<!-- supriya.synthdefs.bases.MultiOutUGen&#45;&gt;supriya.ugens.inout.InFeedback -->
<g id="edge5" class="edge">
<title>supriya.synthdefs.bases.MultiOutUGen&#45;&gt;supriya.ugens.inout.InFeedback</title>
<path fill="none" stroke="lightslategrey" d="M533.37,-307.33C555.33,-314.85 586.48,-325.51 610.96,-333.88"/>
<polygon fill="lightslategrey" stroke="lightslategrey" points="610.06,-337.27 620.65,-337.2 612.32,-330.65 610.06,-337.27"/>
</g>
<!-- supriya.synthdefs.bases.MultiOutUGen&#45;&gt;supriya.ugens.inout.LocalIn -->
<g id="edge6" class="edge">
<title>supriya.synthdefs.bases.MultiOutUGen&#45;&gt;supriya.ugens.inout.LocalIn</title>
<path fill="none" stroke="lightslategrey" d="M535.07,-298.2C559.71,-298.37 594.92,-298.62 619.72,-298.79"/>
<polygon fill="lightslategrey" stroke="lightslategrey" points="619.95,-302.3 629.98,-298.87 620,-295.3 619.95,-302.3"/>
</g>
<!-- supriya.synthdefs.bases.PseudoUGen&#45;&gt;supriya.ugens.inout.SoundIn -->
<g id="edge7" class="edge">
<title>supriya.synthdefs.bases.PseudoUGen&#45;&gt;supriya.ugens.inout.SoundIn</title>
<path fill="none" stroke="lightslategrey" d="M429.02,-296.81C447.17,-281.84 472.65,-261.05 475.4,-260 522.5,-242.04 582.02,-243.66 617.8,-246.97"/>
<polygon fill="lightslategrey" stroke="lightslategrey" points="617.79,-250.49 628.1,-248.03 618.51,-243.52 617.79,-250.49"/>
</g>
<!-- supriya.synthdefs.bases.UGen&#45;&gt;supriya.synthdefs.bases.MultiOutUGen -->
<g id="edge1" class="edge">
<title>supriya.synthdefs.bases.UGen&#45;&gt;supriya.synthdefs.bases.MultiOutUGen</title>
<path fill="none" stroke="lightslategrey" d="M433.79,-273.91C443.81,-277.35 455.81,-281.46 467.03,-285.3"/>
<polygon fill="lightslategrey" stroke="lightslategrey" points="466.03,-288.66 476.63,-288.59 468.3,-282.04 466.03,-288.66"/>
</g>
<!-- supriya.synthdefs.bases.UGen&#45;&gt;supriya.ugens.inout.LocalOut -->
<g id="edge8" class="edge">
<title>supriya.synthdefs.bases.UGen&#45;&gt;supriya.ugens.inout.LocalOut</title>
<path fill="none" stroke="lightslategrey" d="M412.31,-252.41C416.68,-221.28 431.57,-144.1 475.4,-100 515.48,-59.68 582.05,-42.24 620.15,-35.24"/>
<polygon fill="lightslategrey" stroke="lightslategrey" points="620.83,-38.67 630.09,-33.53 619.64,-31.77 620.83,-38.67"/>
</g>
<!-- supriya.synthdefs.bases.UGen&#45;&gt;supriya.ugens.inout.OffsetOut -->
<g id="edge9" class="edge">
<title>supriya.synthdefs.bases.UGen&#45;&gt;supriya.ugens.inout.OffsetOut</title>
<path fill="none" stroke="lightslategrey" d="M432.31,-257.15C444.77,-252.26 460.81,-246.32 475.4,-242 524.87,-227.35 583.67,-215.24 618.66,-208.57"/>
<polygon fill="lightslategrey" stroke="lightslategrey" points="619.54,-211.97 628.72,-206.68 618.24,-205.09 619.54,-211.97"/>
</g>
<!-- supriya.synthdefs.bases.UGen&#45;&gt;supriya.ugens.inout.Out -->
<g id="edge10" class="edge">
<title>supriya.synthdefs.bases.UGen&#45;&gt;supriya.ugens.inout.Out</title>
<path fill="none" stroke="lightslategrey" d="M424.83,-254.14C437.45,-244 456.77,-229.58 475.4,-220 525.84,-194.05 590,-175.22 624.56,-166.13"/>
<polygon fill="lightslategrey" stroke="lightslategrey" points="625.48,-169.51 634.29,-163.62 623.73,-162.73 625.48,-169.51"/>
</g>
<!-- supriya.synthdefs.bases.UGen&#45;&gt;supriya.ugens.inout.ReplaceOut -->
<g id="edge11" class="edge">
<title>supriya.synthdefs.bases.UGen&#45;&gt;supriya.ugens.inout.ReplaceOut</title>
<path fill="none" stroke="lightslategrey" d="M418.34,-253.09C429.1,-235.89 450.25,-205.47 475.4,-187 518.07,-155.65 576.74,-135.87 613.84,-125.62"/>
<polygon fill="lightslategrey" stroke="lightslategrey" points="614.95,-128.95 623.7,-122.98 613.14,-122.19 614.95,-128.95"/>
</g>
<!-- supriya.synthdefs.bases.UGen&#45;&gt;supriya.ugens.inout.XOut -->
<g id="edge12" class="edge">
<title>supriya.synthdefs.bases.UGen&#45;&gt;supriya.ugens.inout.XOut</title>
<path fill="none" stroke="lightslategrey" d="M414.63,-252.61C422.42,-228.27 442,-176.47 475.4,-146 517.47,-107.62 582.86,-88.12 620.32,-79.59"/>
<polygon fill="lightslategrey" stroke="lightslategrey" points="621.51,-82.91 630.54,-77.38 620.03,-76.07 621.51,-82.91"/>
</g>
<!-- supriya.synthdefs.mixins.UGenMethodMixin&#45;&gt;supriya.synthdefs.bases.UGen -->
<g id="edge13" class="edge">
<title>supriya.synthdefs.mixins.UGenMethodMixin&#45;&gt;supriya.synthdefs.bases.UGen</title>
<path fill="none" stroke="lightslategrey" d="M314.14,-258C330.09,-259.35 351.52,-261.16 369.94,-262.72"/>
<polygon fill="lightslategrey" stroke="lightslategrey" points="369.84,-266.22 380.1,-263.58 370.43,-259.25 369.84,-266.22"/>
</g>
<!-- supriya.system.SupriyaObject&#45;&gt;supriya.synthdefs.mixins.UGenMethodMixin -->
<g id="edge14" class="edge">
<title>supriya.system.SupriyaObject&#45;&gt;supriya.synthdefs.mixins.UGenMethodMixin</title>
<path fill="none" stroke="lightslategrey" d="M190.2,-258.41C208.61,-257.96 234.17,-257.33 254.61,-256.83"/>
<polygon fill="lightslategrey" stroke="lightslategrey" points="254.85,-260.33 264.77,-256.58 254.68,-253.33 254.85,-260.33"/>
</g>
<!-- builtins.object -->
<g id="node1" class="node">
<title>builtins.object</title>
<g id="a_node1"><a xlink:href="https://docs.python.org/3/library/functions.html#object" xlink:title="object" target="_top">
<path fill="#fbb4ae" stroke="#fbb4ae" stroke-width="2" d="M52.67,-305.5C52.67,-305.5 22.33,-305.5 22.33,-305.5 19.17,-305.5 16,-302.33 16,-299.17 16,-299.17 16,-292.83 16,-292.83 16,-289.67 19.17,-286.5 22.33,-286.5 22.33,-286.5 52.67,-286.5 52.67,-286.5 55.83,-286.5 59,-289.67 59,-292.83 59,-292.83 59,-299.17 59,-299.17 59,-302.33 55.83,-305.5 52.67,-305.5"/>
<text text-anchor="middle" x="37.5" y="-293.5" font-family="Arial" font-size="10.00">object</text>
</a>
</g>
</g>
<!-- supriya.synthdefs.bases.MultiOutUGen -->
<g id="node2" class="node">
<title>supriya.synthdefs.bases.MultiOutUGen</title>
<g id="a_node2"><a xlink:href="../api/supriya/ugens/../synthdefs/bases.html#supriya.synthdefs.bases.MultiOutUGen" xlink:title="Multi\nOut\nUGen" target="_top">
<ellipse fill="none" stroke="#b3cde3" stroke-width="2" cx="505.1" cy="-298" rx="29.9" ry="28.98"/>
<text text-anchor="middle" x="505.1" y="-306.5" font-family="Arial" font-size="10.00">Multi</text>
<text text-anchor="middle" x="505.1" y="-295.5" font-family="Arial" font-size="10.00">Out</text>
<text text-anchor="middle" x="505.1" y="-284.5" font-family="Arial" font-size="10.00">UGen</text>
</a>
</g>
</g>
<!-- supriya.synthdefs.bases.PseudoUGen -->
<g id="node3" class="node">
<title>supriya.synthdefs.bases.PseudoUGen</title>
<g id="a_node3"><a xlink:href="../api/supriya/ugens/../synthdefs/bases.html#supriya.synthdefs.bases.PseudoUGen" xlink:title="Pseudo\nUGen" target="_top">
<path fill="#b3cde3" stroke="#b3cde3" stroke-width="2" d="M424.7,-327C424.7,-327 394.7,-327 394.7,-327 389.7,-327 384.7,-322 384.7,-317 384.7,-317 384.7,-307 384.7,-307 384.7,-302 389.7,-297 394.7,-297 394.7,-297 424.7,-297 424.7,-297 429.7,-297 434.7,-302 434.7,-307 434.7,-307 434.7,-317 434.7,-317 434.7,-322 429.7,-327 424.7,-327"/>
<text text-anchor="middle" x="409.7" y="-315" font-family="Arial" font-size="10.00">Pseudo</text>
<text text-anchor="middle" x="409.7" y="-304" font-family="Arial" font-size="10.00">UGen</text>
</a>
</g>
</g>
<!-- supriya.synthdefs.bases.UGen -->
<g id="node4" class="node">
<title>supriya.synthdefs.bases.UGen</title>
<g id="a_node4"><a xlink:href="../api/supriya/ugens/../synthdefs/bases.html#supriya.synthdefs.bases.UGen" xlink:title="UGen" target="_top">
<ellipse fill="none" stroke="#b3cde3" stroke-width="2" cx="409.7" cy="-266" rx="29.9" ry="13.37"/>
<text text-anchor="middle" x="409.7" y="-263.5" font-family="Arial" font-size="10.00">UGen</text>
</a>
</g>
</g>
<!-- supriya.synthdefs.mixins.UGenMethodMixin -->
<g id="node5" class="node">
<title>supriya.synthdefs.mixins.UGenMethodMixin</title>
<g id="a_node5"><a xlink:href="../api/supriya/ugens/../synthdefs/mixins.html#supriya.synthdefs.mixins.UGenMethodMixin" xlink:title="UGen\nMethod\nMixin" target="_top">
<path fill="#ccebc5" stroke="#ccebc5" stroke-width="2" d="M302,-276.5C302,-276.5 277,-276.5 277,-276.5 271,-276.5 265,-270.5 265,-264.5 265,-264.5 265,-247.5 265,-247.5 265,-241.5 271,-235.5 277,-235.5 277,-235.5 302,-235.5 302,-235.5 308,-235.5 314,-241.5 314,-247.5 314,-247.5 314,-264.5 314,-264.5 314,-270.5 308,-276.5 302,-276.5"/>
<text text-anchor="middle" x="289.5" y="-264.5" font-family="Arial" font-size="10.00">UGen</text>
<text text-anchor="middle" x="289.5" y="-253.5" font-family="Arial" font-size="10.00">Method</text>
<text text-anchor="middle" x="289.5" y="-242.5" font-family="Arial" font-size="10.00">Mixin</text>
</a>
</g>
</g>
<!-- supriya.system.SupriyaObject -->
<g id="node6" class="node">
<title>supriya.system.SupriyaObject</title>
<g id="a_node6"><a xlink:href="../api/supriya/ugens/../system.html#supriya.system.SupriyaObject" xlink:title="Supriya\nObject" target="_top">
<path fill="#decbe4" stroke="#decbe4" stroke-width="2" d="M180,-274C180,-274 150,-274 150,-274 145,-274 140,-269 140,-264 140,-264 140,-254 140,-254 140,-249 145,-244 150,-244 150,-244 180,-244 180,-244 185,-244 190,-249 190,-254 190,-254 190,-264 190,-264 190,-269 185,-274 180,-274"/>
<text text-anchor="middle" x="165" y="-262" font-family="Arial" font-size="10.00">Supriya</text>
<text text-anchor="middle" x="165" y="-251" font-family="Arial" font-size="10.00">Object</text>
</a>
</g>
</g>
<!-- supriya.ugens.inout.In -->
<g id="node7" class="node">
<title>supriya.ugens.inout.In</title>
<g id="a_node7"><a xlink:href="../api/supriya/ugens/inout.html#supriya.ugens.inout.In" xlink:title="In" target="_top">
<path fill="black" stroke="black" stroke-width="2" d="M656.46,-399.5C656.46,-399.5 644.13,-399.5 644.13,-399.5 640.96,-399.5 637.79,-396.33 637.79,-393.17 637.79,-393.17 637.79,-386.83 637.79,-386.83 637.79,-383.67 640.96,-380.5 644.13,-380.5 644.13,-380.5 656.46,-380.5 656.46,-380.5 659.63,-380.5 662.79,-383.67 662.79,-386.83 662.79,-386.83 662.79,-393.17 662.79,-393.17 662.79,-396.33 659.63,-399.5 656.46,-399.5"/>
<text text-anchor="middle" x="650.29" y="-387.5" font-family="Arial" font-size="10.00" fill="white">In</text>
</a>
</g>
</g>
<!-- supriya.ugens.inout.InFeedback -->
<g id="node8" class="node">
<title>supriya.ugens.inout.InFeedback</title>
<g id="a_node8"><a xlink:href="../api/supriya/ugens/inout.html#supriya.ugens.inout.InFeedback" xlink:title="In\nFeedback" target="_top">
<path fill="black" stroke="black" stroke-width="2" d="M669.79,-362C669.79,-362 630.79,-362 630.79,-362 625.79,-362 620.79,-357 620.79,-352 620.79,-352 620.79,-342 620.79,-342 620.79,-337 625.79,-332 630.79,-332 630.79,-332 669.79,-332 669.79,-332 674.79,-332 679.79,-337 679.79,-342 679.79,-342 679.79,-352 679.79,-352 679.79,-357 674.79,-362 669.79,-362"/>
<text text-anchor="middle" x="650.29" y="-350" font-family="Arial" font-size="10.00" fill="white">In</text>
<text text-anchor="middle" x="650.29" y="-339" font-family="Arial" font-size="10.00" fill="white">Feedback</text>
</a>
</g>
</g>
<!-- supriya.ugens.inout.LocalIn -->
<g id="node9" class="node">
<title>supriya.ugens.inout.LocalIn</title>
<g id="a_node9"><a xlink:href="../api/supriya/ugens/inout.html#supriya.ugens.inout.LocalIn" xlink:title="Local\nIn" target="_top">
<path fill="black" stroke="black" stroke-width="2" d="M660.29,-314C660.29,-314 640.29,-314 640.29,-314 635.29,-314 630.29,-309 630.29,-304 630.29,-304 630.29,-294 630.29,-294 630.29,-289 635.29,-284 640.29,-284 640.29,-284 660.29,-284 660.29,-284 665.29,-284 670.29,-289 670.29,-294 670.29,-294 670.29,-304 670.29,-304 670.29,-309 665.29,-314 660.29,-314"/>
<text text-anchor="middle" x="650.29" y="-302" font-family="Arial" font-size="10.00" fill="white">Local</text>
<text text-anchor="middle" x="650.29" y="-291" font-family="Arial" font-size="10.00" fill="white">In</text>
</a>
</g>
</g>
<!-- supriya.ugens.inout.LocalOut -->
<g id="node10" class="node">
<title>supriya.ugens.inout.LocalOut</title>
<g id="a_node10"><a xlink:href="../api/supriya/ugens/inout.html#supriya.ugens.inout.LocalOut" xlink:title="Local\nOut" target="_top">
<path fill="black" stroke="black" stroke-width="2" d="M660.29,-46C660.29,-46 640.29,-46 640.29,-46 635.29,-46 630.29,-41 630.29,-36 630.29,-36 630.29,-26 630.29,-26 630.29,-21 635.29,-16 640.29,-16 640.29,-16 660.29,-16 660.29,-16 665.29,-16 670.29,-21 670.29,-26 670.29,-26 670.29,-36 670.29,-36 670.29,-41 665.29,-46 660.29,-46"/>
<text text-anchor="middle" x="650.29" y="-34" font-family="Arial" font-size="10.00" fill="white">Local</text>
<text text-anchor="middle" x="650.29" y="-23" font-family="Arial" font-size="10.00" fill="white">Out</text>
</a>
</g>
</g>
<!-- supriya.ugens.inout.OffsetOut -->
<g id="node11" class="node">
<title>supriya.ugens.inout.OffsetOut</title>
<g id="a_node11"><a xlink:href="../api/supriya/ugens/inout.html#supriya.ugens.inout.OffsetOut" xlink:title="Offset\nOut" target="_top">
<path fill="black" stroke="black" stroke-width="2" d="M661.79,-218C661.79,-218 638.79,-218 638.79,-218 633.79,-218 628.79,-213 628.79,-208 628.79,-208 628.79,-198 628.79,-198 628.79,-193 633.79,-188 638.79,-188 638.79,-188 661.79,-188 661.79,-188 666.79,-188 671.79,-193 671.79,-198 671.79,-198 671.79,-208 671.79,-208 671.79,-213 666.79,-218 661.79,-218"/>
<text text-anchor="middle" x="650.29" y="-206" font-family="Arial" font-size="10.00" fill="white">Offset</text>
<text text-anchor="middle" x="650.29" y="-195" font-family="Arial" font-size="10.00" fill="white">Out</text>
</a>
</g>
</g>
<!-- supriya.ugens.inout.Out -->
<g id="node12" class="node">
<title>supriya.ugens.inout.Out</title>
<g id="a_node12"><a xlink:href="../api/supriya/ugens/inout.html#supriya.ugens.inout.Out" xlink:title="Out" target="_top">
<path fill="black" stroke="black" stroke-width="2" d="M659.96,-169.5C659.96,-169.5 640.63,-169.5 640.63,-169.5 637.46,-169.5 634.29,-166.33 634.29,-163.17 634.29,-163.17 634.29,-156.83 634.29,-156.83 634.29,-153.67 637.46,-150.5 640.63,-150.5 640.63,-150.5 659.96,-150.5 659.96,-150.5 663.13,-150.5 666.29,-153.67 666.29,-156.83 666.29,-156.83 666.29,-163.17 666.29,-163.17 666.29,-166.33 663.13,-169.5 659.96,-169.5"/>
<text text-anchor="middle" x="650.29" y="-157.5" font-family="Arial" font-size="10.00" fill="white">Out</text>
</a>
</g>
</g>
<!-- supriya.ugens.inout.ReplaceOut -->
<g id="node13" class="node">
<title>supriya.ugens.inout.ReplaceOut</title>
<g id="a_node13"><a xlink:href="../api/supriya/ugens/inout.html#supriya.ugens.inout.ReplaceOut" xlink:title="Replace\nOut" target="_top">
<path fill="black" stroke="black" stroke-width="2" d="M666.79,-132C666.79,-132 633.79,-132 633.79,-132 628.79,-132 623.79,-127 623.79,-122 623.79,-122 623.79,-112 623.79,-112 623.79,-107 628.79,-102 633.79,-102 633.79,-102 666.79,-102 666.79,-102 671.79,-102 676.79,-107 676.79,-112 676.79,-112 676.79,-122 676.79,-122 676.79,-127 671.79,-132 666.79,-132"/>
<text text-anchor="middle" x="650.29" y="-120" font-family="Arial" font-size="10.00" fill="white">Replace</text>
<text text-anchor="middle" x="650.29" y="-109" font-family="Arial" font-size="10.00" fill="white">Out</text>
</a>
</g>
</g>
<!-- supriya.ugens.inout.SoundIn -->
<g id="node14" class="node">
<title>supriya.ugens.inout.SoundIn</title>
<g id="a_node14"><a xlink:href="../api/supriya/ugens/inout.html#supriya.ugens.inout.SoundIn" xlink:title="Sound\nIn" target="_top">
<path fill="black" stroke="black" stroke-width="2" d="M662.29,-266C662.29,-266 638.29,-266 638.29,-266 633.29,-266 628.29,-261 628.29,-256 628.29,-256 628.29,-246 628.29,-246 628.29,-241 633.29,-236 638.29,-236 638.29,-236 662.29,-236 662.29,-236 667.29,-236 672.29,-241 672.29,-246 672.29,-246 672.29,-256 672.29,-256 672.29,-261 667.29,-266 662.29,-266"/>
<text text-anchor="middle" x="650.29" y="-254" font-family="Arial" font-size="10.00" fill="white">Sound</text>
<text text-anchor="middle" x="650.29" y="-243" font-family="Arial" font-size="10.00" fill="white">In</text>
</a>
</g>
</g>
<!-- supriya.ugens.inout.XOut -->
<g id="node15" class="node">
<title>supriya.ugens.inout.XOut</title>
<g id="a_node15"><a xlink:href="../api/supriya/ugens/inout.html#supriya.ugens.inout.XOut" xlink:title="XOut" target="_top">
<path fill="black" stroke="black" stroke-width="2" d="M663.46,-83.5C663.46,-83.5 637.13,-83.5 637.13,-83.5 633.96,-83.5 630.79,-80.33 630.79,-77.17 630.79,-77.17 630.79,-70.83 630.79,-70.83 630.79,-67.67 633.96,-64.5 637.13,-64.5 637.13,-64.5 663.46,-64.5 663.46,-64.5 666.63,-64.5 669.79,-67.67 669.79,-70.83 669.79,-70.83 669.79,-77.17 669.79,-77.17 669.79,-80.33 666.63,-83.5 663.46,-83.5"/>
<text text-anchor="middle" x="650.29" y="-71.5" font-family="Arial" font-size="10.00" fill="white">XOut</text>
</a>
</g>
</g>
</g>
</svg>
