<?xml version="1.0" encoding="UTF-8" standalone="no"?>
<!DOCTYPE svg PUBLIC "-//W3C//DTD SVG 1.1//EN"
 "http://www.w3.org/Graphics/SVG/1.1/DTD/svg11.dtd">
<!-- Generated by graphviz version 2.44.1 (20200629.0846)
 -->
<!-- Title: InheritanceGraph Pages: 1 -->
<svg width="647pt" height="476pt"
 viewBox="0.00 0.00 647.40 476.00" xmlns="http://www.w3.org/2000/svg" xmlns:xlink="http://www.w3.org/1999/xlink">
<g id="graph0" class="graph" transform="scale(1 1) rotate(0) translate(4 472)">
<title>InheritanceGraph</title>
<g id="clust1" class="cluster">
<title>cluster_builtins</title>
<path fill="transparent" stroke="#bcd2ee" stroke-width="2" stroke-dasharray="5,2" d="M20,-217C20,-217 55,-217 55,-217 61,-217 67,-223 67,-229 67,-229 67,-260 67,-260 67,-266 61,-272 55,-272 55,-272 20,-272 20,-272 14,-272 8,-266 8,-260 8,-260 8,-229 8,-229 8,-223 14,-217 20,-217"/>
<text text-anchor="middle" x="37.5" y="-260" font-family="Arial" font-size="10.00">builtins</text>
</g>
<g id="clust2" class="cluster">
<title>cluster_supriya.synthdefs.bases</title>
<path fill="transparent" stroke="#bcd2ee" stroke-width="2" stroke-dasharray="5,2" d="M347,-214C347,-214 445.4,-214 445.4,-214 451.4,-214 457.4,-220 457.4,-226 457.4,-226 457.4,-263 457.4,-263 457.4,-269 451.4,-275 445.4,-275 445.4,-275 347,-275 347,-275 341,-275 335,-269 335,-263 335,-263 335,-226 335,-226 335,-220 341,-214 347,-214"/>
<text text-anchor="middle" x="396.2" y="-263" font-family="Arial" font-size="10.00">supriya.synthdefs.bases</text>
</g>
<g id="clust3" class="cluster">
<title>cluster_supriya.synthdefs.mixins</title>
<path fill="transparent" stroke="#bcd2ee" stroke-width="2" stroke-dasharray="5,2" d="M202,-206C202,-206 303,-206 303,-206 309,-206 315,-212 315,-218 315,-218 315,-271 315,-271 315,-277 309,-283 303,-283 303,-283 202,-283 202,-283 196,-283 190,-277 190,-271 190,-271 190,-218 190,-218 190,-212 196,-206 202,-206"/>
<text text-anchor="middle" x="252.5" y="-271" font-family="Arial" font-size="10.00">supriya.synthdefs.mixins</text>
</g>
<g id="clust4" class="cluster">
<title>cluster_supriya.system</title>
<path fill="transparent" stroke="#bcd2ee" stroke-width="2" stroke-dasharray="5,2" d="M99,-212C99,-212 158,-212 158,-212 164,-212 170,-218 170,-224 170,-224 170,-265 170,-265 170,-271 164,-277 158,-277 158,-277 99,-277 99,-277 93,-277 87,-271 87,-265 87,-265 87,-224 87,-224 87,-218 93,-212 99,-212"/>
<text text-anchor="middle" x="128.5" y="-265" font-family="Arial" font-size="10.00">supriya.system</text>
</g>
<g id="clust5" class="cluster">
<title>cluster_supriya.ugens.envelopes</title>
<path fill="transparent" stroke="#bcd2ee" stroke-width="2" stroke-dasharray="5,2" d="M526.4,-8C526.4,-8 627.4,-8 627.4,-8 633.4,-8 639.4,-14 639.4,-20 639.4,-20 639.4,-448 639.4,-448 639.4,-454 633.4,-460 627.4,-460 627.4,-460 526.4,-460 526.4,-460 520.4,-460 514.4,-454 514.4,-448 514.4,-448 514.4,-20 514.4,-20 514.4,-14 520.4,-8 526.4,-8"/>
<text text-anchor="middle" x="576.9" y="-448" font-family="Arial" font-size="10.00">supriya.ugens.envelopes</text>
</g>
<!-- builtins.object&#45;&gt;supriya.system.SupriyaObject -->
<g id="edge1" class="edge">
<title>builtins.object&#45;&gt;supriya.system.SupriyaObject</title>
<path fill="none" stroke="lightslategrey" d="M59.03,-235C69.03,-235 81.34,-235 92.72,-235"/>
<polygon fill="lightslategrey" stroke="lightslategrey" points="92.82,-238.5 102.82,-235 92.82,-231.5 92.82,-238.5"/>
</g>
<!-- supriya.synthdefs.bases.UGen&#45;&gt;supriya.ugens.envelopes.Done -->
<g id="edge2" class="edge">
<title>supriya.synthdefs.bases.UGen&#45;&gt;supriya.ugens.envelopes.Done</title>
<path fill="none" stroke="lightslategrey" d="M402.21,-248.22C416.14,-279.97 455.84,-361.11 514.4,-404 523.75,-410.85 535.65,-415.28 546.44,-418.12"/>
<polygon fill="lightslategrey" stroke="lightslategrey" points="545.81,-421.56 556.33,-420.38 547.37,-414.74 545.81,-421.56"/>
</g>
<!-- supriya.synthdefs.bases.UGen&#45;&gt;supriya.ugens.envelopes.EnvGen -->
<g id="edge3" class="edge">
<title>supriya.synthdefs.bases.UGen&#45;&gt;supriya.ugens.envelopes.EnvGen</title>
<path fill="none" stroke="lightslategrey" d="M406.02,-247.69C424.32,-271.81 467.31,-324.67 514.4,-356 524.92,-363 537.78,-368.44 548.98,-372.36"/>
<polygon fill="lightslategrey" stroke="lightslategrey" points="548.09,-375.75 558.69,-375.53 550.27,-369.1 548.09,-375.75"/>
</g>
<!-- supriya.synthdefs.bases.UGen&#45;&gt;supriya.ugens.envelopes.Free -->
<g id="edge4" class="edge">
<title>supriya.synthdefs.bases.UGen&#45;&gt;supriya.ugens.envelopes.Free</title>
<path fill="none" stroke="lightslategrey" d="M410.29,-246.75C431.31,-264.41 473.58,-297.88 514.4,-318 525.1,-323.28 537.59,-327.48 548.46,-330.57"/>
<polygon fill="lightslategrey" stroke="lightslategrey" points="547.72,-333.99 558.29,-333.2 549.53,-327.23 547.72,-333.99"/>
</g>
<!-- supriya.synthdefs.bases.UGen&#45;&gt;supriya.ugens.envelopes.FreeSelf -->
<g id="edge5" class="edge">
<title>supriya.synthdefs.bases.UGen&#45;&gt;supriya.ugens.envelopes.FreeSelf</title>
<path fill="none" stroke="lightslategrey" d="M420.06,-242.71C453.13,-253.63 513.43,-273.54 548.38,-285.08"/>
<polygon fill="lightslategrey" stroke="lightslategrey" points="547.34,-288.42 557.94,-288.24 549.54,-281.78 547.34,-288.42"/>
</g>
<!-- supriya.synthdefs.bases.UGen&#45;&gt;supriya.ugens.envelopes.FreeSelfWhenDone -->
<g id="edge6" class="edge">
<title>supriya.synthdefs.bases.UGen&#45;&gt;supriya.ugens.envelopes.FreeSelfWhenDone</title>
<path fill="none" stroke="lightslategrey" d="M425.41,-235C458.26,-235 511.82,-235 545.25,-235"/>
<polygon fill="lightslategrey" stroke="lightslategrey" points="545.35,-238.5 555.35,-235 545.35,-231.5 545.35,-238.5"/>
</g>
<!-- supriya.synthdefs.bases.UGen&#45;&gt;supriya.ugens.envelopes.Linen -->
<g id="edge7" class="edge">
<title>supriya.synthdefs.bases.UGen&#45;&gt;supriya.ugens.envelopes.Linen</title>
<path fill="none" stroke="lightslategrey" d="M420.8,-227.72C453.49,-217.84 511.8,-200.22 546.71,-189.67"/>
<polygon fill="lightslategrey" stroke="lightslategrey" points="547.75,-193.01 556.31,-186.77 545.73,-186.31 547.75,-193.01"/>
</g>
<!-- supriya.synthdefs.bases.UGen&#45;&gt;supriya.ugens.envelopes.Pause -->
<g id="edge8" class="edge">
<title>supriya.synthdefs.bases.UGen&#45;&gt;supriya.ugens.envelopes.Pause</title>
<path fill="none" stroke="lightslategrey" d="M412.37,-223.66C434.3,-208.22 475.78,-180.5 514.4,-163 523.92,-158.68 534.7,-154.97 544.52,-152"/>
<polygon fill="lightslategrey" stroke="lightslategrey" points="545.67,-155.31 554.31,-149.18 543.74,-148.59 545.67,-155.31"/>
</g>
<!-- supriya.synthdefs.bases.UGen&#45;&gt;supriya.ugens.envelopes.PauseSelf -->
<g id="edge9" class="edge">
<title>supriya.synthdefs.bases.UGen&#45;&gt;supriya.ugens.envelopes.PauseSelf</title>
<path fill="none" stroke="lightslategrey" d="M407.55,-222.33C427.02,-200.23 470.03,-154.32 514.4,-126 523.66,-120.09 534.55,-115.1 544.55,-111.16"/>
<polygon fill="lightslategrey" stroke="lightslategrey" points="546.01,-114.36 554.16,-107.59 543.57,-107.8 546.01,-114.36"/>
</g>
<!-- supriya.synthdefs.bases.UGen&#45;&gt;supriya.ugens.envelopes.PauseSelfWhenDone -->
<g id="edge10" class="edge">
<title>supriya.synthdefs.bases.UGen&#45;&gt;supriya.ugens.envelopes.PauseSelfWhenDone</title>
<path fill="none" stroke="lightslategrey" d="M404.03,-221.71C420.6,-192.59 463.48,-122.18 514.4,-77 523.49,-68.93 534.73,-61.85 545.08,-56.2"/>
<polygon fill="lightslategrey" stroke="lightslategrey" points="546.99,-59.16 554.24,-51.43 543.75,-52.95 546.99,-59.16"/>
</g>
<!-- supriya.synthdefs.mixins.UGenMethodMixin&#45;&gt;supriya.synthdefs.bases.UGen -->
<g id="edge11" class="edge">
<title>supriya.synthdefs.mixins.UGenMethodMixin&#45;&gt;supriya.synthdefs.bases.UGen</title>
<path fill="none" stroke="lightslategrey" d="M277.13,-235C298.5,-235 330.36,-235 355.53,-235"/>
<polygon fill="lightslategrey" stroke="lightslategrey" points="355.86,-238.5 365.86,-235 355.86,-231.5 355.86,-238.5"/>
</g>
<!-- supriya.system.SupriyaObject&#45;&gt;supriya.synthdefs.mixins.UGenMethodMixin -->
<g id="edge12" class="edge">
<title>supriya.system.SupriyaObject&#45;&gt;supriya.synthdefs.mixins.UGenMethodMixin</title>
<path fill="none" stroke="lightslategrey" d="M153.2,-235C171.61,-235 197.17,-235 217.61,-235"/>
<polygon fill="lightslategrey" stroke="lightslategrey" points="217.77,-238.5 227.77,-235 217.77,-231.5 217.77,-238.5"/>
</g>
<!-- builtins.object -->
<g id="node1" class="node">
<title>builtins.object</title>
<g id="a_node1"><a xlink:href="https://docs.python.org/3/library/functions.html#object" xlink:title="object" target="_top">
<path fill="#fbb4ae" stroke="#fbb4ae" stroke-width="2" d="M52.67,-244.5C52.67,-244.5 22.33,-244.5 22.33,-244.5 19.17,-244.5 16,-241.33 16,-238.17 16,-238.17 16,-231.83 16,-231.83 16,-228.67 19.17,-225.5 22.33,-225.5 22.33,-225.5 52.67,-225.5 52.67,-225.5 55.83,-225.5 59,-228.67 59,-231.83 59,-231.83 59,-238.17 59,-238.17 59,-241.33 55.83,-244.5 52.67,-244.5"/>
<text text-anchor="middle" x="37.5" y="-232.5" font-family="Arial" font-size="10.00">object</text>
</a>
</g>
</g>
<!-- supriya.synthdefs.bases.UGen -->
<g id="node2" class="node">
<title>supriya.synthdefs.bases.UGen</title>
<g id="a_node2"><a xlink:href="../api/supriya/ugens/../synthdefs/bases.html#supriya.synthdefs.bases.UGen" xlink:title="UGen" target="_top">
<ellipse fill="none" stroke="#b3cde3" stroke-width="2" cx="395.7" cy="-235" rx="29.9" ry="13.37"/>
<text text-anchor="middle" x="395.7" y="-232.5" font-family="Arial" font-size="10.00">UGen</text>
</a>
</g>
</g>
<!-- supriya.synthdefs.mixins.UGenMethodMixin -->
<g id="node3" class="node">
<title>supriya.synthdefs.mixins.UGenMethodMixin</title>
<g id="a_node3"><a xlink:href="../api/supriya/ugens/../synthdefs/mixins.html#supriya.synthdefs.mixins.UGenMethodMixin" xlink:title="UGen\nMethod\nMixin" target="_top">
<path fill="#ccebc5" stroke="#ccebc5" stroke-width="2" d="M265,-255.5C265,-255.5 240,-255.5 240,-255.5 234,-255.5 228,-249.5 228,-243.5 228,-243.5 228,-226.5 228,-226.5 228,-220.5 234,-214.5 240,-214.5 240,-214.5 265,-214.5 265,-214.5 271,-214.5 277,-220.5 277,-226.5 277,-226.5 277,-243.5 277,-243.5 277,-249.5 271,-255.5 265,-255.5"/>
<text text-anchor="middle" x="252.5" y="-243.5" font-family="Arial" font-size="10.00">UGen</text>
<text text-anchor="middle" x="252.5" y="-232.5" font-family="Arial" font-size="10.00">Method</text>
<text text-anchor="middle" x="252.5" y="-221.5" font-family="Arial" font-size="10.00">Mixin</text>
</a>
</g>
</g>
<!-- supriya.system.SupriyaObject -->
<g id="node4" class="node">
<title>supriya.system.SupriyaObject</title>
<g id="a_node4"><a xlink:href="../api/supriya/ugens/../system.html#supriya.system.SupriyaObject" xlink:title="Supriya\nObject" target="_top">
<path fill="#decbe4" stroke="#decbe4" stroke-width="2" d="M143,-250C143,-250 113,-250 113,-250 108,-250 103,-245 103,-240 103,-240 103,-230 103,-230 103,-225 108,-220 113,-220 113,-220 143,-220 143,-220 148,-220 153,-225 153,-230 153,-230 153,-240 153,-240 153,-245 148,-250 143,-250"/>
<text text-anchor="middle" x="128" y="-238" font-family="Arial" font-size="10.00">Supriya</text>
<text text-anchor="middle" x="128" y="-227" font-family="Arial" font-size="10.00">Object</text>
</a>
</g>
</g>
<!-- supriya.ugens.envelopes.Done -->
<g id="node5" class="node">
<title>supriya.ugens.envelopes.Done</title>
<g id="a_node5"><a xlink:href="../api/supriya/ugens/envelopes.html#supriya.ugens.envelopes.Done" xlink:title="Done" target="_top">
<path fill="black" stroke="black" stroke-width="2" d="M590.06,-432.5C590.06,-432.5 562.73,-432.5 562.73,-432.5 559.56,-432.5 556.4,-429.33 556.4,-426.17 556.4,-426.17 556.4,-419.83 556.4,-419.83 556.4,-416.67 559.56,-413.5 562.73,-413.5 562.73,-413.5 590.06,-413.5 590.06,-413.5 593.23,-413.5 596.4,-416.67 596.4,-419.83 596.4,-419.83 596.4,-426.17 596.4,-426.17 596.4,-429.33 593.23,-432.5 590.06,-432.5"/>
<text text-anchor="middle" x="576.4" y="-420.5" font-family="Arial" font-size="10.00" fill="white">Done</text>
</a>
</g>
</g>
<!-- supriya.ugens.envelopes.EnvGen -->
<g id="node6" class="node">
<title>supriya.ugens.envelopes.EnvGen</title>
<g id="a_node6"><a xlink:href="../api/supriya/ugens/envelopes.html#supriya.ugens.envelopes.EnvGen" xlink:title="Env\nGen" target="_top">
<path fill="black" stroke="black" stroke-width="2" d="M583.9,-395C583.9,-395 568.9,-395 568.9,-395 563.9,-395 558.9,-390 558.9,-385 558.9,-385 558.9,-375 558.9,-375 558.9,-370 563.9,-365 568.9,-365 568.9,-365 583.9,-365 583.9,-365 588.9,-365 593.9,-370 593.9,-375 593.9,-375 593.9,-385 593.9,-385 593.9,-390 588.9,-395 583.9,-395"/>
<text text-anchor="middle" x="576.4" y="-383" font-family="Arial" font-size="10.00" fill="white">Env</text>
<text text-anchor="middle" x="576.4" y="-372" font-family="Arial" font-size="10.00" fill="white">Gen</text>
</a>
</g>
</g>
<!-- supriya.ugens.envelopes.Free -->
<g id="node7" class="node">
<title>supriya.ugens.envelopes.Free</title>
<g id="a_node7"><a xlink:href="../api/supriya/ugens/envelopes.html#supriya.ugens.envelopes.Free" xlink:title="Free" target="_top">
<path fill="black" stroke="black" stroke-width="2" d="M588.06,-346.5C588.06,-346.5 564.73,-346.5 564.73,-346.5 561.56,-346.5 558.4,-343.33 558.4,-340.17 558.4,-340.17 558.4,-333.83 558.4,-333.83 558.4,-330.67 561.56,-327.5 564.73,-327.5 564.73,-327.5 588.06,-327.5 588.06,-327.5 591.23,-327.5 594.4,-330.67 594.4,-333.83 594.4,-333.83 594.4,-340.17 594.4,-340.17 594.4,-343.33 591.23,-346.5 588.06,-346.5"/>
<text text-anchor="middle" x="576.4" y="-334.5" font-family="Arial" font-size="10.00" fill="white">Free</text>
</a>
</g>
</g>
<!-- supriya.ugens.envelopes.FreeSelf -->
<g id="node8" class="node">
<title>supriya.ugens.envelopes.FreeSelf</title>
<g id="a_node8"><a xlink:href="../api/supriya/ugens/envelopes.html#supriya.ugens.envelopes.FreeSelf" xlink:title="Free\nSelf" target="_top">
<path fill="black" stroke="black" stroke-width="2" d="M584.4,-309C584.4,-309 568.4,-309 568.4,-309 563.4,-309 558.4,-304 558.4,-299 558.4,-299 558.4,-289 558.4,-289 558.4,-284 563.4,-279 568.4,-279 568.4,-279 584.4,-279 584.4,-279 589.4,-279 594.4,-284 594.4,-289 594.4,-289 594.4,-299 594.4,-299 594.4,-304 589.4,-309 584.4,-309"/>
<text text-anchor="middle" x="576.4" y="-297" font-family="Arial" font-size="10.00" fill="white">Free</text>
<text text-anchor="middle" x="576.4" y="-286" font-family="Arial" font-size="10.00" fill="white">Self</text>
</a>
</g>
</g>
<!-- supriya.ugens.envelopes.FreeSelfWhenDone -->
<g id="node9" class="node">
<title>supriya.ugens.envelopes.FreeSelfWhenDone</title>
<g id="a_node9"><a xlink:href="../api/supriya/ugens/envelopes.html#supriya.ugens.envelopes.FreeSelfWhenDone" xlink:title="Free\nSelf\nWhen\nDone" target="_top">
<path fill="black" stroke="black" stroke-width="2" d="M585.4,-261C585.4,-261 567.4,-261 567.4,-261 561.4,-261 555.4,-255 555.4,-249 555.4,-249 555.4,-221 555.4,-221 555.4,-215 561.4,-209 567.4,-209 567.4,-209 585.4,-209 585.4,-209 591.4,-209 597.4,-215 597.4,-221 597.4,-221 597.4,-249 597.4,-249 597.4,-255 591.4,-261 585.4,-261"/>
<text text-anchor="middle" x="576.4" y="-249" font-family="Arial" font-size="10.00" fill="white">Free</text>
<text text-anchor="middle" x="576.4" y="-238" font-family="Arial" font-size="10.00" fill="white">Self</text>
<text text-anchor="middle" x="576.4" y="-227" font-family="Arial" font-size="10.00" fill="white">When</text>
<text text-anchor="middle" x="576.4" y="-216" font-family="Arial" font-size="10.00" fill="white">Done</text>
</a>
</g>
</g>
<!-- supriya.ugens.envelopes.Linen -->
<g id="node10" class="node">
<title>supriya.ugens.envelopes.Linen</title>
<g id="a_node10"><a xlink:href="../api/supriya/ugens/envelopes.html#supriya.ugens.envelopes.Linen" xlink:title="Linen" target="_top">
<path fill="black" stroke="black" stroke-width="2" d="M590.06,-190.5C590.06,-190.5 562.73,-190.5 562.73,-190.5 559.56,-190.5 556.4,-187.33 556.4,-184.17 556.4,-184.17 556.4,-177.83 556.4,-177.83 556.4,-174.67 559.56,-171.5 562.73,-171.5 562.73,-171.5 590.06,-171.5 590.06,-171.5 593.23,-171.5 596.4,-174.67 596.4,-177.83 596.4,-177.83 596.4,-184.17 596.4,-184.17 596.4,-187.33 593.23,-190.5 590.06,-190.5"/>
<text text-anchor="middle" x="576.4" y="-178.5" font-family="Arial" font-size="10.00" fill="white">Linen</text>
</a>
</g>
</g>
<!-- supriya.ugens.envelopes.Pause -->
<g id="node11" class="node">
<title>supriya.ugens.envelopes.Pause</title>
<g id="a_node11"><a xlink:href="../api/supriya/ugens/envelopes.html#supriya.ugens.envelopes.Pause" xlink:title="Pause" target="_top">
<path fill="black" stroke="black" stroke-width="2" d="M592.06,-153.5C592.06,-153.5 560.73,-153.5 560.73,-153.5 557.56,-153.5 554.4,-150.33 554.4,-147.17 554.4,-147.17 554.4,-140.83 554.4,-140.83 554.4,-137.67 557.56,-134.5 560.73,-134.5 560.73,-134.5 592.06,-134.5 592.06,-134.5 595.23,-134.5 598.4,-137.67 598.4,-140.83 598.4,-140.83 598.4,-147.17 598.4,-147.17 598.4,-150.33 595.23,-153.5 592.06,-153.5"/>
<text text-anchor="middle" x="576.4" y="-141.5" font-family="Arial" font-size="10.00" fill="white">Pause</text>
</a>
</g>
</g>
<!-- supriya.ugens.envelopes.PauseSelf -->
<g id="node12" class="node">
<title>supriya.ugens.envelopes.PauseSelf</title>
<g id="a_node12"><a xlink:href="../api/supriya/ugens/envelopes.html#supriya.ugens.envelopes.PauseSelf" xlink:title="Pause\nSelf" target="_top">
<path fill="black" stroke="black" stroke-width="2" d="M588.4,-116C588.4,-116 564.4,-116 564.4,-116 559.4,-116 554.4,-111 554.4,-106 554.4,-106 554.4,-96 554.4,-96 554.4,-91 559.4,-86 564.4,-86 564.4,-86 588.4,-86 588.4,-86 593.4,-86 598.4,-91 598.4,-96 598.4,-96 598.4,-106 598.4,-106 598.4,-111 593.4,-116 588.4,-116"/>
<text text-anchor="middle" x="576.4" y="-104" font-family="Arial" font-size="10.00" fill="white">Pause</text>
<text text-anchor="middle" x="576.4" y="-93" font-family="Arial" font-size="10.00" fill="white">Self</text>
</a>
</g>
</g>
<!-- supriya.ugens.envelopes.PauseSelfWhenDone -->
<g id="node13" class="node">
<title>supriya.ugens.envelopes.PauseSelfWhenDone</title>
<g id="a_node13"><a xlink:href="../api/supriya/ugens/envelopes.html#supriya.ugens.envelopes.PauseSelfWhenDone" xlink:title="Pause\nSelf\nWhen\nDone" target="_top">
<path fill="black" stroke="black" stroke-width="2" d="M586.4,-68C586.4,-68 566.4,-68 566.4,-68 560.4,-68 554.4,-62 554.4,-56 554.4,-56 554.4,-28 554.4,-28 554.4,-22 560.4,-16 566.4,-16 566.4,-16 586.4,-16 586.4,-16 592.4,-16 598.4,-22 598.4,-28 598.4,-28 598.4,-56 598.4,-56 598.4,-62 592.4,-68 586.4,-68"/>
<text text-anchor="middle" x="576.4" y="-56" font-family="Arial" font-size="10.00" fill="white">Pause</text>
<text text-anchor="middle" x="576.4" y="-45" font-family="Arial" font-size="10.00" fill="white">Self</text>
<text text-anchor="middle" x="576.4" y="-34" font-family="Arial" font-size="10.00" fill="white">When</text>
<text text-anchor="middle" x="576.4" y="-23" font-family="Arial" font-size="10.00" fill="white">Done</text>
</a>
</g>
</g>
</g>
</svg>
