<?xml version="1.0" encoding="UTF-8" standalone="no"?>
<!DOCTYPE svg PUBLIC "-//W3C//DTD SVG 1.1//EN"
 "http://www.w3.org/Graphics/SVG/1.1/DTD/svg11.dtd">
<!-- Generated by graphviz version 2.40.1 (20161225.0304)
 -->
<!-- Title: InheritanceGraph Pages: 1 -->
<svg width="489pt" height="280pt"
 viewBox="0.00 0.00 488.81 280.00" xmlns="http://www.w3.org/2000/svg" xmlns:xlink="http://www.w3.org/1999/xlink">
<g id="graph0" class="graph" transform="scale(1 1) rotate(0) translate(4 276)">
<title>InheritanceGraph</title>
<g id="clust1" class="cluster">
<title>cluster_supriya.system</title>
<path fill="transparent" stroke="#bcd2ee" stroke-width="2" stroke-dasharray="5,2" d="M93,-104C93,-104 136,-104 136,-104 142,-104 148,-110 148,-116 148,-116 148,-157 148,-157 148,-163 142,-169 136,-169 136,-169 93,-169 93,-169 87,-169 81,-163 81,-157 81,-157 81,-116 81,-116 81,-110 87,-104 93,-104"/>
<text text-anchor="middle" x="114.5" y="-157" font-family="Arial" font-size="10.00" fill="#000000">supriya.system</text>
</g>
<g id="clust2" class="cluster">
<title>cluster_builtins</title>
<path fill="transparent" stroke="#bcd2ee" stroke-width="2" stroke-dasharray="5,2" d="M20,-109C20,-109 49,-109 49,-109 55,-109 61,-115 61,-121 61,-121 61,-152 61,-152 61,-158 55,-164 49,-164 49,-164 20,-164 20,-164 14,-164 8,-158 8,-152 8,-152 8,-121 8,-121 8,-115 14,-109 20,-109"/>
<text text-anchor="middle" x="34.5" y="-152" font-family="Arial" font-size="10.00" fill="#000000">builtins</text>
</g>
<g id="clust3" class="cluster">
<title>cluster_supriya.nonrealtime</title>
<path fill="transparent" stroke="#bcd2ee" stroke-width="2" stroke-dasharray="5,2" d="M180,-8C180,-8 460.8112,-8 460.8112,-8 466.8112,-8 472.8112,-14 472.8112,-20 472.8112,-20 472.8112,-252 472.8112,-252 472.8112,-258 466.8112,-264 460.8112,-264 460.8112,-264 180,-264 180,-264 174,-264 168,-258 168,-252 168,-252 168,-20 168,-20 168,-14 174,-8 180,-8"/>
<text text-anchor="middle" x="320.4056" y="-252" font-family="Arial" font-size="10.00" fill="#000000">supriya.nonrealtime</text>
</g>
<!-- supriya.system.SupriyaObject.SupriyaObject&#45;&gt;supriya.nonrealtime.SessionObject.SessionObject -->
<g id="edge14" class="edge">
<title>supriya.system.SupriyaObject.SupriyaObject&#45;&gt;supriya.nonrealtime.SessionObject.SessionObject</title>
<path fill="none" stroke="#778899" d="M135.432,-127C144.4689,-127 155.301,-127 165.7491,-127"/>
<polygon fill="#778899" stroke="#778899" points="165.9886,-130.5001 175.9885,-127 165.9885,-123.5001 165.9886,-130.5001"/>
</g>
<!-- builtins.object&#45;&gt;supriya.system.SupriyaObject.SupriyaObject -->
<g id="edge13" class="edge">
<title>builtins.object&#45;&gt;supriya.system.SupriyaObject.SupriyaObject</title>
<path fill="none" stroke="#778899" d="M53.3404,-127C62.0401,-127 72.6079,-127 82.4698,-127"/>
<polygon fill="#778899" stroke="#778899" points="82.7722,-130.5001 92.7722,-127 82.7721,-123.5001 82.7722,-130.5001"/>
</g>
<!-- supriya.nonrealtime.BusGroup.BusGroup&#45;&gt;supriya.nonrealtime.AudioInputBusGroup.AudioInputBusGroup -->
<g id="edge1" class="edge">
<title>supriya.nonrealtime.BusGroup.BusGroup&#45;&gt;supriya.nonrealtime.AudioInputBusGroup.AudioInputBusGroup</title>
<path fill="none" stroke="#778899" d="M309.8297,-118.0433C318.8774,-113.6673 329.9535,-108.3103 339.9918,-103.4551"/>
<polygon fill="#778899" stroke="#778899" points="341.7197,-106.5074 349.1981,-99.0024 338.6718,-100.2057 341.7197,-106.5074"/>
</g>
<!-- supriya.nonrealtime.BusGroup.BusGroup&#45;&gt;supriya.nonrealtime.AudioOutputBusGroup.AudioOutputBusGroup -->
<g id="edge2" class="edge">
<title>supriya.nonrealtime.BusGroup.BusGroup&#45;&gt;supriya.nonrealtime.AudioOutputBusGroup.AudioOutputBusGroup</title>
<path fill="none" stroke="#778899" d="M309.8872,-126.7588C336.0786,-126.4186 384.1482,-125.7943 415.4064,-125.3884"/>
<polygon fill="#778899" stroke="#778899" points="415.7446,-128.8844 425.6983,-125.2547 415.6536,-121.885 415.7446,-128.8844"/>
</g>
<!-- supriya.nonrealtime.Group.Group&#45;&gt;supriya.nonrealtime.RootNode.RootNode -->
<g id="edge3" class="edge">
<title>supriya.nonrealtime.Group.Group&#45;&gt;supriya.nonrealtime.RootNode.RootNode</title>
<path fill="none" stroke="#778899" d="M386.5718,-196.8848C396.1136,-194.7917 407.8824,-192.2102 418.3737,-189.9089"/>
<polygon fill="#778899" stroke="#778899" points="419.2916,-193.2908 428.3095,-187.7294 417.7918,-186.4534 419.2916,-193.2908"/>
</g>
<!-- supriya.nonrealtime.Node.Node&#45;&gt;supriya.nonrealtime.Group.Group -->
<g id="edge4" class="edge">
<title>supriya.nonrealtime.Node.Node&#45;&gt;supriya.nonrealtime.Group.Group</title>
<path fill="none" stroke="#778899" d="M308.6702,-192.4961C317.635,-193.7851 328.8083,-195.3917 339.0215,-196.8603"/>
<polygon fill="#778899" stroke="#778899" points="338.7879,-200.3626 349.1843,-198.3216 339.7843,-193.4339 338.7879,-200.3626"/>
</g>
<!-- supriya.nonrealtime.Node.Node&#45;&gt;supriya.nonrealtime.Synth.Synth -->
<g id="edge5" class="edge">
<title>supriya.nonrealtime.Node.Node&#45;&gt;supriya.nonrealtime.Synth.Synth</title>
<path fill="none" stroke="#778899" d="M304.9123,-199.6765C315.5139,-206.6592 330.8932,-215.6016 345.8112,-220 369.1834,-226.891 396.9231,-228.3216 417.168,-228.2124"/>
<polygon fill="#778899" stroke="#778899" points="417.3541,-231.7097 427.2883,-228.0271 417.2259,-224.7109 417.3541,-231.7097"/>
</g>
<!-- supriya.nonrealtime.SessionObject.SessionObject&#45;&gt;supriya.nonrealtime.Buffer.Buffer -->
<g id="edge6" class="edge">
<title>supriya.nonrealtime.SessionObject.SessionObject&#45;&gt;supriya.nonrealtime.Buffer.Buffer</title>
<path fill="none" stroke="#778899" d="M221.9786,-108.475C237.5302,-89.9755 261.2572,-61.7509 276.5255,-43.5884"/>
<polygon fill="#778899" stroke="#778899" points="279.5127,-45.4741 283.2685,-35.5672 274.1545,-40.9697 279.5127,-45.4741"/>
</g>
<!-- supriya.nonrealtime.SessionObject.SessionObject&#45;&gt;supriya.nonrealtime.BufferGroup.BufferGroup -->
<g id="edge7" class="edge">
<title>supriya.nonrealtime.SessionObject.SessionObject&#45;&gt;supriya.nonrealtime.BufferGroup.BufferGroup</title>
<path fill="none" stroke="#778899" d="M222.3663,-108.9327C234.9635,-95.5769 253.5695,-77.7441 272.8112,-66 293.5406,-53.3479 319.567,-44.1576 339.1343,-38.3778"/>
<polygon fill="#778899" stroke="#778899" points="340.3195,-41.68 348.9903,-35.5916 338.4152,-34.9439 340.3195,-41.68"/>
</g>
<!-- supriya.nonrealtime.SessionObject.SessionObject&#45;&gt;supriya.nonrealtime.Bus.Bus -->
<g id="edge8" class="edge">
<title>supriya.nonrealtime.SessionObject.SessionObject&#45;&gt;supriya.nonrealtime.Bus.Bus</title>
<path fill="none" stroke="#778899" d="M231.4208,-114.3312C242.7709,-108.583 256.1337,-101.8154 267.3539,-96.133"/>
<polygon fill="#778899" stroke="#778899" points="269.2183,-99.1121 276.5581,-91.4716 266.0556,-92.8673 269.2183,-99.1121"/>
</g>
<!-- supriya.nonrealtime.SessionObject.SessionObject&#45;&gt;supriya.nonrealtime.BusGroup.BusGroup -->
<g id="edge9" class="edge">
<title>supriya.nonrealtime.SessionObject.SessionObject&#45;&gt;supriya.nonrealtime.BusGroup.BusGroup</title>
<path fill="none" stroke="#778899" d="M237.0585,-127C245.3814,-127 254.3617,-127 262.5746,-127"/>
<polygon fill="#778899" stroke="#778899" points="262.8094,-130.5001 272.8094,-127 262.8094,-123.5001 262.8094,-130.5001"/>
</g>
<!-- supriya.nonrealtime.SessionObject.SessionObject&#45;&gt;supriya.nonrealtime.Moment.Moment -->
<g id="edge10" class="edge">
<title>supriya.nonrealtime.SessionObject.SessionObject&#45;&gt;supriya.nonrealtime.Moment.Moment</title>
<path fill="none" stroke="#778899" d="M232.8273,-137.9998C244.846,-142.6242 259.3606,-147.6884 272.8112,-151 293.4456,-156.0803 317.1236,-159.3265 335.6789,-161.3045"/>
<polygon fill="#778899" stroke="#778899" points="335.3807,-164.7921 345.6787,-162.3017 336.0754,-157.8266 335.3807,-164.7921"/>
</g>
<!-- supriya.nonrealtime.SessionObject.SessionObject&#45;&gt;supriya.nonrealtime.Node.Node -->
<g id="edge11" class="edge">
<title>supriya.nonrealtime.SessionObject.SessionObject&#45;&gt;supriya.nonrealtime.Node.Node</title>
<path fill="none" stroke="#778899" d="M227.3935,-142.573C240.321,-152.1653 256.8522,-164.4314 269.8639,-174.0861"/>
<polygon fill="#778899" stroke="#778899" points="268.1057,-177.1398 278.2221,-180.2879 272.2769,-171.5183 268.1057,-177.1398"/>
</g>
<!-- supriya.nonrealtime.SessionObject.SessionObject&#45;&gt;supriya.nonrealtime.State.State -->
<g id="edge12" class="edge">
<title>supriya.nonrealtime.SessionObject.SessionObject&#45;&gt;supriya.nonrealtime.State.State</title>
<path fill="none" stroke="#778899" d="M220.8277,-146.0885C233.8856,-163.0535 253.9145,-188.3005 272.8112,-209 273.1284,-209.3475 273.4508,-209.6968 273.7772,-210.0471"/>
<polygon fill="#778899" stroke="#778899" points="271.4093,-212.6309 280.9164,-217.307 276.4004,-207.7228 271.4093,-212.6309"/>
</g>
<!-- supriya.system.SupriyaObject.SupriyaObject -->
<g id="node1" class="node">
<title>supriya.system.SupriyaObject.SupriyaObject</title>
<g id="a_node1"><a xlink:href="../api/supriya/nonrealtime/../system/SupriyaObject.html#supriya.system.SupriyaObject.SupriyaObject" xlink:title="Supriya\nObject" target="_top">
<path fill="#ccebc5" stroke="#ccebc5" stroke-width="2" d="M125,-142C125,-142 103,-142 103,-142 98,-142 93,-137 93,-132 93,-132 93,-122 93,-122 93,-117 98,-112 103,-112 103,-112 125,-112 125,-112 130,-112 135,-117 135,-122 135,-122 135,-132 135,-132 135,-137 130,-142 125,-142"/>
<text text-anchor="middle" x="114" y="-130" font-family="Arial" font-size="10.00" fill="#000000">Supriya</text>
<text text-anchor="middle" x="114" y="-119" font-family="Arial" font-size="10.00" fill="#000000">Object</text>
</a>
</g>
</g>
<!-- builtins.object -->
<g id="node2" class="node">
<title>builtins.object</title>
<g id="a_node2"><a xlink:href="https://docs.python.org/3.6/library/functions.html#object" xlink:title="object" target="_top">
<path fill="#fbb4ae" stroke="#fbb4ae" stroke-width="2" d="M46.6667,-136.5C46.6667,-136.5 22.3333,-136.5 22.3333,-136.5 19.1667,-136.5 16,-133.3333 16,-130.1667 16,-130.1667 16,-123.8333 16,-123.8333 16,-120.6667 19.1667,-117.5 22.3333,-117.5 22.3333,-117.5 46.6667,-117.5 46.6667,-117.5 49.8333,-117.5 53,-120.6667 53,-123.8333 53,-123.8333 53,-130.1667 53,-130.1667 53,-133.3333 49.8333,-136.5 46.6667,-136.5"/>
<text text-anchor="middle" x="34.5" y="-124.5" font-family="Arial" font-size="10.00" fill="#000000">object</text>
</a>
</g>
</g>
<!-- supriya.nonrealtime.AudioInputBusGroup.AudioInputBusGroup -->
<g id="node3" class="node">
<title>supriya.nonrealtime.AudioInputBusGroup.AudioInputBusGroup</title>
<g id="a_node3"><a xlink:href="../api/supriya/nonrealtime/AudioInputBusGroup.html#supriya.nonrealtime.AudioInputBusGroup.AudioInputBusGroup" xlink:title="Audio\nInput\nBus\nGroup" target="_top">
<path fill="#b3cde3" stroke="#b3cde3" stroke-width="2" d="M374.3112,-116C374.3112,-116 361.3112,-116 361.3112,-116 355.3112,-116 349.3112,-110 349.3112,-104 349.3112,-104 349.3112,-76 349.3112,-76 349.3112,-70 355.3112,-64 361.3112,-64 361.3112,-64 374.3112,-64 374.3112,-64 380.3112,-64 386.3112,-70 386.3112,-76 386.3112,-76 386.3112,-104 386.3112,-104 386.3112,-110 380.3112,-116 374.3112,-116"/>
<text text-anchor="middle" x="367.8112" y="-104" font-family="Arial" font-size="10.00" fill="#000000">Audio</text>
<text text-anchor="middle" x="367.8112" y="-93" font-family="Arial" font-size="10.00" fill="#000000">Input</text>
<text text-anchor="middle" x="367.8112" y="-82" font-family="Arial" font-size="10.00" fill="#000000">Bus</text>
<text text-anchor="middle" x="367.8112" y="-71" font-family="Arial" font-size="10.00" fill="#000000">Group</text>
</a>
</g>
</g>
<!-- supriya.nonrealtime.AudioOutputBusGroup.AudioOutputBusGroup -->
<g id="node4" class="node">
<title>supriya.nonrealtime.AudioOutputBusGroup.AudioOutputBusGroup</title>
<g id="a_node4"><a xlink:href="../api/supriya/nonrealtime/AudioOutputBusGroup.html#supriya.nonrealtime.AudioOutputBusGroup.AudioOutputBusGroup" xlink:title="Audio\nOutput\nBus\nGroup" target="_top">
<path fill="#b3cde3" stroke="#b3cde3" stroke-width="2" d="M452.8112,-151C452.8112,-151 437.8112,-151 437.8112,-151 431.8112,-151 425.8112,-145 425.8112,-139 425.8112,-139 425.8112,-111 425.8112,-111 425.8112,-105 431.8112,-99 437.8112,-99 437.8112,-99 452.8112,-99 452.8112,-99 458.8112,-99 464.8112,-105 464.8112,-111 464.8112,-111 464.8112,-139 464.8112,-139 464.8112,-145 458.8112,-151 452.8112,-151"/>
<text text-anchor="middle" x="445.3112" y="-139" font-family="Arial" font-size="10.00" fill="#000000">Audio</text>
<text text-anchor="middle" x="445.3112" y="-128" font-family="Arial" font-size="10.00" fill="#000000">Output</text>
<text text-anchor="middle" x="445.3112" y="-117" font-family="Arial" font-size="10.00" fill="#000000">Bus</text>
<text text-anchor="middle" x="445.3112" y="-106" font-family="Arial" font-size="10.00" fill="#000000">Group</text>
</a>
</g>
</g>
<!-- supriya.nonrealtime.Buffer.Buffer -->
<g id="node5" class="node">
<title>supriya.nonrealtime.Buffer.Buffer</title>
<g id="a_node5"><a xlink:href="../api/supriya/nonrealtime/Buffer.html#supriya.nonrealtime.Buffer.Buffer" xlink:title="Buffer" target="_top">
<path fill="#b3cde3" stroke="#b3cde3" stroke-width="2" d="M303.4778,-35.5C303.4778,-35.5 279.1445,-35.5 279.1445,-35.5 275.9778,-35.5 272.8112,-32.3333 272.8112,-29.1667 272.8112,-29.1667 272.8112,-22.8333 272.8112,-22.8333 272.8112,-19.6667 275.9778,-16.5 279.1445,-16.5 279.1445,-16.5 303.4778,-16.5 303.4778,-16.5 306.6445,-16.5 309.8112,-19.6667 309.8112,-22.8333 309.8112,-22.8333 309.8112,-29.1667 309.8112,-29.1667 309.8112,-32.3333 306.6445,-35.5 303.4778,-35.5"/>
<text text-anchor="middle" x="291.3112" y="-23.5" font-family="Arial" font-size="10.00" fill="#000000">Buffer</text>
</a>
</g>
</g>
<!-- supriya.nonrealtime.BufferGroup.BufferGroup -->
<g id="node6" class="node">
<title>supriya.nonrealtime.BufferGroup.BufferGroup</title>
<g id="a_node6"><a xlink:href="../api/supriya/nonrealtime/BufferGroup.html#supriya.nonrealtime.BufferGroup.BufferGroup" xlink:title="Buffer\nGroup" target="_top">
<path fill="#b3cde3" stroke="#b3cde3" stroke-width="2" d="M376.3112,-46C376.3112,-46 359.3112,-46 359.3112,-46 354.3112,-46 349.3112,-41 349.3112,-36 349.3112,-36 349.3112,-26 349.3112,-26 349.3112,-21 354.3112,-16 359.3112,-16 359.3112,-16 376.3112,-16 376.3112,-16 381.3112,-16 386.3112,-21 386.3112,-26 386.3112,-26 386.3112,-36 386.3112,-36 386.3112,-41 381.3112,-46 376.3112,-46"/>
<text text-anchor="middle" x="367.8112" y="-34" font-family="Arial" font-size="10.00" fill="#000000">Buffer</text>
<text text-anchor="middle" x="367.8112" y="-23" font-family="Arial" font-size="10.00" fill="#000000">Group</text>
</a>
</g>
</g>
<!-- supriya.nonrealtime.Bus.Bus -->
<g id="node7" class="node">
<title>supriya.nonrealtime.Bus.Bus</title>
<g id="a_node7"><a xlink:href="../api/supriya/nonrealtime/Bus.html#supriya.nonrealtime.Bus.Bus" xlink:title="Bus" target="_top">
<path fill="#b3cde3" stroke="#b3cde3" stroke-width="2" d="M299.4778,-93.5C299.4778,-93.5 283.1445,-93.5 283.1445,-93.5 279.9778,-93.5 276.8112,-90.3333 276.8112,-87.1667 276.8112,-87.1667 276.8112,-80.8333 276.8112,-80.8333 276.8112,-77.6667 279.9778,-74.5 283.1445,-74.5 283.1445,-74.5 299.4778,-74.5 299.4778,-74.5 302.6445,-74.5 305.8112,-77.6667 305.8112,-80.8333 305.8112,-80.8333 305.8112,-87.1667 305.8112,-87.1667 305.8112,-90.3333 302.6445,-93.5 299.4778,-93.5"/>
<text text-anchor="middle" x="291.3112" y="-81.5" font-family="Arial" font-size="10.00" fill="#000000">Bus</text>
</a>
</g>
</g>
<!-- supriya.nonrealtime.BusGroup.BusGroup -->
<g id="node8" class="node">
<title>supriya.nonrealtime.BusGroup.BusGroup</title>
<g id="a_node8"><a xlink:href="../api/supriya/nonrealtime/BusGroup.html#supriya.nonrealtime.BusGroup.BusGroup" xlink:title="Bus\nGroup" target="_top">
<path fill="#b3cde3" stroke="#b3cde3" stroke-width="2" d="M299.8112,-142C299.8112,-142 282.8112,-142 282.8112,-142 277.8112,-142 272.8112,-137 272.8112,-132 272.8112,-132 272.8112,-122 272.8112,-122 272.8112,-117 277.8112,-112 282.8112,-112 282.8112,-112 299.8112,-112 299.8112,-112 304.8112,-112 309.8112,-117 309.8112,-122 309.8112,-122 309.8112,-132 309.8112,-132 309.8112,-137 304.8112,-142 299.8112,-142"/>
<text text-anchor="middle" x="291.3112" y="-130" font-family="Arial" font-size="10.00" fill="#000000">Bus</text>
<text text-anchor="middle" x="291.3112" y="-119" font-family="Arial" font-size="10.00" fill="#000000">Group</text>
</a>
</g>
</g>
<!-- supriya.nonrealtime.Group.Group -->
<g id="node9" class="node">
<title>supriya.nonrealtime.Group.Group</title>
<g id="a_node9"><a xlink:href="../api/supriya/nonrealtime/Group.html#supriya.nonrealtime.Group.Group" xlink:title="Group" target="_top">
<path fill="#b3cde3" stroke="#b3cde3" stroke-width="2" d="M379.9778,-210.5C379.9778,-210.5 355.6445,-210.5 355.6445,-210.5 352.4778,-210.5 349.3112,-207.3333 349.3112,-204.1667 349.3112,-204.1667 349.3112,-197.8333 349.3112,-197.8333 349.3112,-194.6667 352.4778,-191.5 355.6445,-191.5 355.6445,-191.5 379.9778,-191.5 379.9778,-191.5 383.1445,-191.5 386.3112,-194.6667 386.3112,-197.8333 386.3112,-197.8333 386.3112,-204.1667 386.3112,-204.1667 386.3112,-207.3333 383.1445,-210.5 379.9778,-210.5"/>
<text text-anchor="middle" x="367.8112" y="-198.5" font-family="Arial" font-size="10.00" fill="#000000">Group</text>
</a>
</g>
</g>
<!-- supriya.nonrealtime.RootNode.RootNode -->
<g id="node10" class="node">
<title>supriya.nonrealtime.RootNode.RootNode</title>
<g id="a_node10"><a xlink:href="../api/supriya/nonrealtime/RootNode.html#supriya.nonrealtime.RootNode.RootNode" xlink:title="Root\nNode" target="_top">
<path fill="#b3cde3" stroke="#b3cde3" stroke-width="2" d="M452.3112,-199C452.3112,-199 438.3112,-199 438.3112,-199 433.3112,-199 428.3112,-194 428.3112,-189 428.3112,-189 428.3112,-179 428.3112,-179 428.3112,-174 433.3112,-169 438.3112,-169 438.3112,-169 452.3112,-169 452.3112,-169 457.3112,-169 462.3112,-174 462.3112,-179 462.3112,-179 462.3112,-189 462.3112,-189 462.3112,-194 457.3112,-199 452.3112,-199"/>
<text text-anchor="middle" x="445.3112" y="-187" font-family="Arial" font-size="10.00" fill="#000000">Root</text>
<text text-anchor="middle" x="445.3112" y="-176" font-family="Arial" font-size="10.00" fill="#000000">Node</text>
</a>
</g>
</g>
<!-- supriya.nonrealtime.Moment.Moment -->
<g id="node11" class="node">
<title>supriya.nonrealtime.Moment.Moment</title>
<g id="a_node11"><a xlink:href="../api/supriya/nonrealtime/Moment.html#supriya.nonrealtime.Moment.Moment" xlink:title="Moment" target="_top">
<path fill="#b3cde3" stroke="#b3cde3" stroke-width="2" d="M383.4778,-173.5C383.4778,-173.5 352.1445,-173.5 352.1445,-173.5 348.9778,-173.5 345.8112,-170.3333 345.8112,-167.1667 345.8112,-167.1667 345.8112,-160.8333 345.8112,-160.8333 345.8112,-157.6667 348.9778,-154.5 352.1445,-154.5 352.1445,-154.5 383.4778,-154.5 383.4778,-154.5 386.6445,-154.5 389.8112,-157.6667 389.8112,-160.8333 389.8112,-160.8333 389.8112,-167.1667 389.8112,-167.1667 389.8112,-170.3333 386.6445,-173.5 383.4778,-173.5"/>
<text text-anchor="middle" x="367.8112" y="-161.5" font-family="Arial" font-size="10.00" fill="#000000">Moment</text>
</a>
</g>
</g>
<!-- supriya.nonrealtime.Node.Node -->
<g id="node12" class="node">
<title>supriya.nonrealtime.Node.Node</title>
<g id="a_node12"><a xlink:href="../api/supriya/nonrealtime/Node.html#supriya.nonrealtime.Node.Node" xlink:title="Node" target="_top">
<path fill="#b3cde3" stroke="#b3cde3" stroke-width="2" d="M301.9778,-199.5C301.9778,-199.5 280.6445,-199.5 280.6445,-199.5 277.4778,-199.5 274.3112,-196.3333 274.3112,-193.1667 274.3112,-193.1667 274.3112,-186.8333 274.3112,-186.8333 274.3112,-183.6667 277.4778,-180.5 280.6445,-180.5 280.6445,-180.5 301.9778,-180.5 301.9778,-180.5 305.1445,-180.5 308.3112,-183.6667 308.3112,-186.8333 308.3112,-186.8333 308.3112,-193.1667 308.3112,-193.1667 308.3112,-196.3333 305.1445,-199.5 301.9778,-199.5"/>
<text text-anchor="middle" x="291.3112" y="-187.5" font-family="Arial" font-size="10.00" fill="#000000">Node</text>
</a>
</g>
</g>
<!-- supriya.nonrealtime.Synth.Synth -->
<g id="node13" class="node">
<title>supriya.nonrealtime.Synth.Synth</title>
<g id="a_node13"><a xlink:href="../api/supriya/nonrealtime/Synth.html#supriya.nonrealtime.Synth.Synth" xlink:title="Synth" target="_top">
<path fill="#b3cde3" stroke="#b3cde3" stroke-width="2" d="M456.9778,-236.5C456.9778,-236.5 433.6445,-236.5 433.6445,-236.5 430.4778,-236.5 427.3112,-233.3333 427.3112,-230.1667 427.3112,-230.1667 427.3112,-223.8333 427.3112,-223.8333 427.3112,-220.6667 430.4778,-217.5 433.6445,-217.5 433.6445,-217.5 456.9778,-217.5 456.9778,-217.5 460.1445,-217.5 463.3112,-220.6667 463.3112,-223.8333 463.3112,-223.8333 463.3112,-230.1667 463.3112,-230.1667 463.3112,-233.3333 460.1445,-236.5 456.9778,-236.5"/>
<text text-anchor="middle" x="445.3112" y="-224.5" font-family="Arial" font-size="10.00" fill="#000000">Synth</text>
</a>
</g>
</g>
<!-- supriya.nonrealtime.SessionObject.SessionObject -->
<g id="node14" class="node">
<title>supriya.nonrealtime.SessionObject.SessionObject</title>
<g id="a_node14"><a xlink:href="../api/supriya/nonrealtime/SessionObject.html#supriya.nonrealtime.SessionObject.SessionObject" xlink:title="Session\nObject" target="_top">
<ellipse fill="#000000" stroke="#000000" stroke-width="2" cx="206.4056" cy="-127" rx="30.3115" ry="21.4286"/>
<text text-anchor="middle" x="206.4056" y="-130" font-family="Arial" font-size="10.00" fill="#ffffff">Session</text>
<text text-anchor="middle" x="206.4056" y="-119" font-family="Arial" font-size="10.00" fill="#ffffff">Object</text>
</a>
</g>
</g>
<!-- supriya.nonrealtime.State.State -->
<g id="node15" class="node">
<title>supriya.nonrealtime.State.State</title>
<g id="a_node15"><a xlink:href="../api/supriya/nonrealtime/State.html#supriya.nonrealtime.State.State" xlink:title="State" target="_top">
<path fill="#b3cde3" stroke="#b3cde3" stroke-width="2" d="M301.9778,-236.5C301.9778,-236.5 280.6445,-236.5 280.6445,-236.5 277.4778,-236.5 274.3112,-233.3333 274.3112,-230.1667 274.3112,-230.1667 274.3112,-223.8333 274.3112,-223.8333 274.3112,-220.6667 277.4778,-217.5 280.6445,-217.5 280.6445,-217.5 301.9778,-217.5 301.9778,-217.5 305.1445,-217.5 308.3112,-220.6667 308.3112,-223.8333 308.3112,-223.8333 308.3112,-230.1667 308.3112,-230.1667 308.3112,-233.3333 305.1445,-236.5 301.9778,-236.5"/>
<text text-anchor="middle" x="291.3112" y="-224.5" font-family="Arial" font-size="10.00" fill="#000000">State</text>
</a>
</g>
</g>
</g>
</svg>
