<?xml version="1.0" encoding="UTF-8" standalone="no"?>
<!DOCTYPE svg PUBLIC "-//W3C//DTD SVG 1.1//EN"
 "http://www.w3.org/Graphics/SVG/1.1/DTD/svg11.dtd">
<!-- Generated by graphviz version 2.40.1 (20161225.0304)
 -->
<!-- Title: InheritanceGraph Pages: 1 -->
<svg width="482pt" height="101pt"
 viewBox="0.00 0.00 482.00 101.00" xmlns="http://www.w3.org/2000/svg" xmlns:xlink="http://www.w3.org/1999/xlink">
<g id="graph0" class="graph" transform="scale(1 1) rotate(0) translate(4 97)">
<title>InheritanceGraph</title>
<g id="clust1" class="cluster">
<title>cluster_builtins</title>
<path fill="transparent" stroke="#bcd2ee" stroke-width="2" stroke-dasharray="5,2" d="M20,-19C20,-19 49,-19 49,-19 55,-19 61,-25 61,-31 61,-31 61,-62 61,-62 61,-68 55,-74 49,-74 49,-74 20,-74 20,-74 14,-74 8,-68 8,-62 8,-62 8,-31 8,-31 8,-25 14,-19 20,-19"/>
<text text-anchor="middle" x="34.5" y="-62" font-family="Arial" font-size="10.00" fill="#000000">builtins</text>
</g>
<g id="clust2" class="cluster">
<title>cluster_supriya.daw</title>
<path fill="transparent" stroke="#bcd2ee" stroke-width="2" stroke-dasharray="5,2" d="M185,-14C185,-14 454,-14 454,-14 460,-14 466,-20 466,-26 466,-26 466,-67 466,-67 466,-73 460,-79 454,-79 454,-79 185,-79 185,-79 179,-79 173,-73 173,-67 173,-67 173,-26 173,-26 173,-20 179,-14 185,-14"/>
<text text-anchor="middle" x="319.5" y="-67" font-family="Arial" font-size="10.00" fill="#000000">supriya.daw</text>
</g>
<g id="clust3" class="cluster">
<title>cluster_uqbar.containers</title>
<path fill="transparent" stroke="#bcd2ee" stroke-width="2" stroke-dasharray="5,2" d="M93,-8C93,-8 141,-8 141,-8 147,-8 153,-14 153,-20 153,-20 153,-73 153,-73 153,-79 147,-85 141,-85 141,-85 93,-85 93,-85 87,-85 81,-79 81,-73 81,-73 81,-20 81,-20 81,-14 87,-8 93,-8"/>
<text text-anchor="middle" x="117" y="-73" font-family="Arial" font-size="10.00" fill="#000000">uqbar.containers</text>
</g>
<!-- builtins.object&#45;&gt;uqbar.containers.UniqueTreeNode.UniqueTreeNode -->
<g id="edge4" class="edge">
<title>builtins.object&#45;&gt;uqbar.containers.UniqueTreeNode.UniqueTreeNode</title>
<path fill="none" stroke="#778899" d="M53.2205,-37C63.092,-37 75.4465,-37 86.6465,-37"/>
<polygon fill="#778899" stroke="#778899" points="86.9122,-40.5001 96.9122,-37 86.9122,-33.5001 86.9122,-40.5001"/>
</g>
<!-- supriya.daw.DawNode.DawNode&#45;&gt;supriya.daw.Device.Device -->
<g id="edge1" class="edge">
<title>supriya.daw.DawNode.DawNode&#45;&gt;supriya.daw.Device.Device</title>
<path fill="none" stroke="#778899" d="M215.1815,-37C222.8025,-37 231.9953,-37 240.6796,-37"/>
<polygon fill="#778899" stroke="#778899" points="240.8805,-40.5001 250.8805,-37 240.8804,-33.5001 240.8805,-40.5001"/>
</g>
<!-- supriya.daw.Device.Device&#45;&gt;supriya.daw.Instrument.Instrument -->
<g id="edge2" class="edge">
<title>supriya.daw.Device.Device&#45;&gt;supriya.daw.Instrument.Instrument</title>
<path fill="none" stroke="#778899" d="M290.2289,-37C297.949,-37 307.0552,-37 315.8694,-37"/>
<polygon fill="#778899" stroke="#778899" points="315.9818,-40.5001 325.9818,-37 315.9818,-33.5001 315.9818,-40.5001"/>
</g>
<!-- supriya.daw.Instrument.Instrument&#45;&gt;supriya.daw.SamplerDevice.SamplerDevice -->
<g id="edge3" class="edge">
<title>supriya.daw.Instrument.Instrument&#45;&gt;supriya.daw.SamplerDevice.SamplerDevice</title>
<path fill="none" stroke="#778899" d="M378.1177,-37C386.1771,-37 395.1516,-37 403.5819,-37"/>
<polygon fill="#778899" stroke="#778899" points="403.8597,-40.5001 413.8596,-37 403.8596,-33.5001 403.8597,-40.5001"/>
</g>
<!-- uqbar.containers.UniqueTreeNode.UniqueTreeNode&#45;&gt;supriya.daw.DawNode.DawNode -->
<g id="edge5" class="edge">
<title>uqbar.containers.UniqueTreeNode.UniqueTreeNode&#45;&gt;supriya.daw.DawNode.DawNode</title>
<path fill="none" stroke="#778899" d="M137.0225,-37C147.2472,-37 159.8349,-37 170.9131,-37"/>
<polygon fill="#778899" stroke="#778899" points="170.9457,-40.5001 180.9457,-37 170.9456,-33.5001 170.9457,-40.5001"/>
</g>
<!-- builtins.object -->
<g id="node1" class="node">
<title>builtins.object</title>
<g id="a_node1"><a xlink:href="https://docs.python.org/3.6/library/functions.html#object" xlink:title="object" target="_top">
<path fill="#fbb4ae" stroke="#fbb4ae" stroke-width="2" d="M46.6667,-46.5C46.6667,-46.5 22.3333,-46.5 22.3333,-46.5 19.1667,-46.5 16,-43.3333 16,-40.1667 16,-40.1667 16,-33.8333 16,-33.8333 16,-30.6667 19.1667,-27.5 22.3333,-27.5 22.3333,-27.5 46.6667,-27.5 46.6667,-27.5 49.8333,-27.5 53,-30.6667 53,-33.8333 53,-33.8333 53,-40.1667 53,-40.1667 53,-43.3333 49.8333,-46.5 46.6667,-46.5"/>
<text text-anchor="middle" x="34.5" y="-34.5" font-family="Arial" font-size="10.00" fill="#000000">object</text>
</a>
</g>
</g>
<!-- supriya.daw.DawNode.DawNode -->
<g id="node2" class="node">
<title>supriya.daw.DawNode.DawNode</title>
<g id="a_node2"><a xlink:href="../api/supriya/daw/DawNode.html#supriya.daw.DawNode.DawNode" xlink:title="Daw\nNode" target="_top">
<path fill="#b3cde3" stroke="#b3cde3" stroke-width="2" d="M205,-52C205,-52 191,-52 191,-52 186,-52 181,-47 181,-42 181,-42 181,-32 181,-32 181,-27 186,-22 191,-22 191,-22 205,-22 205,-22 210,-22 215,-27 215,-32 215,-32 215,-42 215,-42 215,-47 210,-52 205,-52"/>
<text text-anchor="middle" x="198" y="-40" font-family="Arial" font-size="10.00" fill="#000000">Daw</text>
<text text-anchor="middle" x="198" y="-29" font-family="Arial" font-size="10.00" fill="#000000">Node</text>
</a>
</g>
</g>
<!-- supriya.daw.Device.Device -->
<g id="node3" class="node">
<title>supriya.daw.Device.Device</title>
<g id="a_node3"><a xlink:href="../api/supriya/daw/Device.html#supriya.daw.Device.Device" xlink:title="Device" target="_top">
<path fill="#b3cde3" stroke="#b3cde3" stroke-width="2" d="M283.6667,-46.5C283.6667,-46.5 257.3333,-46.5 257.3333,-46.5 254.1667,-46.5 251,-43.3333 251,-40.1667 251,-40.1667 251,-33.8333 251,-33.8333 251,-30.6667 254.1667,-27.5 257.3333,-27.5 257.3333,-27.5 283.6667,-27.5 283.6667,-27.5 286.8333,-27.5 290,-30.6667 290,-33.8333 290,-33.8333 290,-40.1667 290,-40.1667 290,-43.3333 286.8333,-46.5 283.6667,-46.5"/>
<text text-anchor="middle" x="270.5" y="-34.5" font-family="Arial" font-size="10.00" fill="#000000">Device</text>
</a>
</g>
</g>
<!-- supriya.daw.Instrument.Instrument -->
<g id="node4" class="node">
<title>supriya.daw.Instrument.Instrument</title>
<g id="a_node4"><a xlink:href="../api/supriya/daw/Instrument.html#supriya.daw.Instrument.Instrument" xlink:title="Instrument" target="_top">
<path fill="#b3cde3" stroke="#b3cde3" stroke-width="2" d="M371.6667,-46.5C371.6667,-46.5 332.3333,-46.5 332.3333,-46.5 329.1667,-46.5 326,-43.3333 326,-40.1667 326,-40.1667 326,-33.8333 326,-33.8333 326,-30.6667 329.1667,-27.5 332.3333,-27.5 332.3333,-27.5 371.6667,-27.5 371.6667,-27.5 374.8333,-27.5 378,-30.6667 378,-33.8333 378,-33.8333 378,-40.1667 378,-40.1667 378,-43.3333 374.8333,-46.5 371.6667,-46.5"/>
<text text-anchor="middle" x="352" y="-34.5" font-family="Arial" font-size="10.00" fill="#000000">Instrument</text>
</a>
</g>
</g>
<!-- supriya.daw.SamplerDevice.SamplerDevice -->
<g id="node5" class="node">
<title>supriya.daw.SamplerDevice.SamplerDevice</title>
<g id="a_node5"><a xlink:href="../api/supriya/daw/SamplerDevice.html#supriya.daw.SamplerDevice.SamplerDevice" xlink:title="Sampler\nDevice" target="_top">
<path fill="#000000" stroke="#000000" stroke-width="2" d="M448,-52C448,-52 424,-52 424,-52 419,-52 414,-47 414,-42 414,-42 414,-32 414,-32 414,-27 419,-22 424,-22 424,-22 448,-22 448,-22 453,-22 458,-27 458,-32 458,-32 458,-42 458,-42 458,-47 453,-52 448,-52"/>
<text text-anchor="middle" x="436" y="-40" font-family="Arial" font-size="10.00" fill="#ffffff">Sampler</text>
<text text-anchor="middle" x="436" y="-29" font-family="Arial" font-size="10.00" fill="#ffffff">Device</text>
</a>
</g>
</g>
<!-- uqbar.containers.UniqueTreeNode.UniqueTreeNode -->
<g id="node6" class="node">
<title>uqbar.containers.UniqueTreeNode.UniqueTreeNode</title>
<path fill="#ccebc5" stroke="#ccebc5" stroke-width="2" d="M125,-57.5C125,-57.5 109,-57.5 109,-57.5 103,-57.5 97,-51.5 97,-45.5 97,-45.5 97,-28.5 97,-28.5 97,-22.5 103,-16.5 109,-16.5 109,-16.5 125,-16.5 125,-16.5 131,-16.5 137,-22.5 137,-28.5 137,-28.5 137,-45.5 137,-45.5 137,-51.5 131,-57.5 125,-57.5"/>
<text text-anchor="middle" x="117" y="-45.5" font-family="Arial" font-size="10.00" fill="#000000">Unique</text>
<text text-anchor="middle" x="117" y="-34.5" font-family="Arial" font-size="10.00" fill="#000000">Tree</text>
<text text-anchor="middle" x="117" y="-23.5" font-family="Arial" font-size="10.00" fill="#000000">Node</text>
</g>
</g>
</svg>
