<?xml version="1.0" encoding="UTF-8" standalone="no"?>
<!DOCTYPE svg PUBLIC "-//W3C//DTD SVG 1.1//EN"
 "http://www.w3.org/Graphics/SVG/1.1/DTD/svg11.dtd">
<!-- Generated by graphviz version 2.44.1 (20200629.0846)
 -->
<!-- Title: InheritanceGraph Pages: 1 -->
<svg width="662pt" height="453pt"
 viewBox="0.00 0.00 661.79 453.00" xmlns="http://www.w3.org/2000/svg" xmlns:xlink="http://www.w3.org/1999/xlink">
<g id="graph0" class="graph" transform="scale(1 1) rotate(0) translate(4 449)">
<title>InheritanceGraph</title>
<g id="clust1" class="cluster">
<title>cluster_builtins</title>
<path fill="transparent" stroke="#bcd2ee" stroke-width="2" stroke-dasharray="5,2" d="M20,-268C20,-268 55,-268 55,-268 61,-268 67,-274 67,-280 67,-280 67,-311 67,-311 67,-317 61,-323 55,-323 55,-323 20,-323 20,-323 14,-323 8,-317 8,-311 8,-311 8,-280 8,-280 8,-274 14,-268 20,-268"/>
<text text-anchor="middle" x="37.5" y="-311" font-family="Arial" font-size="10.00">builtins</text>
</g>
<g id="clust2" class="cluster">
<title>cluster_supriya.synthdefs.bases</title>
<path fill="transparent" stroke="#bcd2ee" stroke-width="2" stroke-dasharray="5,2" d="M347,-265C347,-265 493.79,-265 493.79,-265 499.79,-265 505.79,-271 505.79,-277 505.79,-277 505.79,-346 505.79,-346 505.79,-352 499.79,-358 493.79,-358 493.79,-358 347,-358 347,-358 341,-358 335,-352 335,-346 335,-346 335,-277 335,-277 335,-271 341,-265 347,-265"/>
<text text-anchor="middle" x="420.4" y="-346" font-family="Arial" font-size="10.00">supriya.synthdefs.bases</text>
</g>
<g id="clust3" class="cluster">
<title>cluster_supriya.synthdefs.mixins</title>
<path fill="transparent" stroke="#bcd2ee" stroke-width="2" stroke-dasharray="5,2" d="M202,-257C202,-257 303,-257 303,-257 309,-257 315,-263 315,-269 315,-269 315,-322 315,-322 315,-328 309,-334 303,-334 303,-334 202,-334 202,-334 196,-334 190,-328 190,-322 190,-322 190,-269 190,-269 190,-263 196,-257 202,-257"/>
<text text-anchor="middle" x="252.5" y="-322" font-family="Arial" font-size="10.00">supriya.synthdefs.mixins</text>
</g>
<g id="clust4" class="cluster">
<title>cluster_supriya.system</title>
<path fill="transparent" stroke="#bcd2ee" stroke-width="2" stroke-dasharray="5,2" d="M99,-263C99,-263 158,-263 158,-263 164,-263 170,-269 170,-275 170,-275 170,-316 170,-316 170,-322 164,-328 158,-328 158,-328 99,-328 99,-328 93,-328 87,-322 87,-316 87,-316 87,-275 87,-275 87,-269 93,-263 99,-263"/>
<text text-anchor="middle" x="128.5" y="-316" font-family="Arial" font-size="10.00">supriya.system</text>
</g>
<g id="clust5" class="cluster">
<title>cluster_supriya.ugens.ml</title>
<path fill="transparent" stroke="#bcd2ee" stroke-width="2" stroke-dasharray="5,2" d="M574.79,-8C574.79,-8 641.79,-8 641.79,-8 647.79,-8 653.79,-14 653.79,-20 653.79,-20 653.79,-425 653.79,-425 653.79,-431 647.79,-437 641.79,-437 641.79,-437 574.79,-437 574.79,-437 568.79,-437 562.79,-431 562.79,-425 562.79,-425 562.79,-20 562.79,-20 562.79,-14 568.79,-8 574.79,-8"/>
<text text-anchor="middle" x="608.29" y="-425" font-family="Arial" font-size="10.00">supriya.ugens.ml</text>
</g>
<!-- builtins.object&#45;&gt;supriya.system.SupriyaObject -->
<g id="edge2" class="edge">
<title>builtins.object&#45;&gt;supriya.system.SupriyaObject</title>
<path fill="none" stroke="lightslategrey" d="M59.03,-286C69.03,-286 81.34,-286 92.72,-286"/>
<polygon fill="lightslategrey" stroke="lightslategrey" points="92.82,-289.5 102.82,-286 92.82,-282.5 92.82,-289.5"/>
</g>
<!-- supriya.synthdefs.bases.MultiOutUGen&#45;&gt;supriya.ugens.ml.BeatTrack -->
<g id="edge3" class="edge">
<title>supriya.synthdefs.bases.MultiOutUGen&#45;&gt;supriya.ugens.ml.BeatTrack</title>
<path fill="none" stroke="lightslategrey" d="M491.57,-319.94C510.17,-334.44 537.54,-355 562.79,-371 567.71,-374.11 573.06,-377.22 578.29,-380.12"/>
<polygon fill="lightslategrey" stroke="lightslategrey" points="577,-383.4 587.46,-385.07 580.32,-377.24 577,-383.4"/>
</g>
<!-- supriya.synthdefs.bases.MultiOutUGen&#45;&gt;supriya.ugens.ml.BeatTrack2 -->
<g id="edge4" class="edge">
<title>supriya.synthdefs.bases.MultiOutUGen&#45;&gt;supriya.ugens.ml.BeatTrack2</title>
<path fill="none" stroke="lightslategrey" d="M496.73,-309.8C520.3,-316.45 554.09,-325.99 578.1,-332.76"/>
<polygon fill="lightslategrey" stroke="lightslategrey" points="577.16,-336.13 587.73,-335.48 579.06,-329.39 577.16,-336.13"/>
</g>
<!-- supriya.synthdefs.bases.MultiOutUGen&#45;&gt;supriya.ugens.ml.MFCC -->
<g id="edge5" class="edge">
<title>supriya.synthdefs.bases.MultiOutUGen&#45;&gt;supriya.ugens.ml.MFCC</title>
<path fill="none" stroke="lightslategrey" d="M498.07,-300.11C520.58,-298.65 551.79,-296.61 575.08,-295.1"/>
<polygon fill="lightslategrey" stroke="lightslategrey" points="575.42,-298.58 585.17,-294.44 574.97,-291.6 575.42,-298.58"/>
</g>
<!-- supriya.synthdefs.bases.UGen&#45;&gt;supriya.synthdefs.bases.MultiOutUGen -->
<g id="edge1" class="edge">
<title>supriya.synthdefs.bases.UGen&#45;&gt;supriya.synthdefs.bases.MultiOutUGen</title>
<path fill="none" stroke="lightslategrey" d="M400.71,-290.63C409.42,-292.12 419.24,-293.8 428.6,-295.41"/>
<polygon fill="lightslategrey" stroke="lightslategrey" points="428.07,-298.86 438.51,-297.1 429.25,-291.97 428.07,-298.86"/>
</g>
<!-- supriya.synthdefs.bases.UGen&#45;&gt;supriya.ugens.ml.KeyTrack -->
<g id="edge6" class="edge">
<title>supriya.synthdefs.bases.UGen&#45;&gt;supriya.ugens.ml.KeyTrack</title>
<path fill="none" stroke="lightslategrey" d="M395.19,-277.21C407.61,-272.51 423.65,-267.07 438.4,-264 486.35,-254.02 543.36,-251.1 577.37,-250.28"/>
<polygon fill="lightslategrey" stroke="lightslategrey" points="577.64,-253.77 587.57,-250.08 577.5,-246.77 577.64,-253.77"/>
</g>
<!-- supriya.synthdefs.bases.UGen&#45;&gt;supriya.ugens.ml.Loudness -->
<g id="edge7" class="edge">
<title>supriya.synthdefs.bases.UGen&#45;&gt;supriya.ugens.ml.Loudness</title>
<path fill="none" stroke="lightslategrey" d="M390.4,-275.12C403.13,-267.23 421.32,-256.79 438.4,-250 481.46,-232.87 533.45,-220.85 568.27,-213.95"/>
<polygon fill="lightslategrey" stroke="lightslategrey" points="569.34,-217.31 578.5,-211.98 568.01,-210.44 569.34,-217.31"/>
</g>
<!-- supriya.synthdefs.bases.UGen&#45;&gt;supriya.ugens.ml.Onsets -->
<g id="edge8" class="edge">
<title>supriya.synthdefs.bases.UGen&#45;&gt;supriya.ugens.ml.Onsets</title>
<path fill="none" stroke="lightslategrey" d="M383.84,-273.3C395.59,-259.35 416.2,-237.21 438.4,-224 481.74,-198.21 538.78,-183.31 574.23,-175.93"/>
<polygon fill="lightslategrey" stroke="lightslategrey" points="574.95,-179.36 584.07,-173.96 573.57,-172.49 574.95,-179.36"/>
</g>
<!-- supriya.synthdefs.bases.UGen&#45;&gt;supriya.ugens.ml.SpecCentroid -->
<g id="edge9" class="edge">
<title>supriya.synthdefs.bases.UGen&#45;&gt;supriya.ugens.ml.SpecCentroid</title>
<path fill="none" stroke="lightslategrey" d="M379.43,-272.59C388.86,-252.04 409.51,-212.76 438.4,-190 478.11,-158.71 534.96,-141.82 571.51,-133.62"/>
<polygon fill="lightslategrey" stroke="lightslategrey" points="572.65,-136.95 581.7,-131.44 571.19,-130.11 572.65,-136.95"/>
</g>
<!-- supriya.synthdefs.bases.UGen&#45;&gt;supriya.ugens.ml.SpecFlatness -->
<g id="edge10" class="edge">
<title>supriya.synthdefs.bases.UGen&#45;&gt;supriya.ugens.ml.SpecFlatness</title>
<path fill="none" stroke="lightslategrey" d="M376.69,-272.51C383.29,-245.69 401.52,-185.21 438.4,-150 475.83,-114.26 533.9,-95.27 571.26,-86.18"/>
<polygon fill="lightslategrey" stroke="lightslategrey" points="572.26,-89.54 581.21,-83.87 570.68,-82.72 572.26,-89.54"/>
</g>
<!-- supriya.synthdefs.bases.UGen&#45;&gt;supriya.ugens.ml.SpecPcile -->
<g id="edge11" class="edge">
<title>supriya.synthdefs.bases.UGen&#45;&gt;supriya.ugens.ml.SpecPcile</title>
<path fill="none" stroke="lightslategrey" d="M374.85,-272.13C378.33,-238.72 391.58,-152.87 438.4,-103 476.52,-62.39 541.3,-43.67 578.57,-35.88"/>
<polygon fill="lightslategrey" stroke="lightslategrey" points="579.62,-39.24 588.76,-33.88 578.27,-32.37 579.62,-39.24"/>
</g>
<!-- supriya.synthdefs.mixins.UGenMethodMixin&#45;&gt;supriya.synthdefs.bases.UGen -->
<g id="edge12" class="edge">
<title>supriya.synthdefs.mixins.UGenMethodMixin&#45;&gt;supriya.synthdefs.bases.UGen</title>
<path fill="none" stroke="lightslategrey" d="M277.14,-286C292.98,-286 314.22,-286 332.55,-286"/>
<polygon fill="lightslategrey" stroke="lightslategrey" points="332.67,-289.5 342.67,-286 332.67,-282.5 332.67,-289.5"/>
</g>
<!-- supriya.system.SupriyaObject&#45;&gt;supriya.synthdefs.mixins.UGenMethodMixin -->
<g id="edge13" class="edge">
<title>supriya.system.SupriyaObject&#45;&gt;supriya.synthdefs.mixins.UGenMethodMixin</title>
<path fill="none" stroke="lightslategrey" d="M153.2,-286C171.61,-286 197.17,-286 217.61,-286"/>
<polygon fill="lightslategrey" stroke="lightslategrey" points="217.77,-289.5 227.77,-286 217.77,-282.5 217.77,-289.5"/>
</g>
<!-- builtins.object -->
<g id="node1" class="node">
<title>builtins.object</title>
<g id="a_node1"><a xlink:href="https://docs.python.org/3/library/functions.html#object" xlink:title="object" target="_top">
<path fill="#fbb4ae" stroke="#fbb4ae" stroke-width="2" d="M52.67,-295.5C52.67,-295.5 22.33,-295.5 22.33,-295.5 19.17,-295.5 16,-292.33 16,-289.17 16,-289.17 16,-282.83 16,-282.83 16,-279.67 19.17,-276.5 22.33,-276.5 22.33,-276.5 52.67,-276.5 52.67,-276.5 55.83,-276.5 59,-279.67 59,-282.83 59,-282.83 59,-289.17 59,-289.17 59,-292.33 55.83,-295.5 52.67,-295.5"/>
<text text-anchor="middle" x="37.5" y="-283.5" font-family="Arial" font-size="10.00">object</text>
</a>
</g>
</g>
<!-- supriya.synthdefs.bases.MultiOutUGen -->
<g id="node2" class="node">
<title>supriya.synthdefs.bases.MultiOutUGen</title>
<g id="a_node2"><a xlink:href="../api/supriya/ugens/../synthdefs/bases.html#supriya.synthdefs.bases.MultiOutUGen" xlink:title="Multi\nOut\nUGen" target="_top">
<ellipse fill="none" stroke="#b3cde3" stroke-width="2" cx="468.1" cy="-302" rx="29.9" ry="28.98"/>
<text text-anchor="middle" x="468.1" y="-310.5" font-family="Arial" font-size="10.00">Multi</text>
<text text-anchor="middle" x="468.1" y="-299.5" font-family="Arial" font-size="10.00">Out</text>
<text text-anchor="middle" x="468.1" y="-288.5" font-family="Arial" font-size="10.00">UGen</text>
</a>
</g>
</g>
<!-- supriya.synthdefs.bases.UGen -->
<g id="node3" class="node">
<title>supriya.synthdefs.bases.UGen</title>
<g id="a_node3"><a xlink:href="../api/supriya/ugens/../synthdefs/bases.html#supriya.synthdefs.bases.UGen" xlink:title="UGen" target="_top">
<ellipse fill="none" stroke="#b3cde3" stroke-width="2" cx="372.7" cy="-286" rx="29.9" ry="13.37"/>
<text text-anchor="middle" x="372.7" y="-283.5" font-family="Arial" font-size="10.00">UGen</text>
</a>
</g>
</g>
<!-- supriya.synthdefs.mixins.UGenMethodMixin -->
<g id="node4" class="node">
<title>supriya.synthdefs.mixins.UGenMethodMixin</title>
<g id="a_node4"><a xlink:href="../api/supriya/ugens/../synthdefs/mixins.html#supriya.synthdefs.mixins.UGenMethodMixin" xlink:title="UGen\nMethod\nMixin" target="_top">
<path fill="#ccebc5" stroke="#ccebc5" stroke-width="2" d="M265,-306.5C265,-306.5 240,-306.5 240,-306.5 234,-306.5 228,-300.5 228,-294.5 228,-294.5 228,-277.5 228,-277.5 228,-271.5 234,-265.5 240,-265.5 240,-265.5 265,-265.5 265,-265.5 271,-265.5 277,-271.5 277,-277.5 277,-277.5 277,-294.5 277,-294.5 277,-300.5 271,-306.5 265,-306.5"/>
<text text-anchor="middle" x="252.5" y="-294.5" font-family="Arial" font-size="10.00">UGen</text>
<text text-anchor="middle" x="252.5" y="-283.5" font-family="Arial" font-size="10.00">Method</text>
<text text-anchor="middle" x="252.5" y="-272.5" font-family="Arial" font-size="10.00">Mixin</text>
</a>
</g>
</g>
<!-- supriya.system.SupriyaObject -->
<g id="node5" class="node">
<title>supriya.system.SupriyaObject</title>
<g id="a_node5"><a xlink:href="../api/supriya/ugens/../system.html#supriya.system.SupriyaObject" xlink:title="Supriya\nObject" target="_top">
<path fill="#decbe4" stroke="#decbe4" stroke-width="2" d="M143,-301C143,-301 113,-301 113,-301 108,-301 103,-296 103,-291 103,-291 103,-281 103,-281 103,-276 108,-271 113,-271 113,-271 143,-271 143,-271 148,-271 153,-276 153,-281 153,-281 153,-291 153,-291 153,-296 148,-301 143,-301"/>
<text text-anchor="middle" x="128" y="-289" font-family="Arial" font-size="10.00">Supriya</text>
<text text-anchor="middle" x="128" y="-278" font-family="Arial" font-size="10.00">Object</text>
</a>
</g>
</g>
<!-- supriya.ugens.ml.BeatTrack -->
<g id="node6" class="node">
<title>supriya.ugens.ml.BeatTrack</title>
<g id="a_node6"><a xlink:href="../api/supriya/ugens/ml.html#supriya.ugens.ml.BeatTrack" xlink:title="Beat\nTrack" target="_top">
<path fill="black" stroke="black" stroke-width="2" d="M618.79,-410C618.79,-410 597.79,-410 597.79,-410 592.79,-410 587.79,-405 587.79,-400 587.79,-400 587.79,-390 587.79,-390 587.79,-385 592.79,-380 597.79,-380 597.79,-380 618.79,-380 618.79,-380 623.79,-380 628.79,-385 628.79,-390 628.79,-390 628.79,-400 628.79,-400 628.79,-405 623.79,-410 618.79,-410"/>
<text text-anchor="middle" x="608.29" y="-398" font-family="Arial" font-size="10.00" fill="white">Beat</text>
<text text-anchor="middle" x="608.29" y="-387" font-family="Arial" font-size="10.00" fill="white">Track</text>
</a>
</g>
</g>
<!-- supriya.ugens.ml.BeatTrack2 -->
<g id="node7" class="node">
<title>supriya.ugens.ml.BeatTrack2</title>
<g id="a_node7"><a xlink:href="../api/supriya/ugens/ml.html#supriya.ugens.ml.BeatTrack2" xlink:title="Beat\nTrack\n2" target="_top">
<path fill="black" stroke="black" stroke-width="2" d="M616.79,-361.5C616.79,-361.5 599.79,-361.5 599.79,-361.5 593.79,-361.5 587.79,-355.5 587.79,-349.5 587.79,-349.5 587.79,-332.5 587.79,-332.5 587.79,-326.5 593.79,-320.5 599.79,-320.5 599.79,-320.5 616.79,-320.5 616.79,-320.5 622.79,-320.5 628.79,-326.5 628.79,-332.5 628.79,-332.5 628.79,-349.5 628.79,-349.5 628.79,-355.5 622.79,-361.5 616.79,-361.5"/>
<text text-anchor="middle" x="608.29" y="-349.5" font-family="Arial" font-size="10.00" fill="white">Beat</text>
<text text-anchor="middle" x="608.29" y="-338.5" font-family="Arial" font-size="10.00" fill="white">Track</text>
<text text-anchor="middle" x="608.29" y="-327.5" font-family="Arial" font-size="10.00" fill="white">2</text>
</a>
</g>
</g>
<!-- supriya.ugens.ml.KeyTrack -->
<g id="node8" class="node">
<title>supriya.ugens.ml.KeyTrack</title>
<g id="a_node8"><a xlink:href="../api/supriya/ugens/ml.html#supriya.ugens.ml.KeyTrack" xlink:title="Key\nTrack" target="_top">
<path fill="black" stroke="black" stroke-width="2" d="M618.79,-265C618.79,-265 597.79,-265 597.79,-265 592.79,-265 587.79,-260 587.79,-255 587.79,-255 587.79,-245 587.79,-245 587.79,-240 592.79,-235 597.79,-235 597.79,-235 618.79,-235 618.79,-235 623.79,-235 628.79,-240 628.79,-245 628.79,-245 628.79,-255 628.79,-255 628.79,-260 623.79,-265 618.79,-265"/>
<text text-anchor="middle" x="608.29" y="-253" font-family="Arial" font-size="10.00" fill="white">Key</text>
<text text-anchor="middle" x="608.29" y="-242" font-family="Arial" font-size="10.00" fill="white">Track</text>
</a>
</g>
</g>
<!-- supriya.ugens.ml.Loudness -->
<g id="node9" class="node">
<title>supriya.ugens.ml.Loudness</title>
<g id="a_node9"><a xlink:href="../api/supriya/ugens/ml.html#supriya.ugens.ml.Loudness" xlink:title="Loudness" target="_top">
<path fill="black" stroke="black" stroke-width="2" d="M631.46,-216.5C631.46,-216.5 585.13,-216.5 585.13,-216.5 581.96,-216.5 578.79,-213.33 578.79,-210.17 578.79,-210.17 578.79,-203.83 578.79,-203.83 578.79,-200.67 581.96,-197.5 585.13,-197.5 585.13,-197.5 631.46,-197.5 631.46,-197.5 634.63,-197.5 637.79,-200.67 637.79,-203.83 637.79,-203.83 637.79,-210.17 637.79,-210.17 637.79,-213.33 634.63,-216.5 631.46,-216.5"/>
<text text-anchor="middle" x="608.29" y="-204.5" font-family="Arial" font-size="10.00" fill="white">Loudness</text>
</a>
</g>
</g>
<!-- supriya.ugens.ml.MFCC -->
<g id="node10" class="node">
<title>supriya.ugens.ml.MFCC</title>
<g id="a_node10"><a xlink:href="../api/supriya/ugens/ml.html#supriya.ugens.ml.MFCC" xlink:title="MFCC" target="_top">
<path fill="black" stroke="black" stroke-width="2" d="M624.96,-302.5C624.96,-302.5 591.63,-302.5 591.63,-302.5 588.46,-302.5 585.29,-299.33 585.29,-296.17 585.29,-296.17 585.29,-289.83 585.29,-289.83 585.29,-286.67 588.46,-283.5 591.63,-283.5 591.63,-283.5 624.96,-283.5 624.96,-283.5 628.13,-283.5 631.29,-286.67 631.29,-289.83 631.29,-289.83 631.29,-296.17 631.29,-296.17 631.29,-299.33 628.13,-302.5 624.96,-302.5"/>
<text text-anchor="middle" x="608.29" y="-290.5" font-family="Arial" font-size="10.00" fill="white">MFCC</text>
</a>
</g>
</g>
<!-- supriya.ugens.ml.Onsets -->
<g id="node11" class="node">
<title>supriya.ugens.ml.Onsets</title>
<g id="a_node11"><a xlink:href="../api/supriya/ugens/ml.html#supriya.ugens.ml.Onsets" xlink:title="Onsets" target="_top">
<path fill="black" stroke="black" stroke-width="2" d="M625.96,-179.5C625.96,-179.5 590.63,-179.5 590.63,-179.5 587.46,-179.5 584.29,-176.33 584.29,-173.17 584.29,-173.17 584.29,-166.83 584.29,-166.83 584.29,-163.67 587.46,-160.5 590.63,-160.5 590.63,-160.5 625.96,-160.5 625.96,-160.5 629.13,-160.5 632.29,-163.67 632.29,-166.83 632.29,-166.83 632.29,-173.17 632.29,-173.17 632.29,-176.33 629.13,-179.5 625.96,-179.5"/>
<text text-anchor="middle" x="608.29" y="-167.5" font-family="Arial" font-size="10.00" fill="white">Onsets</text>
</a>
</g>
</g>
<!-- supriya.ugens.ml.SpecCentroid -->
<g id="node12" class="node">
<title>supriya.ugens.ml.SpecCentroid</title>
<g id="a_node12"><a xlink:href="../api/supriya/ugens/ml.html#supriya.ugens.ml.SpecCentroid" xlink:title="Spec\nCentroid" target="_top">
<path fill="black" stroke="black" stroke-width="2" d="M624.79,-142C624.79,-142 591.79,-142 591.79,-142 586.79,-142 581.79,-137 581.79,-132 581.79,-132 581.79,-122 581.79,-122 581.79,-117 586.79,-112 591.79,-112 591.79,-112 624.79,-112 624.79,-112 629.79,-112 634.79,-117 634.79,-122 634.79,-122 634.79,-132 634.79,-132 634.79,-137 629.79,-142 624.79,-142"/>
<text text-anchor="middle" x="608.29" y="-130" font-family="Arial" font-size="10.00" fill="white">Spec</text>
<text text-anchor="middle" x="608.29" y="-119" font-family="Arial" font-size="10.00" fill="white">Centroid</text>
</a>
</g>
</g>
<!-- supriya.ugens.ml.SpecFlatness -->
<g id="node13" class="node">
<title>supriya.ugens.ml.SpecFlatness</title>
<g id="a_node13"><a xlink:href="../api/supriya/ugens/ml.html#supriya.ugens.ml.SpecFlatness" xlink:title="Spec\nFlatness" target="_top">
<path fill="black" stroke="black" stroke-width="2" d="M625.29,-94C625.29,-94 591.29,-94 591.29,-94 586.29,-94 581.29,-89 581.29,-84 581.29,-84 581.29,-74 581.29,-74 581.29,-69 586.29,-64 591.29,-64 591.29,-64 625.29,-64 625.29,-64 630.29,-64 635.29,-69 635.29,-74 635.29,-74 635.29,-84 635.29,-84 635.29,-89 630.29,-94 625.29,-94"/>
<text text-anchor="middle" x="608.29" y="-82" font-family="Arial" font-size="10.00" fill="white">Spec</text>
<text text-anchor="middle" x="608.29" y="-71" font-family="Arial" font-size="10.00" fill="white">Flatness</text>
</a>
</g>
</g>
<!-- supriya.ugens.ml.SpecPcile -->
<g id="node14" class="node">
<title>supriya.ugens.ml.SpecPcile</title>
<g id="a_node14"><a xlink:href="../api/supriya/ugens/ml.html#supriya.ugens.ml.SpecPcile" xlink:title="Spec\nPcile" target="_top">
<path fill="black" stroke="black" stroke-width="2" d="M617.79,-46C617.79,-46 598.79,-46 598.79,-46 593.79,-46 588.79,-41 588.79,-36 588.79,-36 588.79,-26 588.79,-26 588.79,-21 593.79,-16 598.79,-16 598.79,-16 617.79,-16 617.79,-16 622.79,-16 627.79,-21 627.79,-26 627.79,-26 627.79,-36 627.79,-36 627.79,-41 622.79,-46 617.79,-46"/>
<text text-anchor="middle" x="608.29" y="-34" font-family="Arial" font-size="10.00" fill="white">Spec</text>
<text text-anchor="middle" x="608.29" y="-23" font-family="Arial" font-size="10.00" fill="white">Pcile</text>
</a>
</g>
</g>
</g>
</svg>
