<?xml version="1.0" encoding="UTF-8" standalone="no"?>
<!DOCTYPE svg PUBLIC "-//W3C//DTD SVG 1.1//EN"
 "http://www.w3.org/Graphics/SVG/1.1/DTD/svg11.dtd">
<!-- Generated by graphviz version 2.40.1 (20161225.0304)
 -->
<!-- Title: InheritanceGraph Pages: 1 -->
<svg width="545pt" height="639pt"
 viewBox="0.00 0.00 545.00 639.00" xmlns="http://www.w3.org/2000/svg" xmlns:xlink="http://www.w3.org/1999/xlink">
<g id="graph0" class="graph" transform="scale(1 1) rotate(0) translate(4 635)">
<title>InheritanceGraph</title>
<g id="clust1" class="cluster">
<title>cluster_builtins</title>
<path fill="transparent" stroke="#bcd2ee" stroke-width="2" stroke-dasharray="5,2" d="M20,-289C20,-289 219,-289 219,-289 225,-289 231,-295 231,-301 231,-301 231,-342 231,-342 231,-348 225,-354 219,-354 219,-354 20,-354 20,-354 14,-354 8,-348 8,-342 8,-342 8,-301 8,-301 8,-295 14,-289 20,-289"/>
<text text-anchor="middle" x="119.5" y="-342" font-family="Arial" font-size="10.00" fill="#000000">builtins</text>
</g>
<g id="clust2" class="cluster">
<title>cluster_supriya.exceptions</title>
<path fill="transparent" stroke="#bcd2ee" stroke-width="2" stroke-dasharray="5,2" d="M300,-8C300,-8 517,-8 517,-8 523,-8 529,-14 529,-20 529,-20 529,-611 529,-611 529,-617 523,-623 517,-623 517,-623 300,-623 300,-623 294,-623 288,-617 288,-611 288,-611 288,-20 288,-20 288,-14 294,-8 300,-8"/>
<text text-anchor="middle" x="408.5" y="-611" font-family="Arial" font-size="10.00" fill="#000000">supriya.exceptions</text>
</g>
<!-- builtins.BaseException&#45;&gt;builtins.Exception -->
<g id="edge1" class="edge">
<title>builtins.BaseException&#45;&gt;builtins.Exception</title>
<path fill="none" stroke="#778899" d="M138.0855,-312C146.1028,-312 155.1612,-312 163.7779,-312"/>
<polygon fill="#778899" stroke="#778899" points="163.9698,-315.5001 173.9697,-312 163.9697,-308.5001 163.9698,-315.5001"/>
</g>
<!-- builtins.Exception&#45;&gt;supriya.exceptions.AlreadyAllocated -->
<g id="edge9" class="edge">
<title>builtins.Exception&#45;&gt;supriya.exceptions.AlreadyAllocated</title>
<path fill="none" stroke="#778899" d="M199.6896,-321.549C204.5,-356.6863 225.3529,-480.7058 288,-557 289.6739,-559.0385 291.5679,-560.9601 293.5935,-562.7595"/>
<polygon fill="#778899" stroke="#778899" points="291.8006,-565.7944 301.8717,-569.0845 296.0505,-560.2321 291.8006,-565.7944"/>
</g>
<!-- builtins.Exception&#45;&gt;supriya.exceptions.IncompatibleRate -->
<g id="edge10" class="edge">
<title>builtins.Exception&#45;&gt;supriya.exceptions.IncompatibleRate</title>
<path fill="none" stroke="#778899" d="M200.7922,-321.6885C208.4395,-352.3065 235.6039,-448.527 288,-509 288.62,-509.7156 289.2666,-510.4177 289.9358,-511.1059"/>
<polygon fill="#778899" stroke="#778899" points="287.9453,-514.0132 297.7883,-517.933 292.5381,-508.7306 287.9453,-514.0132"/>
</g>
<!-- builtins.Exception&#45;&gt;supriya.exceptions.NonrealtimeOutputMissing -->
<g id="edge11" class="edge">
<title>builtins.Exception&#45;&gt;supriya.exceptions.NonrealtimeOutputMissing</title>
<path fill="none" stroke="#778899" d="M203.3723,-321.8111C215.4681,-345.5645 248.7442,-407.3466 288,-450 288.418,-450.4542 288.8437,-450.9066 289.2763,-451.3571"/>
<polygon fill="#778899" stroke="#778899" points="287.0883,-454.1051 296.7589,-458.433 291.8979,-449.0191 287.0883,-454.1051"/>
</g>
<!-- builtins.Exception&#45;&gt;supriya.exceptions.NonrealtimeRenderError -->
<g id="edge12" class="edge">
<title>builtins.Exception&#45;&gt;supriya.exceptions.NonrealtimeRenderError</title>
<path fill="none" stroke="#778899" d="M209.1201,-321.5125C225.7546,-336.3534 259.0497,-365.8229 288,-390 289.1599,-390.9686 290.3435,-391.9505 291.5417,-392.9389"/>
<polygon fill="#778899" stroke="#778899" points="289.6027,-395.8741 299.5634,-399.4847 294.0284,-390.4506 289.6027,-395.8741"/>
</g>
<!-- builtins.Exception&#45;&gt;supriya.exceptions.NotAllocated -->
<g id="edge13" class="edge">
<title>builtins.Exception&#45;&gt;supriya.exceptions.NotAllocated</title>
<path fill="none" stroke="#778899" d="M220.9127,-321.5298C240.6383,-329.9171 269.6337,-342.2458 292.0946,-351.7961"/>
<polygon fill="#778899" stroke="#778899" points="291.0133,-355.1395 301.5855,-355.8316 293.7524,-348.6977 291.0133,-355.1395"/>
</g>
<!-- builtins.Exception&#45;&gt;supriya.exceptions.OwnedServerShutdown -->
<g id="edge14" class="edge">
<title>builtins.Exception&#45;&gt;supriya.exceptions.OwnedServerShutdown</title>
<path fill="none" stroke="#778899" d="M223.2884,-312C242.3083,-312 268.8211,-312 290.0778,-312"/>
<polygon fill="#778899" stroke="#778899" points="290.3402,-315.5001 300.3401,-312 290.3401,-308.5001 290.3402,-315.5001"/>
</g>
<!-- builtins.Exception&#45;&gt;supriya.exceptions.RequestTimeout -->
<g id="edge15" class="edge">
<title>builtins.Exception&#45;&gt;supriya.exceptions.RequestTimeout</title>
<path fill="none" stroke="#778899" d="M220.9127,-302.4702C241.2252,-293.8334 271.3674,-281.017 294.0817,-271.3589"/>
<polygon fill="#778899" stroke="#778899" points="295.4782,-274.5685 303.3113,-267.4345 292.7391,-268.1266 295.4782,-274.5685"/>
</g>
<!-- builtins.Exception&#45;&gt;supriya.exceptions.ServerCannotBoot -->
<g id="edge16" class="edge">
<title>builtins.Exception&#45;&gt;supriya.exceptions.ServerCannotBoot</title>
<path fill="none" stroke="#778899" d="M209.1201,-302.4875C225.7546,-287.6466 259.0497,-258.1771 288,-234 290.8557,-231.6151 293.8553,-229.1501 296.8618,-226.7054"/>
<polygon fill="#778899" stroke="#778899" points="299.1553,-229.3522 304.7425,-220.3503 294.7611,-223.9032 299.1553,-229.3522"/>
</g>
<!-- builtins.Exception&#45;&gt;supriya.exceptions.ServerOffline -->
<g id="edge17" class="edge">
<title>builtins.Exception&#45;&gt;supriya.exceptions.ServerOffline</title>
<path fill="none" stroke="#778899" d="M203.0291,-302.4349C214.5955,-278.7226 247.2096,-216.1724 288,-175 290.8309,-172.1426 294.037,-169.4247 297.3535,-166.9054"/>
<polygon fill="#778899" stroke="#778899" points="299.4851,-169.6857 305.6738,-161.0862 295.4732,-163.9494 299.4851,-169.6857"/>
</g>
<!-- builtins.Exception&#45;&gt;supriya.exceptions.TooManyClients -->
<g id="edge18" class="edge">
<title>builtins.Exception&#45;&gt;supriya.exceptions.TooManyClients</title>
<path fill="none" stroke="#778899" d="M201.4592,-302.2628C210.6447,-273.1552 240.9111,-185.1605 288,-126 290.8817,-122.3796 294.2764,-118.9189 297.8263,-115.7189"/>
<polygon fill="#778899" stroke="#778899" points="300.2533,-118.2528 305.7065,-109.1691 295.7789,-112.8696 300.2533,-118.2528"/>
</g>
<!-- builtins.Exception&#45;&gt;supriya.exceptions.UnownedServerShutdown -->
<g id="edge19" class="edge">
<title>builtins.Exception&#45;&gt;supriya.exceptions.UnownedServerShutdown</title>
<path fill="none" stroke="#778899" d="M200.1057,-302.2301C206.2192,-267.3507 230.6522,-146.7965 288,-67 289.4901,-64.9266 291.1604,-62.9199 292.9463,-60.9937"/>
<polygon fill="#778899" stroke="#778899" points="295.4611,-63.4317 300.272,-53.9921 290.6246,-58.3713 295.4611,-63.4317"/>
</g>
<!-- builtins.object&#45;&gt;builtins.BaseException -->
<g id="edge2" class="edge">
<title>builtins.object&#45;&gt;builtins.BaseException</title>
<path fill="none" stroke="#778899" d="M53.2219,-312C60.8959,-312 70.0326,-312 78.843,-312"/>
<polygon fill="#778899" stroke="#778899" points="78.9285,-315.5001 88.9285,-312 78.9285,-308.5001 78.9285,-315.5001"/>
</g>
<!-- supriya.exceptions.AlreadyAllocated&#45;&gt;supriya.exceptions.BufferAlreadyAllocated -->
<g id="edge3" class="edge">
<title>supriya.exceptions.AlreadyAllocated&#45;&gt;supriya.exceptions.BufferAlreadyAllocated</title>
<path fill="none" stroke="#778899" d="M344.8327,-565.8423C348.2821,-562.978 351.7952,-559.9526 355,-557 366.4777,-546.4255 378.5104,-534.1404 388.7279,-523.3085"/>
<polygon fill="#778899" stroke="#778899" points="391.5448,-525.4202 395.8132,-515.7232 386.4293,-520.6419 391.5448,-525.4202"/>
</g>
<!-- supriya.exceptions.AlreadyAllocated&#45;&gt;supriya.exceptions.BusAlreadyAllocated -->
<g id="edge4" class="edge">
<title>supriya.exceptions.AlreadyAllocated&#45;&gt;supriya.exceptions.BusAlreadyAllocated</title>
<path fill="none" stroke="#778899" d="M348.4877,-565.8728C360.6327,-558.6318 376.0815,-550.5631 391,-546 414.5693,-538.7908 442.2947,-536.0987 463.5477,-535.1783"/>
<polygon fill="#778899" stroke="#778899" points="463.8323,-538.6711 473.7142,-534.8504 463.6065,-531.6747 463.8323,-538.6711"/>
</g>
<!-- supriya.exceptions.AlreadyAllocated&#45;&gt;supriya.exceptions.NodeAlreadyAllocated -->
<g id="edge5" class="edge">
<title>supriya.exceptions.AlreadyAllocated&#45;&gt;supriya.exceptions.NodeAlreadyAllocated</title>
<path fill="none" stroke="#778899" d="M349.3504,-579.3921C359.0047,-578.7413 370.3253,-577.9781 380.7969,-577.2721"/>
<polygon fill="#778899" stroke="#778899" points="381.1505,-580.7563 390.8924,-576.5915 380.6796,-573.7722 381.1505,-580.7563"/>
</g>
<!-- supriya.exceptions.NotAllocated&#45;&gt;supriya.exceptions.BufferNotAllocated -->
<g id="edge6" class="edge">
<title>supriya.exceptions.NotAllocated&#45;&gt;supriya.exceptions.BufferNotAllocated</title>
<path fill="none" stroke="#778899" d="M349.3504,-355.2807C359.2059,-350.8513 370.7977,-345.6415 381.4503,-340.8538"/>
<polygon fill="#778899" stroke="#778899" points="383.2061,-343.902 390.8924,-336.6102 380.3365,-337.5172 383.2061,-343.902"/>
</g>
<!-- supriya.exceptions.NotAllocated&#45;&gt;supriya.exceptions.BusNotAllocated -->
<g id="edge7" class="edge">
<title>supriya.exceptions.NotAllocated&#45;&gt;supriya.exceptions.BusNotAllocated</title>
<path fill="none" stroke="#778899" d="M349.0552,-366C378.6934,-366 429.7997,-366 463.6272,-366"/>
<polygon fill="#778899" stroke="#778899" points="463.9539,-369.5001 473.9539,-366 463.9539,-362.5001 463.9539,-369.5001"/>
</g>
<!-- supriya.exceptions.NotAllocated&#45;&gt;supriya.exceptions.NodeNotAllocated -->
<g id="edge8" class="edge">
<title>supriya.exceptions.NotAllocated&#45;&gt;supriya.exceptions.NodeNotAllocated</title>
<path fill="none" stroke="#778899" d="M349.3504,-376.7193C359.2059,-381.1487 370.7977,-386.3585 381.4503,-391.1462"/>
<polygon fill="#778899" stroke="#778899" points="380.3365,-394.4828 390.8924,-395.3898 383.2061,-388.098 380.3365,-394.4828"/>
</g>
<!-- builtins.BaseException -->
<g id="node1" class="node">
<title>builtins.BaseException</title>
<g id="a_node1"><a xlink:href="https://docs.python.org/3.6/library/exceptions.html#BaseException" xlink:title="Base\nException" target="_top">
<path fill="#fbb4ae" stroke="#fbb4ae" stroke-width="2" d="M128,-327C128,-327 99,-327 99,-327 94,-327 89,-322 89,-317 89,-317 89,-307 89,-307 89,-302 94,-297 99,-297 99,-297 128,-297 128,-297 133,-297 138,-302 138,-307 138,-307 138,-317 138,-317 138,-322 133,-327 128,-327"/>
<text text-anchor="middle" x="113.5" y="-315" font-family="Arial" font-size="10.00" fill="#000000">Base</text>
<text text-anchor="middle" x="113.5" y="-304" font-family="Arial" font-size="10.00" fill="#000000">Exception</text>
</a>
</g>
</g>
<!-- builtins.Exception -->
<g id="node2" class="node">
<title>builtins.Exception</title>
<g id="a_node2"><a xlink:href="https://docs.python.org/3.6/library/exceptions.html#Exception" xlink:title="Exception" target="_top">
<path fill="#fbb4ae" stroke="#fbb4ae" stroke-width="2" d="M216.6667,-321.5C216.6667,-321.5 180.3333,-321.5 180.3333,-321.5 177.1667,-321.5 174,-318.3333 174,-315.1667 174,-315.1667 174,-308.8333 174,-308.8333 174,-305.6667 177.1667,-302.5 180.3333,-302.5 180.3333,-302.5 216.6667,-302.5 216.6667,-302.5 219.8333,-302.5 223,-305.6667 223,-308.8333 223,-308.8333 223,-315.1667 223,-315.1667 223,-318.3333 219.8333,-321.5 216.6667,-321.5"/>
<text text-anchor="middle" x="198.5" y="-309.5" font-family="Arial" font-size="10.00" fill="#000000">Exception</text>
</a>
</g>
</g>
<!-- builtins.object -->
<g id="node3" class="node">
<title>builtins.object</title>
<g id="a_node3"><a xlink:href="https://docs.python.org/3.6/library/functions.html#object" xlink:title="object" target="_top">
<path fill="#fbb4ae" stroke="#fbb4ae" stroke-width="2" d="M46.6667,-321.5C46.6667,-321.5 22.3333,-321.5 22.3333,-321.5 19.1667,-321.5 16,-318.3333 16,-315.1667 16,-315.1667 16,-308.8333 16,-308.8333 16,-305.6667 19.1667,-302.5 22.3333,-302.5 22.3333,-302.5 46.6667,-302.5 46.6667,-302.5 49.8333,-302.5 53,-305.6667 53,-308.8333 53,-308.8333 53,-315.1667 53,-315.1667 53,-318.3333 49.8333,-321.5 46.6667,-321.5"/>
<text text-anchor="middle" x="34.5" y="-309.5" font-family="Arial" font-size="10.00" fill="#000000">object</text>
</a>
</g>
</g>
<!-- supriya.exceptions.AlreadyAllocated -->
<g id="node4" class="node">
<title>supriya.exceptions.AlreadyAllocated</title>
<g id="a_node4"><a xlink:href="../api/supriya/exceptions.html#supriya.exceptions.AlreadyAllocated" xlink:title="Already\nAllocated" target="_top">
<path fill="#000000" stroke="#000000" stroke-width="2" d="M339,-596C339,-596 312,-596 312,-596 307,-596 302,-591 302,-586 302,-586 302,-576 302,-576 302,-571 307,-566 312,-566 312,-566 339,-566 339,-566 344,-566 349,-571 349,-576 349,-576 349,-586 349,-586 349,-591 344,-596 339,-596"/>
<text text-anchor="middle" x="325.5" y="-584" font-family="Arial" font-size="10.00" fill="#ffffff">Already</text>
<text text-anchor="middle" x="325.5" y="-573" font-family="Arial" font-size="10.00" fill="#ffffff">Allocated</text>
</a>
</g>
</g>
<!-- supriya.exceptions.BufferAlreadyAllocated -->
<g id="node5" class="node">
<title>supriya.exceptions.BufferAlreadyAllocated</title>
<g id="a_node5"><a xlink:href="../api/supriya/exceptions.html#supriya.exceptions.BufferAlreadyAllocated" xlink:title="Buffer\nAlready\nAllocated" target="_top">
<path fill="#000000" stroke="#000000" stroke-width="2" d="M426,-515.5C426,-515.5 403,-515.5 403,-515.5 397,-515.5 391,-509.5 391,-503.5 391,-503.5 391,-486.5 391,-486.5 391,-480.5 397,-474.5 403,-474.5 403,-474.5 426,-474.5 426,-474.5 432,-474.5 438,-480.5 438,-486.5 438,-486.5 438,-503.5 438,-503.5 438,-509.5 432,-515.5 426,-515.5"/>
<text text-anchor="middle" x="414.5" y="-503.5" font-family="Arial" font-size="10.00" fill="#ffffff">Buffer</text>
<text text-anchor="middle" x="414.5" y="-492.5" font-family="Arial" font-size="10.00" fill="#ffffff">Already</text>
<text text-anchor="middle" x="414.5" y="-481.5" font-family="Arial" font-size="10.00" fill="#ffffff">Allocated</text>
</a>
</g>
</g>
<!-- supriya.exceptions.BusAlreadyAllocated -->
<g id="node6" class="node">
<title>supriya.exceptions.BusAlreadyAllocated</title>
<g id="a_node6"><a xlink:href="../api/supriya/exceptions.html#supriya.exceptions.BusAlreadyAllocated" xlink:title="Bus\nAlready\nAllocated" target="_top">
<path fill="#000000" stroke="#000000" stroke-width="2" d="M509,-555.5C509,-555.5 486,-555.5 486,-555.5 480,-555.5 474,-549.5 474,-543.5 474,-543.5 474,-526.5 474,-526.5 474,-520.5 480,-514.5 486,-514.5 486,-514.5 509,-514.5 509,-514.5 515,-514.5 521,-520.5 521,-526.5 521,-526.5 521,-543.5 521,-543.5 521,-549.5 515,-555.5 509,-555.5"/>
<text text-anchor="middle" x="497.5" y="-543.5" font-family="Arial" font-size="10.00" fill="#ffffff">Bus</text>
<text text-anchor="middle" x="497.5" y="-532.5" font-family="Arial" font-size="10.00" fill="#ffffff">Already</text>
<text text-anchor="middle" x="497.5" y="-521.5" font-family="Arial" font-size="10.00" fill="#ffffff">Allocated</text>
</a>
</g>
</g>
<!-- supriya.exceptions.NodeAlreadyAllocated -->
<g id="node7" class="node">
<title>supriya.exceptions.NodeAlreadyAllocated</title>
<g id="a_node7"><a xlink:href="../api/supriya/exceptions.html#supriya.exceptions.NodeAlreadyAllocated" xlink:title="Node\nAlready\nAllocated" target="_top">
<path fill="#000000" stroke="#000000" stroke-width="2" d="M426,-595.5C426,-595.5 403,-595.5 403,-595.5 397,-595.5 391,-589.5 391,-583.5 391,-583.5 391,-566.5 391,-566.5 391,-560.5 397,-554.5 403,-554.5 403,-554.5 426,-554.5 426,-554.5 432,-554.5 438,-560.5 438,-566.5 438,-566.5 438,-583.5 438,-583.5 438,-589.5 432,-595.5 426,-595.5"/>
<text text-anchor="middle" x="414.5" y="-583.5" font-family="Arial" font-size="10.00" fill="#ffffff">Node</text>
<text text-anchor="middle" x="414.5" y="-572.5" font-family="Arial" font-size="10.00" fill="#ffffff">Already</text>
<text text-anchor="middle" x="414.5" y="-561.5" font-family="Arial" font-size="10.00" fill="#ffffff">Allocated</text>
</a>
</g>
</g>
<!-- supriya.exceptions.BufferNotAllocated -->
<g id="node8" class="node">
<title>supriya.exceptions.BufferNotAllocated</title>
<g id="a_node8"><a xlink:href="../api/supriya/exceptions.html#supriya.exceptions.BufferNotAllocated" xlink:title="Buffer\nNot\nAllocated" target="_top">
<path fill="#000000" stroke="#000000" stroke-width="2" d="M426,-346.5C426,-346.5 403,-346.5 403,-346.5 397,-346.5 391,-340.5 391,-334.5 391,-334.5 391,-317.5 391,-317.5 391,-311.5 397,-305.5 403,-305.5 403,-305.5 426,-305.5 426,-305.5 432,-305.5 438,-311.5 438,-317.5 438,-317.5 438,-334.5 438,-334.5 438,-340.5 432,-346.5 426,-346.5"/>
<text text-anchor="middle" x="414.5" y="-334.5" font-family="Arial" font-size="10.00" fill="#ffffff">Buffer</text>
<text text-anchor="middle" x="414.5" y="-323.5" font-family="Arial" font-size="10.00" fill="#ffffff">Not</text>
<text text-anchor="middle" x="414.5" y="-312.5" font-family="Arial" font-size="10.00" fill="#ffffff">Allocated</text>
</a>
</g>
</g>
<!-- supriya.exceptions.BusNotAllocated -->
<g id="node9" class="node">
<title>supriya.exceptions.BusNotAllocated</title>
<g id="a_node9"><a xlink:href="../api/supriya/exceptions.html#supriya.exceptions.BusNotAllocated" xlink:title="Bus\nNot\nAllocated" target="_top">
<path fill="#000000" stroke="#000000" stroke-width="2" d="M509,-386.5C509,-386.5 486,-386.5 486,-386.5 480,-386.5 474,-380.5 474,-374.5 474,-374.5 474,-357.5 474,-357.5 474,-351.5 480,-345.5 486,-345.5 486,-345.5 509,-345.5 509,-345.5 515,-345.5 521,-351.5 521,-357.5 521,-357.5 521,-374.5 521,-374.5 521,-380.5 515,-386.5 509,-386.5"/>
<text text-anchor="middle" x="497.5" y="-374.5" font-family="Arial" font-size="10.00" fill="#ffffff">Bus</text>
<text text-anchor="middle" x="497.5" y="-363.5" font-family="Arial" font-size="10.00" fill="#ffffff">Not</text>
<text text-anchor="middle" x="497.5" y="-352.5" font-family="Arial" font-size="10.00" fill="#ffffff">Allocated</text>
</a>
</g>
</g>
<!-- supriya.exceptions.IncompatibleRate -->
<g id="node10" class="node">
<title>supriya.exceptions.IncompatibleRate</title>
<g id="a_node10"><a xlink:href="../api/supriya/exceptions.html#supriya.exceptions.IncompatibleRate" xlink:title="Incompatible\nRate" target="_top">
<path fill="#000000" stroke="#000000" stroke-width="2" d="M345,-548C345,-548 306,-548 306,-548 301,-548 296,-543 296,-538 296,-538 296,-528 296,-528 296,-523 301,-518 306,-518 306,-518 345,-518 345,-518 350,-518 355,-523 355,-528 355,-528 355,-538 355,-538 355,-543 350,-548 345,-548"/>
<text text-anchor="middle" x="325.5" y="-536" font-family="Arial" font-size="10.00" fill="#ffffff">Incompatible</text>
<text text-anchor="middle" x="325.5" y="-525" font-family="Arial" font-size="10.00" fill="#ffffff">Rate</text>
</a>
</g>
</g>
<!-- supriya.exceptions.NodeNotAllocated -->
<g id="node11" class="node">
<title>supriya.exceptions.NodeNotAllocated</title>
<g id="a_node11"><a xlink:href="../api/supriya/exceptions.html#supriya.exceptions.NodeNotAllocated" xlink:title="Node\nNot\nAllocated" target="_top">
<path fill="#000000" stroke="#000000" stroke-width="2" d="M426,-426.5C426,-426.5 403,-426.5 403,-426.5 397,-426.5 391,-420.5 391,-414.5 391,-414.5 391,-397.5 391,-397.5 391,-391.5 397,-385.5 403,-385.5 403,-385.5 426,-385.5 426,-385.5 432,-385.5 438,-391.5 438,-397.5 438,-397.5 438,-414.5 438,-414.5 438,-420.5 432,-426.5 426,-426.5"/>
<text text-anchor="middle" x="414.5" y="-414.5" font-family="Arial" font-size="10.00" fill="#ffffff">Node</text>
<text text-anchor="middle" x="414.5" y="-403.5" font-family="Arial" font-size="10.00" fill="#ffffff">Not</text>
<text text-anchor="middle" x="414.5" y="-392.5" font-family="Arial" font-size="10.00" fill="#ffffff">Allocated</text>
</a>
</g>
</g>
<!-- supriya.exceptions.NonrealtimeOutputMissing -->
<g id="node12" class="node">
<title>supriya.exceptions.NonrealtimeOutputMissing</title>
<g id="a_node12"><a xlink:href="../api/supriya/exceptions.html#supriya.exceptions.NonrealtimeOutputMissing" xlink:title="Nonrealtime\nOutput\nMissing" target="_top">
<path fill="#000000" stroke="#000000" stroke-width="2" d="M342,-499.5C342,-499.5 309,-499.5 309,-499.5 303,-499.5 297,-493.5 297,-487.5 297,-487.5 297,-470.5 297,-470.5 297,-464.5 303,-458.5 309,-458.5 309,-458.5 342,-458.5 342,-458.5 348,-458.5 354,-464.5 354,-470.5 354,-470.5 354,-487.5 354,-487.5 354,-493.5 348,-499.5 342,-499.5"/>
<text text-anchor="middle" x="325.5" y="-487.5" font-family="Arial" font-size="10.00" fill="#ffffff">Nonrealtime</text>
<text text-anchor="middle" x="325.5" y="-476.5" font-family="Arial" font-size="10.00" fill="#ffffff">Output</text>
<text text-anchor="middle" x="325.5" y="-465.5" font-family="Arial" font-size="10.00" fill="#ffffff">Missing</text>
</a>
</g>
</g>
<!-- supriya.exceptions.NonrealtimeRenderError -->
<g id="node13" class="node">
<title>supriya.exceptions.NonrealtimeRenderError</title>
<g id="a_node13"><a xlink:href="../api/supriya/exceptions.html#supriya.exceptions.NonrealtimeRenderError" xlink:title="Nonrealtime\nRender\nError" target="_top">
<path fill="#000000" stroke="#000000" stroke-width="2" d="M342,-440.5C342,-440.5 309,-440.5 309,-440.5 303,-440.5 297,-434.5 297,-428.5 297,-428.5 297,-411.5 297,-411.5 297,-405.5 303,-399.5 309,-399.5 309,-399.5 342,-399.5 342,-399.5 348,-399.5 354,-405.5 354,-411.5 354,-411.5 354,-428.5 354,-428.5 354,-434.5 348,-440.5 342,-440.5"/>
<text text-anchor="middle" x="325.5" y="-428.5" font-family="Arial" font-size="10.00" fill="#ffffff">Nonrealtime</text>
<text text-anchor="middle" x="325.5" y="-417.5" font-family="Arial" font-size="10.00" fill="#ffffff">Render</text>
<text text-anchor="middle" x="325.5" y="-406.5" font-family="Arial" font-size="10.00" fill="#ffffff">Error</text>
</a>
</g>
</g>
<!-- supriya.exceptions.NotAllocated -->
<g id="node14" class="node">
<title>supriya.exceptions.NotAllocated</title>
<g id="a_node14"><a xlink:href="../api/supriya/exceptions.html#supriya.exceptions.NotAllocated" xlink:title="Not\nAllocated" target="_top">
<path fill="#000000" stroke="#000000" stroke-width="2" d="M339,-381C339,-381 312,-381 312,-381 307,-381 302,-376 302,-371 302,-371 302,-361 302,-361 302,-356 307,-351 312,-351 312,-351 339,-351 339,-351 344,-351 349,-356 349,-361 349,-361 349,-371 349,-371 349,-376 344,-381 339,-381"/>
<text text-anchor="middle" x="325.5" y="-369" font-family="Arial" font-size="10.00" fill="#ffffff">Not</text>
<text text-anchor="middle" x="325.5" y="-358" font-family="Arial" font-size="10.00" fill="#ffffff">Allocated</text>
</a>
</g>
</g>
<!-- supriya.exceptions.OwnedServerShutdown -->
<g id="node15" class="node">
<title>supriya.exceptions.OwnedServerShutdown</title>
<g id="a_node15"><a xlink:href="../api/supriya/exceptions.html#supriya.exceptions.OwnedServerShutdown" xlink:title="Owned\nServer\nShutdown" target="_top">
<path fill="#000000" stroke="#000000" stroke-width="2" d="M338.5,-332.5C338.5,-332.5 312.5,-332.5 312.5,-332.5 306.5,-332.5 300.5,-326.5 300.5,-320.5 300.5,-320.5 300.5,-303.5 300.5,-303.5 300.5,-297.5 306.5,-291.5 312.5,-291.5 312.5,-291.5 338.5,-291.5 338.5,-291.5 344.5,-291.5 350.5,-297.5 350.5,-303.5 350.5,-303.5 350.5,-320.5 350.5,-320.5 350.5,-326.5 344.5,-332.5 338.5,-332.5"/>
<text text-anchor="middle" x="325.5" y="-320.5" font-family="Arial" font-size="10.00" fill="#ffffff">Owned</text>
<text text-anchor="middle" x="325.5" y="-309.5" font-family="Arial" font-size="10.00" fill="#ffffff">Server</text>
<text text-anchor="middle" x="325.5" y="-298.5" font-family="Arial" font-size="10.00" fill="#ffffff">Shutdown</text>
</a>
</g>
</g>
<!-- supriya.exceptions.RequestTimeout -->
<g id="node16" class="node">
<title>supriya.exceptions.RequestTimeout</title>
<g id="a_node16"><a xlink:href="../api/supriya/exceptions.html#supriya.exceptions.RequestTimeout" xlink:title="Request\nTimeout" target="_top">
<path fill="#000000" stroke="#000000" stroke-width="2" d="M337.5,-273C337.5,-273 313.5,-273 313.5,-273 308.5,-273 303.5,-268 303.5,-263 303.5,-263 303.5,-253 303.5,-253 303.5,-248 308.5,-243 313.5,-243 313.5,-243 337.5,-243 337.5,-243 342.5,-243 347.5,-248 347.5,-253 347.5,-253 347.5,-263 347.5,-263 347.5,-268 342.5,-273 337.5,-273"/>
<text text-anchor="middle" x="325.5" y="-261" font-family="Arial" font-size="10.00" fill="#ffffff">Request</text>
<text text-anchor="middle" x="325.5" y="-250" font-family="Arial" font-size="10.00" fill="#ffffff">Timeout</text>
</a>
</g>
</g>
<!-- supriya.exceptions.ServerCannotBoot -->
<g id="node17" class="node">
<title>supriya.exceptions.ServerCannotBoot</title>
<g id="a_node17"><a xlink:href="../api/supriya/exceptions.html#supriya.exceptions.ServerCannotBoot" xlink:title="Server\nCannot\nBoot" target="_top">
<path fill="#000000" stroke="#000000" stroke-width="2" d="M334,-224.5C334,-224.5 317,-224.5 317,-224.5 311,-224.5 305,-218.5 305,-212.5 305,-212.5 305,-195.5 305,-195.5 305,-189.5 311,-183.5 317,-183.5 317,-183.5 334,-183.5 334,-183.5 340,-183.5 346,-189.5 346,-195.5 346,-195.5 346,-212.5 346,-212.5 346,-218.5 340,-224.5 334,-224.5"/>
<text text-anchor="middle" x="325.5" y="-212.5" font-family="Arial" font-size="10.00" fill="#ffffff">Server</text>
<text text-anchor="middle" x="325.5" y="-201.5" font-family="Arial" font-size="10.00" fill="#ffffff">Cannot</text>
<text text-anchor="middle" x="325.5" y="-190.5" font-family="Arial" font-size="10.00" fill="#ffffff">Boot</text>
</a>
</g>
</g>
<!-- supriya.exceptions.ServerOffline -->
<g id="node18" class="node">
<title>supriya.exceptions.ServerOffline</title>
<g id="a_node18"><a xlink:href="../api/supriya/exceptions.html#supriya.exceptions.ServerOffline" xlink:title="Server\nOffline" target="_top">
<path fill="#000000" stroke="#000000" stroke-width="2" d="M335,-165C335,-165 316,-165 316,-165 311,-165 306,-160 306,-155 306,-155 306,-145 306,-145 306,-140 311,-135 316,-135 316,-135 335,-135 335,-135 340,-135 345,-140 345,-145 345,-145 345,-155 345,-155 345,-160 340,-165 335,-165"/>
<text text-anchor="middle" x="325.5" y="-153" font-family="Arial" font-size="10.00" fill="#ffffff">Server</text>
<text text-anchor="middle" x="325.5" y="-142" font-family="Arial" font-size="10.00" fill="#ffffff">Offline</text>
</a>
</g>
</g>
<!-- supriya.exceptions.TooManyClients -->
<g id="node19" class="node">
<title>supriya.exceptions.TooManyClients</title>
<g id="a_node19"><a xlink:href="../api/supriya/exceptions.html#supriya.exceptions.TooManyClients" xlink:title="Too\nMany\nClients" target="_top">
<path fill="#000000" stroke="#000000" stroke-width="2" d="M333,-116.5C333,-116.5 318,-116.5 318,-116.5 312,-116.5 306,-110.5 306,-104.5 306,-104.5 306,-87.5 306,-87.5 306,-81.5 312,-75.5 318,-75.5 318,-75.5 333,-75.5 333,-75.5 339,-75.5 345,-81.5 345,-87.5 345,-87.5 345,-104.5 345,-104.5 345,-110.5 339,-116.5 333,-116.5"/>
<text text-anchor="middle" x="325.5" y="-104.5" font-family="Arial" font-size="10.00" fill="#ffffff">Too</text>
<text text-anchor="middle" x="325.5" y="-93.5" font-family="Arial" font-size="10.00" fill="#ffffff">Many</text>
<text text-anchor="middle" x="325.5" y="-82.5" font-family="Arial" font-size="10.00" fill="#ffffff">Clients</text>
</a>
</g>
</g>
<!-- supriya.exceptions.UnownedServerShutdown -->
<g id="node20" class="node">
<title>supriya.exceptions.UnownedServerShutdown</title>
<g id="a_node20"><a xlink:href="../api/supriya/exceptions.html#supriya.exceptions.UnownedServerShutdown" xlink:title="Unowned\nServer\nShutdown" target="_top">
<path fill="#000000" stroke="#000000" stroke-width="2" d="M338.5,-57.5C338.5,-57.5 312.5,-57.5 312.5,-57.5 306.5,-57.5 300.5,-51.5 300.5,-45.5 300.5,-45.5 300.5,-28.5 300.5,-28.5 300.5,-22.5 306.5,-16.5 312.5,-16.5 312.5,-16.5 338.5,-16.5 338.5,-16.5 344.5,-16.5 350.5,-22.5 350.5,-28.5 350.5,-28.5 350.5,-45.5 350.5,-45.5 350.5,-51.5 344.5,-57.5 338.5,-57.5"/>
<text text-anchor="middle" x="325.5" y="-45.5" font-family="Arial" font-size="10.00" fill="#ffffff">Unowned</text>
<text text-anchor="middle" x="325.5" y="-34.5" font-family="Arial" font-size="10.00" fill="#ffffff">Server</text>
<text text-anchor="middle" x="325.5" y="-23.5" font-family="Arial" font-size="10.00" fill="#ffffff">Shutdown</text>
</a>
</g>
</g>
</g>
</svg>
