<?xml version="1.0" encoding="UTF-8" standalone="no"?>
<!DOCTYPE svg PUBLIC "-//W3C//DTD SVG 1.1//EN"
 "http://www.w3.org/Graphics/SVG/1.1/DTD/svg11.dtd">
<!-- Generated by graphviz version 2.44.1 (20200629.0846)
 -->
<!-- Title: InheritanceGraph Pages: 1 -->
<svg width="434pt" height="186pt"
 viewBox="0.00 0.00 433.64 186.00" xmlns="http://www.w3.org/2000/svg" xmlns:xlink="http://www.w3.org/1999/xlink">
<g id="graph0" class="graph" transform="scale(1 1) rotate(0) translate(4 182)">
<title>InheritanceGraph</title>
<g id="clust1" class="cluster">
<title>cluster_builtins</title>
<path fill="transparent" stroke="#bcd2ee" stroke-width="2" stroke-dasharray="5,2" d="M20,-101C20,-101 55,-101 55,-101 61,-101 67,-107 67,-113 67,-113 67,-144 67,-144 67,-150 61,-156 55,-156 55,-156 20,-156 20,-156 14,-156 8,-150 8,-144 8,-144 8,-113 8,-113 8,-107 14,-101 20,-101"/>
<text text-anchor="middle" x="37.5" y="-144" font-family="Arial" font-size="10.00">builtins</text>
</g>
<g id="clust2" class="cluster">
<title>cluster_supriya.realtime.bases</title>
<path fill="transparent" stroke="#bcd2ee" stroke-width="2" stroke-dasharray="5,2" d="M185,-8C185,-8 275.64,-8 275.64,-8 281.64,-8 287.64,-14 287.64,-20 287.64,-20 287.64,-73 287.64,-73 287.64,-79 281.64,-85 275.64,-85 275.64,-85 185,-85 185,-85 179,-85 173,-79 173,-73 173,-73 173,-20 173,-20 173,-14 179,-8 185,-8"/>
<text text-anchor="middle" x="230.32" y="-73" font-family="Arial" font-size="10.00">supriya.realtime.bases</text>
</g>
<g id="clust3" class="cluster">
<title>cluster_supriya.realtime.buffers</title>
<path fill="transparent" stroke="#bcd2ee" stroke-width="2" stroke-dasharray="5,2" d="M319.64,-13C319.64,-13 413.64,-13 413.64,-13 419.64,-13 425.64,-19 425.64,-25 425.64,-25 425.64,-152 425.64,-152 425.64,-158 419.64,-164 413.64,-164 413.64,-164 319.64,-164 319.64,-164 313.64,-164 307.64,-158 307.64,-152 307.64,-152 307.64,-25 307.64,-25 307.64,-19 313.64,-13 319.64,-13"/>
<text text-anchor="middle" x="366.64" y="-152" font-family="Arial" font-size="10.00">supriya.realtime.buffers</text>
</g>
<g id="clust4" class="cluster">
<title>cluster_supriya.system</title>
<path fill="transparent" stroke="#bcd2ee" stroke-width="2" stroke-dasharray="5,2" d="M99,-93C99,-93 250.82,-93 250.82,-93 256.82,-93 262.82,-99 262.82,-105 262.82,-105 262.82,-158 262.82,-158 262.82,-164 256.82,-170 250.82,-170 250.82,-170 99,-170 99,-170 93,-170 87,-164 87,-158 87,-158 87,-105 87,-105 87,-99 93,-93 99,-93"/>
<text text-anchor="middle" x="174.91" y="-158" font-family="Arial" font-size="10.00">supriya.system</text>
</g>
<!-- builtins.object&#45;&gt;supriya.system.SupriyaObject -->
<g id="edge2" class="edge">
<title>builtins.object&#45;&gt;supriya.system.SupriyaObject</title>
<path fill="none" stroke="lightslategrey" d="M59.23,-119C66.98,-119 76,-119 84.66,-119"/>
<polygon fill="lightslategrey" stroke="lightslategrey" points="84.91,-122.5 94.91,-119 84.91,-115.5 84.91,-122.5"/>
</g>
<!-- supriya.realtime.bases.ServerObject&#45;&gt;supriya.realtime.buffers.Buffer -->
<g id="edge3" class="edge">
<title>supriya.realtime.bases.ServerObject&#45;&gt;supriya.realtime.buffers.Buffer</title>
<path fill="none" stroke="lightslategrey" d="M258.98,-45.8C281.26,-52.77 312.31,-62.48 335.07,-69.6"/>
<polygon fill="lightslategrey" stroke="lightslategrey" points="334.3,-73.02 344.88,-72.67 336.38,-66.34 334.3,-73.02"/>
</g>
<!-- supriya.realtime.bases.ServerObject&#45;&gt;supriya.realtime.buffers.BufferGroup -->
<g id="edge4" class="edge">
<title>supriya.realtime.bases.ServerObject&#45;&gt;supriya.realtime.buffers.BufferGroup</title>
<path fill="none" stroke="lightslategrey" d="M261.97,-36.77C283.82,-36.61 312.88,-36.39 334.59,-36.23"/>
<polygon fill="lightslategrey" stroke="lightslategrey" points="334.62,-39.73 344.59,-36.15 334.57,-32.73 334.62,-39.73"/>
</g>
<!-- supriya.system.SupriyaObject&#45;&gt;supriya.realtime.bases.ServerObject -->
<g id="edge5" class="edge">
<title>supriya.system.SupriyaObject&#45;&gt;supriya.realtime.bases.ServerObject</title>
<path fill="none" stroke="lightslategrey" d="M140.78,-103.96C157.33,-91.37 181.18,-73.23 199.88,-59.01"/>
<polygon fill="lightslategrey" stroke="lightslategrey" points="202.23,-61.62 208.07,-52.78 197.99,-56.05 202.23,-61.62"/>
</g>
<!-- supriya.system.SupriyaObject&#45;&gt;supriya.system.SupriyaValueObject -->
<g id="edge1" class="edge">
<title>supriya.system.SupriyaObject&#45;&gt;supriya.system.SupriyaValueObject</title>
<path fill="none" stroke="lightslategrey" d="M145.2,-119.67C159.76,-120.08 178.54,-120.6 194.61,-121.05"/>
<polygon fill="lightslategrey" stroke="lightslategrey" points="194.61,-124.55 204.7,-121.33 194.8,-117.55 194.61,-124.55"/>
</g>
<!-- supriya.system.SupriyaValueObject&#45;&gt;supriya.realtime.buffers.BufferProxy -->
<g id="edge6" class="edge">
<title>supriya.system.SupriyaValueObject&#45;&gt;supriya.realtime.buffers.BufferProxy</title>
<path fill="none" stroke="lightslategrey" d="M254.83,-122C277.18,-122 310.59,-122 334.78,-122"/>
<polygon fill="lightslategrey" stroke="lightslategrey" points="334.84,-125.5 344.84,-122 334.84,-118.5 334.84,-125.5"/>
</g>
<!-- builtins.object -->
<g id="node1" class="node">
<title>builtins.object</title>
<g id="a_node1"><a xlink:href="https://docs.python.org/3/library/functions.html#object" xlink:title="object" target="_top">
<path fill="#fbb4ae" stroke="#fbb4ae" stroke-width="2" d="M52.67,-128.5C52.67,-128.5 22.33,-128.5 22.33,-128.5 19.17,-128.5 16,-125.33 16,-122.17 16,-122.17 16,-115.83 16,-115.83 16,-112.67 19.17,-109.5 22.33,-109.5 22.33,-109.5 52.67,-109.5 52.67,-109.5 55.83,-109.5 59,-112.67 59,-115.83 59,-115.83 59,-122.17 59,-122.17 59,-125.33 55.83,-128.5 52.67,-128.5"/>
<text text-anchor="middle" x="37.5" y="-116.5" font-family="Arial" font-size="10.00">object</text>
</a>
</g>
</g>
<!-- supriya.realtime.bases.ServerObject -->
<g id="node2" class="node">
<title>supriya.realtime.bases.ServerObject</title>
<g id="a_node2"><a xlink:href="../api/supriya/realtime/bases.html#supriya.realtime.bases.ServerObject" xlink:title="Server\nObject" target="_top">
<ellipse fill="none" stroke="#b3cde3" stroke-width="2" cx="229.82" cy="-37" rx="31.64" ry="21.43"/>
<text text-anchor="middle" x="229.82" y="-40" font-family="Arial" font-size="10.00">Server</text>
<text text-anchor="middle" x="229.82" y="-29" font-family="Arial" font-size="10.00">Object</text>
</a>
</g>
</g>
<!-- supriya.realtime.buffers.Buffer -->
<g id="node3" class="node">
<title>supriya.realtime.buffers.Buffer</title>
<g id="a_node3"><a xlink:href="../api/supriya/realtime/buffers.html#supriya.realtime.buffers.Buffer" xlink:title="Buffer" target="_top">
<path fill="black" stroke="black" stroke-width="2" d="M380.81,-88.5C380.81,-88.5 351.47,-88.5 351.47,-88.5 348.31,-88.5 345.14,-85.33 345.14,-82.17 345.14,-82.17 345.14,-75.83 345.14,-75.83 345.14,-72.67 348.31,-69.5 351.47,-69.5 351.47,-69.5 380.81,-69.5 380.81,-69.5 383.97,-69.5 387.14,-72.67 387.14,-75.83 387.14,-75.83 387.14,-82.17 387.14,-82.17 387.14,-85.33 383.97,-88.5 380.81,-88.5"/>
<text text-anchor="middle" x="366.14" y="-76.5" font-family="Arial" font-size="10.00" fill="white">Buffer</text>
</a>
</g>
</g>
<!-- supriya.realtime.buffers.BufferGroup -->
<g id="node4" class="node">
<title>supriya.realtime.buffers.BufferGroup</title>
<g id="a_node4"><a xlink:href="../api/supriya/realtime/buffers.html#supriya.realtime.buffers.BufferGroup" xlink:title="Buffer\nGroup" target="_top">
<path fill="black" stroke="black" stroke-width="2" d="M377.64,-51C377.64,-51 354.64,-51 354.64,-51 349.64,-51 344.64,-46 344.64,-41 344.64,-41 344.64,-31 344.64,-31 344.64,-26 349.64,-21 354.64,-21 354.64,-21 377.64,-21 377.64,-21 382.64,-21 387.64,-26 387.64,-31 387.64,-31 387.64,-41 387.64,-41 387.64,-46 382.64,-51 377.64,-51"/>
<text text-anchor="middle" x="366.14" y="-39" font-family="Arial" font-size="10.00" fill="white">Buffer</text>
<text text-anchor="middle" x="366.14" y="-28" font-family="Arial" font-size="10.00" fill="white">Group</text>
</a>
</g>
</g>
<!-- supriya.realtime.buffers.BufferProxy -->
<g id="node5" class="node">
<title>supriya.realtime.buffers.BufferProxy</title>
<g id="a_node5"><a xlink:href="../api/supriya/realtime/buffers.html#supriya.realtime.buffers.BufferProxy" xlink:title="Buffer\nProxy" target="_top">
<path fill="black" stroke="black" stroke-width="2" d="M377.14,-137C377.14,-137 355.14,-137 355.14,-137 350.14,-137 345.14,-132 345.14,-127 345.14,-127 345.14,-117 345.14,-117 345.14,-112 350.14,-107 355.14,-107 355.14,-107 377.14,-107 377.14,-107 382.14,-107 387.14,-112 387.14,-117 387.14,-117 387.14,-127 387.14,-127 387.14,-132 382.14,-137 377.14,-137"/>
<text text-anchor="middle" x="366.14" y="-125" font-family="Arial" font-size="10.00" fill="white">Buffer</text>
<text text-anchor="middle" x="366.14" y="-114" font-family="Arial" font-size="10.00" fill="white">Proxy</text>
</a>
</g>
</g>
<!-- supriya.system.SupriyaObject -->
<g id="node6" class="node">
<title>supriya.system.SupriyaObject</title>
<g id="a_node6"><a xlink:href="../api/supriya/realtime/../system.html#supriya.system.SupriyaObject" xlink:title="Supriya\nObject" target="_top">
<path fill="#decbe4" stroke="#decbe4" stroke-width="2" d="M135,-134C135,-134 105,-134 105,-134 100,-134 95,-129 95,-124 95,-124 95,-114 95,-114 95,-109 100,-104 105,-104 105,-104 135,-104 135,-104 140,-104 145,-109 145,-114 145,-114 145,-124 145,-124 145,-129 140,-134 135,-134"/>
<text text-anchor="middle" x="120" y="-122" font-family="Arial" font-size="10.00">Supriya</text>
<text text-anchor="middle" x="120" y="-111" font-family="Arial" font-size="10.00">Object</text>
</a>
</g>
</g>
<!-- supriya.system.SupriyaValueObject -->
<g id="node7" class="node">
<title>supriya.system.SupriyaValueObject</title>
<g id="a_node7"><a xlink:href="../api/supriya/realtime/../system.html#supriya.system.SupriyaValueObject" xlink:title="Supriya\nValue\nObject" target="_top">
<path fill="#decbe4" stroke="#decbe4" stroke-width="2" d="M242.82,-142.5C242.82,-142.5 216.82,-142.5 216.82,-142.5 210.82,-142.5 204.82,-136.5 204.82,-130.5 204.82,-130.5 204.82,-113.5 204.82,-113.5 204.82,-107.5 210.82,-101.5 216.82,-101.5 216.82,-101.5 242.82,-101.5 242.82,-101.5 248.82,-101.5 254.82,-107.5 254.82,-113.5 254.82,-113.5 254.82,-130.5 254.82,-130.5 254.82,-136.5 248.82,-142.5 242.82,-142.5"/>
<text text-anchor="middle" x="229.82" y="-130.5" font-family="Arial" font-size="10.00">Supriya</text>
<text text-anchor="middle" x="229.82" y="-119.5" font-family="Arial" font-size="10.00">Value</text>
<text text-anchor="middle" x="229.82" y="-108.5" font-family="Arial" font-size="10.00">Object</text>
</a>
</g>
</g>
</g>
</svg>
