<?xml version="1.0" encoding="UTF-8" standalone="no"?>
<!DOCTYPE svg PUBLIC "-//W3C//DTD SVG 1.1//EN"
 "http://www.w3.org/Graphics/SVG/1.1/DTD/svg11.dtd">
<!-- Generated by graphviz version 2.44.1 (20200629.0846)
 -->
<!-- Title: InheritanceGraph Pages: 1 -->
<svg width="463pt" height="234pt"
 viewBox="0.00 0.00 462.54 234.00" xmlns="http://www.w3.org/2000/svg" xmlns:xlink="http://www.w3.org/1999/xlink">
<g id="graph0" class="graph" transform="scale(1 1) rotate(0) translate(4 230)">
<title>InheritanceGraph</title>
<g id="clust1" class="cluster">
<title>cluster_builtins</title>
<path fill="transparent" stroke="#bcd2ee" stroke-width="2" stroke-dasharray="5,2" d="M20,-82C20,-82 55,-82 55,-82 61,-82 67,-88 67,-94 67,-94 67,-125 67,-125 67,-131 61,-137 55,-137 55,-137 20,-137 20,-137 14,-137 8,-131 8,-125 8,-125 8,-94 8,-94 8,-88 14,-82 20,-82"/>
<text text-anchor="middle" x="37.5" y="-125" font-family="Arial" font-size="10.00">builtins</text>
</g>
<g id="clust2" class="cluster">
<title>cluster_supriya.nonrealtime.bases</title>
<path fill="transparent" stroke="#bcd2ee" stroke-width="2" stroke-dasharray="5,2" d="M185,-56C185,-56 291.54,-56 291.54,-56 297.54,-56 303.54,-62 303.54,-68 303.54,-68 303.54,-121 303.54,-121 303.54,-127 297.54,-133 291.54,-133 291.54,-133 185,-133 185,-133 179,-133 173,-127 173,-121 173,-121 173,-68 173,-68 173,-62 179,-56 185,-56"/>
<text text-anchor="middle" x="238.27" y="-121" font-family="Arial" font-size="10.00">supriya.nonrealtime.bases</text>
</g>
<g id="clust3" class="cluster">
<title>cluster_supriya.nonrealtime.states</title>
<path fill="transparent" stroke="#bcd2ee" stroke-width="2" stroke-dasharray="5,2" d="M335.54,-8C335.54,-8 442.54,-8 442.54,-8 448.54,-8 454.54,-14 454.54,-20 454.54,-20 454.54,-195 454.54,-195 454.54,-201 448.54,-207 442.54,-207 442.54,-207 335.54,-207 335.54,-207 329.54,-207 323.54,-201 323.54,-195 323.54,-195 323.54,-20 323.54,-20 323.54,-14 329.54,-8 335.54,-8"/>
<text text-anchor="middle" x="389.04" y="-195" font-family="Arial" font-size="10.00">supriya.nonrealtime.states</text>
</g>
<g id="clust4" class="cluster">
<title>cluster_supriya.system</title>
<path fill="transparent" stroke="#bcd2ee" stroke-width="2" stroke-dasharray="5,2" d="M99,-141C99,-141 258.77,-141 258.77,-141 264.77,-141 270.77,-147 270.77,-153 270.77,-153 270.77,-206 270.77,-206 270.77,-212 264.77,-218 258.77,-218 258.77,-218 99,-218 99,-218 93,-218 87,-212 87,-206 87,-206 87,-153 87,-153 87,-147 93,-141 99,-141"/>
<text text-anchor="middle" x="178.88" y="-206" font-family="Arial" font-size="10.00">supriya.system</text>
</g>
<!-- builtins.object&#45;&gt;supriya.nonrealtime.states.DoNotPropagate -->
<g id="edge2" class="edge">
<title>builtins.object&#45;&gt;supriya.nonrealtime.states.DoNotPropagate</title>
<path fill="none" stroke="lightslategrey" d="M59.41,-90.51C85.43,-79.18 131.5,-60.68 173,-52 233.24,-39.4 304.82,-36.8 348.31,-36.55"/>
<polygon fill="lightslategrey" stroke="lightslategrey" points="348.48,-40.05 358.47,-36.53 348.47,-33.05 348.48,-40.05"/>
</g>
<!-- builtins.object&#45;&gt;supriya.system.SupriyaObject -->
<g id="edge3" class="edge">
<title>builtins.object&#45;&gt;supriya.system.SupriyaObject</title>
<path fill="none" stroke="lightslategrey" d="M50.73,-109.72C61.68,-118.43 78.14,-131.51 92.15,-142.65"/>
<polygon fill="lightslategrey" stroke="lightslategrey" points="90.05,-145.46 100.06,-148.94 94.41,-139.98 90.05,-145.46"/>
</g>
<!-- supriya.nonrealtime.bases.SessionObject&#45;&gt;supriya.nonrealtime.states.Moment -->
<g id="edge4" class="edge">
<title>supriya.nonrealtime.bases.SessionObject&#45;&gt;supriya.nonrealtime.states.Moment</title>
<path fill="none" stroke="lightslategrey" d="M274.9,-85C298.55,-85 329.29,-85 352.76,-85"/>
<polygon fill="lightslategrey" stroke="lightslategrey" points="352.98,-88.5 362.98,-85 352.98,-81.5 352.98,-88.5"/>
</g>
<!-- supriya.nonrealtime.bases.SessionObject&#45;&gt;supriya.nonrealtime.states.State -->
<g id="edge5" class="edge">
<title>supriya.nonrealtime.bases.SessionObject&#45;&gt;supriya.nonrealtime.states.State</title>
<path fill="none" stroke="lightslategrey" d="M271.9,-93.21C297.9,-99.66 333.76,-108.55 358.73,-114.73"/>
<polygon fill="lightslategrey" stroke="lightslategrey" points="358.15,-118.2 368.7,-117.21 359.84,-111.4 358.15,-118.2"/>
</g>
<!-- supriya.system.SupriyaObject&#45;&gt;supriya.nonrealtime.bases.SessionObject -->
<g id="edge6" class="edge">
<title>supriya.system.SupriyaObject&#45;&gt;supriya.nonrealtime.bases.SessionObject</title>
<path fill="none" stroke="lightslategrey" d="M143.05,-148.95C160.54,-137.02 185.22,-120.18 204.86,-106.77"/>
<polygon fill="lightslategrey" stroke="lightslategrey" points="206.92,-109.6 213.21,-101.08 202.98,-103.82 206.92,-109.6"/>
</g>
<!-- supriya.system.SupriyaObject&#45;&gt;supriya.system.SupriyaValueObject -->
<g id="edge1" class="edge">
<title>supriya.system.SupriyaObject&#45;&gt;supriya.system.SupriyaValueObject</title>
<path fill="none" stroke="lightslategrey" d="M145.27,-165.26C161.86,-166.12 184.1,-167.27 202.49,-168.22"/>
<polygon fill="lightslategrey" stroke="lightslategrey" points="202.36,-171.72 212.53,-168.74 202.73,-164.73 202.36,-171.72"/>
</g>
<!-- supriya.system.SupriyaValueObject&#45;&gt;supriya.nonrealtime.states.NodeTransition -->
<g id="edge7" class="edge">
<title>supriya.system.SupriyaValueObject&#45;&gt;supriya.nonrealtime.states.NodeTransition</title>
<path fill="none" stroke="lightslategrey" d="M263.08,-169.19C286.35,-168.41 321.82,-167.22 349.04,-166.31"/>
<polygon fill="lightslategrey" stroke="lightslategrey" points="349.52,-169.79 359.39,-165.96 349.28,-162.8 349.52,-169.79"/>
</g>
<!-- builtins.object -->
<g id="node1" class="node">
<title>builtins.object</title>
<g id="a_node1"><a xlink:href="https://docs.python.org/3/library/functions.html#object" xlink:title="object" target="_top">
<path fill="#fbb4ae" stroke="#fbb4ae" stroke-width="2" d="M52.67,-109.5C52.67,-109.5 22.33,-109.5 22.33,-109.5 19.17,-109.5 16,-106.33 16,-103.17 16,-103.17 16,-96.83 16,-96.83 16,-93.67 19.17,-90.5 22.33,-90.5 22.33,-90.5 52.67,-90.5 52.67,-90.5 55.83,-90.5 59,-93.67 59,-96.83 59,-96.83 59,-103.17 59,-103.17 59,-106.33 55.83,-109.5 52.67,-109.5"/>
<text text-anchor="middle" x="37.5" y="-97.5" font-family="Arial" font-size="10.00">object</text>
</a>
</g>
</g>
<!-- supriya.nonrealtime.bases.SessionObject -->
<g id="node2" class="node">
<title>supriya.nonrealtime.bases.SessionObject</title>
<g id="a_node2"><a xlink:href="../api/supriya/nonrealtime/bases.html#supriya.nonrealtime.bases.SessionObject" xlink:title="Session\nObject" target="_top">
<ellipse fill="none" stroke="#b3cde3" stroke-width="2" cx="237.77" cy="-85" rx="36.54" ry="21.43"/>
<text text-anchor="middle" x="237.77" y="-88" font-family="Arial" font-size="10.00">Session</text>
<text text-anchor="middle" x="237.77" y="-77" font-family="Arial" font-size="10.00">Object</text>
</a>
</g>
</g>
<!-- supriya.nonrealtime.states.DoNotPropagate -->
<g id="node3" class="node">
<title>supriya.nonrealtime.states.DoNotPropagate</title>
<g id="a_node3"><a xlink:href="../api/supriya/nonrealtime/states.html#supriya.nonrealtime.states.DoNotPropagate" xlink:title="Do\nNot\nPropagate" target="_top">
<path fill="black" stroke="black" stroke-width="2" d="M407.54,-57.5C407.54,-57.5 370.54,-57.5 370.54,-57.5 364.54,-57.5 358.54,-51.5 358.54,-45.5 358.54,-45.5 358.54,-28.5 358.54,-28.5 358.54,-22.5 364.54,-16.5 370.54,-16.5 370.54,-16.5 407.54,-16.5 407.54,-16.5 413.54,-16.5 419.54,-22.5 419.54,-28.5 419.54,-28.5 419.54,-45.5 419.54,-45.5 419.54,-51.5 413.54,-57.5 407.54,-57.5"/>
<text text-anchor="middle" x="389.04" y="-45.5" font-family="Arial" font-size="10.00" fill="white">Do</text>
<text text-anchor="middle" x="389.04" y="-34.5" font-family="Arial" font-size="10.00" fill="white">Not</text>
<text text-anchor="middle" x="389.04" y="-23.5" font-family="Arial" font-size="10.00" fill="white">Propagate</text>
</a>
</g>
</g>
<!-- supriya.nonrealtime.states.Moment -->
<g id="node4" class="node">
<title>supriya.nonrealtime.states.Moment</title>
<g id="a_node4"><a xlink:href="../api/supriya/nonrealtime/states.html#supriya.nonrealtime.states.Moment" xlink:title="Moment" target="_top">
<path fill="black" stroke="black" stroke-width="2" d="M408.71,-94.5C408.71,-94.5 369.37,-94.5 369.37,-94.5 366.21,-94.5 363.04,-91.33 363.04,-88.17 363.04,-88.17 363.04,-81.83 363.04,-81.83 363.04,-78.67 366.21,-75.5 369.37,-75.5 369.37,-75.5 408.71,-75.5 408.71,-75.5 411.87,-75.5 415.04,-78.67 415.04,-81.83 415.04,-81.83 415.04,-88.17 415.04,-88.17 415.04,-91.33 411.87,-94.5 408.71,-94.5"/>
<text text-anchor="middle" x="389.04" y="-82.5" font-family="Arial" font-size="10.00" fill="white">Moment</text>
</a>
</g>
</g>
<!-- supriya.nonrealtime.states.NodeTransition -->
<g id="node5" class="node">
<title>supriya.nonrealtime.states.NodeTransition</title>
<g id="a_node5"><a xlink:href="../api/supriya/nonrealtime/states.html#supriya.nonrealtime.states.NodeTransition" xlink:title="Node\nTransition" target="_top">
<path fill="black" stroke="black" stroke-width="2" d="M408.54,-180C408.54,-180 369.54,-180 369.54,-180 364.54,-180 359.54,-175 359.54,-170 359.54,-170 359.54,-160 359.54,-160 359.54,-155 364.54,-150 369.54,-150 369.54,-150 408.54,-150 408.54,-150 413.54,-150 418.54,-155 418.54,-160 418.54,-160 418.54,-170 418.54,-170 418.54,-175 413.54,-180 408.54,-180"/>
<text text-anchor="middle" x="389.04" y="-168" font-family="Arial" font-size="10.00" fill="white">Node</text>
<text text-anchor="middle" x="389.04" y="-157" font-family="Arial" font-size="10.00" fill="white">Transition</text>
</a>
</g>
</g>
<!-- supriya.nonrealtime.states.State -->
<g id="node6" class="node">
<title>supriya.nonrealtime.states.State</title>
<g id="a_node6"><a xlink:href="../api/supriya/nonrealtime/states.html#supriya.nonrealtime.states.State" xlink:title="State" target="_top">
<path fill="black" stroke="black" stroke-width="2" d="M402.71,-131.5C402.71,-131.5 375.37,-131.5 375.37,-131.5 372.21,-131.5 369.04,-128.33 369.04,-125.17 369.04,-125.17 369.04,-118.83 369.04,-118.83 369.04,-115.67 372.21,-112.5 375.37,-112.5 375.37,-112.5 402.71,-112.5 402.71,-112.5 405.87,-112.5 409.04,-115.67 409.04,-118.83 409.04,-118.83 409.04,-125.17 409.04,-125.17 409.04,-128.33 405.87,-131.5 402.71,-131.5"/>
<text text-anchor="middle" x="389.04" y="-119.5" font-family="Arial" font-size="10.00" fill="white">State</text>
</a>
</g>
</g>
<!-- supriya.system.SupriyaObject -->
<g id="node7" class="node">
<title>supriya.system.SupriyaObject</title>
<g id="a_node7"><a xlink:href="../api/supriya/nonrealtime/../system.html#supriya.system.SupriyaObject" xlink:title="Supriya\nObject" target="_top">
<path fill="#decbe4" stroke="#decbe4" stroke-width="2" d="M135,-179C135,-179 105,-179 105,-179 100,-179 95,-174 95,-169 95,-169 95,-159 95,-159 95,-154 100,-149 105,-149 105,-149 135,-149 135,-149 140,-149 145,-154 145,-159 145,-159 145,-169 145,-169 145,-174 140,-179 135,-179"/>
<text text-anchor="middle" x="120" y="-167" font-family="Arial" font-size="10.00">Supriya</text>
<text text-anchor="middle" x="120" y="-156" font-family="Arial" font-size="10.00">Object</text>
</a>
</g>
</g>
<!-- supriya.system.SupriyaValueObject -->
<g id="node8" class="node">
<title>supriya.system.SupriyaValueObject</title>
<g id="a_node8"><a xlink:href="../api/supriya/nonrealtime/../system.html#supriya.system.SupriyaValueObject" xlink:title="Supriya\nValue\nObject" target="_top">
<path fill="#decbe4" stroke="#decbe4" stroke-width="2" d="M250.77,-190.5C250.77,-190.5 224.77,-190.5 224.77,-190.5 218.77,-190.5 212.77,-184.5 212.77,-178.5 212.77,-178.5 212.77,-161.5 212.77,-161.5 212.77,-155.5 218.77,-149.5 224.77,-149.5 224.77,-149.5 250.77,-149.5 250.77,-149.5 256.77,-149.5 262.77,-155.5 262.77,-161.5 262.77,-161.5 262.77,-178.5 262.77,-178.5 262.77,-184.5 256.77,-190.5 250.77,-190.5"/>
<text text-anchor="middle" x="237.77" y="-178.5" font-family="Arial" font-size="10.00">Supriya</text>
<text text-anchor="middle" x="237.77" y="-167.5" font-family="Arial" font-size="10.00">Value</text>
<text text-anchor="middle" x="237.77" y="-156.5" font-family="Arial" font-size="10.00">Object</text>
</a>
</g>
</g>
</g>
</svg>
