<?xml version="1.0" encoding="UTF-8" standalone="no"?>
<!DOCTYPE svg PUBLIC "-//W3C//DTD SVG 1.1//EN"
 "http://www.w3.org/Graphics/SVG/1.1/DTD/svg11.dtd">
<!-- Generated by graphviz version 2.44.1 (20200629.0846)
 -->
<!-- Title: InheritanceGraph Pages: 1 -->
<svg width="322pt" height="89pt"
 viewBox="0.00 0.00 322.00 89.00" xmlns="http://www.w3.org/2000/svg" xmlns:xlink="http://www.w3.org/1999/xlink">
<g id="graph0" class="graph" transform="scale(1 1) rotate(0) translate(4 85)">
<title>InheritanceGraph</title>
<g id="clust1" class="cluster">
<title>cluster_builtins</title>
<path fill="transparent" stroke="#bcd2ee" stroke-width="2" stroke-dasharray="5,2" d="M20,-13C20,-13 55,-13 55,-13 61,-13 67,-19 67,-25 67,-25 67,-56 67,-56 67,-62 61,-68 55,-68 55,-68 20,-68 20,-68 14,-68 8,-62 8,-56 8,-56 8,-25 8,-25 8,-19 14,-13 20,-13"/>
<text text-anchor="middle" x="37.5" y="-56" font-family="Arial" font-size="10.00">builtins</text>
</g>
<g id="clust2" class="cluster">
<title>cluster_supriya.realtime.recorder</title>
<path fill="transparent" stroke="#bcd2ee" stroke-width="2" stroke-dasharray="5,2" d="M202,-13C202,-13 302,-13 302,-13 308,-13 314,-19 314,-25 314,-25 314,-56 314,-56 314,-62 308,-68 302,-68 302,-68 202,-68 202,-68 196,-68 190,-62 190,-56 190,-56 190,-25 190,-25 190,-19 196,-13 202,-13"/>
<text text-anchor="middle" x="252" y="-56" font-family="Arial" font-size="10.00">supriya.realtime.recorder</text>
</g>
<g id="clust3" class="cluster">
<title>cluster_supriya.system</title>
<path fill="transparent" stroke="#bcd2ee" stroke-width="2" stroke-dasharray="5,2" d="M99,-8C99,-8 158,-8 158,-8 164,-8 170,-14 170,-20 170,-20 170,-61 170,-61 170,-67 164,-73 158,-73 158,-73 99,-73 99,-73 93,-73 87,-67 87,-61 87,-61 87,-20 87,-20 87,-14 93,-8 99,-8"/>
<text text-anchor="middle" x="128.5" y="-61" font-family="Arial" font-size="10.00">supriya.system</text>
</g>
<!-- builtins.object&#45;&gt;supriya.system.SupriyaObject -->
<g id="edge1" class="edge">
<title>builtins.object&#45;&gt;supriya.system.SupriyaObject</title>
<path fill="none" stroke="lightslategrey" d="M59.03,-31C69.03,-31 81.34,-31 92.72,-31"/>
<polygon fill="lightslategrey" stroke="lightslategrey" points="92.82,-34.5 102.82,-31 92.82,-27.5 92.82,-34.5"/>
</g>
<!-- supriya.system.SupriyaObject&#45;&gt;supriya.realtime.recorder.Recorder -->
<g id="edge2" class="edge">
<title>supriya.system.SupriyaObject&#45;&gt;supriya.realtime.recorder.Recorder</title>
<path fill="none" stroke="lightslategrey" d="M153.1,-31C170.41,-31 194.06,-31 213.78,-31"/>
<polygon fill="lightslategrey" stroke="lightslategrey" points="213.97,-34.5 223.97,-31 213.97,-27.5 213.97,-34.5"/>
</g>
<!-- builtins.object -->
<g id="node1" class="node">
<title>builtins.object</title>
<g id="a_node1"><a xlink:href="https://docs.python.org/3/library/functions.html#object" xlink:title="object" target="_top">
<path fill="#fbb4ae" stroke="#fbb4ae" stroke-width="2" d="M52.67,-40.5C52.67,-40.5 22.33,-40.5 22.33,-40.5 19.17,-40.5 16,-37.33 16,-34.17 16,-34.17 16,-27.83 16,-27.83 16,-24.67 19.17,-21.5 22.33,-21.5 22.33,-21.5 52.67,-21.5 52.67,-21.5 55.83,-21.5 59,-24.67 59,-27.83 59,-27.83 59,-34.17 59,-34.17 59,-37.33 55.83,-40.5 52.67,-40.5"/>
<text text-anchor="middle" x="37.5" y="-28.5" font-family="Arial" font-size="10.00">object</text>
</a>
</g>
</g>
<!-- supriya.realtime.recorder.Recorder -->
<g id="node2" class="node">
<title>supriya.realtime.recorder.Recorder</title>
<g id="a_node2"><a xlink:href="../api/supriya/realtime/recorder.html#supriya.realtime.recorder.Recorder" xlink:title="Recorder" target="_top">
<path fill="black" stroke="black" stroke-width="2" d="M273.67,-40.5C273.67,-40.5 230.33,-40.5 230.33,-40.5 227.17,-40.5 224,-37.33 224,-34.17 224,-34.17 224,-27.83 224,-27.83 224,-24.67 227.17,-21.5 230.33,-21.5 230.33,-21.5 273.67,-21.5 273.67,-21.5 276.83,-21.5 280,-24.67 280,-27.83 280,-27.83 280,-34.17 280,-34.17 280,-37.33 276.83,-40.5 273.67,-40.5"/>
<text text-anchor="middle" x="252" y="-28.5" font-family="Arial" font-size="10.00" fill="white">Recorder</text>
</a>
</g>
</g>
<!-- supriya.system.SupriyaObject -->
<g id="node3" class="node">
<title>supriya.system.SupriyaObject</title>
<g id="a_node3"><a xlink:href="../api/supriya/realtime/../system.html#supriya.system.SupriyaObject" xlink:title="Supriya\nObject" target="_top">
<path fill="#ccebc5" stroke="#ccebc5" stroke-width="2" d="M143,-46C143,-46 113,-46 113,-46 108,-46 103,-41 103,-36 103,-36 103,-26 103,-26 103,-21 108,-16 113,-16 113,-16 143,-16 143,-16 148,-16 153,-21 153,-26 153,-26 153,-36 153,-36 153,-41 148,-46 143,-46"/>
<text text-anchor="middle" x="128" y="-34" font-family="Arial" font-size="10.00">Supriya</text>
<text text-anchor="middle" x="128" y="-23" font-family="Arial" font-size="10.00">Object</text>
</a>
</g>
</g>
</g>
</svg>
