<?xml version="1.0" encoding="UTF-8" standalone="no"?>
<!DOCTYPE svg PUBLIC "-//W3C//DTD SVG 1.1//EN"
 "http://www.w3.org/Graphics/SVG/1.1/DTD/svg11.dtd">
<!-- Generated by graphviz version 2.40.1 (20161225.0304)
 -->
<!-- Title: InheritanceGraph Pages: 1 -->
<svg width="475pt" height="485pt"
 viewBox="0.00 0.00 475.00 485.00" xmlns="http://www.w3.org/2000/svg" xmlns:xlink="http://www.w3.org/1999/xlink">
<g id="graph0" class="graph" transform="scale(1 1) rotate(0) translate(4 481)">
<title>InheritanceGraph</title>
<g id="clust1" class="cluster">
<title>cluster_builtins</title>
<path fill="transparent" stroke="#bcd2ee" stroke-width="2" stroke-dasharray="5,2" d="M20,-211C20,-211 49,-211 49,-211 55,-211 61,-217 61,-223 61,-223 61,-254 61,-254 61,-260 55,-266 49,-266 49,-266 20,-266 20,-266 14,-266 8,-260 8,-254 8,-254 8,-223 8,-223 8,-217 14,-211 20,-211"/>
<text text-anchor="middle" x="34.5" y="-254" font-family="Arial" font-size="10.00" fill="#000000">builtins</text>
</g>
<g id="clust2" class="cluster">
<title>cluster_supriya.live</title>
<path fill="transparent" stroke="#bcd2ee" stroke-width="2" stroke-dasharray="5,2" d="M167,-8C167,-8 447,-8 447,-8 453,-8 459,-14 459,-20 459,-20 459,-457 459,-457 459,-463 453,-469 447,-469 447,-469 167,-469 167,-469 161,-469 155,-463 155,-457 155,-457 155,-20 155,-20 155,-14 161,-8 167,-8"/>
<text text-anchor="middle" x="307" y="-457" font-family="Arial" font-size="10.00" fill="#000000">supriya.live</text>
</g>
<!-- builtins.object&#45;&gt;supriya.live.Application.Application -->
<g id="edge5" class="edge">
<title>builtins.object&#45;&gt;supriya.live.Application.Application</title>
<path fill="none" stroke="#778899" d="M38.6924,-238.5627C51.9481,-267.9034 95.6135,-357.9861 155,-413 156.4672,-414.3592 158.0496,-415.6559 159.7016,-416.8865"/>
<polygon fill="#778899" stroke="#778899" points="158.035,-419.977 168.3315,-422.4737 161.8393,-414.101 158.035,-419.977"/>
</g>
<!-- builtins.object&#45;&gt;supriya.live.ClipSlot.ClipSlot -->
<g id="edge6" class="edge">
<title>builtins.object&#45;&gt;supriya.live.ClipSlot.ClipSlot</title>
<path fill="none" stroke="#778899" d="M41.6749,-238.6335C59.3258,-261.9642 106.9302,-322.6898 155,-365 158.5463,-368.1214 162.5058,-371.1992 166.4425,-374.0557"/>
<polygon fill="#778899" stroke="#778899" points="164.6425,-377.0666 174.8551,-379.8867 168.6302,-371.3135 164.6425,-377.0666"/>
</g>
<!-- builtins.object&#45;&gt;supriya.live.Device.Device -->
<g id="edge7" class="edge">
<title>builtins.object&#45;&gt;supriya.live.Device.Device</title>
<path fill="none" stroke="#778899" d="M44.571,-238.5092C64.5784,-257.1115 111.189,-299.0249 155,-328 156.8771,-329.2415 158.8499,-330.4646 160.8617,-331.6532"/>
<polygon fill="#778899" stroke="#778899" points="159.3137,-334.7971 169.7553,-336.5926 162.7124,-328.6775 159.3137,-334.7971"/>
</g>
<!-- builtins.object&#45;&gt;supriya.live.Direct.Direct -->
<g id="edge8" class="edge">
<title>builtins.object&#45;&gt;supriya.live.Direct.Direct</title>
<path fill="none" stroke="#778899" d="M52.6202,-238.755C63.2019,-244.4234 76.8269,-251.6734 89,-258 113.7295,-270.8525 142.0537,-285.1918 162.3161,-295.3842"/>
<polygon fill="#778899" stroke="#778899" points="160.7832,-298.5309 171.2902,-299.8923 163.9255,-292.2758 160.7832,-298.5309"/>
</g>
<!-- builtins.object&#45;&gt;supriya.live.Mixer.Mixer -->
<g id="edge9" class="edge">
<title>builtins.object&#45;&gt;supriya.live.Mixer.Mixer</title>
<path fill="none" stroke="#778899" d="M53.1966,-234.1868C80.252,-241.6925 130.5019,-255.6328 161.8493,-264.3292"/>
<polygon fill="#778899" stroke="#778899" points="161.123,-267.7598 171.6947,-267.0605 162.9943,-261.0145 161.123,-267.7598"/>
</g>
<!-- builtins.object&#45;&gt;supriya.live.PolyphonicVoicer.PolyphonicVoicer -->
<g id="edge10" class="edge">
<title>builtins.object&#45;&gt;supriya.live.PolyphonicVoicer.PolyphonicVoicer</title>
<path fill="none" stroke="#778899" d="M53.1966,-229C77.7924,-229 121.5573,-229 152.863,-229"/>
<polygon fill="#778899" stroke="#778899" points="152.9565,-232.5001 162.9564,-229 152.9564,-225.5001 152.9565,-232.5001"/>
</g>
<!-- builtins.object&#45;&gt;supriya.live.Rack.Rack -->
<g id="edge11" class="edge">
<title>builtins.object&#45;&gt;supriya.live.Rack.Rack</title>
<path fill="none" stroke="#778899" d="M53.1966,-223.8132C80.3966,-216.2674 131.04,-202.2179 162.3506,-193.5318"/>
<polygon fill="#778899" stroke="#778899" points="163.4656,-196.8547 172.166,-190.8088 161.5943,-190.1095 163.4656,-196.8547"/>
</g>
<!-- builtins.object&#45;&gt;supriya.live.Send.Send -->
<g id="edge12" class="edge">
<title>builtins.object&#45;&gt;supriya.live.Send.Send</title>
<path fill="none" stroke="#778899" d="M53.1966,-219.3501C80.6332,-205.1893 131.9226,-178.7174 163.163,-162.5933"/>
<polygon fill="#778899" stroke="#778899" points="164.8851,-165.6432 172.166,-157.9466 161.6745,-159.4229 164.8851,-165.6432"/>
</g>
<!-- builtins.object&#45;&gt;supriya.live.SendManager.SendManager -->
<g id="edge13" class="edge">
<title>builtins.object&#45;&gt;supriya.live.SendManager.SendManager</title>
<path fill="none" stroke="#778899" d="M45.9604,-219.3219C67.1803,-201.4828 114.1529,-162.371 155,-131 156.5839,-129.7835 158.2175,-128.5456 159.8726,-127.3042"/>
<polygon fill="#778899" stroke="#778899" points="162.2355,-129.9101 168.198,-121.1523 158.0754,-124.2804 162.2355,-129.9101"/>
</g>
<!-- builtins.object&#45;&gt;supriya.live.Shuffle.Shuffle -->
<g id="edge14" class="edge">
<title>builtins.object&#45;&gt;supriya.live.Shuffle.Shuffle</title>
<path fill="none" stroke="#778899" d="M40.5133,-219.3422C56.5576,-194.1656 102.7351,-125.4685 155,-82 156.7513,-80.5434 158.631,-79.1442 160.5761,-77.8121"/>
<polygon fill="#778899" stroke="#778899" points="162.641,-80.6512 169.3261,-72.4316 158.9744,-74.6883 162.641,-80.6512"/>
</g>
<!-- builtins.object&#45;&gt;supriya.live.Track.Track -->
<g id="edge15" class="edge">
<title>builtins.object&#45;&gt;supriya.live.Track.Track</title>
<path fill="none" stroke="#778899" d="M38.6924,-219.4373C51.9481,-190.0966 95.6135,-100.0139 155,-45 157.4579,-42.723 160.2389,-40.6216 163.1292,-38.712"/>
<polygon fill="#778899" stroke="#778899" points="165.0488,-41.644 171.9143,-33.5746 161.5151,-35.6014 165.0488,-41.644"/>
</g>
<!-- supriya.live.Device.Device&#45;&gt;supriya.live.AudioEffect.AudioEffect -->
<g id="edge1" class="edge">
<title>supriya.live.Device.Device&#45;&gt;supriya.live.AudioEffect.AudioEffect</title>
<path fill="none" stroke="#778899" d="M206.9673,-336.4527C217.4027,-330.7488 230.8846,-323.3798 242.7001,-316.9217"/>
<polygon fill="#778899" stroke="#778899" points="244.6325,-319.8542 251.7286,-311.9869 241.2751,-313.7119 244.6325,-319.8542"/>
</g>
<!-- supriya.live.Device.Device&#45;&gt;supriya.live.DeviceChain.DeviceChain -->
<g id="edge2" class="edge">
<title>supriya.live.Device.Device&#45;&gt;supriya.live.DeviceChain.DeviceChain</title>
<path fill="none" stroke="#778899" d="M209.0042,-342.9604C235.3577,-338.8533 282.5874,-331.4929 313.4821,-326.6781"/>
<polygon fill="#778899" stroke="#778899" points="314.326,-330.0889 323.6677,-325.0907 313.248,-323.1724 314.326,-330.0889"/>
</g>
<!-- supriya.live.Device.Device&#45;&gt;supriya.live.Instrument.Instrument -->
<g id="edge3" class="edge">
<title>supriya.live.Device.Device&#45;&gt;supriya.live.Instrument.Instrument</title>
<path fill="none" stroke="#778899" d="M209.1735,-346.8354C248.7014,-348.5139 338.2826,-352.3177 388.7267,-354.4597"/>
<polygon fill="#778899" stroke="#778899" points="388.7253,-357.9627 398.8648,-354.8902 389.0224,-350.969 388.7253,-357.9627"/>
</g>
<!-- supriya.live.Device.Device&#45;&gt;supriya.live.MidiEffect.MidiEffect -->
<g id="edge4" class="edge">
<title>supriya.live.Device.Device&#45;&gt;supriya.live.MidiEffect.MidiEffect</title>
<path fill="none" stroke="#778899" d="M206.9673,-355.5473C217.4027,-361.2512 230.8846,-368.6202 242.7001,-375.0783"/>
<polygon fill="#778899" stroke="#778899" points="241.2751,-378.2881 251.7286,-380.0131 244.6325,-372.1458 241.2751,-378.2881"/>
</g>
<!-- builtins.object -->
<g id="node1" class="node">
<title>builtins.object</title>
<g id="a_node1"><a xlink:href="https://docs.python.org/3.6/library/functions.html#object" xlink:title="object" target="_top">
<path fill="#fbb4ae" stroke="#fbb4ae" stroke-width="2" d="M46.6667,-238.5C46.6667,-238.5 22.3333,-238.5 22.3333,-238.5 19.1667,-238.5 16,-235.3333 16,-232.1667 16,-232.1667 16,-225.8333 16,-225.8333 16,-222.6667 19.1667,-219.5 22.3333,-219.5 22.3333,-219.5 46.6667,-219.5 46.6667,-219.5 49.8333,-219.5 53,-222.6667 53,-225.8333 53,-225.8333 53,-232.1667 53,-232.1667 53,-235.3333 49.8333,-238.5 46.6667,-238.5"/>
<text text-anchor="middle" x="34.5" y="-226.5" font-family="Arial" font-size="10.00" fill="#000000">object</text>
</a>
</g>
</g>
<!-- supriya.live.Application.Application -->
<g id="node2" class="node">
<title>supriya.live.Application.Application</title>
<g id="a_node2"><a xlink:href="../api/supriya/live/Application.html#supriya.live.Application.Application" xlink:title="Application" target="_top">
<path fill="#000000" stroke="#000000" stroke-width="2" d="M209.6667,-441.5C209.6667,-441.5 169.3333,-441.5 169.3333,-441.5 166.1667,-441.5 163,-438.3333 163,-435.1667 163,-435.1667 163,-428.8333 163,-428.8333 163,-425.6667 166.1667,-422.5 169.3333,-422.5 169.3333,-422.5 209.6667,-422.5 209.6667,-422.5 212.8333,-422.5 216,-425.6667 216,-428.8333 216,-428.8333 216,-435.1667 216,-435.1667 216,-438.3333 212.8333,-441.5 209.6667,-441.5"/>
<text text-anchor="middle" x="189.5" y="-429.5" font-family="Arial" font-size="10.00" fill="#ffffff">Application</text>
</a>
</g>
</g>
<!-- supriya.live.AudioEffect.AudioEffect -->
<g id="node3" class="node">
<title>supriya.live.AudioEffect.AudioEffect</title>
<g id="a_node3"><a xlink:href="../api/supriya/live/AudioEffect.html#supriya.live.AudioEffect.AudioEffect" xlink:title="Audio\nEffect" target="_top">
<path fill="#000000" stroke="#000000" stroke-width="2" d="M278,-317C278,-317 262,-317 262,-317 257,-317 252,-312 252,-307 252,-307 252,-297 252,-297 252,-292 257,-287 262,-287 262,-287 278,-287 278,-287 283,-287 288,-292 288,-297 288,-297 288,-307 288,-307 288,-312 283,-317 278,-317"/>
<text text-anchor="middle" x="270" y="-305" font-family="Arial" font-size="10.00" fill="#ffffff">Audio</text>
<text text-anchor="middle" x="270" y="-294" font-family="Arial" font-size="10.00" fill="#ffffff">Effect</text>
</a>
</g>
</g>
<!-- supriya.live.ClipSlot.ClipSlot -->
<g id="node4" class="node">
<title>supriya.live.ClipSlot.ClipSlot</title>
<g id="a_node4"><a xlink:href="../api/supriya/live/ClipSlot.html#supriya.live.ClipSlot.ClipSlot" xlink:title="Clip\nSlot" target="_top">
<path fill="#000000" stroke="#000000" stroke-width="2" d="M194.3333,-404C194.3333,-404 184.6667,-404 184.6667,-404 179.8333,-404 175,-399.1667 175,-394.3333 175,-394.3333 175,-383.6667 175,-383.6667 175,-378.8333 179.8333,-374 184.6667,-374 184.6667,-374 194.3333,-374 194.3333,-374 199.1667,-374 204,-378.8333 204,-383.6667 204,-383.6667 204,-394.3333 204,-394.3333 204,-399.1667 199.1667,-404 194.3333,-404"/>
<text text-anchor="middle" x="189.5" y="-392" font-family="Arial" font-size="10.00" fill="#ffffff">Clip</text>
<text text-anchor="middle" x="189.5" y="-381" font-family="Arial" font-size="10.00" fill="#ffffff">Slot</text>
</a>
</g>
</g>
<!-- supriya.live.Device.Device -->
<g id="node5" class="node">
<title>supriya.live.Device.Device</title>
<g id="a_node5"><a xlink:href="../api/supriya/live/Device.html#supriya.live.Device.Device" xlink:title="Device" target="_top">
<path fill="#000000" stroke="#000000" stroke-width="2" d="M202.6667,-355.5C202.6667,-355.5 176.3333,-355.5 176.3333,-355.5 173.1667,-355.5 170,-352.3333 170,-349.1667 170,-349.1667 170,-342.8333 170,-342.8333 170,-339.6667 173.1667,-336.5 176.3333,-336.5 176.3333,-336.5 202.6667,-336.5 202.6667,-336.5 205.8333,-336.5 209,-339.6667 209,-342.8333 209,-342.8333 209,-349.1667 209,-349.1667 209,-352.3333 205.8333,-355.5 202.6667,-355.5"/>
<text text-anchor="middle" x="189.5" y="-343.5" font-family="Arial" font-size="10.00" fill="#ffffff">Device</text>
</a>
</g>
</g>
<!-- supriya.live.DeviceChain.DeviceChain -->
<g id="node6" class="node">
<title>supriya.live.DeviceChain.DeviceChain</title>
<g id="a_node6"><a xlink:href="../api/supriya/live/DeviceChain.html#supriya.live.DeviceChain.DeviceChain" xlink:title="Device\nChain" target="_top">
<path fill="#000000" stroke="#000000" stroke-width="2" d="M353,-337C353,-337 334,-337 334,-337 329,-337 324,-332 324,-327 324,-327 324,-317 324,-317 324,-312 329,-307 334,-307 334,-307 353,-307 353,-307 358,-307 363,-312 363,-317 363,-317 363,-327 363,-327 363,-332 358,-337 353,-337"/>
<text text-anchor="middle" x="343.5" y="-325" font-family="Arial" font-size="10.00" fill="#ffffff">Device</text>
<text text-anchor="middle" x="343.5" y="-314" font-family="Arial" font-size="10.00" fill="#ffffff">Chain</text>
</a>
</g>
</g>
<!-- supriya.live.Instrument.Instrument -->
<g id="node7" class="node">
<title>supriya.live.Instrument.Instrument</title>
<g id="a_node7"><a xlink:href="../api/supriya/live/Instrument.html#supriya.live.Instrument.Instrument" xlink:title="Instrument" target="_top">
<path fill="#000000" stroke="#000000" stroke-width="2" d="M444.6667,-365.5C444.6667,-365.5 405.3333,-365.5 405.3333,-365.5 402.1667,-365.5 399,-362.3333 399,-359.1667 399,-359.1667 399,-352.8333 399,-352.8333 399,-349.6667 402.1667,-346.5 405.3333,-346.5 405.3333,-346.5 444.6667,-346.5 444.6667,-346.5 447.8333,-346.5 451,-349.6667 451,-352.8333 451,-352.8333 451,-359.1667 451,-359.1667 451,-362.3333 447.8333,-365.5 444.6667,-365.5"/>
<text text-anchor="middle" x="425" y="-353.5" font-family="Arial" font-size="10.00" fill="#ffffff">Instrument</text>
</a>
</g>
</g>
<!-- supriya.live.MidiEffect.MidiEffect -->
<g id="node8" class="node">
<title>supriya.live.MidiEffect.MidiEffect</title>
<g id="a_node8"><a xlink:href="../api/supriya/live/MidiEffect.html#supriya.live.MidiEffect.MidiEffect" xlink:title="Midi\nEffect" target="_top">
<path fill="#000000" stroke="#000000" stroke-width="2" d="M278,-405C278,-405 262,-405 262,-405 257,-405 252,-400 252,-395 252,-395 252,-385 252,-385 252,-380 257,-375 262,-375 262,-375 278,-375 278,-375 283,-375 288,-380 288,-385 288,-385 288,-395 288,-395 288,-400 283,-405 278,-405"/>
<text text-anchor="middle" x="270" y="-393" font-family="Arial" font-size="10.00" fill="#ffffff">Midi</text>
<text text-anchor="middle" x="270" y="-382" font-family="Arial" font-size="10.00" fill="#ffffff">Effect</text>
</a>
</g>
</g>
<!-- supriya.live.Direct.Direct -->
<g id="node9" class="node">
<title>supriya.live.Direct.Direct</title>
<g id="a_node9"><a xlink:href="../api/supriya/live/Direct.html#supriya.live.Direct.Direct" xlink:title="Direct" target="_top">
<path fill="#000000" stroke="#000000" stroke-width="2" d="M201.1667,-318.5C201.1667,-318.5 177.8333,-318.5 177.8333,-318.5 174.6667,-318.5 171.5,-315.3333 171.5,-312.1667 171.5,-312.1667 171.5,-305.8333 171.5,-305.8333 171.5,-302.6667 174.6667,-299.5 177.8333,-299.5 177.8333,-299.5 201.1667,-299.5 201.1667,-299.5 204.3333,-299.5 207.5,-302.6667 207.5,-305.8333 207.5,-305.8333 207.5,-312.1667 207.5,-312.1667 207.5,-315.3333 204.3333,-318.5 201.1667,-318.5"/>
<text text-anchor="middle" x="189.5" y="-306.5" font-family="Arial" font-size="10.00" fill="#ffffff">Direct</text>
</a>
</g>
</g>
<!-- supriya.live.Mixer.Mixer -->
<g id="node10" class="node">
<title>supriya.live.Mixer.Mixer</title>
<g id="a_node10"><a xlink:href="../api/supriya/live/Mixer.html#supriya.live.Mixer.Mixer" xlink:title="Mixer" target="_top">
<path fill="#000000" stroke="#000000" stroke-width="2" d="M200.6667,-281.5C200.6667,-281.5 178.3333,-281.5 178.3333,-281.5 175.1667,-281.5 172,-278.3333 172,-275.1667 172,-275.1667 172,-268.8333 172,-268.8333 172,-265.6667 175.1667,-262.5 178.3333,-262.5 178.3333,-262.5 200.6667,-262.5 200.6667,-262.5 203.8333,-262.5 207,-265.6667 207,-268.8333 207,-268.8333 207,-275.1667 207,-275.1667 207,-278.3333 203.8333,-281.5 200.6667,-281.5"/>
<text text-anchor="middle" x="189.5" y="-269.5" font-family="Arial" font-size="10.00" fill="#ffffff">Mixer</text>
</a>
</g>
</g>
<!-- supriya.live.PolyphonicVoicer.PolyphonicVoicer -->
<g id="node11" class="node">
<title>supriya.live.PolyphonicVoicer.PolyphonicVoicer</title>
<g id="a_node11"><a xlink:href="../api/supriya/live/PolyphonicVoicer.html#supriya.live.PolyphonicVoicer.PolyphonicVoicer" xlink:title="Polyphonic\nVoicer" target="_top">
<path fill="#000000" stroke="#000000" stroke-width="2" d="M206,-244C206,-244 173,-244 173,-244 168,-244 163,-239 163,-234 163,-234 163,-224 163,-224 163,-219 168,-214 173,-214 173,-214 206,-214 206,-214 211,-214 216,-219 216,-224 216,-224 216,-234 216,-234 216,-239 211,-244 206,-244"/>
<text text-anchor="middle" x="189.5" y="-232" font-family="Arial" font-size="10.00" fill="#ffffff">Polyphonic</text>
<text text-anchor="middle" x="189.5" y="-221" font-family="Arial" font-size="10.00" fill="#ffffff">Voicer</text>
</a>
</g>
</g>
<!-- supriya.live.Rack.Rack -->
<g id="node12" class="node">
<title>supriya.live.Rack.Rack</title>
<g id="a_node12"><a xlink:href="../api/supriya/live/Rack.html#supriya.live.Rack.Rack" xlink:title="Rack" target="_top">
<path fill="#000000" stroke="#000000" stroke-width="2" d="M200.1667,-195.5C200.1667,-195.5 178.8333,-195.5 178.8333,-195.5 175.6667,-195.5 172.5,-192.3333 172.5,-189.1667 172.5,-189.1667 172.5,-182.8333 172.5,-182.8333 172.5,-179.6667 175.6667,-176.5 178.8333,-176.5 178.8333,-176.5 200.1667,-176.5 200.1667,-176.5 203.3333,-176.5 206.5,-179.6667 206.5,-182.8333 206.5,-182.8333 206.5,-189.1667 206.5,-189.1667 206.5,-192.3333 203.3333,-195.5 200.1667,-195.5"/>
<text text-anchor="middle" x="189.5" y="-183.5" font-family="Arial" font-size="10.00" fill="#ffffff">Rack</text>
</a>
</g>
</g>
<!-- supriya.live.Send.Send -->
<g id="node13" class="node">
<title>supriya.live.Send.Send</title>
<g id="a_node13"><a xlink:href="../api/supriya/live/Send.html#supriya.live.Send.Send" xlink:title="Send" target="_top">
<path fill="#000000" stroke="#000000" stroke-width="2" d="M200.1667,-158.5C200.1667,-158.5 178.8333,-158.5 178.8333,-158.5 175.6667,-158.5 172.5,-155.3333 172.5,-152.1667 172.5,-152.1667 172.5,-145.8333 172.5,-145.8333 172.5,-142.6667 175.6667,-139.5 178.8333,-139.5 178.8333,-139.5 200.1667,-139.5 200.1667,-139.5 203.3333,-139.5 206.5,-142.6667 206.5,-145.8333 206.5,-145.8333 206.5,-152.1667 206.5,-152.1667 206.5,-155.3333 203.3333,-158.5 200.1667,-158.5"/>
<text text-anchor="middle" x="189.5" y="-146.5" font-family="Arial" font-size="10.00" fill="#ffffff">Send</text>
</a>
</g>
</g>
<!-- supriya.live.SendManager.SendManager -->
<g id="node14" class="node">
<title>supriya.live.SendManager.SendManager</title>
<g id="a_node14"><a xlink:href="../api/supriya/live/SendManager.html#supriya.live.SendManager.SendManager" xlink:title="Send\nManager" target="_top">
<path fill="#000000" stroke="#000000" stroke-width="2" d="M202.5,-121C202.5,-121 176.5,-121 176.5,-121 171.5,-121 166.5,-116 166.5,-111 166.5,-111 166.5,-101 166.5,-101 166.5,-96 171.5,-91 176.5,-91 176.5,-91 202.5,-91 202.5,-91 207.5,-91 212.5,-96 212.5,-101 212.5,-101 212.5,-111 212.5,-111 212.5,-116 207.5,-121 202.5,-121"/>
<text text-anchor="middle" x="189.5" y="-109" font-family="Arial" font-size="10.00" fill="#ffffff">Send</text>
<text text-anchor="middle" x="189.5" y="-98" font-family="Arial" font-size="10.00" fill="#ffffff">Manager</text>
</a>
</g>
</g>
<!-- supriya.live.Shuffle.Shuffle -->
<g id="node15" class="node">
<title>supriya.live.Shuffle.Shuffle</title>
<g id="a_node15"><a xlink:href="../api/supriya/live/Shuffle.html#supriya.live.Shuffle.Shuffle" xlink:title="Shuffle" target="_top">
<path fill="#000000" stroke="#000000" stroke-width="2" d="M203.1667,-72.5C203.1667,-72.5 175.8333,-72.5 175.8333,-72.5 172.6667,-72.5 169.5,-69.3333 169.5,-66.1667 169.5,-66.1667 169.5,-59.8333 169.5,-59.8333 169.5,-56.6667 172.6667,-53.5 175.8333,-53.5 175.8333,-53.5 203.1667,-53.5 203.1667,-53.5 206.3333,-53.5 209.5,-56.6667 209.5,-59.8333 209.5,-59.8333 209.5,-66.1667 209.5,-66.1667 209.5,-69.3333 206.3333,-72.5 203.1667,-72.5"/>
<text text-anchor="middle" x="189.5" y="-60.5" font-family="Arial" font-size="10.00" fill="#ffffff">Shuffle</text>
</a>
</g>
</g>
<!-- supriya.live.Track.Track -->
<g id="node16" class="node">
<title>supriya.live.Track.Track</title>
<g id="a_node16"><a xlink:href="../api/supriya/live/Track.html#supriya.live.Track.Track" xlink:title="Track" target="_top">
<path fill="#000000" stroke="#000000" stroke-width="2" d="M200.6667,-35.5C200.6667,-35.5 178.3333,-35.5 178.3333,-35.5 175.1667,-35.5 172,-32.3333 172,-29.1667 172,-29.1667 172,-22.8333 172,-22.8333 172,-19.6667 175.1667,-16.5 178.3333,-16.5 178.3333,-16.5 200.6667,-16.5 200.6667,-16.5 203.8333,-16.5 207,-19.6667 207,-22.8333 207,-22.8333 207,-29.1667 207,-29.1667 207,-32.3333 203.8333,-35.5 200.6667,-35.5"/>
<text text-anchor="middle" x="189.5" y="-23.5" font-family="Arial" font-size="10.00" fill="#ffffff">Track</text>
</a>
</g>
</g>
</g>
</svg>
