<?xml version="1.0" encoding="UTF-8" standalone="no"?>
<!DOCTYPE svg PUBLIC "-//W3C//DTD SVG 1.1//EN"
 "http://www.w3.org/Graphics/SVG/1.1/DTD/svg11.dtd">
<!-- Generated by graphviz version 2.44.1 (20200629.0846)
 -->
<!-- Title: InheritanceGraph Pages: 1 -->
<svg width="724pt" height="528pt"
 viewBox="0.00 0.00 723.76 528.00" xmlns="http://www.w3.org/2000/svg" xmlns:xlink="http://www.w3.org/1999/xlink">
<g id="graph0" class="graph" transform="scale(1 1) rotate(0) translate(4 524)">
<title>InheritanceGraph</title>
<g id="clust1" class="cluster">
<title>cluster_builtins</title>
<path fill="transparent" stroke="#bcd2ee" stroke-width="2" stroke-dasharray="5,2" d="M20,-82C20,-82 55,-82 55,-82 61,-82 67,-88 67,-94 67,-94 67,-125 67,-125 67,-131 61,-137 55,-137 55,-137 20,-137 20,-137 14,-137 8,-131 8,-125 8,-125 8,-94 8,-94 8,-88 14,-82 20,-82"/>
<text text-anchor="middle" x="37.5" y="-125" font-family="Arial" font-size="10.00">builtins</text>
</g>
<g id="clust2" class="cluster">
<title>cluster_supriya.patterns</title>
<path fill="transparent" stroke="#bcd2ee" stroke-width="2" stroke-dasharray="5,2" d="M271,-8C271,-8 695.76,-8 695.76,-8 701.76,-8 707.76,-14 707.76,-20 707.76,-20 707.76,-500 707.76,-500 707.76,-506 701.76,-512 695.76,-512 695.76,-512 271,-512 271,-512 265,-512 259,-506 259,-500 259,-500 259,-20 259,-20 259,-14 265,-8 271,-8"/>
<text text-anchor="middle" x="483.38" y="-500" font-family="Arial" font-size="10.00">supriya.patterns</text>
</g>
<g id="clust3" class="cluster">
<title>cluster_supriya.system</title>
<path fill="transparent" stroke="#bcd2ee" stroke-width="2" stroke-dasharray="5,2" d="M99,-123C99,-123 227,-123 227,-123 233,-123 239,-129 239,-135 239,-135 239,-188 239,-188 239,-194 233,-200 227,-200 227,-200 99,-200 99,-200 93,-200 87,-194 87,-188 87,-188 87,-135 87,-135 87,-129 93,-123 99,-123"/>
<text text-anchor="middle" x="163" y="-188" font-family="Arial" font-size="10.00">supriya.system</text>
</g>
<!-- builtins.object&#45;&gt;supriya.patterns.EventPlayer.EventPlayer -->
<g id="edge24" class="edge">
<title>builtins.object&#45;&gt;supriya.patterns.EventPlayer.EventPlayer</title>
<path fill="none" stroke="lightslategrey" d="M59.01,-95.76C104.61,-86.35 214.59,-63.63 268.74,-52.44"/>
<polygon fill="lightslategrey" stroke="lightslategrey" points="269.71,-55.82 278.8,-50.37 268.29,-48.96 269.71,-55.82"/>
</g>
<!-- builtins.object&#45;&gt;supriya.system.SupriyaObject -->
<g id="edge25" class="edge">
<title>builtins.object&#45;&gt;supriya.system.SupriyaObject</title>
<path fill="none" stroke="lightslategrey" d="M55.18,-109.53C64.01,-114.58 75.19,-120.96 85.7,-126.97"/>
<polygon fill="lightslategrey" stroke="lightslategrey" points="84.29,-130.19 94.7,-132.12 87.76,-124.12 84.29,-130.19"/>
</g>
<!-- supriya.patterns.Event.Event&#45;&gt;supriya.patterns.BusEvent.BusEvent -->
<g id="edge1" class="edge">
<title>supriya.patterns.Event.Event&#45;&gt;supriya.patterns.BusEvent.BusEvent</title>
<path fill="none" stroke="lightslategrey" d="M320.68,-141.85C325.7,-138.53 330.85,-134.52 334.88,-130 358.17,-103.9 349.38,-87.59 370.88,-60 372.68,-57.69 374.68,-55.42 376.79,-53.23"/>
<polygon fill="lightslategrey" stroke="lightslategrey" points="379.38,-55.59 384.18,-46.15 374.54,-50.54 379.38,-55.59"/>
</g>
<!-- supriya.patterns.Event.Event&#45;&gt;supriya.patterns.CompositeEvent.CompositeEvent -->
<g id="edge2" class="edge">
<title>supriya.patterns.Event.Event&#45;&gt;supriya.patterns.CompositeEvent.CompositeEvent</title>
<path fill="none" stroke="lightslategrey" d="M320.38,-141.57C325.4,-138.24 330.62,-134.3 334.88,-130 355.44,-109.25 347.43,-92.42 370.88,-75 396.13,-56.25 408.86,-64.75 438.76,-55 447.3,-52.22 456.39,-49.08 465.02,-46.01"/>
<polygon fill="lightslategrey" stroke="lightslategrey" points="466.3,-49.28 474.53,-42.61 463.94,-42.69 466.3,-49.28"/>
</g>
<!-- supriya.patterns.Event.Event&#45;&gt;supriya.patterns.GroupEvent.GroupEvent -->
<g id="edge3" class="edge">
<title>supriya.patterns.Event.Event&#45;&gt;supriya.patterns.GroupEvent.GroupEvent</title>
<path fill="none" stroke="lightslategrey" d="M321.1,-142.03C335.99,-134.29 356.89,-123.41 373.97,-114.53"/>
<polygon fill="lightslategrey" stroke="lightslategrey" points="375.74,-117.56 382.99,-109.84 372.51,-111.35 375.74,-117.56"/>
</g>
<!-- supriya.patterns.Event.Event&#45;&gt;supriya.patterns.NoteEvent.NoteEvent -->
<g id="edge4" class="edge">
<title>supriya.patterns.Event.Event&#45;&gt;supriya.patterns.NoteEvent.NoteEvent</title>
<path fill="none" stroke="lightslategrey" d="M330.1,-149.13C358.42,-145.54 402.9,-137.95 438.76,-123 452.68,-117.2 466.83,-108.42 478.51,-100.23"/>
<polygon fill="lightslategrey" stroke="lightslategrey" points="480.87,-102.84 486.92,-94.14 476.76,-97.17 480.87,-102.84"/>
</g>
<!-- supriya.patterns.Event.Event&#45;&gt;supriya.patterns.NullEvent.NullEvent -->
<g id="edge5" class="edge">
<title>supriya.patterns.Event.Event&#45;&gt;supriya.patterns.NullEvent.NullEvent</title>
<path fill="none" stroke="lightslategrey" d="M329.51,-156.06C343.13,-158.06 359.59,-160.49 373.56,-162.54"/>
<polygon fill="lightslategrey" stroke="lightslategrey" points="373.26,-166.04 383.67,-164.03 374.28,-159.11 373.26,-166.04"/>
</g>
<!-- supriya.patterns.Event.Event&#45;&gt;supriya.patterns.SynthEvent.SynthEvent -->
<g id="edge6" class="edge">
<title>supriya.patterns.Event.Event&#45;&gt;supriya.patterns.SynthEvent.SynthEvent</title>
<path fill="none" stroke="lightslategrey" d="M316.82,-163.45C330.15,-172.93 350.67,-185.68 370.88,-191 400.06,-198.68 411.13,-203.1 438.76,-191 460.37,-181.54 457.54,-168.11 474.76,-152 475.87,-150.97 477.01,-149.93 478.18,-148.89"/>
<polygon fill="lightslategrey" stroke="lightslategrey" points="480.71,-151.33 486.05,-142.18 476.17,-146 480.71,-151.33"/>
</g>
<!-- supriya.patterns.EventPattern.EventPattern&#45;&gt;supriya.patterns.Pbind.Pbind -->
<g id="edge7" class="edge">
<title>supriya.patterns.EventPattern.EventPattern&#45;&gt;supriya.patterns.Pbind.Pbind</title>
<path fill="none" stroke="lightslategrey" d="M435.81,-359.3C448.69,-355.56 463.7,-351.21 476.5,-347.49"/>
<polygon fill="lightslategrey" stroke="lightslategrey" points="477.59,-350.82 486.22,-344.67 475.64,-344.1 477.59,-350.82"/>
</g>
<!-- supriya.patterns.EventPattern.EventPattern&#45;&gt;supriya.patterns.Pbindf.Pbindf -->
<g id="edge8" class="edge">
<title>supriya.patterns.EventPattern.EventPattern&#45;&gt;supriya.patterns.Pbindf.Pbindf</title>
<path fill="none" stroke="lightslategrey" d="M438.73,-369.38C474.39,-370.87 530.85,-373.22 565.89,-374.69"/>
<polygon fill="lightslategrey" stroke="lightslategrey" points="565.9,-378.19 576.03,-375.11 566.19,-371.2 565.9,-378.19"/>
</g>
<!-- supriya.patterns.EventPattern.EventPattern&#45;&gt;supriya.patterns.Pbus.Pbus -->
<g id="edge9" class="edge">
<title>supriya.patterns.EventPattern.EventPattern&#45;&gt;supriya.patterns.Pbus.Pbus</title>
<path fill="none" stroke="lightslategrey" d="M435.81,-376.7C448.97,-380.52 464.34,-384.98 477.31,-388.74"/>
<polygon fill="lightslategrey" stroke="lightslategrey" points="476.54,-392.16 487.12,-391.59 478.49,-385.44 476.54,-392.16"/>
</g>
<!-- supriya.patterns.EventPattern.EventPattern&#45;&gt;supriya.patterns.Pchain.Pchain -->
<g id="edge10" class="edge">
<title>supriya.patterns.EventPattern.EventPattern&#45;&gt;supriya.patterns.Pchain.Pchain</title>
<path fill="none" stroke="lightslategrey" d="M424.76,-385.33C437.81,-396.17 456.1,-409.3 474.76,-416 503.76,-426.41 539.01,-428.26 564.24,-427.89"/>
<polygon fill="lightslategrey" stroke="lightslategrey" points="564.49,-431.39 574.39,-427.62 564.3,-424.39 564.49,-431.39"/>
</g>
<!-- supriya.patterns.EventPattern.EventPattern&#45;&gt;supriya.patterns.Pfx.Pfx -->
<g id="edge11" class="edge">
<title>supriya.patterns.EventPattern.EventPattern&#45;&gt;supriya.patterns.Pfx.Pfx</title>
<path fill="none" stroke="lightslategrey" d="M424.18,-385.53C437.86,-398.41 457.15,-416.17 474.76,-431 477.95,-433.68 481.39,-436.46 484.78,-439.12"/>
<polygon fill="lightslategrey" stroke="lightslategrey" points="482.86,-442.07 492.91,-445.42 487.14,-436.53 482.86,-442.07"/>
</g>
<!-- supriya.patterns.EventPattern.EventPattern&#45;&gt;supriya.patterns.Pgroup.Pgroup -->
<g id="edge12" class="edge">
<title>supriya.patterns.EventPattern.EventPattern&#45;&gt;supriya.patterns.Pgroup.Pgroup</title>
<path fill="none" stroke="lightslategrey" d="M412.52,-388.89C421.91,-414.25 441.65,-455.86 474.76,-474 502.14,-489 538.4,-487.13 564.35,-482.8"/>
<polygon fill="lightslategrey" stroke="lightslategrey" points="565.25,-486.19 574.44,-480.91 563.96,-479.31 565.25,-486.19"/>
</g>
<!-- supriya.patterns.EventPattern.EventPattern&#45;&gt;supriya.patterns.Pn.Pn -->
<g id="edge13" class="edge">
<title>supriya.patterns.EventPattern.EventPattern&#45;&gt;supriya.patterns.Pn.Pn</title>
<path fill="none" stroke="lightslategrey" d="M424.18,-350.47C437.86,-337.59 457.15,-319.83 474.76,-305 477.95,-302.32 481.39,-299.54 484.78,-296.88"/>
<polygon fill="lightslategrey" stroke="lightslategrey" points="487.14,-299.47 492.91,-290.58 482.86,-293.93 487.14,-299.47"/>
</g>
<!-- supriya.patterns.EventPattern.EventPattern&#45;&gt;supriya.patterns.Ppar.Ppar -->
<g id="edge14" class="edge">
<title>supriya.patterns.EventPattern.EventPattern&#45;&gt;supriya.patterns.Ppar.Ppar</title>
<path fill="none" stroke="lightslategrey" d="M425.57,-351.01C438.67,-340.67 456.71,-328.13 474.76,-321 505.77,-308.76 544.09,-304.37 569.53,-302.82"/>
<polygon fill="lightslategrey" stroke="lightslategrey" points="569.78,-306.31 579.59,-302.31 569.43,-299.32 569.78,-306.31"/>
</g>
<!-- supriya.patterns.Pbind.Pbind&#45;&gt;supriya.patterns.Pmono.Pmono -->
<g id="edge20" class="edge">
<title>supriya.patterns.Pbind.Pbind&#45;&gt;supriya.patterns.Pmono.Pmono</title>
<path fill="none" stroke="lightslategrey" d="M527.63,-339C538.49,-339 552.22,-339 564.62,-339"/>
<polygon fill="lightslategrey" stroke="lightslategrey" points="564.62,-342.5 574.62,-339 564.62,-335.5 564.62,-342.5"/>
</g>
<!-- supriya.patterns.Ppar.Ppar&#45;&gt;supriya.patterns.Pgpar.Pgpar -->
<g id="edge21" class="edge">
<title>supriya.patterns.Ppar.Ppar&#45;&gt;supriya.patterns.Pgpar.Pgpar</title>
<path fill="none" stroke="lightslategrey" d="M617.08,-302C626.01,-302 637.07,-302 647.3,-302"/>
<polygon fill="lightslategrey" stroke="lightslategrey" points="647.53,-305.5 657.53,-302 647.53,-298.5 647.53,-305.5"/>
</g>
<!-- supriya.patterns.Pattern.Pattern&#45;&gt;supriya.patterns.EventPattern.EventPattern -->
<g id="edge15" class="edge">
<title>supriya.patterns.Pattern.Pattern&#45;&gt;supriya.patterns.EventPattern.EventPattern</title>
<path fill="none" stroke="lightslategrey" d="M320.82,-270.15C325.63,-273.37 330.63,-277.08 334.88,-281 345.51,-290.8 367.37,-319.01 383.64,-340.68"/>
<polygon fill="lightslategrey" stroke="lightslategrey" points="381,-342.98 389.79,-348.9 386.61,-338.79 381,-342.98"/>
</g>
<!-- supriya.patterns.Pattern.Pattern&#45;&gt;supriya.patterns.Pbinop.Pbinop -->
<g id="edge16" class="edge">
<title>supriya.patterns.Pattern.Pattern&#45;&gt;supriya.patterns.Pbinop.Pbinop</title>
<path fill="none" stroke="lightslategrey" d="M328.98,-251.3C341.94,-247.61 357.58,-243.16 371.2,-239.29"/>
<polygon fill="lightslategrey" stroke="lightslategrey" points="372.49,-242.56 381.15,-236.45 370.57,-235.83 372.49,-242.56"/>
</g>
<!-- supriya.patterns.Pattern.Pattern&#45;&gt;supriya.patterns.Pseed.Pseed -->
<g id="edge17" class="edge">
<title>supriya.patterns.Pattern.Pattern&#45;&gt;supriya.patterns.Pseed.Pseed</title>
<path fill="none" stroke="lightslategrey" d="M332.37,-264.36C361.83,-267.9 406.61,-268.79 438.76,-249 465.25,-232.7 452.88,-211.09 474.76,-189 475.99,-187.77 477.3,-186.58 478.68,-185.44"/>
<polygon fill="lightslategrey" stroke="lightslategrey" points="480.89,-188.17 486.99,-179.51 476.82,-182.47 480.89,-188.17"/>
</g>
<!-- supriya.patterns.Pattern.Pattern&#45;&gt;supriya.patterns.Pseq.Pseq -->
<g id="edge18" class="edge">
<title>supriya.patterns.Pattern.Pattern&#45;&gt;supriya.patterns.Pseq.Pseq</title>
<path fill="none" stroke="lightslategrey" d="M328.98,-266.7C343.21,-270.75 360.66,-275.71 375.13,-279.83"/>
<polygon fill="lightslategrey" stroke="lightslategrey" points="374.47,-283.28 385.05,-282.66 376.39,-276.55 374.47,-283.28"/>
</g>
<!-- supriya.patterns.Pattern.Pattern&#45;&gt;supriya.patterns.Pwhite.Pwhite -->
<g id="edge19" class="edge">
<title>supriya.patterns.Pattern.Pattern&#45;&gt;supriya.patterns.Pwhite.Pwhite</title>
<path fill="none" stroke="lightslategrey" d="M319.46,-270.53C324.47,-273.87 329.91,-277.55 334.88,-281 351.09,-292.26 352.1,-300.93 370.88,-307 399.59,-316.28 411.5,-319.92 438.76,-307 461.6,-296.18 455.73,-279.61 474.76,-263 476.11,-261.83 477.53,-260.69 478.99,-259.58"/>
<polygon fill="lightslategrey" stroke="lightslategrey" points="481.37,-262.2 487.67,-253.68 477.44,-256.41 481.37,-262.2"/>
</g>
<!-- supriya.patterns.Pseq.Pseq&#45;&gt;supriya.patterns.Prand.Prand -->
<g id="edge22" class="edge">
<title>supriya.patterns.Pseq.Pseq&#45;&gt;supriya.patterns.Prand.Prand</title>
<path fill="none" stroke="lightslategrey" d="M420.04,-278.5C426.01,-274.29 432.92,-269.14 438.76,-264 456.24,-248.64 456.69,-240.65 474.76,-226 476.31,-224.75 477.94,-223.52 479.62,-222.32"/>
<polygon fill="lightslategrey" stroke="lightslategrey" points="481.74,-225.11 488.17,-216.68 477.89,-219.27 481.74,-225.11"/>
</g>
<!-- supriya.system.SupriyaObject&#45;&gt;supriya.patterns.RandomNumberGenerator.RandomNumberGenerator -->
<g id="edge26" class="edge">
<title>supriya.system.SupriyaObject&#45;&gt;supriya.patterns.RandomNumberGenerator.RandomNumberGenerator</title>
<path fill="none" stroke="lightslategrey" d="M145.19,-135.62C156,-131.27 168.99,-126.44 181,-123 207.42,-115.44 237.86,-109.61 261.33,-105.71"/>
<polygon fill="lightslategrey" stroke="lightslategrey" points="261.94,-109.15 271.25,-104.1 260.82,-102.24 261.94,-109.15"/>
</g>
<!-- supriya.system.SupriyaObject&#45;&gt;supriya.system.SupriyaValueObject -->
<g id="edge23" class="edge">
<title>supriya.system.SupriyaObject&#45;&gt;supriya.system.SupriyaValueObject</title>
<path fill="none" stroke="lightslategrey" d="M145.3,-147.74C153.22,-148.3 162.17,-148.94 170.69,-149.55"/>
<polygon fill="lightslategrey" stroke="lightslategrey" points="170.53,-153.05 180.76,-150.27 171.03,-146.06 170.53,-153.05"/>
</g>
<!-- supriya.system.SupriyaValueObject&#45;&gt;supriya.patterns.Event.Event -->
<g id="edge27" class="edge">
<title>supriya.system.SupriyaValueObject&#45;&gt;supriya.patterns.Event.Event</title>
<path fill="none" stroke="lightslategrey" d="M231.42,-152C240.44,-152 250.91,-152 260.9,-152"/>
<polygon fill="lightslategrey" stroke="lightslategrey" points="261.06,-155.5 271.06,-152 261.06,-148.5 261.06,-155.5"/>
</g>
<!-- supriya.system.SupriyaValueObject&#45;&gt;supriya.patterns.EventProduct.EventProduct -->
<g id="edge28" class="edge">
<title>supriya.system.SupriyaValueObject&#45;&gt;supriya.patterns.EventProduct.EventProduct</title>
<path fill="none" stroke="lightslategrey" d="M211.03,-172.96C217.23,-200.47 231.4,-249.01 259,-281 261.46,-283.85 264.34,-286.45 267.43,-288.79"/>
<polygon fill="lightslategrey" stroke="lightslategrey" points="265.61,-291.79 275.88,-294.4 269.48,-285.96 265.61,-291.79"/>
</g>
<!-- supriya.system.SupriyaValueObject&#45;&gt;supriya.patterns.Pattern.Pattern -->
<g id="edge29" class="edge">
<title>supriya.system.SupriyaValueObject&#45;&gt;supriya.patterns.Pattern.Pattern</title>
<path fill="none" stroke="lightslategrey" d="M224.92,-172.63C241.37,-191.57 265.61,-219.48 282.05,-238.41"/>
<polygon fill="lightslategrey" stroke="lightslategrey" points="279.59,-240.91 288.79,-246.16 284.87,-236.31 279.59,-240.91"/>
</g>
<!-- builtins.object -->
<g id="node1" class="node">
<title>builtins.object</title>
<g id="a_node1"><a xlink:href="https://docs.python.org/3/library/functions.html#object" xlink:title="object" target="_top">
<path fill="#fbb4ae" stroke="#fbb4ae" stroke-width="2" d="M52.67,-109.5C52.67,-109.5 22.33,-109.5 22.33,-109.5 19.17,-109.5 16,-106.33 16,-103.17 16,-103.17 16,-96.83 16,-96.83 16,-93.67 19.17,-90.5 22.33,-90.5 22.33,-90.5 52.67,-90.5 52.67,-90.5 55.83,-90.5 59,-93.67 59,-96.83 59,-96.83 59,-103.17 59,-103.17 59,-106.33 55.83,-109.5 52.67,-109.5"/>
<text text-anchor="middle" x="37.5" y="-97.5" font-family="Arial" font-size="10.00">object</text>
</a>
</g>
</g>
<!-- supriya.patterns.BusEvent.BusEvent -->
<g id="node2" class="node">
<title>supriya.patterns.BusEvent.BusEvent</title>
<g id="a_node2"><a xlink:href="../api/supriya/patterns/BusEvent.html#supriya.patterns.BusEvent.BusEvent" xlink:title="Bus\nEvent" target="_top">
<path fill="black" stroke="black" stroke-width="2" d="M415.82,-46C415.82,-46 393.82,-46 393.82,-46 388.82,-46 383.82,-41 383.82,-36 383.82,-36 383.82,-26 383.82,-26 383.82,-21 388.82,-16 393.82,-16 393.82,-16 415.82,-16 415.82,-16 420.82,-16 425.82,-21 425.82,-26 425.82,-26 425.82,-36 425.82,-36 425.82,-41 420.82,-46 415.82,-46"/>
<text text-anchor="middle" x="404.82" y="-34" font-family="Arial" font-size="10.00" fill="white">Bus</text>
<text text-anchor="middle" x="404.82" y="-23" font-family="Arial" font-size="10.00" fill="white">Event</text>
</a>
</g>
</g>
<!-- supriya.patterns.CompositeEvent.CompositeEvent -->
<g id="node3" class="node">
<title>supriya.patterns.CompositeEvent.CompositeEvent</title>
<g id="a_node3"><a xlink:href="../api/supriya/patterns/CompositeEvent.html#supriya.patterns.CompositeEvent.CompositeEvent" xlink:title="Composite\nEvent" target="_top">
<path fill="black" stroke="black" stroke-width="2" d="M528.76,-46C528.76,-46 484.76,-46 484.76,-46 479.76,-46 474.76,-41 474.76,-36 474.76,-36 474.76,-26 474.76,-26 474.76,-21 479.76,-16 484.76,-16 484.76,-16 528.76,-16 528.76,-16 533.76,-16 538.76,-21 538.76,-26 538.76,-26 538.76,-36 538.76,-36 538.76,-41 533.76,-46 528.76,-46"/>
<text text-anchor="middle" x="506.76" y="-34" font-family="Arial" font-size="10.00" fill="white">Composite</text>
<text text-anchor="middle" x="506.76" y="-23" font-family="Arial" font-size="10.00" fill="white">Event</text>
</a>
</g>
</g>
<!-- supriya.patterns.Event.Event -->
<g id="node4" class="node">
<title>supriya.patterns.Event.Event</title>
<g id="a_node4"><a xlink:href="../api/supriya/patterns/Event.html#supriya.patterns.Event.Event" xlink:title="Event" target="_top">
<ellipse fill="black" stroke="black" stroke-width="2" cx="300.94" cy="-152" rx="29.9" ry="13.37"/>
<text text-anchor="middle" x="300.94" y="-149.5" font-family="Arial" font-size="10.00" fill="white">Event</text>
</a>
</g>
</g>
<!-- supriya.patterns.GroupEvent.GroupEvent -->
<g id="node5" class="node">
<title>supriya.patterns.GroupEvent.GroupEvent</title>
<g id="a_node5"><a xlink:href="../api/supriya/patterns/GroupEvent.html#supriya.patterns.GroupEvent.GroupEvent" xlink:title="Group\nEvent" target="_top">
<path fill="black" stroke="black" stroke-width="2" d="M416.32,-114C416.32,-114 393.32,-114 393.32,-114 388.32,-114 383.32,-109 383.32,-104 383.32,-104 383.32,-94 383.32,-94 383.32,-89 388.32,-84 393.32,-84 393.32,-84 416.32,-84 416.32,-84 421.32,-84 426.32,-89 426.32,-94 426.32,-94 426.32,-104 426.32,-104 426.32,-109 421.32,-114 416.32,-114"/>
<text text-anchor="middle" x="404.82" y="-102" font-family="Arial" font-size="10.00" fill="white">Group</text>
<text text-anchor="middle" x="404.82" y="-91" font-family="Arial" font-size="10.00" fill="white">Event</text>
</a>
</g>
</g>
<!-- supriya.patterns.NoteEvent.NoteEvent -->
<g id="node6" class="node">
<title>supriya.patterns.NoteEvent.NoteEvent</title>
<g id="a_node6"><a xlink:href="../api/supriya/patterns/NoteEvent.html#supriya.patterns.NoteEvent.NoteEvent" xlink:title="Note\nEvent" target="_top">
<path fill="black" stroke="black" stroke-width="2" d="M517.76,-94C517.76,-94 495.76,-94 495.76,-94 490.76,-94 485.76,-89 485.76,-84 485.76,-84 485.76,-74 485.76,-74 485.76,-69 490.76,-64 495.76,-64 495.76,-64 517.76,-64 517.76,-64 522.76,-64 527.76,-69 527.76,-74 527.76,-74 527.76,-84 527.76,-84 527.76,-89 522.76,-94 517.76,-94"/>
<text text-anchor="middle" x="506.76" y="-82" font-family="Arial" font-size="10.00" fill="white">Note</text>
<text text-anchor="middle" x="506.76" y="-71" font-family="Arial" font-size="10.00" fill="white">Event</text>
</a>
</g>
</g>
<!-- supriya.patterns.NullEvent.NullEvent -->
<g id="node7" class="node">
<title>supriya.patterns.NullEvent.NullEvent</title>
<g id="a_node7"><a xlink:href="../api/supriya/patterns/NullEvent.html#supriya.patterns.NullEvent.NullEvent" xlink:title="Null\nEvent" target="_top">
<path fill="black" stroke="black" stroke-width="2" d="M415.82,-182C415.82,-182 393.82,-182 393.82,-182 388.82,-182 383.82,-177 383.82,-172 383.82,-172 383.82,-162 383.82,-162 383.82,-157 388.82,-152 393.82,-152 393.82,-152 415.82,-152 415.82,-152 420.82,-152 425.82,-157 425.82,-162 425.82,-162 425.82,-172 425.82,-172 425.82,-177 420.82,-182 415.82,-182"/>
<text text-anchor="middle" x="404.82" y="-170" font-family="Arial" font-size="10.00" fill="white">Null</text>
<text text-anchor="middle" x="404.82" y="-159" font-family="Arial" font-size="10.00" fill="white">Event</text>
</a>
</g>
</g>
<!-- supriya.patterns.SynthEvent.SynthEvent -->
<g id="node8" class="node">
<title>supriya.patterns.SynthEvent.SynthEvent</title>
<g id="a_node8"><a xlink:href="../api/supriya/patterns/SynthEvent.html#supriya.patterns.SynthEvent.SynthEvent" xlink:title="Synth\nEvent" target="_top">
<path fill="black" stroke="black" stroke-width="2" d="M517.76,-142C517.76,-142 495.76,-142 495.76,-142 490.76,-142 485.76,-137 485.76,-132 485.76,-132 485.76,-122 485.76,-122 485.76,-117 490.76,-112 495.76,-112 495.76,-112 517.76,-112 517.76,-112 522.76,-112 527.76,-117 527.76,-122 527.76,-122 527.76,-132 527.76,-132 527.76,-137 522.76,-142 517.76,-142"/>
<text text-anchor="middle" x="506.76" y="-130" font-family="Arial" font-size="10.00" fill="white">Synth</text>
<text text-anchor="middle" x="506.76" y="-119" font-family="Arial" font-size="10.00" fill="white">Event</text>
</a>
</g>
</g>
<!-- supriya.patterns.EventPattern.EventPattern -->
<g id="node9" class="node">
<title>supriya.patterns.EventPattern.EventPattern</title>
<g id="a_node9"><a xlink:href="../api/supriya/patterns/EventPattern.html#supriya.patterns.EventPattern.EventPattern" xlink:title="Event\nPattern" target="_top">
<ellipse fill="black" stroke="black" stroke-width="2" cx="404.82" cy="-368" rx="33.88" ry="21.43"/>
<text text-anchor="middle" x="404.82" y="-371" font-family="Arial" font-size="10.00" fill="white">Event</text>
<text text-anchor="middle" x="404.82" y="-360" font-family="Arial" font-size="10.00" fill="white">Pattern</text>
</a>
</g>
</g>
<!-- supriya.patterns.Pbind.Pbind -->
<g id="node10" class="node">
<title>supriya.patterns.Pbind.Pbind</title>
<g id="a_node10"><a xlink:href="../api/supriya/patterns/Pbind.html#supriya.patterns.Pbind.Pbind" xlink:title="Pbind" target="_top">
<path fill="black" stroke="black" stroke-width="2" d="M520.93,-348.5C520.93,-348.5 492.6,-348.5 492.6,-348.5 489.43,-348.5 486.26,-345.33 486.26,-342.17 486.26,-342.17 486.26,-335.83 486.26,-335.83 486.26,-332.67 489.43,-329.5 492.6,-329.5 492.6,-329.5 520.93,-329.5 520.93,-329.5 524.1,-329.5 527.26,-332.67 527.26,-335.83 527.26,-335.83 527.26,-342.17 527.26,-342.17 527.26,-345.33 524.1,-348.5 520.93,-348.5"/>
<text text-anchor="middle" x="506.76" y="-336.5" font-family="Arial" font-size="10.00" fill="white">Pbind</text>
</a>
</g>
</g>
<!-- supriya.patterns.Pbindf.Pbindf -->
<g id="node11" class="node">
<title>supriya.patterns.Pbindf.Pbindf</title>
<g id="a_node11"><a xlink:href="../api/supriya/patterns/Pbindf.html#supriya.patterns.Pbindf.Pbindf" xlink:title="Pbindf" target="_top">
<path fill="black" stroke="black" stroke-width="2" d="M613.93,-385.5C613.93,-385.5 582.6,-385.5 582.6,-385.5 579.43,-385.5 576.26,-382.33 576.26,-379.17 576.26,-379.17 576.26,-372.83 576.26,-372.83 576.26,-369.67 579.43,-366.5 582.6,-366.5 582.6,-366.5 613.93,-366.5 613.93,-366.5 617.1,-366.5 620.26,-369.67 620.26,-372.83 620.26,-372.83 620.26,-379.17 620.26,-379.17 620.26,-382.33 617.1,-385.5 613.93,-385.5"/>
<text text-anchor="middle" x="598.26" y="-373.5" font-family="Arial" font-size="10.00" fill="white">Pbindf</text>
</a>
</g>
</g>
<!-- supriya.patterns.Pbus.Pbus -->
<g id="node12" class="node">
<title>supriya.patterns.Pbus.Pbus</title>
<g id="a_node12"><a xlink:href="../api/supriya/patterns/Pbus.html#supriya.patterns.Pbus.Pbus" xlink:title="Pbus" target="_top">
<path fill="black" stroke="black" stroke-width="2" d="M519.93,-406.5C519.93,-406.5 493.6,-406.5 493.6,-406.5 490.43,-406.5 487.26,-403.33 487.26,-400.17 487.26,-400.17 487.26,-393.83 487.26,-393.83 487.26,-390.67 490.43,-387.5 493.6,-387.5 493.6,-387.5 519.93,-387.5 519.93,-387.5 523.1,-387.5 526.26,-390.67 526.26,-393.83 526.26,-393.83 526.26,-400.17 526.26,-400.17 526.26,-403.33 523.1,-406.5 519.93,-406.5"/>
<text text-anchor="middle" x="506.76" y="-394.5" font-family="Arial" font-size="10.00" fill="white">Pbus</text>
</a>
</g>
</g>
<!-- supriya.patterns.Pchain.Pchain -->
<g id="node13" class="node">
<title>supriya.patterns.Pchain.Pchain</title>
<g id="a_node13"><a xlink:href="../api/supriya/patterns/Pchain.html#supriya.patterns.Pchain.Pchain" xlink:title="Pchain" target="_top">
<path fill="black" stroke="black" stroke-width="2" d="M615.43,-435.5C615.43,-435.5 581.1,-435.5 581.1,-435.5 577.93,-435.5 574.76,-432.33 574.76,-429.17 574.76,-429.17 574.76,-422.83 574.76,-422.83 574.76,-419.67 577.93,-416.5 581.1,-416.5 581.1,-416.5 615.43,-416.5 615.43,-416.5 618.6,-416.5 621.76,-419.67 621.76,-422.83 621.76,-422.83 621.76,-429.17 621.76,-429.17 621.76,-432.33 618.6,-435.5 615.43,-435.5"/>
<text text-anchor="middle" x="598.26" y="-423.5" font-family="Arial" font-size="10.00" fill="white">Pchain</text>
</a>
</g>
</g>
<!-- supriya.patterns.Pfx.Pfx -->
<g id="node14" class="node">
<title>supriya.patterns.Pfx.Pfx</title>
<g id="a_node14"><a xlink:href="../api/supriya/patterns/Pfx.html#supriya.patterns.Pfx.Pfx" xlink:title="Pfx" target="_top">
<path fill="black" stroke="black" stroke-width="2" d="M516.43,-464.5C516.43,-464.5 497.1,-464.5 497.1,-464.5 493.93,-464.5 490.76,-461.33 490.76,-458.17 490.76,-458.17 490.76,-451.83 490.76,-451.83 490.76,-448.67 493.93,-445.5 497.1,-445.5 497.1,-445.5 516.43,-445.5 516.43,-445.5 519.6,-445.5 522.76,-448.67 522.76,-451.83 522.76,-451.83 522.76,-458.17 522.76,-458.17 522.76,-461.33 519.6,-464.5 516.43,-464.5"/>
<text text-anchor="middle" x="506.76" y="-452.5" font-family="Arial" font-size="10.00" fill="white">Pfx</text>
</a>
</g>
</g>
<!-- supriya.patterns.Pgroup.Pgroup -->
<g id="node15" class="node">
<title>supriya.patterns.Pgroup.Pgroup</title>
<g id="a_node15"><a xlink:href="../api/supriya/patterns/Pgroup.html#supriya.patterns.Pgroup.Pgroup" xlink:title="Pgroup" target="_top">
<path fill="black" stroke="black" stroke-width="2" d="M615.43,-484.5C615.43,-484.5 581.1,-484.5 581.1,-484.5 577.93,-484.5 574.76,-481.33 574.76,-478.17 574.76,-478.17 574.76,-471.83 574.76,-471.83 574.76,-468.67 577.93,-465.5 581.1,-465.5 581.1,-465.5 615.43,-465.5 615.43,-465.5 618.6,-465.5 621.76,-468.67 621.76,-471.83 621.76,-471.83 621.76,-478.17 621.76,-478.17 621.76,-481.33 618.6,-484.5 615.43,-484.5"/>
<text text-anchor="middle" x="598.26" y="-472.5" font-family="Arial" font-size="10.00" fill="white">Pgroup</text>
</a>
</g>
</g>
<!-- supriya.patterns.Pn.Pn -->
<g id="node16" class="node">
<title>supriya.patterns.Pn.Pn</title>
<g id="a_node16"><a xlink:href="../api/supriya/patterns/Pn.html#supriya.patterns.Pn.Pn" xlink:title="Pn" target="_top">
<path fill="black" stroke="black" stroke-width="2" d="M514.93,-290.5C514.93,-290.5 498.6,-290.5 498.6,-290.5 495.43,-290.5 492.26,-287.33 492.26,-284.17 492.26,-284.17 492.26,-277.83 492.26,-277.83 492.26,-274.67 495.43,-271.5 498.6,-271.5 498.6,-271.5 514.93,-271.5 514.93,-271.5 518.1,-271.5 521.26,-274.67 521.26,-277.83 521.26,-277.83 521.26,-284.17 521.26,-284.17 521.26,-287.33 518.1,-290.5 514.93,-290.5"/>
<text text-anchor="middle" x="506.76" y="-278.5" font-family="Arial" font-size="10.00" fill="white">Pn</text>
</a>
</g>
</g>
<!-- supriya.patterns.Ppar.Ppar -->
<g id="node17" class="node">
<title>supriya.patterns.Ppar.Ppar</title>
<g id="a_node17"><a xlink:href="../api/supriya/patterns/Ppar.html#supriya.patterns.Ppar.Ppar" xlink:title="Ppar" target="_top">
<path fill="black" stroke="black" stroke-width="2" d="M610.43,-311.5C610.43,-311.5 586.1,-311.5 586.1,-311.5 582.93,-311.5 579.76,-308.33 579.76,-305.17 579.76,-305.17 579.76,-298.83 579.76,-298.83 579.76,-295.67 582.93,-292.5 586.1,-292.5 586.1,-292.5 610.43,-292.5 610.43,-292.5 613.6,-292.5 616.76,-295.67 616.76,-298.83 616.76,-298.83 616.76,-305.17 616.76,-305.17 616.76,-308.33 613.6,-311.5 610.43,-311.5"/>
<text text-anchor="middle" x="598.26" y="-299.5" font-family="Arial" font-size="10.00" fill="white">Ppar</text>
</a>
</g>
</g>
<!-- supriya.patterns.EventPlayer.EventPlayer -->
<g id="node18" class="node">
<title>supriya.patterns.EventPlayer.EventPlayer</title>
<g id="a_node18"><a xlink:href="../api/supriya/patterns/EventPlayer.html#supriya.patterns.EventPlayer.EventPlayer" xlink:title="Event\nPlayer" target="_top">
<path fill="black" stroke="black" stroke-width="2" d="M312.94,-61C312.94,-61 288.94,-61 288.94,-61 283.94,-61 278.94,-56 278.94,-51 278.94,-51 278.94,-41 278.94,-41 278.94,-36 283.94,-31 288.94,-31 288.94,-31 312.94,-31 312.94,-31 317.94,-31 322.94,-36 322.94,-41 322.94,-41 322.94,-51 322.94,-51 322.94,-56 317.94,-61 312.94,-61"/>
<text text-anchor="middle" x="300.94" y="-49" font-family="Arial" font-size="10.00" fill="white">Event</text>
<text text-anchor="middle" x="300.94" y="-38" font-family="Arial" font-size="10.00" fill="white">Player</text>
</a>
</g>
</g>
<!-- supriya.patterns.EventProduct.EventProduct -->
<g id="node19" class="node">
<title>supriya.patterns.EventProduct.EventProduct</title>
<g id="a_node19"><a xlink:href="../api/supriya/patterns/EventProduct.html#supriya.patterns.EventProduct.EventProduct" xlink:title="Event\nProduct" target="_top">
<path fill="black" stroke="black" stroke-width="2" d="M315.94,-320C315.94,-320 285.94,-320 285.94,-320 280.94,-320 275.94,-315 275.94,-310 275.94,-310 275.94,-300 275.94,-300 275.94,-295 280.94,-290 285.94,-290 285.94,-290 315.94,-290 315.94,-290 320.94,-290 325.94,-295 325.94,-300 325.94,-300 325.94,-310 325.94,-310 325.94,-315 320.94,-320 315.94,-320"/>
<text text-anchor="middle" x="300.94" y="-308" font-family="Arial" font-size="10.00" fill="white">Event</text>
<text text-anchor="middle" x="300.94" y="-297" font-family="Arial" font-size="10.00" fill="white">Product</text>
</a>
</g>
</g>
<!-- supriya.patterns.Pattern.Pattern -->
<g id="node20" class="node">
<title>supriya.patterns.Pattern.Pattern</title>
<g id="a_node20"><a xlink:href="../api/supriya/patterns/Pattern.html#supriya.patterns.Pattern.Pattern" xlink:title="Pattern" target="_top">
<ellipse fill="black" stroke="black" stroke-width="2" cx="300.94" cy="-259" rx="33.88" ry="13.37"/>
<text text-anchor="middle" x="300.94" y="-256.5" font-family="Arial" font-size="10.00" fill="white">Pattern</text>
</a>
</g>
</g>
<!-- supriya.patterns.Pbinop.Pbinop -->
<g id="node21" class="node">
<title>supriya.patterns.Pbinop.Pbinop</title>
<g id="a_node21"><a xlink:href="../api/supriya/patterns/Pbinop.html#supriya.patterns.Pbinop.Pbinop" xlink:title="Pbinop" target="_top">
<path fill="black" stroke="black" stroke-width="2" d="M421.99,-239.5C421.99,-239.5 387.66,-239.5 387.66,-239.5 384.49,-239.5 381.32,-236.33 381.32,-233.17 381.32,-233.17 381.32,-226.83 381.32,-226.83 381.32,-223.67 384.49,-220.5 387.66,-220.5 387.66,-220.5 421.99,-220.5 421.99,-220.5 425.16,-220.5 428.32,-223.67 428.32,-226.83 428.32,-226.83 428.32,-233.17 428.32,-233.17 428.32,-236.33 425.16,-239.5 421.99,-239.5"/>
<text text-anchor="middle" x="404.82" y="-227.5" font-family="Arial" font-size="10.00" fill="white">Pbinop</text>
</a>
</g>
</g>
<!-- supriya.patterns.Pseed.Pseed -->
<g id="node22" class="node">
<title>supriya.patterns.Pseed.Pseed</title>
<g id="a_node22"><a xlink:href="../api/supriya/patterns/Pseed.html#supriya.patterns.Pseed.Pseed" xlink:title="Pseed" target="_top">
<path fill="black" stroke="black" stroke-width="2" d="M522.43,-179.5C522.43,-179.5 491.1,-179.5 491.1,-179.5 487.93,-179.5 484.76,-176.33 484.76,-173.17 484.76,-173.17 484.76,-166.83 484.76,-166.83 484.76,-163.67 487.93,-160.5 491.1,-160.5 491.1,-160.5 522.43,-160.5 522.43,-160.5 525.6,-160.5 528.76,-163.67 528.76,-166.83 528.76,-166.83 528.76,-173.17 528.76,-173.17 528.76,-176.33 525.6,-179.5 522.43,-179.5"/>
<text text-anchor="middle" x="506.76" y="-167.5" font-family="Arial" font-size="10.00" fill="white">Pseed</text>
</a>
</g>
</g>
<!-- supriya.patterns.Pseq.Pseq -->
<g id="node23" class="node">
<title>supriya.patterns.Pseq.Pseq</title>
<g id="a_node23"><a xlink:href="../api/supriya/patterns/Pseq.html#supriya.patterns.Pseq.Pseq" xlink:title="Pseq" target="_top">
<path fill="black" stroke="black" stroke-width="2" d="M417.99,-297.5C417.99,-297.5 391.66,-297.5 391.66,-297.5 388.49,-297.5 385.32,-294.33 385.32,-291.17 385.32,-291.17 385.32,-284.83 385.32,-284.83 385.32,-281.67 388.49,-278.5 391.66,-278.5 391.66,-278.5 417.99,-278.5 417.99,-278.5 421.16,-278.5 424.32,-281.67 424.32,-284.83 424.32,-284.83 424.32,-291.17 424.32,-291.17 424.32,-294.33 421.16,-297.5 417.99,-297.5"/>
<text text-anchor="middle" x="404.82" y="-285.5" font-family="Arial" font-size="10.00" fill="white">Pseq</text>
</a>
</g>
</g>
<!-- supriya.patterns.Pwhite.Pwhite -->
<g id="node24" class="node">
<title>supriya.patterns.Pwhite.Pwhite</title>
<g id="a_node24"><a xlink:href="../api/supriya/patterns/Pwhite.html#supriya.patterns.Pwhite.Pwhite" xlink:title="Pwhite" target="_top">
<path fill="black" stroke="black" stroke-width="2" d="M523.93,-253.5C523.93,-253.5 489.6,-253.5 489.6,-253.5 486.43,-253.5 483.26,-250.33 483.26,-247.17 483.26,-247.17 483.26,-240.83 483.26,-240.83 483.26,-237.67 486.43,-234.5 489.6,-234.5 489.6,-234.5 523.93,-234.5 523.93,-234.5 527.1,-234.5 530.26,-237.67 530.26,-240.83 530.26,-240.83 530.26,-247.17 530.26,-247.17 530.26,-250.33 527.1,-253.5 523.93,-253.5"/>
<text text-anchor="middle" x="506.76" y="-241.5" font-family="Arial" font-size="10.00" fill="white">Pwhite</text>
</a>
</g>
</g>
<!-- supriya.patterns.Pmono.Pmono -->
<g id="node25" class="node">
<title>supriya.patterns.Pmono.Pmono</title>
<g id="a_node25"><a xlink:href="../api/supriya/patterns/Pmono.html#supriya.patterns.Pmono.Pmono" xlink:title="Pmono" target="_top">
<path fill="black" stroke="black" stroke-width="2" d="M615.43,-348.5C615.43,-348.5 581.1,-348.5 581.1,-348.5 577.93,-348.5 574.76,-345.33 574.76,-342.17 574.76,-342.17 574.76,-335.83 574.76,-335.83 574.76,-332.67 577.93,-329.5 581.1,-329.5 581.1,-329.5 615.43,-329.5 615.43,-329.5 618.6,-329.5 621.76,-332.67 621.76,-335.83 621.76,-335.83 621.76,-342.17 621.76,-342.17 621.76,-345.33 618.6,-348.5 615.43,-348.5"/>
<text text-anchor="middle" x="598.26" y="-336.5" font-family="Arial" font-size="10.00" fill="white">Pmono</text>
</a>
</g>
</g>
<!-- supriya.patterns.Pgpar.Pgpar -->
<g id="node26" class="node">
<title>supriya.patterns.Pgpar.Pgpar</title>
<g id="a_node26"><a xlink:href="../api/supriya/patterns/Pgpar.html#supriya.patterns.Pgpar.Pgpar" xlink:title="Pgpar" target="_top">
<path fill="black" stroke="black" stroke-width="2" d="M693.43,-311.5C693.43,-311.5 664.1,-311.5 664.1,-311.5 660.93,-311.5 657.76,-308.33 657.76,-305.17 657.76,-305.17 657.76,-298.83 657.76,-298.83 657.76,-295.67 660.93,-292.5 664.1,-292.5 664.1,-292.5 693.43,-292.5 693.43,-292.5 696.6,-292.5 699.76,-295.67 699.76,-298.83 699.76,-298.83 699.76,-305.17 699.76,-305.17 699.76,-308.33 696.6,-311.5 693.43,-311.5"/>
<text text-anchor="middle" x="678.76" y="-299.5" font-family="Arial" font-size="10.00" fill="white">Pgpar</text>
</a>
</g>
</g>
<!-- supriya.patterns.Prand.Prand -->
<g id="node27" class="node">
<title>supriya.patterns.Prand.Prand</title>
<g id="a_node27"><a xlink:href="../api/supriya/patterns/Prand.html#supriya.patterns.Prand.Prand" xlink:title="Prand" target="_top">
<path fill="black" stroke="black" stroke-width="2" d="M521.43,-216.5C521.43,-216.5 492.1,-216.5 492.1,-216.5 488.93,-216.5 485.76,-213.33 485.76,-210.17 485.76,-210.17 485.76,-203.83 485.76,-203.83 485.76,-200.67 488.93,-197.5 492.1,-197.5 492.1,-197.5 521.43,-197.5 521.43,-197.5 524.6,-197.5 527.76,-200.67 527.76,-203.83 527.76,-203.83 527.76,-210.17 527.76,-210.17 527.76,-213.33 524.6,-216.5 521.43,-216.5"/>
<text text-anchor="middle" x="506.76" y="-204.5" font-family="Arial" font-size="10.00" fill="white">Prand</text>
</a>
</g>
</g>
<!-- supriya.patterns.RandomNumberGenerator.RandomNumberGenerator -->
<g id="node28" class="node">
<title>supriya.patterns.RandomNumberGenerator.RandomNumberGenerator</title>
<g id="a_node28"><a xlink:href="../api/supriya/patterns/RandomNumberGenerator.html#supriya.patterns.RandomNumberGenerator.RandomNumberGenerator" xlink:title="Random\nNumber\nGenerator" target="_top">
<path fill="black" stroke="black" stroke-width="2" d="M318.44,-120.5C318.44,-120.5 283.44,-120.5 283.44,-120.5 277.44,-120.5 271.44,-114.5 271.44,-108.5 271.44,-108.5 271.44,-91.5 271.44,-91.5 271.44,-85.5 277.44,-79.5 283.44,-79.5 283.44,-79.5 318.44,-79.5 318.44,-79.5 324.44,-79.5 330.44,-85.5 330.44,-91.5 330.44,-91.5 330.44,-108.5 330.44,-108.5 330.44,-114.5 324.44,-120.5 318.44,-120.5"/>
<text text-anchor="middle" x="300.94" y="-108.5" font-family="Arial" font-size="10.00" fill="white">Random</text>
<text text-anchor="middle" x="300.94" y="-97.5" font-family="Arial" font-size="10.00" fill="white">Number</text>
<text text-anchor="middle" x="300.94" y="-86.5" font-family="Arial" font-size="10.00" fill="white">Generator</text>
</a>
</g>
</g>
<!-- supriya.system.SupriyaObject -->
<g id="node29" class="node">
<title>supriya.system.SupriyaObject</title>
<g id="a_node29"><a xlink:href="../api/supriya/patterns/../system.html#supriya.system.SupriyaObject" xlink:title="Supriya\nObject" target="_top">
<path fill="#ccebc5" stroke="#ccebc5" stroke-width="2" d="M135,-161C135,-161 105,-161 105,-161 100,-161 95,-156 95,-151 95,-151 95,-141 95,-141 95,-136 100,-131 105,-131 105,-131 135,-131 135,-131 140,-131 145,-136 145,-141 145,-141 145,-151 145,-151 145,-156 140,-161 135,-161"/>
<text text-anchor="middle" x="120" y="-149" font-family="Arial" font-size="10.00">Supriya</text>
<text text-anchor="middle" x="120" y="-138" font-family="Arial" font-size="10.00">Object</text>
</a>
</g>
</g>
<!-- supriya.system.SupriyaValueObject -->
<g id="node30" class="node">
<title>supriya.system.SupriyaValueObject</title>
<g id="a_node30"><a xlink:href="../api/supriya/patterns/../system.html#supriya.system.SupriyaValueObject" xlink:title="Supriya\nValue\nObject" target="_top">
<path fill="#ccebc5" stroke="#ccebc5" stroke-width="2" d="M219,-172.5C219,-172.5 193,-172.5 193,-172.5 187,-172.5 181,-166.5 181,-160.5 181,-160.5 181,-143.5 181,-143.5 181,-137.5 187,-131.5 193,-131.5 193,-131.5 219,-131.5 219,-131.5 225,-131.5 231,-137.5 231,-143.5 231,-143.5 231,-160.5 231,-160.5 231,-166.5 225,-172.5 219,-172.5"/>
<text text-anchor="middle" x="206" y="-160.5" font-family="Arial" font-size="10.00">Supriya</text>
<text text-anchor="middle" x="206" y="-149.5" font-family="Arial" font-size="10.00">Value</text>
<text text-anchor="middle" x="206" y="-138.5" font-family="Arial" font-size="10.00">Object</text>
</a>
</g>
</g>
</g>
</svg>
