<?xml version="1.0" encoding="UTF-8" standalone="no"?>
<!DOCTYPE svg PUBLIC "-//W3C//DTD SVG 1.1//EN"
 "http://www.w3.org/Graphics/SVG/1.1/DTD/svg11.dtd">
<!-- Generated by graphviz version 2.40.1 (20161225.0304)
 -->
<!-- Title: InheritanceGraph Pages: 1 -->
<svg width="479pt" height="270pt"
 viewBox="0.00 0.00 479.00 270.00" xmlns="http://www.w3.org/2000/svg" xmlns:xlink="http://www.w3.org/1999/xlink">
<g id="graph0" class="graph" transform="scale(1 1) rotate(0) translate(4 266)">
<title>InheritanceGraph</title>
<g id="clust1" class="cluster">
<title>cluster_builtins</title>
<path fill="transparent" stroke="#bcd2ee" stroke-width="2" stroke-dasharray="5,2" d="M20,-127C20,-127 49,-127 49,-127 55,-127 61,-133 61,-139 61,-139 61,-170 61,-170 61,-176 55,-182 49,-182 49,-182 20,-182 20,-182 14,-182 8,-176 8,-170 8,-170 8,-139 8,-139 8,-133 14,-127 20,-127"/>
<text text-anchor="middle" x="34.5" y="-170" font-family="Arial" font-size="10.00" fill="#000000">builtins</text>
</g>
<g id="clust2" class="cluster">
<title>cluster_supriya.daw</title>
<path fill="transparent" stroke="#bcd2ee" stroke-width="2" stroke-dasharray="5,2" d="M176.5,-8C176.5,-8 451,-8 451,-8 457,-8 463,-14 463,-20 463,-20 463,-157 463,-157 463,-163 457,-169 451,-169 451,-169 176.5,-169 176.5,-169 170.5,-169 164.5,-163 164.5,-157 164.5,-157 164.5,-20 164.5,-20 164.5,-14 170.5,-8 176.5,-8"/>
<text text-anchor="middle" x="313.75" y="-157" font-family="Arial" font-size="10.00" fill="#000000">supriya.daw</text>
</g>
<g id="clust3" class="cluster">
<title>cluster_uqbar.containers</title>
<path fill="transparent" stroke="#bcd2ee" stroke-width="2" stroke-dasharray="5,2" d="M93,-177C93,-177 287,-177 287,-177 293,-177 299,-183 299,-189 299,-189 299,-242 299,-242 299,-248 293,-254 287,-254 287,-254 93,-254 93,-254 87,-254 81,-248 81,-242 81,-242 81,-189 81,-189 81,-183 87,-177 93,-177"/>
<text text-anchor="middle" x="190" y="-242" font-family="Arial" font-size="10.00" fill="#000000">uqbar.containers</text>
</g>
<!-- builtins.object&#45;&gt;supriya.daw.MixerContext.MixerContext -->
<g id="edge9" class="edge">
<title>builtins.object&#45;&gt;supriya.daw.MixerContext.MixerContext</title>
<path fill="none" stroke="#778899" d="M53.2129,-138.0645C78.2663,-128.9853 124.228,-113.0483 164.5,-103 189.4425,-96.7766 218.1582,-91.7765 239.482,-88.4708"/>
<polygon fill="#778899" stroke="#778899" points="240.2378,-91.8964 249.6032,-86.9426 239.1927,-84.9749 240.2378,-91.8964"/>
</g>
<!-- builtins.object&#45;&gt;uqbar.containers.UniqueTreeNode.UniqueTreeNode -->
<g id="edge10" class="edge">
<title>builtins.object&#45;&gt;uqbar.containers.UniqueTreeNode.UniqueTreeNode</title>
<path fill="none" stroke="#778899" d="M46.1406,-154.5313C55.3843,-162.0999 68.7061,-173.0076 80.7086,-182.8352"/>
<polygon fill="#778899" stroke="#778899" points="78.7863,-185.7849 88.741,-189.4121 83.221,-180.3688 78.7863,-185.7849"/>
</g>
<!-- supriya.daw.DawNode.DawNode&#45;&gt;supriya.daw.Device.Device -->
<g id="edge1" class="edge">
<title>supriya.daw.DawNode.DawNode&#45;&gt;supriya.daw.Device.Device</title>
<path fill="none" stroke="#778899" d="M206.7841,-127C216.8009,-127 229.6873,-127 241.2843,-127"/>
<polygon fill="#778899" stroke="#778899" points="241.4528,-130.5001 251.4528,-127 241.4528,-123.5001 241.4528,-130.5001"/>
</g>
<!-- supriya.daw.Device.Device&#45;&gt;supriya.daw.RackDevice.RackDevice -->
<g id="edge2" class="edge">
<title>supriya.daw.Device.Device&#45;&gt;supriya.daw.RackDevice.RackDevice</title>
<path fill="none" stroke="#778899" d="M290.7007,-121.3345C298.9993,-118.9479 308.8349,-116.1194 317.9697,-113.4924"/>
<polygon fill="#778899" stroke="#778899" points="319.223,-116.7739 327.8661,-110.6463 317.2883,-110.0465 319.223,-116.7739"/>
</g>
<!-- supriya.daw.MixerContext.MixerContext&#45;&gt;supriya.daw.RackDevice.RackDevice -->
<g id="edge3" class="edge">
<title>supriya.daw.MixerContext.MixerContext&#45;&gt;supriya.daw.RackDevice.RackDevice</title>
<path fill="none" stroke="#778899" d="M292.3095,-89.8497C300.3171,-92.0478 309.5661,-94.5868 318.1759,-96.9503"/>
<polygon fill="#778899" stroke="#778899" points="317.3072,-100.3412 327.877,-99.6133 319.1602,-93.5909 317.3072,-100.3412"/>
</g>
<!-- supriya.daw.RackDevice.RackDevice&#45;&gt;supriya.daw.AudioRack.AudioRack -->
<g id="edge4" class="edge">
<title>supriya.daw.RackDevice.RackDevice&#45;&gt;supriya.daw.AudioRack.AudioRack</title>
<path fill="none" stroke="#778899" d="M364.3869,-89.6672C376.0474,-79.0797 391.733,-64.8376 404.7292,-53.0373"/>
<polygon fill="#778899" stroke="#778899" points="407.3629,-55.3735 412.4136,-46.06 402.6573,-50.191 407.3629,-55.3735"/>
</g>
<!-- supriya.daw.RackDevice.RackDevice&#45;&gt;supriya.daw.InstrumentRack.InstrumentRack -->
<g id="edge5" class="edge">
<title>supriya.daw.RackDevice.RackDevice&#45;&gt;supriya.daw.InstrumentRack.InstrumentRack</title>
<path fill="none" stroke="#778899" d="M367.2289,-98.7061C375.1168,-96.1897 384.4518,-93.2117 393.4438,-90.3431"/>
<polygon fill="#778899" stroke="#778899" points="394.5186,-93.6741 402.9818,-87.3003 392.3911,-87.0052 394.5186,-93.6741"/>
</g>
<!-- supriya.daw.RackDevice.RackDevice&#45;&gt;supriya.daw.MidiRack.MidiRack -->
<g id="edge6" class="edge">
<title>supriya.daw.RackDevice.RackDevice&#45;&gt;supriya.daw.MidiRack.MidiRack</title>
<path fill="none" stroke="#778899" d="M367.2289,-110.3256C377.6887,-113.1491 390.6931,-116.6595 402.0681,-119.73"/>
<polygon fill="#778899" stroke="#778899" points="401.37,-123.1668 411.9366,-122.3939 403.1944,-116.4087 401.37,-123.1668"/>
</g>
<!-- uqbar.containers.UniqueTreeContainer.UniqueTreeContainer&#45;&gt;uqbar.containers.UniqueTreeTuple.UniqueTreeTuple -->
<g id="edge7" class="edge">
<title>uqbar.containers.UniqueTreeContainer.UniqueTreeContainer&#45;&gt;uqbar.containers.UniqueTreeTuple.UniqueTreeTuple</title>
<path fill="none" stroke="#778899" d="M214.3955,-206C222.7156,-206 232.0803,-206 240.7619,-206"/>
<polygon fill="#778899" stroke="#778899" points="240.8965,-209.5001 250.8964,-206 240.8964,-202.5001 240.8965,-209.5001"/>
</g>
<!-- uqbar.containers.UniqueTreeNode.UniqueTreeNode&#45;&gt;supriya.daw.DawNode.DawNode -->
<g id="edge11" class="edge">
<title>uqbar.containers.UniqueTreeNode.UniqueTreeNode&#45;&gt;supriya.daw.DawNode.DawNode</title>
<path fill="none" stroke="#778899" d="M129.3135,-186.065C140.6995,-174.8912 154.9329,-160.923 166.6993,-149.3759"/>
<polygon fill="#778899" stroke="#778899" points="169.3347,-151.6934 174.0205,-142.1911 164.4317,-146.6973 169.3347,-151.6934"/>
</g>
<!-- uqbar.containers.UniqueTreeNode.UniqueTreeNode&#45;&gt;uqbar.containers.UniqueTreeContainer.UniqueTreeContainer -->
<g id="edge8" class="edge">
<title>uqbar.containers.UniqueTreeNode.UniqueTreeNode&#45;&gt;uqbar.containers.UniqueTreeContainer.UniqueTreeContainer</title>
<path fill="none" stroke="#778899" d="M129.3135,-206C136.9959,-206 145.9745,-206 154.617,-206"/>
<polygon fill="#778899" stroke="#778899" points="154.8826,-209.5001 164.8825,-206 154.8825,-202.5001 154.8826,-209.5001"/>
</g>
<!-- uqbar.containers.UniqueTreeTuple.UniqueTreeTuple&#45;&gt;supriya.daw.RackDevice.RackDevice -->
<g id="edge12" class="edge">
<title>uqbar.containers.UniqueTreeTuple.UniqueTreeTuple&#45;&gt;supriya.daw.RackDevice.RackDevice</title>
<path fill="none" stroke="#778899" d="M289.0442,-185.2705C292.4141,-181.2493 295.8611,-177.0313 299,-173 310.2195,-158.5911 322.1376,-141.9023 331.3519,-128.6639"/>
<polygon fill="#778899" stroke="#778899" points="334.4503,-130.3368 337.2572,-120.1206 328.692,-126.3566 334.4503,-130.3368"/>
</g>
<!-- builtins.object -->
<g id="node1" class="node">
<title>builtins.object</title>
<g id="a_node1"><a xlink:href="https://docs.python.org/3.6/library/functions.html#object" xlink:title="object" target="_top">
<path fill="#fbb4ae" stroke="#fbb4ae" stroke-width="2" d="M46.6667,-154.5C46.6667,-154.5 22.3333,-154.5 22.3333,-154.5 19.1667,-154.5 16,-151.3333 16,-148.1667 16,-148.1667 16,-141.8333 16,-141.8333 16,-138.6667 19.1667,-135.5 22.3333,-135.5 22.3333,-135.5 46.6667,-135.5 46.6667,-135.5 49.8333,-135.5 53,-138.6667 53,-141.8333 53,-141.8333 53,-148.1667 53,-148.1667 53,-151.3333 49.8333,-154.5 46.6667,-154.5"/>
<text text-anchor="middle" x="34.5" y="-142.5" font-family="Arial" font-size="10.00" fill="#000000">object</text>
</a>
</g>
</g>
<!-- supriya.daw.AudioRack.AudioRack -->
<g id="node2" class="node">
<title>supriya.daw.AudioRack.AudioRack</title>
<g id="a_node2"><a xlink:href="../api/supriya/daw/AudioRack.html#supriya.daw.AudioRack.AudioRack" xlink:title="Audio\nRack" target="_top">
<path fill="#b3cde3" stroke="#b3cde3" stroke-width="2" d="M437,-46C437,-46 421,-46 421,-46 416,-46 411,-41 411,-36 411,-36 411,-26 411,-26 411,-21 416,-16 421,-16 421,-16 437,-16 437,-16 442,-16 447,-21 447,-26 447,-26 447,-36 447,-36 447,-41 442,-46 437,-46"/>
<text text-anchor="middle" x="429" y="-34" font-family="Arial" font-size="10.00" fill="#000000">Audio</text>
<text text-anchor="middle" x="429" y="-23" font-family="Arial" font-size="10.00" fill="#000000">Rack</text>
</a>
</g>
</g>
<!-- supriya.daw.DawNode.DawNode -->
<g id="node3" class="node">
<title>supriya.daw.DawNode.DawNode</title>
<g id="a_node3"><a xlink:href="../api/supriya/daw/DawNode.html#supriya.daw.DawNode.DawNode" xlink:title="Daw\nNode" target="_top">
<path fill="#b3cde3" stroke="#b3cde3" stroke-width="2" d="M196.5,-142C196.5,-142 182.5,-142 182.5,-142 177.5,-142 172.5,-137 172.5,-132 172.5,-132 172.5,-122 172.5,-122 172.5,-117 177.5,-112 182.5,-112 182.5,-112 196.5,-112 196.5,-112 201.5,-112 206.5,-117 206.5,-122 206.5,-122 206.5,-132 206.5,-132 206.5,-137 201.5,-142 196.5,-142"/>
<text text-anchor="middle" x="189.5" y="-130" font-family="Arial" font-size="10.00" fill="#000000">Daw</text>
<text text-anchor="middle" x="189.5" y="-119" font-family="Arial" font-size="10.00" fill="#000000">Node</text>
</a>
</g>
</g>
<!-- supriya.daw.Device.Device -->
<g id="node4" class="node">
<title>supriya.daw.Device.Device</title>
<g id="a_node4"><a xlink:href="../api/supriya/daw/Device.html#supriya.daw.Device.Device" xlink:title="Device" target="_top">
<path fill="#b3cde3" stroke="#b3cde3" stroke-width="2" d="M284.1667,-136.5C284.1667,-136.5 257.8333,-136.5 257.8333,-136.5 254.6667,-136.5 251.5,-133.3333 251.5,-130.1667 251.5,-130.1667 251.5,-123.8333 251.5,-123.8333 251.5,-120.6667 254.6667,-117.5 257.8333,-117.5 257.8333,-117.5 284.1667,-117.5 284.1667,-117.5 287.3333,-117.5 290.5,-120.6667 290.5,-123.8333 290.5,-123.8333 290.5,-130.1667 290.5,-130.1667 290.5,-133.3333 287.3333,-136.5 284.1667,-136.5"/>
<text text-anchor="middle" x="271" y="-124.5" font-family="Arial" font-size="10.00" fill="#000000">Device</text>
</a>
</g>
</g>
<!-- supriya.daw.InstrumentRack.InstrumentRack -->
<g id="node5" class="node">
<title>supriya.daw.InstrumentRack.InstrumentRack</title>
<g id="a_node5"><a xlink:href="../api/supriya/daw/InstrumentRack.html#supriya.daw.InstrumentRack.InstrumentRack" xlink:title="Instrument\nRack" target="_top">
<path fill="#b3cde3" stroke="#b3cde3" stroke-width="2" d="M445,-94C445,-94 413,-94 413,-94 408,-94 403,-89 403,-84 403,-84 403,-74 403,-74 403,-69 408,-64 413,-64 413,-64 445,-64 445,-64 450,-64 455,-69 455,-74 455,-74 455,-84 455,-84 455,-89 450,-94 445,-94"/>
<text text-anchor="middle" x="429" y="-82" font-family="Arial" font-size="10.00" fill="#000000">Instrument</text>
<text text-anchor="middle" x="429" y="-71" font-family="Arial" font-size="10.00" fill="#000000">Rack</text>
</a>
</g>
</g>
<!-- supriya.daw.MidiRack.MidiRack -->
<g id="node6" class="node">
<title>supriya.daw.MidiRack.MidiRack</title>
<g id="a_node6"><a xlink:href="../api/supriya/daw/MidiRack.html#supriya.daw.MidiRack.MidiRack" xlink:title="Midi\nRack" target="_top">
<path fill="#b3cde3" stroke="#b3cde3" stroke-width="2" d="M436,-142C436,-142 422,-142 422,-142 417,-142 412,-137 412,-132 412,-132 412,-122 412,-122 412,-117 417,-112 422,-112 422,-112 436,-112 436,-112 441,-112 446,-117 446,-122 446,-122 446,-132 446,-132 446,-137 441,-142 436,-142"/>
<text text-anchor="middle" x="429" y="-130" font-family="Arial" font-size="10.00" fill="#000000">Midi</text>
<text text-anchor="middle" x="429" y="-119" font-family="Arial" font-size="10.00" fill="#000000">Rack</text>
</a>
</g>
</g>
<!-- supriya.daw.MixerContext.MixerContext -->
<g id="node7" class="node">
<title>supriya.daw.MixerContext.MixerContext</title>
<g id="a_node7"><a xlink:href="../api/supriya/daw/MixerContext.html#supriya.daw.MixerContext.MixerContext" xlink:title="Mixer\nContext" target="_top">
<path fill="#b3cde3" stroke="#b3cde3" stroke-width="2" d="M282,-99C282,-99 260,-99 260,-99 255,-99 250,-94 250,-89 250,-89 250,-79 250,-79 250,-74 255,-69 260,-69 260,-69 282,-69 282,-69 287,-69 292,-74 292,-79 292,-79 292,-89 292,-89 292,-94 287,-99 282,-99"/>
<text text-anchor="middle" x="271" y="-87" font-family="Arial" font-size="10.00" fill="#000000">Mixer</text>
<text text-anchor="middle" x="271" y="-76" font-family="Arial" font-size="10.00" fill="#000000">Context</text>
</a>
</g>
</g>
<!-- supriya.daw.RackDevice.RackDevice -->
<g id="node8" class="node">
<title>supriya.daw.RackDevice.RackDevice</title>
<g id="a_node8"><a xlink:href="../api/supriya/daw/RackDevice.html#supriya.daw.RackDevice.RackDevice" xlink:title="Rack\nDevice" target="_top">
<path fill="#000000" stroke="#000000" stroke-width="2" d="M357,-120C357,-120 338,-120 338,-120 333,-120 328,-115 328,-110 328,-110 328,-100 328,-100 328,-95 333,-90 338,-90 338,-90 357,-90 357,-90 362,-90 367,-95 367,-100 367,-100 367,-110 367,-110 367,-115 362,-120 357,-120"/>
<text text-anchor="middle" x="347.5" y="-108" font-family="Arial" font-size="10.00" fill="#ffffff">Rack</text>
<text text-anchor="middle" x="347.5" y="-97" font-family="Arial" font-size="10.00" fill="#ffffff">Device</text>
</a>
</g>
</g>
<!-- uqbar.containers.UniqueTreeContainer.UniqueTreeContainer -->
<g id="node9" class="node">
<title>uqbar.containers.UniqueTreeContainer.UniqueTreeContainer</title>
<path fill="#ccebc5" stroke="#ccebc5" stroke-width="2" d="M202,-226.5C202,-226.5 177,-226.5 177,-226.5 171,-226.5 165,-220.5 165,-214.5 165,-214.5 165,-197.5 165,-197.5 165,-191.5 171,-185.5 177,-185.5 177,-185.5 202,-185.5 202,-185.5 208,-185.5 214,-191.5 214,-197.5 214,-197.5 214,-214.5 214,-214.5 214,-220.5 208,-226.5 202,-226.5"/>
<text text-anchor="middle" x="189.5" y="-214.5" font-family="Arial" font-size="10.00" fill="#000000">Unique</text>
<text text-anchor="middle" x="189.5" y="-203.5" font-family="Arial" font-size="10.00" fill="#000000">Tree</text>
<text text-anchor="middle" x="189.5" y="-192.5" font-family="Arial" font-size="10.00" fill="#000000">Container</text>
</g>
<!-- uqbar.containers.UniqueTreeNode.UniqueTreeNode -->
<g id="node10" class="node">
<title>uqbar.containers.UniqueTreeNode.UniqueTreeNode</title>
<path fill="#ccebc5" stroke="#ccebc5" stroke-width="2" d="M117,-226.5C117,-226.5 101,-226.5 101,-226.5 95,-226.5 89,-220.5 89,-214.5 89,-214.5 89,-197.5 89,-197.5 89,-191.5 95,-185.5 101,-185.5 101,-185.5 117,-185.5 117,-185.5 123,-185.5 129,-191.5 129,-197.5 129,-197.5 129,-214.5 129,-214.5 129,-220.5 123,-226.5 117,-226.5"/>
<text text-anchor="middle" x="109" y="-214.5" font-family="Arial" font-size="10.00" fill="#000000">Unique</text>
<text text-anchor="middle" x="109" y="-203.5" font-family="Arial" font-size="10.00" fill="#000000">Tree</text>
<text text-anchor="middle" x="109" y="-192.5" font-family="Arial" font-size="10.00" fill="#000000">Node</text>
</g>
<!-- uqbar.containers.UniqueTreeTuple.UniqueTreeTuple -->
<g id="node11" class="node">
<title>uqbar.containers.UniqueTreeTuple.UniqueTreeTuple</title>
<path fill="#ccebc5" stroke="#ccebc5" stroke-width="2" d="M279,-226.5C279,-226.5 263,-226.5 263,-226.5 257,-226.5 251,-220.5 251,-214.5 251,-214.5 251,-197.5 251,-197.5 251,-191.5 257,-185.5 263,-185.5 263,-185.5 279,-185.5 279,-185.5 285,-185.5 291,-191.5 291,-197.5 291,-197.5 291,-214.5 291,-214.5 291,-220.5 285,-226.5 279,-226.5"/>
<text text-anchor="middle" x="271" y="-214.5" font-family="Arial" font-size="10.00" fill="#000000">Unique</text>
<text text-anchor="middle" x="271" y="-203.5" font-family="Arial" font-size="10.00" fill="#000000">Tree</text>
<text text-anchor="middle" x="271" y="-192.5" font-family="Arial" font-size="10.00" fill="#000000">Tuple</text>
</g>
</g>
</svg>
