<?xml version="1.0" encoding="UTF-8" standalone="no"?>
<!DOCTYPE svg PUBLIC "-//W3C//DTD SVG 1.1//EN"
 "http://www.w3.org/Graphics/SVG/1.1/DTD/svg11.dtd">
<!-- Generated by graphviz version 2.40.1 (20161225.0304)
 -->
<!-- Title: InheritanceGraph Pages: 1 -->
<svg width="165pt" height="79pt"
 viewBox="0.00 0.00 165.00 79.00" xmlns="http://www.w3.org/2000/svg" xmlns:xlink="http://www.w3.org/1999/xlink">
<g id="graph0" class="graph" transform="scale(1 1) rotate(0) translate(4 75)">
<title>InheritanceGraph</title>
<g id="clust1" class="cluster">
<title>cluster_builtins</title>
<path fill="transparent" stroke="#bcd2ee" stroke-width="2" stroke-dasharray="5,2" d="M20,-8C20,-8 49,-8 49,-8 55,-8 61,-14 61,-20 61,-20 61,-51 61,-51 61,-57 55,-63 49,-63 49,-63 20,-63 20,-63 14,-63 8,-57 8,-51 8,-51 8,-20 8,-20 8,-14 14,-8 20,-8"/>
<text text-anchor="middle" x="34.5" y="-51" font-family="Arial" font-size="10.00" fill="#000000">builtins</text>
</g>
<g id="clust2" class="cluster">
<title>cluster_supriya.daw</title>
<path fill="transparent" stroke="#bcd2ee" stroke-width="2" stroke-dasharray="5,2" d="M93,-8C93,-8 137,-8 137,-8 143,-8 149,-14 149,-20 149,-20 149,-51 149,-51 149,-57 143,-63 137,-63 137,-63 93,-63 93,-63 87,-63 81,-57 81,-51 81,-51 81,-20 81,-20 81,-14 87,-8 93,-8"/>
<text text-anchor="middle" x="115" y="-51" font-family="Arial" font-size="10.00" fill="#000000">supriya.daw</text>
</g>
<!-- builtins.object&#45;&gt;supriya.daw.Parameter.Parameter -->
<g id="edge1" class="edge">
<title>builtins.object&#45;&gt;supriya.daw.Parameter.Parameter</title>
<path fill="none" stroke="#778899" d="M53.1707,-26C60.782,-26 69.8551,-26 78.6745,-26"/>
<polygon fill="#778899" stroke="#778899" points="78.8084,-29.5001 88.8083,-26 78.8083,-22.5001 78.8084,-29.5001"/>
</g>
<!-- builtins.object -->
<g id="node1" class="node">
<title>builtins.object</title>
<g id="a_node1"><a xlink:href="https://docs.python.org/3.6/library/functions.html#object" xlink:title="object" target="_top">
<path fill="#fbb4ae" stroke="#fbb4ae" stroke-width="2" d="M46.6667,-35.5C46.6667,-35.5 22.3333,-35.5 22.3333,-35.5 19.1667,-35.5 16,-32.3333 16,-29.1667 16,-29.1667 16,-22.8333 16,-22.8333 16,-19.6667 19.1667,-16.5 22.3333,-16.5 22.3333,-16.5 46.6667,-16.5 46.6667,-16.5 49.8333,-16.5 53,-19.6667 53,-22.8333 53,-22.8333 53,-29.1667 53,-29.1667 53,-32.3333 49.8333,-35.5 46.6667,-35.5"/>
<text text-anchor="middle" x="34.5" y="-23.5" font-family="Arial" font-size="10.00" fill="#000000">object</text>
</a>
</g>
</g>
<!-- supriya.daw.Parameter.Parameter -->
<g id="node2" class="node">
<title>supriya.daw.Parameter.Parameter</title>
<g id="a_node2"><a xlink:href="../api/supriya/daw/Parameter.html#supriya.daw.Parameter.Parameter" xlink:title="Parameter" target="_top">
<path fill="#000000" stroke="#000000" stroke-width="2" d="M134.6667,-35.5C134.6667,-35.5 95.3333,-35.5 95.3333,-35.5 92.1667,-35.5 89,-32.3333 89,-29.1667 89,-29.1667 89,-22.8333 89,-22.8333 89,-19.6667 92.1667,-16.5 95.3333,-16.5 95.3333,-16.5 134.6667,-16.5 134.6667,-16.5 137.8333,-16.5 141,-19.6667 141,-22.8333 141,-22.8333 141,-29.1667 141,-29.1667 141,-32.3333 137.8333,-35.5 134.6667,-35.5"/>
<text text-anchor="middle" x="115" y="-23.5" font-family="Arial" font-size="10.00" fill="#ffffff">Parameter</text>
</a>
</g>
</g>
</g>
</svg>
