<?xml version="1.0" encoding="UTF-8" standalone="no"?>
<!DOCTYPE svg PUBLIC "-//W3C//DTD SVG 1.1//EN"
 "http://www.w3.org/Graphics/SVG/1.1/DTD/svg11.dtd">
<!-- Generated by graphviz version 2.40.1 (20161225.0304)
 -->
<!-- Title: InheritanceGraph Pages: 1 -->
<svg width="164pt" height="101pt"
 viewBox="0.00 0.00 164.00 101.00" xmlns="http://www.w3.org/2000/svg" xmlns:xlink="http://www.w3.org/1999/xlink">
<g id="graph0" class="graph" transform="scale(1 1) rotate(0) translate(4 97)">
<title>InheritanceGraph</title>
<g id="clust1" class="cluster">
<title>cluster_builtins</title>
<path fill="transparent" stroke="#bcd2ee" stroke-width="2" stroke-dasharray="5,2" d="M20,-19C20,-19 49,-19 49,-19 55,-19 61,-25 61,-31 61,-31 61,-62 61,-62 61,-68 55,-74 49,-74 49,-74 20,-74 20,-74 14,-74 8,-68 8,-62 8,-62 8,-31 8,-31 8,-25 14,-19 20,-19"/>
<text text-anchor="middle" x="34.5" y="-62" font-family="Arial" font-size="10.00" fill="#000000">builtins</text>
</g>
<g id="clust2" class="cluster">
<title>cluster_supriya.synthdefs</title>
<path fill="transparent" stroke="#bcd2ee" stroke-width="2" stroke-dasharray="5,2" d="M93,-8C93,-8 144,-8 144,-8 150,-8 156,-14 156,-20 156,-20 156,-73 156,-73 156,-79 150,-85 144,-85 144,-85 93,-85 93,-85 87,-85 81,-79 81,-73 81,-73 81,-20 81,-20 81,-14 87,-8 93,-8"/>
<text text-anchor="middle" x="118.5" y="-73" font-family="Arial" font-size="10.00" fill="#000000">supriya.synthdefs</text>
</g>
<!-- builtins.object&#45;&gt;supriya.synthdefs.SynthDefGrapher.SynthDefGrapher -->
<g id="edge1" class="edge">
<title>builtins.object&#45;&gt;supriya.synthdefs.SynthDefGrapher.SynthDefGrapher</title>
<path fill="none" stroke="#778899" d="M53.0314,-37C62.6436,-37 74.6636,-37 85.742,-37"/>
<polygon fill="#778899" stroke="#778899" points="85.9658,-40.5001 95.9658,-37 85.9658,-33.5001 85.9658,-40.5001"/>
</g>
<!-- builtins.object -->
<g id="node1" class="node">
<title>builtins.object</title>
<g id="a_node1"><a xlink:href="https://docs.python.org/3.6/library/functions.html#object" xlink:title="object" target="_top">
<path fill="#fbb4ae" stroke="#fbb4ae" stroke-width="2" d="M46.6667,-46.5C46.6667,-46.5 22.3333,-46.5 22.3333,-46.5 19.1667,-46.5 16,-43.3333 16,-40.1667 16,-40.1667 16,-33.8333 16,-33.8333 16,-30.6667 19.1667,-27.5 22.3333,-27.5 22.3333,-27.5 46.6667,-27.5 46.6667,-27.5 49.8333,-27.5 53,-30.6667 53,-33.8333 53,-33.8333 53,-40.1667 53,-40.1667 53,-43.3333 49.8333,-46.5 46.6667,-46.5"/>
<text text-anchor="middle" x="34.5" y="-34.5" font-family="Arial" font-size="10.00" fill="#000000">object</text>
</a>
</g>
</g>
<!-- supriya.synthdefs.SynthDefGrapher.SynthDefGrapher -->
<g id="node2" class="node">
<title>supriya.synthdefs.SynthDefGrapher.SynthDefGrapher</title>
<g id="a_node2"><a xlink:href="../api/supriya/synthdefs/SynthDefGrapher.html#supriya.synthdefs.SynthDefGrapher.SynthDefGrapher" xlink:title="Synth\nDef\nGrapher" target="_top">
<path fill="#000000" stroke="#000000" stroke-width="2" d="M128,-57.5C128,-57.5 108,-57.5 108,-57.5 102,-57.5 96,-51.5 96,-45.5 96,-45.5 96,-28.5 96,-28.5 96,-22.5 102,-16.5 108,-16.5 108,-16.5 128,-16.5 128,-16.5 134,-16.5 140,-22.5 140,-28.5 140,-28.5 140,-45.5 140,-45.5 140,-51.5 134,-57.5 128,-57.5"/>
<text text-anchor="middle" x="118" y="-45.5" font-family="Arial" font-size="10.00" fill="#ffffff">Synth</text>
<text text-anchor="middle" x="118" y="-34.5" font-family="Arial" font-size="10.00" fill="#ffffff">Def</text>
<text text-anchor="middle" x="118" y="-23.5" font-family="Arial" font-size="10.00" fill="#ffffff">Grapher</text>
</a>
</g>
</g>
</g>
</svg>
