<?xml version="1.0" encoding="UTF-8" standalone="no"?>
<!DOCTYPE svg PUBLIC "-//W3C//DTD SVG 1.1//EN"
 "http://www.w3.org/Graphics/SVG/1.1/DTD/svg11.dtd">
<!-- Generated by graphviz version 2.40.1 (20161225.0304)
 -->
<!-- Title: InheritanceGraph Pages: 1 -->
<svg width="221pt" height="89pt"
 viewBox="0.00 0.00 221.00 89.00" xmlns="http://www.w3.org/2000/svg" xmlns:xlink="http://www.w3.org/1999/xlink">
<g id="graph0" class="graph" transform="scale(1 1) rotate(0) translate(4 85)">
<title>InheritanceGraph</title>
<g id="clust1" class="cluster">
<title>cluster_builtins</title>
<path fill="transparent" stroke="#bcd2ee" stroke-width="2" stroke-dasharray="5,2" d="M20,-13C20,-13 49,-13 49,-13 55,-13 61,-19 61,-25 61,-25 61,-56 61,-56 61,-62 55,-68 49,-68 49,-68 20,-68 20,-68 14,-68 8,-62 8,-56 8,-56 8,-25 8,-25 8,-19 14,-13 20,-13"/>
<text text-anchor="middle" x="34.5" y="-56" font-family="Arial" font-size="10.00" fill="#000000">builtins</text>
</g>
<g id="clust2" class="cluster">
<title>cluster_supriya.system</title>
<path fill="transparent" stroke="#bcd2ee" stroke-width="2" stroke-dasharray="5,2" d="M93,-8C93,-8 193,-8 193,-8 199,-8 205,-14 205,-20 205,-20 205,-61 205,-61 205,-67 199,-73 193,-73 193,-73 93,-73 93,-73 87,-73 81,-67 81,-61 81,-61 81,-20 81,-20 81,-14 87,-8 93,-8"/>
<text text-anchor="middle" x="143" y="-61" font-family="Arial" font-size="10.00" fill="#000000">supriya.system</text>
</g>
<!-- builtins.object&#45;&gt;supriya.system.SupriyaObject.SupriyaObject -->
<g id="edge2" class="edge">
<title>builtins.object&#45;&gt;supriya.system.SupriyaObject.SupriyaObject</title>
<path fill="none" stroke="#778899" d="M53.1629,-31C60.862,-31 69.9986,-31 78.6696,-31"/>
<polygon fill="#778899" stroke="#778899" points="78.8875,-34.5001 88.8875,-31 78.8874,-27.5001 78.8875,-34.5001"/>
</g>
<!-- supriya.system.SupriyaObject.SupriyaObject&#45;&gt;supriya.system.PubSub.PubSub -->
<g id="edge1" class="edge">
<title>supriya.system.SupriyaObject.SupriyaObject&#45;&gt;supriya.system.PubSub.PubSub</title>
<path fill="none" stroke="#778899" d="M131.213,-31C139.1734,-31 148.3014,-31 156.6033,-31"/>
<polygon fill="#778899" stroke="#778899" points="156.8736,-34.5001 166.8735,-31 156.8735,-27.5001 156.8736,-34.5001"/>
</g>
<!-- builtins.object -->
<g id="node1" class="node">
<title>builtins.object</title>
<g id="a_node1"><a xlink:href="https://docs.python.org/3.6/library/functions.html#object" xlink:title="object" target="_top">
<path fill="#fbb4ae" stroke="#fbb4ae" stroke-width="2" d="M46.6667,-40.5C46.6667,-40.5 22.3333,-40.5 22.3333,-40.5 19.1667,-40.5 16,-37.3333 16,-34.1667 16,-34.1667 16,-27.8333 16,-27.8333 16,-24.6667 19.1667,-21.5 22.3333,-21.5 22.3333,-21.5 46.6667,-21.5 46.6667,-21.5 49.8333,-21.5 53,-24.6667 53,-27.8333 53,-27.8333 53,-34.1667 53,-34.1667 53,-37.3333 49.8333,-40.5 46.6667,-40.5"/>
<text text-anchor="middle" x="34.5" y="-28.5" font-family="Arial" font-size="10.00" fill="#000000">object</text>
</a>
</g>
</g>
<!-- supriya.system.PubSub.PubSub -->
<g id="node2" class="node">
<title>supriya.system.PubSub.PubSub</title>
<g id="a_node2"><a xlink:href="../api/supriya/system/PubSub.html#supriya.system.PubSub.PubSub" xlink:title="Pub\nSub" target="_top">
<path fill="#000000" stroke="#000000" stroke-width="2" d="M187,-46C187,-46 177,-46 177,-46 172,-46 167,-41 167,-36 167,-36 167,-26 167,-26 167,-21 172,-16 177,-16 177,-16 187,-16 187,-16 192,-16 197,-21 197,-26 197,-26 197,-36 197,-36 197,-41 192,-46 187,-46"/>
<text text-anchor="middle" x="182" y="-34" font-family="Arial" font-size="10.00" fill="#ffffff">Pub</text>
<text text-anchor="middle" x="182" y="-23" font-family="Arial" font-size="10.00" fill="#ffffff">Sub</text>
</a>
</g>
</g>
<!-- supriya.system.SupriyaObject.SupriyaObject -->
<g id="node3" class="node">
<title>supriya.system.SupriyaObject.SupriyaObject</title>
<g id="a_node3"><a xlink:href="../api/supriya/system/SupriyaObject.html#supriya.system.SupriyaObject.SupriyaObject" xlink:title="Supriya\nObject" target="_top">
<path fill="#b3cde3" stroke="#b3cde3" stroke-width="2" d="M121,-46C121,-46 99,-46 99,-46 94,-46 89,-41 89,-36 89,-36 89,-26 89,-26 89,-21 94,-16 99,-16 99,-16 121,-16 121,-16 126,-16 131,-21 131,-26 131,-26 131,-36 131,-36 131,-41 126,-46 121,-46"/>
<text text-anchor="middle" x="110" y="-34" font-family="Arial" font-size="10.00" fill="#000000">Supriya</text>
<text text-anchor="middle" x="110" y="-23" font-family="Arial" font-size="10.00" fill="#000000">Object</text>
</a>
</g>
</g>
</g>
</svg>
