<?xml version="1.0" encoding="UTF-8" standalone="no"?>
<!DOCTYPE svg PUBLIC "-//W3C//DTD SVG 1.1//EN"
 "http://www.w3.org/Graphics/SVG/1.1/DTD/svg11.dtd">
<!-- Generated by graphviz version 2.44.1 (20200629.0846)
 -->
<!-- Title: InheritanceGraph Pages: 1 -->
<svg width="707pt" height="385pt"
 viewBox="0.00 0.00 706.76 385.00" xmlns="http://www.w3.org/2000/svg" xmlns:xlink="http://www.w3.org/1999/xlink">
<g id="graph0" class="graph" transform="scale(1 1) rotate(0) translate(4 381)">
<title>InheritanceGraph</title>
<g id="clust1" class="cluster">
<title>cluster_builtins</title>
<path fill="transparent" stroke="#bcd2ee" stroke-width="2" stroke-dasharray="5,2" d="M20,-242C20,-242 55,-242 55,-242 61,-242 67,-248 67,-254 67,-254 67,-285 67,-285 67,-291 61,-297 55,-297 55,-297 20,-297 20,-297 14,-297 8,-291 8,-285 8,-285 8,-254 8,-254 8,-248 14,-242 20,-242"/>
<text text-anchor="middle" x="37.5" y="-285" font-family="Arial" font-size="10.00">builtins</text>
</g>
<g id="clust2" class="cluster">
<title>cluster_supriya.patterns</title>
<path fill="transparent" stroke="#bcd2ee" stroke-width="2" stroke-dasharray="5,2" d="M271,-8C271,-8 678.76,-8 678.76,-8 684.76,-8 690.76,-14 690.76,-20 690.76,-20 690.76,-357 690.76,-357 690.76,-363 684.76,-369 678.76,-369 678.76,-369 271,-369 271,-369 265,-369 259,-363 259,-357 259,-357 259,-20 259,-20 259,-14 265,-8 271,-8"/>
<text text-anchor="middle" x="474.88" y="-357" font-family="Arial" font-size="10.00">supriya.patterns</text>
</g>
<g id="clust3" class="cluster">
<title>cluster_supriya.system</title>
<path fill="transparent" stroke="#bcd2ee" stroke-width="2" stroke-dasharray="5,2" d="M99,-231C99,-231 227,-231 227,-231 233,-231 239,-237 239,-243 239,-243 239,-296 239,-296 239,-302 233,-308 227,-308 227,-308 99,-308 99,-308 93,-308 87,-302 87,-296 87,-296 87,-243 87,-243 87,-237 93,-231 99,-231"/>
<text text-anchor="middle" x="163" y="-296" font-family="Arial" font-size="10.00">supriya.system</text>
</g>
<!-- builtins.object&#45;&gt;supriya.system.SupriyaObject -->
<g id="edge18" class="edge">
<title>builtins.object&#45;&gt;supriya.system.SupriyaObject</title>
<path fill="none" stroke="lightslategrey" d="M59.23,-260C66.98,-260 76,-260 84.66,-260"/>
<polygon fill="lightslategrey" stroke="lightslategrey" points="84.91,-263.5 94.91,-260 84.91,-256.5 84.91,-263.5"/>
</g>
<!-- supriya.patterns.EventPattern.EventPattern&#45;&gt;supriya.patterns.Pbind.Pbind -->
<g id="edge1" class="edge">
<title>supriya.patterns.EventPattern.EventPattern&#45;&gt;supriya.patterns.Pbind.Pbind</title>
<path fill="none" stroke="lightslategrey" d="M419.49,-122.5C432.98,-103.54 454.49,-74.16 474.76,-50 476.69,-47.7 478.77,-45.34 480.87,-43.03"/>
<polygon fill="lightslategrey" stroke="lightslategrey" points="483.55,-45.29 487.82,-35.59 478.44,-40.51 483.55,-45.29"/>
</g>
<!-- supriya.patterns.EventPattern.EventPattern&#45;&gt;supriya.patterns.Pbindf.Pbindf -->
<g id="edge2" class="edge">
<title>supriya.patterns.EventPattern.EventPattern&#45;&gt;supriya.patterns.Pbindf.Pbindf</title>
<path fill="none" stroke="lightslategrey" d="M417.38,-121.94C429.18,-103.63 449.36,-77.69 474.76,-66 497.94,-55.34 527.11,-55.38 548.9,-57.65"/>
<polygon fill="lightslategrey" stroke="lightslategrey" points="548.59,-61.13 558.95,-58.9 549.45,-54.19 548.59,-61.13"/>
</g>
<!-- supriya.patterns.EventPattern.EventPattern&#45;&gt;supriya.patterns.Pbus.Pbus -->
<g id="edge3" class="edge">
<title>supriya.patterns.EventPattern.EventPattern&#45;&gt;supriya.patterns.Pbus.Pbus</title>
<path fill="none" stroke="lightslategrey" d="M429.37,-127.06C442.87,-118.5 459.78,-107.78 473.34,-99.18"/>
<polygon fill="lightslategrey" stroke="lightslategrey" points="475.54,-101.92 482.11,-93.61 471.79,-96.01 475.54,-101.92"/>
</g>
<!-- supriya.patterns.EventPattern.EventPattern&#45;&gt;supriya.patterns.Pchain.Pchain -->
<g id="edge4" class="edge">
<title>supriya.patterns.EventPattern.EventPattern&#45;&gt;supriya.patterns.Pchain.Pchain</title>
<path fill="none" stroke="lightslategrey" d="M435.81,-133.12C447.83,-129.83 461.86,-126.34 474.76,-124 498.94,-119.61 526.58,-116.81 547.51,-115.13"/>
<polygon fill="lightslategrey" stroke="lightslategrey" points="547.78,-118.62 557.49,-114.37 547.25,-111.64 547.78,-118.62"/>
</g>
<!-- supriya.patterns.EventPattern.EventPattern&#45;&gt;supriya.patterns.Pfx.Pfx -->
<g id="edge5" class="edge">
<title>supriya.patterns.EventPattern.EventPattern&#45;&gt;supriya.patterns.Pfx.Pfx</title>
<path fill="none" stroke="lightslategrey" d="M438.84,-142C449.66,-142 461.51,-142 471.69,-142"/>
<polygon fill="lightslategrey" stroke="lightslategrey" points="471.96,-145.5 481.96,-142 471.96,-138.5 471.96,-145.5"/>
</g>
<!-- supriya.patterns.EventPattern.EventPattern&#45;&gt;supriya.patterns.Pgroup.Pgroup -->
<g id="edge6" class="edge">
<title>supriya.patterns.EventPattern.EventPattern&#45;&gt;supriya.patterns.Pgroup.Pgroup</title>
<path fill="none" stroke="lightslategrey" d="M435.42,-151.38C447.51,-154.89 461.7,-158.6 474.76,-161 498.91,-165.44 526.55,-167.97 547.48,-169.37"/>
<polygon fill="lightslategrey" stroke="lightslategrey" points="547.27,-172.86 557.47,-169.99 547.7,-165.88 547.27,-172.86"/>
</g>
<!-- supriya.patterns.EventPattern.EventPattern&#45;&gt;supriya.patterns.Pn.Pn -->
<g id="edge7" class="edge">
<title>supriya.patterns.EventPattern.EventPattern&#45;&gt;supriya.patterns.Pn.Pn</title>
<path fill="none" stroke="lightslategrey" d="M429.37,-156.94C443.52,-165.91 461.41,-177.26 475.28,-186.05"/>
<polygon fill="lightslategrey" stroke="lightslategrey" points="473.41,-189.01 483.72,-191.41 477.15,-183.1 473.41,-189.01"/>
</g>
<!-- supriya.patterns.EventPattern.EventPattern&#45;&gt;supriya.patterns.Ppar.Ppar -->
<g id="edge8" class="edge">
<title>supriya.patterns.EventPattern.EventPattern&#45;&gt;supriya.patterns.Ppar.Ppar</title>
<path fill="none" stroke="lightslategrey" d="M417.5,-161.94C429.38,-180.22 449.62,-206.3 474.76,-219 498.9,-231.18 530.09,-232.68 552.28,-231.74"/>
<polygon fill="lightslategrey" stroke="lightslategrey" points="552.62,-235.22 562.38,-231.11 552.19,-228.23 552.62,-235.22"/>
</g>
<!-- supriya.patterns.Pbind.Pbind&#45;&gt;supriya.patterns.Pmono.Pmono -->
<g id="edge14" class="edge">
<title>supriya.patterns.Pbind.Pbind&#45;&gt;supriya.patterns.Pmono.Pmono</title>
<path fill="none" stroke="lightslategrey" d="M518.87,-26C527.47,-26 537.79,-26 547.5,-26"/>
<polygon fill="lightslategrey" stroke="lightslategrey" points="547.68,-29.5 557.68,-26 547.68,-22.5 547.68,-29.5"/>
</g>
<!-- supriya.patterns.Ppar.Ppar&#45;&gt;supriya.patterns.Pgpar.Pgpar -->
<g id="edge15" class="edge">
<title>supriya.patterns.Ppar.Ppar&#45;&gt;supriya.patterns.Pgpar.Pgpar</title>
<path fill="none" stroke="lightslategrey" d="M600.08,-229C609.01,-229 620.07,-229 630.3,-229"/>
<polygon fill="lightslategrey" stroke="lightslategrey" points="630.53,-232.5 640.53,-229 630.53,-225.5 630.53,-232.5"/>
</g>
<!-- supriya.patterns.Pattern.Pattern&#45;&gt;supriya.patterns.EventPattern.EventPattern -->
<g id="edge9" class="edge">
<title>supriya.patterns.Pattern.Pattern&#45;&gt;supriya.patterns.EventPattern.EventPattern</title>
<path fill="none" stroke="lightslategrey" d="M312.84,-247.37C328.99,-228.68 359.62,-193.2 380.85,-168.61"/>
<polygon fill="lightslategrey" stroke="lightslategrey" points="383.77,-170.58 387.66,-160.72 378.47,-166 383.77,-170.58"/>
</g>
<!-- supriya.patterns.Pattern.Pattern&#45;&gt;supriya.patterns.Pbinop.Pbinop -->
<g id="edge10" class="edge">
<title>supriya.patterns.Pattern.Pattern&#45;&gt;supriya.patterns.Pbinop.Pbinop</title>
<path fill="none" stroke="lightslategrey" d="M328.98,-252.3C341.94,-248.61 357.58,-244.16 371.2,-240.29"/>
<polygon fill="lightslategrey" stroke="lightslategrey" points="372.49,-243.56 381.15,-237.45 370.57,-236.83 372.49,-243.56"/>
</g>
<!-- supriya.patterns.Pattern.Pattern&#45;&gt;supriya.patterns.Pseed.Pseed -->
<g id="edge11" class="edge">
<title>supriya.patterns.Pattern.Pattern&#45;&gt;supriya.patterns.Pseed.Pseed</title>
<path fill="none" stroke="lightslategrey" d="M335.08,-259.66C371.57,-259.29 429.83,-258.69 465.69,-258.32"/>
<polygon fill="lightslategrey" stroke="lightslategrey" points="466.09,-261.82 476.05,-258.22 466.02,-254.82 466.09,-261.82"/>
</g>
<!-- supriya.patterns.Pattern.Pattern&#45;&gt;supriya.patterns.Pseq.Pseq -->
<g id="edge12" class="edge">
<title>supriya.patterns.Pattern.Pattern&#45;&gt;supriya.patterns.Pseq.Pseq</title>
<path fill="none" stroke="lightslategrey" d="M327.65,-268.33C342.21,-273.04 360.45,-278.95 375.43,-283.8"/>
<polygon fill="lightslategrey" stroke="lightslategrey" points="374.6,-287.21 385.2,-286.97 376.76,-280.56 374.6,-287.21"/>
</g>
<!-- supriya.patterns.Pattern.Pattern&#45;&gt;supriya.patterns.Pwhite.Pwhite -->
<g id="edge13" class="edge">
<title>supriya.patterns.Pattern.Pattern&#45;&gt;supriya.patterns.Pwhite.Pwhite</title>
<path fill="none" stroke="lightslategrey" d="M314.44,-272.5C327.39,-284.66 348.8,-302.62 370.88,-312 400.89,-324.74 438.04,-329.45 464.27,-331.14"/>
<polygon fill="lightslategrey" stroke="lightslategrey" points="464.27,-334.65 474.44,-331.69 464.64,-327.66 464.27,-334.65"/>
</g>
<!-- supriya.patterns.Pseq.Pseq&#45;&gt;supriya.patterns.Prand.Prand -->
<g id="edge16" class="edge">
<title>supriya.patterns.Pseq.Pseq&#45;&gt;supriya.patterns.Prand.Prand</title>
<path fill="none" stroke="lightslategrey" d="M424.33,-293.4C436.55,-293.67 452.86,-294.03 466.96,-294.34"/>
<polygon fill="lightslategrey" stroke="lightslategrey" points="467.13,-297.84 477.2,-294.56 467.28,-290.84 467.13,-297.84"/>
</g>
<!-- supriya.system.SupriyaObject&#45;&gt;supriya.system.SupriyaValueObject -->
<g id="edge17" class="edge">
<title>supriya.system.SupriyaObject&#45;&gt;supriya.system.SupriyaValueObject</title>
<path fill="none" stroke="lightslategrey" d="M145.3,-260C153.22,-260 162.17,-260 170.69,-260"/>
<polygon fill="lightslategrey" stroke="lightslategrey" points="170.76,-263.5 180.76,-260 170.76,-256.5 170.76,-263.5"/>
</g>
<!-- supriya.system.SupriyaValueObject&#45;&gt;supriya.patterns.Pattern.Pattern -->
<g id="edge19" class="edge">
<title>supriya.system.SupriyaValueObject&#45;&gt;supriya.patterns.Pattern.Pattern</title>
<path fill="none" stroke="lightslategrey" d="M231.42,-260C239.23,-260 248.12,-260 256.85,-260"/>
<polygon fill="lightslategrey" stroke="lightslategrey" points="256.95,-263.5 266.95,-260 256.95,-256.5 256.95,-263.5"/>
</g>
<!-- builtins.object -->
<g id="node1" class="node">
<title>builtins.object</title>
<g id="a_node1"><a xlink:href="https://docs.python.org/3/library/functions.html#object" xlink:title="object" target="_top">
<path fill="#fbb4ae" stroke="#fbb4ae" stroke-width="2" d="M52.67,-269.5C52.67,-269.5 22.33,-269.5 22.33,-269.5 19.17,-269.5 16,-266.33 16,-263.17 16,-263.17 16,-256.83 16,-256.83 16,-253.67 19.17,-250.5 22.33,-250.5 22.33,-250.5 52.67,-250.5 52.67,-250.5 55.83,-250.5 59,-253.67 59,-256.83 59,-256.83 59,-263.17 59,-263.17 59,-266.33 55.83,-269.5 52.67,-269.5"/>
<text text-anchor="middle" x="37.5" y="-257.5" font-family="Arial" font-size="10.00">object</text>
</a>
</g>
</g>
<!-- supriya.patterns.EventPattern.EventPattern -->
<g id="node2" class="node">
<title>supriya.patterns.EventPattern.EventPattern</title>
<g id="a_node2"><a xlink:href="../api/supriya/patterns/EventPattern.html#supriya.patterns.EventPattern.EventPattern" xlink:title="Event\nPattern" target="_top">
<ellipse fill="none" stroke="#b3cde3" stroke-width="2" cx="404.82" cy="-142" rx="33.88" ry="21.43"/>
<text text-anchor="middle" x="404.82" y="-145" font-family="Arial" font-size="10.00">Event</text>
<text text-anchor="middle" x="404.82" y="-134" font-family="Arial" font-size="10.00">Pattern</text>
</a>
</g>
</g>
<!-- supriya.patterns.Pbind.Pbind -->
<g id="node3" class="node">
<title>supriya.patterns.Pbind.Pbind</title>
<g id="a_node3"><a xlink:href="../api/supriya/patterns/Pbind.html#supriya.patterns.Pbind.Pbind" xlink:title="Pbind" target="_top">
<path fill="#b3cde3" stroke="#b3cde3" stroke-width="2" d="M512.43,-35.5C512.43,-35.5 484.1,-35.5 484.1,-35.5 480.93,-35.5 477.76,-32.33 477.76,-29.17 477.76,-29.17 477.76,-22.83 477.76,-22.83 477.76,-19.67 480.93,-16.5 484.1,-16.5 484.1,-16.5 512.43,-16.5 512.43,-16.5 515.6,-16.5 518.76,-19.67 518.76,-22.83 518.76,-22.83 518.76,-29.17 518.76,-29.17 518.76,-32.33 515.6,-35.5 512.43,-35.5"/>
<text text-anchor="middle" x="498.26" y="-23.5" font-family="Arial" font-size="10.00">Pbind</text>
</a>
</g>
</g>
<!-- supriya.patterns.Pbindf.Pbindf -->
<g id="node4" class="node">
<title>supriya.patterns.Pbindf.Pbindf</title>
<g id="a_node4"><a xlink:href="../api/supriya/patterns/Pbindf.html#supriya.patterns.Pbindf.Pbindf" xlink:title="Pbindf" target="_top">
<path fill="#b3cde3" stroke="#b3cde3" stroke-width="2" d="M596.93,-72.5C596.93,-72.5 565.6,-72.5 565.6,-72.5 562.43,-72.5 559.26,-69.33 559.26,-66.17 559.26,-66.17 559.26,-59.83 559.26,-59.83 559.26,-56.67 562.43,-53.5 565.6,-53.5 565.6,-53.5 596.93,-53.5 596.93,-53.5 600.1,-53.5 603.26,-56.67 603.26,-59.83 603.26,-59.83 603.26,-66.17 603.26,-66.17 603.26,-69.33 600.1,-72.5 596.93,-72.5"/>
<text text-anchor="middle" x="581.26" y="-60.5" font-family="Arial" font-size="10.00">Pbindf</text>
</a>
</g>
</g>
<!-- supriya.patterns.Pbus.Pbus -->
<g id="node5" class="node">
<title>supriya.patterns.Pbus.Pbus</title>
<g id="a_node5"><a xlink:href="../api/supriya/patterns/Pbus.html#supriya.patterns.Pbus.Pbus" xlink:title="Pbus" target="_top">
<path fill="#b3cde3" stroke="#b3cde3" stroke-width="2" d="M511.43,-93.5C511.43,-93.5 485.1,-93.5 485.1,-93.5 481.93,-93.5 478.76,-90.33 478.76,-87.17 478.76,-87.17 478.76,-80.83 478.76,-80.83 478.76,-77.67 481.93,-74.5 485.1,-74.5 485.1,-74.5 511.43,-74.5 511.43,-74.5 514.6,-74.5 517.76,-77.67 517.76,-80.83 517.76,-80.83 517.76,-87.17 517.76,-87.17 517.76,-90.33 514.6,-93.5 511.43,-93.5"/>
<text text-anchor="middle" x="498.26" y="-81.5" font-family="Arial" font-size="10.00">Pbus</text>
</a>
</g>
</g>
<!-- supriya.patterns.Pchain.Pchain -->
<g id="node6" class="node">
<title>supriya.patterns.Pchain.Pchain</title>
<g id="a_node6"><a xlink:href="../api/supriya/patterns/Pchain.html#supriya.patterns.Pchain.Pchain" xlink:title="Pchain" target="_top">
<path fill="#b3cde3" stroke="#b3cde3" stroke-width="2" d="M598.43,-122.5C598.43,-122.5 564.1,-122.5 564.1,-122.5 560.93,-122.5 557.76,-119.33 557.76,-116.17 557.76,-116.17 557.76,-109.83 557.76,-109.83 557.76,-106.67 560.93,-103.5 564.1,-103.5 564.1,-103.5 598.43,-103.5 598.43,-103.5 601.6,-103.5 604.76,-106.67 604.76,-109.83 604.76,-109.83 604.76,-116.17 604.76,-116.17 604.76,-119.33 601.6,-122.5 598.43,-122.5"/>
<text text-anchor="middle" x="581.26" y="-110.5" font-family="Arial" font-size="10.00">Pchain</text>
</a>
</g>
</g>
<!-- supriya.patterns.Pfx.Pfx -->
<g id="node7" class="node">
<title>supriya.patterns.Pfx.Pfx</title>
<g id="a_node7"><a xlink:href="../api/supriya/patterns/Pfx.html#supriya.patterns.Pfx.Pfx" xlink:title="Pfx" target="_top">
<path fill="#b3cde3" stroke="#b3cde3" stroke-width="2" d="M507.93,-151.5C507.93,-151.5 488.6,-151.5 488.6,-151.5 485.43,-151.5 482.26,-148.33 482.26,-145.17 482.26,-145.17 482.26,-138.83 482.26,-138.83 482.26,-135.67 485.43,-132.5 488.6,-132.5 488.6,-132.5 507.93,-132.5 507.93,-132.5 511.1,-132.5 514.26,-135.67 514.26,-138.83 514.26,-138.83 514.26,-145.17 514.26,-145.17 514.26,-148.33 511.1,-151.5 507.93,-151.5"/>
<text text-anchor="middle" x="498.26" y="-139.5" font-family="Arial" font-size="10.00">Pfx</text>
</a>
</g>
</g>
<!-- supriya.patterns.Pgroup.Pgroup -->
<g id="node8" class="node">
<title>supriya.patterns.Pgroup.Pgroup</title>
<g id="a_node8"><a xlink:href="../api/supriya/patterns/Pgroup.html#supriya.patterns.Pgroup.Pgroup" xlink:title="Pgroup" target="_top">
<path fill="#b3cde3" stroke="#b3cde3" stroke-width="2" d="M598.43,-180.5C598.43,-180.5 564.1,-180.5 564.1,-180.5 560.93,-180.5 557.76,-177.33 557.76,-174.17 557.76,-174.17 557.76,-167.83 557.76,-167.83 557.76,-164.67 560.93,-161.5 564.1,-161.5 564.1,-161.5 598.43,-161.5 598.43,-161.5 601.6,-161.5 604.76,-164.67 604.76,-167.83 604.76,-167.83 604.76,-174.17 604.76,-174.17 604.76,-177.33 601.6,-180.5 598.43,-180.5"/>
<text text-anchor="middle" x="581.26" y="-168.5" font-family="Arial" font-size="10.00">Pgroup</text>
</a>
</g>
</g>
<!-- supriya.patterns.Pn.Pn -->
<g id="node9" class="node">
<title>supriya.patterns.Pn.Pn</title>
<g id="a_node9"><a xlink:href="../api/supriya/patterns/Pn.html#supriya.patterns.Pn.Pn" xlink:title="Pn" target="_top">
<path fill="#b3cde3" stroke="#b3cde3" stroke-width="2" d="M506.43,-209.5C506.43,-209.5 490.1,-209.5 490.1,-209.5 486.93,-209.5 483.76,-206.33 483.76,-203.17 483.76,-203.17 483.76,-196.83 483.76,-196.83 483.76,-193.67 486.93,-190.5 490.1,-190.5 490.1,-190.5 506.43,-190.5 506.43,-190.5 509.6,-190.5 512.76,-193.67 512.76,-196.83 512.76,-196.83 512.76,-203.17 512.76,-203.17 512.76,-206.33 509.6,-209.5 506.43,-209.5"/>
<text text-anchor="middle" x="498.26" y="-197.5" font-family="Arial" font-size="10.00">Pn</text>
</a>
</g>
</g>
<!-- supriya.patterns.Ppar.Ppar -->
<g id="node10" class="node">
<title>supriya.patterns.Ppar.Ppar</title>
<g id="a_node10"><a xlink:href="../api/supriya/patterns/Ppar.html#supriya.patterns.Ppar.Ppar" xlink:title="Ppar" target="_top">
<path fill="#b3cde3" stroke="#b3cde3" stroke-width="2" d="M593.43,-238.5C593.43,-238.5 569.1,-238.5 569.1,-238.5 565.93,-238.5 562.76,-235.33 562.76,-232.17 562.76,-232.17 562.76,-225.83 562.76,-225.83 562.76,-222.67 565.93,-219.5 569.1,-219.5 569.1,-219.5 593.43,-219.5 593.43,-219.5 596.6,-219.5 599.76,-222.67 599.76,-225.83 599.76,-225.83 599.76,-232.17 599.76,-232.17 599.76,-235.33 596.6,-238.5 593.43,-238.5"/>
<text text-anchor="middle" x="581.26" y="-226.5" font-family="Arial" font-size="10.00">Ppar</text>
</a>
</g>
</g>
<!-- supriya.patterns.Pattern.Pattern -->
<g id="node11" class="node">
<title>supriya.patterns.Pattern.Pattern</title>
<g id="a_node11"><a xlink:href="../api/supriya/patterns/Pattern.html#supriya.patterns.Pattern.Pattern" xlink:title="Pattern" target="_top">
<ellipse fill="black" stroke="black" stroke-width="2" cx="300.94" cy="-260" rx="33.88" ry="13.37"/>
<text text-anchor="middle" x="300.94" y="-257.5" font-family="Arial" font-size="10.00" fill="white">Pattern</text>
</a>
</g>
</g>
<!-- supriya.patterns.Pbinop.Pbinop -->
<g id="node12" class="node">
<title>supriya.patterns.Pbinop.Pbinop</title>
<g id="a_node12"><a xlink:href="../api/supriya/patterns/Pbinop.html#supriya.patterns.Pbinop.Pbinop" xlink:title="Pbinop" target="_top">
<path fill="#b3cde3" stroke="#b3cde3" stroke-width="2" d="M421.99,-240.5C421.99,-240.5 387.66,-240.5 387.66,-240.5 384.49,-240.5 381.32,-237.33 381.32,-234.17 381.32,-234.17 381.32,-227.83 381.32,-227.83 381.32,-224.67 384.49,-221.5 387.66,-221.5 387.66,-221.5 421.99,-221.5 421.99,-221.5 425.16,-221.5 428.32,-224.67 428.32,-227.83 428.32,-227.83 428.32,-234.17 428.32,-234.17 428.32,-237.33 425.16,-240.5 421.99,-240.5"/>
<text text-anchor="middle" x="404.82" y="-228.5" font-family="Arial" font-size="10.00">Pbinop</text>
</a>
</g>
</g>
<!-- supriya.patterns.Pseed.Pseed -->
<g id="node13" class="node">
<title>supriya.patterns.Pseed.Pseed</title>
<g id="a_node13"><a xlink:href="../api/supriya/patterns/Pseed.html#supriya.patterns.Pseed.Pseed" xlink:title="Pseed" target="_top">
<path fill="#b3cde3" stroke="#b3cde3" stroke-width="2" d="M513.93,-267.5C513.93,-267.5 482.6,-267.5 482.6,-267.5 479.43,-267.5 476.26,-264.33 476.26,-261.17 476.26,-261.17 476.26,-254.83 476.26,-254.83 476.26,-251.67 479.43,-248.5 482.6,-248.5 482.6,-248.5 513.93,-248.5 513.93,-248.5 517.1,-248.5 520.26,-251.67 520.26,-254.83 520.26,-254.83 520.26,-261.17 520.26,-261.17 520.26,-264.33 517.1,-267.5 513.93,-267.5"/>
<text text-anchor="middle" x="498.26" y="-255.5" font-family="Arial" font-size="10.00">Pseed</text>
</a>
</g>
</g>
<!-- supriya.patterns.Pseq.Pseq -->
<g id="node14" class="node">
<title>supriya.patterns.Pseq.Pseq</title>
<g id="a_node14"><a xlink:href="../api/supriya/patterns/Pseq.html#supriya.patterns.Pseq.Pseq" xlink:title="Pseq" target="_top">
<path fill="#b3cde3" stroke="#b3cde3" stroke-width="2" d="M417.99,-302.5C417.99,-302.5 391.66,-302.5 391.66,-302.5 388.49,-302.5 385.32,-299.33 385.32,-296.17 385.32,-296.17 385.32,-289.83 385.32,-289.83 385.32,-286.67 388.49,-283.5 391.66,-283.5 391.66,-283.5 417.99,-283.5 417.99,-283.5 421.16,-283.5 424.32,-286.67 424.32,-289.83 424.32,-289.83 424.32,-296.17 424.32,-296.17 424.32,-299.33 421.16,-302.5 417.99,-302.5"/>
<text text-anchor="middle" x="404.82" y="-290.5" font-family="Arial" font-size="10.00">Pseq</text>
</a>
</g>
</g>
<!-- supriya.patterns.Pwhite.Pwhite -->
<g id="node15" class="node">
<title>supriya.patterns.Pwhite.Pwhite</title>
<g id="a_node15"><a xlink:href="../api/supriya/patterns/Pwhite.html#supriya.patterns.Pwhite.Pwhite" xlink:title="Pwhite" target="_top">
<path fill="#b3cde3" stroke="#b3cde3" stroke-width="2" d="M515.43,-341.5C515.43,-341.5 481.1,-341.5 481.1,-341.5 477.93,-341.5 474.76,-338.33 474.76,-335.17 474.76,-335.17 474.76,-328.83 474.76,-328.83 474.76,-325.67 477.93,-322.5 481.1,-322.5 481.1,-322.5 515.43,-322.5 515.43,-322.5 518.6,-322.5 521.76,-325.67 521.76,-328.83 521.76,-328.83 521.76,-335.17 521.76,-335.17 521.76,-338.33 518.6,-341.5 515.43,-341.5"/>
<text text-anchor="middle" x="498.26" y="-329.5" font-family="Arial" font-size="10.00">Pwhite</text>
</a>
</g>
</g>
<!-- supriya.patterns.Pmono.Pmono -->
<g id="node16" class="node">
<title>supriya.patterns.Pmono.Pmono</title>
<g id="a_node16"><a xlink:href="../api/supriya/patterns/Pmono.html#supriya.patterns.Pmono.Pmono" xlink:title="Pmono" target="_top">
<path fill="#b3cde3" stroke="#b3cde3" stroke-width="2" d="M598.43,-35.5C598.43,-35.5 564.1,-35.5 564.1,-35.5 560.93,-35.5 557.76,-32.33 557.76,-29.17 557.76,-29.17 557.76,-22.83 557.76,-22.83 557.76,-19.67 560.93,-16.5 564.1,-16.5 564.1,-16.5 598.43,-16.5 598.43,-16.5 601.6,-16.5 604.76,-19.67 604.76,-22.83 604.76,-22.83 604.76,-29.17 604.76,-29.17 604.76,-32.33 601.6,-35.5 598.43,-35.5"/>
<text text-anchor="middle" x="581.26" y="-23.5" font-family="Arial" font-size="10.00">Pmono</text>
</a>
</g>
</g>
<!-- supriya.patterns.Pgpar.Pgpar -->
<g id="node17" class="node">
<title>supriya.patterns.Pgpar.Pgpar</title>
<g id="a_node17"><a xlink:href="../api/supriya/patterns/Pgpar.html#supriya.patterns.Pgpar.Pgpar" xlink:title="Pgpar" target="_top">
<path fill="#b3cde3" stroke="#b3cde3" stroke-width="2" d="M676.43,-238.5C676.43,-238.5 647.1,-238.5 647.1,-238.5 643.93,-238.5 640.76,-235.33 640.76,-232.17 640.76,-232.17 640.76,-225.83 640.76,-225.83 640.76,-222.67 643.93,-219.5 647.1,-219.5 647.1,-219.5 676.43,-219.5 676.43,-219.5 679.6,-219.5 682.76,-222.67 682.76,-225.83 682.76,-225.83 682.76,-232.17 682.76,-232.17 682.76,-235.33 679.6,-238.5 676.43,-238.5"/>
<text text-anchor="middle" x="661.76" y="-226.5" font-family="Arial" font-size="10.00">Pgpar</text>
</a>
</g>
</g>
<!-- supriya.patterns.Prand.Prand -->
<g id="node18" class="node">
<title>supriya.patterns.Prand.Prand</title>
<g id="a_node18"><a xlink:href="../api/supriya/patterns/Prand.html#supriya.patterns.Prand.Prand" xlink:title="Prand" target="_top">
<path fill="#b3cde3" stroke="#b3cde3" stroke-width="2" d="M512.93,-304.5C512.93,-304.5 483.6,-304.5 483.6,-304.5 480.43,-304.5 477.26,-301.33 477.26,-298.17 477.26,-298.17 477.26,-291.83 477.26,-291.83 477.26,-288.67 480.43,-285.5 483.6,-285.5 483.6,-285.5 512.93,-285.5 512.93,-285.5 516.1,-285.5 519.26,-288.67 519.26,-291.83 519.26,-291.83 519.26,-298.17 519.26,-298.17 519.26,-301.33 516.1,-304.5 512.93,-304.5"/>
<text text-anchor="middle" x="498.26" y="-292.5" font-family="Arial" font-size="10.00">Prand</text>
</a>
</g>
</g>
<!-- supriya.system.SupriyaObject -->
<g id="node19" class="node">
<title>supriya.system.SupriyaObject</title>
<g id="a_node19"><a xlink:href="../api/supriya/patterns/../system.html#supriya.system.SupriyaObject" xlink:title="Supriya\nObject" target="_top">
<path fill="#ccebc5" stroke="#ccebc5" stroke-width="2" d="M135,-275C135,-275 105,-275 105,-275 100,-275 95,-270 95,-265 95,-265 95,-255 95,-255 95,-250 100,-245 105,-245 105,-245 135,-245 135,-245 140,-245 145,-250 145,-255 145,-255 145,-265 145,-265 145,-270 140,-275 135,-275"/>
<text text-anchor="middle" x="120" y="-263" font-family="Arial" font-size="10.00">Supriya</text>
<text text-anchor="middle" x="120" y="-252" font-family="Arial" font-size="10.00">Object</text>
</a>
</g>
</g>
<!-- supriya.system.SupriyaValueObject -->
<g id="node20" class="node">
<title>supriya.system.SupriyaValueObject</title>
<g id="a_node20"><a xlink:href="../api/supriya/patterns/../system.html#supriya.system.SupriyaValueObject" xlink:title="Supriya\nValue\nObject" target="_top">
<path fill="#ccebc5" stroke="#ccebc5" stroke-width="2" d="M219,-280.5C219,-280.5 193,-280.5 193,-280.5 187,-280.5 181,-274.5 181,-268.5 181,-268.5 181,-251.5 181,-251.5 181,-245.5 187,-239.5 193,-239.5 193,-239.5 219,-239.5 219,-239.5 225,-239.5 231,-245.5 231,-251.5 231,-251.5 231,-268.5 231,-268.5 231,-274.5 225,-280.5 219,-280.5"/>
<text text-anchor="middle" x="206" y="-268.5" font-family="Arial" font-size="10.00">Supriya</text>
<text text-anchor="middle" x="206" y="-257.5" font-family="Arial" font-size="10.00">Value</text>
<text text-anchor="middle" x="206" y="-246.5" font-family="Arial" font-size="10.00">Object</text>
</a>
</g>
</g>
</g>
</svg>
