<?xml version="1.0" encoding="UTF-8" standalone="no"?>
<!DOCTYPE svg PUBLIC "-//W3C//DTD SVG 1.1//EN"
 "http://www.w3.org/Graphics/SVG/1.1/DTD/svg11.dtd">
<!-- Generated by graphviz version 2.40.1 (20161225.0304)
 -->
<!-- Title: InheritanceGraph Pages: 1 -->
<svg width="317pt" height="101pt"
 viewBox="0.00 0.00 317.00 101.00" xmlns="http://www.w3.org/2000/svg" xmlns:xlink="http://www.w3.org/1999/xlink">
<g id="graph0" class="graph" transform="scale(1 1) rotate(0) translate(4 97)">
<title>InheritanceGraph</title>
<g id="clust1" class="cluster">
<title>cluster_builtins</title>
<path fill="transparent" stroke="#bcd2ee" stroke-width="2" stroke-dasharray="5,2" d="M20,-19C20,-19 49,-19 49,-19 55,-19 61,-25 61,-31 61,-31 61,-62 61,-62 61,-68 55,-74 49,-74 49,-74 20,-74 20,-74 14,-74 8,-68 8,-62 8,-62 8,-31 8,-31 8,-25 14,-19 20,-19"/>
<text text-anchor="middle" x="34.5" y="-62" font-family="Arial" font-size="10.00" fill="#000000">builtins</text>
</g>
<g id="clust2" class="cluster">
<title>cluster_supriya.synthdefs</title>
<path fill="transparent" stroke="#bcd2ee" stroke-width="2" stroke-dasharray="5,2" d="M180,-8C180,-8 289,-8 289,-8 295,-8 301,-14 301,-20 301,-20 301,-73 301,-73 301,-79 295,-85 289,-85 289,-85 180,-85 180,-85 174,-85 168,-79 168,-73 168,-73 168,-20 168,-20 168,-14 174,-8 180,-8"/>
<text text-anchor="middle" x="234.5" y="-73" font-family="Arial" font-size="10.00" fill="#000000">supriya.synthdefs</text>
</g>
<g id="clust3" class="cluster">
<title>cluster_supriya.system</title>
<path fill="transparent" stroke="#bcd2ee" stroke-width="2" stroke-dasharray="5,2" d="M93,-14C93,-14 136,-14 136,-14 142,-14 148,-20 148,-26 148,-26 148,-67 148,-67 148,-73 142,-79 136,-79 136,-79 93,-79 93,-79 87,-79 81,-73 81,-67 81,-67 81,-26 81,-26 81,-20 87,-14 93,-14"/>
<text text-anchor="middle" x="114.5" y="-67" font-family="Arial" font-size="10.00" fill="#000000">supriya.system</text>
</g>
<!-- builtins.object&#45;&gt;supriya.system.SupriyaObject.SupriyaObject -->
<g id="edge2" class="edge">
<title>builtins.object&#45;&gt;supriya.system.SupriyaObject.SupriyaObject</title>
<path fill="none" stroke="#778899" d="M53.3404,-37C62.0401,-37 72.6079,-37 82.4698,-37"/>
<polygon fill="#778899" stroke="#778899" points="82.7722,-40.5001 92.7722,-37 82.7721,-33.5001 82.7722,-40.5001"/>
</g>
<!-- supriya.synthdefs.UGenMethodMixin.UGenMethodMixin&#45;&gt;supriya.synthdefs.OutputProxy.OutputProxy -->
<g id="edge1" class="edge">
<title>supriya.synthdefs.UGenMethodMixin.UGenMethodMixin&#45;&gt;supriya.synthdefs.OutputProxy.OutputProxy</title>
<path fill="none" stroke="#778899" d="M218.3095,-37C226.143,-37 235.1645,-37 243.6135,-37"/>
<polygon fill="#778899" stroke="#778899" points="243.877,-40.5001 253.877,-37 243.8769,-33.5001 243.877,-40.5001"/>
</g>
<!-- supriya.system.SupriyaObject.SupriyaObject&#45;&gt;supriya.synthdefs.UGenMethodMixin.UGenMethodMixin -->
<g id="edge3" class="edge">
<title>supriya.system.SupriyaObject.SupriyaObject&#45;&gt;supriya.synthdefs.UGenMethodMixin.UGenMethodMixin</title>
<path fill="none" stroke="#778899" d="M135.3746,-37C144.6432,-37 155.679,-37 165.8334,-37"/>
<polygon fill="#778899" stroke="#778899" points="165.9852,-40.5001 175.9852,-37 165.9852,-33.5001 165.9852,-40.5001"/>
</g>
<!-- builtins.object -->
<g id="node1" class="node">
<title>builtins.object</title>
<g id="a_node1"><a xlink:href="https://docs.python.org/3.6/library/functions.html#object" xlink:title="object" target="_top">
<path fill="#fbb4ae" stroke="#fbb4ae" stroke-width="2" d="M46.6667,-46.5C46.6667,-46.5 22.3333,-46.5 22.3333,-46.5 19.1667,-46.5 16,-43.3333 16,-40.1667 16,-40.1667 16,-33.8333 16,-33.8333 16,-30.6667 19.1667,-27.5 22.3333,-27.5 22.3333,-27.5 46.6667,-27.5 46.6667,-27.5 49.8333,-27.5 53,-30.6667 53,-33.8333 53,-33.8333 53,-40.1667 53,-40.1667 53,-43.3333 49.8333,-46.5 46.6667,-46.5"/>
<text text-anchor="middle" x="34.5" y="-34.5" font-family="Arial" font-size="10.00" fill="#000000">object</text>
</a>
</g>
</g>
<!-- supriya.synthdefs.OutputProxy.OutputProxy -->
<g id="node2" class="node">
<title>supriya.synthdefs.OutputProxy.OutputProxy</title>
<g id="a_node2"><a xlink:href="../api/supriya/synthdefs/OutputProxy.html#supriya.synthdefs.OutputProxy.OutputProxy" xlink:title="Output\nProxy" target="_top">
<path fill="#000000" stroke="#000000" stroke-width="2" d="M283,-52C283,-52 264,-52 264,-52 259,-52 254,-47 254,-42 254,-42 254,-32 254,-32 254,-27 259,-22 264,-22 264,-22 283,-22 283,-22 288,-22 293,-27 293,-32 293,-32 293,-42 293,-42 293,-47 288,-52 283,-52"/>
<text text-anchor="middle" x="273.5" y="-40" font-family="Arial" font-size="10.00" fill="#ffffff">Output</text>
<text text-anchor="middle" x="273.5" y="-29" font-family="Arial" font-size="10.00" fill="#ffffff">Proxy</text>
</a>
</g>
</g>
<!-- supriya.synthdefs.UGenMethodMixin.UGenMethodMixin -->
<g id="node3" class="node">
<title>supriya.synthdefs.UGenMethodMixin.UGenMethodMixin</title>
<g id="a_node3"><a xlink:href="../api/supriya/synthdefs/UGenMethodMixin.html#supriya.synthdefs.UGenMethodMixin.UGenMethodMixin" xlink:title="UGen\nMethod\nMixin" target="_top">
<path fill="#b3cde3" stroke="#b3cde3" stroke-width="2" d="M206,-57.5C206,-57.5 188,-57.5 188,-57.5 182,-57.5 176,-51.5 176,-45.5 176,-45.5 176,-28.5 176,-28.5 176,-22.5 182,-16.5 188,-16.5 188,-16.5 206,-16.5 206,-16.5 212,-16.5 218,-22.5 218,-28.5 218,-28.5 218,-45.5 218,-45.5 218,-51.5 212,-57.5 206,-57.5"/>
<text text-anchor="middle" x="197" y="-45.5" font-family="Arial" font-size="10.00" fill="#000000">UGen</text>
<text text-anchor="middle" x="197" y="-34.5" font-family="Arial" font-size="10.00" fill="#000000">Method</text>
<text text-anchor="middle" x="197" y="-23.5" font-family="Arial" font-size="10.00" fill="#000000">Mixin</text>
</a>
</g>
</g>
<!-- supriya.system.SupriyaObject.SupriyaObject -->
<g id="node4" class="node">
<title>supriya.system.SupriyaObject.SupriyaObject</title>
<g id="a_node4"><a xlink:href="../api/supriya/synthdefs/../system/SupriyaObject.html#supriya.system.SupriyaObject.SupriyaObject" xlink:title="Supriya\nObject" target="_top">
<path fill="#ccebc5" stroke="#ccebc5" stroke-width="2" d="M125,-52C125,-52 103,-52 103,-52 98,-52 93,-47 93,-42 93,-42 93,-32 93,-32 93,-27 98,-22 103,-22 103,-22 125,-22 125,-22 130,-22 135,-27 135,-32 135,-32 135,-42 135,-42 135,-47 130,-52 125,-52"/>
<text text-anchor="middle" x="114" y="-40" font-family="Arial" font-size="10.00" fill="#000000">Supriya</text>
<text text-anchor="middle" x="114" y="-29" font-family="Arial" font-size="10.00" fill="#000000">Object</text>
</a>
</g>
</g>
</g>
</svg>
