<?xml version="1.0" encoding="UTF-8" standalone="no"?>
<!DOCTYPE svg PUBLIC "-//W3C//DTD SVG 1.1//EN"
 "http://www.w3.org/Graphics/SVG/1.1/DTD/svg11.dtd">
<!-- Generated by graphviz version 2.44.1 (20200629.0846)
 -->
<!-- Title: InheritanceGraph Pages: 1 -->
<svg width="562pt" height="111pt"
 viewBox="0.00 0.00 561.95 111.00" xmlns="http://www.w3.org/2000/svg" xmlns:xlink="http://www.w3.org/1999/xlink">
<g id="graph0" class="graph" transform="scale(1 1) rotate(0) translate(4 107)">
<title>InheritanceGraph</title>
<g id="clust1" class="cluster">
<title>cluster_builtins</title>
<path fill="transparent" stroke="#bcd2ee" stroke-width="2" stroke-dasharray="5,2" d="M20,-24C20,-24 55,-24 55,-24 61,-24 67,-30 67,-36 67,-36 67,-67 67,-67 67,-73 61,-79 55,-79 55,-79 20,-79 20,-79 14,-79 8,-73 8,-67 8,-67 8,-36 8,-36 8,-30 14,-24 20,-24"/>
<text text-anchor="middle" x="37.5" y="-67" font-family="Arial" font-size="10.00">builtins</text>
</g>
<g id="clust2" class="cluster">
<title>cluster_supriya.commands</title>
<path fill="transparent" stroke="#bcd2ee" stroke-width="2" stroke-dasharray="5,2" d="M271,-8C271,-8 533.95,-8 533.95,-8 539.95,-8 545.95,-14 545.95,-20 545.95,-20 545.95,-83 545.95,-83 545.95,-89 539.95,-95 533.95,-95 533.95,-95 271,-95 271,-95 265,-95 259,-89 259,-83 259,-83 259,-20 259,-20 259,-14 265,-8 271,-8"/>
<text text-anchor="middle" x="402.48" y="-83" font-family="Arial" font-size="10.00">supriya.commands</text>
</g>
<g id="clust3" class="cluster">
<title>cluster_supriya.system</title>
<path fill="transparent" stroke="#bcd2ee" stroke-width="2" stroke-dasharray="5,2" d="M99,-13C99,-13 227,-13 227,-13 233,-13 239,-19 239,-25 239,-25 239,-78 239,-78 239,-84 233,-90 227,-90 227,-90 99,-90 99,-90 93,-90 87,-84 87,-78 87,-78 87,-25 87,-25 87,-19 93,-13 99,-13"/>
<text text-anchor="middle" x="163" y="-78" font-family="Arial" font-size="10.00">supriya.system</text>
</g>
<!-- builtins.object&#45;&gt;supriya.system.SupriyaObject -->
<g id="edge4" class="edge">
<title>builtins.object&#45;&gt;supriya.system.SupriyaObject</title>
<path fill="none" stroke="lightslategrey" d="M59.23,-42C66.98,-42 76,-42 84.66,-42"/>
<polygon fill="lightslategrey" stroke="lightslategrey" points="84.91,-45.5 94.91,-42 84.91,-38.5 84.91,-45.5"/>
</g>
<!-- supriya.commands.Request.Request&#45;&gt;supriya.commands.SynthDefReceiveRequest.SynthDefReceiveRequest -->
<g id="edge1" class="edge">
<title>supriya.commands.Request.Request&#45;&gt;supriya.commands.SynthDefReceiveRequest.SynthDefReceiveRequest</title>
<path fill="none" stroke="lightslategrey" d="M448.96,-42C457.38,-42 466.32,-42 474.7,-42"/>
<polygon fill="lightslategrey" stroke="lightslategrey" points="474.94,-45.5 484.94,-42 474.94,-38.5 474.94,-45.5"/>
</g>
<!-- supriya.commands.Requestable.Requestable&#45;&gt;supriya.commands.Request.Request -->
<g id="edge2" class="edge">
<title>supriya.commands.Requestable.Requestable&#45;&gt;supriya.commands.Request.Request</title>
<path fill="none" stroke="lightslategrey" d="M338.23,-42C346.3,-42 355.02,-42 363.52,-42"/>
<polygon fill="lightslategrey" stroke="lightslategrey" points="363.71,-45.5 373.71,-42 363.71,-38.5 363.71,-45.5"/>
</g>
<!-- supriya.system.SupriyaObject&#45;&gt;supriya.system.SupriyaValueObject -->
<g id="edge3" class="edge">
<title>supriya.system.SupriyaObject&#45;&gt;supriya.system.SupriyaValueObject</title>
<path fill="none" stroke="lightslategrey" d="M145.3,-42C153.22,-42 162.17,-42 170.69,-42"/>
<polygon fill="lightslategrey" stroke="lightslategrey" points="170.76,-45.5 180.76,-42 170.76,-38.5 170.76,-45.5"/>
</g>
<!-- supriya.system.SupriyaValueObject&#45;&gt;supriya.commands.Requestable.Requestable -->
<g id="edge5" class="edge">
<title>supriya.system.SupriyaValueObject&#45;&gt;supriya.commands.Requestable.Requestable</title>
<path fill="none" stroke="lightslategrey" d="M231.34,-42C239.12,-42 248,-42 256.76,-42"/>
<polygon fill="lightslategrey" stroke="lightslategrey" points="256.92,-45.5 266.92,-42 256.92,-38.5 256.92,-45.5"/>
</g>
<!-- builtins.object -->
<g id="node1" class="node">
<title>builtins.object</title>
<g id="a_node1"><a xlink:href="https://docs.python.org/3/library/functions.html#object" xlink:title="object" target="_top">
<path fill="#fbb4ae" stroke="#fbb4ae" stroke-width="2" d="M52.67,-51.5C52.67,-51.5 22.33,-51.5 22.33,-51.5 19.17,-51.5 16,-48.33 16,-45.17 16,-45.17 16,-38.83 16,-38.83 16,-35.67 19.17,-32.5 22.33,-32.5 22.33,-32.5 52.67,-32.5 52.67,-32.5 55.83,-32.5 59,-35.67 59,-38.83 59,-38.83 59,-45.17 59,-45.17 59,-48.33 55.83,-51.5 52.67,-51.5"/>
<text text-anchor="middle" x="37.5" y="-39.5" font-family="Arial" font-size="10.00">object</text>
</a>
</g>
</g>
<!-- supriya.commands.Request.Request -->
<g id="node2" class="node">
<title>supriya.commands.Request.Request</title>
<g id="a_node2"><a xlink:href="../api/supriya/commands/Request.html#supriya.commands.Request.Request" xlink:title="Request" target="_top">
<ellipse fill="none" stroke="#b3cde3" stroke-width="2" cx="411.48" cy="-42" rx="37.45" ry="13.37"/>
<text text-anchor="middle" x="411.48" y="-39.5" font-family="Arial" font-size="10.00">Request</text>
</a>
</g>
</g>
<!-- supriya.commands.Requestable.Requestable -->
<g id="node3" class="node">
<title>supriya.commands.Requestable.Requestable</title>
<g id="a_node3"><a xlink:href="../api/supriya/commands/Requestable.html#supriya.commands.Requestable.Requestable" xlink:title="Requestable" target="_top">
<path fill="#b3cde3" stroke="#b3cde3" stroke-width="2" d="M331.67,-51.5C331.67,-51.5 273.33,-51.5 273.33,-51.5 270.17,-51.5 267,-48.33 267,-45.17 267,-45.17 267,-38.83 267,-38.83 267,-35.67 270.17,-32.5 273.33,-32.5 273.33,-32.5 331.67,-32.5 331.67,-32.5 334.83,-32.5 338,-35.67 338,-38.83 338,-38.83 338,-45.17 338,-45.17 338,-48.33 334.83,-51.5 331.67,-51.5"/>
<text text-anchor="middle" x="302.5" y="-39.5" font-family="Arial" font-size="10.00">Requestable</text>
</a>
</g>
</g>
<!-- supriya.commands.SynthDefReceiveRequest.SynthDefReceiveRequest -->
<g id="node4" class="node">
<title>supriya.commands.SynthDefReceiveRequest.SynthDefReceiveRequest</title>
<g id="a_node4"><a xlink:href="../api/supriya/commands/SynthDefReceiveRequest.html#supriya.commands.SynthDefReceiveRequest.SynthDefReceiveRequest" xlink:title="Synth\nDef\nReceive\nRequest" target="_top">
<path fill="black" stroke="black" stroke-width="2" d="M525.95,-68C525.95,-68 496.95,-68 496.95,-68 490.95,-68 484.95,-62 484.95,-56 484.95,-56 484.95,-28 484.95,-28 484.95,-22 490.95,-16 496.95,-16 496.95,-16 525.95,-16 525.95,-16 531.95,-16 537.95,-22 537.95,-28 537.95,-28 537.95,-56 537.95,-56 537.95,-62 531.95,-68 525.95,-68"/>
<text text-anchor="middle" x="511.45" y="-56" font-family="Arial" font-size="10.00" fill="white">Synth</text>
<text text-anchor="middle" x="511.45" y="-45" font-family="Arial" font-size="10.00" fill="white">Def</text>
<text text-anchor="middle" x="511.45" y="-34" font-family="Arial" font-size="10.00" fill="white">Receive</text>
<text text-anchor="middle" x="511.45" y="-23" font-family="Arial" font-size="10.00" fill="white">Request</text>
</a>
</g>
</g>
<!-- supriya.system.SupriyaObject -->
<g id="node5" class="node">
<title>supriya.system.SupriyaObject</title>
<g id="a_node5"><a xlink:href="../api/supriya/commands/../system.html#supriya.system.SupriyaObject" xlink:title="Supriya\nObject" target="_top">
<path fill="#ccebc5" stroke="#ccebc5" stroke-width="2" d="M135,-57C135,-57 105,-57 105,-57 100,-57 95,-52 95,-47 95,-47 95,-37 95,-37 95,-32 100,-27 105,-27 105,-27 135,-27 135,-27 140,-27 145,-32 145,-37 145,-37 145,-47 145,-47 145,-52 140,-57 135,-57"/>
<text text-anchor="middle" x="120" y="-45" font-family="Arial" font-size="10.00">Supriya</text>
<text text-anchor="middle" x="120" y="-34" font-family="Arial" font-size="10.00">Object</text>
</a>
</g>
</g>
<!-- supriya.system.SupriyaValueObject -->
<g id="node6" class="node">
<title>supriya.system.SupriyaValueObject</title>
<g id="a_node6"><a xlink:href="../api/supriya/commands/../system.html#supriya.system.SupriyaValueObject" xlink:title="Supriya\nValue\nObject" target="_top">
<path fill="#ccebc5" stroke="#ccebc5" stroke-width="2" d="M219,-62.5C219,-62.5 193,-62.5 193,-62.5 187,-62.5 181,-56.5 181,-50.5 181,-50.5 181,-33.5 181,-33.5 181,-27.5 187,-21.5 193,-21.5 193,-21.5 219,-21.5 219,-21.5 225,-21.5 231,-27.5 231,-33.5 231,-33.5 231,-50.5 231,-50.5 231,-56.5 225,-62.5 219,-62.5"/>
<text text-anchor="middle" x="206" y="-50.5" font-family="Arial" font-size="10.00">Supriya</text>
<text text-anchor="middle" x="206" y="-39.5" font-family="Arial" font-size="10.00">Value</text>
<text text-anchor="middle" x="206" y="-28.5" font-family="Arial" font-size="10.00">Object</text>
</a>
</g>
</g>
</g>
</svg>
