<?xml version="1.0" encoding="UTF-8" standalone="no"?>
<!DOCTYPE svg PUBLIC "-//W3C//DTD SVG 1.1//EN"
 "http://www.w3.org/Graphics/SVG/1.1/DTD/svg11.dtd">
<!-- Generated by graphviz version 2.40.1 (20161225.0304)
 -->
<!-- Title: InheritanceGraph Pages: 1 -->
<svg width="443pt" height="703pt"
 viewBox="0.00 0.00 443.00 703.00" xmlns="http://www.w3.org/2000/svg" xmlns:xlink="http://www.w3.org/1999/xlink">
<g id="graph0" class="graph" transform="scale(1 1) rotate(0) translate(4 699)">
<title>InheritanceGraph</title>
<g id="clust1" class="cluster">
<title>cluster_uqbar.enums</title>
<path fill="transparent" stroke="#bcd2ee" stroke-width="2" stroke-dasharray="5,2" d="M237,-261C237,-261 288,-261 288,-261 294,-261 300,-267 300,-273 300,-273 300,-362 300,-362 300,-368 294,-374 288,-374 288,-374 237,-374 237,-374 231,-374 225,-368 225,-362 225,-362 225,-273 225,-273 225,-267 231,-261 237,-261"/>
<text text-anchor="middle" x="262.5" y="-362" font-family="Arial" font-size="10.00" fill="#000000">uqbar.enums</text>
</g>
<g id="clust2" class="cluster">
<title>cluster_builtins</title>
<path fill="transparent" stroke="#bcd2ee" stroke-width="2" stroke-dasharray="5,2" d="M20,-380C20,-380 115,-380 115,-380 121,-380 127,-386 127,-392 127,-392 127,-423 127,-423 127,-429 121,-435 115,-435 115,-435 20,-435 20,-435 14,-435 8,-429 8,-423 8,-423 8,-392 8,-392 8,-386 14,-380 20,-380"/>
<text text-anchor="middle" x="67.5" y="-423" font-family="Arial" font-size="10.00" fill="#000000">builtins</text>
</g>
<g id="clust3" class="cluster">
<title>cluster_enum</title>
<path fill="transparent" stroke="#bcd2ee" stroke-width="2" stroke-dasharray="5,2" d="M93,-307C93,-307 193,-307 193,-307 199,-307 205,-313 205,-319 205,-319 205,-360 205,-360 205,-366 199,-372 193,-372 193,-372 93,-372 93,-372 87,-372 81,-366 81,-360 81,-360 81,-319 81,-319 81,-313 87,-307 93,-307"/>
<text text-anchor="middle" x="143" y="-360" font-family="Arial" font-size="10.00" fill="#000000">enum</text>
</g>
<g id="clust4" class="cluster">
<title>cluster_supriya.enums</title>
<path fill="transparent" stroke="#bcd2ee" stroke-width="2" stroke-dasharray="5,2" d="M369,-8C369,-8 415,-8 415,-8 421,-8 427,-14 427,-20 427,-20 427,-675 427,-675 427,-681 421,-687 415,-687 415,-687 369,-687 369,-687 363,-687 357,-681 357,-675 357,-675 357,-20 357,-20 357,-14 363,-8 369,-8"/>
<text text-anchor="middle" x="392" y="-675" font-family="Arial" font-size="10.00" fill="#000000">supriya.enums</text>
</g>
<!-- uqbar.enums.IntEnumeration&#45;&gt;supriya.enums.AddAction -->
<g id="edge7" class="edge">
<title>uqbar.enums.IntEnumeration&#45;&gt;supriya.enums.AddAction</title>
<path fill="none" stroke="#778899" d="M263.8289,-347.1972C268.5485,-393.1954 288.1113,-533.1408 357,-621 359.3185,-623.957 362.1023,-626.6883 365.074,-629.1665"/>
<polygon fill="#778899" stroke="#778899" points="363.0545,-632.0258 373.1886,-635.1165 367.1938,-626.3807 363.0545,-632.0258"/>
</g>
<!-- uqbar.enums.IntEnumeration&#45;&gt;supriya.enums.BinaryOperator -->
<g id="edge8" class="edge">
<title>uqbar.enums.IntEnumeration&#45;&gt;supriya.enums.BinaryOperator</title>
<path fill="none" stroke="#778899" d="M265.1801,-347.1187C272.9889,-387.6014 298.9435,-500.309 357,-573 358.2414,-574.5544 359.6103,-576.0478 361.066,-577.476"/>
<polygon fill="#778899" stroke="#778899" points="358.9743,-580.2901 368.879,-584.0514 363.4817,-574.9344 358.9743,-580.2901"/>
</g>
<!-- uqbar.enums.IntEnumeration&#45;&gt;supriya.enums.CalculationRate -->
<g id="edge9" class="edge">
<title>uqbar.enums.IntEnumeration&#45;&gt;supriya.enums.CalculationRate</title>
<path fill="none" stroke="#778899" d="M266.923,-347.0398C277.6787,-381.6385 307.9764,-468.2548 357,-525 357.6111,-525.7074 358.2476,-526.4036 358.9055,-527.088"/>
<polygon fill="#778899" stroke="#778899" points="356.7965,-529.8968 366.5892,-533.9408 361.4557,-524.6726 356.7965,-529.8968"/>
</g>
<!-- uqbar.enums.IntEnumeration&#45;&gt;supriya.enums.DoneAction -->
<g id="edge10" class="edge">
<title>uqbar.enums.IntEnumeration&#45;&gt;supriya.enums.DoneAction</title>
<path fill="none" stroke="#778899" d="M269.927,-347.3564C284.0315,-375.4363 316.8975,-435.9443 357,-477 359.4422,-479.5002 362.1811,-481.898 365.0229,-484.1453"/>
<polygon fill="#778899" stroke="#778899" points="362.9948,-486.9981 373.1433,-490.041 367.1075,-481.3336 362.9948,-486.9981"/>
</g>
<!-- uqbar.enums.IntEnumeration&#45;&gt;supriya.enums.EnvelopeShape -->
<g id="edge11" class="edge">
<title>uqbar.enums.IntEnumeration&#45;&gt;supriya.enums.EnvelopeShape</title>
<path fill="none" stroke="#778899" d="M275.442,-347.0292C292.9224,-366.9035 325.5251,-402.5018 357,-429 358.1273,-429.949 359.292,-430.8962 360.4815,-431.8361"/>
<polygon fill="#778899" stroke="#778899" points="358.4515,-434.6885 368.5559,-437.8747 362.6439,-429.0827 358.4515,-434.6885"/>
</g>
<!-- uqbar.enums.IntEnumeration&#45;&gt;supriya.enums.HeaderFormat -->
<g id="edge12" class="edge">
<title>uqbar.enums.IntEnumeration&#45;&gt;supriya.enums.HeaderFormat</title>
<path fill="none" stroke="#778899" d="M289.3325,-347.1256C310.5948,-359.1113 340.2795,-375.8448 362.2634,-388.2373"/>
<polygon fill="#778899" stroke="#778899" points="360.7366,-391.3944 371.1666,-393.2561 364.1741,-385.2965 360.7366,-391.3944"/>
</g>
<!-- uqbar.enums.IntEnumeration&#45;&gt;supriya.enums.NodeAction -->
<g id="edge13" class="edge">
<title>uqbar.enums.IntEnumeration&#45;&gt;supriya.enums.NodeAction</title>
<path fill="none" stroke="#778899" d="M292.2099,-337.7355C313.5461,-341.8545 342.1463,-347.3757 363.2582,-351.4514"/>
<polygon fill="#778899" stroke="#778899" points="362.7642,-354.9206 373.2464,-353.3796 364.0911,-348.0475 362.7642,-354.9206"/>
</g>
<!-- uqbar.enums.IntEnumeration&#45;&gt;supriya.enums.ParameterRate -->
<g id="edge14" class="edge">
<title>uqbar.enums.IntEnumeration&#45;&gt;supriya.enums.ParameterRate</title>
<path fill="none" stroke="#778899" d="M292.2099,-326.7233C311.1595,-323.3578 335.8388,-318.9746 355.9131,-315.4093"/>
<polygon fill="#778899" stroke="#778899" points="356.7023,-318.8239 365.9361,-313.6291 355.4782,-311.9318 356.7023,-318.8239"/>
</g>
<!-- uqbar.enums.IntEnumeration&#45;&gt;supriya.enums.RequestId -->
<g id="edge15" class="edge">
<title>uqbar.enums.IntEnumeration&#45;&gt;supriya.enums.RequestId</title>
<path fill="none" stroke="#778899" d="M289.9636,-316.9427C310.7523,-305.5451 339.3196,-289.8827 360.9403,-278.0288"/>
<polygon fill="#778899" stroke="#778899" points="362.6522,-281.0819 369.7382,-273.2053 359.2869,-274.9439 362.6522,-281.0819"/>
</g>
<!-- uqbar.enums.IntEnumeration&#45;&gt;supriya.enums.SampleFormat -->
<g id="edge16" class="edge">
<title>uqbar.enums.IntEnumeration&#45;&gt;supriya.enums.SampleFormat</title>
<path fill="none" stroke="#778899" d="M288.7183,-316.787C292.6568,-314.0638 296.5497,-311.0991 300,-308 330.1052,-280.9591 327.328,-264.5155 357,-237 358.8436,-235.2904 360.8176,-233.6102 362.8544,-231.9818"/>
<polygon fill="#778899" stroke="#778899" points="364.9491,-234.7858 370.8793,-226.0061 360.7684,-229.1714 364.9491,-234.7858"/>
</g>
<!-- uqbar.enums.IntEnumeration&#45;&gt;supriya.enums.SignalRange -->
<g id="edge17" class="edge">
<title>uqbar.enums.IntEnumeration&#45;&gt;supriya.enums.SignalRange</title>
<path fill="none" stroke="#778899" d="M290.1512,-316.8801C293.7251,-314.2149 297.1325,-311.2425 300,-308 338.8484,-264.0704 318.8541,-233.541 357,-189 359.1566,-186.4818 361.6366,-184.1073 364.2595,-181.9039"/>
<polygon fill="#778899" stroke="#778899" points="366.4644,-184.6255 372.3768,-175.8338 362.2723,-179.0195 366.4644,-184.6255"/>
</g>
<!-- uqbar.enums.IntEnumeration&#45;&gt;supriya.enums.UnaryOperator -->
<g id="edge18" class="edge">
<title>uqbar.enums.IntEnumeration&#45;&gt;supriya.enums.UnaryOperator</title>
<path fill="none" stroke="#778899" d="M290.8862,-316.8873C294.2658,-314.2505 297.4237,-311.2841 300,-308 348.4062,-246.2946 309.5798,-203.4663 357,-141 358.2028,-139.4155 359.5412,-137.8983 360.9733,-136.4518"/>
<polygon fill="#778899" stroke="#778899" points="363.3964,-138.9849 368.7194,-129.8243 358.8456,-133.666 363.3964,-138.9849"/>
</g>
<!-- uqbar.enums.IntEnumeration&#45;&gt;supriya.enums.Unit -->
<g id="edge19" class="edge">
<title>uqbar.enums.IntEnumeration&#45;&gt;supriya.enums.Unit</title>
<path fill="none" stroke="#778899" d="M291.4738,-316.7541C294.6771,-314.1652 297.631,-311.247 300,-308 358.2664,-228.1397 295.8982,-170.7124 357,-93 359.9153,-89.2922 363.7622,-86.2113 367.8373,-83.6865"/>
<polygon fill="#778899" stroke="#778899" points="369.5786,-86.7262 376.8494,-79.0199 366.3599,-80.5101 369.5786,-86.7262"/>
</g>
<!-- uqbar.enums.StrictEnumeration&#45;&gt;supriya.enums.RequestName -->
<g id="edge20" class="edge">
<title>uqbar.enums.StrictEnumeration&#45;&gt;supriya.enums.RequestName</title>
<path fill="none" stroke="#778899" d="M263.4271,-268.7426C266.4435,-230.9673 278.8594,-131.6221 328,-69 336.4977,-58.171 349.0047,-49.7746 360.7132,-43.6612"/>
<polygon fill="#778899" stroke="#778899" points="362.3629,-46.7513 369.8401,-39.2451 359.314,-40.4501 362.3629,-46.7513"/>
</g>
<!-- builtins.int&#45;&gt;enum.IntEnum -->
<g id="edge3" class="edge">
<title>builtins.int&#45;&gt;enum.IntEnum</title>
<path fill="none" stroke="#778899" d="M117.3158,-388.2573C127.1693,-378.9512 142.3793,-364.5862 155.2298,-352.4496"/>
<polygon fill="#778899" stroke="#778899" points="157.9902,-354.6568 162.8572,-345.246 153.1839,-349.5677 157.9902,-354.6568"/>
</g>
<!-- builtins.object&#45;&gt;builtins.int -->
<g id="edge1" class="edge">
<title>builtins.object&#45;&gt;builtins.int</title>
<path fill="none" stroke="#778899" d="M53.1706,-398C62.7836,-398 74.573,-398 84.6656,-398"/>
<polygon fill="#778899" stroke="#778899" points="84.768,-401.5001 94.768,-398 84.768,-394.5001 84.768,-401.5001"/>
</g>
<!-- builtins.object&#45;&gt;enum.Enum -->
<g id="edge4" class="edge">
<title>builtins.object&#45;&gt;enum.Enum</title>
<path fill="none" stroke="#778899" d="M44.8875,-388.2573C56.4086,-377.4513 75.2022,-359.8242 89.1039,-346.7853"/>
<polygon fill="#778899" stroke="#778899" points="91.7323,-349.1186 96.6318,-339.7247 86.9436,-344.0129 91.7323,-349.1186"/>
</g>
<!-- enum.Enum&#45;&gt;uqbar.enums.StrictEnumeration -->
<g id="edge5" class="edge">
<title>enum.Enum&#45;&gt;uqbar.enums.StrictEnumeration</title>
<path fill="none" stroke="#778899" d="M125.1271,-320.825C135.4394,-315.8919 148.7128,-310.0152 161,-306 180.9561,-299.4789 203.7564,-294.3386 222.6854,-290.6721"/>
<polygon fill="#778899" stroke="#778899" points="223.5746,-294.0665 232.7605,-288.7873 222.2874,-287.1859 223.5746,-294.0665"/>
</g>
<!-- enum.Enum&#45;&gt;enum.IntEnum -->
<g id="edge2" class="edge">
<title>enum.Enum&#45;&gt;enum.IntEnum</title>
<path fill="none" stroke="#778899" d="M125.1686,-330C132.869,-330 142.0257,-330 150.5834,-330"/>
<polygon fill="#778899" stroke="#778899" points="150.5868,-333.5001 160.5867,-330 150.5867,-326.5001 150.5868,-333.5001"/>
</g>
<!-- enum.IntEnum&#45;&gt;uqbar.enums.IntEnumeration -->
<g id="edge6" class="edge">
<title>enum.IntEnum&#45;&gt;uqbar.enums.IntEnumeration</title>
<path fill="none" stroke="#778899" d="M197.1183,-330.434C204.7154,-330.6159 213.8693,-330.8352 222.8896,-331.0512"/>
<polygon fill="#778899" stroke="#778899" points="222.846,-334.5511 232.927,-331.2917 223.0137,-327.5531 222.846,-334.5511"/>
</g>
<!-- uqbar.enums.IntEnumeration -->
<g id="node1" class="node">
<title>uqbar.enums.IntEnumeration</title>
<path fill="#decbe4" stroke="#decbe4" stroke-width="2" d="M282,-347C282,-347 243,-347 243,-347 238,-347 233,-342 233,-337 233,-337 233,-327 233,-327 233,-322 238,-317 243,-317 243,-317 282,-317 282,-317 287,-317 292,-322 292,-327 292,-327 292,-337 292,-337 292,-342 287,-347 282,-347"/>
<text text-anchor="middle" x="262.5" y="-335" font-family="Arial" font-size="10.00" fill="#000000">Int</text>
<text text-anchor="middle" x="262.5" y="-324" font-family="Arial" font-size="10.00" fill="#000000">Enumeration</text>
</g>
<!-- uqbar.enums.StrictEnumeration -->
<g id="node2" class="node">
<title>uqbar.enums.StrictEnumeration</title>
<path fill="#decbe4" stroke="#decbe4" stroke-width="2" d="M282,-299C282,-299 243,-299 243,-299 238,-299 233,-294 233,-289 233,-289 233,-279 233,-279 233,-274 238,-269 243,-269 243,-269 282,-269 282,-269 287,-269 292,-274 292,-279 292,-279 292,-289 292,-289 292,-294 287,-299 282,-299"/>
<text text-anchor="middle" x="262.5" y="-287" font-family="Arial" font-size="10.00" fill="#000000">Strict</text>
<text text-anchor="middle" x="262.5" y="-276" font-family="Arial" font-size="10.00" fill="#000000">Enumeration</text>
</g>
<!-- builtins.int -->
<g id="node3" class="node">
<title>builtins.int</title>
<g id="a_node3"><a xlink:href="https://docs.python.org/3.6/library/functions.html#int" xlink:title="int" target="_top">
<path fill="#fbb4ae" stroke="#fbb4ae" stroke-width="2" d="M112.6667,-407.5C112.6667,-407.5 101.3333,-407.5 101.3333,-407.5 98.1667,-407.5 95,-404.3333 95,-401.1667 95,-401.1667 95,-394.8333 95,-394.8333 95,-391.6667 98.1667,-388.5 101.3333,-388.5 101.3333,-388.5 112.6667,-388.5 112.6667,-388.5 115.8333,-388.5 119,-391.6667 119,-394.8333 119,-394.8333 119,-401.1667 119,-401.1667 119,-404.3333 115.8333,-407.5 112.6667,-407.5"/>
<text text-anchor="middle" x="107" y="-395.5" font-family="Arial" font-size="10.00" fill="#000000">int</text>
</a>
</g>
</g>
<!-- builtins.object -->
<g id="node4" class="node">
<title>builtins.object</title>
<g id="a_node4"><a xlink:href="https://docs.python.org/3.6/library/functions.html#object" xlink:title="object" target="_top">
<path fill="#fbb4ae" stroke="#fbb4ae" stroke-width="2" d="M46.6667,-407.5C46.6667,-407.5 22.3333,-407.5 22.3333,-407.5 19.1667,-407.5 16,-404.3333 16,-401.1667 16,-401.1667 16,-394.8333 16,-394.8333 16,-391.6667 19.1667,-388.5 22.3333,-388.5 22.3333,-388.5 46.6667,-388.5 46.6667,-388.5 49.8333,-388.5 53,-391.6667 53,-394.8333 53,-394.8333 53,-401.1667 53,-401.1667 53,-404.3333 49.8333,-407.5 46.6667,-407.5"/>
<text text-anchor="middle" x="34.5" y="-395.5" font-family="Arial" font-size="10.00" fill="#000000">object</text>
</a>
</g>
</g>
<!-- enum.Enum -->
<g id="node5" class="node">
<title>enum.Enum</title>
<g id="a_node5"><a xlink:href="https://docs.python.org/3.6/library/enum.html#enum.Enum" xlink:title="Enum" target="_top">
<path fill="#b3cde3" stroke="#b3cde3" stroke-width="2" d="M118.6667,-339.5C118.6667,-339.5 95.3333,-339.5 95.3333,-339.5 92.1667,-339.5 89,-336.3333 89,-333.1667 89,-333.1667 89,-326.8333 89,-326.8333 89,-323.6667 92.1667,-320.5 95.3333,-320.5 95.3333,-320.5 118.6667,-320.5 118.6667,-320.5 121.8333,-320.5 125,-323.6667 125,-326.8333 125,-326.8333 125,-333.1667 125,-333.1667 125,-336.3333 121.8333,-339.5 118.6667,-339.5"/>
<text text-anchor="middle" x="107" y="-327.5" font-family="Arial" font-size="10.00" fill="#000000">Enum</text>
</a>
</g>
</g>
<!-- enum.IntEnum -->
<g id="node6" class="node">
<title>enum.IntEnum</title>
<g id="a_node6"><a xlink:href="https://docs.python.org/3.6/library/enum.html#enum.IntEnum" xlink:title="Int\nEnum" target="_top">
<path fill="#b3cde3" stroke="#b3cde3" stroke-width="2" d="M187,-345C187,-345 171,-345 171,-345 166,-345 161,-340 161,-335 161,-335 161,-325 161,-325 161,-320 166,-315 171,-315 171,-315 187,-315 187,-315 192,-315 197,-320 197,-325 197,-325 197,-335 197,-335 197,-340 192,-345 187,-345"/>
<text text-anchor="middle" x="179" y="-333" font-family="Arial" font-size="10.00" fill="#000000">Int</text>
<text text-anchor="middle" x="179" y="-322" font-family="Arial" font-size="10.00" fill="#000000">Enum</text>
</a>
</g>
</g>
<!-- supriya.enums.AddAction -->
<g id="node7" class="node">
<title>supriya.enums.AddAction</title>
<g id="a_node7"><a xlink:href="../api/supriya/enums.html#supriya.enums.AddAction" xlink:title="Add\nAction" target="_top">
<path fill="#000000" stroke="#000000" stroke-width="2" d="M400.5,-660C400.5,-660 383.5,-660 383.5,-660 378.5,-660 373.5,-655 373.5,-650 373.5,-650 373.5,-640 373.5,-640 373.5,-635 378.5,-630 383.5,-630 383.5,-630 400.5,-630 400.5,-630 405.5,-630 410.5,-635 410.5,-640 410.5,-640 410.5,-650 410.5,-650 410.5,-655 405.5,-660 400.5,-660"/>
<text text-anchor="middle" x="392" y="-648" font-family="Arial" font-size="10.00" fill="#ffffff">Add</text>
<text text-anchor="middle" x="392" y="-637" font-family="Arial" font-size="10.00" fill="#ffffff">Action</text>
</a>
</g>
</g>
<!-- supriya.enums.BinaryOperator -->
<g id="node8" class="node">
<title>supriya.enums.BinaryOperator</title>
<g id="a_node8"><a xlink:href="../api/supriya/enums.html#supriya.enums.BinaryOperator" xlink:title="Binary\nOperator" target="_top">
<path fill="#000000" stroke="#000000" stroke-width="2" d="M405,-612C405,-612 379,-612 379,-612 374,-612 369,-607 369,-602 369,-602 369,-592 369,-592 369,-587 374,-582 379,-582 379,-582 405,-582 405,-582 410,-582 415,-587 415,-592 415,-592 415,-602 415,-602 415,-607 410,-612 405,-612"/>
<text text-anchor="middle" x="392" y="-600" font-family="Arial" font-size="10.00" fill="#ffffff">Binary</text>
<text text-anchor="middle" x="392" y="-589" font-family="Arial" font-size="10.00" fill="#ffffff">Operator</text>
</a>
</g>
</g>
<!-- supriya.enums.CalculationRate -->
<g id="node9" class="node">
<title>supriya.enums.CalculationRate</title>
<g id="a_node9"><a xlink:href="../api/supriya/enums.html#supriya.enums.CalculationRate" xlink:title="Calculation\nRate" target="_top">
<path fill="#000000" stroke="#000000" stroke-width="2" d="M409,-564C409,-564 375,-564 375,-564 370,-564 365,-559 365,-554 365,-554 365,-544 365,-544 365,-539 370,-534 375,-534 375,-534 409,-534 409,-534 414,-534 419,-539 419,-544 419,-544 419,-554 419,-554 419,-559 414,-564 409,-564"/>
<text text-anchor="middle" x="392" y="-552" font-family="Arial" font-size="10.00" fill="#ffffff">Calculation</text>
<text text-anchor="middle" x="392" y="-541" font-family="Arial" font-size="10.00" fill="#ffffff">Rate</text>
</a>
</g>
</g>
<!-- supriya.enums.DoneAction -->
<g id="node10" class="node">
<title>supriya.enums.DoneAction</title>
<g id="a_node10"><a xlink:href="../api/supriya/enums.html#supriya.enums.DoneAction" xlink:title="Done\nAction" target="_top">
<path fill="#000000" stroke="#000000" stroke-width="2" d="M400.5,-516C400.5,-516 383.5,-516 383.5,-516 378.5,-516 373.5,-511 373.5,-506 373.5,-506 373.5,-496 373.5,-496 373.5,-491 378.5,-486 383.5,-486 383.5,-486 400.5,-486 400.5,-486 405.5,-486 410.5,-491 410.5,-496 410.5,-496 410.5,-506 410.5,-506 410.5,-511 405.5,-516 400.5,-516"/>
<text text-anchor="middle" x="392" y="-504" font-family="Arial" font-size="10.00" fill="#ffffff">Done</text>
<text text-anchor="middle" x="392" y="-493" font-family="Arial" font-size="10.00" fill="#ffffff">Action</text>
</a>
</g>
</g>
<!-- supriya.enums.EnvelopeShape -->
<g id="node11" class="node">
<title>supriya.enums.EnvelopeShape</title>
<g id="a_node11"><a xlink:href="../api/supriya/enums.html#supriya.enums.EnvelopeShape" xlink:title="Envelope\nShape" target="_top">
<path fill="#000000" stroke="#000000" stroke-width="2" d="M406,-468C406,-468 378,-468 378,-468 373,-468 368,-463 368,-458 368,-458 368,-448 368,-448 368,-443 373,-438 378,-438 378,-438 406,-438 406,-438 411,-438 416,-443 416,-448 416,-448 416,-458 416,-458 416,-463 411,-468 406,-468"/>
<text text-anchor="middle" x="392" y="-456" font-family="Arial" font-size="10.00" fill="#ffffff">Envelope</text>
<text text-anchor="middle" x="392" y="-445" font-family="Arial" font-size="10.00" fill="#ffffff">Shape</text>
</a>
</g>
</g>
<!-- supriya.enums.HeaderFormat -->
<g id="node12" class="node">
<title>supriya.enums.HeaderFormat</title>
<g id="a_node12"><a xlink:href="../api/supriya/enums.html#supriya.enums.HeaderFormat" xlink:title="Header\nFormat" target="_top">
<path fill="#000000" stroke="#000000" stroke-width="2" d="M402.5,-420C402.5,-420 381.5,-420 381.5,-420 376.5,-420 371.5,-415 371.5,-410 371.5,-410 371.5,-400 371.5,-400 371.5,-395 376.5,-390 381.5,-390 381.5,-390 402.5,-390 402.5,-390 407.5,-390 412.5,-395 412.5,-400 412.5,-400 412.5,-410 412.5,-410 412.5,-415 407.5,-420 402.5,-420"/>
<text text-anchor="middle" x="392" y="-408" font-family="Arial" font-size="10.00" fill="#ffffff">Header</text>
<text text-anchor="middle" x="392" y="-397" font-family="Arial" font-size="10.00" fill="#ffffff">Format</text>
</a>
</g>
</g>
<!-- supriya.enums.NodeAction -->
<g id="node13" class="node">
<title>supriya.enums.NodeAction</title>
<g id="a_node13"><a xlink:href="../api/supriya/enums.html#supriya.enums.NodeAction" xlink:title="Node\nAction" target="_top">
<path fill="#000000" stroke="#000000" stroke-width="2" d="M400.5,-372C400.5,-372 383.5,-372 383.5,-372 378.5,-372 373.5,-367 373.5,-362 373.5,-362 373.5,-352 373.5,-352 373.5,-347 378.5,-342 383.5,-342 383.5,-342 400.5,-342 400.5,-342 405.5,-342 410.5,-347 410.5,-352 410.5,-352 410.5,-362 410.5,-362 410.5,-367 405.5,-372 400.5,-372"/>
<text text-anchor="middle" x="392" y="-360" font-family="Arial" font-size="10.00" fill="#ffffff">Node</text>
<text text-anchor="middle" x="392" y="-349" font-family="Arial" font-size="10.00" fill="#ffffff">Action</text>
</a>
</g>
</g>
<!-- supriya.enums.ParameterRate -->
<g id="node14" class="node">
<title>supriya.enums.ParameterRate</title>
<g id="a_node14"><a xlink:href="../api/supriya/enums.html#supriya.enums.ParameterRate" xlink:title="Parameter\nRate" target="_top">
<path fill="#000000" stroke="#000000" stroke-width="2" d="M408,-324C408,-324 376,-324 376,-324 371,-324 366,-319 366,-314 366,-314 366,-304 366,-304 366,-299 371,-294 376,-294 376,-294 408,-294 408,-294 413,-294 418,-299 418,-304 418,-304 418,-314 418,-314 418,-319 413,-324 408,-324"/>
<text text-anchor="middle" x="392" y="-312" font-family="Arial" font-size="10.00" fill="#ffffff">Parameter</text>
<text text-anchor="middle" x="392" y="-301" font-family="Arial" font-size="10.00" fill="#ffffff">Rate</text>
</a>
</g>
</g>
<!-- supriya.enums.RequestId -->
<g id="node15" class="node">
<title>supriya.enums.RequestId</title>
<g id="a_node15"><a xlink:href="../api/supriya/enums.html#supriya.enums.RequestId" xlink:title="Request\nId" target="_top">
<path fill="#000000" stroke="#000000" stroke-width="2" d="M404,-276C404,-276 380,-276 380,-276 375,-276 370,-271 370,-266 370,-266 370,-256 370,-256 370,-251 375,-246 380,-246 380,-246 404,-246 404,-246 409,-246 414,-251 414,-256 414,-256 414,-266 414,-266 414,-271 409,-276 404,-276"/>
<text text-anchor="middle" x="392" y="-264" font-family="Arial" font-size="10.00" fill="#ffffff">Request</text>
<text text-anchor="middle" x="392" y="-253" font-family="Arial" font-size="10.00" fill="#ffffff">Id</text>
</a>
</g>
</g>
<!-- supriya.enums.RequestName -->
<g id="node16" class="node">
<title>supriya.enums.RequestName</title>
<g id="a_node16"><a xlink:href="../api/supriya/enums.html#supriya.enums.RequestName" xlink:title="Request\nName" target="_top">
<path fill="#000000" stroke="#000000" stroke-width="2" d="M404,-46C404,-46 380,-46 380,-46 375,-46 370,-41 370,-36 370,-36 370,-26 370,-26 370,-21 375,-16 380,-16 380,-16 404,-16 404,-16 409,-16 414,-21 414,-26 414,-26 414,-36 414,-36 414,-41 409,-46 404,-46"/>
<text text-anchor="middle" x="392" y="-34" font-family="Arial" font-size="10.00" fill="#ffffff">Request</text>
<text text-anchor="middle" x="392" y="-23" font-family="Arial" font-size="10.00" fill="#ffffff">Name</text>
</a>
</g>
</g>
<!-- supriya.enums.SampleFormat -->
<g id="node17" class="node">
<title>supriya.enums.SampleFormat</title>
<g id="a_node17"><a xlink:href="../api/supriya/enums.html#supriya.enums.SampleFormat" xlink:title="Sample\nFormat" target="_top">
<path fill="#000000" stroke="#000000" stroke-width="2" d="M403,-228C403,-228 381,-228 381,-228 376,-228 371,-223 371,-218 371,-218 371,-208 371,-208 371,-203 376,-198 381,-198 381,-198 403,-198 403,-198 408,-198 413,-203 413,-208 413,-208 413,-218 413,-218 413,-223 408,-228 403,-228"/>
<text text-anchor="middle" x="392" y="-216" font-family="Arial" font-size="10.00" fill="#ffffff">Sample</text>
<text text-anchor="middle" x="392" y="-205" font-family="Arial" font-size="10.00" fill="#ffffff">Format</text>
</a>
</g>
</g>
<!-- supriya.enums.SignalRange -->
<g id="node18" class="node">
<title>supriya.enums.SignalRange</title>
<g id="a_node18"><a xlink:href="../api/supriya/enums.html#supriya.enums.SignalRange" xlink:title="Signal\nRange" target="_top">
<path fill="#000000" stroke="#000000" stroke-width="2" d="M401.5,-180C401.5,-180 382.5,-180 382.5,-180 377.5,-180 372.5,-175 372.5,-170 372.5,-170 372.5,-160 372.5,-160 372.5,-155 377.5,-150 382.5,-150 382.5,-150 401.5,-150 401.5,-150 406.5,-150 411.5,-155 411.5,-160 411.5,-160 411.5,-170 411.5,-170 411.5,-175 406.5,-180 401.5,-180"/>
<text text-anchor="middle" x="392" y="-168" font-family="Arial" font-size="10.00" fill="#ffffff">Signal</text>
<text text-anchor="middle" x="392" y="-157" font-family="Arial" font-size="10.00" fill="#ffffff">Range</text>
</a>
</g>
</g>
<!-- supriya.enums.UnaryOperator -->
<g id="node19" class="node">
<title>supriya.enums.UnaryOperator</title>
<g id="a_node19"><a xlink:href="../api/supriya/enums.html#supriya.enums.UnaryOperator" xlink:title="Unary\nOperator" target="_top">
<path fill="#000000" stroke="#000000" stroke-width="2" d="M405,-132C405,-132 379,-132 379,-132 374,-132 369,-127 369,-122 369,-122 369,-112 369,-112 369,-107 374,-102 379,-102 379,-102 405,-102 405,-102 410,-102 415,-107 415,-112 415,-112 415,-122 415,-122 415,-127 410,-132 405,-132"/>
<text text-anchor="middle" x="392" y="-120" font-family="Arial" font-size="10.00" fill="#ffffff">Unary</text>
<text text-anchor="middle" x="392" y="-109" font-family="Arial" font-size="10.00" fill="#ffffff">Operator</text>
</a>
</g>
</g>
<!-- supriya.enums.Unit -->
<g id="node20" class="node">
<title>supriya.enums.Unit</title>
<g id="a_node20"><a xlink:href="../api/supriya/enums.html#supriya.enums.Unit" xlink:title="Unit" target="_top">
<path fill="#000000" stroke="#000000" stroke-width="2" d="M400.6667,-83.5C400.6667,-83.5 383.3333,-83.5 383.3333,-83.5 380.1667,-83.5 377,-80.3333 377,-77.1667 377,-77.1667 377,-70.8333 377,-70.8333 377,-67.6667 380.1667,-64.5 383.3333,-64.5 383.3333,-64.5 400.6667,-64.5 400.6667,-64.5 403.8333,-64.5 407,-67.6667 407,-70.8333 407,-70.8333 407,-77.1667 407,-77.1667 407,-80.3333 403.8333,-83.5 400.6667,-83.5"/>
<text text-anchor="middle" x="392" y="-71.5" font-family="Arial" font-size="10.00" fill="#ffffff">Unit</text>
</a>
</g>
</g>
</g>
</svg>
