<?xml version="1.0" encoding="UTF-8" standalone="no"?>
<!DOCTYPE svg PUBLIC "-//W3C//DTD SVG 1.1//EN"
 "http://www.w3.org/Graphics/SVG/1.1/DTD/svg11.dtd">
<!-- Generated by graphviz version 2.40.1 (20161225.0304)
 -->
<!-- Title: InheritanceGraph Pages: 1 -->
<svg width="391pt" height="101pt"
 viewBox="0.00 0.00 391.00 101.00" xmlns="http://www.w3.org/2000/svg" xmlns:xlink="http://www.w3.org/1999/xlink">
<g id="graph0" class="graph" transform="scale(1 1) rotate(0) translate(4 97)">
<title>InheritanceGraph</title>
<g id="clust1" class="cluster">
<title>cluster_builtins</title>
<path fill="transparent" stroke="#bcd2ee" stroke-width="2" stroke-dasharray="5,2" d="M20,-19C20,-19 49,-19 49,-19 55,-19 61,-25 61,-31 61,-31 61,-62 61,-62 61,-68 55,-74 49,-74 49,-74 20,-74 20,-74 14,-74 8,-68 8,-62 8,-62 8,-31 8,-31 8,-25 14,-19 20,-19"/>
<text text-anchor="middle" x="34.5" y="-62" font-family="Arial" font-size="10.00" fill="#000000">builtins</text>
</g>
<g id="clust2" class="cluster">
<title>cluster_supriya.realtime</title>
<path fill="transparent" stroke="#bcd2ee" stroke-width="2" stroke-dasharray="5,2" d="M326,-19C326,-19 371,-19 371,-19 377,-19 383,-25 383,-31 383,-31 383,-62 383,-62 383,-68 377,-74 371,-74 371,-74 326,-74 326,-74 320,-74 314,-68 314,-62 314,-62 314,-31 314,-31 314,-25 320,-19 326,-19"/>
<text text-anchor="middle" x="348.5" y="-62" font-family="Arial" font-size="10.00" fill="#000000">supriya.realtime</text>
</g>
<g id="clust3" class="cluster">
<title>cluster_supriya.system</title>
<path fill="transparent" stroke="#bcd2ee" stroke-width="2" stroke-dasharray="5,2" d="M93,-8C93,-8 205,-8 205,-8 211,-8 217,-14 217,-20 217,-20 217,-73 217,-73 217,-79 211,-85 205,-85 205,-85 93,-85 93,-85 87,-85 81,-79 81,-73 81,-73 81,-20 81,-20 81,-14 87,-8 93,-8"/>
<text text-anchor="middle" x="149" y="-73" font-family="Arial" font-size="10.00" fill="#000000">supriya.system</text>
</g>
<g id="clust4" class="cluster">
<title>cluster_supriya.time</title>
<path fill="transparent" stroke="#bcd2ee" stroke-width="2" stroke-dasharray="5,2" d="M249,-19C249,-19 282,-19 282,-19 288,-19 294,-25 294,-31 294,-31 294,-62 294,-62 294,-68 288,-74 282,-74 282,-74 249,-74 249,-74 243,-74 237,-68 237,-62 237,-62 237,-31 237,-31 237,-25 243,-19 249,-19"/>
<text text-anchor="middle" x="265.5" y="-62" font-family="Arial" font-size="10.00" fill="#000000">supriya.time</text>
</g>
<!-- builtins.object&#45;&gt;supriya.system.SupriyaObject.SupriyaObject -->
<g id="edge2" class="edge">
<title>builtins.object&#45;&gt;supriya.system.SupriyaObject.SupriyaObject</title>
<path fill="none" stroke="#778899" d="M53.1629,-37C60.862,-37 69.9986,-37 78.6696,-37"/>
<polygon fill="#778899" stroke="#778899" points="78.8875,-40.5001 88.8875,-37 78.8874,-33.5001 78.8875,-40.5001"/>
</g>
<!-- supriya.system.SupriyaObject.SupriyaObject&#45;&gt;supriya.system.SupriyaValueObject.SupriyaValueObject -->
<g id="edge1" class="edge">
<title>supriya.system.SupriyaObject.SupriyaObject&#45;&gt;supriya.system.SupriyaValueObject.SupriyaValueObject</title>
<path fill="none" stroke="#778899" d="M131.3138,-37C139.2025,-37 148.316,-37 156.8971,-37"/>
<polygon fill="#778899" stroke="#778899" points="156.982,-40.5001 166.982,-37 156.982,-33.5001 156.982,-40.5001"/>
</g>
<!-- supriya.system.SupriyaValueObject.SupriyaValueObject&#45;&gt;supriya.time.Interval.Interval -->
<g id="edge3" class="edge">
<title>supriya.system.SupriyaValueObject.SupriyaValueObject&#45;&gt;supriya.time.Interval.Interval</title>
<path fill="none" stroke="#778899" d="M209.1772,-37C217.079,-37 226.2177,-37 234.8043,-37"/>
<polygon fill="#778899" stroke="#778899" points="234.8841,-40.5001 244.8841,-37 234.884,-33.5001 234.8841,-40.5001"/>
</g>
<!-- supriya.time.Interval.Interval&#45;&gt;supriya.realtime.Block.Block -->
<g id="edge4" class="edge">
<title>supriya.time.Interval.Interval&#45;&gt;supriya.realtime.Block.Block</title>
<path fill="none" stroke="#778899" d="M286.0169,-37C296.4212,-37 309.2135,-37 320.5076,-37"/>
<polygon fill="#778899" stroke="#778899" points="320.7501,-40.5001 330.7501,-37 320.7501,-33.5001 320.7501,-40.5001"/>
</g>
<!-- builtins.object -->
<g id="node1" class="node">
<title>builtins.object</title>
<g id="a_node1"><a xlink:href="https://docs.python.org/3.6/library/functions.html#object" xlink:title="object" target="_top">
<path fill="#fbb4ae" stroke="#fbb4ae" stroke-width="2" d="M46.6667,-46.5C46.6667,-46.5 22.3333,-46.5 22.3333,-46.5 19.1667,-46.5 16,-43.3333 16,-40.1667 16,-40.1667 16,-33.8333 16,-33.8333 16,-30.6667 19.1667,-27.5 22.3333,-27.5 22.3333,-27.5 46.6667,-27.5 46.6667,-27.5 49.8333,-27.5 53,-30.6667 53,-33.8333 53,-33.8333 53,-40.1667 53,-40.1667 53,-43.3333 49.8333,-46.5 46.6667,-46.5"/>
<text text-anchor="middle" x="34.5" y="-34.5" font-family="Arial" font-size="10.00" fill="#000000">object</text>
</a>
</g>
</g>
<!-- supriya.realtime.Block.Block -->
<g id="node2" class="node">
<title>supriya.realtime.Block.Block</title>
<g id="a_node2"><a xlink:href="../api/supriya/realtime/Block.html#supriya.realtime.Block.Block" xlink:title="Block" target="_top">
<path fill="#000000" stroke="#000000" stroke-width="2" d="M359.6667,-46.5C359.6667,-46.5 337.3333,-46.5 337.3333,-46.5 334.1667,-46.5 331,-43.3333 331,-40.1667 331,-40.1667 331,-33.8333 331,-33.8333 331,-30.6667 334.1667,-27.5 337.3333,-27.5 337.3333,-27.5 359.6667,-27.5 359.6667,-27.5 362.8333,-27.5 366,-30.6667 366,-33.8333 366,-33.8333 366,-40.1667 366,-40.1667 366,-43.3333 362.8333,-46.5 359.6667,-46.5"/>
<text text-anchor="middle" x="348.5" y="-34.5" font-family="Arial" font-size="10.00" fill="#ffffff">Block</text>
</a>
</g>
</g>
<!-- supriya.system.SupriyaObject.SupriyaObject -->
<g id="node3" class="node">
<title>supriya.system.SupriyaObject.SupriyaObject</title>
<g id="a_node3"><a xlink:href="../api/supriya/realtime/../system/SupriyaObject.html#supriya.system.SupriyaObject.SupriyaObject" xlink:title="Supriya\nObject" target="_top">
<path fill="#ccebc5" stroke="#ccebc5" stroke-width="2" d="M121,-52C121,-52 99,-52 99,-52 94,-52 89,-47 89,-42 89,-42 89,-32 89,-32 89,-27 94,-22 99,-22 99,-22 121,-22 121,-22 126,-22 131,-27 131,-32 131,-32 131,-42 131,-42 131,-47 126,-52 121,-52"/>
<text text-anchor="middle" x="110" y="-40" font-family="Arial" font-size="10.00" fill="#000000">Supriya</text>
<text text-anchor="middle" x="110" y="-29" font-family="Arial" font-size="10.00" fill="#000000">Object</text>
</a>
</g>
</g>
<!-- supriya.system.SupriyaValueObject.SupriyaValueObject -->
<g id="node4" class="node">
<title>supriya.system.SupriyaValueObject.SupriyaValueObject</title>
<g id="a_node4"><a xlink:href="../api/supriya/realtime/../system/SupriyaValueObject.html#supriya.system.SupriyaValueObject.SupriyaValueObject" xlink:title="Supriya\nValue\nObject" target="_top">
<path fill="#ccebc5" stroke="#ccebc5" stroke-width="2" d="M197,-57.5C197,-57.5 179,-57.5 179,-57.5 173,-57.5 167,-51.5 167,-45.5 167,-45.5 167,-28.5 167,-28.5 167,-22.5 173,-16.5 179,-16.5 179,-16.5 197,-16.5 197,-16.5 203,-16.5 209,-22.5 209,-28.5 209,-28.5 209,-45.5 209,-45.5 209,-51.5 203,-57.5 197,-57.5"/>
<text text-anchor="middle" x="188" y="-45.5" font-family="Arial" font-size="10.00" fill="#000000">Supriya</text>
<text text-anchor="middle" x="188" y="-34.5" font-family="Arial" font-size="10.00" fill="#000000">Value</text>
<text text-anchor="middle" x="188" y="-23.5" font-family="Arial" font-size="10.00" fill="#000000">Object</text>
</a>
</g>
</g>
<!-- supriya.time.Interval.Interval -->
<g id="node5" class="node">
<title>supriya.time.Interval.Interval</title>
<g id="a_node5"><a xlink:href="../api/supriya/realtime/../time/Interval.html#supriya.time.Interval.Interval" xlink:title="Interval" target="_top">
<path fill="#decbe4" stroke="#decbe4" stroke-width="2" d="M279.6667,-46.5C279.6667,-46.5 251.3333,-46.5 251.3333,-46.5 248.1667,-46.5 245,-43.3333 245,-40.1667 245,-40.1667 245,-33.8333 245,-33.8333 245,-30.6667 248.1667,-27.5 251.3333,-27.5 251.3333,-27.5 279.6667,-27.5 279.6667,-27.5 282.8333,-27.5 286,-30.6667 286,-33.8333 286,-33.8333 286,-40.1667 286,-40.1667 286,-43.3333 282.8333,-46.5 279.6667,-46.5"/>
<text text-anchor="middle" x="265.5" y="-34.5" font-family="Arial" font-size="10.00" fill="#000000">Interval</text>
</a>
</g>
</g>
</g>
</svg>
