<?xml version="1.0" encoding="UTF-8" standalone="no"?>
<!DOCTYPE svg PUBLIC "-//W3C//DTD SVG 1.1//EN"
 "http://www.w3.org/Graphics/SVG/1.1/DTD/svg11.dtd">
<!-- Generated by graphviz version 2.40.1 (20161225.0304)
 -->
<!-- Title: InheritanceGraph Pages: 1 -->
<svg width="306pt" height="89pt"
 viewBox="0.00 0.00 306.00 89.00" xmlns="http://www.w3.org/2000/svg" xmlns:xlink="http://www.w3.org/1999/xlink">
<g id="graph0" class="graph" transform="scale(1 1) rotate(0) translate(4 85)">
<title>InheritanceGraph</title>
<g id="clust1" class="cluster">
<title>cluster_abc</title>
<path fill="transparent" stroke="#bcd2ee" stroke-width="2" stroke-dasharray="5,2" d="M160,-13C160,-13 201,-13 201,-13 207,-13 213,-19 213,-25 213,-25 213,-56 213,-56 213,-62 207,-68 201,-68 201,-68 160,-68 160,-68 154,-68 148,-62 148,-56 148,-56 148,-25 148,-25 148,-19 154,-13 160,-13"/>
<text text-anchor="middle" x="180.5" y="-56" font-family="Arial" font-size="10.00" fill="#000000">abc</text>
</g>
<g id="clust2" class="cluster">
<title>cluster_builtins</title>
<path fill="transparent" stroke="#bcd2ee" stroke-width="2" stroke-dasharray="5,2" d="M20,-13C20,-13 116,-13 116,-13 122,-13 128,-19 128,-25 128,-25 128,-56 128,-56 128,-62 122,-68 116,-68 116,-68 20,-68 20,-68 14,-68 8,-62 8,-56 8,-56 8,-25 8,-25 8,-19 14,-13 20,-13"/>
<text text-anchor="middle" x="68" y="-56" font-family="Arial" font-size="10.00" fill="#000000">builtins</text>
</g>
<g id="clust3" class="cluster">
<title>cluster_supriya.ugens</title>
<path fill="transparent" stroke="#bcd2ee" stroke-width="2" stroke-dasharray="5,2" d="M245,-8C245,-8 284,-8 284,-8 290,-8 296,-14 296,-20 296,-20 296,-61 296,-61 296,-67 290,-73 284,-73 284,-73 245,-73 245,-73 239,-73 233,-67 233,-61 233,-61 233,-20 233,-20 233,-14 239,-8 245,-8"/>
<text text-anchor="middle" x="264.5" y="-61" font-family="Arial" font-size="10.00" fill="#000000">supriya.ugens</text>
</g>
<!-- abc.ABCMeta&#45;&gt;supriya.ugens.UGenMeta.UGenMeta -->
<g id="edge2" class="edge">
<title>abc.ABCMeta&#45;&gt;supriya.ugens.UGenMeta.UGenMeta</title>
<path fill="none" stroke="#778899" d="M205.1011,-31C214.7104,-31 225.7866,-31 235.7225,-31"/>
<polygon fill="#778899" stroke="#778899" points="235.9332,-34.5001 245.9332,-31 235.9331,-27.5001 235.9332,-34.5001"/>
</g>
<!-- builtins.object&#45;&gt;builtins.type -->
<g id="edge1" class="edge">
<title>builtins.object&#45;&gt;builtins.type</title>
<path fill="none" stroke="#778899" d="M53.2587,-31C61.0039,-31 70.1125,-31 78.4853,-31"/>
<polygon fill="#778899" stroke="#778899" points="78.5393,-34.5001 88.5393,-31 78.5392,-27.5001 78.5393,-34.5001"/>
</g>
<!-- builtins.type&#45;&gt;abc.ABCMeta -->
<g id="edge3" class="edge">
<title>builtins.type&#45;&gt;abc.ABCMeta</title>
<path fill="none" stroke="#778899" d="M120.2472,-31C127.6222,-31 136.7239,-31 145.5986,-31"/>
<polygon fill="#778899" stroke="#778899" points="145.7955,-34.5001 155.7954,-31 145.7954,-27.5001 145.7955,-34.5001"/>
</g>
<!-- abc.ABCMeta -->
<g id="node1" class="node">
<title>abc.ABCMeta</title>
<g id="a_node1"><a xlink:href="https://docs.python.org/3.6/library/abc.html#abc.ABCMeta" xlink:title="ABCMeta" target="_top">
<path fill="#fbb4ae" stroke="#fbb4ae" stroke-width="2" d="M198.6667,-40.5C198.6667,-40.5 162.3333,-40.5 162.3333,-40.5 159.1667,-40.5 156,-37.3333 156,-34.1667 156,-34.1667 156,-27.8333 156,-27.8333 156,-24.6667 159.1667,-21.5 162.3333,-21.5 162.3333,-21.5 198.6667,-21.5 198.6667,-21.5 201.8333,-21.5 205,-24.6667 205,-27.8333 205,-27.8333 205,-34.1667 205,-34.1667 205,-37.3333 201.8333,-40.5 198.6667,-40.5"/>
<text text-anchor="middle" x="180.5" y="-28.5" font-family="Arial" font-size="10.00" fill="#000000">ABCMeta</text>
</a>
</g>
</g>
<!-- builtins.object -->
<g id="node2" class="node">
<title>builtins.object</title>
<g id="a_node2"><a xlink:href="https://docs.python.org/3.6/library/functions.html#object" xlink:title="object" target="_top">
<path fill="#b3cde3" stroke="#b3cde3" stroke-width="2" d="M46.6667,-40.5C46.6667,-40.5 22.3333,-40.5 22.3333,-40.5 19.1667,-40.5 16,-37.3333 16,-34.1667 16,-34.1667 16,-27.8333 16,-27.8333 16,-24.6667 19.1667,-21.5 22.3333,-21.5 22.3333,-21.5 46.6667,-21.5 46.6667,-21.5 49.8333,-21.5 53,-24.6667 53,-27.8333 53,-27.8333 53,-34.1667 53,-34.1667 53,-37.3333 49.8333,-40.5 46.6667,-40.5"/>
<text text-anchor="middle" x="34.5" y="-28.5" font-family="Arial" font-size="10.00" fill="#000000">object</text>
</a>
</g>
</g>
<!-- builtins.type -->
<g id="node3" class="node">
<title>builtins.type</title>
<g id="a_node3"><a xlink:href="https://docs.python.org/3.6/library/functions.html#type" xlink:title="type" target="_top">
<path fill="#b3cde3" stroke="#b3cde3" stroke-width="2" d="M113.6667,-40.5C113.6667,-40.5 95.3333,-40.5 95.3333,-40.5 92.1667,-40.5 89,-37.3333 89,-34.1667 89,-34.1667 89,-27.8333 89,-27.8333 89,-24.6667 92.1667,-21.5 95.3333,-21.5 95.3333,-21.5 113.6667,-21.5 113.6667,-21.5 116.8333,-21.5 120,-24.6667 120,-27.8333 120,-27.8333 120,-34.1667 120,-34.1667 120,-37.3333 116.8333,-40.5 113.6667,-40.5"/>
<text text-anchor="middle" x="104.5" y="-28.5" font-family="Arial" font-size="10.00" fill="#000000">type</text>
</a>
</g>
</g>
<!-- supriya.ugens.UGenMeta.UGenMeta -->
<g id="node4" class="node">
<title>supriya.ugens.UGenMeta.UGenMeta</title>
<g id="a_node4"><a xlink:href="../api/supriya/ugens/UGenMeta.html#supriya.ugens.UGenMeta.UGenMeta" xlink:title="UGen\nMeta" target="_top">
<path fill="#000000" stroke="#000000" stroke-width="2" d="M272,-46C272,-46 256,-46 256,-46 251,-46 246,-41 246,-36 246,-36 246,-26 246,-26 246,-21 251,-16 256,-16 256,-16 272,-16 272,-16 277,-16 282,-21 282,-26 282,-26 282,-36 282,-36 282,-41 277,-46 272,-46"/>
<text text-anchor="middle" x="264" y="-34" font-family="Arial" font-size="10.00" fill="#ffffff">UGen</text>
<text text-anchor="middle" x="264" y="-23" font-family="Arial" font-size="10.00" fill="#ffffff">Meta</text>
</a>
</g>
</g>
</g>
</svg>
