<?xml version="1.0" encoding="UTF-8" standalone="no"?>
<!DOCTYPE svg PUBLIC "-//W3C//DTD SVG 1.1//EN"
 "http://www.w3.org/Graphics/SVG/1.1/DTD/svg11.dtd">
<!-- Generated by graphviz version 2.40.1 (20161225.0304)
 -->
<!-- Title: InheritanceGraph Pages: 1 -->
<svg width="649pt" height="185pt"
 viewBox="0.00 0.00 649.49 185.00" xmlns="http://www.w3.org/2000/svg" xmlns:xlink="http://www.w3.org/1999/xlink">
<g id="graph0" class="graph" transform="scale(1 1) rotate(0) translate(4 181)">
<title>InheritanceGraph</title>
<g id="clust1" class="cluster">
<title>cluster_builtins</title>
<path fill="transparent" stroke="#bcd2ee" stroke-width="2" stroke-dasharray="5,2" d="M20,-61C20,-61 49,-61 49,-61 55,-61 61,-67 61,-73 61,-73 61,-104 61,-104 61,-110 55,-116 49,-116 49,-116 20,-116 20,-116 14,-116 8,-110 8,-104 8,-104 8,-73 8,-73 8,-67 14,-61 20,-61"/>
<text text-anchor="middle" x="34.5" y="-104" font-family="Arial" font-size="10.00" fill="#000000">builtins</text>
</g>
<g id="clust2" class="cluster">
<title>cluster_supriya.synthdefs</title>
<path fill="transparent" stroke="#bcd2ee" stroke-width="2" stroke-dasharray="5,2" d="M180,-50C180,-50 231,-50 231,-50 237,-50 243,-56 243,-62 243,-62 243,-115 243,-115 243,-121 237,-127 231,-127 231,-127 180,-127 180,-127 174,-127 168,-121 168,-115 168,-115 168,-62 168,-62 168,-56 174,-50 180,-50"/>
<text text-anchor="middle" x="205.5" y="-115" font-family="Arial" font-size="10.00" fill="#000000">supriya.synthdefs</text>
</g>
<g id="clust3" class="cluster">
<title>cluster_supriya.system</title>
<path fill="transparent" stroke="#bcd2ee" stroke-width="2" stroke-dasharray="5,2" d="M93,-56C93,-56 136,-56 136,-56 142,-56 148,-62 148,-68 148,-68 148,-109 148,-109 148,-115 142,-121 136,-121 136,-121 93,-121 93,-121 87,-121 81,-115 81,-109 81,-109 81,-68 81,-68 81,-62 87,-56 93,-56"/>
<text text-anchor="middle" x="114.5" y="-109" font-family="Arial" font-size="10.00" fill="#000000">supriya.system</text>
</g>
<g id="clust4" class="cluster">
<title>cluster_supriya.ugens</title>
<path fill="transparent" stroke="#bcd2ee" stroke-width="2" stroke-dasharray="5,2" d="M275,-8C275,-8 621.4924,-8 621.4924,-8 627.4924,-8 633.4924,-14 633.4924,-20 633.4924,-20 633.4924,-157 633.4924,-157 633.4924,-163 627.4924,-169 621.4924,-169 621.4924,-169 275,-169 275,-169 269,-169 263,-163 263,-157 263,-157 263,-20 263,-20 263,-14 269,-8 275,-8"/>
<text text-anchor="middle" x="448.2462" y="-157" font-family="Arial" font-size="10.00" fill="#000000">supriya.ugens</text>
</g>
<!-- builtins.object&#45;&gt;supriya.system.SupriyaObject.SupriyaObject -->
<g id="edge7" class="edge">
<title>builtins.object&#45;&gt;supriya.system.SupriyaObject.SupriyaObject</title>
<path fill="none" stroke="#778899" d="M53.3404,-79C62.0401,-79 72.6079,-79 82.4698,-79"/>
<polygon fill="#778899" stroke="#778899" points="82.7722,-82.5001 92.7722,-79 82.7721,-75.5001 82.7722,-82.5001"/>
</g>
<!-- supriya.synthdefs.UGenMethodMixin.UGenMethodMixin&#45;&gt;supriya.ugens.UGen.UGen -->
<g id="edge8" class="edge">
<title>supriya.synthdefs.UGenMethodMixin.UGenMethodMixin&#45;&gt;supriya.ugens.UGen.UGen</title>
<path fill="none" stroke="#778899" d="M226.2117,-79C236.3925,-79 248.8752,-79 260.4793,-79"/>
<polygon fill="#778899" stroke="#778899" points="260.7979,-82.5001 270.7978,-79 260.7978,-75.5001 260.7979,-82.5001"/>
</g>
<!-- supriya.system.SupriyaObject.SupriyaObject&#45;&gt;supriya.synthdefs.UGenMethodMixin.UGenMethodMixin -->
<g id="edge9" class="edge">
<title>supriya.system.SupriyaObject.SupriyaObject&#45;&gt;supriya.synthdefs.UGenMethodMixin.UGenMethodMixin</title>
<path fill="none" stroke="#778899" d="M135.106,-79C146.5093,-79 160.815,-79 173.5087,-79"/>
<polygon fill="#778899" stroke="#778899" points="173.6933,-82.5001 183.6933,-79 173.6932,-75.5001 173.6933,-82.5001"/>
</g>
<!-- supriya.ugens.Filter.Filter&#45;&gt;supriya.ugens.LPZ2.LPZ2 -->
<g id="edge1" class="edge">
<title>supriya.ugens.Filter.Filter&#45;&gt;supriya.ugens.LPZ2.LPZ2</title>
<path fill="none" stroke="#778899" d="M491.6778,-79C499.7222,-79 508.757,-79 516.953,-79"/>
<polygon fill="#778899" stroke="#778899" points="517.0903,-82.5001 527.0903,-79 517.0902,-75.5001 517.0903,-82.5001"/>
</g>
<!-- supriya.ugens.LPZ2.LPZ2&#45;&gt;supriya.ugens.BPZ2.BPZ2 -->
<g id="edge2" class="edge">
<title>supriya.ugens.LPZ2.LPZ2&#45;&gt;supriya.ugens.BPZ2.BPZ2</title>
<path fill="none" stroke="#778899" d="M557.6958,-68.1081C565.9726,-62.1784 576.3989,-54.7088 585.7236,-48.0284"/>
<polygon fill="#778899" stroke="#778899" points="587.7935,-50.851 593.8843,-42.1819 583.7168,-45.1606 587.7935,-50.851"/>
</g>
<!-- supriya.ugens.LPZ2.LPZ2&#45;&gt;supriya.ugens.BRZ2.BRZ2 -->
<g id="edge3" class="edge">
<title>supriya.ugens.LPZ2.LPZ2&#45;&gt;supriya.ugens.BRZ2.BRZ2</title>
<path fill="none" stroke="#778899" d="M557.6958,-79C565.2716,-79 574.6482,-79 583.3327,-79"/>
<polygon fill="#778899" stroke="#778899" points="583.415,-82.5001 593.415,-79 583.4149,-75.5001 583.415,-82.5001"/>
</g>
<!-- supriya.ugens.LPZ2.LPZ2&#45;&gt;supriya.ugens.HPZ2.HPZ2 -->
<g id="edge4" class="edge">
<title>supriya.ugens.LPZ2.LPZ2&#45;&gt;supriya.ugens.HPZ2.HPZ2</title>
<path fill="none" stroke="#778899" d="M557.6958,-89.8919C565.7711,-95.6772 575.8925,-102.9284 585.0407,-109.4824"/>
<polygon fill="#778899" stroke="#778899" points="583.2475,-112.5031 593.415,-115.4818 587.3242,-106.8127 583.2475,-112.5031"/>
</g>
<!-- supriya.ugens.PureUGen.PureUGen&#45;&gt;supriya.ugens.Filter.Filter -->
<g id="edge5" class="edge">
<title>supriya.ugens.PureUGen.PureUGen&#45;&gt;supriya.ugens.Filter.Filter</title>
<path fill="none" stroke="#778899" d="M409.2682,-79C417.2126,-79 426.0726,-79 434.4583,-79"/>
<polygon fill="#778899" stroke="#778899" points="434.722,-82.5001 444.722,-79 434.7219,-75.5001 434.722,-82.5001"/>
</g>
<!-- supriya.ugens.UGen.UGen&#45;&gt;supriya.ugens.PureUGen.PureUGen -->
<g id="edge6" class="edge">
<title>supriya.ugens.UGen.UGen&#45;&gt;supriya.ugens.PureUGen.PureUGen</title>
<path fill="none" stroke="#778899" d="M322.0621,-79C330.0361,-79 338.9805,-79 347.5203,-79"/>
<polygon fill="#778899" stroke="#778899" points="347.644,-82.5001 357.6439,-79 347.6439,-75.5001 347.644,-82.5001"/>
</g>
<!-- builtins.object -->
<g id="node1" class="node">
<title>builtins.object</title>
<g id="a_node1"><a xlink:href="https://docs.python.org/3.6/library/functions.html#object" xlink:title="object" target="_top">
<path fill="#fbb4ae" stroke="#fbb4ae" stroke-width="2" d="M46.6667,-88.5C46.6667,-88.5 22.3333,-88.5 22.3333,-88.5 19.1667,-88.5 16,-85.3333 16,-82.1667 16,-82.1667 16,-75.8333 16,-75.8333 16,-72.6667 19.1667,-69.5 22.3333,-69.5 22.3333,-69.5 46.6667,-69.5 46.6667,-69.5 49.8333,-69.5 53,-72.6667 53,-75.8333 53,-75.8333 53,-82.1667 53,-82.1667 53,-85.3333 49.8333,-88.5 46.6667,-88.5"/>
<text text-anchor="middle" x="34.5" y="-76.5" font-family="Arial" font-size="10.00" fill="#000000">object</text>
</a>
</g>
</g>
<!-- supriya.synthdefs.UGenMethodMixin.UGenMethodMixin -->
<g id="node2" class="node">
<title>supriya.synthdefs.UGenMethodMixin.UGenMethodMixin</title>
<g id="a_node2"><a xlink:href="../api/supriya/ugens/../synthdefs/UGenMethodMixin.html#supriya.synthdefs.UGenMethodMixin.UGenMethodMixin" xlink:title="UGen\nMethod\nMixin" target="_top">
<path fill="#b3cde3" stroke="#b3cde3" stroke-width="2" d="M214,-99.5C214,-99.5 196,-99.5 196,-99.5 190,-99.5 184,-93.5 184,-87.5 184,-87.5 184,-70.5 184,-70.5 184,-64.5 190,-58.5 196,-58.5 196,-58.5 214,-58.5 214,-58.5 220,-58.5 226,-64.5 226,-70.5 226,-70.5 226,-87.5 226,-87.5 226,-93.5 220,-99.5 214,-99.5"/>
<text text-anchor="middle" x="205" y="-87.5" font-family="Arial" font-size="10.00" fill="#000000">UGen</text>
<text text-anchor="middle" x="205" y="-76.5" font-family="Arial" font-size="10.00" fill="#000000">Method</text>
<text text-anchor="middle" x="205" y="-65.5" font-family="Arial" font-size="10.00" fill="#000000">Mixin</text>
</a>
</g>
</g>
<!-- supriya.system.SupriyaObject.SupriyaObject -->
<g id="node3" class="node">
<title>supriya.system.SupriyaObject.SupriyaObject</title>
<g id="a_node3"><a xlink:href="../api/supriya/ugens/../system/SupriyaObject.html#supriya.system.SupriyaObject.SupriyaObject" xlink:title="Supriya\nObject" target="_top">
<path fill="#ccebc5" stroke="#ccebc5" stroke-width="2" d="M125,-94C125,-94 103,-94 103,-94 98,-94 93,-89 93,-84 93,-84 93,-74 93,-74 93,-69 98,-64 103,-64 103,-64 125,-64 125,-64 130,-64 135,-69 135,-74 135,-74 135,-84 135,-84 135,-89 130,-94 125,-94"/>
<text text-anchor="middle" x="114" y="-82" font-family="Arial" font-size="10.00" fill="#000000">Supriya</text>
<text text-anchor="middle" x="114" y="-71" font-family="Arial" font-size="10.00" fill="#000000">Object</text>
</a>
</g>
</g>
<!-- supriya.ugens.BPZ2.BPZ2 -->
<g id="node4" class="node">
<title>supriya.ugens.BPZ2.BPZ2</title>
<g id="a_node4"><a xlink:href="../api/supriya/ugens/BPZ2.html#supriya.ugens.BPZ2.BPZ2" xlink:title="BPZ\n2" target="_top">
<path fill="#decbe4" stroke="#decbe4" stroke-width="2" d="M614.9924,-46C614.9924,-46 603.9924,-46 603.9924,-46 598.9924,-46 593.9924,-41 593.9924,-36 593.9924,-36 593.9924,-26 593.9924,-26 593.9924,-21 598.9924,-16 603.9924,-16 603.9924,-16 614.9924,-16 614.9924,-16 619.9924,-16 624.9924,-21 624.9924,-26 624.9924,-26 624.9924,-36 624.9924,-36 624.9924,-41 619.9924,-46 614.9924,-46"/>
<text text-anchor="middle" x="609.4924" y="-34" font-family="Arial" font-size="10.00" fill="#000000">BPZ</text>
<text text-anchor="middle" x="609.4924" y="-23" font-family="Arial" font-size="10.00" fill="#000000">2</text>
</a>
</g>
</g>
<!-- supriya.ugens.BRZ2.BRZ2 -->
<g id="node5" class="node">
<title>supriya.ugens.BRZ2.BRZ2</title>
<g id="a_node5"><a xlink:href="../api/supriya/ugens/BRZ2.html#supriya.ugens.BRZ2.BRZ2" xlink:title="BRZ\n2" target="_top">
<path fill="#decbe4" stroke="#decbe4" stroke-width="2" d="M615.4924,-94C615.4924,-94 603.4924,-94 603.4924,-94 598.4924,-94 593.4924,-89 593.4924,-84 593.4924,-84 593.4924,-74 593.4924,-74 593.4924,-69 598.4924,-64 603.4924,-64 603.4924,-64 615.4924,-64 615.4924,-64 620.4924,-64 625.4924,-69 625.4924,-74 625.4924,-74 625.4924,-84 625.4924,-84 625.4924,-89 620.4924,-94 615.4924,-94"/>
<text text-anchor="middle" x="609.4924" y="-82" font-family="Arial" font-size="10.00" fill="#000000">BRZ</text>
<text text-anchor="middle" x="609.4924" y="-71" font-family="Arial" font-size="10.00" fill="#000000">2</text>
</a>
</g>
</g>
<!-- supriya.ugens.Filter.Filter -->
<g id="node6" class="node">
<title>supriya.ugens.Filter.Filter</title>
<g id="a_node6"><a xlink:href="../api/supriya/ugens/Filter.html#supriya.ugens.Filter.Filter" xlink:title="Filter" target="_top">
<ellipse fill="none" stroke="#decbe4" stroke-width="2" cx="468.1579" cy="-79" rx="23.1702" ry="13.3704"/>
<text text-anchor="middle" x="468.1579" y="-76.5" font-family="Arial" font-size="10.00" fill="#000000">Filter</text>
</a>
</g>
</g>
<!-- supriya.ugens.HPZ2.HPZ2 -->
<g id="node7" class="node">
<title>supriya.ugens.HPZ2.HPZ2</title>
<g id="a_node7"><a xlink:href="../api/supriya/ugens/HPZ2.html#supriya.ugens.HPZ2.HPZ2" xlink:title="HPZ\n2" target="_top">
<path fill="#decbe4" stroke="#decbe4" stroke-width="2" d="M615.4924,-142C615.4924,-142 603.4924,-142 603.4924,-142 598.4924,-142 593.4924,-137 593.4924,-132 593.4924,-132 593.4924,-122 593.4924,-122 593.4924,-117 598.4924,-112 603.4924,-112 603.4924,-112 615.4924,-112 615.4924,-112 620.4924,-112 625.4924,-117 625.4924,-122 625.4924,-122 625.4924,-132 625.4924,-132 625.4924,-137 620.4924,-142 615.4924,-142"/>
<text text-anchor="middle" x="609.4924" y="-130" font-family="Arial" font-size="10.00" fill="#000000">HPZ</text>
<text text-anchor="middle" x="609.4924" y="-119" font-family="Arial" font-size="10.00" fill="#000000">2</text>
</a>
</g>
</g>
<!-- supriya.ugens.LPZ2.LPZ2 -->
<g id="node8" class="node">
<title>supriya.ugens.LPZ2.LPZ2</title>
<g id="a_node8"><a xlink:href="../api/supriya/ugens/LPZ2.html#supriya.ugens.LPZ2.LPZ2" xlink:title="LPZ\n2" target="_top">
<path fill="#000000" stroke="#000000" stroke-width="2" d="M547.4924,-94C547.4924,-94 537.4924,-94 537.4924,-94 532.4924,-94 527.4924,-89 527.4924,-84 527.4924,-84 527.4924,-74 527.4924,-74 527.4924,-69 532.4924,-64 537.4924,-64 537.4924,-64 547.4924,-64 547.4924,-64 552.4924,-64 557.4924,-69 557.4924,-74 557.4924,-74 557.4924,-84 557.4924,-84 557.4924,-89 552.4924,-94 547.4924,-94"/>
<text text-anchor="middle" x="542.4924" y="-82" font-family="Arial" font-size="10.00" fill="#ffffff">LPZ</text>
<text text-anchor="middle" x="542.4924" y="-71" font-family="Arial" font-size="10.00" fill="#ffffff">2</text>
</a>
</g>
</g>
<!-- supriya.ugens.PureUGen.PureUGen -->
<g id="node9" class="node">
<title>supriya.ugens.PureUGen.PureUGen</title>
<g id="a_node9"><a xlink:href="../api/supriya/ugens/PureUGen.html#supriya.ugens.PureUGen.PureUGen" xlink:title="Pure\nUGen" target="_top">
<ellipse fill="none" stroke="#decbe4" stroke-width="2" cx="383.3675" cy="-79" rx="25.4118" ry="21.4286"/>
<text text-anchor="middle" x="383.3675" y="-82" font-family="Arial" font-size="10.00" fill="#000000">Pure</text>
<text text-anchor="middle" x="383.3675" y="-71" font-family="Arial" font-size="10.00" fill="#000000">UGen</text>
</a>
</g>
</g>
<!-- supriya.ugens.UGen.UGen -->
<g id="node10" class="node">
<title>supriya.ugens.UGen.UGen</title>
<g id="a_node10"><a xlink:href="../api/supriya/ugens/UGen.html#supriya.ugens.UGen.UGen" xlink:title="UGen" target="_top">
<ellipse fill="none" stroke="#decbe4" stroke-width="2" cx="296.4558" cy="-79" rx="25.4118" ry="13.3704"/>
<text text-anchor="middle" x="296.4558" y="-76.5" font-family="Arial" font-size="10.00" fill="#000000">UGen</text>
</a>
</g>
</g>
</g>
</svg>
