<?xml version="1.0" encoding="UTF-8" standalone="no"?>
<!DOCTYPE svg PUBLIC "-//W3C//DTD SVG 1.1//EN"
 "http://www.w3.org/Graphics/SVG/1.1/DTD/svg11.dtd">
<!-- Generated by graphviz version 2.44.1 (20200629.0846)
 -->
<!-- Title: InheritanceGraph Pages: 1 -->
<svg width="769pt" height="289pt"
 viewBox="0.00 0.00 768.79 289.00" xmlns="http://www.w3.org/2000/svg" xmlns:xlink="http://www.w3.org/1999/xlink">
<g id="graph0" class="graph" transform="scale(1 1) rotate(0) translate(4 285)">
<title>InheritanceGraph</title>
<g id="clust1" class="cluster">
<title>cluster_builtins</title>
<path fill="transparent" stroke="#bcd2ee" stroke-width="2" stroke-dasharray="5,2" d="M20,-99C20,-99 55,-99 55,-99 61,-99 67,-105 67,-111 67,-111 67,-142 67,-142 67,-148 61,-154 55,-154 55,-154 20,-154 20,-154 14,-154 8,-148 8,-142 8,-142 8,-111 8,-111 8,-105 14,-99 20,-99"/>
<text text-anchor="middle" x="37.5" y="-142" font-family="Arial" font-size="10.00">builtins</text>
</g>
<g id="clust2" class="cluster">
<title>cluster_supriya.synthdefs.bases</title>
<path fill="transparent" stroke="#bcd2ee" stroke-width="2" stroke-dasharray="5,2" d="M347,-80C347,-80 493.79,-80 493.79,-80 499.79,-80 505.79,-86 505.79,-92 505.79,-92 505.79,-161 505.79,-161 505.79,-167 499.79,-173 493.79,-173 493.79,-173 347,-173 347,-173 341,-173 335,-167 335,-161 335,-161 335,-92 335,-92 335,-86 341,-80 347,-80"/>
<text text-anchor="middle" x="420.4" y="-161" font-family="Arial" font-size="10.00">supriya.synthdefs.bases</text>
</g>
<g id="clust3" class="cluster">
<title>cluster_supriya.synthdefs.mixins</title>
<path fill="transparent" stroke="#bcd2ee" stroke-width="2" stroke-dasharray="5,2" d="M202,-88C202,-88 303,-88 303,-88 309,-88 315,-94 315,-100 315,-100 315,-153 315,-153 315,-159 309,-165 303,-165 303,-165 202,-165 202,-165 196,-165 190,-159 190,-153 190,-153 190,-100 190,-100 190,-94 196,-88 202,-88"/>
<text text-anchor="middle" x="252.5" y="-153" font-family="Arial" font-size="10.00">supriya.synthdefs.mixins</text>
</g>
<g id="clust4" class="cluster">
<title>cluster_supriya.system</title>
<path fill="transparent" stroke="#bcd2ee" stroke-width="2" stroke-dasharray="5,2" d="M99,-94C99,-94 158,-94 158,-94 164,-94 170,-100 170,-106 170,-106 170,-147 170,-147 170,-153 164,-159 158,-159 158,-159 99,-159 99,-159 93,-159 87,-153 87,-147 87,-147 87,-106 87,-106 87,-100 93,-94 99,-94"/>
<text text-anchor="middle" x="128.5" y="-147" font-family="Arial" font-size="10.00">supriya.system</text>
</g>
<g id="clust5" class="cluster">
<title>cluster_supriya.ugens</title>
<path fill="transparent" stroke="#bcd2ee" stroke-width="2" stroke-dasharray="5,2" d="M537.79,-8C537.79,-8 740.79,-8 740.79,-8 746.79,-8 752.79,-14 752.79,-20 752.79,-20 752.79,-261 752.79,-261 752.79,-267 746.79,-273 740.79,-273 740.79,-273 537.79,-273 537.79,-273 531.79,-273 525.79,-267 525.79,-261 525.79,-261 525.79,-20 525.79,-20 525.79,-14 531.79,-8 537.79,-8"/>
<text text-anchor="middle" x="639.29" y="-261" font-family="Arial" font-size="10.00">supriya.ugens</text>
</g>
<!-- builtins.object&#45;&gt;supriya.system.SupriyaObject -->
<g id="edge7" class="edge">
<title>builtins.object&#45;&gt;supriya.system.SupriyaObject</title>
<path fill="none" stroke="lightslategrey" d="M59.03,-117C69.03,-117 81.34,-117 92.72,-117"/>
<polygon fill="lightslategrey" stroke="lightslategrey" points="92.82,-120.5 102.82,-117 92.82,-113.5 92.82,-120.5"/>
</g>
<!-- supriya.synthdefs.bases.UGen&#45;&gt;supriya.synthdefs.bases.WidthFirstUGen -->
<g id="edge1" class="edge">
<title>supriya.synthdefs.bases.UGen&#45;&gt;supriya.synthdefs.bases.WidthFirstUGen</title>
<path fill="none" stroke="lightslategrey" d="M402.48,-117C410.56,-117 419.48,-117 428.05,-117"/>
<polygon fill="lightslategrey" stroke="lightslategrey" points="428.25,-120.5 438.25,-117 428.25,-113.5 428.25,-120.5"/>
</g>
<!-- supriya.synthdefs.bases.WidthFirstUGen&#45;&gt;supriya.ugens.PV_ChainUGen.PV_ChainUGen -->
<g id="edge8" class="edge">
<title>supriya.synthdefs.bases.WidthFirstUGen&#45;&gt;supriya.ugens.PV_ChainUGen.PV_ChainUGen</title>
<path fill="none" stroke="lightslategrey" d="M498.24,-117C506.45,-117 515.4,-117 523.66,-117"/>
<polygon fill="lightslategrey" stroke="lightslategrey" points="523.66,-120.5 533.66,-117 523.66,-113.5 523.66,-120.5"/>
</g>
<!-- supriya.synthdefs.mixins.UGenMethodMixin&#45;&gt;supriya.synthdefs.bases.UGen -->
<g id="edge9" class="edge">
<title>supriya.synthdefs.mixins.UGenMethodMixin&#45;&gt;supriya.synthdefs.bases.UGen</title>
<path fill="none" stroke="lightslategrey" d="M277.14,-117C292.98,-117 314.22,-117 332.55,-117"/>
<polygon fill="lightslategrey" stroke="lightslategrey" points="332.67,-120.5 342.67,-117 332.67,-113.5 332.67,-120.5"/>
</g>
<!-- supriya.system.SupriyaObject&#45;&gt;supriya.synthdefs.mixins.UGenMethodMixin -->
<g id="edge10" class="edge">
<title>supriya.system.SupriyaObject&#45;&gt;supriya.synthdefs.mixins.UGenMethodMixin</title>
<path fill="none" stroke="lightslategrey" d="M153.2,-117C171.61,-117 197.17,-117 217.61,-117"/>
<polygon fill="lightslategrey" stroke="lightslategrey" points="217.77,-120.5 227.77,-117 217.77,-113.5 217.77,-120.5"/>
</g>
<!-- supriya.ugens.PV_ChainUGen.PV_ChainUGen&#45;&gt;supriya.ugens.PV_MagSquared.PV_MagSquared -->
<g id="edge2" class="edge">
<title>supriya.ugens.PV_ChainUGen.PV_ChainUGen&#45;&gt;supriya.ugens.PV_MagSquared.PV_MagSquared</title>
<path fill="none" stroke="lightslategrey" d="M575.94,-117C583.66,-117 592.73,-117 601.49,-117"/>
<polygon fill="lightslategrey" stroke="lightslategrey" points="601.52,-120.5 611.52,-117 601.52,-113.5 601.52,-120.5"/>
</g>
<!-- supriya.ugens.PV_MagSquared.PV_MagSquared&#45;&gt;supriya.ugens.PV_Conj.PV_Conj -->
<g id="edge3" class="edge">
<title>supriya.ugens.PV_MagSquared.PV_MagSquared&#45;&gt;supriya.ugens.PV_Conj.PV_Conj</title>
<path fill="none" stroke="lightslategrey" d="M659.26,-96.18C671.62,-83.3 687.49,-66.76 700.15,-53.57"/>
<polygon fill="lightslategrey" stroke="lightslategrey" points="702.78,-55.88 707.18,-46.24 697.73,-51.03 702.78,-55.88"/>
</g>
<!-- supriya.ugens.PV_MagSquared.PV_MagSquared&#45;&gt;supriya.ugens.PV_MagNoise.PV_MagNoise -->
<g id="edge4" class="edge">
<title>supriya.ugens.PV_MagSquared.PV_MagSquared&#45;&gt;supriya.ugens.PV_MagNoise.PV_MagNoise</title>
<path fill="none" stroke="lightslategrey" d="M664.95,-107.05C673.54,-103.72 683.19,-99.97 692.06,-96.53"/>
<polygon fill="lightslategrey" stroke="lightslategrey" points="693.6,-99.69 701.66,-92.81 691.07,-93.16 693.6,-99.69"/>
</g>
<!-- supriya.ugens.PV_MagSquared.PV_MagSquared&#45;&gt;supriya.ugens.PV_PhaseShift270.PV_PhaseShift270 -->
<g id="edge5" class="edge">
<title>supriya.ugens.PV_MagSquared.PV_MagSquared&#45;&gt;supriya.ugens.PV_PhaseShift270.PV_PhaseShift270</title>
<path fill="none" stroke="lightslategrey" d="M664.95,-127.26C673.26,-130.59 682.57,-134.31 691.21,-137.77"/>
<polygon fill="lightslategrey" stroke="lightslategrey" points="690.01,-141.05 700.59,-141.52 692.61,-134.55 690.01,-141.05"/>
</g>
<!-- supriya.ugens.PV_MagSquared.PV_MagSquared&#45;&gt;supriya.ugens.PV_PhaseShift90.PV_PhaseShift90 -->
<g id="edge6" class="edge">
<title>supriya.ugens.PV_MagSquared.PV_MagSquared&#45;&gt;supriya.ugens.PV_PhaseShift90.PV_PhaseShift90</title>
<path fill="none" stroke="lightslategrey" d="M655.99,-137.84C666.97,-151.56 681.61,-169.84 694.3,-185.67"/>
<polygon fill="lightslategrey" stroke="lightslategrey" points="691.74,-188.07 700.72,-193.69 697.2,-183.69 691.74,-188.07"/>
</g>
<!-- builtins.object -->
<g id="node1" class="node">
<title>builtins.object</title>
<g id="a_node1"><a xlink:href="https://docs.python.org/3/library/functions.html#object" xlink:title="object" target="_top">
<path fill="#fbb4ae" stroke="#fbb4ae" stroke-width="2" d="M52.67,-126.5C52.67,-126.5 22.33,-126.5 22.33,-126.5 19.17,-126.5 16,-123.33 16,-120.17 16,-120.17 16,-113.83 16,-113.83 16,-110.67 19.17,-107.5 22.33,-107.5 22.33,-107.5 52.67,-107.5 52.67,-107.5 55.83,-107.5 59,-110.67 59,-113.83 59,-113.83 59,-120.17 59,-120.17 59,-123.33 55.83,-126.5 52.67,-126.5"/>
<text text-anchor="middle" x="37.5" y="-114.5" font-family="Arial" font-size="10.00">object</text>
</a>
</g>
</g>
<!-- supriya.synthdefs.bases.UGen -->
<g id="node2" class="node">
<title>supriya.synthdefs.bases.UGen</title>
<g id="a_node2"><a xlink:href="../api/supriya/ugens/../synthdefs/bases.html#supriya.synthdefs.bases.UGen" xlink:title="UGen" target="_top">
<ellipse fill="none" stroke="#b3cde3" stroke-width="2" cx="372.7" cy="-117" rx="29.9" ry="13.37"/>
<text text-anchor="middle" x="372.7" y="-114.5" font-family="Arial" font-size="10.00">UGen</text>
</a>
</g>
</g>
<!-- supriya.synthdefs.bases.WidthFirstUGen -->
<g id="node3" class="node">
<title>supriya.synthdefs.bases.WidthFirstUGen</title>
<g id="a_node3"><a xlink:href="../api/supriya/ugens/../synthdefs/bases.html#supriya.synthdefs.bases.WidthFirstUGen" xlink:title="Width\nFirst\nUGen" target="_top">
<ellipse fill="none" stroke="#b3cde3" stroke-width="2" cx="468.1" cy="-117" rx="29.9" ry="28.98"/>
<text text-anchor="middle" x="468.1" y="-125.5" font-family="Arial" font-size="10.00">Width</text>
<text text-anchor="middle" x="468.1" y="-114.5" font-family="Arial" font-size="10.00">First</text>
<text text-anchor="middle" x="468.1" y="-103.5" font-family="Arial" font-size="10.00">UGen</text>
</a>
</g>
</g>
<!-- supriya.synthdefs.mixins.UGenMethodMixin -->
<g id="node4" class="node">
<title>supriya.synthdefs.mixins.UGenMethodMixin</title>
<g id="a_node4"><a xlink:href="../api/supriya/ugens/../synthdefs/mixins.html#supriya.synthdefs.mixins.UGenMethodMixin" xlink:title="UGen\nMethod\nMixin" target="_top">
<path fill="#ccebc5" stroke="#ccebc5" stroke-width="2" d="M265,-137.5C265,-137.5 240,-137.5 240,-137.5 234,-137.5 228,-131.5 228,-125.5 228,-125.5 228,-108.5 228,-108.5 228,-102.5 234,-96.5 240,-96.5 240,-96.5 265,-96.5 265,-96.5 271,-96.5 277,-102.5 277,-108.5 277,-108.5 277,-125.5 277,-125.5 277,-131.5 271,-137.5 265,-137.5"/>
<text text-anchor="middle" x="252.5" y="-125.5" font-family="Arial" font-size="10.00">UGen</text>
<text text-anchor="middle" x="252.5" y="-114.5" font-family="Arial" font-size="10.00">Method</text>
<text text-anchor="middle" x="252.5" y="-103.5" font-family="Arial" font-size="10.00">Mixin</text>
</a>
</g>
</g>
<!-- supriya.system.SupriyaObject -->
<g id="node5" class="node">
<title>supriya.system.SupriyaObject</title>
<g id="a_node5"><a xlink:href="../api/supriya/ugens/../system.html#supriya.system.SupriyaObject" xlink:title="Supriya\nObject" target="_top">
<path fill="#decbe4" stroke="#decbe4" stroke-width="2" d="M143,-132C143,-132 113,-132 113,-132 108,-132 103,-127 103,-122 103,-122 103,-112 103,-112 103,-107 108,-102 113,-102 113,-102 143,-102 143,-102 148,-102 153,-107 153,-112 153,-112 153,-122 153,-122 153,-127 148,-132 143,-132"/>
<text text-anchor="middle" x="128" y="-120" font-family="Arial" font-size="10.00">Supriya</text>
<text text-anchor="middle" x="128" y="-109" font-family="Arial" font-size="10.00">Object</text>
</a>
</g>
</g>
<!-- supriya.ugens.PV_ChainUGen.PV_ChainUGen -->
<g id="node6" class="node">
<title>supriya.ugens.PV_ChainUGen.PV_ChainUGen</title>
<g id="a_node6"><a xlink:href="../api/supriya/ugens/PV_ChainUGen.html#supriya.ugens.PV_ChainUGen.PV_ChainUGen" xlink:title="PV\nChain\nUGen" target="_top">
<path fill="#fed9a6" stroke="#fed9a6" stroke-width="2" d="M563.79,-137.5C563.79,-137.5 545.79,-137.5 545.79,-137.5 539.79,-137.5 533.79,-131.5 533.79,-125.5 533.79,-125.5 533.79,-108.5 533.79,-108.5 533.79,-102.5 539.79,-96.5 545.79,-96.5 545.79,-96.5 563.79,-96.5 563.79,-96.5 569.79,-96.5 575.79,-102.5 575.79,-108.5 575.79,-108.5 575.79,-125.5 575.79,-125.5 575.79,-131.5 569.79,-137.5 563.79,-137.5"/>
<text text-anchor="middle" x="554.79" y="-125.5" font-family="Arial" font-size="10.00">PV</text>
<text text-anchor="middle" x="554.79" y="-114.5" font-family="Arial" font-size="10.00">Chain</text>
<text text-anchor="middle" x="554.79" y="-103.5" font-family="Arial" font-size="10.00">UGen</text>
</a>
</g>
</g>
<!-- supriya.ugens.PV_Conj.PV_Conj -->
<g id="node7" class="node">
<title>supriya.ugens.PV_Conj.PV_Conj</title>
<g id="a_node7"><a xlink:href="../api/supriya/ugens/PV_Conj.html#supriya.ugens.PV_Conj.PV_Conj" xlink:title="PV\nConj" target="_top">
<path fill="#fed9a6" stroke="#fed9a6" stroke-width="2" d="M731.29,-46C731.29,-46 714.29,-46 714.29,-46 709.29,-46 704.29,-41 704.29,-36 704.29,-36 704.29,-26 704.29,-26 704.29,-21 709.29,-16 714.29,-16 714.29,-16 731.29,-16 731.29,-16 736.29,-16 741.29,-21 741.29,-26 741.29,-26 741.29,-36 741.29,-36 741.29,-41 736.29,-46 731.29,-46"/>
<text text-anchor="middle" x="722.79" y="-34" font-family="Arial" font-size="10.00">PV</text>
<text text-anchor="middle" x="722.79" y="-23" font-family="Arial" font-size="10.00">Conj</text>
</a>
</g>
</g>
<!-- supriya.ugens.PV_MagNoise.PV_MagNoise -->
<g id="node8" class="node">
<title>supriya.ugens.PV_MagNoise.PV_MagNoise</title>
<g id="a_node8"><a xlink:href="../api/supriya/ugens/PV_MagNoise.html#supriya.ugens.PV_MagNoise.PV_MagNoise" xlink:title="PV\nMag\nNoise" target="_top">
<path fill="#fed9a6" stroke="#fed9a6" stroke-width="2" d="M731.79,-105.5C731.79,-105.5 713.79,-105.5 713.79,-105.5 707.79,-105.5 701.79,-99.5 701.79,-93.5 701.79,-93.5 701.79,-76.5 701.79,-76.5 701.79,-70.5 707.79,-64.5 713.79,-64.5 713.79,-64.5 731.79,-64.5 731.79,-64.5 737.79,-64.5 743.79,-70.5 743.79,-76.5 743.79,-76.5 743.79,-93.5 743.79,-93.5 743.79,-99.5 737.79,-105.5 731.79,-105.5"/>
<text text-anchor="middle" x="722.79" y="-93.5" font-family="Arial" font-size="10.00">PV</text>
<text text-anchor="middle" x="722.79" y="-82.5" font-family="Arial" font-size="10.00">Mag</text>
<text text-anchor="middle" x="722.79" y="-71.5" font-family="Arial" font-size="10.00">Noise</text>
</a>
</g>
</g>
<!-- supriya.ugens.PV_MagSquared.PV_MagSquared -->
<g id="node9" class="node">
<title>supriya.ugens.PV_MagSquared.PV_MagSquared</title>
<g id="a_node9"><a xlink:href="../api/supriya/ugens/PV_MagSquared.html#supriya.ugens.PV_MagSquared.PV_MagSquared" xlink:title="PV\nMag\nSquared" target="_top">
<path fill="black" stroke="black" stroke-width="2" d="M652.79,-137.5C652.79,-137.5 623.79,-137.5 623.79,-137.5 617.79,-137.5 611.79,-131.5 611.79,-125.5 611.79,-125.5 611.79,-108.5 611.79,-108.5 611.79,-102.5 617.79,-96.5 623.79,-96.5 623.79,-96.5 652.79,-96.5 652.79,-96.5 658.79,-96.5 664.79,-102.5 664.79,-108.5 664.79,-108.5 664.79,-125.5 664.79,-125.5 664.79,-131.5 658.79,-137.5 652.79,-137.5"/>
<text text-anchor="middle" x="638.29" y="-125.5" font-family="Arial" font-size="10.00" fill="white">PV</text>
<text text-anchor="middle" x="638.29" y="-114.5" font-family="Arial" font-size="10.00" fill="white">Mag</text>
<text text-anchor="middle" x="638.29" y="-103.5" font-family="Arial" font-size="10.00" fill="white">Squared</text>
</a>
</g>
</g>
<!-- supriya.ugens.PV_PhaseShift270.PV_PhaseShift270 -->
<g id="node10" class="node">
<title>supriya.ugens.PV_PhaseShift270.PV_PhaseShift270</title>
<g id="a_node10"><a xlink:href="../api/supriya/ugens/PV_PhaseShift270.html#supriya.ugens.PV_PhaseShift270.PV_PhaseShift270" xlink:title="PV\nPhase\nShift\n270" target="_top">
<path fill="#fed9a6" stroke="#fed9a6" stroke-width="2" d="M732.79,-176C732.79,-176 712.79,-176 712.79,-176 706.79,-176 700.79,-170 700.79,-164 700.79,-164 700.79,-136 700.79,-136 700.79,-130 706.79,-124 712.79,-124 712.79,-124 732.79,-124 732.79,-124 738.79,-124 744.79,-130 744.79,-136 744.79,-136 744.79,-164 744.79,-164 744.79,-170 738.79,-176 732.79,-176"/>
<text text-anchor="middle" x="722.79" y="-164" font-family="Arial" font-size="10.00">PV</text>
<text text-anchor="middle" x="722.79" y="-153" font-family="Arial" font-size="10.00">Phase</text>
<text text-anchor="middle" x="722.79" y="-142" font-family="Arial" font-size="10.00">Shift</text>
<text text-anchor="middle" x="722.79" y="-131" font-family="Arial" font-size="10.00">270</text>
</a>
</g>
</g>
<!-- supriya.ugens.PV_PhaseShift90.PV_PhaseShift90 -->
<g id="node11" class="node">
<title>supriya.ugens.PV_PhaseShift90.PV_PhaseShift90</title>
<g id="a_node11"><a xlink:href="../api/supriya/ugens/PV_PhaseShift90.html#supriya.ugens.PV_PhaseShift90.PV_PhaseShift90" xlink:title="PV\nPhase\nShift\n90" target="_top">
<path fill="#fed9a6" stroke="#fed9a6" stroke-width="2" d="M732.79,-246C732.79,-246 712.79,-246 712.79,-246 706.79,-246 700.79,-240 700.79,-234 700.79,-234 700.79,-206 700.79,-206 700.79,-200 706.79,-194 712.79,-194 712.79,-194 732.79,-194 732.79,-194 738.79,-194 744.79,-200 744.79,-206 744.79,-206 744.79,-234 744.79,-234 744.79,-240 738.79,-246 732.79,-246"/>
<text text-anchor="middle" x="722.79" y="-234" font-family="Arial" font-size="10.00">PV</text>
<text text-anchor="middle" x="722.79" y="-223" font-family="Arial" font-size="10.00">Phase</text>
<text text-anchor="middle" x="722.79" y="-212" font-family="Arial" font-size="10.00">Shift</text>
<text text-anchor="middle" x="722.79" y="-201" font-family="Arial" font-size="10.00">90</text>
</a>
</g>
</g>
</g>
</svg>
