<?xml version="1.0" encoding="UTF-8" standalone="no"?>
<!DOCTYPE svg PUBLIC "-//W3C//DTD SVG 1.1//EN"
 "http://www.w3.org/Graphics/SVG/1.1/DTD/svg11.dtd">
<!-- Generated by graphviz version 2.44.1 (20200629.0846)
 -->
<!-- Title: InheritanceGraph Pages: 1 -->
<svg width="758pt" height="352pt"
 viewBox="0.00 0.00 758.19 352.00" xmlns="http://www.w3.org/2000/svg" xmlns:xlink="http://www.w3.org/1999/xlink">
<g id="graph0" class="graph" transform="scale(1 1) rotate(0) translate(4 348)">
<title>InheritanceGraph</title>
<g id="clust1" class="cluster">
<title>cluster_builtins</title>
<path fill="transparent" stroke="#bcd2ee" stroke-width="2" stroke-dasharray="5,2" d="M20,-136C20,-136 55,-136 55,-136 61,-136 67,-142 67,-148 67,-148 67,-179 67,-179 67,-185 61,-191 55,-191 55,-191 20,-191 20,-191 14,-191 8,-185 8,-179 8,-179 8,-148 8,-148 8,-142 14,-136 20,-136"/>
<text text-anchor="middle" x="37.5" y="-179" font-family="Arial" font-size="10.00">builtins</text>
</g>
<g id="clust2" class="cluster">
<title>cluster_supriya.synthdefs.bases</title>
<path fill="transparent" stroke="#bcd2ee" stroke-width="2" stroke-dasharray="5,2" d="M347,-133C347,-133 445.4,-133 445.4,-133 451.4,-133 457.4,-139 457.4,-145 457.4,-145 457.4,-182 457.4,-182 457.4,-188 451.4,-194 445.4,-194 445.4,-194 347,-194 347,-194 341,-194 335,-188 335,-182 335,-182 335,-145 335,-145 335,-139 341,-133 347,-133"/>
<text text-anchor="middle" x="396.2" y="-182" font-family="Arial" font-size="10.00">supriya.synthdefs.bases</text>
</g>
<g id="clust3" class="cluster">
<title>cluster_supriya.synthdefs.mixins</title>
<path fill="transparent" stroke="#bcd2ee" stroke-width="2" stroke-dasharray="5,2" d="M202,-125C202,-125 303,-125 303,-125 309,-125 315,-131 315,-137 315,-137 315,-190 315,-190 315,-196 309,-202 303,-202 303,-202 202,-202 202,-202 196,-202 190,-196 190,-190 190,-190 190,-137 190,-137 190,-131 196,-125 202,-125"/>
<text text-anchor="middle" x="252.5" y="-190" font-family="Arial" font-size="10.00">supriya.synthdefs.mixins</text>
</g>
<g id="clust4" class="cluster">
<title>cluster_supriya.system</title>
<path fill="transparent" stroke="#bcd2ee" stroke-width="2" stroke-dasharray="5,2" d="M99,-131C99,-131 158,-131 158,-131 164,-131 170,-137 170,-143 170,-143 170,-184 170,-184 170,-190 164,-196 158,-196 158,-196 99,-196 99,-196 93,-196 87,-190 87,-184 87,-184 87,-143 87,-143 87,-137 93,-131 99,-131"/>
<text text-anchor="middle" x="128.5" y="-184" font-family="Arial" font-size="10.00">supriya.system</text>
</g>
<g id="clust5" class="cluster">
<title>cluster_supriya.ugens</title>
<path fill="transparent" stroke="#bcd2ee" stroke-width="2" stroke-dasharray="5,2" d="M489.4,-8C489.4,-8 730.19,-8 730.19,-8 736.19,-8 742.19,-14 742.19,-20 742.19,-20 742.19,-324 742.19,-324 742.19,-330 736.19,-336 730.19,-336 730.19,-336 489.4,-336 489.4,-336 483.4,-336 477.4,-330 477.4,-324 477.4,-324 477.4,-20 477.4,-20 477.4,-14 483.4,-8 489.4,-8"/>
<text text-anchor="middle" x="609.79" y="-324" font-family="Arial" font-size="10.00">supriya.ugens</text>
</g>
<!-- builtins.object&#45;&gt;supriya.system.SupriyaObject -->
<g id="edge8" class="edge">
<title>builtins.object&#45;&gt;supriya.system.SupriyaObject</title>
<path fill="none" stroke="lightslategrey" d="M59.03,-154C69.03,-154 81.34,-154 92.72,-154"/>
<polygon fill="lightslategrey" stroke="lightslategrey" points="92.82,-157.5 102.82,-154 92.82,-150.5 92.82,-157.5"/>
</g>
<!-- supriya.synthdefs.bases.UGen&#45;&gt;supriya.ugens.InfoUGenBase.InfoUGenBase -->
<g id="edge9" class="edge">
<title>supriya.synthdefs.bases.UGen&#45;&gt;supriya.ugens.InfoUGenBase.InfoUGenBase</title>
<path fill="none" stroke="lightslategrey" d="M425.42,-154C440.34,-154 458.8,-154 475,-154"/>
<polygon fill="lightslategrey" stroke="lightslategrey" points="475.27,-157.5 485.27,-154 475.27,-150.5 475.27,-157.5"/>
</g>
<!-- supriya.synthdefs.mixins.UGenMethodMixin&#45;&gt;supriya.synthdefs.bases.UGen -->
<g id="edge10" class="edge">
<title>supriya.synthdefs.mixins.UGenMethodMixin&#45;&gt;supriya.synthdefs.bases.UGen</title>
<path fill="none" stroke="lightslategrey" d="M277.13,-154C298.5,-154 330.36,-154 355.53,-154"/>
<polygon fill="lightslategrey" stroke="lightslategrey" points="355.86,-157.5 365.86,-154 355.86,-150.5 355.86,-157.5"/>
</g>
<!-- supriya.system.SupriyaObject&#45;&gt;supriya.synthdefs.mixins.UGenMethodMixin -->
<g id="edge11" class="edge">
<title>supriya.system.SupriyaObject&#45;&gt;supriya.synthdefs.mixins.UGenMethodMixin</title>
<path fill="none" stroke="lightslategrey" d="M153.2,-154C171.61,-154 197.17,-154 217.61,-154"/>
<polygon fill="lightslategrey" stroke="lightslategrey" points="217.77,-157.5 227.77,-154 217.77,-150.5 217.77,-157.5"/>
</g>
<!-- supriya.ugens.BufInfoUGenBase.BufInfoUGenBase&#45;&gt;supriya.ugens.BufChannels.BufChannels -->
<g id="edge1" class="edge">
<title>supriya.ugens.BufInfoUGenBase.BufInfoUGenBase&#45;&gt;supriya.ugens.BufChannels.BufChannels</title>
<path fill="none" stroke="lightslategrey" d="M628.14,-123.86C640.16,-103.4 657.5,-76.29 676.19,-55 676.7,-54.42 677.22,-53.85 677.75,-53.27"/>
<polygon fill="lightslategrey" stroke="lightslategrey" points="680.43,-55.55 685.13,-46.05 675.53,-50.55 680.43,-55.55"/>
</g>
<!-- supriya.ugens.BufInfoUGenBase.BufInfoUGenBase&#45;&gt;supriya.ugens.BufDur.BufDur -->
<g id="edge2" class="edge">
<title>supriya.ugens.BufInfoUGenBase.BufInfoUGenBase&#45;&gt;supriya.ugens.BufDur.BufDur</title>
<path fill="none" stroke="lightslategrey" d="M635.85,-134.29C649.8,-123.01 667.21,-108.92 680.96,-97.79"/>
<polygon fill="lightslategrey" stroke="lightslategrey" points="683.42,-100.31 688.99,-91.3 679.02,-94.87 683.42,-100.31"/>
</g>
<!-- supriya.ugens.BufInfoUGenBase.BufInfoUGenBase&#45;&gt;supriya.ugens.BufFrames.BufFrames -->
<g id="edge3" class="edge">
<title>supriya.ugens.BufInfoUGenBase.BufInfoUGenBase&#45;&gt;supriya.ugens.BufFrames.BufFrames</title>
<path fill="none" stroke="lightslategrey" d="M639.56,-145.83C649.23,-143.01 660.17,-139.82 670.25,-136.88"/>
<polygon fill="lightslategrey" stroke="lightslategrey" points="671.36,-140.21 679.98,-134.05 669.4,-133.49 671.36,-140.21"/>
</g>
<!-- supriya.ugens.BufInfoUGenBase.BufInfoUGenBase&#45;&gt;supriya.ugens.BufRateScale.BufRateScale -->
<g id="edge4" class="edge">
<title>supriya.ugens.BufInfoUGenBase.BufInfoUGenBase&#45;&gt;supriya.ugens.BufRateScale.BufRateScale</title>
<path fill="none" stroke="lightslategrey" d="M639.56,-162.17C650.65,-165.41 663.42,-169.12 674.65,-172.4"/>
<polygon fill="lightslategrey" stroke="lightslategrey" points="673.87,-175.82 684.45,-175.25 675.83,-169.09 673.87,-175.82"/>
</g>
<!-- supriya.ugens.BufInfoUGenBase.BufInfoUGenBase&#45;&gt;supriya.ugens.BufSampleRate.BufSampleRate -->
<g id="edge5" class="edge">
<title>supriya.ugens.BufInfoUGenBase.BufInfoUGenBase&#45;&gt;supriya.ugens.BufSampleRate.BufSampleRate</title>
<path fill="none" stroke="lightslategrey" d="M634.88,-175.7C646.88,-186.83 661.61,-200.5 674.41,-212.37"/>
<polygon fill="lightslategrey" stroke="lightslategrey" points="672.37,-215.25 682.08,-219.49 677.13,-210.12 672.37,-215.25"/>
</g>
<!-- supriya.ugens.BufInfoUGenBase.BufInfoUGenBase&#45;&gt;supriya.ugens.BufSamples.BufSamples -->
<g id="edge6" class="edge">
<title>supriya.ugens.BufInfoUGenBase.BufInfoUGenBase&#45;&gt;supriya.ugens.BufSamples.BufSamples</title>
<path fill="none" stroke="lightslategrey" d="M625.5,-185.91C637.08,-210.34 655.02,-244.12 676.19,-270 676.58,-270.48 676.99,-270.96 677.4,-271.43"/>
<polygon fill="lightslategrey" stroke="lightslategrey" points="675.15,-274.14 684.65,-278.84 680.15,-269.24 675.15,-274.14"/>
</g>
<!-- supriya.ugens.InfoUGenBase.InfoUGenBase&#45;&gt;supriya.ugens.BufInfoUGenBase.BufInfoUGenBase -->
<g id="edge7" class="edge">
<title>supriya.ugens.InfoUGenBase.InfoUGenBase&#45;&gt;supriya.ugens.BufInfoUGenBase.BufInfoUGenBase</title>
<path fill="none" stroke="lightslategrey" d="M544.88,-154C552.96,-154 561.88,-154 570.45,-154"/>
<polygon fill="lightslategrey" stroke="lightslategrey" points="570.64,-157.5 580.64,-154 570.64,-150.5 570.64,-157.5"/>
</g>
<!-- builtins.object -->
<g id="node1" class="node">
<title>builtins.object</title>
<g id="a_node1"><a xlink:href="https://docs.python.org/3/library/functions.html#object" xlink:title="object" target="_top">
<path fill="#fbb4ae" stroke="#fbb4ae" stroke-width="2" d="M52.67,-163.5C52.67,-163.5 22.33,-163.5 22.33,-163.5 19.17,-163.5 16,-160.33 16,-157.17 16,-157.17 16,-150.83 16,-150.83 16,-147.67 19.17,-144.5 22.33,-144.5 22.33,-144.5 52.67,-144.5 52.67,-144.5 55.83,-144.5 59,-147.67 59,-150.83 59,-150.83 59,-157.17 59,-157.17 59,-160.33 55.83,-163.5 52.67,-163.5"/>
<text text-anchor="middle" x="37.5" y="-151.5" font-family="Arial" font-size="10.00">object</text>
</a>
</g>
</g>
<!-- supriya.synthdefs.bases.UGen -->
<g id="node2" class="node">
<title>supriya.synthdefs.bases.UGen</title>
<g id="a_node2"><a xlink:href="../api/supriya/ugens/../synthdefs/bases.html#supriya.synthdefs.bases.UGen" xlink:title="UGen" target="_top">
<ellipse fill="none" stroke="#b3cde3" stroke-width="2" cx="395.7" cy="-154" rx="29.9" ry="13.37"/>
<text text-anchor="middle" x="395.7" y="-151.5" font-family="Arial" font-size="10.00">UGen</text>
</a>
</g>
</g>
<!-- supriya.synthdefs.mixins.UGenMethodMixin -->
<g id="node3" class="node">
<title>supriya.synthdefs.mixins.UGenMethodMixin</title>
<g id="a_node3"><a xlink:href="../api/supriya/ugens/../synthdefs/mixins.html#supriya.synthdefs.mixins.UGenMethodMixin" xlink:title="UGen\nMethod\nMixin" target="_top">
<path fill="#ccebc5" stroke="#ccebc5" stroke-width="2" d="M265,-174.5C265,-174.5 240,-174.5 240,-174.5 234,-174.5 228,-168.5 228,-162.5 228,-162.5 228,-145.5 228,-145.5 228,-139.5 234,-133.5 240,-133.5 240,-133.5 265,-133.5 265,-133.5 271,-133.5 277,-139.5 277,-145.5 277,-145.5 277,-162.5 277,-162.5 277,-168.5 271,-174.5 265,-174.5"/>
<text text-anchor="middle" x="252.5" y="-162.5" font-family="Arial" font-size="10.00">UGen</text>
<text text-anchor="middle" x="252.5" y="-151.5" font-family="Arial" font-size="10.00">Method</text>
<text text-anchor="middle" x="252.5" y="-140.5" font-family="Arial" font-size="10.00">Mixin</text>
</a>
</g>
</g>
<!-- supriya.system.SupriyaObject -->
<g id="node4" class="node">
<title>supriya.system.SupriyaObject</title>
<g id="a_node4"><a xlink:href="../api/supriya/ugens/../system.html#supriya.system.SupriyaObject" xlink:title="Supriya\nObject" target="_top">
<path fill="#decbe4" stroke="#decbe4" stroke-width="2" d="M143,-169C143,-169 113,-169 113,-169 108,-169 103,-164 103,-159 103,-159 103,-149 103,-149 103,-144 108,-139 113,-139 113,-139 143,-139 143,-139 148,-139 153,-144 153,-149 153,-149 153,-159 153,-159 153,-164 148,-169 143,-169"/>
<text text-anchor="middle" x="128" y="-157" font-family="Arial" font-size="10.00">Supriya</text>
<text text-anchor="middle" x="128" y="-146" font-family="Arial" font-size="10.00">Object</text>
</a>
</g>
</g>
<!-- supriya.ugens.BufChannels.BufChannels -->
<g id="node5" class="node">
<title>supriya.ugens.BufChannels.BufChannels</title>
<g id="a_node5"><a xlink:href="../api/supriya/ugens/BufChannels.html#supriya.ugens.BufChannels.BufChannels" xlink:title="Buf\nChannels" target="_top">
<path fill="#fed9a6" stroke="#fed9a6" stroke-width="2" d="M724.19,-46C724.19,-46 686.19,-46 686.19,-46 681.19,-46 676.19,-41 676.19,-36 676.19,-36 676.19,-26 676.19,-26 676.19,-21 681.19,-16 686.19,-16 686.19,-16 724.19,-16 724.19,-16 729.19,-16 734.19,-21 734.19,-26 734.19,-26 734.19,-36 734.19,-36 734.19,-41 729.19,-46 724.19,-46"/>
<text text-anchor="middle" x="705.19" y="-34" font-family="Arial" font-size="10.00">Buf</text>
<text text-anchor="middle" x="705.19" y="-23" font-family="Arial" font-size="10.00">Channels</text>
</a>
</g>
</g>
<!-- supriya.ugens.BufDur.BufDur -->
<g id="node6" class="node">
<title>supriya.ugens.BufDur.BufDur</title>
<g id="a_node6"><a xlink:href="../api/supriya/ugens/BufDur.html#supriya.ugens.BufDur.BufDur" xlink:title="Buf\nDur" target="_top">
<path fill="#fed9a6" stroke="#fed9a6" stroke-width="2" d="M711.19,-94C711.19,-94 699.19,-94 699.19,-94 694.19,-94 689.19,-89 689.19,-84 689.19,-84 689.19,-74 689.19,-74 689.19,-69 694.19,-64 699.19,-64 699.19,-64 711.19,-64 711.19,-64 716.19,-64 721.19,-69 721.19,-74 721.19,-74 721.19,-84 721.19,-84 721.19,-89 716.19,-94 711.19,-94"/>
<text text-anchor="middle" x="705.19" y="-82" font-family="Arial" font-size="10.00">Buf</text>
<text text-anchor="middle" x="705.19" y="-71" font-family="Arial" font-size="10.00">Dur</text>
</a>
</g>
</g>
<!-- supriya.ugens.BufFrames.BufFrames -->
<g id="node7" class="node">
<title>supriya.ugens.BufFrames.BufFrames</title>
<g id="a_node7"><a xlink:href="../api/supriya/ugens/BufFrames.html#supriya.ugens.BufFrames.BufFrames" xlink:title="Buf\nFrames" target="_top">
<path fill="#fed9a6" stroke="#fed9a6" stroke-width="2" d="M720.19,-142C720.19,-142 690.19,-142 690.19,-142 685.19,-142 680.19,-137 680.19,-132 680.19,-132 680.19,-122 680.19,-122 680.19,-117 685.19,-112 690.19,-112 690.19,-112 720.19,-112 720.19,-112 725.19,-112 730.19,-117 730.19,-122 730.19,-122 730.19,-132 730.19,-132 730.19,-137 725.19,-142 720.19,-142"/>
<text text-anchor="middle" x="705.19" y="-130" font-family="Arial" font-size="10.00">Buf</text>
<text text-anchor="middle" x="705.19" y="-119" font-family="Arial" font-size="10.00">Frames</text>
</a>
</g>
</g>
<!-- supriya.ugens.BufInfoUGenBase.BufInfoUGenBase -->
<g id="node8" class="node">
<title>supriya.ugens.BufInfoUGenBase.BufInfoUGenBase</title>
<g id="a_node8"><a xlink:href="../api/supriya/ugens/BufInfoUGenBase.html#supriya.ugens.BufInfoUGenBase.BufInfoUGenBase" xlink:title="Buf\nInfo\nUGen\nBase" target="_top">
<ellipse fill="black" stroke="black" stroke-width="2" cx="610.49" cy="-154" rx="29.9" ry="36.54"/>
<text text-anchor="middle" x="610.49" y="-168" font-family="Arial" font-size="10.00" fill="white">Buf</text>
<text text-anchor="middle" x="610.49" y="-157" font-family="Arial" font-size="10.00" fill="white">Info</text>
<text text-anchor="middle" x="610.49" y="-146" font-family="Arial" font-size="10.00" fill="white">UGen</text>
<text text-anchor="middle" x="610.49" y="-135" font-family="Arial" font-size="10.00" fill="white">Base</text>
</a>
</g>
</g>
<!-- supriya.ugens.BufRateScale.BufRateScale -->
<g id="node9" class="node">
<title>supriya.ugens.BufRateScale.BufRateScale</title>
<g id="a_node9"><a xlink:href="../api/supriya/ugens/BufRateScale.html#supriya.ugens.BufRateScale.BufRateScale" xlink:title="Buf\nRate\nScale" target="_top">
<path fill="#fed9a6" stroke="#fed9a6" stroke-width="2" d="M713.69,-201.5C713.69,-201.5 696.69,-201.5 696.69,-201.5 690.69,-201.5 684.69,-195.5 684.69,-189.5 684.69,-189.5 684.69,-172.5 684.69,-172.5 684.69,-166.5 690.69,-160.5 696.69,-160.5 696.69,-160.5 713.69,-160.5 713.69,-160.5 719.69,-160.5 725.69,-166.5 725.69,-172.5 725.69,-172.5 725.69,-189.5 725.69,-189.5 725.69,-195.5 719.69,-201.5 713.69,-201.5"/>
<text text-anchor="middle" x="705.19" y="-189.5" font-family="Arial" font-size="10.00">Buf</text>
<text text-anchor="middle" x="705.19" y="-178.5" font-family="Arial" font-size="10.00">Rate</text>
<text text-anchor="middle" x="705.19" y="-167.5" font-family="Arial" font-size="10.00">Scale</text>
</a>
</g>
</g>
<!-- supriya.ugens.BufSampleRate.BufSampleRate -->
<g id="node10" class="node">
<title>supriya.ugens.BufSampleRate.BufSampleRate</title>
<g id="a_node10"><a xlink:href="../api/supriya/ugens/BufSampleRate.html#supriya.ugens.BufSampleRate.BufSampleRate" xlink:title="Buf\nSample\nRate" target="_top">
<path fill="#fed9a6" stroke="#fed9a6" stroke-width="2" d="M718.19,-260.5C718.19,-260.5 692.19,-260.5 692.19,-260.5 686.19,-260.5 680.19,-254.5 680.19,-248.5 680.19,-248.5 680.19,-231.5 680.19,-231.5 680.19,-225.5 686.19,-219.5 692.19,-219.5 692.19,-219.5 718.19,-219.5 718.19,-219.5 724.19,-219.5 730.19,-225.5 730.19,-231.5 730.19,-231.5 730.19,-248.5 730.19,-248.5 730.19,-254.5 724.19,-260.5 718.19,-260.5"/>
<text text-anchor="middle" x="705.19" y="-248.5" font-family="Arial" font-size="10.00">Buf</text>
<text text-anchor="middle" x="705.19" y="-237.5" font-family="Arial" font-size="10.00">Sample</text>
<text text-anchor="middle" x="705.19" y="-226.5" font-family="Arial" font-size="10.00">Rate</text>
</a>
</g>
</g>
<!-- supriya.ugens.BufSamples.BufSamples -->
<g id="node11" class="node">
<title>supriya.ugens.BufSamples.BufSamples</title>
<g id="a_node11"><a xlink:href="../api/supriya/ugens/BufSamples.html#supriya.ugens.BufSamples.BufSamples" xlink:title="Buf\nSamples" target="_top">
<path fill="#fed9a6" stroke="#fed9a6" stroke-width="2" d="M722.69,-309C722.69,-309 687.69,-309 687.69,-309 682.69,-309 677.69,-304 677.69,-299 677.69,-299 677.69,-289 677.69,-289 677.69,-284 682.69,-279 687.69,-279 687.69,-279 722.69,-279 722.69,-279 727.69,-279 732.69,-284 732.69,-289 732.69,-289 732.69,-299 732.69,-299 732.69,-304 727.69,-309 722.69,-309"/>
<text text-anchor="middle" x="705.19" y="-297" font-family="Arial" font-size="10.00">Buf</text>
<text text-anchor="middle" x="705.19" y="-286" font-family="Arial" font-size="10.00">Samples</text>
</a>
</g>
</g>
<!-- supriya.ugens.InfoUGenBase.InfoUGenBase -->
<g id="node12" class="node">
<title>supriya.ugens.InfoUGenBase.InfoUGenBase</title>
<g id="a_node12"><a xlink:href="../api/supriya/ugens/InfoUGenBase.html#supriya.ugens.InfoUGenBase.InfoUGenBase" xlink:title="Info\nUGen\nBase" target="_top">
<ellipse fill="none" stroke="#fed9a6" stroke-width="2" cx="515.1" cy="-154" rx="29.9" ry="28.98"/>
<text text-anchor="middle" x="515.1" y="-162.5" font-family="Arial" font-size="10.00">Info</text>
<text text-anchor="middle" x="515.1" y="-151.5" font-family="Arial" font-size="10.00">UGen</text>
<text text-anchor="middle" x="515.1" y="-140.5" font-family="Arial" font-size="10.00">Base</text>
</a>
</g>
</g>
</g>
</svg>
