<?xml version="1.0" encoding="UTF-8" standalone="no"?>
<!DOCTYPE svg PUBLIC "-//W3C//DTD SVG 1.1//EN"
 "http://www.w3.org/Graphics/SVG/1.1/DTD/svg11.dtd">
<!-- Generated by graphviz version 2.40.1 (20161225.0304)
 -->
<!-- Title: InheritanceGraph Pages: 1 -->
<svg width="809pt" height="317pt"
 viewBox="0.00 0.00 808.97 317.00" xmlns="http://www.w3.org/2000/svg" xmlns:xlink="http://www.w3.org/1999/xlink">
<g id="graph0" class="graph" transform="scale(1 1) rotate(0) translate(4 313)">
<title>InheritanceGraph</title>
<g id="clust1" class="cluster">
<title>cluster_collections.abc</title>
<path fill="transparent" stroke="#bcd2ee" stroke-width="2" stroke-dasharray="5,2" d="M130,-150C130,-150 410.3747,-150 410.3747,-150 416.3747,-150 422.3747,-156 422.3747,-162 422.3747,-162 422.3747,-289 422.3747,-289 422.3747,-295 416.3747,-301 410.3747,-301 410.3747,-301 130,-301 130,-301 124,-301 118,-295 118,-289 118,-289 118,-162 118,-162 118,-156 124,-150 130,-150"/>
<text text-anchor="middle" x="270.1873" y="-289" font-family="Arial" font-size="10.00" fill="#000000">collections.abc</text>
</g>
<g id="clust2" class="cluster">
<title>cluster_builtins</title>
<path fill="transparent" stroke="#bcd2ee" stroke-width="2" stroke-dasharray="5,2" d="M20,-153C20,-153 49,-153 49,-153 55,-153 61,-159 61,-165 61,-165 61,-196 61,-196 61,-202 55,-208 49,-208 49,-208 20,-208 20,-208 14,-208 8,-202 8,-196 8,-196 8,-165 8,-165 8,-159 14,-153 20,-153"/>
<text text-anchor="middle" x="34.5" y="-196" font-family="Arial" font-size="10.00" fill="#000000">builtins</text>
</g>
<g id="clust3" class="cluster">
<title>cluster_supriya.cli</title>
<path fill="transparent" stroke="#bcd2ee" stroke-width="2" stroke-dasharray="5,2" d="M468.5168,-8C468.5168,-8 780.9676,-8 780.9676,-8 786.9676,-8 792.9676,-14 792.9676,-20 792.9676,-20 792.9676,-239 792.9676,-239 792.9676,-245 786.9676,-251 780.9676,-251 780.9676,-251 468.5168,-251 468.5168,-251 462.5168,-251 456.5168,-245 456.5168,-239 456.5168,-239 456.5168,-20 456.5168,-20 456.5168,-14 462.5168,-8 468.5168,-8"/>
<text text-anchor="middle" x="624.7422" y="-239" font-family="Arial" font-size="10.00" fill="#000000">supriya.cli</text>
</g>
<g id="clust4" class="cluster">
<title>cluster_uqbar.cli</title>
<path fill="transparent" stroke="#bcd2ee" stroke-width="2" stroke-dasharray="5,2" d="M250.1457,-30C250.1457,-30 424.5168,-30 424.5168,-30 430.5168,-30 436.5168,-36 436.5168,-42 436.5168,-42 436.5168,-79 436.5168,-79 436.5168,-85 430.5168,-91 424.5168,-91 424.5168,-91 250.1457,-91 250.1457,-91 244.1457,-91 238.1457,-85 238.1457,-79 238.1457,-79 238.1457,-42 238.1457,-42 238.1457,-36 244.1457,-30 250.1457,-30"/>
<text text-anchor="middle" x="337.3313" y="-79" font-family="Arial" font-size="10.00" fill="#000000">uqbar.cli</text>
</g>
<g id="clust5" class="cluster">
<title>cluster_abc</title>
<path fill="transparent" stroke="#bcd2ee" stroke-width="2" stroke-dasharray="5,2" d="M148.6482,-43C148.6482,-43 172.6482,-43 172.6482,-43 178.6482,-43 184.6482,-49 184.6482,-55 184.6482,-55 184.6482,-86 184.6482,-86 184.6482,-92 178.6482,-98 172.6482,-98 172.6482,-98 148.6482,-98 148.6482,-98 142.6482,-98 136.6482,-92 136.6482,-86 136.6482,-86 136.6482,-55 136.6482,-55 136.6482,-49 142.6482,-43 148.6482,-43"/>
<text text-anchor="middle" x="160.6482" y="-86" font-family="Arial" font-size="10.00" fill="#000000">abc</text>
</g>
<!-- collections.abc.Collection&#45;&gt;collections.abc.Mapping -->
<g id="edge1" class="edge">
<title>collections.abc.Collection&#45;&gt;collections.abc.Mapping</title>
<path fill="none" stroke="#778899" d="M300.6159,-211.7027C313.1178,-211.5955 327.3648,-211.4733 340.4337,-211.3612"/>
<polygon fill="#778899" stroke="#778899" points="340.6367,-214.8597 350.6063,-211.274 340.5766,-207.86 340.6367,-214.8597"/>
</g>
<!-- collections.abc.Mapping&#45;&gt;supriya.cli.ProjectSettings.ProjectSettings -->
<g id="edge18" class="edge">
<title>collections.abc.Mapping&#45;&gt;supriya.cli.ProjectSettings.ProjectSettings</title>
<path fill="none" stroke="#778899" d="M414.4464,-210.4429C430.0365,-210.1705 448.7704,-209.8433 464.4529,-209.5693"/>
<polygon fill="#778899" stroke="#778899" points="464.8089,-213.0637 474.7463,-209.3895 464.6866,-206.0648 464.8089,-213.0637"/>
</g>
<!-- collections.abc.Container&#45;&gt;collections.abc.Collection -->
<g id="edge2" class="edge">
<title>collections.abc.Container&#45;&gt;collections.abc.Collection</title>
<path fill="none" stroke="#778899" d="M182.9789,-250.6084C197.9164,-243.6572 217.7932,-234.4074 234.3464,-226.7043"/>
<polygon fill="#778899" stroke="#778899" points="236.0565,-229.769 243.6462,-222.3767 233.1031,-223.4225 236.0565,-229.769"/>
</g>
<!-- collections.abc.Iterable&#45;&gt;collections.abc.Collection -->
<g id="edge3" class="edge">
<title>collections.abc.Iterable&#45;&gt;collections.abc.Collection</title>
<path fill="none" stroke="#778899" d="M190.2594,-214.8751C199.8398,-214.5112 210.688,-214.0991 221.1174,-213.7029"/>
<polygon fill="#778899" stroke="#778899" points="221.4849,-217.1916 231.3448,-213.3144 221.2191,-210.1966 221.4849,-217.1916"/>
</g>
<!-- collections.abc.Sized&#45;&gt;collections.abc.Collection -->
<g id="edge4" class="edge">
<title>collections.abc.Sized&#45;&gt;collections.abc.Collection</title>
<path fill="none" stroke="#778899" d="M180.9504,-178.9052C195.3381,-184.5074 214.9875,-192.1585 231.7693,-198.6929"/>
<polygon fill="#778899" stroke="#778899" points="230.6689,-202.0203 241.2574,-202.3873 233.2088,-195.4974 230.6689,-202.0203"/>
</g>
<!-- builtins.object&#45;&gt;collections.abc.Container -->
<g id="edge14" class="edge">
<title>builtins.object&#45;&gt;collections.abc.Container</title>
<path fill="none" stroke="#778899" d="M45.0921,-180.5489C60.495,-194.1851 90.27,-219.6177 118,-238 121.8104,-240.5259 125.9249,-243.0159 130.0426,-245.3713"/>
<polygon fill="#778899" stroke="#778899" points="128.4977,-248.5161 138.9456,-250.2746 131.8747,-242.3846 128.4977,-248.5161"/>
</g>
<!-- builtins.object&#45;&gt;collections.abc.Iterable -->
<g id="edge15" class="edge">
<title>builtins.object&#45;&gt;collections.abc.Iterable</title>
<path fill="none" stroke="#778899" d="M53.1136,-177.6399C72.6634,-184.6138 103.8076,-195.7236 127.559,-204.1963"/>
<polygon fill="#778899" stroke="#778899" points="126.6355,-207.5829 137.2302,-207.6462 128.9875,-200.9898 126.6355,-207.5829"/>
</g>
<!-- builtins.object&#45;&gt;collections.abc.Sized -->
<g id="edge16" class="edge">
<title>builtins.object&#45;&gt;collections.abc.Sized</title>
<path fill="none" stroke="#778899" d="M53.1136,-171C72.1322,-171 102.1239,-171 125.6071,-171"/>
<polygon fill="#778899" stroke="#778899" points="125.8759,-174.5001 135.8759,-171 125.8759,-167.5001 125.8759,-174.5001"/>
</g>
<!-- builtins.object&#45;&gt;supriya.cli.ProjectManager.ProjectManager -->
<g id="edge17" class="edge">
<title>builtins.object&#45;&gt;supriya.cli.ProjectManager.ProjectManager</title>
<path fill="none" stroke="#778899" d="M51.884,-161.4907C75.6922,-149.3789 120.1182,-130 160.6482,-130 160.6482,-130 160.6482,-130 265.9447,-130 336.7425,-130 419.0364,-141.7407 463.8213,-149.1305"/>
<polygon fill="#778899" stroke="#778899" points="463.4019,-152.609 473.8438,-150.8156 464.5626,-145.7059 463.4019,-152.609"/>
</g>
<!-- builtins.object&#45;&gt;abc.ABC -->
<g id="edge13" class="edge">
<title>builtins.object&#45;&gt;abc.ABC</title>
<path fill="none" stroke="#778899" d="M43.386,-161.2638C53.8801,-149.9514 72.0564,-130.9307 89,-116 104.9786,-101.9197 124.1686,-87.2994 138.6655,-76.675"/>
<polygon fill="#778899" stroke="#778899" points="140.9765,-79.3224 147.0147,-70.6167 136.8654,-73.6568 140.9765,-79.3224"/>
</g>
<!-- supriya.cli.ProjectPackageScript.ProjectPackageScript&#45;&gt;supriya.cli.ManageAssetScript.ManageAssetScript -->
<g id="edge5" class="edge">
<title>supriya.cli.ProjectPackageScript.ProjectPackageScript&#45;&gt;supriya.cli.ManageAssetScript.ManageAssetScript</title>
<path fill="none" stroke="#778899" d="M524.6664,-77.2519C536.9948,-70.2232 551.5736,-61.9116 564.2729,-54.6715"/>
<polygon fill="#778899" stroke="#778899" points="566.175,-57.616 573.1288,-49.6226 562.708,-51.5349 566.175,-57.616"/>
</g>
<!-- supriya.cli.ProjectPackageScript.ProjectPackageScript&#45;&gt;supriya.cli.ManageProjectScript.ManageProjectScript -->
<g id="edge6" class="edge">
<title>supriya.cli.ProjectPackageScript.ProjectPackageScript&#45;&gt;supriya.cli.ManageProjectScript.ManageProjectScript</title>
<path fill="none" stroke="#778899" d="M529.4611,-90.1458C540.8743,-89.1452 553.7914,-88.0174 565.5706,-87 594.3772,-84.512 627.1637,-81.7228 650.7528,-79.7235"/>
<polygon fill="#778899" stroke="#778899" points="651.2275,-83.1959 660.8964,-78.8644 650.6367,-76.2209 651.2275,-83.1959"/>
</g>
<!-- supriya.cli.ProjectPackageScript.ProjectPackageScript&#45;&gt;supriya.cli.ManageSynthDefScript.ManageSynthDefScript -->
<g id="edge7" class="edge">
<title>supriya.cli.ProjectPackageScript.ProjectPackageScript&#45;&gt;supriya.cli.ManageSynthDefScript.ManageSynthDefScript</title>
<path fill="none" stroke="#778899" d="M528.1229,-102.1758C539.3112,-105.479 551.9495,-109.2103 563.219,-112.5375"/>
<polygon fill="#778899" stroke="#778899" points="562.5211,-115.9808 573.1029,-115.4557 564.5033,-109.2673 562.5211,-115.9808"/>
</g>
<!-- supriya.cli.ProjectPackageScript.ProjectPackageScript&#45;&gt;supriya.cli.ProjectSectionScript.ProjectSectionScript -->
<g id="edge8" class="edge">
<title>supriya.cli.ProjectPackageScript.ProjectPackageScript&#45;&gt;supriya.cli.ProjectSectionScript.ProjectSectionScript</title>
<path fill="none" stroke="#778899" d="M518.3572,-115.1325C532.7099,-130.0368 551.7857,-149.8456 567.3486,-166.0066"/>
<polygon fill="#778899" stroke="#778899" points="565.2127,-168.8344 574.6704,-173.6097 570.2549,-163.9788 565.2127,-168.8344"/>
</g>
<!-- supriya.cli.ProjectSectionScript.ProjectSectionScript&#45;&gt;supriya.cli.ManageMaterialScript.ManageMaterialScript -->
<g id="edge9" class="edge">
<title>supriya.cli.ProjectSectionScript.ProjectSectionScript&#45;&gt;supriya.cli.ManageMaterialScript.ManageMaterialScript</title>
<path fill="none" stroke="#778899" d="M624.9598,-196.3542C633.2055,-196.7303 642.1994,-197.1405 650.5905,-197.5233"/>
<polygon fill="#778899" stroke="#778899" points="650.646,-201.0293 660.7951,-197.9887 650.965,-194.0366 650.646,-201.0293"/>
</g>
<!-- supriya.cli.ProjectSectionScript.ProjectSectionScript&#45;&gt;supriya.cli.ManageSessionScript.ManageSessionScript -->
<g id="edge10" class="edge">
<title>supriya.cli.ProjectSectionScript.ProjectSectionScript&#45;&gt;supriya.cli.ManageSessionScript.ManageSessionScript</title>
<path fill="none" stroke="#778899" d="M622.5837,-182.8077C634.2021,-178.097 648.0326,-173.104 660.9676,-170 683.8697,-164.5042 710.3271,-161.751 730.5563,-160.3735"/>
<polygon fill="#778899" stroke="#778899" points="731.0316,-163.8513 740.803,-159.7562 730.6106,-156.864 731.0316,-163.8513"/>
</g>
<!-- uqbar.cli.CLI.CLI&#45;&gt;supriya.cli.ProjectPackageScript.ProjectPackageScript -->
<g id="edge19" class="edge">
<title>uqbar.cli.CLI.CLI&#45;&gt;supriya.cli.ProjectPackageScript.ProjectPackageScript</title>
<path fill="none" stroke="#778899" d="M283.423,-57.3982C297.5806,-62.3474 318.1355,-69.009 336.5929,-73 376.0821,-81.5385 421.8834,-86.7977 454.418,-89.7661"/>
<polygon fill="#778899" stroke="#778899" points="454.2223,-93.2623 464.4902,-90.6506 454.8348,-86.2891 454.2223,-93.2623"/>
</g>
<!-- uqbar.cli.CLI.CLI&#45;&gt;uqbar.cli.CLIAggregator.CLIAggregator -->
<g id="edge11" class="edge">
<title>uqbar.cli.CLI.CLI&#45;&gt;uqbar.cli.CLIAggregator.CLIAggregator</title>
<path fill="none" stroke="#778899" d="M285.9907,-51C297.0995,-51 311.5258,-51 325.8256,-51"/>
<polygon fill="#778899" stroke="#778899" points="326.1665,-54.5001 336.1664,-51 326.1664,-47.5001 326.1665,-54.5001"/>
</g>
<!-- uqbar.cli.CLIAggregator.CLIAggregator&#45;&gt;supriya.cli.SupriyaScript.SupriyaScript -->
<g id="edge20" class="edge">
<title>uqbar.cli.CLIAggregator.CLIAggregator&#45;&gt;supriya.cli.SupriyaScript.SupriyaScript</title>
<path fill="none" stroke="#778899" d="M422.2762,-44.0611C436.5453,-41.5684 452.4219,-38.795 465.8618,-36.4472"/>
<polygon fill="#778899" stroke="#778899" points="466.792,-39.8377 476.0405,-34.669 465.5874,-32.9422 466.792,-39.8377"/>
</g>
<!-- abc.ABC&#45;&gt;uqbar.cli.CLI.CLI -->
<g id="edge12" class="edge">
<title>abc.ABC&#45;&gt;uqbar.cli.CLI.CLI</title>
<path fill="none" stroke="#778899" d="M177.1008,-59.4375C192.8155,-57.9451 216.869,-55.6607 235.9867,-53.8451"/>
<polygon fill="#778899" stroke="#778899" points="236.3912,-57.3225 246.0154,-52.8927 235.7293,-50.3539 236.3912,-57.3225"/>
</g>
<!-- collections.abc.Collection -->
<g id="node1" class="node">
<title>collections.abc.Collection</title>
<g id="a_node1"><a xlink:href="https://docs.python.org/3.6/library/collections.abc.html#collections.abc.Collection" xlink:title="Collection" target="_top">
<ellipse fill="none" stroke="#ccebc5" stroke-width="2" cx="265.9447" cy="-212" rx="34.7971" ry="13.3704"/>
<text text-anchor="middle" x="265.9447" y="-209.5" font-family="Arial" font-size="10.00" fill="#000000">Collection</text>
</a>
</g>
</g>
<!-- collections.abc.Mapping -->
<g id="node2" class="node">
<title>collections.abc.Mapping</title>
<g id="a_node2"><a xlink:href="https://docs.python.org/3.6/library/collections.abc.html#collections.abc.Mapping" xlink:title="Mapping" target="_top">
<ellipse fill="none" stroke="#ccebc5" stroke-width="2" cx="382.5549" cy="-211" rx="31.6406" ry="13.3704"/>
<text text-anchor="middle" x="382.5549" y="-208.5" font-family="Arial" font-size="10.00" fill="#000000">Mapping</text>
</a>
</g>
</g>
<!-- collections.abc.Container -->
<g id="node3" class="node">
<title>collections.abc.Container</title>
<g id="a_node3"><a xlink:href="https://docs.python.org/3.6/library/collections.abc.html#collections.abc.Container" xlink:title="Container" target="_top">
<ellipse fill="none" stroke="#ccebc5" stroke-width="2" cx="160.6482" cy="-261" rx="34.7971" ry="13.3704"/>
<text text-anchor="middle" x="160.6482" y="-258.5" font-family="Arial" font-size="10.00" fill="#000000">Container</text>
</a>
</g>
</g>
<!-- collections.abc.Iterable -->
<g id="node4" class="node">
<title>collections.abc.Iterable</title>
<g id="a_node4"><a xlink:href="https://docs.python.org/3.6/library/collections.abc.html#collections.abc.Iterable" xlink:title="Iterable" target="_top">
<ellipse fill="none" stroke="#ccebc5" stroke-width="2" cx="160.6482" cy="-216" rx="29.8983" ry="13.3704"/>
<text text-anchor="middle" x="160.6482" y="-213.5" font-family="Arial" font-size="10.00" fill="#000000">Iterable</text>
</a>
</g>
</g>
<!-- collections.abc.Sized -->
<g id="node5" class="node">
<title>collections.abc.Sized</title>
<g id="a_node5"><a xlink:href="https://docs.python.org/3.6/library/collections.abc.html#collections.abc.Sized" xlink:title="Sized" target="_top">
<ellipse fill="none" stroke="#ccebc5" stroke-width="2" cx="160.6482" cy="-171" rx="25" ry="13.3704"/>
<text text-anchor="middle" x="160.6482" y="-168.5" font-family="Arial" font-size="10.00" fill="#000000">Sized</text>
</a>
</g>
</g>
<!-- builtins.object -->
<g id="node6" class="node">
<title>builtins.object</title>
<g id="a_node6"><a xlink:href="https://docs.python.org/3.6/library/functions.html#object" xlink:title="object" target="_top">
<path fill="#b3cde3" stroke="#b3cde3" stroke-width="2" d="M46.6667,-180.5C46.6667,-180.5 22.3333,-180.5 22.3333,-180.5 19.1667,-180.5 16,-177.3333 16,-174.1667 16,-174.1667 16,-167.8333 16,-167.8333 16,-164.6667 19.1667,-161.5 22.3333,-161.5 22.3333,-161.5 46.6667,-161.5 46.6667,-161.5 49.8333,-161.5 53,-164.6667 53,-167.8333 53,-167.8333 53,-174.1667 53,-174.1667 53,-177.3333 49.8333,-180.5 46.6667,-180.5"/>
<text text-anchor="middle" x="34.5" y="-168.5" font-family="Arial" font-size="10.00" fill="#000000">object</text>
</a>
</g>
</g>
<!-- supriya.cli.ManageAssetScript.ManageAssetScript -->
<g id="node7" class="node">
<title>supriya.cli.ManageAssetScript.ManageAssetScript</title>
<g id="a_node7"><a xlink:href="../api/supriya/cli/ManageAssetScript.html#supriya.cli.ManageAssetScript.ManageAssetScript" xlink:title="Manage\nAsset\nScript" target="_top">
<path fill="#000000" stroke="#000000" stroke-width="2" d="M605.2691,-57.5C605.2691,-57.5 585.2691,-57.5 585.2691,-57.5 579.2691,-57.5 573.2691,-51.5 573.2691,-45.5 573.2691,-45.5 573.2691,-28.5 573.2691,-28.5 573.2691,-22.5 579.2691,-16.5 585.2691,-16.5 585.2691,-16.5 605.2691,-16.5 605.2691,-16.5 611.2691,-16.5 617.2691,-22.5 617.2691,-28.5 617.2691,-28.5 617.2691,-45.5 617.2691,-45.5 617.2691,-51.5 611.2691,-57.5 605.2691,-57.5"/>
<text text-anchor="middle" x="595.2691" y="-45.5" font-family="Arial" font-size="10.00" fill="#ffffff">Manage</text>
<text text-anchor="middle" x="595.2691" y="-34.5" font-family="Arial" font-size="10.00" fill="#ffffff">Asset</text>
<text text-anchor="middle" x="595.2691" y="-23.5" font-family="Arial" font-size="10.00" fill="#ffffff">Script</text>
</a>
</g>
</g>
<!-- supriya.cli.ManageMaterialScript.ManageMaterialScript -->
<g id="node8" class="node">
<title>supriya.cli.ManageMaterialScript.ManageMaterialScript</title>
<g id="a_node8"><a xlink:href="../api/supriya/cli/ManageMaterialScript.html#supriya.cli.ManageMaterialScript.ManageMaterialScript" xlink:title="Manage\nMaterial\nScript" target="_top">
<path fill="#000000" stroke="#000000" stroke-width="2" d="M692.9676,-219.5C692.9676,-219.5 672.9676,-219.5 672.9676,-219.5 666.9676,-219.5 660.9676,-213.5 660.9676,-207.5 660.9676,-207.5 660.9676,-190.5 660.9676,-190.5 660.9676,-184.5 666.9676,-178.5 672.9676,-178.5 672.9676,-178.5 692.9676,-178.5 692.9676,-178.5 698.9676,-178.5 704.9676,-184.5 704.9676,-190.5 704.9676,-190.5 704.9676,-207.5 704.9676,-207.5 704.9676,-213.5 698.9676,-219.5 692.9676,-219.5"/>
<text text-anchor="middle" x="682.9676" y="-207.5" font-family="Arial" font-size="10.00" fill="#ffffff">Manage</text>
<text text-anchor="middle" x="682.9676" y="-196.5" font-family="Arial" font-size="10.00" fill="#ffffff">Material</text>
<text text-anchor="middle" x="682.9676" y="-185.5" font-family="Arial" font-size="10.00" fill="#ffffff">Script</text>
</a>
</g>
</g>
<!-- supriya.cli.ManageProjectScript.ManageProjectScript -->
<g id="node9" class="node">
<title>supriya.cli.ManageProjectScript.ManageProjectScript</title>
<g id="a_node9"><a xlink:href="../api/supriya/cli/ManageProjectScript.html#supriya.cli.ManageProjectScript.ManageProjectScript" xlink:title="Manage\nProject\nScript" target="_top">
<path fill="#000000" stroke="#000000" stroke-width="2" d="M692.9676,-97.5C692.9676,-97.5 672.9676,-97.5 672.9676,-97.5 666.9676,-97.5 660.9676,-91.5 660.9676,-85.5 660.9676,-85.5 660.9676,-68.5 660.9676,-68.5 660.9676,-62.5 666.9676,-56.5 672.9676,-56.5 672.9676,-56.5 692.9676,-56.5 692.9676,-56.5 698.9676,-56.5 704.9676,-62.5 704.9676,-68.5 704.9676,-68.5 704.9676,-85.5 704.9676,-85.5 704.9676,-91.5 698.9676,-97.5 692.9676,-97.5"/>
<text text-anchor="middle" x="682.9676" y="-85.5" font-family="Arial" font-size="10.00" fill="#ffffff">Manage</text>
<text text-anchor="middle" x="682.9676" y="-74.5" font-family="Arial" font-size="10.00" fill="#ffffff">Project</text>
<text text-anchor="middle" x="682.9676" y="-63.5" font-family="Arial" font-size="10.00" fill="#ffffff">Script</text>
</a>
</g>
</g>
<!-- supriya.cli.ManageSessionScript.ManageSessionScript -->
<g id="node10" class="node">
<title>supriya.cli.ManageSessionScript.ManageSessionScript</title>
<g id="a_node10"><a xlink:href="../api/supriya/cli/ManageSessionScript.html#supriya.cli.ManageSessionScript.ManageSessionScript" xlink:title="Manage\nSession\nScript" target="_top">
<path fill="#000000" stroke="#000000" stroke-width="2" d="M772.9676,-179.5C772.9676,-179.5 752.9676,-179.5 752.9676,-179.5 746.9676,-179.5 740.9676,-173.5 740.9676,-167.5 740.9676,-167.5 740.9676,-150.5 740.9676,-150.5 740.9676,-144.5 746.9676,-138.5 752.9676,-138.5 752.9676,-138.5 772.9676,-138.5 772.9676,-138.5 778.9676,-138.5 784.9676,-144.5 784.9676,-150.5 784.9676,-150.5 784.9676,-167.5 784.9676,-167.5 784.9676,-173.5 778.9676,-179.5 772.9676,-179.5"/>
<text text-anchor="middle" x="762.9676" y="-167.5" font-family="Arial" font-size="10.00" fill="#ffffff">Manage</text>
<text text-anchor="middle" x="762.9676" y="-156.5" font-family="Arial" font-size="10.00" fill="#ffffff">Session</text>
<text text-anchor="middle" x="762.9676" y="-145.5" font-family="Arial" font-size="10.00" fill="#ffffff">Script</text>
</a>
</g>
</g>
<!-- supriya.cli.ManageSynthDefScript.ManageSynthDefScript -->
<g id="node11" class="node">
<title>supriya.cli.ManageSynthDefScript.ManageSynthDefScript</title>
<g id="a_node11"><a xlink:href="../api/supriya/cli/ManageSynthDefScript.html#supriya.cli.ManageSynthDefScript.ManageSynthDefScript" xlink:title="Manage\nSynth\nDef\nScript" target="_top">
<path fill="#000000" stroke="#000000" stroke-width="2" d="M605.2691,-148C605.2691,-148 585.2691,-148 585.2691,-148 579.2691,-148 573.2691,-142 573.2691,-136 573.2691,-136 573.2691,-108 573.2691,-108 573.2691,-102 579.2691,-96 585.2691,-96 585.2691,-96 605.2691,-96 605.2691,-96 611.2691,-96 617.2691,-102 617.2691,-108 617.2691,-108 617.2691,-136 617.2691,-136 617.2691,-142 611.2691,-148 605.2691,-148"/>
<text text-anchor="middle" x="595.2691" y="-136" font-family="Arial" font-size="10.00" fill="#ffffff">Manage</text>
<text text-anchor="middle" x="595.2691" y="-125" font-family="Arial" font-size="10.00" fill="#ffffff">Synth</text>
<text text-anchor="middle" x="595.2691" y="-114" font-family="Arial" font-size="10.00" fill="#ffffff">Def</text>
<text text-anchor="middle" x="595.2691" y="-103" font-family="Arial" font-size="10.00" fill="#ffffff">Script</text>
</a>
</g>
</g>
<!-- supriya.cli.ProjectManager.ProjectManager -->
<g id="node12" class="node">
<title>supriya.cli.ProjectManager.ProjectManager</title>
<g id="a_node12"><a xlink:href="../api/supriya/cli/ProjectManager.html#supriya.cli.ProjectManager.ProjectManager" xlink:title="Project\nManager" target="_top">
<path fill="#000000" stroke="#000000" stroke-width="2" d="M510.0437,-170C510.0437,-170 484.0437,-170 484.0437,-170 479.0437,-170 474.0437,-165 474.0437,-160 474.0437,-160 474.0437,-150 474.0437,-150 474.0437,-145 479.0437,-140 484.0437,-140 484.0437,-140 510.0437,-140 510.0437,-140 515.0437,-140 520.0437,-145 520.0437,-150 520.0437,-150 520.0437,-160 520.0437,-160 520.0437,-165 515.0437,-170 510.0437,-170"/>
<text text-anchor="middle" x="497.0437" y="-158" font-family="Arial" font-size="10.00" fill="#ffffff">Project</text>
<text text-anchor="middle" x="497.0437" y="-147" font-family="Arial" font-size="10.00" fill="#ffffff">Manager</text>
</a>
</g>
</g>
<!-- supriya.cli.ProjectPackageScript.ProjectPackageScript -->
<g id="node13" class="node">
<title>supriya.cli.ProjectPackageScript.ProjectPackageScript</title>
<g id="a_node13"><a xlink:href="../api/supriya/cli/ProjectPackageScript.html#supriya.cli.ProjectPackageScript.ProjectPackageScript" xlink:title="Project\nPackage\nScript" target="_top">
<ellipse fill="#000000" stroke="#000000" stroke-width="2" cx="497.0437" cy="-93" rx="32.5538" ry="28.9828"/>
<text text-anchor="middle" x="497.0437" y="-101.5" font-family="Arial" font-size="10.00" fill="#ffffff">Project</text>
<text text-anchor="middle" x="497.0437" y="-90.5" font-family="Arial" font-size="10.00" fill="#ffffff">Package</text>
<text text-anchor="middle" x="497.0437" y="-79.5" font-family="Arial" font-size="10.00" fill="#ffffff">Script</text>
</a>
</g>
</g>
<!-- supriya.cli.ProjectSectionScript.ProjectSectionScript -->
<g id="node14" class="node">
<title>supriya.cli.ProjectSectionScript.ProjectSectionScript</title>
<g id="a_node14"><a xlink:href="../api/supriya/cli/ProjectSectionScript.html#supriya.cli.ProjectSectionScript.ProjectSectionScript" xlink:title="Project\nSection\nScript" target="_top">
<ellipse fill="#000000" stroke="#000000" stroke-width="2" cx="595.2691" cy="-195" rx="29.8983" ry="28.9828"/>
<text text-anchor="middle" x="595.2691" y="-203.5" font-family="Arial" font-size="10.00" fill="#ffffff">Project</text>
<text text-anchor="middle" x="595.2691" y="-192.5" font-family="Arial" font-size="10.00" fill="#ffffff">Section</text>
<text text-anchor="middle" x="595.2691" y="-181.5" font-family="Arial" font-size="10.00" fill="#ffffff">Script</text>
</a>
</g>
</g>
<!-- supriya.cli.ProjectSettings.ProjectSettings -->
<g id="node15" class="node">
<title>supriya.cli.ProjectSettings.ProjectSettings</title>
<g id="a_node15"><a xlink:href="../api/supriya/cli/ProjectSettings.html#supriya.cli.ProjectSettings.ProjectSettings" xlink:title="Project\nSettings" target="_top">
<path fill="#000000" stroke="#000000" stroke-width="2" d="M509.0437,-224C509.0437,-224 485.0437,-224 485.0437,-224 480.0437,-224 475.0437,-219 475.0437,-214 475.0437,-214 475.0437,-204 475.0437,-204 475.0437,-199 480.0437,-194 485.0437,-194 485.0437,-194 509.0437,-194 509.0437,-194 514.0437,-194 519.0437,-199 519.0437,-204 519.0437,-204 519.0437,-214 519.0437,-214 519.0437,-219 514.0437,-224 509.0437,-224"/>
<text text-anchor="middle" x="497.0437" y="-212" font-family="Arial" font-size="10.00" fill="#ffffff">Project</text>
<text text-anchor="middle" x="497.0437" y="-201" font-family="Arial" font-size="10.00" fill="#ffffff">Settings</text>
</a>
</g>
</g>
<!-- supriya.cli.SupriyaScript.SupriyaScript -->
<g id="node16" class="node">
<title>supriya.cli.SupriyaScript.SupriyaScript</title>
<g id="a_node16"><a xlink:href="../api/supriya/cli/SupriyaScript.html#supriya.cli.SupriyaScript.SupriyaScript" xlink:title="Supriya\nScript" target="_top">
<path fill="#000000" stroke="#000000" stroke-width="2" d="M508.0437,-46C508.0437,-46 486.0437,-46 486.0437,-46 481.0437,-46 476.0437,-41 476.0437,-36 476.0437,-36 476.0437,-26 476.0437,-26 476.0437,-21 481.0437,-16 486.0437,-16 486.0437,-16 508.0437,-16 508.0437,-16 513.0437,-16 518.0437,-21 518.0437,-26 518.0437,-26 518.0437,-36 518.0437,-36 518.0437,-41 513.0437,-46 508.0437,-46"/>
<text text-anchor="middle" x="497.0437" y="-34" font-family="Arial" font-size="10.00" fill="#ffffff">Supriya</text>
<text text-anchor="middle" x="497.0437" y="-23" font-family="Arial" font-size="10.00" fill="#ffffff">Script</text>
</a>
</g>
</g>
<!-- uqbar.cli.CLI.CLI -->
<g id="node17" class="node">
<title>uqbar.cli.CLI.CLI</title>
<ellipse fill="none" stroke="#fed9a6" stroke-width="2" cx="265.9447" cy="-51" rx="19.6" ry="13.3704"/>
<text text-anchor="middle" x="265.9447" y="-48.5" font-family="Arial" font-size="10.00" fill="#000000">CLI</text>
</g>
<!-- uqbar.cli.CLIAggregator.CLIAggregator -->
<g id="node18" class="node">
<title>uqbar.cli.CLIAggregator.CLIAggregator</title>
<ellipse fill="none" stroke="#fed9a6" stroke-width="2" cx="382.5549" cy="-51" rx="45.9239" ry="13.3704"/>
<text text-anchor="middle" x="382.5549" y="-48.5" font-family="Arial" font-size="10.00" fill="#000000">CLIAggregator</text>
</g>
<!-- abc.ABC -->
<g id="node19" class="node">
<title>abc.ABC</title>
<g id="a_node19"><a xlink:href="https://docs.python.org/3.6/library/abc.html#abc.ABC" xlink:title="ABC" target="_top">
<path fill="#fbb4ae" stroke="#fbb4ae" stroke-width="2" d="M170.3149,-70.5C170.3149,-70.5 150.9816,-70.5 150.9816,-70.5 147.8149,-70.5 144.6482,-67.3333 144.6482,-64.1667 144.6482,-64.1667 144.6482,-57.8333 144.6482,-57.8333 144.6482,-54.6667 147.8149,-51.5 150.9816,-51.5 150.9816,-51.5 170.3149,-51.5 170.3149,-51.5 173.4816,-51.5 176.6482,-54.6667 176.6482,-57.8333 176.6482,-57.8333 176.6482,-64.1667 176.6482,-64.1667 176.6482,-67.3333 173.4816,-70.5 170.3149,-70.5"/>
<text text-anchor="middle" x="160.6482" y="-58.5" font-family="Arial" font-size="10.00" fill="#000000">ABC</text>
</a>
</g>
</g>
</g>
</svg>
