<?xml version="1.0" encoding="UTF-8" standalone="no"?>
<!DOCTYPE svg PUBLIC "-//W3C//DTD SVG 1.1//EN"
 "http://www.w3.org/Graphics/SVG/1.1/DTD/svg11.dtd">
<!-- Generated by graphviz version 2.44.1 (20200629.0846)
 -->
<!-- Title: InheritanceGraph Pages: 1 -->
<svg width="539pt" height="293pt"
 viewBox="0.00 0.00 538.66 293.00" xmlns="http://www.w3.org/2000/svg" xmlns:xlink="http://www.w3.org/1999/xlink">
<g id="graph0" class="graph" transform="scale(1 1) rotate(0) translate(4 289)">
<title>InheritanceGraph</title>
<g id="clust1" class="cluster">
<title>cluster_builtins</title>
<path fill="transparent" stroke="#bcd2ee" stroke-width="2" stroke-dasharray="5,2" d="M20,-123C20,-123 55,-123 55,-123 61,-123 67,-129 67,-135 67,-135 67,-166 67,-166 67,-172 61,-178 55,-178 55,-178 20,-178 20,-178 14,-178 8,-172 8,-166 8,-166 8,-135 8,-135 8,-129 14,-123 20,-123"/>
<text text-anchor="middle" x="37.5" y="-166" font-family="Arial" font-size="10.00">builtins</text>
</g>
<g id="clust2" class="cluster">
<title>cluster_supriya.system</title>
<path fill="transparent" stroke="#bcd2ee" stroke-width="2" stroke-dasharray="5,2" d="M99,-118C99,-118 158,-118 158,-118 164,-118 170,-124 170,-130 170,-130 170,-171 170,-171 170,-177 164,-183 158,-183 158,-183 99,-183 99,-183 93,-183 87,-177 87,-171 87,-171 87,-130 87,-130 87,-124 93,-118 99,-118"/>
<text text-anchor="middle" x="128.5" y="-171" font-family="Arial" font-size="10.00">supriya.system</text>
</g>
<g id="clust3" class="cluster">
<title>cluster_supriya.ugens</title>
<path fill="transparent" stroke="#bcd2ee" stroke-width="2" stroke-dasharray="5,2" d="M202,-8C202,-8 510.66,-8 510.66,-8 516.66,-8 522.66,-14 522.66,-20 522.66,-20 522.66,-265 522.66,-265 522.66,-271 516.66,-277 510.66,-277 510.66,-277 202,-277 202,-277 196,-277 190,-271 190,-265 190,-265 190,-20 190,-20 190,-14 196,-8 202,-8"/>
<text text-anchor="middle" x="356.33" y="-265" font-family="Arial" font-size="10.00">supriya.ugens</text>
</g>
<!-- builtins.object&#45;&gt;supriya.system.SupriyaObject -->
<g id="edge8" class="edge">
<title>builtins.object&#45;&gt;supriya.system.SupriyaObject</title>
<path fill="none" stroke="lightslategrey" d="M59.03,-141C69.03,-141 81.34,-141 92.72,-141"/>
<polygon fill="lightslategrey" stroke="lightslategrey" points="92.82,-144.5 102.82,-141 92.82,-137.5 92.82,-144.5"/>
</g>
<!-- supriya.system.SupriyaObject&#45;&gt;supriya.ugens.PseudoUGen.PseudoUGen -->
<g id="edge9" class="edge">
<title>supriya.system.SupriyaObject&#45;&gt;supriya.ugens.PseudoUGen.PseudoUGen</title>
<path fill="none" stroke="lightslategrey" d="M153.23,-141C163.48,-141 175.75,-141 187.54,-141"/>
<polygon fill="lightslategrey" stroke="lightslategrey" points="187.71,-144.5 197.71,-141 187.71,-137.5 187.71,-144.5"/>
</g>
<!-- supriya.ugens.PseudoUGen.PseudoUGen&#45;&gt;supriya.ugens.Changed.Changed -->
<g id="edge1" class="edge">
<title>supriya.ugens.PseudoUGen.PseudoUGen&#45;&gt;supriya.ugens.Changed.Changed</title>
<path fill="none" stroke="lightslategrey" d="M248.12,-121.5C261.42,-103.39 282.74,-76.26 304.71,-56 308.28,-52.71 312.27,-49.49 316.29,-46.49"/>
<polygon fill="lightslategrey" stroke="lightslategrey" points="318.35,-49.33 324.48,-40.68 314.3,-43.62 318.35,-49.33"/>
</g>
<!-- supriya.ugens.PseudoUGen.PseudoUGen&#45;&gt;supriya.ugens.CompanderD.CompanderD -->
<g id="edge2" class="edge">
<title>supriya.ugens.PseudoUGen.PseudoUGen&#45;&gt;supriya.ugens.CompanderD.CompanderD</title>
<path fill="none" stroke="lightslategrey" d="M247.68,-121.37C260.23,-104.7 280.66,-81.81 304.71,-71 337.9,-56.08 378.86,-53.7 411.22,-54.98"/>
<polygon fill="lightslategrey" stroke="lightslategrey" points="411.24,-58.49 421.41,-55.52 411.61,-51.5 411.24,-58.49"/>
</g>
<!-- supriya.ugens.PseudoUGen.PseudoUGen&#45;&gt;supriya.ugens.LinLin.LinLin -->
<g id="edge3" class="edge">
<title>supriya.ugens.PseudoUGen.PseudoUGen&#45;&gt;supriya.ugens.LinLin.LinLin</title>
<path fill="none" stroke="lightslategrey" d="M263.84,-130.18C279.76,-124.33 299.32,-117.15 315.05,-111.37"/>
<polygon fill="lightslategrey" stroke="lightslategrey" points="316.58,-114.54 324.76,-107.81 314.17,-107.97 316.58,-114.54"/>
</g>
<!-- supriya.ugens.PseudoUGen.PseudoUGen&#45;&gt;supriya.ugens.Mix.Mix -->
<g id="edge4" class="edge">
<title>supriya.ugens.PseudoUGen.PseudoUGen&#45;&gt;supriya.ugens.Mix.Mix</title>
<path fill="none" stroke="lightslategrey" d="M268.83,-141C313.59,-141 391.12,-141 434.51,-141"/>
<polygon fill="lightslategrey" stroke="lightslategrey" points="434.52,-144.5 444.52,-141 434.52,-137.5 434.52,-144.5"/>
</g>
<!-- supriya.ugens.PseudoUGen.PseudoUGen&#45;&gt;supriya.ugens.Silence.Silence -->
<g id="edge5" class="edge">
<title>supriya.ugens.PseudoUGen.PseudoUGen&#45;&gt;supriya.ugens.Silence.Silence</title>
<path fill="none" stroke="lightslategrey" d="M265.58,-150.17C278.3,-153.91 293.12,-158.26 306.38,-162.15"/>
<polygon fill="lightslategrey" stroke="lightslategrey" points="305.57,-165.56 316.15,-165.02 307.55,-158.85 305.57,-165.56"/>
</g>
<!-- supriya.ugens.PseudoUGen.PseudoUGen&#45;&gt;supriya.ugens.SoundIn.SoundIn -->
<g id="edge6" class="edge">
<title>supriya.ugens.PseudoUGen.PseudoUGen&#45;&gt;supriya.ugens.SoundIn.SoundIn</title>
<path fill="none" stroke="lightslategrey" d="M251.88,-159.29C265.1,-171.78 284.38,-187.39 304.71,-195 344.02,-209.72 392.45,-210.67 425.98,-208.9"/>
<polygon fill="lightslategrey" stroke="lightslategrey" points="426.56,-212.37 436.31,-208.25 426.11,-205.39 426.56,-212.37"/>
</g>
<!-- supriya.ugens.PseudoUGen.PseudoUGen&#45;&gt;supriya.ugens.Splay.Splay -->
<g id="edge7" class="edge">
<title>supriya.ugens.PseudoUGen.PseudoUGen&#45;&gt;supriya.ugens.Splay.Splay</title>
<path fill="none" stroke="lightslategrey" d="M251.52,-159.43C265.31,-173.84 285.49,-194.04 304.71,-210 309.04,-213.59 313.82,-217.2 318.51,-220.56"/>
<polygon fill="lightslategrey" stroke="lightslategrey" points="316.51,-223.44 326.72,-226.28 320.51,-217.69 316.51,-223.44"/>
</g>
<!-- builtins.object -->
<g id="node1" class="node">
<title>builtins.object</title>
<g id="a_node1"><a xlink:href="https://docs.python.org/3/library/functions.html#object" xlink:title="object" target="_top">
<path fill="#fbb4ae" stroke="#fbb4ae" stroke-width="2" d="M52.67,-150.5C52.67,-150.5 22.33,-150.5 22.33,-150.5 19.17,-150.5 16,-147.33 16,-144.17 16,-144.17 16,-137.83 16,-137.83 16,-134.67 19.17,-131.5 22.33,-131.5 22.33,-131.5 52.67,-131.5 52.67,-131.5 55.83,-131.5 59,-134.67 59,-137.83 59,-137.83 59,-144.17 59,-144.17 59,-147.33 55.83,-150.5 52.67,-150.5"/>
<text text-anchor="middle" x="37.5" y="-138.5" font-family="Arial" font-size="10.00">object</text>
</a>
</g>
</g>
<!-- supriya.system.SupriyaObject -->
<g id="node2" class="node">
<title>supriya.system.SupriyaObject</title>
<g id="a_node2"><a xlink:href="../api/supriya/ugens/../system.html#supriya.system.SupriyaObject" xlink:title="Supriya\nObject" target="_top">
<path fill="#b3cde3" stroke="#b3cde3" stroke-width="2" d="M143,-156C143,-156 113,-156 113,-156 108,-156 103,-151 103,-146 103,-146 103,-136 103,-136 103,-131 108,-126 113,-126 113,-126 143,-126 143,-126 148,-126 153,-131 153,-136 153,-136 153,-146 153,-146 153,-151 148,-156 143,-156"/>
<text text-anchor="middle" x="128" y="-144" font-family="Arial" font-size="10.00">Supriya</text>
<text text-anchor="middle" x="128" y="-133" font-family="Arial" font-size="10.00">Object</text>
</a>
</g>
</g>
<!-- supriya.ugens.Changed.Changed -->
<g id="node3" class="node">
<title>supriya.ugens.Changed.Changed</title>
<g id="a_node3"><a xlink:href="../api/supriya/ugens/Changed.html#supriya.ugens.Changed.Changed" xlink:title="Changed" target="_top">
<ellipse fill="none" stroke="#ccebc5" stroke-width="2" cx="344.31" cy="-29" rx="39.7" ry="13.37"/>
<text text-anchor="middle" x="344.31" y="-26.5" font-family="Arial" font-size="10.00">Changed</text>
</a>
</g>
</g>
<!-- supriya.ugens.CompanderD.CompanderD -->
<g id="node4" class="node">
<title>supriya.ugens.CompanderD.CompanderD</title>
<g id="a_node4"><a xlink:href="../api/supriya/ugens/CompanderD.html#supriya.ugens.CompanderD.CompanderD" xlink:title="Compander\nD" target="_top">
<ellipse fill="none" stroke="#ccebc5" stroke-width="2" cx="467.28" cy="-61" rx="47.25" ry="21.43"/>
<text text-anchor="middle" x="467.28" y="-64" font-family="Arial" font-size="10.00">Compander</text>
<text text-anchor="middle" x="467.28" y="-53" font-family="Arial" font-size="10.00">D</text>
</a>
</g>
</g>
<!-- supriya.ugens.LinLin.LinLin -->
<g id="node5" class="node">
<title>supriya.ugens.LinLin.LinLin</title>
<g id="a_node5"><a xlink:href="../api/supriya/ugens/LinLin.html#supriya.ugens.LinLin.LinLin" xlink:title="Lin\nLin" target="_top">
<ellipse fill="none" stroke="#ccebc5" stroke-width="2" cx="344.31" cy="-101" rx="20.51" ry="21.43"/>
<text text-anchor="middle" x="344.31" y="-104" font-family="Arial" font-size="10.00">Lin</text>
<text text-anchor="middle" x="344.31" y="-93" font-family="Arial" font-size="10.00">Lin</text>
</a>
</g>
</g>
<!-- supriya.ugens.Mix.Mix -->
<g id="node6" class="node">
<title>supriya.ugens.Mix.Mix</title>
<g id="a_node6"><a xlink:href="../api/supriya/ugens/Mix.html#supriya.ugens.Mix.Mix" xlink:title="Mix" target="_top">
<ellipse fill="none" stroke="#ccebc5" stroke-width="2" cx="467.28" cy="-141" rx="22.76" ry="13.37"/>
<text text-anchor="middle" x="467.28" y="-138.5" font-family="Arial" font-size="10.00">Mix</text>
</a>
</g>
</g>
<!-- supriya.ugens.PseudoUGen.PseudoUGen -->
<g id="node7" class="node">
<title>supriya.ugens.PseudoUGen.PseudoUGen</title>
<g id="a_node7"><a xlink:href="../api/supriya/ugens/PseudoUGen.html#supriya.ugens.PseudoUGen.PseudoUGen" xlink:title="Pseudo\nUGen" target="_top">
<ellipse fill="black" stroke="black" stroke-width="2" cx="233.36" cy="-141" rx="35.21" ry="21.43"/>
<text text-anchor="middle" x="233.36" y="-144" font-family="Arial" font-size="10.00" fill="white">Pseudo</text>
<text text-anchor="middle" x="233.36" y="-133" font-family="Arial" font-size="10.00" fill="white">UGen</text>
</a>
</g>
</g>
<!-- supriya.ugens.Silence.Silence -->
<g id="node8" class="node">
<title>supriya.ugens.Silence.Silence</title>
<g id="a_node8"><a xlink:href="../api/supriya/ugens/Silence.html#supriya.ugens.Silence.Silence" xlink:title="Silence" target="_top">
<ellipse fill="none" stroke="#ccebc5" stroke-width="2" cx="344.31" cy="-173" rx="34.8" ry="13.37"/>
<text text-anchor="middle" x="344.31" y="-170.5" font-family="Arial" font-size="10.00">Silence</text>
</a>
</g>
</g>
<!-- supriya.ugens.SoundIn.SoundIn -->
<g id="node9" class="node">
<title>supriya.ugens.SoundIn.SoundIn</title>
<g id="a_node9"><a xlink:href="../api/supriya/ugens/SoundIn.html#supriya.ugens.SoundIn.SoundIn" xlink:title="Sound\nIn" target="_top">
<ellipse fill="none" stroke="#ccebc5" stroke-width="2" cx="467.28" cy="-205" rx="31.23" ry="21.43"/>
<text text-anchor="middle" x="467.28" y="-208" font-family="Arial" font-size="10.00">Sound</text>
<text text-anchor="middle" x="467.28" y="-197" font-family="Arial" font-size="10.00">In</text>
</a>
</g>
</g>
<!-- supriya.ugens.Splay.Splay -->
<g id="node10" class="node">
<title>supriya.ugens.Splay.Splay</title>
<g id="a_node10"><a xlink:href="../api/supriya/ugens/Splay.html#supriya.ugens.Splay.Splay" xlink:title="Splay" target="_top">
<ellipse fill="none" stroke="#ccebc5" stroke-width="2" cx="344.31" cy="-237" rx="28.98" ry="13.37"/>
<text text-anchor="middle" x="344.31" y="-234.5" font-family="Arial" font-size="10.00">Splay</text>
</a>
</g>
</g>
</g>
</svg>
