<?xml version="1.0" encoding="UTF-8" standalone="no"?>
<!DOCTYPE svg PUBLIC "-//W3C//DTD SVG 1.1//EN"
 "http://www.w3.org/Graphics/SVG/1.1/DTD/svg11.dtd">
<!-- Generated by graphviz version 2.44.1 (20200629.0846)
 -->
<!-- Title: InheritanceGraph Pages: 1 -->
<svg width="649pt" height="233pt"
 viewBox="0.00 0.00 648.79 233.00" xmlns="http://www.w3.org/2000/svg" xmlns:xlink="http://www.w3.org/1999/xlink">
<g id="graph0" class="graph" transform="scale(1 1) rotate(0) translate(4 229)">
<title>InheritanceGraph</title>
<g id="clust1" class="cluster">
<title>cluster_builtins</title>
<path fill="transparent" stroke="#bcd2ee" stroke-width="2" stroke-dasharray="5,2" d="M20,-91C20,-91 55,-91 55,-91 61,-91 67,-97 67,-103 67,-103 67,-134 67,-134 67,-140 61,-146 55,-146 55,-146 20,-146 20,-146 14,-146 8,-140 8,-134 8,-134 8,-103 8,-103 8,-97 14,-91 20,-91"/>
<text text-anchor="middle" x="37.5" y="-134" font-family="Arial" font-size="10.00">builtins</text>
</g>
<g id="clust2" class="cluster">
<title>cluster_supriya.synthdefs.bases</title>
<path fill="transparent" stroke="#bcd2ee" stroke-width="2" stroke-dasharray="5,2" d="M347,-80C347,-80 493.79,-80 493.79,-80 499.79,-80 505.79,-86 505.79,-92 505.79,-92 505.79,-161 505.79,-161 505.79,-167 499.79,-173 493.79,-173 493.79,-173 347,-173 347,-173 341,-173 335,-167 335,-161 335,-161 335,-92 335,-92 335,-86 341,-80 347,-80"/>
<text text-anchor="middle" x="420.4" y="-161" font-family="Arial" font-size="10.00">supriya.synthdefs.bases</text>
</g>
<g id="clust3" class="cluster">
<title>cluster_supriya.synthdefs.mixins</title>
<path fill="transparent" stroke="#bcd2ee" stroke-width="2" stroke-dasharray="5,2" d="M202,-80C202,-80 303,-80 303,-80 309,-80 315,-86 315,-92 315,-92 315,-145 315,-145 315,-151 309,-157 303,-157 303,-157 202,-157 202,-157 196,-157 190,-151 190,-145 190,-145 190,-92 190,-92 190,-86 196,-80 202,-80"/>
<text text-anchor="middle" x="252.5" y="-145" font-family="Arial" font-size="10.00">supriya.synthdefs.mixins</text>
</g>
<g id="clust4" class="cluster">
<title>cluster_supriya.system</title>
<path fill="transparent" stroke="#bcd2ee" stroke-width="2" stroke-dasharray="5,2" d="M99,-86C99,-86 158,-86 158,-86 164,-86 170,-92 170,-98 170,-98 170,-139 170,-139 170,-145 164,-151 158,-151 158,-151 99,-151 99,-151 93,-151 87,-145 87,-139 87,-139 87,-98 87,-98 87,-92 93,-86 99,-86"/>
<text text-anchor="middle" x="128.5" y="-139" font-family="Arial" font-size="10.00">supriya.system</text>
</g>
<g id="clust5" class="cluster">
<title>cluster_supriya.ugens.granular</title>
<path fill="transparent" stroke="#bcd2ee" stroke-width="2" stroke-dasharray="5,2" d="M537.79,-8C537.79,-8 628.79,-8 628.79,-8 634.79,-8 640.79,-14 640.79,-20 640.79,-20 640.79,-205 640.79,-205 640.79,-211 634.79,-217 628.79,-217 628.79,-217 537.79,-217 537.79,-217 531.79,-217 525.79,-211 525.79,-205 525.79,-205 525.79,-20 525.79,-20 525.79,-14 531.79,-8 537.79,-8"/>
<text text-anchor="middle" x="583.29" y="-205" font-family="Arial" font-size="10.00">supriya.ugens.granular</text>
</g>
<!-- builtins.object&#45;&gt;supriya.system.SupriyaObject -->
<g id="edge2" class="edge">
<title>builtins.object&#45;&gt;supriya.system.SupriyaObject</title>
<path fill="none" stroke="lightslategrey" d="M59.03,-109C69.03,-109 81.34,-109 92.72,-109"/>
<polygon fill="lightslategrey" stroke="lightslategrey" points="92.82,-112.5 102.82,-109 92.82,-105.5 92.82,-112.5"/>
</g>
<!-- supriya.synthdefs.bases.MultiOutUGen&#45;&gt;supriya.ugens.granular.GrainBuf -->
<g id="edge3" class="edge">
<title>supriya.synthdefs.bases.MultiOutUGen&#45;&gt;supriya.ugens.granular.GrainBuf</title>
<path fill="none" stroke="lightslategrey" d="M497.83,-119.55C514.52,-121.03 535.5,-122.89 552.32,-124.38"/>
<polygon fill="lightslategrey" stroke="lightslategrey" points="552.41,-127.91 562.68,-125.3 553.03,-120.93 552.41,-127.91"/>
</g>
<!-- supriya.synthdefs.bases.MultiOutUGen&#45;&gt;supriya.ugens.granular.GrainIn -->
<g id="edge4" class="edge">
<title>supriya.synthdefs.bases.MultiOutUGen&#45;&gt;supriya.ugens.granular.GrainIn</title>
<path fill="none" stroke="lightslategrey" d="M496.38,-107.8C513.48,-102.04 535.49,-94.61 552.89,-88.75"/>
<polygon fill="lightslategrey" stroke="lightslategrey" points="554.17,-92.01 562.53,-85.5 551.93,-85.37 554.17,-92.01"/>
</g>
<!-- supriya.synthdefs.bases.MultiOutUGen&#45;&gt;supriya.ugens.granular.Warp1 -->
<g id="edge5" class="edge">
<title>supriya.synthdefs.bases.MultiOutUGen&#45;&gt;supriya.ugens.granular.Warp1</title>
<path fill="none" stroke="lightslategrey" d="M493.25,-132.47C503.16,-138.55 514.86,-145.41 525.79,-151 534.72,-155.56 544.7,-160.03 553.75,-163.86"/>
<polygon fill="lightslategrey" stroke="lightslategrey" points="552.51,-167.13 563.09,-167.73 555.19,-160.67 552.51,-167.13"/>
</g>
<!-- supriya.synthdefs.bases.UGen&#45;&gt;supriya.synthdefs.bases.MultiOutUGen -->
<g id="edge1" class="edge">
<title>supriya.synthdefs.bases.UGen&#45;&gt;supriya.synthdefs.bases.MultiOutUGen</title>
<path fill="none" stroke="lightslategrey" d="M401.97,-111.42C410.23,-112.13 419.41,-112.92 428.2,-113.67"/>
<polygon fill="lightslategrey" stroke="lightslategrey" points="428.01,-117.16 438.27,-114.53 428.61,-110.19 428.01,-117.16"/>
</g>
<!-- supriya.synthdefs.bases.UGen&#45;&gt;supriya.ugens.granular.PitchShift -->
<g id="edge6" class="edge">
<title>supriya.synthdefs.bases.UGen&#45;&gt;supriya.ugens.granular.PitchShift</title>
<path fill="none" stroke="lightslategrey" d="M393.27,-99.23C405.98,-93.06 422.98,-85.13 438.4,-79 477.5,-63.44 523.86,-48.55 553.06,-39.59"/>
<polygon fill="lightslategrey" stroke="lightslategrey" points="554.45,-42.82 562.99,-36.56 552.41,-36.13 554.45,-42.82"/>
</g>
<!-- supriya.synthdefs.mixins.UGenMethodMixin&#45;&gt;supriya.synthdefs.bases.UGen -->
<g id="edge7" class="edge">
<title>supriya.synthdefs.mixins.UGenMethodMixin&#45;&gt;supriya.synthdefs.bases.UGen</title>
<path fill="none" stroke="lightslategrey" d="M277.14,-109C292.98,-109 314.22,-109 332.55,-109"/>
<polygon fill="lightslategrey" stroke="lightslategrey" points="332.67,-112.5 342.67,-109 332.67,-105.5 332.67,-112.5"/>
</g>
<!-- supriya.system.SupriyaObject&#45;&gt;supriya.synthdefs.mixins.UGenMethodMixin -->
<g id="edge8" class="edge">
<title>supriya.system.SupriyaObject&#45;&gt;supriya.synthdefs.mixins.UGenMethodMixin</title>
<path fill="none" stroke="lightslategrey" d="M153.2,-109C171.61,-109 197.17,-109 217.61,-109"/>
<polygon fill="lightslategrey" stroke="lightslategrey" points="217.77,-112.5 227.77,-109 217.77,-105.5 217.77,-112.5"/>
</g>
<!-- builtins.object -->
<g id="node1" class="node">
<title>builtins.object</title>
<g id="a_node1"><a xlink:href="https://docs.python.org/3/library/functions.html#object" xlink:title="object" target="_top">
<path fill="#fbb4ae" stroke="#fbb4ae" stroke-width="2" d="M52.67,-118.5C52.67,-118.5 22.33,-118.5 22.33,-118.5 19.17,-118.5 16,-115.33 16,-112.17 16,-112.17 16,-105.83 16,-105.83 16,-102.67 19.17,-99.5 22.33,-99.5 22.33,-99.5 52.67,-99.5 52.67,-99.5 55.83,-99.5 59,-102.67 59,-105.83 59,-105.83 59,-112.17 59,-112.17 59,-115.33 55.83,-118.5 52.67,-118.5"/>
<text text-anchor="middle" x="37.5" y="-106.5" font-family="Arial" font-size="10.00">object</text>
</a>
</g>
</g>
<!-- supriya.synthdefs.bases.MultiOutUGen -->
<g id="node2" class="node">
<title>supriya.synthdefs.bases.MultiOutUGen</title>
<g id="a_node2"><a xlink:href="../api/supriya/ugens/../synthdefs/bases.html#supriya.synthdefs.bases.MultiOutUGen" xlink:title="Multi\nOut\nUGen" target="_top">
<ellipse fill="none" stroke="#b3cde3" stroke-width="2" cx="468.1" cy="-117" rx="29.9" ry="28.98"/>
<text text-anchor="middle" x="468.1" y="-125.5" font-family="Arial" font-size="10.00">Multi</text>
<text text-anchor="middle" x="468.1" y="-114.5" font-family="Arial" font-size="10.00">Out</text>
<text text-anchor="middle" x="468.1" y="-103.5" font-family="Arial" font-size="10.00">UGen</text>
</a>
</g>
</g>
<!-- supriya.synthdefs.bases.UGen -->
<g id="node3" class="node">
<title>supriya.synthdefs.bases.UGen</title>
<g id="a_node3"><a xlink:href="../api/supriya/ugens/../synthdefs/bases.html#supriya.synthdefs.bases.UGen" xlink:title="UGen" target="_top">
<ellipse fill="none" stroke="#b3cde3" stroke-width="2" cx="372.7" cy="-109" rx="29.9" ry="13.37"/>
<text text-anchor="middle" x="372.7" y="-106.5" font-family="Arial" font-size="10.00">UGen</text>
</a>
</g>
</g>
<!-- supriya.synthdefs.mixins.UGenMethodMixin -->
<g id="node4" class="node">
<title>supriya.synthdefs.mixins.UGenMethodMixin</title>
<g id="a_node4"><a xlink:href="../api/supriya/ugens/../synthdefs/mixins.html#supriya.synthdefs.mixins.UGenMethodMixin" xlink:title="UGen\nMethod\nMixin" target="_top">
<path fill="#ccebc5" stroke="#ccebc5" stroke-width="2" d="M265,-129.5C265,-129.5 240,-129.5 240,-129.5 234,-129.5 228,-123.5 228,-117.5 228,-117.5 228,-100.5 228,-100.5 228,-94.5 234,-88.5 240,-88.5 240,-88.5 265,-88.5 265,-88.5 271,-88.5 277,-94.5 277,-100.5 277,-100.5 277,-117.5 277,-117.5 277,-123.5 271,-129.5 265,-129.5"/>
<text text-anchor="middle" x="252.5" y="-117.5" font-family="Arial" font-size="10.00">UGen</text>
<text text-anchor="middle" x="252.5" y="-106.5" font-family="Arial" font-size="10.00">Method</text>
<text text-anchor="middle" x="252.5" y="-95.5" font-family="Arial" font-size="10.00">Mixin</text>
</a>
</g>
</g>
<!-- supriya.system.SupriyaObject -->
<g id="node5" class="node">
<title>supriya.system.SupriyaObject</title>
<g id="a_node5"><a xlink:href="../api/supriya/ugens/../system.html#supriya.system.SupriyaObject" xlink:title="Supriya\nObject" target="_top">
<path fill="#decbe4" stroke="#decbe4" stroke-width="2" d="M143,-124C143,-124 113,-124 113,-124 108,-124 103,-119 103,-114 103,-114 103,-104 103,-104 103,-99 108,-94 113,-94 113,-94 143,-94 143,-94 148,-94 153,-99 153,-104 153,-104 153,-114 153,-114 153,-119 148,-124 143,-124"/>
<text text-anchor="middle" x="128" y="-112" font-family="Arial" font-size="10.00">Supriya</text>
<text text-anchor="middle" x="128" y="-101" font-family="Arial" font-size="10.00">Object</text>
</a>
</g>
</g>
<!-- supriya.ugens.granular.GrainBuf -->
<g id="node6" class="node">
<title>supriya.ugens.granular.GrainBuf</title>
<g id="a_node6"><a xlink:href="../api/supriya/ugens/granular.html#supriya.ugens.granular.GrainBuf" xlink:title="Grain\nBuf" target="_top">
<path fill="black" stroke="black" stroke-width="2" d="M592.79,-142C592.79,-142 572.79,-142 572.79,-142 567.79,-142 562.79,-137 562.79,-132 562.79,-132 562.79,-122 562.79,-122 562.79,-117 567.79,-112 572.79,-112 572.79,-112 592.79,-112 592.79,-112 597.79,-112 602.79,-117 602.79,-122 602.79,-122 602.79,-132 602.79,-132 602.79,-137 597.79,-142 592.79,-142"/>
<text text-anchor="middle" x="582.79" y="-130" font-family="Arial" font-size="10.00" fill="white">Grain</text>
<text text-anchor="middle" x="582.79" y="-119" font-family="Arial" font-size="10.00" fill="white">Buf</text>
</a>
</g>
</g>
<!-- supriya.ugens.granular.GrainIn -->
<g id="node7" class="node">
<title>supriya.ugens.granular.GrainIn</title>
<g id="a_node7"><a xlink:href="../api/supriya/ugens/granular.html#supriya.ugens.granular.GrainIn" xlink:title="Grain\nIn" target="_top">
<path fill="black" stroke="black" stroke-width="2" d="M592.79,-94C592.79,-94 572.79,-94 572.79,-94 567.79,-94 562.79,-89 562.79,-84 562.79,-84 562.79,-74 562.79,-74 562.79,-69 567.79,-64 572.79,-64 572.79,-64 592.79,-64 592.79,-64 597.79,-64 602.79,-69 602.79,-74 602.79,-74 602.79,-84 602.79,-84 602.79,-89 597.79,-94 592.79,-94"/>
<text text-anchor="middle" x="582.79" y="-82" font-family="Arial" font-size="10.00" fill="white">Grain</text>
<text text-anchor="middle" x="582.79" y="-71" font-family="Arial" font-size="10.00" fill="white">In</text>
</a>
</g>
</g>
<!-- supriya.ugens.granular.PitchShift -->
<g id="node8" class="node">
<title>supriya.ugens.granular.PitchShift</title>
<g id="a_node8"><a xlink:href="../api/supriya/ugens/granular.html#supriya.ugens.granular.PitchShift" xlink:title="Pitch\nShift" target="_top">
<path fill="black" stroke="black" stroke-width="2" d="M592.29,-46C592.29,-46 573.29,-46 573.29,-46 568.29,-46 563.29,-41 563.29,-36 563.29,-36 563.29,-26 563.29,-26 563.29,-21 568.29,-16 573.29,-16 573.29,-16 592.29,-16 592.29,-16 597.29,-16 602.29,-21 602.29,-26 602.29,-26 602.29,-36 602.29,-36 602.29,-41 597.29,-46 592.29,-46"/>
<text text-anchor="middle" x="582.79" y="-34" font-family="Arial" font-size="10.00" fill="white">Pitch</text>
<text text-anchor="middle" x="582.79" y="-23" font-family="Arial" font-size="10.00" fill="white">Shift</text>
</a>
</g>
</g>
<!-- supriya.ugens.granular.Warp1 -->
<g id="node9" class="node">
<title>supriya.ugens.granular.Warp1</title>
<g id="a_node9"><a xlink:href="../api/supriya/ugens/granular.html#supriya.ugens.granular.Warp1" xlink:title="Warp\n1" target="_top">
<path fill="black" stroke="black" stroke-width="2" d="M592.29,-190C592.29,-190 573.29,-190 573.29,-190 568.29,-190 563.29,-185 563.29,-180 563.29,-180 563.29,-170 563.29,-170 563.29,-165 568.29,-160 573.29,-160 573.29,-160 592.29,-160 592.29,-160 597.29,-160 602.29,-165 602.29,-170 602.29,-170 602.29,-180 602.29,-180 602.29,-185 597.29,-190 592.29,-190"/>
<text text-anchor="middle" x="582.79" y="-178" font-family="Arial" font-size="10.00" fill="white">Warp</text>
<text text-anchor="middle" x="582.79" y="-167" font-family="Arial" font-size="10.00" fill="white">1</text>
</a>
</g>
</g>
</g>
</svg>
