<?xml version="1.0" encoding="UTF-8" standalone="no"?>
<!DOCTYPE svg PUBLIC "-//W3C//DTD SVG 1.1//EN"
 "http://www.w3.org/Graphics/SVG/1.1/DTD/svg11.dtd">
<!-- Generated by graphviz version 2.44.1 (20200629.0846)
 -->
<!-- Title: InheritanceGraph Pages: 1 -->
<svg width="740pt" height="123pt"
 viewBox="0.00 0.00 739.95 123.00" xmlns="http://www.w3.org/2000/svg" xmlns:xlink="http://www.w3.org/1999/xlink">
<g id="graph0" class="graph" transform="scale(1 1) rotate(0) translate(4 119)">
<title>InheritanceGraph</title>
<g id="clust1" class="cluster">
<title>cluster_builtins</title>
<path fill="transparent" stroke="#bcd2ee" stroke-width="2" stroke-dasharray="5,2" d="M20,-30C20,-30 55,-30 55,-30 61,-30 67,-36 67,-42 67,-42 67,-73 67,-73 67,-79 61,-85 55,-85 55,-85 20,-85 20,-85 14,-85 8,-79 8,-73 8,-73 8,-42 8,-42 8,-36 14,-30 20,-30"/>
<text text-anchor="middle" x="37.5" y="-73" font-family="Arial" font-size="10.00">builtins</text>
</g>
<g id="clust2" class="cluster">
<title>cluster_supriya.commands</title>
<path fill="transparent" stroke="#bcd2ee" stroke-width="2" stroke-dasharray="5,2" d="M271,-8C271,-8 711.95,-8 711.95,-8 717.95,-8 723.95,-14 723.95,-20 723.95,-20 723.95,-95 723.95,-95 723.95,-101 717.95,-107 711.95,-107 711.95,-107 271,-107 271,-107 265,-107 259,-101 259,-95 259,-95 259,-20 259,-20 259,-14 265,-8 271,-8"/>
<text text-anchor="middle" x="491.48" y="-95" font-family="Arial" font-size="10.00">supriya.commands</text>
</g>
<g id="clust3" class="cluster">
<title>cluster_supriya.system</title>
<path fill="transparent" stroke="#bcd2ee" stroke-width="2" stroke-dasharray="5,2" d="M99,-19C99,-19 227,-19 227,-19 233,-19 239,-25 239,-31 239,-31 239,-84 239,-84 239,-90 233,-96 227,-96 227,-96 99,-96 99,-96 93,-96 87,-90 87,-84 87,-84 87,-31 87,-31 87,-25 93,-19 99,-19"/>
<text text-anchor="middle" x="163" y="-84" font-family="Arial" font-size="10.00">supriya.system</text>
</g>
<!-- builtins.object&#45;&gt;supriya.system.SupriyaObject -->
<g id="edge6" class="edge">
<title>builtins.object&#45;&gt;supriya.system.SupriyaObject</title>
<path fill="none" stroke="lightslategrey" d="M59.23,-48C66.98,-48 76,-48 84.66,-48"/>
<polygon fill="lightslategrey" stroke="lightslategrey" points="84.91,-51.5 94.91,-48 84.91,-44.5 84.91,-51.5"/>
</g>
<!-- supriya.commands.BufferAllocateReadRequest.BufferAllocateReadRequest&#45;&gt;supriya.commands.BufferAllocateReadChannelRequest.BufferAllocateReadChannelRequest -->
<g id="edge1" class="edge">
<title>supriya.commands.BufferAllocateReadRequest.BufferAllocateReadRequest&#45;&gt;supriya.commands.BufferAllocateReadChannelRequest.BufferAllocateReadChannelRequest</title>
<path fill="none" stroke="lightslategrey" d="M627.09,-48C635.07,-48 644.02,-48 652.57,-48"/>
<polygon fill="lightslategrey" stroke="lightslategrey" points="652.7,-51.5 662.7,-48 652.7,-44.5 652.7,-51.5"/>
</g>
<!-- supriya.commands.BufferAllocateRequest.BufferAllocateRequest&#45;&gt;supriya.commands.BufferAllocateReadRequest.BufferAllocateReadRequest -->
<g id="edge2" class="edge">
<title>supriya.commands.BufferAllocateRequest.BufferAllocateRequest&#45;&gt;supriya.commands.BufferAllocateReadRequest.BufferAllocateReadRequest</title>
<path fill="none" stroke="lightslategrey" d="M538.09,-48C546.07,-48 555.02,-48 563.57,-48"/>
<polygon fill="lightslategrey" stroke="lightslategrey" points="563.7,-51.5 573.7,-48 563.7,-44.5 563.7,-51.5"/>
</g>
<!-- supriya.commands.Request.Request&#45;&gt;supriya.commands.BufferAllocateRequest.BufferAllocateRequest -->
<g id="edge3" class="edge">
<title>supriya.commands.Request.Request&#45;&gt;supriya.commands.BufferAllocateRequest.BufferAllocateRequest</title>
<path fill="none" stroke="lightslategrey" d="M448.96,-48C457.38,-48 466.32,-48 474.7,-48"/>
<polygon fill="lightslategrey" stroke="lightslategrey" points="474.94,-51.5 484.94,-48 474.94,-44.5 474.94,-51.5"/>
</g>
<!-- supriya.commands.Requestable.Requestable&#45;&gt;supriya.commands.Request.Request -->
<g id="edge4" class="edge">
<title>supriya.commands.Requestable.Requestable&#45;&gt;supriya.commands.Request.Request</title>
<path fill="none" stroke="lightslategrey" d="M338.23,-48C346.3,-48 355.02,-48 363.52,-48"/>
<polygon fill="lightslategrey" stroke="lightslategrey" points="363.71,-51.5 373.71,-48 363.71,-44.5 363.71,-51.5"/>
</g>
<!-- supriya.system.SupriyaObject&#45;&gt;supriya.system.SupriyaValueObject -->
<g id="edge5" class="edge">
<title>supriya.system.SupriyaObject&#45;&gt;supriya.system.SupriyaValueObject</title>
<path fill="none" stroke="lightslategrey" d="M145.3,-48C153.22,-48 162.17,-48 170.69,-48"/>
<polygon fill="lightslategrey" stroke="lightslategrey" points="170.76,-51.5 180.76,-48 170.76,-44.5 170.76,-51.5"/>
</g>
<!-- supriya.system.SupriyaValueObject&#45;&gt;supriya.commands.Requestable.Requestable -->
<g id="edge7" class="edge">
<title>supriya.system.SupriyaValueObject&#45;&gt;supriya.commands.Requestable.Requestable</title>
<path fill="none" stroke="lightslategrey" d="M231.34,-48C239.12,-48 248,-48 256.76,-48"/>
<polygon fill="lightslategrey" stroke="lightslategrey" points="256.92,-51.5 266.92,-48 256.92,-44.5 256.92,-51.5"/>
</g>
<!-- builtins.object -->
<g id="node1" class="node">
<title>builtins.object</title>
<g id="a_node1"><a xlink:href="https://docs.python.org/3/library/functions.html#object" xlink:title="object" target="_top">
<path fill="#fbb4ae" stroke="#fbb4ae" stroke-width="2" d="M52.67,-57.5C52.67,-57.5 22.33,-57.5 22.33,-57.5 19.17,-57.5 16,-54.33 16,-51.17 16,-51.17 16,-44.83 16,-44.83 16,-41.67 19.17,-38.5 22.33,-38.5 22.33,-38.5 52.67,-38.5 52.67,-38.5 55.83,-38.5 59,-41.67 59,-44.83 59,-44.83 59,-51.17 59,-51.17 59,-54.33 55.83,-57.5 52.67,-57.5"/>
<text text-anchor="middle" x="37.5" y="-45.5" font-family="Arial" font-size="10.00">object</text>
</a>
</g>
</g>
<!-- supriya.commands.BufferAllocateReadChannelRequest.BufferAllocateReadChannelRequest -->
<g id="node2" class="node">
<title>supriya.commands.BufferAllocateReadChannelRequest.BufferAllocateReadChannelRequest</title>
<g id="a_node2"><a xlink:href="../api/supriya/commands/BufferAllocateReadChannelRequest.html#supriya.commands.BufferAllocateReadChannelRequest.BufferAllocateReadChannelRequest" xlink:title="Buffer\nAllocate\nRead\nChannel\nRequest" target="_top">
<path fill="#b3cde3" stroke="#b3cde3" stroke-width="2" d="M703.95,-79.5C703.95,-79.5 674.95,-79.5 674.95,-79.5 668.95,-79.5 662.95,-73.5 662.95,-67.5 662.95,-67.5 662.95,-28.5 662.95,-28.5 662.95,-22.5 668.95,-16.5 674.95,-16.5 674.95,-16.5 703.95,-16.5 703.95,-16.5 709.95,-16.5 715.95,-22.5 715.95,-28.5 715.95,-28.5 715.95,-67.5 715.95,-67.5 715.95,-73.5 709.95,-79.5 703.95,-79.5"/>
<text text-anchor="middle" x="689.45" y="-67.5" font-family="Arial" font-size="10.00">Buffer</text>
<text text-anchor="middle" x="689.45" y="-56.5" font-family="Arial" font-size="10.00">Allocate</text>
<text text-anchor="middle" x="689.45" y="-45.5" font-family="Arial" font-size="10.00">Read</text>
<text text-anchor="middle" x="689.45" y="-34.5" font-family="Arial" font-size="10.00">Channel</text>
<text text-anchor="middle" x="689.45" y="-23.5" font-family="Arial" font-size="10.00">Request</text>
</a>
</g>
</g>
<!-- supriya.commands.BufferAllocateReadRequest.BufferAllocateReadRequest -->
<g id="node3" class="node">
<title>supriya.commands.BufferAllocateReadRequest.BufferAllocateReadRequest</title>
<g id="a_node3"><a xlink:href="../api/supriya/commands/BufferAllocateReadRequest.html#supriya.commands.BufferAllocateReadRequest.BufferAllocateReadRequest" xlink:title="Buffer\nAllocate\nRead\nRequest" target="_top">
<path fill="#b3cde3" stroke="#b3cde3" stroke-width="2" d="M614.95,-74C614.95,-74 585.95,-74 585.95,-74 579.95,-74 573.95,-68 573.95,-62 573.95,-62 573.95,-34 573.95,-34 573.95,-28 579.95,-22 585.95,-22 585.95,-22 614.95,-22 614.95,-22 620.95,-22 626.95,-28 626.95,-34 626.95,-34 626.95,-62 626.95,-62 626.95,-68 620.95,-74 614.95,-74"/>
<text text-anchor="middle" x="600.45" y="-62" font-family="Arial" font-size="10.00">Buffer</text>
<text text-anchor="middle" x="600.45" y="-51" font-family="Arial" font-size="10.00">Allocate</text>
<text text-anchor="middle" x="600.45" y="-40" font-family="Arial" font-size="10.00">Read</text>
<text text-anchor="middle" x="600.45" y="-29" font-family="Arial" font-size="10.00">Request</text>
</a>
</g>
</g>
<!-- supriya.commands.BufferAllocateRequest.BufferAllocateRequest -->
<g id="node4" class="node">
<title>supriya.commands.BufferAllocateRequest.BufferAllocateRequest</title>
<g id="a_node4"><a xlink:href="../api/supriya/commands/BufferAllocateRequest.html#supriya.commands.BufferAllocateRequest.BufferAllocateRequest" xlink:title="Buffer\nAllocate\nRequest" target="_top">
<path fill="black" stroke="black" stroke-width="2" d="M525.95,-68.5C525.95,-68.5 496.95,-68.5 496.95,-68.5 490.95,-68.5 484.95,-62.5 484.95,-56.5 484.95,-56.5 484.95,-39.5 484.95,-39.5 484.95,-33.5 490.95,-27.5 496.95,-27.5 496.95,-27.5 525.95,-27.5 525.95,-27.5 531.95,-27.5 537.95,-33.5 537.95,-39.5 537.95,-39.5 537.95,-56.5 537.95,-56.5 537.95,-62.5 531.95,-68.5 525.95,-68.5"/>
<text text-anchor="middle" x="511.45" y="-56.5" font-family="Arial" font-size="10.00" fill="white">Buffer</text>
<text text-anchor="middle" x="511.45" y="-45.5" font-family="Arial" font-size="10.00" fill="white">Allocate</text>
<text text-anchor="middle" x="511.45" y="-34.5" font-family="Arial" font-size="10.00" fill="white">Request</text>
</a>
</g>
</g>
<!-- supriya.commands.Request.Request -->
<g id="node5" class="node">
<title>supriya.commands.Request.Request</title>
<g id="a_node5"><a xlink:href="../api/supriya/commands/Request.html#supriya.commands.Request.Request" xlink:title="Request" target="_top">
<ellipse fill="none" stroke="#b3cde3" stroke-width="2" cx="411.48" cy="-48" rx="37.45" ry="13.37"/>
<text text-anchor="middle" x="411.48" y="-45.5" font-family="Arial" font-size="10.00">Request</text>
</a>
</g>
</g>
<!-- supriya.commands.Requestable.Requestable -->
<g id="node6" class="node">
<title>supriya.commands.Requestable.Requestable</title>
<g id="a_node6"><a xlink:href="../api/supriya/commands/Requestable.html#supriya.commands.Requestable.Requestable" xlink:title="Requestable" target="_top">
<path fill="#b3cde3" stroke="#b3cde3" stroke-width="2" d="M331.67,-57.5C331.67,-57.5 273.33,-57.5 273.33,-57.5 270.17,-57.5 267,-54.33 267,-51.17 267,-51.17 267,-44.83 267,-44.83 267,-41.67 270.17,-38.5 273.33,-38.5 273.33,-38.5 331.67,-38.5 331.67,-38.5 334.83,-38.5 338,-41.67 338,-44.83 338,-44.83 338,-51.17 338,-51.17 338,-54.33 334.83,-57.5 331.67,-57.5"/>
<text text-anchor="middle" x="302.5" y="-45.5" font-family="Arial" font-size="10.00">Requestable</text>
</a>
</g>
</g>
<!-- supriya.system.SupriyaObject -->
<g id="node7" class="node">
<title>supriya.system.SupriyaObject</title>
<g id="a_node7"><a xlink:href="../api/supriya/commands/../system.html#supriya.system.SupriyaObject" xlink:title="Supriya\nObject" target="_top">
<path fill="#ccebc5" stroke="#ccebc5" stroke-width="2" d="M135,-63C135,-63 105,-63 105,-63 100,-63 95,-58 95,-53 95,-53 95,-43 95,-43 95,-38 100,-33 105,-33 105,-33 135,-33 135,-33 140,-33 145,-38 145,-43 145,-43 145,-53 145,-53 145,-58 140,-63 135,-63"/>
<text text-anchor="middle" x="120" y="-51" font-family="Arial" font-size="10.00">Supriya</text>
<text text-anchor="middle" x="120" y="-40" font-family="Arial" font-size="10.00">Object</text>
</a>
</g>
</g>
<!-- supriya.system.SupriyaValueObject -->
<g id="node8" class="node">
<title>supriya.system.SupriyaValueObject</title>
<g id="a_node8"><a xlink:href="../api/supriya/commands/../system.html#supriya.system.SupriyaValueObject" xlink:title="Supriya\nValue\nObject" target="_top">
<path fill="#ccebc5" stroke="#ccebc5" stroke-width="2" d="M219,-68.5C219,-68.5 193,-68.5 193,-68.5 187,-68.5 181,-62.5 181,-56.5 181,-56.5 181,-39.5 181,-39.5 181,-33.5 187,-27.5 193,-27.5 193,-27.5 219,-27.5 219,-27.5 225,-27.5 231,-33.5 231,-39.5 231,-39.5 231,-56.5 231,-56.5 231,-62.5 225,-68.5 219,-68.5"/>
<text text-anchor="middle" x="206" y="-56.5" font-family="Arial" font-size="10.00">Supriya</text>
<text text-anchor="middle" x="206" y="-45.5" font-family="Arial" font-size="10.00">Value</text>
<text text-anchor="middle" x="206" y="-34.5" font-family="Arial" font-size="10.00">Object</text>
</a>
</g>
</g>
</g>
</svg>
