<?xml version="1.0" encoding="UTF-8" standalone="no"?>
<!DOCTYPE svg PUBLIC "-//W3C//DTD SVG 1.1//EN"
 "http://www.w3.org/Graphics/SVG/1.1/DTD/svg11.dtd">
<!-- Generated by graphviz version 2.40.1 (20161225.0304)
 -->
<!-- Title: InheritanceGraph Pages: 1 -->
<svg width="564pt" height="270pt"
 viewBox="0.00 0.00 563.91 270.00" xmlns="http://www.w3.org/2000/svg" xmlns:xlink="http://www.w3.org/1999/xlink">
<g id="graph0" class="graph" transform="scale(1 1) rotate(0) translate(4 266)">
<title>InheritanceGraph</title>
<g id="clust1" class="cluster">
<title>cluster_builtins</title>
<path fill="transparent" stroke="#bcd2ee" stroke-width="2" stroke-dasharray="5,2" d="M20,-188C20,-188 49,-188 49,-188 55,-188 61,-194 61,-200 61,-200 61,-231 61,-231 61,-237 55,-243 49,-243 49,-243 20,-243 20,-243 14,-243 8,-237 8,-231 8,-231 8,-200 8,-200 8,-194 14,-188 20,-188"/>
<text text-anchor="middle" x="34.5" y="-231" font-family="Arial" font-size="10.00" fill="#000000">builtins</text>
</g>
<g id="clust2" class="cluster">
<title>cluster_supriya.daw</title>
<path fill="transparent" stroke="#bcd2ee" stroke-width="2" stroke-dasharray="5,2" d="M257,-8C257,-8 535.9117,-8 535.9117,-8 541.9117,-8 547.9117,-14 547.9117,-20 547.9117,-20 547.9117,-157 547.9117,-157 547.9117,-163 541.9117,-169 535.9117,-169 535.9117,-169 257,-169 257,-169 251,-169 245,-163 245,-157 245,-157 245,-20 245,-20 245,-14 251,-8 257,-8"/>
<text text-anchor="middle" x="396.4558" y="-157" font-family="Arial" font-size="10.00" fill="#000000">supriya.daw</text>
</g>
<g id="clust3" class="cluster">
<title>cluster_uqbar.containers</title>
<path fill="transparent" stroke="#bcd2ee" stroke-width="2" stroke-dasharray="5,2" d="M93,-177C93,-177 286,-177 286,-177 292,-177 298,-183 298,-189 298,-189 298,-242 298,-242 298,-248 292,-254 286,-254 286,-254 93,-254 93,-254 87,-254 81,-248 81,-242 81,-242 81,-189 81,-189 81,-183 87,-177 93,-177"/>
<text text-anchor="middle" x="189.5" y="-242" font-family="Arial" font-size="10.00" fill="#000000">uqbar.containers</text>
</g>
<!-- builtins.object&#45;&gt;uqbar.containers.UniqueTreeNode.UniqueTreeNode -->
<g id="edge8" class="edge">
<title>builtins.object&#45;&gt;uqbar.containers.UniqueTreeNode.UniqueTreeNode</title>
<path fill="none" stroke="#778899" d="M53.2995,-206C61.0221,-206 70.1602,-206 78.7776,-206"/>
<polygon fill="#778899" stroke="#778899" points="78.9006,-209.5001 88.9006,-206 78.9005,-202.5001 78.9006,-209.5001"/>
</g>
<!-- supriya.daw.AudioChain.AudioChain&#45;&gt;supriya.daw.ReturnChain.ReturnChain -->
<g id="edge1" class="edge">
<title>supriya.daw.AudioChain.AudioChain&#45;&gt;supriya.daw.ReturnChain.ReturnChain</title>
<path fill="none" stroke="#778899" d="M456.9992,-31C466.8077,-31 479.1847,-31 490.3949,-31"/>
<polygon fill="#778899" stroke="#778899" points="490.6633,-34.5001 500.6633,-31 490.6633,-27.5001 490.6633,-34.5001"/>
</g>
<!-- supriya.daw.Chain.Chain&#45;&gt;supriya.daw.AudioChain.AudioChain -->
<g id="edge2" class="edge">
<title>supriya.daw.Chain.Chain&#45;&gt;supriya.daw.AudioChain.AudioChain</title>
<path fill="none" stroke="#778899" d="M361.464,-114.3796C373.2862,-99.6881 393.7718,-74.8986 412.9117,-55 413.4387,-54.4521 413.9755,-53.9011 414.5199,-53.3486"/>
<polygon fill="#778899" stroke="#778899" points="417.129,-55.6932 421.8497,-46.2081 412.2444,-50.6791 417.129,-55.6932"/>
</g>
<!-- supriya.daw.Chain.Chain&#45;&gt;supriya.daw.InstrumentChain.InstrumentChain -->
<g id="edge3" class="edge">
<title>supriya.daw.Chain.Chain&#45;&gt;supriya.daw.InstrumentChain.InstrumentChain</title>
<path fill="none" stroke="#778899" d="M369.1538,-117.2865C379.0972,-111.8291 391.8639,-104.8221 403.7513,-98.2977"/>
<polygon fill="#778899" stroke="#778899" points="405.5267,-101.3159 412.6091,-93.4362 402.1586,-95.1794 405.5267,-101.3159"/>
</g>
<!-- supriya.daw.Chain.Chain&#45;&gt;supriya.daw.MidiChain.MidiChain -->
<g id="edge4" class="edge">
<title>supriya.daw.Chain.Chain&#45;&gt;supriya.daw.MidiChain.MidiChain</title>
<path fill="none" stroke="#778899" d="M377.2225,-127C387.7278,-127 399.9072,-127 410.655,-127"/>
<polygon fill="#778899" stroke="#778899" points="410.8107,-130.5001 420.8107,-127 410.8106,-123.5001 410.8107,-130.5001"/>
</g>
<!-- supriya.daw.DawNode.DawNode&#45;&gt;supriya.daw.Chain.Chain -->
<g id="edge5" class="edge">
<title>supriya.daw.DawNode.DawNode&#45;&gt;supriya.daw.Chain.Chain</title>
<path fill="none" stroke="#778899" d="M287.2747,-127C295.5932,-127 305.8918,-127 315.786,-127"/>
<polygon fill="#778899" stroke="#778899" points="315.8504,-130.5001 325.8504,-127 315.8503,-123.5001 315.8504,-130.5001"/>
</g>
<!-- uqbar.containers.UniqueTreeContainer.UniqueTreeContainer&#45;&gt;uqbar.containers.UniqueTreeTuple.UniqueTreeTuple -->
<g id="edge6" class="edge">
<title>uqbar.containers.UniqueTreeContainer.UniqueTreeContainer&#45;&gt;uqbar.containers.UniqueTreeTuple.UniqueTreeTuple</title>
<path fill="none" stroke="#778899" d="M214.0901,-206C222.1527,-206 231.2086,-206 239.6459,-206"/>
<polygon fill="#778899" stroke="#778899" points="239.8812,-209.5001 249.8811,-206 239.8811,-202.5001 239.8812,-209.5001"/>
</g>
<!-- uqbar.containers.UniqueTreeNode.UniqueTreeNode&#45;&gt;supriya.daw.DawNode.DawNode -->
<g id="edge9" class="edge">
<title>uqbar.containers.UniqueTreeNode.UniqueTreeNode&#45;&gt;supriya.daw.DawNode.DawNode</title>
<path fill="none" stroke="#778899" d="M129.135,-195.3664C139.759,-189.8082 153.0379,-182.9434 165,-177 191.6563,-163.7558 222.432,-149.1843 243.7428,-139.2062"/>
<polygon fill="#778899" stroke="#778899" points="245.2406,-142.3697 252.8195,-134.9662 242.2779,-136.0275 245.2406,-142.3697"/>
</g>
<!-- uqbar.containers.UniqueTreeNode.UniqueTreeNode&#45;&gt;uqbar.containers.UniqueTreeContainer.UniqueTreeContainer -->
<g id="edge7" class="edge">
<title>uqbar.containers.UniqueTreeNode.UniqueTreeNode&#45;&gt;uqbar.containers.UniqueTreeContainer.UniqueTreeContainer</title>
<path fill="none" stroke="#778899" d="M129.3135,-206C136.9959,-206 145.9745,-206 154.617,-206"/>
<polygon fill="#778899" stroke="#778899" points="154.8826,-209.5001 164.8825,-206 154.8825,-202.5001 154.8826,-209.5001"/>
</g>
<!-- uqbar.containers.UniqueTreeTuple.UniqueTreeTuple&#45;&gt;supriya.daw.Chain.Chain -->
<g id="edge10" class="edge">
<title>uqbar.containers.UniqueTreeTuple.UniqueTreeTuple&#45;&gt;supriya.daw.Chain.Chain</title>
<path fill="none" stroke="#778899" d="M290.1352,-186.4719C302.7759,-174.2122 319.0082,-158.4693 331.5963,-146.2608"/>
<polygon fill="#778899" stroke="#778899" points="334.1568,-148.6532 338.8985,-139.1787 329.2833,-143.6283 334.1568,-148.6532"/>
</g>
<!-- builtins.object -->
<g id="node1" class="node">
<title>builtins.object</title>
<g id="a_node1"><a xlink:href="https://docs.python.org/3.6/library/functions.html#object" xlink:title="object" target="_top">
<path fill="#fbb4ae" stroke="#fbb4ae" stroke-width="2" d="M46.6667,-215.5C46.6667,-215.5 22.3333,-215.5 22.3333,-215.5 19.1667,-215.5 16,-212.3333 16,-209.1667 16,-209.1667 16,-202.8333 16,-202.8333 16,-199.6667 19.1667,-196.5 22.3333,-196.5 22.3333,-196.5 46.6667,-196.5 46.6667,-196.5 49.8333,-196.5 53,-199.6667 53,-202.8333 53,-202.8333 53,-209.1667 53,-209.1667 53,-212.3333 49.8333,-215.5 46.6667,-215.5"/>
<text text-anchor="middle" x="34.5" y="-203.5" font-family="Arial" font-size="10.00" fill="#000000">object</text>
</a>
</g>
</g>
<!-- supriya.daw.AudioChain.AudioChain -->
<g id="node2" class="node">
<title>supriya.daw.AudioChain.AudioChain</title>
<g id="a_node2"><a xlink:href="../api/supriya/daw/AudioChain.html#supriya.daw.AudioChain.AudioChain" xlink:title="Audio\nChain" target="_top">
<path fill="#b3cde3" stroke="#b3cde3" stroke-width="2" d="M446.9117,-46C446.9117,-46 430.9117,-46 430.9117,-46 425.9117,-46 420.9117,-41 420.9117,-36 420.9117,-36 420.9117,-26 420.9117,-26 420.9117,-21 425.9117,-16 430.9117,-16 430.9117,-16 446.9117,-16 446.9117,-16 451.9117,-16 456.9117,-21 456.9117,-26 456.9117,-26 456.9117,-36 456.9117,-36 456.9117,-41 451.9117,-46 446.9117,-46"/>
<text text-anchor="middle" x="438.9117" y="-34" font-family="Arial" font-size="10.00" fill="#000000">Audio</text>
<text text-anchor="middle" x="438.9117" y="-23" font-family="Arial" font-size="10.00" fill="#000000">Chain</text>
</a>
</g>
</g>
<!-- supriya.daw.Chain.Chain -->
<g id="node3" class="node">
<title>supriya.daw.Chain.Chain</title>
<g id="a_node3"><a xlink:href="../api/supriya/daw/Chain.html#supriya.daw.Chain.Chain" xlink:title="Chain" target="_top">
<ellipse fill="#000000" stroke="#000000" stroke-width="2" cx="351.4558" cy="-127" rx="25.4118" ry="13.3704"/>
<text text-anchor="middle" x="351.4558" y="-124.5" font-family="Arial" font-size="10.00" fill="#ffffff">Chain</text>
</a>
</g>
</g>
<!-- supriya.daw.DawNode.DawNode -->
<g id="node4" class="node">
<title>supriya.daw.DawNode.DawNode</title>
<g id="a_node4"><a xlink:href="../api/supriya/daw/DawNode.html#supriya.daw.DawNode.DawNode" xlink:title="Daw\nNode" target="_top">
<path fill="#b3cde3" stroke="#b3cde3" stroke-width="2" d="M277,-142C277,-142 263,-142 263,-142 258,-142 253,-137 253,-132 253,-132 253,-122 253,-122 253,-117 258,-112 263,-112 263,-112 277,-112 277,-112 282,-112 287,-117 287,-122 287,-122 287,-132 287,-132 287,-137 282,-142 277,-142"/>
<text text-anchor="middle" x="270" y="-130" font-family="Arial" font-size="10.00" fill="#000000">Daw</text>
<text text-anchor="middle" x="270" y="-119" font-family="Arial" font-size="10.00" fill="#000000">Node</text>
</a>
</g>
</g>
<!-- supriya.daw.InstrumentChain.InstrumentChain -->
<g id="node5" class="node">
<title>supriya.daw.InstrumentChain.InstrumentChain</title>
<g id="a_node5"><a xlink:href="../api/supriya/daw/InstrumentChain.html#supriya.daw.InstrumentChain.InstrumentChain" xlink:title="Instrument\nChain" target="_top">
<path fill="#b3cde3" stroke="#b3cde3" stroke-width="2" d="M454.9117,-94C454.9117,-94 422.9117,-94 422.9117,-94 417.9117,-94 412.9117,-89 412.9117,-84 412.9117,-84 412.9117,-74 412.9117,-74 412.9117,-69 417.9117,-64 422.9117,-64 422.9117,-64 454.9117,-64 454.9117,-64 459.9117,-64 464.9117,-69 464.9117,-74 464.9117,-74 464.9117,-84 464.9117,-84 464.9117,-89 459.9117,-94 454.9117,-94"/>
<text text-anchor="middle" x="438.9117" y="-82" font-family="Arial" font-size="10.00" fill="#000000">Instrument</text>
<text text-anchor="middle" x="438.9117" y="-71" font-family="Arial" font-size="10.00" fill="#000000">Chain</text>
</a>
</g>
</g>
<!-- supriya.daw.MidiChain.MidiChain -->
<g id="node6" class="node">
<title>supriya.daw.MidiChain.MidiChain</title>
<g id="a_node6"><a xlink:href="../api/supriya/daw/MidiChain.html#supriya.daw.MidiChain.MidiChain" xlink:title="Midi\nChain" target="_top">
<path fill="#b3cde3" stroke="#b3cde3" stroke-width="2" d="M446.9117,-142C446.9117,-142 430.9117,-142 430.9117,-142 425.9117,-142 420.9117,-137 420.9117,-132 420.9117,-132 420.9117,-122 420.9117,-122 420.9117,-117 425.9117,-112 430.9117,-112 430.9117,-112 446.9117,-112 446.9117,-112 451.9117,-112 456.9117,-117 456.9117,-122 456.9117,-122 456.9117,-132 456.9117,-132 456.9117,-137 451.9117,-142 446.9117,-142"/>
<text text-anchor="middle" x="438.9117" y="-130" font-family="Arial" font-size="10.00" fill="#000000">Midi</text>
<text text-anchor="middle" x="438.9117" y="-119" font-family="Arial" font-size="10.00" fill="#000000">Chain</text>
</a>
</g>
</g>
<!-- supriya.daw.ReturnChain.ReturnChain -->
<g id="node7" class="node">
<title>supriya.daw.ReturnChain.ReturnChain</title>
<g id="a_node7"><a xlink:href="../api/supriya/daw/ReturnChain.html#supriya.daw.ReturnChain.ReturnChain" xlink:title="Return\nChain" target="_top">
<path fill="#b3cde3" stroke="#b3cde3" stroke-width="2" d="M529.9117,-46C529.9117,-46 510.9117,-46 510.9117,-46 505.9117,-46 500.9117,-41 500.9117,-36 500.9117,-36 500.9117,-26 500.9117,-26 500.9117,-21 505.9117,-16 510.9117,-16 510.9117,-16 529.9117,-16 529.9117,-16 534.9117,-16 539.9117,-21 539.9117,-26 539.9117,-26 539.9117,-36 539.9117,-36 539.9117,-41 534.9117,-46 529.9117,-46"/>
<text text-anchor="middle" x="520.4117" y="-34" font-family="Arial" font-size="10.00" fill="#000000">Return</text>
<text text-anchor="middle" x="520.4117" y="-23" font-family="Arial" font-size="10.00" fill="#000000">Chain</text>
</a>
</g>
</g>
<!-- uqbar.containers.UniqueTreeContainer.UniqueTreeContainer -->
<g id="node8" class="node">
<title>uqbar.containers.UniqueTreeContainer.UniqueTreeContainer</title>
<path fill="#ccebc5" stroke="#ccebc5" stroke-width="2" d="M202,-226.5C202,-226.5 177,-226.5 177,-226.5 171,-226.5 165,-220.5 165,-214.5 165,-214.5 165,-197.5 165,-197.5 165,-191.5 171,-185.5 177,-185.5 177,-185.5 202,-185.5 202,-185.5 208,-185.5 214,-191.5 214,-197.5 214,-197.5 214,-214.5 214,-214.5 214,-220.5 208,-226.5 202,-226.5"/>
<text text-anchor="middle" x="189.5" y="-214.5" font-family="Arial" font-size="10.00" fill="#000000">Unique</text>
<text text-anchor="middle" x="189.5" y="-203.5" font-family="Arial" font-size="10.00" fill="#000000">Tree</text>
<text text-anchor="middle" x="189.5" y="-192.5" font-family="Arial" font-size="10.00" fill="#000000">Container</text>
</g>
<!-- uqbar.containers.UniqueTreeNode.UniqueTreeNode -->
<g id="node9" class="node">
<title>uqbar.containers.UniqueTreeNode.UniqueTreeNode</title>
<path fill="#ccebc5" stroke="#ccebc5" stroke-width="2" d="M117,-226.5C117,-226.5 101,-226.5 101,-226.5 95,-226.5 89,-220.5 89,-214.5 89,-214.5 89,-197.5 89,-197.5 89,-191.5 95,-185.5 101,-185.5 101,-185.5 117,-185.5 117,-185.5 123,-185.5 129,-191.5 129,-197.5 129,-197.5 129,-214.5 129,-214.5 129,-220.5 123,-226.5 117,-226.5"/>
<text text-anchor="middle" x="109" y="-214.5" font-family="Arial" font-size="10.00" fill="#000000">Unique</text>
<text text-anchor="middle" x="109" y="-203.5" font-family="Arial" font-size="10.00" fill="#000000">Tree</text>
<text text-anchor="middle" x="109" y="-192.5" font-family="Arial" font-size="10.00" fill="#000000">Node</text>
</g>
<!-- uqbar.containers.UniqueTreeTuple.UniqueTreeTuple -->
<g id="node10" class="node">
<title>uqbar.containers.UniqueTreeTuple.UniqueTreeTuple</title>
<path fill="#ccebc5" stroke="#ccebc5" stroke-width="2" d="M278,-226.5C278,-226.5 262,-226.5 262,-226.5 256,-226.5 250,-220.5 250,-214.5 250,-214.5 250,-197.5 250,-197.5 250,-191.5 256,-185.5 262,-185.5 262,-185.5 278,-185.5 278,-185.5 284,-185.5 290,-191.5 290,-197.5 290,-197.5 290,-214.5 290,-214.5 290,-220.5 284,-226.5 278,-226.5"/>
<text text-anchor="middle" x="270" y="-214.5" font-family="Arial" font-size="10.00" fill="#000000">Unique</text>
<text text-anchor="middle" x="270" y="-203.5" font-family="Arial" font-size="10.00" fill="#000000">Tree</text>
<text text-anchor="middle" x="270" y="-192.5" font-family="Arial" font-size="10.00" fill="#000000">Tuple</text>
</g>
</g>
</svg>
