<?xml version="1.0" encoding="UTF-8" standalone="no"?>
<!DOCTYPE svg PUBLIC "-//W3C//DTD SVG 1.1//EN"
 "http://www.w3.org/Graphics/SVG/1.1/DTD/svg11.dtd">
<!-- Generated by graphviz version 2.44.1 (20200629.0846)
 -->
<!-- Title: InheritanceGraph Pages: 1 -->
<svg width="687pt" height="207pt"
 viewBox="0.00 0.00 686.79 206.95" xmlns="http://www.w3.org/2000/svg" xmlns:xlink="http://www.w3.org/1999/xlink">
<g id="graph0" class="graph" transform="scale(1 1) rotate(0) translate(4 202.95)">
<title>InheritanceGraph</title>
<g id="clust1" class="cluster">
<title>cluster_builtins</title>
<path fill="transparent" stroke="#bcd2ee" stroke-width="2" stroke-dasharray="5,2" d="M20,-121.95C20,-121.95 55,-121.95 55,-121.95 61,-121.95 67,-127.95 67,-133.95 67,-133.95 67,-164.95 67,-164.95 67,-170.95 61,-176.95 55,-176.95 55,-176.95 20,-176.95 20,-176.95 14,-176.95 8,-170.95 8,-164.95 8,-164.95 8,-133.95 8,-133.95 8,-127.95 14,-121.95 20,-121.95"/>
<text text-anchor="middle" x="37.5" y="-164.95" font-family="Arial" font-size="10.00">builtins</text>
</g>
<g id="clust2" class="cluster">
<title>cluster_supriya.synthdefs.bases</title>
<path fill="transparent" stroke="#bcd2ee" stroke-width="2" stroke-dasharray="5,2" d="M330,-26.95C330,-26.95 476.79,-26.95 476.79,-26.95 482.79,-26.95 488.79,-32.95 488.79,-38.95 488.79,-38.95 488.79,-107.95 488.79,-107.95 488.79,-113.95 482.79,-119.95 476.79,-119.95 476.79,-119.95 330,-119.95 330,-119.95 324,-119.95 318,-113.95 318,-107.95 318,-107.95 318,-38.95 318,-38.95 318,-32.95 324,-26.95 330,-26.95"/>
<text text-anchor="middle" x="403.4" y="-107.95" font-family="Arial" font-size="10.00">supriya.synthdefs.bases</text>
</g>
<g id="clust3" class="cluster">
<title>cluster_supriya.synthdefs.controls</title>
<path fill="transparent" stroke="#bcd2ee" stroke-width="2" stroke-dasharray="5,2" d="M520.79,-23.95C520.79,-23.95 658.79,-23.95 658.79,-23.95 664.79,-23.95 670.79,-29.95 670.79,-35.95 670.79,-35.95 670.79,-172.95 670.79,-172.95 670.79,-178.95 664.79,-184.95 658.79,-184.95 658.79,-184.95 520.79,-184.95 520.79,-184.95 514.79,-184.95 508.79,-178.95 508.79,-172.95 508.79,-172.95 508.79,-35.95 508.79,-35.95 508.79,-29.95 514.79,-23.95 520.79,-23.95"/>
<text text-anchor="middle" x="589.79" y="-172.95" font-family="Arial" font-size="10.00">supriya.synthdefs.controls</text>
</g>
<g id="clust4" class="cluster">
<title>cluster_supriya.synthdefs.mixins</title>
<path fill="transparent" stroke="#bcd2ee" stroke-width="2" stroke-dasharray="5,2" d="M185.5,-28.95C185.5,-28.95 286.5,-28.95 286.5,-28.95 292.5,-28.95 298.5,-34.95 298.5,-40.95 298.5,-40.95 298.5,-93.95 298.5,-93.95 298.5,-99.95 292.5,-105.95 286.5,-105.95 286.5,-105.95 185.5,-105.95 185.5,-105.95 179.5,-105.95 173.5,-99.95 173.5,-93.95 173.5,-93.95 173.5,-40.95 173.5,-40.95 173.5,-34.95 179.5,-28.95 185.5,-28.95"/>
<text text-anchor="middle" x="236" y="-93.95" font-family="Arial" font-size="10.00">supriya.synthdefs.mixins</text>
</g>
<g id="clust5" class="cluster">
<title>cluster_supriya.system</title>
<path fill="transparent" stroke="#bcd2ee" stroke-width="2" stroke-dasharray="5,2" d="M99,-113.95C99,-113.95 257,-113.95 257,-113.95 263,-113.95 269,-119.95 269,-125.95 269,-125.95 269,-178.95 269,-178.95 269,-184.95 263,-190.95 257,-190.95 257,-190.95 99,-190.95 99,-190.95 93,-190.95 87,-184.95 87,-178.95 87,-178.95 87,-125.95 87,-125.95 87,-119.95 93,-113.95 99,-113.95"/>
<text text-anchor="middle" x="178" y="-178.95" font-family="Arial" font-size="10.00">supriya.system</text>
</g>
<!-- builtins.object&#45;&gt;supriya.system.SupriyaObject -->
<g id="edge6" class="edge">
<title>builtins.object&#45;&gt;supriya.system.SupriyaObject</title>
<path fill="none" stroke="lightslategrey" d="M59.23,-139.95C66.98,-139.95 76,-139.95 84.66,-139.95"/>
<polygon fill="lightslategrey" stroke="lightslategrey" points="84.91,-143.45 94.91,-139.95 84.91,-136.45 84.91,-143.45"/>
</g>
<!-- supriya.synthdefs.bases.MultiOutUGen&#45;&gt;supriya.synthdefs.controls.Control -->
<g id="edge7" class="edge">
<title>supriya.synthdefs.bases.MultiOutUGen&#45;&gt;supriya.synthdefs.controls.Control</title>
<path fill="none" stroke="lightslategrey" d="M481.02,-64.86C491.3,-65.19 502.96,-65.56 513.57,-65.89"/>
<polygon fill="lightslategrey" stroke="lightslategrey" points="513.64,-69.4 523.74,-66.22 513.86,-62.4 513.64,-69.4"/>
</g>
<!-- supriya.synthdefs.bases.UGen&#45;&gt;supriya.synthdefs.bases.MultiOutUGen -->
<g id="edge1" class="edge">
<title>supriya.synthdefs.bases.UGen&#45;&gt;supriya.synthdefs.bases.MultiOutUGen</title>
<path fill="none" stroke="lightslategrey" d="M385.48,-61.87C393.56,-62.13 402.48,-62.42 411.05,-62.69"/>
<polygon fill="lightslategrey" stroke="lightslategrey" points="411.14,-66.2 421.25,-63.02 411.36,-59.2 411.14,-66.2"/>
</g>
<!-- supriya.synthdefs.controls.Control&#45;&gt;supriya.synthdefs.controls.AudioControl -->
<g id="edge2" class="edge">
<title>supriya.synthdefs.controls.Control&#45;&gt;supriya.synthdefs.controls.AudioControl</title>
<path fill="none" stroke="lightslategrey" d="M572.18,-61.69C582.09,-59.46 593.82,-56.83 604.61,-54.4"/>
<polygon fill="lightslategrey" stroke="lightslategrey" points="605.58,-57.77 614.57,-52.17 604.04,-50.94 605.58,-57.77"/>
</g>
<!-- supriya.synthdefs.controls.Control&#45;&gt;supriya.synthdefs.controls.LagControl -->
<g id="edge3" class="edge">
<title>supriya.synthdefs.controls.Control&#45;&gt;supriya.synthdefs.controls.LagControl</title>
<path fill="none" stroke="lightslategrey" d="M572.18,-74.3C582.19,-77.45 594.07,-81.19 604.94,-84.61"/>
<polygon fill="lightslategrey" stroke="lightslategrey" points="603.98,-87.98 614.57,-87.64 606.08,-81.3 603.98,-87.98"/>
</g>
<!-- supriya.synthdefs.controls.Control&#45;&gt;supriya.synthdefs.controls.TrigControl -->
<g id="edge4" class="edge">
<title>supriya.synthdefs.controls.Control&#45;&gt;supriya.synthdefs.controls.TrigControl</title>
<path fill="none" stroke="lightslategrey" d="M561.16,-76.62C566.62,-80.95 573.07,-86.14 578.79,-90.95 590.37,-100.67 602.98,-111.72 613.55,-121.12"/>
<polygon fill="lightslategrey" stroke="lightslategrey" points="611.4,-123.89 621.19,-127.94 616.06,-118.67 611.4,-123.89"/>
</g>
<!-- supriya.synthdefs.mixins.UGenMethodMixin&#45;&gt;supriya.synthdefs.bases.UGen -->
<g id="edge8" class="edge">
<title>supriya.synthdefs.mixins.UGenMethodMixin&#45;&gt;supriya.synthdefs.bases.UGen</title>
<path fill="none" stroke="lightslategrey" d="M260.54,-58.55C276.31,-58.95 297.46,-59.49 315.72,-59.95"/>
<polygon fill="lightslategrey" stroke="lightslategrey" points="315.7,-63.45 325.79,-60.21 315.88,-56.46 315.7,-63.45"/>
</g>
<!-- supriya.synthdefs.mixins.UGenMethodMixin&#45;&gt;supriya.synthdefs.controls.Parameter -->
<g id="edge9" class="edge">
<title>supriya.synthdefs.mixins.UGenMethodMixin&#45;&gt;supriya.synthdefs.controls.Parameter</title>
<path fill="none" stroke="lightslategrey" d="M260.51,-44.66C308.47,-19.52 418.98,28.14 488.79,-22.95 512.5,-40.29 490.62,-62.87 508.79,-85.95 511.01,-88.76 513.67,-91.31 516.54,-93.59"/>
<polygon fill="lightslategrey" stroke="lightslategrey" points="514.76,-96.62 525,-99.35 518.7,-90.83 514.76,-96.62"/>
</g>
<!-- supriya.system.SupriyaObject&#45;&gt;supriya.synthdefs.mixins.UGenMethodMixin -->
<g id="edge10" class="edge">
<title>supriya.system.SupriyaObject&#45;&gt;supriya.synthdefs.mixins.UGenMethodMixin</title>
<path fill="none" stroke="lightslategrey" d="M141.91,-124.91C159.04,-112.58 183.57,-94.94 203.14,-80.86"/>
<polygon fill="lightslategrey" stroke="lightslategrey" points="205.4,-83.55 211.47,-74.87 201.31,-77.87 205.4,-83.55"/>
</g>
<!-- supriya.system.SupriyaObject&#45;&gt;supriya.system.SupriyaValueObject -->
<g id="edge5" class="edge">
<title>supriya.system.SupriyaObject&#45;&gt;supriya.system.SupriyaValueObject</title>
<path fill="none" stroke="lightslategrey" d="M145.18,-140.58C161.35,-141.01 182.87,-141.57 200.79,-142.05"/>
<polygon fill="lightslategrey" stroke="lightslategrey" points="200.77,-145.55 210.86,-142.31 200.95,-138.55 200.77,-145.55"/>
</g>
<!-- supriya.system.SupriyaValueObject&#45;&gt;supriya.synthdefs.controls.Parameter -->
<g id="edge11" class="edge">
<title>supriya.system.SupriyaValueObject&#45;&gt;supriya.synthdefs.controls.Parameter</title>
<path fill="none" stroke="lightslategrey" d="M261.12,-142.55C306.16,-141.49 405.97,-137.67 488.79,-123.95 494.64,-122.98 500.77,-121.7 506.75,-120.29"/>
<polygon fill="lightslategrey" stroke="lightslategrey" points="507.75,-123.65 516.61,-117.84 506.06,-116.85 507.75,-123.65"/>
</g>
<!-- supriya.system.SupriyaValueObject&#45;&gt;supriya.synthdefs.controls.Range -->
<g id="edge12" class="edge">
<title>supriya.system.SupriyaValueObject&#45;&gt;supriya.synthdefs.controls.Range</title>
<path fill="none" stroke="lightslategrey" d="M261.04,-146.32C277.13,-148.41 298.79,-150.88 318,-151.95 393.79,-156.14 412.93,-154.56 488.79,-151.95 497.23,-151.66 506.35,-151.13 514.81,-150.55"/>
<polygon fill="lightslategrey" stroke="lightslategrey" points="515.33,-154.02 525.05,-149.8 514.83,-147.04 515.33,-154.02"/>
</g>
<!-- builtins.object -->
<g id="node1" class="node">
<title>builtins.object</title>
<g id="a_node1"><a xlink:href="https://docs.python.org/3/library/functions.html#object" xlink:title="object" target="_top">
<path fill="#fbb4ae" stroke="#fbb4ae" stroke-width="2" d="M52.67,-149.45C52.67,-149.45 22.33,-149.45 22.33,-149.45 19.17,-149.45 16,-146.28 16,-143.11 16,-143.11 16,-136.78 16,-136.78 16,-133.61 19.17,-130.45 22.33,-130.45 22.33,-130.45 52.67,-130.45 52.67,-130.45 55.83,-130.45 59,-133.61 59,-136.78 59,-136.78 59,-143.11 59,-143.11 59,-146.28 55.83,-149.45 52.67,-149.45"/>
<text text-anchor="middle" x="37.5" y="-137.45" font-family="Arial" font-size="10.00">object</text>
</a>
</g>
</g>
<!-- supriya.synthdefs.bases.MultiOutUGen -->
<g id="node2" class="node">
<title>supriya.synthdefs.bases.MultiOutUGen</title>
<g id="a_node2"><a xlink:href="../api/supriya/synthdefs/bases.html#supriya.synthdefs.bases.MultiOutUGen" xlink:title="Multi\nOut\nUGen" target="_top">
<ellipse fill="none" stroke="#b3cde3" stroke-width="2" cx="451.1" cy="-63.95" rx="29.9" ry="28.98"/>
<text text-anchor="middle" x="451.1" y="-72.45" font-family="Arial" font-size="10.00">Multi</text>
<text text-anchor="middle" x="451.1" y="-61.45" font-family="Arial" font-size="10.00">Out</text>
<text text-anchor="middle" x="451.1" y="-50.45" font-family="Arial" font-size="10.00">UGen</text>
</a>
</g>
</g>
<!-- supriya.synthdefs.bases.UGen -->
<g id="node3" class="node">
<title>supriya.synthdefs.bases.UGen</title>
<g id="a_node3"><a xlink:href="../api/supriya/synthdefs/bases.html#supriya.synthdefs.bases.UGen" xlink:title="UGen" target="_top">
<ellipse fill="none" stroke="#b3cde3" stroke-width="2" cx="355.7" cy="-60.95" rx="29.9" ry="13.37"/>
<text text-anchor="middle" x="355.7" y="-58.45" font-family="Arial" font-size="10.00">UGen</text>
</a>
</g>
</g>
<!-- supriya.synthdefs.controls.AudioControl -->
<g id="node4" class="node">
<title>supriya.synthdefs.controls.AudioControl</title>
<g id="a_node4"><a xlink:href="../api/supriya/synthdefs/controls.html#supriya.synthdefs.controls.AudioControl" xlink:title="Audio\nControl" target="_top">
<path fill="black" stroke="black" stroke-width="2" d="M652.79,-61.95C652.79,-61.95 624.79,-61.95 624.79,-61.95 619.79,-61.95 614.79,-56.95 614.79,-51.95 614.79,-51.95 614.79,-41.95 614.79,-41.95 614.79,-36.95 619.79,-31.95 624.79,-31.95 624.79,-31.95 652.79,-31.95 652.79,-31.95 657.79,-31.95 662.79,-36.95 662.79,-41.95 662.79,-41.95 662.79,-51.95 662.79,-51.95 662.79,-56.95 657.79,-61.95 652.79,-61.95"/>
<text text-anchor="middle" x="638.79" y="-49.95" font-family="Arial" font-size="10.00" fill="white">Audio</text>
<text text-anchor="middle" x="638.79" y="-38.95" font-family="Arial" font-size="10.00" fill="white">Control</text>
</a>
</g>
</g>
<!-- supriya.synthdefs.controls.Control -->
<g id="node5" class="node">
<title>supriya.synthdefs.controls.Control</title>
<g id="a_node5"><a xlink:href="../api/supriya/synthdefs/controls.html#supriya.synthdefs.controls.Control" xlink:title="Control" target="_top">
<path fill="black" stroke="black" stroke-width="2" d="M565.46,-76.45C565.46,-76.45 530.13,-76.45 530.13,-76.45 526.96,-76.45 523.79,-73.28 523.79,-70.11 523.79,-70.11 523.79,-63.78 523.79,-63.78 523.79,-60.61 526.96,-57.45 530.13,-57.45 530.13,-57.45 565.46,-57.45 565.46,-57.45 568.63,-57.45 571.79,-60.61 571.79,-63.78 571.79,-63.78 571.79,-70.11 571.79,-70.11 571.79,-73.28 568.63,-76.45 565.46,-76.45"/>
<text text-anchor="middle" x="547.79" y="-64.45" font-family="Arial" font-size="10.00" fill="white">Control</text>
</a>
</g>
</g>
<!-- supriya.synthdefs.controls.LagControl -->
<g id="node6" class="node">
<title>supriya.synthdefs.controls.LagControl</title>
<g id="a_node6"><a xlink:href="../api/supriya/synthdefs/controls.html#supriya.synthdefs.controls.LagControl" xlink:title="Lag\nControl" target="_top">
<path fill="black" stroke="black" stroke-width="2" d="M652.79,-109.95C652.79,-109.95 624.79,-109.95 624.79,-109.95 619.79,-109.95 614.79,-104.95 614.79,-99.95 614.79,-99.95 614.79,-89.95 614.79,-89.95 614.79,-84.95 619.79,-79.95 624.79,-79.95 624.79,-79.95 652.79,-79.95 652.79,-79.95 657.79,-79.95 662.79,-84.95 662.79,-89.95 662.79,-89.95 662.79,-99.95 662.79,-99.95 662.79,-104.95 657.79,-109.95 652.79,-109.95"/>
<text text-anchor="middle" x="638.79" y="-97.95" font-family="Arial" font-size="10.00" fill="white">Lag</text>
<text text-anchor="middle" x="638.79" y="-86.95" font-family="Arial" font-size="10.00" fill="white">Control</text>
</a>
</g>
</g>
<!-- supriya.synthdefs.controls.Parameter -->
<g id="node7" class="node">
<title>supriya.synthdefs.controls.Parameter</title>
<g id="a_node7"><a xlink:href="../api/supriya/synthdefs/controls.html#supriya.synthdefs.controls.Parameter" xlink:title="Parameter" target="_top">
<path fill="black" stroke="black" stroke-width="2" d="M572.46,-118.45C572.46,-118.45 523.13,-118.45 523.13,-118.45 519.96,-118.45 516.79,-115.28 516.79,-112.11 516.79,-112.11 516.79,-105.78 516.79,-105.78 516.79,-102.61 519.96,-99.45 523.13,-99.45 523.13,-99.45 572.46,-99.45 572.46,-99.45 575.63,-99.45 578.79,-102.61 578.79,-105.78 578.79,-105.78 578.79,-112.11 578.79,-112.11 578.79,-115.28 575.63,-118.45 572.46,-118.45"/>
<text text-anchor="middle" x="547.79" y="-106.45" font-family="Arial" font-size="10.00" fill="white">Parameter</text>
</a>
</g>
</g>
<!-- supriya.synthdefs.controls.Range -->
<g id="node8" class="node">
<title>supriya.synthdefs.controls.Range</title>
<g id="a_node8"><a xlink:href="../api/supriya/synthdefs/controls.html#supriya.synthdefs.controls.Range" xlink:title="Range" target="_top">
<path fill="black" stroke="black" stroke-width="2" d="M563.96,-157.45C563.96,-157.45 531.63,-157.45 531.63,-157.45 528.46,-157.45 525.29,-154.28 525.29,-151.11 525.29,-151.11 525.29,-144.78 525.29,-144.78 525.29,-141.61 528.46,-138.45 531.63,-138.45 531.63,-138.45 563.96,-138.45 563.96,-138.45 567.13,-138.45 570.29,-141.61 570.29,-144.78 570.29,-144.78 570.29,-151.11 570.29,-151.11 570.29,-154.28 567.13,-157.45 563.96,-157.45"/>
<text text-anchor="middle" x="547.79" y="-145.45" font-family="Arial" font-size="10.00" fill="white">Range</text>
</a>
</g>
</g>
<!-- supriya.synthdefs.controls.TrigControl -->
<g id="node9" class="node">
<title>supriya.synthdefs.controls.TrigControl</title>
<g id="a_node9"><a xlink:href="../api/supriya/synthdefs/controls.html#supriya.synthdefs.controls.TrigControl" xlink:title="Trig\nControl" target="_top">
<path fill="black" stroke="black" stroke-width="2" d="M652.79,-157.95C652.79,-157.95 624.79,-157.95 624.79,-157.95 619.79,-157.95 614.79,-152.95 614.79,-147.95 614.79,-147.95 614.79,-137.95 614.79,-137.95 614.79,-132.95 619.79,-127.95 624.79,-127.95 624.79,-127.95 652.79,-127.95 652.79,-127.95 657.79,-127.95 662.79,-132.95 662.79,-137.95 662.79,-137.95 662.79,-147.95 662.79,-147.95 662.79,-152.95 657.79,-157.95 652.79,-157.95"/>
<text text-anchor="middle" x="638.79" y="-145.95" font-family="Arial" font-size="10.00" fill="white">Trig</text>
<text text-anchor="middle" x="638.79" y="-134.95" font-family="Arial" font-size="10.00" fill="white">Control</text>
</a>
</g>
</g>
<!-- supriya.synthdefs.mixins.UGenMethodMixin -->
<g id="node10" class="node">
<title>supriya.synthdefs.mixins.UGenMethodMixin</title>
<g id="a_node10"><a xlink:href="../api/supriya/synthdefs/mixins.html#supriya.synthdefs.mixins.UGenMethodMixin" xlink:title="UGen\nMethod\nMixin" target="_top">
<path fill="#decbe4" stroke="#decbe4" stroke-width="2" d="M248.5,-78.45C248.5,-78.45 223.5,-78.45 223.5,-78.45 217.5,-78.45 211.5,-72.45 211.5,-66.45 211.5,-66.45 211.5,-49.45 211.5,-49.45 211.5,-43.45 217.5,-37.45 223.5,-37.45 223.5,-37.45 248.5,-37.45 248.5,-37.45 254.5,-37.45 260.5,-43.45 260.5,-49.45 260.5,-49.45 260.5,-66.45 260.5,-66.45 260.5,-72.45 254.5,-78.45 248.5,-78.45"/>
<text text-anchor="middle" x="236" y="-66.45" font-family="Arial" font-size="10.00">UGen</text>
<text text-anchor="middle" x="236" y="-55.45" font-family="Arial" font-size="10.00">Method</text>
<text text-anchor="middle" x="236" y="-44.45" font-family="Arial" font-size="10.00">Mixin</text>
</a>
</g>
</g>
<!-- supriya.system.SupriyaObject -->
<g id="node11" class="node">
<title>supriya.system.SupriyaObject</title>
<g id="a_node11"><a xlink:href="../api/supriya/synthdefs/../system.html#supriya.system.SupriyaObject" xlink:title="Supriya\nObject" target="_top">
<path fill="#fed9a6" stroke="#fed9a6" stroke-width="2" d="M135,-154.95C135,-154.95 105,-154.95 105,-154.95 100,-154.95 95,-149.95 95,-144.95 95,-144.95 95,-134.95 95,-134.95 95,-129.95 100,-124.95 105,-124.95 105,-124.95 135,-124.95 135,-124.95 140,-124.95 145,-129.95 145,-134.95 145,-134.95 145,-144.95 145,-144.95 145,-149.95 140,-154.95 135,-154.95"/>
<text text-anchor="middle" x="120" y="-142.95" font-family="Arial" font-size="10.00">Supriya</text>
<text text-anchor="middle" x="120" y="-131.95" font-family="Arial" font-size="10.00">Object</text>
</a>
</g>
</g>
<!-- supriya.system.SupriyaValueObject -->
<g id="node12" class="node">
<title>supriya.system.SupriyaValueObject</title>
<g id="a_node12"><a xlink:href="../api/supriya/synthdefs/../system.html#supriya.system.SupriyaValueObject" xlink:title="Supriya\nValue\nObject" target="_top">
<path fill="#fed9a6" stroke="#fed9a6" stroke-width="2" d="M249,-163.45C249,-163.45 223,-163.45 223,-163.45 217,-163.45 211,-157.45 211,-151.45 211,-151.45 211,-134.45 211,-134.45 211,-128.45 217,-122.45 223,-122.45 223,-122.45 249,-122.45 249,-122.45 255,-122.45 261,-128.45 261,-134.45 261,-134.45 261,-151.45 261,-151.45 261,-157.45 255,-163.45 249,-163.45"/>
<text text-anchor="middle" x="236" y="-151.45" font-family="Arial" font-size="10.00">Supriya</text>
<text text-anchor="middle" x="236" y="-140.45" font-family="Arial" font-size="10.00">Value</text>
<text text-anchor="middle" x="236" y="-129.45" font-family="Arial" font-size="10.00">Object</text>
</a>
</g>
</g>
</g>
</svg>
