<?xml version="1.0" encoding="UTF-8" standalone="no"?>
<!DOCTYPE svg PUBLIC "-//W3C//DTD SVG 1.1//EN"
 "http://www.w3.org/Graphics/SVG/1.1/DTD/svg11.dtd">
<!-- Generated by graphviz version 2.40.1 (20161225.0304)
 -->
<!-- Title: InheritanceGraph Pages: 1 -->
<svg width="583pt" height="319pt"
 viewBox="0.00 0.00 583.00 319.00" xmlns="http://www.w3.org/2000/svg" xmlns:xlink="http://www.w3.org/1999/xlink">
<g id="graph0" class="graph" transform="scale(1 1) rotate(0) translate(4 315)">
<title>InheritanceGraph</title>
<g id="clust1" class="cluster">
<title>cluster_builtins</title>
<path fill="transparent" stroke="#bcd2ee" stroke-width="2" stroke-dasharray="5,2" d="M20,-175C20,-175 116.5,-175 116.5,-175 122.5,-175 128.5,-181 128.5,-187 128.5,-187 128.5,-218 128.5,-218 128.5,-224 122.5,-230 116.5,-230 116.5,-230 20,-230 20,-230 14,-230 8,-224 8,-218 8,-218 8,-187 8,-187 8,-181 14,-175 20,-175"/>
<text text-anchor="middle" x="68.25" y="-218" font-family="Arial" font-size="10.00" fill="#000000">builtins</text>
</g>
<g id="clust2" class="cluster">
<title>cluster_enum</title>
<path fill="transparent" stroke="#bcd2ee" stroke-width="2" stroke-dasharray="5,2" d="M170,-139C170,-139 272,-139 272,-139 278,-139 284,-145 284,-151 284,-151 284,-192 284,-192 284,-198 278,-204 272,-204 272,-204 170,-204 170,-204 164,-204 158,-198 158,-192 158,-192 158,-151 158,-151 158,-145 164,-139 170,-139"/>
<text text-anchor="middle" x="221" y="-192" font-family="Arial" font-size="10.00" fill="#000000">enum</text>
</g>
<g id="clust3" class="cluster">
<title>cluster_queue</title>
<path fill="transparent" stroke="#bcd2ee" stroke-width="2" stroke-dasharray="5,2" d="M93,-238C93,-238 200,-238 200,-238 206,-238 212,-244 212,-250 212,-250 212,-291 212,-291 212,-297 206,-303 200,-303 200,-303 93,-303 93,-303 87,-303 81,-297 81,-291 81,-291 81,-250 81,-250 81,-244 87,-238 93,-238"/>
<text text-anchor="middle" x="146.5" y="-291" font-family="Arial" font-size="10.00" fill="#000000">queue</text>
</g>
<g id="clust4" class="cluster">
<title>cluster_supriya.clock</title>
<path fill="transparent" stroke="#bcd2ee" stroke-width="2" stroke-dasharray="5,2" d="M353,-8C353,-8 555,-8 555,-8 561,-8 567,-14 567,-20 567,-20 567,-291 567,-291 567,-297 561,-303 555,-303 555,-303 353,-303 353,-303 347,-303 341,-297 341,-291 341,-291 341,-20 341,-20 341,-14 347,-8 353,-8"/>
<text text-anchor="middle" x="454" y="-291" font-family="Arial" font-size="10.00" fill="#000000">supriya.clock</text>
</g>
<!-- builtins.int&#45;&gt;enum.IntEnum -->
<g id="edge6" class="edge">
<title>builtins.int&#45;&gt;enum.IntEnum</title>
<path fill="none" stroke="#778899" d="M120.7126,-191.5281C140.1774,-189.0627 179.3701,-183.6098 212,-176 217.9372,-174.6154 224.2305,-172.8814 230.1936,-171.11"/>
<polygon fill="#778899" stroke="#778899" points="231.2716,-174.4403 239.7961,-168.1488 229.2087,-167.7512 231.2716,-174.4403"/>
</g>
<!-- builtins.object&#45;&gt;builtins.int -->
<g id="edge1" class="edge">
<title>builtins.object&#45;&gt;builtins.int</title>
<path fill="none" stroke="#778899" d="M53.1733,-193C63.2151,-193 75.6662,-193 86.2124,-193"/>
<polygon fill="#778899" stroke="#778899" points="86.3323,-196.5001 96.3322,-193 86.3322,-189.5001 86.3323,-196.5001"/>
</g>
<!-- builtins.object&#45;&gt;enum.Enum -->
<g id="edge7" class="edge">
<title>builtins.object&#45;&gt;enum.Enum</title>
<path fill="none" stroke="#778899" d="M53.2199,-184.7864C61.5908,-181.367 71.6588,-177.597 81,-175 105.8721,-168.085 134.8958,-163.2981 155.7832,-160.4088"/>
<polygon fill="#778899" stroke="#778899" points="156.4451,-163.8518 165.8993,-159.0696 155.5264,-156.9123 156.4451,-163.8518"/>
</g>
<!-- builtins.object&#45;&gt;queue.Queue -->
<g id="edge8" class="edge">
<title>builtins.object&#45;&gt;queue.Queue</title>
<path fill="none" stroke="#778899" d="M45.5726,-202.791C54.985,-211.1073 68.8635,-223.3537 81,-234 83.885,-236.5308 86.9441,-239.2073 89.9334,-241.819"/>
<polygon fill="#778899" stroke="#778899" points="87.6801,-244.498 97.5158,-248.4363 92.2828,-239.224 87.6801,-244.498"/>
</g>
<!-- builtins.object&#45;&gt;supriya.clock.Moment -->
<g id="edge9" class="edge">
<title>builtins.object&#45;&gt;supriya.clock.Moment</title>
<path fill="none" stroke="#778899" d="M44.8169,-183.3745C67.8608,-162.924 126.0589,-117 184,-117 184,-117 184,-117 258,-117 286.3183,-117 318.4891,-118.5057 341.7563,-119.8646"/>
<polygon fill="#778899" stroke="#778899" points="341.5806,-123.3603 351.7743,-120.4727 342.0047,-116.3731 341.5806,-123.3603"/>
</g>
<!-- builtins.object&#45;&gt;supriya.clock.SchedulerEvent -->
<g id="edge10" class="edge">
<title>builtins.object&#45;&gt;supriya.clock.SchedulerEvent</title>
<path fill="none" stroke="#778899" d="M38.9007,-183.4202C45.9445,-169.012 61.0167,-141.6792 81,-125 119.4902,-92.874 133.8644,-79 184,-79 184,-79 184,-79 258,-79 284.9476,-79 315.4164,-79 338.3633,-79"/>
<polygon fill="#778899" stroke="#778899" points="338.6558,-82.5001 348.6558,-79 338.6558,-75.5001 338.6558,-82.5001"/>
</g>
<!-- builtins.object&#45;&gt;supriya.clock.TempoClock -->
<g id="edge11" class="edge">
<title>builtins.object&#45;&gt;supriya.clock.TempoClock</title>
<path fill="none" stroke="#778899" d="M36.261,-183.3638C40.4775,-162.7974 52.9594,-114.1117 81,-85 116.1681,-48.4886 133.3061,-36 184,-36 184,-36 184,-36 258,-36 287.1923,-36 320.4786,-34.3999 343.8849,-33.0101"/>
<polygon fill="#778899" stroke="#778899" points="344.1281,-36.5018 353.8936,-32.3928 343.6971,-29.5151 344.1281,-36.5018"/>
</g>
<!-- enum.Enum&#45;&gt;enum.IntEnum -->
<g id="edge2" class="edge">
<title>enum.Enum&#45;&gt;enum.IntEnum</title>
<path fill="none" stroke="#778899" d="M202.2921,-158.236C210.6261,-158.7991 220.6784,-159.4783 229.9367,-160.1038"/>
<polygon fill="#778899" stroke="#778899" points="229.705,-163.5961 239.9183,-160.7783 230.177,-156.612 229.705,-163.5961"/>
</g>
<!-- enum.IntEnum&#45;&gt;supriya.clock.EventType -->
<g id="edge12" class="edge">
<title>enum.IntEnum&#45;&gt;supriya.clock.EventType</title>
<path fill="none" stroke="#778899" d="M276.125,-169.9688C294.9127,-178.2288 324.5195,-191.2456 346.2543,-200.8015"/>
<polygon fill="#778899" stroke="#778899" points="345.0565,-204.0981 355.6195,-204.9189 347.8738,-197.6901 345.0565,-204.0981"/>
</g>
<!-- enum.IntEnum&#45;&gt;supriya.clock.TimeUnit -->
<g id="edge13" class="edge">
<title>enum.IntEnum&#45;&gt;supriya.clock.TimeUnit</title>
<path fill="none" stroke="#778899" d="M276.125,-162.4688C295.0949,-162.9593 325.0948,-163.7352 346.8844,-164.2987"/>
<polygon fill="#778899" stroke="#778899" points="347.0454,-167.804 357.1326,-164.5638 347.2265,-160.8063 347.0454,-167.804"/>
</g>
<!-- queue.PriorityQueue&#45;&gt;supriya.clock.EventQueue -->
<g id="edge14" class="edge">
<title>queue.PriorityQueue&#45;&gt;supriya.clock.EventQueue</title>
<path fill="none" stroke="#778899" d="M204.3333,-261C237.9353,-261 305.2048,-261 344.1885,-261"/>
<polygon fill="#778899" stroke="#778899" points="344.3823,-264.5001 354.3823,-261 344.3823,-257.5001 344.3823,-264.5001"/>
</g>
<!-- queue.Queue&#45;&gt;queue.PriorityQueue -->
<g id="edge3" class="edge">
<title>queue.Queue&#45;&gt;queue.PriorityQueue</title>
<path fill="none" stroke="#778899" d="M128.3367,-258.7882C136.102,-259.0968 145.1837,-259.4576 153.7321,-259.7973"/>
<polygon fill="#778899" stroke="#778899" points="153.6394,-263.2963 163.7705,-260.1962 153.9174,-256.3018 153.6394,-263.2963"/>
</g>
<!-- supriya.clock.SchedulerEvent&#45;&gt;supriya.clock.CallbackEvent -->
<g id="edge4" class="edge">
<title>supriya.clock.SchedulerEvent&#45;&gt;supriya.clock.CallbackEvent</title>
<path fill="none" stroke="#778899" d="M399.0528,-73.8994C407.1126,-72.2585 416.1665,-70.4152 424.6974,-68.6784"/>
<polygon fill="#778899" stroke="#778899" points="425.6412,-72.0581 434.7419,-66.6334 424.2446,-65.1988 425.6412,-72.0581"/>
</g>
<!-- supriya.clock.SchedulerEvent&#45;&gt;supriya.clock.ChangeEvent -->
<g id="edge5" class="edge">
<title>supriya.clock.SchedulerEvent&#45;&gt;supriya.clock.ChangeEvent</title>
<path fill="none" stroke="#778899" d="M399.216,-81.9911C410.2028,-83.2691 423.2337,-84.751 435,-86 458.6616,-88.5117 485.4224,-91.1144 505.6656,-93.0348"/>
<polygon fill="#778899" stroke="#778899" points="505.6083,-96.5448 515.8928,-93.9995 506.2657,-89.5757 505.6083,-96.5448"/>
</g>
<!-- builtins.int -->
<g id="node1" class="node">
<title>builtins.int</title>
<g id="a_node1"><a xlink:href="https://docs.python.org/3.6/library/functions.html#int" xlink:title="int" target="_top">
<path fill="#fbb4ae" stroke="#fbb4ae" stroke-width="2" d="M114.1667,-202.5C114.1667,-202.5 102.8333,-202.5 102.8333,-202.5 99.6667,-202.5 96.5,-199.3333 96.5,-196.1667 96.5,-196.1667 96.5,-189.8333 96.5,-189.8333 96.5,-186.6667 99.6667,-183.5 102.8333,-183.5 102.8333,-183.5 114.1667,-183.5 114.1667,-183.5 117.3333,-183.5 120.5,-186.6667 120.5,-189.8333 120.5,-189.8333 120.5,-196.1667 120.5,-196.1667 120.5,-199.3333 117.3333,-202.5 114.1667,-202.5"/>
<text text-anchor="middle" x="108.5" y="-190.5" font-family="Arial" font-size="10.00" fill="#000000">int</text>
</a>
</g>
</g>
<!-- builtins.object -->
<g id="node2" class="node">
<title>builtins.object</title>
<g id="a_node2"><a xlink:href="https://docs.python.org/3.6/library/functions.html#object" xlink:title="object" target="_top">
<path fill="#fbb4ae" stroke="#fbb4ae" stroke-width="2" d="M46.6667,-202.5C46.6667,-202.5 22.3333,-202.5 22.3333,-202.5 19.1667,-202.5 16,-199.3333 16,-196.1667 16,-196.1667 16,-189.8333 16,-189.8333 16,-186.6667 19.1667,-183.5 22.3333,-183.5 22.3333,-183.5 46.6667,-183.5 46.6667,-183.5 49.8333,-183.5 53,-186.6667 53,-189.8333 53,-189.8333 53,-196.1667 53,-196.1667 53,-199.3333 49.8333,-202.5 46.6667,-202.5"/>
<text text-anchor="middle" x="34.5" y="-190.5" font-family="Arial" font-size="10.00" fill="#000000">object</text>
</a>
</g>
</g>
<!-- enum.Enum -->
<g id="node3" class="node">
<title>enum.Enum</title>
<g id="a_node3"><a xlink:href="https://docs.python.org/3.6/library/enum.html#enum.Enum" xlink:title="Enum" target="_top">
<path fill="#b3cde3" stroke="#b3cde3" stroke-width="2" d="M195.6667,-166.5C195.6667,-166.5 172.3333,-166.5 172.3333,-166.5 169.1667,-166.5 166,-163.3333 166,-160.1667 166,-160.1667 166,-153.8333 166,-153.8333 166,-150.6667 169.1667,-147.5 172.3333,-147.5 172.3333,-147.5 195.6667,-147.5 195.6667,-147.5 198.8333,-147.5 202,-150.6667 202,-153.8333 202,-153.8333 202,-160.1667 202,-160.1667 202,-163.3333 198.8333,-166.5 195.6667,-166.5"/>
<text text-anchor="middle" x="184" y="-154.5" font-family="Arial" font-size="10.00" fill="#000000">Enum</text>
</a>
</g>
</g>
<!-- enum.IntEnum -->
<g id="node4" class="node">
<title>enum.IntEnum</title>
<g id="a_node4"><a xlink:href="https://docs.python.org/3.6/library/enum.html#enum.IntEnum" xlink:title="Int\nEnum" target="_top">
<path fill="#b3cde3" stroke="#b3cde3" stroke-width="2" d="M266,-177C266,-177 250,-177 250,-177 245,-177 240,-172 240,-167 240,-167 240,-157 240,-157 240,-152 245,-147 250,-147 250,-147 266,-147 266,-147 271,-147 276,-152 276,-157 276,-157 276,-167 276,-167 276,-172 271,-177 266,-177"/>
<text text-anchor="middle" x="258" y="-165" font-family="Arial" font-size="10.00" fill="#000000">Int</text>
<text text-anchor="middle" x="258" y="-154" font-family="Arial" font-size="10.00" fill="#000000">Enum</text>
</a>
</g>
</g>
<!-- queue.PriorityQueue -->
<g id="node5" class="node">
<title>queue.PriorityQueue</title>
<g id="a_node5"><a xlink:href="https://docs.python.org/3.6/library/queue.html#queue.PriorityQueue" xlink:title="Priority\nQueue" target="_top">
<path fill="#ccebc5" stroke="#ccebc5" stroke-width="2" d="M194,-276C194,-276 174,-276 174,-276 169,-276 164,-271 164,-266 164,-266 164,-256 164,-256 164,-251 169,-246 174,-246 174,-246 194,-246 194,-246 199,-246 204,-251 204,-256 204,-256 204,-266 204,-266 204,-271 199,-276 194,-276"/>
<text text-anchor="middle" x="184" y="-264" font-family="Arial" font-size="10.00" fill="#000000">Priority</text>
<text text-anchor="middle" x="184" y="-253" font-family="Arial" font-size="10.00" fill="#000000">Queue</text>
</a>
</g>
</g>
<!-- queue.Queue -->
<g id="node6" class="node">
<title>queue.Queue</title>
<g id="a_node6"><a xlink:href="https://docs.python.org/3.6/library/queue.html#queue.Queue" xlink:title="Queue" target="_top">
<path fill="#ccebc5" stroke="#ccebc5" stroke-width="2" d="M121.6667,-267.5C121.6667,-267.5 95.3333,-267.5 95.3333,-267.5 92.1667,-267.5 89,-264.3333 89,-261.1667 89,-261.1667 89,-254.8333 89,-254.8333 89,-251.6667 92.1667,-248.5 95.3333,-248.5 95.3333,-248.5 121.6667,-248.5 121.6667,-248.5 124.8333,-248.5 128,-251.6667 128,-254.8333 128,-254.8333 128,-261.1667 128,-261.1667 128,-264.3333 124.8333,-267.5 121.6667,-267.5"/>
<text text-anchor="middle" x="108.5" y="-255.5" font-family="Arial" font-size="10.00" fill="#000000">Queue</text>
</a>
</g>
</g>
<!-- supriya.clock.CallbackEvent -->
<g id="node7" class="node">
<title>supriya.clock.CallbackEvent</title>
<g id="a_node7"><a xlink:href="../api/supriya/clock.html#supriya.clock.CallbackEvent" xlink:title="Callback\nEvent" target="_top">
<path fill="#000000" stroke="#000000" stroke-width="2" d="M470,-77C470,-77 445,-77 445,-77 440,-77 435,-72 435,-67 435,-67 435,-57 435,-57 435,-52 440,-47 445,-47 445,-47 470,-47 470,-47 475,-47 480,-52 480,-57 480,-57 480,-67 480,-67 480,-72 475,-77 470,-77"/>
<text text-anchor="middle" x="457.5" y="-65" font-family="Arial" font-size="10.00" fill="#ffffff">Callback</text>
<text text-anchor="middle" x="457.5" y="-54" font-family="Arial" font-size="10.00" fill="#ffffff">Event</text>
</a>
</g>
</g>
<!-- supriya.clock.ChangeEvent -->
<g id="node8" class="node">
<title>supriya.clock.ChangeEvent</title>
<g id="a_node8"><a xlink:href="../api/supriya/clock.html#supriya.clock.ChangeEvent" xlink:title="Change\nEvent" target="_top">
<path fill="#000000" stroke="#000000" stroke-width="2" d="M549,-111C549,-111 526,-111 526,-111 521,-111 516,-106 516,-101 516,-101 516,-91 516,-91 516,-86 521,-81 526,-81 526,-81 549,-81 549,-81 554,-81 559,-86 559,-91 559,-91 559,-101 559,-101 559,-106 554,-111 549,-111"/>
<text text-anchor="middle" x="537.5" y="-99" font-family="Arial" font-size="10.00" fill="#ffffff">Change</text>
<text text-anchor="middle" x="537.5" y="-88" font-family="Arial" font-size="10.00" fill="#ffffff">Event</text>
</a>
</g>
</g>
<!-- supriya.clock.EventQueue -->
<g id="node9" class="node">
<title>supriya.clock.EventQueue</title>
<g id="a_node9"><a xlink:href="../api/supriya/clock.html#supriya.clock.EventQueue" xlink:title="Event\nQueue" target="_top">
<path fill="#000000" stroke="#000000" stroke-width="2" d="M383.5,-276C383.5,-276 364.5,-276 364.5,-276 359.5,-276 354.5,-271 354.5,-266 354.5,-266 354.5,-256 354.5,-256 354.5,-251 359.5,-246 364.5,-246 364.5,-246 383.5,-246 383.5,-246 388.5,-246 393.5,-251 393.5,-256 393.5,-256 393.5,-266 393.5,-266 393.5,-271 388.5,-276 383.5,-276"/>
<text text-anchor="middle" x="374" y="-264" font-family="Arial" font-size="10.00" fill="#ffffff">Event</text>
<text text-anchor="middle" x="374" y="-253" font-family="Arial" font-size="10.00" fill="#ffffff">Queue</text>
</a>
</g>
</g>
<!-- supriya.clock.EventType -->
<g id="node10" class="node">
<title>supriya.clock.EventType</title>
<g id="a_node10"><a xlink:href="../api/supriya/clock.html#supriya.clock.EventType" xlink:title="Event\nType" target="_top">
<path fill="#000000" stroke="#000000" stroke-width="2" d="M382,-228C382,-228 366,-228 366,-228 361,-228 356,-223 356,-218 356,-218 356,-208 356,-208 356,-203 361,-198 366,-198 366,-198 382,-198 382,-198 387,-198 392,-203 392,-208 392,-208 392,-218 392,-218 392,-223 387,-228 382,-228"/>
<text text-anchor="middle" x="374" y="-216" font-family="Arial" font-size="10.00" fill="#ffffff">Event</text>
<text text-anchor="middle" x="374" y="-205" font-family="Arial" font-size="10.00" fill="#ffffff">Type</text>
</a>
</g>
</g>
<!-- supriya.clock.Moment -->
<g id="node11" class="node">
<title>supriya.clock.Moment</title>
<g id="a_node11"><a xlink:href="../api/supriya/clock.html#supriya.clock.Moment" xlink:title="Moment" target="_top">
<path fill="#000000" stroke="#000000" stroke-width="2" d="M389.6667,-131.5C389.6667,-131.5 358.3333,-131.5 358.3333,-131.5 355.1667,-131.5 352,-128.3333 352,-125.1667 352,-125.1667 352,-118.8333 352,-118.8333 352,-115.6667 355.1667,-112.5 358.3333,-112.5 358.3333,-112.5 389.6667,-112.5 389.6667,-112.5 392.8333,-112.5 396,-115.6667 396,-118.8333 396,-118.8333 396,-125.1667 396,-125.1667 396,-128.3333 392.8333,-131.5 389.6667,-131.5"/>
<text text-anchor="middle" x="374" y="-119.5" font-family="Arial" font-size="10.00" fill="#ffffff">Moment</text>
</a>
</g>
</g>
<!-- supriya.clock.SchedulerEvent -->
<g id="node12" class="node">
<title>supriya.clock.SchedulerEvent</title>
<g id="a_node12"><a xlink:href="../api/supriya/clock.html#supriya.clock.SchedulerEvent" xlink:title="Scheduler\nEvent" target="_top">
<path fill="#000000" stroke="#000000" stroke-width="2" d="M389,-94C389,-94 359,-94 359,-94 354,-94 349,-89 349,-84 349,-84 349,-74 349,-74 349,-69 354,-64 359,-64 359,-64 389,-64 389,-64 394,-64 399,-69 399,-74 399,-74 399,-84 399,-84 399,-89 394,-94 389,-94"/>
<text text-anchor="middle" x="374" y="-82" font-family="Arial" font-size="10.00" fill="#ffffff">Scheduler</text>
<text text-anchor="middle" x="374" y="-71" font-family="Arial" font-size="10.00" fill="#ffffff">Event</text>
</a>
</g>
</g>
<!-- supriya.clock.TempoClock -->
<g id="node13" class="node">
<title>supriya.clock.TempoClock</title>
<g id="a_node13"><a xlink:href="../api/supriya/clock.html#supriya.clock.TempoClock" xlink:title="Tempo\nClock" target="_top">
<path fill="#000000" stroke="#000000" stroke-width="2" d="M384,-46C384,-46 364,-46 364,-46 359,-46 354,-41 354,-36 354,-36 354,-26 354,-26 354,-21 359,-16 364,-16 364,-16 384,-16 384,-16 389,-16 394,-21 394,-26 394,-26 394,-36 394,-36 394,-41 389,-46 384,-46"/>
<text text-anchor="middle" x="374" y="-34" font-family="Arial" font-size="10.00" fill="#ffffff">Tempo</text>
<text text-anchor="middle" x="374" y="-23" font-family="Arial" font-size="10.00" fill="#ffffff">Clock</text>
</a>
</g>
</g>
<!-- supriya.clock.TimeUnit -->
<g id="node14" class="node">
<title>supriya.clock.TimeUnit</title>
<g id="a_node14"><a xlink:href="../api/supriya/clock.html#supriya.clock.TimeUnit" xlink:title="Time\nUnit" target="_top">
<path fill="#000000" stroke="#000000" stroke-width="2" d="M380.5,-180C380.5,-180 367.5,-180 367.5,-180 362.5,-180 357.5,-175 357.5,-170 357.5,-170 357.5,-160 357.5,-160 357.5,-155 362.5,-150 367.5,-150 367.5,-150 380.5,-150 380.5,-150 385.5,-150 390.5,-155 390.5,-160 390.5,-160 390.5,-170 390.5,-170 390.5,-175 385.5,-180 380.5,-180"/>
<text text-anchor="middle" x="374" y="-168" font-family="Arial" font-size="10.00" fill="#ffffff">Time</text>
<text text-anchor="middle" x="374" y="-157" font-family="Arial" font-size="10.00" fill="#ffffff">Unit</text>
</a>
</g>
</g>
</g>
</svg>
