<?xml version="1.0" encoding="UTF-8" standalone="no"?>
<!DOCTYPE svg PUBLIC "-//W3C//DTD SVG 1.1//EN"
 "http://www.w3.org/Graphics/SVG/1.1/DTD/svg11.dtd">
<!-- Generated by graphviz version 2.40.1 (20161225.0304)
 -->
<!-- Title: InheritanceGraph Pages: 1 -->
<svg width="659pt" height="528pt"
 viewBox="0.00 0.00 658.97 528.00" xmlns="http://www.w3.org/2000/svg" xmlns:xlink="http://www.w3.org/1999/xlink">
<g id="graph0" class="graph" transform="scale(1 1) rotate(0) translate(4 524)">
<title>InheritanceGraph</title>
<g id="clust3" class="cluster">
<title>cluster_supriya.system</title>
<path fill="transparent" stroke="#bcd2ee" stroke-width="2" stroke-dasharray="5,2" d="M93,-155C93,-155 205,-155 205,-155 211,-155 217,-161 217,-167 217,-167 217,-220 217,-220 217,-226 211,-232 205,-232 205,-232 93,-232 93,-232 87,-232 81,-226 81,-220 81,-220 81,-167 81,-167 81,-161 87,-155 93,-155"/>
<text text-anchor="middle" x="149" y="-220" font-family="Arial" font-size="10.00" fill="#000000">supriya.system</text>
</g>
<g id="clust1" class="cluster">
<title>cluster_builtins</title>
<path fill="transparent" stroke="#bcd2ee" stroke-width="2" stroke-dasharray="5,2" d="M20,-160C20,-160 49,-160 49,-160 55,-160 61,-166 61,-172 61,-172 61,-203 61,-203 61,-209 55,-215 49,-215 49,-215 20,-215 20,-215 14,-215 8,-209 8,-203 8,-203 8,-172 8,-172 8,-166 14,-160 20,-160"/>
<text text-anchor="middle" x="34.5" y="-203" font-family="Arial" font-size="10.00" fill="#000000">builtins</text>
</g>
<g id="clust2" class="cluster">
<title>cluster_supriya.patterns</title>
<path fill="transparent" stroke="#bcd2ee" stroke-width="2" stroke-dasharray="5,2" d="M249,-8C249,-8 630.9655,-8 630.9655,-8 636.9655,-8 642.9655,-14 642.9655,-20 642.9655,-20 642.9655,-500 642.9655,-500 642.9655,-506 636.9655,-512 630.9655,-512 630.9655,-512 249,-512 249,-512 243,-512 237,-506 237,-500 237,-500 237,-20 237,-20 237,-14 243,-8 249,-8"/>
<text text-anchor="middle" x="439.9828" y="-500" font-family="Arial" font-size="10.00" fill="#000000">supriya.patterns</text>
</g>
<!-- builtins.object&#45;&gt;supriya.system.SupriyaObject.SupriyaObject -->
<g id="edge25" class="edge">
<title>builtins.object&#45;&gt;supriya.system.SupriyaObject.SupriyaObject</title>
<path fill="none" stroke="#778899" d="M53.1629,-178C60.862,-178 69.9986,-178 78.6696,-178"/>
<polygon fill="#778899" stroke="#778899" points="78.8875,-181.5001 88.8875,-178 78.8874,-174.5001 78.8875,-181.5001"/>
</g>
<!-- supriya.patterns.Event.Event&#45;&gt;supriya.patterns.BusEvent.BusEvent -->
<g id="edge1" class="edge">
<title>supriya.patterns.Event.Event&#45;&gt;supriya.patterns.BusEvent.BusEvent</title>
<path fill="none" stroke="#778899" d="M289.0913,-370.0746C303.1425,-359.9081 324.3966,-344.5299 341.3038,-332.2969"/>
<polygon fill="#778899" stroke="#778899" points="343.6377,-334.9284 349.6878,-326.2308 339.5344,-329.2572 343.6377,-334.9284"/>
</g>
<!-- supriya.patterns.Event.Event&#45;&gt;supriya.patterns.CompositeEvent.CompositeEvent -->
<g id="edge2" class="edge">
<title>supriya.patterns.Event.Event&#45;&gt;supriya.patterns.CompositeEvent.CompositeEvent</title>
<path fill="none" stroke="#778899" d="M293.1111,-371.8982C305.7989,-366.375 322.9983,-359.8571 338.9828,-357 364.3508,-352.4657 371.4258,-353.562 396.9655,-357 405.4586,-358.1433 414.4344,-360.13 422.8392,-362.3514"/>
<polygon fill="#778899" stroke="#778899" points="422.1632,-365.797 432.7374,-365.1365 424.0592,-359.0587 422.1632,-365.797"/>
</g>
<!-- supriya.patterns.Event.Event&#45;&gt;supriya.patterns.GroupEvent.GroupEvent -->
<g id="edge3" class="edge">
<title>supriya.patterns.Event.Event&#45;&gt;supriya.patterns.GroupEvent.GroupEvent</title>
<path fill="none" stroke="#778899" d="M299.6726,-381C311.901,-381 326.5722,-381 339.1775,-381"/>
<polygon fill="#778899" stroke="#778899" points="339.1812,-384.5001 349.1812,-381 339.1812,-377.5001 339.1812,-384.5001"/>
</g>
<!-- supriya.patterns.Event.Event&#45;&gt;supriya.patterns.NoteEvent.NoteEvent -->
<g id="edge4" class="edge">
<title>supriya.patterns.Event.Event&#45;&gt;supriya.patterns.NoteEvent.NoteEvent</title>
<path fill="none" stroke="#778899" d="M293.842,-389.5858C306.5359,-394.7599 323.472,-401.0849 338.9828,-405 369.901,-412.8042 406.2674,-417.3264 430.7922,-419.7173"/>
<polygon fill="#778899" stroke="#778899" points="430.5673,-423.2113 440.846,-420.6424 431.2088,-416.2407 430.5673,-423.2113"/>
</g>
<!-- supriya.patterns.Event.Event&#45;&gt;supriya.patterns.NullEvent.NullEvent -->
<g id="edge5" class="edge">
<title>supriya.patterns.Event.Event&#45;&gt;supriya.patterns.NullEvent.NullEvent</title>
<path fill="none" stroke="#778899" d="M289.0913,-391.9254C303.1425,-402.0919 324.3966,-417.4701 341.3038,-429.7031"/>
<polygon fill="#778899" stroke="#778899" points="339.5344,-432.7428 349.6878,-435.7692 343.6377,-427.0716 339.5344,-432.7428"/>
</g>
<!-- supriya.patterns.Event.Event&#45;&gt;supriya.patterns.SynthEvent.SynthEvent -->
<g id="edge6" class="edge">
<title>supriya.patterns.Event.Event&#45;&gt;supriya.patterns.SynthEvent.SynthEvent</title>
<path fill="none" stroke="#778899" d="M278.8027,-394.4651C287.2229,-415.7256 306.8578,-456.3617 338.9828,-473 367.6038,-487.8236 405.444,-483.6376 430.9121,-478.0027"/>
<polygon fill="#778899" stroke="#778899" points="431.783,-481.393 440.6778,-475.637 430.1349,-474.5898 431.783,-481.393"/>
</g>
<!-- supriya.patterns.EventPattern.EventPattern&#45;&gt;supriya.patterns.Pbind.Pbind -->
<g id="edge7" class="edge">
<title>supriya.patterns.EventPattern.EventPattern&#45;&gt;supriya.patterns.Pbind.Pbind</title>
<path fill="none" stroke="#778899" d="M395.2745,-212.4992C406.5768,-209.3939 419.6727,-205.7958 431.0397,-202.6727"/>
<polygon fill="#778899" stroke="#778899" points="432.1763,-205.9902 440.8917,-199.9658 430.3217,-199.2403 432.1763,-205.9902"/>
</g>
<!-- supriya.patterns.EventPattern.EventPattern&#45;&gt;supriya.patterns.Pbindf.Pbindf -->
<g id="edge8" class="edge">
<title>supriya.patterns.EventPattern.EventPattern&#45;&gt;supriya.patterns.Pbindf.Pbindf</title>
<path fill="none" stroke="#778899" d="M397.0127,-222.0085C428.9056,-224.2145 479.8449,-227.7378 511.9329,-229.9573"/>
<polygon fill="#778899" stroke="#778899" points="511.8197,-233.4577 522.0374,-230.6562 512.3028,-226.4744 511.8197,-233.4577"/>
</g>
<!-- supriya.patterns.EventPattern.EventPattern&#45;&gt;supriya.patterns.Pbus.Pbus -->
<g id="edge9" class="edge">
<title>supriya.patterns.EventPattern.EventPattern&#45;&gt;supriya.patterns.Pbus.Pbus</title>
<path fill="none" stroke="#778899" d="M394.2926,-229.545C406.2661,-233.8874 420.4088,-239.0166 432.4107,-243.3693"/>
<polygon fill="#778899" stroke="#778899" points="431.3,-246.6895 441.8941,-246.8087 433.6866,-240.1089 431.3,-246.6895"/>
</g>
<!-- supriya.patterns.EventPattern.EventPattern&#45;&gt;supriya.patterns.Pchain.Pchain -->
<g id="edge10" class="edge">
<title>supriya.patterns.EventPattern.EventPattern&#45;&gt;supriya.patterns.Pchain.Pchain</title>
<path fill="none" stroke="#778899" d="M384.3567,-237.6935C396.5253,-249.5907 414.2035,-264.4331 432.9655,-272 458.1433,-282.1544 489.1908,-284.0664 511.614,-283.7861"/>
<polygon fill="#778899" stroke="#778899" points="511.9674,-287.2776 521.8654,-283.4989 511.7713,-280.2804 511.9674,-287.2776"/>
</g>
<!-- supriya.patterns.EventPattern.EventPattern&#45;&gt;supriya.patterns.Pfx.Pfx -->
<g id="edge11" class="edge">
<title>supriya.patterns.EventPattern.EventPattern&#45;&gt;supriya.patterns.Pfx.Pfx</title>
<path fill="none" stroke="#778899" d="M384.5476,-237.6109C397.5293,-251.2761 416.1457,-270.5916 432.9655,-287 435.4279,-289.4022 438.0572,-291.9019 440.6625,-294.3414"/>
<polygon fill="#778899" stroke="#778899" points="438.496,-297.1051 448.2155,-301.3221 443.2472,-291.9644 438.496,-297.1051"/>
</g>
<!-- supriya.patterns.EventPattern.EventPattern&#45;&gt;supriya.patterns.Pgroup.Pgroup -->
<g id="edge12" class="edge">
<title>supriya.patterns.EventPattern.EventPattern&#45;&gt;supriya.patterns.Pgroup.Pgroup</title>
<path fill="none" stroke="#778899" d="M385.5926,-236.8631C389.6263,-241.2362 393.687,-246.1008 396.9655,-251 418.4248,-283.067 401.5076,-307.6575 432.9655,-330 455.3006,-345.8631 487.0879,-346.9788 510.4854,-344.9558"/>
<polygon fill="#778899" stroke="#778899" points="511.0229,-348.4179 520.5811,-343.8472 510.2588,-341.4598 511.0229,-348.4179"/>
</g>
<!-- supriya.patterns.EventPattern.EventPattern&#45;&gt;supriya.patterns.Pn.Pn -->
<g id="edge13" class="edge">
<title>supriya.patterns.EventPattern.EventPattern&#45;&gt;supriya.patterns.Pn.Pn</title>
<path fill="none" stroke="#778899" d="M386.3876,-203.2037C402.3073,-188.6822 425.1827,-167.8158 440.977,-153.4087"/>
<polygon fill="#778899" stroke="#778899" points="443.4872,-155.8563 448.5165,-146.5313 438.7697,-150.6847 443.4872,-155.8563"/>
</g>
<!-- supriya.patterns.EventPattern.EventPattern&#45;&gt;supriya.patterns.Ppar.Ppar -->
<g id="edge14" class="edge">
<title>supriya.patterns.EventPattern.EventPattern&#45;&gt;supriya.patterns.Ppar.Ppar</title>
<path fill="none" stroke="#778899" d="M387.2688,-204.1575C399.613,-194.8323 416.3737,-183.6064 432.9655,-177 459.8379,-166.3001 492.8307,-161.6114 515.3315,-159.5657"/>
<polygon fill="#778899" stroke="#778899" points="515.7711,-163.0419 525.4617,-158.7591 515.2154,-156.064 515.7711,-163.0419"/>
</g>
<!-- supriya.patterns.Pbind.Pbind&#45;&gt;supriya.patterns.Pmono.Pmono -->
<g id="edge21" class="edge">
<title>supriya.patterns.Pbind.Pbind&#45;&gt;supriya.patterns.Pmono.Pmono</title>
<path fill="none" stroke="#778899" d="M477.2749,-195C487.1319,-195 499.5512,-195 510.8335,-195"/>
<polygon fill="#778899" stroke="#778899" points="511.1814,-198.5001 521.1814,-195 511.1813,-191.5001 511.1814,-198.5001"/>
</g>
<!-- supriya.patterns.Ppar.Ppar&#45;&gt;supriya.patterns.Pgpar.Pgpar -->
<g id="edge22" class="edge">
<title>supriya.patterns.Ppar.Ppar&#45;&gt;supriya.patterns.Pgpar.Pgpar</title>
<path fill="none" stroke="#778899" d="M557.7394,-158C566.5006,-158 577.5666,-158 587.7243,-158"/>
<polygon fill="#778899" stroke="#778899" points="587.8464,-161.5001 597.8464,-158 587.8464,-154.5001 587.8464,-161.5001"/>
</g>
<!-- supriya.patterns.EventPlayer.EventPlayer&#45;&gt;supriya.patterns.RealtimeEventPlayer.RealtimeEventPlayer -->
<g id="edge15" class="edge">
<title>supriya.patterns.EventPlayer.EventPlayer&#45;&gt;supriya.patterns.RealtimeEventPlayer.RealtimeEventPlayer</title>
<path fill="none" stroke="#778899" d="M293.0102,-91.3693C304.8924,-89.7257 320.5263,-87.5631 334.4409,-85.6384"/>
<polygon fill="#778899" stroke="#778899" points="335.2296,-89.0627 344.6557,-84.2255 334.2704,-82.1288 335.2296,-89.0627"/>
</g>
<!-- supriya.patterns.Pattern.Pattern&#45;&gt;supriya.patterns.EventPattern.EventPattern -->
<g id="edge16" class="edge">
<title>supriya.patterns.Pattern.Pattern&#45;&gt;supriya.patterns.EventPattern.EventPattern</title>
<path fill="none" stroke="#778899" d="M295.3175,-188.3035C306.6247,-193.2363 320.7917,-199.4166 333.606,-205.0069"/>
<polygon fill="#778899" stroke="#778899" points="332.5065,-208.3457 343.0718,-209.1363 335.3055,-201.9297 332.5065,-208.3457"/>
</g>
<!-- supriya.patterns.Pattern.Pattern&#45;&gt;supriya.patterns.Pbinop.Pbinop -->
<g id="edge17" class="edge">
<title>supriya.patterns.Pattern.Pattern&#45;&gt;supriya.patterns.Pbinop.Pbinop</title>
<path fill="none" stroke="#778899" d="M290.6242,-190.3269C294.8576,-193.5494 299.2591,-197.2181 302.9828,-201 321.9426,-220.2561 319.37,-231.4093 338.9828,-250 340.1019,-251.0609 341.2875,-252.0997 342.5151,-253.1103"/>
<polygon fill="#778899" stroke="#778899" points="340.8299,-256.2147 350.9643,-259.3042 344.9685,-250.5691 340.8299,-256.2147"/>
</g>
<!-- supriya.patterns.Pattern.Pattern&#45;&gt;supriya.patterns.Pseed.Pseed -->
<g id="edge18" class="edge">
<title>supriya.patterns.Pattern.Pattern&#45;&gt;supriya.patterns.Pseed.Pseed</title>
<path fill="none" stroke="#778899" d="M288.9407,-167.4428C304.7657,-155.3453 328.8295,-137.3739 338.9828,-132 363.2071,-119.1786 376.1706,-128.8545 396.9655,-111 422.3165,-89.2337 410.9451,-70.1306 432.9655,-45 433.8152,-44.0303 434.7229,-43.081 435.6711,-42.1565"/>
<polygon fill="#778899" stroke="#778899" points="438.0429,-44.7352 443.4466,-35.622 433.5392,-39.3763 438.0429,-44.7352"/>
</g>
<!-- supriya.patterns.Pattern.Pattern&#45;&gt;supriya.patterns.Pseq.Pseq -->
<g id="edge19" class="edge">
<title>supriya.patterns.Pattern.Pattern&#45;&gt;supriya.patterns.Pseq.Pseq</title>
<path fill="none" stroke="#778899" d="M298.1943,-171.5318C311.3697,-167.4663 327.6986,-162.4277 341.2475,-158.247"/>
<polygon fill="#778899" stroke="#778899" points="342.4447,-161.5404 350.9682,-155.2475 340.3807,-154.8516 342.4447,-161.5404"/>
</g>
<!-- supriya.patterns.Pattern.Pattern&#45;&gt;supriya.patterns.Pwhite.Pwhite -->
<g id="edge20" class="edge">
<title>supriya.patterns.Pattern.Pattern&#45;&gt;supriya.patterns.Pwhite.Pwhite</title>
<path fill="none" stroke="#778899" d="M301.8012,-183.0878C328.0632,-185.5485 367.6806,-185.5332 396.9655,-169 420.8108,-155.5378 413.6713,-138.4309 432.9655,-119 433.8962,-118.0628 434.8765,-117.1367 435.8893,-116.2277"/>
<polygon fill="#778899" stroke="#778899" points="438.4126,-118.6897 444.0076,-109.6926 434.0231,-113.2369 438.4126,-118.6897"/>
</g>
<!-- supriya.patterns.Pseq.Pseq&#45;&gt;supriya.patterns.Prand.Prand -->
<g id="edge23" class="edge">
<title>supriya.patterns.Pseq.Pseq&#45;&gt;supriya.patterns.Prand.Prand</title>
<path fill="none" stroke="#778899" d="M380.5625,-140.4589C385.8325,-136.2448 391.8978,-131.0969 396.9655,-126 414.7805,-108.0822 414.6176,-99.3716 432.9655,-82 434.0566,-80.967 435.2051,-79.9415 436.387,-78.9333"/>
<polygon fill="#778899" stroke="#778899" points="438.7081,-81.5609 444.4156,-72.6348 434.3874,-76.0534 438.7081,-81.5609"/>
</g>
<!-- supriya.system.SupriyaObject.SupriyaObject&#45;&gt;supriya.patterns.Clock.Clock -->
<g id="edge26" class="edge">
<title>supriya.system.SupriyaObject.SupriyaObject&#45;&gt;supriya.patterns.Clock.Clock</title>
<path fill="none" stroke="#778899" d="M131.0008,-168.2528C141.6031,-163.6619 154.7789,-158.4495 167,-155 193.363,-147.5588 224.3014,-142.7631 246.109,-140.0086"/>
<polygon fill="#778899" stroke="#778899" points="246.8022,-143.4506 256.3141,-138.7843 245.9684,-136.5004 246.8022,-143.4506"/>
</g>
<!-- supriya.system.SupriyaObject.SupriyaObject&#45;&gt;supriya.patterns.EventPlayer.EventPlayer -->
<g id="edge27" class="edge">
<title>supriya.system.SupriyaObject.SupriyaObject&#45;&gt;supriya.patterns.EventPlayer.EventPlayer</title>
<path fill="none" stroke="#778899" d="M130.5467,-162.9828C141.1464,-155.58 154.4549,-146.8051 167,-140 192.7382,-126.0384 223.5955,-113.1521 245.5434,-104.5925"/>
<polygon fill="#778899" stroke="#778899" points="246.8723,-107.8314 254.9502,-100.9758 244.3602,-101.2977 246.8723,-107.8314"/>
</g>
<!-- supriya.system.SupriyaObject.SupriyaObject&#45;&gt;supriya.patterns.RandomNumberGenerator.RandomNumberGenerator -->
<g id="edge28" class="edge">
<title>supriya.system.SupriyaObject.SupriyaObject&#45;&gt;supriya.patterns.RandomNumberGenerator.RandomNumberGenerator</title>
<path fill="none" stroke="#778899" d="M121.2079,-162.8282C132.0273,-148.7498 149.3277,-127.6691 167,-112 189.6748,-91.8954 218.281,-72.9231 240.2081,-59.5058"/>
<polygon fill="#778899" stroke="#778899" points="242.1031,-62.4502 248.8579,-54.2879 238.4873,-56.4564 242.1031,-62.4502"/>
</g>
<!-- supriya.system.SupriyaObject.SupriyaObject&#45;&gt;supriya.system.SupriyaValueObject.SupriyaValueObject -->
<g id="edge24" class="edge">
<title>supriya.system.SupriyaObject.SupriyaObject&#45;&gt;supriya.system.SupriyaValueObject.SupriyaValueObject</title>
<path fill="none" stroke="#778899" d="M131.3138,-179.6395C139.2025,-180.2463 148.316,-180.9474 156.8971,-181.6075"/>
<polygon fill="#778899" stroke="#778899" points="156.743,-185.1059 166.982,-182.3832 157.2799,-178.1265 156.743,-185.1059"/>
</g>
<!-- supriya.system.SupriyaValueObject.SupriyaValueObject&#45;&gt;supriya.patterns.Event.Event -->
<g id="edge29" class="edge">
<title>supriya.system.SupriyaValueObject.SupriyaValueObject&#45;&gt;supriya.patterns.Event.Event</title>
<path fill="none" stroke="#778899" d="M197.0401,-204.7101C213.2694,-241.8903 247.2201,-319.6689 264.0688,-358.268"/>
<polygon fill="#778899" stroke="#778899" points="260.9428,-359.8556 268.1511,-367.6203 267.3582,-357.0552 260.9428,-359.8556"/>
</g>
<!-- supriya.system.SupriyaValueObject.SupriyaValueObject&#45;&gt;supriya.patterns.EventProduct.EventProduct -->
<g id="edge30" class="edge">
<title>supriya.system.SupriyaValueObject.SupriyaValueObject&#45;&gt;supriya.patterns.EventProduct.EventProduct</title>
<path fill="none" stroke="#778899" d="M209.2563,-194.1348C219.6696,-199.0998 232.3918,-205.1656 243.7929,-210.6016"/>
<polygon fill="#778899" stroke="#778899" points="242.4467,-213.8372 252.9796,-214.9817 245.4594,-207.5187 242.4467,-213.8372"/>
</g>
<!-- supriya.system.SupriyaValueObject.SupriyaValueObject&#45;&gt;supriya.patterns.Pattern.Pattern -->
<g id="edge31" class="edge">
<title>supriya.system.SupriyaValueObject.SupriyaValueObject&#45;&gt;supriya.patterns.Pattern.Pattern</title>
<path fill="none" stroke="#778899" d="M209.2563,-182.764C217.0492,-182.3109 226.1351,-181.7826 234.9928,-181.2676"/>
<polygon fill="#778899" stroke="#778899" points="235.415,-184.749 245.1949,-180.6744 235.0086,-177.7608 235.415,-184.749"/>
</g>
<!-- builtins.object -->
<g id="node1" class="node">
<title>builtins.object</title>
<g id="a_node1"><a xlink:href="https://docs.python.org/3.6/library/functions.html#object" xlink:title="object" target="_top">
<path fill="#fbb4ae" stroke="#fbb4ae" stroke-width="2" d="M46.6667,-187.5C46.6667,-187.5 22.3333,-187.5 22.3333,-187.5 19.1667,-187.5 16,-184.3333 16,-181.1667 16,-181.1667 16,-174.8333 16,-174.8333 16,-171.6667 19.1667,-168.5 22.3333,-168.5 22.3333,-168.5 46.6667,-168.5 46.6667,-168.5 49.8333,-168.5 53,-171.6667 53,-174.8333 53,-174.8333 53,-181.1667 53,-181.1667 53,-184.3333 49.8333,-187.5 46.6667,-187.5"/>
<text text-anchor="middle" x="34.5" y="-175.5" font-family="Arial" font-size="10.00" fill="#000000">object</text>
</a>
</g>
</g>
<!-- supriya.patterns.BusEvent.BusEvent -->
<g id="node2" class="node">
<title>supriya.patterns.BusEvent.BusEvent</title>
<g id="a_node2"><a xlink:href="../api/supriya/patterns/BusEvent.html#supriya.patterns.BusEvent.BusEvent" xlink:title="Bus\nEvent" target="_top">
<path fill="#000000" stroke="#000000" stroke-width="2" d="M375.9741,-328C375.9741,-328 359.9741,-328 359.9741,-328 354.9741,-328 349.9741,-323 349.9741,-318 349.9741,-318 349.9741,-308 349.9741,-308 349.9741,-303 354.9741,-298 359.9741,-298 359.9741,-298 375.9741,-298 375.9741,-298 380.9741,-298 385.9741,-303 385.9741,-308 385.9741,-308 385.9741,-318 385.9741,-318 385.9741,-323 380.9741,-328 375.9741,-328"/>
<text text-anchor="middle" x="367.9741" y="-316" font-family="Arial" font-size="10.00" fill="#ffffff">Bus</text>
<text text-anchor="middle" x="367.9741" y="-305" font-family="Arial" font-size="10.00" fill="#ffffff">Event</text>
</a>
</g>
</g>
<!-- supriya.patterns.Clock.Clock -->
<g id="node3" class="node">
<title>supriya.patterns.Clock.Clock</title>
<g id="a_node3"><a xlink:href="../api/supriya/patterns/Clock.html#supriya.patterns.Clock.Clock" xlink:title="Clock" target="_top">
<path fill="#000000" stroke="#000000" stroke-width="2" d="M285.158,-146.5C285.158,-146.5 262.8247,-146.5 262.8247,-146.5 259.658,-146.5 256.4914,-143.3333 256.4914,-140.1667 256.4914,-140.1667 256.4914,-133.8333 256.4914,-133.8333 256.4914,-130.6667 259.658,-127.5 262.8247,-127.5 262.8247,-127.5 285.158,-127.5 285.158,-127.5 288.3247,-127.5 291.4914,-130.6667 291.4914,-133.8333 291.4914,-133.8333 291.4914,-140.1667 291.4914,-140.1667 291.4914,-143.3333 288.3247,-146.5 285.158,-146.5"/>
<text text-anchor="middle" x="273.9914" y="-134.5" font-family="Arial" font-size="10.00" fill="#ffffff">Clock</text>
</a>
</g>
</g>
<!-- supriya.patterns.CompositeEvent.CompositeEvent -->
<g id="node4" class="node">
<title>supriya.patterns.CompositeEvent.CompositeEvent</title>
<g id="a_node4"><a xlink:href="../api/supriya/patterns/CompositeEvent.html#supriya.patterns.CompositeEvent.CompositeEvent" xlink:title="Composite\nEvent" target="_top">
<path fill="#000000" stroke="#000000" stroke-width="2" d="M474.9655,-389C474.9655,-389 442.9655,-389 442.9655,-389 437.9655,-389 432.9655,-384 432.9655,-379 432.9655,-379 432.9655,-369 432.9655,-369 432.9655,-364 437.9655,-359 442.9655,-359 442.9655,-359 474.9655,-359 474.9655,-359 479.9655,-359 484.9655,-364 484.9655,-369 484.9655,-369 484.9655,-379 484.9655,-379 484.9655,-384 479.9655,-389 474.9655,-389"/>
<text text-anchor="middle" x="458.9655" y="-377" font-family="Arial" font-size="10.00" fill="#ffffff">Composite</text>
<text text-anchor="middle" x="458.9655" y="-366" font-family="Arial" font-size="10.00" fill="#ffffff">Event</text>
</a>
</g>
</g>
<!-- supriya.patterns.Event.Event -->
<g id="node5" class="node">
<title>supriya.patterns.Event.Event</title>
<g id="a_node5"><a xlink:href="../api/supriya/patterns/Event.html#supriya.patterns.Event.Event" xlink:title="Event" target="_top">
<ellipse fill="#000000" stroke="#000000" stroke-width="2" cx="273.9914" cy="-381" rx="25.4118" ry="13.3704"/>
<text text-anchor="middle" x="273.9914" y="-378.5" font-family="Arial" font-size="10.00" fill="#ffffff">Event</text>
</a>
</g>
</g>
<!-- supriya.patterns.GroupEvent.GroupEvent -->
<g id="node6" class="node">
<title>supriya.patterns.GroupEvent.GroupEvent</title>
<g id="a_node6"><a xlink:href="../api/supriya/patterns/GroupEvent.html#supriya.patterns.GroupEvent.GroupEvent" xlink:title="Group\nEvent" target="_top">
<path fill="#000000" stroke="#000000" stroke-width="2" d="M376.4741,-396C376.4741,-396 359.4741,-396 359.4741,-396 354.4741,-396 349.4741,-391 349.4741,-386 349.4741,-386 349.4741,-376 349.4741,-376 349.4741,-371 354.4741,-366 359.4741,-366 359.4741,-366 376.4741,-366 376.4741,-366 381.4741,-366 386.4741,-371 386.4741,-376 386.4741,-376 386.4741,-386 386.4741,-386 386.4741,-391 381.4741,-396 376.4741,-396"/>
<text text-anchor="middle" x="367.9741" y="-384" font-family="Arial" font-size="10.00" fill="#ffffff">Group</text>
<text text-anchor="middle" x="367.9741" y="-373" font-family="Arial" font-size="10.00" fill="#ffffff">Event</text>
</a>
</g>
</g>
<!-- supriya.patterns.NoteEvent.NoteEvent -->
<g id="node7" class="node">
<title>supriya.patterns.NoteEvent.NoteEvent</title>
<g id="a_node7"><a xlink:href="../api/supriya/patterns/NoteEvent.html#supriya.patterns.NoteEvent.NoteEvent" xlink:title="Note\nEvent" target="_top">
<path fill="#000000" stroke="#000000" stroke-width="2" d="M466.9655,-437C466.9655,-437 450.9655,-437 450.9655,-437 445.9655,-437 440.9655,-432 440.9655,-427 440.9655,-427 440.9655,-417 440.9655,-417 440.9655,-412 445.9655,-407 450.9655,-407 450.9655,-407 466.9655,-407 466.9655,-407 471.9655,-407 476.9655,-412 476.9655,-417 476.9655,-417 476.9655,-427 476.9655,-427 476.9655,-432 471.9655,-437 466.9655,-437"/>
<text text-anchor="middle" x="458.9655" y="-425" font-family="Arial" font-size="10.00" fill="#ffffff">Note</text>
<text text-anchor="middle" x="458.9655" y="-414" font-family="Arial" font-size="10.00" fill="#ffffff">Event</text>
</a>
</g>
</g>
<!-- supriya.patterns.NullEvent.NullEvent -->
<g id="node8" class="node">
<title>supriya.patterns.NullEvent.NullEvent</title>
<g id="a_node8"><a xlink:href="../api/supriya/patterns/NullEvent.html#supriya.patterns.NullEvent.NullEvent" xlink:title="Null\nEvent" target="_top">
<path fill="#000000" stroke="#000000" stroke-width="2" d="M375.9741,-464C375.9741,-464 359.9741,-464 359.9741,-464 354.9741,-464 349.9741,-459 349.9741,-454 349.9741,-454 349.9741,-444 349.9741,-444 349.9741,-439 354.9741,-434 359.9741,-434 359.9741,-434 375.9741,-434 375.9741,-434 380.9741,-434 385.9741,-439 385.9741,-444 385.9741,-444 385.9741,-454 385.9741,-454 385.9741,-459 380.9741,-464 375.9741,-464"/>
<text text-anchor="middle" x="367.9741" y="-452" font-family="Arial" font-size="10.00" fill="#ffffff">Null</text>
<text text-anchor="middle" x="367.9741" y="-441" font-family="Arial" font-size="10.00" fill="#ffffff">Event</text>
</a>
</g>
</g>
<!-- supriya.patterns.SynthEvent.SynthEvent -->
<g id="node9" class="node">
<title>supriya.patterns.SynthEvent.SynthEvent</title>
<g id="a_node9"><a xlink:href="../api/supriya/patterns/SynthEvent.html#supriya.patterns.SynthEvent.SynthEvent" xlink:title="Synth\nEvent" target="_top">
<path fill="#000000" stroke="#000000" stroke-width="2" d="M466.9655,-485C466.9655,-485 450.9655,-485 450.9655,-485 445.9655,-485 440.9655,-480 440.9655,-475 440.9655,-475 440.9655,-465 440.9655,-465 440.9655,-460 445.9655,-455 450.9655,-455 450.9655,-455 466.9655,-455 466.9655,-455 471.9655,-455 476.9655,-460 476.9655,-465 476.9655,-465 476.9655,-475 476.9655,-475 476.9655,-480 471.9655,-485 466.9655,-485"/>
<text text-anchor="middle" x="458.9655" y="-473" font-family="Arial" font-size="10.00" fill="#ffffff">Synth</text>
<text text-anchor="middle" x="458.9655" y="-462" font-family="Arial" font-size="10.00" fill="#ffffff">Event</text>
</a>
</g>
</g>
<!-- supriya.patterns.EventPattern.EventPattern -->
<g id="node10" class="node">
<title>supriya.patterns.EventPattern.EventPattern</title>
<g id="a_node10"><a xlink:href="../api/supriya/patterns/EventPattern.html#supriya.patterns.EventPattern.EventPattern" xlink:title="Event\nPattern" target="_top">
<ellipse fill="#000000" stroke="#000000" stroke-width="2" cx="367.9741" cy="-220" rx="28.9828" ry="21.4286"/>
<text text-anchor="middle" x="367.9741" y="-223" font-family="Arial" font-size="10.00" fill="#ffffff">Event</text>
<text text-anchor="middle" x="367.9741" y="-212" font-family="Arial" font-size="10.00" fill="#ffffff">Pattern</text>
</a>
</g>
</g>
<!-- supriya.patterns.Pbind.Pbind -->
<g id="node11" class="node">
<title>supriya.patterns.Pbind.Pbind</title>
<g id="a_node11"><a xlink:href="../api/supriya/patterns/Pbind.html#supriya.patterns.Pbind.Pbind" xlink:title="Pbind" target="_top">
<path fill="#000000" stroke="#000000" stroke-width="2" d="M470.6322,-204.5C470.6322,-204.5 447.2988,-204.5 447.2988,-204.5 444.1322,-204.5 440.9655,-201.3333 440.9655,-198.1667 440.9655,-198.1667 440.9655,-191.8333 440.9655,-191.8333 440.9655,-188.6667 444.1322,-185.5 447.2988,-185.5 447.2988,-185.5 470.6322,-185.5 470.6322,-185.5 473.7988,-185.5 476.9655,-188.6667 476.9655,-191.8333 476.9655,-191.8333 476.9655,-198.1667 476.9655,-198.1667 476.9655,-201.3333 473.7988,-204.5 470.6322,-204.5"/>
<text text-anchor="middle" x="458.9655" y="-192.5" font-family="Arial" font-size="10.00" fill="#ffffff">Pbind</text>
</a>
</g>
</g>
<!-- supriya.patterns.Pbindf.Pbindf -->
<g id="node12" class="node">
<title>supriya.patterns.Pbindf.Pbindf</title>
<g id="a_node12"><a xlink:href="../api/supriya/patterns/Pbindf.html#supriya.patterns.Pbindf.Pbindf" xlink:title="Pbindf" target="_top">
<path fill="#000000" stroke="#000000" stroke-width="2" d="M554.1322,-241.5C554.1322,-241.5 528.7988,-241.5 528.7988,-241.5 525.6322,-241.5 522.4655,-238.3333 522.4655,-235.1667 522.4655,-235.1667 522.4655,-228.8333 522.4655,-228.8333 522.4655,-225.6667 525.6322,-222.5 528.7988,-222.5 528.7988,-222.5 554.1322,-222.5 554.1322,-222.5 557.2988,-222.5 560.4655,-225.6667 560.4655,-228.8333 560.4655,-228.8333 560.4655,-235.1667 560.4655,-235.1667 560.4655,-238.3333 557.2988,-241.5 554.1322,-241.5"/>
<text text-anchor="middle" x="541.4655" y="-229.5" font-family="Arial" font-size="10.00" fill="#ffffff">Pbindf</text>
</a>
</g>
</g>
<!-- supriya.patterns.Pbus.Pbus -->
<g id="node13" class="node">
<title>supriya.patterns.Pbus.Pbus</title>
<g id="a_node13"><a xlink:href="../api/supriya/patterns/Pbus.html#supriya.patterns.Pbus.Pbus" xlink:title="Pbus" target="_top">
<path fill="#000000" stroke="#000000" stroke-width="2" d="M469.6322,-262.5C469.6322,-262.5 448.2988,-262.5 448.2988,-262.5 445.1322,-262.5 441.9655,-259.3333 441.9655,-256.1667 441.9655,-256.1667 441.9655,-249.8333 441.9655,-249.8333 441.9655,-246.6667 445.1322,-243.5 448.2988,-243.5 448.2988,-243.5 469.6322,-243.5 469.6322,-243.5 472.7988,-243.5 475.9655,-246.6667 475.9655,-249.8333 475.9655,-249.8333 475.9655,-256.1667 475.9655,-256.1667 475.9655,-259.3333 472.7988,-262.5 469.6322,-262.5"/>
<text text-anchor="middle" x="458.9655" y="-250.5" font-family="Arial" font-size="10.00" fill="#ffffff">Pbus</text>
</a>
</g>
</g>
<!-- supriya.patterns.Pchain.Pchain -->
<g id="node14" class="node">
<title>supriya.patterns.Pchain.Pchain</title>
<g id="a_node14"><a xlink:href="../api/supriya/patterns/Pchain.html#supriya.patterns.Pchain.Pchain" xlink:title="Pchain" target="_top">
<path fill="#000000" stroke="#000000" stroke-width="2" d="M554.6322,-291.5C554.6322,-291.5 528.2988,-291.5 528.2988,-291.5 525.1322,-291.5 521.9655,-288.3333 521.9655,-285.1667 521.9655,-285.1667 521.9655,-278.8333 521.9655,-278.8333 521.9655,-275.6667 525.1322,-272.5 528.2988,-272.5 528.2988,-272.5 554.6322,-272.5 554.6322,-272.5 557.7988,-272.5 560.9655,-275.6667 560.9655,-278.8333 560.9655,-278.8333 560.9655,-285.1667 560.9655,-285.1667 560.9655,-288.3333 557.7988,-291.5 554.6322,-291.5"/>
<text text-anchor="middle" x="541.4655" y="-279.5" font-family="Arial" font-size="10.00" fill="#ffffff">Pchain</text>
</a>
</g>
</g>
<!-- supriya.patterns.Pfx.Pfx -->
<g id="node15" class="node">
<title>supriya.patterns.Pfx.Pfx</title>
<g id="a_node15"><a xlink:href="../api/supriya/patterns/Pfx.html#supriya.patterns.Pfx.Pfx" xlink:title="Pfx" target="_top">
<path fill="#000000" stroke="#000000" stroke-width="2" d="M466.1322,-320.5C466.1322,-320.5 451.7988,-320.5 451.7988,-320.5 448.6322,-320.5 445.4655,-317.3333 445.4655,-314.1667 445.4655,-314.1667 445.4655,-307.8333 445.4655,-307.8333 445.4655,-304.6667 448.6322,-301.5 451.7988,-301.5 451.7988,-301.5 466.1322,-301.5 466.1322,-301.5 469.2988,-301.5 472.4655,-304.6667 472.4655,-307.8333 472.4655,-307.8333 472.4655,-314.1667 472.4655,-314.1667 472.4655,-317.3333 469.2988,-320.5 466.1322,-320.5"/>
<text text-anchor="middle" x="458.9655" y="-308.5" font-family="Arial" font-size="10.00" fill="#ffffff">Pfx</text>
</a>
</g>
</g>
<!-- supriya.patterns.Pgroup.Pgroup -->
<g id="node16" class="node">
<title>supriya.patterns.Pgroup.Pgroup</title>
<g id="a_node16"><a xlink:href="../api/supriya/patterns/Pgroup.html#supriya.patterns.Pgroup.Pgroup" xlink:title="Pgroup" target="_top">
<path fill="#000000" stroke="#000000" stroke-width="2" d="M555.6322,-349.5C555.6322,-349.5 527.2988,-349.5 527.2988,-349.5 524.1322,-349.5 520.9655,-346.3333 520.9655,-343.1667 520.9655,-343.1667 520.9655,-336.8333 520.9655,-336.8333 520.9655,-333.6667 524.1322,-330.5 527.2988,-330.5 527.2988,-330.5 555.6322,-330.5 555.6322,-330.5 558.7988,-330.5 561.9655,-333.6667 561.9655,-336.8333 561.9655,-336.8333 561.9655,-343.1667 561.9655,-343.1667 561.9655,-346.3333 558.7988,-349.5 555.6322,-349.5"/>
<text text-anchor="middle" x="541.4655" y="-337.5" font-family="Arial" font-size="10.00" fill="#ffffff">Pgroup</text>
</a>
</g>
</g>
<!-- supriya.patterns.Pn.Pn -->
<g id="node17" class="node">
<title>supriya.patterns.Pn.Pn</title>
<g id="a_node17"><a xlink:href="../api/supriya/patterns/Pn.html#supriya.patterns.Pn.Pn" xlink:title="Pn" target="_top">
<path fill="#000000" stroke="#000000" stroke-width="2" d="M465.6322,-146.5C465.6322,-146.5 452.2988,-146.5 452.2988,-146.5 449.1322,-146.5 445.9655,-143.3333 445.9655,-140.1667 445.9655,-140.1667 445.9655,-133.8333 445.9655,-133.8333 445.9655,-130.6667 449.1322,-127.5 452.2988,-127.5 452.2988,-127.5 465.6322,-127.5 465.6322,-127.5 468.7988,-127.5 471.9655,-130.6667 471.9655,-133.8333 471.9655,-133.8333 471.9655,-140.1667 471.9655,-140.1667 471.9655,-143.3333 468.7988,-146.5 465.6322,-146.5"/>
<text text-anchor="middle" x="458.9655" y="-134.5" font-family="Arial" font-size="10.00" fill="#ffffff">Pn</text>
</a>
</g>
</g>
<!-- supriya.patterns.Ppar.Ppar -->
<g id="node18" class="node">
<title>supriya.patterns.Ppar.Ppar</title>
<g id="a_node18"><a xlink:href="../api/supriya/patterns/Ppar.html#supriya.patterns.Ppar.Ppar" xlink:title="Ppar" target="_top">
<path fill="#000000" stroke="#000000" stroke-width="2" d="M551.1322,-167.5C551.1322,-167.5 531.7988,-167.5 531.7988,-167.5 528.6322,-167.5 525.4655,-164.3333 525.4655,-161.1667 525.4655,-161.1667 525.4655,-154.8333 525.4655,-154.8333 525.4655,-151.6667 528.6322,-148.5 531.7988,-148.5 531.7988,-148.5 551.1322,-148.5 551.1322,-148.5 554.2988,-148.5 557.4655,-151.6667 557.4655,-154.8333 557.4655,-154.8333 557.4655,-161.1667 557.4655,-161.1667 557.4655,-164.3333 554.2988,-167.5 551.1322,-167.5"/>
<text text-anchor="middle" x="541.4655" y="-155.5" font-family="Arial" font-size="10.00" fill="#ffffff">Ppar</text>
</a>
</g>
</g>
<!-- supriya.patterns.EventPlayer.EventPlayer -->
<g id="node19" class="node">
<title>supriya.patterns.EventPlayer.EventPlayer</title>
<g id="a_node19"><a xlink:href="../api/supriya/patterns/EventPlayer.html#supriya.patterns.EventPlayer.EventPlayer" xlink:title="Event\nPlayer" target="_top">
<path fill="#000000" stroke="#000000" stroke-width="2" d="M282.9914,-109C282.9914,-109 264.9914,-109 264.9914,-109 259.9914,-109 254.9914,-104 254.9914,-99 254.9914,-99 254.9914,-89 254.9914,-89 254.9914,-84 259.9914,-79 264.9914,-79 264.9914,-79 282.9914,-79 282.9914,-79 287.9914,-79 292.9914,-84 292.9914,-89 292.9914,-89 292.9914,-99 292.9914,-99 292.9914,-104 287.9914,-109 282.9914,-109"/>
<text text-anchor="middle" x="273.9914" y="-97" font-family="Arial" font-size="10.00" fill="#ffffff">Event</text>
<text text-anchor="middle" x="273.9914" y="-86" font-family="Arial" font-size="10.00" fill="#ffffff">Player</text>
</a>
</g>
</g>
<!-- supriya.patterns.RealtimeEventPlayer.RealtimeEventPlayer -->
<g id="node20" class="node">
<title>supriya.patterns.RealtimeEventPlayer.RealtimeEventPlayer</title>
<g id="a_node20"><a xlink:href="../api/supriya/patterns/RealtimeEventPlayer.html#supriya.patterns.RealtimeEventPlayer.RealtimeEventPlayer" xlink:title="Realtime\nEvent\nPlayer" target="_top">
<path fill="#000000" stroke="#000000" stroke-width="2" d="M378.9741,-101.5C378.9741,-101.5 356.9741,-101.5 356.9741,-101.5 350.9741,-101.5 344.9741,-95.5 344.9741,-89.5 344.9741,-89.5 344.9741,-72.5 344.9741,-72.5 344.9741,-66.5 350.9741,-60.5 356.9741,-60.5 356.9741,-60.5 378.9741,-60.5 378.9741,-60.5 384.9741,-60.5 390.9741,-66.5 390.9741,-72.5 390.9741,-72.5 390.9741,-89.5 390.9741,-89.5 390.9741,-95.5 384.9741,-101.5 378.9741,-101.5"/>
<text text-anchor="middle" x="367.9741" y="-89.5" font-family="Arial" font-size="10.00" fill="#ffffff">Realtime</text>
<text text-anchor="middle" x="367.9741" y="-78.5" font-family="Arial" font-size="10.00" fill="#ffffff">Event</text>
<text text-anchor="middle" x="367.9741" y="-67.5" font-family="Arial" font-size="10.00" fill="#ffffff">Player</text>
</a>
</g>
</g>
<!-- supriya.patterns.EventProduct.EventProduct -->
<g id="node21" class="node">
<title>supriya.patterns.EventProduct.EventProduct</title>
<g id="a_node21"><a xlink:href="../api/supriya/patterns/EventProduct.html#supriya.patterns.EventProduct.EventProduct" xlink:title="Event\nProduct" target="_top">
<path fill="#000000" stroke="#000000" stroke-width="2" d="M284.9914,-240C284.9914,-240 262.9914,-240 262.9914,-240 257.9914,-240 252.9914,-235 252.9914,-230 252.9914,-230 252.9914,-220 252.9914,-220 252.9914,-215 257.9914,-210 262.9914,-210 262.9914,-210 284.9914,-210 284.9914,-210 289.9914,-210 294.9914,-215 294.9914,-220 294.9914,-220 294.9914,-230 294.9914,-230 294.9914,-235 289.9914,-240 284.9914,-240"/>
<text text-anchor="middle" x="273.9914" y="-228" font-family="Arial" font-size="10.00" fill="#ffffff">Event</text>
<text text-anchor="middle" x="273.9914" y="-217" font-family="Arial" font-size="10.00" fill="#ffffff">Product</text>
</a>
</g>
</g>
<!-- supriya.patterns.Pattern.Pattern -->
<g id="node22" class="node">
<title>supriya.patterns.Pattern.Pattern</title>
<g id="a_node22"><a xlink:href="../api/supriya/patterns/Pattern.html#supriya.patterns.Pattern.Pattern" xlink:title="Pattern" target="_top">
<ellipse fill="#000000" stroke="#000000" stroke-width="2" cx="273.9914" cy="-179" rx="28.9828" ry="13.3704"/>
<text text-anchor="middle" x="273.9914" y="-176.5" font-family="Arial" font-size="10.00" fill="#ffffff">Pattern</text>
</a>
</g>
</g>
<!-- supriya.patterns.Pbinop.Pbinop -->
<g id="node23" class="node">
<title>supriya.patterns.Pbinop.Pbinop</title>
<g id="a_node23"><a xlink:href="../api/supriya/patterns/Pbinop.html#supriya.patterns.Pbinop.Pbinop" xlink:title="Pbinop" target="_top">
<path fill="#000000" stroke="#000000" stroke-width="2" d="M381.6408,-278.5C381.6408,-278.5 354.3075,-278.5 354.3075,-278.5 351.1408,-278.5 347.9741,-275.3333 347.9741,-272.1667 347.9741,-272.1667 347.9741,-265.8333 347.9741,-265.8333 347.9741,-262.6667 351.1408,-259.5 354.3075,-259.5 354.3075,-259.5 381.6408,-259.5 381.6408,-259.5 384.8075,-259.5 387.9741,-262.6667 387.9741,-265.8333 387.9741,-265.8333 387.9741,-272.1667 387.9741,-272.1667 387.9741,-275.3333 384.8075,-278.5 381.6408,-278.5"/>
<text text-anchor="middle" x="367.9741" y="-266.5" font-family="Arial" font-size="10.00" fill="#ffffff">Pbinop</text>
</a>
</g>
</g>
<!-- supriya.patterns.Pseed.Pseed -->
<g id="node24" class="node">
<title>supriya.patterns.Pseed.Pseed</title>
<g id="a_node24"><a xlink:href="../api/supriya/patterns/Pseed.html#supriya.patterns.Pseed.Pseed" xlink:title="Pseed" target="_top">
<path fill="#000000" stroke="#000000" stroke-width="2" d="M471.6322,-35.5C471.6322,-35.5 446.2988,-35.5 446.2988,-35.5 443.1322,-35.5 439.9655,-32.3333 439.9655,-29.1667 439.9655,-29.1667 439.9655,-22.8333 439.9655,-22.8333 439.9655,-19.6667 443.1322,-16.5 446.2988,-16.5 446.2988,-16.5 471.6322,-16.5 471.6322,-16.5 474.7988,-16.5 477.9655,-19.6667 477.9655,-22.8333 477.9655,-22.8333 477.9655,-29.1667 477.9655,-29.1667 477.9655,-32.3333 474.7988,-35.5 471.6322,-35.5"/>
<text text-anchor="middle" x="458.9655" y="-23.5" font-family="Arial" font-size="10.00" fill="#ffffff">Pseed</text>
</a>
</g>
</g>
<!-- supriya.patterns.Pseq.Pseq -->
<g id="node25" class="node">
<title>supriya.patterns.Pseq.Pseq</title>
<g id="a_node25"><a xlink:href="../api/supriya/patterns/Pseq.html#supriya.patterns.Pseq.Pseq" xlink:title="Pseq" target="_top">
<path fill="#000000" stroke="#000000" stroke-width="2" d="M378.6408,-159.5C378.6408,-159.5 357.3075,-159.5 357.3075,-159.5 354.1408,-159.5 350.9741,-156.3333 350.9741,-153.1667 350.9741,-153.1667 350.9741,-146.8333 350.9741,-146.8333 350.9741,-143.6667 354.1408,-140.5 357.3075,-140.5 357.3075,-140.5 378.6408,-140.5 378.6408,-140.5 381.8075,-140.5 384.9741,-143.6667 384.9741,-146.8333 384.9741,-146.8333 384.9741,-153.1667 384.9741,-153.1667 384.9741,-156.3333 381.8075,-159.5 378.6408,-159.5"/>
<text text-anchor="middle" x="367.9741" y="-147.5" font-family="Arial" font-size="10.00" fill="#ffffff">Pseq</text>
</a>
</g>
</g>
<!-- supriya.patterns.Pwhite.Pwhite -->
<g id="node26" class="node">
<title>supriya.patterns.Pwhite.Pwhite</title>
<g id="a_node26"><a xlink:href="../api/supriya/patterns/Pwhite.html#supriya.patterns.Pwhite.Pwhite" xlink:title="Pwhite" target="_top">
<path fill="#000000" stroke="#000000" stroke-width="2" d="M472.1322,-109.5C472.1322,-109.5 445.7988,-109.5 445.7988,-109.5 442.6322,-109.5 439.4655,-106.3333 439.4655,-103.1667 439.4655,-103.1667 439.4655,-96.8333 439.4655,-96.8333 439.4655,-93.6667 442.6322,-90.5 445.7988,-90.5 445.7988,-90.5 472.1322,-90.5 472.1322,-90.5 475.2988,-90.5 478.4655,-93.6667 478.4655,-96.8333 478.4655,-96.8333 478.4655,-103.1667 478.4655,-103.1667 478.4655,-106.3333 475.2988,-109.5 472.1322,-109.5"/>
<text text-anchor="middle" x="458.9655" y="-97.5" font-family="Arial" font-size="10.00" fill="#ffffff">Pwhite</text>
</a>
</g>
</g>
<!-- supriya.patterns.Pmono.Pmono -->
<g id="node27" class="node">
<title>supriya.patterns.Pmono.Pmono</title>
<g id="a_node27"><a xlink:href="../api/supriya/patterns/Pmono.html#supriya.patterns.Pmono.Pmono" xlink:title="Pmono" target="_top">
<path fill="#000000" stroke="#000000" stroke-width="2" d="M555.1322,-204.5C555.1322,-204.5 527.7988,-204.5 527.7988,-204.5 524.6322,-204.5 521.4655,-201.3333 521.4655,-198.1667 521.4655,-198.1667 521.4655,-191.8333 521.4655,-191.8333 521.4655,-188.6667 524.6322,-185.5 527.7988,-185.5 527.7988,-185.5 555.1322,-185.5 555.1322,-185.5 558.2988,-185.5 561.4655,-188.6667 561.4655,-191.8333 561.4655,-191.8333 561.4655,-198.1667 561.4655,-198.1667 561.4655,-201.3333 558.2988,-204.5 555.1322,-204.5"/>
<text text-anchor="middle" x="541.4655" y="-192.5" font-family="Arial" font-size="10.00" fill="#ffffff">Pmono</text>
</a>
</g>
</g>
<!-- supriya.patterns.Pgpar.Pgpar -->
<g id="node28" class="node">
<title>supriya.patterns.Pgpar.Pgpar</title>
<g id="a_node28"><a xlink:href="../api/supriya/patterns/Pgpar.html#supriya.patterns.Pgpar.Pgpar" xlink:title="Pgpar" target="_top">
<path fill="#000000" stroke="#000000" stroke-width="2" d="M628.6322,-167.5C628.6322,-167.5 604.2988,-167.5 604.2988,-167.5 601.1322,-167.5 597.9655,-164.3333 597.9655,-161.1667 597.9655,-161.1667 597.9655,-154.8333 597.9655,-154.8333 597.9655,-151.6667 601.1322,-148.5 604.2988,-148.5 604.2988,-148.5 628.6322,-148.5 628.6322,-148.5 631.7988,-148.5 634.9655,-151.6667 634.9655,-154.8333 634.9655,-154.8333 634.9655,-161.1667 634.9655,-161.1667 634.9655,-164.3333 631.7988,-167.5 628.6322,-167.5"/>
<text text-anchor="middle" x="616.4655" y="-155.5" font-family="Arial" font-size="10.00" fill="#ffffff">Pgpar</text>
</a>
</g>
</g>
<!-- supriya.patterns.Prand.Prand -->
<g id="node29" class="node">
<title>supriya.patterns.Prand.Prand</title>
<g id="a_node29"><a xlink:href="../api/supriya/patterns/Prand.html#supriya.patterns.Prand.Prand" xlink:title="Prand" target="_top">
<path fill="#000000" stroke="#000000" stroke-width="2" d="M471.1322,-72.5C471.1322,-72.5 446.7988,-72.5 446.7988,-72.5 443.6322,-72.5 440.4655,-69.3333 440.4655,-66.1667 440.4655,-66.1667 440.4655,-59.8333 440.4655,-59.8333 440.4655,-56.6667 443.6322,-53.5 446.7988,-53.5 446.7988,-53.5 471.1322,-53.5 471.1322,-53.5 474.2988,-53.5 477.4655,-56.6667 477.4655,-59.8333 477.4655,-59.8333 477.4655,-66.1667 477.4655,-66.1667 477.4655,-69.3333 474.2988,-72.5 471.1322,-72.5"/>
<text text-anchor="middle" x="458.9655" y="-60.5" font-family="Arial" font-size="10.00" fill="#ffffff">Prand</text>
</a>
</g>
</g>
<!-- supriya.patterns.RandomNumberGenerator.RandomNumberGenerator -->
<g id="node30" class="node">
<title>supriya.patterns.RandomNumberGenerator.RandomNumberGenerator</title>
<g id="a_node30"><a xlink:href="../api/supriya/patterns/RandomNumberGenerator.html#supriya.patterns.RandomNumberGenerator.RandomNumberGenerator" xlink:title="Random\nNumber\nGenerator" target="_top">
<path fill="#000000" stroke="#000000" stroke-width="2" d="M286.9914,-60.5C286.9914,-60.5 260.9914,-60.5 260.9914,-60.5 254.9914,-60.5 248.9914,-54.5 248.9914,-48.5 248.9914,-48.5 248.9914,-31.5 248.9914,-31.5 248.9914,-25.5 254.9914,-19.5 260.9914,-19.5 260.9914,-19.5 286.9914,-19.5 286.9914,-19.5 292.9914,-19.5 298.9914,-25.5 298.9914,-31.5 298.9914,-31.5 298.9914,-48.5 298.9914,-48.5 298.9914,-54.5 292.9914,-60.5 286.9914,-60.5"/>
<text text-anchor="middle" x="273.9914" y="-48.5" font-family="Arial" font-size="10.00" fill="#ffffff">Random</text>
<text text-anchor="middle" x="273.9914" y="-37.5" font-family="Arial" font-size="10.00" fill="#ffffff">Number</text>
<text text-anchor="middle" x="273.9914" y="-26.5" font-family="Arial" font-size="10.00" fill="#ffffff">Generator</text>
</a>
</g>
</g>
<!-- supriya.system.SupriyaObject.SupriyaObject -->
<g id="node31" class="node">
<title>supriya.system.SupriyaObject.SupriyaObject</title>
<g id="a_node31"><a xlink:href="../api/supriya/patterns/../system/SupriyaObject.html#supriya.system.SupriyaObject.SupriyaObject" xlink:title="Supriya\nObject" target="_top">
<path fill="#ccebc5" stroke="#ccebc5" stroke-width="2" d="M121,-193C121,-193 99,-193 99,-193 94,-193 89,-188 89,-183 89,-183 89,-173 89,-173 89,-168 94,-163 99,-163 99,-163 121,-163 121,-163 126,-163 131,-168 131,-173 131,-173 131,-183 131,-183 131,-188 126,-193 121,-193"/>
<text text-anchor="middle" x="110" y="-181" font-family="Arial" font-size="10.00" fill="#000000">Supriya</text>
<text text-anchor="middle" x="110" y="-170" font-family="Arial" font-size="10.00" fill="#000000">Object</text>
</a>
</g>
</g>
<!-- supriya.system.SupriyaValueObject.SupriyaValueObject -->
<g id="node32" class="node">
<title>supriya.system.SupriyaValueObject.SupriyaValueObject</title>
<g id="a_node32"><a xlink:href="../api/supriya/patterns/../system/SupriyaValueObject.html#supriya.system.SupriyaValueObject.SupriyaValueObject" xlink:title="Supriya\nValue\nObject" target="_top">
<path fill="#ccebc5" stroke="#ccebc5" stroke-width="2" d="M197,-204.5C197,-204.5 179,-204.5 179,-204.5 173,-204.5 167,-198.5 167,-192.5 167,-192.5 167,-175.5 167,-175.5 167,-169.5 173,-163.5 179,-163.5 179,-163.5 197,-163.5 197,-163.5 203,-163.5 209,-169.5 209,-175.5 209,-175.5 209,-192.5 209,-192.5 209,-198.5 203,-204.5 197,-204.5"/>
<text text-anchor="middle" x="188" y="-192.5" font-family="Arial" font-size="10.00" fill="#000000">Supriya</text>
<text text-anchor="middle" x="188" y="-181.5" font-family="Arial" font-size="10.00" fill="#000000">Value</text>
<text text-anchor="middle" x="188" y="-170.5" font-family="Arial" font-size="10.00" fill="#000000">Object</text>
</a>
</g>
</g>
</g>
</svg>
