<?xml version="1.0" encoding="UTF-8" standalone="no"?>
<!DOCTYPE svg PUBLIC "-//W3C//DTD SVG 1.1//EN"
 "http://www.w3.org/Graphics/SVG/1.1/DTD/svg11.dtd">
<!-- Generated by graphviz version 2.44.1 (20200629.0846)
 -->
<!-- Title: InheritanceGraph Pages: 1 -->
<svg width="930pt" height="381pt"
 viewBox="0.00 0.00 930.39 381.00" xmlns="http://www.w3.org/2000/svg" xmlns:xlink="http://www.w3.org/1999/xlink">
<g id="graph0" class="graph" transform="scale(1 1) rotate(0) translate(4 377)">
<title>InheritanceGraph</title>
<g id="clust1" class="cluster">
<title>cluster_builtins</title>
<path fill="transparent" stroke="#bcd2ee" stroke-width="2" stroke-dasharray="5,2" d="M20,-166C20,-166 55,-166 55,-166 61,-166 67,-172 67,-178 67,-178 67,-209 67,-209 67,-215 61,-221 55,-221 55,-221 20,-221 20,-221 14,-221 8,-215 8,-209 8,-209 8,-178 8,-178 8,-172 14,-166 20,-166"/>
<text text-anchor="middle" x="37.5" y="-209" font-family="Arial" font-size="10.00">builtins</text>
</g>
<g id="clust2" class="cluster">
<title>cluster_supriya.synthdefs.bases</title>
<path fill="transparent" stroke="#bcd2ee" stroke-width="2" stroke-dasharray="5,2" d="M347,-155C347,-155 493.79,-155 493.79,-155 499.79,-155 505.79,-161 505.79,-167 505.79,-167 505.79,-220 505.79,-220 505.79,-226 499.79,-232 493.79,-232 493.79,-232 347,-232 347,-232 341,-232 335,-226 335,-220 335,-220 335,-167 335,-167 335,-161 341,-155 347,-155"/>
<text text-anchor="middle" x="420.4" y="-220" font-family="Arial" font-size="10.00">supriya.synthdefs.bases</text>
</g>
<g id="clust3" class="cluster">
<title>cluster_supriya.synthdefs.mixins</title>
<path fill="transparent" stroke="#bcd2ee" stroke-width="2" stroke-dasharray="5,2" d="M202,-155C202,-155 303,-155 303,-155 309,-155 315,-161 315,-167 315,-167 315,-220 315,-220 315,-226 309,-232 303,-232 303,-232 202,-232 202,-232 196,-232 190,-226 190,-220 190,-220 190,-167 190,-167 190,-161 196,-155 202,-155"/>
<text text-anchor="middle" x="252.5" y="-220" font-family="Arial" font-size="10.00">supriya.synthdefs.mixins</text>
</g>
<g id="clust4" class="cluster">
<title>cluster_supriya.system</title>
<path fill="transparent" stroke="#bcd2ee" stroke-width="2" stroke-dasharray="5,2" d="M99,-161C99,-161 158,-161 158,-161 164,-161 170,-167 170,-173 170,-173 170,-214 170,-214 170,-220 164,-226 158,-226 158,-226 99,-226 99,-226 93,-226 87,-220 87,-214 87,-214 87,-173 87,-173 87,-167 93,-161 99,-161"/>
<text text-anchor="middle" x="128.5" y="-214" font-family="Arial" font-size="10.00">supriya.system</text>
</g>
<g id="clust5" class="cluster">
<title>cluster_supriya.ugens.beq</title>
<path fill="transparent" stroke="#bcd2ee" stroke-width="2" stroke-dasharray="5,2" d="M661.53,-8C661.53,-8 902.39,-8 902.39,-8 908.39,-8 914.39,-14 914.39,-20 914.39,-20 914.39,-353 914.39,-353 914.39,-359 908.39,-365 902.39,-365 902.39,-365 661.53,-365 661.53,-365 655.53,-365 649.53,-359 649.53,-353 649.53,-353 649.53,-20 649.53,-20 649.53,-14 655.53,-8 661.53,-8"/>
<text text-anchor="middle" x="781.96" y="-353" font-family="Arial" font-size="10.00">supriya.ugens.beq</text>
</g>
<g id="clust6" class="cluster">
<title>cluster_supriya.ugens.filters</title>
<path fill="transparent" stroke="#bcd2ee" stroke-width="2" stroke-dasharray="5,2" d="M537.79,-163C537.79,-163 617.53,-163 617.53,-163 623.53,-163 629.53,-169 629.53,-175 629.53,-175 629.53,-212 629.53,-212 629.53,-218 623.53,-224 617.53,-224 617.53,-224 537.79,-224 537.79,-224 531.79,-224 525.79,-218 525.79,-212 525.79,-212 525.79,-175 525.79,-175 525.79,-169 531.79,-163 537.79,-163"/>
<text text-anchor="middle" x="577.66" y="-212" font-family="Arial" font-size="10.00">supriya.ugens.filters</text>
</g>
<!-- builtins.object&#45;&gt;supriya.system.SupriyaObject -->
<g id="edge12" class="edge">
<title>builtins.object&#45;&gt;supriya.system.SupriyaObject</title>
<path fill="none" stroke="lightslategrey" d="M59.03,-184C69.03,-184 81.34,-184 92.72,-184"/>
<polygon fill="lightslategrey" stroke="lightslategrey" points="92.82,-187.5 102.82,-184 92.82,-180.5 92.82,-187.5"/>
</g>
<!-- supriya.synthdefs.bases.PureUGen&#45;&gt;supriya.ugens.filters.Filter -->
<g id="edge13" class="edge">
<title>supriya.synthdefs.bases.PureUGen&#45;&gt;supriya.ugens.filters.Filter</title>
<path fill="none" stroke="lightslategrey" d="M497.92,-184C511.01,-184 526.64,-184 540.51,-184"/>
<polygon fill="lightslategrey" stroke="lightslategrey" points="540.7,-187.5 550.7,-184 540.7,-180.5 540.7,-187.5"/>
</g>
<!-- supriya.synthdefs.bases.UGen&#45;&gt;supriya.synthdefs.bases.PureUGen -->
<g id="edge1" class="edge">
<title>supriya.synthdefs.bases.UGen&#45;&gt;supriya.synthdefs.bases.PureUGen</title>
<path fill="none" stroke="lightslategrey" d="M402.48,-184C410.56,-184 419.48,-184 428.05,-184"/>
<polygon fill="lightslategrey" stroke="lightslategrey" points="428.25,-187.5 438.25,-184 428.25,-180.5 428.25,-187.5"/>
</g>
<!-- supriya.synthdefs.mixins.UGenMethodMixin&#45;&gt;supriya.synthdefs.bases.UGen -->
<g id="edge14" class="edge">
<title>supriya.synthdefs.mixins.UGenMethodMixin&#45;&gt;supriya.synthdefs.bases.UGen</title>
<path fill="none" stroke="lightslategrey" d="M277.14,-184C292.98,-184 314.22,-184 332.55,-184"/>
<polygon fill="lightslategrey" stroke="lightslategrey" points="332.67,-187.5 342.67,-184 332.67,-180.5 332.67,-187.5"/>
</g>
<!-- supriya.system.SupriyaObject&#45;&gt;supriya.synthdefs.mixins.UGenMethodMixin -->
<g id="edge15" class="edge">
<title>supriya.system.SupriyaObject&#45;&gt;supriya.synthdefs.mixins.UGenMethodMixin</title>
<path fill="none" stroke="lightslategrey" d="M153.2,-184C171.61,-184 197.17,-184 217.61,-184"/>
<polygon fill="lightslategrey" stroke="lightslategrey" points="217.77,-187.5 227.77,-184 217.77,-180.5 217.77,-187.5"/>
</g>
<!-- supriya.ugens.beq.BEQSuite&#45;&gt;supriya.ugens.beq.BAllPass -->
<g id="edge2" class="edge">
<title>supriya.ugens.beq.BEQSuite&#45;&gt;supriya.ugens.beq.BAllPass</title>
<path fill="none" stroke="lightslategrey" d="M708.71,-170.72C722.24,-147.74 751.3,-99.28 778.39,-60 779.67,-58.14 781.02,-56.23 782.4,-54.33"/>
<polygon fill="lightslategrey" stroke="lightslategrey" points="785.32,-56.27 788.48,-46.16 779.7,-52.1 785.32,-56.27"/>
</g>
<!-- supriya.ugens.beq.BEQSuite&#45;&gt;supriya.ugens.beq.BBandPass -->
<g id="edge3" class="edge">
<title>supriya.ugens.beq.BEQSuite&#45;&gt;supriya.ugens.beq.BBandPass</title>
<path fill="none" stroke="lightslategrey" d="M706.13,-170.4C716.05,-146.43 740.21,-97.09 778.39,-75 799.97,-62.51 828.38,-60.55 850.04,-61.42"/>
<polygon fill="lightslategrey" stroke="lightslategrey" points="849.88,-64.91 860.08,-62.03 850.31,-57.93 849.88,-64.91"/>
</g>
<!-- supriya.ugens.beq.BEQSuite&#45;&gt;supriya.ugens.beq.BBandStop -->
<g id="edge4" class="edge">
<title>supriya.ugens.beq.BEQSuite&#45;&gt;supriya.ugens.beq.BBandStop</title>
<path fill="none" stroke="lightslategrey" d="M715.63,-171.46C731.23,-158.12 756.19,-136.78 774.99,-120.71"/>
<polygon fill="lightslategrey" stroke="lightslategrey" points="777.3,-123.34 782.63,-114.18 772.75,-118.02 777.3,-123.34"/>
</g>
<!-- supriya.ugens.beq.BEQSuite&#45;&gt;supriya.ugens.beq.BHiCut -->
<g id="edge5" class="edge">
<title>supriya.ugens.beq.BEQSuite&#45;&gt;supriya.ugens.beq.BHiCut</title>
<path fill="none" stroke="lightslategrey" d="M718.86,-171.91C734.01,-162.33 756.68,-149.51 778.39,-143 804.28,-135.23 835.27,-133.12 856.65,-132.71"/>
<polygon fill="lightslategrey" stroke="lightslategrey" points="856.9,-136.21 866.87,-132.63 856.84,-129.21 856.9,-136.21"/>
</g>
<!-- supriya.ugens.beq.BEQSuite&#45;&gt;supriya.ugens.beq.BHiPass -->
<g id="edge6" class="edge">
<title>supriya.ugens.beq.BEQSuite&#45;&gt;supriya.ugens.beq.BHiPass</title>
<path fill="none" stroke="lightslategrey" d="M737.7,-177.72C748.9,-175.8 761.05,-173.73 771.64,-171.91"/>
<polygon fill="lightslategrey" stroke="lightslategrey" points="772.36,-175.34 781.62,-170.21 771.18,-168.44 772.36,-175.34"/>
</g>
<!-- supriya.ugens.beq.BEQSuite&#45;&gt;supriya.ugens.beq.BHiShelf -->
<g id="edge7" class="edge">
<title>supriya.ugens.beq.BEQSuite&#45;&gt;supriya.ugens.beq.BHiShelf</title>
<path fill="none" stroke="lightslategrey" d="M740.78,-187.73C774.93,-190.93 823.31,-195.46 853.75,-198.32"/>
<polygon fill="lightslategrey" stroke="lightslategrey" points="853.44,-201.8 863.72,-199.25 854.09,-194.83 853.44,-201.8"/>
</g>
<!-- supriya.ugens.beq.BEQSuite&#45;&gt;supriya.ugens.beq.BLowCut -->
<g id="edge8" class="edge">
<title>supriya.ugens.beq.BEQSuite&#45;&gt;supriya.ugens.beq.BLowCut</title>
<path fill="none" stroke="lightslategrey" d="M723.03,-195.32C737.33,-202.66 756.12,-212.29 771.6,-220.23"/>
<polygon fill="lightslategrey" stroke="lightslategrey" points="770.24,-223.47 780.74,-224.92 773.44,-217.24 770.24,-223.47"/>
</g>
<!-- supriya.ugens.beq.BEQSuite&#45;&gt;supriya.ugens.beq.BLowPass -->
<g id="edge9" class="edge">
<title>supriya.ugens.beq.BEQSuite&#45;&gt;supriya.ugens.beq.BLowPass</title>
<path fill="none" stroke="lightslategrey" d="M710.16,-197.35C723.1,-214.92 748.48,-245.19 778.39,-259 801.63,-269.74 830.86,-271.67 852.41,-271.25"/>
<polygon fill="lightslategrey" stroke="lightslategrey" points="852.74,-274.74 862.61,-270.86 852.48,-267.74 852.74,-274.74"/>
</g>
<!-- supriya.ugens.beq.BEQSuite&#45;&gt;supriya.ugens.beq.BLowShelf -->
<g id="edge10" class="edge">
<title>supriya.ugens.beq.BEQSuite&#45;&gt;supriya.ugens.beq.BLowShelf</title>
<path fill="none" stroke="lightslategrey" d="M711.98,-197.19C728.7,-217.2 760.69,-255.49 781.26,-280.11"/>
<polygon fill="lightslategrey" stroke="lightslategrey" points="778.66,-282.45 787.76,-287.88 784.03,-277.97 778.66,-282.45"/>
</g>
<!-- supriya.ugens.beq.BEQSuite&#45;&gt;supriya.ugens.beq.BPeakEQ -->
<g id="edge11" class="edge">
<title>supriya.ugens.beq.BEQSuite&#45;&gt;supriya.ugens.beq.BPeakEQ</title>
<path fill="none" stroke="lightslategrey" d="M703.59,-197.83C710.11,-227.79 730.12,-298.25 778.39,-327 799.96,-339.85 828.77,-337.57 850.59,-332.8"/>
<polygon fill="lightslategrey" stroke="lightslategrey" points="851.5,-336.18 860.38,-330.39 849.83,-329.38 851.5,-336.18"/>
</g>
<!-- supriya.ugens.filters.Filter&#45;&gt;supriya.ugens.beq.BEQSuite -->
<g id="edge16" class="edge">
<title>supriya.ugens.filters.Filter&#45;&gt;supriya.ugens.beq.BEQSuite</title>
<path fill="none" stroke="lightslategrey" d="M604.77,-184C617.23,-184 632.6,-184 647.29,-184"/>
<polygon fill="lightslategrey" stroke="lightslategrey" points="647.3,-187.5 657.3,-184 647.3,-180.5 647.3,-187.5"/>
</g>
<!-- builtins.object -->
<g id="node1" class="node">
<title>builtins.object</title>
<g id="a_node1"><a xlink:href="https://docs.python.org/3/library/functions.html#object" xlink:title="object" target="_top">
<path fill="#fbb4ae" stroke="#fbb4ae" stroke-width="2" d="M52.67,-193.5C52.67,-193.5 22.33,-193.5 22.33,-193.5 19.17,-193.5 16,-190.33 16,-187.17 16,-187.17 16,-180.83 16,-180.83 16,-177.67 19.17,-174.5 22.33,-174.5 22.33,-174.5 52.67,-174.5 52.67,-174.5 55.83,-174.5 59,-177.67 59,-180.83 59,-180.83 59,-187.17 59,-187.17 59,-190.33 55.83,-193.5 52.67,-193.5"/>
<text text-anchor="middle" x="37.5" y="-181.5" font-family="Arial" font-size="10.00">object</text>
</a>
</g>
</g>
<!-- supriya.synthdefs.bases.PureUGen -->
<g id="node2" class="node">
<title>supriya.synthdefs.bases.PureUGen</title>
<g id="a_node2"><a xlink:href="../api/supriya/ugens/../synthdefs/bases.html#supriya.synthdefs.bases.PureUGen" xlink:title="Pure\nUGen" target="_top">
<ellipse fill="none" stroke="#b3cde3" stroke-width="2" cx="468.1" cy="-184" rx="29.9" ry="21.43"/>
<text text-anchor="middle" x="468.1" y="-187" font-family="Arial" font-size="10.00">Pure</text>
<text text-anchor="middle" x="468.1" y="-176" font-family="Arial" font-size="10.00">UGen</text>
</a>
</g>
</g>
<!-- supriya.synthdefs.bases.UGen -->
<g id="node3" class="node">
<title>supriya.synthdefs.bases.UGen</title>
<g id="a_node3"><a xlink:href="../api/supriya/ugens/../synthdefs/bases.html#supriya.synthdefs.bases.UGen" xlink:title="UGen" target="_top">
<ellipse fill="none" stroke="#b3cde3" stroke-width="2" cx="372.7" cy="-184" rx="29.9" ry="13.37"/>
<text text-anchor="middle" x="372.7" y="-181.5" font-family="Arial" font-size="10.00">UGen</text>
</a>
</g>
</g>
<!-- supriya.synthdefs.mixins.UGenMethodMixin -->
<g id="node4" class="node">
<title>supriya.synthdefs.mixins.UGenMethodMixin</title>
<g id="a_node4"><a xlink:href="../api/supriya/ugens/../synthdefs/mixins.html#supriya.synthdefs.mixins.UGenMethodMixin" xlink:title="UGen\nMethod\nMixin" target="_top">
<path fill="#ccebc5" stroke="#ccebc5" stroke-width="2" d="M265,-204.5C265,-204.5 240,-204.5 240,-204.5 234,-204.5 228,-198.5 228,-192.5 228,-192.5 228,-175.5 228,-175.5 228,-169.5 234,-163.5 240,-163.5 240,-163.5 265,-163.5 265,-163.5 271,-163.5 277,-169.5 277,-175.5 277,-175.5 277,-192.5 277,-192.5 277,-198.5 271,-204.5 265,-204.5"/>
<text text-anchor="middle" x="252.5" y="-192.5" font-family="Arial" font-size="10.00">UGen</text>
<text text-anchor="middle" x="252.5" y="-181.5" font-family="Arial" font-size="10.00">Method</text>
<text text-anchor="middle" x="252.5" y="-170.5" font-family="Arial" font-size="10.00">Mixin</text>
</a>
</g>
</g>
<!-- supriya.system.SupriyaObject -->
<g id="node5" class="node">
<title>supriya.system.SupriyaObject</title>
<g id="a_node5"><a xlink:href="../api/supriya/ugens/../system.html#supriya.system.SupriyaObject" xlink:title="Supriya\nObject" target="_top">
<path fill="#decbe4" stroke="#decbe4" stroke-width="2" d="M143,-199C143,-199 113,-199 113,-199 108,-199 103,-194 103,-189 103,-189 103,-179 103,-179 103,-174 108,-169 113,-169 113,-169 143,-169 143,-169 148,-169 153,-174 153,-179 153,-179 153,-189 153,-189 153,-194 148,-199 143,-199"/>
<text text-anchor="middle" x="128" y="-187" font-family="Arial" font-size="10.00">Supriya</text>
<text text-anchor="middle" x="128" y="-176" font-family="Arial" font-size="10.00">Object</text>
</a>
</g>
</g>
<!-- supriya.ugens.beq.BAllPass -->
<g id="node6" class="node">
<title>supriya.ugens.beq.BAllPass</title>
<g id="a_node6"><a xlink:href="../api/supriya/ugens/beq.html#supriya.ugens.beq.BAllPass" xlink:title="BAll\nPass" target="_top">
<path fill="black" stroke="black" stroke-width="2" d="M810.89,-46C810.89,-46 791.89,-46 791.89,-46 786.89,-46 781.89,-41 781.89,-36 781.89,-36 781.89,-26 781.89,-26 781.89,-21 786.89,-16 791.89,-16 791.89,-16 810.89,-16 810.89,-16 815.89,-16 820.89,-21 820.89,-26 820.89,-26 820.89,-36 820.89,-36 820.89,-41 815.89,-46 810.89,-46"/>
<text text-anchor="middle" x="801.39" y="-34" font-family="Arial" font-size="10.00" fill="white">BAll</text>
<text text-anchor="middle" x="801.39" y="-23" font-family="Arial" font-size="10.00" fill="white">Pass</text>
</a>
</g>
</g>
<!-- supriya.ugens.beq.BBandPass -->
<g id="node7" class="node">
<title>supriya.ugens.beq.BBandPass</title>
<g id="a_node7"><a xlink:href="../api/supriya/ugens/beq.html#supriya.ugens.beq.BBandPass" xlink:title="BBand\nPass" target="_top">
<path fill="black" stroke="black" stroke-width="2" d="M896.39,-80C896.39,-80 870.39,-80 870.39,-80 865.39,-80 860.39,-75 860.39,-70 860.39,-70 860.39,-60 860.39,-60 860.39,-55 865.39,-50 870.39,-50 870.39,-50 896.39,-50 896.39,-50 901.39,-50 906.39,-55 906.39,-60 906.39,-60 906.39,-70 906.39,-70 906.39,-75 901.39,-80 896.39,-80"/>
<text text-anchor="middle" x="883.39" y="-68" font-family="Arial" font-size="10.00" fill="white">BBand</text>
<text text-anchor="middle" x="883.39" y="-57" font-family="Arial" font-size="10.00" fill="white">Pass</text>
</a>
</g>
</g>
<!-- supriya.ugens.beq.BBandStop -->
<g id="node8" class="node">
<title>supriya.ugens.beq.BBandStop</title>
<g id="a_node8"><a xlink:href="../api/supriya/ugens/beq.html#supriya.ugens.beq.BBandStop" xlink:title="BBand\nStop" target="_top">
<path fill="black" stroke="black" stroke-width="2" d="M814.39,-114C814.39,-114 788.39,-114 788.39,-114 783.39,-114 778.39,-109 778.39,-104 778.39,-104 778.39,-94 778.39,-94 778.39,-89 783.39,-84 788.39,-84 788.39,-84 814.39,-84 814.39,-84 819.39,-84 824.39,-89 824.39,-94 824.39,-94 824.39,-104 824.39,-104 824.39,-109 819.39,-114 814.39,-114"/>
<text text-anchor="middle" x="801.39" y="-102" font-family="Arial" font-size="10.00" fill="white">BBand</text>
<text text-anchor="middle" x="801.39" y="-91" font-family="Arial" font-size="10.00" fill="white">Stop</text>
</a>
</g>
</g>
<!-- supriya.ugens.beq.BEQSuite -->
<g id="node9" class="node">
<title>supriya.ugens.beq.BEQSuite</title>
<g id="a_node9"><a xlink:href="../api/supriya/ugens/beq.html#supriya.ugens.beq.BEQSuite" xlink:title="BEQSuite" target="_top">
<ellipse fill="black" stroke="black" stroke-width="2" cx="699.96" cy="-184" rx="42.35" ry="13.37"/>
<text text-anchor="middle" x="699.96" y="-181.5" font-family="Arial" font-size="10.00" fill="white">BEQSuite</text>
</a>
</g>
</g>
<!-- supriya.ugens.beq.BHiCut -->
<g id="node10" class="node">
<title>supriya.ugens.beq.BHiCut</title>
<g id="a_node10"><a xlink:href="../api/supriya/ugens/beq.html#supriya.ugens.beq.BHiCut" xlink:title="BHi\nCut" target="_top">
<path fill="black" stroke="black" stroke-width="2" d="M889.89,-148C889.89,-148 876.89,-148 876.89,-148 871.89,-148 866.89,-143 866.89,-138 866.89,-138 866.89,-128 866.89,-128 866.89,-123 871.89,-118 876.89,-118 876.89,-118 889.89,-118 889.89,-118 894.89,-118 899.89,-123 899.89,-128 899.89,-128 899.89,-138 899.89,-138 899.89,-143 894.89,-148 889.89,-148"/>
<text text-anchor="middle" x="883.39" y="-136" font-family="Arial" font-size="10.00" fill="white">BHi</text>
<text text-anchor="middle" x="883.39" y="-125" font-family="Arial" font-size="10.00" fill="white">Cut</text>
</a>
</g>
</g>
<!-- supriya.ugens.beq.BHiPass -->
<g id="node11" class="node">
<title>supriya.ugens.beq.BHiPass</title>
<g id="a_node11"><a xlink:href="../api/supriya/ugens/beq.html#supriya.ugens.beq.BHiPass" xlink:title="BHi\nPass" target="_top">
<path fill="black" stroke="black" stroke-width="2" d="M810.89,-182C810.89,-182 791.89,-182 791.89,-182 786.89,-182 781.89,-177 781.89,-172 781.89,-172 781.89,-162 781.89,-162 781.89,-157 786.89,-152 791.89,-152 791.89,-152 810.89,-152 810.89,-152 815.89,-152 820.89,-157 820.89,-162 820.89,-162 820.89,-172 820.89,-172 820.89,-177 815.89,-182 810.89,-182"/>
<text text-anchor="middle" x="801.39" y="-170" font-family="Arial" font-size="10.00" fill="white">BHi</text>
<text text-anchor="middle" x="801.39" y="-159" font-family="Arial" font-size="10.00" fill="white">Pass</text>
</a>
</g>
</g>
<!-- supriya.ugens.beq.BHiShelf -->
<g id="node12" class="node">
<title>supriya.ugens.beq.BHiShelf</title>
<g id="a_node12"><a xlink:href="../api/supriya/ugens/beq.html#supriya.ugens.beq.BHiShelf" xlink:title="BHi\nShelf" target="_top">
<path fill="black" stroke="black" stroke-width="2" d="M892.89,-216C892.89,-216 873.89,-216 873.89,-216 868.89,-216 863.89,-211 863.89,-206 863.89,-206 863.89,-196 863.89,-196 863.89,-191 868.89,-186 873.89,-186 873.89,-186 892.89,-186 892.89,-186 897.89,-186 902.89,-191 902.89,-196 902.89,-196 902.89,-206 902.89,-206 902.89,-211 897.89,-216 892.89,-216"/>
<text text-anchor="middle" x="883.39" y="-204" font-family="Arial" font-size="10.00" fill="white">BHi</text>
<text text-anchor="middle" x="883.39" y="-193" font-family="Arial" font-size="10.00" fill="white">Shelf</text>
</a>
</g>
</g>
<!-- supriya.ugens.beq.BLowCut -->
<g id="node13" class="node">
<title>supriya.ugens.beq.BLowCut</title>
<g id="a_node13"><a xlink:href="../api/supriya/ugens/beq.html#supriya.ugens.beq.BLowCut" xlink:title="BLow\nCut" target="_top">
<path fill="black" stroke="black" stroke-width="2" d="M811.89,-250C811.89,-250 790.89,-250 790.89,-250 785.89,-250 780.89,-245 780.89,-240 780.89,-240 780.89,-230 780.89,-230 780.89,-225 785.89,-220 790.89,-220 790.89,-220 811.89,-220 811.89,-220 816.89,-220 821.89,-225 821.89,-230 821.89,-230 821.89,-240 821.89,-240 821.89,-245 816.89,-250 811.89,-250"/>
<text text-anchor="middle" x="801.39" y="-238" font-family="Arial" font-size="10.00" fill="white">BLow</text>
<text text-anchor="middle" x="801.39" y="-227" font-family="Arial" font-size="10.00" fill="white">Cut</text>
</a>
</g>
</g>
<!-- supriya.ugens.beq.BLowPass -->
<g id="node14" class="node">
<title>supriya.ugens.beq.BLowPass</title>
<g id="a_node14"><a xlink:href="../api/supriya/ugens/beq.html#supriya.ugens.beq.BLowPass" xlink:title="BLow\nPass" target="_top">
<path fill="black" stroke="black" stroke-width="2" d="M893.89,-284C893.89,-284 872.89,-284 872.89,-284 867.89,-284 862.89,-279 862.89,-274 862.89,-274 862.89,-264 862.89,-264 862.89,-259 867.89,-254 872.89,-254 872.89,-254 893.89,-254 893.89,-254 898.89,-254 903.89,-259 903.89,-264 903.89,-264 903.89,-274 903.89,-274 903.89,-279 898.89,-284 893.89,-284"/>
<text text-anchor="middle" x="883.39" y="-272" font-family="Arial" font-size="10.00" fill="white">BLow</text>
<text text-anchor="middle" x="883.39" y="-261" font-family="Arial" font-size="10.00" fill="white">Pass</text>
</a>
</g>
</g>
<!-- supriya.ugens.beq.BLowShelf -->
<g id="node15" class="node">
<title>supriya.ugens.beq.BLowShelf</title>
<g id="a_node15"><a xlink:href="../api/supriya/ugens/beq.html#supriya.ugens.beq.BLowShelf" xlink:title="BLow\nShelf" target="_top">
<path fill="black" stroke="black" stroke-width="2" d="M811.89,-318C811.89,-318 790.89,-318 790.89,-318 785.89,-318 780.89,-313 780.89,-308 780.89,-308 780.89,-298 780.89,-298 780.89,-293 785.89,-288 790.89,-288 790.89,-288 811.89,-288 811.89,-288 816.89,-288 821.89,-293 821.89,-298 821.89,-298 821.89,-308 821.89,-308 821.89,-313 816.89,-318 811.89,-318"/>
<text text-anchor="middle" x="801.39" y="-306" font-family="Arial" font-size="10.00" fill="white">BLow</text>
<text text-anchor="middle" x="801.39" y="-295" font-family="Arial" font-size="10.00" fill="white">Shelf</text>
</a>
</g>
</g>
<!-- supriya.ugens.beq.BPeakEQ -->
<g id="node16" class="node">
<title>supriya.ugens.beq.BPeakEQ</title>
<g id="a_node16"><a xlink:href="../api/supriya/ugens/beq.html#supriya.ugens.beq.BPeakEQ" xlink:title="BPeak\nEQ" target="_top">
<path fill="black" stroke="black" stroke-width="2" d="M896.39,-338C896.39,-338 870.39,-338 870.39,-338 865.39,-338 860.39,-333 860.39,-328 860.39,-328 860.39,-318 860.39,-318 860.39,-313 865.39,-308 870.39,-308 870.39,-308 896.39,-308 896.39,-308 901.39,-308 906.39,-313 906.39,-318 906.39,-318 906.39,-328 906.39,-328 906.39,-333 901.39,-338 896.39,-338"/>
<text text-anchor="middle" x="883.39" y="-326" font-family="Arial" font-size="10.00" fill="white">BPeak</text>
<text text-anchor="middle" x="883.39" y="-315" font-family="Arial" font-size="10.00" fill="white">EQ</text>
</a>
</g>
</g>
<!-- supriya.ugens.filters.Filter -->
<g id="node17" class="node">
<title>supriya.ugens.filters.Filter</title>
<g id="a_node17"><a xlink:href="../api/supriya/ugens/filters.html#supriya.ugens.filters.Filter" xlink:title="Filter" target="_top">
<ellipse fill="none" stroke="#ffffcc" stroke-width="2" cx="577.66" cy="-184" rx="26.74" ry="13.37"/>
<text text-anchor="middle" x="577.66" y="-181.5" font-family="Arial" font-size="10.00">Filter</text>
</a>
</g>
</g>
</g>
</svg>
