<?xml version="1.0" encoding="UTF-8" standalone="no"?>
<!DOCTYPE svg PUBLIC "-//W3C//DTD SVG 1.1//EN"
 "http://www.w3.org/Graphics/SVG/1.1/DTD/svg11.dtd">
<!-- Generated by graphviz version 2.44.1 (20200629.0846)
 -->
<!-- Title: InheritanceGraph Pages: 1 -->
<svg width="334pt" height="101pt"
 viewBox="0.00 0.00 334.00 101.00" xmlns="http://www.w3.org/2000/svg" xmlns:xlink="http://www.w3.org/1999/xlink">
<g id="graph0" class="graph" transform="scale(1 1) rotate(0) translate(4 97)">
<title>InheritanceGraph</title>
<g id="clust1" class="cluster">
<title>cluster_builtins</title>
<path fill="transparent" stroke="#bcd2ee" stroke-width="2" stroke-dasharray="5,2" d="M20,-19C20,-19 55,-19 55,-19 61,-19 67,-25 67,-31 67,-31 67,-62 67,-62 67,-68 61,-74 55,-74 55,-74 20,-74 20,-74 14,-74 8,-68 8,-62 8,-62 8,-31 8,-31 8,-25 14,-19 20,-19"/>
<text text-anchor="middle" x="37.5" y="-62" font-family="Arial" font-size="10.00">builtins</text>
</g>
<g id="clust2" class="cluster">
<title>cluster_supriya.clock.bases</title>
<path fill="transparent" stroke="#bcd2ee" stroke-width="2" stroke-dasharray="5,2" d="M99,-8C99,-8 179,-8 179,-8 185,-8 191,-14 191,-20 191,-20 191,-73 191,-73 191,-79 185,-85 179,-85 179,-85 99,-85 99,-85 93,-85 87,-79 87,-73 87,-73 87,-20 87,-20 87,-14 93,-8 99,-8"/>
<text text-anchor="middle" x="139" y="-73" font-family="Arial" font-size="10.00">supriya.clock.bases</text>
</g>
<g id="clust3" class="cluster">
<title>cluster_supriya.clock.threaded</title>
<path fill="transparent" stroke="#bcd2ee" stroke-width="2" stroke-dasharray="5,2" d="M223,-14C223,-14 314,-14 314,-14 320,-14 326,-20 326,-26 326,-26 326,-67 326,-67 326,-73 320,-79 314,-79 314,-79 223,-79 223,-79 217,-79 211,-73 211,-67 211,-67 211,-26 211,-26 211,-20 217,-14 223,-14"/>
<text text-anchor="middle" x="268.5" y="-67" font-family="Arial" font-size="10.00">supriya.clock.threaded</text>
</g>
<!-- builtins.object&#45;&gt;supriya.clock.bases.BaseTempoClock -->
<g id="edge1" class="edge">
<title>builtins.object&#45;&gt;supriya.clock.bases.BaseTempoClock</title>
<path fill="none" stroke="lightslategrey" d="M59.12,-37C72.53,-37 90.3,-37 105.58,-37"/>
<polygon fill="lightslategrey" stroke="lightslategrey" points="105.68,-40.5 115.68,-37 105.68,-33.5 105.68,-40.5"/>
</g>
<!-- supriya.clock.bases.BaseTempoClock&#45;&gt;supriya.clock.threaded.TempoClock -->
<g id="edge2" class="edge">
<title>supriya.clock.bases.BaseTempoClock&#45;&gt;supriya.clock.threaded.TempoClock</title>
<path fill="none" stroke="lightslategrey" d="M162.12,-37C182.12,-37 211.82,-37 234.52,-37"/>
<polygon fill="lightslategrey" stroke="lightslategrey" points="234.71,-40.5 244.71,-37 234.71,-33.5 234.71,-40.5"/>
</g>
<!-- builtins.object -->
<g id="node1" class="node">
<title>builtins.object</title>
<g id="a_node1"><a xlink:href="https://docs.python.org/3/library/functions.html#object" xlink:title="object" target="_top">
<path fill="#fbb4ae" stroke="#fbb4ae" stroke-width="2" d="M52.67,-46.5C52.67,-46.5 22.33,-46.5 22.33,-46.5 19.17,-46.5 16,-43.33 16,-40.17 16,-40.17 16,-33.83 16,-33.83 16,-30.67 19.17,-27.5 22.33,-27.5 22.33,-27.5 52.67,-27.5 52.67,-27.5 55.83,-27.5 59,-30.67 59,-33.83 59,-33.83 59,-40.17 59,-40.17 59,-43.33 55.83,-46.5 52.67,-46.5"/>
<text text-anchor="middle" x="37.5" y="-34.5" font-family="Arial" font-size="10.00">object</text>
</a>
</g>
</g>
<!-- supriya.clock.bases.BaseTempoClock -->
<g id="node2" class="node">
<title>supriya.clock.bases.BaseTempoClock</title>
<g id="a_node2"><a xlink:href="../api/supriya/clock/bases.html#supriya.clock.bases.BaseTempoClock" xlink:title="Base\nTempo\nClock" target="_top">
<path fill="#b3cde3" stroke="#b3cde3" stroke-width="2" d="M150,-57.5C150,-57.5 128,-57.5 128,-57.5 122,-57.5 116,-51.5 116,-45.5 116,-45.5 116,-28.5 116,-28.5 116,-22.5 122,-16.5 128,-16.5 128,-16.5 150,-16.5 150,-16.5 156,-16.5 162,-22.5 162,-28.5 162,-28.5 162,-45.5 162,-45.5 162,-51.5 156,-57.5 150,-57.5"/>
<text text-anchor="middle" x="139" y="-45.5" font-family="Arial" font-size="10.00">Base</text>
<text text-anchor="middle" x="139" y="-34.5" font-family="Arial" font-size="10.00">Tempo</text>
<text text-anchor="middle" x="139" y="-23.5" font-family="Arial" font-size="10.00">Clock</text>
</a>
</g>
</g>
<!-- supriya.clock.threaded.TempoClock -->
<g id="node3" class="node">
<title>supriya.clock.threaded.TempoClock</title>
<g id="a_node3"><a xlink:href="../api/supriya/clock/threaded.html#supriya.clock.threaded.TempoClock" xlink:title="Tempo\nClock" target="_top">
<path fill="black" stroke="black" stroke-width="2" d="M281,-52C281,-52 255,-52 255,-52 250,-52 245,-47 245,-42 245,-42 245,-32 245,-32 245,-27 250,-22 255,-22 255,-22 281,-22 281,-22 286,-22 291,-27 291,-32 291,-32 291,-42 291,-42 291,-47 286,-52 281,-52"/>
<text text-anchor="middle" x="268" y="-40" font-family="Arial" font-size="10.00" fill="white">Tempo</text>
<text text-anchor="middle" x="268" y="-29" font-family="Arial" font-size="10.00" fill="white">Clock</text>
</a>
</g>
</g>
</g>
</svg>
