<?xml version="1.0" encoding="UTF-8" standalone="no"?>
<!DOCTYPE svg PUBLIC "-//W3C//DTD SVG 1.1//EN"
 "http://www.w3.org/Graphics/SVG/1.1/DTD/svg11.dtd">
<!-- Generated by graphviz version 2.40.1 (20161225.0304)
 -->
<!-- Title: InheritanceGraph Pages: 1 -->
<svg width="375pt" height="101pt"
 viewBox="0.00 0.00 374.59 101.00" xmlns="http://www.w3.org/2000/svg" xmlns:xlink="http://www.w3.org/1999/xlink">
<g id="graph0" class="graph" transform="scale(1 1) rotate(0) translate(4 97)">
<title>InheritanceGraph</title>
<g id="clust1" class="cluster">
<title>cluster_builtins</title>
<path fill="transparent" stroke="#bcd2ee" stroke-width="2" stroke-dasharray="5,2" d="M20,-19C20,-19 49,-19 49,-19 55,-19 61,-25 61,-31 61,-31 61,-62 61,-62 61,-68 55,-74 49,-74 49,-74 20,-74 20,-74 14,-74 8,-68 8,-62 8,-62 8,-31 8,-31 8,-25 14,-19 20,-19"/>
<text text-anchor="middle" x="34.5" y="-62" font-family="Arial" font-size="10.00" fill="#000000">builtins</text>
</g>
<g id="clust2" class="cluster">
<title>cluster_supriya.system</title>
<path fill="transparent" stroke="#bcd2ee" stroke-width="2" stroke-dasharray="5,2" d="M93,-14C93,-14 136,-14 136,-14 142,-14 148,-20 148,-26 148,-26 148,-67 148,-67 148,-73 142,-79 136,-79 136,-79 93,-79 93,-79 87,-79 81,-73 81,-67 81,-67 81,-26 81,-26 81,-20 87,-14 93,-14"/>
<text text-anchor="middle" x="114.5" y="-67" font-family="Arial" font-size="10.00" fill="#000000">supriya.system</text>
</g>
<g id="clust3" class="cluster">
<title>cluster_supriya.ugens</title>
<path fill="transparent" stroke="#bcd2ee" stroke-width="2" stroke-dasharray="5,2" d="M180,-8C180,-8 346.5929,-8 346.5929,-8 352.5929,-8 358.5929,-14 358.5929,-20 358.5929,-20 358.5929,-73 358.5929,-73 358.5929,-79 352.5929,-85 346.5929,-85 346.5929,-85 180,-85 180,-85 174,-85 168,-79 168,-73 168,-73 168,-20 168,-20 168,-14 174,-8 180,-8"/>
<text text-anchor="middle" x="263.2965" y="-73" font-family="Arial" font-size="10.00" fill="#000000">supriya.ugens</text>
</g>
<!-- builtins.object&#45;&gt;supriya.system.SupriyaObject.SupriyaObject -->
<g id="edge2" class="edge">
<title>builtins.object&#45;&gt;supriya.system.SupriyaObject.SupriyaObject</title>
<path fill="none" stroke="#778899" d="M53.3404,-37C62.0401,-37 72.6079,-37 82.4698,-37"/>
<polygon fill="#778899" stroke="#778899" points="82.7722,-40.5001 92.7722,-37 82.7721,-33.5001 82.7722,-40.5001"/>
</g>
<!-- supriya.system.SupriyaObject.SupriyaObject&#45;&gt;supriya.ugens.PseudoUGen.PseudoUGen -->
<g id="edge3" class="edge">
<title>supriya.system.SupriyaObject.SupriyaObject&#45;&gt;supriya.ugens.PseudoUGen.PseudoUGen</title>
<path fill="none" stroke="#778899" d="M135.268,-37C144.3151,-37 155.1753,-37 165.6283,-37"/>
<polygon fill="#778899" stroke="#778899" points="165.8633,-40.5001 175.8633,-37 165.8632,-33.5001 165.8633,-40.5001"/>
</g>
<!-- supriya.ugens.PseudoUGen.PseudoUGen&#45;&gt;supriya.ugens.CompanderD.CompanderD -->
<g id="edge1" class="edge">
<title>supriya.ugens.PseudoUGen.PseudoUGen&#45;&gt;supriya.ugens.CompanderD.CompanderD</title>
<path fill="none" stroke="#778899" d="M235.5906,-37C243.5441,-37 252.3557,-37 261.0676,-37"/>
<polygon fill="#778899" stroke="#778899" points="261.1916,-40.5001 271.1916,-37 261.1915,-33.5001 261.1916,-40.5001"/>
</g>
<!-- builtins.object -->
<g id="node1" class="node">
<title>builtins.object</title>
<g id="a_node1"><a xlink:href="https://docs.python.org/3.6/library/functions.html#object" xlink:title="object" target="_top">
<path fill="#fbb4ae" stroke="#fbb4ae" stroke-width="2" d="M46.6667,-46.5C46.6667,-46.5 22.3333,-46.5 22.3333,-46.5 19.1667,-46.5 16,-43.3333 16,-40.1667 16,-40.1667 16,-33.8333 16,-33.8333 16,-30.6667 19.1667,-27.5 22.3333,-27.5 22.3333,-27.5 46.6667,-27.5 46.6667,-27.5 49.8333,-27.5 53,-30.6667 53,-33.8333 53,-33.8333 53,-40.1667 53,-40.1667 53,-43.3333 49.8333,-46.5 46.6667,-46.5"/>
<text text-anchor="middle" x="34.5" y="-34.5" font-family="Arial" font-size="10.00" fill="#000000">object</text>
</a>
</g>
</g>
<!-- supriya.system.SupriyaObject.SupriyaObject -->
<g id="node2" class="node">
<title>supriya.system.SupriyaObject.SupriyaObject</title>
<g id="a_node2"><a xlink:href="../api/supriya/ugens/../system/SupriyaObject.html#supriya.system.SupriyaObject.SupriyaObject" xlink:title="Supriya\nObject" target="_top">
<path fill="#b3cde3" stroke="#b3cde3" stroke-width="2" d="M125,-52C125,-52 103,-52 103,-52 98,-52 93,-47 93,-42 93,-42 93,-32 93,-32 93,-27 98,-22 103,-22 103,-22 125,-22 125,-22 130,-22 135,-27 135,-32 135,-32 135,-42 135,-42 135,-47 130,-52 125,-52"/>
<text text-anchor="middle" x="114" y="-40" font-family="Arial" font-size="10.00" fill="#000000">Supriya</text>
<text text-anchor="middle" x="114" y="-29" font-family="Arial" font-size="10.00" fill="#000000">Object</text>
</a>
</g>
</g>
<!-- supriya.ugens.CompanderD.CompanderD -->
<g id="node3" class="node">
<title>supriya.ugens.CompanderD.CompanderD</title>
<g id="a_node3"><a xlink:href="../api/supriya/ugens/CompanderD.html#supriya.ugens.CompanderD.CompanderD" xlink:title="Compander\nD" target="_top">
<ellipse fill="#000000" stroke="#000000" stroke-width="2" cx="310.9949" cy="-37" rx="39.6962" ry="21.4286"/>
<text text-anchor="middle" x="310.9949" y="-40" font-family="Arial" font-size="10.00" fill="#ffffff">Compander</text>
<text text-anchor="middle" x="310.9949" y="-29" font-family="Arial" font-size="10.00" fill="#ffffff">D</text>
</a>
</g>
</g>
<!-- supriya.ugens.PseudoUGen.PseudoUGen -->
<g id="node4" class="node">
<title>supriya.ugens.PseudoUGen.PseudoUGen</title>
<g id="a_node4"><a xlink:href="../api/supriya/ugens/PseudoUGen.html#supriya.ugens.PseudoUGen.PseudoUGen" xlink:title="Pseudo\nUGen" target="_top">
<ellipse fill="none" stroke="#ccebc5" stroke-width="2" cx="205.6985" cy="-37" rx="29.8983" ry="21.4286"/>
<text text-anchor="middle" x="205.6985" y="-40" font-family="Arial" font-size="10.00" fill="#000000">Pseudo</text>
<text text-anchor="middle" x="205.6985" y="-29" font-family="Arial" font-size="10.00" fill="#000000">UGen</text>
</a>
</g>
</g>
</g>
</svg>
