<?xml version="1.0" encoding="UTF-8" standalone="no"?>
<!DOCTYPE svg PUBLIC "-//W3C//DTD SVG 1.1//EN"
 "http://www.w3.org/Graphics/SVG/1.1/DTD/svg11.dtd">
<!-- Generated by graphviz version 2.40.1 (20161225.0304)
 -->
<!-- Title: InheritanceGraph Pages: 1 -->
<svg width="407pt" height="152pt"
 viewBox="0.00 0.00 407.00 152.00" xmlns="http://www.w3.org/2000/svg" xmlns:xlink="http://www.w3.org/1999/xlink">
<g id="graph0" class="graph" transform="scale(1 1) rotate(0) translate(4 148)">
<title>InheritanceGraph</title>
<g id="clust1" class="cluster">
<title>cluster_builtins</title>
<path fill="transparent" stroke="#bcd2ee" stroke-width="2" stroke-dasharray="5,2" d="M20,-81C20,-81 115,-81 115,-81 121,-81 127,-87 127,-93 127,-93 127,-124 127,-124 127,-130 121,-136 115,-136 115,-136 20,-136 20,-136 14,-136 8,-130 8,-124 8,-124 8,-93 8,-93 8,-87 14,-81 20,-81"/>
<text text-anchor="middle" x="67.5" y="-124" font-family="Arial" font-size="10.00" fill="#000000">builtins</text>
</g>
<g id="clust2" class="cluster">
<title>cluster_enum</title>
<path fill="transparent" stroke="#bcd2ee" stroke-width="2" stroke-dasharray="5,2" d="M93,-8C93,-8 193,-8 193,-8 199,-8 205,-14 205,-20 205,-20 205,-61 205,-61 205,-67 199,-73 193,-73 193,-73 93,-73 93,-73 87,-73 81,-67 81,-61 81,-61 81,-20 81,-20 81,-14 87,-8 93,-8"/>
<text text-anchor="middle" x="143" y="-61" font-family="Arial" font-size="10.00" fill="#000000">enum</text>
</g>
<g id="clust3" class="cluster">
<title>cluster_supriya.synthdefs</title>
<path fill="transparent" stroke="#bcd2ee" stroke-width="2" stroke-dasharray="5,2" d="M332,-8C332,-8 383,-8 383,-8 389,-8 395,-14 395,-20 395,-20 395,-61 395,-61 395,-67 389,-73 383,-73 383,-73 332,-73 332,-73 326,-73 320,-67 320,-61 320,-61 320,-20 320,-20 320,-14 326,-8 332,-8"/>
<text text-anchor="middle" x="357.5" y="-61" font-family="Arial" font-size="10.00" fill="#000000">supriya.synthdefs</text>
</g>
<g id="clust4" class="cluster">
<title>cluster_uqbar.enums</title>
<path fill="transparent" stroke="#bcd2ee" stroke-width="2" stroke-dasharray="5,2" d="M237,-8C237,-8 288,-8 288,-8 294,-8 300,-14 300,-20 300,-20 300,-61 300,-61 300,-67 294,-73 288,-73 288,-73 237,-73 237,-73 231,-73 225,-67 225,-61 225,-61 225,-20 225,-20 225,-14 231,-8 237,-8"/>
<text text-anchor="middle" x="262.5" y="-61" font-family="Arial" font-size="10.00" fill="#000000">uqbar.enums</text>
</g>
<!-- builtins.int&#45;&gt;enum.IntEnum -->
<g id="edge3" class="edge">
<title>builtins.int&#45;&gt;enum.IntEnum</title>
<path fill="none" stroke="#778899" d="M117.3158,-89.2573C127.1693,-79.9512 142.3793,-65.5862 155.2298,-53.4496"/>
<polygon fill="#778899" stroke="#778899" points="157.9902,-55.6568 162.8572,-46.246 153.1839,-50.5677 157.9902,-55.6568"/>
</g>
<!-- builtins.object&#45;&gt;builtins.int -->
<g id="edge1" class="edge">
<title>builtins.object&#45;&gt;builtins.int</title>
<path fill="none" stroke="#778899" d="M53.1706,-99C62.7836,-99 74.573,-99 84.6656,-99"/>
<polygon fill="#778899" stroke="#778899" points="84.768,-102.5001 94.768,-99 84.768,-95.5001 84.768,-102.5001"/>
</g>
<!-- builtins.object&#45;&gt;enum.Enum -->
<g id="edge4" class="edge">
<title>builtins.object&#45;&gt;enum.Enum</title>
<path fill="none" stroke="#778899" d="M45.1976,-89.2615C56.6561,-78.8303 75.045,-62.0901 88.7899,-49.5775"/>
<polygon fill="#778899" stroke="#778899" points="91.2198,-52.0985 96.2585,-42.7785 86.5075,-46.9221 91.2198,-52.0985"/>
</g>
<!-- enum.Enum&#45;&gt;enum.IntEnum -->
<g id="edge2" class="edge">
<title>enum.Enum&#45;&gt;enum.IntEnum</title>
<path fill="none" stroke="#778899" d="M125.1686,-32.4953C132.869,-32.2814 142.0257,-32.0271 150.5834,-31.7894"/>
<polygon fill="#778899" stroke="#778899" points="150.6878,-35.2879 160.5867,-31.5115 150.4934,-28.2906 150.6878,-35.2879"/>
</g>
<!-- enum.IntEnum&#45;&gt;uqbar.enums.IntEnumeration -->
<g id="edge5" class="edge">
<title>enum.IntEnum&#45;&gt;uqbar.enums.IntEnumeration</title>
<path fill="none" stroke="#778899" d="M197.1183,-31C204.7154,-31 213.8693,-31 222.8896,-31"/>
<polygon fill="#778899" stroke="#778899" points="222.927,-34.5001 232.927,-31 222.9269,-27.5001 222.927,-34.5001"/>
</g>
<!-- uqbar.enums.IntEnumeration&#45;&gt;supriya.synthdefs.ParameterRate.ParameterRate -->
<g id="edge6" class="edge">
<title>uqbar.enums.IntEnumeration&#45;&gt;supriya.synthdefs.ParameterRate.ParameterRate</title>
<path fill="none" stroke="#778899" d="M292.1411,-31C301.2837,-31 311.4528,-31 320.976,-31"/>
<polygon fill="#778899" stroke="#778899" points="320.9772,-34.5001 330.9772,-31 320.9772,-27.5001 320.9772,-34.5001"/>
</g>
<!-- builtins.int -->
<g id="node1" class="node">
<title>builtins.int</title>
<g id="a_node1"><a xlink:href="https://docs.python.org/3.6/library/functions.html#int" xlink:title="int" target="_top">
<path fill="#fbb4ae" stroke="#fbb4ae" stroke-width="2" d="M112.6667,-108.5C112.6667,-108.5 101.3333,-108.5 101.3333,-108.5 98.1667,-108.5 95,-105.3333 95,-102.1667 95,-102.1667 95,-95.8333 95,-95.8333 95,-92.6667 98.1667,-89.5 101.3333,-89.5 101.3333,-89.5 112.6667,-89.5 112.6667,-89.5 115.8333,-89.5 119,-92.6667 119,-95.8333 119,-95.8333 119,-102.1667 119,-102.1667 119,-105.3333 115.8333,-108.5 112.6667,-108.5"/>
<text text-anchor="middle" x="107" y="-96.5" font-family="Arial" font-size="10.00" fill="#000000">int</text>
</a>
</g>
</g>
<!-- builtins.object -->
<g id="node2" class="node">
<title>builtins.object</title>
<g id="a_node2"><a xlink:href="https://docs.python.org/3.6/library/functions.html#object" xlink:title="object" target="_top">
<path fill="#fbb4ae" stroke="#fbb4ae" stroke-width="2" d="M46.6667,-108.5C46.6667,-108.5 22.3333,-108.5 22.3333,-108.5 19.1667,-108.5 16,-105.3333 16,-102.1667 16,-102.1667 16,-95.8333 16,-95.8333 16,-92.6667 19.1667,-89.5 22.3333,-89.5 22.3333,-89.5 46.6667,-89.5 46.6667,-89.5 49.8333,-89.5 53,-92.6667 53,-95.8333 53,-95.8333 53,-102.1667 53,-102.1667 53,-105.3333 49.8333,-108.5 46.6667,-108.5"/>
<text text-anchor="middle" x="34.5" y="-96.5" font-family="Arial" font-size="10.00" fill="#000000">object</text>
</a>
</g>
</g>
<!-- enum.Enum -->
<g id="node3" class="node">
<title>enum.Enum</title>
<g id="a_node3"><a xlink:href="https://docs.python.org/3.6/library/enum.html#enum.Enum" xlink:title="Enum" target="_top">
<path fill="#b3cde3" stroke="#b3cde3" stroke-width="2" d="M118.6667,-42.5C118.6667,-42.5 95.3333,-42.5 95.3333,-42.5 92.1667,-42.5 89,-39.3333 89,-36.1667 89,-36.1667 89,-29.8333 89,-29.8333 89,-26.6667 92.1667,-23.5 95.3333,-23.5 95.3333,-23.5 118.6667,-23.5 118.6667,-23.5 121.8333,-23.5 125,-26.6667 125,-29.8333 125,-29.8333 125,-36.1667 125,-36.1667 125,-39.3333 121.8333,-42.5 118.6667,-42.5"/>
<text text-anchor="middle" x="107" y="-30.5" font-family="Arial" font-size="10.00" fill="#000000">Enum</text>
</a>
</g>
</g>
<!-- enum.IntEnum -->
<g id="node4" class="node">
<title>enum.IntEnum</title>
<g id="a_node4"><a xlink:href="https://docs.python.org/3.6/library/enum.html#enum.IntEnum" xlink:title="Int\nEnum" target="_top">
<path fill="#b3cde3" stroke="#b3cde3" stroke-width="2" d="M187,-46C187,-46 171,-46 171,-46 166,-46 161,-41 161,-36 161,-36 161,-26 161,-26 161,-21 166,-16 171,-16 171,-16 187,-16 187,-16 192,-16 197,-21 197,-26 197,-26 197,-36 197,-36 197,-41 192,-46 187,-46"/>
<text text-anchor="middle" x="179" y="-34" font-family="Arial" font-size="10.00" fill="#000000">Int</text>
<text text-anchor="middle" x="179" y="-23" font-family="Arial" font-size="10.00" fill="#000000">Enum</text>
</a>
</g>
</g>
<!-- supriya.synthdefs.ParameterRate.ParameterRate -->
<g id="node5" class="node">
<title>supriya.synthdefs.ParameterRate.ParameterRate</title>
<g id="a_node5"><a xlink:href="../api/supriya/synthdefs/ParameterRate.html#supriya.synthdefs.ParameterRate.ParameterRate" xlink:title="Parameter\nRate" target="_top">
<path fill="#000000" stroke="#000000" stroke-width="2" d="M373,-46C373,-46 341,-46 341,-46 336,-46 331,-41 331,-36 331,-36 331,-26 331,-26 331,-21 336,-16 341,-16 341,-16 373,-16 373,-16 378,-16 383,-21 383,-26 383,-26 383,-36 383,-36 383,-41 378,-46 373,-46"/>
<text text-anchor="middle" x="357" y="-34" font-family="Arial" font-size="10.00" fill="#ffffff">Parameter</text>
<text text-anchor="middle" x="357" y="-23" font-family="Arial" font-size="10.00" fill="#ffffff">Rate</text>
</a>
</g>
</g>
<!-- uqbar.enums.IntEnumeration -->
<g id="node6" class="node">
<title>uqbar.enums.IntEnumeration</title>
<path fill="#decbe4" stroke="#decbe4" stroke-width="2" d="M282,-46C282,-46 243,-46 243,-46 238,-46 233,-41 233,-36 233,-36 233,-26 233,-26 233,-21 238,-16 243,-16 243,-16 282,-16 282,-16 287,-16 292,-21 292,-26 292,-26 292,-36 292,-36 292,-41 287,-46 282,-46"/>
<text text-anchor="middle" x="262.5" y="-34" font-family="Arial" font-size="10.00" fill="#000000">Int</text>
<text text-anchor="middle" x="262.5" y="-23" font-family="Arial" font-size="10.00" fill="#000000">Enumeration</text>
</g>
</g>
</svg>
