<?xml version="1.0" encoding="UTF-8" standalone="no"?>
<!DOCTYPE svg PUBLIC "-//W3C//DTD SVG 1.1//EN"
 "http://www.w3.org/Graphics/SVG/1.1/DTD/svg11.dtd">
<!-- Generated by graphviz version 2.40.1 (20161225.0304)
 -->
<!-- Title: InheritanceGraph Pages: 1 -->
<svg width="161pt" height="89pt"
 viewBox="0.00 0.00 161.00 89.00" xmlns="http://www.w3.org/2000/svg" xmlns:xlink="http://www.w3.org/1999/xlink">
<g id="graph0" class="graph" transform="scale(1 1) rotate(0) translate(4 85)">
<title>InheritanceGraph</title>
<g id="clust1" class="cluster">
<title>cluster_builtins</title>
<path fill="transparent" stroke="#bcd2ee" stroke-width="2" stroke-dasharray="5,2" d="M20,-13C20,-13 49,-13 49,-13 55,-13 61,-19 61,-25 61,-25 61,-56 61,-56 61,-62 55,-68 49,-68 49,-68 20,-68 20,-68 14,-68 8,-62 8,-56 8,-56 8,-25 8,-25 8,-19 14,-13 20,-13"/>
<text text-anchor="middle" x="34.5" y="-56" font-family="Arial" font-size="10.00" fill="#000000">builtins</text>
</g>
<g id="clust2" class="cluster">
<title>cluster_supriya.system</title>
<path fill="transparent" stroke="#bcd2ee" stroke-width="2" stroke-dasharray="5,2" d="M93,-8C93,-8 136,-8 136,-8 142,-8 148,-14 148,-20 148,-20 148,-61 148,-61 148,-67 142,-73 136,-73 136,-73 93,-73 93,-73 87,-73 81,-67 81,-61 81,-61 81,-20 81,-20 81,-14 87,-8 93,-8"/>
<text text-anchor="middle" x="114.5" y="-61" font-family="Arial" font-size="10.00" fill="#000000">supriya.system</text>
</g>
<!-- builtins.object&#45;&gt;supriya.system.BindableFloat.BindableFloat -->
<g id="edge1" class="edge">
<title>builtins.object&#45;&gt;supriya.system.BindableFloat.BindableFloat</title>
<path fill="none" stroke="#778899" d="M53.3404,-31C61.4805,-31 71.2561,-31 80.5586,-31"/>
<polygon fill="#778899" stroke="#778899" points="80.7482,-34.5001 90.7481,-31 80.7481,-27.5001 80.7482,-34.5001"/>
</g>
<!-- builtins.object -->
<g id="node1" class="node">
<title>builtins.object</title>
<g id="a_node1"><a xlink:href="https://docs.python.org/3.6/library/functions.html#object" xlink:title="object" target="_top">
<path fill="#fbb4ae" stroke="#fbb4ae" stroke-width="2" d="M46.6667,-40.5C46.6667,-40.5 22.3333,-40.5 22.3333,-40.5 19.1667,-40.5 16,-37.3333 16,-34.1667 16,-34.1667 16,-27.8333 16,-27.8333 16,-24.6667 19.1667,-21.5 22.3333,-21.5 22.3333,-21.5 46.6667,-21.5 46.6667,-21.5 49.8333,-21.5 53,-24.6667 53,-27.8333 53,-27.8333 53,-34.1667 53,-34.1667 53,-37.3333 49.8333,-40.5 46.6667,-40.5"/>
<text text-anchor="middle" x="34.5" y="-28.5" font-family="Arial" font-size="10.00" fill="#000000">object</text>
</a>
</g>
</g>
<!-- supriya.system.BindableFloat.BindableFloat -->
<g id="node2" class="node">
<title>supriya.system.BindableFloat.BindableFloat</title>
<g id="a_node2"><a xlink:href="../api/supriya/system/BindableFloat.html#supriya.system.BindableFloat.BindableFloat" xlink:title="Bindable\nFloat" target="_top">
<path fill="#000000" stroke="#000000" stroke-width="2" d="M127,-46C127,-46 101,-46 101,-46 96,-46 91,-41 91,-36 91,-36 91,-26 91,-26 91,-21 96,-16 101,-16 101,-16 127,-16 127,-16 132,-16 137,-21 137,-26 137,-26 137,-36 137,-36 137,-41 132,-46 127,-46"/>
<text text-anchor="middle" x="114" y="-34" font-family="Arial" font-size="10.00" fill="#ffffff">Bindable</text>
<text text-anchor="middle" x="114" y="-23" font-family="Arial" font-size="10.00" fill="#ffffff">Float</text>
</a>
</g>
</g>
</g>
</svg>
