<?xml version="1.0" encoding="UTF-8" standalone="no"?>
<!DOCTYPE svg PUBLIC "-//W3C//DTD SVG 1.1//EN"
 "http://www.w3.org/Graphics/SVG/1.1/DTD/svg11.dtd">
<!-- Generated by graphviz version 2.44.1 (20200629.0846)
 -->
<!-- Title: InheritanceGraph Pages: 1 -->
<svg width="552pt" height="260pt"
 viewBox="0.00 0.00 552.39 260.00" xmlns="http://www.w3.org/2000/svg" xmlns:xlink="http://www.w3.org/1999/xlink">
<g id="graph0" class="graph" transform="scale(1 1) rotate(0) translate(4 256)">
<title>InheritanceGraph</title>
<g id="clust1" class="cluster">
<title>cluster_builtins</title>
<path fill="transparent" stroke="#bcd2ee" stroke-width="2" stroke-dasharray="5,2" d="M20,-118C20,-118 55,-118 55,-118 61,-118 67,-124 67,-130 67,-130 67,-161 67,-161 67,-167 61,-173 55,-173 55,-173 20,-173 20,-173 14,-173 8,-167 8,-161 8,-161 8,-130 8,-130 8,-124 14,-118 20,-118"/>
<text text-anchor="middle" x="37.5" y="-161" font-family="Arial" font-size="10.00">builtins</text>
</g>
<g id="clust2" class="cluster">
<title>cluster_collections.abc</title>
<path fill="transparent" stroke="#bcd2ee" stroke-width="2" stroke-dasharray="5,2" d="M99,-93C99,-93 420.39,-93 420.39,-93 426.39,-93 432.39,-99 432.39,-105 432.39,-105 432.39,-232 432.39,-232 432.39,-238 426.39,-244 420.39,-244 420.39,-244 99,-244 99,-244 93,-244 87,-238 87,-232 87,-232 87,-105 87,-105 87,-99 93,-93 99,-93"/>
<text text-anchor="middle" x="259.69" y="-232" font-family="Arial" font-size="10.00">collections.abc</text>
</g>
<g id="clust3" class="cluster">
<title>cluster_supriya.querytree</title>
<path fill="transparent" stroke="#bcd2ee" stroke-width="2" stroke-dasharray="5,2" d="M464.39,-8C464.39,-8 532.39,-8 532.39,-8 538.39,-8 544.39,-14 544.39,-20 544.39,-20 544.39,-191 544.39,-191 544.39,-197 538.39,-203 532.39,-203 532.39,-203 464.39,-203 464.39,-203 458.39,-203 452.39,-197 452.39,-191 452.39,-191 452.39,-20 452.39,-20 452.39,-14 458.39,-8 464.39,-8"/>
<text text-anchor="middle" x="498.39" y="-191" font-family="Arial" font-size="10.00">supriya.querytree</text>
</g>
<g id="clust4" class="cluster">
<title>cluster_supriya.system</title>
<path fill="transparent" stroke="#bcd2ee" stroke-width="2" stroke-dasharray="5,2" d="M237.99,-8C237.99,-8 402.96,-8 402.96,-8 408.96,-8 414.96,-14 414.96,-20 414.96,-20 414.96,-73 414.96,-73 414.96,-79 408.96,-85 402.96,-85 402.96,-85 237.99,-85 237.99,-85 231.99,-85 225.99,-79 225.99,-73 225.99,-73 225.99,-20 225.99,-20 225.99,-14 231.99,-8 237.99,-8"/>
<text text-anchor="middle" x="320.47" y="-73" font-family="Arial" font-size="10.00">supriya.system</text>
</g>
<!-- builtins.object&#45;&gt;collections.abc.Container -->
<g id="edge8" class="edge">
<title>builtins.object&#45;&gt;collections.abc.Container</title>
<path fill="none" stroke="lightslategrey" d="M59.12,-140.88C68.86,-143.18 80.88,-146.03 92.48,-148.77"/>
<polygon fill="lightslategrey" stroke="lightslategrey" points="91.97,-152.25 102.51,-151.14 93.58,-145.43 91.97,-152.25"/>
</g>
<!-- builtins.object&#45;&gt;collections.abc.Iterable -->
<g id="edge9" class="edge">
<title>builtins.object&#45;&gt;collections.abc.Iterable</title>
<path fill="none" stroke="lightslategrey" d="M47.08,-145.53C56.26,-155.33 71.59,-170.58 87,-181 91.75,-184.21 97.01,-187.2 102.27,-189.89"/>
<polygon fill="lightslategrey" stroke="lightslategrey" points="101.1,-193.21 111.63,-194.4 104.14,-186.91 101.1,-193.21"/>
</g>
<!-- builtins.object&#45;&gt;collections.abc.Sized -->
<g id="edge10" class="edge">
<title>builtins.object&#45;&gt;collections.abc.Sized</title>
<path fill="none" stroke="lightslategrey" d="M59.12,-131.33C71.14,-128.61 86.62,-125.11 100.52,-121.97"/>
<polygon fill="lightslategrey" stroke="lightslategrey" points="101.31,-125.38 110.29,-119.76 99.76,-118.55 101.31,-125.38"/>
</g>
<!-- builtins.object&#45;&gt;supriya.system.SupriyaObject -->
<g id="edge11" class="edge">
<title>builtins.object&#45;&gt;supriya.system.SupriyaObject</title>
<path fill="none" stroke="lightslategrey" d="M46.02,-126.27C54.76,-115.61 70.15,-98.75 87,-89 130.55,-63.81 187.92,-50.84 223.88,-44.73"/>
<polygon fill="lightslategrey" stroke="lightslategrey" points="224.56,-48.17 233.87,-43.12 223.44,-41.26 224.56,-48.17"/>
</g>
<!-- collections.abc.Collection&#45;&gt;collections.abc.Sequence -->
<g id="edge1" class="edge">
<title>collections.abc.Collection&#45;&gt;collections.abc.Sequence</title>
<path fill="none" stroke="lightslategrey" d="M301.62,-156C310.46,-156 319.89,-156 329.06,-156"/>
<polygon fill="lightslategrey" stroke="lightslategrey" points="329.25,-159.5 339.25,-156 329.25,-152.5 329.25,-159.5"/>
</g>
<!-- collections.abc.Container&#45;&gt;collections.abc.Collection -->
<g id="edge2" class="edge">
<title>collections.abc.Container&#45;&gt;collections.abc.Collection</title>
<path fill="none" stroke="lightslategrey" d="M178.44,-157.98C187.44,-157.76 197.1,-157.52 206.48,-157.28"/>
<polygon fill="lightslategrey" stroke="lightslategrey" points="206.58,-160.78 216.49,-157.04 206.41,-153.79 206.58,-160.78"/>
</g>
<!-- collections.abc.Iterable&#45;&gt;collections.abc.Collection -->
<g id="edge3" class="edge">
<title>collections.abc.Iterable&#45;&gt;collections.abc.Collection</title>
<path fill="none" stroke="lightslategrey" d="M161.48,-194.52C178.81,-187.6 202.61,-178.1 222.23,-170.27"/>
<polygon fill="lightslategrey" stroke="lightslategrey" points="223.78,-173.42 231.77,-166.46 221.18,-166.92 223.78,-173.42"/>
</g>
<!-- collections.abc.Iterable&#45;&gt;collections.abc.Reversible -->
<g id="edge4" class="edge">
<title>collections.abc.Iterable&#45;&gt;collections.abc.Reversible</title>
<path fill="none" stroke="lightslategrey" d="M171.54,-203.72C181.65,-203.63 192.99,-203.54 204.05,-203.45"/>
<polygon fill="lightslategrey" stroke="lightslategrey" points="204.11,-206.95 214.08,-203.37 204.05,-199.95 204.11,-206.95"/>
</g>
<!-- collections.abc.Reversible&#45;&gt;collections.abc.Sequence -->
<g id="edge5" class="edge">
<title>collections.abc.Reversible&#45;&gt;collections.abc.Sequence</title>
<path fill="none" stroke="lightslategrey" d="M287.14,-192.45C304.14,-185.85 326.26,-177.25 344.75,-170.07"/>
<polygon fill="lightslategrey" stroke="lightslategrey" points="346.26,-173.23 354.32,-166.35 343.73,-166.71 346.26,-173.23"/>
</g>
<!-- collections.abc.Sequence&#45;&gt;supriya.querytree.QueryTreeGroup -->
<g id="edge12" class="edge">
<title>collections.abc.Sequence&#45;&gt;supriya.querytree.QueryTreeGroup</title>
<path fill="none" stroke="lightslategrey" d="M404.75,-144.57C422.67,-135.18 448.22,-121.78 467.95,-111.44"/>
<polygon fill="lightslategrey" stroke="lightslategrey" points="469.6,-114.52 476.83,-106.78 466.35,-108.32 469.6,-114.52"/>
</g>
<!-- collections.abc.Sequence&#45;&gt;supriya.querytree.QueryTreeSynth -->
<g id="edge13" class="edge">
<title>collections.abc.Sequence&#45;&gt;supriya.querytree.QueryTreeSynth</title>
<path fill="none" stroke="lightslategrey" d="M424.59,-155.64C438.47,-155.51 453.68,-155.38 466.58,-155.27"/>
<polygon fill="lightslategrey" stroke="lightslategrey" points="466.83,-158.77 476.8,-155.18 466.77,-151.77 466.83,-158.77"/>
</g>
<!-- collections.abc.Sized&#45;&gt;collections.abc.Collection -->
<g id="edge6" class="edge">
<title>collections.abc.Sized&#45;&gt;collections.abc.Collection</title>
<path fill="none" stroke="lightslategrey" d="M160.34,-121.9C177.1,-127.75 200.35,-135.87 219.95,-142.72"/>
<polygon fill="lightslategrey" stroke="lightslategrey" points="218.93,-146.07 229.52,-146.06 221.24,-139.46 218.93,-146.07"/>
</g>
<!-- supriya.system.SupriyaObject&#45;&gt;supriya.system.SupriyaValueObject -->
<g id="edge7" class="edge">
<title>supriya.system.SupriyaObject&#45;&gt;supriya.system.SupriyaValueObject</title>
<path fill="none" stroke="lightslategrey" d="M284.18,-39.4C302.06,-38.96 326.66,-38.35 346.59,-37.85"/>
<polygon fill="lightslategrey" stroke="lightslategrey" points="346.9,-41.35 356.81,-37.6 346.73,-34.35 346.9,-41.35"/>
</g>
<!-- supriya.system.SupriyaValueObject&#45;&gt;supriya.querytree.QueryTreeControl -->
<g id="edge14" class="edge">
<title>supriya.system.SupriyaValueObject&#45;&gt;supriya.querytree.QueryTreeControl</title>
<path fill="none" stroke="lightslategrey" d="M407.23,-37C423.79,-37 445.94,-37 464.14,-37"/>
<polygon fill="lightslategrey" stroke="lightslategrey" points="464.33,-40.5 474.33,-37 464.33,-33.5 464.33,-40.5"/>
</g>
<!-- supriya.system.SupriyaValueObject&#45;&gt;supriya.querytree.QueryTreeGroup -->
<g id="edge15" class="edge">
<title>supriya.system.SupriyaValueObject&#45;&gt;supriya.querytree.QueryTreeGroup</title>
<path fill="none" stroke="lightslategrey" d="M407.23,-49.51C424.85,-58.6 448.8,-70.95 467.58,-80.63"/>
<polygon fill="lightslategrey" stroke="lightslategrey" points="466.11,-83.81 476.61,-85.29 469.32,-77.59 466.11,-83.81"/>
</g>
<!-- supriya.system.SupriyaValueObject&#45;&gt;supriya.querytree.QueryTreeSynth -->
<g id="edge16" class="edge">
<title>supriya.system.SupriyaValueObject&#45;&gt;supriya.querytree.QueryTreeSynth</title>
<path fill="none" stroke="lightslategrey" d="M405,-57.63C414.08,-66.75 424.34,-77.91 432.39,-89 443.37,-104.13 439.69,-112.28 452.39,-126 456.86,-130.83 462.31,-135.21 467.85,-139.02"/>
<polygon fill="lightslategrey" stroke="lightslategrey" points="466.18,-142.11 476.49,-144.51 469.93,-136.2 466.18,-142.11"/>
</g>
<!-- builtins.object -->
<g id="node1" class="node">
<title>builtins.object</title>
<g id="a_node1"><a xlink:href="https://docs.python.org/3/library/functions.html#object" xlink:title="object" target="_top">
<path fill="#fbb4ae" stroke="#fbb4ae" stroke-width="2" d="M52.67,-145.5C52.67,-145.5 22.33,-145.5 22.33,-145.5 19.17,-145.5 16,-142.33 16,-139.17 16,-139.17 16,-132.83 16,-132.83 16,-129.67 19.17,-126.5 22.33,-126.5 22.33,-126.5 52.67,-126.5 52.67,-126.5 55.83,-126.5 59,-129.67 59,-132.83 59,-132.83 59,-139.17 59,-139.17 59,-142.33 55.83,-145.5 52.67,-145.5"/>
<text text-anchor="middle" x="37.5" y="-133.5" font-family="Arial" font-size="10.00">object</text>
</a>
</g>
</g>
<!-- collections.abc.Collection -->
<g id="node2" class="node">
<title>collections.abc.Collection</title>
<g id="a_node2"><a xlink:href="https://docs.python.org/3/library/collections.abc.html#collections.abc.Collection" xlink:title="Collection" target="_top">
<ellipse fill="none" stroke="#b3cde3" stroke-width="2" cx="258.99" cy="-156" rx="42.35" ry="13.37"/>
<text text-anchor="middle" x="258.99" y="-153.5" font-family="Arial" font-size="10.00">Collection</text>
</a>
</g>
</g>
<!-- collections.abc.Container -->
<g id="node3" class="node">
<title>collections.abc.Container</title>
<g id="a_node3"><a xlink:href="https://docs.python.org/3/library/collections.abc.html#collections.abc.Container" xlink:title="Container" target="_top">
<ellipse fill="none" stroke="#b3cde3" stroke-width="2" cx="136.72" cy="-159" rx="41.94" ry="13.37"/>
<text text-anchor="middle" x="136.72" y="-156.5" font-family="Arial" font-size="10.00">Container</text>
</a>
</g>
</g>
<!-- collections.abc.Iterable -->
<g id="node4" class="node">
<title>collections.abc.Iterable</title>
<g id="a_node4"><a xlink:href="https://docs.python.org/3/library/collections.abc.html#collections.abc.Iterable" xlink:title="Iterable" target="_top">
<ellipse fill="none" stroke="#b3cde3" stroke-width="2" cx="136.72" cy="-204" rx="34.8" ry="13.37"/>
<text text-anchor="middle" x="136.72" y="-201.5" font-family="Arial" font-size="10.00">Iterable</text>
</a>
</g>
</g>
<!-- collections.abc.Reversible -->
<g id="node5" class="node">
<title>collections.abc.Reversible</title>
<g id="a_node5"><a xlink:href="https://docs.python.org/3/library/collections.abc.html#collections.abc.Reversible" xlink:title="Reversible" target="_top">
<ellipse fill="none" stroke="#b3cde3" stroke-width="2" cx="258.99" cy="-203" rx="44.6" ry="13.37"/>
<text text-anchor="middle" x="258.99" y="-200.5" font-family="Arial" font-size="10.00">Reversible</text>
</a>
</g>
</g>
<!-- collections.abc.Sequence -->
<g id="node6" class="node">
<title>collections.abc.Sequence</title>
<g id="a_node6"><a xlink:href="https://docs.python.org/3/library/collections.abc.html#collections.abc.Sequence" xlink:title="Sequence" target="_top">
<ellipse fill="none" stroke="#b3cde3" stroke-width="2" cx="381.96" cy="-156" rx="42.35" ry="13.37"/>
<text text-anchor="middle" x="381.96" y="-153.5" font-family="Arial" font-size="10.00">Sequence</text>
</a>
</g>
</g>
<!-- collections.abc.Sized -->
<g id="node7" class="node">
<title>collections.abc.Sized</title>
<g id="a_node7"><a xlink:href="https://docs.python.org/3/library/collections.abc.html#collections.abc.Sized" xlink:title="Sized" target="_top">
<ellipse fill="none" stroke="#b3cde3" stroke-width="2" cx="136.72" cy="-114" rx="28.98" ry="13.37"/>
<text text-anchor="middle" x="136.72" y="-111.5" font-family="Arial" font-size="10.00">Sized</text>
</a>
</g>
</g>
<!-- supriya.querytree.QueryTreeControl -->
<g id="node8" class="node">
<title>supriya.querytree.QueryTreeControl</title>
<g id="a_node8"><a xlink:href="../api/supriya/querytree.html#supriya.querytree.QueryTreeControl" xlink:title="Query\nTree\nControl" target="_top">
<path fill="black" stroke="black" stroke-width="2" d="M510.39,-57.5C510.39,-57.5 486.39,-57.5 486.39,-57.5 480.39,-57.5 474.39,-51.5 474.39,-45.5 474.39,-45.5 474.39,-28.5 474.39,-28.5 474.39,-22.5 480.39,-16.5 486.39,-16.5 486.39,-16.5 510.39,-16.5 510.39,-16.5 516.39,-16.5 522.39,-22.5 522.39,-28.5 522.39,-28.5 522.39,-45.5 522.39,-45.5 522.39,-51.5 516.39,-57.5 510.39,-57.5"/>
<text text-anchor="middle" x="498.39" y="-45.5" font-family="Arial" font-size="10.00" fill="white">Query</text>
<text text-anchor="middle" x="498.39" y="-34.5" font-family="Arial" font-size="10.00" fill="white">Tree</text>
<text text-anchor="middle" x="498.39" y="-23.5" font-family="Arial" font-size="10.00" fill="white">Control</text>
</a>
</g>
</g>
<!-- supriya.querytree.QueryTreeGroup -->
<g id="node9" class="node">
<title>supriya.querytree.QueryTreeGroup</title>
<g id="a_node9"><a xlink:href="../api/supriya/querytree.html#supriya.querytree.QueryTreeGroup" xlink:title="Query\nTree\nGroup" target="_top">
<path fill="black" stroke="black" stroke-width="2" d="M507.89,-116.5C507.89,-116.5 488.89,-116.5 488.89,-116.5 482.89,-116.5 476.89,-110.5 476.89,-104.5 476.89,-104.5 476.89,-87.5 476.89,-87.5 476.89,-81.5 482.89,-75.5 488.89,-75.5 488.89,-75.5 507.89,-75.5 507.89,-75.5 513.89,-75.5 519.89,-81.5 519.89,-87.5 519.89,-87.5 519.89,-104.5 519.89,-104.5 519.89,-110.5 513.89,-116.5 507.89,-116.5"/>
<text text-anchor="middle" x="498.39" y="-104.5" font-family="Arial" font-size="10.00" fill="white">Query</text>
<text text-anchor="middle" x="498.39" y="-93.5" font-family="Arial" font-size="10.00" fill="white">Tree</text>
<text text-anchor="middle" x="498.39" y="-82.5" font-family="Arial" font-size="10.00" fill="white">Group</text>
</a>
</g>
</g>
<!-- supriya.querytree.QueryTreeSynth -->
<g id="node10" class="node">
<title>supriya.querytree.QueryTreeSynth</title>
<g id="a_node10"><a xlink:href="../api/supriya/querytree.html#supriya.querytree.QueryTreeSynth" xlink:title="Query\nTree\nSynth" target="_top">
<path fill="black" stroke="black" stroke-width="2" d="M507.89,-175.5C507.89,-175.5 488.89,-175.5 488.89,-175.5 482.89,-175.5 476.89,-169.5 476.89,-163.5 476.89,-163.5 476.89,-146.5 476.89,-146.5 476.89,-140.5 482.89,-134.5 488.89,-134.5 488.89,-134.5 507.89,-134.5 507.89,-134.5 513.89,-134.5 519.89,-140.5 519.89,-146.5 519.89,-146.5 519.89,-163.5 519.89,-163.5 519.89,-169.5 513.89,-175.5 507.89,-175.5"/>
<text text-anchor="middle" x="498.39" y="-163.5" font-family="Arial" font-size="10.00" fill="white">Query</text>
<text text-anchor="middle" x="498.39" y="-152.5" font-family="Arial" font-size="10.00" fill="white">Tree</text>
<text text-anchor="middle" x="498.39" y="-141.5" font-family="Arial" font-size="10.00" fill="white">Synth</text>
</a>
</g>
</g>
<!-- supriya.system.SupriyaObject -->
<g id="node11" class="node">
<title>supriya.system.SupriyaObject</title>
<g id="a_node11"><a xlink:href="../api/supriya/system.html#supriya.system.SupriyaObject" xlink:title="Supriya\nObject" target="_top">
<path fill="#decbe4" stroke="#decbe4" stroke-width="2" d="M273.99,-55C273.99,-55 243.99,-55 243.99,-55 238.99,-55 233.99,-50 233.99,-45 233.99,-45 233.99,-35 233.99,-35 233.99,-30 238.99,-25 243.99,-25 243.99,-25 273.99,-25 273.99,-25 278.99,-25 283.99,-30 283.99,-35 283.99,-35 283.99,-45 283.99,-45 283.99,-50 278.99,-55 273.99,-55"/>
<text text-anchor="middle" x="258.99" y="-43" font-family="Arial" font-size="10.00">Supriya</text>
<text text-anchor="middle" x="258.99" y="-32" font-family="Arial" font-size="10.00">Object</text>
</a>
</g>
</g>
<!-- supriya.system.SupriyaValueObject -->
<g id="node12" class="node">
<title>supriya.system.SupriyaValueObject</title>
<g id="a_node12"><a xlink:href="../api/supriya/system.html#supriya.system.SupriyaValueObject" xlink:title="Supriya\nValue\nObject" target="_top">
<path fill="#decbe4" stroke="#decbe4" stroke-width="2" d="M394.96,-57.5C394.96,-57.5 368.96,-57.5 368.96,-57.5 362.96,-57.5 356.96,-51.5 356.96,-45.5 356.96,-45.5 356.96,-28.5 356.96,-28.5 356.96,-22.5 362.96,-16.5 368.96,-16.5 368.96,-16.5 394.96,-16.5 394.96,-16.5 400.96,-16.5 406.96,-22.5 406.96,-28.5 406.96,-28.5 406.96,-45.5 406.96,-45.5 406.96,-51.5 400.96,-57.5 394.96,-57.5"/>
<text text-anchor="middle" x="381.96" y="-45.5" font-family="Arial" font-size="10.00">Supriya</text>
<text text-anchor="middle" x="381.96" y="-34.5" font-family="Arial" font-size="10.00">Value</text>
<text text-anchor="middle" x="381.96" y="-23.5" font-family="Arial" font-size="10.00">Object</text>
</a>
</g>
</g>
</g>
</svg>
