<?xml version="1.0" encoding="UTF-8" standalone="no"?>
<!DOCTYPE svg PUBLIC "-//W3C//DTD SVG 1.1//EN"
 "http://www.w3.org/Graphics/SVG/1.1/DTD/svg11.dtd">
<!-- Generated by graphviz version 2.40.1 (20161225.0304)
 -->
<!-- Title: InheritanceGraph Pages: 1 -->
<svg width="316pt" height="233pt"
 viewBox="0.00 0.00 316.00 233.00" xmlns="http://www.w3.org/2000/svg" xmlns:xlink="http://www.w3.org/1999/xlink">
<g id="graph0" class="graph" transform="scale(1 1) rotate(0) translate(4 229)">
<title>InheritanceGraph</title>
<g id="clust1" class="cluster">
<title>cluster_builtins</title>
<path fill="transparent" stroke="#bcd2ee" stroke-width="2" stroke-dasharray="5,2" d="M20,-60C20,-60 49,-60 49,-60 55,-60 61,-66 61,-72 61,-72 61,-103 61,-103 61,-109 55,-115 49,-115 49,-115 20,-115 20,-115 14,-115 8,-109 8,-103 8,-103 8,-72 8,-72 8,-66 14,-60 20,-60"/>
<text text-anchor="middle" x="34.5" y="-103" font-family="Arial" font-size="10.00" fill="#000000">builtins</text>
</g>
<g id="clust2" class="cluster">
<title>cluster_supriya.osc</title>
<path fill="transparent" stroke="#bcd2ee" stroke-width="2" stroke-dasharray="5,2" d="M249,-8C249,-8 288,-8 288,-8 294,-8 300,-14 300,-20 300,-20 300,-205 300,-205 300,-211 294,-217 288,-217 288,-217 249,-217 249,-217 243,-217 237,-211 237,-205 237,-205 237,-20 237,-20 237,-14 243,-8 249,-8"/>
<text text-anchor="middle" x="268.5" y="-205" font-family="Arial" font-size="10.00" fill="#000000">supriya.osc</text>
</g>
<g id="clust3" class="cluster">
<title>cluster_supriya.system</title>
<path fill="transparent" stroke="#bcd2ee" stroke-width="2" stroke-dasharray="5,2" d="M93,-98C93,-98 205,-98 205,-98 211,-98 217,-104 217,-110 217,-110 217,-163 217,-163 217,-169 211,-175 205,-175 205,-175 93,-175 93,-175 87,-175 81,-169 81,-163 81,-163 81,-110 81,-110 81,-104 87,-98 93,-98"/>
<text text-anchor="middle" x="149" y="-163" font-family="Arial" font-size="10.00" fill="#000000">supriya.system</text>
</g>
<!-- builtins.object&#45;&gt;supriya.osc.OscIO.OscIO -->
<g id="edge2" class="edge">
<title>builtins.object&#45;&gt;supriya.osc.OscIO.OscIO</title>
<path fill="none" stroke="#778899" d="M53.2536,-74.2332C95.1093,-65.8263 196.1656,-45.5287 243.3916,-36.0431"/>
<polygon fill="#778899" stroke="#778899" points="244.2793,-39.4348 253.3943,-34.0341 242.9008,-32.5719 244.2793,-39.4348"/>
</g>
<!-- builtins.object&#45;&gt;supriya.system.SupriyaObject.SupriyaObject -->
<g id="edge3" class="edge">
<title>builtins.object&#45;&gt;supriya.system.SupriyaObject.SupriyaObject</title>
<path fill="none" stroke="#778899" d="M51.2559,-87.5431C59.7708,-92.3926 70.3751,-98.4322 80.2214,-104.04"/>
<polygon fill="#778899" stroke="#778899" points="78.5474,-107.1144 88.969,-109.0221 82.0117,-101.0317 78.5474,-107.1144"/>
</g>
<!-- supriya.system.SupriyaObject.SupriyaObject&#45;&gt;supriya.osc.OscCallback.OscCallback -->
<g id="edge4" class="edge">
<title>supriya.system.SupriyaObject.SupriyaObject&#45;&gt;supriya.osc.OscCallback.OscCallback</title>
<path fill="none" stroke="#778899" d="M131.0285,-111.3492C141.6375,-106.7819 154.8111,-101.5616 167,-98 189.5667,-91.4059 215.6485,-86.5818 235.7221,-83.4446"/>
<polygon fill="#778899" stroke="#778899" points="236.2522,-86.9043 245.6212,-81.9574 235.2122,-79.982 236.2522,-86.9043"/>
</g>
<!-- supriya.system.SupriyaObject.SupriyaObject&#45;&gt;supriya.system.SupriyaValueObject.SupriyaValueObject -->
<g id="edge1" class="edge">
<title>supriya.system.SupriyaObject.SupriyaObject&#45;&gt;supriya.system.SupriyaValueObject.SupriyaValueObject</title>
<path fill="none" stroke="#778899" d="M131.3138,-122.6395C139.2025,-123.2463 148.316,-123.9474 156.8971,-124.6075"/>
<polygon fill="#778899" stroke="#778899" points="156.743,-128.1059 166.982,-125.3832 157.2799,-121.1265 156.743,-128.1059"/>
</g>
<!-- supriya.system.SupriyaValueObject.SupriyaValueObject&#45;&gt;supriya.osc.OscBundle.OscBundle -->
<g id="edge5" class="edge">
<title>supriya.system.SupriyaValueObject.SupriyaValueObject&#45;&gt;supriya.osc.OscBundle.OscBundle</title>
<path fill="none" stroke="#778899" d="M209.1504,-139.6114C218.4235,-145.1407 229.4572,-151.7198 239.4809,-157.6967"/>
<polygon fill="#778899" stroke="#778899" points="237.9413,-160.8536 248.3228,-162.9689 241.5263,-154.8413 237.9413,-160.8536"/>
</g>
<!-- supriya.system.SupriyaValueObject.SupriyaValueObject&#45;&gt;supriya.osc.OscMessage.OscMessage -->
<g id="edge6" class="edge">
<title>supriya.system.SupriyaValueObject.SupriyaValueObject&#45;&gt;supriya.osc.OscMessage.OscMessage</title>
<path fill="none" stroke="#778899" d="M209.1504,-127C216.9663,-127 226.0329,-127 234.6914,-127"/>
<polygon fill="#778899" stroke="#778899" points="234.9387,-130.5001 244.9387,-127 234.9387,-123.5001 234.9387,-130.5001"/>
</g>
<!-- builtins.object -->
<g id="node1" class="node">
<title>builtins.object</title>
<g id="a_node1"><a xlink:href="https://docs.python.org/3.6/library/functions.html#object" xlink:title="object" target="_top">
<path fill="#fbb4ae" stroke="#fbb4ae" stroke-width="2" d="M46.6667,-87.5C46.6667,-87.5 22.3333,-87.5 22.3333,-87.5 19.1667,-87.5 16,-84.3333 16,-81.1667 16,-81.1667 16,-74.8333 16,-74.8333 16,-71.6667 19.1667,-68.5 22.3333,-68.5 22.3333,-68.5 46.6667,-68.5 46.6667,-68.5 49.8333,-68.5 53,-71.6667 53,-74.8333 53,-74.8333 53,-81.1667 53,-81.1667 53,-84.3333 49.8333,-87.5 46.6667,-87.5"/>
<text text-anchor="middle" x="34.5" y="-75.5" font-family="Arial" font-size="10.00" fill="#000000">object</text>
</a>
</g>
</g>
<!-- supriya.osc.OscBundle.OscBundle -->
<g id="node2" class="node">
<title>supriya.osc.OscBundle.OscBundle</title>
<g id="a_node2"><a xlink:href="../api/supriya/osc/OscBundle.html#supriya.osc.OscBundle.OscBundle" xlink:title="Osc\nBundle" target="_top">
<path fill="#000000" stroke="#000000" stroke-width="2" d="M278.5,-190C278.5,-190 258.5,-190 258.5,-190 253.5,-190 248.5,-185 248.5,-180 248.5,-180 248.5,-170 248.5,-170 248.5,-165 253.5,-160 258.5,-160 258.5,-160 278.5,-160 278.5,-160 283.5,-160 288.5,-165 288.5,-170 288.5,-170 288.5,-180 288.5,-180 288.5,-185 283.5,-190 278.5,-190"/>
<text text-anchor="middle" x="268.5" y="-178" font-family="Arial" font-size="10.00" fill="#ffffff">Osc</text>
<text text-anchor="middle" x="268.5" y="-167" font-family="Arial" font-size="10.00" fill="#ffffff">Bundle</text>
</a>
</g>
</g>
<!-- supriya.osc.OscCallback.OscCallback -->
<g id="node3" class="node">
<title>supriya.osc.OscCallback.OscCallback</title>
<g id="a_node3"><a xlink:href="../api/supriya/osc/OscCallback.html#supriya.osc.OscCallback.OscCallback" xlink:title="Osc\nCallback" target="_top">
<path fill="#000000" stroke="#000000" stroke-width="2" d="M281,-94C281,-94 256,-94 256,-94 251,-94 246,-89 246,-84 246,-84 246,-74 246,-74 246,-69 251,-64 256,-64 256,-64 281,-64 281,-64 286,-64 291,-69 291,-74 291,-74 291,-84 291,-84 291,-89 286,-94 281,-94"/>
<text text-anchor="middle" x="268.5" y="-82" font-family="Arial" font-size="10.00" fill="#ffffff">Osc</text>
<text text-anchor="middle" x="268.5" y="-71" font-family="Arial" font-size="10.00" fill="#ffffff">Callback</text>
</a>
</g>
</g>
<!-- supriya.osc.OscIO.OscIO -->
<g id="node4" class="node">
<title>supriya.osc.OscIO.OscIO</title>
<g id="a_node4"><a xlink:href="../api/supriya/osc/OscIO.html#supriya.osc.OscIO.OscIO" xlink:title="Osc\nIO" target="_top">
<path fill="#000000" stroke="#000000" stroke-width="2" d="M273.5,-46C273.5,-46 263.5,-46 263.5,-46 258.5,-46 253.5,-41 253.5,-36 253.5,-36 253.5,-26 253.5,-26 253.5,-21 258.5,-16 263.5,-16 263.5,-16 273.5,-16 273.5,-16 278.5,-16 283.5,-21 283.5,-26 283.5,-26 283.5,-36 283.5,-36 283.5,-41 278.5,-46 273.5,-46"/>
<text text-anchor="middle" x="268.5" y="-34" font-family="Arial" font-size="10.00" fill="#ffffff">Osc</text>
<text text-anchor="middle" x="268.5" y="-23" font-family="Arial" font-size="10.00" fill="#ffffff">IO</text>
</a>
</g>
</g>
<!-- supriya.osc.OscMessage.OscMessage -->
<g id="node5" class="node">
<title>supriya.osc.OscMessage.OscMessage</title>
<g id="a_node5"><a xlink:href="../api/supriya/osc/OscMessage.html#supriya.osc.OscMessage.OscMessage" xlink:title="Osc\nMessage" target="_top">
<path fill="#000000" stroke="#000000" stroke-width="2" d="M282,-142C282,-142 255,-142 255,-142 250,-142 245,-137 245,-132 245,-132 245,-122 245,-122 245,-117 250,-112 255,-112 255,-112 282,-112 282,-112 287,-112 292,-117 292,-122 292,-122 292,-132 292,-132 292,-137 287,-142 282,-142"/>
<text text-anchor="middle" x="268.5" y="-130" font-family="Arial" font-size="10.00" fill="#ffffff">Osc</text>
<text text-anchor="middle" x="268.5" y="-119" font-family="Arial" font-size="10.00" fill="#ffffff">Message</text>
</a>
</g>
</g>
<!-- supriya.system.SupriyaObject.SupriyaObject -->
<g id="node6" class="node">
<title>supriya.system.SupriyaObject.SupriyaObject</title>
<g id="a_node6"><a xlink:href="../api/supriya/osc/../system/SupriyaObject.html#supriya.system.SupriyaObject.SupriyaObject" xlink:title="Supriya\nObject" target="_top">
<path fill="#ccebc5" stroke="#ccebc5" stroke-width="2" d="M121,-136C121,-136 99,-136 99,-136 94,-136 89,-131 89,-126 89,-126 89,-116 89,-116 89,-111 94,-106 99,-106 99,-106 121,-106 121,-106 126,-106 131,-111 131,-116 131,-116 131,-126 131,-126 131,-131 126,-136 121,-136"/>
<text text-anchor="middle" x="110" y="-124" font-family="Arial" font-size="10.00" fill="#000000">Supriya</text>
<text text-anchor="middle" x="110" y="-113" font-family="Arial" font-size="10.00" fill="#000000">Object</text>
</a>
</g>
</g>
<!-- supriya.system.SupriyaValueObject.SupriyaValueObject -->
<g id="node7" class="node">
<title>supriya.system.SupriyaValueObject.SupriyaValueObject</title>
<g id="a_node7"><a xlink:href="../api/supriya/osc/../system/SupriyaValueObject.html#supriya.system.SupriyaValueObject.SupriyaValueObject" xlink:title="Supriya\nValue\nObject" target="_top">
<path fill="#ccebc5" stroke="#ccebc5" stroke-width="2" d="M197,-147.5C197,-147.5 179,-147.5 179,-147.5 173,-147.5 167,-141.5 167,-135.5 167,-135.5 167,-118.5 167,-118.5 167,-112.5 173,-106.5 179,-106.5 179,-106.5 197,-106.5 197,-106.5 203,-106.5 209,-112.5 209,-118.5 209,-118.5 209,-135.5 209,-135.5 209,-141.5 203,-147.5 197,-147.5"/>
<text text-anchor="middle" x="188" y="-135.5" font-family="Arial" font-size="10.00" fill="#000000">Supriya</text>
<text text-anchor="middle" x="188" y="-124.5" font-family="Arial" font-size="10.00" fill="#000000">Value</text>
<text text-anchor="middle" x="188" y="-113.5" font-family="Arial" font-size="10.00" fill="#000000">Object</text>
</a>
</g>
</g>
</g>
</svg>
