<?xml version="1.0" encoding="UTF-8" standalone="no"?>
<!DOCTYPE svg PUBLIC "-//W3C//DTD SVG 1.1//EN"
 "http://www.w3.org/Graphics/SVG/1.1/DTD/svg11.dtd">
<!-- Generated by graphviz version 2.40.1 (20161225.0304)
 -->
<!-- Title: InheritanceGraph Pages: 1 -->
<svg width="154pt" height="89pt"
 viewBox="0.00 0.00 154.00 89.00" xmlns="http://www.w3.org/2000/svg" xmlns:xlink="http://www.w3.org/1999/xlink">
<g id="graph0" class="graph" transform="scale(1 1) rotate(0) translate(4 85)">
<title>InheritanceGraph</title>
<g id="clust1" class="cluster">
<title>cluster_builtins</title>
<path fill="transparent" stroke="#bcd2ee" stroke-width="2" stroke-dasharray="5,2" d="M20,-13C20,-13 49,-13 49,-13 55,-13 61,-19 61,-25 61,-25 61,-56 61,-56 61,-62 55,-68 49,-68 49,-68 20,-68 20,-68 14,-68 8,-62 8,-56 8,-56 8,-25 8,-25 8,-19 14,-13 20,-13"/>
<text text-anchor="middle" x="34.5" y="-56" font-family="Arial" font-size="10.00" fill="#000000">builtins</text>
</g>
<g id="clust2" class="cluster">
<title>cluster_supriya.midi</title>
<path fill="transparent" stroke="#bcd2ee" stroke-width="2" stroke-dasharray="5,2" d="M93,-8C93,-8 126,-8 126,-8 132,-8 138,-14 138,-20 138,-20 138,-61 138,-61 138,-67 132,-73 126,-73 126,-73 93,-73 93,-73 87,-73 81,-67 81,-61 81,-61 81,-20 81,-20 81,-14 87,-8 93,-8"/>
<text text-anchor="middle" x="109.5" y="-61" font-family="Arial" font-size="10.00" fill="#000000">supriya.midi</text>
</g>
<!-- builtins.object&#45;&gt;supriya.midi.LogicalControl.LogicalControl -->
<g id="edge1" class="edge">
<title>builtins.object&#45;&gt;supriya.midi.LogicalControl.LogicalControl</title>
<path fill="none" stroke="#778899" d="M53.0393,-31C60.7491,-31 69.91,-31 78.5854,-31"/>
<polygon fill="#778899" stroke="#778899" points="78.7965,-34.5001 88.7965,-31 78.7965,-27.5001 78.7965,-34.5001"/>
</g>
<!-- builtins.object -->
<g id="node1" class="node">
<title>builtins.object</title>
<g id="a_node1"><a xlink:href="https://docs.python.org/3.6/library/functions.html#object" xlink:title="object" target="_top">
<path fill="#fbb4ae" stroke="#fbb4ae" stroke-width="2" d="M46.6667,-40.5C46.6667,-40.5 22.3333,-40.5 22.3333,-40.5 19.1667,-40.5 16,-37.3333 16,-34.1667 16,-34.1667 16,-27.8333 16,-27.8333 16,-24.6667 19.1667,-21.5 22.3333,-21.5 22.3333,-21.5 46.6667,-21.5 46.6667,-21.5 49.8333,-21.5 53,-24.6667 53,-27.8333 53,-27.8333 53,-34.1667 53,-34.1667 53,-37.3333 49.8333,-40.5 46.6667,-40.5"/>
<text text-anchor="middle" x="34.5" y="-28.5" font-family="Arial" font-size="10.00" fill="#000000">object</text>
</a>
</g>
</g>
<!-- supriya.midi.LogicalControl.LogicalControl -->
<g id="node2" class="node">
<title>supriya.midi.LogicalControl.LogicalControl</title>
<g id="a_node2"><a xlink:href="../api/supriya/midi/LogicalControl.html#supriya.midi.LogicalControl.LogicalControl" xlink:title="Logical\nControl" target="_top">
<path fill="#000000" stroke="#000000" stroke-width="2" d="M120,-46C120,-46 99,-46 99,-46 94,-46 89,-41 89,-36 89,-36 89,-26 89,-26 89,-21 94,-16 99,-16 99,-16 120,-16 120,-16 125,-16 130,-21 130,-26 130,-26 130,-36 130,-36 130,-41 125,-46 120,-46"/>
<text text-anchor="middle" x="109.5" y="-34" font-family="Arial" font-size="10.00" fill="#ffffff">Logical</text>
<text text-anchor="middle" x="109.5" y="-23" font-family="Arial" font-size="10.00" fill="#ffffff">Control</text>
</a>
</g>
</g>
</g>
</svg>
