<?xml version="1.0" encoding="UTF-8" standalone="no"?>
<!DOCTYPE svg PUBLIC "-//W3C//DTD SVG 1.1//EN"
 "http://www.w3.org/Graphics/SVG/1.1/DTD/svg11.dtd">
<!-- Generated by graphviz version 2.44.1 (20200629.0846)
 -->
<!-- Title: InheritanceGraph Pages: 1 -->
<svg width="276pt" height="127pt"
 viewBox="0.00 0.00 276.00 127.00" xmlns="http://www.w3.org/2000/svg" xmlns:xlink="http://www.w3.org/1999/xlink">
<g id="graph0" class="graph" transform="scale(1 1) rotate(0) translate(4 123)">
<title>InheritanceGraph</title>
<g id="clust1" class="cluster">
<title>cluster_builtins</title>
<path fill="transparent" stroke="#bcd2ee" stroke-width="2" stroke-dasharray="5,2" d="M20,-49C20,-49 129,-49 129,-49 135,-49 141,-55 141,-61 141,-61 141,-92 141,-92 141,-98 135,-104 129,-104 129,-104 20,-104 20,-104 14,-104 8,-98 8,-92 8,-92 8,-61 8,-61 8,-55 14,-49 20,-49"/>
<text text-anchor="middle" x="74.5" y="-92" font-family="Arial" font-size="10.00">builtins</text>
</g>
<g id="clust2" class="cluster">
<title>cluster_supriya.osc.captures</title>
<path fill="transparent" stroke="#bcd2ee" stroke-width="2" stroke-dasharray="5,2" d="M173,-8C173,-8 256,-8 256,-8 262,-8 268,-14 268,-20 268,-20 268,-99 268,-99 268,-105 262,-111 256,-111 256,-111 173,-111 173,-111 167,-111 161,-105 161,-99 161,-99 161,-20 161,-20 161,-14 167,-8 173,-8"/>
<text text-anchor="middle" x="214.5" y="-99" font-family="Arial" font-size="10.00">supriya.osc.captures</text>
</g>
<!-- builtins.object&#45;&gt;builtins.tuple -->
<g id="edge1" class="edge">
<title>builtins.object&#45;&gt;builtins.tuple</title>
<path fill="none" stroke="lightslategrey" d="M59.25,-67C67.12,-67 76.23,-67 84.68,-67"/>
<polygon fill="lightslategrey" stroke="lightslategrey" points="84.89,-70.5 94.89,-67 84.89,-63.5 84.89,-70.5"/>
</g>
<!-- builtins.object&#45;&gt;supriya.osc.captures.Capture -->
<g id="edge2" class="edge">
<title>builtins.object&#45;&gt;supriya.osc.captures.Capture</title>
<path fill="none" stroke="lightslategrey" d="M59.26,-59.75C69.87,-56.2 83.03,-52.06 95,-49 122.95,-41.86 155.09,-35.75 178.85,-31.63"/>
<polygon fill="lightslategrey" stroke="lightslategrey" points="179.53,-35.06 188.8,-29.93 178.36,-28.16 179.53,-35.06"/>
</g>
<!-- builtins.tuple&#45;&gt;supriya.osc.captures.CaptureEntry -->
<g id="edge3" class="edge">
<title>builtins.tuple&#45;&gt;supriya.osc.captures.CaptureEntry</title>
<path fill="none" stroke="lightslategrey" d="M133.07,-67.37C145.79,-67.63 163.24,-67.98 178.63,-68.29"/>
<polygon fill="lightslategrey" stroke="lightslategrey" points="178.8,-71.8 188.87,-68.5 178.94,-64.8 178.8,-71.8"/>
</g>
<!-- builtins.object -->
<g id="node1" class="node">
<title>builtins.object</title>
<g id="a_node1"><a xlink:href="https://docs.python.org/3/library/functions.html#object" xlink:title="object" target="_top">
<path fill="#fbb4ae" stroke="#fbb4ae" stroke-width="2" d="M52.67,-76.5C52.67,-76.5 22.33,-76.5 22.33,-76.5 19.17,-76.5 16,-73.33 16,-70.17 16,-70.17 16,-63.83 16,-63.83 16,-60.67 19.17,-57.5 22.33,-57.5 22.33,-57.5 52.67,-57.5 52.67,-57.5 55.83,-57.5 59,-60.67 59,-63.83 59,-63.83 59,-70.17 59,-70.17 59,-73.33 55.83,-76.5 52.67,-76.5"/>
<text text-anchor="middle" x="37.5" y="-64.5" font-family="Arial" font-size="10.00">object</text>
</a>
</g>
</g>
<!-- builtins.tuple -->
<g id="node2" class="node">
<title>builtins.tuple</title>
<g id="a_node2"><a xlink:href="https://docs.python.org/3/library/stdtypes.html#tuple" xlink:title="tuple" target="_top">
<path fill="#fbb4ae" stroke="#fbb4ae" stroke-width="2" d="M126.67,-76.5C126.67,-76.5 101.33,-76.5 101.33,-76.5 98.17,-76.5 95,-73.33 95,-70.17 95,-70.17 95,-63.83 95,-63.83 95,-60.67 98.17,-57.5 101.33,-57.5 101.33,-57.5 126.67,-57.5 126.67,-57.5 129.83,-57.5 133,-60.67 133,-63.83 133,-63.83 133,-70.17 133,-70.17 133,-73.33 129.83,-76.5 126.67,-76.5"/>
<text text-anchor="middle" x="114" y="-64.5" font-family="Arial" font-size="10.00">tuple</text>
</a>
</g>
</g>
<!-- supriya.osc.captures.Capture -->
<g id="node3" class="node">
<title>supriya.osc.captures.Capture</title>
<g id="a_node3"><a xlink:href="../api/supriya/osc/captures.html#supriya.osc.captures.Capture" xlink:title="Capture" target="_top">
<path fill="black" stroke="black" stroke-width="2" d="M233.67,-35.5C233.67,-35.5 195.33,-35.5 195.33,-35.5 192.17,-35.5 189,-32.33 189,-29.17 189,-29.17 189,-22.83 189,-22.83 189,-19.67 192.17,-16.5 195.33,-16.5 195.33,-16.5 233.67,-16.5 233.67,-16.5 236.83,-16.5 240,-19.67 240,-22.83 240,-22.83 240,-29.17 240,-29.17 240,-32.33 236.83,-35.5 233.67,-35.5"/>
<text text-anchor="middle" x="214.5" y="-23.5" font-family="Arial" font-size="10.00" fill="white">Capture</text>
</a>
</g>
</g>
<!-- supriya.osc.captures.CaptureEntry -->
<g id="node4" class="node">
<title>supriya.osc.captures.CaptureEntry</title>
<g id="a_node4"><a xlink:href="../api/supriya/osc/captures.html#supriya.osc.captures.CaptureEntry" xlink:title="Capture\nEntry" target="_top">
<path fill="black" stroke="black" stroke-width="2" d="M230,-84C230,-84 199,-84 199,-84 194,-84 189,-79 189,-74 189,-74 189,-64 189,-64 189,-59 194,-54 199,-54 199,-54 230,-54 230,-54 235,-54 240,-59 240,-64 240,-64 240,-74 240,-74 240,-79 235,-84 230,-84"/>
<text text-anchor="middle" x="214.5" y="-72" font-family="Arial" font-size="10.00" fill="white">Capture</text>
<text text-anchor="middle" x="214.5" y="-61" font-family="Arial" font-size="10.00" fill="white">Entry</text>
</a>
</g>
</g>
</g>
</svg>
