<?xml version="1.0" encoding="UTF-8" standalone="no"?>
<!DOCTYPE svg PUBLIC "-//W3C//DTD SVG 1.1//EN"
 "http://www.w3.org/Graphics/SVG/1.1/DTD/svg11.dtd">
<!-- Generated by graphviz version 2.40.1 (20161225.0304)
 -->
<!-- Title: InheritanceGraph Pages: 1 -->
<svg width="474pt" height="116pt"
 viewBox="0.00 0.00 473.81 116.00" xmlns="http://www.w3.org/2000/svg" xmlns:xlink="http://www.w3.org/1999/xlink">
<g id="graph0" class="graph" transform="scale(1 1) rotate(0) translate(4 112)">
<title>InheritanceGraph</title>
<g id="clust1" class="cluster">
<title>cluster_builtins</title>
<path fill="transparent" stroke="#bcd2ee" stroke-width="2" stroke-dasharray="5,2" d="M20,-26C20,-26 49,-26 49,-26 55,-26 61,-32 61,-38 61,-38 61,-69 61,-69 61,-75 55,-81 49,-81 49,-81 20,-81 20,-81 14,-81 8,-75 8,-69 8,-69 8,-38 8,-38 8,-32 14,-26 20,-26"/>
<text text-anchor="middle" x="34.5" y="-69" font-family="Arial" font-size="10.00" fill="#000000">builtins</text>
</g>
<g id="clust2" class="cluster">
<title>cluster_supriya.nonrealtime</title>
<path fill="transparent" stroke="#bcd2ee" stroke-width="2" stroke-dasharray="5,2" d="M180,-8C180,-8 445.8112,-8 445.8112,-8 451.8112,-8 457.8112,-14 457.8112,-20 457.8112,-20 457.8112,-88 457.8112,-88 457.8112,-94 451.8112,-100 445.8112,-100 445.8112,-100 180,-100 180,-100 174,-100 168,-94 168,-88 168,-88 168,-20 168,-20 168,-14 174,-8 180,-8"/>
<text text-anchor="middle" x="312.9056" y="-88" font-family="Arial" font-size="10.00" fill="#000000">supriya.nonrealtime</text>
</g>
<g id="clust3" class="cluster">
<title>cluster_supriya.system</title>
<path fill="transparent" stroke="#bcd2ee" stroke-width="2" stroke-dasharray="5,2" d="M93,-21C93,-21 136,-21 136,-21 142,-21 148,-27 148,-33 148,-33 148,-74 148,-74 148,-80 142,-86 136,-86 136,-86 93,-86 93,-86 87,-86 81,-80 81,-74 81,-74 81,-33 81,-33 81,-27 87,-21 93,-21"/>
<text text-anchor="middle" x="114.5" y="-74" font-family="Arial" font-size="10.00" fill="#000000">supriya.system</text>
</g>
<!-- builtins.object&#45;&gt;supriya.system.SupriyaObject.SupriyaObject -->
<g id="edge5" class="edge">
<title>builtins.object&#45;&gt;supriya.system.SupriyaObject.SupriyaObject</title>
<path fill="none" stroke="#778899" d="M53.3404,-44C62.0401,-44 72.6079,-44 82.4698,-44"/>
<polygon fill="#778899" stroke="#778899" points="82.7722,-47.5001 92.7722,-44 82.7721,-40.5001 82.7722,-47.5001"/>
</g>
<!-- supriya.nonrealtime.Group.Group&#45;&gt;supriya.nonrealtime.RootNode.RootNode -->
<g id="edge1" class="edge">
<title>supriya.nonrealtime.Group.Group&#45;&gt;supriya.nonrealtime.RootNode.RootNode</title>
<path fill="none" stroke="#778899" d="M380.097,-27.3137C387.7773,-27.8508 396.8175,-28.483 405.222,-29.0707"/>
<polygon fill="#778899" stroke="#778899" points="405.1576,-32.5746 415.3775,-29.7809 405.646,-25.5917 405.1576,-32.5746"/>
</g>
<!-- supriya.nonrealtime.Node.Node&#45;&gt;supriya.nonrealtime.Group.Group -->
<g id="edge2" class="edge">
<title>supriya.nonrealtime.Node.Node&#45;&gt;supriya.nonrealtime.Group.Group</title>
<path fill="none" stroke="#778899" d="M307.1193,-39.6427C314.8428,-37.6983 324.1476,-35.3559 332.8505,-33.1649"/>
<polygon fill="#778899" stroke="#778899" points="333.8167,-36.531 342.6596,-30.6955 332.1077,-29.7428 333.8167,-36.531"/>
</g>
<!-- supriya.nonrealtime.Node.Node&#45;&gt;supriya.nonrealtime.Synth.Synth -->
<g id="edge3" class="edge">
<title>supriya.nonrealtime.Node.Node&#45;&gt;supriya.nonrealtime.Synth.Synth</title>
<path fill="none" stroke="#778899" d="M307.1193,-48.5994C314.9616,-50.6833 324.4342,-53.2005 333.2517,-55.5436"/>
<polygon fill="#778899" stroke="#778899" points="332.6012,-58.9922 343.1647,-58.1779 334.399,-52.227 332.6012,-58.9922"/>
</g>
<!-- supriya.nonrealtime.SessionObject.SessionObject&#45;&gt;supriya.nonrealtime.Node.Node -->
<g id="edge4" class="edge">
<title>supriya.nonrealtime.SessionObject.SessionObject&#45;&gt;supriya.nonrealtime.Node.Node</title>
<path fill="none" stroke="#778899" d="M236.9892,-44C245.394,-44 254.449,-44 262.6471,-44"/>
<polygon fill="#778899" stroke="#778899" points="262.804,-47.5001 272.804,-44 262.8039,-40.5001 262.804,-47.5001"/>
</g>
<!-- supriya.system.SupriyaObject.SupriyaObject&#45;&gt;supriya.nonrealtime.SessionObject.SessionObject -->
<g id="edge6" class="edge">
<title>supriya.system.SupriyaObject.SupriyaObject&#45;&gt;supriya.nonrealtime.SessionObject.SessionObject</title>
<path fill="none" stroke="#778899" d="M135.432,-44C144.4689,-44 155.301,-44 165.7491,-44"/>
<polygon fill="#778899" stroke="#778899" points="165.9886,-47.5001 175.9885,-44 165.9885,-40.5001 165.9886,-47.5001"/>
</g>
<!-- builtins.object -->
<g id="node1" class="node">
<title>builtins.object</title>
<g id="a_node1"><a xlink:href="https://docs.python.org/3.6/library/functions.html#object" xlink:title="object" target="_top">
<path fill="#fbb4ae" stroke="#fbb4ae" stroke-width="2" d="M46.6667,-53.5C46.6667,-53.5 22.3333,-53.5 22.3333,-53.5 19.1667,-53.5 16,-50.3333 16,-47.1667 16,-47.1667 16,-40.8333 16,-40.8333 16,-37.6667 19.1667,-34.5 22.3333,-34.5 22.3333,-34.5 46.6667,-34.5 46.6667,-34.5 49.8333,-34.5 53,-37.6667 53,-40.8333 53,-40.8333 53,-47.1667 53,-47.1667 53,-50.3333 49.8333,-53.5 46.6667,-53.5"/>
<text text-anchor="middle" x="34.5" y="-41.5" font-family="Arial" font-size="10.00" fill="#000000">object</text>
</a>
</g>
</g>
<!-- supriya.nonrealtime.Group.Group -->
<g id="node2" class="node">
<title>supriya.nonrealtime.Group.Group</title>
<g id="a_node2"><a xlink:href="../api/supriya/nonrealtime/Group.html#supriya.nonrealtime.Group.Group" xlink:title="Group" target="_top">
<path fill="#b3cde3" stroke="#b3cde3" stroke-width="2" d="M373.4778,-35.5C373.4778,-35.5 349.1445,-35.5 349.1445,-35.5 345.9778,-35.5 342.8112,-32.3333 342.8112,-29.1667 342.8112,-29.1667 342.8112,-22.8333 342.8112,-22.8333 342.8112,-19.6667 345.9778,-16.5 349.1445,-16.5 349.1445,-16.5 373.4778,-16.5 373.4778,-16.5 376.6445,-16.5 379.8112,-19.6667 379.8112,-22.8333 379.8112,-22.8333 379.8112,-29.1667 379.8112,-29.1667 379.8112,-32.3333 376.6445,-35.5 373.4778,-35.5"/>
<text text-anchor="middle" x="361.3112" y="-23.5" font-family="Arial" font-size="10.00" fill="#000000">Group</text>
</a>
</g>
</g>
<!-- supriya.nonrealtime.Node.Node -->
<g id="node3" class="node">
<title>supriya.nonrealtime.Node.Node</title>
<g id="a_node3"><a xlink:href="../api/supriya/nonrealtime/Node.html#supriya.nonrealtime.Node.Node" xlink:title="Node" target="_top">
<path fill="#000000" stroke="#000000" stroke-width="2" d="M300.4778,-53.5C300.4778,-53.5 279.1445,-53.5 279.1445,-53.5 275.9778,-53.5 272.8112,-50.3333 272.8112,-47.1667 272.8112,-47.1667 272.8112,-40.8333 272.8112,-40.8333 272.8112,-37.6667 275.9778,-34.5 279.1445,-34.5 279.1445,-34.5 300.4778,-34.5 300.4778,-34.5 303.6445,-34.5 306.8112,-37.6667 306.8112,-40.8333 306.8112,-40.8333 306.8112,-47.1667 306.8112,-47.1667 306.8112,-50.3333 303.6445,-53.5 300.4778,-53.5"/>
<text text-anchor="middle" x="289.8112" y="-41.5" font-family="Arial" font-size="10.00" fill="#ffffff">Node</text>
</a>
</g>
</g>
<!-- supriya.nonrealtime.RootNode.RootNode -->
<g id="node4" class="node">
<title>supriya.nonrealtime.RootNode.RootNode</title>
<g id="a_node4"><a xlink:href="../api/supriya/nonrealtime/RootNode.html#supriya.nonrealtime.RootNode.RootNode" xlink:title="Root\nNode" target="_top">
<path fill="#b3cde3" stroke="#b3cde3" stroke-width="2" d="M439.8112,-46C439.8112,-46 425.8112,-46 425.8112,-46 420.8112,-46 415.8112,-41 415.8112,-36 415.8112,-36 415.8112,-26 415.8112,-26 415.8112,-21 420.8112,-16 425.8112,-16 425.8112,-16 439.8112,-16 439.8112,-16 444.8112,-16 449.8112,-21 449.8112,-26 449.8112,-26 449.8112,-36 449.8112,-36 449.8112,-41 444.8112,-46 439.8112,-46"/>
<text text-anchor="middle" x="432.8112" y="-34" font-family="Arial" font-size="10.00" fill="#000000">Root</text>
<text text-anchor="middle" x="432.8112" y="-23" font-family="Arial" font-size="10.00" fill="#000000">Node</text>
</a>
</g>
</g>
<!-- supriya.nonrealtime.SessionObject.SessionObject -->
<g id="node5" class="node">
<title>supriya.nonrealtime.SessionObject.SessionObject</title>
<g id="a_node5"><a xlink:href="../api/supriya/nonrealtime/SessionObject.html#supriya.nonrealtime.SessionObject.SessionObject" xlink:title="Session\nObject" target="_top">
<ellipse fill="none" stroke="#b3cde3" stroke-width="2" cx="206.4056" cy="-44" rx="30.3115" ry="21.4286"/>
<text text-anchor="middle" x="206.4056" y="-47" font-family="Arial" font-size="10.00" fill="#000000">Session</text>
<text text-anchor="middle" x="206.4056" y="-36" font-family="Arial" font-size="10.00" fill="#000000">Object</text>
</a>
</g>
</g>
<!-- supriya.nonrealtime.Synth.Synth -->
<g id="node6" class="node">
<title>supriya.nonrealtime.Synth.Synth</title>
<g id="a_node6"><a xlink:href="../api/supriya/nonrealtime/Synth.html#supriya.nonrealtime.Synth.Synth" xlink:title="Synth" target="_top">
<path fill="#b3cde3" stroke="#b3cde3" stroke-width="2" d="M372.9778,-72.5C372.9778,-72.5 349.6445,-72.5 349.6445,-72.5 346.4778,-72.5 343.3112,-69.3333 343.3112,-66.1667 343.3112,-66.1667 343.3112,-59.8333 343.3112,-59.8333 343.3112,-56.6667 346.4778,-53.5 349.6445,-53.5 349.6445,-53.5 372.9778,-53.5 372.9778,-53.5 376.1445,-53.5 379.3112,-56.6667 379.3112,-59.8333 379.3112,-59.8333 379.3112,-66.1667 379.3112,-66.1667 379.3112,-69.3333 376.1445,-72.5 372.9778,-72.5"/>
<text text-anchor="middle" x="361.3112" y="-60.5" font-family="Arial" font-size="10.00" fill="#000000">Synth</text>
</a>
</g>
</g>
<!-- supriya.system.SupriyaObject.SupriyaObject -->
<g id="node7" class="node">
<title>supriya.system.SupriyaObject.SupriyaObject</title>
<g id="a_node7"><a xlink:href="../api/supriya/nonrealtime/../system/SupriyaObject.html#supriya.system.SupriyaObject.SupriyaObject" xlink:title="Supriya\nObject" target="_top">
<path fill="#ccebc5" stroke="#ccebc5" stroke-width="2" d="M125,-59C125,-59 103,-59 103,-59 98,-59 93,-54 93,-49 93,-49 93,-39 93,-39 93,-34 98,-29 103,-29 103,-29 125,-29 125,-29 130,-29 135,-34 135,-39 135,-39 135,-49 135,-49 135,-54 130,-59 125,-59"/>
<text text-anchor="middle" x="114" y="-47" font-family="Arial" font-size="10.00" fill="#000000">Supriya</text>
<text text-anchor="middle" x="114" y="-36" font-family="Arial" font-size="10.00" fill="#000000">Object</text>
</a>
</g>
</g>
</g>
</svg>
