<?xml version="1.0" encoding="UTF-8" standalone="no"?>
<!DOCTYPE svg PUBLIC "-//W3C//DTD SVG 1.1//EN"
 "http://www.w3.org/Graphics/SVG/1.1/DTD/svg11.dtd">
<!-- Generated by graphviz version 2.40.1 (20161225.0304)
 -->
<!-- Title: InheritanceGraph Pages: 1 -->
<svg width="604pt" height="278pt"
 viewBox="0.00 0.00 604.45 278.00" xmlns="http://www.w3.org/2000/svg" xmlns:xlink="http://www.w3.org/1999/xlink">
<g id="graph0" class="graph" transform="scale(1 1) rotate(0) translate(4 274)">
<title>InheritanceGraph</title>
<g id="clust1" class="cluster">
<title>cluster_builtins</title>
<path fill="transparent" stroke="#bcd2ee" stroke-width="2" stroke-dasharray="5,2" d="M20,-107C20,-107 49,-107 49,-107 55,-107 61,-113 61,-119 61,-119 61,-150 61,-150 61,-156 55,-162 49,-162 49,-162 20,-162 20,-162 14,-162 8,-156 8,-150 8,-150 8,-119 8,-119 8,-113 14,-107 20,-107"/>
<text text-anchor="middle" x="34.5" y="-150" font-family="Arial" font-size="10.00" fill="#000000">builtins</text>
</g>
<g id="clust2" class="cluster">
<title>cluster_supriya.commands</title>
<path fill="transparent" stroke="#bcd2ee" stroke-width="2" stroke-dasharray="5,2" d="M249,-8C249,-8 576.4508,-8 576.4508,-8 582.4508,-8 588.4508,-14 588.4508,-20 588.4508,-20 588.4508,-250 588.4508,-250 588.4508,-256 582.4508,-262 576.4508,-262 576.4508,-262 249,-262 249,-262 243,-262 237,-256 237,-250 237,-250 237,-20 237,-20 237,-14 243,-8 249,-8"/>
<text text-anchor="middle" x="412.7254" y="-250" font-family="Arial" font-size="10.00" fill="#000000">supriya.commands</text>
</g>
<g id="clust3" class="cluster">
<title>cluster_supriya.system</title>
<path fill="transparent" stroke="#bcd2ee" stroke-width="2" stroke-dasharray="5,2" d="M93,-96C93,-96 205,-96 205,-96 211,-96 217,-102 217,-108 217,-108 217,-161 217,-161 217,-167 211,-173 205,-173 205,-173 93,-173 93,-173 87,-173 81,-167 81,-161 81,-161 81,-108 81,-108 81,-102 87,-96 93,-96"/>
<text text-anchor="middle" x="149" y="-161" font-family="Arial" font-size="10.00" fill="#000000">supriya.system</text>
</g>
<!-- builtins.object&#45;&gt;supriya.system.SupriyaObject.SupriyaObject -->
<g id="edge8" class="edge">
<title>builtins.object&#45;&gt;supriya.system.SupriyaObject.SupriyaObject</title>
<path fill="none" stroke="#778899" d="M53.1629,-125C60.862,-125 69.9986,-125 78.6696,-125"/>
<polygon fill="#778899" stroke="#778899" points="78.8875,-128.5001 88.8875,-125 78.8874,-121.5001 78.8875,-128.5001"/>
</g>
<!-- supriya.commands.MoveRequest.MoveRequest&#45;&gt;supriya.commands.GroupHeadRequest.GroupHeadRequest -->
<g id="edge1" class="edge">
<title>supriya.commands.MoveRequest.MoveRequest&#45;&gt;supriya.commands.GroupHeadRequest.GroupHeadRequest</title>
<path fill="none" stroke="#778899" d="M487.3714,-107.1919C499.6439,-95.0726 516.1373,-78.7851 530.1468,-64.9506"/>
<polygon fill="#778899" stroke="#778899" points="532.9756,-67.0761 537.6317,-57.5592 528.057,-62.0953 532.9756,-67.0761"/>
</g>
<!-- supriya.commands.MoveRequest.MoveRequest&#45;&gt;supriya.commands.GroupTailRequest.GroupTailRequest -->
<g id="edge2" class="edge">
<title>supriya.commands.MoveRequest.MoveRequest&#45;&gt;supriya.commands.GroupTailRequest.GroupTailRequest</title>
<path fill="none" stroke="#778899" d="M497.5339,-115.8242C506.8437,-112.7945 517.2601,-109.4047 526.81,-106.2969"/>
<polygon fill="#778899" stroke="#778899" points="527.9397,-109.61 536.3657,-103.1872 525.7734,-102.9536 527.9397,-109.61"/>
</g>
<!-- supriya.commands.MoveRequest.MoveRequest&#45;&gt;supriya.commands.NodeAfterRequest.NodeAfterRequest -->
<g id="edge3" class="edge">
<title>supriya.commands.MoveRequest.MoveRequest&#45;&gt;supriya.commands.NodeAfterRequest.NodeAfterRequest</title>
<path fill="none" stroke="#778899" d="M497.5339,-134.4922C506.8437,-137.6263 517.2601,-141.1331 526.81,-144.3481"/>
<polygon fill="#778899" stroke="#778899" points="525.7716,-147.6914 536.3657,-147.565 528.0051,-141.0573 525.7716,-147.6914"/>
</g>
<!-- supriya.commands.MoveRequest.MoveRequest&#45;&gt;supriya.commands.NodeBeforeRequest.NodeBeforeRequest -->
<g id="edge4" class="edge">
<title>supriya.commands.MoveRequest.MoveRequest&#45;&gt;supriya.commands.NodeBeforeRequest.NodeBeforeRequest</title>
<path fill="none" stroke="#778899" d="M486.9439,-142.5835C499.3837,-155.0076 516.313,-171.9155 530.5765,-186.161"/>
<polygon fill="#778899" stroke="#778899" points="528.2056,-188.7397 537.7545,-193.3299 533.1523,-183.7868 528.2056,-188.7397"/>
</g>
<!-- supriya.commands.Request.Request&#45;&gt;supriya.commands.MoveRequest.MoveRequest -->
<g id="edge5" class="edge">
<title>supriya.commands.Request.Request&#45;&gt;supriya.commands.MoveRequest.MoveRequest</title>
<path fill="none" stroke="#778899" d="M402.4619,-125C410.5249,-125 419.3261,-125 427.817,-125"/>
<polygon fill="#778899" stroke="#778899" points="427.9499,-128.5001 437.9498,-125 427.9498,-121.5001 427.9499,-128.5001"/>
</g>
<!-- supriya.commands.Requestable.Requestable&#45;&gt;supriya.commands.Request.Request -->
<g id="edge6" class="edge">
<title>supriya.commands.Requestable.Requestable&#45;&gt;supriya.commands.Request.Request</title>
<path fill="none" stroke="#778899" d="M304.012,-125C312.0601,-125 320.9328,-125 329.5171,-125"/>
<polygon fill="#778899" stroke="#778899" points="329.7704,-128.5001 339.7704,-125 329.7703,-121.5001 329.7704,-128.5001"/>
</g>
<!-- supriya.system.SupriyaObject.SupriyaObject&#45;&gt;supriya.system.SupriyaValueObject.SupriyaValueObject -->
<g id="edge7" class="edge">
<title>supriya.system.SupriyaObject.SupriyaObject&#45;&gt;supriya.system.SupriyaValueObject.SupriyaValueObject</title>
<path fill="none" stroke="#778899" d="M131.3138,-125C139.2025,-125 148.316,-125 156.8971,-125"/>
<polygon fill="#778899" stroke="#778899" points="156.982,-128.5001 166.982,-125 156.982,-121.5001 156.982,-128.5001"/>
</g>
<!-- supriya.system.SupriyaValueObject.SupriyaValueObject&#45;&gt;supriya.commands.Requestable.Requestable -->
<g id="edge9" class="edge">
<title>supriya.system.SupriyaValueObject.SupriyaValueObject&#45;&gt;supriya.commands.Requestable.Requestable</title>
<path fill="none" stroke="#778899" d="M209.382,-125C217.0772,-125 226.0257,-125 234.7801,-125"/>
<polygon fill="#778899" stroke="#778899" points="234.881,-128.5001 244.881,-125 234.8809,-121.5001 234.881,-128.5001"/>
</g>
<!-- builtins.object -->
<g id="node1" class="node">
<title>builtins.object</title>
<g id="a_node1"><a xlink:href="https://docs.python.org/3.6/library/functions.html#object" xlink:title="object" target="_top">
<path fill="#fbb4ae" stroke="#fbb4ae" stroke-width="2" d="M46.6667,-134.5C46.6667,-134.5 22.3333,-134.5 22.3333,-134.5 19.1667,-134.5 16,-131.3333 16,-128.1667 16,-128.1667 16,-121.8333 16,-121.8333 16,-118.6667 19.1667,-115.5 22.3333,-115.5 22.3333,-115.5 46.6667,-115.5 46.6667,-115.5 49.8333,-115.5 53,-118.6667 53,-121.8333 53,-121.8333 53,-128.1667 53,-128.1667 53,-131.3333 49.8333,-134.5 46.6667,-134.5"/>
<text text-anchor="middle" x="34.5" y="-122.5" font-family="Arial" font-size="10.00" fill="#000000">object</text>
</a>
</g>
</g>
<!-- supriya.commands.GroupHeadRequest.GroupHeadRequest -->
<g id="node2" class="node">
<title>supriya.commands.GroupHeadRequest.GroupHeadRequest</title>
<g id="a_node2"><a xlink:href="../api/supriya/commands/GroupHeadRequest.html#supriya.commands.GroupHeadRequest.GroupHeadRequest" xlink:title="Group\nHead\nRequest" target="_top">
<path fill="#b3cde3" stroke="#b3cde3" stroke-width="2" d="M568.4508,-57.5C568.4508,-57.5 548.4508,-57.5 548.4508,-57.5 542.4508,-57.5 536.4508,-51.5 536.4508,-45.5 536.4508,-45.5 536.4508,-28.5 536.4508,-28.5 536.4508,-22.5 542.4508,-16.5 548.4508,-16.5 548.4508,-16.5 568.4508,-16.5 568.4508,-16.5 574.4508,-16.5 580.4508,-22.5 580.4508,-28.5 580.4508,-28.5 580.4508,-45.5 580.4508,-45.5 580.4508,-51.5 574.4508,-57.5 568.4508,-57.5"/>
<text text-anchor="middle" x="558.4508" y="-45.5" font-family="Arial" font-size="10.00" fill="#000000">Group</text>
<text text-anchor="middle" x="558.4508" y="-34.5" font-family="Arial" font-size="10.00" fill="#000000">Head</text>
<text text-anchor="middle" x="558.4508" y="-23.5" font-family="Arial" font-size="10.00" fill="#000000">Request</text>
</a>
</g>
</g>
<!-- supriya.commands.GroupTailRequest.GroupTailRequest -->
<g id="node3" class="node">
<title>supriya.commands.GroupTailRequest.GroupTailRequest</title>
<g id="a_node3"><a xlink:href="../api/supriya/commands/GroupTailRequest.html#supriya.commands.GroupTailRequest.GroupTailRequest" xlink:title="Group\nTail\nRequest" target="_top">
<path fill="#b3cde3" stroke="#b3cde3" stroke-width="2" d="M568.4508,-116.5C568.4508,-116.5 548.4508,-116.5 548.4508,-116.5 542.4508,-116.5 536.4508,-110.5 536.4508,-104.5 536.4508,-104.5 536.4508,-87.5 536.4508,-87.5 536.4508,-81.5 542.4508,-75.5 548.4508,-75.5 548.4508,-75.5 568.4508,-75.5 568.4508,-75.5 574.4508,-75.5 580.4508,-81.5 580.4508,-87.5 580.4508,-87.5 580.4508,-104.5 580.4508,-104.5 580.4508,-110.5 574.4508,-116.5 568.4508,-116.5"/>
<text text-anchor="middle" x="558.4508" y="-104.5" font-family="Arial" font-size="10.00" fill="#000000">Group</text>
<text text-anchor="middle" x="558.4508" y="-93.5" font-family="Arial" font-size="10.00" fill="#000000">Tail</text>
<text text-anchor="middle" x="558.4508" y="-82.5" font-family="Arial" font-size="10.00" fill="#000000">Request</text>
</a>
</g>
</g>
<!-- supriya.commands.MoveRequest.MoveRequest -->
<g id="node4" class="node">
<title>supriya.commands.MoveRequest.MoveRequest</title>
<g id="a_node4"><a xlink:href="../api/supriya/commands/MoveRequest.html#supriya.commands.MoveRequest.MoveRequest" xlink:title="Move\nRequest" target="_top">
<ellipse fill="#000000" stroke="#000000" stroke-width="2" cx="469.3381" cy="-125" rx="31.2258" ry="21.4286"/>
<text text-anchor="middle" x="469.3381" y="-128" font-family="Arial" font-size="10.00" fill="#ffffff">Move</text>
<text text-anchor="middle" x="469.3381" y="-117" font-family="Arial" font-size="10.00" fill="#ffffff">Request</text>
</a>
</g>
</g>
<!-- supriya.commands.NodeAfterRequest.NodeAfterRequest -->
<g id="node5" class="node">
<title>supriya.commands.NodeAfterRequest.NodeAfterRequest</title>
<g id="a_node5"><a xlink:href="../api/supriya/commands/NodeAfterRequest.html#supriya.commands.NodeAfterRequest.NodeAfterRequest" xlink:title="Node\nAfter\nRequest" target="_top">
<path fill="#b3cde3" stroke="#b3cde3" stroke-width="2" d="M568.4508,-175.5C568.4508,-175.5 548.4508,-175.5 548.4508,-175.5 542.4508,-175.5 536.4508,-169.5 536.4508,-163.5 536.4508,-163.5 536.4508,-146.5 536.4508,-146.5 536.4508,-140.5 542.4508,-134.5 548.4508,-134.5 548.4508,-134.5 568.4508,-134.5 568.4508,-134.5 574.4508,-134.5 580.4508,-140.5 580.4508,-146.5 580.4508,-146.5 580.4508,-163.5 580.4508,-163.5 580.4508,-169.5 574.4508,-175.5 568.4508,-175.5"/>
<text text-anchor="middle" x="558.4508" y="-163.5" font-family="Arial" font-size="10.00" fill="#000000">Node</text>
<text text-anchor="middle" x="558.4508" y="-152.5" font-family="Arial" font-size="10.00" fill="#000000">After</text>
<text text-anchor="middle" x="558.4508" y="-141.5" font-family="Arial" font-size="10.00" fill="#000000">Request</text>
</a>
</g>
</g>
<!-- supriya.commands.NodeBeforeRequest.NodeBeforeRequest -->
<g id="node6" class="node">
<title>supriya.commands.NodeBeforeRequest.NodeBeforeRequest</title>
<g id="a_node6"><a xlink:href="../api/supriya/commands/NodeBeforeRequest.html#supriya.commands.NodeBeforeRequest.NodeBeforeRequest" xlink:title="Node\nBefore\nRequest" target="_top">
<path fill="#b3cde3" stroke="#b3cde3" stroke-width="2" d="M568.4508,-234.5C568.4508,-234.5 548.4508,-234.5 548.4508,-234.5 542.4508,-234.5 536.4508,-228.5 536.4508,-222.5 536.4508,-222.5 536.4508,-205.5 536.4508,-205.5 536.4508,-199.5 542.4508,-193.5 548.4508,-193.5 548.4508,-193.5 568.4508,-193.5 568.4508,-193.5 574.4508,-193.5 580.4508,-199.5 580.4508,-205.5 580.4508,-205.5 580.4508,-222.5 580.4508,-222.5 580.4508,-228.5 574.4508,-234.5 568.4508,-234.5"/>
<text text-anchor="middle" x="558.4508" y="-222.5" font-family="Arial" font-size="10.00" fill="#000000">Node</text>
<text text-anchor="middle" x="558.4508" y="-211.5" font-family="Arial" font-size="10.00" fill="#000000">Before</text>
<text text-anchor="middle" x="558.4508" y="-200.5" font-family="Arial" font-size="10.00" fill="#000000">Request</text>
</a>
</g>
</g>
<!-- supriya.commands.Request.Request -->
<g id="node7" class="node">
<title>supriya.commands.Request.Request</title>
<g id="a_node7"><a xlink:href="../api/supriya/commands/Request.html#supriya.commands.Request.Request" xlink:title="Request" target="_top">
<ellipse fill="none" stroke="#b3cde3" stroke-width="2" cx="371.1127" cy="-125" rx="31.2258" ry="13.3704"/>
<text text-anchor="middle" x="371.1127" y="-122.5" font-family="Arial" font-size="10.00" fill="#000000">Request</text>
</a>
</g>
</g>
<!-- supriya.commands.Requestable.Requestable -->
<g id="node8" class="node">
<title>supriya.commands.Requestable.Requestable</title>
<g id="a_node8"><a xlink:href="../api/supriya/commands/Requestable.html#supriya.commands.Requestable.Requestable" xlink:title="Requestable" target="_top">
<path fill="#b3cde3" stroke="#b3cde3" stroke-width="2" d="M297.6667,-134.5C297.6667,-134.5 251.3333,-134.5 251.3333,-134.5 248.1667,-134.5 245,-131.3333 245,-128.1667 245,-128.1667 245,-121.8333 245,-121.8333 245,-118.6667 248.1667,-115.5 251.3333,-115.5 251.3333,-115.5 297.6667,-115.5 297.6667,-115.5 300.8333,-115.5 304,-118.6667 304,-121.8333 304,-121.8333 304,-128.1667 304,-128.1667 304,-131.3333 300.8333,-134.5 297.6667,-134.5"/>
<text text-anchor="middle" x="274.5" y="-122.5" font-family="Arial" font-size="10.00" fill="#000000">Requestable</text>
</a>
</g>
</g>
<!-- supriya.system.SupriyaObject.SupriyaObject -->
<g id="node9" class="node">
<title>supriya.system.SupriyaObject.SupriyaObject</title>
<g id="a_node9"><a xlink:href="../api/supriya/commands/../system/SupriyaObject.html#supriya.system.SupriyaObject.SupriyaObject" xlink:title="Supriya\nObject" target="_top">
<path fill="#ccebc5" stroke="#ccebc5" stroke-width="2" d="M121,-140C121,-140 99,-140 99,-140 94,-140 89,-135 89,-130 89,-130 89,-120 89,-120 89,-115 94,-110 99,-110 99,-110 121,-110 121,-110 126,-110 131,-115 131,-120 131,-120 131,-130 131,-130 131,-135 126,-140 121,-140"/>
<text text-anchor="middle" x="110" y="-128" font-family="Arial" font-size="10.00" fill="#000000">Supriya</text>
<text text-anchor="middle" x="110" y="-117" font-family="Arial" font-size="10.00" fill="#000000">Object</text>
</a>
</g>
</g>
<!-- supriya.system.SupriyaValueObject.SupriyaValueObject -->
<g id="node10" class="node">
<title>supriya.system.SupriyaValueObject.SupriyaValueObject</title>
<g id="a_node10"><a xlink:href="../api/supriya/commands/../system/SupriyaValueObject.html#supriya.system.SupriyaValueObject.SupriyaValueObject" xlink:title="Supriya\nValue\nObject" target="_top">
<path fill="#ccebc5" stroke="#ccebc5" stroke-width="2" d="M197,-145.5C197,-145.5 179,-145.5 179,-145.5 173,-145.5 167,-139.5 167,-133.5 167,-133.5 167,-116.5 167,-116.5 167,-110.5 173,-104.5 179,-104.5 179,-104.5 197,-104.5 197,-104.5 203,-104.5 209,-110.5 209,-116.5 209,-116.5 209,-133.5 209,-133.5 209,-139.5 203,-145.5 197,-145.5"/>
<text text-anchor="middle" x="188" y="-133.5" font-family="Arial" font-size="10.00" fill="#000000">Supriya</text>
<text text-anchor="middle" x="188" y="-122.5" font-family="Arial" font-size="10.00" fill="#000000">Value</text>
<text text-anchor="middle" x="188" y="-111.5" font-family="Arial" font-size="10.00" fill="#000000">Object</text>
</a>
</g>
</g>
</g>
</svg>
