<?xml version="1.0" encoding="UTF-8" standalone="no"?>
<!DOCTYPE svg PUBLIC "-//W3C//DTD SVG 1.1//EN"
 "http://www.w3.org/Graphics/SVG/1.1/DTD/svg11.dtd">
<!-- Generated by graphviz version 2.40.1 (20161225.0304)
 -->
<!-- Title: InheritanceGraph Pages: 1 -->
<svg width="322pt" height="141pt"
 viewBox="0.00 0.00 322.00 141.00" xmlns="http://www.w3.org/2000/svg" xmlns:xlink="http://www.w3.org/1999/xlink">
<g id="graph0" class="graph" transform="scale(1 1) rotate(0) translate(4 137)">
<title>InheritanceGraph</title>
<g id="clust1" class="cluster">
<title>cluster_builtins</title>
<path fill="transparent" stroke="#bcd2ee" stroke-width="2" stroke-dasharray="5,2" d="M20,-56C20,-56 49,-56 49,-56 55,-56 61,-62 61,-68 61,-68 61,-99 61,-99 61,-105 55,-111 49,-111 49,-111 20,-111 20,-111 14,-111 8,-105 8,-99 8,-99 8,-68 8,-68 8,-62 14,-56 20,-56"/>
<text text-anchor="middle" x="34.5" y="-99" font-family="Arial" font-size="10.00" fill="#000000">builtins</text>
</g>
<g id="clust2" class="cluster">
<title>cluster_supriya.soundfiles</title>
<path fill="transparent" stroke="#bcd2ee" stroke-width="2" stroke-dasharray="5,2" d="M249,-8C249,-8 302,-8 302,-8 308,-8 314,-14 314,-20 314,-20 314,-99 314,-99 314,-105 308,-111 302,-111 302,-111 249,-111 249,-111 243,-111 237,-105 237,-99 237,-99 237,-20 237,-20 237,-14 243,-8 249,-8"/>
<text text-anchor="middle" x="275.5" y="-99" font-family="Arial" font-size="10.00" fill="#000000">supriya.soundfiles</text>
</g>
<g id="clust3" class="cluster">
<title>cluster_supriya.system</title>
<path fill="transparent" stroke="#bcd2ee" stroke-width="2" stroke-dasharray="5,2" d="M93,-48C93,-48 205,-48 205,-48 211,-48 217,-54 217,-60 217,-60 217,-113 217,-113 217,-119 211,-125 205,-125 205,-125 93,-125 93,-125 87,-125 81,-119 81,-113 81,-113 81,-60 81,-60 81,-54 87,-48 93,-48"/>
<text text-anchor="middle" x="149" y="-113" font-family="Arial" font-size="10.00" fill="#000000">supriya.system</text>
</g>
<!-- builtins.object&#45;&gt;supriya.system.SupriyaObject.SupriyaObject -->
<g id="edge2" class="edge">
<title>builtins.object&#45;&gt;supriya.system.SupriyaObject.SupriyaObject</title>
<path fill="none" stroke="#778899" d="M53.1629,-74C60.862,-74 69.9986,-74 78.6696,-74"/>
<polygon fill="#778899" stroke="#778899" points="78.8875,-77.5001 88.8875,-74 78.8874,-70.5001 78.8875,-77.5001"/>
</g>
<!-- supriya.system.SupriyaObject.SupriyaObject&#45;&gt;supriya.soundfiles.SoundFile -->
<g id="edge3" class="edge">
<title>supriya.system.SupriyaObject.SupriyaObject&#45;&gt;supriya.soundfiles.SoundFile</title>
<path fill="none" stroke="#778899" d="M131.1181,-62.7009C141.6383,-57.5078 154.7089,-51.6951 167,-48 193.0871,-40.1573 223.8673,-35.7652 245.88,-33.4196"/>
<polygon fill="#778899" stroke="#778899" points="246.3159,-36.8937 255.9229,-32.4264 245.6269,-29.9277 246.3159,-36.8937"/>
</g>
<!-- supriya.system.SupriyaObject.SupriyaObject&#45;&gt;supriya.system.SupriyaValueObject.SupriyaValueObject -->
<g id="edge1" class="edge">
<title>supriya.system.SupriyaObject.SupriyaObject&#45;&gt;supriya.system.SupriyaValueObject.SupriyaValueObject</title>
<path fill="none" stroke="#778899" d="M131.3138,-74.8198C139.2025,-75.1232 148.316,-75.4737 156.8971,-75.8037"/>
<polygon fill="#778899" stroke="#778899" points="156.8548,-79.3046 166.982,-76.1916 157.1239,-72.3098 156.8548,-79.3046"/>
</g>
<!-- supriya.system.SupriyaValueObject.SupriyaValueObject&#45;&gt;supriya.soundfiles.Say -->
<g id="edge4" class="edge">
<title>supriya.system.SupriyaValueObject.SupriyaValueObject&#45;&gt;supriya.soundfiles.Say</title>
<path fill="none" stroke="#778899" d="M209.0603,-76.2738C221.4753,-75.8457 237.2485,-75.3018 250.255,-74.8533"/>
<polygon fill="#778899" stroke="#778899" points="250.5218,-78.3463 260.3952,-74.5036 250.2805,-71.3504 250.5218,-78.3463"/>
</g>
<!-- builtins.object -->
<g id="node1" class="node">
<title>builtins.object</title>
<g id="a_node1"><a xlink:href="https://docs.python.org/3.6/library/functions.html#object" xlink:title="object" target="_top">
<path fill="#fbb4ae" stroke="#fbb4ae" stroke-width="2" d="M46.6667,-83.5C46.6667,-83.5 22.3333,-83.5 22.3333,-83.5 19.1667,-83.5 16,-80.3333 16,-77.1667 16,-77.1667 16,-70.8333 16,-70.8333 16,-67.6667 19.1667,-64.5 22.3333,-64.5 22.3333,-64.5 46.6667,-64.5 46.6667,-64.5 49.8333,-64.5 53,-67.6667 53,-70.8333 53,-70.8333 53,-77.1667 53,-77.1667 53,-80.3333 49.8333,-83.5 46.6667,-83.5"/>
<text text-anchor="middle" x="34.5" y="-71.5" font-family="Arial" font-size="10.00" fill="#000000">object</text>
</a>
</g>
</g>
<!-- supriya.soundfiles.Say -->
<g id="node2" class="node">
<title>supriya.soundfiles.Say</title>
<g id="a_node2"><a xlink:href="../api/supriya/soundfiles.html#supriya.soundfiles.Say" xlink:title="Say" target="_top">
<path fill="#000000" stroke="#000000" stroke-width="2" d="M283.1667,-83.5C283.1667,-83.5 266.8333,-83.5 266.8333,-83.5 263.6667,-83.5 260.5,-80.3333 260.5,-77.1667 260.5,-77.1667 260.5,-70.8333 260.5,-70.8333 260.5,-67.6667 263.6667,-64.5 266.8333,-64.5 266.8333,-64.5 283.1667,-64.5 283.1667,-64.5 286.3333,-64.5 289.5,-67.6667 289.5,-70.8333 289.5,-70.8333 289.5,-77.1667 289.5,-77.1667 289.5,-80.3333 286.3333,-83.5 283.1667,-83.5"/>
<text text-anchor="middle" x="275" y="-71.5" font-family="Arial" font-size="10.00" fill="#ffffff">Say</text>
</a>
</g>
</g>
<!-- supriya.soundfiles.SoundFile -->
<g id="node3" class="node">
<title>supriya.soundfiles.SoundFile</title>
<g id="a_node3"><a xlink:href="../api/supriya/soundfiles.html#supriya.soundfiles.SoundFile" xlink:title="Sound\nFile" target="_top">
<path fill="#000000" stroke="#000000" stroke-width="2" d="M284,-46C284,-46 266,-46 266,-46 261,-46 256,-41 256,-36 256,-36 256,-26 256,-26 256,-21 261,-16 266,-16 266,-16 284,-16 284,-16 289,-16 294,-21 294,-26 294,-26 294,-36 294,-36 294,-41 289,-46 284,-46"/>
<text text-anchor="middle" x="275" y="-34" font-family="Arial" font-size="10.00" fill="#ffffff">Sound</text>
<text text-anchor="middle" x="275" y="-23" font-family="Arial" font-size="10.00" fill="#ffffff">File</text>
</a>
</g>
</g>
<!-- supriya.system.SupriyaObject.SupriyaObject -->
<g id="node4" class="node">
<title>supriya.system.SupriyaObject.SupriyaObject</title>
<g id="a_node4"><a xlink:href="../api/supriya/system/SupriyaObject.html#supriya.system.SupriyaObject.SupriyaObject" xlink:title="Supriya\nObject" target="_top">
<path fill="#ccebc5" stroke="#ccebc5" stroke-width="2" d="M121,-89C121,-89 99,-89 99,-89 94,-89 89,-84 89,-79 89,-79 89,-69 89,-69 89,-64 94,-59 99,-59 99,-59 121,-59 121,-59 126,-59 131,-64 131,-69 131,-69 131,-79 131,-79 131,-84 126,-89 121,-89"/>
<text text-anchor="middle" x="110" y="-77" font-family="Arial" font-size="10.00" fill="#000000">Supriya</text>
<text text-anchor="middle" x="110" y="-66" font-family="Arial" font-size="10.00" fill="#000000">Object</text>
</a>
</g>
</g>
<!-- supriya.system.SupriyaValueObject.SupriyaValueObject -->
<g id="node5" class="node">
<title>supriya.system.SupriyaValueObject.SupriyaValueObject</title>
<g id="a_node5"><a xlink:href="../api/supriya/system/SupriyaValueObject.html#supriya.system.SupriyaValueObject.SupriyaValueObject" xlink:title="Supriya\nValue\nObject" target="_top">
<path fill="#ccebc5" stroke="#ccebc5" stroke-width="2" d="M197,-97.5C197,-97.5 179,-97.5 179,-97.5 173,-97.5 167,-91.5 167,-85.5 167,-85.5 167,-68.5 167,-68.5 167,-62.5 173,-56.5 179,-56.5 179,-56.5 197,-56.5 197,-56.5 203,-56.5 209,-62.5 209,-68.5 209,-68.5 209,-85.5 209,-85.5 209,-91.5 203,-97.5 197,-97.5"/>
<text text-anchor="middle" x="188" y="-85.5" font-family="Arial" font-size="10.00" fill="#000000">Supriya</text>
<text text-anchor="middle" x="188" y="-74.5" font-family="Arial" font-size="10.00" fill="#000000">Value</text>
<text text-anchor="middle" x="188" y="-63.5" font-family="Arial" font-size="10.00" fill="#000000">Object</text>
</a>
</g>
</g>
</g>
</svg>
