<?xml version="1.0" encoding="UTF-8" standalone="no"?>
<!DOCTYPE svg PUBLIC "-//W3C//DTD SVG 1.1//EN"
 "http://www.w3.org/Graphics/SVG/1.1/DTD/svg11.dtd">
<!-- Generated by graphviz version 2.40.1 (20161225.0304)
 -->
<!-- Title: InheritanceGraph Pages: 1 -->
<svg width="397pt" height="101pt"
 viewBox="0.00 0.00 397.00 101.00" xmlns="http://www.w3.org/2000/svg" xmlns:xlink="http://www.w3.org/1999/xlink">
<g id="graph0" class="graph" transform="scale(1 1) rotate(0) translate(4 97)">
<title>InheritanceGraph</title>
<g id="clust1" class="cluster">
<title>cluster_abjad.system</title>
<path fill="transparent" stroke="#bcd2ee" stroke-width="2" stroke-dasharray="5,2" d="M93,-8C93,-8 197,-8 197,-8 203,-8 209,-14 209,-20 209,-20 209,-73 209,-73 209,-79 203,-85 197,-85 197,-85 93,-85 93,-85 87,-85 81,-79 81,-73 81,-73 81,-20 81,-20 81,-14 87,-8 93,-8"/>
<text text-anchor="middle" x="145" y="-73" font-family="Arial" font-size="10.00" fill="#000000">abjad.system</text>
</g>
<g id="clust2" class="cluster">
<title>cluster_abjad.timespans</title>
<path fill="transparent" stroke="#bcd2ee" stroke-width="2" stroke-dasharray="5,2" d="M241,-19C241,-19 288,-19 288,-19 294,-19 300,-25 300,-31 300,-31 300,-62 300,-62 300,-68 294,-74 288,-74 288,-74 241,-74 241,-74 235,-74 229,-68 229,-62 229,-62 229,-31 229,-31 229,-25 235,-19 241,-19"/>
<text text-anchor="middle" x="264.5" y="-62" font-family="Arial" font-size="10.00" fill="#000000">abjad.timespans</text>
</g>
<g id="clust3" class="cluster">
<title>cluster_builtins</title>
<path fill="transparent" stroke="#bcd2ee" stroke-width="2" stroke-dasharray="5,2" d="M20,-19C20,-19 49,-19 49,-19 55,-19 61,-25 61,-31 61,-31 61,-62 61,-62 61,-68 55,-74 49,-74 49,-74 20,-74 20,-74 14,-74 8,-68 8,-62 8,-62 8,-31 8,-31 8,-25 14,-19 20,-19"/>
<text text-anchor="middle" x="34.5" y="-62" font-family="Arial" font-size="10.00" fill="#000000">builtins</text>
</g>
<g id="clust4" class="cluster">
<title>cluster_supriya.realtime</title>
<path fill="transparent" stroke="#bcd2ee" stroke-width="2" stroke-dasharray="5,2" d="M332,-19C332,-19 377,-19 377,-19 383,-19 389,-25 389,-31 389,-31 389,-62 389,-62 389,-68 383,-74 377,-74 377,-74 332,-74 332,-74 326,-74 320,-68 320,-62 320,-62 320,-31 320,-31 320,-25 326,-19 332,-19"/>
<text text-anchor="middle" x="354.5" y="-62" font-family="Arial" font-size="10.00" fill="#000000">supriya.realtime</text>
</g>
<!-- abjad.system.AbjadObject.AbjadObject&#45;&gt;abjad.system.AbjadValueObject.AbjadValueObject -->
<g id="edge1" class="edge">
<title>abjad.system.AbjadObject.AbjadObject&#45;&gt;abjad.system.AbjadValueObject.AbjadValueObject</title>
<path fill="none" stroke="#778899" d="M127.0568,-37C134.8507,-37 144.0462,-37 152.6619,-37"/>
<polygon fill="#778899" stroke="#778899" points="152.7506,-40.5001 162.7505,-37 152.7505,-33.5001 152.7506,-40.5001"/>
</g>
<!-- abjad.system.AbjadValueObject.AbjadValueObject&#45;&gt;abjad.timespans.Timespan.Timespan -->
<g id="edge2" class="edge">
<title>abjad.system.AbjadValueObject.AbjadValueObject&#45;&gt;abjad.timespans.Timespan.Timespan</title>
<path fill="none" stroke="#778899" d="M201.1345,-37C209.594,-37 219.8152,-37 229.556,-37"/>
<polygon fill="#778899" stroke="#778899" points="229.8311,-40.5001 239.8311,-37 229.8311,-33.5001 229.8311,-40.5001"/>
</g>
<!-- abjad.timespans.Timespan.Timespan&#45;&gt;supriya.realtime.Block.Block -->
<g id="edge3" class="edge">
<title>abjad.timespans.Timespan.Timespan&#45;&gt;supriya.realtime.Block.Block</title>
<path fill="none" stroke="#778899" d="M289.0929,-37C300.6486,-37 314.4822,-37 326.4449,-37"/>
<polygon fill="#778899" stroke="#778899" points="326.7861,-40.5001 336.786,-37 326.786,-33.5001 326.7861,-40.5001"/>
</g>
<!-- builtins.object&#45;&gt;abjad.system.AbjadObject.AbjadObject -->
<g id="edge4" class="edge">
<title>builtins.object&#45;&gt;abjad.system.AbjadObject.AbjadObject</title>
<path fill="none" stroke="#778899" d="M53.0472,-37C60.8475,-37 70.1116,-37 78.7896,-37"/>
<polygon fill="#778899" stroke="#778899" points="78.9465,-40.5001 88.9464,-37 78.9464,-33.5001 78.9465,-40.5001"/>
</g>
<!-- abjad.system.AbjadObject.AbjadObject -->
<g id="node1" class="node">
<title>abjad.system.AbjadObject.AbjadObject</title>
<g id="a_node1"><a xlink:href="http://abjad.mbrsi.org/api/abjad/system/AbjadObject.html#abjad.system.AbjadObject.AbjadObject" xlink:title="Abjad\nObject" target="_top">
<path fill="#fbb4ae" stroke="#fbb4ae" stroke-width="2" d="M117,-52C117,-52 99,-52 99,-52 94,-52 89,-47 89,-42 89,-42 89,-32 89,-32 89,-27 94,-22 99,-22 99,-22 117,-22 117,-22 122,-22 127,-27 127,-32 127,-32 127,-42 127,-42 127,-47 122,-52 117,-52"/>
<text text-anchor="middle" x="108" y="-40" font-family="Arial" font-size="10.00" fill="#000000">Abjad</text>
<text text-anchor="middle" x="108" y="-29" font-family="Arial" font-size="10.00" fill="#000000">Object</text>
</a>
</g>
</g>
<!-- abjad.system.AbjadValueObject.AbjadValueObject -->
<g id="node2" class="node">
<title>abjad.system.AbjadValueObject.AbjadValueObject</title>
<g id="a_node2"><a xlink:href="http://abjad.mbrsi.org/api/abjad/system/AbjadValueObject.html#abjad.system.AbjadValueObject.AbjadValueObject" xlink:title="Abjad\nValue\nObject" target="_top">
<path fill="#fbb4ae" stroke="#fbb4ae" stroke-width="2" d="M189,-57.5C189,-57.5 175,-57.5 175,-57.5 169,-57.5 163,-51.5 163,-45.5 163,-45.5 163,-28.5 163,-28.5 163,-22.5 169,-16.5 175,-16.5 175,-16.5 189,-16.5 189,-16.5 195,-16.5 201,-22.5 201,-28.5 201,-28.5 201,-45.5 201,-45.5 201,-51.5 195,-57.5 189,-57.5"/>
<text text-anchor="middle" x="182" y="-45.5" font-family="Arial" font-size="10.00" fill="#000000">Abjad</text>
<text text-anchor="middle" x="182" y="-34.5" font-family="Arial" font-size="10.00" fill="#000000">Value</text>
<text text-anchor="middle" x="182" y="-23.5" font-family="Arial" font-size="10.00" fill="#000000">Object</text>
</a>
</g>
</g>
<!-- abjad.timespans.Timespan.Timespan -->
<g id="node3" class="node">
<title>abjad.timespans.Timespan.Timespan</title>
<g id="a_node3"><a xlink:href="http://abjad.mbrsi.org/api/abjad/timespans/Timespan.html#abjad.timespans.Timespan.Timespan" xlink:title="Timespan" target="_top">
<path fill="#b3cde3" stroke="#b3cde3" stroke-width="2" d="M282.6667,-46.5C282.6667,-46.5 246.3333,-46.5 246.3333,-46.5 243.1667,-46.5 240,-43.3333 240,-40.1667 240,-40.1667 240,-33.8333 240,-33.8333 240,-30.6667 243.1667,-27.5 246.3333,-27.5 246.3333,-27.5 282.6667,-27.5 282.6667,-27.5 285.8333,-27.5 289,-30.6667 289,-33.8333 289,-33.8333 289,-40.1667 289,-40.1667 289,-43.3333 285.8333,-46.5 282.6667,-46.5"/>
<text text-anchor="middle" x="264.5" y="-34.5" font-family="Arial" font-size="10.00" fill="#000000">Timespan</text>
</a>
</g>
</g>
<!-- builtins.object -->
<g id="node4" class="node">
<title>builtins.object</title>
<g id="a_node4"><a xlink:href="https://docs.python.org/3.6/library/functions.html#object" xlink:title="object" target="_top">
<path fill="#ccebc5" stroke="#ccebc5" stroke-width="2" d="M46.6667,-46.5C46.6667,-46.5 22.3333,-46.5 22.3333,-46.5 19.1667,-46.5 16,-43.3333 16,-40.1667 16,-40.1667 16,-33.8333 16,-33.8333 16,-30.6667 19.1667,-27.5 22.3333,-27.5 22.3333,-27.5 46.6667,-27.5 46.6667,-27.5 49.8333,-27.5 53,-30.6667 53,-33.8333 53,-33.8333 53,-40.1667 53,-40.1667 53,-43.3333 49.8333,-46.5 46.6667,-46.5"/>
<text text-anchor="middle" x="34.5" y="-34.5" font-family="Arial" font-size="10.00" fill="#000000">object</text>
</a>
</g>
</g>
<!-- supriya.realtime.Block.Block -->
<g id="node5" class="node">
<title>supriya.realtime.Block.Block</title>
<g id="a_node5"><a xlink:href="../api/supriya/realtime/Block.html#supriya.realtime.Block.Block" xlink:title="Block" target="_top">
<path fill="#000000" stroke="#000000" stroke-width="2" d="M365.6667,-46.5C365.6667,-46.5 343.3333,-46.5 343.3333,-46.5 340.1667,-46.5 337,-43.3333 337,-40.1667 337,-40.1667 337,-33.8333 337,-33.8333 337,-30.6667 340.1667,-27.5 343.3333,-27.5 343.3333,-27.5 365.6667,-27.5 365.6667,-27.5 368.8333,-27.5 372,-30.6667 372,-33.8333 372,-33.8333 372,-40.1667 372,-40.1667 372,-43.3333 368.8333,-46.5 365.6667,-46.5"/>
<text text-anchor="middle" x="354.5" y="-34.5" font-family="Arial" font-size="10.00" fill="#ffffff">Block</text>
</a>
</g>
</g>
</g>
</svg>
