<?xml version="1.0" encoding="UTF-8" standalone="no"?>
<!DOCTYPE svg PUBLIC "-//W3C//DTD SVG 1.1//EN"
 "http://www.w3.org/Graphics/SVG/1.1/DTD/svg11.dtd">
<!-- Generated by graphviz version 2.44.1 (20200629.0846)
 -->
<!-- Title: InheritanceGraph Pages: 1 -->
<svg width="506pt" height="297pt"
 viewBox="0.00 0.00 505.95 297.00" xmlns="http://www.w3.org/2000/svg" xmlns:xlink="http://www.w3.org/1999/xlink">
<g id="graph0" class="graph" transform="scale(1 1) rotate(0) translate(4 293)">
<title>InheritanceGraph</title>
<g id="clust1" class="cluster">
<title>cluster_builtins</title>
<path fill="transparent" stroke="#bcd2ee" stroke-width="2" stroke-dasharray="5,2" d="M20,-152C20,-152 55,-152 55,-152 61,-152 67,-158 67,-164 67,-164 67,-195 67,-195 67,-201 61,-207 55,-207 55,-207 20,-207 20,-207 14,-207 8,-201 8,-195 8,-195 8,-164 8,-164 8,-158 14,-152 20,-152"/>
<text text-anchor="middle" x="37.5" y="-195" font-family="Arial" font-size="10.00">builtins</text>
</g>
<g id="clust2" class="cluster">
<title>cluster_supriya.provider</title>
<path fill="transparent" stroke="#bcd2ee" stroke-width="2" stroke-dasharray="5,2" d="M136,-8C136,-8 477.95,-8 477.95,-8 483.95,-8 489.95,-14 489.95,-20 489.95,-20 489.95,-269 489.95,-269 489.95,-275 483.95,-281 477.95,-281 477.95,-281 136,-281 136,-281 130,-281 124,-275 124,-269 124,-269 124,-20 124,-20 124,-14 130,-8 136,-8"/>
<text text-anchor="middle" x="306.98" y="-269" font-family="Arial" font-size="10.00">supriya.provider</text>
</g>
<!-- builtins.object&#45;&gt;supriya.provider.BufferProxy -->
<g id="edge9" class="edge">
<title>builtins.object&#45;&gt;supriya.provider.BufferProxy</title>
<path fill="none" stroke="lightslategrey" d="M56.57,-179.59C77.97,-190.96 113.91,-210.03 139.27,-223.5"/>
<polygon fill="lightslategrey" stroke="lightslategrey" points="137.95,-226.76 148.43,-228.36 141.23,-220.58 137.95,-226.76"/>
</g>
<!-- builtins.object&#45;&gt;supriya.provider.Provider -->
<g id="edge10" class="edge">
<title>builtins.object&#45;&gt;supriya.provider.Provider</title>
<path fill="none" stroke="lightslategrey" d="M59.1,-173.64C76.91,-176.8 103.25,-181.46 125.62,-185.42"/>
<polygon fill="lightslategrey" stroke="lightslategrey" points="125.12,-188.88 135.57,-187.18 126.34,-181.99 125.12,-188.88"/>
</g>
<!-- builtins.object&#45;&gt;supriya.provider.ProviderMoment -->
<g id="edge11" class="edge">
<title>builtins.object&#45;&gt;supriya.provider.ProviderMoment</title>
<path fill="none" stroke="lightslategrey" d="M59.1,-166.36C78.8,-162.87 108.93,-157.54 132.59,-153.35"/>
<polygon fill="lightslategrey" stroke="lightslategrey" points="133.37,-156.77 142.61,-151.58 132.15,-149.87 133.37,-156.77"/>
</g>
<!-- builtins.object&#45;&gt;supriya.provider.Proxy -->
<g id="edge12" class="edge">
<title>builtins.object&#45;&gt;supriya.provider.Proxy</title>
<path fill="none" stroke="lightslategrey" d="M54.95,-160.32C71.99,-150.45 99.48,-134.94 124,-123 128.78,-120.67 133.93,-118.33 138.95,-116.13"/>
<polygon fill="lightslategrey" stroke="lightslategrey" points="140.55,-119.25 148.36,-112.1 137.79,-112.82 140.55,-119.25"/>
</g>
<!-- supriya.provider.NodeProxy&#45;&gt;supriya.provider.GroupProxy -->
<g id="edge1" class="edge">
<title>supriya.provider.NodeProxy&#45;&gt;supriya.provider.GroupProxy</title>
<path fill="none" stroke="lightslategrey" d="M298.92,-111C312.01,-111 329.23,-111 343.98,-111"/>
<polygon fill="lightslategrey" stroke="lightslategrey" points="344.19,-114.5 354.18,-111 344.18,-107.5 344.19,-114.5"/>
</g>
<!-- supriya.provider.NodeProxy&#45;&gt;supriya.provider.SynthProxy -->
<g id="edge2" class="edge">
<title>supriya.provider.NodeProxy&#45;&gt;supriya.provider.SynthProxy</title>
<path fill="none" stroke="lightslategrey" d="M298.46,-119.36C312.15,-124.72 330.85,-131.34 347.95,-135 375.31,-140.85 407.13,-143.29 429.85,-144.3"/>
<polygon fill="lightslategrey" stroke="lightslategrey" points="429.78,-147.8 439.91,-144.68 430.05,-140.8 429.78,-147.8"/>
</g>
<!-- supriya.provider.Provider&#45;&gt;supriya.provider.NonrealtimeProvider -->
<g id="edge3" class="edge">
<title>supriya.provider.Provider&#45;&gt;supriya.provider.NonrealtimeProvider</title>
<path fill="none" stroke="lightslategrey" d="M200.85,-200.45C210.87,-202.91 222.22,-205.69 233.02,-208.34"/>
<polygon fill="lightslategrey" stroke="lightslategrey" points="232.19,-211.74 242.73,-210.73 233.85,-204.94 232.19,-211.74"/>
</g>
<!-- supriya.provider.Provider&#45;&gt;supriya.provider.RealtimeProvider -->
<g id="edge4" class="edge">
<title>supriya.provider.Provider&#45;&gt;supriya.provider.RealtimeProvider</title>
<path fill="none" stroke="lightslategrey" d="M190.43,-204.46C195.87,-207.73 201.71,-211.4 206.95,-215 223.66,-226.48 223.78,-236.42 242.95,-243 273.59,-253.51 310.6,-251.2 337.63,-247.03"/>
<polygon fill="lightslategrey" stroke="lightslategrey" points="338.56,-250.42 347.83,-245.29 337.38,-243.52 338.56,-250.42"/>
</g>
<!-- supriya.provider.Proxy&#45;&gt;supriya.provider.BusGroupProxy -->
<g id="edge5" class="edge">
<title>supriya.provider.Proxy&#45;&gt;supriya.provider.BusGroupProxy</title>
<path fill="none" stroke="lightslategrey" d="M185.66,-94.4C201.64,-84.3 227.2,-68.14 247.13,-55.54"/>
<polygon fill="lightslategrey" stroke="lightslategrey" points="249.26,-58.34 255.84,-50.03 245.51,-52.42 249.26,-58.34"/>
</g>
<!-- supriya.provider.Proxy&#45;&gt;supriya.provider.BusProxy -->
<g id="edge6" class="edge">
<title>supriya.provider.Proxy&#45;&gt;supriya.provider.BusProxy</title>
<path fill="none" stroke="lightslategrey" d="M190.72,-98.96C205.22,-95.42 225.24,-90.69 242.95,-87 277.78,-79.75 318.03,-72.61 344.84,-68.03"/>
<polygon fill="lightslategrey" stroke="lightslategrey" points="345.49,-71.47 354.77,-66.34 344.32,-64.57 345.49,-71.47"/>
</g>
<!-- supriya.provider.Proxy&#45;&gt;supriya.provider.NodeProxy -->
<g id="edge7" class="edge">
<title>supriya.provider.Proxy&#45;&gt;supriya.provider.NodeProxy</title>
<path fill="none" stroke="lightslategrey" d="M190.91,-105.35C206.55,-106.38 228.37,-107.82 246.06,-108.99"/>
<polygon fill="lightslategrey" stroke="lightslategrey" points="246.23,-112.51 256.44,-109.68 246.69,-105.53 246.23,-112.51"/>
</g>
<!-- supriya.provider.Proxy&#45;&gt;supriya.provider.OscCallbackProxy -->
<g id="edge8" class="edge">
<title>supriya.provider.Proxy&#45;&gt;supriya.provider.OscCallbackProxy</title>
<path fill="none" stroke="lightslategrey" d="M189.53,-113.64C195.18,-116.57 201.35,-119.85 206.95,-123 218.09,-129.26 230.05,-136.35 240.86,-142.9"/>
<polygon fill="lightslategrey" stroke="lightslategrey" points="239.26,-146.02 249.62,-148.24 242.91,-140.05 239.26,-146.02"/>
</g>
<!-- builtins.object -->
<g id="node1" class="node">
<title>builtins.object</title>
<g id="a_node1"><a xlink:href="https://docs.python.org/3/library/functions.html#object" xlink:title="object" target="_top">
<path fill="#fbb4ae" stroke="#fbb4ae" stroke-width="2" d="M52.67,-179.5C52.67,-179.5 22.33,-179.5 22.33,-179.5 19.17,-179.5 16,-176.33 16,-173.17 16,-173.17 16,-166.83 16,-166.83 16,-163.67 19.17,-160.5 22.33,-160.5 22.33,-160.5 52.67,-160.5 52.67,-160.5 55.83,-160.5 59,-163.67 59,-166.83 59,-166.83 59,-173.17 59,-173.17 59,-176.33 55.83,-179.5 52.67,-179.5"/>
<text text-anchor="middle" x="37.5" y="-167.5" font-family="Arial" font-size="10.00">object</text>
</a>
</g>
</g>
<!-- supriya.provider.BufferProxy -->
<g id="node2" class="node">
<title>supriya.provider.BufferProxy</title>
<g id="a_node2"><a xlink:href="../api/supriya/provider.html#supriya.provider.BufferProxy" xlink:title="Buffer\nProxy" target="_top">
<path fill="black" stroke="black" stroke-width="2" d="M180.48,-254C180.48,-254 158.48,-254 158.48,-254 153.48,-254 148.48,-249 148.48,-244 148.48,-244 148.48,-234 148.48,-234 148.48,-229 153.48,-224 158.48,-224 158.48,-224 180.48,-224 180.48,-224 185.48,-224 190.48,-229 190.48,-234 190.48,-234 190.48,-244 190.48,-244 190.48,-249 185.48,-254 180.48,-254"/>
<text text-anchor="middle" x="169.48" y="-242" font-family="Arial" font-size="10.00" fill="white">Buffer</text>
<text text-anchor="middle" x="169.48" y="-231" font-family="Arial" font-size="10.00" fill="white">Proxy</text>
</a>
</g>
</g>
<!-- supriya.provider.BusGroupProxy -->
<g id="node3" class="node">
<title>supriya.provider.BusGroupProxy</title>
<g id="a_node3"><a xlink:href="../api/supriya/provider.html#supriya.provider.BusGroupProxy" xlink:title="Bus\nGroup\nProxy" target="_top">
<path fill="black" stroke="black" stroke-width="2" d="M286.95,-57.5C286.95,-57.5 267.95,-57.5 267.95,-57.5 261.95,-57.5 255.95,-51.5 255.95,-45.5 255.95,-45.5 255.95,-28.5 255.95,-28.5 255.95,-22.5 261.95,-16.5 267.95,-16.5 267.95,-16.5 286.95,-16.5 286.95,-16.5 292.95,-16.5 298.95,-22.5 298.95,-28.5 298.95,-28.5 298.95,-45.5 298.95,-45.5 298.95,-51.5 292.95,-57.5 286.95,-57.5"/>
<text text-anchor="middle" x="277.45" y="-45.5" font-family="Arial" font-size="10.00" fill="white">Bus</text>
<text text-anchor="middle" x="277.45" y="-34.5" font-family="Arial" font-size="10.00" fill="white">Group</text>
<text text-anchor="middle" x="277.45" y="-23.5" font-family="Arial" font-size="10.00" fill="white">Proxy</text>
</a>
</g>
</g>
<!-- supriya.provider.BusProxy -->
<g id="node4" class="node">
<title>supriya.provider.BusProxy</title>
<g id="a_node4"><a xlink:href="../api/supriya/provider.html#supriya.provider.BusProxy" xlink:title="Bus\nProxy" target="_top">
<path fill="black" stroke="black" stroke-width="2" d="M386.95,-78C386.95,-78 364.95,-78 364.95,-78 359.95,-78 354.95,-73 354.95,-68 354.95,-68 354.95,-58 354.95,-58 354.95,-53 359.95,-48 364.95,-48 364.95,-48 386.95,-48 386.95,-48 391.95,-48 396.95,-53 396.95,-58 396.95,-58 396.95,-68 396.95,-68 396.95,-73 391.95,-78 386.95,-78"/>
<text text-anchor="middle" x="375.95" y="-66" font-family="Arial" font-size="10.00" fill="white">Bus</text>
<text text-anchor="middle" x="375.95" y="-55" font-family="Arial" font-size="10.00" fill="white">Proxy</text>
</a>
</g>
</g>
<!-- supriya.provider.GroupProxy -->
<g id="node5" class="node">
<title>supriya.provider.GroupProxy</title>
<g id="a_node5"><a xlink:href="../api/supriya/provider.html#supriya.provider.GroupProxy" xlink:title="Group\nProxy" target="_top">
<path fill="black" stroke="black" stroke-width="2" d="M387.45,-126C387.45,-126 364.45,-126 364.45,-126 359.45,-126 354.45,-121 354.45,-116 354.45,-116 354.45,-106 354.45,-106 354.45,-101 359.45,-96 364.45,-96 364.45,-96 387.45,-96 387.45,-96 392.45,-96 397.45,-101 397.45,-106 397.45,-106 397.45,-116 397.45,-116 397.45,-121 392.45,-126 387.45,-126"/>
<text text-anchor="middle" x="375.95" y="-114" font-family="Arial" font-size="10.00" fill="white">Group</text>
<text text-anchor="middle" x="375.95" y="-103" font-family="Arial" font-size="10.00" fill="white">Proxy</text>
</a>
</g>
</g>
<!-- supriya.provider.NodeProxy -->
<g id="node6" class="node">
<title>supriya.provider.NodeProxy</title>
<g id="a_node6"><a xlink:href="../api/supriya/provider.html#supriya.provider.NodeProxy" xlink:title="Node\nProxy" target="_top">
<path fill="black" stroke="black" stroke-width="2" d="M288.45,-126C288.45,-126 266.45,-126 266.45,-126 261.45,-126 256.45,-121 256.45,-116 256.45,-116 256.45,-106 256.45,-106 256.45,-101 261.45,-96 266.45,-96 266.45,-96 288.45,-96 288.45,-96 293.45,-96 298.45,-101 298.45,-106 298.45,-106 298.45,-116 298.45,-116 298.45,-121 293.45,-126 288.45,-126"/>
<text text-anchor="middle" x="277.45" y="-114" font-family="Arial" font-size="10.00" fill="white">Node</text>
<text text-anchor="middle" x="277.45" y="-103" font-family="Arial" font-size="10.00" fill="white">Proxy</text>
</a>
</g>
</g>
<!-- supriya.provider.SynthProxy -->
<g id="node7" class="node">
<title>supriya.provider.SynthProxy</title>
<g id="a_node7"><a xlink:href="../api/supriya/provider.html#supriya.provider.SynthProxy" xlink:title="Synth\nProxy" target="_top">
<path fill="black" stroke="black" stroke-width="2" d="M471.95,-160C471.95,-160 449.95,-160 449.95,-160 444.95,-160 439.95,-155 439.95,-150 439.95,-150 439.95,-140 439.95,-140 439.95,-135 444.95,-130 449.95,-130 449.95,-130 471.95,-130 471.95,-130 476.95,-130 481.95,-135 481.95,-140 481.95,-140 481.95,-150 481.95,-150 481.95,-155 476.95,-160 471.95,-160"/>
<text text-anchor="middle" x="460.95" y="-148" font-family="Arial" font-size="10.00" fill="white">Synth</text>
<text text-anchor="middle" x="460.95" y="-137" font-family="Arial" font-size="10.00" fill="white">Proxy</text>
</a>
</g>
</g>
<!-- supriya.provider.NonrealtimeProvider -->
<g id="node8" class="node">
<title>supriya.provider.NonrealtimeProvider</title>
<g id="a_node8"><a xlink:href="../api/supriya/provider.html#supriya.provider.NonrealtimeProvider" xlink:title="Nonrealtime\nProvider" target="_top">
<path fill="black" stroke="black" stroke-width="2" d="M301.95,-234C301.95,-234 252.95,-234 252.95,-234 247.95,-234 242.95,-229 242.95,-224 242.95,-224 242.95,-214 242.95,-214 242.95,-209 247.95,-204 252.95,-204 252.95,-204 301.95,-204 301.95,-204 306.95,-204 311.95,-209 311.95,-214 311.95,-214 311.95,-224 311.95,-224 311.95,-229 306.95,-234 301.95,-234"/>
<text text-anchor="middle" x="277.45" y="-222" font-family="Arial" font-size="10.00" fill="white">Nonrealtime</text>
<text text-anchor="middle" x="277.45" y="-211" font-family="Arial" font-size="10.00" fill="white">Provider</text>
</a>
</g>
</g>
<!-- supriya.provider.OscCallbackProxy -->
<g id="node9" class="node">
<title>supriya.provider.OscCallbackProxy</title>
<g id="a_node9"><a xlink:href="../api/supriya/provider.html#supriya.provider.OscCallbackProxy" xlink:title="Osc\nCallback\nProxy" target="_top">
<path fill="black" stroke="black" stroke-width="2" d="M292.95,-185.5C292.95,-185.5 261.95,-185.5 261.95,-185.5 255.95,-185.5 249.95,-179.5 249.95,-173.5 249.95,-173.5 249.95,-156.5 249.95,-156.5 249.95,-150.5 255.95,-144.5 261.95,-144.5 261.95,-144.5 292.95,-144.5 292.95,-144.5 298.95,-144.5 304.95,-150.5 304.95,-156.5 304.95,-156.5 304.95,-173.5 304.95,-173.5 304.95,-179.5 298.95,-185.5 292.95,-185.5"/>
<text text-anchor="middle" x="277.45" y="-173.5" font-family="Arial" font-size="10.00" fill="white">Osc</text>
<text text-anchor="middle" x="277.45" y="-162.5" font-family="Arial" font-size="10.00" fill="white">Callback</text>
<text text-anchor="middle" x="277.45" y="-151.5" font-family="Arial" font-size="10.00" fill="white">Proxy</text>
</a>
</g>
</g>
<!-- supriya.provider.Provider -->
<g id="node10" class="node">
<title>supriya.provider.Provider</title>
<g id="a_node10"><a xlink:href="../api/supriya/provider.html#supriya.provider.Provider" xlink:title="Provider" target="_top">
<ellipse fill="black" stroke="black" stroke-width="2" cx="169.48" cy="-193" rx="37.45" ry="13.37"/>
<text text-anchor="middle" x="169.48" y="-190.5" font-family="Arial" font-size="10.00" fill="white">Provider</text>
</a>
</g>
</g>
<!-- supriya.provider.RealtimeProvider -->
<g id="node11" class="node">
<title>supriya.provider.RealtimeProvider</title>
<g id="a_node11"><a xlink:href="../api/supriya/provider.html#supriya.provider.RealtimeProvider" xlink:title="Realtime\nProvider" target="_top">
<path fill="black" stroke="black" stroke-width="2" d="M393.95,-254C393.95,-254 357.95,-254 357.95,-254 352.95,-254 347.95,-249 347.95,-244 347.95,-244 347.95,-234 347.95,-234 347.95,-229 352.95,-224 357.95,-224 357.95,-224 393.95,-224 393.95,-224 398.95,-224 403.95,-229 403.95,-234 403.95,-234 403.95,-244 403.95,-244 403.95,-249 398.95,-254 393.95,-254"/>
<text text-anchor="middle" x="375.95" y="-242" font-family="Arial" font-size="10.00" fill="white">Realtime</text>
<text text-anchor="middle" x="375.95" y="-231" font-family="Arial" font-size="10.00" fill="white">Provider</text>
</a>
</g>
</g>
<!-- supriya.provider.ProviderMoment -->
<g id="node12" class="node">
<title>supriya.provider.ProviderMoment</title>
<g id="a_node12"><a xlink:href="../api/supriya/provider.html#supriya.provider.ProviderMoment" xlink:title="Provider\nMoment" target="_top">
<path fill="black" stroke="black" stroke-width="2" d="M185.98,-162C185.98,-162 152.98,-162 152.98,-162 147.98,-162 142.98,-157 142.98,-152 142.98,-152 142.98,-142 142.98,-142 142.98,-137 147.98,-132 152.98,-132 152.98,-132 185.98,-132 185.98,-132 190.98,-132 195.98,-137 195.98,-142 195.98,-142 195.98,-152 195.98,-152 195.98,-157 190.98,-162 185.98,-162"/>
<text text-anchor="middle" x="169.48" y="-150" font-family="Arial" font-size="10.00" fill="white">Provider</text>
<text text-anchor="middle" x="169.48" y="-139" font-family="Arial" font-size="10.00" fill="white">Moment</text>
</a>
</g>
</g>
<!-- supriya.provider.Proxy -->
<g id="node13" class="node">
<title>supriya.provider.Proxy</title>
<g id="a_node13"><a xlink:href="../api/supriya/provider.html#supriya.provider.Proxy" xlink:title="Proxy" target="_top">
<path fill="black" stroke="black" stroke-width="2" d="M184.14,-113.5C184.14,-113.5 154.81,-113.5 154.81,-113.5 151.64,-113.5 148.48,-110.33 148.48,-107.17 148.48,-107.17 148.48,-100.83 148.48,-100.83 148.48,-97.67 151.64,-94.5 154.81,-94.5 154.81,-94.5 184.14,-94.5 184.14,-94.5 187.31,-94.5 190.48,-97.67 190.48,-100.83 190.48,-100.83 190.48,-107.17 190.48,-107.17 190.48,-110.33 187.31,-113.5 184.14,-113.5"/>
<text text-anchor="middle" x="169.48" y="-101.5" font-family="Arial" font-size="10.00" fill="white">Proxy</text>
</a>
</g>
</g>
</g>
</svg>
