<?xml version="1.0" encoding="UTF-8" standalone="no"?>
<!DOCTYPE svg PUBLIC "-//W3C//DTD SVG 1.1//EN"
 "http://www.w3.org/Graphics/SVG/1.1/DTD/svg11.dtd">
<!-- Generated by graphviz version 2.40.1 (20161225.0304)
 -->
<!-- Title: InheritanceGraph Pages: 1 -->
<svg width="194pt" height="116pt"
 viewBox="0.00 0.00 194.00 116.00" xmlns="http://www.w3.org/2000/svg" xmlns:xlink="http://www.w3.org/1999/xlink">
<g id="graph0" class="graph" transform="scale(1 1) rotate(0) translate(4 112)">
<title>InheritanceGraph</title>
<g id="clust1" class="cluster">
<title>cluster_builtins</title>
<path fill="transparent" stroke="#bcd2ee" stroke-width="2" stroke-dasharray="5,2" d="M20,-45C20,-45 49,-45 49,-45 55,-45 61,-51 61,-57 61,-57 61,-88 61,-88 61,-94 55,-100 49,-100 49,-100 20,-100 20,-100 14,-100 8,-94 8,-88 8,-88 8,-57 8,-57 8,-51 14,-45 20,-45"/>
<text text-anchor="middle" x="34.5" y="-88" font-family="Arial" font-size="10.00" fill="#000000">builtins</text>
</g>
<g id="clust2" class="cluster">
<title>cluster_supriya.io</title>
<path fill="transparent" stroke="#bcd2ee" stroke-width="2" stroke-dasharray="5,2" d="M130,-8C130,-8 166,-8 166,-8 172,-8 178,-14 178,-20 178,-20 178,-88 178,-88 178,-94 172,-100 166,-100 166,-100 130,-100 130,-100 124,-100 118,-94 118,-88 118,-88 118,-20 118,-20 118,-14 124,-8 130,-8"/>
<text text-anchor="middle" x="148" y="-88" font-family="Arial" font-size="10.00" fill="#000000">supriya.io</text>
</g>
<!-- builtins.object&#45;&gt;supriya.io.Grapher -->
<g id="edge1" class="edge">
<title>builtins.object&#45;&gt;supriya.io.Grapher</title>
<path fill="none" stroke="#778899" d="M53.2422,-63C70.1852,-63 95.4934,-63 115.6935,-63"/>
<polygon fill="#778899" stroke="#778899" points="115.72,-66.5001 125.7199,-63 115.7199,-59.5001 115.72,-66.5001"/>
</g>
<!-- builtins.object&#45;&gt;supriya.io.Player -->
<g id="edge2" class="edge">
<title>builtins.object&#45;&gt;supriya.io.Player</title>
<path fill="none" stroke="#778899" d="M53.2422,-56.8902C71.2064,-51.034 98.5745,-42.1123 119.2874,-35.3601"/>
<polygon fill="#778899" stroke="#778899" points="120.4278,-38.6696 128.8506,-32.2425 118.2582,-32.0143 120.4278,-38.6696"/>
</g>
<!-- builtins.object -->
<g id="node1" class="node">
<title>builtins.object</title>
<g id="a_node1"><a xlink:href="https://docs.python.org/3.6/library/functions.html#object" xlink:title="object" target="_top">
<path fill="#fbb4ae" stroke="#fbb4ae" stroke-width="2" d="M46.6667,-72.5C46.6667,-72.5 22.3333,-72.5 22.3333,-72.5 19.1667,-72.5 16,-69.3333 16,-66.1667 16,-66.1667 16,-59.8333 16,-59.8333 16,-56.6667 19.1667,-53.5 22.3333,-53.5 22.3333,-53.5 46.6667,-53.5 46.6667,-53.5 49.8333,-53.5 53,-56.6667 53,-59.8333 53,-59.8333 53,-66.1667 53,-66.1667 53,-69.3333 49.8333,-72.5 46.6667,-72.5"/>
<text text-anchor="middle" x="34.5" y="-60.5" font-family="Arial" font-size="10.00" fill="#000000">object</text>
</a>
</g>
</g>
<!-- supriya.io.Grapher -->
<g id="node2" class="node">
<title>supriya.io.Grapher</title>
<g id="a_node2"><a xlink:href="../api/supriya/io.html#supriya.io.Grapher" xlink:title="Grapher" target="_top">
<path fill="#000000" stroke="#000000" stroke-width="2" d="M163.6667,-72.5C163.6667,-72.5 132.3333,-72.5 132.3333,-72.5 129.1667,-72.5 126,-69.3333 126,-66.1667 126,-66.1667 126,-59.8333 126,-59.8333 126,-56.6667 129.1667,-53.5 132.3333,-53.5 132.3333,-53.5 163.6667,-53.5 163.6667,-53.5 166.8333,-53.5 170,-56.6667 170,-59.8333 170,-59.8333 170,-66.1667 170,-66.1667 170,-69.3333 166.8333,-72.5 163.6667,-72.5"/>
<text text-anchor="middle" x="148" y="-60.5" font-family="Arial" font-size="10.00" fill="#ffffff">Grapher</text>
</a>
</g>
</g>
<!-- supriya.io.Player -->
<g id="node3" class="node">
<title>supriya.io.Player</title>
<g id="a_node3"><a xlink:href="../api/supriya/io.html#supriya.io.Player" xlink:title="Player" target="_top">
<path fill="#000000" stroke="#000000" stroke-width="2" d="M160.6667,-35.5C160.6667,-35.5 135.3333,-35.5 135.3333,-35.5 132.1667,-35.5 129,-32.3333 129,-29.1667 129,-29.1667 129,-22.8333 129,-22.8333 129,-19.6667 132.1667,-16.5 135.3333,-16.5 135.3333,-16.5 160.6667,-16.5 160.6667,-16.5 163.8333,-16.5 167,-19.6667 167,-22.8333 167,-22.8333 167,-29.1667 167,-29.1667 167,-32.3333 163.8333,-35.5 160.6667,-35.5"/>
<text text-anchor="middle" x="148" y="-23.5" font-family="Arial" font-size="10.00" fill="#ffffff">Player</text>
</a>
</g>
</g>
</g>
</svg>
