<?xml version="1.0" encoding="UTF-8" standalone="no"?>
<!DOCTYPE svg PUBLIC "-//W3C//DTD SVG 1.1//EN"
 "http://www.w3.org/Graphics/SVG/1.1/DTD/svg11.dtd">
<!-- Generated by graphviz version 2.44.1 (20200629.0846)
 -->
<!-- Title: InheritanceGraph Pages: 1 -->
<svg width="607pt" height="238pt"
 viewBox="0.00 0.00 607.40 238.00" xmlns="http://www.w3.org/2000/svg" xmlns:xlink="http://www.w3.org/1999/xlink">
<g id="graph0" class="graph" transform="scale(1 1) rotate(0) translate(4 234)">
<title>InheritanceGraph</title>
<g id="clust1" class="cluster">
<title>cluster_builtins</title>
<path fill="transparent" stroke="#bcd2ee" stroke-width="2" stroke-dasharray="5,2" d="M20,-106C20,-106 55,-106 55,-106 61,-106 67,-112 67,-118 67,-118 67,-149 67,-149 67,-155 61,-161 55,-161 55,-161 20,-161 20,-161 14,-161 8,-155 8,-149 8,-149 8,-118 8,-118 8,-112 14,-106 20,-106"/>
<text text-anchor="middle" x="37.5" y="-149" font-family="Arial" font-size="10.00">builtins</text>
</g>
<g id="clust2" class="cluster">
<title>cluster_supriya.synthdefs.bases</title>
<path fill="transparent" stroke="#bcd2ee" stroke-width="2" stroke-dasharray="5,2" d="M347,-79C347,-79 445.4,-79 445.4,-79 451.4,-79 457.4,-85 457.4,-91 457.4,-91 457.4,-176 457.4,-176 457.4,-182 451.4,-188 445.4,-188 445.4,-188 347,-188 347,-188 341,-188 335,-182 335,-176 335,-176 335,-91 335,-91 335,-85 341,-79 347,-79"/>
<text text-anchor="middle" x="396.2" y="-176" font-family="Arial" font-size="10.00">supriya.synthdefs.bases</text>
</g>
<g id="clust3" class="cluster">
<title>cluster_supriya.synthdefs.mixins</title>
<path fill="transparent" stroke="#bcd2ee" stroke-width="2" stroke-dasharray="5,2" d="M202,-61C202,-61 303,-61 303,-61 309,-61 315,-67 315,-73 315,-73 315,-126 315,-126 315,-132 309,-138 303,-138 303,-138 202,-138 202,-138 196,-138 190,-132 190,-126 190,-126 190,-73 190,-73 190,-67 196,-61 202,-61"/>
<text text-anchor="middle" x="252.5" y="-126" font-family="Arial" font-size="10.00">supriya.synthdefs.mixins</text>
</g>
<g id="clust4" class="cluster">
<title>cluster_supriya.system</title>
<path fill="transparent" stroke="#bcd2ee" stroke-width="2" stroke-dasharray="5,2" d="M99,-70C99,-70 158,-70 158,-70 164,-70 170,-76 170,-82 170,-82 170,-123 170,-123 170,-129 164,-135 158,-135 158,-135 99,-135 99,-135 93,-135 87,-129 87,-123 87,-123 87,-82 87,-82 87,-76 93,-70 99,-70"/>
<text text-anchor="middle" x="128.5" y="-123" font-family="Arial" font-size="10.00">supriya.system</text>
</g>
<g id="clust5" class="cluster">
<title>cluster_supriya.ugens.dynamics</title>
<path fill="transparent" stroke="#bcd2ee" stroke-width="2" stroke-dasharray="5,2" d="M489.4,-8C489.4,-8 587.4,-8 587.4,-8 593.4,-8 599.4,-14 599.4,-20 599.4,-20 599.4,-210 599.4,-210 599.4,-216 593.4,-222 587.4,-222 587.4,-222 489.4,-222 489.4,-222 483.4,-222 477.4,-216 477.4,-210 477.4,-210 477.4,-20 477.4,-20 477.4,-14 483.4,-8 489.4,-8"/>
<text text-anchor="middle" x="538.4" y="-210" font-family="Arial" font-size="10.00">supriya.ugens.dynamics</text>
</g>
<!-- builtins.object&#45;&gt;supriya.synthdefs.bases.PseudoUGen -->
<g id="edge1" class="edge">
<title>builtins.object&#45;&gt;supriya.synthdefs.bases.PseudoUGen</title>
<path fill="none" stroke="lightslategrey" d="M59.45,-131.84C67.88,-134.64 77.78,-137.47 87,-139 185.05,-155.28 303.06,-151.6 360.26,-148.37"/>
<polygon fill="lightslategrey" stroke="lightslategrey" points="360.77,-151.84 370.54,-147.75 360.35,-144.86 360.77,-151.84"/>
</g>
<!-- builtins.object&#45;&gt;supriya.system.SupriyaObject -->
<g id="edge2" class="edge">
<title>builtins.object&#45;&gt;supriya.system.SupriyaObject</title>
<path fill="none" stroke="lightslategrey" d="M59.03,-116.81C69.14,-113.27 81.59,-108.91 93.07,-104.89"/>
<polygon fill="lightslategrey" stroke="lightslategrey" points="94.54,-108.08 102.82,-101.47 92.22,-101.47 94.54,-108.08"/>
</g>
<!-- supriya.synthdefs.bases.PseudoUGen&#45;&gt;supriya.ugens.dynamics.CompanderD -->
<g id="edge3" class="edge">
<title>supriya.synthdefs.bases.PseudoUGen&#45;&gt;supriya.ugens.dynamics.CompanderD</title>
<path fill="none" stroke="lightslategrey" d="M420.8,-151.84C440.94,-156.73 470.15,-163.81 494.23,-169.65"/>
<polygon fill="lightslategrey" stroke="lightslategrey" points="493.65,-173.11 504.2,-172.07 495.3,-166.31 493.65,-173.11"/>
</g>
<!-- supriya.synthdefs.bases.UGen&#45;&gt;supriya.ugens.dynamics.Amplitude -->
<g id="edge4" class="edge">
<title>supriya.synthdefs.bases.UGen&#45;&gt;supriya.ugens.dynamics.Amplitude</title>
<path fill="none" stroke="lightslategrey" d="M421.76,-106.61C442.95,-112.21 473.64,-120.31 498.01,-126.74"/>
<polygon fill="lightslategrey" stroke="lightslategrey" points="497.12,-130.12 507.69,-129.29 498.91,-123.35 497.12,-130.12"/>
</g>
<!-- supriya.synthdefs.bases.UGen&#45;&gt;supriya.ugens.dynamics.Compander -->
<g id="edge5" class="edge">
<title>supriya.synthdefs.bases.UGen&#45;&gt;supriya.ugens.dynamics.Compander</title>
<path fill="none" stroke="lightslategrey" d="M425.41,-100C445.19,-100 471.82,-100 494.09,-100"/>
<polygon fill="lightslategrey" stroke="lightslategrey" points="494.3,-103.5 504.3,-100 494.3,-96.5 494.3,-103.5"/>
</g>
<!-- supriya.synthdefs.bases.UGen&#45;&gt;supriya.ugens.dynamics.Limiter -->
<g id="edge6" class="edge">
<title>supriya.synthdefs.bases.UGen&#45;&gt;supriya.ugens.dynamics.Limiter</title>
<path fill="none" stroke="lightslategrey" d="M410.72,-88.22C426.18,-75.73 452.22,-56.17 477.4,-44 486.01,-39.84 495.79,-36.4 504.9,-33.68"/>
<polygon fill="lightslategrey" stroke="lightslategrey" points="506.11,-36.98 514.8,-30.92 504.23,-30.24 506.11,-36.98"/>
</g>
<!-- supriya.synthdefs.bases.UGen&#45;&gt;supriya.ugens.dynamics.Normalizer -->
<g id="edge7" class="edge">
<title>supriya.synthdefs.bases.UGen&#45;&gt;supriya.ugens.dynamics.Normalizer</title>
<path fill="none" stroke="lightslategrey" d="M421.76,-93.39C442.3,-87.97 471.78,-80.18 495.77,-73.85"/>
<polygon fill="lightslategrey" stroke="lightslategrey" points="496.9,-77.18 505.67,-71.24 495.11,-70.41 496.9,-77.18"/>
</g>
<!-- supriya.synthdefs.mixins.UGenMethodMixin&#45;&gt;supriya.synthdefs.bases.UGen -->
<g id="edge8" class="edge">
<title>supriya.synthdefs.mixins.UGenMethodMixin&#45;&gt;supriya.synthdefs.bases.UGen</title>
<path fill="none" stroke="lightslategrey" d="M277.13,-91.67C298.66,-93.2 330.85,-95.48 356.11,-97.27"/>
<polygon fill="lightslategrey" stroke="lightslategrey" points="355.89,-100.76 366.11,-97.98 356.38,-93.78 355.89,-100.76"/>
</g>
<!-- supriya.system.SupriyaObject&#45;&gt;supriya.synthdefs.mixins.UGenMethodMixin -->
<g id="edge9" class="edge">
<title>supriya.system.SupriyaObject&#45;&gt;supriya.synthdefs.mixins.UGenMethodMixin</title>
<path fill="none" stroke="lightslategrey" d="M153.2,-92.41C171.61,-91.96 197.17,-91.33 217.61,-90.83"/>
<polygon fill="lightslategrey" stroke="lightslategrey" points="217.85,-94.33 227.77,-90.58 217.68,-87.33 217.85,-94.33"/>
</g>
<!-- builtins.object -->
<g id="node1" class="node">
<title>builtins.object</title>
<g id="a_node1"><a xlink:href="https://docs.python.org/3/library/functions.html#object" xlink:title="object" target="_top">
<path fill="#fbb4ae" stroke="#fbb4ae" stroke-width="2" d="M52.67,-133.5C52.67,-133.5 22.33,-133.5 22.33,-133.5 19.17,-133.5 16,-130.33 16,-127.17 16,-127.17 16,-120.83 16,-120.83 16,-117.67 19.17,-114.5 22.33,-114.5 22.33,-114.5 52.67,-114.5 52.67,-114.5 55.83,-114.5 59,-117.67 59,-120.83 59,-120.83 59,-127.17 59,-127.17 59,-130.33 55.83,-133.5 52.67,-133.5"/>
<text text-anchor="middle" x="37.5" y="-121.5" font-family="Arial" font-size="10.00">object</text>
</a>
</g>
</g>
<!-- supriya.synthdefs.bases.PseudoUGen -->
<g id="node2" class="node">
<title>supriya.synthdefs.bases.PseudoUGen</title>
<g id="a_node2"><a xlink:href="../api/supriya/ugens/../synthdefs/bases.html#supriya.synthdefs.bases.PseudoUGen" xlink:title="Pseudo\nUGen" target="_top">
<path fill="#b3cde3" stroke="#b3cde3" stroke-width="2" d="M410.7,-161C410.7,-161 380.7,-161 380.7,-161 375.7,-161 370.7,-156 370.7,-151 370.7,-151 370.7,-141 370.7,-141 370.7,-136 375.7,-131 380.7,-131 380.7,-131 410.7,-131 410.7,-131 415.7,-131 420.7,-136 420.7,-141 420.7,-141 420.7,-151 420.7,-151 420.7,-156 415.7,-161 410.7,-161"/>
<text text-anchor="middle" x="395.7" y="-149" font-family="Arial" font-size="10.00">Pseudo</text>
<text text-anchor="middle" x="395.7" y="-138" font-family="Arial" font-size="10.00">UGen</text>
</a>
</g>
</g>
<!-- supriya.synthdefs.bases.UGen -->
<g id="node3" class="node">
<title>supriya.synthdefs.bases.UGen</title>
<g id="a_node3"><a xlink:href="../api/supriya/ugens/../synthdefs/bases.html#supriya.synthdefs.bases.UGen" xlink:title="UGen" target="_top">
<ellipse fill="none" stroke="#b3cde3" stroke-width="2" cx="395.7" cy="-100" rx="29.9" ry="13.37"/>
<text text-anchor="middle" x="395.7" y="-97.5" font-family="Arial" font-size="10.00">UGen</text>
</a>
</g>
</g>
<!-- supriya.synthdefs.mixins.UGenMethodMixin -->
<g id="node4" class="node">
<title>supriya.synthdefs.mixins.UGenMethodMixin</title>
<g id="a_node4"><a xlink:href="../api/supriya/ugens/../synthdefs/mixins.html#supriya.synthdefs.mixins.UGenMethodMixin" xlink:title="UGen\nMethod\nMixin" target="_top">
<path fill="#ccebc5" stroke="#ccebc5" stroke-width="2" d="M265,-110.5C265,-110.5 240,-110.5 240,-110.5 234,-110.5 228,-104.5 228,-98.5 228,-98.5 228,-81.5 228,-81.5 228,-75.5 234,-69.5 240,-69.5 240,-69.5 265,-69.5 265,-69.5 271,-69.5 277,-75.5 277,-81.5 277,-81.5 277,-98.5 277,-98.5 277,-104.5 271,-110.5 265,-110.5"/>
<text text-anchor="middle" x="252.5" y="-98.5" font-family="Arial" font-size="10.00">UGen</text>
<text text-anchor="middle" x="252.5" y="-87.5" font-family="Arial" font-size="10.00">Method</text>
<text text-anchor="middle" x="252.5" y="-76.5" font-family="Arial" font-size="10.00">Mixin</text>
</a>
</g>
</g>
<!-- supriya.system.SupriyaObject -->
<g id="node5" class="node">
<title>supriya.system.SupriyaObject</title>
<g id="a_node5"><a xlink:href="../api/supriya/ugens/../system.html#supriya.system.SupriyaObject" xlink:title="Supriya\nObject" target="_top">
<path fill="#decbe4" stroke="#decbe4" stroke-width="2" d="M143,-108C143,-108 113,-108 113,-108 108,-108 103,-103 103,-98 103,-98 103,-88 103,-88 103,-83 108,-78 113,-78 113,-78 143,-78 143,-78 148,-78 153,-83 153,-88 153,-88 153,-98 153,-98 153,-103 148,-108 143,-108"/>
<text text-anchor="middle" x="128" y="-96" font-family="Arial" font-size="10.00">Supriya</text>
<text text-anchor="middle" x="128" y="-85" font-family="Arial" font-size="10.00">Object</text>
</a>
</g>
</g>
<!-- supriya.ugens.dynamics.Amplitude -->
<g id="node6" class="node">
<title>supriya.ugens.dynamics.Amplitude</title>
<g id="a_node6"><a xlink:href="../api/supriya/ugens/dynamics.html#supriya.ugens.dynamics.Amplitude" xlink:title="Amplitude" target="_top">
<path fill="black" stroke="black" stroke-width="2" d="M561.56,-146.5C561.56,-146.5 514.23,-146.5 514.23,-146.5 511.06,-146.5 507.9,-143.33 507.9,-140.17 507.9,-140.17 507.9,-133.83 507.9,-133.83 507.9,-130.67 511.06,-127.5 514.23,-127.5 514.23,-127.5 561.56,-127.5 561.56,-127.5 564.73,-127.5 567.9,-130.67 567.9,-133.83 567.9,-133.83 567.9,-140.17 567.9,-140.17 567.9,-143.33 564.73,-146.5 561.56,-146.5"/>
<text text-anchor="middle" x="537.9" y="-134.5" font-family="Arial" font-size="10.00" fill="white">Amplitude</text>
</a>
</g>
</g>
<!-- supriya.ugens.dynamics.Compander -->
<g id="node7" class="node">
<title>supriya.ugens.dynamics.Compander</title>
<g id="a_node7"><a xlink:href="../api/supriya/ugens/dynamics.html#supriya.ugens.dynamics.Compander" xlink:title="Compander" target="_top">
<path fill="black" stroke="black" stroke-width="2" d="M565.06,-109.5C565.06,-109.5 510.73,-109.5 510.73,-109.5 507.56,-109.5 504.4,-106.33 504.4,-103.17 504.4,-103.17 504.4,-96.83 504.4,-96.83 504.4,-93.67 507.56,-90.5 510.73,-90.5 510.73,-90.5 565.06,-90.5 565.06,-90.5 568.23,-90.5 571.4,-93.67 571.4,-96.83 571.4,-96.83 571.4,-103.17 571.4,-103.17 571.4,-106.33 568.23,-109.5 565.06,-109.5"/>
<text text-anchor="middle" x="537.9" y="-97.5" font-family="Arial" font-size="10.00" fill="white">Compander</text>
</a>
</g>
</g>
<!-- supriya.ugens.dynamics.CompanderD -->
<g id="node8" class="node">
<title>supriya.ugens.dynamics.CompanderD</title>
<g id="a_node8"><a xlink:href="../api/supriya/ugens/dynamics.html#supriya.ugens.dynamics.CompanderD" xlink:title="Compander\nD" target="_top">
<path fill="black" stroke="black" stroke-width="2" d="M561.4,-195C561.4,-195 514.4,-195 514.4,-195 509.4,-195 504.4,-190 504.4,-185 504.4,-185 504.4,-175 504.4,-175 504.4,-170 509.4,-165 514.4,-165 514.4,-165 561.4,-165 561.4,-165 566.4,-165 571.4,-170 571.4,-175 571.4,-175 571.4,-185 571.4,-185 571.4,-190 566.4,-195 561.4,-195"/>
<text text-anchor="middle" x="537.9" y="-183" font-family="Arial" font-size="10.00" fill="white">Compander</text>
<text text-anchor="middle" x="537.9" y="-172" font-family="Arial" font-size="10.00" fill="white">D</text>
</a>
</g>
</g>
<!-- supriya.ugens.dynamics.Limiter -->
<g id="node9" class="node">
<title>supriya.ugens.dynamics.Limiter</title>
<g id="a_node9"><a xlink:href="../api/supriya/ugens/dynamics.html#supriya.ugens.dynamics.Limiter" xlink:title="Limiter" target="_top">
<path fill="black" stroke="black" stroke-width="2" d="M554.56,-35.5C554.56,-35.5 521.23,-35.5 521.23,-35.5 518.06,-35.5 514.9,-32.33 514.9,-29.17 514.9,-29.17 514.9,-22.83 514.9,-22.83 514.9,-19.67 518.06,-16.5 521.23,-16.5 521.23,-16.5 554.56,-16.5 554.56,-16.5 557.73,-16.5 560.9,-19.67 560.9,-22.83 560.9,-22.83 560.9,-29.17 560.9,-29.17 560.9,-32.33 557.73,-35.5 554.56,-35.5"/>
<text text-anchor="middle" x="537.9" y="-23.5" font-family="Arial" font-size="10.00" fill="white">Limiter</text>
</a>
</g>
</g>
<!-- supriya.ugens.dynamics.Normalizer -->
<g id="node10" class="node">
<title>supriya.ugens.dynamics.Normalizer</title>
<g id="a_node10"><a xlink:href="../api/supriya/ugens/dynamics.html#supriya.ugens.dynamics.Normalizer" xlink:title="Normalizer" target="_top">
<path fill="black" stroke="black" stroke-width="2" d="M563.56,-72.5C563.56,-72.5 512.23,-72.5 512.23,-72.5 509.06,-72.5 505.9,-69.33 505.9,-66.17 505.9,-66.17 505.9,-59.83 505.9,-59.83 505.9,-56.67 509.06,-53.5 512.23,-53.5 512.23,-53.5 563.56,-53.5 563.56,-53.5 566.73,-53.5 569.9,-56.67 569.9,-59.83 569.9,-59.83 569.9,-66.17 569.9,-66.17 569.9,-69.33 566.73,-72.5 563.56,-72.5"/>
<text text-anchor="middle" x="537.9" y="-60.5" font-family="Arial" font-size="10.00" fill="white">Normalizer</text>
</a>
</g>
</g>
</g>
</svg>
