<?xml version="1.0" encoding="UTF-8" standalone="no"?>
<!DOCTYPE svg PUBLIC "-//W3C//DTD SVG 1.1//EN"
 "http://www.w3.org/Graphics/SVG/1.1/DTD/svg11.dtd">
<!-- Generated by graphviz version 2.44.1 (20200629.0846)
 -->
<!-- Title: InheritanceGraph Pages: 1 -->
<svg width="640pt" height="185pt"
 viewBox="0.00 0.00 639.79 185.00" xmlns="http://www.w3.org/2000/svg" xmlns:xlink="http://www.w3.org/1999/xlink">
<g id="graph0" class="graph" transform="scale(1 1) rotate(0) translate(4 181)">
<title>InheritanceGraph</title>
<g id="clust1" class="cluster">
<title>cluster_builtins</title>
<path fill="transparent" stroke="#bcd2ee" stroke-width="2" stroke-dasharray="5,2" d="M20,-62C20,-62 55,-62 55,-62 61,-62 67,-68 67,-74 67,-74 67,-105 67,-105 67,-111 61,-117 55,-117 55,-117 20,-117 20,-117 14,-117 8,-111 8,-105 8,-105 8,-74 8,-74 8,-68 14,-62 20,-62"/>
<text text-anchor="middle" x="37.5" y="-105" font-family="Arial" font-size="10.00">builtins</text>
</g>
<g id="clust2" class="cluster">
<title>cluster_supriya.synthdefs.bases</title>
<path fill="transparent" stroke="#bcd2ee" stroke-width="2" stroke-dasharray="5,2" d="M347,-51C347,-51 493.79,-51 493.79,-51 499.79,-51 505.79,-57 505.79,-63 505.79,-63 505.79,-132 505.79,-132 505.79,-138 499.79,-144 493.79,-144 493.79,-144 347,-144 347,-144 341,-144 335,-138 335,-132 335,-132 335,-63 335,-63 335,-57 341,-51 347,-51"/>
<text text-anchor="middle" x="420.4" y="-132" font-family="Arial" font-size="10.00">supriya.synthdefs.bases</text>
</g>
<g id="clust3" class="cluster">
<title>cluster_supriya.synthdefs.mixins</title>
<path fill="transparent" stroke="#bcd2ee" stroke-width="2" stroke-dasharray="5,2" d="M202,-51C202,-51 303,-51 303,-51 309,-51 315,-57 315,-63 315,-63 315,-116 315,-116 315,-122 309,-128 303,-128 303,-128 202,-128 202,-128 196,-128 190,-122 190,-116 190,-116 190,-63 190,-63 190,-57 196,-51 202,-51"/>
<text text-anchor="middle" x="252.5" y="-116" font-family="Arial" font-size="10.00">supriya.synthdefs.mixins</text>
</g>
<g id="clust4" class="cluster">
<title>cluster_supriya.system</title>
<path fill="transparent" stroke="#bcd2ee" stroke-width="2" stroke-dasharray="5,2" d="M99,-57C99,-57 158,-57 158,-57 164,-57 170,-63 170,-69 170,-69 170,-110 170,-110 170,-116 164,-122 158,-122 158,-122 99,-122 99,-122 93,-122 87,-116 87,-110 87,-110 87,-69 87,-69 87,-63 93,-57 99,-57"/>
<text text-anchor="middle" x="128.5" y="-110" font-family="Arial" font-size="10.00">supriya.system</text>
</g>
<g id="clust5" class="cluster">
<title>cluster_supriya.ugens.diskio</title>
<path fill="transparent" stroke="#bcd2ee" stroke-width="2" stroke-dasharray="5,2" d="M537.79,-8C537.79,-8 619.79,-8 619.79,-8 625.79,-8 631.79,-14 631.79,-20 631.79,-20 631.79,-157 631.79,-157 631.79,-163 625.79,-169 619.79,-169 619.79,-169 537.79,-169 537.79,-169 531.79,-169 525.79,-163 525.79,-157 525.79,-157 525.79,-20 525.79,-20 525.79,-14 531.79,-8 537.79,-8"/>
<text text-anchor="middle" x="578.79" y="-157" font-family="Arial" font-size="10.00">supriya.ugens.diskio</text>
</g>
<!-- builtins.object&#45;&gt;supriya.system.SupriyaObject -->
<g id="edge2" class="edge">
<title>builtins.object&#45;&gt;supriya.system.SupriyaObject</title>
<path fill="none" stroke="lightslategrey" d="M59.03,-80C69.03,-80 81.34,-80 92.72,-80"/>
<polygon fill="lightslategrey" stroke="lightslategrey" points="92.82,-83.5 102.82,-80 92.82,-76.5 92.82,-83.5"/>
</g>
<!-- supriya.synthdefs.bases.MultiOutUGen&#45;&gt;supriya.ugens.diskio.DiskIn -->
<g id="edge3" class="edge">
<title>supriya.synthdefs.bases.MultiOutUGen&#45;&gt;supriya.ugens.diskio.DiskIn</title>
<path fill="none" stroke="lightslategrey" d="M497.94,-85.61C513.99,-84.28 533.87,-82.64 549.78,-81.32"/>
<polygon fill="lightslategrey" stroke="lightslategrey" points="550.39,-84.78 560.06,-80.47 549.81,-77.81 550.39,-84.78"/>
</g>
<!-- supriya.synthdefs.bases.MultiOutUGen&#45;&gt;supriya.ugens.diskio.VDiskIn -->
<g id="edge4" class="edge">
<title>supriya.synthdefs.bases.MultiOutUGen&#45;&gt;supriya.ugens.diskio.VDiskIn</title>
<path fill="none" stroke="lightslategrey" d="M496.24,-97.74C511.76,-103.31 531.27,-110.31 547.31,-116.06"/>
<polygon fill="lightslategrey" stroke="lightslategrey" points="546.19,-119.38 556.78,-119.46 548.55,-112.79 546.19,-119.38"/>
</g>
<!-- supriya.synthdefs.bases.UGen&#45;&gt;supriya.synthdefs.bases.MultiOutUGen -->
<g id="edge1" class="edge">
<title>supriya.synthdefs.bases.UGen&#45;&gt;supriya.synthdefs.bases.MultiOutUGen</title>
<path fill="none" stroke="lightslategrey" d="M401.97,-82.42C410.23,-83.13 419.41,-83.92 428.2,-84.67"/>
<polygon fill="lightslategrey" stroke="lightslategrey" points="428.01,-88.16 438.27,-85.53 428.61,-81.19 428.01,-88.16"/>
</g>
<!-- supriya.synthdefs.bases.UGen&#45;&gt;supriya.ugens.diskio.DiskOut -->
<g id="edge5" class="edge">
<title>supriya.synthdefs.bases.UGen&#45;&gt;supriya.ugens.diskio.DiskOut</title>
<path fill="none" stroke="lightslategrey" d="M392.09,-69.67C404.73,-63.02 422.12,-54.77 438.4,-50 476.23,-38.92 521.76,-34.26 550.25,-32.33"/>
<polygon fill="lightslategrey" stroke="lightslategrey" points="550.51,-35.82 560.28,-31.71 550.08,-28.83 550.51,-35.82"/>
</g>
<!-- supriya.synthdefs.mixins.UGenMethodMixin&#45;&gt;supriya.synthdefs.bases.UGen -->
<g id="edge6" class="edge">
<title>supriya.synthdefs.mixins.UGenMethodMixin&#45;&gt;supriya.synthdefs.bases.UGen</title>
<path fill="none" stroke="lightslategrey" d="M277.14,-80C292.98,-80 314.22,-80 332.55,-80"/>
<polygon fill="lightslategrey" stroke="lightslategrey" points="332.67,-83.5 342.67,-80 332.67,-76.5 332.67,-83.5"/>
</g>
<!-- supriya.system.SupriyaObject&#45;&gt;supriya.synthdefs.mixins.UGenMethodMixin -->
<g id="edge7" class="edge">
<title>supriya.system.SupriyaObject&#45;&gt;supriya.synthdefs.mixins.UGenMethodMixin</title>
<path fill="none" stroke="lightslategrey" d="M153.2,-80C171.61,-80 197.17,-80 217.61,-80"/>
<polygon fill="lightslategrey" stroke="lightslategrey" points="217.77,-83.5 227.77,-80 217.77,-76.5 217.77,-83.5"/>
</g>
<!-- builtins.object -->
<g id="node1" class="node">
<title>builtins.object</title>
<g id="a_node1"><a xlink:href="https://docs.python.org/3/library/functions.html#object" xlink:title="object" target="_top">
<path fill="#fbb4ae" stroke="#fbb4ae" stroke-width="2" d="M52.67,-89.5C52.67,-89.5 22.33,-89.5 22.33,-89.5 19.17,-89.5 16,-86.33 16,-83.17 16,-83.17 16,-76.83 16,-76.83 16,-73.67 19.17,-70.5 22.33,-70.5 22.33,-70.5 52.67,-70.5 52.67,-70.5 55.83,-70.5 59,-73.67 59,-76.83 59,-76.83 59,-83.17 59,-83.17 59,-86.33 55.83,-89.5 52.67,-89.5"/>
<text text-anchor="middle" x="37.5" y="-77.5" font-family="Arial" font-size="10.00">object</text>
</a>
</g>
</g>
<!-- supriya.synthdefs.bases.MultiOutUGen -->
<g id="node2" class="node">
<title>supriya.synthdefs.bases.MultiOutUGen</title>
<g id="a_node2"><a xlink:href="../api/supriya/ugens/../synthdefs/bases.html#supriya.synthdefs.bases.MultiOutUGen" xlink:title="Multi\nOut\nUGen" target="_top">
<ellipse fill="none" stroke="#b3cde3" stroke-width="2" cx="468.1" cy="-88" rx="29.9" ry="28.98"/>
<text text-anchor="middle" x="468.1" y="-96.5" font-family="Arial" font-size="10.00">Multi</text>
<text text-anchor="middle" x="468.1" y="-85.5" font-family="Arial" font-size="10.00">Out</text>
<text text-anchor="middle" x="468.1" y="-74.5" font-family="Arial" font-size="10.00">UGen</text>
</a>
</g>
</g>
<!-- supriya.synthdefs.bases.UGen -->
<g id="node3" class="node">
<title>supriya.synthdefs.bases.UGen</title>
<g id="a_node3"><a xlink:href="../api/supriya/ugens/../synthdefs/bases.html#supriya.synthdefs.bases.UGen" xlink:title="UGen" target="_top">
<ellipse fill="none" stroke="#b3cde3" stroke-width="2" cx="372.7" cy="-80" rx="29.9" ry="13.37"/>
<text text-anchor="middle" x="372.7" y="-77.5" font-family="Arial" font-size="10.00">UGen</text>
</a>
</g>
</g>
<!-- supriya.synthdefs.mixins.UGenMethodMixin -->
<g id="node4" class="node">
<title>supriya.synthdefs.mixins.UGenMethodMixin</title>
<g id="a_node4"><a xlink:href="../api/supriya/ugens/../synthdefs/mixins.html#supriya.synthdefs.mixins.UGenMethodMixin" xlink:title="UGen\nMethod\nMixin" target="_top">
<path fill="#ccebc5" stroke="#ccebc5" stroke-width="2" d="M265,-100.5C265,-100.5 240,-100.5 240,-100.5 234,-100.5 228,-94.5 228,-88.5 228,-88.5 228,-71.5 228,-71.5 228,-65.5 234,-59.5 240,-59.5 240,-59.5 265,-59.5 265,-59.5 271,-59.5 277,-65.5 277,-71.5 277,-71.5 277,-88.5 277,-88.5 277,-94.5 271,-100.5 265,-100.5"/>
<text text-anchor="middle" x="252.5" y="-88.5" font-family="Arial" font-size="10.00">UGen</text>
<text text-anchor="middle" x="252.5" y="-77.5" font-family="Arial" font-size="10.00">Method</text>
<text text-anchor="middle" x="252.5" y="-66.5" font-family="Arial" font-size="10.00">Mixin</text>
</a>
</g>
</g>
<!-- supriya.system.SupriyaObject -->
<g id="node5" class="node">
<title>supriya.system.SupriyaObject</title>
<g id="a_node5"><a xlink:href="../api/supriya/ugens/../system.html#supriya.system.SupriyaObject" xlink:title="Supriya\nObject" target="_top">
<path fill="#decbe4" stroke="#decbe4" stroke-width="2" d="M143,-95C143,-95 113,-95 113,-95 108,-95 103,-90 103,-85 103,-85 103,-75 103,-75 103,-70 108,-65 113,-65 113,-65 143,-65 143,-65 148,-65 153,-70 153,-75 153,-75 153,-85 153,-85 153,-90 148,-95 143,-95"/>
<text text-anchor="middle" x="128" y="-83" font-family="Arial" font-size="10.00">Supriya</text>
<text text-anchor="middle" x="128" y="-72" font-family="Arial" font-size="10.00">Object</text>
</a>
</g>
</g>
<!-- supriya.ugens.diskio.DiskIn -->
<g id="node6" class="node">
<title>supriya.ugens.diskio.DiskIn</title>
<g id="a_node6"><a xlink:href="../api/supriya/ugens/diskio.html#supriya.ugens.diskio.DiskIn" xlink:title="Disk\nIn" target="_top">
<path fill="black" stroke="black" stroke-width="2" d="M587.29,-94C587.29,-94 570.29,-94 570.29,-94 565.29,-94 560.29,-89 560.29,-84 560.29,-84 560.29,-74 560.29,-74 560.29,-69 565.29,-64 570.29,-64 570.29,-64 587.29,-64 587.29,-64 592.29,-64 597.29,-69 597.29,-74 597.29,-74 597.29,-84 597.29,-84 597.29,-89 592.29,-94 587.29,-94"/>
<text text-anchor="middle" x="578.79" y="-82" font-family="Arial" font-size="10.00" fill="white">Disk</text>
<text text-anchor="middle" x="578.79" y="-71" font-family="Arial" font-size="10.00" fill="white">In</text>
</a>
</g>
</g>
<!-- supriya.ugens.diskio.DiskOut -->
<g id="node7" class="node">
<title>supriya.ugens.diskio.DiskOut</title>
<g id="a_node7"><a xlink:href="../api/supriya/ugens/diskio.html#supriya.ugens.diskio.DiskOut" xlink:title="Disk\nOut" target="_top">
<path fill="black" stroke="black" stroke-width="2" d="M587.29,-46C587.29,-46 570.29,-46 570.29,-46 565.29,-46 560.29,-41 560.29,-36 560.29,-36 560.29,-26 560.29,-26 560.29,-21 565.29,-16 570.29,-16 570.29,-16 587.29,-16 587.29,-16 592.29,-16 597.29,-21 597.29,-26 597.29,-26 597.29,-36 597.29,-36 597.29,-41 592.29,-46 587.29,-46"/>
<text text-anchor="middle" x="578.79" y="-34" font-family="Arial" font-size="10.00" fill="white">Disk</text>
<text text-anchor="middle" x="578.79" y="-23" font-family="Arial" font-size="10.00" fill="white">Out</text>
</a>
</g>
</g>
<!-- supriya.ugens.diskio.VDiskIn -->
<g id="node8" class="node">
<title>supriya.ugens.diskio.VDiskIn</title>
<g id="a_node8"><a xlink:href="../api/supriya/ugens/diskio.html#supriya.ugens.diskio.VDiskIn" xlink:title="VDisk\nIn" target="_top">
<path fill="black" stroke="black" stroke-width="2" d="M590.79,-142C590.79,-142 566.79,-142 566.79,-142 561.79,-142 556.79,-137 556.79,-132 556.79,-132 556.79,-122 556.79,-122 556.79,-117 561.79,-112 566.79,-112 566.79,-112 590.79,-112 590.79,-112 595.79,-112 600.79,-117 600.79,-122 600.79,-122 600.79,-132 600.79,-132 600.79,-137 595.79,-142 590.79,-142"/>
<text text-anchor="middle" x="578.79" y="-130" font-family="Arial" font-size="10.00" fill="white">VDisk</text>
<text text-anchor="middle" x="578.79" y="-119" font-family="Arial" font-size="10.00" fill="white">In</text>
</a>
</g>
</g>
</g>
</svg>
