<?xml version="1.0" encoding="UTF-8" standalone="no"?>
<!DOCTYPE svg PUBLIC "-//W3C//DTD SVG 1.1//EN"
 "http://www.w3.org/Graphics/SVG/1.1/DTD/svg11.dtd">
<!-- Generated by graphviz version 2.44.1 (20200629.0846)
 -->
<!-- Title: InheritanceGraph Pages: 1 -->
<svg width="337pt" height="160pt"
 viewBox="0.00 0.00 337.00 160.00" xmlns="http://www.w3.org/2000/svg" xmlns:xlink="http://www.w3.org/1999/xlink">
<g id="graph0" class="graph" transform="scale(1 1) rotate(0) translate(4 156)">
<title>InheritanceGraph</title>
<g id="clust1" class="cluster">
<title>cluster_builtins</title>
<path fill="transparent" stroke="#bcd2ee" stroke-width="2" stroke-dasharray="5,2" d="M20,-48C20,-48 55,-48 55,-48 61,-48 67,-54 67,-60 67,-60 67,-91 67,-91 67,-97 61,-103 55,-103 55,-103 20,-103 20,-103 14,-103 8,-97 8,-91 8,-91 8,-60 8,-60 8,-54 14,-48 20,-48"/>
<text text-anchor="middle" x="37.5" y="-91" font-family="Arial" font-size="10.00">builtins</text>
</g>
<g id="clust2" class="cluster">
<title>cluster_supriya.synthdefs.compilers</title>
<path fill="transparent" stroke="#bcd2ee" stroke-width="2" stroke-dasharray="5,2" d="M202,-8C202,-8 317,-8 317,-8 323,-8 329,-14 329,-20 329,-20 329,-132 329,-132 329,-138 323,-144 317,-144 317,-144 202,-144 202,-144 196,-144 190,-138 190,-132 190,-132 190,-20 190,-20 190,-14 196,-8 202,-8"/>
<text text-anchor="middle" x="259.5" y="-132" font-family="Arial" font-size="10.00">supriya.synthdefs.compilers</text>
</g>
<g id="clust3" class="cluster">
<title>cluster_supriya.system</title>
<path fill="transparent" stroke="#bcd2ee" stroke-width="2" stroke-dasharray="5,2" d="M99,-43C99,-43 158,-43 158,-43 164,-43 170,-49 170,-55 170,-55 170,-96 170,-96 170,-102 164,-108 158,-108 158,-108 99,-108 99,-108 93,-108 87,-102 87,-96 87,-96 87,-55 87,-55 87,-49 93,-43 99,-43"/>
<text text-anchor="middle" x="128.5" y="-96" font-family="Arial" font-size="10.00">supriya.system</text>
</g>
<!-- builtins.object&#45;&gt;supriya.system.SupriyaObject -->
<g id="edge1" class="edge">
<title>builtins.object&#45;&gt;supriya.system.SupriyaObject</title>
<path fill="none" stroke="lightslategrey" d="M59.03,-66C69.03,-66 81.34,-66 92.72,-66"/>
<polygon fill="lightslategrey" stroke="lightslategrey" points="92.82,-69.5 102.82,-66 92.82,-62.5 92.82,-69.5"/>
</g>
<!-- supriya.system.SupriyaObject&#45;&gt;supriya.synthdefs.compilers.SynthDefCompiler -->
<g id="edge2" class="edge">
<title>supriya.system.SupriyaObject&#45;&gt;supriya.synthdefs.compilers.SynthDefCompiler</title>
<path fill="none" stroke="lightslategrey" d="M153.26,-71.64C172.29,-76.07 199.1,-82.3 220.83,-87.36"/>
<polygon fill="lightslategrey" stroke="lightslategrey" points="220.19,-90.8 230.72,-89.66 221.77,-83.98 220.19,-90.8"/>
</g>
<!-- supriya.system.SupriyaObject&#45;&gt;supriya.synthdefs.compilers.SynthDefDecompiler -->
<g id="edge3" class="edge">
<title>supriya.system.SupriyaObject&#45;&gt;supriya.synthdefs.compilers.SynthDefDecompiler</title>
<path fill="none" stroke="lightslategrey" d="M153.26,-60.55C170.83,-56.6 195.01,-51.16 215.72,-46.5"/>
<polygon fill="lightslategrey" stroke="lightslategrey" points="216.57,-49.9 225.56,-44.29 215.04,-43.07 216.57,-49.9"/>
</g>
<!-- builtins.object -->
<g id="node1" class="node">
<title>builtins.object</title>
<g id="a_node1"><a xlink:href="https://docs.python.org/3/library/functions.html#object" xlink:title="object" target="_top">
<path fill="#fbb4ae" stroke="#fbb4ae" stroke-width="2" d="M52.67,-75.5C52.67,-75.5 22.33,-75.5 22.33,-75.5 19.17,-75.5 16,-72.33 16,-69.17 16,-69.17 16,-62.83 16,-62.83 16,-59.67 19.17,-56.5 22.33,-56.5 22.33,-56.5 52.67,-56.5 52.67,-56.5 55.83,-56.5 59,-59.67 59,-62.83 59,-62.83 59,-69.17 59,-69.17 59,-72.33 55.83,-75.5 52.67,-75.5"/>
<text text-anchor="middle" x="37.5" y="-63.5" font-family="Arial" font-size="10.00">object</text>
</a>
</g>
</g>
<!-- supriya.synthdefs.compilers.SynthDefCompiler -->
<g id="node2" class="node">
<title>supriya.synthdefs.compilers.SynthDefCompiler</title>
<g id="a_node2"><a xlink:href="../api/supriya/synthdefs/compilers.html#supriya.synthdefs.compilers.SynthDefCompiler" xlink:title="Synth\nDef\nCompiler" target="_top">
<path fill="black" stroke="black" stroke-width="2" d="M275,-116.5C275,-116.5 243,-116.5 243,-116.5 237,-116.5 231,-110.5 231,-104.5 231,-104.5 231,-87.5 231,-87.5 231,-81.5 237,-75.5 243,-75.5 243,-75.5 275,-75.5 275,-75.5 281,-75.5 287,-81.5 287,-87.5 287,-87.5 287,-104.5 287,-104.5 287,-110.5 281,-116.5 275,-116.5"/>
<text text-anchor="middle" x="259" y="-104.5" font-family="Arial" font-size="10.00" fill="white">Synth</text>
<text text-anchor="middle" x="259" y="-93.5" font-family="Arial" font-size="10.00" fill="white">Def</text>
<text text-anchor="middle" x="259" y="-82.5" font-family="Arial" font-size="10.00" fill="white">Compiler</text>
</a>
</g>
</g>
<!-- supriya.synthdefs.compilers.SynthDefDecompiler -->
<g id="node3" class="node">
<title>supriya.synthdefs.compilers.SynthDefDecompiler</title>
<g id="a_node3"><a xlink:href="../api/supriya/synthdefs/compilers.html#supriya.synthdefs.compilers.SynthDefDecompiler" xlink:title="Synth\nDef\nDecompiler" target="_top">
<path fill="black" stroke="black" stroke-width="2" d="M280,-57.5C280,-57.5 238,-57.5 238,-57.5 232,-57.5 226,-51.5 226,-45.5 226,-45.5 226,-28.5 226,-28.5 226,-22.5 232,-16.5 238,-16.5 238,-16.5 280,-16.5 280,-16.5 286,-16.5 292,-22.5 292,-28.5 292,-28.5 292,-45.5 292,-45.5 292,-51.5 286,-57.5 280,-57.5"/>
<text text-anchor="middle" x="259" y="-45.5" font-family="Arial" font-size="10.00" fill="white">Synth</text>
<text text-anchor="middle" x="259" y="-34.5" font-family="Arial" font-size="10.00" fill="white">Def</text>
<text text-anchor="middle" x="259" y="-23.5" font-family="Arial" font-size="10.00" fill="white">Decompiler</text>
</a>
</g>
</g>
<!-- supriya.system.SupriyaObject -->
<g id="node4" class="node">
<title>supriya.system.SupriyaObject</title>
<g id="a_node4"><a xlink:href="../api/supriya/synthdefs/../system.html#supriya.system.SupriyaObject" xlink:title="Supriya\nObject" target="_top">
<path fill="#ccebc5" stroke="#ccebc5" stroke-width="2" d="M143,-81C143,-81 113,-81 113,-81 108,-81 103,-76 103,-71 103,-71 103,-61 103,-61 103,-56 108,-51 113,-51 113,-51 143,-51 143,-51 148,-51 153,-56 153,-61 153,-61 153,-71 153,-71 153,-76 148,-81 143,-81"/>
<text text-anchor="middle" x="128" y="-69" font-family="Arial" font-size="10.00">Supriya</text>
<text text-anchor="middle" x="128" y="-58" font-family="Arial" font-size="10.00">Object</text>
</a>
</g>
</g>
</g>
</svg>
