<?xml version="1.0" encoding="UTF-8" standalone="no"?>
<!DOCTYPE svg PUBLIC "-//W3C//DTD SVG 1.1//EN"
 "http://www.w3.org/Graphics/SVG/1.1/DTD/svg11.dtd">
<!-- Generated by graphviz version 2.44.1 (20200629.0846)
 -->
<!-- Title: InheritanceGraph Pages: 1 -->
<svg width="320pt" height="101pt"
 viewBox="0.00 0.00 320.00 101.00" xmlns="http://www.w3.org/2000/svg" xmlns:xlink="http://www.w3.org/1999/xlink">
<g id="graph0" class="graph" transform="scale(1 1) rotate(0) translate(4 97)">
<title>InheritanceGraph</title>
<g id="clust1" class="cluster">
<title>cluster_builtins</title>
<path fill="transparent" stroke="#bcd2ee" stroke-width="2" stroke-dasharray="5,2" d="M20,-19C20,-19 55,-19 55,-19 61,-19 67,-25 67,-31 67,-31 67,-62 67,-62 67,-68 61,-74 55,-74 55,-74 20,-74 20,-74 14,-74 8,-68 8,-62 8,-62 8,-31 8,-31 8,-25 14,-19 20,-19"/>
<text text-anchor="middle" x="37.5" y="-62" font-family="Arial" font-size="10.00">builtins</text>
</g>
<g id="clust2" class="cluster">
<title>cluster_supriya.patterns.random</title>
<path fill="transparent" stroke="#bcd2ee" stroke-width="2" stroke-dasharray="5,2" d="M202,-8C202,-8 300,-8 300,-8 306,-8 312,-14 312,-20 312,-20 312,-73 312,-73 312,-79 306,-85 300,-85 300,-85 202,-85 202,-85 196,-85 190,-79 190,-73 190,-73 190,-20 190,-20 190,-14 196,-8 202,-8"/>
<text text-anchor="middle" x="251" y="-73" font-family="Arial" font-size="10.00">supriya.patterns.random</text>
</g>
<g id="clust3" class="cluster">
<title>cluster_supriya.system</title>
<path fill="transparent" stroke="#bcd2ee" stroke-width="2" stroke-dasharray="5,2" d="M99,-14C99,-14 158,-14 158,-14 164,-14 170,-20 170,-26 170,-26 170,-67 170,-67 170,-73 164,-79 158,-79 158,-79 99,-79 99,-79 93,-79 87,-73 87,-67 87,-67 87,-26 87,-26 87,-20 93,-14 99,-14"/>
<text text-anchor="middle" x="128.5" y="-67" font-family="Arial" font-size="10.00">supriya.system</text>
</g>
<!-- builtins.object&#45;&gt;supriya.system.SupriyaObject -->
<g id="edge1" class="edge">
<title>builtins.object&#45;&gt;supriya.system.SupriyaObject</title>
<path fill="none" stroke="lightslategrey" d="M59.03,-37C69.03,-37 81.34,-37 92.72,-37"/>
<polygon fill="lightslategrey" stroke="lightslategrey" points="92.82,-40.5 102.82,-37 92.82,-33.5 92.82,-40.5"/>
</g>
<!-- supriya.system.SupriyaObject&#45;&gt;supriya.patterns.random.RandomNumberGenerator -->
<g id="edge2" class="edge">
<title>supriya.system.SupriyaObject&#45;&gt;supriya.patterns.random.RandomNumberGenerator</title>
<path fill="none" stroke="lightslategrey" d="M153.1,-37C169.55,-37 191.72,-37 210.65,-37"/>
<polygon fill="lightslategrey" stroke="lightslategrey" points="210.78,-40.5 220.78,-37 210.78,-33.5 210.78,-40.5"/>
</g>
<!-- builtins.object -->
<g id="node1" class="node">
<title>builtins.object</title>
<g id="a_node1"><a xlink:href="https://docs.python.org/3/library/functions.html#object" xlink:title="object" target="_top">
<path fill="#fbb4ae" stroke="#fbb4ae" stroke-width="2" d="M52.67,-46.5C52.67,-46.5 22.33,-46.5 22.33,-46.5 19.17,-46.5 16,-43.33 16,-40.17 16,-40.17 16,-33.83 16,-33.83 16,-30.67 19.17,-27.5 22.33,-27.5 22.33,-27.5 52.67,-27.5 52.67,-27.5 55.83,-27.5 59,-30.67 59,-33.83 59,-33.83 59,-40.17 59,-40.17 59,-43.33 55.83,-46.5 52.67,-46.5"/>
<text text-anchor="middle" x="37.5" y="-34.5" font-family="Arial" font-size="10.00">object</text>
</a>
</g>
</g>
<!-- supriya.patterns.random.RandomNumberGenerator -->
<g id="node2" class="node">
<title>supriya.patterns.random.RandomNumberGenerator</title>
<g id="a_node2"><a xlink:href="../api/supriya/patterns/random.html#supriya.patterns.random.RandomNumberGenerator" xlink:title="Random\nNumber\nGenerator" target="_top">
<path fill="black" stroke="black" stroke-width="2" d="M268,-57.5C268,-57.5 233,-57.5 233,-57.5 227,-57.5 221,-51.5 221,-45.5 221,-45.5 221,-28.5 221,-28.5 221,-22.5 227,-16.5 233,-16.5 233,-16.5 268,-16.5 268,-16.5 274,-16.5 280,-22.5 280,-28.5 280,-28.5 280,-45.5 280,-45.5 280,-51.5 274,-57.5 268,-57.5"/>
<text text-anchor="middle" x="250.5" y="-45.5" font-family="Arial" font-size="10.00" fill="white">Random</text>
<text text-anchor="middle" x="250.5" y="-34.5" font-family="Arial" font-size="10.00" fill="white">Number</text>
<text text-anchor="middle" x="250.5" y="-23.5" font-family="Arial" font-size="10.00" fill="white">Generator</text>
</a>
</g>
</g>
<!-- supriya.system.SupriyaObject -->
<g id="node3" class="node">
<title>supriya.system.SupriyaObject</title>
<g id="a_node3"><a xlink:href="../api/supriya/patterns/../system.html#supriya.system.SupriyaObject" xlink:title="Supriya\nObject" target="_top">
<path fill="#ccebc5" stroke="#ccebc5" stroke-width="2" d="M143,-52C143,-52 113,-52 113,-52 108,-52 103,-47 103,-42 103,-42 103,-32 103,-32 103,-27 108,-22 113,-22 113,-22 143,-22 143,-22 148,-22 153,-27 153,-32 153,-32 153,-42 153,-42 153,-47 148,-52 143,-52"/>
<text text-anchor="middle" x="128" y="-40" font-family="Arial" font-size="10.00">Supriya</text>
<text text-anchor="middle" x="128" y="-29" font-family="Arial" font-size="10.00">Object</text>
</a>
</g>
</g>
</g>
</svg>
