<?xml version="1.0" encoding="UTF-8" standalone="no"?>
<!DOCTYPE svg PUBLIC "-//W3C//DTD SVG 1.1//EN"
 "http://www.w3.org/Graphics/SVG/1.1/DTD/svg11.dtd">
<!-- Generated by graphviz version 2.44.1 (20200629.0846)
 -->
<!-- Title: InheritanceGraph Pages: 1 -->
<svg width="934pt" height="848pt"
 viewBox="0.00 0.00 933.76 848.00" xmlns="http://www.w3.org/2000/svg" xmlns:xlink="http://www.w3.org/1999/xlink">
<g id="graph0" class="graph" transform="scale(1 1) rotate(0) translate(4 844)">
<title>InheritanceGraph</title>
<g id="clust1" class="cluster">
<title>cluster_builtins</title>
<path fill="transparent" stroke="#bcd2ee" stroke-width="2" stroke-dasharray="5,2" d="M20,-370C20,-370 55,-370 55,-370 61,-370 67,-376 67,-382 67,-382 67,-413 67,-413 67,-419 61,-425 55,-425 55,-425 20,-425 20,-425 14,-425 8,-419 8,-413 8,-413 8,-382 8,-382 8,-376 14,-370 20,-370"/>
<text text-anchor="middle" x="37.5" y="-413" font-family="Arial" font-size="10.00">builtins</text>
</g>
<g id="clust2" class="cluster">
<title>cluster_supriya.patterns.bases</title>
<path fill="transparent" stroke="#bcd2ee" stroke-width="2" stroke-dasharray="5,2" d="M345,-433C345,-433 535.76,-433 535.76,-433 541.76,-433 547.76,-439 547.76,-445 547.76,-445 547.76,-527 547.76,-527 547.76,-533 541.76,-539 535.76,-539 535.76,-539 345,-539 345,-539 339,-539 333,-533 333,-527 333,-527 333,-445 333,-445 333,-439 339,-433 345,-433"/>
<text text-anchor="middle" x="440.38" y="-527" font-family="Arial" font-size="10.00">supriya.patterns.bases</text>
</g>
<g id="clust3" class="cluster">
<title>cluster_supriya.patterns.events</title>
<path fill="transparent" stroke="#bcd2ee" stroke-width="2" stroke-dasharray="5,2" d="M579.76,-182C579.76,-182 674.76,-182 674.76,-182 680.76,-182 686.76,-188 686.76,-194 686.76,-194 686.76,-475 686.76,-475 686.76,-481 680.76,-487 674.76,-487 674.76,-487 579.76,-487 579.76,-487 573.76,-487 567.76,-481 567.76,-475 567.76,-475 567.76,-194 567.76,-194 567.76,-188 573.76,-182 579.76,-182"/>
<text text-anchor="middle" x="627.26" y="-475" font-family="Arial" font-size="10.00">supriya.patterns.events</text>
</g>
<g id="clust4" class="cluster">
<title>cluster_supriya.patterns.mappings</title>
<path fill="transparent" stroke="#bcd2ee" stroke-width="2" stroke-dasharray="5,2" d="M750.76,-603C750.76,-603 905.76,-603 905.76,-603 911.76,-603 917.76,-609 917.76,-615 917.76,-615 917.76,-757 917.76,-757 917.76,-763 911.76,-769 905.76,-769 905.76,-769 750.76,-769 750.76,-769 744.76,-769 738.76,-763 738.76,-757 738.76,-757 738.76,-615 738.76,-615 738.76,-609 744.76,-603 750.76,-603"/>
<text text-anchor="middle" x="828.26" y="-757" font-family="Arial" font-size="10.00">supriya.patterns.mappings</text>
</g>
<g id="clust5" class="cluster">
<title>cluster_supriya.patterns.parallel</title>
<path fill="transparent" stroke="#bcd2ee" stroke-width="2" stroke-dasharray="5,2" d="M612.26,-777C612.26,-777 787.26,-777 787.26,-777 793.26,-777 799.26,-783 799.26,-789 799.26,-789 799.26,-820 799.26,-820 799.26,-826 793.26,-832 787.26,-832 787.26,-832 612.26,-832 612.26,-832 606.26,-832 600.26,-826 600.26,-820 600.26,-820 600.26,-789 600.26,-789 600.26,-783 606.26,-777 612.26,-777"/>
<text text-anchor="middle" x="699.76" y="-820" font-family="Arial" font-size="10.00">supriya.patterns.parallel</text>
</g>
<g id="clust6" class="cluster">
<title>cluster_supriya.patterns.patterns</title>
<path fill="transparent" stroke="#bcd2ee" stroke-width="2" stroke-dasharray="5,2" d="M607.26,-8C607.26,-8 787.26,-8 787.26,-8 793.26,-8 799.26,-14 799.26,-20 799.26,-20 799.26,-162 799.26,-162 799.26,-168 793.26,-174 787.26,-174 787.26,-174 607.26,-174 607.26,-174 601.26,-174 595.26,-168 595.26,-162 595.26,-162 595.26,-20 595.26,-20 595.26,-14 601.26,-8 607.26,-8"/>
<text text-anchor="middle" x="697.26" y="-162" font-family="Arial" font-size="10.00">supriya.patterns.patterns</text>
</g>
<g id="clust7" class="cluster">
<title>cluster_supriya.patterns.players</title>
<path fill="transparent" stroke="#bcd2ee" stroke-width="2" stroke-dasharray="5,2" d="M326.94,-305C326.94,-305 423.94,-305 423.94,-305 429.94,-305 435.94,-311 435.94,-317 435.94,-317 435.94,-406 435.94,-406 435.94,-412 429.94,-418 423.94,-418 423.94,-418 326.94,-418 326.94,-418 320.94,-418 314.94,-412 314.94,-406 314.94,-406 314.94,-317 314.94,-317 314.94,-311 320.94,-305 326.94,-305"/>
<text text-anchor="middle" x="375.44" y="-406" font-family="Arial" font-size="10.00">supriya.patterns.players</text>
</g>
<g id="clust8" class="cluster">
<title>cluster_supriya.patterns.random</title>
<path fill="transparent" stroke="#bcd2ee" stroke-width="2" stroke-dasharray="5,2" d="M185,-344C185,-344 283,-344 283,-344 289,-344 295,-350 295,-356 295,-356 295,-409 295,-409 295,-415 289,-421 283,-421 283,-421 185,-421 185,-421 179,-421 173,-415 173,-409 173,-409 173,-356 173,-356 173,-350 179,-344 185,-344"/>
<text text-anchor="middle" x="234" y="-409" font-family="Arial" font-size="10.00">supriya.patterns.random</text>
</g>
<g id="clust9" class="cluster">
<title>cluster_supriya.patterns.structure</title>
<path fill="transparent" stroke="#bcd2ee" stroke-width="2" stroke-dasharray="5,2" d="M718.76,-466C718.76,-466 822.76,-466 822.76,-466 828.76,-466 834.76,-472 834.76,-478 834.76,-478 834.76,-583 834.76,-583 834.76,-589 828.76,-595 822.76,-595 822.76,-595 718.76,-595 718.76,-595 712.76,-595 706.76,-589 706.76,-583 706.76,-583 706.76,-478 706.76,-478 706.76,-472 712.76,-466 718.76,-466"/>
<text text-anchor="middle" x="770.76" y="-583" font-family="Arial" font-size="10.00">supriya.patterns.structure</text>
</g>
<g id="clust10" class="cluster">
<title>cluster_supriya.system</title>
<path fill="transparent" stroke="#bcd2ee" stroke-width="2" stroke-dasharray="5,2" d="M99,-429C99,-429 254.5,-429 254.5,-429 260.5,-429 266.5,-435 266.5,-441 266.5,-441 266.5,-494 266.5,-494 266.5,-500 260.5,-506 254.5,-506 254.5,-506 99,-506 99,-506 93,-506 87,-500 87,-494 87,-494 87,-441 87,-441 87,-435 93,-429 99,-429"/>
<text text-anchor="middle" x="176.75" y="-494" font-family="Arial" font-size="10.00">supriya.system</text>
</g>
<!-- builtins.object&#45;&gt;supriya.patterns.players.EventPlayer -->
<g id="edge6" class="edge">
<title>builtins.object&#45;&gt;supriya.patterns.players.EventPlayer</title>
<path fill="none" stroke="lightslategrey" d="M59.4,-378.44C85.4,-367.04 131.46,-348.47 173,-340 232.13,-327.94 302.91,-326.69 342.72,-327.15"/>
<polygon fill="lightslategrey" stroke="lightslategrey" points="342.81,-330.65 352.86,-327.32 342.92,-323.66 342.81,-330.65"/>
</g>
<!-- builtins.object&#45;&gt;supriya.system.SupriyaObject -->
<g id="edge7" class="edge">
<title>builtins.object&#45;&gt;supriya.system.SupriyaObject</title>
<path fill="none" stroke="lightslategrey" d="M50.73,-397.72C61.68,-406.43 78.14,-419.51 92.15,-430.65"/>
<polygon fill="lightslategrey" stroke="lightslategrey" points="90.05,-433.46 100.06,-436.94 94.41,-427.98 90.05,-433.46"/>
</g>
<!-- supriya.patterns.bases.Event&#45;&gt;supriya.patterns.events.BusEvent -->
<g id="edge8" class="edge">
<title>supriya.patterns.bases.Event&#45;&gt;supriya.patterns.events.BusEvent</title>
<path fill="none" stroke="lightslategrey" d="M403.18,-494.51C414.83,-491.25 427.64,-485.63 435.94,-476 484.1,-420.14 424.04,-370.13 471.88,-314 503.39,-277.03 560.37,-262.29 595.45,-256.54"/>
<polygon fill="lightslategrey" stroke="lightslategrey" points="596.21,-259.96 605.59,-255.03 595.18,-253.04 596.21,-259.96"/>
</g>
<!-- supriya.patterns.bases.Event&#45;&gt;supriya.patterns.events.CompositeEvent -->
<g id="edge9" class="edge">
<title>supriya.patterns.bases.Event&#45;&gt;supriya.patterns.events.CompositeEvent</title>
<path fill="none" stroke="lightslategrey" d="M403.4,-494.7C415.1,-491.47 427.88,-485.84 435.94,-476 496.5,-402.07 411.32,-337.93 471.88,-264 499.61,-230.16 549.11,-215.69 584.48,-209.53"/>
<polygon fill="lightslategrey" stroke="lightslategrey" points="585.19,-212.96 594.51,-207.94 584.09,-206.05 585.19,-212.96"/>
</g>
<!-- supriya.patterns.bases.Event&#45;&gt;supriya.patterns.events.GroupEvent -->
<g id="edge10" class="edge">
<title>supriya.patterns.bases.Event&#45;&gt;supriya.patterns.events.GroupEvent</title>
<path fill="none" stroke="lightslategrey" d="M398.23,-490.63C409.55,-486.34 423.51,-480.97 435.94,-476 452.01,-469.57 455.11,-465.27 471.88,-461 513.56,-450.38 563.3,-446.79 594.72,-445.58"/>
<polygon fill="lightslategrey" stroke="lightslategrey" points="595.14,-449.07 605.02,-445.25 594.91,-442.08 595.14,-449.07"/>
</g>
<!-- supriya.patterns.bases.Event&#45;&gt;supriya.patterns.events.NoteEvent -->
<g id="edge11" class="edge">
<title>supriya.patterns.bases.Event&#45;&gt;supriya.patterns.events.NoteEvent</title>
<path fill="none" stroke="lightslategrey" d="M400.23,-491.92C411.53,-488.08 424.89,-482.73 435.94,-476 454.21,-464.88 453.24,-454.48 471.88,-444 511.7,-421.62 563.43,-408.66 595.62,-402.21"/>
<polygon fill="lightslategrey" stroke="lightslategrey" points="596.57,-405.59 605.73,-400.27 595.25,-398.71 596.57,-405.59"/>
</g>
<!-- supriya.patterns.bases.Event&#45;&gt;supriya.patterns.events.NullEvent -->
<g id="edge12" class="edge">
<title>supriya.patterns.bases.Event&#45;&gt;supriya.patterns.events.NullEvent</title>
<path fill="none" stroke="lightslategrey" d="M402.01,-493.35C413.43,-489.85 426.37,-484.38 435.94,-476 461.07,-454 446.88,-432.14 471.88,-410 507.7,-378.28 562.01,-362.02 595.61,-354.52"/>
<polygon fill="lightslategrey" stroke="lightslategrey" points="596.68,-357.88 605.75,-352.39 595.24,-351.03 596.68,-357.88"/>
</g>
<!-- supriya.patterns.bases.Event&#45;&gt;supriya.patterns.events.SynthEvent -->
<g id="edge13" class="edge">
<title>supriya.patterns.bases.Event&#45;&gt;supriya.patterns.events.SynthEvent</title>
<path fill="none" stroke="lightslategrey" d="M402.78,-494.15C414.35,-490.81 427.2,-485.24 435.94,-476 471.87,-438.02 436.39,-402.38 471.88,-364 504.92,-328.28 561.17,-312.28 595.74,-305.53"/>
<polygon fill="lightslategrey" stroke="lightslategrey" points="596.5,-308.94 605.72,-303.71 595.25,-302.06 596.5,-308.94"/>
</g>
<!-- supriya.patterns.bases.EventPattern&#45;&gt;supriya.patterns.mappings.Pbind -->
<g id="edge14" class="edge">
<title>supriya.patterns.bases.EventPattern&#45;&gt;supriya.patterns.mappings.Pbind</title>
<path fill="none" stroke="lightslategrey" d="M514.9,-511.84C524.44,-533.87 542.28,-568.26 567.76,-589 619.19,-630.85 697.43,-647.92 739.69,-654.4"/>
<polygon fill="lightslategrey" stroke="lightslategrey" points="739.23,-657.87 749.62,-655.83 740.22,-650.94 739.23,-657.87"/>
</g>
<!-- supriya.patterns.bases.EventPattern&#45;&gt;supriya.patterns.mappings.Pbindf -->
<g id="edge15" class="edge">
<title>supriya.patterns.bases.EventPattern&#45;&gt;supriya.patterns.mappings.Pbindf</title>
<path fill="none" stroke="lightslategrey" d="M521.9,-509.76C533.3,-522.87 549.98,-539.95 567.76,-551 622.89,-585.25 696.97,-605.41 738.22,-614.72"/>
<polygon fill="lightslategrey" stroke="lightslategrey" points="737.69,-618.19 748.21,-616.91 739.19,-611.35 737.69,-618.19"/>
</g>
<!-- supriya.patterns.bases.EventPattern&#45;&gt;supriya.patterns.mappings.Pchain -->
<g id="edge16" class="edge">
<title>supriya.patterns.bases.EventPattern&#45;&gt;supriya.patterns.mappings.Pchain</title>
<path fill="none" stroke="lightslategrey" d="M507.96,-512.3C511.1,-549.71 522.98,-627.38 567.76,-671 613.97,-716 692.21,-727.94 736.37,-731.02"/>
<polygon fill="lightslategrey" stroke="lightslategrey" points="736.38,-734.53 746.56,-731.62 736.78,-727.54 736.38,-734.53"/>
</g>
<!-- supriya.patterns.bases.EventPattern&#45;&gt;supriya.patterns.mappings.Pn -->
<g id="edge17" class="edge">
<title>supriya.patterns.bases.EventPattern&#45;&gt;supriya.patterns.mappings.Pn</title>
<path fill="none" stroke="lightslategrey" d="M510.56,-512.26C516.96,-542.56 532.9,-598.04 567.76,-630 618.9,-676.86 704.13,-689.96 745.41,-693.6"/>
<polygon fill="lightslategrey" stroke="lightslategrey" points="745.36,-697.11 755.6,-694.38 745.89,-690.13 745.36,-697.11"/>
</g>
<!-- supriya.patterns.bases.EventPattern&#45;&gt;supriya.patterns.parallel.Ppar -->
<g id="edge18" class="edge">
<title>supriya.patterns.bases.EventPattern&#45;&gt;supriya.patterns.parallel.Ppar</title>
<path fill="none" stroke="lightslategrey" d="M507.41,-512.29C509.6,-558.5 519.86,-670 567.76,-747 575.91,-760.09 588.86,-771.3 600.46,-779.6"/>
<polygon fill="lightslategrey" stroke="lightslategrey" points="598.72,-782.65 608.96,-785.35 602.64,-776.85 598.72,-782.65"/>
</g>
<!-- supriya.patterns.bases.EventPattern&#45;&gt;supriya.patterns.structure.Pbus -->
<g id="edge19" class="edge">
<title>supriya.patterns.bases.EventPattern&#45;&gt;supriya.patterns.structure.Pbus</title>
<path fill="none" stroke="lightslategrey" d="M530.01,-505.9C541.06,-512.38 554.68,-519.49 567.76,-524 627.22,-544.48 700.94,-552.9 740.67,-556.14"/>
<polygon fill="lightslategrey" stroke="lightslategrey" points="740.47,-559.64 750.7,-556.91 741,-552.66 740.47,-559.64"/>
</g>
<!-- supriya.patterns.bases.EventPattern&#45;&gt;supriya.patterns.structure.Pfx -->
<g id="edge20" class="edge">
<title>supriya.patterns.bases.EventPattern&#45;&gt;supriya.patterns.structure.Pfx</title>
<path fill="none" stroke="lightslategrey" d="M537.34,-498.93C547.01,-501.2 557.79,-503.47 567.76,-505 630.74,-514.68 705.75,-518.68 744.04,-520.18"/>
<polygon fill="lightslategrey" stroke="lightslategrey" points="744.14,-523.69 754.26,-520.56 744.4,-516.69 744.14,-523.69"/>
</g>
<!-- supriya.patterns.bases.EventPattern&#45;&gt;supriya.patterns.structure.Pgroup -->
<g id="edge21" class="edge">
<title>supriya.patterns.bases.EventPattern&#45;&gt;supriya.patterns.structure.Pgroup</title>
<path fill="none" stroke="lightslategrey" d="M540.01,-491.84C576.13,-492.56 635.58,-493.17 686.76,-491 703.06,-490.31 721.12,-488.86 736.17,-487.45"/>
<polygon fill="lightslategrey" stroke="lightslategrey" points="736.92,-490.9 746.54,-486.45 736.25,-483.93 736.92,-490.9"/>
</g>
<!-- supriya.patterns.bases.Pattern&#45;&gt;supriya.patterns.bases.EventPattern -->
<g id="edge1" class="edge">
<title>supriya.patterns.bases.Pattern&#45;&gt;supriya.patterns.bases.EventPattern</title>
<path fill="none" stroke="lightslategrey" d="M402.96,-461.76C420.89,-466.9 444.74,-473.75 464.86,-479.53"/>
<polygon fill="lightslategrey" stroke="lightslategrey" points="464.11,-482.95 474.69,-482.35 466.04,-476.22 464.11,-482.95"/>
</g>
<!-- supriya.patterns.bases.Pattern&#45;&gt;supriya.patterns.patterns.Pbinop -->
<g id="edge22" class="edge">
<title>supriya.patterns.bases.Pattern&#45;&gt;supriya.patterns.patterns.Pbinop</title>
<path fill="none" stroke="lightslategrey" d="M402.62,-446.17C414.75,-441.22 428.11,-433.52 435.94,-422 515.18,-305.48 380.79,-214.5 471.88,-107 501.59,-71.94 557.14,-63.82 592.74,-62.46"/>
<polygon fill="lightslategrey" stroke="lightslategrey" points="593.18,-65.95 603.1,-62.23 593.03,-58.95 593.18,-65.95"/>
</g>
<!-- supriya.patterns.bases.Pattern&#45;&gt;supriya.patterns.patterns.Pseed -->
<g id="edge23" class="edge">
<title>supriya.patterns.bases.Pattern&#45;&gt;supriya.patterns.patterns.Pseed</title>
<path fill="none" stroke="lightslategrey" d="M402.69,-446.22C414.83,-441.27 428.19,-433.57 435.94,-422 480.46,-355.58 419.5,-124.41 471.88,-64 502.11,-29.14 558.74,-23.64 594.23,-24"/>
<polygon fill="lightslategrey" stroke="lightslategrey" points="594.43,-27.51 604.52,-24.27 594.61,-20.51 594.43,-27.51"/>
</g>
<!-- supriya.patterns.bases.Pattern&#45;&gt;supriya.patterns.patterns.Pseq -->
<g id="edge24" class="edge">
<title>supriya.patterns.bases.Pattern&#45;&gt;supriya.patterns.patterns.Pseq</title>
<path fill="none" stroke="lightslategrey" d="M402.33,-445.97C414.39,-440.97 427.78,-433.29 435.94,-422 490.91,-345.97 415.93,-289.31 471.88,-214 502.56,-172.71 561.59,-152.13 596.95,-143.08"/>
<polygon fill="lightslategrey" stroke="lightslategrey" points="598.2,-146.38 607.1,-140.63 596.56,-139.57 598.2,-146.38"/>
</g>
<!-- supriya.patterns.bases.Pattern&#45;&gt;supriya.patterns.patterns.Pwhite -->
<g id="edge25" class="edge">
<title>supriya.patterns.bases.Pattern&#45;&gt;supriya.patterns.patterns.Pwhite</title>
<path fill="none" stroke="lightslategrey" d="M402.52,-446.1C414.62,-441.13 427.99,-433.44 435.94,-422 504.04,-324.05 397.95,-249.62 471.88,-156 501.1,-119 557.04,-106.44 592.82,-102.18"/>
<polygon fill="lightslategrey" stroke="lightslategrey" points="593.64,-105.61 603.23,-101.1 592.92,-98.65 593.64,-105.61"/>
</g>
<!-- supriya.patterns.mappings.Pbind&#45;&gt;supriya.patterns.mappings.Pmono -->
<g id="edge2" class="edge">
<title>supriya.patterns.mappings.Pbind&#45;&gt;supriya.patterns.mappings.Pmono</title>
<path fill="none" stroke="lightslategrey" d="M790.86,-658C807.7,-658 832.33,-658 852.21,-658"/>
<polygon fill="lightslategrey" stroke="lightslategrey" points="852.4,-661.5 862.4,-658 852.4,-654.5 852.4,-661.5"/>
</g>
<!-- supriya.patterns.parallel.Ppar&#45;&gt;supriya.patterns.parallel.Pgpar -->
<g id="edge3" class="edge">
<title>supriya.patterns.parallel.Ppar&#45;&gt;supriya.patterns.parallel.Pgpar</title>
<path fill="none" stroke="lightslategrey" d="M645.4,-795C668.79,-795 710.42,-795 738.91,-795"/>
<polygon fill="lightslategrey" stroke="lightslategrey" points="739.12,-798.5 749.12,-795 739.12,-791.5 739.12,-798.5"/>
</g>
<!-- supriya.patterns.patterns.Pseq&#45;&gt;supriya.patterns.patterns.Prand -->
<g id="edge4" class="edge">
<title>supriya.patterns.patterns.Pseq&#45;&gt;supriya.patterns.patterns.Prand</title>
<path fill="none" stroke="lightslategrey" d="M646.55,-137C670.15,-137 710.94,-137 738.97,-137"/>
<polygon fill="lightslategrey" stroke="lightslategrey" points="739.02,-140.5 749.02,-137 739.02,-133.5 739.02,-140.5"/>
</g>
<!-- supriya.system.SupriyaObject&#45;&gt;supriya.patterns.random.RandomNumberGenerator -->
<g id="edge26" class="edge">
<title>supriya.system.SupriyaObject&#45;&gt;supriya.patterns.random.RandomNumberGenerator</title>
<path fill="none" stroke="lightslategrey" d="M142.23,-436.95C157.22,-426.34 177.69,-411.83 195.35,-399.32"/>
<polygon fill="lightslategrey" stroke="lightslategrey" points="197.62,-402 203.76,-393.36 193.58,-396.29 197.62,-402"/>
</g>
<!-- supriya.system.SupriyaObject&#45;&gt;supriya.system.SupriyaValueObject -->
<g id="edge5" class="edge">
<title>supriya.system.SupriyaObject&#45;&gt;supriya.system.SupriyaValueObject</title>
<path fill="none" stroke="lightslategrey" d="M145.19,-453.3C160.68,-454.14 181.01,-455.23 198.16,-456.15"/>
<polygon fill="lightslategrey" stroke="lightslategrey" points="198.18,-459.66 208.35,-456.7 198.56,-452.67 198.18,-459.66"/>
</g>
<!-- supriya.system.SupriyaValueObject&#45;&gt;supriya.patterns.bases.Event -->
<g id="edge27" class="edge">
<title>supriya.system.SupriyaValueObject&#45;&gt;supriya.patterns.bases.Event</title>
<path fill="none" stroke="lightslategrey" d="M258.79,-465.14C281.15,-471.72 314.54,-481.53 339.62,-488.91"/>
<polygon fill="lightslategrey" stroke="lightslategrey" points="338.88,-492.34 349.46,-491.8 340.86,-485.62 338.88,-492.34"/>
</g>
<!-- supriya.system.SupriyaValueObject&#45;&gt;supriya.patterns.bases.Pattern -->
<g id="edge28" class="edge">
<title>supriya.system.SupriyaValueObject&#45;&gt;supriya.patterns.bases.Pattern</title>
<path fill="none" stroke="lightslategrey" d="M258.79,-457.3C278.64,-456.73 307.18,-455.92 330.89,-455.24"/>
<polygon fill="lightslategrey" stroke="lightslategrey" points="331.15,-458.73 341.05,-454.94 330.95,-451.73 331.15,-458.73"/>
</g>
<!-- supriya.system.SupriyaValueObject&#45;&gt;supriya.patterns.players.EventProduct -->
<g id="edge29" class="edge">
<title>supriya.system.SupriyaValueObject&#45;&gt;supriya.patterns.players.EventProduct</title>
<path fill="none" stroke="lightslategrey" d="M258.52,-445.3C269.69,-439.29 283.11,-431.93 295,-425 310.58,-415.92 327.61,-405.43 341.85,-396.49"/>
<polygon fill="lightslategrey" stroke="lightslategrey" points="343.73,-399.44 350.32,-391.15 339.99,-393.52 343.73,-399.44"/>
</g>
<!-- builtins.object -->
<g id="node1" class="node">
<title>builtins.object</title>
<g id="a_node1"><a xlink:href="https://docs.python.org/3/library/functions.html#object" xlink:title="object" target="_top">
<path fill="#fbb4ae" stroke="#fbb4ae" stroke-width="2" d="M52.67,-397.5C52.67,-397.5 22.33,-397.5 22.33,-397.5 19.17,-397.5 16,-394.33 16,-391.17 16,-391.17 16,-384.83 16,-384.83 16,-381.67 19.17,-378.5 22.33,-378.5 22.33,-378.5 52.67,-378.5 52.67,-378.5 55.83,-378.5 59,-381.67 59,-384.83 59,-384.83 59,-391.17 59,-391.17 59,-394.33 55.83,-397.5 52.67,-397.5"/>
<text text-anchor="middle" x="37.5" y="-385.5" font-family="Arial" font-size="10.00">object</text>
</a>
</g>
</g>
<!-- supriya.patterns.bases.Event -->
<g id="node2" class="node">
<title>supriya.patterns.bases.Event</title>
<g id="a_node2"><a xlink:href="../api/supriya/patterns/bases.html#supriya.patterns.bases.Event" xlink:title="Event" target="_top">
<ellipse fill="none" stroke="#b3cde3" stroke-width="2" cx="374.94" cy="-499" rx="29.9" ry="13.37"/>
<text text-anchor="middle" x="374.94" y="-496.5" font-family="Arial" font-size="10.00">Event</text>
</a>
</g>
</g>
<!-- supriya.patterns.bases.EventPattern -->
<g id="node3" class="node">
<title>supriya.patterns.bases.EventPattern</title>
<g id="a_node3"><a xlink:href="../api/supriya/patterns/bases.html#supriya.patterns.bases.EventPattern" xlink:title="Event\nPattern" target="_top">
<ellipse fill="none" stroke="#b3cde3" stroke-width="2" cx="505.82" cy="-491" rx="33.88" ry="21.43"/>
<text text-anchor="middle" x="505.82" y="-494" font-family="Arial" font-size="10.00">Event</text>
<text text-anchor="middle" x="505.82" y="-483" font-family="Arial" font-size="10.00">Pattern</text>
</a>
</g>
</g>
<!-- supriya.patterns.bases.Pattern -->
<g id="node4" class="node">
<title>supriya.patterns.bases.Pattern</title>
<g id="a_node4"><a xlink:href="../api/supriya/patterns/bases.html#supriya.patterns.bases.Pattern" xlink:title="Pattern" target="_top">
<ellipse fill="none" stroke="#b3cde3" stroke-width="2" cx="374.94" cy="-454" rx="33.88" ry="13.37"/>
<text text-anchor="middle" x="374.94" y="-451.5" font-family="Arial" font-size="10.00">Pattern</text>
</a>
</g>
</g>
<!-- supriya.patterns.events.BusEvent -->
<g id="node5" class="node">
<title>supriya.patterns.events.BusEvent</title>
<g id="a_node5"><a xlink:href="../api/supriya/patterns/events.html#supriya.patterns.events.BusEvent" xlink:title="Bus\nEvent" target="_top">
<path fill="#ccebc5" stroke="#ccebc5" stroke-width="2" d="M637.76,-268C637.76,-268 615.76,-268 615.76,-268 610.76,-268 605.76,-263 605.76,-258 605.76,-258 605.76,-248 605.76,-248 605.76,-243 610.76,-238 615.76,-238 615.76,-238 637.76,-238 637.76,-238 642.76,-238 647.76,-243 647.76,-248 647.76,-248 647.76,-258 647.76,-258 647.76,-263 642.76,-268 637.76,-268"/>
<text text-anchor="middle" x="626.76" y="-256" font-family="Arial" font-size="10.00">Bus</text>
<text text-anchor="middle" x="626.76" y="-245" font-family="Arial" font-size="10.00">Event</text>
</a>
</g>
</g>
<!-- supriya.patterns.events.CompositeEvent -->
<g id="node6" class="node">
<title>supriya.patterns.events.CompositeEvent</title>
<g id="a_node6"><a xlink:href="../api/supriya/patterns/events.html#supriya.patterns.events.CompositeEvent" xlink:title="Composite\nEvent" target="_top">
<path fill="#ccebc5" stroke="#ccebc5" stroke-width="2" d="M648.76,-220C648.76,-220 604.76,-220 604.76,-220 599.76,-220 594.76,-215 594.76,-210 594.76,-210 594.76,-200 594.76,-200 594.76,-195 599.76,-190 604.76,-190 604.76,-190 648.76,-190 648.76,-190 653.76,-190 658.76,-195 658.76,-200 658.76,-200 658.76,-210 658.76,-210 658.76,-215 653.76,-220 648.76,-220"/>
<text text-anchor="middle" x="626.76" y="-208" font-family="Arial" font-size="10.00">Composite</text>
<text text-anchor="middle" x="626.76" y="-197" font-family="Arial" font-size="10.00">Event</text>
</a>
</g>
</g>
<!-- supriya.patterns.events.GroupEvent -->
<g id="node7" class="node">
<title>supriya.patterns.events.GroupEvent</title>
<g id="a_node7"><a xlink:href="../api/supriya/patterns/events.html#supriya.patterns.events.GroupEvent" xlink:title="Group\nEvent" target="_top">
<path fill="#ccebc5" stroke="#ccebc5" stroke-width="2" d="M638.26,-460C638.26,-460 615.26,-460 615.26,-460 610.26,-460 605.26,-455 605.26,-450 605.26,-450 605.26,-440 605.26,-440 605.26,-435 610.26,-430 615.26,-430 615.26,-430 638.26,-430 638.26,-430 643.26,-430 648.26,-435 648.26,-440 648.26,-440 648.26,-450 648.26,-450 648.26,-455 643.26,-460 638.26,-460"/>
<text text-anchor="middle" x="626.76" y="-448" font-family="Arial" font-size="10.00">Group</text>
<text text-anchor="middle" x="626.76" y="-437" font-family="Arial" font-size="10.00">Event</text>
</a>
</g>
</g>
<!-- supriya.patterns.events.NoteEvent -->
<g id="node8" class="node">
<title>supriya.patterns.events.NoteEvent</title>
<g id="a_node8"><a xlink:href="../api/supriya/patterns/events.html#supriya.patterns.events.NoteEvent" xlink:title="Note\nEvent" target="_top">
<path fill="#ccebc5" stroke="#ccebc5" stroke-width="2" d="M637.76,-412C637.76,-412 615.76,-412 615.76,-412 610.76,-412 605.76,-407 605.76,-402 605.76,-402 605.76,-392 605.76,-392 605.76,-387 610.76,-382 615.76,-382 615.76,-382 637.76,-382 637.76,-382 642.76,-382 647.76,-387 647.76,-392 647.76,-392 647.76,-402 647.76,-402 647.76,-407 642.76,-412 637.76,-412"/>
<text text-anchor="middle" x="626.76" y="-400" font-family="Arial" font-size="10.00">Note</text>
<text text-anchor="middle" x="626.76" y="-389" font-family="Arial" font-size="10.00">Event</text>
</a>
</g>
</g>
<!-- supriya.patterns.events.NullEvent -->
<g id="node9" class="node">
<title>supriya.patterns.events.NullEvent</title>
<g id="a_node9"><a xlink:href="../api/supriya/patterns/events.html#supriya.patterns.events.NullEvent" xlink:title="Null\nEvent" target="_top">
<path fill="#ccebc5" stroke="#ccebc5" stroke-width="2" d="M637.76,-364C637.76,-364 615.76,-364 615.76,-364 610.76,-364 605.76,-359 605.76,-354 605.76,-354 605.76,-344 605.76,-344 605.76,-339 610.76,-334 615.76,-334 615.76,-334 637.76,-334 637.76,-334 642.76,-334 647.76,-339 647.76,-344 647.76,-344 647.76,-354 647.76,-354 647.76,-359 642.76,-364 637.76,-364"/>
<text text-anchor="middle" x="626.76" y="-352" font-family="Arial" font-size="10.00">Null</text>
<text text-anchor="middle" x="626.76" y="-341" font-family="Arial" font-size="10.00">Event</text>
</a>
</g>
</g>
<!-- supriya.patterns.events.SynthEvent -->
<g id="node10" class="node">
<title>supriya.patterns.events.SynthEvent</title>
<g id="a_node10"><a xlink:href="../api/supriya/patterns/events.html#supriya.patterns.events.SynthEvent" xlink:title="Synth\nEvent" target="_top">
<path fill="#ccebc5" stroke="#ccebc5" stroke-width="2" d="M637.76,-316C637.76,-316 615.76,-316 615.76,-316 610.76,-316 605.76,-311 605.76,-306 605.76,-306 605.76,-296 605.76,-296 605.76,-291 610.76,-286 615.76,-286 615.76,-286 637.76,-286 637.76,-286 642.76,-286 647.76,-291 647.76,-296 647.76,-296 647.76,-306 647.76,-306 647.76,-311 642.76,-316 637.76,-316"/>
<text text-anchor="middle" x="626.76" y="-304" font-family="Arial" font-size="10.00">Synth</text>
<text text-anchor="middle" x="626.76" y="-293" font-family="Arial" font-size="10.00">Event</text>
</a>
</g>
</g>
<!-- supriya.patterns.mappings.Pbind -->
<g id="node11" class="node">
<title>supriya.patterns.mappings.Pbind</title>
<g id="a_node11"><a xlink:href="../api/supriya/patterns/mappings.html#supriya.patterns.mappings.Pbind" xlink:title="Pbind" target="_top">
<path fill="#decbe4" stroke="#decbe4" stroke-width="2" d="M784.43,-667.5C784.43,-667.5 756.1,-667.5 756.1,-667.5 752.93,-667.5 749.76,-664.33 749.76,-661.17 749.76,-661.17 749.76,-654.83 749.76,-654.83 749.76,-651.67 752.93,-648.5 756.1,-648.5 756.1,-648.5 784.43,-648.5 784.43,-648.5 787.6,-648.5 790.76,-651.67 790.76,-654.83 790.76,-654.83 790.76,-661.17 790.76,-661.17 790.76,-664.33 787.6,-667.5 784.43,-667.5"/>
<text text-anchor="middle" x="770.26" y="-655.5" font-family="Arial" font-size="10.00">Pbind</text>
</a>
</g>
</g>
<!-- supriya.patterns.mappings.Pmono -->
<g id="node12" class="node">
<title>supriya.patterns.mappings.Pmono</title>
<g id="a_node12"><a xlink:href="../api/supriya/patterns/mappings.html#supriya.patterns.mappings.Pmono" xlink:title="Pmono" target="_top">
<path fill="#decbe4" stroke="#decbe4" stroke-width="2" d="M903.43,-667.5C903.43,-667.5 869.1,-667.5 869.1,-667.5 865.93,-667.5 862.76,-664.33 862.76,-661.17 862.76,-661.17 862.76,-654.83 862.76,-654.83 862.76,-651.67 865.93,-648.5 869.1,-648.5 869.1,-648.5 903.43,-648.5 903.43,-648.5 906.6,-648.5 909.76,-651.67 909.76,-654.83 909.76,-654.83 909.76,-661.17 909.76,-661.17 909.76,-664.33 906.6,-667.5 903.43,-667.5"/>
<text text-anchor="middle" x="886.26" y="-655.5" font-family="Arial" font-size="10.00">Pmono</text>
</a>
</g>
</g>
<!-- supriya.patterns.mappings.Pbindf -->
<g id="node13" class="node">
<title>supriya.patterns.mappings.Pbindf</title>
<g id="a_node13"><a xlink:href="../api/supriya/patterns/mappings.html#supriya.patterns.mappings.Pbindf" xlink:title="Pbindf" target="_top">
<path fill="#decbe4" stroke="#decbe4" stroke-width="2" d="M785.93,-630.5C785.93,-630.5 754.6,-630.5 754.6,-630.5 751.43,-630.5 748.26,-627.33 748.26,-624.17 748.26,-624.17 748.26,-617.83 748.26,-617.83 748.26,-614.67 751.43,-611.5 754.6,-611.5 754.6,-611.5 785.93,-611.5 785.93,-611.5 789.1,-611.5 792.26,-614.67 792.26,-617.83 792.26,-617.83 792.26,-624.17 792.26,-624.17 792.26,-627.33 789.1,-630.5 785.93,-630.5"/>
<text text-anchor="middle" x="770.26" y="-618.5" font-family="Arial" font-size="10.00">Pbindf</text>
</a>
</g>
</g>
<!-- supriya.patterns.mappings.Pchain -->
<g id="node14" class="node">
<title>supriya.patterns.mappings.Pchain</title>
<g id="a_node14"><a xlink:href="../api/supriya/patterns/mappings.html#supriya.patterns.mappings.Pchain" xlink:title="Pchain" target="_top">
<path fill="#decbe4" stroke="#decbe4" stroke-width="2" d="M787.43,-741.5C787.43,-741.5 753.1,-741.5 753.1,-741.5 749.93,-741.5 746.76,-738.33 746.76,-735.17 746.76,-735.17 746.76,-728.83 746.76,-728.83 746.76,-725.67 749.93,-722.5 753.1,-722.5 753.1,-722.5 787.43,-722.5 787.43,-722.5 790.6,-722.5 793.76,-725.67 793.76,-728.83 793.76,-728.83 793.76,-735.17 793.76,-735.17 793.76,-738.33 790.6,-741.5 787.43,-741.5"/>
<text text-anchor="middle" x="770.26" y="-729.5" font-family="Arial" font-size="10.00">Pchain</text>
</a>
</g>
</g>
<!-- supriya.patterns.mappings.Pn -->
<g id="node15" class="node">
<title>supriya.patterns.mappings.Pn</title>
<g id="a_node15"><a xlink:href="../api/supriya/patterns/mappings.html#supriya.patterns.mappings.Pn" xlink:title="Pn" target="_top">
<path fill="#decbe4" stroke="#decbe4" stroke-width="2" d="M778.43,-704.5C778.43,-704.5 762.1,-704.5 762.1,-704.5 758.93,-704.5 755.76,-701.33 755.76,-698.17 755.76,-698.17 755.76,-691.83 755.76,-691.83 755.76,-688.67 758.93,-685.5 762.1,-685.5 762.1,-685.5 778.43,-685.5 778.43,-685.5 781.6,-685.5 784.76,-688.67 784.76,-691.83 784.76,-691.83 784.76,-698.17 784.76,-698.17 784.76,-701.33 781.6,-704.5 778.43,-704.5"/>
<text text-anchor="middle" x="770.26" y="-692.5" font-family="Arial" font-size="10.00">Pn</text>
</a>
</g>
</g>
<!-- supriya.patterns.parallel.Pgpar -->
<g id="node16" class="node">
<title>supriya.patterns.parallel.Pgpar</title>
<g id="a_node16"><a xlink:href="../api/supriya/patterns/parallel.html#supriya.patterns.parallel.Pgpar" xlink:title="Pgpar" target="_top">
<path fill="#fed9a6" stroke="#fed9a6" stroke-width="2" d="M784.93,-804.5C784.93,-804.5 755.6,-804.5 755.6,-804.5 752.43,-804.5 749.26,-801.33 749.26,-798.17 749.26,-798.17 749.26,-791.83 749.26,-791.83 749.26,-788.67 752.43,-785.5 755.6,-785.5 755.6,-785.5 784.93,-785.5 784.93,-785.5 788.1,-785.5 791.26,-788.67 791.26,-791.83 791.26,-791.83 791.26,-798.17 791.26,-798.17 791.26,-801.33 788.1,-804.5 784.93,-804.5"/>
<text text-anchor="middle" x="770.26" y="-792.5" font-family="Arial" font-size="10.00">Pgpar</text>
</a>
</g>
</g>
<!-- supriya.patterns.parallel.Ppar -->
<g id="node17" class="node">
<title>supriya.patterns.parallel.Ppar</title>
<g id="a_node17"><a xlink:href="../api/supriya/patterns/parallel.html#supriya.patterns.parallel.Ppar" xlink:title="Ppar" target="_top">
<path fill="#fed9a6" stroke="#fed9a6" stroke-width="2" d="M638.93,-804.5C638.93,-804.5 614.6,-804.5 614.6,-804.5 611.43,-804.5 608.26,-801.33 608.26,-798.17 608.26,-798.17 608.26,-791.83 608.26,-791.83 608.26,-788.67 611.43,-785.5 614.6,-785.5 614.6,-785.5 638.93,-785.5 638.93,-785.5 642.1,-785.5 645.26,-788.67 645.26,-791.83 645.26,-791.83 645.26,-798.17 645.26,-798.17 645.26,-801.33 642.1,-804.5 638.93,-804.5"/>
<text text-anchor="middle" x="626.76" y="-792.5" font-family="Arial" font-size="10.00">Ppar</text>
</a>
</g>
</g>
<!-- supriya.patterns.patterns.Pbinop -->
<g id="node18" class="node">
<title>supriya.patterns.patterns.Pbinop</title>
<g id="a_node18"><a xlink:href="../api/supriya/patterns/patterns.html#supriya.patterns.patterns.Pbinop" xlink:title="Pbinop" target="_top">
<path fill="#ffffcc" stroke="#ffffcc" stroke-width="2" d="M643.93,-72.5C643.93,-72.5 609.6,-72.5 609.6,-72.5 606.43,-72.5 603.26,-69.33 603.26,-66.17 603.26,-66.17 603.26,-59.83 603.26,-59.83 603.26,-56.67 606.43,-53.5 609.6,-53.5 609.6,-53.5 643.93,-53.5 643.93,-53.5 647.1,-53.5 650.26,-56.67 650.26,-59.83 650.26,-59.83 650.26,-66.17 650.26,-66.17 650.26,-69.33 647.1,-72.5 643.93,-72.5"/>
<text text-anchor="middle" x="626.76" y="-60.5" font-family="Arial" font-size="10.00">Pbinop</text>
</a>
</g>
</g>
<!-- supriya.patterns.patterns.Prand -->
<g id="node19" class="node">
<title>supriya.patterns.patterns.Prand</title>
<g id="a_node19"><a xlink:href="../api/supriya/patterns/patterns.html#supriya.patterns.patterns.Prand" xlink:title="Prand" target="_top">
<path fill="#ffffcc" stroke="#ffffcc" stroke-width="2" d="M784.93,-146.5C784.93,-146.5 755.6,-146.5 755.6,-146.5 752.43,-146.5 749.26,-143.33 749.26,-140.17 749.26,-140.17 749.26,-133.83 749.26,-133.83 749.26,-130.67 752.43,-127.5 755.6,-127.5 755.6,-127.5 784.93,-127.5 784.93,-127.5 788.1,-127.5 791.26,-130.67 791.26,-133.83 791.26,-133.83 791.26,-140.17 791.26,-140.17 791.26,-143.33 788.1,-146.5 784.93,-146.5"/>
<text text-anchor="middle" x="770.26" y="-134.5" font-family="Arial" font-size="10.00">Prand</text>
</a>
</g>
</g>
<!-- supriya.patterns.patterns.Pseed -->
<g id="node20" class="node">
<title>supriya.patterns.patterns.Pseed</title>
<g id="a_node20"><a xlink:href="../api/supriya/patterns/patterns.html#supriya.patterns.patterns.Pseed" xlink:title="Pseed" target="_top">
<path fill="#ffffcc" stroke="#ffffcc" stroke-width="2" d="M642.43,-35.5C642.43,-35.5 611.1,-35.5 611.1,-35.5 607.93,-35.5 604.76,-32.33 604.76,-29.17 604.76,-29.17 604.76,-22.83 604.76,-22.83 604.76,-19.67 607.93,-16.5 611.1,-16.5 611.1,-16.5 642.43,-16.5 642.43,-16.5 645.6,-16.5 648.76,-19.67 648.76,-22.83 648.76,-22.83 648.76,-29.17 648.76,-29.17 648.76,-32.33 645.6,-35.5 642.43,-35.5"/>
<text text-anchor="middle" x="626.76" y="-23.5" font-family="Arial" font-size="10.00">Pseed</text>
</a>
</g>
</g>
<!-- supriya.patterns.patterns.Pseq -->
<g id="node21" class="node">
<title>supriya.patterns.patterns.Pseq</title>
<g id="a_node21"><a xlink:href="../api/supriya/patterns/patterns.html#supriya.patterns.patterns.Pseq" xlink:title="Pseq" target="_top">
<path fill="#ffffcc" stroke="#ffffcc" stroke-width="2" d="M639.93,-146.5C639.93,-146.5 613.6,-146.5 613.6,-146.5 610.43,-146.5 607.26,-143.33 607.26,-140.17 607.26,-140.17 607.26,-133.83 607.26,-133.83 607.26,-130.67 610.43,-127.5 613.6,-127.5 613.6,-127.5 639.93,-127.5 639.93,-127.5 643.1,-127.5 646.26,-130.67 646.26,-133.83 646.26,-133.83 646.26,-140.17 646.26,-140.17 646.26,-143.33 643.1,-146.5 639.93,-146.5"/>
<text text-anchor="middle" x="626.76" y="-134.5" font-family="Arial" font-size="10.00">Pseq</text>
</a>
</g>
</g>
<!-- supriya.patterns.patterns.Pwhite -->
<g id="node22" class="node">
<title>supriya.patterns.patterns.Pwhite</title>
<g id="a_node22"><a xlink:href="../api/supriya/patterns/patterns.html#supriya.patterns.patterns.Pwhite" xlink:title="Pwhite" target="_top">
<path fill="#ffffcc" stroke="#ffffcc" stroke-width="2" d="M643.93,-109.5C643.93,-109.5 609.6,-109.5 609.6,-109.5 606.43,-109.5 603.26,-106.33 603.26,-103.17 603.26,-103.17 603.26,-96.83 603.26,-96.83 603.26,-93.67 606.43,-90.5 609.6,-90.5 609.6,-90.5 643.93,-90.5 643.93,-90.5 647.1,-90.5 650.26,-93.67 650.26,-96.83 650.26,-96.83 650.26,-103.17 650.26,-103.17 650.26,-106.33 647.1,-109.5 643.93,-109.5"/>
<text text-anchor="middle" x="626.76" y="-97.5" font-family="Arial" font-size="10.00">Pwhite</text>
</a>
</g>
</g>
<!-- supriya.patterns.players.EventPlayer -->
<g id="node23" class="node">
<title>supriya.patterns.players.EventPlayer</title>
<g id="a_node23"><a xlink:href="../api/supriya/patterns/players.html#supriya.patterns.players.EventPlayer" xlink:title="Event\nPlayer" target="_top">
<path fill="#e5d8bd" stroke="#e5d8bd" stroke-width="2" d="M386.94,-343C386.94,-343 362.94,-343 362.94,-343 357.94,-343 352.94,-338 352.94,-333 352.94,-333 352.94,-323 352.94,-323 352.94,-318 357.94,-313 362.94,-313 362.94,-313 386.94,-313 386.94,-313 391.94,-313 396.94,-318 396.94,-323 396.94,-323 396.94,-333 396.94,-333 396.94,-338 391.94,-343 386.94,-343"/>
<text text-anchor="middle" x="374.94" y="-331" font-family="Arial" font-size="10.00">Event</text>
<text text-anchor="middle" x="374.94" y="-320" font-family="Arial" font-size="10.00">Player</text>
</a>
</g>
</g>
<!-- supriya.patterns.players.EventProduct -->
<g id="node24" class="node">
<title>supriya.patterns.players.EventProduct</title>
<g id="a_node24"><a xlink:href="../api/supriya/patterns/players.html#supriya.patterns.players.EventProduct" xlink:title="Event\nProduct" target="_top">
<path fill="#e5d8bd" stroke="#e5d8bd" stroke-width="2" d="M389.94,-391C389.94,-391 359.94,-391 359.94,-391 354.94,-391 349.94,-386 349.94,-381 349.94,-381 349.94,-371 349.94,-371 349.94,-366 354.94,-361 359.94,-361 359.94,-361 389.94,-361 389.94,-361 394.94,-361 399.94,-366 399.94,-371 399.94,-371 399.94,-381 399.94,-381 399.94,-386 394.94,-391 389.94,-391"/>
<text text-anchor="middle" x="374.94" y="-379" font-family="Arial" font-size="10.00">Event</text>
<text text-anchor="middle" x="374.94" y="-368" font-family="Arial" font-size="10.00">Product</text>
</a>
</g>
</g>
<!-- supriya.patterns.random.RandomNumberGenerator -->
<g id="node25" class="node">
<title>supriya.patterns.random.RandomNumberGenerator</title>
<g id="a_node25"><a xlink:href="../api/supriya/patterns/random.html#supriya.patterns.random.RandomNumberGenerator" xlink:title="Random\nNumber\nGenerator" target="_top">
<path fill="black" stroke="black" stroke-width="2" d="M251,-393.5C251,-393.5 216,-393.5 216,-393.5 210,-393.5 204,-387.5 204,-381.5 204,-381.5 204,-364.5 204,-364.5 204,-358.5 210,-352.5 216,-352.5 216,-352.5 251,-352.5 251,-352.5 257,-352.5 263,-358.5 263,-364.5 263,-364.5 263,-381.5 263,-381.5 263,-387.5 257,-393.5 251,-393.5"/>
<text text-anchor="middle" x="233.5" y="-381.5" font-family="Arial" font-size="10.00" fill="white">Random</text>
<text text-anchor="middle" x="233.5" y="-370.5" font-family="Arial" font-size="10.00" fill="white">Number</text>
<text text-anchor="middle" x="233.5" y="-359.5" font-family="Arial" font-size="10.00" fill="white">Generator</text>
</a>
</g>
</g>
<!-- supriya.patterns.structure.Pbus -->
<g id="node26" class="node">
<title>supriya.patterns.structure.Pbus</title>
<g id="a_node26"><a xlink:href="../api/supriya/patterns/structure.html#supriya.patterns.structure.Pbus" xlink:title="Pbus" target="_top">
<path fill="#f2f2f2" stroke="#f2f2f2" stroke-width="2" d="M783.43,-567.5C783.43,-567.5 757.1,-567.5 757.1,-567.5 753.93,-567.5 750.76,-564.33 750.76,-561.17 750.76,-561.17 750.76,-554.83 750.76,-554.83 750.76,-551.67 753.93,-548.5 757.1,-548.5 757.1,-548.5 783.43,-548.5 783.43,-548.5 786.6,-548.5 789.76,-551.67 789.76,-554.83 789.76,-554.83 789.76,-561.17 789.76,-561.17 789.76,-564.33 786.6,-567.5 783.43,-567.5"/>
<text text-anchor="middle" x="770.26" y="-555.5" font-family="Arial" font-size="10.00">Pbus</text>
</a>
</g>
</g>
<!-- supriya.patterns.structure.Pfx -->
<g id="node27" class="node">
<title>supriya.patterns.structure.Pfx</title>
<g id="a_node27"><a xlink:href="../api/supriya/patterns/structure.html#supriya.patterns.structure.Pfx" xlink:title="Pfx" target="_top">
<path fill="#f2f2f2" stroke="#f2f2f2" stroke-width="2" d="M779.93,-530.5C779.93,-530.5 760.6,-530.5 760.6,-530.5 757.43,-530.5 754.26,-527.33 754.26,-524.17 754.26,-524.17 754.26,-517.83 754.26,-517.83 754.26,-514.67 757.43,-511.5 760.6,-511.5 760.6,-511.5 779.93,-511.5 779.93,-511.5 783.1,-511.5 786.26,-514.67 786.26,-517.83 786.26,-517.83 786.26,-524.17 786.26,-524.17 786.26,-527.33 783.1,-530.5 779.93,-530.5"/>
<text text-anchor="middle" x="770.26" y="-518.5" font-family="Arial" font-size="10.00">Pfx</text>
</a>
</g>
</g>
<!-- supriya.patterns.structure.Pgroup -->
<g id="node28" class="node">
<title>supriya.patterns.structure.Pgroup</title>
<g id="a_node28"><a xlink:href="../api/supriya/patterns/structure.html#supriya.patterns.structure.Pgroup" xlink:title="Pgroup" target="_top">
<path fill="#f2f2f2" stroke="#f2f2f2" stroke-width="2" d="M787.43,-493.5C787.43,-493.5 753.1,-493.5 753.1,-493.5 749.93,-493.5 746.76,-490.33 746.76,-487.17 746.76,-487.17 746.76,-480.83 746.76,-480.83 746.76,-477.67 749.93,-474.5 753.1,-474.5 753.1,-474.5 787.43,-474.5 787.43,-474.5 790.6,-474.5 793.76,-477.67 793.76,-480.83 793.76,-480.83 793.76,-487.17 793.76,-487.17 793.76,-490.33 790.6,-493.5 787.43,-493.5"/>
<text text-anchor="middle" x="770.26" y="-481.5" font-family="Arial" font-size="10.00">Pgroup</text>
</a>
</g>
</g>
<!-- supriya.system.SupriyaObject -->
<g id="node29" class="node">
<title>supriya.system.SupriyaObject</title>
<g id="a_node29"><a xlink:href="../api/supriya/patterns/../system.html#supriya.system.SupriyaObject" xlink:title="Supriya\nObject" target="_top">
<path fill="#fbb4ae" stroke="#fbb4ae" stroke-width="2" d="M135,-467C135,-467 105,-467 105,-467 100,-467 95,-462 95,-457 95,-457 95,-447 95,-447 95,-442 100,-437 105,-437 105,-437 135,-437 135,-437 140,-437 145,-442 145,-447 145,-447 145,-457 145,-457 145,-462 140,-467 135,-467"/>
<text text-anchor="middle" x="120" y="-455" font-family="Arial" font-size="10.00">Supriya</text>
<text text-anchor="middle" x="120" y="-444" font-family="Arial" font-size="10.00">Object</text>
</a>
</g>
</g>
<!-- supriya.system.SupriyaValueObject -->
<g id="node30" class="node">
<title>supriya.system.SupriyaValueObject</title>
<g id="a_node30"><a xlink:href="../api/supriya/patterns/../system.html#supriya.system.SupriyaValueObject" xlink:title="Supriya\nValue\nObject" target="_top">
<path fill="#fbb4ae" stroke="#fbb4ae" stroke-width="2" d="M246.5,-478.5C246.5,-478.5 220.5,-478.5 220.5,-478.5 214.5,-478.5 208.5,-472.5 208.5,-466.5 208.5,-466.5 208.5,-449.5 208.5,-449.5 208.5,-443.5 214.5,-437.5 220.5,-437.5 220.5,-437.5 246.5,-437.5 246.5,-437.5 252.5,-437.5 258.5,-443.5 258.5,-449.5 258.5,-449.5 258.5,-466.5 258.5,-466.5 258.5,-472.5 252.5,-478.5 246.5,-478.5"/>
<text text-anchor="middle" x="233.5" y="-466.5" font-family="Arial" font-size="10.00">Supriya</text>
<text text-anchor="middle" x="233.5" y="-455.5" font-family="Arial" font-size="10.00">Value</text>
<text text-anchor="middle" x="233.5" y="-444.5" font-family="Arial" font-size="10.00">Object</text>
</a>
</g>
</g>
</g>
</svg>
