<?xml version="1.0" encoding="UTF-8" standalone="no"?>
<!DOCTYPE svg PUBLIC "-//W3C//DTD SVG 1.1//EN"
 "http://www.w3.org/Graphics/SVG/1.1/DTD/svg11.dtd">
<!-- Generated by graphviz version 2.40.1 (20161225.0304)
 -->
<!-- Title: InheritanceGraph Pages: 1 -->
<svg width="399pt" height="101pt"
 viewBox="0.00 0.00 399.00 101.00" xmlns="http://www.w3.org/2000/svg" xmlns:xlink="http://www.w3.org/1999/xlink">
<g id="graph0" class="graph" transform="scale(1 1) rotate(0) translate(4 97)">
<title>InheritanceGraph</title>
<g id="clust1" class="cluster">
<title>cluster_builtins</title>
<path fill="transparent" stroke="#bcd2ee" stroke-width="2" stroke-dasharray="5,2" d="M20,-19C20,-19 49,-19 49,-19 55,-19 61,-25 61,-31 61,-31 61,-62 61,-62 61,-68 55,-74 49,-74 49,-74 20,-74 20,-74 14,-74 8,-68 8,-62 8,-62 8,-31 8,-31 8,-25 14,-19 20,-19"/>
<text text-anchor="middle" x="34.5" y="-62" font-family="Arial" font-size="10.00" fill="#000000">builtins</text>
</g>
<g id="clust2" class="cluster">
<title>cluster_supriya.daw</title>
<path fill="transparent" stroke="#bcd2ee" stroke-width="2" stroke-dasharray="5,2" d="M330,-8C330,-8 371,-8 371,-8 377,-8 383,-14 383,-20 383,-20 383,-73 383,-73 383,-79 377,-85 371,-85 371,-85 330,-85 330,-85 324,-85 318,-79 318,-73 318,-73 318,-20 318,-20 318,-14 324,-8 330,-8"/>
<text text-anchor="middle" x="350.5" y="-73" font-family="Arial" font-size="10.00" fill="#000000">supriya.daw</text>
</g>
<g id="clust3" class="cluster">
<title>cluster_uqbar.containers</title>
<path fill="transparent" stroke="#bcd2ee" stroke-width="2" stroke-dasharray="5,2" d="M93,-8C93,-8 286,-8 286,-8 292,-8 298,-14 298,-20 298,-20 298,-73 298,-73 298,-79 292,-85 286,-85 286,-85 93,-85 93,-85 87,-85 81,-79 81,-73 81,-73 81,-20 81,-20 81,-14 87,-8 93,-8"/>
<text text-anchor="middle" x="189.5" y="-73" font-family="Arial" font-size="10.00" fill="#000000">uqbar.containers</text>
</g>
<!-- builtins.object&#45;&gt;uqbar.containers.UniqueTreeNode.UniqueTreeNode -->
<g id="edge3" class="edge">
<title>builtins.object&#45;&gt;uqbar.containers.UniqueTreeNode.UniqueTreeNode</title>
<path fill="none" stroke="#778899" d="M53.2995,-37C61.0221,-37 70.1602,-37 78.7776,-37"/>
<polygon fill="#778899" stroke="#778899" points="78.9006,-40.5001 88.9006,-37 78.9005,-33.5001 78.9006,-40.5001"/>
</g>
<!-- uqbar.containers.UniqueTreeContainer.UniqueTreeContainer&#45;&gt;uqbar.containers.UniqueTreeList.UniqueTreeList -->
<g id="edge1" class="edge">
<title>uqbar.containers.UniqueTreeContainer.UniqueTreeContainer&#45;&gt;uqbar.containers.UniqueTreeList.UniqueTreeList</title>
<path fill="none" stroke="#778899" d="M214.0901,-37C222.1527,-37 231.2086,-37 239.6459,-37"/>
<polygon fill="#778899" stroke="#778899" points="239.8812,-40.5001 249.8811,-37 239.8811,-33.5001 239.8812,-40.5001"/>
</g>
<!-- uqbar.containers.UniqueTreeList.UniqueTreeList&#45;&gt;supriya.daw.ClipSlotContainer.ClipSlotContainer -->
<g id="edge4" class="edge">
<title>uqbar.containers.UniqueTreeList.UniqueTreeList&#45;&gt;supriya.daw.ClipSlotContainer.ClipSlotContainer</title>
<path fill="none" stroke="#778899" d="M290.3135,-37C297.9959,-37 306.9745,-37 315.617,-37"/>
<polygon fill="#778899" stroke="#778899" points="315.8826,-40.5001 325.8825,-37 315.8825,-33.5001 315.8826,-40.5001"/>
</g>
<!-- uqbar.containers.UniqueTreeNode.UniqueTreeNode&#45;&gt;uqbar.containers.UniqueTreeContainer.UniqueTreeContainer -->
<g id="edge2" class="edge">
<title>uqbar.containers.UniqueTreeNode.UniqueTreeNode&#45;&gt;uqbar.containers.UniqueTreeContainer.UniqueTreeContainer</title>
<path fill="none" stroke="#778899" d="M129.3135,-37C136.9959,-37 145.9745,-37 154.617,-37"/>
<polygon fill="#778899" stroke="#778899" points="154.8826,-40.5001 164.8825,-37 154.8825,-33.5001 154.8826,-40.5001"/>
</g>
<!-- builtins.object -->
<g id="node1" class="node">
<title>builtins.object</title>
<g id="a_node1"><a xlink:href="https://docs.python.org/3.6/library/functions.html#object" xlink:title="object" target="_top">
<path fill="#fbb4ae" stroke="#fbb4ae" stroke-width="2" d="M46.6667,-46.5C46.6667,-46.5 22.3333,-46.5 22.3333,-46.5 19.1667,-46.5 16,-43.3333 16,-40.1667 16,-40.1667 16,-33.8333 16,-33.8333 16,-30.6667 19.1667,-27.5 22.3333,-27.5 22.3333,-27.5 46.6667,-27.5 46.6667,-27.5 49.8333,-27.5 53,-30.6667 53,-33.8333 53,-33.8333 53,-40.1667 53,-40.1667 53,-43.3333 49.8333,-46.5 46.6667,-46.5"/>
<text text-anchor="middle" x="34.5" y="-34.5" font-family="Arial" font-size="10.00" fill="#000000">object</text>
</a>
</g>
</g>
<!-- supriya.daw.ClipSlotContainer.ClipSlotContainer -->
<g id="node2" class="node">
<title>supriya.daw.ClipSlotContainer.ClipSlotContainer</title>
<g id="a_node2"><a xlink:href="../api/supriya/daw/ClipSlotContainer.html#supriya.daw.ClipSlotContainer.ClipSlotContainer" xlink:title="Clip\nSlot\nContainer" target="_top">
<path fill="#000000" stroke="#000000" stroke-width="2" d="M363,-57.5C363,-57.5 338,-57.5 338,-57.5 332,-57.5 326,-51.5 326,-45.5 326,-45.5 326,-28.5 326,-28.5 326,-22.5 332,-16.5 338,-16.5 338,-16.5 363,-16.5 363,-16.5 369,-16.5 375,-22.5 375,-28.5 375,-28.5 375,-45.5 375,-45.5 375,-51.5 369,-57.5 363,-57.5"/>
<text text-anchor="middle" x="350.5" y="-45.5" font-family="Arial" font-size="10.00" fill="#ffffff">Clip</text>
<text text-anchor="middle" x="350.5" y="-34.5" font-family="Arial" font-size="10.00" fill="#ffffff">Slot</text>
<text text-anchor="middle" x="350.5" y="-23.5" font-family="Arial" font-size="10.00" fill="#ffffff">Container</text>
</a>
</g>
</g>
<!-- uqbar.containers.UniqueTreeContainer.UniqueTreeContainer -->
<g id="node3" class="node">
<title>uqbar.containers.UniqueTreeContainer.UniqueTreeContainer</title>
<path fill="#ccebc5" stroke="#ccebc5" stroke-width="2" d="M202,-57.5C202,-57.5 177,-57.5 177,-57.5 171,-57.5 165,-51.5 165,-45.5 165,-45.5 165,-28.5 165,-28.5 165,-22.5 171,-16.5 177,-16.5 177,-16.5 202,-16.5 202,-16.5 208,-16.5 214,-22.5 214,-28.5 214,-28.5 214,-45.5 214,-45.5 214,-51.5 208,-57.5 202,-57.5"/>
<text text-anchor="middle" x="189.5" y="-45.5" font-family="Arial" font-size="10.00" fill="#000000">Unique</text>
<text text-anchor="middle" x="189.5" y="-34.5" font-family="Arial" font-size="10.00" fill="#000000">Tree</text>
<text text-anchor="middle" x="189.5" y="-23.5" font-family="Arial" font-size="10.00" fill="#000000">Container</text>
</g>
<!-- uqbar.containers.UniqueTreeList.UniqueTreeList -->
<g id="node4" class="node">
<title>uqbar.containers.UniqueTreeList.UniqueTreeList</title>
<path fill="#ccebc5" stroke="#ccebc5" stroke-width="2" d="M278,-57.5C278,-57.5 262,-57.5 262,-57.5 256,-57.5 250,-51.5 250,-45.5 250,-45.5 250,-28.5 250,-28.5 250,-22.5 256,-16.5 262,-16.5 262,-16.5 278,-16.5 278,-16.5 284,-16.5 290,-22.5 290,-28.5 290,-28.5 290,-45.5 290,-45.5 290,-51.5 284,-57.5 278,-57.5"/>
<text text-anchor="middle" x="270" y="-45.5" font-family="Arial" font-size="10.00" fill="#000000">Unique</text>
<text text-anchor="middle" x="270" y="-34.5" font-family="Arial" font-size="10.00" fill="#000000">Tree</text>
<text text-anchor="middle" x="270" y="-23.5" font-family="Arial" font-size="10.00" fill="#000000">List</text>
</g>
<!-- uqbar.containers.UniqueTreeNode.UniqueTreeNode -->
<g id="node5" class="node">
<title>uqbar.containers.UniqueTreeNode.UniqueTreeNode</title>
<path fill="#ccebc5" stroke="#ccebc5" stroke-width="2" d="M117,-57.5C117,-57.5 101,-57.5 101,-57.5 95,-57.5 89,-51.5 89,-45.5 89,-45.5 89,-28.5 89,-28.5 89,-22.5 95,-16.5 101,-16.5 101,-16.5 117,-16.5 117,-16.5 123,-16.5 129,-22.5 129,-28.5 129,-28.5 129,-45.5 129,-45.5 129,-51.5 123,-57.5 117,-57.5"/>
<text text-anchor="middle" x="109" y="-45.5" font-family="Arial" font-size="10.00" fill="#000000">Unique</text>
<text text-anchor="middle" x="109" y="-34.5" font-family="Arial" font-size="10.00" fill="#000000">Tree</text>
<text text-anchor="middle" x="109" y="-23.5" font-family="Arial" font-size="10.00" fill="#000000">Node</text>
</g>
</g>
</svg>
