<?xml version="1.0" encoding="UTF-8" standalone="no"?>
<!DOCTYPE svg PUBLIC "-//W3C//DTD SVG 1.1//EN"
 "http://www.w3.org/Graphics/SVG/1.1/DTD/svg11.dtd">
<!-- Generated by graphviz version 2.40.1 (20161225.0304)
 -->
<!-- Title: InheritanceGraph Pages: 1 -->
<svg width="480pt" height="233pt"
 viewBox="0.00 0.00 480.00 233.00" xmlns="http://www.w3.org/2000/svg" xmlns:xlink="http://www.w3.org/1999/xlink">
<g id="graph0" class="graph" transform="scale(1 1) rotate(0) translate(4 229)">
<title>InheritanceGraph</title>
<g id="clust1" class="cluster">
<title>cluster_builtins</title>
<path fill="transparent" stroke="#bcd2ee" stroke-width="2" stroke-dasharray="5,2" d="M20,-85C20,-85 49,-85 49,-85 55,-85 61,-91 61,-97 61,-97 61,-128 61,-128 61,-134 55,-140 49,-140 49,-140 20,-140 20,-140 14,-140 8,-134 8,-128 8,-128 8,-97 8,-97 8,-91 14,-85 20,-85"/>
<text text-anchor="middle" x="34.5" y="-128" font-family="Arial" font-size="10.00" fill="#000000">builtins</text>
</g>
<g id="clust2" class="cluster">
<title>cluster_supriya.daw</title>
<path fill="transparent" stroke="#bcd2ee" stroke-width="2" stroke-dasharray="5,2" d="M185,-8C185,-8 452,-8 452,-8 458,-8 464,-14 464,-20 464,-20 464,-205 464,-205 464,-211 458,-217 452,-217 452,-217 185,-217 185,-217 179,-217 173,-211 173,-205 173,-205 173,-20 173,-20 173,-14 179,-8 185,-8"/>
<text text-anchor="middle" x="318.5" y="-205" font-family="Arial" font-size="10.00" fill="#000000">supriya.daw</text>
</g>
<g id="clust3" class="cluster">
<title>cluster_uqbar.containers</title>
<path fill="transparent" stroke="#bcd2ee" stroke-width="2" stroke-dasharray="5,2" d="M93,-74C93,-74 141,-74 141,-74 147,-74 153,-80 153,-86 153,-86 153,-139 153,-139 153,-145 147,-151 141,-151 141,-151 93,-151 93,-151 87,-151 81,-145 81,-139 81,-139 81,-86 81,-86 81,-80 87,-74 93,-74"/>
<text text-anchor="middle" x="117" y="-139" font-family="Arial" font-size="10.00" fill="#000000">uqbar.containers</text>
</g>
<!-- builtins.object&#45;&gt;uqbar.containers.UniqueTreeNode.UniqueTreeNode -->
<g id="edge7" class="edge">
<title>builtins.object&#45;&gt;uqbar.containers.UniqueTreeNode.UniqueTreeNode</title>
<path fill="none" stroke="#778899" d="M53.2205,-103C63.092,-103 75.4465,-103 86.6465,-103"/>
<polygon fill="#778899" stroke="#778899" points="86.9122,-106.5001 96.9122,-103 86.9122,-99.5001 86.9122,-106.5001"/>
</g>
<!-- supriya.daw.DawNode.DawNode&#45;&gt;supriya.daw.Device.Device -->
<g id="edge1" class="edge">
<title>supriya.daw.DawNode.DawNode&#45;&gt;supriya.daw.Device.Device</title>
<path fill="none" stroke="#778899" d="M215.1815,-103C222.8025,-103 231.9953,-103 240.6796,-103"/>
<polygon fill="#778899" stroke="#778899" points="240.8805,-106.5001 250.8805,-103 240.8804,-99.5001 240.8805,-106.5001"/>
</g>
<!-- supriya.daw.Device.Device&#45;&gt;supriya.daw.MidiDevice.MidiDevice -->
<g id="edge2" class="edge">
<title>supriya.daw.Device.Device&#45;&gt;supriya.daw.MidiDevice.MidiDevice</title>
<path fill="none" stroke="#778899" d="M290.2054,-103C298.0426,-103 307.2298,-103 315.8397,-103"/>
<polygon fill="#778899" stroke="#778899" points="315.9263,-106.5001 325.9262,-103 315.9262,-99.5001 315.9263,-106.5001"/>
</g>
<!-- supriya.daw.MidiDevice.MidiDevice&#45;&gt;supriya.daw.ArpeggiatorDevice.ArpeggiatorDevice -->
<g id="edge3" class="edge">
<title>supriya.daw.MidiDevice.MidiDevice&#45;&gt;supriya.daw.ArpeggiatorDevice.ArpeggiatorDevice</title>
<path fill="none" stroke="#778899" d="M363.1022,-87.7307C374.8454,-77.5437 390.4615,-63.9973 403.4888,-52.6965"/>
<polygon fill="#778899" stroke="#778899" points="405.9474,-55.1971 411.2078,-46.0004 401.3604,-49.9094 405.9474,-55.1971"/>
</g>
<!-- supriya.daw.MidiDevice.MidiDevice&#45;&gt;supriya.daw.ChordDevice.ChordDevice -->
<g id="edge4" class="edge">
<title>supriya.daw.MidiDevice.MidiDevice&#45;&gt;supriya.daw.ChordDevice.ChordDevice</title>
<path fill="none" stroke="#778899" d="M365.1698,-97.3123C375.2997,-94.3832 387.8555,-90.7526 399.1093,-87.4985"/>
<polygon fill="#778899" stroke="#778899" points="400.3371,-90.7869 408.9713,-84.6468 398.3926,-84.0624 400.3371,-90.7869"/>
</g>
<!-- supriya.daw.MidiDevice.MidiDevice&#45;&gt;supriya.daw.ScaleDevice.ScaleDevice -->
<g id="edge5" class="edge">
<title>supriya.daw.MidiDevice.MidiDevice&#45;&gt;supriya.daw.ScaleDevice.ScaleDevice</title>
<path fill="none" stroke="#778899" d="M365.1698,-108.6877C375.2997,-111.6168 387.8555,-115.2474 399.1093,-118.5015"/>
<polygon fill="#778899" stroke="#778899" points="398.3926,-121.9376 408.9713,-121.3532 400.3371,-115.2131 398.3926,-121.9376"/>
</g>
<!-- supriya.daw.MidiDevice.MidiDevice&#45;&gt;supriya.daw.VelocityDevice.VelocityDevice -->
<g id="edge6" class="edge">
<title>supriya.daw.MidiDevice.MidiDevice&#45;&gt;supriya.daw.VelocityDevice.VelocityDevice</title>
<path fill="none" stroke="#778899" d="M363.1022,-118.2693C374.8454,-128.4563 390.4615,-142.0027 403.4888,-153.3035"/>
<polygon fill="#778899" stroke="#778899" points="401.3604,-156.0906 411.2078,-159.9996 405.9474,-150.8029 401.3604,-156.0906"/>
</g>
<!-- uqbar.containers.UniqueTreeNode.UniqueTreeNode&#45;&gt;supriya.daw.DawNode.DawNode -->
<g id="edge8" class="edge">
<title>uqbar.containers.UniqueTreeNode.UniqueTreeNode&#45;&gt;supriya.daw.DawNode.DawNode</title>
<path fill="none" stroke="#778899" d="M137.0225,-103C147.2472,-103 159.8349,-103 170.9131,-103"/>
<polygon fill="#778899" stroke="#778899" points="170.9457,-106.5001 180.9457,-103 170.9456,-99.5001 170.9457,-106.5001"/>
</g>
<!-- builtins.object -->
<g id="node1" class="node">
<title>builtins.object</title>
<g id="a_node1"><a xlink:href="https://docs.python.org/3.6/library/functions.html#object" xlink:title="object" target="_top">
<path fill="#fbb4ae" stroke="#fbb4ae" stroke-width="2" d="M46.6667,-112.5C46.6667,-112.5 22.3333,-112.5 22.3333,-112.5 19.1667,-112.5 16,-109.3333 16,-106.1667 16,-106.1667 16,-99.8333 16,-99.8333 16,-96.6667 19.1667,-93.5 22.3333,-93.5 22.3333,-93.5 46.6667,-93.5 46.6667,-93.5 49.8333,-93.5 53,-96.6667 53,-99.8333 53,-99.8333 53,-106.1667 53,-106.1667 53,-109.3333 49.8333,-112.5 46.6667,-112.5"/>
<text text-anchor="middle" x="34.5" y="-100.5" font-family="Arial" font-size="10.00" fill="#000000">object</text>
</a>
</g>
</g>
<!-- supriya.daw.ArpeggiatorDevice.ArpeggiatorDevice -->
<g id="node2" class="node">
<title>supriya.daw.ArpeggiatorDevice.ArpeggiatorDevice</title>
<g id="a_node2"><a xlink:href="../api/supriya/daw/ArpeggiatorDevice.html#supriya.daw.ArpeggiatorDevice.ArpeggiatorDevice" xlink:title="Arpeggiator\nDevice" target="_top">
<path fill="#b3cde3" stroke="#b3cde3" stroke-width="2" d="M446,-46C446,-46 411,-46 411,-46 406,-46 401,-41 401,-36 401,-36 401,-26 401,-26 401,-21 406,-16 411,-16 411,-16 446,-16 446,-16 451,-16 456,-21 456,-26 456,-26 456,-36 456,-36 456,-41 451,-46 446,-46"/>
<text text-anchor="middle" x="428.5" y="-34" font-family="Arial" font-size="10.00" fill="#000000">Arpeggiator</text>
<text text-anchor="middle" x="428.5" y="-23" font-family="Arial" font-size="10.00" fill="#000000">Device</text>
</a>
</g>
</g>
<!-- supriya.daw.ChordDevice.ChordDevice -->
<g id="node3" class="node">
<title>supriya.daw.ChordDevice.ChordDevice</title>
<g id="a_node3"><a xlink:href="../api/supriya/daw/ChordDevice.html#supriya.daw.ChordDevice.ChordDevice" xlink:title="Chord\nDevice" target="_top">
<path fill="#b3cde3" stroke="#b3cde3" stroke-width="2" d="M438,-94C438,-94 419,-94 419,-94 414,-94 409,-89 409,-84 409,-84 409,-74 409,-74 409,-69 414,-64 419,-64 419,-64 438,-64 438,-64 443,-64 448,-69 448,-74 448,-74 448,-84 448,-84 448,-89 443,-94 438,-94"/>
<text text-anchor="middle" x="428.5" y="-82" font-family="Arial" font-size="10.00" fill="#000000">Chord</text>
<text text-anchor="middle" x="428.5" y="-71" font-family="Arial" font-size="10.00" fill="#000000">Device</text>
</a>
</g>
</g>
<!-- supriya.daw.DawNode.DawNode -->
<g id="node4" class="node">
<title>supriya.daw.DawNode.DawNode</title>
<g id="a_node4"><a xlink:href="../api/supriya/daw/DawNode.html#supriya.daw.DawNode.DawNode" xlink:title="Daw\nNode" target="_top">
<path fill="#b3cde3" stroke="#b3cde3" stroke-width="2" d="M205,-118C205,-118 191,-118 191,-118 186,-118 181,-113 181,-108 181,-108 181,-98 181,-98 181,-93 186,-88 191,-88 191,-88 205,-88 205,-88 210,-88 215,-93 215,-98 215,-98 215,-108 215,-108 215,-113 210,-118 205,-118"/>
<text text-anchor="middle" x="198" y="-106" font-family="Arial" font-size="10.00" fill="#000000">Daw</text>
<text text-anchor="middle" x="198" y="-95" font-family="Arial" font-size="10.00" fill="#000000">Node</text>
</a>
</g>
</g>
<!-- supriya.daw.Device.Device -->
<g id="node5" class="node">
<title>supriya.daw.Device.Device</title>
<g id="a_node5"><a xlink:href="../api/supriya/daw/Device.html#supriya.daw.Device.Device" xlink:title="Device" target="_top">
<path fill="#b3cde3" stroke="#b3cde3" stroke-width="2" d="M283.6667,-112.5C283.6667,-112.5 257.3333,-112.5 257.3333,-112.5 254.1667,-112.5 251,-109.3333 251,-106.1667 251,-106.1667 251,-99.8333 251,-99.8333 251,-96.6667 254.1667,-93.5 257.3333,-93.5 257.3333,-93.5 283.6667,-93.5 283.6667,-93.5 286.8333,-93.5 290,-96.6667 290,-99.8333 290,-99.8333 290,-106.1667 290,-106.1667 290,-109.3333 286.8333,-112.5 283.6667,-112.5"/>
<text text-anchor="middle" x="270.5" y="-100.5" font-family="Arial" font-size="10.00" fill="#000000">Device</text>
</a>
</g>
</g>
<!-- supriya.daw.MidiDevice.MidiDevice -->
<g id="node6" class="node">
<title>supriya.daw.MidiDevice.MidiDevice</title>
<g id="a_node6"><a xlink:href="../api/supriya/daw/MidiDevice.html#supriya.daw.MidiDevice.MidiDevice" xlink:title="Midi\nDevice" target="_top">
<path fill="#000000" stroke="#000000" stroke-width="2" d="M355,-118C355,-118 336,-118 336,-118 331,-118 326,-113 326,-108 326,-108 326,-98 326,-98 326,-93 331,-88 336,-88 336,-88 355,-88 355,-88 360,-88 365,-93 365,-98 365,-98 365,-108 365,-108 365,-113 360,-118 355,-118"/>
<text text-anchor="middle" x="345.5" y="-106" font-family="Arial" font-size="10.00" fill="#ffffff">Midi</text>
<text text-anchor="middle" x="345.5" y="-95" font-family="Arial" font-size="10.00" fill="#ffffff">Device</text>
</a>
</g>
</g>
<!-- supriya.daw.ScaleDevice.ScaleDevice -->
<g id="node7" class="node">
<title>supriya.daw.ScaleDevice.ScaleDevice</title>
<g id="a_node7"><a xlink:href="../api/supriya/daw/ScaleDevice.html#supriya.daw.ScaleDevice.ScaleDevice" xlink:title="Scale\nDevice" target="_top">
<path fill="#b3cde3" stroke="#b3cde3" stroke-width="2" d="M438,-142C438,-142 419,-142 419,-142 414,-142 409,-137 409,-132 409,-132 409,-122 409,-122 409,-117 414,-112 419,-112 419,-112 438,-112 438,-112 443,-112 448,-117 448,-122 448,-122 448,-132 448,-132 448,-137 443,-142 438,-142"/>
<text text-anchor="middle" x="428.5" y="-130" font-family="Arial" font-size="10.00" fill="#000000">Scale</text>
<text text-anchor="middle" x="428.5" y="-119" font-family="Arial" font-size="10.00" fill="#000000">Device</text>
</a>
</g>
</g>
<!-- supriya.daw.VelocityDevice.VelocityDevice -->
<g id="node8" class="node">
<title>supriya.daw.VelocityDevice.VelocityDevice</title>
<g id="a_node8"><a xlink:href="../api/supriya/daw/VelocityDevice.html#supriya.daw.VelocityDevice.VelocityDevice" xlink:title="Velocity\nDevice" target="_top">
<path fill="#b3cde3" stroke="#b3cde3" stroke-width="2" d="M440,-190C440,-190 417,-190 417,-190 412,-190 407,-185 407,-180 407,-180 407,-170 407,-170 407,-165 412,-160 417,-160 417,-160 440,-160 440,-160 445,-160 450,-165 450,-170 450,-170 450,-180 450,-180 450,-185 445,-190 440,-190"/>
<text text-anchor="middle" x="428.5" y="-178" font-family="Arial" font-size="10.00" fill="#000000">Velocity</text>
<text text-anchor="middle" x="428.5" y="-167" font-family="Arial" font-size="10.00" fill="#000000">Device</text>
</a>
</g>
</g>
<!-- uqbar.containers.UniqueTreeNode.UniqueTreeNode -->
<g id="node9" class="node">
<title>uqbar.containers.UniqueTreeNode.UniqueTreeNode</title>
<path fill="#ccebc5" stroke="#ccebc5" stroke-width="2" d="M125,-123.5C125,-123.5 109,-123.5 109,-123.5 103,-123.5 97,-117.5 97,-111.5 97,-111.5 97,-94.5 97,-94.5 97,-88.5 103,-82.5 109,-82.5 109,-82.5 125,-82.5 125,-82.5 131,-82.5 137,-88.5 137,-94.5 137,-94.5 137,-111.5 137,-111.5 137,-117.5 131,-123.5 125,-123.5"/>
<text text-anchor="middle" x="117" y="-111.5" font-family="Arial" font-size="10.00" fill="#000000">Unique</text>
<text text-anchor="middle" x="117" y="-100.5" font-family="Arial" font-size="10.00" fill="#000000">Tree</text>
<text text-anchor="middle" x="117" y="-89.5" font-family="Arial" font-size="10.00" fill="#000000">Node</text>
</g>
</g>
</svg>
