<?xml version="1.0" encoding="UTF-8" standalone="no"?>
<!DOCTYPE svg PUBLIC "-//W3C//DTD SVG 1.1//EN"
 "http://www.w3.org/Graphics/SVG/1.1/DTD/svg11.dtd">
<!-- Generated by graphviz version 2.40.1 (20161225.0304)
 -->
<!-- Title: InheritanceGraph Pages: 1 -->
<svg width="643pt" height="273pt"
 viewBox="0.00 0.00 642.97 273.00" xmlns="http://www.w3.org/2000/svg" xmlns:xlink="http://www.w3.org/1999/xlink">
<g id="graph0" class="graph" transform="scale(1 1) rotate(0) translate(4 269)">
<title>InheritanceGraph</title>
<g id="clust1" class="cluster">
<title>cluster_builtins</title>
<path fill="transparent" stroke="#bcd2ee" stroke-width="2" stroke-dasharray="5,2" d="M20,-109C20,-109 49,-109 49,-109 55,-109 61,-115 61,-121 61,-121 61,-152 61,-152 61,-158 55,-164 49,-164 49,-164 20,-164 20,-164 14,-164 8,-158 8,-152 8,-152 8,-121 8,-121 8,-115 14,-109 20,-109"/>
<text text-anchor="middle" x="34.5" y="-152" font-family="Arial" font-size="10.00" fill="#000000">builtins</text>
</g>
<g id="clust2" class="cluster">
<title>cluster_supriya.patterns</title>
<path fill="transparent" stroke="#bcd2ee" stroke-width="2" stroke-dasharray="5,2" d="M249,-8C249,-8 614.9655,-8 614.9655,-8 620.9655,-8 626.9655,-14 626.9655,-20 626.9655,-20 626.9655,-245 626.9655,-245 626.9655,-251 620.9655,-257 614.9655,-257 614.9655,-257 249,-257 249,-257 243,-257 237,-251 237,-245 237,-245 237,-20 237,-20 237,-14 243,-8 249,-8"/>
<text text-anchor="middle" x="431.9828" y="-245" font-family="Arial" font-size="10.00" fill="#000000">supriya.patterns</text>
</g>
<g id="clust3" class="cluster">
<title>cluster_supriya.system</title>
<path fill="transparent" stroke="#bcd2ee" stroke-width="2" stroke-dasharray="5,2" d="M93,-98C93,-98 205,-98 205,-98 211,-98 217,-104 217,-110 217,-110 217,-163 217,-163 217,-169 211,-175 205,-175 205,-175 93,-175 93,-175 87,-175 81,-169 81,-163 81,-163 81,-110 81,-110 81,-104 87,-98 93,-98"/>
<text text-anchor="middle" x="149" y="-163" font-family="Arial" font-size="10.00" fill="#000000">supriya.system</text>
</g>
<!-- builtins.object&#45;&gt;supriya.system.SupriyaObject.SupriyaObject -->
<g id="edge13" class="edge">
<title>builtins.object&#45;&gt;supriya.system.SupriyaObject.SupriyaObject</title>
<path fill="none" stroke="#778899" d="M53.1629,-127C60.862,-127 69.9986,-127 78.6696,-127"/>
<polygon fill="#778899" stroke="#778899" points="78.8875,-130.5001 88.8875,-127 78.8874,-123.5001 78.8875,-130.5001"/>
</g>
<!-- supriya.patterns.EventPattern.EventPattern&#45;&gt;supriya.patterns.Pbind.Pbind -->
<g id="edge1" class="edge">
<title>supriya.patterns.EventPattern.EventPattern&#45;&gt;supriya.patterns.Pbind.Pbind</title>
<path fill="none" stroke="#778899" d="M383.196,-108.475C398.397,-89.9755 421.5891,-61.7509 436.5132,-43.5884"/>
<polygon fill="#778899" stroke="#778899" points="439.4597,-45.5155 443.1041,-35.5672 434.0513,-41.0715 439.4597,-45.5155"/>
</g>
<!-- supriya.patterns.EventPattern.EventPattern&#45;&gt;supriya.patterns.Pbindf.Pbindf -->
<g id="edge2" class="edge">
<title>supriya.patterns.EventPattern.EventPattern&#45;&gt;supriya.patterns.Pbindf.Pbindf</title>
<path fill="none" stroke="#778899" d="M381.6198,-108.2741C393.3933,-93.7896 411.8097,-74.7724 432.9655,-66 452.9096,-57.7301 477.4021,-57.3154 496.173,-58.788"/>
<polygon fill="#778899" stroke="#778899" points="495.917,-62.2798 506.2163,-59.795 496.6154,-55.3148 495.917,-62.2798"/>
</g>
<!-- supriya.patterns.EventPattern.EventPattern&#45;&gt;supriya.patterns.Pbus.Pbus -->
<g id="edge3" class="edge">
<title>supriya.patterns.EventPattern.EventPattern&#45;&gt;supriya.patterns.Pbus.Pbus</title>
<path fill="none" stroke="#778899" d="M391.9787,-114.5626C402.2413,-109.2453 414.251,-103.0228 424.7456,-97.5852"/>
<polygon fill="#778899" stroke="#778899" points="426.5952,-100.5689 433.864,-92.8607 423.3748,-94.3536 426.5952,-100.5689"/>
</g>
<!-- supriya.patterns.EventPattern.EventPattern&#45;&gt;supriya.patterns.Pchain.Pchain -->
<g id="edge4" class="edge">
<title>supriya.patterns.EventPattern.EventPattern&#45;&gt;supriya.patterns.Pchain.Pchain</title>
<path fill="none" stroke="#778899" d="M396.8605,-124.4322C424.8927,-121.9403 467.2451,-118.1754 495.6038,-115.6545"/>
<polygon fill="#778899" stroke="#778899" points="496.0775,-119.1263 505.7283,-114.7545 495.4577,-112.1538 496.0775,-119.1263"/>
</g>
<!-- supriya.patterns.EventPattern.EventPattern&#45;&gt;supriya.patterns.Pfx.Pfx -->
<g id="edge5" class="edge">
<title>supriya.patterns.EventPattern.EventPattern&#45;&gt;supriya.patterns.Pfx.Pfx</title>
<path fill="none" stroke="#778899" d="M396.5351,-132.1621C406.4826,-133.9601 417.5319,-135.9572 427.0621,-137.6797"/>
<polygon fill="#778899" stroke="#778899" points="426.5735,-141.148 437.0366,-139.4825 427.8186,-134.2596 426.5735,-141.148"/>
</g>
<!-- supriya.patterns.EventPattern.EventPattern&#45;&gt;supriya.patterns.Pgroup.Pgroup -->
<g id="edge6" class="edge">
<title>supriya.patterns.EventPattern.EventPattern&#45;&gt;supriya.patterns.Pgroup.Pgroup</title>
<path fill="none" stroke="#778899" d="M389.9417,-141.1369C402.1364,-148.2911 417.8568,-156.4116 432.9655,-161 452.9914,-167.0817 476.4416,-169.5688 494.7197,-170.5421"/>
<polygon fill="#778899" stroke="#778899" points="494.684,-174.0434 504.8189,-170.9559 494.9707,-167.0493 494.684,-174.0434"/>
</g>
<!-- supriya.patterns.EventPattern.EventPattern&#45;&gt;supriya.patterns.Pn.Pn -->
<g id="edge7" class="edge">
<title>supriya.patterns.EventPattern.EventPattern&#45;&gt;supriya.patterns.Pn.Pn</title>
<path fill="none" stroke="#778899" d="M386.8062,-143.5648C400.4301,-155.5485 418.7556,-171.6679 432.3333,-183.6109"/>
<polygon fill="#778899" stroke="#778899" points="430.269,-186.4564 440.0892,-190.4331 434.8922,-181.2004 430.269,-186.4564"/>
</g>
<!-- supriya.patterns.EventPattern.EventPattern&#45;&gt;supriya.patterns.Ppar.Ppar -->
<g id="edge8" class="edge">
<title>supriya.patterns.EventPattern.EventPattern&#45;&gt;supriya.patterns.Ppar.Ppar</title>
<path fill="none" stroke="#778899" d="M375.7661,-147.524C385.4275,-169.7099 404.221,-203.9149 432.9655,-219 453.3632,-229.7047 479.9425,-228.7276 499.3726,-225.7988"/>
<polygon fill="#778899" stroke="#778899" points="500.1104,-229.2227 509.347,-224.0326 498.8899,-222.3299 500.1104,-229.2227"/>
</g>
<!-- supriya.patterns.Pbind.Pbind&#45;&gt;supriya.patterns.Pmono.Pmono -->
<g id="edge10" class="edge">
<title>supriya.patterns.Pbind.Pbind&#45;&gt;supriya.patterns.Pmono.Pmono</title>
<path fill="none" stroke="#778899" d="M468.9999,-26C476.8617,-26 486.296,-26 495.1819,-26"/>
<polygon fill="#778899" stroke="#778899" points="495.2342,-29.5001 505.2341,-26 495.2341,-22.5001 495.2342,-29.5001"/>
</g>
<!-- supriya.patterns.Ppar.Ppar&#45;&gt;supriya.patterns.Pgpar.Pgpar -->
<g id="edge11" class="edge">
<title>supriya.patterns.Ppar.Ppar&#45;&gt;supriya.patterns.Pgpar.Pgpar</title>
<path fill="none" stroke="#778899" d="M541.7394,-220C550.5006,-220 561.5666,-220 571.7243,-220"/>
<polygon fill="#778899" stroke="#778899" points="571.8464,-223.5001 581.8464,-220 571.8464,-216.5001 571.8464,-223.5001"/>
</g>
<!-- supriya.patterns.Pattern.Pattern&#45;&gt;supriya.patterns.EventPattern.EventPattern -->
<g id="edge9" class="edge">
<title>supriya.patterns.Pattern.Pattern&#45;&gt;supriya.patterns.EventPattern.EventPattern</title>
<path fill="none" stroke="#778899" d="M303.2129,-127C311.2577,-127 320.1174,-127 328.6326,-127"/>
<polygon fill="#778899" stroke="#778899" points="328.7707,-130.5001 338.7707,-127 328.7706,-123.5001 328.7707,-130.5001"/>
</g>
<!-- supriya.system.SupriyaObject.SupriyaObject&#45;&gt;supriya.system.SupriyaValueObject.SupriyaValueObject -->
<g id="edge12" class="edge">
<title>supriya.system.SupriyaObject.SupriyaObject&#45;&gt;supriya.system.SupriyaValueObject.SupriyaValueObject</title>
<path fill="none" stroke="#778899" d="M131.3138,-127C139.2025,-127 148.316,-127 156.8971,-127"/>
<polygon fill="#778899" stroke="#778899" points="156.982,-130.5001 166.982,-127 156.982,-123.5001 156.982,-130.5001"/>
</g>
<!-- supriya.system.SupriyaValueObject.SupriyaValueObject&#45;&gt;supriya.patterns.Pattern.Pattern -->
<g id="edge14" class="edge">
<title>supriya.system.SupriyaValueObject.SupriyaValueObject&#45;&gt;supriya.patterns.Pattern.Pattern</title>
<path fill="none" stroke="#778899" d="M209.2563,-127C216.9777,-127 225.9685,-127 234.749,-127"/>
<polygon fill="#778899" stroke="#778899" points="234.8712,-130.5001 244.8711,-127 234.8711,-123.5001 234.8712,-130.5001"/>
</g>
<!-- builtins.object -->
<g id="node1" class="node">
<title>builtins.object</title>
<g id="a_node1"><a xlink:href="https://docs.python.org/3.6/library/functions.html#object" xlink:title="object" target="_top">
<path fill="#fbb4ae" stroke="#fbb4ae" stroke-width="2" d="M46.6667,-136.5C46.6667,-136.5 22.3333,-136.5 22.3333,-136.5 19.1667,-136.5 16,-133.3333 16,-130.1667 16,-130.1667 16,-123.8333 16,-123.8333 16,-120.6667 19.1667,-117.5 22.3333,-117.5 22.3333,-117.5 46.6667,-117.5 46.6667,-117.5 49.8333,-117.5 53,-120.6667 53,-123.8333 53,-123.8333 53,-130.1667 53,-130.1667 53,-133.3333 49.8333,-136.5 46.6667,-136.5"/>
<text text-anchor="middle" x="34.5" y="-124.5" font-family="Arial" font-size="10.00" fill="#000000">object</text>
</a>
</g>
</g>
<!-- supriya.patterns.EventPattern.EventPattern -->
<g id="node2" class="node">
<title>supriya.patterns.EventPattern.EventPattern</title>
<g id="a_node2"><a xlink:href="../api/supriya/patterns/EventPattern.html#supriya.patterns.EventPattern.EventPattern" xlink:title="Event\nPattern" target="_top">
<ellipse fill="#000000" stroke="#000000" stroke-width="2" cx="367.9741" cy="-127" rx="28.9828" ry="21.4286"/>
<text text-anchor="middle" x="367.9741" y="-130" font-family="Arial" font-size="10.00" fill="#ffffff">Event</text>
<text text-anchor="middle" x="367.9741" y="-119" font-family="Arial" font-size="10.00" fill="#ffffff">Pattern</text>
</a>
</g>
</g>
<!-- supriya.patterns.Pbind.Pbind -->
<g id="node3" class="node">
<title>supriya.patterns.Pbind.Pbind</title>
<g id="a_node3"><a xlink:href="../api/supriya/patterns/Pbind.html#supriya.patterns.Pbind.Pbind" xlink:title="Pbind" target="_top">
<path fill="#b3cde3" stroke="#b3cde3" stroke-width="2" d="M462.6322,-35.5C462.6322,-35.5 439.2988,-35.5 439.2988,-35.5 436.1322,-35.5 432.9655,-32.3333 432.9655,-29.1667 432.9655,-29.1667 432.9655,-22.8333 432.9655,-22.8333 432.9655,-19.6667 436.1322,-16.5 439.2988,-16.5 439.2988,-16.5 462.6322,-16.5 462.6322,-16.5 465.7988,-16.5 468.9655,-19.6667 468.9655,-22.8333 468.9655,-22.8333 468.9655,-29.1667 468.9655,-29.1667 468.9655,-32.3333 465.7988,-35.5 462.6322,-35.5"/>
<text text-anchor="middle" x="450.9655" y="-23.5" font-family="Arial" font-size="10.00" fill="#000000">Pbind</text>
</a>
</g>
</g>
<!-- supriya.patterns.Pbindf.Pbindf -->
<g id="node4" class="node">
<title>supriya.patterns.Pbindf.Pbindf</title>
<g id="a_node4"><a xlink:href="../api/supriya/patterns/Pbindf.html#supriya.patterns.Pbindf.Pbindf" xlink:title="Pbindf" target="_top">
<path fill="#b3cde3" stroke="#b3cde3" stroke-width="2" d="M538.1322,-72.5C538.1322,-72.5 512.7988,-72.5 512.7988,-72.5 509.6322,-72.5 506.4655,-69.3333 506.4655,-66.1667 506.4655,-66.1667 506.4655,-59.8333 506.4655,-59.8333 506.4655,-56.6667 509.6322,-53.5 512.7988,-53.5 512.7988,-53.5 538.1322,-53.5 538.1322,-53.5 541.2988,-53.5 544.4655,-56.6667 544.4655,-59.8333 544.4655,-59.8333 544.4655,-66.1667 544.4655,-66.1667 544.4655,-69.3333 541.2988,-72.5 538.1322,-72.5"/>
<text text-anchor="middle" x="525.4655" y="-60.5" font-family="Arial" font-size="10.00" fill="#000000">Pbindf</text>
</a>
</g>
</g>
<!-- supriya.patterns.Pbus.Pbus -->
<g id="node5" class="node">
<title>supriya.patterns.Pbus.Pbus</title>
<g id="a_node5"><a xlink:href="../api/supriya/patterns/Pbus.html#supriya.patterns.Pbus.Pbus" xlink:title="Pbus" target="_top">
<path fill="#b3cde3" stroke="#b3cde3" stroke-width="2" d="M461.6322,-93.5C461.6322,-93.5 440.2988,-93.5 440.2988,-93.5 437.1322,-93.5 433.9655,-90.3333 433.9655,-87.1667 433.9655,-87.1667 433.9655,-80.8333 433.9655,-80.8333 433.9655,-77.6667 437.1322,-74.5 440.2988,-74.5 440.2988,-74.5 461.6322,-74.5 461.6322,-74.5 464.7988,-74.5 467.9655,-77.6667 467.9655,-80.8333 467.9655,-80.8333 467.9655,-87.1667 467.9655,-87.1667 467.9655,-90.3333 464.7988,-93.5 461.6322,-93.5"/>
<text text-anchor="middle" x="450.9655" y="-81.5" font-family="Arial" font-size="10.00" fill="#000000">Pbus</text>
</a>
</g>
</g>
<!-- supriya.patterns.Pchain.Pchain -->
<g id="node6" class="node">
<title>supriya.patterns.Pchain.Pchain</title>
<g id="a_node6"><a xlink:href="../api/supriya/patterns/Pchain.html#supriya.patterns.Pchain.Pchain" xlink:title="Pchain" target="_top">
<path fill="#b3cde3" stroke="#b3cde3" stroke-width="2" d="M538.6322,-122.5C538.6322,-122.5 512.2988,-122.5 512.2988,-122.5 509.1322,-122.5 505.9655,-119.3333 505.9655,-116.1667 505.9655,-116.1667 505.9655,-109.8333 505.9655,-109.8333 505.9655,-106.6667 509.1322,-103.5 512.2988,-103.5 512.2988,-103.5 538.6322,-103.5 538.6322,-103.5 541.7988,-103.5 544.9655,-106.6667 544.9655,-109.8333 544.9655,-109.8333 544.9655,-116.1667 544.9655,-116.1667 544.9655,-119.3333 541.7988,-122.5 538.6322,-122.5"/>
<text text-anchor="middle" x="525.4655" y="-110.5" font-family="Arial" font-size="10.00" fill="#000000">Pchain</text>
</a>
</g>
</g>
<!-- supriya.patterns.Pfx.Pfx -->
<g id="node7" class="node">
<title>supriya.patterns.Pfx.Pfx</title>
<g id="a_node7"><a xlink:href="../api/supriya/patterns/Pfx.html#supriya.patterns.Pfx.Pfx" xlink:title="Pfx" target="_top">
<path fill="#b3cde3" stroke="#b3cde3" stroke-width="2" d="M458.1322,-151.5C458.1322,-151.5 443.7988,-151.5 443.7988,-151.5 440.6322,-151.5 437.4655,-148.3333 437.4655,-145.1667 437.4655,-145.1667 437.4655,-138.8333 437.4655,-138.8333 437.4655,-135.6667 440.6322,-132.5 443.7988,-132.5 443.7988,-132.5 458.1322,-132.5 458.1322,-132.5 461.2988,-132.5 464.4655,-135.6667 464.4655,-138.8333 464.4655,-138.8333 464.4655,-145.1667 464.4655,-145.1667 464.4655,-148.3333 461.2988,-151.5 458.1322,-151.5"/>
<text text-anchor="middle" x="450.9655" y="-139.5" font-family="Arial" font-size="10.00" fill="#000000">Pfx</text>
</a>
</g>
</g>
<!-- supriya.patterns.Pgroup.Pgroup -->
<g id="node8" class="node">
<title>supriya.patterns.Pgroup.Pgroup</title>
<g id="a_node8"><a xlink:href="../api/supriya/patterns/Pgroup.html#supriya.patterns.Pgroup.Pgroup" xlink:title="Pgroup" target="_top">
<path fill="#b3cde3" stroke="#b3cde3" stroke-width="2" d="M539.6322,-180.5C539.6322,-180.5 511.2988,-180.5 511.2988,-180.5 508.1322,-180.5 504.9655,-177.3333 504.9655,-174.1667 504.9655,-174.1667 504.9655,-167.8333 504.9655,-167.8333 504.9655,-164.6667 508.1322,-161.5 511.2988,-161.5 511.2988,-161.5 539.6322,-161.5 539.6322,-161.5 542.7988,-161.5 545.9655,-164.6667 545.9655,-167.8333 545.9655,-167.8333 545.9655,-174.1667 545.9655,-174.1667 545.9655,-177.3333 542.7988,-180.5 539.6322,-180.5"/>
<text text-anchor="middle" x="525.4655" y="-168.5" font-family="Arial" font-size="10.00" fill="#000000">Pgroup</text>
</a>
</g>
</g>
<!-- supriya.patterns.Pn.Pn -->
<g id="node9" class="node">
<title>supriya.patterns.Pn.Pn</title>
<g id="a_node9"><a xlink:href="../api/supriya/patterns/Pn.html#supriya.patterns.Pn.Pn" xlink:title="Pn" target="_top">
<path fill="#b3cde3" stroke="#b3cde3" stroke-width="2" d="M457.6322,-209.5C457.6322,-209.5 444.2988,-209.5 444.2988,-209.5 441.1322,-209.5 437.9655,-206.3333 437.9655,-203.1667 437.9655,-203.1667 437.9655,-196.8333 437.9655,-196.8333 437.9655,-193.6667 441.1322,-190.5 444.2988,-190.5 444.2988,-190.5 457.6322,-190.5 457.6322,-190.5 460.7988,-190.5 463.9655,-193.6667 463.9655,-196.8333 463.9655,-196.8333 463.9655,-203.1667 463.9655,-203.1667 463.9655,-206.3333 460.7988,-209.5 457.6322,-209.5"/>
<text text-anchor="middle" x="450.9655" y="-197.5" font-family="Arial" font-size="10.00" fill="#000000">Pn</text>
</a>
</g>
</g>
<!-- supriya.patterns.Ppar.Ppar -->
<g id="node10" class="node">
<title>supriya.patterns.Ppar.Ppar</title>
<g id="a_node10"><a xlink:href="../api/supriya/patterns/Ppar.html#supriya.patterns.Ppar.Ppar" xlink:title="Ppar" target="_top">
<path fill="#b3cde3" stroke="#b3cde3" stroke-width="2" d="M535.1322,-229.5C535.1322,-229.5 515.7988,-229.5 515.7988,-229.5 512.6322,-229.5 509.4655,-226.3333 509.4655,-223.1667 509.4655,-223.1667 509.4655,-216.8333 509.4655,-216.8333 509.4655,-213.6667 512.6322,-210.5 515.7988,-210.5 515.7988,-210.5 535.1322,-210.5 535.1322,-210.5 538.2988,-210.5 541.4655,-213.6667 541.4655,-216.8333 541.4655,-216.8333 541.4655,-223.1667 541.4655,-223.1667 541.4655,-226.3333 538.2988,-229.5 535.1322,-229.5"/>
<text text-anchor="middle" x="525.4655" y="-217.5" font-family="Arial" font-size="10.00" fill="#000000">Ppar</text>
</a>
</g>
</g>
<!-- supriya.patterns.Pattern.Pattern -->
<g id="node11" class="node">
<title>supriya.patterns.Pattern.Pattern</title>
<g id="a_node11"><a xlink:href="../api/supriya/patterns/Pattern.html#supriya.patterns.Pattern.Pattern" xlink:title="Pattern" target="_top">
<ellipse fill="none" stroke="#b3cde3" stroke-width="2" cx="273.9914" cy="-127" rx="28.9828" ry="13.3704"/>
<text text-anchor="middle" x="273.9914" y="-124.5" font-family="Arial" font-size="10.00" fill="#000000">Pattern</text>
</a>
</g>
</g>
<!-- supriya.patterns.Pmono.Pmono -->
<g id="node12" class="node">
<title>supriya.patterns.Pmono.Pmono</title>
<g id="a_node12"><a xlink:href="../api/supriya/patterns/Pmono.html#supriya.patterns.Pmono.Pmono" xlink:title="Pmono" target="_top">
<path fill="#b3cde3" stroke="#b3cde3" stroke-width="2" d="M539.1322,-35.5C539.1322,-35.5 511.7988,-35.5 511.7988,-35.5 508.6322,-35.5 505.4655,-32.3333 505.4655,-29.1667 505.4655,-29.1667 505.4655,-22.8333 505.4655,-22.8333 505.4655,-19.6667 508.6322,-16.5 511.7988,-16.5 511.7988,-16.5 539.1322,-16.5 539.1322,-16.5 542.2988,-16.5 545.4655,-19.6667 545.4655,-22.8333 545.4655,-22.8333 545.4655,-29.1667 545.4655,-29.1667 545.4655,-32.3333 542.2988,-35.5 539.1322,-35.5"/>
<text text-anchor="middle" x="525.4655" y="-23.5" font-family="Arial" font-size="10.00" fill="#000000">Pmono</text>
</a>
</g>
</g>
<!-- supriya.patterns.Pgpar.Pgpar -->
<g id="node13" class="node">
<title>supriya.patterns.Pgpar.Pgpar</title>
<g id="a_node13"><a xlink:href="../api/supriya/patterns/Pgpar.html#supriya.patterns.Pgpar.Pgpar" xlink:title="Pgpar" target="_top">
<path fill="#b3cde3" stroke="#b3cde3" stroke-width="2" d="M612.6322,-229.5C612.6322,-229.5 588.2988,-229.5 588.2988,-229.5 585.1322,-229.5 581.9655,-226.3333 581.9655,-223.1667 581.9655,-223.1667 581.9655,-216.8333 581.9655,-216.8333 581.9655,-213.6667 585.1322,-210.5 588.2988,-210.5 588.2988,-210.5 612.6322,-210.5 612.6322,-210.5 615.7988,-210.5 618.9655,-213.6667 618.9655,-216.8333 618.9655,-216.8333 618.9655,-223.1667 618.9655,-223.1667 618.9655,-226.3333 615.7988,-229.5 612.6322,-229.5"/>
<text text-anchor="middle" x="600.4655" y="-217.5" font-family="Arial" font-size="10.00" fill="#000000">Pgpar</text>
</a>
</g>
</g>
<!-- supriya.system.SupriyaObject.SupriyaObject -->
<g id="node14" class="node">
<title>supriya.system.SupriyaObject.SupriyaObject</title>
<g id="a_node14"><a xlink:href="../api/supriya/patterns/../system/SupriyaObject.html#supriya.system.SupriyaObject.SupriyaObject" xlink:title="Supriya\nObject" target="_top">
<path fill="#ccebc5" stroke="#ccebc5" stroke-width="2" d="M121,-142C121,-142 99,-142 99,-142 94,-142 89,-137 89,-132 89,-132 89,-122 89,-122 89,-117 94,-112 99,-112 99,-112 121,-112 121,-112 126,-112 131,-117 131,-122 131,-122 131,-132 131,-132 131,-137 126,-142 121,-142"/>
<text text-anchor="middle" x="110" y="-130" font-family="Arial" font-size="10.00" fill="#000000">Supriya</text>
<text text-anchor="middle" x="110" y="-119" font-family="Arial" font-size="10.00" fill="#000000">Object</text>
</a>
</g>
</g>
<!-- supriya.system.SupriyaValueObject.SupriyaValueObject -->
<g id="node15" class="node">
<title>supriya.system.SupriyaValueObject.SupriyaValueObject</title>
<g id="a_node15"><a xlink:href="../api/supriya/patterns/../system/SupriyaValueObject.html#supriya.system.SupriyaValueObject.SupriyaValueObject" xlink:title="Supriya\nValue\nObject" target="_top">
<path fill="#ccebc5" stroke="#ccebc5" stroke-width="2" d="M197,-147.5C197,-147.5 179,-147.5 179,-147.5 173,-147.5 167,-141.5 167,-135.5 167,-135.5 167,-118.5 167,-118.5 167,-112.5 173,-106.5 179,-106.5 179,-106.5 197,-106.5 197,-106.5 203,-106.5 209,-112.5 209,-118.5 209,-118.5 209,-135.5 209,-135.5 209,-141.5 203,-147.5 197,-147.5"/>
<text text-anchor="middle" x="188" y="-135.5" font-family="Arial" font-size="10.00" fill="#000000">Supriya</text>
<text text-anchor="middle" x="188" y="-124.5" font-family="Arial" font-size="10.00" fill="#000000">Value</text>
<text text-anchor="middle" x="188" y="-113.5" font-family="Arial" font-size="10.00" fill="#000000">Object</text>
</a>
</g>
</g>
</g>
</svg>
