<?xml version="1.0" encoding="UTF-8" standalone="no"?>
<!DOCTYPE svg PUBLIC "-//W3C//DTD SVG 1.1//EN"
 "http://www.w3.org/Graphics/SVG/1.1/DTD/svg11.dtd">
<!-- Generated by graphviz version 2.40.1 (20161225.0304)
 -->
<!-- Title: InheritanceGraph Pages: 1 -->
<svg width="545pt" height="460pt"
 viewBox="0.00 0.00 545.00 460.00" xmlns="http://www.w3.org/2000/svg" xmlns:xlink="http://www.w3.org/1999/xlink">
<g id="graph0" class="graph" transform="scale(1 1) rotate(0) translate(4 456)">
<title>InheritanceGraph</title>
<g id="clust1" class="cluster">
<title>cluster_builtins</title>
<path fill="transparent" stroke="#bcd2ee" stroke-width="2" stroke-dasharray="5,2" d="M20,-191C20,-191 219,-191 219,-191 225,-191 231,-197 231,-203 231,-203 231,-244 231,-244 231,-250 225,-256 219,-256 219,-256 20,-256 20,-256 14,-256 8,-250 8,-244 8,-244 8,-203 8,-203 8,-197 14,-191 20,-191"/>
<text text-anchor="middle" x="119.5" y="-244" font-family="Arial" font-size="10.00" fill="#000000">builtins</text>
</g>
<g id="clust2" class="cluster">
<title>cluster_supriya.exceptions</title>
<path fill="transparent" stroke="#bcd2ee" stroke-width="2" stroke-dasharray="5,2" d="M300,-8C300,-8 517,-8 517,-8 523,-8 529,-14 529,-20 529,-20 529,-432 529,-432 529,-438 523,-444 517,-444 517,-444 300,-444 300,-444 294,-444 288,-438 288,-432 288,-432 288,-20 288,-20 288,-14 294,-8 300,-8"/>
<text text-anchor="middle" x="408.5" y="-432" font-family="Arial" font-size="10.00" fill="#000000">supriya.exceptions</text>
</g>
<!-- builtins.BaseException&#45;&gt;builtins.Exception -->
<g id="edge1" class="edge">
<title>builtins.BaseException&#45;&gt;builtins.Exception</title>
<path fill="none" stroke="#778899" d="M138.0855,-214C146.1028,-214 155.1612,-214 163.7779,-214"/>
<polygon fill="#778899" stroke="#778899" points="163.9698,-217.5001 173.9697,-214 163.9697,-210.5001 163.9698,-217.5001"/>
</g>
<!-- builtins.Exception&#45;&gt;supriya.exceptions.AlreadyAllocated -->
<g id="edge9" class="edge">
<title>builtins.Exception&#45;&gt;supriya.exceptions.AlreadyAllocated</title>
<path fill="none" stroke="#778899" d="M201.7672,-223.5406C211.3695,-250.4864 241.7648,-328.4218 288,-378 289.7529,-379.8796 291.683,-381.6758 293.7148,-383.3786"/>
<polygon fill="#778899" stroke="#778899" points="291.7821,-386.303 301.8951,-389.4617 295.9592,-380.6859 291.7821,-386.303"/>
</g>
<!-- builtins.Exception&#45;&gt;supriya.exceptions.IncompatibleRate -->
<g id="edge10" class="edge">
<title>builtins.Exception&#45;&gt;supriya.exceptions.IncompatibleRate</title>
<path fill="none" stroke="#778899" d="M204.2833,-223.607C217.2951,-244.6817 250.6704,-295.8134 288,-330 288.9619,-330.8809 289.96,-331.75 290.9852,-332.605"/>
<polygon fill="#778899" stroke="#778899" points="289.1431,-335.6003 299.2288,-338.8453 293.3681,-330.019 289.1431,-335.6003"/>
</g>
<!-- builtins.Exception&#45;&gt;supriya.exceptions.NonrealtimeOutputMissing -->
<g id="edge11" class="edge">
<title>builtins.Exception&#45;&gt;supriya.exceptions.NonrealtimeOutputMissing</title>
<path fill="none" stroke="#778899" d="M212.5765,-223.5321C230.7957,-235.8695 263.2206,-257.8265 288.6653,-275.0568"/>
<polygon fill="#778899" stroke="#778899" points="286.7536,-277.9892 296.9962,-280.6982 290.6785,-272.1931 286.7536,-277.9892"/>
</g>
<!-- builtins.Exception&#45;&gt;supriya.exceptions.NonrealtimeRenderError -->
<g id="edge12" class="edge">
<title>builtins.Exception&#45;&gt;supriya.exceptions.NonrealtimeRenderError</title>
<path fill="none" stroke="#778899" d="M223.2884,-219.27C241.3202,-223.1035 266.0867,-228.3688 286.7243,-232.7563"/>
<polygon fill="#778899" stroke="#778899" points="286.2692,-236.2377 296.7784,-234.8938 287.7249,-229.3908 286.2692,-236.2377"/>
</g>
<!-- builtins.Exception&#45;&gt;supriya.exceptions.NotAllocated -->
<g id="edge13" class="edge">
<title>builtins.Exception&#45;&gt;supriya.exceptions.NotAllocated</title>
<path fill="none" stroke="#778899" d="M223.2884,-208.73C242.7674,-204.5888 270.1053,-198.7768 291.6075,-194.2055"/>
<polygon fill="#778899" stroke="#778899" points="292.5809,-197.5769 301.6344,-192.0738 291.1252,-190.7299 292.5809,-197.5769"/>
</g>
<!-- builtins.Exception&#45;&gt;supriya.exceptions.RequestTimeout -->
<g id="edge14" class="edge">
<title>builtins.Exception&#45;&gt;supriya.exceptions.RequestTimeout</title>
<path fill="none" stroke="#778899" d="M214.843,-204.3486C234.8908,-192.5093 269.3052,-172.1859 294.4439,-157.3402"/>
<polygon fill="#778899" stroke="#778899" points="296.4112,-160.2432 303.2421,-152.1445 292.8517,-154.2158 296.4112,-160.2432"/>
</g>
<!-- builtins.Exception&#45;&gt;supriya.exceptions.ServerCannotBoot -->
<g id="edge15" class="edge">
<title>builtins.Exception&#45;&gt;supriya.exceptions.ServerCannotBoot</title>
<path fill="none" stroke="#778899" d="M206.4111,-204.2489C221.461,-185.9345 255.6095,-145.4939 288,-115 290.7735,-112.3889 293.7514,-109.7544 296.7724,-107.1878"/>
<polygon fill="#778899" stroke="#778899" points="299.2613,-109.6724 304.7592,-100.6157 294.8135,-104.2671 299.2613,-109.6724"/>
</g>
<!-- builtins.Exception&#45;&gt;supriya.exceptions.ServerOffline -->
<g id="edge16" class="edge">
<title>builtins.Exception&#45;&gt;supriya.exceptions.ServerOffline</title>
<path fill="none" stroke="#778899" d="M202.0499,-204.4836C212.1708,-178.3122 243.3462,-104.02 288,-56 290.7974,-52.9918 294.0245,-50.1659 297.3875,-47.5742"/>
<polygon fill="#778899" stroke="#778899" points="299.6745,-50.2457 305.8596,-41.6436 295.6602,-44.5111 299.6745,-50.2457"/>
</g>
<!-- builtins.object&#45;&gt;builtins.BaseException -->
<g id="edge2" class="edge">
<title>builtins.object&#45;&gt;builtins.BaseException</title>
<path fill="none" stroke="#778899" d="M53.2219,-214C60.8959,-214 70.0326,-214 78.843,-214"/>
<polygon fill="#778899" stroke="#778899" points="78.9285,-217.5001 88.9285,-214 78.9285,-210.5001 78.9285,-217.5001"/>
</g>
<!-- supriya.exceptions.AlreadyAllocated&#45;&gt;supriya.exceptions.BufferAlreadyAllocated -->
<g id="edge3" class="edge">
<title>supriya.exceptions.AlreadyAllocated&#45;&gt;supriya.exceptions.BufferAlreadyAllocated</title>
<path fill="none" stroke="#778899" d="M344.8327,-386.8423C348.2821,-383.978 351.7952,-380.9526 355,-378 366.4777,-367.4255 378.5104,-355.1404 388.7279,-344.3085"/>
<polygon fill="#778899" stroke="#778899" points="391.5448,-346.4202 395.8132,-336.7232 386.4293,-341.6419 391.5448,-346.4202"/>
</g>
<!-- supriya.exceptions.AlreadyAllocated&#45;&gt;supriya.exceptions.BusAlreadyAllocated -->
<g id="edge4" class="edge">
<title>supriya.exceptions.AlreadyAllocated&#45;&gt;supriya.exceptions.BusAlreadyAllocated</title>
<path fill="none" stroke="#778899" d="M348.4877,-386.8728C360.6327,-379.6318 376.0815,-371.5631 391,-367 414.5693,-359.7908 442.2947,-357.0987 463.5477,-356.1783"/>
<polygon fill="#778899" stroke="#778899" points="463.8323,-359.6711 473.7142,-355.8504 463.6065,-352.6747 463.8323,-359.6711"/>
</g>
<!-- supriya.exceptions.AlreadyAllocated&#45;&gt;supriya.exceptions.NodeAlreadyAllocated -->
<g id="edge5" class="edge">
<title>supriya.exceptions.AlreadyAllocated&#45;&gt;supriya.exceptions.NodeAlreadyAllocated</title>
<path fill="none" stroke="#778899" d="M349.3504,-400.3921C359.0047,-399.7413 370.3253,-398.9781 380.7969,-398.2721"/>
<polygon fill="#778899" stroke="#778899" points="381.1505,-401.7563 390.8924,-397.5915 380.6796,-394.7722 381.1505,-401.7563"/>
</g>
<!-- supriya.exceptions.NotAllocated&#45;&gt;supriya.exceptions.BufferNotAllocated -->
<g id="edge6" class="edge">
<title>supriya.exceptions.NotAllocated&#45;&gt;supriya.exceptions.BufferNotAllocated</title>
<path fill="none" stroke="#778899" d="M349.3504,-176.2807C359.2059,-171.8513 370.7977,-166.6415 381.4503,-161.8538"/>
<polygon fill="#778899" stroke="#778899" points="383.2061,-164.902 390.8924,-157.6102 380.3365,-158.5172 383.2061,-164.902"/>
</g>
<!-- supriya.exceptions.NotAllocated&#45;&gt;supriya.exceptions.BusNotAllocated -->
<g id="edge7" class="edge">
<title>supriya.exceptions.NotAllocated&#45;&gt;supriya.exceptions.BusNotAllocated</title>
<path fill="none" stroke="#778899" d="M349.0552,-187C378.6934,-187 429.7997,-187 463.6272,-187"/>
<polygon fill="#778899" stroke="#778899" points="463.9539,-190.5001 473.9539,-187 463.9539,-183.5001 463.9539,-190.5001"/>
</g>
<!-- supriya.exceptions.NotAllocated&#45;&gt;supriya.exceptions.NodeNotAllocated -->
<g id="edge8" class="edge">
<title>supriya.exceptions.NotAllocated&#45;&gt;supriya.exceptions.NodeNotAllocated</title>
<path fill="none" stroke="#778899" d="M349.3504,-197.7193C359.2059,-202.1487 370.7977,-207.3585 381.4503,-212.1462"/>
<polygon fill="#778899" stroke="#778899" points="380.3365,-215.4828 390.8924,-216.3898 383.2061,-209.098 380.3365,-215.4828"/>
</g>
<!-- builtins.BaseException -->
<g id="node1" class="node">
<title>builtins.BaseException</title>
<g id="a_node1"><a xlink:href="https://docs.python.org/3.6/library/exceptions.html#BaseException" xlink:title="Base\nException" target="_top">
<path fill="#fbb4ae" stroke="#fbb4ae" stroke-width="2" d="M128,-229C128,-229 99,-229 99,-229 94,-229 89,-224 89,-219 89,-219 89,-209 89,-209 89,-204 94,-199 99,-199 99,-199 128,-199 128,-199 133,-199 138,-204 138,-209 138,-209 138,-219 138,-219 138,-224 133,-229 128,-229"/>
<text text-anchor="middle" x="113.5" y="-217" font-family="Arial" font-size="10.00" fill="#000000">Base</text>
<text text-anchor="middle" x="113.5" y="-206" font-family="Arial" font-size="10.00" fill="#000000">Exception</text>
</a>
</g>
</g>
<!-- builtins.Exception -->
<g id="node2" class="node">
<title>builtins.Exception</title>
<g id="a_node2"><a xlink:href="https://docs.python.org/3.6/library/exceptions.html#Exception" xlink:title="Exception" target="_top">
<path fill="#fbb4ae" stroke="#fbb4ae" stroke-width="2" d="M216.6667,-223.5C216.6667,-223.5 180.3333,-223.5 180.3333,-223.5 177.1667,-223.5 174,-220.3333 174,-217.1667 174,-217.1667 174,-210.8333 174,-210.8333 174,-207.6667 177.1667,-204.5 180.3333,-204.5 180.3333,-204.5 216.6667,-204.5 216.6667,-204.5 219.8333,-204.5 223,-207.6667 223,-210.8333 223,-210.8333 223,-217.1667 223,-217.1667 223,-220.3333 219.8333,-223.5 216.6667,-223.5"/>
<text text-anchor="middle" x="198.5" y="-211.5" font-family="Arial" font-size="10.00" fill="#000000">Exception</text>
</a>
</g>
</g>
<!-- builtins.object -->
<g id="node3" class="node">
<title>builtins.object</title>
<g id="a_node3"><a xlink:href="https://docs.python.org/3.6/library/functions.html#object" xlink:title="object" target="_top">
<path fill="#fbb4ae" stroke="#fbb4ae" stroke-width="2" d="M46.6667,-223.5C46.6667,-223.5 22.3333,-223.5 22.3333,-223.5 19.1667,-223.5 16,-220.3333 16,-217.1667 16,-217.1667 16,-210.8333 16,-210.8333 16,-207.6667 19.1667,-204.5 22.3333,-204.5 22.3333,-204.5 46.6667,-204.5 46.6667,-204.5 49.8333,-204.5 53,-207.6667 53,-210.8333 53,-210.8333 53,-217.1667 53,-217.1667 53,-220.3333 49.8333,-223.5 46.6667,-223.5"/>
<text text-anchor="middle" x="34.5" y="-211.5" font-family="Arial" font-size="10.00" fill="#000000">object</text>
</a>
</g>
</g>
<!-- supriya.exceptions.AlreadyAllocated -->
<g id="node4" class="node">
<title>supriya.exceptions.AlreadyAllocated</title>
<g id="a_node4"><a xlink:href="../api/supriya/exceptions.html#supriya.exceptions.AlreadyAllocated" xlink:title="Already\nAllocated" target="_top">
<path fill="#000000" stroke="#000000" stroke-width="2" d="M339,-417C339,-417 312,-417 312,-417 307,-417 302,-412 302,-407 302,-407 302,-397 302,-397 302,-392 307,-387 312,-387 312,-387 339,-387 339,-387 344,-387 349,-392 349,-397 349,-397 349,-407 349,-407 349,-412 344,-417 339,-417"/>
<text text-anchor="middle" x="325.5" y="-405" font-family="Arial" font-size="10.00" fill="#ffffff">Already</text>
<text text-anchor="middle" x="325.5" y="-394" font-family="Arial" font-size="10.00" fill="#ffffff">Allocated</text>
</a>
</g>
</g>
<!-- supriya.exceptions.BufferAlreadyAllocated -->
<g id="node5" class="node">
<title>supriya.exceptions.BufferAlreadyAllocated</title>
<g id="a_node5"><a xlink:href="../api/supriya/exceptions.html#supriya.exceptions.BufferAlreadyAllocated" xlink:title="Buffer\nAlready\nAllocated" target="_top">
<path fill="#000000" stroke="#000000" stroke-width="2" d="M426,-336.5C426,-336.5 403,-336.5 403,-336.5 397,-336.5 391,-330.5 391,-324.5 391,-324.5 391,-307.5 391,-307.5 391,-301.5 397,-295.5 403,-295.5 403,-295.5 426,-295.5 426,-295.5 432,-295.5 438,-301.5 438,-307.5 438,-307.5 438,-324.5 438,-324.5 438,-330.5 432,-336.5 426,-336.5"/>
<text text-anchor="middle" x="414.5" y="-324.5" font-family="Arial" font-size="10.00" fill="#ffffff">Buffer</text>
<text text-anchor="middle" x="414.5" y="-313.5" font-family="Arial" font-size="10.00" fill="#ffffff">Already</text>
<text text-anchor="middle" x="414.5" y="-302.5" font-family="Arial" font-size="10.00" fill="#ffffff">Allocated</text>
</a>
</g>
</g>
<!-- supriya.exceptions.BusAlreadyAllocated -->
<g id="node6" class="node">
<title>supriya.exceptions.BusAlreadyAllocated</title>
<g id="a_node6"><a xlink:href="../api/supriya/exceptions.html#supriya.exceptions.BusAlreadyAllocated" xlink:title="Bus\nAlready\nAllocated" target="_top">
<path fill="#000000" stroke="#000000" stroke-width="2" d="M509,-376.5C509,-376.5 486,-376.5 486,-376.5 480,-376.5 474,-370.5 474,-364.5 474,-364.5 474,-347.5 474,-347.5 474,-341.5 480,-335.5 486,-335.5 486,-335.5 509,-335.5 509,-335.5 515,-335.5 521,-341.5 521,-347.5 521,-347.5 521,-364.5 521,-364.5 521,-370.5 515,-376.5 509,-376.5"/>
<text text-anchor="middle" x="497.5" y="-364.5" font-family="Arial" font-size="10.00" fill="#ffffff">Bus</text>
<text text-anchor="middle" x="497.5" y="-353.5" font-family="Arial" font-size="10.00" fill="#ffffff">Already</text>
<text text-anchor="middle" x="497.5" y="-342.5" font-family="Arial" font-size="10.00" fill="#ffffff">Allocated</text>
</a>
</g>
</g>
<!-- supriya.exceptions.NodeAlreadyAllocated -->
<g id="node7" class="node">
<title>supriya.exceptions.NodeAlreadyAllocated</title>
<g id="a_node7"><a xlink:href="../api/supriya/exceptions.html#supriya.exceptions.NodeAlreadyAllocated" xlink:title="Node\nAlready\nAllocated" target="_top">
<path fill="#000000" stroke="#000000" stroke-width="2" d="M426,-416.5C426,-416.5 403,-416.5 403,-416.5 397,-416.5 391,-410.5 391,-404.5 391,-404.5 391,-387.5 391,-387.5 391,-381.5 397,-375.5 403,-375.5 403,-375.5 426,-375.5 426,-375.5 432,-375.5 438,-381.5 438,-387.5 438,-387.5 438,-404.5 438,-404.5 438,-410.5 432,-416.5 426,-416.5"/>
<text text-anchor="middle" x="414.5" y="-404.5" font-family="Arial" font-size="10.00" fill="#ffffff">Node</text>
<text text-anchor="middle" x="414.5" y="-393.5" font-family="Arial" font-size="10.00" fill="#ffffff">Already</text>
<text text-anchor="middle" x="414.5" y="-382.5" font-family="Arial" font-size="10.00" fill="#ffffff">Allocated</text>
</a>
</g>
</g>
<!-- supriya.exceptions.BufferNotAllocated -->
<g id="node8" class="node">
<title>supriya.exceptions.BufferNotAllocated</title>
<g id="a_node8"><a xlink:href="../api/supriya/exceptions.html#supriya.exceptions.BufferNotAllocated" xlink:title="Buffer\nNot\nAllocated" target="_top">
<path fill="#000000" stroke="#000000" stroke-width="2" d="M426,-167.5C426,-167.5 403,-167.5 403,-167.5 397,-167.5 391,-161.5 391,-155.5 391,-155.5 391,-138.5 391,-138.5 391,-132.5 397,-126.5 403,-126.5 403,-126.5 426,-126.5 426,-126.5 432,-126.5 438,-132.5 438,-138.5 438,-138.5 438,-155.5 438,-155.5 438,-161.5 432,-167.5 426,-167.5"/>
<text text-anchor="middle" x="414.5" y="-155.5" font-family="Arial" font-size="10.00" fill="#ffffff">Buffer</text>
<text text-anchor="middle" x="414.5" y="-144.5" font-family="Arial" font-size="10.00" fill="#ffffff">Not</text>
<text text-anchor="middle" x="414.5" y="-133.5" font-family="Arial" font-size="10.00" fill="#ffffff">Allocated</text>
</a>
</g>
</g>
<!-- supriya.exceptions.BusNotAllocated -->
<g id="node9" class="node">
<title>supriya.exceptions.BusNotAllocated</title>
<g id="a_node9"><a xlink:href="../api/supriya/exceptions.html#supriya.exceptions.BusNotAllocated" xlink:title="Bus\nNot\nAllocated" target="_top">
<path fill="#000000" stroke="#000000" stroke-width="2" d="M509,-207.5C509,-207.5 486,-207.5 486,-207.5 480,-207.5 474,-201.5 474,-195.5 474,-195.5 474,-178.5 474,-178.5 474,-172.5 480,-166.5 486,-166.5 486,-166.5 509,-166.5 509,-166.5 515,-166.5 521,-172.5 521,-178.5 521,-178.5 521,-195.5 521,-195.5 521,-201.5 515,-207.5 509,-207.5"/>
<text text-anchor="middle" x="497.5" y="-195.5" font-family="Arial" font-size="10.00" fill="#ffffff">Bus</text>
<text text-anchor="middle" x="497.5" y="-184.5" font-family="Arial" font-size="10.00" fill="#ffffff">Not</text>
<text text-anchor="middle" x="497.5" y="-173.5" font-family="Arial" font-size="10.00" fill="#ffffff">Allocated</text>
</a>
</g>
</g>
<!-- supriya.exceptions.IncompatibleRate -->
<g id="node10" class="node">
<title>supriya.exceptions.IncompatibleRate</title>
<g id="a_node10"><a xlink:href="../api/supriya/exceptions.html#supriya.exceptions.IncompatibleRate" xlink:title="Incompatible\nRate" target="_top">
<path fill="#000000" stroke="#000000" stroke-width="2" d="M345,-369C345,-369 306,-369 306,-369 301,-369 296,-364 296,-359 296,-359 296,-349 296,-349 296,-344 301,-339 306,-339 306,-339 345,-339 345,-339 350,-339 355,-344 355,-349 355,-349 355,-359 355,-359 355,-364 350,-369 345,-369"/>
<text text-anchor="middle" x="325.5" y="-357" font-family="Arial" font-size="10.00" fill="#ffffff">Incompatible</text>
<text text-anchor="middle" x="325.5" y="-346" font-family="Arial" font-size="10.00" fill="#ffffff">Rate</text>
</a>
</g>
</g>
<!-- supriya.exceptions.NodeNotAllocated -->
<g id="node11" class="node">
<title>supriya.exceptions.NodeNotAllocated</title>
<g id="a_node11"><a xlink:href="../api/supriya/exceptions.html#supriya.exceptions.NodeNotAllocated" xlink:title="Node\nNot\nAllocated" target="_top">
<path fill="#000000" stroke="#000000" stroke-width="2" d="M426,-247.5C426,-247.5 403,-247.5 403,-247.5 397,-247.5 391,-241.5 391,-235.5 391,-235.5 391,-218.5 391,-218.5 391,-212.5 397,-206.5 403,-206.5 403,-206.5 426,-206.5 426,-206.5 432,-206.5 438,-212.5 438,-218.5 438,-218.5 438,-235.5 438,-235.5 438,-241.5 432,-247.5 426,-247.5"/>
<text text-anchor="middle" x="414.5" y="-235.5" font-family="Arial" font-size="10.00" fill="#ffffff">Node</text>
<text text-anchor="middle" x="414.5" y="-224.5" font-family="Arial" font-size="10.00" fill="#ffffff">Not</text>
<text text-anchor="middle" x="414.5" y="-213.5" font-family="Arial" font-size="10.00" fill="#ffffff">Allocated</text>
</a>
</g>
</g>
<!-- supriya.exceptions.NonrealtimeOutputMissing -->
<g id="node12" class="node">
<title>supriya.exceptions.NonrealtimeOutputMissing</title>
<g id="a_node12"><a xlink:href="../api/supriya/exceptions.html#supriya.exceptions.NonrealtimeOutputMissing" xlink:title="Nonrealtime\nOutput\nMissing" target="_top">
<path fill="#000000" stroke="#000000" stroke-width="2" d="M342,-320.5C342,-320.5 309,-320.5 309,-320.5 303,-320.5 297,-314.5 297,-308.5 297,-308.5 297,-291.5 297,-291.5 297,-285.5 303,-279.5 309,-279.5 309,-279.5 342,-279.5 342,-279.5 348,-279.5 354,-285.5 354,-291.5 354,-291.5 354,-308.5 354,-308.5 354,-314.5 348,-320.5 342,-320.5"/>
<text text-anchor="middle" x="325.5" y="-308.5" font-family="Arial" font-size="10.00" fill="#ffffff">Nonrealtime</text>
<text text-anchor="middle" x="325.5" y="-297.5" font-family="Arial" font-size="10.00" fill="#ffffff">Output</text>
<text text-anchor="middle" x="325.5" y="-286.5" font-family="Arial" font-size="10.00" fill="#ffffff">Missing</text>
</a>
</g>
</g>
<!-- supriya.exceptions.NonrealtimeRenderError -->
<g id="node13" class="node">
<title>supriya.exceptions.NonrealtimeRenderError</title>
<g id="a_node13"><a xlink:href="../api/supriya/exceptions.html#supriya.exceptions.NonrealtimeRenderError" xlink:title="Nonrealtime\nRender\nError" target="_top">
<path fill="#000000" stroke="#000000" stroke-width="2" d="M342,-261.5C342,-261.5 309,-261.5 309,-261.5 303,-261.5 297,-255.5 297,-249.5 297,-249.5 297,-232.5 297,-232.5 297,-226.5 303,-220.5 309,-220.5 309,-220.5 342,-220.5 342,-220.5 348,-220.5 354,-226.5 354,-232.5 354,-232.5 354,-249.5 354,-249.5 354,-255.5 348,-261.5 342,-261.5"/>
<text text-anchor="middle" x="325.5" y="-249.5" font-family="Arial" font-size="10.00" fill="#ffffff">Nonrealtime</text>
<text text-anchor="middle" x="325.5" y="-238.5" font-family="Arial" font-size="10.00" fill="#ffffff">Render</text>
<text text-anchor="middle" x="325.5" y="-227.5" font-family="Arial" font-size="10.00" fill="#ffffff">Error</text>
</a>
</g>
</g>
<!-- supriya.exceptions.NotAllocated -->
<g id="node14" class="node">
<title>supriya.exceptions.NotAllocated</title>
<g id="a_node14"><a xlink:href="../api/supriya/exceptions.html#supriya.exceptions.NotAllocated" xlink:title="Not\nAllocated" target="_top">
<path fill="#000000" stroke="#000000" stroke-width="2" d="M339,-202C339,-202 312,-202 312,-202 307,-202 302,-197 302,-192 302,-192 302,-182 302,-182 302,-177 307,-172 312,-172 312,-172 339,-172 339,-172 344,-172 349,-177 349,-182 349,-182 349,-192 349,-192 349,-197 344,-202 339,-202"/>
<text text-anchor="middle" x="325.5" y="-190" font-family="Arial" font-size="10.00" fill="#ffffff">Not</text>
<text text-anchor="middle" x="325.5" y="-179" font-family="Arial" font-size="10.00" fill="#ffffff">Allocated</text>
</a>
</g>
</g>
<!-- supriya.exceptions.RequestTimeout -->
<g id="node15" class="node">
<title>supriya.exceptions.RequestTimeout</title>
<g id="a_node15"><a xlink:href="../api/supriya/exceptions.html#supriya.exceptions.RequestTimeout" xlink:title="Request\nTimeout" target="_top">
<path fill="#000000" stroke="#000000" stroke-width="2" d="M337.5,-154C337.5,-154 313.5,-154 313.5,-154 308.5,-154 303.5,-149 303.5,-144 303.5,-144 303.5,-134 303.5,-134 303.5,-129 308.5,-124 313.5,-124 313.5,-124 337.5,-124 337.5,-124 342.5,-124 347.5,-129 347.5,-134 347.5,-134 347.5,-144 347.5,-144 347.5,-149 342.5,-154 337.5,-154"/>
<text text-anchor="middle" x="325.5" y="-142" font-family="Arial" font-size="10.00" fill="#ffffff">Request</text>
<text text-anchor="middle" x="325.5" y="-131" font-family="Arial" font-size="10.00" fill="#ffffff">Timeout</text>
</a>
</g>
</g>
<!-- supriya.exceptions.ServerCannotBoot -->
<g id="node16" class="node">
<title>supriya.exceptions.ServerCannotBoot</title>
<g id="a_node16"><a xlink:href="../api/supriya/exceptions.html#supriya.exceptions.ServerCannotBoot" xlink:title="Server\nCannot\nBoot" target="_top">
<path fill="#000000" stroke="#000000" stroke-width="2" d="M334,-105.5C334,-105.5 317,-105.5 317,-105.5 311,-105.5 305,-99.5 305,-93.5 305,-93.5 305,-76.5 305,-76.5 305,-70.5 311,-64.5 317,-64.5 317,-64.5 334,-64.5 334,-64.5 340,-64.5 346,-70.5 346,-76.5 346,-76.5 346,-93.5 346,-93.5 346,-99.5 340,-105.5 334,-105.5"/>
<text text-anchor="middle" x="325.5" y="-93.5" font-family="Arial" font-size="10.00" fill="#ffffff">Server</text>
<text text-anchor="middle" x="325.5" y="-82.5" font-family="Arial" font-size="10.00" fill="#ffffff">Cannot</text>
<text text-anchor="middle" x="325.5" y="-71.5" font-family="Arial" font-size="10.00" fill="#ffffff">Boot</text>
</a>
</g>
</g>
<!-- supriya.exceptions.ServerOffline -->
<g id="node17" class="node">
<title>supriya.exceptions.ServerOffline</title>
<g id="a_node17"><a xlink:href="../api/supriya/exceptions.html#supriya.exceptions.ServerOffline" xlink:title="Server\nOffline" target="_top">
<path fill="#000000" stroke="#000000" stroke-width="2" d="M335,-46C335,-46 316,-46 316,-46 311,-46 306,-41 306,-36 306,-36 306,-26 306,-26 306,-21 311,-16 316,-16 316,-16 335,-16 335,-16 340,-16 345,-21 345,-26 345,-26 345,-36 345,-36 345,-41 340,-46 335,-46"/>
<text text-anchor="middle" x="325.5" y="-34" font-family="Arial" font-size="10.00" fill="#ffffff">Server</text>
<text text-anchor="middle" x="325.5" y="-23" font-family="Arial" font-size="10.00" fill="#ffffff">Offline</text>
</a>
</g>
</g>
</g>
</svg>
