<?xml version="1.0" encoding="UTF-8" standalone="no"?>
<!DOCTYPE svg PUBLIC "-//W3C//DTD SVG 1.1//EN"
 "http://www.w3.org/Graphics/SVG/1.1/DTD/svg11.dtd">
<!-- Generated by graphviz version 2.40.1 (20161225.0304)
 -->
<!-- Title: InheritanceGraph Pages: 1 -->
<svg width="651pt" height="376pt"
 viewBox="0.00 0.00 651.00 376.00" xmlns="http://www.w3.org/2000/svg" xmlns:xlink="http://www.w3.org/1999/xlink">
<g id="graph0" class="graph" transform="scale(1 1) rotate(0) translate(4 372)">
<title>InheritanceGraph</title>
<g id="clust1" class="cluster">
<title>cluster_builtins</title>
<path fill="transparent" stroke="#bcd2ee" stroke-width="2" stroke-dasharray="5,2" d="M20,-220C20,-220 118,-220 118,-220 124,-220 130,-226 130,-232 130,-232 130,-263 130,-263 130,-269 124,-275 118,-275 118,-275 20,-275 20,-275 14,-275 8,-269 8,-263 8,-263 8,-232 8,-232 8,-226 14,-220 20,-220"/>
<text text-anchor="middle" x="69" y="-263" font-family="Arial" font-size="10.00" fill="#000000">builtins</text>
</g>
<g id="clust2" class="cluster">
<title>cluster_enum</title>
<path fill="transparent" stroke="#bcd2ee" stroke-width="2" stroke-dasharray="5,2" d="M174,-182C174,-182 277,-182 277,-182 283,-182 289,-188 289,-194 289,-194 289,-235 289,-235 289,-241 283,-247 277,-247 277,-247 174,-247 174,-247 168,-247 162,-241 162,-235 162,-235 162,-194 162,-194 162,-188 168,-182 174,-182"/>
<text text-anchor="middle" x="225.5" y="-235" font-family="Arial" font-size="10.00" fill="#000000">enum</text>
</g>
<g id="clust3" class="cluster">
<title>cluster_supriya.midi</title>
<path fill="transparent" stroke="#bcd2ee" stroke-width="2" stroke-dasharray="5,2" d="M416,-8C416,-8 623,-8 623,-8 629,-8 635,-14 635,-20 635,-20 635,-302 635,-302 635,-308 629,-314 623,-314 623,-314 416,-314 416,-314 410,-314 404,-308 404,-302 404,-302 404,-20 404,-20 404,-14 410,-8 416,-8"/>
<text text-anchor="middle" x="519.5" y="-302" font-family="Arial" font-size="10.00" fill="#000000">supriya.midi</text>
</g>
<g id="clust4" class="cluster">
<title>cluster_supriya.system</title>
<path fill="transparent" stroke="#bcd2ee" stroke-width="2" stroke-dasharray="5,2" d="M93,-283C93,-283 205,-283 205,-283 211,-283 217,-289 217,-295 217,-295 217,-348 217,-348 217,-354 211,-360 205,-360 205,-360 93,-360 93,-360 87,-360 81,-354 81,-348 81,-348 81,-295 81,-295 81,-289 87,-283 93,-283"/>
<text text-anchor="middle" x="149" y="-348" font-family="Arial" font-size="10.00" fill="#000000">supriya.system</text>
</g>
<g id="clust5" class="cluster">
<title>cluster_uqbar.enums</title>
<path fill="transparent" stroke="#bcd2ee" stroke-width="2" stroke-dasharray="5,2" d="M321,-190C321,-190 372,-190 372,-190 378,-190 384,-196 384,-202 384,-202 384,-243 384,-243 384,-249 378,-255 372,-255 372,-255 321,-255 321,-255 315,-255 309,-249 309,-243 309,-243 309,-202 309,-202 309,-196 315,-190 321,-190"/>
<text text-anchor="middle" x="346.5" y="-243" font-family="Arial" font-size="10.00" fill="#000000">uqbar.enums</text>
</g>
<!-- builtins.int&#45;&gt;enum.IntEnum -->
<g id="edge7" class="edge">
<title>builtins.int&#45;&gt;enum.IntEnum</title>
<path fill="none" stroke="#778899" d="M122.294,-236.3063C142.2952,-233.4415 183.0602,-227.1471 217,-219 222.9281,-217.577 229.2175,-215.8265 235.1797,-214.0512"/>
<polygon fill="#778899" stroke="#778899" points="236.2562,-217.382 244.783,-211.0935 234.1958,-210.6921 236.2562,-217.382"/>
</g>
<!-- builtins.object&#45;&gt;builtins.int -->
<g id="edge1" class="edge">
<title>builtins.object&#45;&gt;builtins.int</title>
<path fill="none" stroke="#778899" d="M53.1629,-238C63.6431,-238 76.7867,-238 87.794,-238"/>
<polygon fill="#778899" stroke="#778899" points="87.9115,-241.5001 97.9115,-238 87.9115,-234.5001 87.9115,-241.5001"/>
</g>
<!-- builtins.object&#45;&gt;enum.Enum -->
<g id="edge8" class="edge">
<title>builtins.object&#45;&gt;enum.Enum</title>
<path fill="none" stroke="#778899" d="M53.2345,-229.8386C61.6082,-226.4288 71.6743,-222.652 81,-220 107.3999,-212.4926 138.2837,-207.0664 160.0668,-203.7762"/>
<polygon fill="#778899" stroke="#778899" points="160.5792,-207.2386 169.9698,-202.3328 159.5695,-200.3117 160.5792,-207.2386"/>
</g>
<!-- builtins.object&#45;&gt;supriya.midi.Device.Device -->
<g id="edge9" class="edge">
<title>builtins.object&#45;&gt;supriya.midi.Device.Device</title>
<path fill="none" stroke="#778899" d="M45.1397,-228.3745C68.8936,-207.924 128.8237,-162 188,-162 188,-162 188,-162 263,-162 313.0469,-162 371.1736,-165.4017 405.562,-167.7687"/>
<polygon fill="#778899" stroke="#778899" points="405.631,-171.2822 415.8527,-168.4953 406.124,-164.2996 405.631,-171.2822"/>
</g>
<!-- builtins.object&#45;&gt;supriya.midi.LogicalControl.LogicalControl -->
<g id="edge10" class="edge">
<title>builtins.object&#45;&gt;supriya.midi.LogicalControl.LogicalControl</title>
<path fill="none" stroke="#778899" d="M38.8716,-228.385C45.8773,-213.9309 60.9004,-186.5388 81,-170 120.9716,-137.1097 136.2361,-124 188,-124 188,-124 188,-124 263,-124 312.4601,-124 369.8853,-125.2482 404.4212,-126.1344"/>
<polygon fill="#778899" stroke="#778899" points="404.7021,-129.6429 414.7908,-126.4073 404.8863,-122.6453 404.7021,-129.6429"/>
</g>
<!-- builtins.object&#45;&gt;supriya.midi.LogicalView.LogicalView -->
<g id="edge11" class="edge">
<title>builtins.object&#45;&gt;supriya.midi.LogicalView.LogicalView</title>
<path fill="none" stroke="#778899" d="M36.2284,-228.3322C40.3816,-207.7043 52.7476,-158.9062 81,-130 117.5597,-92.5943 135.6951,-81 188,-81 188,-81 188,-81 263,-81 312.7262,-81 370.5102,-80.1587 404.9838,-79.5674"/>
<polygon fill="#778899" stroke="#778899" points="405.3808,-83.0611 415.3176,-79.3856 405.2576,-76.0622 405.3808,-83.0611"/>
</g>
<!-- builtins.object&#45;&gt;supriya.midi.PhysicalControl.PhysicalControl -->
<g id="edge12" class="edge">
<title>builtins.object&#45;&gt;supriya.midi.PhysicalControl.PhysicalControl</title>
<path fill="none" stroke="#778899" d="M36.3492,-228.4405C42.2768,-198.6291 61.5547,-108.0373 81,-86 115.4852,-46.9179 135.8786,-38 188,-38 188,-38 188,-38 263,-38 312.0286,-38 368.8312,-35.142 403.455,-33.0783"/>
<polygon fill="#778899" stroke="#778899" points="403.6872,-36.5708 413.4551,-32.4674 403.2603,-29.5838 403.6872,-36.5708"/>
</g>
<!-- builtins.object&#45;&gt;supriya.system.SupriyaObject.SupriyaObject -->
<g id="edge13" class="edge">
<title>builtins.object&#45;&gt;supriya.system.SupriyaObject.SupriyaObject</title>
<path fill="none" stroke="#778899" d="M44.6823,-247.5754C55.3461,-257.6037 72.4634,-273.7007 86.4999,-286.9006"/>
<polygon fill="#778899" stroke="#778899" points="84.2379,-289.5779 93.9205,-293.8789 89.0334,-284.4785 84.2379,-289.5779"/>
</g>
<!-- enum.Enum&#45;&gt;enum.IntEnum -->
<g id="edge2" class="edge">
<title>enum.Enum&#45;&gt;enum.IntEnum</title>
<path fill="none" stroke="#778899" d="M206.1554,-201.2104C214.6599,-201.7773 224.9924,-202.4662 234.5036,-203.1002"/>
<polygon fill="#778899" stroke="#778899" points="234.5411,-206.6104 244.7518,-203.7835 235.0068,-199.6259 234.5411,-206.6104"/>
</g>
<!-- enum.IntEnum&#45;&gt;uqbar.enums.IntEnumeration -->
<g id="edge14" class="edge">
<title>enum.IntEnum&#45;&gt;uqbar.enums.IntEnumeration</title>
<path fill="none" stroke="#778899" d="M281.1183,-206.7359C288.7154,-207.4638 297.8693,-208.3408 306.8896,-209.205"/>
<polygon fill="#778899" stroke="#778899" points="306.6387,-212.6969 316.927,-210.1667 307.3064,-205.7288 306.6387,-212.6969"/>
</g>
<!-- supriya.midi.MidiMessage.MidiMessage&#45;&gt;supriya.midi.ControllerChangeMessage.ControllerChangeMessage -->
<g id="edge3" class="edge">
<title>supriya.midi.MidiMessage.MidiMessage&#45;&gt;supriya.midi.ControllerChangeMessage.ControllerChangeMessage</title>
<path fill="none" stroke="#778899" d="M450.4219,-256.7684C453.2707,-253.8583 456.2281,-250.8357 459,-248 469.8281,-236.9225 481.7367,-224.7223 492.1035,-214.0961"/>
<polygon fill="#778899" stroke="#778899" points="494.8649,-216.2777 499.3422,-206.6753 489.8541,-211.3898 494.8649,-216.2777"/>
</g>
<!-- supriya.midi.MidiMessage.MidiMessage&#45;&gt;supriya.midi.NoteOffMessage.NoteOffMessage -->
<g id="edge4" class="edge">
<title>supriya.midi.MidiMessage.MidiMessage&#45;&gt;supriya.midi.NoteOffMessage.NoteOffMessage</title>
<path fill="none" stroke="#778899" d="M456.1904,-256.8299C467.1723,-249.5776 481.2185,-241.5118 495,-237 519.1227,-229.1028 547.7355,-226.4601 569.5202,-225.7344"/>
<polygon fill="#778899" stroke="#778899" points="569.6938,-229.2316 579.6163,-225.5175 569.5434,-222.2332 569.6938,-229.2316"/>
</g>
<!-- supriya.midi.MidiMessage.MidiMessage&#45;&gt;supriya.midi.NoteOnMessage.NoteOnMessage -->
<g id="edge5" class="edge">
<title>supriya.midi.MidiMessage.MidiMessage&#45;&gt;supriya.midi.NoteOnMessage.NoteOnMessage</title>
<path fill="none" stroke="#778899" d="M459.3463,-270.2967C467.5738,-269.709 476.9522,-269.0391 485.8159,-268.406"/>
<polygon fill="#778899" stroke="#778899" points="486.1596,-271.8905 495.8848,-267.6868 485.6608,-264.9083 486.1596,-271.8905"/>
</g>
<!-- supriya.system.SupriyaObject.SupriyaObject&#45;&gt;supriya.system.SupriyaValueObject.SupriyaValueObject -->
<g id="edge6" class="edge">
<title>supriya.system.SupriyaObject.SupriyaObject&#45;&gt;supriya.system.SupriyaValueObject.SupriyaValueObject</title>
<path fill="none" stroke="#778899" d="M131.3138,-309.8198C139.2025,-310.1232 148.316,-310.4737 156.8971,-310.8037"/>
<polygon fill="#778899" stroke="#778899" points="156.8548,-314.3046 166.982,-311.1916 157.1239,-307.3098 156.8548,-314.3046"/>
</g>
<!-- supriya.system.SupriyaValueObject.SupriyaValueObject&#45;&gt;supriya.midi.MidiMessage.MidiMessage -->
<g id="edge15" class="edge">
<title>supriya.system.SupriyaValueObject.SupriyaValueObject&#45;&gt;supriya.midi.MidiMessage.MidiMessage</title>
<path fill="none" stroke="#778899" d="M209.1017,-308.5896C252.0821,-301.6433 350.0816,-285.805 401.9172,-277.4275"/>
<polygon fill="#778899" stroke="#778899" points="402.6268,-280.8583 411.9402,-275.8076 401.5099,-273.948 402.6268,-280.8583"/>
</g>
<!-- uqbar.enums.IntEnumeration&#45;&gt;supriya.midi.LogicalControlMode.LogicalControlMode -->
<g id="edge16" class="edge">
<title>uqbar.enums.IntEnumeration&#45;&gt;supriya.midi.LogicalControlMode.LogicalControlMode</title>
<path fill="none" stroke="#778899" d="M376.1357,-214.6649C385.3942,-215.1851 395.6225,-215.7597 404.943,-216.2833"/>
<polygon fill="#778899" stroke="#778899" points="404.7997,-219.7807 414.9803,-216.8472 405.1924,-212.7917 404.7997,-219.7807"/>
</g>
<!-- builtins.int -->
<g id="node1" class="node">
<title>builtins.int</title>
<g id="a_node1"><a xlink:href="https://docs.python.org/3.6/library/functions.html#int" xlink:title="int" target="_top">
<path fill="#fbb4ae" stroke="#fbb4ae" stroke-width="2" d="M115.6667,-247.5C115.6667,-247.5 104.3333,-247.5 104.3333,-247.5 101.1667,-247.5 98,-244.3333 98,-241.1667 98,-241.1667 98,-234.8333 98,-234.8333 98,-231.6667 101.1667,-228.5 104.3333,-228.5 104.3333,-228.5 115.6667,-228.5 115.6667,-228.5 118.8333,-228.5 122,-231.6667 122,-234.8333 122,-234.8333 122,-241.1667 122,-241.1667 122,-244.3333 118.8333,-247.5 115.6667,-247.5"/>
<text text-anchor="middle" x="110" y="-235.5" font-family="Arial" font-size="10.00" fill="#000000">int</text>
</a>
</g>
</g>
<!-- builtins.object -->
<g id="node2" class="node">
<title>builtins.object</title>
<g id="a_node2"><a xlink:href="https://docs.python.org/3.6/library/functions.html#object" xlink:title="object" target="_top">
<path fill="#fbb4ae" stroke="#fbb4ae" stroke-width="2" d="M46.6667,-247.5C46.6667,-247.5 22.3333,-247.5 22.3333,-247.5 19.1667,-247.5 16,-244.3333 16,-241.1667 16,-241.1667 16,-234.8333 16,-234.8333 16,-231.6667 19.1667,-228.5 22.3333,-228.5 22.3333,-228.5 46.6667,-228.5 46.6667,-228.5 49.8333,-228.5 53,-231.6667 53,-234.8333 53,-234.8333 53,-241.1667 53,-241.1667 53,-244.3333 49.8333,-247.5 46.6667,-247.5"/>
<text text-anchor="middle" x="34.5" y="-235.5" font-family="Arial" font-size="10.00" fill="#000000">object</text>
</a>
</g>
</g>
<!-- enum.Enum -->
<g id="node3" class="node">
<title>enum.Enum</title>
<g id="a_node3"><a xlink:href="https://docs.python.org/3.6/library/enum.html#enum.Enum" xlink:title="Enum" target="_top">
<path fill="#b3cde3" stroke="#b3cde3" stroke-width="2" d="M199.6667,-209.5C199.6667,-209.5 176.3333,-209.5 176.3333,-209.5 173.1667,-209.5 170,-206.3333 170,-203.1667 170,-203.1667 170,-196.8333 170,-196.8333 170,-193.6667 173.1667,-190.5 176.3333,-190.5 176.3333,-190.5 199.6667,-190.5 199.6667,-190.5 202.8333,-190.5 206,-193.6667 206,-196.8333 206,-196.8333 206,-203.1667 206,-203.1667 206,-206.3333 202.8333,-209.5 199.6667,-209.5"/>
<text text-anchor="middle" x="188" y="-197.5" font-family="Arial" font-size="10.00" fill="#000000">Enum</text>
</a>
</g>
</g>
<!-- enum.IntEnum -->
<g id="node4" class="node">
<title>enum.IntEnum</title>
<g id="a_node4"><a xlink:href="https://docs.python.org/3.6/library/enum.html#enum.IntEnum" xlink:title="Int\nEnum" target="_top">
<path fill="#b3cde3" stroke="#b3cde3" stroke-width="2" d="M271,-220C271,-220 255,-220 255,-220 250,-220 245,-215 245,-210 245,-210 245,-200 245,-200 245,-195 250,-190 255,-190 255,-190 271,-190 271,-190 276,-190 281,-195 281,-200 281,-200 281,-210 281,-210 281,-215 276,-220 271,-220"/>
<text text-anchor="middle" x="263" y="-208" font-family="Arial" font-size="10.00" fill="#000000">Int</text>
<text text-anchor="middle" x="263" y="-197" font-family="Arial" font-size="10.00" fill="#000000">Enum</text>
</a>
</g>
</g>
<!-- supriya.midi.ControllerChangeMessage.ControllerChangeMessage -->
<g id="node5" class="node">
<title>supriya.midi.ControllerChangeMessage.ControllerChangeMessage</title>
<g id="a_node5"><a xlink:href="../api/supriya/midi/ControllerChangeMessage.html#supriya.midi.ControllerChangeMessage.ControllerChangeMessage" xlink:title="Controller\nChange\nMessage" target="_top">
<path fill="#000000" stroke="#000000" stroke-width="2" d="M532,-206.5C532,-206.5 507,-206.5 507,-206.5 501,-206.5 495,-200.5 495,-194.5 495,-194.5 495,-177.5 495,-177.5 495,-171.5 501,-165.5 507,-165.5 507,-165.5 532,-165.5 532,-165.5 538,-165.5 544,-171.5 544,-177.5 544,-177.5 544,-194.5 544,-194.5 544,-200.5 538,-206.5 532,-206.5"/>
<text text-anchor="middle" x="519.5" y="-194.5" font-family="Arial" font-size="10.00" fill="#ffffff">Controller</text>
<text text-anchor="middle" x="519.5" y="-183.5" font-family="Arial" font-size="10.00" fill="#ffffff">Change</text>
<text text-anchor="middle" x="519.5" y="-172.5" font-family="Arial" font-size="10.00" fill="#ffffff">Message</text>
</a>
</g>
</g>
<!-- supriya.midi.Device.Device -->
<g id="node6" class="node">
<title>supriya.midi.Device.Device</title>
<g id="a_node6"><a xlink:href="../api/supriya/midi/Device.html#supriya.midi.Device.Device" xlink:title="Device" target="_top">
<path fill="#000000" stroke="#000000" stroke-width="2" d="M448.6667,-179.5C448.6667,-179.5 422.3333,-179.5 422.3333,-179.5 419.1667,-179.5 416,-176.3333 416,-173.1667 416,-173.1667 416,-166.8333 416,-166.8333 416,-163.6667 419.1667,-160.5 422.3333,-160.5 422.3333,-160.5 448.6667,-160.5 448.6667,-160.5 451.8333,-160.5 455,-163.6667 455,-166.8333 455,-166.8333 455,-173.1667 455,-173.1667 455,-176.3333 451.8333,-179.5 448.6667,-179.5"/>
<text text-anchor="middle" x="435.5" y="-167.5" font-family="Arial" font-size="10.00" fill="#ffffff">Device</text>
</a>
</g>
</g>
<!-- supriya.midi.LogicalControl.LogicalControl -->
<g id="node7" class="node">
<title>supriya.midi.LogicalControl.LogicalControl</title>
<g id="a_node7"><a xlink:href="../api/supriya/midi/LogicalControl.html#supriya.midi.LogicalControl.LogicalControl" xlink:title="Logical\nControl" target="_top">
<path fill="#000000" stroke="#000000" stroke-width="2" d="M446,-142C446,-142 425,-142 425,-142 420,-142 415,-137 415,-132 415,-132 415,-122 415,-122 415,-117 420,-112 425,-112 425,-112 446,-112 446,-112 451,-112 456,-117 456,-122 456,-122 456,-132 456,-132 456,-137 451,-142 446,-142"/>
<text text-anchor="middle" x="435.5" y="-130" font-family="Arial" font-size="10.00" fill="#ffffff">Logical</text>
<text text-anchor="middle" x="435.5" y="-119" font-family="Arial" font-size="10.00" fill="#ffffff">Control</text>
</a>
</g>
</g>
<!-- supriya.midi.LogicalControlMode.LogicalControlMode -->
<g id="node8" class="node">
<title>supriya.midi.LogicalControlMode.LogicalControlMode</title>
<g id="a_node8"><a xlink:href="../api/supriya/midi/LogicalControlMode.html#supriya.midi.LogicalControlMode.LogicalControlMode" xlink:title="Logical\nControl\nMode" target="_top">
<path fill="#000000" stroke="#000000" stroke-width="2" d="M444,-238.5C444,-238.5 427,-238.5 427,-238.5 421,-238.5 415,-232.5 415,-226.5 415,-226.5 415,-209.5 415,-209.5 415,-203.5 421,-197.5 427,-197.5 427,-197.5 444,-197.5 444,-197.5 450,-197.5 456,-203.5 456,-209.5 456,-209.5 456,-226.5 456,-226.5 456,-232.5 450,-238.5 444,-238.5"/>
<text text-anchor="middle" x="435.5" y="-226.5" font-family="Arial" font-size="10.00" fill="#ffffff">Logical</text>
<text text-anchor="middle" x="435.5" y="-215.5" font-family="Arial" font-size="10.00" fill="#ffffff">Control</text>
<text text-anchor="middle" x="435.5" y="-204.5" font-family="Arial" font-size="10.00" fill="#ffffff">Mode</text>
</a>
</g>
</g>
<!-- supriya.midi.LogicalView.LogicalView -->
<g id="node9" class="node">
<title>supriya.midi.LogicalView.LogicalView</title>
<g id="a_node9"><a xlink:href="../api/supriya/midi/LogicalView.html#supriya.midi.LogicalView.LogicalView" xlink:title="Logical\nView" target="_top">
<path fill="#000000" stroke="#000000" stroke-width="2" d="M445.5,-94C445.5,-94 425.5,-94 425.5,-94 420.5,-94 415.5,-89 415.5,-84 415.5,-84 415.5,-74 415.5,-74 415.5,-69 420.5,-64 425.5,-64 425.5,-64 445.5,-64 445.5,-64 450.5,-64 455.5,-69 455.5,-74 455.5,-74 455.5,-84 455.5,-84 455.5,-89 450.5,-94 445.5,-94"/>
<text text-anchor="middle" x="435.5" y="-82" font-family="Arial" font-size="10.00" fill="#ffffff">Logical</text>
<text text-anchor="middle" x="435.5" y="-71" font-family="Arial" font-size="10.00" fill="#ffffff">View</text>
</a>
</g>
</g>
<!-- supriya.midi.MidiMessage.MidiMessage -->
<g id="node10" class="node">
<title>supriya.midi.MidiMessage.MidiMessage</title>
<g id="a_node10"><a xlink:href="../api/supriya/midi/MidiMessage.html#supriya.midi.MidiMessage.MidiMessage" xlink:title="Midi\nMessage" target="_top">
<path fill="#000000" stroke="#000000" stroke-width="2" d="M449,-287C449,-287 422,-287 422,-287 417,-287 412,-282 412,-277 412,-277 412,-267 412,-267 412,-262 417,-257 422,-257 422,-257 449,-257 449,-257 454,-257 459,-262 459,-267 459,-267 459,-277 459,-277 459,-282 454,-287 449,-287"/>
<text text-anchor="middle" x="435.5" y="-275" font-family="Arial" font-size="10.00" fill="#ffffff">Midi</text>
<text text-anchor="middle" x="435.5" y="-264" font-family="Arial" font-size="10.00" fill="#ffffff">Message</text>
</a>
</g>
</g>
<!-- supriya.midi.NoteOffMessage.NoteOffMessage -->
<g id="node11" class="node">
<title>supriya.midi.NoteOffMessage.NoteOffMessage</title>
<g id="a_node11"><a xlink:href="../api/supriya/midi/NoteOffMessage.html#supriya.midi.NoteOffMessage.NoteOffMessage" xlink:title="Note\nOff\nMessage" target="_top">
<path fill="#000000" stroke="#000000" stroke-width="2" d="M615,-246.5C615,-246.5 592,-246.5 592,-246.5 586,-246.5 580,-240.5 580,-234.5 580,-234.5 580,-217.5 580,-217.5 580,-211.5 586,-205.5 592,-205.5 592,-205.5 615,-205.5 615,-205.5 621,-205.5 627,-211.5 627,-217.5 627,-217.5 627,-234.5 627,-234.5 627,-240.5 621,-246.5 615,-246.5"/>
<text text-anchor="middle" x="603.5" y="-234.5" font-family="Arial" font-size="10.00" fill="#ffffff">Note</text>
<text text-anchor="middle" x="603.5" y="-223.5" font-family="Arial" font-size="10.00" fill="#ffffff">Off</text>
<text text-anchor="middle" x="603.5" y="-212.5" font-family="Arial" font-size="10.00" fill="#ffffff">Message</text>
</a>
</g>
</g>
<!-- supriya.midi.NoteOnMessage.NoteOnMessage -->
<g id="node12" class="node">
<title>supriya.midi.NoteOnMessage.NoteOnMessage</title>
<g id="a_node12"><a xlink:href="../api/supriya/midi/NoteOnMessage.html#supriya.midi.NoteOnMessage.NoteOnMessage" xlink:title="Note\nOn\nMessage" target="_top">
<path fill="#000000" stroke="#000000" stroke-width="2" d="M531,-286.5C531,-286.5 508,-286.5 508,-286.5 502,-286.5 496,-280.5 496,-274.5 496,-274.5 496,-257.5 496,-257.5 496,-251.5 502,-245.5 508,-245.5 508,-245.5 531,-245.5 531,-245.5 537,-245.5 543,-251.5 543,-257.5 543,-257.5 543,-274.5 543,-274.5 543,-280.5 537,-286.5 531,-286.5"/>
<text text-anchor="middle" x="519.5" y="-274.5" font-family="Arial" font-size="10.00" fill="#ffffff">Note</text>
<text text-anchor="middle" x="519.5" y="-263.5" font-family="Arial" font-size="10.00" fill="#ffffff">On</text>
<text text-anchor="middle" x="519.5" y="-252.5" font-family="Arial" font-size="10.00" fill="#ffffff">Message</text>
</a>
</g>
</g>
<!-- supriya.midi.PhysicalControl.PhysicalControl -->
<g id="node13" class="node">
<title>supriya.midi.PhysicalControl.PhysicalControl</title>
<g id="a_node13"><a xlink:href="../api/supriya/midi/PhysicalControl.html#supriya.midi.PhysicalControl.PhysicalControl" xlink:title="Physical\nControl" target="_top">
<path fill="#000000" stroke="#000000" stroke-width="2" d="M447.5,-46C447.5,-46 423.5,-46 423.5,-46 418.5,-46 413.5,-41 413.5,-36 413.5,-36 413.5,-26 413.5,-26 413.5,-21 418.5,-16 423.5,-16 423.5,-16 447.5,-16 447.5,-16 452.5,-16 457.5,-21 457.5,-26 457.5,-26 457.5,-36 457.5,-36 457.5,-41 452.5,-46 447.5,-46"/>
<text text-anchor="middle" x="435.5" y="-34" font-family="Arial" font-size="10.00" fill="#ffffff">Physical</text>
<text text-anchor="middle" x="435.5" y="-23" font-family="Arial" font-size="10.00" fill="#ffffff">Control</text>
</a>
</g>
</g>
<!-- supriya.system.SupriyaObject.SupriyaObject -->
<g id="node14" class="node">
<title>supriya.system.SupriyaObject.SupriyaObject</title>
<g id="a_node14"><a xlink:href="../api/supriya/midi/../system/SupriyaObject.html#supriya.system.SupriyaObject.SupriyaObject" xlink:title="Supriya\nObject" target="_top">
<path fill="#decbe4" stroke="#decbe4" stroke-width="2" d="M121,-324C121,-324 99,-324 99,-324 94,-324 89,-319 89,-314 89,-314 89,-304 89,-304 89,-299 94,-294 99,-294 99,-294 121,-294 121,-294 126,-294 131,-299 131,-304 131,-304 131,-314 131,-314 131,-319 126,-324 121,-324"/>
<text text-anchor="middle" x="110" y="-312" font-family="Arial" font-size="10.00" fill="#000000">Supriya</text>
<text text-anchor="middle" x="110" y="-301" font-family="Arial" font-size="10.00" fill="#000000">Object</text>
</a>
</g>
</g>
<!-- supriya.system.SupriyaValueObject.SupriyaValueObject -->
<g id="node15" class="node">
<title>supriya.system.SupriyaValueObject.SupriyaValueObject</title>
<g id="a_node15"><a xlink:href="../api/supriya/midi/../system/SupriyaValueObject.html#supriya.system.SupriyaValueObject.SupriyaValueObject" xlink:title="Supriya\nValue\nObject" target="_top">
<path fill="#decbe4" stroke="#decbe4" stroke-width="2" d="M197,-332.5C197,-332.5 179,-332.5 179,-332.5 173,-332.5 167,-326.5 167,-320.5 167,-320.5 167,-303.5 167,-303.5 167,-297.5 173,-291.5 179,-291.5 179,-291.5 197,-291.5 197,-291.5 203,-291.5 209,-297.5 209,-303.5 209,-303.5 209,-320.5 209,-320.5 209,-326.5 203,-332.5 197,-332.5"/>
<text text-anchor="middle" x="188" y="-320.5" font-family="Arial" font-size="10.00" fill="#000000">Supriya</text>
<text text-anchor="middle" x="188" y="-309.5" font-family="Arial" font-size="10.00" fill="#000000">Value</text>
<text text-anchor="middle" x="188" y="-298.5" font-family="Arial" font-size="10.00" fill="#000000">Object</text>
</a>
</g>
</g>
<!-- uqbar.enums.IntEnumeration -->
<g id="node16" class="node">
<title>uqbar.enums.IntEnumeration</title>
<path fill="#fed9a6" stroke="#fed9a6" stroke-width="2" d="M366,-228C366,-228 327,-228 327,-228 322,-228 317,-223 317,-218 317,-218 317,-208 317,-208 317,-203 322,-198 327,-198 327,-198 366,-198 366,-198 371,-198 376,-203 376,-208 376,-208 376,-218 376,-218 376,-223 371,-228 366,-228"/>
<text text-anchor="middle" x="346.5" y="-216" font-family="Arial" font-size="10.00" fill="#000000">Int</text>
<text text-anchor="middle" x="346.5" y="-205" font-family="Arial" font-size="10.00" fill="#000000">Enumeration</text>
</g>
</g>
</svg>
