<?xml version="1.0" encoding="UTF-8" standalone="no"?>
<!DOCTYPE svg PUBLIC "-//W3C//DTD SVG 1.1//EN"
 "http://www.w3.org/Graphics/SVG/1.1/DTD/svg11.dtd">
<!-- Generated by graphviz version 2.40.1 (20161225.0304)
 -->
<!-- Title: InheritanceGraph Pages: 1 -->
<svg width="626pt" height="420pt"
 viewBox="0.00 0.00 625.55 420.00" xmlns="http://www.w3.org/2000/svg" xmlns:xlink="http://www.w3.org/1999/xlink">
<g id="graph0" class="graph" transform="scale(1 1) rotate(0) translate(4 416)">
<title>InheritanceGraph</title>
<g id="clust3" class="cluster">
<title>cluster_enum</title>
<path fill="transparent" stroke="#bcd2ee" stroke-width="2" stroke-dasharray="5,2" d="M169.6482,-177C169.6482,-177 305.066,-177 305.066,-177 311.066,-177 317.066,-183 317.066,-189 317.066,-189 317.066,-230 317.066,-230 317.066,-236 311.066,-242 305.066,-242 305.066,-242 169.6482,-242 169.6482,-242 163.6482,-242 157.6482,-236 157.6482,-230 157.6482,-230 157.6482,-189 157.6482,-189 157.6482,-183 163.6482,-177 169.6482,-177"/>
<text text-anchor="middle" x="237.3571" y="-230" font-family="Arial" font-size="10.00" fill="#000000">enum</text>
</g>
<g id="clust4" class="cluster">
<title>cluster_supriya.soundfiles</title>
<path fill="transparent" stroke="#bcd2ee" stroke-width="2" stroke-dasharray="5,2" d="M552.5462,-8C552.5462,-8 605.5462,-8 605.5462,-8 611.5462,-8 617.5462,-14 617.5462,-20 617.5462,-20 617.5462,-270 617.5462,-270 617.5462,-276 611.5462,-282 605.5462,-282 605.5462,-282 552.5462,-282 552.5462,-282 546.5462,-282 540.5462,-276 540.5462,-270 540.5462,-270 540.5462,-20 540.5462,-20 540.5462,-14 546.5462,-8 552.5462,-8"/>
<text text-anchor="middle" x="579.0462" y="-270" font-family="Arial" font-size="10.00" fill="#000000">supriya.soundfiles</text>
</g>
<g id="clust1" class="cluster">
<title>cluster_builtins</title>
<path fill="transparent" stroke="#bcd2ee" stroke-width="2" stroke-dasharray="5,2" d="M20,-216C20,-216 109,-216 109,-216 115,-216 121,-222 121,-228 121,-228 121,-259 121,-259 121,-265 115,-271 109,-271 109,-271 20,-271 20,-271 14,-271 8,-265 8,-259 8,-259 8,-228 8,-228 8,-222 14,-216 20,-216"/>
<text text-anchor="middle" x="64.5" y="-259" font-family="Arial" font-size="10.00" fill="#000000">builtins</text>
</g>
<g id="clust2" class="cluster">
<title>cluster_collections.abc</title>
<path fill="transparent" stroke="#bcd2ee" stroke-width="2" stroke-dasharray="5,2" d="M153,-253C153,-253 430.5462,-253 430.5462,-253 436.5462,-253 442.5462,-259 442.5462,-265 442.5462,-265 442.5462,-392 442.5462,-392 442.5462,-398 436.5462,-404 430.5462,-404 430.5462,-404 153,-404 153,-404 147,-404 141,-398 141,-392 141,-392 141,-265 141,-265 141,-259 147,-253 153,-253"/>
<text text-anchor="middle" x="291.7731" y="-392" font-family="Arial" font-size="10.00" fill="#000000">collections.abc</text>
</g>
<g id="clust5" class="cluster">
<title>cluster_supriya.system</title>
<path fill="transparent" stroke="#bcd2ee" stroke-width="2" stroke-dasharray="5,2" d="M382.1909,-83C382.1909,-83 508.5462,-83 508.5462,-83 514.5462,-83 520.5462,-89 520.5462,-95 520.5462,-95 520.5462,-148 520.5462,-148 520.5462,-154 514.5462,-160 508.5462,-160 508.5462,-160 382.1909,-160 382.1909,-160 376.1909,-160 370.1909,-154 370.1909,-148 370.1909,-148 370.1909,-95 370.1909,-95 370.1909,-89 376.1909,-83 382.1909,-83"/>
<text text-anchor="middle" x="445.3686" y="-148" font-family="Arial" font-size="10.00" fill="#000000">supriya.system</text>
</g>
<g id="clust6" class="cluster">
<title>cluster_uqbar.enums</title>
<path fill="transparent" stroke="#bcd2ee" stroke-width="2" stroke-dasharray="5,2" d="M373.6909,-180C373.6909,-180 424.6909,-180 424.6909,-180 430.6909,-180 436.6909,-186 436.6909,-192 436.6909,-192 436.6909,-233 436.6909,-233 436.6909,-239 430.6909,-245 424.6909,-245 424.6909,-245 373.6909,-245 373.6909,-245 367.6909,-245 361.6909,-239 361.6909,-233 361.6909,-233 361.6909,-192 361.6909,-192 361.6909,-186 367.6909,-180 373.6909,-180"/>
<text text-anchor="middle" x="399.1909" y="-233" font-family="Arial" font-size="10.00" fill="#000000">uqbar.enums</text>
</g>
<!-- builtins.int&#45;&gt;enum.IntEnum -->
<g id="edge10" class="edge">
<title>builtins.int&#45;&gt;enum.IntEnum</title>
<path fill="none" stroke="#778899" d="M113.0036,-232.0395C134.2544,-228.5494 179.8802,-220.9697 218.2965,-214 232.9795,-211.3361 249.2961,-208.2121 262.7517,-205.5918"/>
<polygon fill="#778899" stroke="#778899" points="263.7019,-208.9723 272.8435,-203.6167 262.3574,-202.1026 263.7019,-208.9723"/>
</g>
<!-- builtins.object&#45;&gt;builtins.int -->
<g id="edge1" class="edge">
<title>builtins.object&#45;&gt;builtins.int</title>
<path fill="none" stroke="#778899" d="M53.024,-234C60.9336,-234 70.2365,-234 78.5344,-234"/>
<polygon fill="#778899" stroke="#778899" points="78.6623,-237.5001 88.6623,-234 78.6623,-230.5001 78.6623,-237.5001"/>
</g>
<!-- builtins.object&#45;&gt;collections.abc.Container -->
<g id="edge11" class="edge">
<title>builtins.object&#45;&gt;collections.abc.Container</title>
<path fill="none" stroke="#778899" d="M42.1915,-243.6156C58.6344,-263.709 99.1319,-310.7835 141,-341 144.707,-343.6753 148.762,-346.2513 152.8502,-348.6495"/>
<polygon fill="#778899" stroke="#778899" points="151.2897,-351.7864 161.7308,-353.5852 154.6903,-345.6679 151.2897,-351.7864"/>
</g>
<!-- builtins.object&#45;&gt;collections.abc.Iterable -->
<g id="edge12" class="edge">
<title>builtins.object&#45;&gt;collections.abc.Iterable</title>
<path fill="none" stroke="#778899" d="M53.2431,-241.1441C63.6755,-244.9658 76.9517,-249.576 89,-253 107.6772,-258.3079 128.741,-263.0964 146.2479,-266.7557"/>
<polygon fill="#778899" stroke="#778899" points="145.6006,-270.1957 156.0997,-268.7752 147.0063,-263.3383 145.6006,-270.1957"/>
</g>
<!-- builtins.object&#45;&gt;collections.abc.Sized -->
<g id="edge13" class="edge">
<title>builtins.object&#45;&gt;collections.abc.Sized</title>
<path fill="none" stroke="#778899" d="M48.1311,-243.5865C59.003,-251.0892 74.7216,-261.6199 89,-270 110.9791,-282.8996 136.7046,-296.1023 155.7834,-305.548"/>
<polygon fill="#778899" stroke="#778899" points="154.3154,-308.7264 164.8341,-309.9943 157.402,-302.4436 154.3154,-308.7264"/>
</g>
<!-- builtins.object&#45;&gt;enum.Enum -->
<g id="edge14" class="edge">
<title>builtins.object&#45;&gt;enum.Enum</title>
<path fill="none" stroke="#778899" d="M53.024,-227.3674C63.5034,-223.7453 76.8951,-219.3327 89,-216 111.0786,-209.9212 136.423,-204.3722 155.3257,-200.5069"/>
<polygon fill="#778899" stroke="#778899" points="156.256,-203.8899 165.3697,-198.4872 154.876,-197.0273 156.256,-203.8899"/>
</g>
<!-- builtins.object&#45;&gt;supriya.system.SupriyaObject.SupriyaObject -->
<g id="edge15" class="edge">
<title>builtins.object&#45;&gt;supriya.system.SupriyaObject.SupriyaObject</title>
<path fill="none" stroke="#778899" d="M48.3541,-224.449C68.1088,-211.2144 105.8776,-187.3153 141,-173 219.9065,-140.839 318.7659,-120.2972 368.1333,-111.2864"/>
<polygon fill="#778899" stroke="#778899" points="368.9467,-114.6965 378.1735,-109.4891 367.7132,-107.8061 368.9467,-114.6965"/>
</g>
<!-- collections.abc.Collection&#45;&gt;collections.abc.Sequence -->
<g id="edge2" class="edge">
<title>collections.abc.Collection&#45;&gt;collections.abc.Sequence</title>
<path fill="none" stroke="#778899" d="M314.7945,-309.1246C329.7606,-302.8959 349.3124,-294.7587 365.8283,-287.885"/>
<polygon fill="#778899" stroke="#778899" points="367.2566,-291.0817 375.1441,-284.0079 364.5669,-284.619 367.2566,-291.0817"/>
</g>
<!-- collections.abc.Sequence&#45;&gt;supriya.soundfiles.Frame.Frame -->
<g id="edge16" class="edge">
<title>collections.abc.Sequence&#45;&gt;supriya.soundfiles.Frame.Frame</title>
<path fill="none" stroke="#778899" d="M419.9172,-262.9841C427.2324,-258.8539 435.4091,-253.9553 442.5462,-249 488.9631,-216.7732 493.1927,-198.8339 540.5462,-168 543.6986,-165.9474 547.1031,-163.9585 550.5341,-162.0895"/>
<polygon fill="#778899" stroke="#778899" points="552.2353,-165.1503 559.5234,-157.4604 549.0305,-158.927 552.2353,-165.1503"/>
</g>
<!-- collections.abc.Container&#45;&gt;collections.abc.Collection -->
<g id="edge3" class="edge">
<title>collections.abc.Container&#45;&gt;collections.abc.Collection</title>
<path fill="none" stroke="#778899" d="M207.2215,-354.1246C222.0898,-347.8959 241.5137,-339.7587 257.9216,-332.885"/>
<polygon fill="#778899" stroke="#778899" points="259.3055,-336.1 267.1765,-329.0079 256.6008,-329.6437 259.3055,-336.1"/>
</g>
<!-- collections.abc.Iterable&#45;&gt;collections.abc.Collection -->
<g id="edge4" class="edge">
<title>collections.abc.Iterable&#45;&gt;collections.abc.Collection</title>
<path fill="none" stroke="#778899" d="M205.645,-283.215C220.6275,-289.4915 240.7393,-297.9169 257.6844,-305.0156"/>
<polygon fill="#778899" stroke="#778899" points="256.657,-308.3799 267.2328,-309.0157 259.3618,-301.9235 256.657,-308.3799"/>
</g>
<!-- collections.abc.Iterable&#45;&gt;collections.abc.Reversible -->
<g id="edge5" class="edge">
<title>collections.abc.Iterable&#45;&gt;collections.abc.Reversible</title>
<path fill="none" stroke="#778899" d="M213.5701,-274C222.9749,-274 233.5992,-274 243.8979,-274"/>
<polygon fill="#778899" stroke="#778899" points="244.0308,-277.5001 254.0308,-274 244.0307,-270.5001 244.0308,-277.5001"/>
</g>
<!-- collections.abc.Reversible&#45;&gt;collections.abc.Sequence -->
<g id="edge6" class="edge">
<title>collections.abc.Reversible&#45;&gt;collections.abc.Sequence</title>
<path fill="none" stroke="#778899" d="M327.9741,-274C336.1508,-274 344.9117,-274 353.3944,-274"/>
<polygon fill="#778899" stroke="#778899" points="353.5457,-277.5001 363.5457,-274 353.5457,-270.5001 353.5457,-277.5001"/>
</g>
<!-- collections.abc.Sized&#45;&gt;collections.abc.Collection -->
<g id="edge7" class="edge">
<title>collections.abc.Sized&#45;&gt;collections.abc.Collection</title>
<path fill="none" stroke="#778899" d="M208.562,-319C219.7121,-319 233.2129,-319 246.0358,-319"/>
<polygon fill="#778899" stroke="#778899" points="246.1163,-322.5001 256.1163,-319 246.1163,-315.5001 246.1163,-322.5001"/>
</g>
<!-- enum.Enum&#45;&gt;enum.IntEnum -->
<g id="edge8" class="edge">
<title>enum.Enum&#45;&gt;enum.IntEnum</title>
<path fill="none" stroke="#778899" d="M201.8702,-195.8482C218.5366,-196.624 243.455,-197.7838 262.7211,-198.6806"/>
<polygon fill="#778899" stroke="#778899" points="262.6027,-202.1788 272.7547,-199.1477 262.9283,-195.1864 262.6027,-202.1788"/>
</g>
<!-- enum.IntEnum&#45;&gt;uqbar.enums.IntEnumeration -->
<g id="edge17" class="edge">
<title>enum.IntEnum&#45;&gt;uqbar.enums.IntEnumeration</title>
<path fill="none" stroke="#778899" d="M309.4079,-200.5089C322.9795,-200.8855 341.987,-201.4128 359.0207,-201.8855"/>
<polygon fill="#778899" stroke="#778899" points="359.2121,-205.392 369.3053,-202.1708 359.4063,-198.3947 359.2121,-205.392"/>
</g>
<!-- supriya.system.SupriyaObject.SupriyaObject&#45;&gt;supriya.soundfiles.Frame.Frame -->
<g id="edge18" class="edge">
<title>supriya.system.SupriyaObject.SupriyaObject&#45;&gt;supriya.soundfiles.Frame.Frame</title>
<path fill="none" stroke="#778899" d="M420.3522,-93.3497C446.139,-79.7551 490.036,-62.6599 520.5462,-83 539.7759,-95.8197 524.5976,-114.2738 540.5462,-131 543.3563,-133.947 546.7459,-136.4644 550.3291,-138.5994"/>
<polygon fill="#778899" stroke="#778899" points="548.906,-141.8009 559.4151,-143.1458 552.0384,-135.5409 548.906,-141.8009"/>
</g>
<!-- supriya.system.SupriyaObject.SupriyaObject&#45;&gt;supriya.soundfiles.Signal.Signal -->
<g id="edge19" class="edge">
<title>supriya.system.SupriyaObject.SupriyaObject&#45;&gt;supriya.soundfiles.Signal.Signal</title>
<path fill="none" stroke="#778899" d="M410.7362,-90.8134C423.517,-75.2272 445.633,-51.6578 470.5462,-40 495.5644,-28.2931 527.2007,-25.3885 549.7538,-25.0523"/>
<polygon fill="#778899" stroke="#778899" points="550.022,-28.5525 560.0268,-25.0662 550.0316,-21.5526 550.022,-28.5525"/>
</g>
<!-- supriya.system.SupriyaObject.SupriyaObject&#45;&gt;supriya.soundfiles.SoundFile.SoundFile -->
<g id="edge20" class="edge">
<title>supriya.system.SupriyaObject.SupriyaObject&#45;&gt;supriya.soundfiles.SoundFile.SoundFile</title>
<path fill="none" stroke="#778899" d="M412.1613,-90.9779C425.2645,-77.0547 446.904,-57.2837 470.5462,-49 496.6083,-39.8685 527.7458,-47.4689 549.876,-55.7928"/>
<polygon fill="#778899" stroke="#778899" points="548.7759,-59.1229 559.3595,-59.6107 551.3901,-52.6293 548.7759,-59.1229"/>
</g>
<!-- supriya.system.SupriyaObject.SupriyaObject&#45;&gt;supriya.system.SupriyaValueObject.SupriyaValueObject -->
<g id="edge9" class="edge">
<title>supriya.system.SupriyaObject.SupriyaObject&#45;&gt;supriya.system.SupriyaValueObject.SupriyaValueObject</title>
<path fill="none" stroke="#778899" d="M420.6112,-107.3916C432.3842,-108.1565 447.2054,-109.1193 460.2518,-109.9669"/>
<polygon fill="#778899" stroke="#778899" points="460.0362,-113.4602 470.2421,-110.6159 460.4901,-106.4749 460.0362,-113.4602"/>
</g>
<!-- supriya.system.SupriyaValueObject.SupriyaValueObject&#45;&gt;supriya.soundfiles.Say.Say -->
<g id="edge21" class="edge">
<title>supriya.system.SupriyaValueObject.SupriyaValueObject&#45;&gt;supriya.soundfiles.Say.Say</title>
<path fill="none" stroke="#778899" d="M512.6065,-112C525.0216,-112 540.7948,-112 553.8013,-112"/>
<polygon fill="#778899" stroke="#778899" points="553.9415,-115.5001 563.9415,-112 553.9415,-108.5001 553.9415,-115.5001"/>
</g>
<!-- uqbar.enums.IntEnumeration&#45;&gt;supriya.soundfiles.HeaderFormat.HeaderFormat -->
<g id="edge22" class="edge">
<title>uqbar.enums.IntEnumeration&#45;&gt;supriya.soundfiles.HeaderFormat.HeaderFormat</title>
<path fill="none" stroke="#778899" d="M428.8078,-201.1836C461.6671,-199.1683 514.4373,-195.9319 547.7602,-193.8881"/>
<polygon fill="#778899" stroke="#778899" points="548.0791,-197.3752 557.846,-193.2696 547.6505,-190.3884 548.0791,-197.3752"/>
</g>
<!-- uqbar.enums.IntEnumeration&#45;&gt;supriya.soundfiles.SampleFormat.SampleFormat -->
<g id="edge23" class="edge">
<title>uqbar.enums.IntEnumeration&#45;&gt;supriya.soundfiles.SampleFormat.SampleFormat</title>
<path fill="none" stroke="#778899" d="M428.8078,-209.1098C461.4876,-215.8515 513.8612,-226.6558 547.2121,-233.5359"/>
<polygon fill="#778899" stroke="#778899" points="546.8219,-237.0291 557.3229,-235.6217 548.2363,-230.1734 546.8219,-237.0291"/>
</g>
<!-- builtins.int -->
<g id="node1" class="node">
<title>builtins.int</title>
<g id="a_node1"><a xlink:href="https://docs.python.org/3.6/library/functions.html#int" xlink:title="int" target="_top">
<path fill="#fbb4ae" stroke="#fbb4ae" stroke-width="2" d="M106.6667,-243.5C106.6667,-243.5 95.3333,-243.5 95.3333,-243.5 92.1667,-243.5 89,-240.3333 89,-237.1667 89,-237.1667 89,-230.8333 89,-230.8333 89,-227.6667 92.1667,-224.5 95.3333,-224.5 95.3333,-224.5 106.6667,-224.5 106.6667,-224.5 109.8333,-224.5 113,-227.6667 113,-230.8333 113,-230.8333 113,-237.1667 113,-237.1667 113,-240.3333 109.8333,-243.5 106.6667,-243.5"/>
<text text-anchor="middle" x="101" y="-231.5" font-family="Arial" font-size="10.00" fill="#000000">int</text>
</a>
</g>
</g>
<!-- builtins.object -->
<g id="node2" class="node">
<title>builtins.object</title>
<g id="a_node2"><a xlink:href="https://docs.python.org/3.6/library/functions.html#object" xlink:title="object" target="_top">
<path fill="#fbb4ae" stroke="#fbb4ae" stroke-width="2" d="M46.6667,-243.5C46.6667,-243.5 22.3333,-243.5 22.3333,-243.5 19.1667,-243.5 16,-240.3333 16,-237.1667 16,-237.1667 16,-230.8333 16,-230.8333 16,-227.6667 19.1667,-224.5 22.3333,-224.5 22.3333,-224.5 46.6667,-224.5 46.6667,-224.5 49.8333,-224.5 53,-227.6667 53,-230.8333 53,-230.8333 53,-237.1667 53,-237.1667 53,-240.3333 49.8333,-243.5 46.6667,-243.5"/>
<text text-anchor="middle" x="34.5" y="-231.5" font-family="Arial" font-size="10.00" fill="#000000">object</text>
</a>
</g>
</g>
<!-- collections.abc.Collection -->
<g id="node3" class="node">
<title>collections.abc.Collection</title>
<g id="a_node3"><a xlink:href="https://docs.python.org/3.6/library/collections.abc.html#collections.abc.Collection" xlink:title="Collection" target="_top">
<ellipse fill="none" stroke="#b3cde3" stroke-width="2" cx="291.066" cy="-319" rx="34.7971" ry="13.3704"/>
<text text-anchor="middle" x="291.066" y="-316.5" font-family="Arial" font-size="10.00" fill="#000000">Collection</text>
</a>
</g>
</g>
<!-- collections.abc.Sequence -->
<g id="node4" class="node">
<title>collections.abc.Sequence</title>
<g id="a_node4"><a xlink:href="https://docs.python.org/3.6/library/collections.abc.html#collections.abc.Sequence" xlink:title="Sequence" target="_top">
<ellipse fill="none" stroke="#b3cde3" stroke-width="2" cx="399.1909" cy="-274" rx="35.2113" ry="13.3704"/>
<text text-anchor="middle" x="399.1909" y="-271.5" font-family="Arial" font-size="10.00" fill="#000000">Sequence</text>
</a>
</g>
</g>
<!-- collections.abc.Container -->
<g id="node5" class="node">
<title>collections.abc.Container</title>
<g id="a_node5"><a xlink:href="https://docs.python.org/3.6/library/collections.abc.html#collections.abc.Container" xlink:title="Container" target="_top">
<ellipse fill="none" stroke="#b3cde3" stroke-width="2" cx="183.6482" cy="-364" rx="34.7971" ry="13.3704"/>
<text text-anchor="middle" x="183.6482" y="-361.5" font-family="Arial" font-size="10.00" fill="#000000">Container</text>
</a>
</g>
</g>
<!-- collections.abc.Iterable -->
<g id="node6" class="node">
<title>collections.abc.Iterable</title>
<g id="a_node6"><a xlink:href="https://docs.python.org/3.6/library/collections.abc.html#collections.abc.Iterable" xlink:title="Iterable" target="_top">
<ellipse fill="none" stroke="#b3cde3" stroke-width="2" cx="183.6482" cy="-274" rx="29.8983" ry="13.3704"/>
<text text-anchor="middle" x="183.6482" y="-271.5" font-family="Arial" font-size="10.00" fill="#000000">Iterable</text>
</a>
</g>
</g>
<!-- collections.abc.Reversible -->
<g id="node7" class="node">
<title>collections.abc.Reversible</title>
<g id="a_node7"><a xlink:href="https://docs.python.org/3.6/library/collections.abc.html#collections.abc.Reversible" xlink:title="Reversible" target="_top">
<ellipse fill="none" stroke="#b3cde3" stroke-width="2" cx="291.066" cy="-274" rx="36.5405" ry="13.3704"/>
<text text-anchor="middle" x="291.066" y="-271.5" font-family="Arial" font-size="10.00" fill="#000000">Reversible</text>
</a>
</g>
</g>
<!-- collections.abc.Sized -->
<g id="node8" class="node">
<title>collections.abc.Sized</title>
<g id="a_node8"><a xlink:href="https://docs.python.org/3.6/library/collections.abc.html#collections.abc.Sized" xlink:title="Sized" target="_top">
<ellipse fill="none" stroke="#b3cde3" stroke-width="2" cx="183.6482" cy="-319" rx="25" ry="13.3704"/>
<text text-anchor="middle" x="183.6482" y="-316.5" font-family="Arial" font-size="10.00" fill="#000000">Sized</text>
</a>
</g>
</g>
<!-- enum.Enum -->
<g id="node9" class="node">
<title>enum.Enum</title>
<g id="a_node9"><a xlink:href="https://docs.python.org/3.6/library/enum.html#enum.Enum" xlink:title="Enum" target="_top">
<path fill="#ccebc5" stroke="#ccebc5" stroke-width="2" d="M195.3149,-204.5C195.3149,-204.5 171.9816,-204.5 171.9816,-204.5 168.8149,-204.5 165.6482,-201.3333 165.6482,-198.1667 165.6482,-198.1667 165.6482,-191.8333 165.6482,-191.8333 165.6482,-188.6667 168.8149,-185.5 171.9816,-185.5 171.9816,-185.5 195.3149,-185.5 195.3149,-185.5 198.4816,-185.5 201.6482,-188.6667 201.6482,-191.8333 201.6482,-191.8333 201.6482,-198.1667 201.6482,-198.1667 201.6482,-201.3333 198.4816,-204.5 195.3149,-204.5"/>
<text text-anchor="middle" x="183.6482" y="-192.5" font-family="Arial" font-size="10.00" fill="#000000">Enum</text>
</a>
</g>
</g>
<!-- enum.IntEnum -->
<g id="node10" class="node">
<title>enum.IntEnum</title>
<g id="a_node10"><a xlink:href="https://docs.python.org/3.6/library/enum.html#enum.IntEnum" xlink:title="Int\nEnum" target="_top">
<path fill="#ccebc5" stroke="#ccebc5" stroke-width="2" d="M299.066,-215C299.066,-215 283.066,-215 283.066,-215 278.066,-215 273.066,-210 273.066,-205 273.066,-205 273.066,-195 273.066,-195 273.066,-190 278.066,-185 283.066,-185 283.066,-185 299.066,-185 299.066,-185 304.066,-185 309.066,-190 309.066,-195 309.066,-195 309.066,-205 309.066,-205 309.066,-210 304.066,-215 299.066,-215"/>
<text text-anchor="middle" x="291.066" y="-203" font-family="Arial" font-size="10.00" fill="#000000">Int</text>
<text text-anchor="middle" x="291.066" y="-192" font-family="Arial" font-size="10.00" fill="#000000">Enum</text>
</a>
</g>
</g>
<!-- supriya.soundfiles.Frame.Frame -->
<g id="node11" class="node">
<title>supriya.soundfiles.Frame.Frame</title>
<g id="a_node11"><a xlink:href="../api/supriya/soundfiles/Frame.html#supriya.soundfiles.Frame.Frame" xlink:title="Frame" target="_top">
<path fill="#000000" stroke="#000000" stroke-width="2" d="M591.2129,-158.5C591.2129,-158.5 565.8796,-158.5 565.8796,-158.5 562.7129,-158.5 559.5462,-155.3333 559.5462,-152.1667 559.5462,-152.1667 559.5462,-145.8333 559.5462,-145.8333 559.5462,-142.6667 562.7129,-139.5 565.8796,-139.5 565.8796,-139.5 591.2129,-139.5 591.2129,-139.5 594.3796,-139.5 597.5462,-142.6667 597.5462,-145.8333 597.5462,-145.8333 597.5462,-152.1667 597.5462,-152.1667 597.5462,-155.3333 594.3796,-158.5 591.2129,-158.5"/>
<text text-anchor="middle" x="578.5462" y="-146.5" font-family="Arial" font-size="10.00" fill="#ffffff">Frame</text>
</a>
</g>
</g>
<!-- supriya.soundfiles.HeaderFormat.HeaderFormat -->
<g id="node12" class="node">
<title>supriya.soundfiles.HeaderFormat.HeaderFormat</title>
<g id="a_node12"><a xlink:href="../api/supriya/soundfiles/HeaderFormat.html#supriya.soundfiles.HeaderFormat.HeaderFormat" xlink:title="Header\nFormat" target="_top">
<path fill="#000000" stroke="#000000" stroke-width="2" d="M589.0462,-207C589.0462,-207 568.0462,-207 568.0462,-207 563.0462,-207 558.0462,-202 558.0462,-197 558.0462,-197 558.0462,-187 558.0462,-187 558.0462,-182 563.0462,-177 568.0462,-177 568.0462,-177 589.0462,-177 589.0462,-177 594.0462,-177 599.0462,-182 599.0462,-187 599.0462,-187 599.0462,-197 599.0462,-197 599.0462,-202 594.0462,-207 589.0462,-207"/>
<text text-anchor="middle" x="578.5462" y="-195" font-family="Arial" font-size="10.00" fill="#ffffff">Header</text>
<text text-anchor="middle" x="578.5462" y="-184" font-family="Arial" font-size="10.00" fill="#ffffff">Format</text>
</a>
</g>
</g>
<!-- supriya.soundfiles.SampleFormat.SampleFormat -->
<g id="node13" class="node">
<title>supriya.soundfiles.SampleFormat.SampleFormat</title>
<g id="a_node13"><a xlink:href="../api/supriya/soundfiles/SampleFormat.html#supriya.soundfiles.SampleFormat.SampleFormat" xlink:title="Sample\nFormat" target="_top">
<path fill="#000000" stroke="#000000" stroke-width="2" d="M589.5462,-255C589.5462,-255 567.5462,-255 567.5462,-255 562.5462,-255 557.5462,-250 557.5462,-245 557.5462,-245 557.5462,-235 557.5462,-235 557.5462,-230 562.5462,-225 567.5462,-225 567.5462,-225 589.5462,-225 589.5462,-225 594.5462,-225 599.5462,-230 599.5462,-235 599.5462,-235 599.5462,-245 599.5462,-245 599.5462,-250 594.5462,-255 589.5462,-255"/>
<text text-anchor="middle" x="578.5462" y="-243" font-family="Arial" font-size="10.00" fill="#ffffff">Sample</text>
<text text-anchor="middle" x="578.5462" y="-232" font-family="Arial" font-size="10.00" fill="#ffffff">Format</text>
</a>
</g>
</g>
<!-- supriya.soundfiles.Say.Say -->
<g id="node14" class="node">
<title>supriya.soundfiles.Say.Say</title>
<g id="a_node14"><a xlink:href="../api/supriya/soundfiles/Say.html#supriya.soundfiles.Say.Say" xlink:title="Say" target="_top">
<path fill="#000000" stroke="#000000" stroke-width="2" d="M586.7129,-121.5C586.7129,-121.5 570.3796,-121.5 570.3796,-121.5 567.2129,-121.5 564.0462,-118.3333 564.0462,-115.1667 564.0462,-115.1667 564.0462,-108.8333 564.0462,-108.8333 564.0462,-105.6667 567.2129,-102.5 570.3796,-102.5 570.3796,-102.5 586.7129,-102.5 586.7129,-102.5 589.8796,-102.5 593.0462,-105.6667 593.0462,-108.8333 593.0462,-108.8333 593.0462,-115.1667 593.0462,-115.1667 593.0462,-118.3333 589.8796,-121.5 586.7129,-121.5"/>
<text text-anchor="middle" x="578.5462" y="-109.5" font-family="Arial" font-size="10.00" fill="#ffffff">Say</text>
</a>
</g>
</g>
<!-- supriya.soundfiles.Signal.Signal -->
<g id="node15" class="node">
<title>supriya.soundfiles.Signal.Signal</title>
<g id="a_node15"><a xlink:href="../api/supriya/soundfiles/Signal.html#supriya.soundfiles.Signal.Signal" xlink:title="Signal" target="_top">
<path fill="#000000" stroke="#000000" stroke-width="2" d="M590.7129,-35.5C590.7129,-35.5 566.3796,-35.5 566.3796,-35.5 563.2129,-35.5 560.0462,-32.3333 560.0462,-29.1667 560.0462,-29.1667 560.0462,-22.8333 560.0462,-22.8333 560.0462,-19.6667 563.2129,-16.5 566.3796,-16.5 566.3796,-16.5 590.7129,-16.5 590.7129,-16.5 593.8796,-16.5 597.0462,-19.6667 597.0462,-22.8333 597.0462,-22.8333 597.0462,-29.1667 597.0462,-29.1667 597.0462,-32.3333 593.8796,-35.5 590.7129,-35.5"/>
<text text-anchor="middle" x="578.5462" y="-23.5" font-family="Arial" font-size="10.00" fill="#ffffff">Signal</text>
</a>
</g>
</g>
<!-- supriya.soundfiles.SoundFile.SoundFile -->
<g id="node16" class="node">
<title>supriya.soundfiles.SoundFile.SoundFile</title>
<g id="a_node16"><a xlink:href="../api/supriya/soundfiles/SoundFile.html#supriya.soundfiles.SoundFile.SoundFile" xlink:title="Sound\nFile" target="_top">
<path fill="#000000" stroke="#000000" stroke-width="2" d="M587.5462,-84C587.5462,-84 569.5462,-84 569.5462,-84 564.5462,-84 559.5462,-79 559.5462,-74 559.5462,-74 559.5462,-64 559.5462,-64 559.5462,-59 564.5462,-54 569.5462,-54 569.5462,-54 587.5462,-54 587.5462,-54 592.5462,-54 597.5462,-59 597.5462,-64 597.5462,-64 597.5462,-74 597.5462,-74 597.5462,-79 592.5462,-84 587.5462,-84"/>
<text text-anchor="middle" x="578.5462" y="-72" font-family="Arial" font-size="10.00" fill="#ffffff">Sound</text>
<text text-anchor="middle" x="578.5462" y="-61" font-family="Arial" font-size="10.00" fill="#ffffff">File</text>
</a>
</g>
</g>
<!-- supriya.system.SupriyaObject.SupriyaObject -->
<g id="node17" class="node">
<title>supriya.system.SupriyaObject.SupriyaObject</title>
<g id="a_node17"><a xlink:href="../api/supriya/soundfiles/../system/SupriyaObject.html#supriya.system.SupriyaObject.SupriyaObject" xlink:title="Supriya\nObject" target="_top">
<path fill="#fed9a6" stroke="#fed9a6" stroke-width="2" d="M410.1909,-121C410.1909,-121 388.1909,-121 388.1909,-121 383.1909,-121 378.1909,-116 378.1909,-111 378.1909,-111 378.1909,-101 378.1909,-101 378.1909,-96 383.1909,-91 388.1909,-91 388.1909,-91 410.1909,-91 410.1909,-91 415.1909,-91 420.1909,-96 420.1909,-101 420.1909,-101 420.1909,-111 420.1909,-111 420.1909,-116 415.1909,-121 410.1909,-121"/>
<text text-anchor="middle" x="399.1909" y="-109" font-family="Arial" font-size="10.00" fill="#000000">Supriya</text>
<text text-anchor="middle" x="399.1909" y="-98" font-family="Arial" font-size="10.00" fill="#000000">Object</text>
</a>
</g>
</g>
<!-- supriya.system.SupriyaValueObject.SupriyaValueObject -->
<g id="node18" class="node">
<title>supriya.system.SupriyaValueObject.SupriyaValueObject</title>
<g id="a_node18"><a xlink:href="../api/supriya/soundfiles/../system/SupriyaValueObject.html#supriya.system.SupriyaValueObject.SupriyaValueObject" xlink:title="Supriya\nValue\nObject" target="_top">
<path fill="#fed9a6" stroke="#fed9a6" stroke-width="2" d="M500.5462,-132.5C500.5462,-132.5 482.5462,-132.5 482.5462,-132.5 476.5462,-132.5 470.5462,-126.5 470.5462,-120.5 470.5462,-120.5 470.5462,-103.5 470.5462,-103.5 470.5462,-97.5 476.5462,-91.5 482.5462,-91.5 482.5462,-91.5 500.5462,-91.5 500.5462,-91.5 506.5462,-91.5 512.5462,-97.5 512.5462,-103.5 512.5462,-103.5 512.5462,-120.5 512.5462,-120.5 512.5462,-126.5 506.5462,-132.5 500.5462,-132.5"/>
<text text-anchor="middle" x="491.5462" y="-120.5" font-family="Arial" font-size="10.00" fill="#000000">Supriya</text>
<text text-anchor="middle" x="491.5462" y="-109.5" font-family="Arial" font-size="10.00" fill="#000000">Value</text>
<text text-anchor="middle" x="491.5462" y="-98.5" font-family="Arial" font-size="10.00" fill="#000000">Object</text>
</a>
</g>
</g>
<!-- uqbar.enums.IntEnumeration -->
<g id="node19" class="node">
<title>uqbar.enums.IntEnumeration</title>
<path fill="#ffffcc" stroke="#ffffcc" stroke-width="2" d="M418.6909,-218C418.6909,-218 379.6909,-218 379.6909,-218 374.6909,-218 369.6909,-213 369.6909,-208 369.6909,-208 369.6909,-198 369.6909,-198 369.6909,-193 374.6909,-188 379.6909,-188 379.6909,-188 418.6909,-188 418.6909,-188 423.6909,-188 428.6909,-193 428.6909,-198 428.6909,-198 428.6909,-208 428.6909,-208 428.6909,-213 423.6909,-218 418.6909,-218"/>
<text text-anchor="middle" x="399.1909" y="-206" font-family="Arial" font-size="10.00" fill="#000000">Int</text>
<text text-anchor="middle" x="399.1909" y="-195" font-family="Arial" font-size="10.00" fill="#000000">Enumeration</text>
</g>
</g>
</svg>
