<?xml version="1.0" encoding="UTF-8" standalone="no"?>
<!DOCTYPE svg PUBLIC "-//W3C//DTD SVG 1.1//EN"
 "http://www.w3.org/Graphics/SVG/1.1/DTD/svg11.dtd">
<!-- Generated by graphviz version 2.44.1 (20200629.0846)
 -->
<!-- Title: InheritanceGraph Pages: 1 -->
<svg width="629pt" height="190pt"
 viewBox="0.00 0.00 628.76 190.00" xmlns="http://www.w3.org/2000/svg" xmlns:xlink="http://www.w3.org/1999/xlink">
<g id="graph0" class="graph" transform="scale(1 1) rotate(0) translate(4 186)">
<title>InheritanceGraph</title>
<g id="clust1" class="cluster">
<title>cluster_builtins</title>
<path fill="transparent" stroke="#bcd2ee" stroke-width="2" stroke-dasharray="5,2" d="M20,-63C20,-63 55,-63 55,-63 61,-63 67,-69 67,-75 67,-75 67,-106 67,-106 67,-112 61,-118 55,-118 55,-118 20,-118 20,-118 14,-118 8,-112 8,-106 8,-106 8,-75 8,-75 8,-69 14,-63 20,-63"/>
<text text-anchor="middle" x="37.5" y="-106" font-family="Arial" font-size="10.00">builtins</text>
</g>
<g id="clust2" class="cluster">
<title>cluster_supriya.patterns.bases</title>
<path fill="transparent" stroke="#bcd2ee" stroke-width="2" stroke-dasharray="5,2" d="M271,-52C271,-52 434.76,-52 434.76,-52 440.76,-52 446.76,-58 446.76,-64 446.76,-64 446.76,-117 446.76,-117 446.76,-123 440.76,-129 434.76,-129 434.76,-129 271,-129 271,-129 265,-129 259,-123 259,-117 259,-117 259,-64 259,-64 259,-58 265,-52 271,-52"/>
<text text-anchor="middle" x="352.88" y="-117" font-family="Arial" font-size="10.00">supriya.patterns.bases</text>
</g>
<g id="clust3" class="cluster">
<title>cluster_supriya.patterns.mappings</title>
<path fill="transparent" stroke="#bcd2ee" stroke-width="2" stroke-dasharray="5,2" d="M478.76,-8C478.76,-8 600.76,-8 600.76,-8 606.76,-8 612.76,-14 612.76,-20 612.76,-20 612.76,-162 612.76,-162 612.76,-168 606.76,-174 600.76,-174 600.76,-174 478.76,-174 478.76,-174 472.76,-174 466.76,-168 466.76,-162 466.76,-162 466.76,-20 466.76,-20 466.76,-14 472.76,-8 478.76,-8"/>
<text text-anchor="middle" x="539.76" y="-162" font-family="Arial" font-size="10.00">supriya.patterns.mappings</text>
</g>
<g id="clust4" class="cluster">
<title>cluster_supriya.system</title>
<path fill="transparent" stroke="#bcd2ee" stroke-width="2" stroke-dasharray="5,2" d="M99,-52C99,-52 227,-52 227,-52 233,-52 239,-58 239,-64 239,-64 239,-117 239,-117 239,-123 233,-129 227,-129 227,-129 99,-129 99,-129 93,-129 87,-123 87,-117 87,-117 87,-64 87,-64 87,-58 93,-52 99,-52"/>
<text text-anchor="middle" x="163" y="-117" font-family="Arial" font-size="10.00">supriya.system</text>
</g>
<!-- builtins.object&#45;&gt;supriya.system.SupriyaObject -->
<g id="edge4" class="edge">
<title>builtins.object&#45;&gt;supriya.system.SupriyaObject</title>
<path fill="none" stroke="lightslategrey" d="M59.23,-81C66.98,-81 76,-81 84.66,-81"/>
<polygon fill="lightslategrey" stroke="lightslategrey" points="84.91,-84.5 94.91,-81 84.91,-77.5 84.91,-84.5"/>
</g>
<!-- supriya.patterns.bases.EventPattern&#45;&gt;supriya.patterns.mappings.Pbind -->
<g id="edge5" class="edge">
<title>supriya.patterns.bases.EventPattern&#45;&gt;supriya.patterns.mappings.Pbind</title>
<path fill="none" stroke="lightslategrey" d="M429.47,-95.93C440.73,-102.99 454.4,-111.5 466.76,-119 468.46,-120.03 470.21,-121.08 471.98,-122.14"/>
<polygon fill="lightslategrey" stroke="lightslategrey" points="470.37,-125.26 480.76,-127.36 473.95,-119.24 470.37,-125.26"/>
</g>
<!-- supriya.patterns.bases.EventPattern&#45;&gt;supriya.patterns.mappings.Pbindf -->
<g id="edge6" class="edge">
<title>supriya.patterns.bases.EventPattern&#45;&gt;supriya.patterns.mappings.Pbindf</title>
<path fill="none" stroke="lightslategrey" d="M437.29,-87.54C446.6,-89.47 456.79,-91.59 466.08,-93.52"/>
<polygon fill="lightslategrey" stroke="lightslategrey" points="465.59,-96.99 476.09,-95.6 467.01,-90.14 465.59,-96.99"/>
</g>
<!-- supriya.patterns.bases.EventPattern&#45;&gt;supriya.patterns.mappings.Pchain -->
<g id="edge7" class="edge">
<title>supriya.patterns.bases.EventPattern&#45;&gt;supriya.patterns.mappings.Pchain</title>
<path fill="none" stroke="lightslategrey" d="M437.29,-74.81C446.13,-73.07 455.76,-71.17 464.66,-69.42"/>
<polygon fill="lightslategrey" stroke="lightslategrey" points="465.55,-72.81 474.68,-67.44 464.2,-65.94 465.55,-72.81"/>
</g>
<!-- supriya.patterns.bases.EventPattern&#45;&gt;supriya.patterns.mappings.Pn -->
<g id="edge8" class="edge">
<title>supriya.patterns.bases.EventPattern&#45;&gt;supriya.patterns.mappings.Pn</title>
<path fill="none" stroke="lightslategrey" d="M429.85,-66.55C443.78,-58.17 461.21,-47.69 474.85,-39.48"/>
<polygon fill="lightslategrey" stroke="lightslategrey" points="476.84,-42.37 483.61,-34.22 473.23,-36.37 476.84,-42.37"/>
</g>
<!-- supriya.patterns.bases.Pattern&#45;&gt;supriya.patterns.bases.EventPattern -->
<g id="edge1" class="edge">
<title>supriya.patterns.bases.Pattern&#45;&gt;supriya.patterns.bases.EventPattern</title>
<path fill="none" stroke="lightslategrey" d="M335.02,-81C343.12,-81 351.9,-81 360.4,-81"/>
<polygon fill="lightslategrey" stroke="lightslategrey" points="360.56,-84.5 370.56,-81 360.56,-77.5 360.56,-84.5"/>
</g>
<!-- supriya.patterns.mappings.Pbind&#45;&gt;supriya.patterns.mappings.Pmono -->
<g id="edge2" class="edge">
<title>supriya.patterns.mappings.Pbind&#45;&gt;supriya.patterns.mappings.Pmono</title>
<path fill="none" stroke="lightslategrey" d="M518.87,-137C527.47,-137 537.79,-137 547.5,-137"/>
<polygon fill="lightslategrey" stroke="lightslategrey" points="547.68,-140.5 557.68,-137 547.68,-133.5 547.68,-140.5"/>
</g>
<!-- supriya.system.SupriyaObject&#45;&gt;supriya.system.SupriyaValueObject -->
<g id="edge3" class="edge">
<title>supriya.system.SupriyaObject&#45;&gt;supriya.system.SupriyaValueObject</title>
<path fill="none" stroke="lightslategrey" d="M145.3,-81C153.22,-81 162.17,-81 170.69,-81"/>
<polygon fill="lightslategrey" stroke="lightslategrey" points="170.76,-84.5 180.76,-81 170.76,-77.5 170.76,-84.5"/>
</g>
<!-- supriya.system.SupriyaValueObject&#45;&gt;supriya.patterns.bases.Pattern -->
<g id="edge9" class="edge">
<title>supriya.system.SupriyaValueObject&#45;&gt;supriya.patterns.bases.Pattern</title>
<path fill="none" stroke="lightslategrey" d="M231.42,-81C239.23,-81 248.12,-81 256.85,-81"/>
<polygon fill="lightslategrey" stroke="lightslategrey" points="256.95,-84.5 266.95,-81 256.95,-77.5 256.95,-84.5"/>
</g>
<!-- builtins.object -->
<g id="node1" class="node">
<title>builtins.object</title>
<g id="a_node1"><a xlink:href="https://docs.python.org/3/library/functions.html#object" xlink:title="object" target="_top">
<path fill="#fbb4ae" stroke="#fbb4ae" stroke-width="2" d="M52.67,-90.5C52.67,-90.5 22.33,-90.5 22.33,-90.5 19.17,-90.5 16,-87.33 16,-84.17 16,-84.17 16,-77.83 16,-77.83 16,-74.67 19.17,-71.5 22.33,-71.5 22.33,-71.5 52.67,-71.5 52.67,-71.5 55.83,-71.5 59,-74.67 59,-77.83 59,-77.83 59,-84.17 59,-84.17 59,-87.33 55.83,-90.5 52.67,-90.5"/>
<text text-anchor="middle" x="37.5" y="-78.5" font-family="Arial" font-size="10.00">object</text>
</a>
</g>
</g>
<!-- supriya.patterns.bases.EventPattern -->
<g id="node2" class="node">
<title>supriya.patterns.bases.EventPattern</title>
<g id="a_node2"><a xlink:href="../api/supriya/patterns/bases.html#supriya.patterns.bases.EventPattern" xlink:title="Event\nPattern" target="_top">
<ellipse fill="none" stroke="#b3cde3" stroke-width="2" cx="404.82" cy="-81" rx="33.88" ry="21.43"/>
<text text-anchor="middle" x="404.82" y="-84" font-family="Arial" font-size="10.00">Event</text>
<text text-anchor="middle" x="404.82" y="-73" font-family="Arial" font-size="10.00">Pattern</text>
</a>
</g>
</g>
<!-- supriya.patterns.bases.Pattern -->
<g id="node3" class="node">
<title>supriya.patterns.bases.Pattern</title>
<g id="a_node3"><a xlink:href="../api/supriya/patterns/bases.html#supriya.patterns.bases.Pattern" xlink:title="Pattern" target="_top">
<ellipse fill="none" stroke="#b3cde3" stroke-width="2" cx="300.94" cy="-81" rx="33.88" ry="13.37"/>
<text text-anchor="middle" x="300.94" y="-78.5" font-family="Arial" font-size="10.00">Pattern</text>
</a>
</g>
</g>
<!-- supriya.patterns.mappings.Pbind -->
<g id="node4" class="node">
<title>supriya.patterns.mappings.Pbind</title>
<g id="a_node4"><a xlink:href="../api/supriya/patterns/mappings.html#supriya.patterns.mappings.Pbind" xlink:title="Pbind" target="_top">
<path fill="black" stroke="black" stroke-width="2" d="M512.43,-146.5C512.43,-146.5 484.1,-146.5 484.1,-146.5 480.93,-146.5 477.76,-143.33 477.76,-140.17 477.76,-140.17 477.76,-133.83 477.76,-133.83 477.76,-130.67 480.93,-127.5 484.1,-127.5 484.1,-127.5 512.43,-127.5 512.43,-127.5 515.6,-127.5 518.76,-130.67 518.76,-133.83 518.76,-133.83 518.76,-140.17 518.76,-140.17 518.76,-143.33 515.6,-146.5 512.43,-146.5"/>
<text text-anchor="middle" x="498.26" y="-134.5" font-family="Arial" font-size="10.00" fill="white">Pbind</text>
</a>
</g>
</g>
<!-- supriya.patterns.mappings.Pbindf -->
<g id="node5" class="node">
<title>supriya.patterns.mappings.Pbindf</title>
<g id="a_node5"><a xlink:href="../api/supriya/patterns/mappings.html#supriya.patterns.mappings.Pbindf" xlink:title="Pbindf" target="_top">
<path fill="black" stroke="black" stroke-width="2" d="M513.93,-109.5C513.93,-109.5 482.6,-109.5 482.6,-109.5 479.43,-109.5 476.26,-106.33 476.26,-103.17 476.26,-103.17 476.26,-96.83 476.26,-96.83 476.26,-93.67 479.43,-90.5 482.6,-90.5 482.6,-90.5 513.93,-90.5 513.93,-90.5 517.1,-90.5 520.26,-93.67 520.26,-96.83 520.26,-96.83 520.26,-103.17 520.26,-103.17 520.26,-106.33 517.1,-109.5 513.93,-109.5"/>
<text text-anchor="middle" x="498.26" y="-97.5" font-family="Arial" font-size="10.00" fill="white">Pbindf</text>
</a>
</g>
</g>
<!-- supriya.patterns.mappings.Pchain -->
<g id="node6" class="node">
<title>supriya.patterns.mappings.Pchain</title>
<g id="a_node6"><a xlink:href="../api/supriya/patterns/mappings.html#supriya.patterns.mappings.Pchain" xlink:title="Pchain" target="_top">
<path fill="black" stroke="black" stroke-width="2" d="M515.43,-72.5C515.43,-72.5 481.1,-72.5 481.1,-72.5 477.93,-72.5 474.76,-69.33 474.76,-66.17 474.76,-66.17 474.76,-59.83 474.76,-59.83 474.76,-56.67 477.93,-53.5 481.1,-53.5 481.1,-53.5 515.43,-53.5 515.43,-53.5 518.6,-53.5 521.76,-56.67 521.76,-59.83 521.76,-59.83 521.76,-66.17 521.76,-66.17 521.76,-69.33 518.6,-72.5 515.43,-72.5"/>
<text text-anchor="middle" x="498.26" y="-60.5" font-family="Arial" font-size="10.00" fill="white">Pchain</text>
</a>
</g>
</g>
<!-- supriya.patterns.mappings.Pmono -->
<g id="node7" class="node">
<title>supriya.patterns.mappings.Pmono</title>
<g id="a_node7"><a xlink:href="../api/supriya/patterns/mappings.html#supriya.patterns.mappings.Pmono" xlink:title="Pmono" target="_top">
<path fill="black" stroke="black" stroke-width="2" d="M598.43,-146.5C598.43,-146.5 564.1,-146.5 564.1,-146.5 560.93,-146.5 557.76,-143.33 557.76,-140.17 557.76,-140.17 557.76,-133.83 557.76,-133.83 557.76,-130.67 560.93,-127.5 564.1,-127.5 564.1,-127.5 598.43,-127.5 598.43,-127.5 601.6,-127.5 604.76,-130.67 604.76,-133.83 604.76,-133.83 604.76,-140.17 604.76,-140.17 604.76,-143.33 601.6,-146.5 598.43,-146.5"/>
<text text-anchor="middle" x="581.26" y="-134.5" font-family="Arial" font-size="10.00" fill="white">Pmono</text>
</a>
</g>
</g>
<!-- supriya.patterns.mappings.Pn -->
<g id="node8" class="node">
<title>supriya.patterns.mappings.Pn</title>
<g id="a_node8"><a xlink:href="../api/supriya/patterns/mappings.html#supriya.patterns.mappings.Pn" xlink:title="Pn" target="_top">
<path fill="black" stroke="black" stroke-width="2" d="M506.43,-35.5C506.43,-35.5 490.1,-35.5 490.1,-35.5 486.93,-35.5 483.76,-32.33 483.76,-29.17 483.76,-29.17 483.76,-22.83 483.76,-22.83 483.76,-19.67 486.93,-16.5 490.1,-16.5 490.1,-16.5 506.43,-16.5 506.43,-16.5 509.6,-16.5 512.76,-19.67 512.76,-22.83 512.76,-22.83 512.76,-29.17 512.76,-29.17 512.76,-32.33 509.6,-35.5 506.43,-35.5"/>
<text text-anchor="middle" x="498.26" y="-23.5" font-family="Arial" font-size="10.00" fill="white">Pn</text>
</a>
</g>
</g>
<!-- supriya.system.SupriyaObject -->
<g id="node9" class="node">
<title>supriya.system.SupriyaObject</title>
<g id="a_node9"><a xlink:href="../api/supriya/patterns/../system.html#supriya.system.SupriyaObject" xlink:title="Supriya\nObject" target="_top">
<path fill="#decbe4" stroke="#decbe4" stroke-width="2" d="M135,-96C135,-96 105,-96 105,-96 100,-96 95,-91 95,-86 95,-86 95,-76 95,-76 95,-71 100,-66 105,-66 105,-66 135,-66 135,-66 140,-66 145,-71 145,-76 145,-76 145,-86 145,-86 145,-91 140,-96 135,-96"/>
<text text-anchor="middle" x="120" y="-84" font-family="Arial" font-size="10.00">Supriya</text>
<text text-anchor="middle" x="120" y="-73" font-family="Arial" font-size="10.00">Object</text>
</a>
</g>
</g>
<!-- supriya.system.SupriyaValueObject -->
<g id="node10" class="node">
<title>supriya.system.SupriyaValueObject</title>
<g id="a_node10"><a xlink:href="../api/supriya/patterns/../system.html#supriya.system.SupriyaValueObject" xlink:title="Supriya\nValue\nObject" target="_top">
<path fill="#decbe4" stroke="#decbe4" stroke-width="2" d="M219,-101.5C219,-101.5 193,-101.5 193,-101.5 187,-101.5 181,-95.5 181,-89.5 181,-89.5 181,-72.5 181,-72.5 181,-66.5 187,-60.5 193,-60.5 193,-60.5 219,-60.5 219,-60.5 225,-60.5 231,-66.5 231,-72.5 231,-72.5 231,-89.5 231,-89.5 231,-95.5 225,-101.5 219,-101.5"/>
<text text-anchor="middle" x="206" y="-89.5" font-family="Arial" font-size="10.00">Supriya</text>
<text text-anchor="middle" x="206" y="-78.5" font-family="Arial" font-size="10.00">Value</text>
<text text-anchor="middle" x="206" y="-67.5" font-family="Arial" font-size="10.00">Object</text>
</a>
</g>
</g>
</g>
</svg>
