<?xml version="1.0" encoding="UTF-8" standalone="no"?>
<!DOCTYPE svg PUBLIC "-//W3C//DTD SVG 1.1//EN"
 "http://www.w3.org/Graphics/SVG/1.1/DTD/svg11.dtd">
<!-- Generated by graphviz version 2.40.1 (20161225.0304)
 -->
<!-- Title: InheritanceGraph Pages: 1 -->
<svg width="510pt" height="310pt"
 viewBox="0.00 0.00 510.24 310.00" xmlns="http://www.w3.org/2000/svg" xmlns:xlink="http://www.w3.org/1999/xlink">
<g id="graph0" class="graph" transform="scale(1 1) rotate(0) translate(4 306)">
<title>InheritanceGraph</title>
<g id="clust1" class="cluster">
<title>cluster_builtins</title>
<path fill="transparent" stroke="#bcd2ee" stroke-width="2" stroke-dasharray="5,2" d="M20,-124C20,-124 49,-124 49,-124 55,-124 61,-130 61,-136 61,-136 61,-167 61,-167 61,-173 55,-179 49,-179 49,-179 20,-179 20,-179 14,-179 8,-173 8,-167 8,-167 8,-136 8,-136 8,-130 14,-124 20,-124"/>
<text text-anchor="middle" x="34.5" y="-167" font-family="Arial" font-size="10.00" fill="#000000">builtins</text>
</g>
<g id="clust2" class="cluster">
<title>cluster_supriya.realtime</title>
<path fill="transparent" stroke="#bcd2ee" stroke-width="2" stroke-dasharray="5,2" d="M180,-81C180,-81 482.2376,-81 482.2376,-81 488.2376,-81 494.2376,-87 494.2376,-93 494.2376,-93 494.2376,-282 494.2376,-282 494.2376,-288 488.2376,-294 482.2376,-294 482.2376,-294 180,-294 180,-294 174,-294 168,-288 168,-282 168,-282 168,-93 168,-93 168,-87 174,-81 180,-81"/>
<text text-anchor="middle" x="331.1188" y="-282" font-family="Arial" font-size="10.00" fill="#000000">supriya.realtime</text>
</g>
<g id="clust3" class="cluster">
<title>cluster_supriya.synthdefs</title>
<path fill="transparent" stroke="#bcd2ee" stroke-width="2" stroke-dasharray="5,2" d="M355.7376,-8C355.7376,-8 406.7376,-8 406.7376,-8 412.7376,-8 418.7376,-14 418.7376,-20 418.7376,-20 418.7376,-61 418.7376,-61 418.7376,-67 412.7376,-73 406.7376,-73 406.7376,-73 355.7376,-73 355.7376,-73 349.7376,-73 343.7376,-67 343.7376,-61 343.7376,-61 343.7376,-20 343.7376,-20 343.7376,-14 349.7376,-8 355.7376,-8"/>
<text text-anchor="middle" x="381.2376" y="-61" font-family="Arial" font-size="10.00" fill="#000000">supriya.synthdefs</text>
</g>
<g id="clust4" class="cluster">
<title>cluster_supriya.system</title>
<path fill="transparent" stroke="#bcd2ee" stroke-width="2" stroke-dasharray="5,2" d="M93,-119C93,-119 136,-119 136,-119 142,-119 148,-125 148,-131 148,-131 148,-172 148,-172 148,-178 142,-184 136,-184 136,-184 93,-184 93,-184 87,-184 81,-178 81,-172 81,-172 81,-131 81,-131 81,-125 87,-119 93,-119"/>
<text text-anchor="middle" x="114.5" y="-172" font-family="Arial" font-size="10.00" fill="#000000">supriya.system</text>
</g>
<!-- builtins.object&#45;&gt;supriya.system.SupriyaObject.SupriyaObject -->
<g id="edge11" class="edge">
<title>builtins.object&#45;&gt;supriya.system.SupriyaObject.SupriyaObject</title>
<path fill="none" stroke="#778899" d="M53.3404,-142C62.0401,-142 72.6079,-142 82.4698,-142"/>
<polygon fill="#778899" stroke="#778899" points="82.7722,-145.5001 92.7722,-142 82.7721,-138.5001 82.7722,-145.5001"/>
</g>
<!-- supriya.realtime.BusGroup.BusGroup&#45;&gt;supriya.realtime.AudioInputBusGroup.AudioInputBusGroup -->
<g id="edge1" class="edge">
<title>supriya.realtime.BusGroup.BusGroup&#45;&gt;supriya.realtime.AudioInputBusGroup.AudioInputBusGroup</title>
<path fill="none" stroke="#778899" d="M309.749,-192.3336C322.1151,-187.2237 338.6015,-180.4113 352.5736,-174.6378"/>
<polygon fill="#778899" stroke="#778899" points="354.3029,-177.7103 362.2083,-170.6566 351.6296,-171.2409 354.3029,-177.7103"/>
</g>
<!-- supriya.realtime.BusGroup.BusGroup&#45;&gt;supriya.realtime.AudioOutputBusGroup.AudioOutputBusGroup -->
<g id="edge2" class="edge">
<title>supriya.realtime.BusGroup.BusGroup&#45;&gt;supriya.realtime.AudioOutputBusGroup.AudioOutputBusGroup</title>
<path fill="none" stroke="#778899" d="M309.7092,-203.6279C335.2395,-207.7741 382.2369,-212.2874 418.7376,-198 426.2096,-195.0753 433.2623,-190.4144 439.5441,-185.2198"/>
<polygon fill="#778899" stroke="#778899" points="441.9766,-187.7392 447.0625,-178.4449 437.2906,-182.539 441.9766,-187.7392"/>
</g>
<!-- supriya.realtime.Group.Group&#45;&gt;supriya.realtime.RootNode.RootNode -->
<g id="edge3" class="edge">
<title>supriya.realtime.Group.Group&#45;&gt;supriya.realtime.RootNode.RootNode</title>
<path fill="none" stroke="#778899" d="M399.3983,-232.0093C411.1704,-228.861 426.5715,-224.7421 439.6734,-221.2381"/>
<polygon fill="#778899" stroke="#778899" points="440.8185,-224.5549 449.5747,-218.5901 439.01,-217.7926 440.8185,-224.5549"/>
</g>
<!-- supriya.realtime.Node.Node&#45;&gt;supriya.realtime.Group.Group -->
<g id="edge4" class="edge">
<title>supriya.realtime.Node.Node&#45;&gt;supriya.realtime.Group.Group</title>
<path fill="none" stroke="#778899" d="M315.1915,-243.5882C326.4555,-242.456 339.9738,-241.0972 351.8002,-239.9086"/>
<polygon fill="#778899" stroke="#778899" points="352.4725,-243.3587 362.0723,-238.8761 351.7724,-236.3938 352.4725,-243.3587"/>
</g>
<!-- supriya.realtime.Node.Node&#45;&gt;supriya.realtime.Synth.Synth -->
<g id="edge5" class="edge">
<title>supriya.realtime.Node.Node&#45;&gt;supriya.realtime.Synth.Synth</title>
<path fill="none" stroke="#778899" d="M313.5669,-251.1775C322.8467,-253.0845 333.7574,-255.0178 343.7376,-256 375.9496,-259.1703 413.1355,-258.937 438.1136,-258.2192"/>
<polygon fill="#778899" stroke="#778899" points="438.467,-261.7095 448.3448,-257.8781 438.2337,-254.7133 438.467,-261.7095"/>
</g>
<!-- supriya.realtime.ServerObjectProxy.ServerObjectProxy&#45;&gt;supriya.realtime.Buffer.Buffer -->
<g id="edge6" class="edge">
<title>supriya.realtime.ServerObjectProxy.ServerObjectProxy&#45;&gt;supriya.realtime.Buffer.Buffer</title>
<path fill="none" stroke="#778899" d="M228.9202,-129.5626C239.7091,-124.2678 252.3271,-118.0754 263.3735,-112.6542"/>
<polygon fill="#778899" stroke="#778899" points="265.1556,-115.6784 272.5908,-108.1307 262.0716,-109.3944 265.1556,-115.6784"/>
</g>
<!-- supriya.realtime.ServerObjectProxy.ServerObjectProxy&#45;&gt;supriya.realtime.BufferGroup.BufferGroup -->
<g id="edge7" class="edge">
<title>supriya.realtime.ServerObjectProxy.ServerObjectProxy&#45;&gt;supriya.realtime.BufferGroup.BufferGroup</title>
<path fill="none" stroke="#778899" d="M230.8702,-136.1458C263.7134,-129.1011 318.6044,-117.3273 352.0551,-110.1522"/>
<polygon fill="#778899" stroke="#778899" points="353.0638,-113.5156 362.1073,-107.9961 351.5956,-106.6713 353.0638,-113.5156"/>
</g>
<!-- supriya.realtime.ServerObjectProxy.ServerObjectProxy&#45;&gt;supriya.realtime.Bus.Bus -->
<g id="edge8" class="edge">
<title>supriya.realtime.ServerObjectProxy.ServerObjectProxy&#45;&gt;supriya.realtime.Bus.Bus</title>
<path fill="none" stroke="#778899" d="M230.82,-146.6639C242.2408,-148.6191 255.4231,-150.8758 266.5509,-152.7809"/>
<polygon fill="#778899" stroke="#778899" points="266.0185,-156.2406 276.4657,-154.4782 267.1997,-149.3409 266.0185,-156.2406"/>
</g>
<!-- supriya.realtime.ServerObjectProxy.ServerObjectProxy&#45;&gt;supriya.realtime.BusGroup.BusGroup -->
<g id="edge9" class="edge">
<title>supriya.realtime.ServerObjectProxy.ServerObjectProxy&#45;&gt;supriya.realtime.BusGroup.BusGroup</title>
<path fill="none" stroke="#778899" d="M227.0574,-157.5429C238.4486,-165.0834 252.1959,-174.1836 264.0368,-182.0218"/>
<polygon fill="#778899" stroke="#778899" points="262.3789,-185.1216 272.6494,-187.723 266.2428,-179.2846 262.3789,-185.1216"/>
</g>
<!-- supriya.realtime.ServerObjectProxy.ServerObjectProxy&#45;&gt;supriya.realtime.Node.Node -->
<g id="edge10" class="edge">
<title>supriya.realtime.ServerObjectProxy.ServerObjectProxy&#45;&gt;supriya.realtime.Node.Node</title>
<path fill="none" stroke="#778899" d="M220.119,-165.4682C232.4028,-182.3439 249.9414,-205.3225 267.1543,-224 268.1848,-225.1181 269.2638,-226.2439 270.3699,-227.3635"/>
<polygon fill="#778899" stroke="#778899" points="268.1909,-230.123 277.8332,-234.5136 273.0335,-225.0683 268.1909,-230.123"/>
</g>
<!-- supriya.realtime.ServerObjectProxy.ServerObjectProxy&#45;&gt;supriya.synthdefs.SynthDef.SynthDef -->
<g id="edge12" class="edge">
<title>supriya.realtime.ServerObjectProxy.ServerObjectProxy&#45;&gt;supriya.synthdefs.SynthDef.SynthDef</title>
<path fill="none" stroke="#778899" d="M222.3364,-120.5426C234.2424,-107.8556 250.5001,-92.1436 267.1543,-81 294.2604,-62.8629 329.0243,-48.6927 352.9122,-40.1397"/>
<polygon fill="#778899" stroke="#778899" points="354.1387,-43.4188 362.43,-36.8229 351.8351,-36.8087 354.1387,-43.4188"/>
</g>
<!-- supriya.system.SupriyaObject.SupriyaObject&#45;&gt;supriya.realtime.ServerObjectProxy.ServerObjectProxy -->
<g id="edge13" class="edge">
<title>supriya.system.SupriyaObject.SupriyaObject&#45;&gt;supriya.realtime.ServerObjectProxy.ServerObjectProxy</title>
<path fill="none" stroke="#778899" d="M135.2285,-142C144.3083,-142 155.194,-142 165.5808,-142"/>
<polygon fill="#778899" stroke="#778899" points="165.7159,-145.5001 175.7158,-142 165.7158,-138.5001 165.7159,-145.5001"/>
</g>
<!-- builtins.object -->
<g id="node1" class="node">
<title>builtins.object</title>
<g id="a_node1"><a xlink:href="https://docs.python.org/3.6/library/functions.html#object" xlink:title="object" target="_top">
<path fill="#fbb4ae" stroke="#fbb4ae" stroke-width="2" d="M46.6667,-151.5C46.6667,-151.5 22.3333,-151.5 22.3333,-151.5 19.1667,-151.5 16,-148.3333 16,-145.1667 16,-145.1667 16,-138.8333 16,-138.8333 16,-135.6667 19.1667,-132.5 22.3333,-132.5 22.3333,-132.5 46.6667,-132.5 46.6667,-132.5 49.8333,-132.5 53,-135.6667 53,-138.8333 53,-138.8333 53,-145.1667 53,-145.1667 53,-148.3333 49.8333,-151.5 46.6667,-151.5"/>
<text text-anchor="middle" x="34.5" y="-139.5" font-family="Arial" font-size="10.00" fill="#000000">object</text>
</a>
</g>
</g>
<!-- supriya.realtime.AudioInputBusGroup.AudioInputBusGroup -->
<g id="node2" class="node">
<title>supriya.realtime.AudioInputBusGroup.AudioInputBusGroup</title>
<g id="a_node2"><a xlink:href="../api/supriya/realtime/AudioInputBusGroup.html#supriya.realtime.AudioInputBusGroup.AudioInputBusGroup" xlink:title="Audio\nInput\nBus\nGroup" target="_top">
<path fill="#b3cde3" stroke="#b3cde3" stroke-width="2" d="M387.2376,-189C387.2376,-189 374.2376,-189 374.2376,-189 368.2376,-189 362.2376,-183 362.2376,-177 362.2376,-177 362.2376,-149 362.2376,-149 362.2376,-143 368.2376,-137 374.2376,-137 374.2376,-137 387.2376,-137 387.2376,-137 393.2376,-137 399.2376,-143 399.2376,-149 399.2376,-149 399.2376,-177 399.2376,-177 399.2376,-183 393.2376,-189 387.2376,-189"/>
<text text-anchor="middle" x="380.7376" y="-177" font-family="Arial" font-size="10.00" fill="#000000">Audio</text>
<text text-anchor="middle" x="380.7376" y="-166" font-family="Arial" font-size="10.00" fill="#000000">Input</text>
<text text-anchor="middle" x="380.7376" y="-155" font-family="Arial" font-size="10.00" fill="#000000">Bus</text>
<text text-anchor="middle" x="380.7376" y="-144" font-family="Arial" font-size="10.00" fill="#000000">Group</text>
</a>
</g>
</g>
<!-- supriya.realtime.AudioOutputBusGroup.AudioOutputBusGroup -->
<g id="node3" class="node">
<title>supriya.realtime.AudioOutputBusGroup.AudioOutputBusGroup</title>
<g id="a_node3"><a xlink:href="../api/supriya/realtime/AudioOutputBusGroup.html#supriya.realtime.AudioOutputBusGroup.AudioOutputBusGroup" xlink:title="Audio\nOutput\nBus\nGroup" target="_top">
<path fill="#b3cde3" stroke="#b3cde3" stroke-width="2" d="M474.2376,-181C474.2376,-181 459.2376,-181 459.2376,-181 453.2376,-181 447.2376,-175 447.2376,-169 447.2376,-169 447.2376,-141 447.2376,-141 447.2376,-135 453.2376,-129 459.2376,-129 459.2376,-129 474.2376,-129 474.2376,-129 480.2376,-129 486.2376,-135 486.2376,-141 486.2376,-141 486.2376,-169 486.2376,-169 486.2376,-175 480.2376,-181 474.2376,-181"/>
<text text-anchor="middle" x="466.7376" y="-169" font-family="Arial" font-size="10.00" fill="#000000">Audio</text>
<text text-anchor="middle" x="466.7376" y="-158" font-family="Arial" font-size="10.00" fill="#000000">Output</text>
<text text-anchor="middle" x="466.7376" y="-147" font-family="Arial" font-size="10.00" fill="#000000">Bus</text>
<text text-anchor="middle" x="466.7376" y="-136" font-family="Arial" font-size="10.00" fill="#000000">Group</text>
</a>
</g>
</g>
<!-- supriya.realtime.Buffer.Buffer -->
<g id="node4" class="node">
<title>supriya.realtime.Buffer.Buffer</title>
<g id="a_node4"><a xlink:href="../api/supriya/realtime/Buffer.html#supriya.realtime.Buffer.Buffer" xlink:title="Buffer" target="_top">
<path fill="#b3cde3" stroke="#b3cde3" stroke-width="2" d="M303.3626,-108.5C303.3626,-108.5 279.0293,-108.5 279.0293,-108.5 275.8626,-108.5 272.696,-105.3333 272.696,-102.1667 272.696,-102.1667 272.696,-95.8333 272.696,-95.8333 272.696,-92.6667 275.8626,-89.5 279.0293,-89.5 279.0293,-89.5 303.3626,-89.5 303.3626,-89.5 306.5293,-89.5 309.696,-92.6667 309.696,-95.8333 309.696,-95.8333 309.696,-102.1667 309.696,-102.1667 309.696,-105.3333 306.5293,-108.5 303.3626,-108.5"/>
<text text-anchor="middle" x="291.196" y="-96.5" font-family="Arial" font-size="10.00" fill="#000000">Buffer</text>
</a>
</g>
</g>
<!-- supriya.realtime.BufferGroup.BufferGroup -->
<g id="node5" class="node">
<title>supriya.realtime.BufferGroup.BufferGroup</title>
<g id="a_node5"><a xlink:href="../api/supriya/realtime/BufferGroup.html#supriya.realtime.BufferGroup.BufferGroup" xlink:title="Buffer\nGroup" target="_top">
<path fill="#b3cde3" stroke="#b3cde3" stroke-width="2" d="M389.2376,-119C389.2376,-119 372.2376,-119 372.2376,-119 367.2376,-119 362.2376,-114 362.2376,-109 362.2376,-109 362.2376,-99 362.2376,-99 362.2376,-94 367.2376,-89 372.2376,-89 372.2376,-89 389.2376,-89 389.2376,-89 394.2376,-89 399.2376,-94 399.2376,-99 399.2376,-99 399.2376,-109 399.2376,-109 399.2376,-114 394.2376,-119 389.2376,-119"/>
<text text-anchor="middle" x="380.7376" y="-107" font-family="Arial" font-size="10.00" fill="#000000">Buffer</text>
<text text-anchor="middle" x="380.7376" y="-96" font-family="Arial" font-size="10.00" fill="#000000">Group</text>
</a>
</g>
</g>
<!-- supriya.realtime.Bus.Bus -->
<g id="node6" class="node">
<title>supriya.realtime.Bus.Bus</title>
<g id="a_node6"><a xlink:href="../api/supriya/realtime/Bus.html#supriya.realtime.Bus.Bus" xlink:title="Bus" target="_top">
<path fill="#b3cde3" stroke="#b3cde3" stroke-width="2" d="M299.3626,-166.5C299.3626,-166.5 283.0293,-166.5 283.0293,-166.5 279.8626,-166.5 276.696,-163.3333 276.696,-160.1667 276.696,-160.1667 276.696,-153.8333 276.696,-153.8333 276.696,-150.6667 279.8626,-147.5 283.0293,-147.5 283.0293,-147.5 299.3626,-147.5 299.3626,-147.5 302.5293,-147.5 305.696,-150.6667 305.696,-153.8333 305.696,-153.8333 305.696,-160.1667 305.696,-160.1667 305.696,-163.3333 302.5293,-166.5 299.3626,-166.5"/>
<text text-anchor="middle" x="291.196" y="-154.5" font-family="Arial" font-size="10.00" fill="#000000">Bus</text>
</a>
</g>
</g>
<!-- supriya.realtime.BusGroup.BusGroup -->
<g id="node7" class="node">
<title>supriya.realtime.BusGroup.BusGroup</title>
<g id="a_node7"><a xlink:href="../api/supriya/realtime/BusGroup.html#supriya.realtime.BusGroup.BusGroup" xlink:title="Bus\nGroup" target="_top">
<path fill="#b3cde3" stroke="#b3cde3" stroke-width="2" d="M299.696,-215C299.696,-215 282.696,-215 282.696,-215 277.696,-215 272.696,-210 272.696,-205 272.696,-205 272.696,-195 272.696,-195 272.696,-190 277.696,-185 282.696,-185 282.696,-185 299.696,-185 299.696,-185 304.696,-185 309.696,-190 309.696,-195 309.696,-195 309.696,-205 309.696,-205 309.696,-210 304.696,-215 299.696,-215"/>
<text text-anchor="middle" x="291.196" y="-203" font-family="Arial" font-size="10.00" fill="#000000">Bus</text>
<text text-anchor="middle" x="291.196" y="-192" font-family="Arial" font-size="10.00" fill="#000000">Group</text>
</a>
</g>
</g>
<!-- supriya.realtime.Group.Group -->
<g id="node8" class="node">
<title>supriya.realtime.Group.Group</title>
<g id="a_node8"><a xlink:href="../api/supriya/realtime/Group.html#supriya.realtime.Group.Group" xlink:title="Group" target="_top">
<path fill="#b3cde3" stroke="#b3cde3" stroke-width="2" d="M392.9043,-246.5C392.9043,-246.5 368.5709,-246.5 368.5709,-246.5 365.4043,-246.5 362.2376,-243.3333 362.2376,-240.1667 362.2376,-240.1667 362.2376,-233.8333 362.2376,-233.8333 362.2376,-230.6667 365.4043,-227.5 368.5709,-227.5 368.5709,-227.5 392.9043,-227.5 392.9043,-227.5 396.0709,-227.5 399.2376,-230.6667 399.2376,-233.8333 399.2376,-233.8333 399.2376,-240.1667 399.2376,-240.1667 399.2376,-243.3333 396.0709,-246.5 392.9043,-246.5"/>
<text text-anchor="middle" x="380.7376" y="-234.5" font-family="Arial" font-size="10.00" fill="#000000">Group</text>
</a>
</g>
</g>
<!-- supriya.realtime.RootNode.RootNode -->
<g id="node9" class="node">
<title>supriya.realtime.RootNode.RootNode</title>
<g id="a_node9"><a xlink:href="../api/supriya/realtime/RootNode.html#supriya.realtime.RootNode.RootNode" xlink:title="Root\nNode" target="_top">
<path fill="#b3cde3" stroke="#b3cde3" stroke-width="2" d="M473.7376,-229C473.7376,-229 459.7376,-229 459.7376,-229 454.7376,-229 449.7376,-224 449.7376,-219 449.7376,-219 449.7376,-209 449.7376,-209 449.7376,-204 454.7376,-199 459.7376,-199 459.7376,-199 473.7376,-199 473.7376,-199 478.7376,-199 483.7376,-204 483.7376,-209 483.7376,-209 483.7376,-219 483.7376,-219 483.7376,-224 478.7376,-229 473.7376,-229"/>
<text text-anchor="middle" x="466.7376" y="-217" font-family="Arial" font-size="10.00" fill="#000000">Root</text>
<text text-anchor="middle" x="466.7376" y="-206" font-family="Arial" font-size="10.00" fill="#000000">Node</text>
</a>
</g>
</g>
<!-- supriya.realtime.Node.Node -->
<g id="node10" class="node">
<title>supriya.realtime.Node.Node</title>
<g id="a_node10"><a xlink:href="../api/supriya/realtime/Node.html#supriya.realtime.Node.Node" xlink:title="Node" target="_top">
<ellipse fill="none" stroke="#b3cde3" stroke-width="2" cx="291.196" cy="-246" rx="24.0833" ry="13.3704"/>
<text text-anchor="middle" x="291.196" y="-243.5" font-family="Arial" font-size="10.00" fill="#000000">Node</text>
</a>
</g>
</g>
<!-- supriya.realtime.Synth.Synth -->
<g id="node11" class="node">
<title>supriya.realtime.Synth.Synth</title>
<g id="a_node11"><a xlink:href="../api/supriya/realtime/Synth.html#supriya.realtime.Synth.Synth" xlink:title="Synth" target="_top">
<path fill="#b3cde3" stroke="#b3cde3" stroke-width="2" d="M478.4043,-266.5C478.4043,-266.5 455.0709,-266.5 455.0709,-266.5 451.9043,-266.5 448.7376,-263.3333 448.7376,-260.1667 448.7376,-260.1667 448.7376,-253.8333 448.7376,-253.8333 448.7376,-250.6667 451.9043,-247.5 455.0709,-247.5 455.0709,-247.5 478.4043,-247.5 478.4043,-247.5 481.5709,-247.5 484.7376,-250.6667 484.7376,-253.8333 484.7376,-253.8333 484.7376,-260.1667 484.7376,-260.1667 484.7376,-263.3333 481.5709,-266.5 478.4043,-266.5"/>
<text text-anchor="middle" x="466.7376" y="-254.5" font-family="Arial" font-size="10.00" fill="#000000">Synth</text>
</a>
</g>
</g>
<!-- supriya.realtime.ServerObjectProxy.ServerObjectProxy -->
<g id="node12" class="node">
<title>supriya.realtime.ServerObjectProxy.ServerObjectProxy</title>
<g id="a_node12"><a xlink:href="../api/supriya/realtime/ServerObjectProxy.html#supriya.realtime.ServerObjectProxy.ServerObjectProxy" xlink:title="Server\nObject\nProxy" target="_top">
<ellipse fill="#000000" stroke="#000000" stroke-width="2" cx="203.5772" cy="-142" rx="27.6545" ry="28.9828"/>
<text text-anchor="middle" x="203.5772" y="-150.5" font-family="Arial" font-size="10.00" fill="#ffffff">Server</text>
<text text-anchor="middle" x="203.5772" y="-139.5" font-family="Arial" font-size="10.00" fill="#ffffff">Object</text>
<text text-anchor="middle" x="203.5772" y="-128.5" font-family="Arial" font-size="10.00" fill="#ffffff">Proxy</text>
</a>
</g>
</g>
<!-- supriya.synthdefs.SynthDef.SynthDef -->
<g id="node13" class="node">
<title>supriya.synthdefs.SynthDef.SynthDef</title>
<g id="a_node13"><a xlink:href="../api/supriya/realtime/../synthdefs/SynthDef.html#supriya.synthdefs.SynthDef.SynthDef" xlink:title="Synth\nDef" target="_top">
<path fill="#ccebc5" stroke="#ccebc5" stroke-width="2" d="M388.7376,-46C388.7376,-46 372.7376,-46 372.7376,-46 367.7376,-46 362.7376,-41 362.7376,-36 362.7376,-36 362.7376,-26 362.7376,-26 362.7376,-21 367.7376,-16 372.7376,-16 372.7376,-16 388.7376,-16 388.7376,-16 393.7376,-16 398.7376,-21 398.7376,-26 398.7376,-26 398.7376,-36 398.7376,-36 398.7376,-41 393.7376,-46 388.7376,-46"/>
<text text-anchor="middle" x="380.7376" y="-34" font-family="Arial" font-size="10.00" fill="#000000">Synth</text>
<text text-anchor="middle" x="380.7376" y="-23" font-family="Arial" font-size="10.00" fill="#000000">Def</text>
</a>
</g>
</g>
<!-- supriya.system.SupriyaObject.SupriyaObject -->
<g id="node14" class="node">
<title>supriya.system.SupriyaObject.SupriyaObject</title>
<g id="a_node14"><a xlink:href="../api/supriya/realtime/../system/SupriyaObject.html#supriya.system.SupriyaObject.SupriyaObject" xlink:title="Supriya\nObject" target="_top">
<path fill="#decbe4" stroke="#decbe4" stroke-width="2" d="M125,-157C125,-157 103,-157 103,-157 98,-157 93,-152 93,-147 93,-147 93,-137 93,-137 93,-132 98,-127 103,-127 103,-127 125,-127 125,-127 130,-127 135,-132 135,-137 135,-137 135,-147 135,-147 135,-152 130,-157 125,-157"/>
<text text-anchor="middle" x="114" y="-145" font-family="Arial" font-size="10.00" fill="#000000">Supriya</text>
<text text-anchor="middle" x="114" y="-134" font-family="Arial" font-size="10.00" fill="#000000">Object</text>
</a>
</g>
</g>
</g>
</svg>
