<?xml version="1.0" encoding="UTF-8" standalone="no"?>
<!DOCTYPE svg PUBLIC "-//W3C//DTD SVG 1.1//EN"
 "http://www.w3.org/Graphics/SVG/1.1/DTD/svg11.dtd">
<!-- Generated by graphviz version 2.44.1 (20200629.0846)
 -->
<!-- Title: InheritanceGraph Pages: 1 -->
<svg width="896pt" height="381pt"
 viewBox="0.00 0.00 896.39 381.00" xmlns="http://www.w3.org/2000/svg" xmlns:xlink="http://www.w3.org/1999/xlink">
<g id="graph0" class="graph" transform="scale(1 1) rotate(0) translate(4 377)">
<title>InheritanceGraph</title>
<g id="clust1" class="cluster">
<title>cluster_builtins</title>
<path fill="transparent" stroke="#bcd2ee" stroke-width="2" stroke-dasharray="5,2" d="M20,-166C20,-166 55,-166 55,-166 61,-166 67,-172 67,-178 67,-178 67,-209 67,-209 67,-215 61,-221 55,-221 55,-221 20,-221 20,-221 14,-221 8,-215 8,-209 8,-209 8,-178 8,-178 8,-172 14,-166 20,-166"/>
<text text-anchor="middle" x="37.5" y="-209" font-family="Arial" font-size="10.00">builtins</text>
</g>
<g id="clust2" class="cluster">
<title>cluster_supriya.synthdefs.bases</title>
<path fill="transparent" stroke="#bcd2ee" stroke-width="2" stroke-dasharray="5,2" d="M347,-155C347,-155 493.79,-155 493.79,-155 499.79,-155 505.79,-161 505.79,-167 505.79,-167 505.79,-220 505.79,-220 505.79,-226 499.79,-232 493.79,-232 493.79,-232 347,-232 347,-232 341,-232 335,-226 335,-220 335,-220 335,-167 335,-167 335,-161 341,-155 347,-155"/>
<text text-anchor="middle" x="420.4" y="-220" font-family="Arial" font-size="10.00">supriya.synthdefs.bases</text>
</g>
<g id="clust3" class="cluster">
<title>cluster_supriya.synthdefs.mixins</title>
<path fill="transparent" stroke="#bcd2ee" stroke-width="2" stroke-dasharray="5,2" d="M202,-155C202,-155 303,-155 303,-155 309,-155 315,-161 315,-167 315,-167 315,-220 315,-220 315,-226 309,-232 303,-232 303,-232 202,-232 202,-232 196,-232 190,-226 190,-220 190,-220 190,-167 190,-167 190,-161 196,-155 202,-155"/>
<text text-anchor="middle" x="252.5" y="-220" font-family="Arial" font-size="10.00">supriya.synthdefs.mixins</text>
</g>
<g id="clust4" class="cluster">
<title>cluster_supriya.system</title>
<path fill="transparent" stroke="#bcd2ee" stroke-width="2" stroke-dasharray="5,2" d="M99,-161C99,-161 158,-161 158,-161 164,-161 170,-167 170,-173 170,-173 170,-214 170,-214 170,-220 164,-226 158,-226 158,-226 99,-226 99,-226 93,-226 87,-220 87,-214 87,-214 87,-173 87,-173 87,-167 93,-161 99,-161"/>
<text text-anchor="middle" x="128.5" y="-214" font-family="Arial" font-size="10.00">supriya.system</text>
</g>
<g id="clust5" class="cluster">
<title>cluster_supriya.ugens</title>
<path fill="transparent" stroke="#bcd2ee" stroke-width="2" stroke-dasharray="5,2" d="M537.79,-8C537.79,-8 868.39,-8 868.39,-8 874.39,-8 880.39,-14 880.39,-20 880.39,-20 880.39,-353 880.39,-353 880.39,-359 874.39,-365 868.39,-365 868.39,-365 537.79,-365 537.79,-365 531.79,-365 525.79,-359 525.79,-353 525.79,-353 525.79,-20 525.79,-20 525.79,-14 531.79,-8 537.79,-8"/>
<text text-anchor="middle" x="703.09" y="-353" font-family="Arial" font-size="10.00">supriya.ugens</text>
</g>
<!-- builtins.object&#45;&gt;supriya.system.SupriyaObject -->
<g id="edge13" class="edge">
<title>builtins.object&#45;&gt;supriya.system.SupriyaObject</title>
<path fill="none" stroke="lightslategrey" d="M59.03,-184C69.03,-184 81.34,-184 92.72,-184"/>
<polygon fill="lightslategrey" stroke="lightslategrey" points="92.82,-187.5 102.82,-184 92.82,-180.5 92.82,-187.5"/>
</g>
<!-- supriya.synthdefs.bases.PureUGen&#45;&gt;supriya.ugens.Filter.Filter -->
<g id="edge14" class="edge">
<title>supriya.synthdefs.bases.PureUGen&#45;&gt;supriya.ugens.Filter.Filter</title>
<path fill="none" stroke="lightslategrey" d="M498,-184C506.17,-184 515.16,-184 523.7,-184"/>
<polygon fill="lightslategrey" stroke="lightslategrey" points="523.79,-187.5 533.79,-184 523.79,-180.5 523.79,-187.5"/>
</g>
<!-- supriya.synthdefs.bases.UGen&#45;&gt;supriya.synthdefs.bases.PureUGen -->
<g id="edge1" class="edge">
<title>supriya.synthdefs.bases.UGen&#45;&gt;supriya.synthdefs.bases.PureUGen</title>
<path fill="none" stroke="lightslategrey" d="M402.48,-184C410.56,-184 419.48,-184 428.05,-184"/>
<polygon fill="lightslategrey" stroke="lightslategrey" points="428.25,-187.5 438.25,-184 428.25,-180.5 428.25,-187.5"/>
</g>
<!-- supriya.synthdefs.mixins.UGenMethodMixin&#45;&gt;supriya.synthdefs.bases.UGen -->
<g id="edge15" class="edge">
<title>supriya.synthdefs.mixins.UGenMethodMixin&#45;&gt;supriya.synthdefs.bases.UGen</title>
<path fill="none" stroke="lightslategrey" d="M277.14,-184C292.98,-184 314.22,-184 332.55,-184"/>
<polygon fill="lightslategrey" stroke="lightslategrey" points="332.67,-187.5 342.67,-184 332.67,-180.5 332.67,-187.5"/>
</g>
<!-- supriya.system.SupriyaObject&#45;&gt;supriya.synthdefs.mixins.UGenMethodMixin -->
<g id="edge16" class="edge">
<title>supriya.system.SupriyaObject&#45;&gt;supriya.synthdefs.mixins.UGenMethodMixin</title>
<path fill="none" stroke="lightslategrey" d="M153.2,-184C171.61,-184 197.17,-184 217.61,-184"/>
<polygon fill="lightslategrey" stroke="lightslategrey" points="217.77,-187.5 227.77,-184 217.77,-180.5 217.77,-187.5"/>
</g>
<!-- supriya.ugens.BEQSuite.BEQSuite&#45;&gt;supriya.ugens.BAllPass.BAllPass -->
<g id="edge2" class="edge">
<title>supriya.ugens.BEQSuite.BEQSuite&#45;&gt;supriya.ugens.BAllPass.BAllPass</title>
<path fill="none" stroke="lightslategrey" d="M674.71,-170.72C688.24,-147.74 717.3,-99.28 744.39,-60 745.67,-58.14 747.02,-56.23 748.4,-54.33"/>
<polygon fill="lightslategrey" stroke="lightslategrey" points="751.32,-56.27 754.48,-46.16 745.7,-52.1 751.32,-56.27"/>
</g>
<!-- supriya.ugens.BEQSuite.BEQSuite&#45;&gt;supriya.ugens.BBandPass.BBandPass -->
<g id="edge3" class="edge">
<title>supriya.ugens.BEQSuite.BEQSuite&#45;&gt;supriya.ugens.BBandPass.BBandPass</title>
<path fill="none" stroke="lightslategrey" d="M672.13,-170.4C682.05,-146.43 706.21,-97.09 744.39,-75 765.97,-62.51 794.38,-60.55 816.04,-61.42"/>
<polygon fill="lightslategrey" stroke="lightslategrey" points="815.88,-64.91 826.08,-62.03 816.31,-57.93 815.88,-64.91"/>
</g>
<!-- supriya.ugens.BEQSuite.BEQSuite&#45;&gt;supriya.ugens.BBandStop.BBandStop -->
<g id="edge4" class="edge">
<title>supriya.ugens.BEQSuite.BEQSuite&#45;&gt;supriya.ugens.BBandStop.BBandStop</title>
<path fill="none" stroke="lightslategrey" d="M681.63,-171.46C697.23,-158.12 722.19,-136.78 740.99,-120.71"/>
<polygon fill="lightslategrey" stroke="lightslategrey" points="743.3,-123.34 748.63,-114.18 738.75,-118.02 743.3,-123.34"/>
</g>
<!-- supriya.ugens.BEQSuite.BEQSuite&#45;&gt;supriya.ugens.BHiCut.BHiCut -->
<g id="edge5" class="edge">
<title>supriya.ugens.BEQSuite.BEQSuite&#45;&gt;supriya.ugens.BHiCut.BHiCut</title>
<path fill="none" stroke="lightslategrey" d="M684.86,-171.91C700.01,-162.33 722.68,-149.51 744.39,-143 770.28,-135.23 801.27,-133.12 822.65,-132.71"/>
<polygon fill="lightslategrey" stroke="lightslategrey" points="822.9,-136.21 832.87,-132.63 822.84,-129.21 822.9,-136.21"/>
</g>
<!-- supriya.ugens.BEQSuite.BEQSuite&#45;&gt;supriya.ugens.BHiPass.BHiPass -->
<g id="edge6" class="edge">
<title>supriya.ugens.BEQSuite.BEQSuite&#45;&gt;supriya.ugens.BHiPass.BHiPass</title>
<path fill="none" stroke="lightslategrey" d="M703.7,-177.72C714.9,-175.8 727.05,-173.73 737.64,-171.91"/>
<polygon fill="lightslategrey" stroke="lightslategrey" points="738.36,-175.34 747.62,-170.21 737.18,-168.44 738.36,-175.34"/>
</g>
<!-- supriya.ugens.BEQSuite.BEQSuite&#45;&gt;supriya.ugens.BHiShelf.BHiShelf -->
<g id="edge7" class="edge">
<title>supriya.ugens.BEQSuite.BEQSuite&#45;&gt;supriya.ugens.BHiShelf.BHiShelf</title>
<path fill="none" stroke="lightslategrey" d="M706.78,-187.73C740.93,-190.93 789.31,-195.46 819.75,-198.32"/>
<polygon fill="lightslategrey" stroke="lightslategrey" points="819.44,-201.8 829.72,-199.25 820.09,-194.83 819.44,-201.8"/>
</g>
<!-- supriya.ugens.BEQSuite.BEQSuite&#45;&gt;supriya.ugens.BLowCut.BLowCut -->
<g id="edge8" class="edge">
<title>supriya.ugens.BEQSuite.BEQSuite&#45;&gt;supriya.ugens.BLowCut.BLowCut</title>
<path fill="none" stroke="lightslategrey" d="M689.03,-195.32C703.33,-202.66 722.12,-212.29 737.6,-220.23"/>
<polygon fill="lightslategrey" stroke="lightslategrey" points="736.24,-223.47 746.74,-224.92 739.44,-217.24 736.24,-223.47"/>
</g>
<!-- supriya.ugens.BEQSuite.BEQSuite&#45;&gt;supriya.ugens.BLowPass.BLowPass -->
<g id="edge9" class="edge">
<title>supriya.ugens.BEQSuite.BEQSuite&#45;&gt;supriya.ugens.BLowPass.BLowPass</title>
<path fill="none" stroke="lightslategrey" d="M676.16,-197.35C689.1,-214.92 714.48,-245.19 744.39,-259 767.63,-269.74 796.86,-271.67 818.41,-271.25"/>
<polygon fill="lightslategrey" stroke="lightslategrey" points="818.74,-274.74 828.61,-270.86 818.48,-267.74 818.74,-274.74"/>
</g>
<!-- supriya.ugens.BEQSuite.BEQSuite&#45;&gt;supriya.ugens.BLowShelf.BLowShelf -->
<g id="edge10" class="edge">
<title>supriya.ugens.BEQSuite.BEQSuite&#45;&gt;supriya.ugens.BLowShelf.BLowShelf</title>
<path fill="none" stroke="lightslategrey" d="M677.98,-197.19C694.7,-217.2 726.69,-255.49 747.26,-280.11"/>
<polygon fill="lightslategrey" stroke="lightslategrey" points="744.66,-282.45 753.76,-287.88 750.03,-277.97 744.66,-282.45"/>
</g>
<!-- supriya.ugens.BEQSuite.BEQSuite&#45;&gt;supriya.ugens.BPeakEQ.BPeakEQ -->
<g id="edge11" class="edge">
<title>supriya.ugens.BEQSuite.BEQSuite&#45;&gt;supriya.ugens.BPeakEQ.BPeakEQ</title>
<path fill="none" stroke="lightslategrey" d="M669.59,-197.83C676.11,-227.79 696.12,-298.25 744.39,-327 765.96,-339.85 794.77,-337.57 816.59,-332.8"/>
<polygon fill="lightslategrey" stroke="lightslategrey" points="817.5,-336.18 826.38,-330.39 815.83,-329.38 817.5,-336.18"/>
</g>
<!-- supriya.ugens.Filter.Filter&#45;&gt;supriya.ugens.BEQSuite.BEQSuite -->
<g id="edge12" class="edge">
<title>supriya.ugens.Filter.Filter&#45;&gt;supriya.ugens.BEQSuite.BEQSuite</title>
<path fill="none" stroke="lightslategrey" d="M587.73,-184C595.46,-184 604.22,-184 612.99,-184"/>
<polygon fill="lightslategrey" stroke="lightslategrey" points="613.23,-187.5 623.22,-184 613.22,-180.5 613.23,-187.5"/>
</g>
<!-- builtins.object -->
<g id="node1" class="node">
<title>builtins.object</title>
<g id="a_node1"><a xlink:href="https://docs.python.org/3/library/functions.html#object" xlink:title="object" target="_top">
<path fill="#fbb4ae" stroke="#fbb4ae" stroke-width="2" d="M52.67,-193.5C52.67,-193.5 22.33,-193.5 22.33,-193.5 19.17,-193.5 16,-190.33 16,-187.17 16,-187.17 16,-180.83 16,-180.83 16,-177.67 19.17,-174.5 22.33,-174.5 22.33,-174.5 52.67,-174.5 52.67,-174.5 55.83,-174.5 59,-177.67 59,-180.83 59,-180.83 59,-187.17 59,-187.17 59,-190.33 55.83,-193.5 52.67,-193.5"/>
<text text-anchor="middle" x="37.5" y="-181.5" font-family="Arial" font-size="10.00">object</text>
</a>
</g>
</g>
<!-- supriya.synthdefs.bases.PureUGen -->
<g id="node2" class="node">
<title>supriya.synthdefs.bases.PureUGen</title>
<g id="a_node2"><a xlink:href="../api/supriya/ugens/../synthdefs/bases.html#supriya.synthdefs.bases.PureUGen" xlink:title="Pure\nUGen" target="_top">
<ellipse fill="none" stroke="#b3cde3" stroke-width="2" cx="468.1" cy="-184" rx="29.9" ry="21.43"/>
<text text-anchor="middle" x="468.1" y="-187" font-family="Arial" font-size="10.00">Pure</text>
<text text-anchor="middle" x="468.1" y="-176" font-family="Arial" font-size="10.00">UGen</text>
</a>
</g>
</g>
<!-- supriya.synthdefs.bases.UGen -->
<g id="node3" class="node">
<title>supriya.synthdefs.bases.UGen</title>
<g id="a_node3"><a xlink:href="../api/supriya/ugens/../synthdefs/bases.html#supriya.synthdefs.bases.UGen" xlink:title="UGen" target="_top">
<ellipse fill="none" stroke="#b3cde3" stroke-width="2" cx="372.7" cy="-184" rx="29.9" ry="13.37"/>
<text text-anchor="middle" x="372.7" y="-181.5" font-family="Arial" font-size="10.00">UGen</text>
</a>
</g>
</g>
<!-- supriya.synthdefs.mixins.UGenMethodMixin -->
<g id="node4" class="node">
<title>supriya.synthdefs.mixins.UGenMethodMixin</title>
<g id="a_node4"><a xlink:href="../api/supriya/ugens/../synthdefs/mixins.html#supriya.synthdefs.mixins.UGenMethodMixin" xlink:title="UGen\nMethod\nMixin" target="_top">
<path fill="#ccebc5" stroke="#ccebc5" stroke-width="2" d="M265,-204.5C265,-204.5 240,-204.5 240,-204.5 234,-204.5 228,-198.5 228,-192.5 228,-192.5 228,-175.5 228,-175.5 228,-169.5 234,-163.5 240,-163.5 240,-163.5 265,-163.5 265,-163.5 271,-163.5 277,-169.5 277,-175.5 277,-175.5 277,-192.5 277,-192.5 277,-198.5 271,-204.5 265,-204.5"/>
<text text-anchor="middle" x="252.5" y="-192.5" font-family="Arial" font-size="10.00">UGen</text>
<text text-anchor="middle" x="252.5" y="-181.5" font-family="Arial" font-size="10.00">Method</text>
<text text-anchor="middle" x="252.5" y="-170.5" font-family="Arial" font-size="10.00">Mixin</text>
</a>
</g>
</g>
<!-- supriya.system.SupriyaObject -->
<g id="node5" class="node">
<title>supriya.system.SupriyaObject</title>
<g id="a_node5"><a xlink:href="../api/supriya/ugens/../system.html#supriya.system.SupriyaObject" xlink:title="Supriya\nObject" target="_top">
<path fill="#decbe4" stroke="#decbe4" stroke-width="2" d="M143,-199C143,-199 113,-199 113,-199 108,-199 103,-194 103,-189 103,-189 103,-179 103,-179 103,-174 108,-169 113,-169 113,-169 143,-169 143,-169 148,-169 153,-174 153,-179 153,-179 153,-189 153,-189 153,-194 148,-199 143,-199"/>
<text text-anchor="middle" x="128" y="-187" font-family="Arial" font-size="10.00">Supriya</text>
<text text-anchor="middle" x="128" y="-176" font-family="Arial" font-size="10.00">Object</text>
</a>
</g>
</g>
<!-- supriya.ugens.BAllPass.BAllPass -->
<g id="node6" class="node">
<title>supriya.ugens.BAllPass.BAllPass</title>
<g id="a_node6"><a xlink:href="../api/supriya/ugens/BAllPass.html#supriya.ugens.BAllPass.BAllPass" xlink:title="BAll\nPass" target="_top">
<path fill="#fed9a6" stroke="#fed9a6" stroke-width="2" d="M776.89,-46C776.89,-46 757.89,-46 757.89,-46 752.89,-46 747.89,-41 747.89,-36 747.89,-36 747.89,-26 747.89,-26 747.89,-21 752.89,-16 757.89,-16 757.89,-16 776.89,-16 776.89,-16 781.89,-16 786.89,-21 786.89,-26 786.89,-26 786.89,-36 786.89,-36 786.89,-41 781.89,-46 776.89,-46"/>
<text text-anchor="middle" x="767.39" y="-34" font-family="Arial" font-size="10.00">BAll</text>
<text text-anchor="middle" x="767.39" y="-23" font-family="Arial" font-size="10.00">Pass</text>
</a>
</g>
</g>
<!-- supriya.ugens.BBandPass.BBandPass -->
<g id="node7" class="node">
<title>supriya.ugens.BBandPass.BBandPass</title>
<g id="a_node7"><a xlink:href="../api/supriya/ugens/BBandPass.html#supriya.ugens.BBandPass.BBandPass" xlink:title="BBand\nPass" target="_top">
<path fill="#fed9a6" stroke="#fed9a6" stroke-width="2" d="M862.39,-80C862.39,-80 836.39,-80 836.39,-80 831.39,-80 826.39,-75 826.39,-70 826.39,-70 826.39,-60 826.39,-60 826.39,-55 831.39,-50 836.39,-50 836.39,-50 862.39,-50 862.39,-50 867.39,-50 872.39,-55 872.39,-60 872.39,-60 872.39,-70 872.39,-70 872.39,-75 867.39,-80 862.39,-80"/>
<text text-anchor="middle" x="849.39" y="-68" font-family="Arial" font-size="10.00">BBand</text>
<text text-anchor="middle" x="849.39" y="-57" font-family="Arial" font-size="10.00">Pass</text>
</a>
</g>
</g>
<!-- supriya.ugens.BBandStop.BBandStop -->
<g id="node8" class="node">
<title>supriya.ugens.BBandStop.BBandStop</title>
<g id="a_node8"><a xlink:href="../api/supriya/ugens/BBandStop.html#supriya.ugens.BBandStop.BBandStop" xlink:title="BBand\nStop" target="_top">
<path fill="#fed9a6" stroke="#fed9a6" stroke-width="2" d="M780.39,-114C780.39,-114 754.39,-114 754.39,-114 749.39,-114 744.39,-109 744.39,-104 744.39,-104 744.39,-94 744.39,-94 744.39,-89 749.39,-84 754.39,-84 754.39,-84 780.39,-84 780.39,-84 785.39,-84 790.39,-89 790.39,-94 790.39,-94 790.39,-104 790.39,-104 790.39,-109 785.39,-114 780.39,-114"/>
<text text-anchor="middle" x="767.39" y="-102" font-family="Arial" font-size="10.00">BBand</text>
<text text-anchor="middle" x="767.39" y="-91" font-family="Arial" font-size="10.00">Stop</text>
</a>
</g>
</g>
<!-- supriya.ugens.BEQSuite.BEQSuite -->
<g id="node9" class="node">
<title>supriya.ugens.BEQSuite.BEQSuite</title>
<g id="a_node9"><a xlink:href="../api/supriya/ugens/BEQSuite.html#supriya.ugens.BEQSuite.BEQSuite" xlink:title="BEQSuite" target="_top">
<ellipse fill="black" stroke="black" stroke-width="2" cx="665.96" cy="-184" rx="42.35" ry="13.37"/>
<text text-anchor="middle" x="665.96" y="-181.5" font-family="Arial" font-size="10.00" fill="white">BEQSuite</text>
</a>
</g>
</g>
<!-- supriya.ugens.BHiCut.BHiCut -->
<g id="node10" class="node">
<title>supriya.ugens.BHiCut.BHiCut</title>
<g id="a_node10"><a xlink:href="../api/supriya/ugens/BHiCut.html#supriya.ugens.BHiCut.BHiCut" xlink:title="BHi\nCut" target="_top">
<path fill="#fed9a6" stroke="#fed9a6" stroke-width="2" d="M855.89,-148C855.89,-148 842.89,-148 842.89,-148 837.89,-148 832.89,-143 832.89,-138 832.89,-138 832.89,-128 832.89,-128 832.89,-123 837.89,-118 842.89,-118 842.89,-118 855.89,-118 855.89,-118 860.89,-118 865.89,-123 865.89,-128 865.89,-128 865.89,-138 865.89,-138 865.89,-143 860.89,-148 855.89,-148"/>
<text text-anchor="middle" x="849.39" y="-136" font-family="Arial" font-size="10.00">BHi</text>
<text text-anchor="middle" x="849.39" y="-125" font-family="Arial" font-size="10.00">Cut</text>
</a>
</g>
</g>
<!-- supriya.ugens.BHiPass.BHiPass -->
<g id="node11" class="node">
<title>supriya.ugens.BHiPass.BHiPass</title>
<g id="a_node11"><a xlink:href="../api/supriya/ugens/BHiPass.html#supriya.ugens.BHiPass.BHiPass" xlink:title="BHi\nPass" target="_top">
<path fill="#fed9a6" stroke="#fed9a6" stroke-width="2" d="M776.89,-182C776.89,-182 757.89,-182 757.89,-182 752.89,-182 747.89,-177 747.89,-172 747.89,-172 747.89,-162 747.89,-162 747.89,-157 752.89,-152 757.89,-152 757.89,-152 776.89,-152 776.89,-152 781.89,-152 786.89,-157 786.89,-162 786.89,-162 786.89,-172 786.89,-172 786.89,-177 781.89,-182 776.89,-182"/>
<text text-anchor="middle" x="767.39" y="-170" font-family="Arial" font-size="10.00">BHi</text>
<text text-anchor="middle" x="767.39" y="-159" font-family="Arial" font-size="10.00">Pass</text>
</a>
</g>
</g>
<!-- supriya.ugens.BHiShelf.BHiShelf -->
<g id="node12" class="node">
<title>supriya.ugens.BHiShelf.BHiShelf</title>
<g id="a_node12"><a xlink:href="../api/supriya/ugens/BHiShelf.html#supriya.ugens.BHiShelf.BHiShelf" xlink:title="BHi\nShelf" target="_top">
<path fill="#fed9a6" stroke="#fed9a6" stroke-width="2" d="M858.89,-216C858.89,-216 839.89,-216 839.89,-216 834.89,-216 829.89,-211 829.89,-206 829.89,-206 829.89,-196 829.89,-196 829.89,-191 834.89,-186 839.89,-186 839.89,-186 858.89,-186 858.89,-186 863.89,-186 868.89,-191 868.89,-196 868.89,-196 868.89,-206 868.89,-206 868.89,-211 863.89,-216 858.89,-216"/>
<text text-anchor="middle" x="849.39" y="-204" font-family="Arial" font-size="10.00">BHi</text>
<text text-anchor="middle" x="849.39" y="-193" font-family="Arial" font-size="10.00">Shelf</text>
</a>
</g>
</g>
<!-- supriya.ugens.BLowCut.BLowCut -->
<g id="node13" class="node">
<title>supriya.ugens.BLowCut.BLowCut</title>
<g id="a_node13"><a xlink:href="../api/supriya/ugens/BLowCut.html#supriya.ugens.BLowCut.BLowCut" xlink:title="BLow\nCut" target="_top">
<path fill="#fed9a6" stroke="#fed9a6" stroke-width="2" d="M777.89,-250C777.89,-250 756.89,-250 756.89,-250 751.89,-250 746.89,-245 746.89,-240 746.89,-240 746.89,-230 746.89,-230 746.89,-225 751.89,-220 756.89,-220 756.89,-220 777.89,-220 777.89,-220 782.89,-220 787.89,-225 787.89,-230 787.89,-230 787.89,-240 787.89,-240 787.89,-245 782.89,-250 777.89,-250"/>
<text text-anchor="middle" x="767.39" y="-238" font-family="Arial" font-size="10.00">BLow</text>
<text text-anchor="middle" x="767.39" y="-227" font-family="Arial" font-size="10.00">Cut</text>
</a>
</g>
</g>
<!-- supriya.ugens.BLowPass.BLowPass -->
<g id="node14" class="node">
<title>supriya.ugens.BLowPass.BLowPass</title>
<g id="a_node14"><a xlink:href="../api/supriya/ugens/BLowPass.html#supriya.ugens.BLowPass.BLowPass" xlink:title="BLow\nPass" target="_top">
<path fill="#fed9a6" stroke="#fed9a6" stroke-width="2" d="M859.89,-284C859.89,-284 838.89,-284 838.89,-284 833.89,-284 828.89,-279 828.89,-274 828.89,-274 828.89,-264 828.89,-264 828.89,-259 833.89,-254 838.89,-254 838.89,-254 859.89,-254 859.89,-254 864.89,-254 869.89,-259 869.89,-264 869.89,-264 869.89,-274 869.89,-274 869.89,-279 864.89,-284 859.89,-284"/>
<text text-anchor="middle" x="849.39" y="-272" font-family="Arial" font-size="10.00">BLow</text>
<text text-anchor="middle" x="849.39" y="-261" font-family="Arial" font-size="10.00">Pass</text>
</a>
</g>
</g>
<!-- supriya.ugens.BLowShelf.BLowShelf -->
<g id="node15" class="node">
<title>supriya.ugens.BLowShelf.BLowShelf</title>
<g id="a_node15"><a xlink:href="../api/supriya/ugens/BLowShelf.html#supriya.ugens.BLowShelf.BLowShelf" xlink:title="BLow\nShelf" target="_top">
<path fill="#fed9a6" stroke="#fed9a6" stroke-width="2" d="M777.89,-318C777.89,-318 756.89,-318 756.89,-318 751.89,-318 746.89,-313 746.89,-308 746.89,-308 746.89,-298 746.89,-298 746.89,-293 751.89,-288 756.89,-288 756.89,-288 777.89,-288 777.89,-288 782.89,-288 787.89,-293 787.89,-298 787.89,-298 787.89,-308 787.89,-308 787.89,-313 782.89,-318 777.89,-318"/>
<text text-anchor="middle" x="767.39" y="-306" font-family="Arial" font-size="10.00">BLow</text>
<text text-anchor="middle" x="767.39" y="-295" font-family="Arial" font-size="10.00">Shelf</text>
</a>
</g>
</g>
<!-- supriya.ugens.BPeakEQ.BPeakEQ -->
<g id="node16" class="node">
<title>supriya.ugens.BPeakEQ.BPeakEQ</title>
<g id="a_node16"><a xlink:href="../api/supriya/ugens/BPeakEQ.html#supriya.ugens.BPeakEQ.BPeakEQ" xlink:title="BPeak\nEQ" target="_top">
<path fill="#fed9a6" stroke="#fed9a6" stroke-width="2" d="M862.39,-338C862.39,-338 836.39,-338 836.39,-338 831.39,-338 826.39,-333 826.39,-328 826.39,-328 826.39,-318 826.39,-318 826.39,-313 831.39,-308 836.39,-308 836.39,-308 862.39,-308 862.39,-308 867.39,-308 872.39,-313 872.39,-318 872.39,-318 872.39,-328 872.39,-328 872.39,-333 867.39,-338 862.39,-338"/>
<text text-anchor="middle" x="849.39" y="-326" font-family="Arial" font-size="10.00">BPeak</text>
<text text-anchor="middle" x="849.39" y="-315" font-family="Arial" font-size="10.00">EQ</text>
</a>
</g>
</g>
<!-- supriya.ugens.Filter.Filter -->
<g id="node17" class="node">
<title>supriya.ugens.Filter.Filter</title>
<g id="a_node17"><a xlink:href="../api/supriya/ugens/Filter.html#supriya.ugens.Filter.Filter" xlink:title="Filter" target="_top">
<ellipse fill="none" stroke="#fed9a6" stroke-width="2" cx="560.66" cy="-184" rx="26.74" ry="13.37"/>
<text text-anchor="middle" x="560.66" y="-181.5" font-family="Arial" font-size="10.00">Filter</text>
</a>
</g>
</g>
</g>
</svg>
