<?xml version="1.0" encoding="UTF-8" standalone="no"?>
<!DOCTYPE svg PUBLIC "-//W3C//DTD SVG 1.1//EN"
 "http://www.w3.org/Graphics/SVG/1.1/DTD/svg11.dtd">
<!-- Generated by graphviz version 2.44.1 (20200629.0846)
 -->
<!-- Title: InheritanceGraph Pages: 1 -->
<svg width="362pt" height="141pt"
 viewBox="0.00 0.00 362.00 141.00" xmlns="http://www.w3.org/2000/svg" xmlns:xlink="http://www.w3.org/1999/xlink">
<g id="graph0" class="graph" transform="scale(1 1) rotate(0) translate(4 137)">
<title>InheritanceGraph</title>
<g id="clust1" class="cluster">
<title>cluster_builtins</title>
<path fill="transparent" stroke="#bcd2ee" stroke-width="2" stroke-dasharray="5,2" d="M20,-56C20,-56 55,-56 55,-56 61,-56 67,-62 67,-68 67,-68 67,-99 67,-99 67,-105 61,-111 55,-111 55,-111 20,-111 20,-111 14,-111 8,-105 8,-99 8,-99 8,-68 8,-68 8,-62 14,-56 20,-56"/>
<text text-anchor="middle" x="37.5" y="-99" font-family="Arial" font-size="10.00">builtins</text>
</g>
<g id="clust2" class="cluster">
<title>cluster_supriya.soundfiles</title>
<path fill="transparent" stroke="#bcd2ee" stroke-width="2" stroke-dasharray="5,2" d="M271,-8C271,-8 342,-8 342,-8 348,-8 354,-14 354,-20 354,-20 354,-99 354,-99 354,-105 348,-111 342,-111 342,-111 271,-111 271,-111 265,-111 259,-105 259,-99 259,-99 259,-20 259,-20 259,-14 265,-8 271,-8"/>
<text text-anchor="middle" x="306.5" y="-99" font-family="Arial" font-size="10.00">supriya.soundfiles</text>
</g>
<g id="clust3" class="cluster">
<title>cluster_supriya.system</title>
<path fill="transparent" stroke="#bcd2ee" stroke-width="2" stroke-dasharray="5,2" d="M99,-48C99,-48 227,-48 227,-48 233,-48 239,-54 239,-60 239,-60 239,-113 239,-113 239,-119 233,-125 227,-125 227,-125 99,-125 99,-125 93,-125 87,-119 87,-113 87,-113 87,-60 87,-60 87,-54 93,-48 99,-48"/>
<text text-anchor="middle" x="163" y="-113" font-family="Arial" font-size="10.00">supriya.system</text>
</g>
<!-- builtins.object&#45;&gt;supriya.system.SupriyaObject -->
<g id="edge2" class="edge">
<title>builtins.object&#45;&gt;supriya.system.SupriyaObject</title>
<path fill="none" stroke="lightslategrey" d="M59.23,-74C66.98,-74 76,-74 84.66,-74"/>
<polygon fill="lightslategrey" stroke="lightslategrey" points="84.91,-77.5 94.91,-74 84.91,-70.5 84.91,-77.5"/>
</g>
<!-- supriya.system.SupriyaObject&#45;&gt;supriya.soundfiles.SoundFile -->
<g id="edge3" class="edge">
<title>supriya.system.SupriyaObject&#45;&gt;supriya.soundfiles.SoundFile</title>
<path fill="none" stroke="lightslategrey" d="M145.26,-61.69C155.97,-56.73 168.86,-51.39 181,-48 211.76,-39.4 248.08,-35.07 273.43,-32.94"/>
<polygon fill="lightslategrey" stroke="lightslategrey" points="273.88,-36.42 283.58,-32.16 273.34,-29.44 273.88,-36.42"/>
</g>
<!-- supriya.system.SupriyaObject&#45;&gt;supriya.system.SupriyaValueObject -->
<g id="edge1" class="edge">
<title>supriya.system.SupriyaObject&#45;&gt;supriya.system.SupriyaValueObject</title>
<path fill="none" stroke="lightslategrey" d="M145.3,-74.87C153.22,-75.15 162.17,-75.47 170.69,-75.77"/>
<polygon fill="lightslategrey" stroke="lightslategrey" points="170.64,-79.27 180.76,-76.13 170.89,-72.28 170.64,-79.27"/>
</g>
<!-- supriya.system.SupriyaValueObject&#45;&gt;supriya.soundfiles.Say -->
<g id="edge4" class="edge">
<title>supriya.system.SupriyaValueObject&#45;&gt;supriya.soundfiles.Say</title>
<path fill="none" stroke="lightslategrey" d="M231.22,-76.26C245.64,-75.82 263.93,-75.26 278.7,-74.81"/>
<polygon fill="lightslategrey" stroke="lightslategrey" points="278.83,-78.3 288.72,-74.5 278.62,-71.31 278.83,-78.3"/>
</g>
<!-- builtins.object -->
<g id="node1" class="node">
<title>builtins.object</title>
<g id="a_node1"><a xlink:href="https://docs.python.org/3/library/functions.html#object" xlink:title="object" target="_top">
<path fill="#fbb4ae" stroke="#fbb4ae" stroke-width="2" d="M52.67,-83.5C52.67,-83.5 22.33,-83.5 22.33,-83.5 19.17,-83.5 16,-80.33 16,-77.17 16,-77.17 16,-70.83 16,-70.83 16,-67.67 19.17,-64.5 22.33,-64.5 22.33,-64.5 52.67,-64.5 52.67,-64.5 55.83,-64.5 59,-67.67 59,-70.83 59,-70.83 59,-77.17 59,-77.17 59,-80.33 55.83,-83.5 52.67,-83.5"/>
<text text-anchor="middle" x="37.5" y="-71.5" font-family="Arial" font-size="10.00">object</text>
</a>
</g>
</g>
<!-- supriya.soundfiles.Say -->
<g id="node2" class="node">
<title>supriya.soundfiles.Say</title>
<g id="a_node2"><a xlink:href="../api/supriya/soundfiles.html#supriya.soundfiles.Say" xlink:title="Say" target="_top">
<path fill="black" stroke="black" stroke-width="2" d="M316.67,-83.5C316.67,-83.5 295.33,-83.5 295.33,-83.5 292.17,-83.5 289,-80.33 289,-77.17 289,-77.17 289,-70.83 289,-70.83 289,-67.67 292.17,-64.5 295.33,-64.5 295.33,-64.5 316.67,-64.5 316.67,-64.5 319.83,-64.5 323,-67.67 323,-70.83 323,-70.83 323,-77.17 323,-77.17 323,-80.33 319.83,-83.5 316.67,-83.5"/>
<text text-anchor="middle" x="306" y="-71.5" font-family="Arial" font-size="10.00" fill="white">Say</text>
</a>
</g>
</g>
<!-- supriya.soundfiles.SoundFile -->
<g id="node3" class="node">
<title>supriya.soundfiles.SoundFile</title>
<g id="a_node3"><a xlink:href="../api/supriya/soundfiles.html#supriya.soundfiles.SoundFile" xlink:title="Sound\nFile" target="_top">
<path fill="black" stroke="black" stroke-width="2" d="M318,-46C318,-46 294,-46 294,-46 289,-46 284,-41 284,-36 284,-36 284,-26 284,-26 284,-21 289,-16 294,-16 294,-16 318,-16 318,-16 323,-16 328,-21 328,-26 328,-26 328,-36 328,-36 328,-41 323,-46 318,-46"/>
<text text-anchor="middle" x="306" y="-34" font-family="Arial" font-size="10.00" fill="white">Sound</text>
<text text-anchor="middle" x="306" y="-23" font-family="Arial" font-size="10.00" fill="white">File</text>
</a>
</g>
</g>
<!-- supriya.system.SupriyaObject -->
<g id="node4" class="node">
<title>supriya.system.SupriyaObject</title>
<g id="a_node4"><a xlink:href="../api/supriya/system.html#supriya.system.SupriyaObject" xlink:title="Supriya\nObject" target="_top">
<path fill="#ccebc5" stroke="#ccebc5" stroke-width="2" d="M135,-89C135,-89 105,-89 105,-89 100,-89 95,-84 95,-79 95,-79 95,-69 95,-69 95,-64 100,-59 105,-59 105,-59 135,-59 135,-59 140,-59 145,-64 145,-69 145,-69 145,-79 145,-79 145,-84 140,-89 135,-89"/>
<text text-anchor="middle" x="120" y="-77" font-family="Arial" font-size="10.00">Supriya</text>
<text text-anchor="middle" x="120" y="-66" font-family="Arial" font-size="10.00">Object</text>
</a>
</g>
</g>
<!-- supriya.system.SupriyaValueObject -->
<g id="node5" class="node">
<title>supriya.system.SupriyaValueObject</title>
<g id="a_node5"><a xlink:href="../api/supriya/system.html#supriya.system.SupriyaValueObject" xlink:title="Supriya\nValue\nObject" target="_top">
<path fill="#ccebc5" stroke="#ccebc5" stroke-width="2" d="M219,-97.5C219,-97.5 193,-97.5 193,-97.5 187,-97.5 181,-91.5 181,-85.5 181,-85.5 181,-68.5 181,-68.5 181,-62.5 187,-56.5 193,-56.5 193,-56.5 219,-56.5 219,-56.5 225,-56.5 231,-62.5 231,-68.5 231,-68.5 231,-85.5 231,-85.5 231,-91.5 225,-97.5 219,-97.5"/>
<text text-anchor="middle" x="206" y="-85.5" font-family="Arial" font-size="10.00">Supriya</text>
<text text-anchor="middle" x="206" y="-74.5" font-family="Arial" font-size="10.00">Value</text>
<text text-anchor="middle" x="206" y="-63.5" font-family="Arial" font-size="10.00">Object</text>
</a>
</g>
</g>
</g>
</svg>
