<?xml version="1.0" encoding="UTF-8" standalone="no"?>
<!DOCTYPE svg PUBLIC "-//W3C//DTD SVG 1.1//EN"
 "http://www.w3.org/Graphics/SVG/1.1/DTD/svg11.dtd">
<!-- Generated by graphviz version 2.44.1 (20200629.0846)
 -->
<!-- Title: InheritanceGraph Pages: 1 -->
<svg width="556pt" height="645pt"
 viewBox="0.00 0.00 556.00 645.00" xmlns="http://www.w3.org/2000/svg" xmlns:xlink="http://www.w3.org/1999/xlink">
<g id="graph0" class="graph" transform="scale(1 1) rotate(0) translate(4 641)">
<title>InheritanceGraph</title>
<g id="clust1" class="cluster">
<title>cluster_builtins</title>
<path fill="transparent" stroke="#bcd2ee" stroke-width="2" stroke-dasharray="5,2" d="M20,-297C20,-297 55,-297 55,-297 61,-297 67,-303 67,-309 67,-309 67,-340 67,-340 67,-346 61,-352 55,-352 55,-352 20,-352 20,-352 14,-352 8,-346 8,-340 8,-340 8,-309 8,-309 8,-303 14,-297 20,-297"/>
<text text-anchor="middle" x="37.5" y="-340" font-family="Arial" font-size="10.00">builtins</text>
</g>
<g id="clust2" class="cluster">
<title>cluster_supriya.commands</title>
<path fill="transparent" stroke="#bcd2ee" stroke-width="2" stroke-dasharray="5,2" d="M271,-8C271,-8 528,-8 528,-8 534,-8 540,-14 540,-20 540,-20 540,-617 540,-617 540,-623 534,-629 528,-629 528,-629 271,-629 271,-629 265,-629 259,-623 259,-617 259,-617 259,-20 259,-20 259,-14 265,-8 271,-8"/>
<text text-anchor="middle" x="399.5" y="-617" font-family="Arial" font-size="10.00">supriya.commands</text>
</g>
<g id="clust3" class="cluster">
<title>cluster_supriya.system</title>
<path fill="transparent" stroke="#bcd2ee" stroke-width="2" stroke-dasharray="5,2" d="M99,-286C99,-286 227,-286 227,-286 233,-286 239,-292 239,-298 239,-298 239,-351 239,-351 239,-357 233,-363 227,-363 227,-363 99,-363 99,-363 93,-363 87,-357 87,-351 87,-351 87,-298 87,-298 87,-292 93,-286 99,-286"/>
<text text-anchor="middle" x="163" y="-351" font-family="Arial" font-size="10.00">supriya.system</text>
</g>
<!-- builtins.object&#45;&gt;supriya.system.SupriyaObject -->
<g id="edge17" class="edge">
<title>builtins.object&#45;&gt;supriya.system.SupriyaObject</title>
<path fill="none" stroke="lightslategrey" d="M59.23,-315C66.98,-315 76,-315 84.66,-315"/>
<polygon fill="lightslategrey" stroke="lightslategrey" points="84.91,-318.5 94.91,-315 84.91,-311.5 84.91,-318.5"/>
</g>
<!-- supriya.commands.Response.Response&#45;&gt;supriya.commands.BufferInfoResponse.BufferInfoResponse -->
<g id="edge1" class="edge">
<title>supriya.commands.Response.Response&#45;&gt;supriya.commands.BufferInfoResponse.BufferInfoResponse</title>
<path fill="none" stroke="lightslategrey" d="M299.47,-305.12C303.18,-270.85 318.59,-154.73 364,-72 365.21,-69.79 366.59,-67.61 368.09,-65.48"/>
<polygon fill="lightslategrey" stroke="lightslategrey" points="370.86,-67.61 374.26,-57.58 365.34,-63.3 370.86,-67.61"/>
</g>
<!-- supriya.commands.Response.Response&#45;&gt;supriya.commands.BufferSetContiguousResponse.BufferSetContiguousResponse -->
<g id="edge2" class="edge">
<title>supriya.commands.Response.Response&#45;&gt;supriya.commands.BufferSetContiguousResponse.BufferSetContiguousResponse</title>
<path fill="none" stroke="lightslategrey" d="M299.83,-305.31C305.49,-265.69 328.85,-116.77 364,-88 389.18,-67.39 426.66,-65.97 455.59,-68.94"/>
<polygon fill="lightslategrey" stroke="lightslategrey" points="455.46,-72.45 465.82,-70.21 456.33,-65.5 455.46,-72.45"/>
</g>
<!-- supriya.commands.Response.Response&#45;&gt;supriya.commands.BufferSetResponse.BufferSetResponse -->
<g id="edge3" class="edge">
<title>supriya.commands.Response.Response&#45;&gt;supriya.commands.BufferSetResponse.BufferSetResponse</title>
<path fill="none" stroke="lightslategrey" d="M301.09,-305.24C308.31,-279.03 330.39,-205.44 364,-152 365.34,-149.87 366.82,-147.74 368.39,-145.65"/>
<polygon fill="lightslategrey" stroke="lightslategrey" points="371.13,-147.82 374.73,-137.85 365.7,-143.4 371.13,-147.82"/>
</g>
<!-- supriya.commands.Response.Response&#45;&gt;supriya.commands.ControlBusSetContiguousResponse.ControlBusSetContiguousResponse -->
<g id="edge4" class="edge">
<title>supriya.commands.Response.Response&#45;&gt;supriya.commands.ControlBusSetContiguousResponse.ControlBusSetContiguousResponse</title>
<path fill="none" stroke="lightslategrey" d="M299.46,-305.29C302.72,-278.07 316.01,-200.85 364,-167 390.4,-148.38 427.45,-146.98 455.91,-149.62"/>
<polygon fill="lightslategrey" stroke="lightslategrey" points="455.64,-153.11 465.97,-150.75 456.42,-146.15 455.64,-153.11"/>
</g>
<!-- supriya.commands.Response.Response&#45;&gt;supriya.commands.ControlBusSetResponse.ControlBusSetResponse -->
<g id="edge5" class="edge">
<title>supriya.commands.Response.Response&#45;&gt;supriya.commands.ControlBusSetResponse.ControlBusSetResponse</title>
<path fill="none" stroke="lightslategrey" d="M306.81,-305.37C319.89,-290.21 345.88,-260.08 366.45,-236.24"/>
<polygon fill="lightslategrey" stroke="lightslategrey" points="369.31,-238.29 373.19,-228.43 364.01,-233.72 369.31,-238.29"/>
</g>
<!-- supriya.commands.Response.Response&#45;&gt;supriya.commands.DoneResponse.DoneResponse -->
<g id="edge6" class="edge">
<title>supriya.commands.Response.Response&#45;&gt;supriya.commands.DoneResponse.DoneResponse</title>
<path fill="none" stroke="lightslategrey" d="M306.1,-305.06C317.16,-291.45 339.09,-267.52 364,-257 393.82,-244.4 430.69,-242.53 458.2,-243.45"/>
<polygon fill="lightslategrey" stroke="lightslategrey" points="458.1,-246.95 468.25,-243.92 458.43,-239.95 458.1,-246.95"/>
</g>
<!-- supriya.commands.Response.Response&#45;&gt;supriya.commands.FailResponse.FailResponse -->
<g id="edge7" class="edge">
<title>supriya.commands.Response.Response&#45;&gt;supriya.commands.FailResponse.FailResponse</title>
<path fill="none" stroke="lightslategrey" d="M325.92,-305.44C335.48,-302.1 346.4,-298.29 356.74,-294.69"/>
<polygon fill="lightslategrey" stroke="lightslategrey" points="358.11,-297.92 366.4,-291.32 355.8,-291.31 358.11,-297.92"/>
</g>
<!-- supriya.commands.Response.Response&#45;&gt;supriya.commands.NodeInfoResponse.NodeInfoResponse -->
<g id="edge8" class="edge">
<title>supriya.commands.Response.Response&#45;&gt;supriya.commands.NodeInfoResponse.NodeInfoResponse</title>
<path fill="none" stroke="lightslategrey" d="M328.37,-315C362.84,-315 419.7,-315 457.98,-315"/>
<polygon fill="lightslategrey" stroke="lightslategrey" points="458.25,-318.5 468.25,-315 458.25,-311.5 458.25,-318.5"/>
</g>
<!-- supriya.commands.Response.Response&#45;&gt;supriya.commands.NodeSetContiguousResponse.NodeSetContiguousResponse -->
<g id="edge9" class="edge">
<title>supriya.commands.Response.Response&#45;&gt;supriya.commands.NodeSetContiguousResponse.NodeSetContiguousResponse</title>
<path fill="none" stroke="lightslategrey" d="M319.18,-324.54C329.51,-329.31 342.4,-335.26 354.65,-340.91"/>
<polygon fill="lightslategrey" stroke="lightslategrey" points="353.29,-344.14 363.84,-345.16 356.23,-337.79 353.29,-344.14"/>
</g>
<!-- supriya.commands.Response.Response&#45;&gt;supriya.commands.NodeSetResponse.NodeSetResponse -->
<g id="edge10" class="edge">
<title>supriya.commands.Response.Response&#45;&gt;supriya.commands.NodeSetResponse.NodeSetResponse</title>
<path fill="none" stroke="lightslategrey" d="M303,-324.52C311.87,-342.05 333.42,-379.1 364,-395 393,-410.08 430.39,-411.65 458.3,-409.98"/>
<polygon fill="lightslategrey" stroke="lightslategrey" points="458.79,-413.45 468.5,-409.2 458.26,-406.47 458.79,-413.45"/>
</g>
<!-- supriya.commands.Response.Response&#45;&gt;supriya.commands.QueryTreeResponse.QueryTreeResponse -->
<g id="edge11" class="edge">
<title>supriya.commands.Response.Response&#45;&gt;supriya.commands.QueryTreeResponse.QueryTreeResponse</title>
<path fill="none" stroke="lightslategrey" d="M304.59,-324.75C315.7,-342.31 340.3,-380.22 364,-410 365.78,-412.23 367.66,-414.51 369.59,-416.76"/>
<polygon fill="lightslategrey" stroke="lightslategrey" points="367,-419.11 376.23,-424.31 372.25,-414.49 367,-419.11"/>
</g>
<!-- supriya.commands.Response.Response&#45;&gt;supriya.commands.StatusResponse.StatusResponse -->
<g id="edge12" class="edge">
<title>supriya.commands.Response.Response&#45;&gt;supriya.commands.StatusResponse.StatusResponse</title>
<path fill="none" stroke="lightslategrey" d="M299.11,-324.64C301.49,-353.22 312.76,-437.77 364,-475 390.89,-494.54 429.37,-495.43 458.2,-492.37"/>
<polygon fill="lightslategrey" stroke="lightslategrey" points="458.86,-495.81 468.34,-491.09 457.98,-488.87 458.86,-495.81"/>
</g>
<!-- supriya.commands.Response.Response&#45;&gt;supriya.commands.SyncedResponse.SyncedResponse -->
<g id="edge13" class="edge">
<title>supriya.commands.Response.Response&#45;&gt;supriya.commands.SyncedResponse.SyncedResponse</title>
<path fill="none" stroke="lightslategrey" d="M300.46,-324.86C306.36,-352.76 325.92,-433.9 364,-490 365.47,-492.17 367.14,-494.29 368.93,-496.33"/>
<polygon fill="lightslategrey" stroke="lightslategrey" points="366.7,-499.06 376.2,-503.76 371.71,-494.17 366.7,-499.06"/>
</g>
<!-- supriya.commands.Response.Response&#45;&gt;supriya.commands.SynthDefRemovedResponse.SynthDefRemovedResponse -->
<g id="edge14" class="edge">
<title>supriya.commands.Response.Response&#45;&gt;supriya.commands.SynthDefRemovedResponse.SynthDefRemovedResponse</title>
<path fill="none" stroke="lightslategrey" d="M299.82,-324.74C305.43,-364.56 328.61,-514.22 364,-543 390.07,-564.2 429.21,-564.71 458.47,-561.1"/>
<polygon fill="lightslategrey" stroke="lightslategrey" points="458.97,-564.57 468.37,-559.68 457.98,-557.64 458.97,-564.57"/>
</g>
<!-- supriya.commands.Response.Response&#45;&gt;supriya.commands.TriggerResponse.TriggerResponse -->
<g id="edge15" class="edge">
<title>supriya.commands.Response.Response&#45;&gt;supriya.commands.TriggerResponse.TriggerResponse</title>
<path fill="none" stroke="lightslategrey" d="M299.15,-324.57C301.86,-358.75 314.53,-477.11 364,-558 365.37,-560.24 366.96,-562.41 368.69,-564.48"/>
<polygon fill="lightslategrey" stroke="lightslategrey" points="366.42,-567.17 375.86,-571.98 371.48,-562.33 366.42,-567.17"/>
</g>
<!-- supriya.system.SupriyaObject&#45;&gt;supriya.system.SupriyaValueObject -->
<g id="edge16" class="edge">
<title>supriya.system.SupriyaObject&#45;&gt;supriya.system.SupriyaValueObject</title>
<path fill="none" stroke="lightslategrey" d="M145.3,-315C153.22,-315 162.17,-315 170.69,-315"/>
<polygon fill="lightslategrey" stroke="lightslategrey" points="170.76,-318.5 180.76,-315 170.76,-311.5 170.76,-318.5"/>
</g>
<!-- supriya.system.SupriyaValueObject&#45;&gt;supriya.commands.Response.Response -->
<g id="edge18" class="edge">
<title>supriya.system.SupriyaValueObject&#45;&gt;supriya.commands.Response.Response</title>
<path fill="none" stroke="lightslategrey" d="M231.46,-315C239.26,-315 248.1,-315 256.7,-315"/>
<polygon fill="lightslategrey" stroke="lightslategrey" points="256.98,-318.5 266.98,-315 256.98,-311.5 256.98,-318.5"/>
</g>
<!-- builtins.object -->
<g id="node1" class="node">
<title>builtins.object</title>
<g id="a_node1"><a xlink:href="https://docs.python.org/3/library/functions.html#object" xlink:title="object" target="_top">
<path fill="#fbb4ae" stroke="#fbb4ae" stroke-width="2" d="M52.67,-324.5C52.67,-324.5 22.33,-324.5 22.33,-324.5 19.17,-324.5 16,-321.33 16,-318.17 16,-318.17 16,-311.83 16,-311.83 16,-308.67 19.17,-305.5 22.33,-305.5 22.33,-305.5 52.67,-305.5 52.67,-305.5 55.83,-305.5 59,-308.67 59,-311.83 59,-311.83 59,-318.17 59,-318.17 59,-321.33 55.83,-324.5 52.67,-324.5"/>
<text text-anchor="middle" x="37.5" y="-312.5" font-family="Arial" font-size="10.00">object</text>
</a>
</g>
</g>
<!-- supriya.commands.BufferInfoResponse.BufferInfoResponse -->
<g id="node2" class="node">
<title>supriya.commands.BufferInfoResponse.BufferInfoResponse</title>
<g id="a_node2"><a xlink:href="../api/supriya/commands/BufferInfoResponse.html#supriya.commands.BufferInfoResponse.BufferInfoResponse" xlink:title="Buffer\nInfo\nResponse" target="_top">
<path fill="#b3cde3" stroke="#b3cde3" stroke-width="2" d="M415.5,-57.5C415.5,-57.5 378.5,-57.5 378.5,-57.5 372.5,-57.5 366.5,-51.5 366.5,-45.5 366.5,-45.5 366.5,-28.5 366.5,-28.5 366.5,-22.5 372.5,-16.5 378.5,-16.5 378.5,-16.5 415.5,-16.5 415.5,-16.5 421.5,-16.5 427.5,-22.5 427.5,-28.5 427.5,-28.5 427.5,-45.5 427.5,-45.5 427.5,-51.5 421.5,-57.5 415.5,-57.5"/>
<text text-anchor="middle" x="397" y="-45.5" font-family="Arial" font-size="10.00">Buffer</text>
<text text-anchor="middle" x="397" y="-34.5" font-family="Arial" font-size="10.00">Info</text>
<text text-anchor="middle" x="397" y="-23.5" font-family="Arial" font-size="10.00">Response</text>
</a>
</g>
</g>
<!-- supriya.commands.BufferSetContiguousResponse.BufferSetContiguousResponse -->
<g id="node3" class="node">
<title>supriya.commands.BufferSetContiguousResponse.BufferSetContiguousResponse</title>
<g id="a_node3"><a xlink:href="../api/supriya/commands/BufferSetContiguousResponse.html#supriya.commands.BufferSetContiguousResponse.BufferSetContiguousResponse" xlink:title="Buffer\nSet\nContiguous\nResponse" target="_top">
<path fill="#b3cde3" stroke="#b3cde3" stroke-width="2" d="M520,-103C520,-103 478,-103 478,-103 472,-103 466,-97 466,-91 466,-91 466,-63 466,-63 466,-57 472,-51 478,-51 478,-51 520,-51 520,-51 526,-51 532,-57 532,-63 532,-63 532,-91 532,-91 532,-97 526,-103 520,-103"/>
<text text-anchor="middle" x="499" y="-91" font-family="Arial" font-size="10.00">Buffer</text>
<text text-anchor="middle" x="499" y="-80" font-family="Arial" font-size="10.00">Set</text>
<text text-anchor="middle" x="499" y="-69" font-family="Arial" font-size="10.00">Contiguous</text>
<text text-anchor="middle" x="499" y="-58" font-family="Arial" font-size="10.00">Response</text>
</a>
</g>
</g>
<!-- supriya.commands.BufferSetResponse.BufferSetResponse -->
<g id="node4" class="node">
<title>supriya.commands.BufferSetResponse.BufferSetResponse</title>
<g id="a_node4"><a xlink:href="../api/supriya/commands/BufferSetResponse.html#supriya.commands.BufferSetResponse.BufferSetResponse" xlink:title="Buffer\nSet\nResponse" target="_top">
<path fill="#b3cde3" stroke="#b3cde3" stroke-width="2" d="M415.5,-137.5C415.5,-137.5 378.5,-137.5 378.5,-137.5 372.5,-137.5 366.5,-131.5 366.5,-125.5 366.5,-125.5 366.5,-108.5 366.5,-108.5 366.5,-102.5 372.5,-96.5 378.5,-96.5 378.5,-96.5 415.5,-96.5 415.5,-96.5 421.5,-96.5 427.5,-102.5 427.5,-108.5 427.5,-108.5 427.5,-125.5 427.5,-125.5 427.5,-131.5 421.5,-137.5 415.5,-137.5"/>
<text text-anchor="middle" x="397" y="-125.5" font-family="Arial" font-size="10.00">Buffer</text>
<text text-anchor="middle" x="397" y="-114.5" font-family="Arial" font-size="10.00">Set</text>
<text text-anchor="middle" x="397" y="-103.5" font-family="Arial" font-size="10.00">Response</text>
</a>
</g>
</g>
<!-- supriya.commands.ControlBusSetContiguousResponse.ControlBusSetContiguousResponse -->
<g id="node5" class="node">
<title>supriya.commands.ControlBusSetContiguousResponse.ControlBusSetContiguousResponse</title>
<g id="a_node5"><a xlink:href="../api/supriya/commands/ControlBusSetContiguousResponse.html#supriya.commands.ControlBusSetContiguousResponse.ControlBusSetContiguousResponse" xlink:title="Control\nBus\nSet\nContiguous\nResponse" target="_top">
<path fill="#b3cde3" stroke="#b3cde3" stroke-width="2" d="M520,-188.5C520,-188.5 478,-188.5 478,-188.5 472,-188.5 466,-182.5 466,-176.5 466,-176.5 466,-137.5 466,-137.5 466,-131.5 472,-125.5 478,-125.5 478,-125.5 520,-125.5 520,-125.5 526,-125.5 532,-131.5 532,-137.5 532,-137.5 532,-176.5 532,-176.5 532,-182.5 526,-188.5 520,-188.5"/>
<text text-anchor="middle" x="499" y="-176.5" font-family="Arial" font-size="10.00">Control</text>
<text text-anchor="middle" x="499" y="-165.5" font-family="Arial" font-size="10.00">Bus</text>
<text text-anchor="middle" x="499" y="-154.5" font-family="Arial" font-size="10.00">Set</text>
<text text-anchor="middle" x="499" y="-143.5" font-family="Arial" font-size="10.00">Contiguous</text>
<text text-anchor="middle" x="499" y="-132.5" font-family="Arial" font-size="10.00">Response</text>
</a>
</g>
</g>
<!-- supriya.commands.ControlBusSetResponse.ControlBusSetResponse -->
<g id="node6" class="node">
<title>supriya.commands.ControlBusSetResponse.ControlBusSetResponse</title>
<g id="a_node6"><a xlink:href="../api/supriya/commands/ControlBusSetResponse.html#supriya.commands.ControlBusSetResponse.ControlBusSetResponse" xlink:title="Control\nBus\nSet\nResponse" target="_top">
<path fill="#b3cde3" stroke="#b3cde3" stroke-width="2" d="M415.5,-228C415.5,-228 378.5,-228 378.5,-228 372.5,-228 366.5,-222 366.5,-216 366.5,-216 366.5,-188 366.5,-188 366.5,-182 372.5,-176 378.5,-176 378.5,-176 415.5,-176 415.5,-176 421.5,-176 427.5,-182 427.5,-188 427.5,-188 427.5,-216 427.5,-216 427.5,-222 421.5,-228 415.5,-228"/>
<text text-anchor="middle" x="397" y="-216" font-family="Arial" font-size="10.00">Control</text>
<text text-anchor="middle" x="397" y="-205" font-family="Arial" font-size="10.00">Bus</text>
<text text-anchor="middle" x="397" y="-194" font-family="Arial" font-size="10.00">Set</text>
<text text-anchor="middle" x="397" y="-183" font-family="Arial" font-size="10.00">Response</text>
</a>
</g>
</g>
<!-- supriya.commands.DoneResponse.DoneResponse -->
<g id="node7" class="node">
<title>supriya.commands.DoneResponse.DoneResponse</title>
<g id="a_node7"><a xlink:href="../api/supriya/commands/DoneResponse.html#supriya.commands.DoneResponse.DoneResponse" xlink:title="Done\nResponse" target="_top">
<path fill="#b3cde3" stroke="#b3cde3" stroke-width="2" d="M519.5,-262C519.5,-262 478.5,-262 478.5,-262 473.5,-262 468.5,-257 468.5,-252 468.5,-252 468.5,-242 468.5,-242 468.5,-237 473.5,-232 478.5,-232 478.5,-232 519.5,-232 519.5,-232 524.5,-232 529.5,-237 529.5,-242 529.5,-242 529.5,-252 529.5,-252 529.5,-257 524.5,-262 519.5,-262"/>
<text text-anchor="middle" x="499" y="-250" font-family="Arial" font-size="10.00">Done</text>
<text text-anchor="middle" x="499" y="-239" font-family="Arial" font-size="10.00">Response</text>
</a>
</g>
</g>
<!-- supriya.commands.FailResponse.FailResponse -->
<g id="node8" class="node">
<title>supriya.commands.FailResponse.FailResponse</title>
<g id="a_node8"><a xlink:href="../api/supriya/commands/FailResponse.html#supriya.commands.FailResponse.FailResponse" xlink:title="Fail\nResponse" target="_top">
<path fill="#b3cde3" stroke="#b3cde3" stroke-width="2" d="M417.5,-296C417.5,-296 376.5,-296 376.5,-296 371.5,-296 366.5,-291 366.5,-286 366.5,-286 366.5,-276 366.5,-276 366.5,-271 371.5,-266 376.5,-266 376.5,-266 417.5,-266 417.5,-266 422.5,-266 427.5,-271 427.5,-276 427.5,-276 427.5,-286 427.5,-286 427.5,-291 422.5,-296 417.5,-296"/>
<text text-anchor="middle" x="397" y="-284" font-family="Arial" font-size="10.00">Fail</text>
<text text-anchor="middle" x="397" y="-273" font-family="Arial" font-size="10.00">Response</text>
</a>
</g>
</g>
<!-- supriya.commands.NodeInfoResponse.NodeInfoResponse -->
<g id="node9" class="node">
<title>supriya.commands.NodeInfoResponse.NodeInfoResponse</title>
<g id="a_node9"><a xlink:href="../api/supriya/commands/NodeInfoResponse.html#supriya.commands.NodeInfoResponse.NodeInfoResponse" xlink:title="Node\nInfo\nResponse" target="_top">
<path fill="#b3cde3" stroke="#b3cde3" stroke-width="2" d="M517.5,-335.5C517.5,-335.5 480.5,-335.5 480.5,-335.5 474.5,-335.5 468.5,-329.5 468.5,-323.5 468.5,-323.5 468.5,-306.5 468.5,-306.5 468.5,-300.5 474.5,-294.5 480.5,-294.5 480.5,-294.5 517.5,-294.5 517.5,-294.5 523.5,-294.5 529.5,-300.5 529.5,-306.5 529.5,-306.5 529.5,-323.5 529.5,-323.5 529.5,-329.5 523.5,-335.5 517.5,-335.5"/>
<text text-anchor="middle" x="499" y="-323.5" font-family="Arial" font-size="10.00">Node</text>
<text text-anchor="middle" x="499" y="-312.5" font-family="Arial" font-size="10.00">Info</text>
<text text-anchor="middle" x="499" y="-301.5" font-family="Arial" font-size="10.00">Response</text>
</a>
</g>
</g>
<!-- supriya.commands.NodeSetContiguousResponse.NodeSetContiguousResponse -->
<g id="node10" class="node">
<title>supriya.commands.NodeSetContiguousResponse.NodeSetContiguousResponse</title>
<g id="a_node10"><a xlink:href="../api/supriya/commands/NodeSetContiguousResponse.html#supriya.commands.NodeSetContiguousResponse.NodeSetContiguousResponse" xlink:title="Node\nSet\nContiguous\nResponse" target="_top">
<path fill="#b3cde3" stroke="#b3cde3" stroke-width="2" d="M418,-386C418,-386 376,-386 376,-386 370,-386 364,-380 364,-374 364,-374 364,-346 364,-346 364,-340 370,-334 376,-334 376,-334 418,-334 418,-334 424,-334 430,-340 430,-346 430,-346 430,-374 430,-374 430,-380 424,-386 418,-386"/>
<text text-anchor="middle" x="397" y="-374" font-family="Arial" font-size="10.00">Node</text>
<text text-anchor="middle" x="397" y="-363" font-family="Arial" font-size="10.00">Set</text>
<text text-anchor="middle" x="397" y="-352" font-family="Arial" font-size="10.00">Contiguous</text>
<text text-anchor="middle" x="397" y="-341" font-family="Arial" font-size="10.00">Response</text>
</a>
</g>
</g>
<!-- supriya.commands.NodeSetResponse.NodeSetResponse -->
<g id="node11" class="node">
<title>supriya.commands.NodeSetResponse.NodeSetResponse</title>
<g id="a_node11"><a xlink:href="../api/supriya/commands/NodeSetResponse.html#supriya.commands.NodeSetResponse.NodeSetResponse" xlink:title="Node\nSet\nResponse" target="_top">
<path fill="#b3cde3" stroke="#b3cde3" stroke-width="2" d="M517.5,-425.5C517.5,-425.5 480.5,-425.5 480.5,-425.5 474.5,-425.5 468.5,-419.5 468.5,-413.5 468.5,-413.5 468.5,-396.5 468.5,-396.5 468.5,-390.5 474.5,-384.5 480.5,-384.5 480.5,-384.5 517.5,-384.5 517.5,-384.5 523.5,-384.5 529.5,-390.5 529.5,-396.5 529.5,-396.5 529.5,-413.5 529.5,-413.5 529.5,-419.5 523.5,-425.5 517.5,-425.5"/>
<text text-anchor="middle" x="499" y="-413.5" font-family="Arial" font-size="10.00">Node</text>
<text text-anchor="middle" x="499" y="-402.5" font-family="Arial" font-size="10.00">Set</text>
<text text-anchor="middle" x="499" y="-391.5" font-family="Arial" font-size="10.00">Response</text>
</a>
</g>
</g>
<!-- supriya.commands.QueryTreeResponse.QueryTreeResponse -->
<g id="node12" class="node">
<title>supriya.commands.QueryTreeResponse.QueryTreeResponse</title>
<g id="a_node12"><a xlink:href="../api/supriya/commands/QueryTreeResponse.html#supriya.commands.QueryTreeResponse.QueryTreeResponse" xlink:title="Query\nTree\nResponse" target="_top">
<path fill="#b3cde3" stroke="#b3cde3" stroke-width="2" d="M415.5,-465.5C415.5,-465.5 378.5,-465.5 378.5,-465.5 372.5,-465.5 366.5,-459.5 366.5,-453.5 366.5,-453.5 366.5,-436.5 366.5,-436.5 366.5,-430.5 372.5,-424.5 378.5,-424.5 378.5,-424.5 415.5,-424.5 415.5,-424.5 421.5,-424.5 427.5,-430.5 427.5,-436.5 427.5,-436.5 427.5,-453.5 427.5,-453.5 427.5,-459.5 421.5,-465.5 415.5,-465.5"/>
<text text-anchor="middle" x="397" y="-453.5" font-family="Arial" font-size="10.00">Query</text>
<text text-anchor="middle" x="397" y="-442.5" font-family="Arial" font-size="10.00">Tree</text>
<text text-anchor="middle" x="397" y="-431.5" font-family="Arial" font-size="10.00">Response</text>
</a>
</g>
</g>
<!-- supriya.commands.Response.Response -->
<g id="node13" class="node">
<title>supriya.commands.Response.Response</title>
<g id="a_node13"><a xlink:href="../api/supriya/commands/Response.html#supriya.commands.Response.Response" xlink:title="Response" target="_top">
<path fill="black" stroke="black" stroke-width="2" d="M321.67,-324.5C321.67,-324.5 273.33,-324.5 273.33,-324.5 270.17,-324.5 267,-321.33 267,-318.17 267,-318.17 267,-311.83 267,-311.83 267,-308.67 270.17,-305.5 273.33,-305.5 273.33,-305.5 321.67,-305.5 321.67,-305.5 324.83,-305.5 328,-308.67 328,-311.83 328,-311.83 328,-318.17 328,-318.17 328,-321.33 324.83,-324.5 321.67,-324.5"/>
<text text-anchor="middle" x="297.5" y="-312.5" font-family="Arial" font-size="10.00" fill="white">Response</text>
</a>
</g>
</g>
<!-- supriya.commands.StatusResponse.StatusResponse -->
<g id="node14" class="node">
<title>supriya.commands.StatusResponse.StatusResponse</title>
<g id="a_node14"><a xlink:href="../api/supriya/commands/StatusResponse.html#supriya.commands.StatusResponse.StatusResponse" xlink:title="Status\nResponse" target="_top">
<path fill="#b3cde3" stroke="#b3cde3" stroke-width="2" d="M519.5,-500C519.5,-500 478.5,-500 478.5,-500 473.5,-500 468.5,-495 468.5,-490 468.5,-490 468.5,-480 468.5,-480 468.5,-475 473.5,-470 478.5,-470 478.5,-470 519.5,-470 519.5,-470 524.5,-470 529.5,-475 529.5,-480 529.5,-480 529.5,-490 529.5,-490 529.5,-495 524.5,-500 519.5,-500"/>
<text text-anchor="middle" x="499" y="-488" font-family="Arial" font-size="10.00">Status</text>
<text text-anchor="middle" x="499" y="-477" font-family="Arial" font-size="10.00">Response</text>
</a>
</g>
</g>
<!-- supriya.commands.SyncedResponse.SyncedResponse -->
<g id="node15" class="node">
<title>supriya.commands.SyncedResponse.SyncedResponse</title>
<g id="a_node15"><a xlink:href="../api/supriya/commands/SyncedResponse.html#supriya.commands.SyncedResponse.SyncedResponse" xlink:title="Synced\nResponse" target="_top">
<path fill="#b3cde3" stroke="#b3cde3" stroke-width="2" d="M417.5,-534C417.5,-534 376.5,-534 376.5,-534 371.5,-534 366.5,-529 366.5,-524 366.5,-524 366.5,-514 366.5,-514 366.5,-509 371.5,-504 376.5,-504 376.5,-504 417.5,-504 417.5,-504 422.5,-504 427.5,-509 427.5,-514 427.5,-514 427.5,-524 427.5,-524 427.5,-529 422.5,-534 417.5,-534"/>
<text text-anchor="middle" x="397" y="-522" font-family="Arial" font-size="10.00">Synced</text>
<text text-anchor="middle" x="397" y="-511" font-family="Arial" font-size="10.00">Response</text>
</a>
</g>
</g>
<!-- supriya.commands.SynthDefRemovedResponse.SynthDefRemovedResponse -->
<g id="node16" class="node">
<title>supriya.commands.SynthDefRemovedResponse.SynthDefRemovedResponse</title>
<g id="a_node16"><a xlink:href="../api/supriya/commands/SynthDefRemovedResponse.html#supriya.commands.SynthDefRemovedResponse.SynthDefRemovedResponse" xlink:title="Synth\nDef\nRemoved\nResponse" target="_top">
<path fill="#b3cde3" stroke="#b3cde3" stroke-width="2" d="M517.5,-579C517.5,-579 480.5,-579 480.5,-579 474.5,-579 468.5,-573 468.5,-567 468.5,-567 468.5,-539 468.5,-539 468.5,-533 474.5,-527 480.5,-527 480.5,-527 517.5,-527 517.5,-527 523.5,-527 529.5,-533 529.5,-539 529.5,-539 529.5,-567 529.5,-567 529.5,-573 523.5,-579 517.5,-579"/>
<text text-anchor="middle" x="499" y="-567" font-family="Arial" font-size="10.00">Synth</text>
<text text-anchor="middle" x="499" y="-556" font-family="Arial" font-size="10.00">Def</text>
<text text-anchor="middle" x="499" y="-545" font-family="Arial" font-size="10.00">Removed</text>
<text text-anchor="middle" x="499" y="-534" font-family="Arial" font-size="10.00">Response</text>
</a>
</g>
</g>
<!-- supriya.commands.TriggerResponse.TriggerResponse -->
<g id="node17" class="node">
<title>supriya.commands.TriggerResponse.TriggerResponse</title>
<g id="a_node17"><a xlink:href="../api/supriya/commands/TriggerResponse.html#supriya.commands.TriggerResponse.TriggerResponse" xlink:title="Trigger\nResponse" target="_top">
<path fill="#b3cde3" stroke="#b3cde3" stroke-width="2" d="M417.5,-602C417.5,-602 376.5,-602 376.5,-602 371.5,-602 366.5,-597 366.5,-592 366.5,-592 366.5,-582 366.5,-582 366.5,-577 371.5,-572 376.5,-572 376.5,-572 417.5,-572 417.5,-572 422.5,-572 427.5,-577 427.5,-582 427.5,-582 427.5,-592 427.5,-592 427.5,-597 422.5,-602 417.5,-602"/>
<text text-anchor="middle" x="397" y="-590" font-family="Arial" font-size="10.00">Trigger</text>
<text text-anchor="middle" x="397" y="-579" font-family="Arial" font-size="10.00">Response</text>
</a>
</g>
</g>
<!-- supriya.system.SupriyaObject -->
<g id="node18" class="node">
<title>supriya.system.SupriyaObject</title>
<g id="a_node18"><a xlink:href="../api/supriya/commands/../system.html#supriya.system.SupriyaObject" xlink:title="Supriya\nObject" target="_top">
<path fill="#ccebc5" stroke="#ccebc5" stroke-width="2" d="M135,-330C135,-330 105,-330 105,-330 100,-330 95,-325 95,-320 95,-320 95,-310 95,-310 95,-305 100,-300 105,-300 105,-300 135,-300 135,-300 140,-300 145,-305 145,-310 145,-310 145,-320 145,-320 145,-325 140,-330 135,-330"/>
<text text-anchor="middle" x="120" y="-318" font-family="Arial" font-size="10.00">Supriya</text>
<text text-anchor="middle" x="120" y="-307" font-family="Arial" font-size="10.00">Object</text>
</a>
</g>
</g>
<!-- supriya.system.SupriyaValueObject -->
<g id="node19" class="node">
<title>supriya.system.SupriyaValueObject</title>
<g id="a_node19"><a xlink:href="../api/supriya/commands/../system.html#supriya.system.SupriyaValueObject" xlink:title="Supriya\nValue\nObject" target="_top">
<path fill="#ccebc5" stroke="#ccebc5" stroke-width="2" d="M219,-335.5C219,-335.5 193,-335.5 193,-335.5 187,-335.5 181,-329.5 181,-323.5 181,-323.5 181,-306.5 181,-306.5 181,-300.5 187,-294.5 193,-294.5 193,-294.5 219,-294.5 219,-294.5 225,-294.5 231,-300.5 231,-306.5 231,-306.5 231,-323.5 231,-323.5 231,-329.5 225,-335.5 219,-335.5"/>
<text text-anchor="middle" x="206" y="-323.5" font-family="Arial" font-size="10.00">Supriya</text>
<text text-anchor="middle" x="206" y="-312.5" font-family="Arial" font-size="10.00">Value</text>
<text text-anchor="middle" x="206" y="-301.5" font-family="Arial" font-size="10.00">Object</text>
</a>
</g>
</g>
</g>
</svg>
