<?xml version="1.0" encoding="UTF-8" standalone="no"?>
<!DOCTYPE svg PUBLIC "-//W3C//DTD SVG 1.1//EN"
 "http://www.w3.org/Graphics/SVG/1.1/DTD/svg11.dtd">
<!-- Generated by graphviz version 2.40.1 (20161225.0304)
 -->
<!-- Title: InheritanceGraph Pages: 1 -->
<svg width="484pt" height="257pt"
 viewBox="0.00 0.00 484.24 257.00" xmlns="http://www.w3.org/2000/svg" xmlns:xlink="http://www.w3.org/1999/xlink">
<g id="graph0" class="graph" transform="scale(1 1) rotate(0) translate(4 253)">
<title>InheritanceGraph</title>
<g id="clust1" class="cluster">
<title>cluster_builtins</title>
<path fill="transparent" stroke="#bcd2ee" stroke-width="2" stroke-dasharray="5,2" d="M20,-94C20,-94 49,-94 49,-94 55,-94 61,-100 61,-106 61,-106 61,-137 61,-137 61,-143 55,-149 49,-149 49,-149 20,-149 20,-149 14,-149 8,-143 8,-137 8,-137 8,-106 8,-106 8,-100 14,-94 20,-94"/>
<text text-anchor="middle" x="34.5" y="-137" font-family="Arial" font-size="10.00" fill="#000000">builtins</text>
</g>
<g id="clust2" class="cluster">
<title>cluster_supriya.realtime</title>
<path fill="transparent" stroke="#bcd2ee" stroke-width="2" stroke-dasharray="5,2" d="M180,-8C180,-8 456.2376,-8 456.2376,-8 462.2376,-8 468.2376,-14 468.2376,-20 468.2376,-20 468.2376,-229 468.2376,-229 468.2376,-235 462.2376,-241 456.2376,-241 456.2376,-241 180,-241 180,-241 174,-241 168,-235 168,-229 168,-229 168,-20 168,-20 168,-14 174,-8 180,-8"/>
<text text-anchor="middle" x="318.1188" y="-229" font-family="Arial" font-size="10.00" fill="#000000">supriya.realtime</text>
</g>
<g id="clust3" class="cluster">
<title>cluster_supriya.system</title>
<path fill="transparent" stroke="#bcd2ee" stroke-width="2" stroke-dasharray="5,2" d="M93,-89C93,-89 136,-89 136,-89 142,-89 148,-95 148,-101 148,-101 148,-142 148,-142 148,-148 142,-154 136,-154 136,-154 93,-154 93,-154 87,-154 81,-148 81,-142 81,-142 81,-101 81,-101 81,-95 87,-89 93,-89"/>
<text text-anchor="middle" x="114.5" y="-142" font-family="Arial" font-size="10.00" fill="#000000">supriya.system</text>
</g>
<!-- builtins.object&#45;&gt;supriya.system.SupriyaObject.SupriyaObject -->
<g id="edge11" class="edge">
<title>builtins.object&#45;&gt;supriya.system.SupriyaObject.SupriyaObject</title>
<path fill="none" stroke="#778899" d="M53.3404,-112C62.0401,-112 72.6079,-112 82.4698,-112"/>
<polygon fill="#778899" stroke="#778899" points="82.7722,-115.5001 92.7722,-112 82.7721,-108.5001 82.7722,-115.5001"/>
</g>
<!-- supriya.realtime.BusGroup.BusGroup&#45;&gt;supriya.realtime.AudioInputBusGroup.AudioInputBusGroup -->
<g id="edge1" class="edge">
<title>supriya.realtime.BusGroup.BusGroup&#45;&gt;supriya.realtime.AudioInputBusGroup.AudioInputBusGroup</title>
<path fill="none" stroke="#778899" d="M307.2507,-139.9871C310.0314,-137.108 312.8068,-134.0402 315.2376,-131 328.4666,-114.4546 341.2229,-94.5994 351.163,-77.9396"/>
<polygon fill="#778899" stroke="#778899" points="354.3351,-79.4497 356.3808,-69.0542 348.2989,-75.9051 354.3351,-79.4497"/>
</g>
<!-- supriya.realtime.BusGroup.BusGroup&#45;&gt;supriya.realtime.AudioOutputBusGroup.AudioOutputBusGroup -->
<g id="edge2" class="edge">
<title>supriya.realtime.BusGroup.BusGroup&#45;&gt;supriya.realtime.AudioOutputBusGroup.AudioOutputBusGroup</title>
<path fill="none" stroke="#778899" d="M310.0462,-145.0466C319.6399,-139.9809 331.504,-133.7163 342.1906,-128.0735"/>
<polygon fill="#778899" stroke="#778899" points="343.9833,-131.085 351.192,-123.3206 340.7148,-124.8949 343.9833,-131.085"/>
</g>
<!-- supriya.realtime.Group.Group&#45;&gt;supriya.realtime.RootNode.RootNode -->
<g id="edge3" class="edge">
<title>supriya.realtime.Group.Group&#45;&gt;supriya.realtime.RootNode.RootNode</title>
<path fill="none" stroke="#778899" d="M389.4081,-167C397.402,-167 406.9007,-167 415.6773,-167"/>
<polygon fill="#778899" stroke="#778899" points="415.8749,-170.5001 425.8749,-167 415.8749,-163.5001 415.8749,-170.5001"/>
</g>
<!-- supriya.realtime.Node.Node&#45;&gt;supriya.realtime.Group.Group -->
<g id="edge4" class="edge">
<title>supriya.realtime.Node.Node&#45;&gt;supriya.realtime.Group.Group</title>
<path fill="none" stroke="#778899" d="M310.4508,-192.7695C320.1664,-188.6166 332.1315,-183.5021 342.8343,-178.9272"/>
<polygon fill="#778899" stroke="#778899" points="344.3883,-182.0694 352.2078,-174.9205 341.6369,-175.6328 344.3883,-182.0694"/>
</g>
<!-- supriya.realtime.Node.Node&#45;&gt;supriya.realtime.Synth.Synth -->
<g id="edge5" class="edge">
<title>supriya.realtime.Node.Node&#45;&gt;supriya.realtime.Synth.Synth</title>
<path fill="none" stroke="#778899" d="M315.4933,-201.9164C324.0032,-202.2374 333.6329,-202.6006 342.4414,-202.9328"/>
<polygon fill="#778899" stroke="#778899" points="342.5231,-206.4383 352.648,-203.3177 342.787,-199.4432 342.5231,-206.4383"/>
</g>
<!-- supriya.realtime.ServerObject.ServerObject&#45;&gt;supriya.realtime.Buffer.Buffer -->
<g id="edge6" class="edge">
<title>supriya.realtime.ServerObject.ServerObject&#45;&gt;supriya.realtime.Buffer.Buffer</title>
<path fill="none" stroke="#778899" d="M219.1302,-94.2656C231.6206,-80.3614 249.8687,-60.7896 267.1543,-45 268.1265,-44.112 269.1354,-43.2181 270.1648,-42.3277"/>
<polygon fill="#778899" stroke="#778899" points="272.6888,-44.7837 278.1897,-35.7288 268.2427,-39.3769 272.6888,-44.7837"/>
</g>
<!-- supriya.realtime.ServerObject.ServerObject&#45;&gt;supriya.realtime.BufferGroup.BufferGroup -->
<g id="edge7" class="edge">
<title>supriya.realtime.ServerObject.ServerObject&#45;&gt;supriya.realtime.BufferGroup.BufferGroup</title>
<path fill="none" stroke="#778899" d="M227.0574,-100.4768C238.2252,-94.996 251.6577,-88.4039 263.3381,-82.6716"/>
<polygon fill="#778899" stroke="#778899" points="265.2142,-85.6497 272.6494,-78.1019 262.1302,-79.3656 265.2142,-85.6497"/>
</g>
<!-- supriya.realtime.ServerObject.ServerObject&#45;&gt;supriya.realtime.Bus.Bus -->
<g id="edge8" class="edge">
<title>supriya.realtime.ServerObject.ServerObject&#45;&gt;supriya.realtime.Bus.Bus</title>
<path fill="none" stroke="#778899" d="M231.3003,-112C242.5809,-112 255.5139,-112 266.4685,-112"/>
<polygon fill="#778899" stroke="#778899" points="266.6292,-115.5001 276.6291,-112 266.6291,-108.5001 266.6292,-115.5001"/>
</g>
<!-- supriya.realtime.ServerObject.ServerObject&#45;&gt;supriya.realtime.BusGroup.BusGroup -->
<g id="edge9" class="edge">
<title>supriya.realtime.ServerObject.ServerObject&#45;&gt;supriya.realtime.BusGroup.BusGroup</title>
<path fill="none" stroke="#778899" d="M227.0574,-123.5232C238.2252,-129.004 251.6577,-135.5961 263.3381,-141.3284"/>
<polygon fill="#778899" stroke="#778899" points="262.1302,-144.6344 272.6494,-145.8981 265.2142,-138.3503 262.1302,-144.6344"/>
</g>
<!-- supriya.realtime.ServerObject.ServerObject&#45;&gt;supriya.realtime.Node.Node -->
<g id="edge10" class="edge">
<title>supriya.realtime.ServerObject.ServerObject&#45;&gt;supriya.realtime.Node.Node</title>
<path fill="none" stroke="#778899" d="M219.4525,-129.3941C232.1207,-143.1107 250.4506,-162.596 267.1543,-179 268.3754,-180.1992 269.6436,-181.4221 270.9307,-182.6465"/>
<polygon fill="#778899" stroke="#778899" points="268.609,-185.267 278.3133,-189.5187 273.3785,-180.1433 268.609,-185.267"/>
</g>
<!-- supriya.system.SupriyaObject.SupriyaObject&#45;&gt;supriya.realtime.ServerObject.ServerObject -->
<g id="edge12" class="edge">
<title>supriya.system.SupriyaObject.SupriyaObject&#45;&gt;supriya.realtime.ServerObject.ServerObject</title>
<path fill="none" stroke="#778899" d="M135.2285,-112C144.3083,-112 155.194,-112 165.5808,-112"/>
<polygon fill="#778899" stroke="#778899" points="165.7159,-115.5001 175.7158,-112 165.7158,-108.5001 165.7159,-115.5001"/>
</g>
<!-- builtins.object -->
<g id="node1" class="node">
<title>builtins.object</title>
<g id="a_node1"><a xlink:href="https://docs.python.org/3.6/library/functions.html#object" xlink:title="object" target="_top">
<path fill="#fbb4ae" stroke="#fbb4ae" stroke-width="2" d="M46.6667,-121.5C46.6667,-121.5 22.3333,-121.5 22.3333,-121.5 19.1667,-121.5 16,-118.3333 16,-115.1667 16,-115.1667 16,-108.8333 16,-108.8333 16,-105.6667 19.1667,-102.5 22.3333,-102.5 22.3333,-102.5 46.6667,-102.5 46.6667,-102.5 49.8333,-102.5 53,-105.6667 53,-108.8333 53,-108.8333 53,-115.1667 53,-115.1667 53,-118.3333 49.8333,-121.5 46.6667,-121.5"/>
<text text-anchor="middle" x="34.5" y="-109.5" font-family="Arial" font-size="10.00" fill="#000000">object</text>
</a>
</g>
</g>
<!-- supriya.realtime.AudioInputBusGroup.AudioInputBusGroup -->
<g id="node2" class="node">
<title>supriya.realtime.AudioInputBusGroup.AudioInputBusGroup</title>
<g id="a_node2"><a xlink:href="../api/supriya/realtime/AudioInputBusGroup.html#supriya.realtime.AudioInputBusGroup.AudioInputBusGroup" xlink:title="Audio\nInput\nBus\nGroup" target="_top">
<path fill="#b3cde3" stroke="#b3cde3" stroke-width="2" d="M377.2376,-69C377.2376,-69 364.2376,-69 364.2376,-69 358.2376,-69 352.2376,-63 352.2376,-57 352.2376,-57 352.2376,-29 352.2376,-29 352.2376,-23 358.2376,-17 364.2376,-17 364.2376,-17 377.2376,-17 377.2376,-17 383.2376,-17 389.2376,-23 389.2376,-29 389.2376,-29 389.2376,-57 389.2376,-57 389.2376,-63 383.2376,-69 377.2376,-69"/>
<text text-anchor="middle" x="370.7376" y="-57" font-family="Arial" font-size="10.00" fill="#000000">Audio</text>
<text text-anchor="middle" x="370.7376" y="-46" font-family="Arial" font-size="10.00" fill="#000000">Input</text>
<text text-anchor="middle" x="370.7376" y="-35" font-family="Arial" font-size="10.00" fill="#000000">Bus</text>
<text text-anchor="middle" x="370.7376" y="-24" font-family="Arial" font-size="10.00" fill="#000000">Group</text>
</a>
</g>
</g>
<!-- supriya.realtime.AudioOutputBusGroup.AudioOutputBusGroup -->
<g id="node3" class="node">
<title>supriya.realtime.AudioOutputBusGroup.AudioOutputBusGroup</title>
<g id="a_node3"><a xlink:href="../api/supriya/realtime/AudioOutputBusGroup.html#supriya.realtime.AudioOutputBusGroup.AudioOutputBusGroup" xlink:title="Audio\nOutput\nBus\nGroup" target="_top">
<path fill="#b3cde3" stroke="#b3cde3" stroke-width="2" d="M378.2376,-139C378.2376,-139 363.2376,-139 363.2376,-139 357.2376,-139 351.2376,-133 351.2376,-127 351.2376,-127 351.2376,-99 351.2376,-99 351.2376,-93 357.2376,-87 363.2376,-87 363.2376,-87 378.2376,-87 378.2376,-87 384.2376,-87 390.2376,-93 390.2376,-99 390.2376,-99 390.2376,-127 390.2376,-127 390.2376,-133 384.2376,-139 378.2376,-139"/>
<text text-anchor="middle" x="370.7376" y="-127" font-family="Arial" font-size="10.00" fill="#000000">Audio</text>
<text text-anchor="middle" x="370.7376" y="-116" font-family="Arial" font-size="10.00" fill="#000000">Output</text>
<text text-anchor="middle" x="370.7376" y="-105" font-family="Arial" font-size="10.00" fill="#000000">Bus</text>
<text text-anchor="middle" x="370.7376" y="-94" font-family="Arial" font-size="10.00" fill="#000000">Group</text>
</a>
</g>
</g>
<!-- supriya.realtime.Buffer.Buffer -->
<g id="node4" class="node">
<title>supriya.realtime.Buffer.Buffer</title>
<g id="a_node4"><a xlink:href="../api/supriya/realtime/Buffer.html#supriya.realtime.Buffer.Buffer" xlink:title="Buffer" target="_top">
<path fill="#b3cde3" stroke="#b3cde3" stroke-width="2" d="M303.3626,-35.5C303.3626,-35.5 279.0293,-35.5 279.0293,-35.5 275.8626,-35.5 272.696,-32.3333 272.696,-29.1667 272.696,-29.1667 272.696,-22.8333 272.696,-22.8333 272.696,-19.6667 275.8626,-16.5 279.0293,-16.5 279.0293,-16.5 303.3626,-16.5 303.3626,-16.5 306.5293,-16.5 309.696,-19.6667 309.696,-22.8333 309.696,-22.8333 309.696,-29.1667 309.696,-29.1667 309.696,-32.3333 306.5293,-35.5 303.3626,-35.5"/>
<text text-anchor="middle" x="291.196" y="-23.5" font-family="Arial" font-size="10.00" fill="#000000">Buffer</text>
</a>
</g>
</g>
<!-- supriya.realtime.BufferGroup.BufferGroup -->
<g id="node5" class="node">
<title>supriya.realtime.BufferGroup.BufferGroup</title>
<g id="a_node5"><a xlink:href="../api/supriya/realtime/BufferGroup.html#supriya.realtime.BufferGroup.BufferGroup" xlink:title="Buffer\nGroup" target="_top">
<path fill="#b3cde3" stroke="#b3cde3" stroke-width="2" d="M299.696,-84C299.696,-84 282.696,-84 282.696,-84 277.696,-84 272.696,-79 272.696,-74 272.696,-74 272.696,-64 272.696,-64 272.696,-59 277.696,-54 282.696,-54 282.696,-54 299.696,-54 299.696,-54 304.696,-54 309.696,-59 309.696,-64 309.696,-64 309.696,-74 309.696,-74 309.696,-79 304.696,-84 299.696,-84"/>
<text text-anchor="middle" x="291.196" y="-72" font-family="Arial" font-size="10.00" fill="#000000">Buffer</text>
<text text-anchor="middle" x="291.196" y="-61" font-family="Arial" font-size="10.00" fill="#000000">Group</text>
</a>
</g>
</g>
<!-- supriya.realtime.Bus.Bus -->
<g id="node6" class="node">
<title>supriya.realtime.Bus.Bus</title>
<g id="a_node6"><a xlink:href="../api/supriya/realtime/Bus.html#supriya.realtime.Bus.Bus" xlink:title="Bus" target="_top">
<path fill="#b3cde3" stroke="#b3cde3" stroke-width="2" d="M299.3626,-121.5C299.3626,-121.5 283.0293,-121.5 283.0293,-121.5 279.8626,-121.5 276.696,-118.3333 276.696,-115.1667 276.696,-115.1667 276.696,-108.8333 276.696,-108.8333 276.696,-105.6667 279.8626,-102.5 283.0293,-102.5 283.0293,-102.5 299.3626,-102.5 299.3626,-102.5 302.5293,-102.5 305.696,-105.6667 305.696,-108.8333 305.696,-108.8333 305.696,-115.1667 305.696,-115.1667 305.696,-118.3333 302.5293,-121.5 299.3626,-121.5"/>
<text text-anchor="middle" x="291.196" y="-109.5" font-family="Arial" font-size="10.00" fill="#000000">Bus</text>
</a>
</g>
</g>
<!-- supriya.realtime.BusGroup.BusGroup -->
<g id="node7" class="node">
<title>supriya.realtime.BusGroup.BusGroup</title>
<g id="a_node7"><a xlink:href="../api/supriya/realtime/BusGroup.html#supriya.realtime.BusGroup.BusGroup" xlink:title="Bus\nGroup" target="_top">
<path fill="#b3cde3" stroke="#b3cde3" stroke-width="2" d="M299.696,-170C299.696,-170 282.696,-170 282.696,-170 277.696,-170 272.696,-165 272.696,-160 272.696,-160 272.696,-150 272.696,-150 272.696,-145 277.696,-140 282.696,-140 282.696,-140 299.696,-140 299.696,-140 304.696,-140 309.696,-145 309.696,-150 309.696,-150 309.696,-160 309.696,-160 309.696,-165 304.696,-170 299.696,-170"/>
<text text-anchor="middle" x="291.196" y="-158" font-family="Arial" font-size="10.00" fill="#000000">Bus</text>
<text text-anchor="middle" x="291.196" y="-147" font-family="Arial" font-size="10.00" fill="#000000">Group</text>
</a>
</g>
</g>
<!-- supriya.realtime.Group.Group -->
<g id="node8" class="node">
<title>supriya.realtime.Group.Group</title>
<g id="a_node8"><a xlink:href="../api/supriya/realtime/Group.html#supriya.realtime.Group.Group" xlink:title="Group" target="_top">
<path fill="#b3cde3" stroke="#b3cde3" stroke-width="2" d="M382.9043,-176.5C382.9043,-176.5 358.5709,-176.5 358.5709,-176.5 355.4043,-176.5 352.2376,-173.3333 352.2376,-170.1667 352.2376,-170.1667 352.2376,-163.8333 352.2376,-163.8333 352.2376,-160.6667 355.4043,-157.5 358.5709,-157.5 358.5709,-157.5 382.9043,-157.5 382.9043,-157.5 386.0709,-157.5 389.2376,-160.6667 389.2376,-163.8333 389.2376,-163.8333 389.2376,-170.1667 389.2376,-170.1667 389.2376,-173.3333 386.0709,-176.5 382.9043,-176.5"/>
<text text-anchor="middle" x="370.7376" y="-164.5" font-family="Arial" font-size="10.00" fill="#000000">Group</text>
</a>
</g>
</g>
<!-- supriya.realtime.Node.Node -->
<g id="node9" class="node">
<title>supriya.realtime.Node.Node</title>
<g id="a_node9"><a xlink:href="../api/supriya/realtime/Node.html#supriya.realtime.Node.Node" xlink:title="Node" target="_top">
<ellipse fill="none" stroke="#b3cde3" stroke-width="2" cx="291.196" cy="-201" rx="24.0833" ry="13.3704"/>
<text text-anchor="middle" x="291.196" y="-198.5" font-family="Arial" font-size="10.00" fill="#000000">Node</text>
</a>
</g>
</g>
<!-- supriya.realtime.RootNode.RootNode -->
<g id="node10" class="node">
<title>supriya.realtime.RootNode.RootNode</title>
<g id="a_node10"><a xlink:href="../api/supriya/realtime/RootNode.html#supriya.realtime.RootNode.RootNode" xlink:title="Root\nNode" target="_top">
<path fill="#b3cde3" stroke="#b3cde3" stroke-width="2" d="M450.2376,-182C450.2376,-182 436.2376,-182 436.2376,-182 431.2376,-182 426.2376,-177 426.2376,-172 426.2376,-172 426.2376,-162 426.2376,-162 426.2376,-157 431.2376,-152 436.2376,-152 436.2376,-152 450.2376,-152 450.2376,-152 455.2376,-152 460.2376,-157 460.2376,-162 460.2376,-162 460.2376,-172 460.2376,-172 460.2376,-177 455.2376,-182 450.2376,-182"/>
<text text-anchor="middle" x="443.2376" y="-170" font-family="Arial" font-size="10.00" fill="#000000">Root</text>
<text text-anchor="middle" x="443.2376" y="-159" font-family="Arial" font-size="10.00" fill="#000000">Node</text>
</a>
</g>
</g>
<!-- supriya.realtime.ServerObject.ServerObject -->
<g id="node11" class="node">
<title>supriya.realtime.ServerObject.ServerObject</title>
<g id="a_node11"><a xlink:href="../api/supriya/realtime/ServerObject.html#supriya.realtime.ServerObject.ServerObject" xlink:title="Server\nObject" target="_top">
<ellipse fill="#000000" stroke="#000000" stroke-width="2" cx="203.5772" cy="-112" rx="27.6545" ry="21.4286"/>
<text text-anchor="middle" x="203.5772" y="-115" font-family="Arial" font-size="10.00" fill="#ffffff">Server</text>
<text text-anchor="middle" x="203.5772" y="-104" font-family="Arial" font-size="10.00" fill="#ffffff">Object</text>
</a>
</g>
</g>
<!-- supriya.realtime.Synth.Synth -->
<g id="node12" class="node">
<title>supriya.realtime.Synth.Synth</title>
<g id="a_node12"><a xlink:href="../api/supriya/realtime/Synth.html#supriya.realtime.Synth.Synth" xlink:title="Synth" target="_top">
<path fill="#b3cde3" stroke="#b3cde3" stroke-width="2" d="M382.4043,-213.5C382.4043,-213.5 359.0709,-213.5 359.0709,-213.5 355.9043,-213.5 352.7376,-210.3333 352.7376,-207.1667 352.7376,-207.1667 352.7376,-200.8333 352.7376,-200.8333 352.7376,-197.6667 355.9043,-194.5 359.0709,-194.5 359.0709,-194.5 382.4043,-194.5 382.4043,-194.5 385.5709,-194.5 388.7376,-197.6667 388.7376,-200.8333 388.7376,-200.8333 388.7376,-207.1667 388.7376,-207.1667 388.7376,-210.3333 385.5709,-213.5 382.4043,-213.5"/>
<text text-anchor="middle" x="370.7376" y="-201.5" font-family="Arial" font-size="10.00" fill="#000000">Synth</text>
</a>
</g>
</g>
<!-- supriya.system.SupriyaObject.SupriyaObject -->
<g id="node13" class="node">
<title>supriya.system.SupriyaObject.SupriyaObject</title>
<g id="a_node13"><a xlink:href="../api/supriya/realtime/../system/SupriyaObject.html#supriya.system.SupriyaObject.SupriyaObject" xlink:title="Supriya\nObject" target="_top">
<path fill="#ccebc5" stroke="#ccebc5" stroke-width="2" d="M125,-127C125,-127 103,-127 103,-127 98,-127 93,-122 93,-117 93,-117 93,-107 93,-107 93,-102 98,-97 103,-97 103,-97 125,-97 125,-97 130,-97 135,-102 135,-107 135,-107 135,-117 135,-117 135,-122 130,-127 125,-127"/>
<text text-anchor="middle" x="114" y="-115" font-family="Arial" font-size="10.00" fill="#000000">Supriya</text>
<text text-anchor="middle" x="114" y="-104" font-family="Arial" font-size="10.00" fill="#000000">Object</text>
</a>
</g>
</g>
</g>
</svg>
