<?xml version="1.0" encoding="UTF-8" standalone="no"?>
<!DOCTYPE svg PUBLIC "-//W3C//DTD SVG 1.1//EN"
 "http://www.w3.org/Graphics/SVG/1.1/DTD/svg11.dtd">
<!-- Generated by graphviz version 2.40.1 (20161225.0304)
 -->
<!-- Title: InheritanceGraph Pages: 1 -->
<svg width="165pt" height="111pt"
 viewBox="0.00 0.00 165.00 111.00" xmlns="http://www.w3.org/2000/svg" xmlns:xlink="http://www.w3.org/1999/xlink">
<g id="graph0" class="graph" transform="scale(1 1) rotate(0) translate(4 107)">
<title>InheritanceGraph</title>
<g id="clust1" class="cluster">
<title>cluster_builtins</title>
<path fill="transparent" stroke="#bcd2ee" stroke-width="2" stroke-dasharray="5,2" d="M20,-24C20,-24 49,-24 49,-24 55,-24 61,-30 61,-36 61,-36 61,-67 61,-67 61,-73 55,-79 49,-79 49,-79 20,-79 20,-79 14,-79 8,-73 8,-67 8,-67 8,-36 8,-36 8,-30 14,-24 20,-24"/>
<text text-anchor="middle" x="34.5" y="-67" font-family="Arial" font-size="10.00" fill="#000000">builtins</text>
</g>
<g id="clust2" class="cluster">
<title>cluster_supriya.intervals</title>
<path fill="transparent" stroke="#bcd2ee" stroke-width="2" stroke-dasharray="5,2" d="M93,-8C93,-8 140,-8 140,-8 146,-8 152,-14 152,-20 152,-20 152,-83 152,-83 152,-89 146,-95 140,-95 140,-95 93,-95 93,-95 87,-95 81,-89 81,-83 81,-83 81,-20 81,-20 81,-14 87,-8 93,-8"/>
<text text-anchor="middle" x="116.5" y="-83" font-family="Arial" font-size="10.00" fill="#000000">supriya.intervals</text>
</g>
<!-- builtins.object&#45;&gt;supriya.intervals.TimespanCollectionDriverEx.TimespanCollectionDriverEx -->
<g id="edge1" class="edge">
<title>builtins.object&#45;&gt;supriya.intervals.TimespanCollectionDriverEx.TimespanCollectionDriverEx</title>
<path fill="none" stroke="#778899" d="M53.1071,-42C61.5048,-42 71.7105,-42 81.4572,-42"/>
<polygon fill="#778899" stroke="#778899" points="81.7461,-45.5001 91.7461,-42 81.7461,-38.5001 81.7461,-45.5001"/>
</g>
<!-- builtins.object -->
<g id="node1" class="node">
<title>builtins.object</title>
<g id="a_node1"><a xlink:href="https://docs.python.org/3.6/library/functions.html#object" xlink:title="object" target="_top">
<path fill="#fbb4ae" stroke="#fbb4ae" stroke-width="2" d="M46.6667,-51.5C46.6667,-51.5 22.3333,-51.5 22.3333,-51.5 19.1667,-51.5 16,-48.3333 16,-45.1667 16,-45.1667 16,-38.8333 16,-38.8333 16,-35.6667 19.1667,-32.5 22.3333,-32.5 22.3333,-32.5 46.6667,-32.5 46.6667,-32.5 49.8333,-32.5 53,-35.6667 53,-38.8333 53,-38.8333 53,-45.1667 53,-45.1667 53,-48.3333 49.8333,-51.5 46.6667,-51.5"/>
<text text-anchor="middle" x="34.5" y="-39.5" font-family="Arial" font-size="10.00" fill="#000000">object</text>
</a>
</g>
</g>
<!-- supriya.intervals.TimespanCollectionDriverEx.TimespanCollectionDriverEx -->
<g id="node2" class="node">
<title>supriya.intervals.TimespanCollectionDriverEx.TimespanCollectionDriverEx</title>
<g id="a_node2"><a xlink:href="../api/supriya/intervals/TimespanCollectionDriverEx.html#supriya.intervals.TimespanCollectionDriverEx.TimespanCollectionDriverEx" xlink:title="Timespan\nCollection\nDriver\nEx" target="_top">
<path fill="#b3cde3" stroke="#b3cde3" stroke-width="2" d="M129,-68C129,-68 104,-68 104,-68 98,-68 92,-62 92,-56 92,-56 92,-28 92,-28 92,-22 98,-16 104,-16 104,-16 129,-16 129,-16 135,-16 141,-22 141,-28 141,-28 141,-56 141,-56 141,-62 135,-68 129,-68"/>
<text text-anchor="middle" x="116.5" y="-56" font-family="Arial" font-size="10.00" fill="#000000">Timespan</text>
<text text-anchor="middle" x="116.5" y="-45" font-family="Arial" font-size="10.00" fill="#000000">Collection</text>
<text text-anchor="middle" x="116.5" y="-34" font-family="Arial" font-size="10.00" fill="#000000">Driver</text>
<text text-anchor="middle" x="116.5" y="-23" font-family="Arial" font-size="10.00" fill="#000000">Ex</text>
</a>
</g>
</g>
</g>
</svg>
