<?xml version="1.0" encoding="UTF-8" standalone="no"?>
<!DOCTYPE svg PUBLIC "-//W3C//DTD SVG 1.1//EN"
 "http://www.w3.org/Graphics/SVG/1.1/DTD/svg11.dtd">
<!-- Generated by graphviz version 2.40.1 (20161225.0304)
 -->
<!-- Title: InheritanceGraph Pages: 1 -->
<svg width="752pt" height="877pt"
 viewBox="0.00 0.00 751.74 877.00" xmlns="http://www.w3.org/2000/svg" xmlns:xlink="http://www.w3.org/1999/xlink">
<g id="graph0" class="graph" transform="scale(1 1) rotate(0) translate(4 873)">
<title>InheritanceGraph</title>
<g id="clust1" class="cluster">
<title>cluster_builtins</title>
<path fill="transparent" stroke="#bcd2ee" stroke-width="2" stroke-dasharray="5,2" d="M20,-388C20,-388 49,-388 49,-388 55,-388 61,-394 61,-400 61,-400 61,-431 61,-431 61,-437 55,-443 49,-443 49,-443 20,-443 20,-443 14,-443 8,-437 8,-431 8,-431 8,-400 8,-400 8,-394 14,-388 20,-388"/>
<text text-anchor="middle" x="34.5" y="-431" font-family="Arial" font-size="10.00" fill="#000000">builtins</text>
</g>
<g id="clust2" class="cluster">
<title>cluster_supriya.synthdefs</title>
<path fill="transparent" stroke="#bcd2ee" stroke-width="2" stroke-dasharray="5,2" d="M180,-377C180,-377 231,-377 231,-377 237,-377 243,-383 243,-389 243,-389 243,-442 243,-442 243,-448 237,-454 231,-454 231,-454 180,-454 180,-454 174,-454 168,-448 168,-442 168,-442 168,-389 168,-389 168,-383 174,-377 180,-377"/>
<text text-anchor="middle" x="205.5" y="-442" font-family="Arial" font-size="10.00" fill="#000000">supriya.synthdefs</text>
</g>
<g id="clust3" class="cluster">
<title>cluster_supriya.system</title>
<path fill="transparent" stroke="#bcd2ee" stroke-width="2" stroke-dasharray="5,2" d="M93,-383C93,-383 136,-383 136,-383 142,-383 148,-389 148,-395 148,-395 148,-436 148,-436 148,-442 142,-448 136,-448 136,-448 93,-448 93,-448 87,-448 81,-442 81,-436 81,-436 81,-395 81,-395 81,-389 87,-383 93,-383"/>
<text text-anchor="middle" x="114.5" y="-436" font-family="Arial" font-size="10.00" fill="#000000">supriya.system</text>
</g>
<g id="clust4" class="cluster">
<title>cluster_supriya.ugens</title>
<path fill="transparent" stroke="#bcd2ee" stroke-width="2" stroke-dasharray="5,2" d="M275,-8C275,-8 723.7351,-8 723.7351,-8 729.7351,-8 735.7351,-14 735.7351,-20 735.7351,-20 735.7351,-849 735.7351,-849 735.7351,-855 729.7351,-861 723.7351,-861 723.7351,-861 275,-861 275,-861 269,-861 263,-855 263,-849 263,-849 263,-20 263,-20 263,-14 269,-8 275,-8"/>
<text text-anchor="middle" x="499.3675" y="-849" font-family="Arial" font-size="10.00" fill="#000000">supriya.ugens</text>
</g>
<!-- builtins.object&#45;&gt;supriya.system.SupriyaObject.SupriyaObject -->
<g id="edge31" class="edge">
<title>builtins.object&#45;&gt;supriya.system.SupriyaObject.SupriyaObject</title>
<path fill="none" stroke="#778899" d="M53.3404,-406C62.0401,-406 72.6079,-406 82.4698,-406"/>
<polygon fill="#778899" stroke="#778899" points="82.7722,-409.5001 92.7722,-406 82.7721,-402.5001 82.7722,-409.5001"/>
</g>
<!-- supriya.synthdefs.UGenMethodMixin.UGenMethodMixin&#45;&gt;supriya.ugens.UGen.UGen -->
<g id="edge32" class="edge">
<title>supriya.synthdefs.UGenMethodMixin.UGenMethodMixin&#45;&gt;supriya.ugens.UGen.UGen</title>
<path fill="none" stroke="#778899" d="M226.2117,-406C236.3925,-406 248.8752,-406 260.4793,-406"/>
<polygon fill="#778899" stroke="#778899" points="260.7979,-409.5001 270.7978,-406 260.7978,-402.5001 260.7979,-409.5001"/>
</g>
<!-- supriya.system.SupriyaObject.SupriyaObject&#45;&gt;supriya.synthdefs.UGenMethodMixin.UGenMethodMixin -->
<g id="edge33" class="edge">
<title>supriya.system.SupriyaObject.SupriyaObject&#45;&gt;supriya.synthdefs.UGenMethodMixin.UGenMethodMixin</title>
<path fill="none" stroke="#778899" d="M135.106,-406C146.5093,-406 160.815,-406 173.5087,-406"/>
<polygon fill="#778899" stroke="#778899" points="173.6933,-409.5001 183.6933,-406 173.6932,-402.5001 173.6933,-409.5001"/>
</g>
<!-- supriya.ugens.Control.Control&#45;&gt;supriya.ugens.AudioControl.AudioControl -->
<g id="edge1" class="edge">
<title>supriya.ugens.Control.Control&#45;&gt;supriya.ugens.AudioControl.AudioControl</title>
<path fill="none" stroke="#778899" d="M490.9601,-185.168C500.4722,-181.1058 511.9363,-176.21 522.3628,-171.7572"/>
<polygon fill="#778899" stroke="#778899" points="523.7389,-174.9754 531.5608,-167.8292 520.9896,-168.5379 523.7389,-174.9754"/>
</g>
<!-- supriya.ugens.Control.Control&#45;&gt;supriya.ugens.LagControl.LagControl -->
<g id="edge2" class="edge">
<title>supriya.ugens.Control.Control&#45;&gt;supriya.ugens.LagControl.LagControl</title>
<path fill="none" stroke="#778899" d="M490.7988,-192.0697C518.2313,-189.4892 567.0881,-184.8932 598.9452,-181.8964"/>
<polygon fill="#778899" stroke="#778899" points="599.4134,-185.3679 609.0416,-180.9466 598.7578,-178.3987 599.4134,-185.3679"/>
</g>
<!-- supriya.ugens.Control.Control&#45;&gt;supriya.ugens.TrigControl.TrigControl -->
<g id="edge3" class="edge">
<title>supriya.ugens.Control.Control&#45;&gt;supriya.ugens.TrigControl.TrigControl</title>
<path fill="none" stroke="#778899" d="M490.893,-195.6529C532.6433,-199.0006 627.3876,-206.5975 676.472,-210.5333"/>
<polygon fill="#778899" stroke="#778899" points="676.2524,-214.0268 686.5002,-211.3374 676.812,-207.0492 676.2524,-214.0268"/>
</g>
<!-- supriya.ugens.MultiOutUGen.MultiOutUGen&#45;&gt;supriya.ugens.Balance2.Balance2 -->
<g id="edge4" class="edge">
<title>supriya.ugens.MultiOutUGen.MultiOutUGen&#45;&gt;supriya.ugens.Balance2.Balance2</title>
<path fill="none" stroke="#778899" d="M386.4871,-376.9857C394.6198,-304.3291 417.7301,-116.361 444.8234,-60 445.7903,-57.9886 446.9365,-56.0097 448.1992,-54.0888"/>
<polygon fill="#778899" stroke="#778899" points="450.998,-56.1905 454.284,-46.1182 445.434,-51.9429 450.998,-56.1905"/>
</g>
<!-- supriya.ugens.MultiOutUGen.MultiOutUGen&#45;&gt;supriya.ugens.BeatTrack.BeatTrack -->
<g id="edge5" class="edge">
<title>supriya.ugens.MultiOutUGen.MultiOutUGen&#45;&gt;supriya.ugens.BeatTrack.BeatTrack</title>
<path fill="none" stroke="#778899" d="M385.1714,-376.8765C390.1535,-305.5129 406.3639,-124.5019 444.8234,-80 455.3441,-67.8264 496.0839,-56.141 524.2503,-49.2663"/>
<polygon fill="#778899" stroke="#778899" points="525.4167,-52.5869 534.3406,-46.8761 523.8031,-45.7754 525.4167,-52.5869"/>
</g>
<!-- supriya.ugens.MultiOutUGen.MultiOutUGen&#45;&gt;supriya.ugens.BeatTrack2.BeatTrack2 -->
<g id="edge6" class="edge">
<title>supriya.ugens.MultiOutUGen.MultiOutUGen&#45;&gt;supriya.ugens.BeatTrack2.BeatTrack2</title>
<path fill="none" stroke="#778899" d="M384.8557,-376.9795C389.0668,-307.3144 403.5644,-133.6079 444.8234,-96 467.1797,-75.622 555.956,-74.9007 601.8834,-75.9748"/>
<polygon fill="#778899" stroke="#778899" points="601.953,-79.478 612.0468,-76.2586 602.1484,-72.4808 601.953,-79.478"/>
</g>
<!-- supriya.ugens.MultiOutUGen.MultiOutUGen&#45;&gt;supriya.ugens.BiPanB2.BiPanB2 -->
<g id="edge7" class="edge">
<title>supriya.ugens.MultiOutUGen.MultiOutUGen&#45;&gt;supriya.ugens.BiPanB2.BiPanB2</title>
<path fill="none" stroke="#778899" d="M386.9229,-377.1403C393.528,-329.9175 410.2772,-233.9913 444.8234,-160 446.1475,-157.164 447.7147,-154.3242 449.4108,-151.557"/>
<polygon fill="#778899" stroke="#778899" points="452.4503,-153.3093 455.128,-143.0584 446.6422,-149.402 452.4503,-153.3093"/>
</g>
<!-- supriya.ugens.MultiOutUGen.MultiOutUGen&#45;&gt;supriya.ugens.BufRd.BufRd -->
<g id="edge8" class="edge">
<title>supriya.ugens.MultiOutUGen.MultiOutUGen&#45;&gt;supriya.ugens.BufRd.BufRd</title>
<path fill="none" stroke="#778899" d="M387.782,-377.3649C396.7208,-322.6796 418.3775,-206.132 444.8234,-176 460.9692,-157.6037 474.5724,-167.2985 495.7351,-155 507.828,-147.9723 520.2036,-138.6241 530.2781,-130.352"/>
<polygon fill="#778899" stroke="#778899" points="532.7467,-132.8489 538.1427,-123.7311 528.2385,-127.4939 532.7467,-132.8489"/>
</g>
<!-- supriya.ugens.MultiOutUGen.MultiOutUGen&#45;&gt;supriya.ugens.Control.Control -->
<g id="edge9" class="edge">
<title>supriya.ugens.MultiOutUGen.MultiOutUGen&#45;&gt;supriya.ugens.Control.Control</title>
<path fill="none" stroke="#778899" d="M388.1355,-377.3469C395.5397,-338.7537 412.4455,-269.0309 444.8234,-218 446.4097,-215.4998 448.315,-213.0814 450.3602,-210.8045"/>
<polygon fill="#778899" stroke="#778899" points="452.9153,-213.2007 457.5927,-203.6943 448.0079,-208.209 452.9153,-213.2007"/>
</g>
<!-- supriya.ugens.MultiOutUGen.MultiOutUGen&#45;&gt;supriya.ugens.DecodeB2.DecodeB2 -->
<g id="edge10" class="edge">
<title>supriya.ugens.MultiOutUGen.MultiOutUGen&#45;&gt;supriya.ugens.DecodeB2.DecodeB2</title>
<path fill="none" stroke="#778899" d="M389.3939,-377.5467C399.4292,-333.1953 420.846,-250.8948 444.8234,-234 490.6598,-201.703 559.7583,-219.3907 599.222,-233.9843"/>
<polygon fill="#778899" stroke="#778899" points="597.9949,-237.2623 608.5845,-237.5956 600.514,-230.7313 597.9949,-237.2623"/>
</g>
<!-- supriya.ugens.MultiOutUGen.MultiOutUGen&#45;&gt;supriya.ugens.Demand.Demand -->
<g id="edge11" class="edge">
<title>supriya.ugens.MultiOutUGen.MultiOutUGen&#45;&gt;supriya.ugens.Demand.Demand</title>
<path fill="none" stroke="#778899" d="M392.717,-379.0144C402.9848,-351.5531 421.2022,-308.5189 444.8234,-276 446.597,-273.5582 448.6412,-271.1602 450.7839,-268.8809"/>
<polygon fill="#778899" stroke="#778899" points="453.4517,-271.1696 458.1994,-261.6981 448.5814,-266.1416 453.4517,-271.1696"/>
</g>
<!-- supriya.ugens.MultiOutUGen.MultiOutUGen&#45;&gt;supriya.ugens.DiskIn.DiskIn -->
<g id="edge12" class="edge">
<title>supriya.ugens.MultiOutUGen.MultiOutUGen&#45;&gt;supriya.ugens.DiskIn.DiskIn</title>
<path fill="none" stroke="#778899" d="M391.8568,-378.3677C400.9816,-353.2461 417.9167,-316.9906 444.8234,-296 468.4885,-277.5382 502.9995,-270.804 526.4703,-268.3623"/>
<polygon fill="#778899" stroke="#778899" points="527.035,-271.8271 536.7039,-267.4957 526.4442,-264.8521 527.035,-271.8271"/>
</g>
<!-- supriya.ugens.MultiOutUGen.MultiOutUGen&#45;&gt;supriya.ugens.GrainBuf.GrainBuf -->
<g id="edge13" class="edge">
<title>supriya.ugens.MultiOutUGen.MultiOutUGen&#45;&gt;supriya.ugens.GrainBuf.GrainBuf</title>
<path fill="none" stroke="#778899" d="M392.9513,-378.672C402.3911,-356.2539 419.1614,-325.8747 444.8234,-311 470.7122,-295.9938 556.7232,-297.5237 601.7315,-299.4757"/>
<polygon fill="#778899" stroke="#778899" points="601.8181,-302.9836 611.9717,-299.9581 602.1475,-295.9913 601.8181,-302.9836"/>
</g>
<!-- supriya.ugens.MultiOutUGen.MultiOutUGen&#45;&gt;supriya.ugens.GrainIn.GrainIn -->
<g id="edge14" class="edge">
<title>supriya.ugens.MultiOutUGen.MultiOutUGen&#45;&gt;supriya.ugens.GrainIn.GrainIn</title>
<path fill="none" stroke="#778899" d="M404.4064,-388.8129C416.5224,-378.9151 431.8399,-366.4019 444.6545,-355.9334"/>
<polygon fill="#778899" stroke="#778899" points="447.1253,-358.4344 452.6554,-349.3973 442.6967,-353.0133 447.1253,-358.4344"/>
</g>
<!-- supriya.ugens.MultiOutUGen.MultiOutUGen&#45;&gt;supriya.ugens.Hilbert.Hilbert -->
<g id="edge15" class="edge">
<title>supriya.ugens.MultiOutUGen.MultiOutUGen&#45;&gt;supriya.ugens.Hilbert.Hilbert</title>
<path fill="none" stroke="#778899" d="M407.6623,-396.5186C418.8698,-392.3482 432.4139,-387.5926 444.8234,-384 471.0065,-376.4199 501.3629,-369.8352 523.1108,-365.4903"/>
<polygon fill="#778899" stroke="#778899" points="523.9003,-368.9022 533.0396,-363.5427 522.5528,-362.0331 523.9003,-368.9022"/>
</g>
<!-- supriya.ugens.MultiOutUGen.MultiOutUGen&#45;&gt;supriya.ugens.In.In -->
<g id="edge16" class="edge">
<title>supriya.ugens.MultiOutUGen.MultiOutUGen&#45;&gt;supriya.ugens.In.In</title>
<path fill="none" stroke="#778899" d="M408.7492,-402.7662C419.814,-401.4452 432.9455,-399.9968 444.8234,-399 503.5412,-394.0726 572.9627,-391.0749 607.6643,-389.7695"/>
<polygon fill="#778899" stroke="#778899" points="608.1701,-393.2535 618.0359,-389.3913 607.915,-386.2581 608.1701,-393.2535"/>
</g>
<!-- supriya.ugens.MultiOutUGen.MultiOutUGen&#45;&gt;supriya.ugens.InFeedback.InFeedback -->
<g id="edge17" class="edge">
<title>supriya.ugens.MultiOutUGen.MultiOutUGen&#45;&gt;supriya.ugens.InFeedback.InFeedback</title>
<path fill="none" stroke="#778899" d="M408.506,-410.9171C416.9566,-412.5701 426.5384,-414.4443 435.5907,-416.2149"/>
<polygon fill="#778899" stroke="#778899" points="435.0115,-419.6679 445.4974,-418.1527 436.3553,-412.798 435.0115,-419.6679"/>
</g>
<!-- supriya.ugens.MultiOutUGen.MultiOutUGen&#45;&gt;supriya.ugens.LocalIn.LocalIn -->
<g id="edge18" class="edge">
<title>supriya.ugens.MultiOutUGen.MultiOutUGen&#45;&gt;supriya.ugens.LocalIn.LocalIn</title>
<path fill="none" stroke="#778899" d="M403.6694,-423.9967C414.9483,-432.7824 429.7252,-442.4259 444.8234,-447 471.2215,-454.9975 502.9446,-452.4261 525.0428,-448.8243"/>
<polygon fill="#778899" stroke="#778899" points="525.8343,-452.2381 535.0524,-447.0152 524.5893,-445.3497 525.8343,-452.2381"/>
</g>
<!-- supriya.ugens.MultiOutUGen.MultiOutUGen&#45;&gt;supriya.ugens.MFCC.MFCC -->
<g id="edge19" class="edge">
<title>supriya.ugens.MultiOutUGen.MultiOutUGen&#45;&gt;supriya.ugens.MFCC.MFCC</title>
<path fill="none" stroke="#778899" d="M402.6907,-425.3534C414.018,-435.5335 429.1505,-447.2666 444.8234,-454 496.3588,-476.1406 562.9075,-478.8407 600.493,-478.2775"/>
<polygon fill="#778899" stroke="#778899" points="600.8217,-481.7707 610.7345,-478.0309 600.6531,-474.7728 600.8217,-481.7707"/>
</g>
<!-- supriya.ugens.MultiOutUGen.MultiOutUGen&#45;&gt;supriya.ugens.Pan2.Pan2 -->
<g id="edge20" class="edge">
<title>supriya.ugens.MultiOutUGen.MultiOutUGen&#45;&gt;supriya.ugens.Pan2.Pan2</title>
<path fill="none" stroke="#778899" d="M400.6205,-427.8112C412.8132,-443.1073 429.6252,-463.9632 444.8234,-482 446.4853,-483.9724 448.2231,-486.0074 449.9764,-488.0416"/>
<polygon fill="#778899" stroke="#778899" points="447.4809,-490.5055 456.6872,-495.749 452.7602,-485.9088 447.4809,-490.5055"/>
</g>
<!-- supriya.ugens.MultiOutUGen.MultiOutUGen&#45;&gt;supriya.ugens.Pan4.Pan4 -->
<g id="edge21" class="edge">
<title>supriya.ugens.MultiOutUGen.MultiOutUGen&#45;&gt;supriya.ugens.Pan4.Pan4</title>
<path fill="none" stroke="#778899" d="M387.9621,-434.7493C394.5921,-465.5899 410.106,-513.0836 444.8234,-535 469.4544,-550.5491 503.9823,-545.6492 527.1806,-539.4566"/>
<polygon fill="#778899" stroke="#778899" points="528.3536,-542.7601 536.9658,-536.5892 526.385,-536.0426 528.3536,-542.7601"/>
</g>
<!-- supriya.ugens.MultiOutUGen.MultiOutUGen&#45;&gt;supriya.ugens.PanAz.PanAz -->
<g id="edge22" class="edge">
<title>supriya.ugens.MultiOutUGen.MultiOutUGen&#45;&gt;supriya.ugens.PanAz.PanAz</title>
<path fill="none" stroke="#778899" d="M387.5056,-434.6673C393.8135,-467.072 409.1243,-518.7227 444.8234,-545 492.1601,-579.8435 565.6707,-575.2475 604.1992,-569.6826"/>
<polygon fill="#778899" stroke="#778899" points="605.1998,-573.0677 614.5275,-568.0433 604.1024,-566.1542 605.1998,-573.0677"/>
</g>
<!-- supriya.ugens.MultiOutUGen.MultiOutUGen&#45;&gt;supriya.ugens.PanB.PanB -->
<g id="edge23" class="edge">
<title>supriya.ugens.MultiOutUGen.MultiOutUGen&#45;&gt;supriya.ugens.PanB.PanB</title>
<path fill="none" stroke="#778899" d="M390.5248,-434.0743C399.883,-467.8827 418.2714,-525.6513 444.8234,-570 445.9977,-571.9614 447.3113,-573.9153 448.7061,-575.8286"/>
<polygon fill="#778899" stroke="#778899" points="446.1675,-578.2568 455.1616,-583.8565 451.6225,-573.8702 446.1675,-578.2568"/>
</g>
<!-- supriya.ugens.MultiOutUGen.MultiOutUGen&#45;&gt;supriya.ugens.PanB2.PanB2 -->
<g id="edge24" class="edge">
<title>supriya.ugens.MultiOutUGen.MultiOutUGen&#45;&gt;supriya.ugens.PanB2.PanB2</title>
<path fill="none" stroke="#778899" d="M387.2255,-434.8172C395.0594,-488.4463 414.6843,-600.2111 444.8234,-623 468.2919,-640.7451 503.5959,-635.1148 527.2545,-628.1714"/>
<polygon fill="#778899" stroke="#778899" points="528.4622,-631.4598 536.9165,-625.0742 526.3254,-624.7939 528.4622,-631.4598"/>
</g>
<!-- supriya.ugens.MultiOutUGen.MultiOutUGen&#45;&gt;supriya.ugens.PlayBuf.PlayBuf -->
<g id="edge25" class="edge">
<title>supriya.ugens.MultiOutUGen.MultiOutUGen&#45;&gt;supriya.ugens.PlayBuf.PlayBuf</title>
<path fill="none" stroke="#778899" d="M387.1528,-434.9496C394.9889,-490.1274 414.8019,-607.1706 444.8234,-633 489.5711,-671.4993 564.7057,-665.2121 604.0087,-658.4706"/>
<polygon fill="#778899" stroke="#778899" points="604.8985,-661.8652 614.0889,-656.594 603.6172,-654.9834 604.8985,-661.8652"/>
</g>
<!-- supriya.ugens.MultiOutUGen.MultiOutUGen&#45;&gt;supriya.ugens.PureMultiOutUGen.PureMultiOutUGen -->
<g id="edge26" class="edge">
<title>supriya.ugens.MultiOutUGen.MultiOutUGen&#45;&gt;supriya.ugens.PureMultiOutUGen.PureMultiOutUGen</title>
<path fill="none" stroke="#778899" d="M388.1782,-434.579C396.628,-481.9588 416.0174,-579.3493 444.8234,-658 446.3777,-662.2439 448.1877,-666.5968 450.1126,-670.8847"/>
<polygon fill="#778899" stroke="#778899" points="447.0265,-672.5466 454.4555,-680.1004 453.3586,-669.5625 447.0265,-672.5466"/>
</g>
<!-- supriya.ugens.MultiOutUGen.MultiOutUGen&#45;&gt;supriya.ugens.Rotate2.Rotate2 -->
<g id="edge27" class="edge">
<title>supriya.ugens.MultiOutUGen.MultiOutUGen&#45;&gt;supriya.ugens.Rotate2.Rotate2</title>
<path fill="none" stroke="#778899" d="M383.907,-435.241C385.9953,-511.6347 396.1085,-714.1139 444.8234,-755 466.2102,-772.9498 499.2897,-768.5509 523.0879,-761.7958"/>
<polygon fill="#778899" stroke="#778899" points="524.1511,-765.1306 532.6577,-758.8148 522.0693,-758.4473 524.1511,-765.1306"/>
</g>
<!-- supriya.ugens.MultiOutUGen.MultiOutUGen&#45;&gt;supriya.ugens.VDiskIn.VDiskIn -->
<g id="edge28" class="edge">
<title>supriya.ugens.MultiOutUGen.MultiOutUGen&#45;&gt;supriya.ugens.VDiskIn.VDiskIn</title>
<path fill="none" stroke="#778899" d="M383.9783,-435.027C386.252,-512.4504 396.8016,-721.0428 444.8234,-766 487.211,-805.6826 561.3551,-798.9709 601.6799,-791.4772"/>
<polygon fill="#778899" stroke="#778899" points="602.5163,-794.8792 611.6334,-789.482 601.1405,-788.0157 602.5163,-794.8792"/>
</g>
<!-- supriya.ugens.MultiOutUGen.MultiOutUGen&#45;&gt;supriya.ugens.Warp1.Warp1 -->
<g id="edge29" class="edge">
<title>supriya.ugens.MultiOutUGen.MultiOutUGen&#45;&gt;supriya.ugens.Warp1.Warp1</title>
<path fill="none" stroke="#778899" d="M385.9136,-435.0175C393.1009,-513.1858 414.9802,-726.5352 444.8234,-790 445.773,-792.0195 446.9066,-794.0046 448.1601,-795.9298"/>
<polygon fill="#778899" stroke="#778899" points="445.3876,-798.0662 454.2253,-803.9098 450.9606,-793.8304 445.3876,-798.0662"/>
</g>
<!-- supriya.ugens.UGen.UGen&#45;&gt;supriya.ugens.MultiOutUGen.MultiOutUGen -->
<g id="edge30" class="edge">
<title>supriya.ugens.UGen.UGen&#45;&gt;supriya.ugens.MultiOutUGen.MultiOutUGen</title>
<path fill="none" stroke="#778899" d="M322.0621,-406C330.0361,-406 338.9805,-406 347.5203,-406"/>
<polygon fill="#778899" stroke="#778899" points="347.644,-409.5001 357.6439,-406 347.6439,-402.5001 347.644,-409.5001"/>
</g>
<!-- builtins.object -->
<g id="node1" class="node">
<title>builtins.object</title>
<g id="a_node1"><a xlink:href="https://docs.python.org/3.6/library/functions.html#object" xlink:title="object" target="_top">
<path fill="#fbb4ae" stroke="#fbb4ae" stroke-width="2" d="M46.6667,-415.5C46.6667,-415.5 22.3333,-415.5 22.3333,-415.5 19.1667,-415.5 16,-412.3333 16,-409.1667 16,-409.1667 16,-402.8333 16,-402.8333 16,-399.6667 19.1667,-396.5 22.3333,-396.5 22.3333,-396.5 46.6667,-396.5 46.6667,-396.5 49.8333,-396.5 53,-399.6667 53,-402.8333 53,-402.8333 53,-409.1667 53,-409.1667 53,-412.3333 49.8333,-415.5 46.6667,-415.5"/>
<text text-anchor="middle" x="34.5" y="-403.5" font-family="Arial" font-size="10.00" fill="#000000">object</text>
</a>
</g>
</g>
<!-- supriya.synthdefs.UGenMethodMixin.UGenMethodMixin -->
<g id="node2" class="node">
<title>supriya.synthdefs.UGenMethodMixin.UGenMethodMixin</title>
<g id="a_node2"><a xlink:href="../api/supriya/ugens/../synthdefs/UGenMethodMixin.html#supriya.synthdefs.UGenMethodMixin.UGenMethodMixin" xlink:title="UGen\nMethod\nMixin" target="_top">
<path fill="#b3cde3" stroke="#b3cde3" stroke-width="2" d="M214,-426.5C214,-426.5 196,-426.5 196,-426.5 190,-426.5 184,-420.5 184,-414.5 184,-414.5 184,-397.5 184,-397.5 184,-391.5 190,-385.5 196,-385.5 196,-385.5 214,-385.5 214,-385.5 220,-385.5 226,-391.5 226,-397.5 226,-397.5 226,-414.5 226,-414.5 226,-420.5 220,-426.5 214,-426.5"/>
<text text-anchor="middle" x="205" y="-414.5" font-family="Arial" font-size="10.00" fill="#000000">UGen</text>
<text text-anchor="middle" x="205" y="-403.5" font-family="Arial" font-size="10.00" fill="#000000">Method</text>
<text text-anchor="middle" x="205" y="-392.5" font-family="Arial" font-size="10.00" fill="#000000">Mixin</text>
</a>
</g>
</g>
<!-- supriya.system.SupriyaObject.SupriyaObject -->
<g id="node3" class="node">
<title>supriya.system.SupriyaObject.SupriyaObject</title>
<g id="a_node3"><a xlink:href="../api/supriya/ugens/../system/SupriyaObject.html#supriya.system.SupriyaObject.SupriyaObject" xlink:title="Supriya\nObject" target="_top">
<path fill="#ccebc5" stroke="#ccebc5" stroke-width="2" d="M125,-421C125,-421 103,-421 103,-421 98,-421 93,-416 93,-411 93,-411 93,-401 93,-401 93,-396 98,-391 103,-391 103,-391 125,-391 125,-391 130,-391 135,-396 135,-401 135,-401 135,-411 135,-411 135,-416 130,-421 125,-421"/>
<text text-anchor="middle" x="114" y="-409" font-family="Arial" font-size="10.00" fill="#000000">Supriya</text>
<text text-anchor="middle" x="114" y="-398" font-family="Arial" font-size="10.00" fill="#000000">Object</text>
</a>
</g>
</g>
<!-- supriya.ugens.AudioControl.AudioControl -->
<g id="node4" class="node">
<title>supriya.ugens.AudioControl.AudioControl</title>
<g id="a_node4"><a xlink:href="../api/supriya/ugens/AudioControl.html#supriya.ugens.AudioControl.AudioControl" xlink:title="Audio\nControl" target="_top">
<path fill="#decbe4" stroke="#decbe4" stroke-width="2" d="M562.7351,-174C562.7351,-174 541.7351,-174 541.7351,-174 536.7351,-174 531.7351,-169 531.7351,-164 531.7351,-164 531.7351,-154 531.7351,-154 531.7351,-149 536.7351,-144 541.7351,-144 541.7351,-144 562.7351,-144 562.7351,-144 567.7351,-144 572.7351,-149 572.7351,-154 572.7351,-154 572.7351,-164 572.7351,-164 572.7351,-169 567.7351,-174 562.7351,-174"/>
<text text-anchor="middle" x="552.2351" y="-162" font-family="Arial" font-size="10.00" fill="#000000">Audio</text>
<text text-anchor="middle" x="552.2351" y="-151" font-family="Arial" font-size="10.00" fill="#000000">Control</text>
</a>
</g>
</g>
<!-- supriya.ugens.Balance2.Balance2 -->
<g id="node5" class="node">
<title>supriya.ugens.Balance2.Balance2</title>
<g id="a_node5"><a xlink:href="../api/supriya/ugens/Balance2.html#supriya.ugens.Balance2.Balance2" xlink:title="Balance\n2" target="_top">
<path fill="#decbe4" stroke="#decbe4" stroke-width="2" d="M482.2792,-46C482.2792,-46 458.2792,-46 458.2792,-46 453.2792,-46 448.2792,-41 448.2792,-36 448.2792,-36 448.2792,-26 448.2792,-26 448.2792,-21 453.2792,-16 458.2792,-16 458.2792,-16 482.2792,-16 482.2792,-16 487.2792,-16 492.2792,-21 492.2792,-26 492.2792,-26 492.2792,-36 492.2792,-36 492.2792,-41 487.2792,-46 482.2792,-46"/>
<text text-anchor="middle" x="470.2792" y="-34" font-family="Arial" font-size="10.00" fill="#000000">Balance</text>
<text text-anchor="middle" x="470.2792" y="-23" font-family="Arial" font-size="10.00" fill="#000000">2</text>
</a>
</g>
</g>
<!-- supriya.ugens.BeatTrack.BeatTrack -->
<g id="node6" class="node">
<title>supriya.ugens.BeatTrack.BeatTrack</title>
<g id="a_node6"><a xlink:href="../api/supriya/ugens/BeatTrack.html#supriya.ugens.BeatTrack.BeatTrack" xlink:title="Beat\nTrack" target="_top">
<path fill="#decbe4" stroke="#decbe4" stroke-width="2" d="M559.7351,-58C559.7351,-58 544.7351,-58 544.7351,-58 539.7351,-58 534.7351,-53 534.7351,-48 534.7351,-48 534.7351,-38 534.7351,-38 534.7351,-33 539.7351,-28 544.7351,-28 544.7351,-28 559.7351,-28 559.7351,-28 564.7351,-28 569.7351,-33 569.7351,-38 569.7351,-38 569.7351,-48 569.7351,-48 569.7351,-53 564.7351,-58 559.7351,-58"/>
<text text-anchor="middle" x="552.2351" y="-46" font-family="Arial" font-size="10.00" fill="#000000">Beat</text>
<text text-anchor="middle" x="552.2351" y="-35" font-family="Arial" font-size="10.00" fill="#000000">Track</text>
</a>
</g>
</g>
<!-- supriya.ugens.BeatTrack2.BeatTrack2 -->
<g id="node7" class="node">
<title>supriya.ugens.BeatTrack2.BeatTrack2</title>
<g id="a_node7"><a xlink:href="../api/supriya/ugens/BeatTrack2.html#supriya.ugens.BeatTrack2.BeatTrack2" xlink:title="Beat\nTrack\n2" target="_top">
<path fill="#decbe4" stroke="#decbe4" stroke-width="2" d="M635.5684,-97.5C635.5684,-97.5 623.9017,-97.5 623.9017,-97.5 618.0684,-97.5 612.2351,-91.6667 612.2351,-85.8333 612.2351,-85.8333 612.2351,-68.1667 612.2351,-68.1667 612.2351,-62.3333 618.0684,-56.5 623.9017,-56.5 623.9017,-56.5 635.5684,-56.5 635.5684,-56.5 641.4017,-56.5 647.2351,-62.3333 647.2351,-68.1667 647.2351,-68.1667 647.2351,-85.8333 647.2351,-85.8333 647.2351,-91.6667 641.4017,-97.5 635.5684,-97.5"/>
<text text-anchor="middle" x="629.7351" y="-85.5" font-family="Arial" font-size="10.00" fill="#000000">Beat</text>
<text text-anchor="middle" x="629.7351" y="-74.5" font-family="Arial" font-size="10.00" fill="#000000">Track</text>
<text text-anchor="middle" x="629.7351" y="-63.5" font-family="Arial" font-size="10.00" fill="#000000">2</text>
</a>
</g>
</g>
<!-- supriya.ugens.BiPanB2.BiPanB2 -->
<g id="node8" class="node">
<title>supriya.ugens.BiPanB2.BiPanB2</title>
<g id="a_node8"><a xlink:href="../api/supriya/ugens/BiPanB2.html#supriya.ugens.BiPanB2.BiPanB2" xlink:title="Bi\nPan\nB2" target="_top">
<path fill="#decbe4" stroke="#decbe4" stroke-width="2" d="M475.2792,-145.5C475.2792,-145.5 465.2792,-145.5 465.2792,-145.5 460.2792,-145.5 455.2792,-140.5 455.2792,-135.5 455.2792,-135.5 455.2792,-114.5 455.2792,-114.5 455.2792,-109.5 460.2792,-104.5 465.2792,-104.5 465.2792,-104.5 475.2792,-104.5 475.2792,-104.5 480.2792,-104.5 485.2792,-109.5 485.2792,-114.5 485.2792,-114.5 485.2792,-135.5 485.2792,-135.5 485.2792,-140.5 480.2792,-145.5 475.2792,-145.5"/>
<text text-anchor="middle" x="470.2792" y="-133.5" font-family="Arial" font-size="10.00" fill="#000000">Bi</text>
<text text-anchor="middle" x="470.2792" y="-122.5" font-family="Arial" font-size="10.00" fill="#000000">Pan</text>
<text text-anchor="middle" x="470.2792" y="-111.5" font-family="Arial" font-size="10.00" fill="#000000">B2</text>
</a>
</g>
</g>
<!-- supriya.ugens.BufRd.BufRd -->
<g id="node9" class="node">
<title>supriya.ugens.BufRd.BufRd</title>
<g id="a_node9"><a xlink:href="../api/supriya/ugens/BufRd.html#supriya.ugens.BufRd.BufRd" xlink:title="Buf\nRd" target="_top">
<path fill="#decbe4" stroke="#decbe4" stroke-width="2" d="M556.9017,-126C556.9017,-126 547.5684,-126 547.5684,-126 542.9017,-126 538.2351,-121.3333 538.2351,-116.6667 538.2351,-116.6667 538.2351,-105.3333 538.2351,-105.3333 538.2351,-100.6667 542.9017,-96 547.5684,-96 547.5684,-96 556.9017,-96 556.9017,-96 561.5684,-96 566.2351,-100.6667 566.2351,-105.3333 566.2351,-105.3333 566.2351,-116.6667 566.2351,-116.6667 566.2351,-121.3333 561.5684,-126 556.9017,-126"/>
<text text-anchor="middle" x="552.2351" y="-114" font-family="Arial" font-size="10.00" fill="#000000">Buf</text>
<text text-anchor="middle" x="552.2351" y="-103" font-family="Arial" font-size="10.00" fill="#000000">Rd</text>
</a>
</g>
</g>
<!-- supriya.ugens.Control.Control -->
<g id="node10" class="node">
<title>supriya.ugens.Control.Control</title>
<g id="a_node10"><a xlink:href="../api/supriya/ugens/Control.html#supriya.ugens.Control.Control" xlink:title="Control" target="_top">
<path fill="#decbe4" stroke="#decbe4" stroke-width="2" d="M484.4459,-203.5C484.4459,-203.5 456.1126,-203.5 456.1126,-203.5 452.9459,-203.5 449.7792,-200.3333 449.7792,-197.1667 449.7792,-197.1667 449.7792,-190.8333 449.7792,-190.8333 449.7792,-187.6667 452.9459,-184.5 456.1126,-184.5 456.1126,-184.5 484.4459,-184.5 484.4459,-184.5 487.6126,-184.5 490.7792,-187.6667 490.7792,-190.8333 490.7792,-190.8333 490.7792,-197.1667 490.7792,-197.1667 490.7792,-200.3333 487.6126,-203.5 484.4459,-203.5"/>
<text text-anchor="middle" x="470.2792" y="-191.5" font-family="Arial" font-size="10.00" fill="#000000">Control</text>
</a>
</g>
</g>
<!-- supriya.ugens.LagControl.LagControl -->
<g id="node11" class="node">
<title>supriya.ugens.LagControl.LagControl</title>
<g id="a_node11"><a xlink:href="../api/supriya/ugens/LagControl.html#supriya.ugens.LagControl.LagControl" xlink:title="Lag\nControl" target="_top">
<path fill="#decbe4" stroke="#decbe4" stroke-width="2" d="M640.2351,-194C640.2351,-194 619.2351,-194 619.2351,-194 614.2351,-194 609.2351,-189 609.2351,-184 609.2351,-184 609.2351,-174 609.2351,-174 609.2351,-169 614.2351,-164 619.2351,-164 619.2351,-164 640.2351,-164 640.2351,-164 645.2351,-164 650.2351,-169 650.2351,-174 650.2351,-174 650.2351,-184 650.2351,-184 650.2351,-189 645.2351,-194 640.2351,-194"/>
<text text-anchor="middle" x="629.7351" y="-182" font-family="Arial" font-size="10.00" fill="#000000">Lag</text>
<text text-anchor="middle" x="629.7351" y="-171" font-family="Arial" font-size="10.00" fill="#000000">Control</text>
</a>
</g>
</g>
<!-- supriya.ugens.TrigControl.TrigControl -->
<g id="node12" class="node">
<title>supriya.ugens.TrigControl.TrigControl</title>
<g id="a_node12"><a xlink:href="../api/supriya/ugens/TrigControl.html#supriya.ugens.TrigControl.TrigControl" xlink:title="Trig\nControl" target="_top">
<path fill="#decbe4" stroke="#decbe4" stroke-width="2" d="M717.7351,-228C717.7351,-228 696.7351,-228 696.7351,-228 691.7351,-228 686.7351,-223 686.7351,-218 686.7351,-218 686.7351,-208 686.7351,-208 686.7351,-203 691.7351,-198 696.7351,-198 696.7351,-198 717.7351,-198 717.7351,-198 722.7351,-198 727.7351,-203 727.7351,-208 727.7351,-208 727.7351,-218 727.7351,-218 727.7351,-223 722.7351,-228 717.7351,-228"/>
<text text-anchor="middle" x="707.2351" y="-216" font-family="Arial" font-size="10.00" fill="#000000">Trig</text>
<text text-anchor="middle" x="707.2351" y="-205" font-family="Arial" font-size="10.00" fill="#000000">Control</text>
</a>
</g>
</g>
<!-- supriya.ugens.DecodeB2.DecodeB2 -->
<g id="node13" class="node">
<title>supriya.ugens.DecodeB2.DecodeB2</title>
<g id="a_node13"><a xlink:href="../api/supriya/ugens/DecodeB2.html#supriya.ugens.DecodeB2.DecodeB2" xlink:title="Decode\nB2" target="_top">
<path fill="#decbe4" stroke="#decbe4" stroke-width="2" d="M640.7351,-262C640.7351,-262 618.7351,-262 618.7351,-262 613.7351,-262 608.7351,-257 608.7351,-252 608.7351,-252 608.7351,-242 608.7351,-242 608.7351,-237 613.7351,-232 618.7351,-232 618.7351,-232 640.7351,-232 640.7351,-232 645.7351,-232 650.7351,-237 650.7351,-242 650.7351,-242 650.7351,-252 650.7351,-252 650.7351,-257 645.7351,-262 640.7351,-262"/>
<text text-anchor="middle" x="629.7351" y="-250" font-family="Arial" font-size="10.00" fill="#000000">Decode</text>
<text text-anchor="middle" x="629.7351" y="-239" font-family="Arial" font-size="10.00" fill="#000000">B2</text>
</a>
</g>
</g>
<!-- supriya.ugens.Demand.Demand -->
<g id="node14" class="node">
<title>supriya.ugens.Demand.Demand</title>
<g id="a_node14"><a xlink:href="../api/supriya/ugens/Demand.html#supriya.ugens.Demand.Demand" xlink:title="Demand" target="_top">
<path fill="#decbe4" stroke="#decbe4" stroke-width="2" d="M486.4459,-261.5C486.4459,-261.5 454.1126,-261.5 454.1126,-261.5 450.9459,-261.5 447.7792,-258.3333 447.7792,-255.1667 447.7792,-255.1667 447.7792,-248.8333 447.7792,-248.8333 447.7792,-245.6667 450.9459,-242.5 454.1126,-242.5 454.1126,-242.5 486.4459,-242.5 486.4459,-242.5 489.6126,-242.5 492.7792,-245.6667 492.7792,-248.8333 492.7792,-248.8333 492.7792,-255.1667 492.7792,-255.1667 492.7792,-258.3333 489.6126,-261.5 486.4459,-261.5"/>
<text text-anchor="middle" x="470.2792" y="-249.5" font-family="Arial" font-size="10.00" fill="#000000">Demand</text>
</a>
</g>
</g>
<!-- supriya.ugens.DiskIn.DiskIn -->
<g id="node15" class="node">
<title>supriya.ugens.DiskIn.DiskIn</title>
<g id="a_node15"><a xlink:href="../api/supriya/ugens/DiskIn.html#supriya.ugens.DiskIn.DiskIn" xlink:title="Disk\nIn" target="_top">
<path fill="#decbe4" stroke="#decbe4" stroke-width="2" d="M557.7351,-282C557.7351,-282 546.7351,-282 546.7351,-282 541.7351,-282 536.7351,-277 536.7351,-272 536.7351,-272 536.7351,-262 536.7351,-262 536.7351,-257 541.7351,-252 546.7351,-252 546.7351,-252 557.7351,-252 557.7351,-252 562.7351,-252 567.7351,-257 567.7351,-262 567.7351,-262 567.7351,-272 567.7351,-272 567.7351,-277 562.7351,-282 557.7351,-282"/>
<text text-anchor="middle" x="552.2351" y="-270" font-family="Arial" font-size="10.00" fill="#000000">Disk</text>
<text text-anchor="middle" x="552.2351" y="-259" font-family="Arial" font-size="10.00" fill="#000000">In</text>
</a>
</g>
</g>
<!-- supriya.ugens.GrainBuf.GrainBuf -->
<g id="node16" class="node">
<title>supriya.ugens.GrainBuf.GrainBuf</title>
<g id="a_node16"><a xlink:href="../api/supriya/ugens/GrainBuf.html#supriya.ugens.GrainBuf.GrainBuf" xlink:title="Grain\nBuf" target="_top">
<path fill="#decbe4" stroke="#decbe4" stroke-width="2" d="M637.2351,-316C637.2351,-316 622.2351,-316 622.2351,-316 617.2351,-316 612.2351,-311 612.2351,-306 612.2351,-306 612.2351,-296 612.2351,-296 612.2351,-291 617.2351,-286 622.2351,-286 622.2351,-286 637.2351,-286 637.2351,-286 642.2351,-286 647.2351,-291 647.2351,-296 647.2351,-296 647.2351,-306 647.2351,-306 647.2351,-311 642.2351,-316 637.2351,-316"/>
<text text-anchor="middle" x="629.7351" y="-304" font-family="Arial" font-size="10.00" fill="#000000">Grain</text>
<text text-anchor="middle" x="629.7351" y="-293" font-family="Arial" font-size="10.00" fill="#000000">Buf</text>
</a>
</g>
</g>
<!-- supriya.ugens.GrainIn.GrainIn -->
<g id="node17" class="node">
<title>supriya.ugens.GrainIn.GrainIn</title>
<g id="a_node17"><a xlink:href="../api/supriya/ugens/GrainIn.html#supriya.ugens.GrainIn.GrainIn" xlink:title="Grain\nIn" target="_top">
<path fill="#decbe4" stroke="#decbe4" stroke-width="2" d="M477.7792,-350C477.7792,-350 462.7792,-350 462.7792,-350 457.7792,-350 452.7792,-345 452.7792,-340 452.7792,-340 452.7792,-330 452.7792,-330 452.7792,-325 457.7792,-320 462.7792,-320 462.7792,-320 477.7792,-320 477.7792,-320 482.7792,-320 487.7792,-325 487.7792,-330 487.7792,-330 487.7792,-340 487.7792,-340 487.7792,-345 482.7792,-350 477.7792,-350"/>
<text text-anchor="middle" x="470.2792" y="-338" font-family="Arial" font-size="10.00" fill="#000000">Grain</text>
<text text-anchor="middle" x="470.2792" y="-327" font-family="Arial" font-size="10.00" fill="#000000">In</text>
</a>
</g>
</g>
<!-- supriya.ugens.Hilbert.Hilbert -->
<g id="node18" class="node">
<title>supriya.ugens.Hilbert.Hilbert</title>
<g id="a_node18"><a xlink:href="../api/supriya/ugens/Hilbert.html#supriya.ugens.Hilbert.Hilbert" xlink:title="Hilbert" target="_top">
<path fill="#decbe4" stroke="#decbe4" stroke-width="2" d="M564.9017,-369.5C564.9017,-369.5 539.5684,-369.5 539.5684,-369.5 536.4017,-369.5 533.2351,-366.3333 533.2351,-363.1667 533.2351,-363.1667 533.2351,-356.8333 533.2351,-356.8333 533.2351,-353.6667 536.4017,-350.5 539.5684,-350.5 539.5684,-350.5 564.9017,-350.5 564.9017,-350.5 568.0684,-350.5 571.2351,-353.6667 571.2351,-356.8333 571.2351,-356.8333 571.2351,-363.1667 571.2351,-363.1667 571.2351,-366.3333 568.0684,-369.5 564.9017,-369.5"/>
<text text-anchor="middle" x="552.2351" y="-357.5" font-family="Arial" font-size="10.00" fill="#000000">Hilbert</text>
</a>
</g>
</g>
<!-- supriya.ugens.In.In -->
<g id="node19" class="node">
<title>supriya.ugens.In.In</title>
<g id="a_node19"><a xlink:href="../api/supriya/ugens/In.html#supriya.ugens.In.In" xlink:title="In" target="_top">
<path fill="#decbe4" stroke="#decbe4" stroke-width="2" d="M634.9017,-398.5C634.9017,-398.5 624.5684,-398.5 624.5684,-398.5 621.4017,-398.5 618.2351,-395.3333 618.2351,-392.1667 618.2351,-392.1667 618.2351,-385.8333 618.2351,-385.8333 618.2351,-382.6667 621.4017,-379.5 624.5684,-379.5 624.5684,-379.5 634.9017,-379.5 634.9017,-379.5 638.0684,-379.5 641.2351,-382.6667 641.2351,-385.8333 641.2351,-385.8333 641.2351,-392.1667 641.2351,-392.1667 641.2351,-395.3333 638.0684,-398.5 634.9017,-398.5"/>
<text text-anchor="middle" x="629.7351" y="-386.5" font-family="Arial" font-size="10.00" fill="#000000">In</text>
</a>
</g>
</g>
<!-- supriya.ugens.InFeedback.InFeedback -->
<g id="node20" class="node">
<title>supriya.ugens.InFeedback.InFeedback</title>
<g id="a_node20"><a xlink:href="../api/supriya/ugens/InFeedback.html#supriya.ugens.InFeedback.InFeedback" xlink:title="In\nFeedback" target="_top">
<path fill="#decbe4" stroke="#decbe4" stroke-width="2" d="M484.7792,-438C484.7792,-438 455.7792,-438 455.7792,-438 450.7792,-438 445.7792,-433 445.7792,-428 445.7792,-428 445.7792,-418 445.7792,-418 445.7792,-413 450.7792,-408 455.7792,-408 455.7792,-408 484.7792,-408 484.7792,-408 489.7792,-408 494.7792,-413 494.7792,-418 494.7792,-418 494.7792,-428 494.7792,-428 494.7792,-433 489.7792,-438 484.7792,-438"/>
<text text-anchor="middle" x="470.2792" y="-426" font-family="Arial" font-size="10.00" fill="#000000">In</text>
<text text-anchor="middle" x="470.2792" y="-415" font-family="Arial" font-size="10.00" fill="#000000">Feedback</text>
</a>
</g>
</g>
<!-- supriya.ugens.LocalIn.LocalIn -->
<g id="node21" class="node">
<title>supriya.ugens.LocalIn.LocalIn</title>
<g id="a_node21"><a xlink:href="../api/supriya/ugens/LocalIn.html#supriya.ugens.LocalIn.LocalIn" xlink:title="Local\nIn" target="_top">
<path fill="#decbe4" stroke="#decbe4" stroke-width="2" d="M559.2351,-458C559.2351,-458 545.2351,-458 545.2351,-458 540.2351,-458 535.2351,-453 535.2351,-448 535.2351,-448 535.2351,-438 535.2351,-438 535.2351,-433 540.2351,-428 545.2351,-428 545.2351,-428 559.2351,-428 559.2351,-428 564.2351,-428 569.2351,-433 569.2351,-438 569.2351,-438 569.2351,-448 569.2351,-448 569.2351,-453 564.2351,-458 559.2351,-458"/>
<text text-anchor="middle" x="552.2351" y="-446" font-family="Arial" font-size="10.00" fill="#000000">Local</text>
<text text-anchor="middle" x="552.2351" y="-435" font-family="Arial" font-size="10.00" fill="#000000">In</text>
</a>
</g>
</g>
<!-- supriya.ugens.MFCC.MFCC -->
<g id="node22" class="node">
<title>supriya.ugens.MFCC.MFCC</title>
<g id="a_node22"><a xlink:href="../api/supriya/ugens/MFCC.html#supriya.ugens.MFCC.MFCC" xlink:title="MFCC" target="_top">
<path fill="#decbe4" stroke="#decbe4" stroke-width="2" d="M642.4017,-486.5C642.4017,-486.5 617.0684,-486.5 617.0684,-486.5 613.9017,-486.5 610.7351,-483.3333 610.7351,-480.1667 610.7351,-480.1667 610.7351,-473.8333 610.7351,-473.8333 610.7351,-470.6667 613.9017,-467.5 617.0684,-467.5 617.0684,-467.5 642.4017,-467.5 642.4017,-467.5 645.5684,-467.5 648.7351,-470.6667 648.7351,-473.8333 648.7351,-473.8333 648.7351,-480.1667 648.7351,-480.1667 648.7351,-483.3333 645.5684,-486.5 642.4017,-486.5"/>
<text text-anchor="middle" x="629.7351" y="-474.5" font-family="Arial" font-size="10.00" fill="#000000">MFCC</text>
</a>
</g>
</g>
<!-- supriya.ugens.MultiOutUGen.MultiOutUGen -->
<g id="node23" class="node">
<title>supriya.ugens.MultiOutUGen.MultiOutUGen</title>
<g id="a_node23"><a xlink:href="../api/supriya/ugens/MultiOutUGen.html#supriya.ugens.MultiOutUGen.MultiOutUGen" xlink:title="Multi\nOut\nUGen" target="_top">
<ellipse fill="#000000" stroke="#000000" stroke-width="2" cx="383.3675" cy="-406" rx="25.4118" ry="28.9828"/>
<text text-anchor="middle" x="383.3675" y="-414.5" font-family="Arial" font-size="10.00" fill="#ffffff">Multi</text>
<text text-anchor="middle" x="383.3675" y="-403.5" font-family="Arial" font-size="10.00" fill="#ffffff">Out</text>
<text text-anchor="middle" x="383.3675" y="-392.5" font-family="Arial" font-size="10.00" fill="#ffffff">UGen</text>
</a>
</g>
</g>
<!-- supriya.ugens.Pan2.Pan2 -->
<g id="node24" class="node">
<title>supriya.ugens.Pan2.Pan2</title>
<g id="a_node24"><a xlink:href="../api/supriya/ugens/Pan2.html#supriya.ugens.Pan2.Pan2" xlink:title="Pan\n2" target="_top">
<path fill="#decbe4" stroke="#decbe4" stroke-width="2" d="M475.2792,-526C475.2792,-526 465.2792,-526 465.2792,-526 460.2792,-526 455.2792,-521 455.2792,-516 455.2792,-516 455.2792,-506 455.2792,-506 455.2792,-501 460.2792,-496 465.2792,-496 465.2792,-496 475.2792,-496 475.2792,-496 480.2792,-496 485.2792,-501 485.2792,-506 485.2792,-506 485.2792,-516 485.2792,-516 485.2792,-521 480.2792,-526 475.2792,-526"/>
<text text-anchor="middle" x="470.2792" y="-514" font-family="Arial" font-size="10.00" fill="#000000">Pan</text>
<text text-anchor="middle" x="470.2792" y="-503" font-family="Arial" font-size="10.00" fill="#000000">2</text>
</a>
</g>
</g>
<!-- supriya.ugens.Pan4.Pan4 -->
<g id="node25" class="node">
<title>supriya.ugens.Pan4.Pan4</title>
<g id="a_node25"><a xlink:href="../api/supriya/ugens/Pan4.html#supriya.ugens.Pan4.Pan4" xlink:title="Pan\n4" target="_top">
<path fill="#decbe4" stroke="#decbe4" stroke-width="2" d="M557.2351,-546C557.2351,-546 547.2351,-546 547.2351,-546 542.2351,-546 537.2351,-541 537.2351,-536 537.2351,-536 537.2351,-526 537.2351,-526 537.2351,-521 542.2351,-516 547.2351,-516 547.2351,-516 557.2351,-516 557.2351,-516 562.2351,-516 567.2351,-521 567.2351,-526 567.2351,-526 567.2351,-536 567.2351,-536 567.2351,-541 562.2351,-546 557.2351,-546"/>
<text text-anchor="middle" x="552.2351" y="-534" font-family="Arial" font-size="10.00" fill="#000000">Pan</text>
<text text-anchor="middle" x="552.2351" y="-523" font-family="Arial" font-size="10.00" fill="#000000">4</text>
</a>
</g>
</g>
<!-- supriya.ugens.PanAz.PanAz -->
<g id="node26" class="node">
<title>supriya.ugens.PanAz.PanAz</title>
<g id="a_node26"><a xlink:href="../api/supriya/ugens/PanAz.html#supriya.ugens.PanAz.PanAz" xlink:title="Pan\nAz" target="_top">
<path fill="#decbe4" stroke="#decbe4" stroke-width="2" d="M634.7351,-580C634.7351,-580 624.7351,-580 624.7351,-580 619.7351,-580 614.7351,-575 614.7351,-570 614.7351,-570 614.7351,-560 614.7351,-560 614.7351,-555 619.7351,-550 624.7351,-550 624.7351,-550 634.7351,-550 634.7351,-550 639.7351,-550 644.7351,-555 644.7351,-560 644.7351,-560 644.7351,-570 644.7351,-570 644.7351,-575 639.7351,-580 634.7351,-580"/>
<text text-anchor="middle" x="629.7351" y="-568" font-family="Arial" font-size="10.00" fill="#000000">Pan</text>
<text text-anchor="middle" x="629.7351" y="-557" font-family="Arial" font-size="10.00" fill="#000000">Az</text>
</a>
</g>
</g>
<!-- supriya.ugens.PanB.PanB -->
<g id="node27" class="node">
<title>supriya.ugens.PanB.PanB</title>
<g id="a_node27"><a xlink:href="../api/supriya/ugens/PanB.html#supriya.ugens.PanB.PanB" xlink:title="Pan\nB" target="_top">
<path fill="#decbe4" stroke="#decbe4" stroke-width="2" d="M475.2792,-614C475.2792,-614 465.2792,-614 465.2792,-614 460.2792,-614 455.2792,-609 455.2792,-604 455.2792,-604 455.2792,-594 455.2792,-594 455.2792,-589 460.2792,-584 465.2792,-584 465.2792,-584 475.2792,-584 475.2792,-584 480.2792,-584 485.2792,-589 485.2792,-594 485.2792,-594 485.2792,-604 485.2792,-604 485.2792,-609 480.2792,-614 475.2792,-614"/>
<text text-anchor="middle" x="470.2792" y="-602" font-family="Arial" font-size="10.00" fill="#000000">Pan</text>
<text text-anchor="middle" x="470.2792" y="-591" font-family="Arial" font-size="10.00" fill="#000000">B</text>
</a>
</g>
</g>
<!-- supriya.ugens.PanB2.PanB2 -->
<g id="node28" class="node">
<title>supriya.ugens.PanB2.PanB2</title>
<g id="a_node28"><a xlink:href="../api/supriya/ugens/PanB2.html#supriya.ugens.PanB2.PanB2" xlink:title="Pan\nB2" target="_top">
<path fill="#decbe4" stroke="#decbe4" stroke-width="2" d="M557.2351,-634C557.2351,-634 547.2351,-634 547.2351,-634 542.2351,-634 537.2351,-629 537.2351,-624 537.2351,-624 537.2351,-614 537.2351,-614 537.2351,-609 542.2351,-604 547.2351,-604 547.2351,-604 557.2351,-604 557.2351,-604 562.2351,-604 567.2351,-609 567.2351,-614 567.2351,-614 567.2351,-624 567.2351,-624 567.2351,-629 562.2351,-634 557.2351,-634"/>
<text text-anchor="middle" x="552.2351" y="-622" font-family="Arial" font-size="10.00" fill="#000000">Pan</text>
<text text-anchor="middle" x="552.2351" y="-611" font-family="Arial" font-size="10.00" fill="#000000">B2</text>
</a>
</g>
</g>
<!-- supriya.ugens.PlayBuf.PlayBuf -->
<g id="node29" class="node">
<title>supriya.ugens.PlayBuf.PlayBuf</title>
<g id="a_node29"><a xlink:href="../api/supriya/ugens/PlayBuf.html#supriya.ugens.PlayBuf.PlayBuf" xlink:title="Play\nBuf" target="_top">
<path fill="#decbe4" stroke="#decbe4" stroke-width="2" d="M635.2351,-668C635.2351,-668 624.2351,-668 624.2351,-668 619.2351,-668 614.2351,-663 614.2351,-658 614.2351,-658 614.2351,-648 614.2351,-648 614.2351,-643 619.2351,-638 624.2351,-638 624.2351,-638 635.2351,-638 635.2351,-638 640.2351,-638 645.2351,-643 645.2351,-648 645.2351,-648 645.2351,-658 645.2351,-658 645.2351,-663 640.2351,-668 635.2351,-668"/>
<text text-anchor="middle" x="629.7351" y="-656" font-family="Arial" font-size="10.00" fill="#000000">Play</text>
<text text-anchor="middle" x="629.7351" y="-645" font-family="Arial" font-size="10.00" fill="#000000">Buf</text>
</a>
</g>
</g>
<!-- supriya.ugens.PureMultiOutUGen.PureMultiOutUGen -->
<g id="node30" class="node">
<title>supriya.ugens.PureMultiOutUGen.PureMultiOutUGen</title>
<g id="a_node30"><a xlink:href="../api/supriya/ugens/PureMultiOutUGen.html#supriya.ugens.PureMultiOutUGen.PureMultiOutUGen" xlink:title="Pure\nMulti\nOut\nUGen" target="_top">
<ellipse fill="none" stroke="#decbe4" stroke-width="2" cx="470.2792" cy="-709" rx="25.4118" ry="36.5405"/>
<text text-anchor="middle" x="470.2792" y="-723" font-family="Arial" font-size="10.00" fill="#000000">Pure</text>
<text text-anchor="middle" x="470.2792" y="-712" font-family="Arial" font-size="10.00" fill="#000000">Multi</text>
<text text-anchor="middle" x="470.2792" y="-701" font-family="Arial" font-size="10.00" fill="#000000">Out</text>
<text text-anchor="middle" x="470.2792" y="-690" font-family="Arial" font-size="10.00" fill="#000000">UGen</text>
</a>
</g>
</g>
<!-- supriya.ugens.Rotate2.Rotate2 -->
<g id="node31" class="node">
<title>supriya.ugens.Rotate2.Rotate2</title>
<g id="a_node31"><a xlink:href="../api/supriya/ugens/Rotate2.html#supriya.ugens.Rotate2.Rotate2" xlink:title="Rotate\n2" target="_top">
<path fill="#decbe4" stroke="#decbe4" stroke-width="2" d="M561.7351,-766C561.7351,-766 542.7351,-766 542.7351,-766 537.7351,-766 532.7351,-761 532.7351,-756 532.7351,-756 532.7351,-746 532.7351,-746 532.7351,-741 537.7351,-736 542.7351,-736 542.7351,-736 561.7351,-736 561.7351,-736 566.7351,-736 571.7351,-741 571.7351,-746 571.7351,-746 571.7351,-756 571.7351,-756 571.7351,-761 566.7351,-766 561.7351,-766"/>
<text text-anchor="middle" x="552.2351" y="-754" font-family="Arial" font-size="10.00" fill="#000000">Rotate</text>
<text text-anchor="middle" x="552.2351" y="-743" font-family="Arial" font-size="10.00" fill="#000000">2</text>
</a>
</g>
</g>
<!-- supriya.ugens.VDiskIn.VDiskIn -->
<g id="node32" class="node">
<title>supriya.ugens.VDiskIn.VDiskIn</title>
<g id="a_node32"><a xlink:href="../api/supriya/ugens/VDiskIn.html#supriya.ugens.VDiskIn.VDiskIn" xlink:title="VDisk\nIn" target="_top">
<path fill="#decbe4" stroke="#decbe4" stroke-width="2" d="M637.7351,-800C637.7351,-800 621.7351,-800 621.7351,-800 616.7351,-800 611.7351,-795 611.7351,-790 611.7351,-790 611.7351,-780 611.7351,-780 611.7351,-775 616.7351,-770 621.7351,-770 621.7351,-770 637.7351,-770 637.7351,-770 642.7351,-770 647.7351,-775 647.7351,-780 647.7351,-780 647.7351,-790 647.7351,-790 647.7351,-795 642.7351,-800 637.7351,-800"/>
<text text-anchor="middle" x="629.7351" y="-788" font-family="Arial" font-size="10.00" fill="#000000">VDisk</text>
<text text-anchor="middle" x="629.7351" y="-777" font-family="Arial" font-size="10.00" fill="#000000">In</text>
</a>
</g>
</g>
<!-- supriya.ugens.Warp1.Warp1 -->
<g id="node33" class="node">
<title>supriya.ugens.Warp1.Warp1</title>
<g id="a_node33"><a xlink:href="../api/supriya/ugens/Warp1.html#supriya.ugens.Warp1.Warp1" xlink:title="Warp\n1" target="_top">
<path fill="#decbe4" stroke="#decbe4" stroke-width="2" d="M477.2792,-834C477.2792,-834 463.2792,-834 463.2792,-834 458.2792,-834 453.2792,-829 453.2792,-824 453.2792,-824 453.2792,-814 453.2792,-814 453.2792,-809 458.2792,-804 463.2792,-804 463.2792,-804 477.2792,-804 477.2792,-804 482.2792,-804 487.2792,-809 487.2792,-814 487.2792,-814 487.2792,-824 487.2792,-824 487.2792,-829 482.2792,-834 477.2792,-834"/>
<text text-anchor="middle" x="470.2792" y="-822" font-family="Arial" font-size="10.00" fill="#000000">Warp</text>
<text text-anchor="middle" x="470.2792" y="-811" font-family="Arial" font-size="10.00" fill="#000000">1</text>
</a>
</g>
</g>
<!-- supriya.ugens.UGen.UGen -->
<g id="node34" class="node">
<title>supriya.ugens.UGen.UGen</title>
<g id="a_node34"><a xlink:href="../api/supriya/ugens/UGen.html#supriya.ugens.UGen.UGen" xlink:title="UGen" target="_top">
<ellipse fill="none" stroke="#decbe4" stroke-width="2" cx="296.4558" cy="-406" rx="25.4118" ry="13.3704"/>
<text text-anchor="middle" x="296.4558" y="-403.5" font-family="Arial" font-size="10.00" fill="#000000">UGen</text>
</a>
</g>
</g>
</g>
</svg>
