<?xml version="1.0" encoding="UTF-8" standalone="no"?>
<!DOCTYPE svg PUBLIC "-//W3C//DTD SVG 1.1//EN"
 "http://www.w3.org/Graphics/SVG/1.1/DTD/svg11.dtd">
<!-- Generated by graphviz version 2.40.1 (20161225.0304)
 -->
<!-- Title: InheritanceGraph Pages: 1 -->
<svg width="473pt" height="174pt"
 viewBox="0.00 0.00 472.91 174.00" xmlns="http://www.w3.org/2000/svg" xmlns:xlink="http://www.w3.org/1999/xlink">
<g id="graph0" class="graph" transform="scale(1 1) rotate(0) translate(4 170)">
<title>InheritanceGraph</title>
<g id="clust1" class="cluster">
<title>cluster_builtins</title>
<path fill="transparent" stroke="#bcd2ee" stroke-width="2" stroke-dasharray="5,2" d="M20,-92C20,-92 49,-92 49,-92 55,-92 61,-98 61,-104 61,-104 61,-135 61,-135 61,-141 55,-147 49,-147 49,-147 20,-147 20,-147 14,-147 8,-141 8,-135 8,-135 8,-104 8,-104 8,-98 14,-92 20,-92"/>
<text text-anchor="middle" x="34.5" y="-135" font-family="Arial" font-size="10.00" fill="#000000">builtins</text>
</g>
<g id="clust2" class="cluster">
<title>cluster_supriya.daw</title>
<path fill="transparent" stroke="#bcd2ee" stroke-width="2" stroke-dasharray="5,2" d="M257,-8C257,-8 444.9117,-8 444.9117,-8 450.9117,-8 456.9117,-14 456.9117,-20 456.9117,-20 456.9117,-61 456.9117,-61 456.9117,-67 450.9117,-73 444.9117,-73 444.9117,-73 257,-73 257,-73 251,-73 245,-67 245,-61 245,-61 245,-20 245,-20 245,-14 251,-8 257,-8"/>
<text text-anchor="middle" x="350.9558" y="-61" font-family="Arial" font-size="10.00" fill="#000000">supriya.daw</text>
</g>
<g id="clust3" class="cluster">
<title>cluster_uqbar.containers</title>
<path fill="transparent" stroke="#bcd2ee" stroke-width="2" stroke-dasharray="5,2" d="M93,-81C93,-81 286,-81 286,-81 292,-81 298,-87 298,-93 298,-93 298,-146 298,-146 298,-152 292,-158 286,-158 286,-158 93,-158 93,-158 87,-158 81,-152 81,-146 81,-146 81,-93 81,-93 81,-87 87,-81 93,-81"/>
<text text-anchor="middle" x="189.5" y="-146" font-family="Arial" font-size="10.00" fill="#000000">uqbar.containers</text>
</g>
<!-- builtins.object&#45;&gt;uqbar.containers.UniqueTreeNode.UniqueTreeNode -->
<g id="edge5" class="edge">
<title>builtins.object&#45;&gt;uqbar.containers.UniqueTreeNode.UniqueTreeNode</title>
<path fill="none" stroke="#778899" d="M53.2995,-110C61.0221,-110 70.1602,-110 78.7776,-110"/>
<polygon fill="#778899" stroke="#778899" points="78.9006,-113.5001 88.9006,-110 78.9005,-106.5001 78.9006,-113.5001"/>
</g>
<!-- supriya.daw.Chain.Chain&#45;&gt;supriya.daw.MidiChain.MidiChain -->
<g id="edge1" class="edge">
<title>supriya.daw.Chain.Chain&#45;&gt;supriya.daw.MidiChain.MidiChain</title>
<path fill="none" stroke="#778899" d="M377.0335,-31C385.1994,-31 394.2828,-31 402.6293,-31"/>
<polygon fill="#778899" stroke="#778899" points="402.6829,-34.5001 412.6829,-31 402.6829,-27.5001 402.6829,-34.5001"/>
</g>
<!-- supriya.daw.DawNode.DawNode&#45;&gt;supriya.daw.Chain.Chain -->
<g id="edge2" class="edge">
<title>supriya.daw.DawNode.DawNode&#45;&gt;supriya.daw.Chain.Chain</title>
<path fill="none" stroke="#778899" d="M287.2747,-31C295.5932,-31 305.8918,-31 315.786,-31"/>
<polygon fill="#778899" stroke="#778899" points="315.8504,-34.5001 325.8504,-31 315.8503,-27.5001 315.8504,-34.5001"/>
</g>
<!-- uqbar.containers.UniqueTreeContainer.UniqueTreeContainer&#45;&gt;uqbar.containers.UniqueTreeTuple.UniqueTreeTuple -->
<g id="edge3" class="edge">
<title>uqbar.containers.UniqueTreeContainer.UniqueTreeContainer&#45;&gt;uqbar.containers.UniqueTreeTuple.UniqueTreeTuple</title>
<path fill="none" stroke="#778899" d="M214.0901,-110C222.1527,-110 231.2086,-110 239.6459,-110"/>
<polygon fill="#778899" stroke="#778899" points="239.8812,-113.5001 249.8811,-110 239.8811,-106.5001 239.8812,-113.5001"/>
</g>
<!-- uqbar.containers.UniqueTreeNode.UniqueTreeNode&#45;&gt;supriya.daw.DawNode.DawNode -->
<g id="edge6" class="edge">
<title>uqbar.containers.UniqueTreeNode.UniqueTreeNode&#45;&gt;supriya.daw.DawNode.DawNode</title>
<path fill="none" stroke="#778899" d="M129.135,-99.3664C139.759,-93.8082 153.0379,-86.9434 165,-81 191.6563,-67.7558 222.432,-53.1843 243.7428,-43.2062"/>
<polygon fill="#778899" stroke="#778899" points="245.2406,-46.3697 252.8195,-38.9662 242.2779,-40.0275 245.2406,-46.3697"/>
</g>
<!-- uqbar.containers.UniqueTreeNode.UniqueTreeNode&#45;&gt;uqbar.containers.UniqueTreeContainer.UniqueTreeContainer -->
<g id="edge4" class="edge">
<title>uqbar.containers.UniqueTreeNode.UniqueTreeNode&#45;&gt;uqbar.containers.UniqueTreeContainer.UniqueTreeContainer</title>
<path fill="none" stroke="#778899" d="M129.3135,-110C136.9959,-110 145.9745,-110 154.617,-110"/>
<polygon fill="#778899" stroke="#778899" points="154.8826,-113.5001 164.8825,-110 154.8825,-106.5001 154.8826,-113.5001"/>
</g>
<!-- uqbar.containers.UniqueTreeTuple.UniqueTreeTuple&#45;&gt;supriya.daw.Chain.Chain -->
<g id="edge7" class="edge">
<title>uqbar.containers.UniqueTreeTuple.UniqueTreeTuple&#45;&gt;supriya.daw.Chain.Chain</title>
<path fill="none" stroke="#778899" d="M290.1352,-90.4719C302.7759,-78.2122 319.0082,-62.4693 331.5963,-50.2608"/>
<polygon fill="#778899" stroke="#778899" points="334.1568,-52.6532 338.8985,-43.1787 329.2833,-47.6283 334.1568,-52.6532"/>
</g>
<!-- builtins.object -->
<g id="node1" class="node">
<title>builtins.object</title>
<g id="a_node1"><a xlink:href="https://docs.python.org/3.6/library/functions.html#object" xlink:title="object" target="_top">
<path fill="#fbb4ae" stroke="#fbb4ae" stroke-width="2" d="M46.6667,-119.5C46.6667,-119.5 22.3333,-119.5 22.3333,-119.5 19.1667,-119.5 16,-116.3333 16,-113.1667 16,-113.1667 16,-106.8333 16,-106.8333 16,-103.6667 19.1667,-100.5 22.3333,-100.5 22.3333,-100.5 46.6667,-100.5 46.6667,-100.5 49.8333,-100.5 53,-103.6667 53,-106.8333 53,-106.8333 53,-113.1667 53,-113.1667 53,-116.3333 49.8333,-119.5 46.6667,-119.5"/>
<text text-anchor="middle" x="34.5" y="-107.5" font-family="Arial" font-size="10.00" fill="#000000">object</text>
</a>
</g>
</g>
<!-- supriya.daw.Chain.Chain -->
<g id="node2" class="node">
<title>supriya.daw.Chain.Chain</title>
<g id="a_node2"><a xlink:href="../api/supriya/daw/Chain.html#supriya.daw.Chain.Chain" xlink:title="Chain" target="_top">
<ellipse fill="none" stroke="#b3cde3" stroke-width="2" cx="351.4558" cy="-31" rx="25.4118" ry="13.3704"/>
<text text-anchor="middle" x="351.4558" y="-28.5" font-family="Arial" font-size="10.00" fill="#000000">Chain</text>
</a>
</g>
</g>
<!-- supriya.daw.DawNode.DawNode -->
<g id="node3" class="node">
<title>supriya.daw.DawNode.DawNode</title>
<g id="a_node3"><a xlink:href="../api/supriya/daw/DawNode.html#supriya.daw.DawNode.DawNode" xlink:title="Daw\nNode" target="_top">
<path fill="#b3cde3" stroke="#b3cde3" stroke-width="2" d="M277,-46C277,-46 263,-46 263,-46 258,-46 253,-41 253,-36 253,-36 253,-26 253,-26 253,-21 258,-16 263,-16 263,-16 277,-16 277,-16 282,-16 287,-21 287,-26 287,-26 287,-36 287,-36 287,-41 282,-46 277,-46"/>
<text text-anchor="middle" x="270" y="-34" font-family="Arial" font-size="10.00" fill="#000000">Daw</text>
<text text-anchor="middle" x="270" y="-23" font-family="Arial" font-size="10.00" fill="#000000">Node</text>
</a>
</g>
</g>
<!-- supriya.daw.MidiChain.MidiChain -->
<g id="node4" class="node">
<title>supriya.daw.MidiChain.MidiChain</title>
<g id="a_node4"><a xlink:href="../api/supriya/daw/MidiChain.html#supriya.daw.MidiChain.MidiChain" xlink:title="Midi\nChain" target="_top">
<path fill="#000000" stroke="#000000" stroke-width="2" d="M438.9117,-46C438.9117,-46 422.9117,-46 422.9117,-46 417.9117,-46 412.9117,-41 412.9117,-36 412.9117,-36 412.9117,-26 412.9117,-26 412.9117,-21 417.9117,-16 422.9117,-16 422.9117,-16 438.9117,-16 438.9117,-16 443.9117,-16 448.9117,-21 448.9117,-26 448.9117,-26 448.9117,-36 448.9117,-36 448.9117,-41 443.9117,-46 438.9117,-46"/>
<text text-anchor="middle" x="430.9117" y="-34" font-family="Arial" font-size="10.00" fill="#ffffff">Midi</text>
<text text-anchor="middle" x="430.9117" y="-23" font-family="Arial" font-size="10.00" fill="#ffffff">Chain</text>
</a>
</g>
</g>
<!-- uqbar.containers.UniqueTreeContainer.UniqueTreeContainer -->
<g id="node5" class="node">
<title>uqbar.containers.UniqueTreeContainer.UniqueTreeContainer</title>
<path fill="#ccebc5" stroke="#ccebc5" stroke-width="2" d="M202,-130.5C202,-130.5 177,-130.5 177,-130.5 171,-130.5 165,-124.5 165,-118.5 165,-118.5 165,-101.5 165,-101.5 165,-95.5 171,-89.5 177,-89.5 177,-89.5 202,-89.5 202,-89.5 208,-89.5 214,-95.5 214,-101.5 214,-101.5 214,-118.5 214,-118.5 214,-124.5 208,-130.5 202,-130.5"/>
<text text-anchor="middle" x="189.5" y="-118.5" font-family="Arial" font-size="10.00" fill="#000000">Unique</text>
<text text-anchor="middle" x="189.5" y="-107.5" font-family="Arial" font-size="10.00" fill="#000000">Tree</text>
<text text-anchor="middle" x="189.5" y="-96.5" font-family="Arial" font-size="10.00" fill="#000000">Container</text>
</g>
<!-- uqbar.containers.UniqueTreeNode.UniqueTreeNode -->
<g id="node6" class="node">
<title>uqbar.containers.UniqueTreeNode.UniqueTreeNode</title>
<path fill="#ccebc5" stroke="#ccebc5" stroke-width="2" d="M117,-130.5C117,-130.5 101,-130.5 101,-130.5 95,-130.5 89,-124.5 89,-118.5 89,-118.5 89,-101.5 89,-101.5 89,-95.5 95,-89.5 101,-89.5 101,-89.5 117,-89.5 117,-89.5 123,-89.5 129,-95.5 129,-101.5 129,-101.5 129,-118.5 129,-118.5 129,-124.5 123,-130.5 117,-130.5"/>
<text text-anchor="middle" x="109" y="-118.5" font-family="Arial" font-size="10.00" fill="#000000">Unique</text>
<text text-anchor="middle" x="109" y="-107.5" font-family="Arial" font-size="10.00" fill="#000000">Tree</text>
<text text-anchor="middle" x="109" y="-96.5" font-family="Arial" font-size="10.00" fill="#000000">Node</text>
</g>
<!-- uqbar.containers.UniqueTreeTuple.UniqueTreeTuple -->
<g id="node7" class="node">
<title>uqbar.containers.UniqueTreeTuple.UniqueTreeTuple</title>
<path fill="#ccebc5" stroke="#ccebc5" stroke-width="2" d="M278,-130.5C278,-130.5 262,-130.5 262,-130.5 256,-130.5 250,-124.5 250,-118.5 250,-118.5 250,-101.5 250,-101.5 250,-95.5 256,-89.5 262,-89.5 262,-89.5 278,-89.5 278,-89.5 284,-89.5 290,-95.5 290,-101.5 290,-101.5 290,-118.5 290,-118.5 290,-124.5 284,-130.5 278,-130.5"/>
<text text-anchor="middle" x="270" y="-118.5" font-family="Arial" font-size="10.00" fill="#000000">Unique</text>
<text text-anchor="middle" x="270" y="-107.5" font-family="Arial" font-size="10.00" fill="#000000">Tree</text>
<text text-anchor="middle" x="270" y="-96.5" font-family="Arial" font-size="10.00" fill="#000000">Tuple</text>
</g>
</g>
</svg>
