<?xml version="1.0" encoding="UTF-8" standalone="no"?>
<!DOCTYPE svg PUBLIC "-//W3C//DTD SVG 1.1//EN"
 "http://www.w3.org/Graphics/SVG/1.1/DTD/svg11.dtd">
<!-- Generated by graphviz version 2.44.1 (20200629.0846)
 -->
<!-- Title: InheritanceGraph Pages: 1 -->
<svg width="722pt" height="571pt"
 viewBox="0.00 0.00 721.79 571.00" xmlns="http://www.w3.org/2000/svg" xmlns:xlink="http://www.w3.org/1999/xlink">
<g id="graph0" class="graph" transform="scale(1 1) rotate(0) translate(4 567)">
<title>InheritanceGraph</title>
<g id="clust1" class="cluster">
<title>cluster_builtins</title>
<path fill="transparent" stroke="#bcd2ee" stroke-width="2" stroke-dasharray="5,2" d="M20,-247C20,-247 55,-247 55,-247 61,-247 67,-253 67,-259 67,-259 67,-290 67,-290 67,-296 61,-302 55,-302 55,-302 20,-302 20,-302 14,-302 8,-296 8,-290 8,-290 8,-259 8,-259 8,-253 14,-247 20,-247"/>
<text text-anchor="middle" x="37.5" y="-290" font-family="Arial" font-size="10.00">builtins</text>
</g>
<g id="clust2" class="cluster">
<title>cluster_supriya.synthdefs.bases</title>
<path fill="transparent" stroke="#bcd2ee" stroke-width="2" stroke-dasharray="5,2" d="M384,-214C384,-214 530.79,-214 530.79,-214 536.79,-214 542.79,-220 542.79,-226 542.79,-226 542.79,-311 542.79,-311 542.79,-317 536.79,-323 530.79,-323 530.79,-323 384,-323 384,-323 378,-323 372,-317 372,-311 372,-311 372,-226 372,-226 372,-220 378,-214 384,-214"/>
<text text-anchor="middle" x="457.4" y="-311" font-family="Arial" font-size="10.00">supriya.synthdefs.bases</text>
</g>
<g id="clust3" class="cluster">
<title>cluster_supriya.synthdefs.mixins</title>
<path fill="transparent" stroke="#bcd2ee" stroke-width="2" stroke-dasharray="5,2" d="M239,-196C239,-196 340,-196 340,-196 346,-196 352,-202 352,-208 352,-208 352,-261 352,-261 352,-267 346,-273 340,-273 340,-273 239,-273 239,-273 233,-273 227,-267 227,-261 227,-261 227,-208 227,-208 227,-202 233,-196 239,-196"/>
<text text-anchor="middle" x="289.5" y="-261" font-family="Arial" font-size="10.00">supriya.synthdefs.mixins</text>
</g>
<g id="clust4" class="cluster">
<title>cluster_supriya.system</title>
<path fill="transparent" stroke="#bcd2ee" stroke-width="2" stroke-dasharray="5,2" d="M136,-205C136,-205 195,-205 195,-205 201,-205 207,-211 207,-217 207,-217 207,-258 207,-258 207,-264 201,-270 195,-270 195,-270 136,-270 136,-270 130,-270 124,-264 124,-258 124,-258 124,-217 124,-217 124,-211 130,-205 136,-205"/>
<text text-anchor="middle" x="165.5" y="-258" font-family="Arial" font-size="10.00">supriya.system</text>
</g>
<g id="clust5" class="cluster">
<title>cluster_supriya.ugens.panning</title>
<path fill="transparent" stroke="#bcd2ee" stroke-width="2" stroke-dasharray="5,2" d="M611.79,-8C611.79,-8 701.79,-8 701.79,-8 707.79,-8 713.79,-14 713.79,-20 713.79,-20 713.79,-543 713.79,-543 713.79,-549 707.79,-555 701.79,-555 701.79,-555 611.79,-555 611.79,-555 605.79,-555 599.79,-549 599.79,-543 599.79,-543 599.79,-20 599.79,-20 599.79,-14 605.79,-8 611.79,-8"/>
<text text-anchor="middle" x="656.79" y="-543" font-family="Arial" font-size="10.00">supriya.ugens.panning</text>
</g>
<!-- builtins.object&#45;&gt;supriya.synthdefs.bases.PseudoUGen -->
<g id="edge2" class="edge">
<title>builtins.object&#45;&gt;supriya.synthdefs.bases.PseudoUGen</title>
<path fill="none" stroke="lightslategrey" d="M59.19,-267.62C76.49,-269.71 101.81,-272.51 124,-274 214.23,-280.05 320.85,-281.03 374.38,-281.09"/>
<polygon fill="lightslategrey" stroke="lightslategrey" points="374.67,-284.59 384.67,-281.1 374.67,-277.59 374.67,-284.59"/>
</g>
<!-- builtins.object&#45;&gt;supriya.system.SupriyaObject -->
<g id="edge3" class="edge">
<title>builtins.object&#45;&gt;supriya.system.SupriyaObject</title>
<path fill="none" stroke="lightslategrey" d="M59.22,-258.89C78.42,-253.23 107.34,-244.71 129.93,-238.04"/>
<polygon fill="lightslategrey" stroke="lightslategrey" points="131.2,-241.32 139.81,-235.13 129.23,-234.6 131.2,-241.32"/>
</g>
<!-- supriya.synthdefs.bases.MultiOutUGen&#45;&gt;supriya.ugens.panning.Balance2 -->
<g id="edge4" class="edge">
<title>supriya.synthdefs.bases.MultiOutUGen&#45;&gt;supriya.ugens.panning.Balance2</title>
<path fill="none" stroke="lightslategrey" d="M533.2,-276.78C557.71,-285.62 593.93,-298.68 620.65,-308.32"/>
<polygon fill="lightslategrey" stroke="lightslategrey" points="619.79,-311.73 630.38,-311.83 622.16,-305.15 619.79,-311.73"/>
</g>
<!-- supriya.synthdefs.bases.MultiOutUGen&#45;&gt;supriya.ugens.panning.BiPanB2 -->
<g id="edge5" class="edge">
<title>supriya.synthdefs.bases.MultiOutUGen&#45;&gt;supriya.ugens.panning.BiPanB2</title>
<path fill="none" stroke="lightslategrey" d="M534.96,-267C562.29,-267 602.98,-267 629.45,-267"/>
<polygon fill="lightslategrey" stroke="lightslategrey" points="629.51,-270.5 639.51,-267 629.51,-263.5 629.51,-270.5"/>
</g>
<!-- supriya.synthdefs.bases.MultiOutUGen&#45;&gt;supriya.ugens.panning.DecodeB2 -->
<g id="edge6" class="edge">
<title>supriya.synthdefs.bases.MultiOutUGen&#45;&gt;supriya.ugens.panning.DecodeB2</title>
<path fill="none" stroke="lightslategrey" d="M533.2,-257.22C558.01,-248.27 594.82,-235 621.63,-225.33"/>
<polygon fill="lightslategrey" stroke="lightslategrey" points="623.15,-228.5 631.36,-221.81 620.77,-221.91 623.15,-228.5"/>
</g>
<!-- supriya.synthdefs.bases.MultiOutUGen&#45;&gt;supriya.ugens.panning.Pan2 -->
<g id="edge7" class="edge">
<title>supriya.synthdefs.bases.MultiOutUGen&#45;&gt;supriya.ugens.panning.Pan2</title>
<path fill="none" stroke="lightslategrey" d="M526.7,-246.82C544.84,-229.83 572.54,-205.69 599.79,-189 609.17,-183.26 620.16,-178.23 629.91,-174.27"/>
<polygon fill="lightslategrey" stroke="lightslategrey" points="631.44,-177.43 639.5,-170.55 628.91,-170.9 631.44,-177.43"/>
</g>
<!-- supriya.synthdefs.bases.MultiOutUGen&#45;&gt;supriya.ugens.panning.Pan4 -->
<g id="edge8" class="edge">
<title>supriya.synthdefs.bases.MultiOutUGen&#45;&gt;supriya.ugens.panning.Pan4</title>
<path fill="none" stroke="lightslategrey" d="M519.52,-241.63C535.42,-213.69 564.27,-169.03 599.79,-141 608.7,-133.97 619.97,-128.62 630.06,-124.77"/>
<polygon fill="lightslategrey" stroke="lightslategrey" points="631.35,-128.03 639.63,-121.42 629.04,-121.42 631.35,-128.03"/>
</g>
<!-- supriya.synthdefs.bases.MultiOutUGen&#45;&gt;supriya.ugens.panning.PanAz -->
<g id="edge9" class="edge">
<title>supriya.synthdefs.bases.MultiOutUGen&#45;&gt;supriya.ugens.panning.PanAz</title>
<path fill="none" stroke="lightslategrey" d="M510.99,-295.77C520.32,-342.27 544.82,-434.23 599.79,-489 608.08,-497.26 619.67,-502.86 630.15,-506.56"/>
<polygon fill="lightslategrey" stroke="lightslategrey" points="629.13,-509.91 639.72,-509.55 631.22,-503.23 629.13,-509.91"/>
</g>
<!-- supriya.synthdefs.bases.MultiOutUGen&#45;&gt;supriya.ugens.panning.PanB -->
<g id="edge10" class="edge">
<title>supriya.synthdefs.bases.MultiOutUGen&#45;&gt;supriya.ugens.panning.PanB</title>
<path fill="none" stroke="lightslategrey" d="M514.56,-294.77C527.35,-332.52 554.98,-400.01 599.79,-441 608.22,-448.71 619.51,-454.19 629.74,-457.94"/>
<polygon fill="lightslategrey" stroke="lightslategrey" points="628.88,-461.34 639.47,-461.14 631.06,-454.69 628.88,-461.34"/>
</g>
<!-- supriya.synthdefs.bases.MultiOutUGen&#45;&gt;supriya.ugens.panning.PanB2 -->
<g id="edge11" class="edge">
<title>supriya.synthdefs.bases.MultiOutUGen&#45;&gt;supriya.ugens.panning.PanB2</title>
<path fill="none" stroke="lightslategrey" d="M519.52,-292.37C535.42,-320.31 564.27,-364.97 599.79,-393 608.7,-400.03 619.97,-405.38 630.06,-409.23"/>
<polygon fill="lightslategrey" stroke="lightslategrey" points="629.04,-412.58 639.63,-412.58 631.35,-405.97 629.04,-412.58"/>
</g>
<!-- supriya.synthdefs.bases.MultiOutUGen&#45;&gt;supriya.ugens.panning.Rotate2 -->
<g id="edge12" class="edge">
<title>supriya.synthdefs.bases.MultiOutUGen&#45;&gt;supriya.ugens.panning.Rotate2</title>
<path fill="none" stroke="lightslategrey" d="M526.7,-287.18C544.84,-304.17 572.54,-328.31 599.79,-345 607.38,-349.65 616.02,-353.83 624.21,-357.35"/>
<polygon fill="lightslategrey" stroke="lightslategrey" points="622.95,-360.62 633.53,-361.17 625.6,-354.14 622.95,-360.62"/>
</g>
<!-- supriya.synthdefs.bases.PseudoUGen&#45;&gt;supriya.ugens.panning.Splay -->
<g id="edge13" class="edge">
<title>supriya.synthdefs.bases.PseudoUGen&#45;&gt;supriya.ugens.panning.Splay</title>
<path fill="none" stroke="lightslategrey" d="M429.46,-265.77C432.82,-262.92 436.25,-259.91 439.4,-257 514.24,-187.77 513.51,-147.31 599.79,-93 607.87,-87.91 617.47,-84.02 626.42,-81.11"/>
<polygon fill="lightslategrey" stroke="lightslategrey" points="627.53,-84.44 636.13,-78.25 625.55,-77.72 627.53,-84.44"/>
</g>
<!-- supriya.synthdefs.bases.UGen&#45;&gt;supriya.synthdefs.bases.MultiOutUGen -->
<g id="edge1" class="edge">
<title>supriya.synthdefs.bases.UGen&#45;&gt;supriya.synthdefs.bases.MultiOutUGen</title>
<path fill="none" stroke="lightslategrey" d="M433.79,-242.91C443.81,-246.35 455.81,-250.46 467.03,-254.3"/>
<polygon fill="lightslategrey" stroke="lightslategrey" points="466.03,-257.66 476.63,-257.59 468.3,-251.04 466.03,-257.66"/>
</g>
<!-- supriya.synthdefs.bases.UGen&#45;&gt;supriya.ugens.panning.XFade2 -->
<g id="edge14" class="edge">
<title>supriya.synthdefs.bases.UGen&#45;&gt;supriya.ugens.panning.XFade2</title>
<path fill="none" stroke="lightslategrey" d="M411.94,-221.17C415.54,-189.59 428.92,-111.81 475.4,-72 517.41,-36.02 584.53,-29.9 623.97,-29.74"/>
<polygon fill="lightslategrey" stroke="lightslategrey" points="624.05,-33.24 634.08,-29.83 624.11,-26.24 624.05,-33.24"/>
</g>
<!-- supriya.synthdefs.mixins.UGenMethodMixin&#45;&gt;supriya.synthdefs.bases.UGen -->
<g id="edge15" class="edge">
<title>supriya.synthdefs.mixins.UGenMethodMixin&#45;&gt;supriya.synthdefs.bases.UGen</title>
<path fill="none" stroke="lightslategrey" d="M314.14,-227C330.09,-228.35 351.52,-230.16 369.94,-231.72"/>
<polygon fill="lightslategrey" stroke="lightslategrey" points="369.84,-235.22 380.1,-232.58 370.43,-228.25 369.84,-235.22"/>
</g>
<!-- supriya.system.SupriyaObject&#45;&gt;supriya.synthdefs.mixins.UGenMethodMixin -->
<g id="edge16" class="edge">
<title>supriya.system.SupriyaObject&#45;&gt;supriya.synthdefs.mixins.UGenMethodMixin</title>
<path fill="none" stroke="lightslategrey" d="M190.2,-227.41C208.61,-226.96 234.17,-226.33 254.61,-225.83"/>
<polygon fill="lightslategrey" stroke="lightslategrey" points="254.85,-229.33 264.77,-225.58 254.68,-222.33 254.85,-229.33"/>
</g>
<!-- builtins.object -->
<g id="node1" class="node">
<title>builtins.object</title>
<g id="a_node1"><a xlink:href="https://docs.python.org/3/library/functions.html#object" xlink:title="object" target="_top">
<path fill="#fbb4ae" stroke="#fbb4ae" stroke-width="2" d="M52.67,-274.5C52.67,-274.5 22.33,-274.5 22.33,-274.5 19.17,-274.5 16,-271.33 16,-268.17 16,-268.17 16,-261.83 16,-261.83 16,-258.67 19.17,-255.5 22.33,-255.5 22.33,-255.5 52.67,-255.5 52.67,-255.5 55.83,-255.5 59,-258.67 59,-261.83 59,-261.83 59,-268.17 59,-268.17 59,-271.33 55.83,-274.5 52.67,-274.5"/>
<text text-anchor="middle" x="37.5" y="-262.5" font-family="Arial" font-size="10.00">object</text>
</a>
</g>
</g>
<!-- supriya.synthdefs.bases.MultiOutUGen -->
<g id="node2" class="node">
<title>supriya.synthdefs.bases.MultiOutUGen</title>
<g id="a_node2"><a xlink:href="../api/supriya/ugens/../synthdefs/bases.html#supriya.synthdefs.bases.MultiOutUGen" xlink:title="Multi\nOut\nUGen" target="_top">
<ellipse fill="none" stroke="#b3cde3" stroke-width="2" cx="505.1" cy="-267" rx="29.9" ry="28.98"/>
<text text-anchor="middle" x="505.1" y="-275.5" font-family="Arial" font-size="10.00">Multi</text>
<text text-anchor="middle" x="505.1" y="-264.5" font-family="Arial" font-size="10.00">Out</text>
<text text-anchor="middle" x="505.1" y="-253.5" font-family="Arial" font-size="10.00">UGen</text>
</a>
</g>
</g>
<!-- supriya.synthdefs.bases.PseudoUGen -->
<g id="node3" class="node">
<title>supriya.synthdefs.bases.PseudoUGen</title>
<g id="a_node3"><a xlink:href="../api/supriya/ugens/../synthdefs/bases.html#supriya.synthdefs.bases.PseudoUGen" xlink:title="Pseudo\nUGen" target="_top">
<path fill="#b3cde3" stroke="#b3cde3" stroke-width="2" d="M424.7,-296C424.7,-296 394.7,-296 394.7,-296 389.7,-296 384.7,-291 384.7,-286 384.7,-286 384.7,-276 384.7,-276 384.7,-271 389.7,-266 394.7,-266 394.7,-266 424.7,-266 424.7,-266 429.7,-266 434.7,-271 434.7,-276 434.7,-276 434.7,-286 434.7,-286 434.7,-291 429.7,-296 424.7,-296"/>
<text text-anchor="middle" x="409.7" y="-284" font-family="Arial" font-size="10.00">Pseudo</text>
<text text-anchor="middle" x="409.7" y="-273" font-family="Arial" font-size="10.00">UGen</text>
</a>
</g>
</g>
<!-- supriya.synthdefs.bases.UGen -->
<g id="node4" class="node">
<title>supriya.synthdefs.bases.UGen</title>
<g id="a_node4"><a xlink:href="../api/supriya/ugens/../synthdefs/bases.html#supriya.synthdefs.bases.UGen" xlink:title="UGen" target="_top">
<ellipse fill="none" stroke="#b3cde3" stroke-width="2" cx="409.7" cy="-235" rx="29.9" ry="13.37"/>
<text text-anchor="middle" x="409.7" y="-232.5" font-family="Arial" font-size="10.00">UGen</text>
</a>
</g>
</g>
<!-- supriya.synthdefs.mixins.UGenMethodMixin -->
<g id="node5" class="node">
<title>supriya.synthdefs.mixins.UGenMethodMixin</title>
<g id="a_node5"><a xlink:href="../api/supriya/ugens/../synthdefs/mixins.html#supriya.synthdefs.mixins.UGenMethodMixin" xlink:title="UGen\nMethod\nMixin" target="_top">
<path fill="#ccebc5" stroke="#ccebc5" stroke-width="2" d="M302,-245.5C302,-245.5 277,-245.5 277,-245.5 271,-245.5 265,-239.5 265,-233.5 265,-233.5 265,-216.5 265,-216.5 265,-210.5 271,-204.5 277,-204.5 277,-204.5 302,-204.5 302,-204.5 308,-204.5 314,-210.5 314,-216.5 314,-216.5 314,-233.5 314,-233.5 314,-239.5 308,-245.5 302,-245.5"/>
<text text-anchor="middle" x="289.5" y="-233.5" font-family="Arial" font-size="10.00">UGen</text>
<text text-anchor="middle" x="289.5" y="-222.5" font-family="Arial" font-size="10.00">Method</text>
<text text-anchor="middle" x="289.5" y="-211.5" font-family="Arial" font-size="10.00">Mixin</text>
</a>
</g>
</g>
<!-- supriya.system.SupriyaObject -->
<g id="node6" class="node">
<title>supriya.system.SupriyaObject</title>
<g id="a_node6"><a xlink:href="../api/supriya/ugens/../system.html#supriya.system.SupriyaObject" xlink:title="Supriya\nObject" target="_top">
<path fill="#decbe4" stroke="#decbe4" stroke-width="2" d="M180,-243C180,-243 150,-243 150,-243 145,-243 140,-238 140,-233 140,-233 140,-223 140,-223 140,-218 145,-213 150,-213 150,-213 180,-213 180,-213 185,-213 190,-218 190,-223 190,-223 190,-233 190,-233 190,-238 185,-243 180,-243"/>
<text text-anchor="middle" x="165" y="-231" font-family="Arial" font-size="10.00">Supriya</text>
<text text-anchor="middle" x="165" y="-220" font-family="Arial" font-size="10.00">Object</text>
</a>
</g>
</g>
<!-- supriya.ugens.panning.Balance2 -->
<g id="node7" class="node">
<title>supriya.ugens.panning.Balance2</title>
<g id="a_node7"><a xlink:href="../api/supriya/ugens/panning.html#supriya.ugens.panning.Balance2" xlink:title="Balance\n2" target="_top">
<path fill="black" stroke="black" stroke-width="2" d="M672.79,-336C672.79,-336 640.79,-336 640.79,-336 635.79,-336 630.79,-331 630.79,-326 630.79,-326 630.79,-316 630.79,-316 630.79,-311 635.79,-306 640.79,-306 640.79,-306 672.79,-306 672.79,-306 677.79,-306 682.79,-311 682.79,-316 682.79,-316 682.79,-326 682.79,-326 682.79,-331 677.79,-336 672.79,-336"/>
<text text-anchor="middle" x="656.79" y="-324" font-family="Arial" font-size="10.00" fill="white">Balance</text>
<text text-anchor="middle" x="656.79" y="-313" font-family="Arial" font-size="10.00" fill="white">2</text>
</a>
</g>
</g>
<!-- supriya.ugens.panning.BiPanB2 -->
<g id="node8" class="node">
<title>supriya.ugens.panning.BiPanB2</title>
<g id="a_node8"><a xlink:href="../api/supriya/ugens/panning.html#supriya.ugens.panning.BiPanB2" xlink:title="Bi\nPan\nB2" target="_top">
<path fill="black" stroke="black" stroke-width="2" d="M662.46,-287.5C662.46,-287.5 651.13,-287.5 651.13,-287.5 645.46,-287.5 639.79,-281.83 639.79,-276.17 639.79,-276.17 639.79,-257.83 639.79,-257.83 639.79,-252.17 645.46,-246.5 651.13,-246.5 651.13,-246.5 662.46,-246.5 662.46,-246.5 668.13,-246.5 673.79,-252.17 673.79,-257.83 673.79,-257.83 673.79,-276.17 673.79,-276.17 673.79,-281.83 668.13,-287.5 662.46,-287.5"/>
<text text-anchor="middle" x="656.79" y="-275.5" font-family="Arial" font-size="10.00" fill="white">Bi</text>
<text text-anchor="middle" x="656.79" y="-264.5" font-family="Arial" font-size="10.00" fill="white">Pan</text>
<text text-anchor="middle" x="656.79" y="-253.5" font-family="Arial" font-size="10.00" fill="white">B2</text>
</a>
</g>
</g>
<!-- supriya.ugens.panning.DecodeB2 -->
<g id="node9" class="node">
<title>supriya.ugens.panning.DecodeB2</title>
<g id="a_node9"><a xlink:href="../api/supriya/ugens/panning.html#supriya.ugens.panning.DecodeB2" xlink:title="Decode\nB2" target="_top">
<path fill="black" stroke="black" stroke-width="2" d="M671.79,-228C671.79,-228 641.79,-228 641.79,-228 636.79,-228 631.79,-223 631.79,-218 631.79,-218 631.79,-208 631.79,-208 631.79,-203 636.79,-198 641.79,-198 641.79,-198 671.79,-198 671.79,-198 676.79,-198 681.79,-203 681.79,-208 681.79,-208 681.79,-218 681.79,-218 681.79,-223 676.79,-228 671.79,-228"/>
<text text-anchor="middle" x="656.79" y="-216" font-family="Arial" font-size="10.00" fill="white">Decode</text>
<text text-anchor="middle" x="656.79" y="-205" font-family="Arial" font-size="10.00" fill="white">B2</text>
</a>
</g>
</g>
<!-- supriya.ugens.panning.Pan2 -->
<g id="node10" class="node">
<title>supriya.ugens.panning.Pan2</title>
<g id="a_node10"><a xlink:href="../api/supriya/ugens/panning.html#supriya.ugens.panning.Pan2" xlink:title="Pan\n2" target="_top">
<path fill="black" stroke="black" stroke-width="2" d="M663.79,-180C663.79,-180 649.79,-180 649.79,-180 644.79,-180 639.79,-175 639.79,-170 639.79,-170 639.79,-160 639.79,-160 639.79,-155 644.79,-150 649.79,-150 649.79,-150 663.79,-150 663.79,-150 668.79,-150 673.79,-155 673.79,-160 673.79,-160 673.79,-170 673.79,-170 673.79,-175 668.79,-180 663.79,-180"/>
<text text-anchor="middle" x="656.79" y="-168" font-family="Arial" font-size="10.00" fill="white">Pan</text>
<text text-anchor="middle" x="656.79" y="-157" font-family="Arial" font-size="10.00" fill="white">2</text>
</a>
</g>
</g>
<!-- supriya.ugens.panning.Pan4 -->
<g id="node11" class="node">
<title>supriya.ugens.panning.Pan4</title>
<g id="a_node11"><a xlink:href="../api/supriya/ugens/panning.html#supriya.ugens.panning.Pan4" xlink:title="Pan\n4" target="_top">
<path fill="black" stroke="black" stroke-width="2" d="M663.79,-132C663.79,-132 649.79,-132 649.79,-132 644.79,-132 639.79,-127 639.79,-122 639.79,-122 639.79,-112 639.79,-112 639.79,-107 644.79,-102 649.79,-102 649.79,-102 663.79,-102 663.79,-102 668.79,-102 673.79,-107 673.79,-112 673.79,-112 673.79,-122 673.79,-122 673.79,-127 668.79,-132 663.79,-132"/>
<text text-anchor="middle" x="656.79" y="-120" font-family="Arial" font-size="10.00" fill="white">Pan</text>
<text text-anchor="middle" x="656.79" y="-109" font-family="Arial" font-size="10.00" fill="white">4</text>
</a>
</g>
</g>
<!-- supriya.ugens.panning.PanAz -->
<g id="node12" class="node">
<title>supriya.ugens.panning.PanAz</title>
<g id="a_node12"><a xlink:href="../api/supriya/ugens/panning.html#supriya.ugens.panning.PanAz" xlink:title="Pan\nAz" target="_top">
<path fill="black" stroke="black" stroke-width="2" d="M663.79,-528C663.79,-528 649.79,-528 649.79,-528 644.79,-528 639.79,-523 639.79,-518 639.79,-518 639.79,-508 639.79,-508 639.79,-503 644.79,-498 649.79,-498 649.79,-498 663.79,-498 663.79,-498 668.79,-498 673.79,-503 673.79,-508 673.79,-508 673.79,-518 673.79,-518 673.79,-523 668.79,-528 663.79,-528"/>
<text text-anchor="middle" x="656.79" y="-516" font-family="Arial" font-size="10.00" fill="white">Pan</text>
<text text-anchor="middle" x="656.79" y="-505" font-family="Arial" font-size="10.00" fill="white">Az</text>
</a>
</g>
</g>
<!-- supriya.ugens.panning.PanB -->
<g id="node13" class="node">
<title>supriya.ugens.panning.PanB</title>
<g id="a_node13"><a xlink:href="../api/supriya/ugens/panning.html#supriya.ugens.panning.PanB" xlink:title="Pan\nB" target="_top">
<path fill="black" stroke="black" stroke-width="2" d="M663.79,-480C663.79,-480 649.79,-480 649.79,-480 644.79,-480 639.79,-475 639.79,-470 639.79,-470 639.79,-460 639.79,-460 639.79,-455 644.79,-450 649.79,-450 649.79,-450 663.79,-450 663.79,-450 668.79,-450 673.79,-455 673.79,-460 673.79,-460 673.79,-470 673.79,-470 673.79,-475 668.79,-480 663.79,-480"/>
<text text-anchor="middle" x="656.79" y="-468" font-family="Arial" font-size="10.00" fill="white">Pan</text>
<text text-anchor="middle" x="656.79" y="-457" font-family="Arial" font-size="10.00" fill="white">B</text>
</a>
</g>
</g>
<!-- supriya.ugens.panning.PanB2 -->
<g id="node14" class="node">
<title>supriya.ugens.panning.PanB2</title>
<g id="a_node14"><a xlink:href="../api/supriya/ugens/panning.html#supriya.ugens.panning.PanB2" xlink:title="Pan\nB2" target="_top">
<path fill="black" stroke="black" stroke-width="2" d="M663.79,-432C663.79,-432 649.79,-432 649.79,-432 644.79,-432 639.79,-427 639.79,-422 639.79,-422 639.79,-412 639.79,-412 639.79,-407 644.79,-402 649.79,-402 649.79,-402 663.79,-402 663.79,-402 668.79,-402 673.79,-407 673.79,-412 673.79,-412 673.79,-422 673.79,-422 673.79,-427 668.79,-432 663.79,-432"/>
<text text-anchor="middle" x="656.79" y="-420" font-family="Arial" font-size="10.00" fill="white">Pan</text>
<text text-anchor="middle" x="656.79" y="-409" font-family="Arial" font-size="10.00" fill="white">B2</text>
</a>
</g>
</g>
<!-- supriya.ugens.panning.Rotate2 -->
<g id="node15" class="node">
<title>supriya.ugens.panning.Rotate2</title>
<g id="a_node15"><a xlink:href="../api/supriya/ugens/panning.html#supriya.ugens.panning.Rotate2" xlink:title="Rotate\n2" target="_top">
<path fill="black" stroke="black" stroke-width="2" d="M669.79,-384C669.79,-384 643.79,-384 643.79,-384 638.79,-384 633.79,-379 633.79,-374 633.79,-374 633.79,-364 633.79,-364 633.79,-359 638.79,-354 643.79,-354 643.79,-354 669.79,-354 669.79,-354 674.79,-354 679.79,-359 679.79,-364 679.79,-364 679.79,-374 679.79,-374 679.79,-379 674.79,-384 669.79,-384"/>
<text text-anchor="middle" x="656.79" y="-372" font-family="Arial" font-size="10.00" fill="white">Rotate</text>
<text text-anchor="middle" x="656.79" y="-361" font-family="Arial" font-size="10.00" fill="white">2</text>
</a>
</g>
</g>
<!-- supriya.ugens.panning.Splay -->
<g id="node16" class="node">
<title>supriya.ugens.panning.Splay</title>
<g id="a_node16"><a xlink:href="../api/supriya/ugens/panning.html#supriya.ugens.panning.Splay" xlink:title="Splay" target="_top">
<path fill="black" stroke="black" stroke-width="2" d="M670.96,-83.5C670.96,-83.5 642.63,-83.5 642.63,-83.5 639.46,-83.5 636.29,-80.33 636.29,-77.17 636.29,-77.17 636.29,-70.83 636.29,-70.83 636.29,-67.67 639.46,-64.5 642.63,-64.5 642.63,-64.5 670.96,-64.5 670.96,-64.5 674.13,-64.5 677.29,-67.67 677.29,-70.83 677.29,-70.83 677.29,-77.17 677.29,-77.17 677.29,-80.33 674.13,-83.5 670.96,-83.5"/>
<text text-anchor="middle" x="656.79" y="-71.5" font-family="Arial" font-size="10.00" fill="white">Splay</text>
</a>
</g>
</g>
<!-- supriya.ugens.panning.XFade2 -->
<g id="node17" class="node">
<title>supriya.ugens.panning.XFade2</title>
<g id="a_node17"><a xlink:href="../api/supriya/ugens/panning.html#supriya.ugens.panning.XFade2" xlink:title="XFade\n2" target="_top">
<path fill="black" stroke="black" stroke-width="2" d="M669.29,-46C669.29,-46 644.29,-46 644.29,-46 639.29,-46 634.29,-41 634.29,-36 634.29,-36 634.29,-26 634.29,-26 634.29,-21 639.29,-16 644.29,-16 644.29,-16 669.29,-16 669.29,-16 674.29,-16 679.29,-21 679.29,-26 679.29,-26 679.29,-36 679.29,-36 679.29,-41 674.29,-46 669.29,-46"/>
<text text-anchor="middle" x="656.79" y="-34" font-family="Arial" font-size="10.00" fill="white">XFade</text>
<text text-anchor="middle" x="656.79" y="-23" font-family="Arial" font-size="10.00" fill="white">2</text>
</a>
</g>
</g>
</g>
</svg>
