<?xml version="1.0" encoding="UTF-8" standalone="no"?>
<!DOCTYPE svg PUBLIC "-//W3C//DTD SVG 1.1//EN"
 "http://www.w3.org/Graphics/SVG/1.1/DTD/svg11.dtd">
<!-- Generated by graphviz version 2.40.1 (20161225.0304)
 -->
<!-- Title: InheritanceGraph Pages: 1 -->
<svg width="633pt" height="347pt"
 viewBox="0.00 0.00 633.00 347.00" xmlns="http://www.w3.org/2000/svg" xmlns:xlink="http://www.w3.org/1999/xlink">
<g id="graph0" class="graph" transform="scale(1 1) rotate(0) translate(4 343)">
<title>InheritanceGraph</title>
<g id="clust1" class="cluster">
<title>cluster_supriya.midi</title>
<path fill="transparent" stroke="#bcd2ee" stroke-width="2" stroke-dasharray="5,2" d="M398,-13C398,-13 605,-13 605,-13 611,-13 617,-19 617,-25 617,-25 617,-307 617,-307 617,-313 611,-319 605,-319 605,-319 398,-319 398,-319 392,-319 386,-313 386,-307 386,-307 386,-25 386,-25 386,-19 392,-13 398,-13"/>
<text text-anchor="middle" x="501.5" y="-307" font-family="Arial" font-size="10.00" fill="#000000">supriya.midi</text>
</g>
<g id="clust2" class="cluster">
<title>cluster_builtins</title>
<path fill="transparent" stroke="#bcd2ee" stroke-width="2" stroke-dasharray="5,2" d="M20,-276C20,-276 109,-276 109,-276 115,-276 121,-282 121,-288 121,-288 121,-319 121,-319 121,-325 115,-331 109,-331 109,-331 20,-331 20,-331 14,-331 8,-325 8,-319 8,-319 8,-288 8,-288 8,-282 14,-276 20,-276"/>
<text text-anchor="middle" x="64.5" y="-319" font-family="Arial" font-size="10.00" fill="#000000">builtins</text>
</g>
<g id="clust3" class="cluster">
<title>cluster_enum</title>
<path fill="transparent" stroke="#bcd2ee" stroke-width="2" stroke-dasharray="5,2" d="M153,-238C153,-238 256,-238 256,-238 262,-238 268,-244 268,-250 268,-250 268,-291 268,-291 268,-297 262,-303 256,-303 256,-303 153,-303 153,-303 147,-303 141,-297 141,-291 141,-291 141,-250 141,-250 141,-244 147,-238 153,-238"/>
<text text-anchor="middle" x="204.5" y="-291" font-family="Arial" font-size="10.00" fill="#000000">enum</text>
</g>
<g id="clust4" class="cluster">
<title>cluster_uqbar.enums</title>
<path fill="transparent" stroke="#bcd2ee" stroke-width="2" stroke-dasharray="5,2" d="M303,-243C303,-243 354,-243 354,-243 360,-243 366,-249 366,-255 366,-255 366,-296 366,-296 366,-302 360,-308 354,-308 354,-308 303,-308 303,-308 297,-308 291,-302 291,-296 291,-296 291,-255 291,-255 291,-249 297,-243 303,-243"/>
<text text-anchor="middle" x="328.5" y="-296" font-family="Arial" font-size="10.00" fill="#000000">uqbar.enums</text>
</g>
<g id="clust5" class="cluster">
<title>cluster_supriya.system</title>
<path fill="transparent" stroke="#bcd2ee" stroke-width="2" stroke-dasharray="5,2" d="M225,-8C225,-8 345.5,-8 345.5,-8 351.5,-8 357.5,-14 357.5,-20 357.5,-20 357.5,-73 357.5,-73 357.5,-79 351.5,-85 345.5,-85 345.5,-85 225,-85 225,-85 219,-85 213,-79 213,-73 213,-73 213,-20 213,-20 213,-14 219,-8 225,-8"/>
<text text-anchor="middle" x="285.25" y="-73" font-family="Arial" font-size="10.00" fill="#000000">supriya.system</text>
</g>
<!-- supriya.midi.MidiMessage.MidiMessage&#45;&gt;supriya.midi.ControllerChangeMessage.ControllerChangeMessage -->
<g id="edge1" class="edge">
<title>supriya.midi.MidiMessage.MidiMessage&#45;&gt;supriya.midi.ControllerChangeMessage.ControllerChangeMessage</title>
<path fill="none" stroke="#778899" d="M441.3463,-37.7033C449.2085,-38.2649 458.1217,-38.9016 466.6323,-39.5095"/>
<polygon fill="#778899" stroke="#778899" points="466.4922,-43.0083 476.7161,-40.2297 466.9909,-36.0261 466.4922,-43.0083"/>
</g>
<!-- supriya.midi.MidiMessage.MidiMessage&#45;&gt;supriya.midi.NoteOffMessage.NoteOffMessage -->
<g id="edge2" class="edge">
<title>supriya.midi.MidiMessage.MidiMessage&#45;&gt;supriya.midi.NoteOffMessage.NoteOffMessage</title>
<path fill="none" stroke="#778899" d="M437.3018,-51.1098C448.3753,-58.7263 462.7796,-67.3188 477,-72 501.0885,-79.9296 529.7029,-82.2964 551.4969,-82.7521"/>
<polygon fill="#778899" stroke="#778899" points="551.5686,-86.2528 561.5981,-82.8383 551.6284,-79.253 551.5686,-86.2528"/>
</g>
<!-- supriya.midi.MidiMessage.MidiMessage&#45;&gt;supriya.midi.NoteOnMessage.NoteOnMessage -->
<g id="edge3" class="edge">
<title>supriya.midi.MidiMessage.MidiMessage&#45;&gt;supriya.midi.NoteOnMessage.NoteOnMessage</title>
<path fill="none" stroke="#778899" d="M432.4219,-51.2316C435.2707,-54.1417 438.2281,-57.1643 441,-60 451.8281,-71.0775 463.7367,-83.2777 474.1035,-93.9039"/>
<polygon fill="#778899" stroke="#778899" points="471.8541,-96.6102 481.3422,-101.3247 476.8649,-91.7223 471.8541,-96.6102"/>
</g>
<!-- builtins.int&#45;&gt;enum.IntEnum -->
<g id="edge7" class="edge">
<title>builtins.int&#45;&gt;enum.IntEnum</title>
<path fill="none" stroke="#778899" d="M113.2582,-291.3014C129.6312,-287.6801 159.5334,-281.0071 185,-275 194.4397,-272.7734 204.7394,-270.2672 213.9546,-267.9971"/>
<polygon fill="#778899" stroke="#778899" points="214.9282,-271.3618 223.7946,-265.562 213.2466,-264.5668 214.9282,-271.3618"/>
</g>
<!-- builtins.object&#45;&gt;supriya.midi.Device.Device -->
<g id="edge9" class="edge">
<title>builtins.object&#45;&gt;supriya.midi.Device.Device</title>
<path fill="none" stroke="#778899" d="M43.4325,-284.3745C63.4348,-263.924 114.2273,-218 167,-218 167,-218 167,-218 242,-218 293.2416,-218 352.8648,-220.1561 387.7649,-221.6366"/>
<polygon fill="#778899" stroke="#778899" points="387.6231,-225.1337 397.7656,-222.0713 387.9271,-218.1403 387.6231,-225.1337"/>
</g>
<!-- builtins.object&#45;&gt;supriya.midi.LogicalControl.LogicalControl -->
<g id="edge10" class="edge">
<title>builtins.object&#45;&gt;supriya.midi.LogicalControl.LogicalControl</title>
<path fill="none" stroke="#778899" d="M39.6242,-284.2804C54.9375,-256.712 103.2737,-180 167,-180 167,-180 167,-180 242,-180 292.8066,-180 351.8867,-180 386.906,-180"/>
<polygon fill="#778899" stroke="#778899" points="386.9658,-183.5001 396.9657,-180 386.9657,-176.5001 386.9658,-183.5001"/>
</g>
<!-- builtins.object&#45;&gt;supriya.midi.LogicalView.LogicalView -->
<g id="edge11" class="edge">
<title>builtins.object&#45;&gt;supriya.midi.LogicalView.LogicalView</title>
<path fill="none" stroke="#778899" d="M37.4992,-284.4917C48.6499,-251.2152 91.0335,-142 167,-142 167,-142 167,-142 242,-142 293.0273,-142 352.2652,-137.7341 387.2207,-134.7748"/>
<polygon fill="#778899" stroke="#778899" points="387.5934,-138.2557 397.2534,-133.9045 386.9884,-131.2819 387.5934,-138.2557"/>
</g>
<!-- builtins.object&#45;&gt;supriya.midi.PhysicalControl.PhysicalControl -->
<g id="edge12" class="edge">
<title>builtins.object&#45;&gt;supriya.midi.PhysicalControl.PhysicalControl</title>
<path fill="none" stroke="#778899" d="M36.2691,-284.3167C43.952,-245.5984 78.1249,-104 167,-104 167,-104 167,-104 242,-104 292.3018,-104 350.1948,-95.7889 385.2993,-89.8891"/>
<polygon fill="#778899" stroke="#778899" points="386.1679,-93.2911 395.4285,-88.144 384.9794,-86.3927 386.1679,-93.2911"/>
</g>
<!-- builtins.object&#45;&gt;builtins.int -->
<g id="edge4" class="edge">
<title>builtins.object&#45;&gt;builtins.int</title>
<path fill="none" stroke="#778899" d="M53.024,-294C60.9336,-294 70.2365,-294 78.5344,-294"/>
<polygon fill="#778899" stroke="#778899" points="78.6623,-297.5001 88.6623,-294 78.6623,-290.5001 78.6623,-297.5001"/>
</g>
<!-- builtins.object&#45;&gt;enum.Enum -->
<g id="edge8" class="edge">
<title>builtins.object&#45;&gt;enum.Enum</title>
<path fill="none" stroke="#778899" d="M53.0674,-287.52C63.5604,-283.9456 76.9512,-279.53 89,-276 105.4092,-271.1925 123.9439,-266.4134 138.8272,-262.7329"/>
<polygon fill="#778899" stroke="#778899" points="140.0534,-266.0363 148.9367,-260.2625 138.3916,-259.2364 140.0534,-266.0363"/>
</g>
<!-- builtins.object&#45;&gt;supriya.system.SupriyaObject.SupriyaObject -->
<g id="edge13" class="edge">
<title>builtins.object&#45;&gt;supriya.system.SupriyaObject.SupriyaObject</title>
<path fill="none" stroke="#778899" d="M35.8569,-284.2744C41.1385,-247.7192 61.404,-119.1512 89,-90 121.0348,-56.1598 176.2515,-45.1905 210.8585,-41.655"/>
<polygon fill="#778899" stroke="#778899" points="211.2308,-45.1359 220.8885,-40.7793 210.622,-38.1624 211.2308,-45.1359"/>
</g>
<!-- enum.Enum&#45;&gt;enum.IntEnum -->
<g id="edge5" class="edge">
<title>enum.Enum&#45;&gt;enum.IntEnum</title>
<path fill="none" stroke="#778899" d="M185.1554,-257.2104C193.6599,-257.7773 203.9924,-258.4662 213.5036,-259.1002"/>
<polygon fill="#778899" stroke="#778899" points="213.5411,-262.6104 223.7518,-259.7835 214.0068,-255.6259 213.5411,-262.6104"/>
</g>
<!-- enum.IntEnum&#45;&gt;uqbar.enums.IntEnumeration -->
<g id="edge14" class="edge">
<title>enum.IntEnum&#45;&gt;uqbar.enums.IntEnumeration</title>
<path fill="none" stroke="#778899" d="M260.3444,-262.0604C268.6628,-262.5412 278.8457,-263.1298 288.7787,-263.704"/>
<polygon fill="#778899" stroke="#778899" points="288.7655,-267.209 298.9509,-264.292 289.1695,-260.2206 288.7655,-267.209"/>
</g>
<!-- uqbar.enums.IntEnumeration&#45;&gt;supriya.midi.LogicalControlMode.LogicalControlMode -->
<g id="edge16" class="edge">
<title>uqbar.enums.IntEnumeration&#45;&gt;supriya.midi.LogicalControlMode.LogicalControlMode</title>
<path fill="none" stroke="#778899" d="M358.1357,-267.6649C367.3942,-268.1851 377.6225,-268.7597 386.943,-269.2833"/>
<polygon fill="#778899" stroke="#778899" points="386.7997,-272.7807 396.9803,-269.8472 387.1924,-265.7917 386.7997,-272.7807"/>
</g>
<!-- supriya.system.SupriyaObject.SupriyaObject&#45;&gt;supriya.system.SupriyaValueObject.SupriyaValueObject -->
<g id="edge6" class="edge">
<title>supriya.system.SupriyaObject.SupriyaObject&#45;&gt;supriya.system.SupriyaValueObject.SupriyaValueObject</title>
<path fill="none" stroke="#778899" d="M263.382,-39.2584C273.5427,-38.906 285.8886,-38.4779 297.0873,-38.0895"/>
<polygon fill="#778899" stroke="#778899" points="297.4913,-41.5776 307.3639,-37.733 297.2486,-34.5819 297.4913,-41.5776"/>
</g>
<!-- supriya.system.SupriyaValueObject.SupriyaValueObject&#45;&gt;supriya.midi.MidiMessage.MidiMessage -->
<g id="edge15" class="edge">
<title>supriya.system.SupriyaValueObject.SupriyaValueObject&#45;&gt;supriya.midi.MidiMessage.MidiMessage</title>
<path fill="none" stroke="#778899" d="M349.5918,-36.763C359.7455,-36.6489 372.1723,-36.5093 383.6069,-36.3808"/>
<polygon fill="#778899" stroke="#778899" points="383.7755,-39.8792 393.7355,-36.267 383.6968,-32.8797 383.7755,-39.8792"/>
</g>
<!-- supriya.midi.ControllerChangeMessage.ControllerChangeMessage -->
<g id="node1" class="node">
<title>supriya.midi.ControllerChangeMessage.ControllerChangeMessage</title>
<g id="a_node1"><a xlink:href="../api/supriya/midi/ControllerChangeMessage.html#supriya.midi.ControllerChangeMessage.ControllerChangeMessage" xlink:title="Controller\nChange\nMessage" target="_top">
<path fill="#000000" stroke="#000000" stroke-width="2" d="M514,-62.5C514,-62.5 489,-62.5 489,-62.5 483,-62.5 477,-56.5 477,-50.5 477,-50.5 477,-33.5 477,-33.5 477,-27.5 483,-21.5 489,-21.5 489,-21.5 514,-21.5 514,-21.5 520,-21.5 526,-27.5 526,-33.5 526,-33.5 526,-50.5 526,-50.5 526,-56.5 520,-62.5 514,-62.5"/>
<text text-anchor="middle" x="501.5" y="-50.5" font-family="Arial" font-size="10.00" fill="#ffffff">Controller</text>
<text text-anchor="middle" x="501.5" y="-39.5" font-family="Arial" font-size="10.00" fill="#ffffff">Change</text>
<text text-anchor="middle" x="501.5" y="-28.5" font-family="Arial" font-size="10.00" fill="#ffffff">Message</text>
</a>
</g>
</g>
<!-- supriya.midi.Device.Device -->
<g id="node2" class="node">
<title>supriya.midi.Device.Device</title>
<g id="a_node2"><a xlink:href="../api/supriya/midi/Device.html#supriya.midi.Device.Device" xlink:title="Device" target="_top">
<path fill="#000000" stroke="#000000" stroke-width="2" d="M430.6667,-232.5C430.6667,-232.5 404.3333,-232.5 404.3333,-232.5 401.1667,-232.5 398,-229.3333 398,-226.1667 398,-226.1667 398,-219.8333 398,-219.8333 398,-216.6667 401.1667,-213.5 404.3333,-213.5 404.3333,-213.5 430.6667,-213.5 430.6667,-213.5 433.8333,-213.5 437,-216.6667 437,-219.8333 437,-219.8333 437,-226.1667 437,-226.1667 437,-229.3333 433.8333,-232.5 430.6667,-232.5"/>
<text text-anchor="middle" x="417.5" y="-220.5" font-family="Arial" font-size="10.00" fill="#ffffff">Device</text>
</a>
</g>
</g>
<!-- supriya.midi.LogicalControl.LogicalControl -->
<g id="node3" class="node">
<title>supriya.midi.LogicalControl.LogicalControl</title>
<g id="a_node3"><a xlink:href="../api/supriya/midi/LogicalControl.html#supriya.midi.LogicalControl.LogicalControl" xlink:title="Logical\nControl" target="_top">
<path fill="#000000" stroke="#000000" stroke-width="2" d="M428,-195C428,-195 407,-195 407,-195 402,-195 397,-190 397,-185 397,-185 397,-175 397,-175 397,-170 402,-165 407,-165 407,-165 428,-165 428,-165 433,-165 438,-170 438,-175 438,-175 438,-185 438,-185 438,-190 433,-195 428,-195"/>
<text text-anchor="middle" x="417.5" y="-183" font-family="Arial" font-size="10.00" fill="#ffffff">Logical</text>
<text text-anchor="middle" x="417.5" y="-172" font-family="Arial" font-size="10.00" fill="#ffffff">Control</text>
</a>
</g>
</g>
<!-- supriya.midi.LogicalControlMode.LogicalControlMode -->
<g id="node4" class="node">
<title>supriya.midi.LogicalControlMode.LogicalControlMode</title>
<g id="a_node4"><a xlink:href="../api/supriya/midi/LogicalControlMode.html#supriya.midi.LogicalControlMode.LogicalControlMode" xlink:title="Logical\nControl\nMode" target="_top">
<path fill="#000000" stroke="#000000" stroke-width="2" d="M426,-291.5C426,-291.5 409,-291.5 409,-291.5 403,-291.5 397,-285.5 397,-279.5 397,-279.5 397,-262.5 397,-262.5 397,-256.5 403,-250.5 409,-250.5 409,-250.5 426,-250.5 426,-250.5 432,-250.5 438,-256.5 438,-262.5 438,-262.5 438,-279.5 438,-279.5 438,-285.5 432,-291.5 426,-291.5"/>
<text text-anchor="middle" x="417.5" y="-279.5" font-family="Arial" font-size="10.00" fill="#ffffff">Logical</text>
<text text-anchor="middle" x="417.5" y="-268.5" font-family="Arial" font-size="10.00" fill="#ffffff">Control</text>
<text text-anchor="middle" x="417.5" y="-257.5" font-family="Arial" font-size="10.00" fill="#ffffff">Mode</text>
</a>
</g>
</g>
<!-- supriya.midi.LogicalView.LogicalView -->
<g id="node5" class="node">
<title>supriya.midi.LogicalView.LogicalView</title>
<g id="a_node5"><a xlink:href="../api/supriya/midi/LogicalView.html#supriya.midi.LogicalView.LogicalView" xlink:title="Logical\nView" target="_top">
<path fill="#000000" stroke="#000000" stroke-width="2" d="M427.5,-147C427.5,-147 407.5,-147 407.5,-147 402.5,-147 397.5,-142 397.5,-137 397.5,-137 397.5,-127 397.5,-127 397.5,-122 402.5,-117 407.5,-117 407.5,-117 427.5,-117 427.5,-117 432.5,-117 437.5,-122 437.5,-127 437.5,-127 437.5,-137 437.5,-137 437.5,-142 432.5,-147 427.5,-147"/>
<text text-anchor="middle" x="417.5" y="-135" font-family="Arial" font-size="10.00" fill="#ffffff">Logical</text>
<text text-anchor="middle" x="417.5" y="-124" font-family="Arial" font-size="10.00" fill="#ffffff">View</text>
</a>
</g>
</g>
<!-- supriya.midi.MidiMessage.MidiMessage -->
<g id="node6" class="node">
<title>supriya.midi.MidiMessage.MidiMessage</title>
<g id="a_node6"><a xlink:href="../api/supriya/midi/MidiMessage.html#supriya.midi.MidiMessage.MidiMessage" xlink:title="Midi\nMessage" target="_top">
<path fill="#000000" stroke="#000000" stroke-width="2" d="M431,-51C431,-51 404,-51 404,-51 399,-51 394,-46 394,-41 394,-41 394,-31 394,-31 394,-26 399,-21 404,-21 404,-21 431,-21 431,-21 436,-21 441,-26 441,-31 441,-31 441,-41 441,-41 441,-46 436,-51 431,-51"/>
<text text-anchor="middle" x="417.5" y="-39" font-family="Arial" font-size="10.00" fill="#ffffff">Midi</text>
<text text-anchor="middle" x="417.5" y="-28" font-family="Arial" font-size="10.00" fill="#ffffff">Message</text>
</a>
</g>
</g>
<!-- supriya.midi.NoteOffMessage.NoteOffMessage -->
<g id="node7" class="node">
<title>supriya.midi.NoteOffMessage.NoteOffMessage</title>
<g id="a_node7"><a xlink:href="../api/supriya/midi/NoteOffMessage.html#supriya.midi.NoteOffMessage.NoteOffMessage" xlink:title="Note\nOff\nMessage" target="_top">
<path fill="#000000" stroke="#000000" stroke-width="2" d="M597,-102.5C597,-102.5 574,-102.5 574,-102.5 568,-102.5 562,-96.5 562,-90.5 562,-90.5 562,-73.5 562,-73.5 562,-67.5 568,-61.5 574,-61.5 574,-61.5 597,-61.5 597,-61.5 603,-61.5 609,-67.5 609,-73.5 609,-73.5 609,-90.5 609,-90.5 609,-96.5 603,-102.5 597,-102.5"/>
<text text-anchor="middle" x="585.5" y="-90.5" font-family="Arial" font-size="10.00" fill="#ffffff">Note</text>
<text text-anchor="middle" x="585.5" y="-79.5" font-family="Arial" font-size="10.00" fill="#ffffff">Off</text>
<text text-anchor="middle" x="585.5" y="-68.5" font-family="Arial" font-size="10.00" fill="#ffffff">Message</text>
</a>
</g>
</g>
<!-- supriya.midi.NoteOnMessage.NoteOnMessage -->
<g id="node8" class="node">
<title>supriya.midi.NoteOnMessage.NoteOnMessage</title>
<g id="a_node8"><a xlink:href="../api/supriya/midi/NoteOnMessage.html#supriya.midi.NoteOnMessage.NoteOnMessage" xlink:title="Note\nOn\nMessage" target="_top">
<path fill="#000000" stroke="#000000" stroke-width="2" d="M513,-142.5C513,-142.5 490,-142.5 490,-142.5 484,-142.5 478,-136.5 478,-130.5 478,-130.5 478,-113.5 478,-113.5 478,-107.5 484,-101.5 490,-101.5 490,-101.5 513,-101.5 513,-101.5 519,-101.5 525,-107.5 525,-113.5 525,-113.5 525,-130.5 525,-130.5 525,-136.5 519,-142.5 513,-142.5"/>
<text text-anchor="middle" x="501.5" y="-130.5" font-family="Arial" font-size="10.00" fill="#ffffff">Note</text>
<text text-anchor="middle" x="501.5" y="-119.5" font-family="Arial" font-size="10.00" fill="#ffffff">On</text>
<text text-anchor="middle" x="501.5" y="-108.5" font-family="Arial" font-size="10.00" fill="#ffffff">Message</text>
</a>
</g>
</g>
<!-- supriya.midi.PhysicalControl.PhysicalControl -->
<g id="node9" class="node">
<title>supriya.midi.PhysicalControl.PhysicalControl</title>
<g id="a_node9"><a xlink:href="../api/supriya/midi/PhysicalControl.html#supriya.midi.PhysicalControl.PhysicalControl" xlink:title="Physical\nControl" target="_top">
<path fill="#000000" stroke="#000000" stroke-width="2" d="M429.5,-99C429.5,-99 405.5,-99 405.5,-99 400.5,-99 395.5,-94 395.5,-89 395.5,-89 395.5,-79 395.5,-79 395.5,-74 400.5,-69 405.5,-69 405.5,-69 429.5,-69 429.5,-69 434.5,-69 439.5,-74 439.5,-79 439.5,-79 439.5,-89 439.5,-89 439.5,-94 434.5,-99 429.5,-99"/>
<text text-anchor="middle" x="417.5" y="-87" font-family="Arial" font-size="10.00" fill="#ffffff">Physical</text>
<text text-anchor="middle" x="417.5" y="-76" font-family="Arial" font-size="10.00" fill="#ffffff">Control</text>
</a>
</g>
</g>
<!-- builtins.int -->
<g id="node10" class="node">
<title>builtins.int</title>
<g id="a_node10"><a xlink:href="https://docs.python.org/3.6/library/functions.html#int" xlink:title="int" target="_top">
<path fill="#fbb4ae" stroke="#fbb4ae" stroke-width="2" d="M106.6667,-303.5C106.6667,-303.5 95.3333,-303.5 95.3333,-303.5 92.1667,-303.5 89,-300.3333 89,-297.1667 89,-297.1667 89,-290.8333 89,-290.8333 89,-287.6667 92.1667,-284.5 95.3333,-284.5 95.3333,-284.5 106.6667,-284.5 106.6667,-284.5 109.8333,-284.5 113,-287.6667 113,-290.8333 113,-290.8333 113,-297.1667 113,-297.1667 113,-300.3333 109.8333,-303.5 106.6667,-303.5"/>
<text text-anchor="middle" x="101" y="-291.5" font-family="Arial" font-size="10.00" fill="#000000">int</text>
</a>
</g>
</g>
<!-- builtins.object -->
<g id="node11" class="node">
<title>builtins.object</title>
<g id="a_node11"><a xlink:href="https://docs.python.org/3.6/library/functions.html#object" xlink:title="object" target="_top">
<path fill="#fbb4ae" stroke="#fbb4ae" stroke-width="2" d="M46.6667,-303.5C46.6667,-303.5 22.3333,-303.5 22.3333,-303.5 19.1667,-303.5 16,-300.3333 16,-297.1667 16,-297.1667 16,-290.8333 16,-290.8333 16,-287.6667 19.1667,-284.5 22.3333,-284.5 22.3333,-284.5 46.6667,-284.5 46.6667,-284.5 49.8333,-284.5 53,-287.6667 53,-290.8333 53,-290.8333 53,-297.1667 53,-297.1667 53,-300.3333 49.8333,-303.5 46.6667,-303.5"/>
<text text-anchor="middle" x="34.5" y="-291.5" font-family="Arial" font-size="10.00" fill="#000000">object</text>
</a>
</g>
</g>
<!-- enum.Enum -->
<g id="node12" class="node">
<title>enum.Enum</title>
<g id="a_node12"><a xlink:href="https://docs.python.org/3.6/library/enum.html#enum.Enum" xlink:title="Enum" target="_top">
<path fill="#b3cde3" stroke="#b3cde3" stroke-width="2" d="M178.6667,-265.5C178.6667,-265.5 155.3333,-265.5 155.3333,-265.5 152.1667,-265.5 149,-262.3333 149,-259.1667 149,-259.1667 149,-252.8333 149,-252.8333 149,-249.6667 152.1667,-246.5 155.3333,-246.5 155.3333,-246.5 178.6667,-246.5 178.6667,-246.5 181.8333,-246.5 185,-249.6667 185,-252.8333 185,-252.8333 185,-259.1667 185,-259.1667 185,-262.3333 181.8333,-265.5 178.6667,-265.5"/>
<text text-anchor="middle" x="167" y="-253.5" font-family="Arial" font-size="10.00" fill="#000000">Enum</text>
</a>
</g>
</g>
<!-- enum.IntEnum -->
<g id="node13" class="node">
<title>enum.IntEnum</title>
<g id="a_node13"><a xlink:href="https://docs.python.org/3.6/library/enum.html#enum.IntEnum" xlink:title="Int\nEnum" target="_top">
<path fill="#b3cde3" stroke="#b3cde3" stroke-width="2" d="M250,-276C250,-276 234,-276 234,-276 229,-276 224,-271 224,-266 224,-266 224,-256 224,-256 224,-251 229,-246 234,-246 234,-246 250,-246 250,-246 255,-246 260,-251 260,-256 260,-256 260,-266 260,-266 260,-271 255,-276 250,-276"/>
<text text-anchor="middle" x="242" y="-264" font-family="Arial" font-size="10.00" fill="#000000">Int</text>
<text text-anchor="middle" x="242" y="-253" font-family="Arial" font-size="10.00" fill="#000000">Enum</text>
</a>
</g>
</g>
<!-- uqbar.enums.IntEnumeration -->
<g id="node14" class="node">
<title>uqbar.enums.IntEnumeration</title>
<path fill="#fed9a6" stroke="#fed9a6" stroke-width="2" d="M348,-281C348,-281 309,-281 309,-281 304,-281 299,-276 299,-271 299,-271 299,-261 299,-261 299,-256 304,-251 309,-251 309,-251 348,-251 348,-251 353,-251 358,-256 358,-261 358,-261 358,-271 358,-271 358,-276 353,-281 348,-281"/>
<text text-anchor="middle" x="328.5" y="-269" font-family="Arial" font-size="10.00" fill="#000000">Int</text>
<text text-anchor="middle" x="328.5" y="-258" font-family="Arial" font-size="10.00" fill="#000000">Enumeration</text>
</g>
<!-- supriya.system.SupriyaObject.SupriyaObject -->
<g id="node15" class="node">
<title>supriya.system.SupriyaObject.SupriyaObject</title>
<g id="a_node15"><a xlink:href="../api/supriya/midi/../system/SupriyaObject.html#supriya.system.SupriyaObject.SupriyaObject" xlink:title="Supriya\nObject" target="_top">
<path fill="#decbe4" stroke="#decbe4" stroke-width="2" d="M253,-55C253,-55 231,-55 231,-55 226,-55 221,-50 221,-45 221,-45 221,-35 221,-35 221,-30 226,-25 231,-25 231,-25 253,-25 253,-25 258,-25 263,-30 263,-35 263,-35 263,-45 263,-45 263,-50 258,-55 253,-55"/>
<text text-anchor="middle" x="242" y="-43" font-family="Arial" font-size="10.00" fill="#000000">Supriya</text>
<text text-anchor="middle" x="242" y="-32" font-family="Arial" font-size="10.00" fill="#000000">Object</text>
</a>
</g>
</g>
<!-- supriya.system.SupriyaValueObject.SupriyaValueObject -->
<g id="node16" class="node">
<title>supriya.system.SupriyaValueObject.SupriyaValueObject</title>
<g id="a_node16"><a xlink:href="../api/supriya/midi/../system/SupriyaValueObject.html#supriya.system.SupriyaValueObject.SupriyaValueObject" xlink:title="Supriya\nValue\nObject" target="_top">
<path fill="#decbe4" stroke="#decbe4" stroke-width="2" d="M337.5,-57.5C337.5,-57.5 319.5,-57.5 319.5,-57.5 313.5,-57.5 307.5,-51.5 307.5,-45.5 307.5,-45.5 307.5,-28.5 307.5,-28.5 307.5,-22.5 313.5,-16.5 319.5,-16.5 319.5,-16.5 337.5,-16.5 337.5,-16.5 343.5,-16.5 349.5,-22.5 349.5,-28.5 349.5,-28.5 349.5,-45.5 349.5,-45.5 349.5,-51.5 343.5,-57.5 337.5,-57.5"/>
<text text-anchor="middle" x="328.5" y="-45.5" font-family="Arial" font-size="10.00" fill="#000000">Supriya</text>
<text text-anchor="middle" x="328.5" y="-34.5" font-family="Arial" font-size="10.00" fill="#000000">Value</text>
<text text-anchor="middle" x="328.5" y="-23.5" font-family="Arial" font-size="10.00" fill="#000000">Object</text>
</a>
</g>
</g>
</g>
</svg>
