<?xml version="1.0" encoding="UTF-8" standalone="no"?>
<!DOCTYPE svg PUBLIC "-//W3C//DTD SVG 1.1//EN"
 "http://www.w3.org/Graphics/SVG/1.1/DTD/svg11.dtd">
<!-- Generated by graphviz version 2.40.1 (20161225.0304)
 -->
<!-- Title: InheritanceGraph Pages: 1 -->
<svg width="777pt" height="723pt"
 viewBox="0.00 0.00 777.23 723.00" xmlns="http://www.w3.org/2000/svg" xmlns:xlink="http://www.w3.org/1999/xlink">
<g id="graph0" class="graph" transform="scale(1 1) rotate(0) translate(4 719)">
<title>InheritanceGraph</title>
<g id="clust5" class="cluster">
<title>cluster_uqbar.containers</title>
<path fill="transparent" stroke="#bcd2ee" stroke-width="2" stroke-dasharray="5,2" d="M93,-65C93,-65 290.5,-65 290.5,-65 296.5,-65 302.5,-71 302.5,-77 302.5,-77 302.5,-248 302.5,-248 302.5,-254 296.5,-260 290.5,-260 290.5,-260 93,-260 93,-260 87,-260 81,-254 81,-248 81,-248 81,-77 81,-77 81,-71 87,-65 93,-65"/>
<text text-anchor="middle" x="191.75" y="-248" font-family="Arial" font-size="10.00" fill="#000000">uqbar.containers</text>
</g>
<g id="clust1" class="cluster">
<title>cluster_abc</title>
<path fill="transparent" stroke="#bcd2ee" stroke-width="2" stroke-dasharray="5,2" d="M254,-580C254,-580 295,-580 295,-580 301,-580 307,-586 307,-592 307,-592 307,-623 307,-623 307,-629 301,-635 295,-635 295,-635 254,-635 254,-635 248,-635 242,-629 242,-623 242,-623 242,-592 242,-592 242,-586 248,-580 254,-580"/>
<text text-anchor="middle" x="274.5" y="-623" font-family="Arial" font-size="10.00" fill="#000000">abc</text>
</g>
<g id="clust2" class="cluster">
<title>cluster_builtins</title>
<path fill="transparent" stroke="#bcd2ee" stroke-width="2" stroke-dasharray="5,2" d="M20,-588C20,-588 201,-588 201,-588 207,-588 213,-594 213,-600 213,-600 213,-651 213,-651 213,-657 207,-663 201,-663 201,-663 20,-663 20,-663 14,-663 8,-657 8,-651 8,-651 8,-600 8,-600 8,-594 14,-588 20,-588"/>
<text text-anchor="middle" x="110.5" y="-651" font-family="Arial" font-size="10.00" fill="#000000">builtins</text>
</g>
<g id="clust3" class="cluster">
<title>cluster_enum</title>
<path fill="transparent" stroke="#bcd2ee" stroke-width="2" stroke-dasharray="5,2" d="M95,-515C95,-515 203.5,-515 203.5,-515 209.5,-515 215.5,-521 215.5,-527 215.5,-527 215.5,-568 215.5,-568 215.5,-574 209.5,-580 203.5,-580 203.5,-580 95,-580 95,-580 89,-580 83,-574 83,-568 83,-568 83,-527 83,-527 83,-521 89,-515 95,-515"/>
<text text-anchor="middle" x="149.25" y="-568" font-family="Arial" font-size="10.00" fill="#000000">enum</text>
</g>
<g id="clust4" class="cluster">
<title>cluster_supriya.daw</title>
<path fill="transparent" stroke="#bcd2ee" stroke-width="2" stroke-dasharray="5,2" d="M339,-8C339,-8 749.2254,-8 749.2254,-8 755.2254,-8 761.2254,-14 761.2254,-20 761.2254,-20 761.2254,-668 761.2254,-668 761.2254,-674 755.2254,-680 749.2254,-680 749.2254,-680 339,-680 339,-680 333,-680 327,-674 327,-668 327,-668 327,-20 327,-20 327,-14 333,-8 339,-8"/>
<text text-anchor="middle" x="544.1127" y="-668" font-family="Arial" font-size="10.00" fill="#000000">supriya.daw</text>
</g>
<!-- abc.ABCMeta&#45;&gt;supriya.daw.DawMeta.DawMeta -->
<g id="edge43" class="edge">
<title>abc.ABCMeta&#45;&gt;supriya.daw.DawMeta.DawMeta</title>
<path fill="none" stroke="#778899" d="M299.0561,-594.5934C310.0328,-593.0706 322.9989,-591.2718 334.2243,-589.7146"/>
<polygon fill="#778899" stroke="#778899" points="334.9074,-593.1534 344.3315,-588.3124 333.9454,-586.2198 334.9074,-593.1534"/>
</g>
<!-- builtins.int&#45;&gt;enum.IntEnum -->
<g id="edge44" class="edge">
<title>builtins.int&#45;&gt;enum.IntEnum</title>
<path fill="none" stroke="#778899" d="M120.5337,-596.2573C131.7583,-586.7756 149.1999,-572.0424 163.734,-559.7651"/>
<polygon fill="#778899" stroke="#778899" points="166.0708,-562.3728 171.4515,-553.246 161.5536,-557.0253 166.0708,-562.3728"/>
</g>
<!-- builtins.object&#45;&gt;builtins.int -->
<g id="edge1" class="edge">
<title>builtins.object&#45;&gt;builtins.int</title>
<path fill="none" stroke="#778899" d="M53.2995,-606C63.4091,-606 75.9444,-606 86.5618,-606"/>
<polygon fill="#778899" stroke="#778899" points="86.75,-609.5001 96.75,-606 86.75,-602.5001 86.75,-609.5001"/>
</g>
<!-- builtins.object&#45;&gt;builtins.type -->
<g id="edge2" class="edge">
<title>builtins.object&#45;&gt;builtins.type</title>
<path fill="none" stroke="#778899" d="M53.437,-615.6866C61.6779,-619.3831 71.587,-623.1511 81,-625 109.0525,-630.51 141.831,-626.3676 163.9588,-622.055"/>
<polygon fill="#778899" stroke="#778899" points="164.8323,-625.448 173.8986,-619.9658 163.3924,-618.5976 164.8323,-625.448"/>
</g>
<!-- builtins.object&#45;&gt;enum.Enum -->
<g id="edge45" class="edge">
<title>builtins.object&#45;&gt;enum.Enum</title>
<path fill="none" stroke="#778899" d="M45.4927,-596.2615C57.2673,-585.8303 76.1635,-569.0901 90.2875,-556.5775"/>
<polygon fill="#778899" stroke="#778899" points="92.7979,-559.0295 97.9622,-549.7785 88.1561,-553.7899 92.7979,-559.0295"/>
</g>
<!-- builtins.object&#45;&gt;supriya.daw.Clip.Clip -->
<g id="edge46" class="edge">
<title>builtins.object&#45;&gt;supriya.daw.Clip.Clip</title>
<path fill="none" stroke="#778899" d="M35.9697,-596.3774C39.5745,-576.4831 50.8675,-531.0162 81,-511 161.0831,-457.803 284.2055,-477.15 336.3311,-488.7811"/>
<polygon fill="#778899" stroke="#778899" points="335.8016,-492.2515 346.3355,-491.1171 337.3933,-485.4349 335.8016,-492.2515"/>
</g>
<!-- builtins.object&#45;&gt;supriya.daw.MixerContext.MixerContext -->
<g id="edge47" class="edge">
<title>builtins.object&#45;&gt;supriya.daw.MixerContext.MixerContext</title>
<path fill="none" stroke="#778899" d="M41.3027,-615.673C60.9434,-642.3494 120.7445,-715 189.5,-715 189.5,-715 189.5,-715 274.5,-715 332.7488,-715 392.9766,-679.1616 426.7785,-655.162"/>
<polygon fill="#778899" stroke="#778899" points="429.1589,-657.7585 435.1869,-649.0456 425.0412,-652.0977 429.1589,-657.7585"/>
</g>
<!-- builtins.object&#45;&gt;supriya.daw.Note.Note -->
<g id="edge48" class="edge">
<title>builtins.object&#45;&gt;supriya.daw.Note.Note</title>
<path fill="none" stroke="#778899" d="M36.1527,-596.2467C41.4969,-565.8599 59.2332,-473.7477 81,-454 152.5404,-389.0958 280.1726,-404.6474 334.9046,-415.1813"/>
<polygon fill="#778899" stroke="#778899" points="334.3446,-418.6389 344.8407,-417.1959 335.7356,-411.7785 334.3446,-418.6389"/>
</g>
<!-- builtins.object&#45;&gt;supriya.daw.NoteSelector.NoteSelector -->
<g id="edge49" class="edge">
<title>builtins.object&#45;&gt;supriya.daw.NoteSelector.NoteSelector</title>
<path fill="none" stroke="#778899" d="M48.4566,-615.6307C57.3457,-621.2104 69.3444,-627.7557 81,-631 167.7536,-655.1475 275.5615,-645.9201 328.5322,-638.974"/>
<polygon fill="#778899" stroke="#778899" points="329.2431,-642.4093 338.6746,-637.5825 328.2916,-635.4743 329.2431,-642.4093"/>
</g>
<!-- builtins.object&#45;&gt;supriya.daw.Parameter.Parameter -->
<g id="edge50" class="edge">
<title>builtins.object&#45;&gt;supriya.daw.Parameter.Parameter</title>
<path fill="none" stroke="#778899" d="M35.103,-596.303C37.106,-573.0456 45.6072,-513.8866 81,-485 151.1342,-427.7585 266.5104,-439.2576 324.836,-449.96"/>
<polygon fill="#778899" stroke="#778899" points="324.2206,-453.4058 334.7027,-451.8641 325.547,-446.5326 324.2206,-453.4058"/>
</g>
<!-- builtins.object&#45;&gt;uqbar.containers.UniqueTreeNode.UniqueTreeNode -->
<g id="edge51" class="edge">
<title>builtins.object&#45;&gt;uqbar.containers.UniqueTreeNode.UniqueTreeNode</title>
<path fill="none" stroke="#778899" d="M36.3416,-596.2606C45.6471,-547.0474 87.6605,-324.8557 103.1991,-242.6788"/>
<polygon fill="#778899" stroke="#778899" points="106.6658,-243.1822 105.0848,-232.706 99.7877,-241.8816 106.6658,-243.1822"/>
</g>
<!-- builtins.type&#45;&gt;abc.ABCMeta -->
<g id="edge52" class="edge">
<title>builtins.type&#45;&gt;abc.ABCMeta</title>
<path fill="none" stroke="#778899" d="M205.0903,-612.6985C214.9004,-610.6211 227.9601,-607.8555 240.1033,-605.284"/>
<polygon fill="#778899" stroke="#778899" points="240.9385,-608.6848 249.9965,-603.189 239.4883,-601.8367 240.9385,-608.6848"/>
</g>
<!-- enum.Enum&#45;&gt;enum.IntEnum -->
<g id="edge3" class="edge">
<title>enum.Enum&#45;&gt;enum.IntEnum</title>
<path fill="none" stroke="#778899" d="M127.2667,-539.5462C137.2504,-539.2981 149.837,-538.9854 161.0742,-538.7062"/>
<polygon fill="#778899" stroke="#778899" points="161.3956,-542.1994 171.3056,-538.452 161.2217,-535.2016 161.3956,-542.1994"/>
</g>
<!-- enum.IntEnum&#45;&gt;supriya.daw.DeviceType.DeviceType -->
<g id="edge53" class="edge">
<title>enum.IntEnum&#45;&gt;supriya.daw.DeviceType.DeviceType</title>
<path fill="none" stroke="#778899" d="M207.5294,-538C236.9118,-538 295.4189,-538 331.0974,-538"/>
<polygon fill="#778899" stroke="#778899" points="331.3797,-541.5001 341.3797,-538 331.3796,-534.5001 331.3797,-541.5001"/>
</g>
<!-- supriya.daw.AudioChain.AudioChain&#45;&gt;supriya.daw.ReturnChain.ReturnChain -->
<g id="edge4" class="edge">
<title>supriya.daw.AudioChain.AudioChain&#45;&gt;supriya.daw.ReturnChain.ReturnChain</title>
<path fill="none" stroke="#778899" d="M565.9382,-99C577.9718,-99 594.0235,-99 607.8965,-99"/>
<polygon fill="#778899" stroke="#778899" points="607.978,-102.5001 617.978,-99 607.978,-95.5001 607.978,-102.5001"/>
</g>
<!-- supriya.daw.AudioDevice.AudioDevice&#45;&gt;supriya.daw.DCDevice.DCDevice -->
<g id="edge5" class="edge">
<title>supriya.daw.AudioDevice.AudioDevice&#45;&gt;supriya.daw.DCDevice.DCDevice</title>
<path fill="none" stroke="#778899" d="M567.2541,-378.1321C577.4904,-377.6771 590.3487,-377.1056 602.2701,-376.5758"/>
<polygon fill="#778899" stroke="#778899" points="602.5812,-380.0655 612.4159,-376.1249 602.2703,-373.0724 602.5812,-380.0655"/>
</g>
<!-- supriya.daw.Chain.Chain&#45;&gt;supriya.daw.AudioChain.AudioChain -->
<g id="edge6" class="edge">
<title>supriya.daw.Chain.Chain&#45;&gt;supriya.daw.AudioChain.AudioChain</title>
<path fill="none" stroke="#778899" d="M479.1992,-107.0522C491.6387,-105.5905 506.7082,-103.8197 519.5445,-102.3114"/>
<polygon fill="#778899" stroke="#778899" points="520.1718,-105.7619 529.695,-101.1187 519.3548,-98.8097 520.1718,-105.7619"/>
</g>
<!-- supriya.daw.Chain.Chain&#45;&gt;supriya.daw.InstrumentChain.InstrumentChain -->
<g id="edge7" class="edge">
<title>supriya.daw.Chain.Chain&#45;&gt;supriya.daw.InstrumentChain.InstrumentChain</title>
<path fill="none" stroke="#778899" d="M471.3054,-99.7701C476.1494,-96.3991 481.1921,-92.3797 485.2254,-88 506.5505,-64.8429 493.8877,-42.6097 521.2254,-27 545.3683,-13.2145 577.1476,-15.376 601.4154,-20.3393"/>
<polygon fill="#778899" stroke="#778899" points="600.7835,-23.785 611.3118,-22.5996 602.3422,-16.9607 600.7835,-23.785"/>
</g>
<!-- supriya.daw.Chain.Chain&#45;&gt;supriya.daw.MidiChain.MidiChain -->
<g id="edge8" class="edge">
<title>supriya.daw.Chain.Chain&#45;&gt;supriya.daw.MidiChain.MidiChain</title>
<path fill="none" stroke="#778899" d="M470.8488,-99.452C484.782,-90.6705 504.8801,-78.0035 521.0322,-67.8236"/>
<polygon fill="#778899" stroke="#778899" points="522.9416,-70.7573 529.5354,-62.4644 519.2093,-64.8353 522.9416,-70.7573"/>
</g>
<!-- supriya.daw.DawContainer.DawContainer&#45;&gt;supriya.daw.ChainContainer.ChainContainer -->
<g id="edge9" class="edge">
<title>supriya.daw.DawContainer.DawContainer&#45;&gt;supriya.daw.ChainContainer.ChainContainer</title>
<path fill="none" stroke="#778899" d="M478.7083,-227.5335C489.1601,-225.6354 501.5352,-223.3881 512.9001,-221.3242"/>
<polygon fill="#778899" stroke="#778899" points="513.7553,-224.7263 522.969,-219.4957 512.5045,-217.8389 513.7553,-224.7263"/>
</g>
<!-- supriya.daw.DawContainer.DawContainer&#45;&gt;supriya.daw.DeviceContainer.DeviceContainer -->
<g id="edge10" class="edge">
<title>supriya.daw.DawContainer.DawContainer&#45;&gt;supriya.daw.DeviceContainer.DeviceContainer</title>
<path fill="none" stroke="#778899" d="M478.6888,-236.7264C503.1013,-240.6509 541.5131,-244.7418 574.2254,-239 583.9966,-237.2849 594.2453,-234.1912 603.5885,-230.8174"/>
<polygon fill="#778899" stroke="#778899" points="604.8462,-234.0837 612.9393,-227.2462 602.3487,-227.5444 604.8462,-234.0837"/>
</g>
<!-- supriya.daw.DawContainer.DawContainer&#45;&gt;supriya.daw.SendContainer.SendContainer -->
<g id="edge11" class="edge">
<title>supriya.daw.DawContainer.DawContainer&#45;&gt;supriya.daw.SendContainer.SendContainer</title>
<path fill="none" stroke="#778899" d="M478.7083,-245.3996C489.48,-251.268 502.2947,-258.2495 513.9409,-264.5943"/>
<polygon fill="#778899" stroke="#778899" points="512.5132,-267.8021 522.969,-269.5128 515.8621,-261.6552 512.5132,-267.8021"/>
</g>
<!-- supriya.daw.DawContainer.DawContainer&#45;&gt;supriya.daw.TrackContainer.TrackContainer -->
<g id="edge12" class="edge">
<title>supriya.daw.DawContainer.DawContainer&#45;&gt;supriya.daw.TrackContainer.TrackContainer</title>
<path fill="none" stroke="#778899" d="M474.5697,-216.8667C487.3769,-208.0796 504.5602,-197.4957 521.2254,-191 547.6626,-180.6954 579.3467,-174.8229 602.9944,-171.5953"/>
<polygon fill="#778899" stroke="#778899" points="603.4443,-175.0664 612.9217,-170.3304 602.5595,-168.1225 603.4443,-175.0664"/>
</g>
<!-- supriya.daw.DawNode.DawNode&#45;&gt;supriya.daw.Chain.Chain -->
<g id="edge13" class="edge">
<title>supriya.daw.DawNode.DawNode&#45;&gt;supriya.daw.Chain.Chain</title>
<path fill="none" stroke="#778899" d="M378.1824,-279.7614C381.4929,-276.5423 384.6548,-272.8941 387,-269 419.2581,-215.4375 387.8763,-184.7287 423,-133 424.5188,-130.7632 426.3291,-128.6612 428.3017,-126.707"/>
<polygon fill="#778899" stroke="#778899" points="430.9961,-129.0179 436.4406,-119.929 426.5166,-123.6388 430.9961,-129.0179"/>
</g>
<!-- supriya.daw.DawNode.DawNode&#45;&gt;supriya.daw.DawContainer.DawContainer -->
<g id="edge14" class="edge">
<title>supriya.daw.DawNode.DawNode&#45;&gt;supriya.daw.DawContainer.DawContainer</title>
<path fill="none" stroke="#778899" d="M378.0783,-281.8117C390.5425,-273.6461 407.7954,-262.3434 422.7163,-252.5684"/>
<polygon fill="#778899" stroke="#778899" points="424.7314,-255.4325 431.1782,-247.0248 420.8954,-249.5772 424.7314,-255.4325"/>
</g>
<!-- supriya.daw.DawNode.DawNode&#45;&gt;supriya.daw.Device.Device -->
<g id="edge15" class="edge">
<title>supriya.daw.DawNode.DawNode&#45;&gt;supriya.daw.Device.Device</title>
<path fill="none" stroke="#778899" d="M378.0783,-304.3718C392.9625,-314.2826 414.6755,-328.7403 431.0914,-339.671"/>
<polygon fill="#778899" stroke="#778899" points="429.3259,-342.7004 439.5894,-345.3295 433.2056,-336.8739 429.3259,-342.7004"/>
</g>
<!-- supriya.daw.DawNode.DawNode&#45;&gt;supriya.daw.Receive.Receive -->
<g id="edge16" class="edge">
<title>supriya.daw.DawNode.DawNode&#45;&gt;supriya.daw.Receive.Receive</title>
<path fill="none" stroke="#778899" d="M378.2484,-306.6271C381.4757,-309.7724 384.5877,-313.2928 387,-317 396.7761,-332.0242 431.7218,-442.1265 446.9424,-490.879"/>
<polygon fill="#778899" stroke="#778899" points="443.6415,-492.0508 449.9565,-500.5579 450.3249,-489.9695 443.6415,-492.0508"/>
</g>
<!-- supriya.daw.DawNode.DawNode&#45;&gt;supriya.daw.Send.Send -->
<g id="edge17" class="edge">
<title>supriya.daw.DawNode.DawNode&#45;&gt;supriya.daw.Send.Send</title>
<path fill="none" stroke="#778899" d="M378.1465,-307.6259C381.2396,-310.5918 384.3271,-313.7899 387,-317 406.1728,-340.0257 401.4057,-353.2283 423,-374 424.6444,-375.5817 426.4537,-377.0788 428.3473,-378.4832"/>
<polygon fill="#778899" stroke="#778899" points="426.6369,-381.5448 436.9382,-384.0212 430.4296,-375.6613 426.6369,-381.5448"/>
</g>
<!-- supriya.daw.DawNode.DawNode&#45;&gt;supriya.daw.SendManager.SendManager -->
<g id="edge18" class="edge">
<title>supriya.daw.DawNode.DawNode&#45;&gt;supriya.daw.SendManager.SendManager</title>
<path fill="none" stroke="#778899" d="M378.1006,-280.1301C381.4986,-276.8423 384.7174,-273.0726 387,-269 427.1016,-197.4516 379.7773,-157.7073 423,-88 423.3258,-87.4746 423.6675,-86.9563 424.0236,-86.4453"/>
<polygon fill="#778899" stroke="#778899" points="426.7712,-88.6228 430.8093,-78.8277 421.5442,-83.9666 426.7712,-88.6228"/>
</g>
<!-- supriya.daw.DawNode.DawNode&#45;&gt;supriya.daw.Track.Track -->
<g id="edge19" class="edge">
<title>supriya.daw.DawNode.DawNode&#45;&gt;supriya.daw.Track.Track</title>
<path fill="none" stroke="#778899" d="M378.2676,-278.4726C381.3496,-275.4976 384.4019,-272.271 387,-269 393.878,-260.3408 426.7448,-200.9518 443.7958,-169.8731"/>
<polygon fill="#778899" stroke="#778899" points="446.9887,-171.3295 448.7231,-160.8775 440.8494,-167.9666 446.9887,-171.3295"/>
</g>
<!-- supriya.daw.DawNode.DawNode&#45;&gt;supriya.daw.Transport.Transport -->
<g id="edge20" class="edge">
<title>supriya.daw.DawNode.DawNode&#45;&gt;supriya.daw.Transport.Transport</title>
<path fill="none" stroke="#778899" d="M378.2019,-305.8142C381.5947,-309.1048 384.7857,-312.8898 387,-317 433.7833,-403.8395 366.3998,-455.2152 423,-536 444.6672,-566.9254 484.604,-585.8105 513.4596,-596.0472"/>
<polygon fill="#778899" stroke="#778899" points="512.5618,-599.438 523.1559,-599.313 514.7961,-592.8041 512.5618,-599.438"/>
</g>
<!-- supriya.daw.Device.Device&#45;&gt;supriya.daw.AudioDevice.AudioDevice -->
<g id="edge21" class="edge">
<title>supriya.daw.Device.Device&#45;&gt;supriya.daw.AudioDevice.AudioDevice</title>
<path fill="none" stroke="#778899" d="M473.9655,-360.0898C486.8355,-363.3893 503.8297,-367.7462 518.2618,-371.4462"/>
<polygon fill="#778899" stroke="#778899" points="517.6662,-374.9067 528.2222,-373.9999 519.4047,-368.126 517.6662,-374.9067"/>
</g>
<!-- supriya.daw.Device.Device&#45;&gt;supriya.daw.Instrument.Instrument -->
<g id="edge22" class="edge">
<title>supriya.daw.Device.Device&#45;&gt;supriya.daw.Instrument.Instrument</title>
<path fill="none" stroke="#778899" d="M470.8388,-364.6672C475.5706,-367.5482 480.6705,-370.7949 485.2254,-374 502.0281,-385.8234 502.1272,-395.4248 521.2254,-403 546.5716,-413.0534 577.4185,-415.0308 601.0023,-414.6413"/>
<polygon fill="#778899" stroke="#778899" points="601.3968,-418.1307 611.2812,-414.3163 601.1755,-411.1341 601.3968,-418.1307"/>
</g>
<!-- supriya.daw.Device.Device&#45;&gt;supriya.daw.MidiDevice.MidiDevice -->
<g id="edge23" class="edge">
<title>supriya.daw.Device.Device&#45;&gt;supriya.daw.MidiDevice.MidiDevice</title>
<path fill="none" stroke="#778899" d="M472.2705,-364.676C476.7137,-367.4165 481.3122,-370.591 485.2254,-374 504.2769,-390.597 504.697,-398.8889 521.2254,-418 522.943,-419.986 524.7434,-422.0306 526.5628,-424.0712"/>
<polygon fill="#778899" stroke="#778899" points="524.237,-426.7177 533.5391,-431.7894 529.43,-422.0238 524.237,-426.7177"/>
</g>
<!-- supriya.daw.Device.Device&#45;&gt;supriya.daw.RackDevice.RackDevice -->
<g id="edge24" class="edge">
<title>supriya.daw.Device.Device&#45;&gt;supriya.daw.RackDevice.RackDevice</title>
<path fill="none" stroke="#778899" d="M473.9655,-349.9102C486.8355,-346.6107 503.8297,-342.2538 518.2618,-338.5538"/>
<polygon fill="#778899" stroke="#778899" points="519.4047,-341.874 528.2222,-336.0001 517.6662,-335.0933 519.4047,-341.874"/>
</g>
<!-- supriya.daw.Receive.Receive&#45;&gt;supriya.daw.ChainReceive.ChainReceive -->
<g id="edge35" class="edge">
<title>supriya.daw.Receive.Receive&#45;&gt;supriya.daw.ChainReceive.ChainReceive</title>
<path fill="none" stroke="#778899" d="M479.6928,-521.9244C490.8302,-525.3746 504.0018,-529.455 515.7745,-533.102"/>
<polygon fill="#778899" stroke="#778899" points="515.086,-536.5528 525.6738,-536.1687 517.1574,-529.8663 515.086,-536.5528"/>
</g>
<!-- supriya.daw.Receive.Receive&#45;&gt;supriya.daw.RackReceive.RackReceive -->
<g id="edge36" class="edge">
<title>supriya.daw.Receive.Receive&#45;&gt;supriya.daw.RackReceive.RackReceive</title>
<path fill="none" stroke="#778899" d="M466.2628,-526.5391C478.8587,-538.7761 499.6911,-556.9723 521.2254,-567 547.969,-579.4535 581.1441,-585.4817 605.2442,-588.3777"/>
<polygon fill="#778899" stroke="#778899" points="604.9777,-591.8692 615.2969,-589.4682 605.7327,-584.91 604.9777,-591.8692"/>
</g>
<!-- supriya.daw.Receive.Receive&#45;&gt;supriya.daw.TrackReceive.TrackReceive -->
<g id="edge37" class="edge">
<title>supriya.daw.Receive.Receive&#45;&gt;supriya.daw.TrackReceive.TrackReceive</title>
<path fill="none" stroke="#778899" d="M482.4536,-508.2478C492.9751,-506.1123 504.979,-503.676 515.7989,-501.4799"/>
<polygon fill="#778899" stroke="#778899" points="516.6189,-504.8849 525.7229,-499.4657 515.2265,-498.0248 516.6189,-504.8849"/>
</g>
<!-- supriya.daw.Track.Track&#45;&gt;supriya.daw.GroupTrack.GroupTrack -->
<g id="edge38" class="edge">
<title>supriya.daw.Track.Track&#45;&gt;supriya.daw.GroupTrack.GroupTrack</title>
<path fill="none" stroke="#778899" d="M471.7205,-150.2476C484.9746,-149.6813 503.4296,-148.8927 518.835,-148.2345"/>
<polygon fill="#778899" stroke="#778899" points="519.0702,-151.7277 528.9117,-147.8039 518.7713,-144.7341 519.0702,-151.7277"/>
</g>
<!-- supriya.daw.Instrument.Instrument&#45;&gt;supriya.daw.SamplerDevice.SamplerDevice -->
<g id="edge25" class="edge">
<title>supriya.daw.Instrument.Instrument&#45;&gt;supriya.daw.SamplerDevice.SamplerDevice</title>
<path fill="none" stroke="#778899" d="M664.0943,-412C673.7382,-412 684.7606,-412 694.8675,-412"/>
<polygon fill="#778899" stroke="#778899" points="694.9725,-415.5001 704.9724,-412 694.9724,-408.5001 694.9725,-415.5001"/>
</g>
<!-- supriya.daw.MidiDevice.MidiDevice&#45;&gt;supriya.daw.ArpeggiatorDevice.ArpeggiatorDevice -->
<g id="edge26" class="edge">
<title>supriya.daw.MidiDevice.MidiDevice&#45;&gt;supriya.daw.ArpeggiatorDevice.ArpeggiatorDevice</title>
<path fill="none" stroke="#778899" d="M567.2541,-448.7359C576.8329,-449.5873 588.7075,-450.6429 599.9621,-451.6433"/>
<polygon fill="#778899" stroke="#778899" points="599.7692,-455.1398 610.0399,-452.5391 600.389,-448.1673 599.7692,-455.1398"/>
</g>
<!-- supriya.daw.MidiDevice.MidiDevice&#45;&gt;supriya.daw.ChordDevice.ChordDevice -->
<g id="edge27" class="edge">
<title>supriya.daw.MidiDevice.MidiDevice&#45;&gt;supriya.daw.ChordDevice.ChordDevice</title>
<path fill="none" stroke="#778899" d="M567.4484,-459.6124C579.3571,-466.5742 595.1091,-474.6658 610.2254,-479 638.9456,-487.2348 673.1271,-489.3184 697.1043,-489.5949"/>
<polygon fill="#778899" stroke="#778899" points="697.3413,-493.0951 707.3466,-489.6103 697.3519,-486.0951 697.3413,-493.0951"/>
</g>
<!-- supriya.daw.MidiDevice.MidiDevice&#45;&gt;supriya.daw.ScaleDevice.ScaleDevice -->
<g id="edge28" class="edge">
<title>supriya.daw.MidiDevice.MidiDevice&#45;&gt;supriya.daw.ScaleDevice.ScaleDevice</title>
<path fill="none" stroke="#778899" d="M565.5065,-462.0152C578.7329,-473.1841 596.9845,-488.5966 611.8298,-501.1326"/>
<polygon fill="#778899" stroke="#778899" points="609.7747,-503.9782 619.6732,-507.7559 614.291,-498.6299 609.7747,-503.9782"/>
</g>
<!-- supriya.daw.MidiDevice.MidiDevice&#45;&gt;supriya.daw.VelocityDevice.VelocityDevice -->
<g id="edge29" class="edge">
<title>supriya.daw.MidiDevice.MidiDevice&#45;&gt;supriya.daw.VelocityDevice.VelocityDevice</title>
<path fill="none" stroke="#778899" d="M566.3631,-462.1353C569.1943,-464.9091 571.9314,-467.9101 574.2254,-471 596.5045,-501.0096 579.5231,-525.6856 610.2254,-547 634.9894,-564.1919 670.1829,-564.8591 695.4942,-562.3558"/>
<polygon fill="#778899" stroke="#778899" points="696.1686,-565.7999 705.6776,-561.1278 695.3304,-558.8503 696.1686,-565.7999"/>
</g>
<!-- supriya.daw.RackDevice.RackDevice&#45;&gt;supriya.daw.AudioRack.AudioRack -->
<g id="edge32" class="edge">
<title>supriya.daw.RackDevice.RackDevice&#45;&gt;supriya.daw.AudioRack.AudioRack</title>
<path fill="none" stroke="#778899" d="M567.2541,-316.462C580.0979,-306.9004 597.0697,-294.2659 611.1393,-283.7919"/>
<polygon fill="#778899" stroke="#778899" points="613.5304,-286.3752 619.4617,-277.5963 609.3504,-280.7603 613.5304,-286.3752"/>
</g>
<!-- supriya.daw.RackDevice.RackDevice&#45;&gt;supriya.daw.InstrumentRack.InstrumentRack -->
<g id="edge33" class="edge">
<title>supriya.daw.RackDevice.RackDevice&#45;&gt;supriya.daw.InstrumentRack.InstrumentRack</title>
<path fill="none" stroke="#778899" d="M567.3021,-322.2572C579.4211,-317.2353 595.4406,-311.2897 610.2254,-308 636.8011,-302.0867 667.4894,-299.6216 690.7674,-298.6163"/>
<polygon fill="#778899" stroke="#778899" points="691.0328,-302.1091 700.8998,-298.2499 690.7798,-295.1136 691.0328,-302.1091"/>
</g>
<!-- supriya.daw.RackDevice.RackDevice&#45;&gt;supriya.daw.MidiRack.MidiRack -->
<g id="edge34" class="edge">
<title>supriya.daw.RackDevice.RackDevice&#45;&gt;supriya.daw.MidiRack.MidiRack</title>
<path fill="none" stroke="#778899" d="M567.2541,-331.217C579.9429,-331.358 596.6604,-331.5437 610.6283,-331.6989"/>
<polygon fill="#778899" stroke="#778899" points="610.6232,-335.199 620.6615,-331.8104 610.701,-328.1994 610.6232,-335.199"/>
</g>
<!-- supriya.daw.MixerContext.MixerContext&#45;&gt;supriya.daw.Application.Application -->
<g id="edge30" class="edge">
<title>supriya.daw.MixerContext.MixerContext&#45;&gt;supriya.daw.Application.Application</title>
<path fill="none" stroke="#778899" d="M475.3549,-636.0422C485.869,-637.0531 498.8657,-638.3026 510.9312,-639.4626"/>
<polygon fill="#778899" stroke="#778899" points="510.9197,-642.9775 521.2088,-640.4507 511.5896,-636.0096 510.9197,-642.9775"/>
</g>
<!-- supriya.daw.MixerContext.MixerContext&#45;&gt;supriya.daw.RackDevice.RackDevice -->
<g id="edge31" class="edge">
<title>supriya.daw.MixerContext.MixerContext&#45;&gt;supriya.daw.RackDevice.RackDevice</title>
<path fill="none" stroke="#778899" d="M459.4922,-618.8746C466.1591,-599.752 477.5736,-565.7345 485.2254,-536 505.6663,-456.5678 480.7849,-426.3574 521.2254,-355 521.3975,-354.6962 521.5749,-354.3942 521.7572,-354.0941"/>
<polygon fill="#778899" stroke="#778899" points="524.717,-355.992 528.1392,-345.9651 519.2111,-351.6693 524.717,-355.992"/>
</g>
<!-- uqbar.containers.UniqueTreeContainer.UniqueTreeContainer&#45;&gt;uqbar.containers.UniqueTreeDict.UniqueTreeDict -->
<g id="edge39" class="edge">
<title>uqbar.containers.UniqueTreeContainer.UniqueTreeContainer&#45;&gt;uqbar.containers.UniqueTreeDict.UniqueTreeDict</title>
<path fill="none" stroke="#778899" d="M207.0013,-162.3451C216.9888,-150.8123 229.896,-136.327 242,-124 243.5736,-122.3974 245.2119,-120.7694 246.8796,-119.1426"/>
<polygon fill="#778899" stroke="#778899" points="249.4437,-121.5339 254.2696,-112.1019 244.6152,-116.4658 249.4437,-121.5339"/>
</g>
<!-- uqbar.containers.UniqueTreeContainer.UniqueTreeContainer&#45;&gt;uqbar.containers.UniqueTreeList.UniqueTreeList -->
<g id="edge40" class="edge">
<title>uqbar.containers.UniqueTreeContainer.UniqueTreeContainer&#45;&gt;uqbar.containers.UniqueTreeList.UniqueTreeList</title>
<path fill="none" stroke="#778899" d="M214.0855,-191.388C223.6465,-194.65 234.6881,-198.4171 244.6956,-201.8314"/>
<polygon fill="#778899" stroke="#778899" points="243.6707,-205.1798 254.2652,-205.0964 245.9311,-198.5548 243.6707,-205.1798"/>
</g>
<!-- uqbar.containers.UniqueTreeContainer.UniqueTreeContainer&#45;&gt;uqbar.containers.UniqueTreeTuple.UniqueTreeTuple -->
<g id="edge41" class="edge">
<title>uqbar.containers.UniqueTreeContainer.UniqueTreeContainer&#45;&gt;uqbar.containers.UniqueTreeTuple.UniqueTreeTuple</title>
<path fill="none" stroke="#778899" d="M214.0855,-174.3228C223.6465,-170.9483 234.6881,-167.0513 244.6956,-163.5192"/>
<polygon fill="#778899" stroke="#778899" points="246.0002,-166.7704 254.2652,-160.1417 243.6704,-160.1695 246.0002,-166.7704"/>
</g>
<!-- uqbar.containers.UniqueTreeDict.UniqueTreeDict&#45;&gt;supriya.daw.SendManager.SendManager -->
<g id="edge54" class="edge">
<title>uqbar.containers.UniqueTreeDict.UniqueTreeDict&#45;&gt;supriya.daw.SendManager.SendManager</title>
<path fill="none" stroke="#778899" d="M293.9366,-73.1905C303.0731,-64.9072 314.6639,-56.3273 327,-52 357.6528,-41.2476 394.8658,-46.7379 421.0834,-53.3983"/>
<polygon fill="#778899" stroke="#778899" points="420.3331,-56.8215 430.9018,-56.0773 422.1758,-50.0683 420.3331,-56.8215"/>
</g>
<!-- uqbar.containers.UniqueTreeList.UniqueTreeList&#45;&gt;supriya.daw.ClipSlotContainer.ClipSlotContainer -->
<g id="edge55" class="edge">
<title>uqbar.containers.UniqueTreeList.UniqueTreeList&#45;&gt;supriya.daw.ClipSlotContainer.ClipSlotContainer</title>
<path fill="none" stroke="#778899" d="M294.5623,-218.2622C304.115,-221.244 315.8104,-224.8946 326.7115,-228.2972"/>
<polygon fill="#778899" stroke="#778899" points="325.8264,-231.6874 336.4151,-231.3261 327.9122,-225.0054 325.8264,-231.6874"/>
</g>
<!-- uqbar.containers.UniqueTreeList.UniqueTreeList&#45;&gt;supriya.daw.DawContainer.DawContainer -->
<g id="edge56" class="edge">
<title>uqbar.containers.UniqueTreeList.UniqueTreeList&#45;&gt;supriya.daw.DawContainer.DawContainer</title>
<path fill="none" stroke="#778899" d="M294.7394,-194.5305C298.8693,-190.8026 303.1322,-186.8321 307,-183 316.3871,-173.6995 314.9153,-166.3459 327,-161 351.387,-150.2119 362.5092,-150.4495 387,-161 409.2128,-170.5691 427.5024,-191.5063 439.3476,-208.1785"/>
<polygon fill="#778899" stroke="#778899" points="436.7472,-210.581 445.2493,-216.9028 442.5452,-206.6589 436.7472,-210.581"/>
</g>
<!-- uqbar.containers.UniqueTreeList.UniqueTreeList&#45;&gt;supriya.daw.SceneContainer.SceneContainer -->
<g id="edge57" class="edge">
<title>uqbar.containers.UniqueTreeList.UniqueTreeList&#45;&gt;supriya.daw.SceneContainer.SceneContainer</title>
<path fill="none" stroke="#778899" d="M294.5623,-205.7378C304.115,-202.756 315.8104,-199.1054 326.7115,-195.7028"/>
<polygon fill="#778899" stroke="#778899" points="327.9122,-198.9946 336.4151,-192.6739 325.8264,-192.3126 327.9122,-198.9946"/>
</g>
<!-- uqbar.containers.UniqueTreeTuple.UniqueTreeTuple&#45;&gt;supriya.daw.Application.Application -->
<g id="edge61" class="edge">
<title>uqbar.containers.UniqueTreeTuple.UniqueTreeTuple&#45;&gt;supriya.daw.Application.Application</title>
<path fill="none" stroke="#778899" d="M294.7895,-167.1905C299.6464,-171.6559 304.2247,-177.0078 307,-183 329.1999,-230.9333 288.8698,-621.4415 327,-658 378.6374,-707.5089 471.9728,-677.0379 518.9989,-656.7589"/>
<polygon fill="#778899" stroke="#778899" points="520.5869,-659.8832 528.2991,-652.6188 517.74,-653.4882 520.5869,-659.8832"/>
</g>
<!-- uqbar.containers.UniqueTreeTuple.UniqueTreeTuple&#45;&gt;supriya.daw.Chain.Chain -->
<g id="edge62" class="edge">
<title>uqbar.containers.UniqueTreeTuple.UniqueTreeTuple&#45;&gt;supriya.daw.Chain.Chain</title>
<path fill="none" stroke="#778899" d="M294.7814,-137.0209C304.0744,-130.5813 315.554,-123.791 327,-120 356.7353,-110.1515 392.4353,-108.1351 418.4209,-108.3016"/>
<polygon fill="#778899" stroke="#778899" points="418.5074,-111.8036 428.5674,-108.4799 418.6304,-104.8046 418.5074,-111.8036"/>
</g>
<!-- uqbar.containers.UniqueTreeTuple.UniqueTreeTuple&#45;&gt;supriya.daw.Track.Track -->
<g id="edge64" class="edge">
<title>uqbar.containers.UniqueTreeTuple.UniqueTreeTuple&#45;&gt;supriya.daw.Track.Track</title>
<path fill="none" stroke="#778899" d="M294.6779,-140.7985C304.1357,-135.7713 315.7744,-130.5363 327,-128 353.011,-122.1231 360.6959,-123.6178 387,-128 400.573,-130.2612 415.0809,-134.9291 427.1226,-139.4725"/>
<polygon fill="#778899" stroke="#778899" points="425.9963,-142.7906 436.5831,-143.2041 428.5648,-136.2788 425.9963,-142.7906"/>
</g>
<!-- uqbar.containers.UniqueTreeTuple.UniqueTreeTuple&#45;&gt;supriya.daw.RackDevice.RackDevice -->
<g id="edge63" class="edge">
<title>uqbar.containers.UniqueTreeTuple.UniqueTreeTuple&#45;&gt;supriya.daw.RackDevice.RackDevice</title>
<path fill="none" stroke="#778899" d="M294.526,-135.3071C298.6714,-131.5954 302.9946,-127.688 307,-124 316.0196,-115.6953 317.4471,-112.6852 327,-105 386.2357,-57.3456 427.9885,10.0375 485.2254,-40 530.2998,-79.4048 493.3429,-254.0188 521.2254,-307 521.4494,-307.4257 521.6842,-307.8476 521.9288,-308.2656"/>
<polygon fill="#778899" stroke="#778899" points="519.3383,-310.6373 528.2233,-316.4085 524.8766,-306.3561 519.3383,-310.6373"/>
</g>
<!-- uqbar.containers.UniqueTreeNode.UniqueTreeNode&#45;&gt;supriya.daw.ClipSlot.ClipSlot -->
<g id="edge58" class="edge">
<title>uqbar.containers.UniqueTreeNode.UniqueTreeNode&#45;&gt;supriya.daw.ClipSlot.ClipSlot</title>
<path fill="none" stroke="#778899" d="M129.1067,-227.8068C139.5002,-235.5989 152.5811,-244.8358 165,-252 224.1788,-286.1391 298.7883,-316.906 336.6115,-331.7075"/>
<polygon fill="#778899" stroke="#778899" points="335.6717,-335.0969 346.2607,-335.4484 338.2021,-328.5702 335.6717,-335.0969"/>
</g>
<!-- uqbar.containers.UniqueTreeNode.UniqueTreeNode&#45;&gt;supriya.daw.DawNode.DawNode -->
<g id="edge59" class="edge">
<title>uqbar.containers.UniqueTreeNode.UniqueTreeNode&#45;&gt;supriya.daw.DawNode.DawNode</title>
<path fill="none" stroke="#778899" d="M129.1962,-218.4916C174.3233,-232.9968 283.3516,-268.0416 334.1352,-284.3649"/>
<polygon fill="#778899" stroke="#778899" points="333.1706,-287.7311 343.7619,-287.4592 335.3127,-281.0669 333.1706,-287.7311"/>
</g>
<!-- uqbar.containers.UniqueTreeNode.UniqueTreeNode&#45;&gt;supriya.daw.Scene.Scene -->
<g id="edge60" class="edge">
<title>uqbar.containers.UniqueTreeNode.UniqueTreeNode&#45;&gt;supriya.daw.Scene.Scene</title>
<path fill="none" stroke="#778899" d="M123.4748,-232.7959C133.9012,-246.7519 148.9178,-264.9079 165,-278 218.3784,-321.4541 292.235,-355.7081 332.3211,-372.5604"/>
<polygon fill="#778899" stroke="#778899" points="331.1735,-375.8734 341.7518,-376.465 333.8513,-369.4058 331.1735,-375.8734"/>
</g>
<!-- uqbar.containers.UniqueTreeNode.UniqueTreeNode&#45;&gt;uqbar.containers.UniqueTreeContainer.UniqueTreeContainer -->
<g id="edge42" class="edge">
<title>uqbar.containers.UniqueTreeNode.UniqueTreeNode&#45;&gt;uqbar.containers.UniqueTreeContainer.UniqueTreeContainer</title>
<path fill="none" stroke="#778899" d="M129.3135,-204.6821C137.2491,-201.8233 146.5679,-198.4662 155.4706,-195.259"/>
<polygon fill="#778899" stroke="#778899" points="156.6607,-198.5506 164.8825,-191.8684 154.2881,-191.9649 156.6607,-198.5506"/>
</g>
<!-- abc.ABCMeta -->
<g id="node1" class="node">
<title>abc.ABCMeta</title>
<g id="a_node1"><a xlink:href="https://docs.python.org/3.6/library/abc.html#abc.ABCMeta" xlink:title="ABCMeta" target="_top">
<path fill="#fbb4ae" stroke="#fbb4ae" stroke-width="2" d="M292.6667,-607.5C292.6667,-607.5 256.3333,-607.5 256.3333,-607.5 253.1667,-607.5 250,-604.3333 250,-601.1667 250,-601.1667 250,-594.8333 250,-594.8333 250,-591.6667 253.1667,-588.5 256.3333,-588.5 256.3333,-588.5 292.6667,-588.5 292.6667,-588.5 295.8333,-588.5 299,-591.6667 299,-594.8333 299,-594.8333 299,-601.1667 299,-601.1667 299,-604.3333 295.8333,-607.5 292.6667,-607.5"/>
<text text-anchor="middle" x="274.5" y="-595.5" font-family="Arial" font-size="10.00" fill="#000000">ABCMeta</text>
</a>
</g>
</g>
<!-- builtins.int -->
<g id="node2" class="node">
<title>builtins.int</title>
<g id="a_node2"><a xlink:href="https://docs.python.org/3.6/library/functions.html#int" xlink:title="int" target="_top">
<path fill="#b3cde3" stroke="#b3cde3" stroke-width="2" d="M114.6667,-615.5C114.6667,-615.5 103.3333,-615.5 103.3333,-615.5 100.1667,-615.5 97,-612.3333 97,-609.1667 97,-609.1667 97,-602.8333 97,-602.8333 97,-599.6667 100.1667,-596.5 103.3333,-596.5 103.3333,-596.5 114.6667,-596.5 114.6667,-596.5 117.8333,-596.5 121,-599.6667 121,-602.8333 121,-602.8333 121,-609.1667 121,-609.1667 121,-612.3333 117.8333,-615.5 114.6667,-615.5"/>
<text text-anchor="middle" x="109" y="-603.5" font-family="Arial" font-size="10.00" fill="#000000">int</text>
</a>
</g>
</g>
<!-- builtins.object -->
<g id="node3" class="node">
<title>builtins.object</title>
<g id="a_node3"><a xlink:href="https://docs.python.org/3.6/library/functions.html#object" xlink:title="object" target="_top">
<path fill="#b3cde3" stroke="#b3cde3" stroke-width="2" d="M46.6667,-615.5C46.6667,-615.5 22.3333,-615.5 22.3333,-615.5 19.1667,-615.5 16,-612.3333 16,-609.1667 16,-609.1667 16,-602.8333 16,-602.8333 16,-599.6667 19.1667,-596.5 22.3333,-596.5 22.3333,-596.5 46.6667,-596.5 46.6667,-596.5 49.8333,-596.5 53,-599.6667 53,-602.8333 53,-602.8333 53,-609.1667 53,-609.1667 53,-612.3333 49.8333,-615.5 46.6667,-615.5"/>
<text text-anchor="middle" x="34.5" y="-603.5" font-family="Arial" font-size="10.00" fill="#000000">object</text>
</a>
</g>
</g>
<!-- builtins.type -->
<g id="node4" class="node">
<title>builtins.type</title>
<g id="a_node4"><a xlink:href="https://docs.python.org/3.6/library/functions.html#type" xlink:title="type" target="_top">
<path fill="#b3cde3" stroke="#b3cde3" stroke-width="2" d="M198.6667,-625.5C198.6667,-625.5 180.3333,-625.5 180.3333,-625.5 177.1667,-625.5 174,-622.3333 174,-619.1667 174,-619.1667 174,-612.8333 174,-612.8333 174,-609.6667 177.1667,-606.5 180.3333,-606.5 180.3333,-606.5 198.6667,-606.5 198.6667,-606.5 201.8333,-606.5 205,-609.6667 205,-612.8333 205,-612.8333 205,-619.1667 205,-619.1667 205,-622.3333 201.8333,-625.5 198.6667,-625.5"/>
<text text-anchor="middle" x="189.5" y="-613.5" font-family="Arial" font-size="10.00" fill="#000000">type</text>
</a>
</g>
</g>
<!-- enum.Enum -->
<g id="node5" class="node">
<title>enum.Enum</title>
<g id="a_node5"><a xlink:href="https://docs.python.org/3.6/library/enum.html#enum.Enum" xlink:title="Enum" target="_top">
<path fill="#ccebc5" stroke="#ccebc5" stroke-width="2" d="M120.6667,-549.5C120.6667,-549.5 97.3333,-549.5 97.3333,-549.5 94.1667,-549.5 91,-546.3333 91,-543.1667 91,-543.1667 91,-536.8333 91,-536.8333 91,-533.6667 94.1667,-530.5 97.3333,-530.5 97.3333,-530.5 120.6667,-530.5 120.6667,-530.5 123.8333,-530.5 127,-533.6667 127,-536.8333 127,-536.8333 127,-543.1667 127,-543.1667 127,-546.3333 123.8333,-549.5 120.6667,-549.5"/>
<text text-anchor="middle" x="109" y="-537.5" font-family="Arial" font-size="10.00" fill="#000000">Enum</text>
</a>
</g>
</g>
<!-- enum.IntEnum -->
<g id="node6" class="node">
<title>enum.IntEnum</title>
<g id="a_node6"><a xlink:href="https://docs.python.org/3.6/library/enum.html#enum.IntEnum" xlink:title="Int\nEnum" target="_top">
<path fill="#ccebc5" stroke="#ccebc5" stroke-width="2" d="M197.5,-553C197.5,-553 181.5,-553 181.5,-553 176.5,-553 171.5,-548 171.5,-543 171.5,-543 171.5,-533 171.5,-533 171.5,-528 176.5,-523 181.5,-523 181.5,-523 197.5,-523 197.5,-523 202.5,-523 207.5,-528 207.5,-533 207.5,-533 207.5,-543 207.5,-543 207.5,-548 202.5,-553 197.5,-553"/>
<text text-anchor="middle" x="189.5" y="-541" font-family="Arial" font-size="10.00" fill="#000000">Int</text>
<text text-anchor="middle" x="189.5" y="-530" font-family="Arial" font-size="10.00" fill="#000000">Enum</text>
</a>
</g>
</g>
<!-- supriya.daw.Application.Application -->
<g id="node7" class="node">
<title>supriya.daw.Application.Application</title>
<g id="a_node7"><a xlink:href="../api/supriya/daw/Application.html#supriya.daw.Application.Application" xlink:title="Application" target="_top">
<path fill="#000000" stroke="#000000" stroke-width="2" d="M567.8921,-652.5C567.8921,-652.5 527.5587,-652.5 527.5587,-652.5 524.3921,-652.5 521.2254,-649.3333 521.2254,-646.1667 521.2254,-646.1667 521.2254,-639.8333 521.2254,-639.8333 521.2254,-636.6667 524.3921,-633.5 527.5587,-633.5 527.5587,-633.5 567.8921,-633.5 567.8921,-633.5 571.0587,-633.5 574.2254,-636.6667 574.2254,-639.8333 574.2254,-639.8333 574.2254,-646.1667 574.2254,-646.1667 574.2254,-649.3333 571.0587,-652.5 567.8921,-652.5"/>
<text text-anchor="middle" x="547.7254" y="-640.5" font-family="Arial" font-size="10.00" fill="#ffffff">Application</text>
</a>
</g>
</g>
<!-- supriya.daw.ArpeggiatorDevice.ArpeggiatorDevice -->
<g id="node8" class="node">
<title>supriya.daw.ArpeggiatorDevice.ArpeggiatorDevice</title>
<g id="a_node8"><a xlink:href="../api/supriya/daw/ArpeggiatorDevice.html#supriya.daw.ArpeggiatorDevice.ArpeggiatorDevice" xlink:title="Arpeggiator\nDevice" target="_top">
<path fill="#000000" stroke="#000000" stroke-width="2" d="M655.2254,-470C655.2254,-470 620.2254,-470 620.2254,-470 615.2254,-470 610.2254,-465 610.2254,-460 610.2254,-460 610.2254,-450 610.2254,-450 610.2254,-445 615.2254,-440 620.2254,-440 620.2254,-440 655.2254,-440 655.2254,-440 660.2254,-440 665.2254,-445 665.2254,-450 665.2254,-450 665.2254,-460 665.2254,-460 665.2254,-465 660.2254,-470 655.2254,-470"/>
<text text-anchor="middle" x="637.7254" y="-458" font-family="Arial" font-size="10.00" fill="#ffffff">Arpeggiator</text>
<text text-anchor="middle" x="637.7254" y="-447" font-family="Arial" font-size="10.00" fill="#ffffff">Device</text>
</a>
</g>
</g>
<!-- supriya.daw.AudioChain.AudioChain -->
<g id="node9" class="node">
<title>supriya.daw.AudioChain.AudioChain</title>
<g id="a_node9"><a xlink:href="../api/supriya/daw/AudioChain.html#supriya.daw.AudioChain.AudioChain" xlink:title="Audio\nChain" target="_top">
<path fill="#000000" stroke="#000000" stroke-width="2" d="M555.7254,-114C555.7254,-114 539.7254,-114 539.7254,-114 534.7254,-114 529.7254,-109 529.7254,-104 529.7254,-104 529.7254,-94 529.7254,-94 529.7254,-89 534.7254,-84 539.7254,-84 539.7254,-84 555.7254,-84 555.7254,-84 560.7254,-84 565.7254,-89 565.7254,-94 565.7254,-94 565.7254,-104 565.7254,-104 565.7254,-109 560.7254,-114 555.7254,-114"/>
<text text-anchor="middle" x="547.7254" y="-102" font-family="Arial" font-size="10.00" fill="#ffffff">Audio</text>
<text text-anchor="middle" x="547.7254" y="-91" font-family="Arial" font-size="10.00" fill="#ffffff">Chain</text>
</a>
</g>
</g>
<!-- supriya.daw.ReturnChain.ReturnChain -->
<g id="node10" class="node">
<title>supriya.daw.ReturnChain.ReturnChain</title>
<g id="a_node10"><a xlink:href="../api/supriya/daw/ReturnChain.html#supriya.daw.ReturnChain.ReturnChain" xlink:title="Return\nChain" target="_top">
<path fill="#000000" stroke="#000000" stroke-width="2" d="M647.2254,-114C647.2254,-114 628.2254,-114 628.2254,-114 623.2254,-114 618.2254,-109 618.2254,-104 618.2254,-104 618.2254,-94 618.2254,-94 618.2254,-89 623.2254,-84 628.2254,-84 628.2254,-84 647.2254,-84 647.2254,-84 652.2254,-84 657.2254,-89 657.2254,-94 657.2254,-94 657.2254,-104 657.2254,-104 657.2254,-109 652.2254,-114 647.2254,-114"/>
<text text-anchor="middle" x="637.7254" y="-102" font-family="Arial" font-size="10.00" fill="#ffffff">Return</text>
<text text-anchor="middle" x="637.7254" y="-91" font-family="Arial" font-size="10.00" fill="#ffffff">Chain</text>
</a>
</g>
</g>
<!-- supriya.daw.AudioDevice.AudioDevice -->
<g id="node11" class="node">
<title>supriya.daw.AudioDevice.AudioDevice</title>
<g id="a_node11"><a xlink:href="../api/supriya/daw/AudioDevice.html#supriya.daw.AudioDevice.AudioDevice" xlink:title="Audio\nDevice" target="_top">
<path fill="#000000" stroke="#000000" stroke-width="2" d="M557.2254,-394C557.2254,-394 538.2254,-394 538.2254,-394 533.2254,-394 528.2254,-389 528.2254,-384 528.2254,-384 528.2254,-374 528.2254,-374 528.2254,-369 533.2254,-364 538.2254,-364 538.2254,-364 557.2254,-364 557.2254,-364 562.2254,-364 567.2254,-369 567.2254,-374 567.2254,-374 567.2254,-384 567.2254,-384 567.2254,-389 562.2254,-394 557.2254,-394"/>
<text text-anchor="middle" x="547.7254" y="-382" font-family="Arial" font-size="10.00" fill="#ffffff">Audio</text>
<text text-anchor="middle" x="547.7254" y="-371" font-family="Arial" font-size="10.00" fill="#ffffff">Device</text>
</a>
</g>
</g>
<!-- supriya.daw.DCDevice.DCDevice -->
<g id="node12" class="node">
<title>supriya.daw.DCDevice.DCDevice</title>
<g id="a_node12"><a xlink:href="../api/supriya/daw/DCDevice.html#supriya.daw.DCDevice.DCDevice" xlink:title="DCDevice" target="_top">
<path fill="#000000" stroke="#000000" stroke-width="2" d="M656.3921,-384.5C656.3921,-384.5 619.0587,-384.5 619.0587,-384.5 615.8921,-384.5 612.7254,-381.3333 612.7254,-378.1667 612.7254,-378.1667 612.7254,-371.8333 612.7254,-371.8333 612.7254,-368.6667 615.8921,-365.5 619.0587,-365.5 619.0587,-365.5 656.3921,-365.5 656.3921,-365.5 659.5587,-365.5 662.7254,-368.6667 662.7254,-371.8333 662.7254,-371.8333 662.7254,-378.1667 662.7254,-378.1667 662.7254,-381.3333 659.5587,-384.5 656.3921,-384.5"/>
<text text-anchor="middle" x="637.7254" y="-372.5" font-family="Arial" font-size="10.00" fill="#ffffff">DCDevice</text>
</a>
</g>
</g>
<!-- supriya.daw.AudioRack.AudioRack -->
<g id="node13" class="node">
<title>supriya.daw.AudioRack.AudioRack</title>
<g id="a_node13"><a xlink:href="../api/supriya/daw/AudioRack.html#supriya.daw.AudioRack.AudioRack" xlink:title="Audio\nRack" target="_top">
<path fill="#000000" stroke="#000000" stroke-width="2" d="M645.7254,-279C645.7254,-279 629.7254,-279 629.7254,-279 624.7254,-279 619.7254,-274 619.7254,-269 619.7254,-269 619.7254,-259 619.7254,-259 619.7254,-254 624.7254,-249 629.7254,-249 629.7254,-249 645.7254,-249 645.7254,-249 650.7254,-249 655.7254,-254 655.7254,-259 655.7254,-259 655.7254,-269 655.7254,-269 655.7254,-274 650.7254,-279 645.7254,-279"/>
<text text-anchor="middle" x="637.7254" y="-267" font-family="Arial" font-size="10.00" fill="#ffffff">Audio</text>
<text text-anchor="middle" x="637.7254" y="-256" font-family="Arial" font-size="10.00" fill="#ffffff">Rack</text>
</a>
</g>
</g>
<!-- supriya.daw.Chain.Chain -->
<g id="node14" class="node">
<title>supriya.daw.Chain.Chain</title>
<g id="a_node14"><a xlink:href="../api/supriya/daw/Chain.html#supriya.daw.Chain.Chain" xlink:title="Chain" target="_top">
<ellipse fill="#000000" stroke="#000000" stroke-width="2" cx="454.1127" cy="-110" rx="25.4118" ry="13.3704"/>
<text text-anchor="middle" x="454.1127" y="-107.5" font-family="Arial" font-size="10.00" fill="#ffffff">Chain</text>
</a>
</g>
</g>
<!-- supriya.daw.InstrumentChain.InstrumentChain -->
<g id="node15" class="node">
<title>supriya.daw.InstrumentChain.InstrumentChain</title>
<g id="a_node15"><a xlink:href="../api/supriya/daw/InstrumentChain.html#supriya.daw.InstrumentChain.InstrumentChain" xlink:title="Instrument\nChain" target="_top">
<path fill="#000000" stroke="#000000" stroke-width="2" d="M653.7254,-46C653.7254,-46 621.7254,-46 621.7254,-46 616.7254,-46 611.7254,-41 611.7254,-36 611.7254,-36 611.7254,-26 611.7254,-26 611.7254,-21 616.7254,-16 621.7254,-16 621.7254,-16 653.7254,-16 653.7254,-16 658.7254,-16 663.7254,-21 663.7254,-26 663.7254,-26 663.7254,-36 663.7254,-36 663.7254,-41 658.7254,-46 653.7254,-46"/>
<text text-anchor="middle" x="637.7254" y="-34" font-family="Arial" font-size="10.00" fill="#ffffff">Instrument</text>
<text text-anchor="middle" x="637.7254" y="-23" font-family="Arial" font-size="10.00" fill="#ffffff">Chain</text>
</a>
</g>
</g>
<!-- supriya.daw.MidiChain.MidiChain -->
<g id="node16" class="node">
<title>supriya.daw.MidiChain.MidiChain</title>
<g id="a_node16"><a xlink:href="../api/supriya/daw/MidiChain.html#supriya.daw.MidiChain.MidiChain" xlink:title="Midi\nChain" target="_top">
<path fill="#000000" stroke="#000000" stroke-width="2" d="M555.7254,-66C555.7254,-66 539.7254,-66 539.7254,-66 534.7254,-66 529.7254,-61 529.7254,-56 529.7254,-56 529.7254,-46 529.7254,-46 529.7254,-41 534.7254,-36 539.7254,-36 539.7254,-36 555.7254,-36 555.7254,-36 560.7254,-36 565.7254,-41 565.7254,-46 565.7254,-46 565.7254,-56 565.7254,-56 565.7254,-61 560.7254,-66 555.7254,-66"/>
<text text-anchor="middle" x="547.7254" y="-54" font-family="Arial" font-size="10.00" fill="#ffffff">Midi</text>
<text text-anchor="middle" x="547.7254" y="-43" font-family="Arial" font-size="10.00" fill="#ffffff">Chain</text>
</a>
</g>
</g>
<!-- supriya.daw.ChainContainer.ChainContainer -->
<g id="node17" class="node">
<title>supriya.daw.ChainContainer.ChainContainer</title>
<g id="a_node17"><a xlink:href="../api/supriya/daw/ChainContainer.html#supriya.daw.ChainContainer.ChainContainer" xlink:title="Chain\nContainer" target="_top">
<path fill="#000000" stroke="#000000" stroke-width="2" d="M562.2254,-230C562.2254,-230 533.2254,-230 533.2254,-230 528.2254,-230 523.2254,-225 523.2254,-220 523.2254,-220 523.2254,-210 523.2254,-210 523.2254,-205 528.2254,-200 533.2254,-200 533.2254,-200 562.2254,-200 562.2254,-200 567.2254,-200 572.2254,-205 572.2254,-210 572.2254,-210 572.2254,-220 572.2254,-220 572.2254,-225 567.2254,-230 562.2254,-230"/>
<text text-anchor="middle" x="547.7254" y="-218" font-family="Arial" font-size="10.00" fill="#ffffff">Chain</text>
<text text-anchor="middle" x="547.7254" y="-207" font-family="Arial" font-size="10.00" fill="#ffffff">Container</text>
</a>
</g>
</g>
<!-- supriya.daw.ChainReceive.ChainReceive -->
<g id="node18" class="node">
<title>supriya.daw.ChainReceive.ChainReceive</title>
<g id="a_node18"><a xlink:href="../api/supriya/daw/ChainReceive.html#supriya.daw.ChainReceive.ChainReceive" xlink:title="Chain\nReceive" target="_top">
<path fill="#000000" stroke="#000000" stroke-width="2" d="M559.7254,-558C559.7254,-558 535.7254,-558 535.7254,-558 530.7254,-558 525.7254,-553 525.7254,-548 525.7254,-548 525.7254,-538 525.7254,-538 525.7254,-533 530.7254,-528 535.7254,-528 535.7254,-528 559.7254,-528 559.7254,-528 564.7254,-528 569.7254,-533 569.7254,-538 569.7254,-538 569.7254,-548 569.7254,-548 569.7254,-553 564.7254,-558 559.7254,-558"/>
<text text-anchor="middle" x="547.7254" y="-546" font-family="Arial" font-size="10.00" fill="#ffffff">Chain</text>
<text text-anchor="middle" x="547.7254" y="-535" font-family="Arial" font-size="10.00" fill="#ffffff">Receive</text>
</a>
</g>
</g>
<!-- supriya.daw.ChordDevice.ChordDevice -->
<g id="node19" class="node">
<title>supriya.daw.ChordDevice.ChordDevice</title>
<g id="a_node19"><a xlink:href="../api/supriya/daw/ChordDevice.html#supriya.daw.ChordDevice.ChordDevice" xlink:title="Chord\nDevice" target="_top">
<path fill="#000000" stroke="#000000" stroke-width="2" d="M736.7254,-504C736.7254,-504 717.7254,-504 717.7254,-504 712.7254,-504 707.7254,-499 707.7254,-494 707.7254,-494 707.7254,-484 707.7254,-484 707.7254,-479 712.7254,-474 717.7254,-474 717.7254,-474 736.7254,-474 736.7254,-474 741.7254,-474 746.7254,-479 746.7254,-484 746.7254,-484 746.7254,-494 746.7254,-494 746.7254,-499 741.7254,-504 736.7254,-504"/>
<text text-anchor="middle" x="727.2254" y="-492" font-family="Arial" font-size="10.00" fill="#ffffff">Chord</text>
<text text-anchor="middle" x="727.2254" y="-481" font-family="Arial" font-size="10.00" fill="#ffffff">Device</text>
</a>
</g>
</g>
<!-- supriya.daw.Clip.Clip -->
<g id="node20" class="node">
<title>supriya.daw.Clip.Clip</title>
<g id="a_node20"><a xlink:href="../api/supriya/daw/Clip.html#supriya.daw.Clip.Clip" xlink:title="Clip" target="_top">
<path fill="#000000" stroke="#000000" stroke-width="2" d="M369.1667,-504.5C369.1667,-504.5 352.8333,-504.5 352.8333,-504.5 349.6667,-504.5 346.5,-501.3333 346.5,-498.1667 346.5,-498.1667 346.5,-491.8333 346.5,-491.8333 346.5,-488.6667 349.6667,-485.5 352.8333,-485.5 352.8333,-485.5 369.1667,-485.5 369.1667,-485.5 372.3333,-485.5 375.5,-488.6667 375.5,-491.8333 375.5,-491.8333 375.5,-498.1667 375.5,-498.1667 375.5,-501.3333 372.3333,-504.5 369.1667,-504.5"/>
<text text-anchor="middle" x="361" y="-492.5" font-family="Arial" font-size="10.00" fill="#ffffff">Clip</text>
</a>
</g>
</g>
<!-- supriya.daw.ClipSlot.ClipSlot -->
<g id="node21" class="node">
<title>supriya.daw.ClipSlot.ClipSlot</title>
<g id="a_node21"><a xlink:href="../api/supriya/daw/ClipSlot.html#supriya.daw.ClipSlot.ClipSlot" xlink:title="Clip\nSlot" target="_top">
<path fill="#000000" stroke="#000000" stroke-width="2" d="M365.8333,-356C365.8333,-356 356.1667,-356 356.1667,-356 351.3333,-356 346.5,-351.1667 346.5,-346.3333 346.5,-346.3333 346.5,-335.6667 346.5,-335.6667 346.5,-330.8333 351.3333,-326 356.1667,-326 356.1667,-326 365.8333,-326 365.8333,-326 370.6667,-326 375.5,-330.8333 375.5,-335.6667 375.5,-335.6667 375.5,-346.3333 375.5,-346.3333 375.5,-351.1667 370.6667,-356 365.8333,-356"/>
<text text-anchor="middle" x="361" y="-344" font-family="Arial" font-size="10.00" fill="#ffffff">Clip</text>
<text text-anchor="middle" x="361" y="-333" font-family="Arial" font-size="10.00" fill="#ffffff">Slot</text>
</a>
</g>
</g>
<!-- supriya.daw.ClipSlotContainer.ClipSlotContainer -->
<g id="node22" class="node">
<title>supriya.daw.ClipSlotContainer.ClipSlotContainer</title>
<g id="a_node22"><a xlink:href="../api/supriya/daw/ClipSlotContainer.html#supriya.daw.ClipSlotContainer.ClipSlotContainer" xlink:title="Clip\nSlot\nContainer" target="_top">
<path fill="#000000" stroke="#000000" stroke-width="2" d="M373.5,-259.5C373.5,-259.5 348.5,-259.5 348.5,-259.5 342.5,-259.5 336.5,-253.5 336.5,-247.5 336.5,-247.5 336.5,-230.5 336.5,-230.5 336.5,-224.5 342.5,-218.5 348.5,-218.5 348.5,-218.5 373.5,-218.5 373.5,-218.5 379.5,-218.5 385.5,-224.5 385.5,-230.5 385.5,-230.5 385.5,-247.5 385.5,-247.5 385.5,-253.5 379.5,-259.5 373.5,-259.5"/>
<text text-anchor="middle" x="361" y="-247.5" font-family="Arial" font-size="10.00" fill="#ffffff">Clip</text>
<text text-anchor="middle" x="361" y="-236.5" font-family="Arial" font-size="10.00" fill="#ffffff">Slot</text>
<text text-anchor="middle" x="361" y="-225.5" font-family="Arial" font-size="10.00" fill="#ffffff">Container</text>
</a>
</g>
</g>
<!-- supriya.daw.DawContainer.DawContainer -->
<g id="node23" class="node">
<title>supriya.daw.DawContainer.DawContainer</title>
<g id="a_node23"><a xlink:href="../api/supriya/daw/DawContainer.html#supriya.daw.DawContainer.DawContainer" xlink:title="Daw\nContainer" target="_top">
<path fill="#000000" stroke="#000000" stroke-width="2" d="M468.6127,-247C468.6127,-247 439.6127,-247 439.6127,-247 434.6127,-247 429.6127,-242 429.6127,-237 429.6127,-237 429.6127,-227 429.6127,-227 429.6127,-222 434.6127,-217 439.6127,-217 439.6127,-217 468.6127,-217 468.6127,-217 473.6127,-217 478.6127,-222 478.6127,-227 478.6127,-227 478.6127,-237 478.6127,-237 478.6127,-242 473.6127,-247 468.6127,-247"/>
<text text-anchor="middle" x="454.1127" y="-235" font-family="Arial" font-size="10.00" fill="#ffffff">Daw</text>
<text text-anchor="middle" x="454.1127" y="-224" font-family="Arial" font-size="10.00" fill="#ffffff">Container</text>
</a>
</g>
</g>
<!-- supriya.daw.DeviceContainer.DeviceContainer -->
<g id="node24" class="node">
<title>supriya.daw.DeviceContainer.DeviceContainer</title>
<g id="a_node24"><a xlink:href="../api/supriya/daw/DeviceContainer.html#supriya.daw.DeviceContainer.DeviceContainer" xlink:title="Device\nContainer" target="_top">
<path fill="#000000" stroke="#000000" stroke-width="2" d="M652.2254,-231C652.2254,-231 623.2254,-231 623.2254,-231 618.2254,-231 613.2254,-226 613.2254,-221 613.2254,-221 613.2254,-211 613.2254,-211 613.2254,-206 618.2254,-201 623.2254,-201 623.2254,-201 652.2254,-201 652.2254,-201 657.2254,-201 662.2254,-206 662.2254,-211 662.2254,-211 662.2254,-221 662.2254,-221 662.2254,-226 657.2254,-231 652.2254,-231"/>
<text text-anchor="middle" x="637.7254" y="-219" font-family="Arial" font-size="10.00" fill="#ffffff">Device</text>
<text text-anchor="middle" x="637.7254" y="-208" font-family="Arial" font-size="10.00" fill="#ffffff">Container</text>
</a>
</g>
</g>
<!-- supriya.daw.SendContainer.SendContainer -->
<g id="node25" class="node">
<title>supriya.daw.SendContainer.SendContainer</title>
<g id="a_node25"><a xlink:href="../api/supriya/daw/SendContainer.html#supriya.daw.SendContainer.SendContainer" xlink:title="Send\nContainer" target="_top">
<path fill="#000000" stroke="#000000" stroke-width="2" d="M562.2254,-298C562.2254,-298 533.2254,-298 533.2254,-298 528.2254,-298 523.2254,-293 523.2254,-288 523.2254,-288 523.2254,-278 523.2254,-278 523.2254,-273 528.2254,-268 533.2254,-268 533.2254,-268 562.2254,-268 562.2254,-268 567.2254,-268 572.2254,-273 572.2254,-278 572.2254,-278 572.2254,-288 572.2254,-288 572.2254,-293 567.2254,-298 562.2254,-298"/>
<text text-anchor="middle" x="547.7254" y="-286" font-family="Arial" font-size="10.00" fill="#ffffff">Send</text>
<text text-anchor="middle" x="547.7254" y="-275" font-family="Arial" font-size="10.00" fill="#ffffff">Container</text>
</a>
</g>
</g>
<!-- supriya.daw.TrackContainer.TrackContainer -->
<g id="node26" class="node">
<title>supriya.daw.TrackContainer.TrackContainer</title>
<g id="a_node26"><a xlink:href="../api/supriya/daw/TrackContainer.html#supriya.daw.TrackContainer.TrackContainer" xlink:title="Track\nContainer" target="_top">
<path fill="#000000" stroke="#000000" stroke-width="2" d="M652.2254,-183C652.2254,-183 623.2254,-183 623.2254,-183 618.2254,-183 613.2254,-178 613.2254,-173 613.2254,-173 613.2254,-163 613.2254,-163 613.2254,-158 618.2254,-153 623.2254,-153 623.2254,-153 652.2254,-153 652.2254,-153 657.2254,-153 662.2254,-158 662.2254,-163 662.2254,-163 662.2254,-173 662.2254,-173 662.2254,-178 657.2254,-183 652.2254,-183"/>
<text text-anchor="middle" x="637.7254" y="-171" font-family="Arial" font-size="10.00" fill="#ffffff">Track</text>
<text text-anchor="middle" x="637.7254" y="-160" font-family="Arial" font-size="10.00" fill="#ffffff">Container</text>
</a>
</g>
</g>
<!-- supriya.daw.DawMeta.DawMeta -->
<g id="node27" class="node">
<title>supriya.daw.DawMeta.DawMeta</title>
<g id="a_node27"><a xlink:href="../api/supriya/daw/DawMeta.html#supriya.daw.DawMeta.DawMeta" xlink:title="Daw\nMeta" target="_top">
<path fill="#000000" stroke="#000000" stroke-width="2" d="M367.5,-601C367.5,-601 354.5,-601 354.5,-601 349.5,-601 344.5,-596 344.5,-591 344.5,-591 344.5,-581 344.5,-581 344.5,-576 349.5,-571 354.5,-571 354.5,-571 367.5,-571 367.5,-571 372.5,-571 377.5,-576 377.5,-581 377.5,-581 377.5,-591 377.5,-591 377.5,-596 372.5,-601 367.5,-601"/>
<text text-anchor="middle" x="361" y="-589" font-family="Arial" font-size="10.00" fill="#ffffff">Daw</text>
<text text-anchor="middle" x="361" y="-578" font-family="Arial" font-size="10.00" fill="#ffffff">Meta</text>
</a>
</g>
</g>
<!-- supriya.daw.DawNode.DawNode -->
<g id="node28" class="node">
<title>supriya.daw.DawNode.DawNode</title>
<g id="a_node28"><a xlink:href="../api/supriya/daw/DawNode.html#supriya.daw.DawNode.DawNode" xlink:title="Daw\nNode" target="_top">
<path fill="#000000" stroke="#000000" stroke-width="2" d="M368,-308C368,-308 354,-308 354,-308 349,-308 344,-303 344,-298 344,-298 344,-288 344,-288 344,-283 349,-278 354,-278 354,-278 368,-278 368,-278 373,-278 378,-283 378,-288 378,-288 378,-298 378,-298 378,-303 373,-308 368,-308"/>
<text text-anchor="middle" x="361" y="-296" font-family="Arial" font-size="10.00" fill="#ffffff">Daw</text>
<text text-anchor="middle" x="361" y="-285" font-family="Arial" font-size="10.00" fill="#ffffff">Node</text>
</a>
</g>
</g>
<!-- supriya.daw.Device.Device -->
<g id="node29" class="node">
<title>supriya.daw.Device.Device</title>
<g id="a_node29"><a xlink:href="../api/supriya/daw/Device.html#supriya.daw.Device.Device" xlink:title="Device" target="_top">
<path fill="#000000" stroke="#000000" stroke-width="2" d="M467.2794,-364.5C467.2794,-364.5 440.946,-364.5 440.946,-364.5 437.7794,-364.5 434.6127,-361.3333 434.6127,-358.1667 434.6127,-358.1667 434.6127,-351.8333 434.6127,-351.8333 434.6127,-348.6667 437.7794,-345.5 440.946,-345.5 440.946,-345.5 467.2794,-345.5 467.2794,-345.5 470.446,-345.5 473.6127,-348.6667 473.6127,-351.8333 473.6127,-351.8333 473.6127,-358.1667 473.6127,-358.1667 473.6127,-361.3333 470.446,-364.5 467.2794,-364.5"/>
<text text-anchor="middle" x="454.1127" y="-352.5" font-family="Arial" font-size="10.00" fill="#ffffff">Device</text>
</a>
</g>
</g>
<!-- supriya.daw.Receive.Receive -->
<g id="node30" class="node">
<title>supriya.daw.Receive.Receive</title>
<g id="a_node30"><a xlink:href="../api/supriya/daw/Receive.html#supriya.daw.Receive.Receive" xlink:title="Receive" target="_top">
<ellipse fill="#000000" stroke="#000000" stroke-width="2" cx="454.1127" cy="-514" rx="31.2258" ry="13.3704"/>
<text text-anchor="middle" x="454.1127" y="-511.5" font-family="Arial" font-size="10.00" fill="#ffffff">Receive</text>
</a>
</g>
</g>
<!-- supriya.daw.Send.Send -->
<g id="node31" class="node">
<title>supriya.daw.Send.Send</title>
<g id="a_node31"><a xlink:href="../api/supriya/daw/Send.html#supriya.daw.Send.Send" xlink:title="Send" target="_top">
<path fill="#000000" stroke="#000000" stroke-width="2" d="M464.7794,-401.5C464.7794,-401.5 443.446,-401.5 443.446,-401.5 440.2794,-401.5 437.1127,-398.3333 437.1127,-395.1667 437.1127,-395.1667 437.1127,-388.8333 437.1127,-388.8333 437.1127,-385.6667 440.2794,-382.5 443.446,-382.5 443.446,-382.5 464.7794,-382.5 464.7794,-382.5 467.946,-382.5 471.1127,-385.6667 471.1127,-388.8333 471.1127,-388.8333 471.1127,-395.1667 471.1127,-395.1667 471.1127,-398.3333 467.946,-401.5 464.7794,-401.5"/>
<text text-anchor="middle" x="454.1127" y="-389.5" font-family="Arial" font-size="10.00" fill="#ffffff">Send</text>
</a>
</g>
</g>
<!-- supriya.daw.SendManager.SendManager -->
<g id="node32" class="node">
<title>supriya.daw.SendManager.SendManager</title>
<g id="a_node32"><a xlink:href="../api/supriya/daw/SendManager.html#supriya.daw.SendManager.SendManager" xlink:title="Send\nManager" target="_top">
<path fill="#000000" stroke="#000000" stroke-width="2" d="M467.1127,-79C467.1127,-79 441.1127,-79 441.1127,-79 436.1127,-79 431.1127,-74 431.1127,-69 431.1127,-69 431.1127,-59 431.1127,-59 431.1127,-54 436.1127,-49 441.1127,-49 441.1127,-49 467.1127,-49 467.1127,-49 472.1127,-49 477.1127,-54 477.1127,-59 477.1127,-59 477.1127,-69 477.1127,-69 477.1127,-74 472.1127,-79 467.1127,-79"/>
<text text-anchor="middle" x="454.1127" y="-67" font-family="Arial" font-size="10.00" fill="#ffffff">Send</text>
<text text-anchor="middle" x="454.1127" y="-56" font-family="Arial" font-size="10.00" fill="#ffffff">Manager</text>
</a>
</g>
</g>
<!-- supriya.daw.Track.Track -->
<g id="node33" class="node">
<title>supriya.daw.Track.Track</title>
<g id="a_node33"><a xlink:href="../api/supriya/daw/Track.html#supriya.daw.Track.Track" xlink:title="Track" target="_top">
<path fill="#000000" stroke="#000000" stroke-width="2" d="M465.2794,-160.5C465.2794,-160.5 442.946,-160.5 442.946,-160.5 439.7794,-160.5 436.6127,-157.3333 436.6127,-154.1667 436.6127,-154.1667 436.6127,-147.8333 436.6127,-147.8333 436.6127,-144.6667 439.7794,-141.5 442.946,-141.5 442.946,-141.5 465.2794,-141.5 465.2794,-141.5 468.446,-141.5 471.6127,-144.6667 471.6127,-147.8333 471.6127,-147.8333 471.6127,-154.1667 471.6127,-154.1667 471.6127,-157.3333 468.446,-160.5 465.2794,-160.5"/>
<text text-anchor="middle" x="454.1127" y="-148.5" font-family="Arial" font-size="10.00" fill="#ffffff">Track</text>
</a>
</g>
</g>
<!-- supriya.daw.Transport.Transport -->
<g id="node34" class="node">
<title>supriya.daw.Transport.Transport</title>
<g id="a_node34"><a xlink:href="../api/supriya/daw/Transport.html#supriya.daw.Transport.Transport" xlink:title="Transport" target="_top">
<path fill="#000000" stroke="#000000" stroke-width="2" d="M565.8921,-615.5C565.8921,-615.5 529.5587,-615.5 529.5587,-615.5 526.3921,-615.5 523.2254,-612.3333 523.2254,-609.1667 523.2254,-609.1667 523.2254,-602.8333 523.2254,-602.8333 523.2254,-599.6667 526.3921,-596.5 529.5587,-596.5 529.5587,-596.5 565.8921,-596.5 565.8921,-596.5 569.0587,-596.5 572.2254,-599.6667 572.2254,-602.8333 572.2254,-602.8333 572.2254,-609.1667 572.2254,-609.1667 572.2254,-612.3333 569.0587,-615.5 565.8921,-615.5"/>
<text text-anchor="middle" x="547.7254" y="-603.5" font-family="Arial" font-size="10.00" fill="#ffffff">Transport</text>
</a>
</g>
</g>
<!-- supriya.daw.Instrument.Instrument -->
<g id="node35" class="node">
<title>supriya.daw.Instrument.Instrument</title>
<g id="a_node35"><a xlink:href="../api/supriya/daw/Instrument.html#supriya.daw.Instrument.Instrument" xlink:title="Instrument" target="_top">
<path fill="#000000" stroke="#000000" stroke-width="2" d="M657.3921,-421.5C657.3921,-421.5 618.0587,-421.5 618.0587,-421.5 614.8921,-421.5 611.7254,-418.3333 611.7254,-415.1667 611.7254,-415.1667 611.7254,-408.8333 611.7254,-408.8333 611.7254,-405.6667 614.8921,-402.5 618.0587,-402.5 618.0587,-402.5 657.3921,-402.5 657.3921,-402.5 660.5587,-402.5 663.7254,-405.6667 663.7254,-408.8333 663.7254,-408.8333 663.7254,-415.1667 663.7254,-415.1667 663.7254,-418.3333 660.5587,-421.5 657.3921,-421.5"/>
<text text-anchor="middle" x="637.7254" y="-409.5" font-family="Arial" font-size="10.00" fill="#ffffff">Instrument</text>
</a>
</g>
</g>
<!-- supriya.daw.MidiDevice.MidiDevice -->
<g id="node36" class="node">
<title>supriya.daw.MidiDevice.MidiDevice</title>
<g id="a_node36"><a xlink:href="../api/supriya/daw/MidiDevice.html#supriya.daw.MidiDevice.MidiDevice" xlink:title="Midi\nDevice" target="_top">
<path fill="#000000" stroke="#000000" stroke-width="2" d="M557.2254,-462C557.2254,-462 538.2254,-462 538.2254,-462 533.2254,-462 528.2254,-457 528.2254,-452 528.2254,-452 528.2254,-442 528.2254,-442 528.2254,-437 533.2254,-432 538.2254,-432 538.2254,-432 557.2254,-432 557.2254,-432 562.2254,-432 567.2254,-437 567.2254,-442 567.2254,-442 567.2254,-452 567.2254,-452 567.2254,-457 562.2254,-462 557.2254,-462"/>
<text text-anchor="middle" x="547.7254" y="-450" font-family="Arial" font-size="10.00" fill="#ffffff">Midi</text>
<text text-anchor="middle" x="547.7254" y="-439" font-family="Arial" font-size="10.00" fill="#ffffff">Device</text>
</a>
</g>
</g>
<!-- supriya.daw.RackDevice.RackDevice -->
<g id="node37" class="node">
<title>supriya.daw.RackDevice.RackDevice</title>
<g id="a_node37"><a xlink:href="../api/supriya/daw/RackDevice.html#supriya.daw.RackDevice.RackDevice" xlink:title="Rack\nDevice" target="_top">
<path fill="#000000" stroke="#000000" stroke-width="2" d="M557.2254,-346C557.2254,-346 538.2254,-346 538.2254,-346 533.2254,-346 528.2254,-341 528.2254,-336 528.2254,-336 528.2254,-326 528.2254,-326 528.2254,-321 533.2254,-316 538.2254,-316 538.2254,-316 557.2254,-316 557.2254,-316 562.2254,-316 567.2254,-321 567.2254,-326 567.2254,-326 567.2254,-336 567.2254,-336 567.2254,-341 562.2254,-346 557.2254,-346"/>
<text text-anchor="middle" x="547.7254" y="-334" font-family="Arial" font-size="10.00" fill="#ffffff">Rack</text>
<text text-anchor="middle" x="547.7254" y="-323" font-family="Arial" font-size="10.00" fill="#ffffff">Device</text>
</a>
</g>
</g>
<!-- supriya.daw.DeviceType.DeviceType -->
<g id="node38" class="node">
<title>supriya.daw.DeviceType.DeviceType</title>
<g id="a_node38"><a xlink:href="../api/supriya/daw/DeviceType.html#supriya.daw.DeviceType.DeviceType" xlink:title="Device\nType" target="_top">
<path fill="#000000" stroke="#000000" stroke-width="2" d="M370.5,-553C370.5,-553 351.5,-553 351.5,-553 346.5,-553 341.5,-548 341.5,-543 341.5,-543 341.5,-533 341.5,-533 341.5,-528 346.5,-523 351.5,-523 351.5,-523 370.5,-523 370.5,-523 375.5,-523 380.5,-528 380.5,-533 380.5,-533 380.5,-543 380.5,-543 380.5,-548 375.5,-553 370.5,-553"/>
<text text-anchor="middle" x="361" y="-541" font-family="Arial" font-size="10.00" fill="#ffffff">Device</text>
<text text-anchor="middle" x="361" y="-530" font-family="Arial" font-size="10.00" fill="#ffffff">Type</text>
</a>
</g>
</g>
<!-- supriya.daw.GroupTrack.GroupTrack -->
<g id="node39" class="node">
<title>supriya.daw.GroupTrack.GroupTrack</title>
<g id="a_node39"><a xlink:href="../api/supriya/daw/GroupTrack.html#supriya.daw.GroupTrack.GroupTrack" xlink:title="Group\nTrack" target="_top">
<path fill="#000000" stroke="#000000" stroke-width="2" d="M556.2254,-162C556.2254,-162 539.2254,-162 539.2254,-162 534.2254,-162 529.2254,-157 529.2254,-152 529.2254,-152 529.2254,-142 529.2254,-142 529.2254,-137 534.2254,-132 539.2254,-132 539.2254,-132 556.2254,-132 556.2254,-132 561.2254,-132 566.2254,-137 566.2254,-142 566.2254,-142 566.2254,-152 566.2254,-152 566.2254,-157 561.2254,-162 556.2254,-162"/>
<text text-anchor="middle" x="547.7254" y="-150" font-family="Arial" font-size="10.00" fill="#ffffff">Group</text>
<text text-anchor="middle" x="547.7254" y="-139" font-family="Arial" font-size="10.00" fill="#ffffff">Track</text>
</a>
</g>
</g>
<!-- supriya.daw.SamplerDevice.SamplerDevice -->
<g id="node40" class="node">
<title>supriya.daw.SamplerDevice.SamplerDevice</title>
<g id="a_node40"><a xlink:href="../api/supriya/daw/SamplerDevice.html#supriya.daw.SamplerDevice.SamplerDevice" xlink:title="Sampler\nDevice" target="_top">
<path fill="#000000" stroke="#000000" stroke-width="2" d="M739.2254,-427C739.2254,-427 715.2254,-427 715.2254,-427 710.2254,-427 705.2254,-422 705.2254,-417 705.2254,-417 705.2254,-407 705.2254,-407 705.2254,-402 710.2254,-397 715.2254,-397 715.2254,-397 739.2254,-397 739.2254,-397 744.2254,-397 749.2254,-402 749.2254,-407 749.2254,-407 749.2254,-417 749.2254,-417 749.2254,-422 744.2254,-427 739.2254,-427"/>
<text text-anchor="middle" x="727.2254" y="-415" font-family="Arial" font-size="10.00" fill="#ffffff">Sampler</text>
<text text-anchor="middle" x="727.2254" y="-404" font-family="Arial" font-size="10.00" fill="#ffffff">Device</text>
</a>
</g>
</g>
<!-- supriya.daw.InstrumentRack.InstrumentRack -->
<g id="node41" class="node">
<title>supriya.daw.InstrumentRack.InstrumentRack</title>
<g id="a_node41"><a xlink:href="../api/supriya/daw/InstrumentRack.html#supriya.daw.InstrumentRack.InstrumentRack" xlink:title="Instrument\nRack" target="_top">
<path fill="#000000" stroke="#000000" stroke-width="2" d="M743.2254,-313C743.2254,-313 711.2254,-313 711.2254,-313 706.2254,-313 701.2254,-308 701.2254,-303 701.2254,-303 701.2254,-293 701.2254,-293 701.2254,-288 706.2254,-283 711.2254,-283 711.2254,-283 743.2254,-283 743.2254,-283 748.2254,-283 753.2254,-288 753.2254,-293 753.2254,-293 753.2254,-303 753.2254,-303 753.2254,-308 748.2254,-313 743.2254,-313"/>
<text text-anchor="middle" x="727.2254" y="-301" font-family="Arial" font-size="10.00" fill="#ffffff">Instrument</text>
<text text-anchor="middle" x="727.2254" y="-290" font-family="Arial" font-size="10.00" fill="#ffffff">Rack</text>
</a>
</g>
</g>
<!-- supriya.daw.ScaleDevice.ScaleDevice -->
<g id="node42" class="node">
<title>supriya.daw.ScaleDevice.ScaleDevice</title>
<g id="a_node42"><a xlink:href="../api/supriya/daw/ScaleDevice.html#supriya.daw.ScaleDevice.ScaleDevice" xlink:title="Scale\nDevice" target="_top">
<path fill="#000000" stroke="#000000" stroke-width="2" d="M647.2254,-538C647.2254,-538 628.2254,-538 628.2254,-538 623.2254,-538 618.2254,-533 618.2254,-528 618.2254,-528 618.2254,-518 618.2254,-518 618.2254,-513 623.2254,-508 628.2254,-508 628.2254,-508 647.2254,-508 647.2254,-508 652.2254,-508 657.2254,-513 657.2254,-518 657.2254,-518 657.2254,-528 657.2254,-528 657.2254,-533 652.2254,-538 647.2254,-538"/>
<text text-anchor="middle" x="637.7254" y="-526" font-family="Arial" font-size="10.00" fill="#ffffff">Scale</text>
<text text-anchor="middle" x="637.7254" y="-515" font-family="Arial" font-size="10.00" fill="#ffffff">Device</text>
</a>
</g>
</g>
<!-- supriya.daw.VelocityDevice.VelocityDevice -->
<g id="node43" class="node">
<title>supriya.daw.VelocityDevice.VelocityDevice</title>
<g id="a_node43"><a xlink:href="../api/supriya/daw/VelocityDevice.html#supriya.daw.VelocityDevice.VelocityDevice" xlink:title="Velocity\nDevice" target="_top">
<path fill="#000000" stroke="#000000" stroke-width="2" d="M738.7254,-572C738.7254,-572 715.7254,-572 715.7254,-572 710.7254,-572 705.7254,-567 705.7254,-562 705.7254,-562 705.7254,-552 705.7254,-552 705.7254,-547 710.7254,-542 715.7254,-542 715.7254,-542 738.7254,-542 738.7254,-542 743.7254,-542 748.7254,-547 748.7254,-552 748.7254,-552 748.7254,-562 748.7254,-562 748.7254,-567 743.7254,-572 738.7254,-572"/>
<text text-anchor="middle" x="727.2254" y="-560" font-family="Arial" font-size="10.00" fill="#ffffff">Velocity</text>
<text text-anchor="middle" x="727.2254" y="-549" font-family="Arial" font-size="10.00" fill="#ffffff">Device</text>
</a>
</g>
</g>
<!-- supriya.daw.MidiRack.MidiRack -->
<g id="node44" class="node">
<title>supriya.daw.MidiRack.MidiRack</title>
<g id="a_node44"><a xlink:href="../api/supriya/daw/MidiRack.html#supriya.daw.MidiRack.MidiRack" xlink:title="Midi\nRack" target="_top">
<path fill="#000000" stroke="#000000" stroke-width="2" d="M644.7254,-347C644.7254,-347 630.7254,-347 630.7254,-347 625.7254,-347 620.7254,-342 620.7254,-337 620.7254,-337 620.7254,-327 620.7254,-327 620.7254,-322 625.7254,-317 630.7254,-317 630.7254,-317 644.7254,-317 644.7254,-317 649.7254,-317 654.7254,-322 654.7254,-327 654.7254,-327 654.7254,-337 654.7254,-337 654.7254,-342 649.7254,-347 644.7254,-347"/>
<text text-anchor="middle" x="637.7254" y="-335" font-family="Arial" font-size="10.00" fill="#ffffff">Midi</text>
<text text-anchor="middle" x="637.7254" y="-324" font-family="Arial" font-size="10.00" fill="#ffffff">Rack</text>
</a>
</g>
</g>
<!-- supriya.daw.MixerContext.MixerContext -->
<g id="node45" class="node">
<title>supriya.daw.MixerContext.MixerContext</title>
<g id="a_node45"><a xlink:href="../api/supriya/daw/MixerContext.html#supriya.daw.MixerContext.MixerContext" xlink:title="Mixer\nContext" target="_top">
<path fill="#000000" stroke="#000000" stroke-width="2" d="M465.1127,-649C465.1127,-649 443.1127,-649 443.1127,-649 438.1127,-649 433.1127,-644 433.1127,-639 433.1127,-639 433.1127,-629 433.1127,-629 433.1127,-624 438.1127,-619 443.1127,-619 443.1127,-619 465.1127,-619 465.1127,-619 470.1127,-619 475.1127,-624 475.1127,-629 475.1127,-629 475.1127,-639 475.1127,-639 475.1127,-644 470.1127,-649 465.1127,-649"/>
<text text-anchor="middle" x="454.1127" y="-637" font-family="Arial" font-size="10.00" fill="#ffffff">Mixer</text>
<text text-anchor="middle" x="454.1127" y="-626" font-family="Arial" font-size="10.00" fill="#ffffff">Context</text>
</a>
</g>
</g>
<!-- supriya.daw.Note.Note -->
<g id="node46" class="node">
<title>supriya.daw.Note.Note</title>
<g id="a_node46"><a xlink:href="../api/supriya/daw/Note.html#supriya.daw.Note.Note" xlink:title="Note" target="_top">
<path fill="#000000" stroke="#000000" stroke-width="2" d="M370.6667,-430.5C370.6667,-430.5 351.3333,-430.5 351.3333,-430.5 348.1667,-430.5 345,-427.3333 345,-424.1667 345,-424.1667 345,-417.8333 345,-417.8333 345,-414.6667 348.1667,-411.5 351.3333,-411.5 351.3333,-411.5 370.6667,-411.5 370.6667,-411.5 373.8333,-411.5 377,-414.6667 377,-417.8333 377,-417.8333 377,-424.1667 377,-424.1667 377,-427.3333 373.8333,-430.5 370.6667,-430.5"/>
<text text-anchor="middle" x="361" y="-418.5" font-family="Arial" font-size="10.00" fill="#ffffff">Note</text>
</a>
</g>
</g>
<!-- supriya.daw.NoteSelector.NoteSelector -->
<g id="node47" class="node">
<title>supriya.daw.NoteSelector.NoteSelector</title>
<g id="a_node47"><a xlink:href="../api/supriya/daw/NoteSelector.html#supriya.daw.NoteSelector.NoteSelector" xlink:title="Note\nSelector" target="_top">
<path fill="#000000" stroke="#000000" stroke-width="2" d="M373,-649C373,-649 349,-649 349,-649 344,-649 339,-644 339,-639 339,-639 339,-629 339,-629 339,-624 344,-619 349,-619 349,-619 373,-619 373,-619 378,-619 383,-624 383,-629 383,-629 383,-639 383,-639 383,-644 378,-649 373,-649"/>
<text text-anchor="middle" x="361" y="-637" font-family="Arial" font-size="10.00" fill="#ffffff">Note</text>
<text text-anchor="middle" x="361" y="-626" font-family="Arial" font-size="10.00" fill="#ffffff">Selector</text>
</a>
</g>
</g>
<!-- supriya.daw.Parameter.Parameter -->
<g id="node48" class="node">
<title>supriya.daw.Parameter.Parameter</title>
<g id="a_node48"><a xlink:href="../api/supriya/daw/Parameter.html#supriya.daw.Parameter.Parameter" xlink:title="Parameter" target="_top">
<path fill="#000000" stroke="#000000" stroke-width="2" d="M380.6667,-467.5C380.6667,-467.5 341.3333,-467.5 341.3333,-467.5 338.1667,-467.5 335,-464.3333 335,-461.1667 335,-461.1667 335,-454.8333 335,-454.8333 335,-451.6667 338.1667,-448.5 341.3333,-448.5 341.3333,-448.5 380.6667,-448.5 380.6667,-448.5 383.8333,-448.5 387,-451.6667 387,-454.8333 387,-454.8333 387,-461.1667 387,-461.1667 387,-464.3333 383.8333,-467.5 380.6667,-467.5"/>
<text text-anchor="middle" x="361" y="-455.5" font-family="Arial" font-size="10.00" fill="#ffffff">Parameter</text>
</a>
</g>
</g>
<!-- supriya.daw.RackReceive.RackReceive -->
<g id="node49" class="node">
<title>supriya.daw.RackReceive.RackReceive</title>
<g id="a_node49"><a xlink:href="../api/supriya/daw/RackReceive.html#supriya.daw.RackReceive.RackReceive" xlink:title="Rack\nReceive" target="_top">
<path fill="#000000" stroke="#000000" stroke-width="2" d="M649.7254,-606C649.7254,-606 625.7254,-606 625.7254,-606 620.7254,-606 615.7254,-601 615.7254,-596 615.7254,-596 615.7254,-586 615.7254,-586 615.7254,-581 620.7254,-576 625.7254,-576 625.7254,-576 649.7254,-576 649.7254,-576 654.7254,-576 659.7254,-581 659.7254,-586 659.7254,-586 659.7254,-596 659.7254,-596 659.7254,-601 654.7254,-606 649.7254,-606"/>
<text text-anchor="middle" x="637.7254" y="-594" font-family="Arial" font-size="10.00" fill="#ffffff">Rack</text>
<text text-anchor="middle" x="637.7254" y="-583" font-family="Arial" font-size="10.00" fill="#ffffff">Receive</text>
</a>
</g>
</g>
<!-- supriya.daw.TrackReceive.TrackReceive -->
<g id="node50" class="node">
<title>supriya.daw.TrackReceive.TrackReceive</title>
<g id="a_node50"><a xlink:href="../api/supriya/daw/TrackReceive.html#supriya.daw.TrackReceive.TrackReceive" xlink:title="Track\nReceive" target="_top">
<path fill="#000000" stroke="#000000" stroke-width="2" d="M559.7254,-510C559.7254,-510 535.7254,-510 535.7254,-510 530.7254,-510 525.7254,-505 525.7254,-500 525.7254,-500 525.7254,-490 525.7254,-490 525.7254,-485 530.7254,-480 535.7254,-480 535.7254,-480 559.7254,-480 559.7254,-480 564.7254,-480 569.7254,-485 569.7254,-490 569.7254,-490 569.7254,-500 569.7254,-500 569.7254,-505 564.7254,-510 559.7254,-510"/>
<text text-anchor="middle" x="547.7254" y="-498" font-family="Arial" font-size="10.00" fill="#ffffff">Track</text>
<text text-anchor="middle" x="547.7254" y="-487" font-family="Arial" font-size="10.00" fill="#ffffff">Receive</text>
</a>
</g>
</g>
<!-- supriya.daw.Scene.Scene -->
<g id="node51" class="node">
<title>supriya.daw.Scene.Scene</title>
<g id="a_node51"><a xlink:href="../api/supriya/daw/Scene.html#supriya.daw.Scene.Scene" xlink:title="Scene" target="_top">
<path fill="#000000" stroke="#000000" stroke-width="2" d="M373.6667,-393.5C373.6667,-393.5 348.3333,-393.5 348.3333,-393.5 345.1667,-393.5 342,-390.3333 342,-387.1667 342,-387.1667 342,-380.8333 342,-380.8333 342,-377.6667 345.1667,-374.5 348.3333,-374.5 348.3333,-374.5 373.6667,-374.5 373.6667,-374.5 376.8333,-374.5 380,-377.6667 380,-380.8333 380,-380.8333 380,-387.1667 380,-387.1667 380,-390.3333 376.8333,-393.5 373.6667,-393.5"/>
<text text-anchor="middle" x="361" y="-381.5" font-family="Arial" font-size="10.00" fill="#ffffff">Scene</text>
</a>
</g>
</g>
<!-- supriya.daw.SceneContainer.SceneContainer -->
<g id="node52" class="node">
<title>supriya.daw.SceneContainer.SceneContainer</title>
<g id="a_node52"><a xlink:href="../api/supriya/daw/SceneContainer.html#supriya.daw.SceneContainer.SceneContainer" xlink:title="Scene\nContainer" target="_top">
<path fill="#000000" stroke="#000000" stroke-width="2" d="M375.5,-200C375.5,-200 346.5,-200 346.5,-200 341.5,-200 336.5,-195 336.5,-190 336.5,-190 336.5,-180 336.5,-180 336.5,-175 341.5,-170 346.5,-170 346.5,-170 375.5,-170 375.5,-170 380.5,-170 385.5,-175 385.5,-180 385.5,-180 385.5,-190 385.5,-190 385.5,-195 380.5,-200 375.5,-200"/>
<text text-anchor="middle" x="361" y="-188" font-family="Arial" font-size="10.00" fill="#ffffff">Scene</text>
<text text-anchor="middle" x="361" y="-177" font-family="Arial" font-size="10.00" fill="#ffffff">Container</text>
</a>
</g>
</g>
<!-- uqbar.containers.UniqueTreeContainer.UniqueTreeContainer -->
<g id="node53" class="node">
<title>uqbar.containers.UniqueTreeContainer.UniqueTreeContainer</title>
<path fill="#fed9a6" stroke="#fed9a6" stroke-width="2" d="M202,-203.5C202,-203.5 177,-203.5 177,-203.5 171,-203.5 165,-197.5 165,-191.5 165,-191.5 165,-174.5 165,-174.5 165,-168.5 171,-162.5 177,-162.5 177,-162.5 202,-162.5 202,-162.5 208,-162.5 214,-168.5 214,-174.5 214,-174.5 214,-191.5 214,-191.5 214,-197.5 208,-203.5 202,-203.5"/>
<text text-anchor="middle" x="189.5" y="-191.5" font-family="Arial" font-size="10.00" fill="#000000">Unique</text>
<text text-anchor="middle" x="189.5" y="-180.5" font-family="Arial" font-size="10.00" fill="#000000">Tree</text>
<text text-anchor="middle" x="189.5" y="-169.5" font-family="Arial" font-size="10.00" fill="#000000">Container</text>
</g>
<!-- uqbar.containers.UniqueTreeDict.UniqueTreeDict -->
<g id="node54" class="node">
<title>uqbar.containers.UniqueTreeDict.UniqueTreeDict</title>
<path fill="#fed9a6" stroke="#fed9a6" stroke-width="2" d="M282.5,-114.5C282.5,-114.5 266.5,-114.5 266.5,-114.5 260.5,-114.5 254.5,-108.5 254.5,-102.5 254.5,-102.5 254.5,-85.5 254.5,-85.5 254.5,-79.5 260.5,-73.5 266.5,-73.5 266.5,-73.5 282.5,-73.5 282.5,-73.5 288.5,-73.5 294.5,-79.5 294.5,-85.5 294.5,-85.5 294.5,-102.5 294.5,-102.5 294.5,-108.5 288.5,-114.5 282.5,-114.5"/>
<text text-anchor="middle" x="274.5" y="-102.5" font-family="Arial" font-size="10.00" fill="#000000">Unique</text>
<text text-anchor="middle" x="274.5" y="-91.5" font-family="Arial" font-size="10.00" fill="#000000">Tree</text>
<text text-anchor="middle" x="274.5" y="-80.5" font-family="Arial" font-size="10.00" fill="#000000">Dict</text>
</g>
<!-- uqbar.containers.UniqueTreeList.UniqueTreeList -->
<g id="node55" class="node">
<title>uqbar.containers.UniqueTreeList.UniqueTreeList</title>
<path fill="#fed9a6" stroke="#fed9a6" stroke-width="2" d="M282.5,-232.5C282.5,-232.5 266.5,-232.5 266.5,-232.5 260.5,-232.5 254.5,-226.5 254.5,-220.5 254.5,-220.5 254.5,-203.5 254.5,-203.5 254.5,-197.5 260.5,-191.5 266.5,-191.5 266.5,-191.5 282.5,-191.5 282.5,-191.5 288.5,-191.5 294.5,-197.5 294.5,-203.5 294.5,-203.5 294.5,-220.5 294.5,-220.5 294.5,-226.5 288.5,-232.5 282.5,-232.5"/>
<text text-anchor="middle" x="274.5" y="-220.5" font-family="Arial" font-size="10.00" fill="#000000">Unique</text>
<text text-anchor="middle" x="274.5" y="-209.5" font-family="Arial" font-size="10.00" fill="#000000">Tree</text>
<text text-anchor="middle" x="274.5" y="-198.5" font-family="Arial" font-size="10.00" fill="#000000">List</text>
</g>
<!-- uqbar.containers.UniqueTreeTuple.UniqueTreeTuple -->
<g id="node56" class="node">
<title>uqbar.containers.UniqueTreeTuple.UniqueTreeTuple</title>
<path fill="#fed9a6" stroke="#fed9a6" stroke-width="2" d="M282.5,-173.5C282.5,-173.5 266.5,-173.5 266.5,-173.5 260.5,-173.5 254.5,-167.5 254.5,-161.5 254.5,-161.5 254.5,-144.5 254.5,-144.5 254.5,-138.5 260.5,-132.5 266.5,-132.5 266.5,-132.5 282.5,-132.5 282.5,-132.5 288.5,-132.5 294.5,-138.5 294.5,-144.5 294.5,-144.5 294.5,-161.5 294.5,-161.5 294.5,-167.5 288.5,-173.5 282.5,-173.5"/>
<text text-anchor="middle" x="274.5" y="-161.5" font-family="Arial" font-size="10.00" fill="#000000">Unique</text>
<text text-anchor="middle" x="274.5" y="-150.5" font-family="Arial" font-size="10.00" fill="#000000">Tree</text>
<text text-anchor="middle" x="274.5" y="-139.5" font-family="Arial" font-size="10.00" fill="#000000">Tuple</text>
</g>
<!-- uqbar.containers.UniqueTreeNode.UniqueTreeNode -->
<g id="node57" class="node">
<title>uqbar.containers.UniqueTreeNode.UniqueTreeNode</title>
<path fill="#fed9a6" stroke="#fed9a6" stroke-width="2" d="M117,-232.5C117,-232.5 101,-232.5 101,-232.5 95,-232.5 89,-226.5 89,-220.5 89,-220.5 89,-203.5 89,-203.5 89,-197.5 95,-191.5 101,-191.5 101,-191.5 117,-191.5 117,-191.5 123,-191.5 129,-197.5 129,-203.5 129,-203.5 129,-220.5 129,-220.5 129,-226.5 123,-232.5 117,-232.5"/>
<text text-anchor="middle" x="109" y="-220.5" font-family="Arial" font-size="10.00" fill="#000000">Unique</text>
<text text-anchor="middle" x="109" y="-209.5" font-family="Arial" font-size="10.00" fill="#000000">Tree</text>
<text text-anchor="middle" x="109" y="-198.5" font-family="Arial" font-size="10.00" fill="#000000">Node</text>
</g>
</g>
</svg>
