<?xml version="1.0" encoding="UTF-8" standalone="no"?>
<!DOCTYPE svg PUBLIC "-//W3C//DTD SVG 1.1//EN"
 "http://www.w3.org/Graphics/SVG/1.1/DTD/svg11.dtd">
<!-- Generated by graphviz version 2.44.1 (20200629.0846)
 -->
<!-- Title: InheritanceGraph Pages: 1 -->
<svg width="655pt" height="1092pt"
 viewBox="0.00 0.00 655.40 1092.00" xmlns="http://www.w3.org/2000/svg" xmlns:xlink="http://www.w3.org/1999/xlink">
<g id="graph0" class="graph" transform="scale(1 1) rotate(0) translate(4 1088)">
<title>InheritanceGraph</title>
<g id="clust1" class="cluster">
<title>cluster_builtins</title>
<path fill="transparent" stroke="#bcd2ee" stroke-width="2" stroke-dasharray="5,2" d="M20,-531C20,-531 55,-531 55,-531 61,-531 67,-537 67,-543 67,-543 67,-574 67,-574 67,-580 61,-586 55,-586 55,-586 20,-586 20,-586 14,-586 8,-580 8,-574 8,-574 8,-543 8,-543 8,-537 14,-531 20,-531"/>
<text text-anchor="middle" x="37.5" y="-574" font-family="Arial" font-size="10.00">builtins</text>
</g>
<g id="clust2" class="cluster">
<title>cluster_supriya.synthdefs.bases</title>
<path fill="transparent" stroke="#bcd2ee" stroke-width="2" stroke-dasharray="5,2" d="M347,-528C347,-528 445.4,-528 445.4,-528 451.4,-528 457.4,-534 457.4,-540 457.4,-540 457.4,-577 457.4,-577 457.4,-583 451.4,-589 445.4,-589 445.4,-589 347,-589 347,-589 341,-589 335,-583 335,-577 335,-577 335,-540 335,-540 335,-534 341,-528 347,-528"/>
<text text-anchor="middle" x="396.2" y="-577" font-family="Arial" font-size="10.00">supriya.synthdefs.bases</text>
</g>
<g id="clust3" class="cluster">
<title>cluster_supriya.synthdefs.mixins</title>
<path fill="transparent" stroke="#bcd2ee" stroke-width="2" stroke-dasharray="5,2" d="M202,-520C202,-520 303,-520 303,-520 309,-520 315,-526 315,-532 315,-532 315,-585 315,-585 315,-591 309,-597 303,-597 303,-597 202,-597 202,-597 196,-597 190,-591 190,-585 190,-585 190,-532 190,-532 190,-526 196,-520 202,-520"/>
<text text-anchor="middle" x="252.5" y="-585" font-family="Arial" font-size="10.00">supriya.synthdefs.mixins</text>
</g>
<g id="clust4" class="cluster">
<title>cluster_supriya.system</title>
<path fill="transparent" stroke="#bcd2ee" stroke-width="2" stroke-dasharray="5,2" d="M99,-526C99,-526 158,-526 158,-526 164,-526 170,-532 170,-538 170,-538 170,-579 170,-579 170,-585 164,-591 158,-591 158,-591 99,-591 99,-591 93,-591 87,-585 87,-579 87,-579 87,-538 87,-538 87,-532 93,-526 99,-526"/>
<text text-anchor="middle" x="128.5" y="-579" font-family="Arial" font-size="10.00">supriya.system</text>
</g>
<g id="clust5" class="cluster">
<title>cluster_supriya.ugens.info</title>
<path fill="transparent" stroke="#bcd2ee" stroke-width="2" stroke-dasharray="5,2" d="M563.4,-8C563.4,-8 635.4,-8 635.4,-8 641.4,-8 647.4,-14 647.4,-20 647.4,-20 647.4,-1064 647.4,-1064 647.4,-1070 641.4,-1076 635.4,-1076 635.4,-1076 563.4,-1076 563.4,-1076 557.4,-1076 551.4,-1070 551.4,-1064 551.4,-1064 551.4,-20 551.4,-20 551.4,-14 557.4,-8 563.4,-8"/>
<text text-anchor="middle" x="599.4" y="-1064" font-family="Arial" font-size="10.00">supriya.ugens.info</text>
</g>
<!-- builtins.object&#45;&gt;supriya.system.SupriyaObject -->
<g id="edge1" class="edge">
<title>builtins.object&#45;&gt;supriya.system.SupriyaObject</title>
<path fill="none" stroke="lightslategrey" d="M59.03,-549C69.03,-549 81.34,-549 92.72,-549"/>
<polygon fill="lightslategrey" stroke="lightslategrey" points="92.82,-552.5 102.82,-549 92.82,-545.5 92.82,-552.5"/>
</g>
<!-- supriya.synthdefs.bases.UGen&#45;&gt;supriya.ugens.info.BlockSize -->
<g id="edge2" class="edge">
<title>supriya.synthdefs.bases.UGen&#45;&gt;supriya.ugens.info.BlockSize</title>
<path fill="none" stroke="lightslategrey" d="M400.05,-562.55C410.82,-605.66 446.17,-743.29 485.4,-854 499.57,-893.99 505.85,-902.93 522.4,-942 535.21,-972.25 529.03,-985.93 551.4,-1010 556.3,-1015.28 562.63,-1019.59 569.02,-1023.02"/>
<polygon fill="lightslategrey" stroke="lightslategrey" points="567.76,-1026.3 578.29,-1027.44 570.77,-1019.98 567.76,-1026.3"/>
</g>
<!-- supriya.synthdefs.bases.UGen&#45;&gt;supriya.ugens.info.BufChannels -->
<g id="edge3" class="edge">
<title>supriya.synthdefs.bases.UGen&#45;&gt;supriya.ugens.info.BufChannels</title>
<path fill="none" stroke="lightslategrey" d="M399.76,-562.38C409.57,-604.3 442.12,-736.45 485.4,-840 509.17,-896.88 507.38,-918.83 551.4,-962 554.23,-964.78 557.46,-967.32 560.86,-969.6"/>
<polygon fill="lightslategrey" stroke="lightslategrey" points="559.16,-972.66 569.54,-974.78 562.75,-966.65 559.16,-972.66"/>
</g>
<!-- supriya.synthdefs.bases.UGen&#45;&gt;supriya.ugens.info.BufDur -->
<g id="edge4" class="edge">
<title>supriya.synthdefs.bases.UGen&#45;&gt;supriya.ugens.info.BufDur</title>
<path fill="none" stroke="lightslategrey" d="M398.66,-562.69C406.91,-615.5 443.54,-808.22 551.4,-914 557.6,-920.08 565.66,-924.97 573.32,-928.71"/>
<polygon fill="lightslategrey" stroke="lightslategrey" points="572.08,-931.98 582.64,-932.83 574.91,-925.58 572.08,-931.98"/>
</g>
<!-- supriya.synthdefs.bases.UGen&#45;&gt;supriya.ugens.info.BufFrames -->
<g id="edge5" class="edge">
<title>supriya.synthdefs.bases.UGen&#45;&gt;supriya.ugens.info.BufFrames</title>
<path fill="none" stroke="lightslategrey" d="M399.93,-562.6C411.88,-610.3 457.82,-772.08 551.4,-866 555.32,-869.94 560.03,-873.37 564.93,-876.31"/>
<polygon fill="lightslategrey" stroke="lightslategrey" points="563.34,-879.43 573.8,-881.07 566.64,-873.26 563.34,-879.43"/>
</g>
<!-- supriya.synthdefs.bases.UGen&#45;&gt;supriya.ugens.info.BufRateScale -->
<g id="edge6" class="edge">
<title>supriya.synthdefs.bases.UGen&#45;&gt;supriya.ugens.info.BufRateScale</title>
<path fill="none" stroke="lightslategrey" d="M401.96,-562.25C418.63,-602.92 473.79,-728.03 551.4,-807 556.72,-812.41 563.23,-817.27 569.69,-821.39"/>
<polygon fill="lightslategrey" stroke="lightslategrey" points="567.94,-824.42 578.33,-826.53 571.52,-818.41 567.94,-824.42"/>
</g>
<!-- supriya.synthdefs.bases.UGen&#45;&gt;supriya.ugens.info.BufSampleRate -->
<g id="edge7" class="edge">
<title>supriya.synthdefs.bases.UGen&#45;&gt;supriya.ugens.info.BufSampleRate</title>
<path fill="none" stroke="lightslategrey" d="M404.81,-562.26C425.89,-596 485.37,-686.68 551.4,-747 555.56,-750.81 560.27,-754.45 565.04,-757.8"/>
<polygon fill="lightslategrey" stroke="lightslategrey" points="563.34,-760.87 573.61,-763.48 567.21,-755.04 563.34,-760.87"/>
</g>
<!-- supriya.synthdefs.bases.UGen&#45;&gt;supriya.ugens.info.BufSamples -->
<g id="edge8" class="edge">
<title>supriya.synthdefs.bases.UGen&#45;&gt;supriya.ugens.info.BufSamples</title>
<path fill="none" stroke="lightslategrey" d="M407.3,-561.54C431,-589.01 490.95,-655.55 551.4,-699 554.8,-701.45 558.49,-703.79 562.24,-705.99"/>
<polygon fill="lightslategrey" stroke="lightslategrey" points="560.59,-709.07 571.04,-710.84 563.97,-702.94 560.59,-709.07"/>
</g>
<!-- supriya.synthdefs.bases.UGen&#45;&gt;supriya.ugens.info.ControlDur -->
<g id="edge9" class="edge">
<title>supriya.synthdefs.bases.UGen&#45;&gt;supriya.ugens.info.ControlDur</title>
<path fill="none" stroke="lightslategrey" d="M412.6,-560.3C440.24,-579.76 499.21,-620.44 551.4,-651 555.89,-653.63 560.7,-656.28 565.46,-658.82"/>
<polygon fill="lightslategrey" stroke="lightslategrey" points="563.97,-661.99 574.45,-663.51 567.21,-655.79 563.97,-661.99"/>
</g>
<!-- supriya.synthdefs.bases.UGen&#45;&gt;supriya.ugens.info.ControlRate -->
<g id="edge10" class="edge">
<title>supriya.synthdefs.bases.UGen&#45;&gt;supriya.ugens.info.ControlRate</title>
<path fill="none" stroke="lightslategrey" d="M419,-557.65C454.54,-571.42 524.2,-598.43 565.32,-614.37"/>
<polygon fill="lightslategrey" stroke="lightslategrey" points="564.29,-617.72 574.88,-618.08 566.82,-611.2 564.29,-617.72"/>
</g>
<!-- supriya.synthdefs.bases.UGen&#45;&gt;supriya.ugens.info.NodeID -->
<g id="edge11" class="edge">
<title>supriya.synthdefs.bases.UGen&#45;&gt;supriya.ugens.info.NodeID</title>
<path fill="none" stroke="lightslategrey" d="M424.25,-553.11C462.13,-558.76 529.97,-568.87 568.69,-574.65"/>
<polygon fill="lightslategrey" stroke="lightslategrey" points="568.39,-578.14 578.79,-576.15 569.42,-571.22 568.39,-578.14"/>
</g>
<!-- supriya.synthdefs.bases.UGen&#45;&gt;supriya.ugens.info.NumAudioBuses -->
<g id="edge12" class="edge">
<title>supriya.synthdefs.bases.UGen&#45;&gt;supriya.ugens.info.NumAudioBuses</title>
<path fill="none" stroke="lightslategrey" d="M424.67,-545.66C461.88,-541.22 527.47,-533.4 566.39,-528.76"/>
<polygon fill="lightslategrey" stroke="lightslategrey" points="567.09,-532.2 576.61,-527.54 566.26,-525.25 567.09,-532.2"/>
</g>
<!-- supriya.synthdefs.bases.UGen&#45;&gt;supriya.ugens.info.NumBuffers -->
<g id="edge13" class="edge">
<title>supriya.synthdefs.bases.UGen&#45;&gt;supriya.ugens.info.NumBuffers</title>
<path fill="none" stroke="lightslategrey" d="M419,-540.35C454.63,-526.54 524.57,-499.43 565.65,-483.5"/>
<polygon fill="lightslategrey" stroke="lightslategrey" points="567.13,-486.68 575.19,-479.8 564.6,-480.15 567.13,-486.68"/>
</g>
<!-- supriya.synthdefs.bases.UGen&#45;&gt;supriya.ugens.info.NumControlBuses -->
<g id="edge14" class="edge">
<title>supriya.synthdefs.bases.UGen&#45;&gt;supriya.ugens.info.NumControlBuses</title>
<path fill="none" stroke="lightslategrey" d="M413.37,-537.93C441.69,-519.14 501.01,-479.86 551.4,-447 556.12,-443.92 561.13,-440.67 566.04,-437.49"/>
<polygon fill="lightslategrey" stroke="lightslategrey" points="568.19,-440.27 574.69,-431.91 564.39,-434.39 568.19,-440.27"/>
</g>
<!-- supriya.synthdefs.bases.UGen&#45;&gt;supriya.ugens.info.NumInputBuses -->
<g id="edge15" class="edge">
<title>supriya.synthdefs.bases.UGen&#45;&gt;supriya.ugens.info.NumInputBuses</title>
<path fill="none" stroke="lightslategrey" d="M407.08,-536.34C430.8,-507.83 491.56,-437.3 551.4,-388 556.55,-383.75 562.34,-379.6 568.04,-375.8"/>
<polygon fill="lightslategrey" stroke="lightslategrey" points="570.29,-378.51 576.81,-370.16 566.5,-372.62 570.29,-378.51"/>
</g>
<!-- supriya.synthdefs.bases.UGen&#45;&gt;supriya.ugens.info.NumOutputBuses -->
<g id="edge16" class="edge">
<title>supriya.synthdefs.bases.UGen&#45;&gt;supriya.ugens.info.NumOutputBuses</title>
<path fill="none" stroke="lightslategrey" d="M403.59,-535.79C423.01,-499.47 481.37,-396.29 551.4,-329 556.12,-324.46 561.64,-320.2 567.18,-316.41"/>
<polygon fill="lightslategrey" stroke="lightslategrey" points="569.3,-319.21 575.8,-310.85 565.5,-313.33 569.3,-319.21"/>
</g>
<!-- supriya.synthdefs.bases.UGen&#45;&gt;supriya.ugens.info.NumRunningSynths -->
<g id="edge17" class="edge">
<title>supriya.synthdefs.bases.UGen&#45;&gt;supriya.ugens.info.NumRunningSynths</title>
<path fill="none" stroke="lightslategrey" d="M401.39,-535.62C416.98,-492.73 470.62,-356.35 551.4,-270 555,-266.15 559.19,-262.58 563.55,-259.33"/>
<polygon fill="lightslategrey" stroke="lightslategrey" points="565.77,-262.05 572.05,-253.52 561.82,-256.28 565.77,-262.05"/>
</g>
<!-- supriya.synthdefs.bases.UGen&#45;&gt;supriya.ugens.info.RadiansPerSample -->
<g id="edge18" class="edge">
<title>supriya.synthdefs.bases.UGen&#45;&gt;supriya.ugens.info.RadiansPerSample</title>
<path fill="none" stroke="lightslategrey" d="M399.89,-535.55C412,-486.82 459.22,-316.85 551.4,-211 555.02,-206.83 559.37,-203.03 563.92,-199.63"/>
<polygon fill="lightslategrey" stroke="lightslategrey" points="565.95,-202.48 572.24,-193.95 562.01,-196.69 565.95,-202.48"/>
</g>
<!-- supriya.synthdefs.bases.UGen&#45;&gt;supriya.ugens.info.SampleDur -->
<g id="edge19" class="edge">
<title>supriya.synthdefs.bases.UGen&#45;&gt;supriya.ugens.info.SampleDur</title>
<path fill="none" stroke="lightslategrey" d="M398.38,-535.51C405.85,-480.77 440.74,-272.33 551.4,-152 555.2,-147.87 559.84,-144.28 564.71,-141.22"/>
<polygon fill="lightslategrey" stroke="lightslategrey" points="566.55,-144.2 573.57,-136.26 563.14,-138.09 566.55,-144.2"/>
</g>
<!-- supriya.synthdefs.bases.UGen&#45;&gt;supriya.ugens.info.SampleRate -->
<g id="edge20" class="edge">
<title>supriya.synthdefs.bases.UGen&#45;&gt;supriya.ugens.info.SampleRate</title>
<path fill="none" stroke="lightslategrey" d="M399.75,-535.58C409.77,-492.3 443.42,-352.76 485.4,-242 509.63,-178.05 503.85,-152.15 551.4,-103 555.27,-99 559.95,-95.54 564.83,-92.59"/>
<polygon fill="lightslategrey" stroke="lightslategrey" points="566.54,-95.64 573.7,-87.83 563.23,-89.48 566.54,-95.64"/>
</g>
<!-- supriya.synthdefs.bases.UGen&#45;&gt;supriya.ugens.info.SubsampleOffset -->
<g id="edge21" class="edge">
<title>supriya.synthdefs.bases.UGen&#45;&gt;supriya.ugens.info.SubsampleOffset</title>
<path fill="none" stroke="lightslategrey" d="M400.18,-535.57C411.51,-492.2 448.68,-352.11 485.4,-238 500.3,-191.7 505.89,-180.75 522.4,-135 535.23,-99.43 526.43,-83.41 551.4,-55 553.31,-52.82 555.47,-50.82 557.78,-48.98"/>
<polygon fill="lightslategrey" stroke="lightslategrey" points="559.8,-51.83 566.1,-43.31 555.86,-46.05 559.8,-51.83"/>
</g>
<!-- supriya.synthdefs.mixins.UGenMethodMixin&#45;&gt;supriya.synthdefs.bases.UGen -->
<g id="edge22" class="edge">
<title>supriya.synthdefs.mixins.UGenMethodMixin&#45;&gt;supriya.synthdefs.bases.UGen</title>
<path fill="none" stroke="lightslategrey" d="M277.13,-549C298.5,-549 330.36,-549 355.53,-549"/>
<polygon fill="lightslategrey" stroke="lightslategrey" points="355.86,-552.5 365.86,-549 355.86,-545.5 355.86,-552.5"/>
</g>
<!-- supriya.system.SupriyaObject&#45;&gt;supriya.synthdefs.mixins.UGenMethodMixin -->
<g id="edge23" class="edge">
<title>supriya.system.SupriyaObject&#45;&gt;supriya.synthdefs.mixins.UGenMethodMixin</title>
<path fill="none" stroke="lightslategrey" d="M153.2,-549C171.61,-549 197.17,-549 217.61,-549"/>
<polygon fill="lightslategrey" stroke="lightslategrey" points="217.77,-552.5 227.77,-549 217.77,-545.5 217.77,-552.5"/>
</g>
<!-- builtins.object -->
<g id="node1" class="node">
<title>builtins.object</title>
<g id="a_node1"><a xlink:href="https://docs.python.org/3/library/functions.html#object" xlink:title="object" target="_top">
<path fill="#fbb4ae" stroke="#fbb4ae" stroke-width="2" d="M52.67,-558.5C52.67,-558.5 22.33,-558.5 22.33,-558.5 19.17,-558.5 16,-555.33 16,-552.17 16,-552.17 16,-545.83 16,-545.83 16,-542.67 19.17,-539.5 22.33,-539.5 22.33,-539.5 52.67,-539.5 52.67,-539.5 55.83,-539.5 59,-542.67 59,-545.83 59,-545.83 59,-552.17 59,-552.17 59,-555.33 55.83,-558.5 52.67,-558.5"/>
<text text-anchor="middle" x="37.5" y="-546.5" font-family="Arial" font-size="10.00">object</text>
</a>
</g>
</g>
<!-- supriya.synthdefs.bases.UGen -->
<g id="node2" class="node">
<title>supriya.synthdefs.bases.UGen</title>
<g id="a_node2"><a xlink:href="../api/supriya/ugens/../synthdefs/bases.html#supriya.synthdefs.bases.UGen" xlink:title="UGen" target="_top">
<ellipse fill="none" stroke="#b3cde3" stroke-width="2" cx="395.7" cy="-549" rx="29.9" ry="13.37"/>
<text text-anchor="middle" x="395.7" y="-546.5" font-family="Arial" font-size="10.00">UGen</text>
</a>
</g>
</g>
<!-- supriya.synthdefs.mixins.UGenMethodMixin -->
<g id="node3" class="node">
<title>supriya.synthdefs.mixins.UGenMethodMixin</title>
<g id="a_node3"><a xlink:href="../api/supriya/ugens/../synthdefs/mixins.html#supriya.synthdefs.mixins.UGenMethodMixin" xlink:title="UGen\nMethod\nMixin" target="_top">
<path fill="#ccebc5" stroke="#ccebc5" stroke-width="2" d="M265,-569.5C265,-569.5 240,-569.5 240,-569.5 234,-569.5 228,-563.5 228,-557.5 228,-557.5 228,-540.5 228,-540.5 228,-534.5 234,-528.5 240,-528.5 240,-528.5 265,-528.5 265,-528.5 271,-528.5 277,-534.5 277,-540.5 277,-540.5 277,-557.5 277,-557.5 277,-563.5 271,-569.5 265,-569.5"/>
<text text-anchor="middle" x="252.5" y="-557.5" font-family="Arial" font-size="10.00">UGen</text>
<text text-anchor="middle" x="252.5" y="-546.5" font-family="Arial" font-size="10.00">Method</text>
<text text-anchor="middle" x="252.5" y="-535.5" font-family="Arial" font-size="10.00">Mixin</text>
</a>
</g>
</g>
<!-- supriya.system.SupriyaObject -->
<g id="node4" class="node">
<title>supriya.system.SupriyaObject</title>
<g id="a_node4"><a xlink:href="../api/supriya/ugens/../system.html#supriya.system.SupriyaObject" xlink:title="Supriya\nObject" target="_top">
<path fill="#decbe4" stroke="#decbe4" stroke-width="2" d="M143,-564C143,-564 113,-564 113,-564 108,-564 103,-559 103,-554 103,-554 103,-544 103,-544 103,-539 108,-534 113,-534 113,-534 143,-534 143,-534 148,-534 153,-539 153,-544 153,-544 153,-554 153,-554 153,-559 148,-564 143,-564"/>
<text text-anchor="middle" x="128" y="-552" font-family="Arial" font-size="10.00">Supriya</text>
<text text-anchor="middle" x="128" y="-541" font-family="Arial" font-size="10.00">Object</text>
</a>
</g>
</g>
<!-- supriya.ugens.info.BlockSize -->
<g id="node5" class="node">
<title>supriya.ugens.info.BlockSize</title>
<g id="a_node5"><a xlink:href="../api/supriya/ugens/info.html#supriya.ugens.info.BlockSize" xlink:title="Block\nSize" target="_top">
<path fill="black" stroke="black" stroke-width="2" d="M609.4,-1049C609.4,-1049 588.4,-1049 588.4,-1049 583.4,-1049 578.4,-1044 578.4,-1039 578.4,-1039 578.4,-1029 578.4,-1029 578.4,-1024 583.4,-1019 588.4,-1019 588.4,-1019 609.4,-1019 609.4,-1019 614.4,-1019 619.4,-1024 619.4,-1029 619.4,-1029 619.4,-1039 619.4,-1039 619.4,-1044 614.4,-1049 609.4,-1049"/>
<text text-anchor="middle" x="598.9" y="-1037" font-family="Arial" font-size="10.00" fill="white">Block</text>
<text text-anchor="middle" x="598.9" y="-1026" font-family="Arial" font-size="10.00" fill="white">Size</text>
</a>
</g>
</g>
<!-- supriya.ugens.info.BufChannels -->
<g id="node6" class="node">
<title>supriya.ugens.info.BufChannels</title>
<g id="a_node6"><a xlink:href="../api/supriya/ugens/info.html#supriya.ugens.info.BufChannels" xlink:title="Buf\nChannels" target="_top">
<path fill="black" stroke="black" stroke-width="2" d="M617.9,-1001C617.9,-1001 579.9,-1001 579.9,-1001 574.9,-1001 569.9,-996 569.9,-991 569.9,-991 569.9,-981 569.9,-981 569.9,-976 574.9,-971 579.9,-971 579.9,-971 617.9,-971 617.9,-971 622.9,-971 627.9,-976 627.9,-981 627.9,-981 627.9,-991 627.9,-991 627.9,-996 622.9,-1001 617.9,-1001"/>
<text text-anchor="middle" x="598.9" y="-989" font-family="Arial" font-size="10.00" fill="white">Buf</text>
<text text-anchor="middle" x="598.9" y="-978" font-family="Arial" font-size="10.00" fill="white">Channels</text>
</a>
</g>
</g>
<!-- supriya.ugens.info.BufDur -->
<g id="node7" class="node">
<title>supriya.ugens.info.BufDur</title>
<g id="a_node7"><a xlink:href="../api/supriya/ugens/info.html#supriya.ugens.info.BufDur" xlink:title="Buf\nDur" target="_top">
<path fill="black" stroke="black" stroke-width="2" d="M604.9,-953C604.9,-953 592.9,-953 592.9,-953 587.9,-953 582.9,-948 582.9,-943 582.9,-943 582.9,-933 582.9,-933 582.9,-928 587.9,-923 592.9,-923 592.9,-923 604.9,-923 604.9,-923 609.9,-923 614.9,-928 614.9,-933 614.9,-933 614.9,-943 614.9,-943 614.9,-948 609.9,-953 604.9,-953"/>
<text text-anchor="middle" x="598.9" y="-941" font-family="Arial" font-size="10.00" fill="white">Buf</text>
<text text-anchor="middle" x="598.9" y="-930" font-family="Arial" font-size="10.00" fill="white">Dur</text>
</a>
</g>
</g>
<!-- supriya.ugens.info.BufFrames -->
<g id="node8" class="node">
<title>supriya.ugens.info.BufFrames</title>
<g id="a_node8"><a xlink:href="../api/supriya/ugens/info.html#supriya.ugens.info.BufFrames" xlink:title="Buf\nFrames" target="_top">
<path fill="black" stroke="black" stroke-width="2" d="M613.9,-905C613.9,-905 583.9,-905 583.9,-905 578.9,-905 573.9,-900 573.9,-895 573.9,-895 573.9,-885 573.9,-885 573.9,-880 578.9,-875 583.9,-875 583.9,-875 613.9,-875 613.9,-875 618.9,-875 623.9,-880 623.9,-885 623.9,-885 623.9,-895 623.9,-895 623.9,-900 618.9,-905 613.9,-905"/>
<text text-anchor="middle" x="598.9" y="-893" font-family="Arial" font-size="10.00" fill="white">Buf</text>
<text text-anchor="middle" x="598.9" y="-882" font-family="Arial" font-size="10.00" fill="white">Frames</text>
</a>
</g>
</g>
<!-- supriya.ugens.info.BufRateScale -->
<g id="node9" class="node">
<title>supriya.ugens.info.BufRateScale</title>
<g id="a_node9"><a xlink:href="../api/supriya/ugens/info.html#supriya.ugens.info.BufRateScale" xlink:title="Buf\nRate\nScale" target="_top">
<path fill="black" stroke="black" stroke-width="2" d="M607.4,-856.5C607.4,-856.5 590.4,-856.5 590.4,-856.5 584.4,-856.5 578.4,-850.5 578.4,-844.5 578.4,-844.5 578.4,-827.5 578.4,-827.5 578.4,-821.5 584.4,-815.5 590.4,-815.5 590.4,-815.5 607.4,-815.5 607.4,-815.5 613.4,-815.5 619.4,-821.5 619.4,-827.5 619.4,-827.5 619.4,-844.5 619.4,-844.5 619.4,-850.5 613.4,-856.5 607.4,-856.5"/>
<text text-anchor="middle" x="598.9" y="-844.5" font-family="Arial" font-size="10.00" fill="white">Buf</text>
<text text-anchor="middle" x="598.9" y="-833.5" font-family="Arial" font-size="10.00" fill="white">Rate</text>
<text text-anchor="middle" x="598.9" y="-822.5" font-family="Arial" font-size="10.00" fill="white">Scale</text>
</a>
</g>
</g>
<!-- supriya.ugens.info.BufSampleRate -->
<g id="node10" class="node">
<title>supriya.ugens.info.BufSampleRate</title>
<g id="a_node10"><a xlink:href="../api/supriya/ugens/info.html#supriya.ugens.info.BufSampleRate" xlink:title="Buf\nSample\nRate" target="_top">
<path fill="black" stroke="black" stroke-width="2" d="M611.9,-797.5C611.9,-797.5 585.9,-797.5 585.9,-797.5 579.9,-797.5 573.9,-791.5 573.9,-785.5 573.9,-785.5 573.9,-768.5 573.9,-768.5 573.9,-762.5 579.9,-756.5 585.9,-756.5 585.9,-756.5 611.9,-756.5 611.9,-756.5 617.9,-756.5 623.9,-762.5 623.9,-768.5 623.9,-768.5 623.9,-785.5 623.9,-785.5 623.9,-791.5 617.9,-797.5 611.9,-797.5"/>
<text text-anchor="middle" x="598.9" y="-785.5" font-family="Arial" font-size="10.00" fill="white">Buf</text>
<text text-anchor="middle" x="598.9" y="-774.5" font-family="Arial" font-size="10.00" fill="white">Sample</text>
<text text-anchor="middle" x="598.9" y="-763.5" font-family="Arial" font-size="10.00" fill="white">Rate</text>
</a>
</g>
</g>
<!-- supriya.ugens.info.BufSamples -->
<g id="node11" class="node">
<title>supriya.ugens.info.BufSamples</title>
<g id="a_node11"><a xlink:href="../api/supriya/ugens/info.html#supriya.ugens.info.BufSamples" xlink:title="Buf\nSamples" target="_top">
<path fill="black" stroke="black" stroke-width="2" d="M616.4,-738C616.4,-738 581.4,-738 581.4,-738 576.4,-738 571.4,-733 571.4,-728 571.4,-728 571.4,-718 571.4,-718 571.4,-713 576.4,-708 581.4,-708 581.4,-708 616.4,-708 616.4,-708 621.4,-708 626.4,-713 626.4,-718 626.4,-718 626.4,-728 626.4,-728 626.4,-733 621.4,-738 616.4,-738"/>
<text text-anchor="middle" x="598.9" y="-726" font-family="Arial" font-size="10.00" fill="white">Buf</text>
<text text-anchor="middle" x="598.9" y="-715" font-family="Arial" font-size="10.00" fill="white">Samples</text>
</a>
</g>
</g>
<!-- supriya.ugens.info.ControlDur -->
<g id="node12" class="node">
<title>supriya.ugens.info.ControlDur</title>
<g id="a_node12"><a xlink:href="../api/supriya/ugens/info.html#supriya.ugens.info.ControlDur" xlink:title="Control\nDur" target="_top">
<path fill="black" stroke="black" stroke-width="2" d="M612.9,-690C612.9,-690 584.9,-690 584.9,-690 579.9,-690 574.9,-685 574.9,-680 574.9,-680 574.9,-670 574.9,-670 574.9,-665 579.9,-660 584.9,-660 584.9,-660 612.9,-660 612.9,-660 617.9,-660 622.9,-665 622.9,-670 622.9,-670 622.9,-680 622.9,-680 622.9,-685 617.9,-690 612.9,-690"/>
<text text-anchor="middle" x="598.9" y="-678" font-family="Arial" font-size="10.00" fill="white">Control</text>
<text text-anchor="middle" x="598.9" y="-667" font-family="Arial" font-size="10.00" fill="white">Dur</text>
</a>
</g>
</g>
<!-- supriya.ugens.info.ControlRate -->
<g id="node13" class="node">
<title>supriya.ugens.info.ControlRate</title>
<g id="a_node13"><a xlink:href="../api/supriya/ugens/info.html#supriya.ugens.info.ControlRate" xlink:title="Control\nRate" target="_top">
<path fill="black" stroke="black" stroke-width="2" d="M612.9,-642C612.9,-642 584.9,-642 584.9,-642 579.9,-642 574.9,-637 574.9,-632 574.9,-632 574.9,-622 574.9,-622 574.9,-617 579.9,-612 584.9,-612 584.9,-612 612.9,-612 612.9,-612 617.9,-612 622.9,-617 622.9,-622 622.9,-622 622.9,-632 622.9,-632 622.9,-637 617.9,-642 612.9,-642"/>
<text text-anchor="middle" x="598.9" y="-630" font-family="Arial" font-size="10.00" fill="white">Control</text>
<text text-anchor="middle" x="598.9" y="-619" font-family="Arial" font-size="10.00" fill="white">Rate</text>
</a>
</g>
</g>
<!-- supriya.ugens.info.NodeID -->
<g id="node14" class="node">
<title>supriya.ugens.info.NodeID</title>
<g id="a_node14"><a xlink:href="../api/supriya/ugens/info.html#supriya.ugens.info.NodeID" xlink:title="Node\nID" target="_top">
<path fill="black" stroke="black" stroke-width="2" d="M608.9,-594C608.9,-594 588.9,-594 588.9,-594 583.9,-594 578.9,-589 578.9,-584 578.9,-584 578.9,-574 578.9,-574 578.9,-569 583.9,-564 588.9,-564 588.9,-564 608.9,-564 608.9,-564 613.9,-564 618.9,-569 618.9,-574 618.9,-574 618.9,-584 618.9,-584 618.9,-589 613.9,-594 608.9,-594"/>
<text text-anchor="middle" x="598.9" y="-582" font-family="Arial" font-size="10.00" fill="white">Node</text>
<text text-anchor="middle" x="598.9" y="-571" font-family="Arial" font-size="10.00" fill="white">ID</text>
</a>
</g>
</g>
<!-- supriya.ugens.info.NumAudioBuses -->
<g id="node15" class="node">
<title>supriya.ugens.info.NumAudioBuses</title>
<g id="a_node15"><a xlink:href="../api/supriya/ugens/info.html#supriya.ugens.info.NumAudioBuses" xlink:title="Num\nAudio\nBuses" target="_top">
<path fill="black" stroke="black" stroke-width="2" d="M608.9,-545.5C608.9,-545.5 588.9,-545.5 588.9,-545.5 582.9,-545.5 576.9,-539.5 576.9,-533.5 576.9,-533.5 576.9,-516.5 576.9,-516.5 576.9,-510.5 582.9,-504.5 588.9,-504.5 588.9,-504.5 608.9,-504.5 608.9,-504.5 614.9,-504.5 620.9,-510.5 620.9,-516.5 620.9,-516.5 620.9,-533.5 620.9,-533.5 620.9,-539.5 614.9,-545.5 608.9,-545.5"/>
<text text-anchor="middle" x="598.9" y="-533.5" font-family="Arial" font-size="10.00" fill="white">Num</text>
<text text-anchor="middle" x="598.9" y="-522.5" font-family="Arial" font-size="10.00" fill="white">Audio</text>
<text text-anchor="middle" x="598.9" y="-511.5" font-family="Arial" font-size="10.00" fill="white">Buses</text>
</a>
</g>
</g>
<!-- supriya.ugens.info.NumBuffers -->
<g id="node16" class="node">
<title>supriya.ugens.info.NumBuffers</title>
<g id="a_node16"><a xlink:href="../api/supriya/ugens/info.html#supriya.ugens.info.NumBuffers" xlink:title="Num\nBuffers" target="_top">
<path fill="black" stroke="black" stroke-width="2" d="M612.4,-486C612.4,-486 585.4,-486 585.4,-486 580.4,-486 575.4,-481 575.4,-476 575.4,-476 575.4,-466 575.4,-466 575.4,-461 580.4,-456 585.4,-456 585.4,-456 612.4,-456 612.4,-456 617.4,-456 622.4,-461 622.4,-466 622.4,-466 622.4,-476 622.4,-476 622.4,-481 617.4,-486 612.4,-486"/>
<text text-anchor="middle" x="598.9" y="-474" font-family="Arial" font-size="10.00" fill="white">Num</text>
<text text-anchor="middle" x="598.9" y="-463" font-family="Arial" font-size="10.00" fill="white">Buffers</text>
</a>
</g>
</g>
<!-- supriya.ugens.info.NumControlBuses -->
<g id="node17" class="node">
<title>supriya.ugens.info.NumControlBuses</title>
<g id="a_node17"><a xlink:href="../api/supriya/ugens/info.html#supriya.ugens.info.NumControlBuses" xlink:title="Num\nControl\nBuses" target="_top">
<path fill="black" stroke="black" stroke-width="2" d="M610.9,-437.5C610.9,-437.5 586.9,-437.5 586.9,-437.5 580.9,-437.5 574.9,-431.5 574.9,-425.5 574.9,-425.5 574.9,-408.5 574.9,-408.5 574.9,-402.5 580.9,-396.5 586.9,-396.5 586.9,-396.5 610.9,-396.5 610.9,-396.5 616.9,-396.5 622.9,-402.5 622.9,-408.5 622.9,-408.5 622.9,-425.5 622.9,-425.5 622.9,-431.5 616.9,-437.5 610.9,-437.5"/>
<text text-anchor="middle" x="598.9" y="-425.5" font-family="Arial" font-size="10.00" fill="white">Num</text>
<text text-anchor="middle" x="598.9" y="-414.5" font-family="Arial" font-size="10.00" fill="white">Control</text>
<text text-anchor="middle" x="598.9" y="-403.5" font-family="Arial" font-size="10.00" fill="white">Buses</text>
</a>
</g>
</g>
<!-- supriya.ugens.info.NumInputBuses -->
<g id="node18" class="node">
<title>supriya.ugens.info.NumInputBuses</title>
<g id="a_node18"><a xlink:href="../api/supriya/ugens/info.html#supriya.ugens.info.NumInputBuses" xlink:title="Num\nInput\nBuses" target="_top">
<path fill="black" stroke="black" stroke-width="2" d="M608.9,-378.5C608.9,-378.5 588.9,-378.5 588.9,-378.5 582.9,-378.5 576.9,-372.5 576.9,-366.5 576.9,-366.5 576.9,-349.5 576.9,-349.5 576.9,-343.5 582.9,-337.5 588.9,-337.5 588.9,-337.5 608.9,-337.5 608.9,-337.5 614.9,-337.5 620.9,-343.5 620.9,-349.5 620.9,-349.5 620.9,-366.5 620.9,-366.5 620.9,-372.5 614.9,-378.5 608.9,-378.5"/>
<text text-anchor="middle" x="598.9" y="-366.5" font-family="Arial" font-size="10.00" fill="white">Num</text>
<text text-anchor="middle" x="598.9" y="-355.5" font-family="Arial" font-size="10.00" fill="white">Input</text>
<text text-anchor="middle" x="598.9" y="-344.5" font-family="Arial" font-size="10.00" fill="white">Buses</text>
</a>
</g>
</g>
<!-- supriya.ugens.info.NumOutputBuses -->
<g id="node19" class="node">
<title>supriya.ugens.info.NumOutputBuses</title>
<g id="a_node19"><a xlink:href="../api/supriya/ugens/info.html#supriya.ugens.info.NumOutputBuses" xlink:title="Num\nOutput\nBuses" target="_top">
<path fill="black" stroke="black" stroke-width="2" d="M609.9,-319.5C609.9,-319.5 587.9,-319.5 587.9,-319.5 581.9,-319.5 575.9,-313.5 575.9,-307.5 575.9,-307.5 575.9,-290.5 575.9,-290.5 575.9,-284.5 581.9,-278.5 587.9,-278.5 587.9,-278.5 609.9,-278.5 609.9,-278.5 615.9,-278.5 621.9,-284.5 621.9,-290.5 621.9,-290.5 621.9,-307.5 621.9,-307.5 621.9,-313.5 615.9,-319.5 609.9,-319.5"/>
<text text-anchor="middle" x="598.9" y="-307.5" font-family="Arial" font-size="10.00" fill="white">Num</text>
<text text-anchor="middle" x="598.9" y="-296.5" font-family="Arial" font-size="10.00" fill="white">Output</text>
<text text-anchor="middle" x="598.9" y="-285.5" font-family="Arial" font-size="10.00" fill="white">Buses</text>
</a>
</g>
</g>
<!-- supriya.ugens.info.NumRunningSynths -->
<g id="node20" class="node">
<title>supriya.ugens.info.NumRunningSynths</title>
<g id="a_node20"><a xlink:href="../api/supriya/ugens/info.html#supriya.ugens.info.NumRunningSynths" xlink:title="Num\nRunning\nSynths" target="_top">
<path fill="black" stroke="black" stroke-width="2" d="M613.4,-260.5C613.4,-260.5 584.4,-260.5 584.4,-260.5 578.4,-260.5 572.4,-254.5 572.4,-248.5 572.4,-248.5 572.4,-231.5 572.4,-231.5 572.4,-225.5 578.4,-219.5 584.4,-219.5 584.4,-219.5 613.4,-219.5 613.4,-219.5 619.4,-219.5 625.4,-225.5 625.4,-231.5 625.4,-231.5 625.4,-248.5 625.4,-248.5 625.4,-254.5 619.4,-260.5 613.4,-260.5"/>
<text text-anchor="middle" x="598.9" y="-248.5" font-family="Arial" font-size="10.00" fill="white">Num</text>
<text text-anchor="middle" x="598.9" y="-237.5" font-family="Arial" font-size="10.00" fill="white">Running</text>
<text text-anchor="middle" x="598.9" y="-226.5" font-family="Arial" font-size="10.00" fill="white">Synths</text>
</a>
</g>
</g>
<!-- supriya.ugens.info.RadiansPerSample -->
<g id="node21" class="node">
<title>supriya.ugens.info.RadiansPerSample</title>
<g id="a_node21"><a xlink:href="../api/supriya/ugens/info.html#supriya.ugens.info.RadiansPerSample" xlink:title="Radians\nPer\nSample" target="_top">
<path fill="black" stroke="black" stroke-width="2" d="M613.4,-201.5C613.4,-201.5 584.4,-201.5 584.4,-201.5 578.4,-201.5 572.4,-195.5 572.4,-189.5 572.4,-189.5 572.4,-172.5 572.4,-172.5 572.4,-166.5 578.4,-160.5 584.4,-160.5 584.4,-160.5 613.4,-160.5 613.4,-160.5 619.4,-160.5 625.4,-166.5 625.4,-172.5 625.4,-172.5 625.4,-189.5 625.4,-189.5 625.4,-195.5 619.4,-201.5 613.4,-201.5"/>
<text text-anchor="middle" x="598.9" y="-189.5" font-family="Arial" font-size="10.00" fill="white">Radians</text>
<text text-anchor="middle" x="598.9" y="-178.5" font-family="Arial" font-size="10.00" fill="white">Per</text>
<text text-anchor="middle" x="598.9" y="-167.5" font-family="Arial" font-size="10.00" fill="white">Sample</text>
</a>
</g>
</g>
<!-- supriya.ugens.info.SampleDur -->
<g id="node22" class="node">
<title>supriya.ugens.info.SampleDur</title>
<g id="a_node22"><a xlink:href="../api/supriya/ugens/info.html#supriya.ugens.info.SampleDur" xlink:title="Sample\nDur" target="_top">
<path fill="black" stroke="black" stroke-width="2" d="M613.9,-142C613.9,-142 583.9,-142 583.9,-142 578.9,-142 573.9,-137 573.9,-132 573.9,-132 573.9,-122 573.9,-122 573.9,-117 578.9,-112 583.9,-112 583.9,-112 613.9,-112 613.9,-112 618.9,-112 623.9,-117 623.9,-122 623.9,-122 623.9,-132 623.9,-132 623.9,-137 618.9,-142 613.9,-142"/>
<text text-anchor="middle" x="598.9" y="-130" font-family="Arial" font-size="10.00" fill="white">Sample</text>
<text text-anchor="middle" x="598.9" y="-119" font-family="Arial" font-size="10.00" fill="white">Dur</text>
</a>
</g>
</g>
<!-- supriya.ugens.info.SampleRate -->
<g id="node23" class="node">
<title>supriya.ugens.info.SampleRate</title>
<g id="a_node23"><a xlink:href="../api/supriya/ugens/info.html#supriya.ugens.info.SampleRate" xlink:title="Sample\nRate" target="_top">
<path fill="black" stroke="black" stroke-width="2" d="M613.9,-94C613.9,-94 583.9,-94 583.9,-94 578.9,-94 573.9,-89 573.9,-84 573.9,-84 573.9,-74 573.9,-74 573.9,-69 578.9,-64 583.9,-64 583.9,-64 613.9,-64 613.9,-64 618.9,-64 623.9,-69 623.9,-74 623.9,-74 623.9,-84 623.9,-84 623.9,-89 618.9,-94 613.9,-94"/>
<text text-anchor="middle" x="598.9" y="-82" font-family="Arial" font-size="10.00" fill="white">Sample</text>
<text text-anchor="middle" x="598.9" y="-71" font-family="Arial" font-size="10.00" fill="white">Rate</text>
</a>
</g>
</g>
<!-- supriya.ugens.info.SubsampleOffset -->
<g id="node24" class="node">
<title>supriya.ugens.info.SubsampleOffset</title>
<g id="a_node24"><a xlink:href="../api/supriya/ugens/info.html#supriya.ugens.info.SubsampleOffset" xlink:title="Subsample\nOffset" target="_top">
<path fill="black" stroke="black" stroke-width="2" d="M621.4,-46C621.4,-46 576.4,-46 576.4,-46 571.4,-46 566.4,-41 566.4,-36 566.4,-36 566.4,-26 566.4,-26 566.4,-21 571.4,-16 576.4,-16 576.4,-16 621.4,-16 621.4,-16 626.4,-16 631.4,-21 631.4,-26 631.4,-26 631.4,-36 631.4,-36 631.4,-41 626.4,-46 621.4,-46"/>
<text text-anchor="middle" x="598.9" y="-34" font-family="Arial" font-size="10.00" fill="white">Subsample</text>
<text text-anchor="middle" x="598.9" y="-23" font-family="Arial" font-size="10.00" fill="white">Offset</text>
</a>
</g>
</g>
</g>
</svg>
