<?xml version="1.0" encoding="UTF-8" standalone="no"?>
<!DOCTYPE svg PUBLIC "-//W3C//DTD SVG 1.1//EN"
 "http://www.w3.org/Graphics/SVG/1.1/DTD/svg11.dtd">
<!-- Generated by graphviz version 2.40.1 (20161225.0304)
 -->
<!-- Title: InheritanceGraph Pages: 1 -->
<svg width="409pt" height="111pt"
 viewBox="0.00 0.00 408.81 111.00" xmlns="http://www.w3.org/2000/svg" xmlns:xlink="http://www.w3.org/1999/xlink">
<g id="graph0" class="graph" transform="scale(1 1) rotate(0) translate(4 107)">
<title>InheritanceGraph</title>
<g id="clust1" class="cluster">
<title>cluster_builtins</title>
<path fill="transparent" stroke="#bcd2ee" stroke-width="2" stroke-dasharray="5,2" d="M20,-24C20,-24 49,-24 49,-24 55,-24 61,-30 61,-36 61,-36 61,-67 61,-67 61,-73 55,-79 49,-79 49,-79 20,-79 20,-79 14,-79 8,-73 8,-67 8,-67 8,-36 8,-36 8,-30 14,-24 20,-24"/>
<text text-anchor="middle" x="34.5" y="-67" font-family="Arial" font-size="10.00" fill="#000000">builtins</text>
</g>
<g id="clust2" class="cluster">
<title>cluster_supriya.nonrealtime</title>
<path fill="transparent" stroke="#bcd2ee" stroke-width="2" stroke-dasharray="5,2" d="M180,-8C180,-8 380.8112,-8 380.8112,-8 386.8112,-8 392.8112,-14 392.8112,-20 392.8112,-20 392.8112,-83 392.8112,-83 392.8112,-89 386.8112,-95 380.8112,-95 380.8112,-95 180,-95 180,-95 174,-95 168,-89 168,-83 168,-83 168,-20 168,-20 168,-14 174,-8 180,-8"/>
<text text-anchor="middle" x="280.4056" y="-83" font-family="Arial" font-size="10.00" fill="#000000">supriya.nonrealtime</text>
</g>
<g id="clust3" class="cluster">
<title>cluster_supriya.system</title>
<path fill="transparent" stroke="#bcd2ee" stroke-width="2" stroke-dasharray="5,2" d="M93,-19C93,-19 136,-19 136,-19 142,-19 148,-25 148,-31 148,-31 148,-72 148,-72 148,-78 142,-84 136,-84 136,-84 93,-84 93,-84 87,-84 81,-78 81,-72 81,-72 81,-31 81,-31 81,-25 87,-19 93,-19"/>
<text text-anchor="middle" x="114.5" y="-72" font-family="Arial" font-size="10.00" fill="#000000">supriya.system</text>
</g>
<!-- builtins.object&#45;&gt;supriya.system.SupriyaObject.SupriyaObject -->
<g id="edge3" class="edge">
<title>builtins.object&#45;&gt;supriya.system.SupriyaObject.SupriyaObject</title>
<path fill="none" stroke="#778899" d="M53.3404,-42C62.0401,-42 72.6079,-42 82.4698,-42"/>
<polygon fill="#778899" stroke="#778899" points="82.7722,-45.5001 92.7722,-42 82.7721,-38.5001 82.7722,-45.5001"/>
</g>
<!-- supriya.nonrealtime.BusGroup.BusGroup&#45;&gt;supriya.nonrealtime.AudioOutputBusGroup.AudioOutputBusGroup -->
<g id="edge1" class="edge">
<title>supriya.nonrealtime.BusGroup.BusGroup&#45;&gt;supriya.nonrealtime.AudioOutputBusGroup.AudioOutputBusGroup</title>
<path fill="none" stroke="#778899" d="M309.9845,-42C317.7162,-42 326.8762,-42 335.4953,-42"/>
<polygon fill="#778899" stroke="#778899" points="335.6081,-45.5001 345.6081,-42 335.6081,-38.5001 335.6081,-45.5001"/>
</g>
<!-- supriya.nonrealtime.SessionObject.SessionObject&#45;&gt;supriya.nonrealtime.BusGroup.BusGroup -->
<g id="edge2" class="edge">
<title>supriya.nonrealtime.SessionObject.SessionObject&#45;&gt;supriya.nonrealtime.BusGroup.BusGroup</title>
<path fill="none" stroke="#778899" d="M237.0585,-42C245.3814,-42 254.3617,-42 262.5746,-42"/>
<polygon fill="#778899" stroke="#778899" points="262.8094,-45.5001 272.8094,-42 262.8094,-38.5001 262.8094,-45.5001"/>
</g>
<!-- supriya.system.SupriyaObject.SupriyaObject&#45;&gt;supriya.nonrealtime.SessionObject.SessionObject -->
<g id="edge4" class="edge">
<title>supriya.system.SupriyaObject.SupriyaObject&#45;&gt;supriya.nonrealtime.SessionObject.SessionObject</title>
<path fill="none" stroke="#778899" d="M135.432,-42C144.4689,-42 155.301,-42 165.7491,-42"/>
<polygon fill="#778899" stroke="#778899" points="165.9886,-45.5001 175.9885,-42 165.9885,-38.5001 165.9886,-45.5001"/>
</g>
<!-- builtins.object -->
<g id="node1" class="node">
<title>builtins.object</title>
<g id="a_node1"><a xlink:href="https://docs.python.org/3.6/library/functions.html#object" xlink:title="object" target="_top">
<path fill="#fbb4ae" stroke="#fbb4ae" stroke-width="2" d="M46.6667,-51.5C46.6667,-51.5 22.3333,-51.5 22.3333,-51.5 19.1667,-51.5 16,-48.3333 16,-45.1667 16,-45.1667 16,-38.8333 16,-38.8333 16,-35.6667 19.1667,-32.5 22.3333,-32.5 22.3333,-32.5 46.6667,-32.5 46.6667,-32.5 49.8333,-32.5 53,-35.6667 53,-38.8333 53,-38.8333 53,-45.1667 53,-45.1667 53,-48.3333 49.8333,-51.5 46.6667,-51.5"/>
<text text-anchor="middle" x="34.5" y="-39.5" font-family="Arial" font-size="10.00" fill="#000000">object</text>
</a>
</g>
</g>
<!-- supriya.nonrealtime.AudioOutputBusGroup.AudioOutputBusGroup -->
<g id="node2" class="node">
<title>supriya.nonrealtime.AudioOutputBusGroup.AudioOutputBusGroup</title>
<g id="a_node2"><a xlink:href="../api/supriya/nonrealtime/AudioOutputBusGroup.html#supriya.nonrealtime.AudioOutputBusGroup.AudioOutputBusGroup" xlink:title="Audio\nOutput\nBus\nGroup" target="_top">
<path fill="#000000" stroke="#000000" stroke-width="2" d="M372.8112,-68C372.8112,-68 357.8112,-68 357.8112,-68 351.8112,-68 345.8112,-62 345.8112,-56 345.8112,-56 345.8112,-28 345.8112,-28 345.8112,-22 351.8112,-16 357.8112,-16 357.8112,-16 372.8112,-16 372.8112,-16 378.8112,-16 384.8112,-22 384.8112,-28 384.8112,-28 384.8112,-56 384.8112,-56 384.8112,-62 378.8112,-68 372.8112,-68"/>
<text text-anchor="middle" x="365.3112" y="-56" font-family="Arial" font-size="10.00" fill="#ffffff">Audio</text>
<text text-anchor="middle" x="365.3112" y="-45" font-family="Arial" font-size="10.00" fill="#ffffff">Output</text>
<text text-anchor="middle" x="365.3112" y="-34" font-family="Arial" font-size="10.00" fill="#ffffff">Bus</text>
<text text-anchor="middle" x="365.3112" y="-23" font-family="Arial" font-size="10.00" fill="#ffffff">Group</text>
</a>
</g>
</g>
<!-- supriya.nonrealtime.BusGroup.BusGroup -->
<g id="node3" class="node">
<title>supriya.nonrealtime.BusGroup.BusGroup</title>
<g id="a_node3"><a xlink:href="../api/supriya/nonrealtime/BusGroup.html#supriya.nonrealtime.BusGroup.BusGroup" xlink:title="Bus\nGroup" target="_top">
<path fill="#b3cde3" stroke="#b3cde3" stroke-width="2" d="M299.8112,-57C299.8112,-57 282.8112,-57 282.8112,-57 277.8112,-57 272.8112,-52 272.8112,-47 272.8112,-47 272.8112,-37 272.8112,-37 272.8112,-32 277.8112,-27 282.8112,-27 282.8112,-27 299.8112,-27 299.8112,-27 304.8112,-27 309.8112,-32 309.8112,-37 309.8112,-37 309.8112,-47 309.8112,-47 309.8112,-52 304.8112,-57 299.8112,-57"/>
<text text-anchor="middle" x="291.3112" y="-45" font-family="Arial" font-size="10.00" fill="#000000">Bus</text>
<text text-anchor="middle" x="291.3112" y="-34" font-family="Arial" font-size="10.00" fill="#000000">Group</text>
</a>
</g>
</g>
<!-- supriya.nonrealtime.SessionObject.SessionObject -->
<g id="node4" class="node">
<title>supriya.nonrealtime.SessionObject.SessionObject</title>
<g id="a_node4"><a xlink:href="../api/supriya/nonrealtime/SessionObject.html#supriya.nonrealtime.SessionObject.SessionObject" xlink:title="Session\nObject" target="_top">
<ellipse fill="none" stroke="#b3cde3" stroke-width="2" cx="206.4056" cy="-42" rx="30.3115" ry="21.4286"/>
<text text-anchor="middle" x="206.4056" y="-45" font-family="Arial" font-size="10.00" fill="#000000">Session</text>
<text text-anchor="middle" x="206.4056" y="-34" font-family="Arial" font-size="10.00" fill="#000000">Object</text>
</a>
</g>
</g>
<!-- supriya.system.SupriyaObject.SupriyaObject -->
<g id="node5" class="node">
<title>supriya.system.SupriyaObject.SupriyaObject</title>
<g id="a_node5"><a xlink:href="../api/supriya/nonrealtime/../system/SupriyaObject.html#supriya.system.SupriyaObject.SupriyaObject" xlink:title="Supriya\nObject" target="_top">
<path fill="#ccebc5" stroke="#ccebc5" stroke-width="2" d="M125,-57C125,-57 103,-57 103,-57 98,-57 93,-52 93,-47 93,-47 93,-37 93,-37 93,-32 98,-27 103,-27 103,-27 125,-27 125,-27 130,-27 135,-32 135,-37 135,-37 135,-47 135,-47 135,-52 130,-57 125,-57"/>
<text text-anchor="middle" x="114" y="-45" font-family="Arial" font-size="10.00" fill="#000000">Supriya</text>
<text text-anchor="middle" x="114" y="-34" font-family="Arial" font-size="10.00" fill="#000000">Object</text>
</a>
</g>
</g>
</g>
</svg>
