<?xml version="1.0" encoding="UTF-8" standalone="no"?>
<!DOCTYPE svg PUBLIC "-//W3C//DTD SVG 1.1//EN"
 "http://www.w3.org/Graphics/SVG/1.1/DTD/svg11.dtd">
<!-- Generated by graphviz version 2.40.1 (20161225.0304)
 -->
<!-- Title: InheritanceGraph Pages: 1 -->
<svg width="434pt" height="313pt"
 viewBox="0.00 0.00 434.00 313.00" xmlns="http://www.w3.org/2000/svg" xmlns:xlink="http://www.w3.org/1999/xlink">
<g id="graph0" class="graph" transform="scale(1 1) rotate(0) translate(4 309)">
<title>InheritanceGraph</title>
<g id="clust1" class="cluster">
<title>cluster_builtins</title>
<path fill="transparent" stroke="#bcd2ee" stroke-width="2" stroke-dasharray="5,2" d="M20,-128C20,-128 49,-128 49,-128 55,-128 61,-134 61,-140 61,-140 61,-171 61,-171 61,-177 55,-183 49,-183 49,-183 20,-183 20,-183 14,-183 8,-177 8,-171 8,-171 8,-140 8,-140 8,-134 14,-128 20,-128"/>
<text text-anchor="middle" x="34.5" y="-171" font-family="Arial" font-size="10.00" fill="#000000">builtins</text>
</g>
<g id="clust2" class="cluster">
<title>cluster_supriya.live</title>
<path fill="transparent" stroke="#bcd2ee" stroke-width="2" stroke-dasharray="5,2" d="M130,-8C130,-8 406,-8 406,-8 412,-8 418,-14 418,-20 418,-20 418,-285 418,-285 418,-291 412,-297 406,-297 406,-297 130,-297 130,-297 124,-297 118,-291 118,-285 118,-285 118,-20 118,-20 118,-14 124,-8 130,-8"/>
<text text-anchor="middle" x="268" y="-285" font-family="Arial" font-size="10.00" fill="#000000">supriya.live</text>
</g>
<!-- builtins.object&#45;&gt;supriya.live.Application.Application -->
<g id="edge5" class="edge">
<title>builtins.object&#45;&gt;supriya.live.Application.Application</title>
<path fill="none" stroke="#778899" d="M41.1006,-155.7831C54.0666,-174.4404 84.5288,-215.5962 118,-242 119.3492,-243.0643 120.771,-244.0949 122.2375,-245.0879"/>
<polygon fill="#778899" stroke="#778899" points="120.5633,-248.1655 130.9331,-250.3374 124.1811,-242.1728 120.5633,-248.1655"/>
</g>
<!-- builtins.object&#45;&gt;supriya.live.Direct.Direct -->
<g id="edge6" class="edge">
<title>builtins.object&#45;&gt;supriya.live.Direct.Direct</title>
<path fill="none" stroke="#778899" d="M46.8747,-155.5391C62.871,-167.6819 91.7889,-189.0015 118,-205 120.3516,-206.4354 122.8296,-207.8702 125.3338,-209.2683"/>
<polygon fill="#778899" stroke="#778899" points="123.8747,-212.4575 134.3406,-214.1057 127.1869,-206.2906 123.8747,-212.4575"/>
</g>
<!-- builtins.object&#45;&gt;supriya.live.Mixer.Mixer -->
<g id="edge7" class="edge">
<title>builtins.object&#45;&gt;supriya.live.Mixer.Mixer</title>
<path fill="none" stroke="#778899" d="M53.1975,-152.3381C72.5836,-158.9097 103.0897,-169.2508 125.1769,-176.7379"/>
<polygon fill="#778899" stroke="#778899" points="124.0681,-180.0576 134.6624,-179.9534 126.3154,-173.4282 124.0681,-180.0576"/>
</g>
<!-- builtins.object&#45;&gt;supriya.live.Send.Send -->
<g id="edge8" class="edge">
<title>builtins.object&#45;&gt;supriya.live.Send.Send</title>
<path fill="none" stroke="#778899" d="M53.1975,-146.4754C72.6323,-146.9695 103.2432,-147.7477 125.3433,-148.3096"/>
<polygon fill="#778899" stroke="#778899" points="125.3368,-151.8104 135.4226,-148.5658 125.5148,-144.8127 125.3368,-151.8104"/>
</g>
<!-- builtins.object&#45;&gt;supriya.live.SendManager.SendManager -->
<g id="edge9" class="edge">
<title>builtins.object&#45;&gt;supriya.live.SendManager.SendManager</title>
<path fill="none" stroke="#778899" d="M53.1975,-139.6619C71.0376,-133.6144 98.295,-124.3746 119.7421,-117.1044"/>
<polygon fill="#778899" stroke="#778899" points="121.0873,-120.3441 129.4343,-113.8189 118.84,-113.7146 121.0873,-120.3441"/>
</g>
<!-- builtins.object&#45;&gt;supriya.live.Slot.Slot -->
<g id="edge10" class="edge">
<title>builtins.object&#45;&gt;supriya.live.Slot.Slot</title>
<path fill="none" stroke="#778899" d="M45.982,-136.307C61.713,-123.2383 91.0876,-99.5813 118,-82 121.4437,-79.7503 125.1739,-77.5088 128.866,-75.3958"/>
<polygon fill="#778899" stroke="#778899" points="130.7155,-78.3727 137.7797,-70.4767 127.3333,-72.244 130.7155,-78.3727"/>
</g>
<!-- builtins.object&#45;&gt;supriya.live.Track.Track -->
<g id="edge11" class="edge">
<title>builtins.object&#45;&gt;supriya.live.Track.Track</title>
<path fill="none" stroke="#778899" d="M40.6434,-136.3492C53.2685,-117.0872 83.8314,-73.2974 118,-45 120.5278,-42.9065 123.3206,-40.9301 126.1901,-39.1005"/>
<polygon fill="#778899" stroke="#778899" points="127.9474,-42.1275 134.8406,-34.0817 124.4345,-36.0727 127.9474,-42.1275"/>
</g>
<!-- supriya.live.PatternSlot.PatternSlot&#45;&gt;supriya.live.AutoPatternSlot.AutoPatternSlot -->
<g id="edge1" class="edge">
<title>supriya.live.PatternSlot.PatternSlot&#45;&gt;supriya.live.AutoPatternSlot.AutoPatternSlot</title>
<path fill="none" stroke="#778899" d="M256.1346,-54.3921C263.9889,-53.7801 273.1178,-53.0687 281.7121,-52.3991"/>
<polygon fill="#778899" stroke="#778899" points="282.1106,-55.8787 291.8085,-51.6123 281.5667,-48.8999 282.1106,-55.8787"/>
</g>
<!-- supriya.live.PatternSlot.PatternSlot&#45;&gt;supriya.live.TriggerPatternSlot.TriggerPatternSlot -->
<g id="edge2" class="edge">
<title>supriya.live.PatternSlot.PatternSlot&#45;&gt;supriya.live.TriggerPatternSlot.TriggerPatternSlot</title>
<path fill="none" stroke="#778899" d="M256.1723,-66.5472C266.6461,-71.4303 279.7182,-76.8385 292,-80 313.8291,-85.6191 339.1737,-88.1006 358.5505,-89.187"/>
<polygon fill="#778899" stroke="#778899" points="358.4889,-92.6878 368.6413,-89.6581 358.8154,-85.6954 358.4889,-92.6878"/>
</g>
<!-- supriya.live.Slot.Slot&#45;&gt;supriya.live.PatternSlot.PatternSlot -->
<g id="edge3" class="edge">
<title>supriya.live.Slot.Slot&#45;&gt;supriya.live.PatternSlot.PatternSlot</title>
<path fill="none" stroke="#778899" d="M167.3387,-61.7485C177.6844,-60.876 191.8636,-59.6802 204.611,-58.6051"/>
<polygon fill="#778899" stroke="#778899" points="205.196,-62.0683 214.8665,-57.7402 204.6077,-55.093 205.196,-62.0683"/>
</g>
<!-- supriya.live.Slot.Slot&#45;&gt;supriya.live.SynthSlot.SynthSlot -->
<g id="edge4" class="edge">
<title>supriya.live.Slot.Slot&#45;&gt;supriya.live.SynthSlot.SynthSlot</title>
<path fill="none" stroke="#778899" d="M167.3387,-70.33C178.7044,-75.9443 194.6968,-83.8442 208.3346,-90.5809"/>
<polygon fill="#778899" stroke="#778899" points="206.7983,-93.7257 217.3142,-95.0166 209.8985,-87.4497 206.7983,-93.7257"/>
</g>
<!-- builtins.object -->
<g id="node1" class="node">
<title>builtins.object</title>
<g id="a_node1"><a xlink:href="https://docs.python.org/3.6/library/functions.html#object" xlink:title="object" target="_top">
<path fill="#fbb4ae" stroke="#fbb4ae" stroke-width="2" d="M46.6667,-155.5C46.6667,-155.5 22.3333,-155.5 22.3333,-155.5 19.1667,-155.5 16,-152.3333 16,-149.1667 16,-149.1667 16,-142.8333 16,-142.8333 16,-139.6667 19.1667,-136.5 22.3333,-136.5 22.3333,-136.5 46.6667,-136.5 46.6667,-136.5 49.8333,-136.5 53,-139.6667 53,-142.8333 53,-142.8333 53,-149.1667 53,-149.1667 53,-152.3333 49.8333,-155.5 46.6667,-155.5"/>
<text text-anchor="middle" x="34.5" y="-143.5" font-family="Arial" font-size="10.00" fill="#000000">object</text>
</a>
</g>
</g>
<!-- supriya.live.Application.Application -->
<g id="node2" class="node">
<title>supriya.live.Application.Application</title>
<g id="a_node2"><a xlink:href="../api/supriya/live/Application.html#supriya.live.Application.Application" xlink:title="Application" target="_top">
<path fill="#000000" stroke="#000000" stroke-width="2" d="M172.6667,-269.5C172.6667,-269.5 132.3333,-269.5 132.3333,-269.5 129.1667,-269.5 126,-266.3333 126,-263.1667 126,-263.1667 126,-256.8333 126,-256.8333 126,-253.6667 129.1667,-250.5 132.3333,-250.5 132.3333,-250.5 172.6667,-250.5 172.6667,-250.5 175.8333,-250.5 179,-253.6667 179,-256.8333 179,-256.8333 179,-263.1667 179,-263.1667 179,-266.3333 175.8333,-269.5 172.6667,-269.5"/>
<text text-anchor="middle" x="152.5" y="-257.5" font-family="Arial" font-size="10.00" fill="#ffffff">Application</text>
</a>
</g>
</g>
<!-- supriya.live.AutoPatternSlot.AutoPatternSlot -->
<g id="node3" class="node">
<title>supriya.live.AutoPatternSlot.AutoPatternSlot</title>
<g id="a_node3"><a xlink:href="../api/supriya/live/AutoPatternSlot.html#supriya.live.AutoPatternSlot.AutoPatternSlot" xlink:title="Auto\nPattern\nSlot" target="_top">
<path fill="#000000" stroke="#000000" stroke-width="2" d="M321,-70.5C321,-70.5 304,-70.5 304,-70.5 298,-70.5 292,-64.5 292,-58.5 292,-58.5 292,-41.5 292,-41.5 292,-35.5 298,-29.5 304,-29.5 304,-29.5 321,-29.5 321,-29.5 327,-29.5 333,-35.5 333,-41.5 333,-41.5 333,-58.5 333,-58.5 333,-64.5 327,-70.5 321,-70.5"/>
<text text-anchor="middle" x="312.5" y="-58.5" font-family="Arial" font-size="10.00" fill="#ffffff">Auto</text>
<text text-anchor="middle" x="312.5" y="-47.5" font-family="Arial" font-size="10.00" fill="#ffffff">Pattern</text>
<text text-anchor="middle" x="312.5" y="-36.5" font-family="Arial" font-size="10.00" fill="#ffffff">Slot</text>
</a>
</g>
</g>
<!-- supriya.live.Direct.Direct -->
<g id="node4" class="node">
<title>supriya.live.Direct.Direct</title>
<g id="a_node4"><a xlink:href="../api/supriya/live/Direct.html#supriya.live.Direct.Direct" xlink:title="Direct" target="_top">
<path fill="#000000" stroke="#000000" stroke-width="2" d="M164.1667,-232.5C164.1667,-232.5 140.8333,-232.5 140.8333,-232.5 137.6667,-232.5 134.5,-229.3333 134.5,-226.1667 134.5,-226.1667 134.5,-219.8333 134.5,-219.8333 134.5,-216.6667 137.6667,-213.5 140.8333,-213.5 140.8333,-213.5 164.1667,-213.5 164.1667,-213.5 167.3333,-213.5 170.5,-216.6667 170.5,-219.8333 170.5,-219.8333 170.5,-226.1667 170.5,-226.1667 170.5,-229.3333 167.3333,-232.5 164.1667,-232.5"/>
<text text-anchor="middle" x="152.5" y="-220.5" font-family="Arial" font-size="10.00" fill="#ffffff">Direct</text>
</a>
</g>
</g>
<!-- supriya.live.Mixer.Mixer -->
<g id="node5" class="node">
<title>supriya.live.Mixer.Mixer</title>
<g id="a_node5"><a xlink:href="../api/supriya/live/Mixer.html#supriya.live.Mixer.Mixer" xlink:title="Mixer" target="_top">
<path fill="#000000" stroke="#000000" stroke-width="2" d="M163.6667,-195.5C163.6667,-195.5 141.3333,-195.5 141.3333,-195.5 138.1667,-195.5 135,-192.3333 135,-189.1667 135,-189.1667 135,-182.8333 135,-182.8333 135,-179.6667 138.1667,-176.5 141.3333,-176.5 141.3333,-176.5 163.6667,-176.5 163.6667,-176.5 166.8333,-176.5 170,-179.6667 170,-182.8333 170,-182.8333 170,-189.1667 170,-189.1667 170,-192.3333 166.8333,-195.5 163.6667,-195.5"/>
<text text-anchor="middle" x="152.5" y="-183.5" font-family="Arial" font-size="10.00" fill="#ffffff">Mixer</text>
</a>
</g>
</g>
<!-- supriya.live.PatternSlot.PatternSlot -->
<g id="node6" class="node">
<title>supriya.live.PatternSlot.PatternSlot</title>
<g id="a_node6"><a xlink:href="../api/supriya/live/PatternSlot.html#supriya.live.PatternSlot.PatternSlot" xlink:title="Pattern\nSlot" target="_top">
<path fill="#000000" stroke="#000000" stroke-width="2" d="M246,-71C246,-71 225,-71 225,-71 220,-71 215,-66 215,-61 215,-61 215,-51 215,-51 215,-46 220,-41 225,-41 225,-41 246,-41 246,-41 251,-41 256,-46 256,-51 256,-51 256,-61 256,-61 256,-66 251,-71 246,-71"/>
<text text-anchor="middle" x="235.5" y="-59" font-family="Arial" font-size="10.00" fill="#ffffff">Pattern</text>
<text text-anchor="middle" x="235.5" y="-48" font-family="Arial" font-size="10.00" fill="#ffffff">Slot</text>
</a>
</g>
</g>
<!-- supriya.live.TriggerPatternSlot.TriggerPatternSlot -->
<g id="node7" class="node">
<title>supriya.live.TriggerPatternSlot.TriggerPatternSlot</title>
<g id="a_node7"><a xlink:href="../api/supriya/live/TriggerPatternSlot.html#supriya.live.TriggerPatternSlot.TriggerPatternSlot" xlink:title="Trigger\nPattern\nSlot" target="_top">
<path fill="#000000" stroke="#000000" stroke-width="2" d="M398,-110.5C398,-110.5 381,-110.5 381,-110.5 375,-110.5 369,-104.5 369,-98.5 369,-98.5 369,-81.5 369,-81.5 369,-75.5 375,-69.5 381,-69.5 381,-69.5 398,-69.5 398,-69.5 404,-69.5 410,-75.5 410,-81.5 410,-81.5 410,-98.5 410,-98.5 410,-104.5 404,-110.5 398,-110.5"/>
<text text-anchor="middle" x="389.5" y="-98.5" font-family="Arial" font-size="10.00" fill="#ffffff">Trigger</text>
<text text-anchor="middle" x="389.5" y="-87.5" font-family="Arial" font-size="10.00" fill="#ffffff">Pattern</text>
<text text-anchor="middle" x="389.5" y="-76.5" font-family="Arial" font-size="10.00" fill="#ffffff">Slot</text>
</a>
</g>
</g>
<!-- supriya.live.Send.Send -->
<g id="node8" class="node">
<title>supriya.live.Send.Send</title>
<g id="a_node8"><a xlink:href="../api/supriya/live/Send.html#supriya.live.Send.Send" xlink:title="Send" target="_top">
<path fill="#000000" stroke="#000000" stroke-width="2" d="M163.1667,-158.5C163.1667,-158.5 141.8333,-158.5 141.8333,-158.5 138.6667,-158.5 135.5,-155.3333 135.5,-152.1667 135.5,-152.1667 135.5,-145.8333 135.5,-145.8333 135.5,-142.6667 138.6667,-139.5 141.8333,-139.5 141.8333,-139.5 163.1667,-139.5 163.1667,-139.5 166.3333,-139.5 169.5,-142.6667 169.5,-145.8333 169.5,-145.8333 169.5,-152.1667 169.5,-152.1667 169.5,-155.3333 166.3333,-158.5 163.1667,-158.5"/>
<text text-anchor="middle" x="152.5" y="-146.5" font-family="Arial" font-size="10.00" fill="#ffffff">Send</text>
</a>
</g>
</g>
<!-- supriya.live.SendManager.SendManager -->
<g id="node9" class="node">
<title>supriya.live.SendManager.SendManager</title>
<g id="a_node9"><a xlink:href="../api/supriya/live/SendManager.html#supriya.live.SendManager.SendManager" xlink:title="Send\nManager" target="_top">
<path fill="#000000" stroke="#000000" stroke-width="2" d="M165.5,-121C165.5,-121 139.5,-121 139.5,-121 134.5,-121 129.5,-116 129.5,-111 129.5,-111 129.5,-101 129.5,-101 129.5,-96 134.5,-91 139.5,-91 139.5,-91 165.5,-91 165.5,-91 170.5,-91 175.5,-96 175.5,-101 175.5,-101 175.5,-111 175.5,-111 175.5,-116 170.5,-121 165.5,-121"/>
<text text-anchor="middle" x="152.5" y="-109" font-family="Arial" font-size="10.00" fill="#ffffff">Send</text>
<text text-anchor="middle" x="152.5" y="-98" font-family="Arial" font-size="10.00" fill="#ffffff">Manager</text>
</a>
</g>
</g>
<!-- supriya.live.Slot.Slot -->
<g id="node10" class="node">
<title>supriya.live.Slot.Slot</title>
<g id="a_node10"><a xlink:href="../api/supriya/live/Slot.html#supriya.live.Slot.Slot" xlink:title="Slot" target="_top">
<path fill="#000000" stroke="#000000" stroke-width="2" d="M160.6667,-72.5C160.6667,-72.5 144.3333,-72.5 144.3333,-72.5 141.1667,-72.5 138,-69.3333 138,-66.1667 138,-66.1667 138,-59.8333 138,-59.8333 138,-56.6667 141.1667,-53.5 144.3333,-53.5 144.3333,-53.5 160.6667,-53.5 160.6667,-53.5 163.8333,-53.5 167,-56.6667 167,-59.8333 167,-59.8333 167,-66.1667 167,-66.1667 167,-69.3333 163.8333,-72.5 160.6667,-72.5"/>
<text text-anchor="middle" x="152.5" y="-60.5" font-family="Arial" font-size="10.00" fill="#ffffff">Slot</text>
</a>
</g>
</g>
<!-- supriya.live.SynthSlot.SynthSlot -->
<g id="node11" class="node">
<title>supriya.live.SynthSlot.SynthSlot</title>
<g id="a_node11"><a xlink:href="../api/supriya/live/SynthSlot.html#supriya.live.SynthSlot.SynthSlot" xlink:title="Synth\nSlot" target="_top">
<path fill="#000000" stroke="#000000" stroke-width="2" d="M243.5,-119C243.5,-119 227.5,-119 227.5,-119 222.5,-119 217.5,-114 217.5,-109 217.5,-109 217.5,-99 217.5,-99 217.5,-94 222.5,-89 227.5,-89 227.5,-89 243.5,-89 243.5,-89 248.5,-89 253.5,-94 253.5,-99 253.5,-99 253.5,-109 253.5,-109 253.5,-114 248.5,-119 243.5,-119"/>
<text text-anchor="middle" x="235.5" y="-107" font-family="Arial" font-size="10.00" fill="#ffffff">Synth</text>
<text text-anchor="middle" x="235.5" y="-96" font-family="Arial" font-size="10.00" fill="#ffffff">Slot</text>
</a>
</g>
</g>
<!-- supriya.live.Track.Track -->
<g id="node12" class="node">
<title>supriya.live.Track.Track</title>
<g id="a_node12"><a xlink:href="../api/supriya/live/Track.html#supriya.live.Track.Track" xlink:title="Track" target="_top">
<path fill="#000000" stroke="#000000" stroke-width="2" d="M163.6667,-35.5C163.6667,-35.5 141.3333,-35.5 141.3333,-35.5 138.1667,-35.5 135,-32.3333 135,-29.1667 135,-29.1667 135,-22.8333 135,-22.8333 135,-19.6667 138.1667,-16.5 141.3333,-16.5 141.3333,-16.5 163.6667,-16.5 163.6667,-16.5 166.8333,-16.5 170,-19.6667 170,-22.8333 170,-22.8333 170,-29.1667 170,-29.1667 170,-32.3333 166.8333,-35.5 163.6667,-35.5"/>
<text text-anchor="middle" x="152.5" y="-23.5" font-family="Arial" font-size="10.00" fill="#ffffff">Track</text>
</a>
</g>
</g>
</g>
</svg>
