<?xml version="1.0" encoding="UTF-8" standalone="no"?>
<!DOCTYPE svg PUBLIC "-//W3C//DTD SVG 1.1//EN"
 "http://www.w3.org/Graphics/SVG/1.1/DTD/svg11.dtd">
<!-- Generated by graphviz version 2.40.1 (20161225.0304)
 -->
<!-- Title: InheritanceGraph Pages: 1 -->
<svg width="484pt" height="318pt"
 viewBox="0.00 0.00 484.00 318.00" xmlns="http://www.w3.org/2000/svg" xmlns:xlink="http://www.w3.org/1999/xlink">
<g id="graph0" class="graph" transform="scale(1 1) rotate(0) translate(4 314)">
<title>InheritanceGraph</title>
<g id="clust1" class="cluster">
<title>cluster_builtins</title>
<path fill="transparent" stroke="#bcd2ee" stroke-width="2" stroke-dasharray="5,2" d="M20,-236C20,-236 49,-236 49,-236 55,-236 61,-242 61,-248 61,-248 61,-279 61,-279 61,-285 55,-291 49,-291 49,-291 20,-291 20,-291 14,-291 8,-285 8,-279 8,-279 8,-248 8,-248 8,-242 14,-236 20,-236"/>
<text text-anchor="middle" x="34.5" y="-279" font-family="Arial" font-size="10.00" fill="#000000">builtins</text>
</g>
<g id="clust2" class="cluster">
<title>cluster_supriya.daw</title>
<path fill="transparent" stroke="#bcd2ee" stroke-width="2" stroke-dasharray="5,2" d="M257,-8C257,-8 456,-8 456,-8 462,-8 468,-14 468,-20 468,-20 468,-205 468,-205 468,-211 462,-217 456,-217 456,-217 257,-217 257,-217 251,-217 245,-211 245,-205 245,-205 245,-20 245,-20 245,-14 251,-8 257,-8"/>
<text text-anchor="middle" x="356.5" y="-205" font-family="Arial" font-size="10.00" fill="#000000">supriya.daw</text>
</g>
<g id="clust3" class="cluster">
<title>cluster_uqbar.containers</title>
<path fill="transparent" stroke="#bcd2ee" stroke-width="2" stroke-dasharray="5,2" d="M93,-225C93,-225 286,-225 286,-225 292,-225 298,-231 298,-237 298,-237 298,-290 298,-290 298,-296 292,-302 286,-302 286,-302 93,-302 93,-302 87,-302 81,-296 81,-290 81,-290 81,-237 81,-237 81,-231 87,-225 93,-225"/>
<text text-anchor="middle" x="189.5" y="-290" font-family="Arial" font-size="10.00" fill="#000000">uqbar.containers</text>
</g>
<!-- builtins.object&#45;&gt;uqbar.containers.UniqueTreeNode.UniqueTreeNode -->
<g id="edge8" class="edge">
<title>builtins.object&#45;&gt;uqbar.containers.UniqueTreeNode.UniqueTreeNode</title>
<path fill="none" stroke="#778899" d="M53.2995,-254C61.0221,-254 70.1602,-254 78.7776,-254"/>
<polygon fill="#778899" stroke="#778899" points="78.9006,-257.5001 88.9006,-254 78.9005,-250.5001 78.9006,-257.5001"/>
</g>
<!-- supriya.daw.DawContainer.DawContainer&#45;&gt;supriya.daw.ChainContainer.ChainContainer -->
<g id="edge1" class="edge">
<title>supriya.daw.DawContainer.DawContainer&#45;&gt;supriya.daw.ChainContainer.ChainContainer</title>
<path fill="none" stroke="#778899" d="M359.2405,-130.8319C370.2727,-112.2008 390.3194,-79.995 411,-55 411.3914,-54.5269 411.7911,-54.053 412.1977,-53.5791"/>
<polygon fill="#778899" stroke="#778899" points="414.9588,-55.7486 419.1855,-46.0334 409.8229,-50.9923 414.9588,-55.7486"/>
</g>
<!-- supriya.daw.DawContainer.DawContainer&#45;&gt;supriya.daw.DeviceContainer.DeviceContainer -->
<g id="edge2" class="edge">
<title>supriya.daw.DawContainer.DawContainer&#45;&gt;supriya.daw.DeviceContainer.DeviceContainer</title>
<path fill="none" stroke="#778899" d="M369.7878,-130.7967C381.199,-121.802 395.8307,-110.2687 408.3896,-100.3694"/>
<polygon fill="#778899" stroke="#778899" points="410.6016,-103.0824 416.2885,-94.1432 406.2683,-97.5849 410.6016,-103.0824"/>
</g>
<!-- supriya.daw.DawContainer.DawContainer&#45;&gt;supriya.daw.SendContainer.SendContainer -->
<g id="edge3" class="edge">
<title>supriya.daw.DawContainer.DawContainer&#45;&gt;supriya.daw.SendContainer.SendContainer</title>
<path fill="none" stroke="#778899" d="M375.0855,-140.5044C383.1909,-138.6926 392.3604,-136.643 401.0618,-134.6979"/>
<polygon fill="#778899" stroke="#778899" points="401.9741,-138.0805 410.9697,-132.4832 400.447,-131.2491 401.9741,-138.0805"/>
</g>
<!-- supriya.daw.DawContainer.DawContainer&#45;&gt;supriya.daw.TrackContainer.TrackContainer -->
<g id="edge4" class="edge">
<title>supriya.daw.DawContainer.DawContainer&#45;&gt;supriya.daw.TrackContainer.TrackContainer</title>
<path fill="none" stroke="#778899" d="M375.0855,-154.388C383.279,-157.1834 392.5598,-160.3498 401.3454,-163.3472"/>
<polygon fill="#778899" stroke="#778899" points="400.3752,-166.7143 410.9697,-166.6308 402.6356,-160.0893 400.3752,-166.7143"/>
</g>
<!-- supriya.daw.DawNode.DawNode&#45;&gt;supriya.daw.DawContainer.DawContainer -->
<g id="edge5" class="edge">
<title>supriya.daw.DawNode.DawNode&#45;&gt;supriya.daw.DawContainer.DawContainer</title>
<path fill="none" stroke="#778899" d="M287.072,-153.8793C295.4299,-152.841 305.8105,-151.5515 315.7373,-150.3184"/>
<polygon fill="#778899" stroke="#778899" points="316.3218,-153.7727 325.814,-149.0666 315.4588,-146.8261 316.3218,-153.7727"/>
</g>
<!-- uqbar.containers.UniqueTreeContainer.UniqueTreeContainer&#45;&gt;uqbar.containers.UniqueTreeList.UniqueTreeList -->
<g id="edge6" class="edge">
<title>uqbar.containers.UniqueTreeContainer.UniqueTreeContainer&#45;&gt;uqbar.containers.UniqueTreeList.UniqueTreeList</title>
<path fill="none" stroke="#778899" d="M214.0901,-254C222.1527,-254 231.2086,-254 239.6459,-254"/>
<polygon fill="#778899" stroke="#778899" points="239.8812,-257.5001 249.8811,-254 239.8811,-250.5001 239.8812,-257.5001"/>
</g>
<!-- uqbar.containers.UniqueTreeList.UniqueTreeList&#45;&gt;supriya.daw.DawContainer.DawContainer -->
<g id="edge9" class="edge">
<title>uqbar.containers.UniqueTreeList.UniqueTreeList&#45;&gt;supriya.daw.DawContainer.DawContainer</title>
<path fill="none" stroke="#778899" d="M288.0731,-233.2928C291.4403,-229.2696 294.8789,-225.0451 298,-221 310.8648,-204.3267 324.4766,-184.8213 334.6158,-169.8821"/>
<polygon fill="#778899" stroke="#778899" points="337.7561,-171.4851 340.4424,-161.2365 331.9513,-167.573 337.7561,-171.4851"/>
</g>
<!-- uqbar.containers.UniqueTreeNode.UniqueTreeNode&#45;&gt;supriya.daw.DawNode.DawNode -->
<g id="edge10" class="edge">
<title>uqbar.containers.UniqueTreeNode.UniqueTreeNode&#45;&gt;supriya.daw.DawNode.DawNode</title>
<path fill="none" stroke="#778899" d="M129.0652,-241.7864C158.0659,-224.1338 211.7272,-191.4704 243.8132,-171.9398"/>
<polygon fill="#778899" stroke="#778899" points="245.9178,-174.7562 252.64,-166.567 242.2781,-168.7768 245.9178,-174.7562"/>
</g>
<!-- uqbar.containers.UniqueTreeNode.UniqueTreeNode&#45;&gt;uqbar.containers.UniqueTreeContainer.UniqueTreeContainer -->
<g id="edge7" class="edge">
<title>uqbar.containers.UniqueTreeNode.UniqueTreeNode&#45;&gt;uqbar.containers.UniqueTreeContainer.UniqueTreeContainer</title>
<path fill="none" stroke="#778899" d="M129.3135,-254C136.9959,-254 145.9745,-254 154.617,-254"/>
<polygon fill="#778899" stroke="#778899" points="154.8826,-257.5001 164.8825,-254 154.8825,-250.5001 154.8826,-257.5001"/>
</g>
<!-- builtins.object -->
<g id="node1" class="node">
<title>builtins.object</title>
<g id="a_node1"><a xlink:href="https://docs.python.org/3.6/library/functions.html#object" xlink:title="object" target="_top">
<path fill="#fbb4ae" stroke="#fbb4ae" stroke-width="2" d="M46.6667,-263.5C46.6667,-263.5 22.3333,-263.5 22.3333,-263.5 19.1667,-263.5 16,-260.3333 16,-257.1667 16,-257.1667 16,-250.8333 16,-250.8333 16,-247.6667 19.1667,-244.5 22.3333,-244.5 22.3333,-244.5 46.6667,-244.5 46.6667,-244.5 49.8333,-244.5 53,-247.6667 53,-250.8333 53,-250.8333 53,-257.1667 53,-257.1667 53,-260.3333 49.8333,-263.5 46.6667,-263.5"/>
<text text-anchor="middle" x="34.5" y="-251.5" font-family="Arial" font-size="10.00" fill="#000000">object</text>
</a>
</g>
</g>
<!-- supriya.daw.ChainContainer.ChainContainer -->
<g id="node2" class="node">
<title>supriya.daw.ChainContainer.ChainContainer</title>
<g id="a_node2"><a xlink:href="../api/supriya/daw/ChainContainer.html#supriya.daw.ChainContainer.ChainContainer" xlink:title="Chain\nContainer" target="_top">
<path fill="#b3cde3" stroke="#b3cde3" stroke-width="2" d="M450,-46C450,-46 421,-46 421,-46 416,-46 411,-41 411,-36 411,-36 411,-26 411,-26 411,-21 416,-16 421,-16 421,-16 450,-16 450,-16 455,-16 460,-21 460,-26 460,-26 460,-36 460,-36 460,-41 455,-46 450,-46"/>
<text text-anchor="middle" x="435.5" y="-34" font-family="Arial" font-size="10.00" fill="#000000">Chain</text>
<text text-anchor="middle" x="435.5" y="-23" font-family="Arial" font-size="10.00" fill="#000000">Container</text>
</a>
</g>
</g>
<!-- supriya.daw.DawContainer.DawContainer -->
<g id="node3" class="node">
<title>supriya.daw.DawContainer.DawContainer</title>
<g id="a_node3"><a xlink:href="../api/supriya/daw/DawContainer.html#supriya.daw.DawContainer.DawContainer" xlink:title="Daw\nContainer" target="_top">
<path fill="#000000" stroke="#000000" stroke-width="2" d="M365,-161C365,-161 336,-161 336,-161 331,-161 326,-156 326,-151 326,-151 326,-141 326,-141 326,-136 331,-131 336,-131 336,-131 365,-131 365,-131 370,-131 375,-136 375,-141 375,-141 375,-151 375,-151 375,-156 370,-161 365,-161"/>
<text text-anchor="middle" x="350.5" y="-149" font-family="Arial" font-size="10.00" fill="#ffffff">Daw</text>
<text text-anchor="middle" x="350.5" y="-138" font-family="Arial" font-size="10.00" fill="#ffffff">Container</text>
</a>
</g>
</g>
<!-- supriya.daw.DawNode.DawNode -->
<g id="node4" class="node">
<title>supriya.daw.DawNode.DawNode</title>
<g id="a_node4"><a xlink:href="../api/supriya/daw/DawNode.html#supriya.daw.DawNode.DawNode" xlink:title="Daw\nNode" target="_top">
<path fill="#b3cde3" stroke="#b3cde3" stroke-width="2" d="M277,-171C277,-171 263,-171 263,-171 258,-171 253,-166 253,-161 253,-161 253,-151 253,-151 253,-146 258,-141 263,-141 263,-141 277,-141 277,-141 282,-141 287,-146 287,-151 287,-151 287,-161 287,-161 287,-166 282,-171 277,-171"/>
<text text-anchor="middle" x="270" y="-159" font-family="Arial" font-size="10.00" fill="#000000">Daw</text>
<text text-anchor="middle" x="270" y="-148" font-family="Arial" font-size="10.00" fill="#000000">Node</text>
</a>
</g>
</g>
<!-- supriya.daw.DeviceContainer.DeviceContainer -->
<g id="node5" class="node">
<title>supriya.daw.DeviceContainer.DeviceContainer</title>
<g id="a_node5"><a xlink:href="../api/supriya/daw/DeviceContainer.html#supriya.daw.DeviceContainer.DeviceContainer" xlink:title="Device\nContainer" target="_top">
<path fill="#b3cde3" stroke="#b3cde3" stroke-width="2" d="M450,-94C450,-94 421,-94 421,-94 416,-94 411,-89 411,-84 411,-84 411,-74 411,-74 411,-69 416,-64 421,-64 421,-64 450,-64 450,-64 455,-64 460,-69 460,-74 460,-74 460,-84 460,-84 460,-89 455,-94 450,-94"/>
<text text-anchor="middle" x="435.5" y="-82" font-family="Arial" font-size="10.00" fill="#000000">Device</text>
<text text-anchor="middle" x="435.5" y="-71" font-family="Arial" font-size="10.00" fill="#000000">Container</text>
</a>
</g>
</g>
<!-- supriya.daw.SendContainer.SendContainer -->
<g id="node6" class="node">
<title>supriya.daw.SendContainer.SendContainer</title>
<g id="a_node6"><a xlink:href="../api/supriya/daw/SendContainer.html#supriya.daw.SendContainer.SendContainer" xlink:title="Send\nContainer" target="_top">
<path fill="#b3cde3" stroke="#b3cde3" stroke-width="2" d="M450,-142C450,-142 421,-142 421,-142 416,-142 411,-137 411,-132 411,-132 411,-122 411,-122 411,-117 416,-112 421,-112 421,-112 450,-112 450,-112 455,-112 460,-117 460,-122 460,-122 460,-132 460,-132 460,-137 455,-142 450,-142"/>
<text text-anchor="middle" x="435.5" y="-130" font-family="Arial" font-size="10.00" fill="#000000">Send</text>
<text text-anchor="middle" x="435.5" y="-119" font-family="Arial" font-size="10.00" fill="#000000">Container</text>
</a>
</g>
</g>
<!-- supriya.daw.TrackContainer.TrackContainer -->
<g id="node7" class="node">
<title>supriya.daw.TrackContainer.TrackContainer</title>
<g id="a_node7"><a xlink:href="../api/supriya/daw/TrackContainer.html#supriya.daw.TrackContainer.TrackContainer" xlink:title="Track\nContainer" target="_top">
<path fill="#b3cde3" stroke="#b3cde3" stroke-width="2" d="M450,-190C450,-190 421,-190 421,-190 416,-190 411,-185 411,-180 411,-180 411,-170 411,-170 411,-165 416,-160 421,-160 421,-160 450,-160 450,-160 455,-160 460,-165 460,-170 460,-170 460,-180 460,-180 460,-185 455,-190 450,-190"/>
<text text-anchor="middle" x="435.5" y="-178" font-family="Arial" font-size="10.00" fill="#000000">Track</text>
<text text-anchor="middle" x="435.5" y="-167" font-family="Arial" font-size="10.00" fill="#000000">Container</text>
</a>
</g>
</g>
<!-- uqbar.containers.UniqueTreeContainer.UniqueTreeContainer -->
<g id="node8" class="node">
<title>uqbar.containers.UniqueTreeContainer.UniqueTreeContainer</title>
<path fill="#ccebc5" stroke="#ccebc5" stroke-width="2" d="M202,-274.5C202,-274.5 177,-274.5 177,-274.5 171,-274.5 165,-268.5 165,-262.5 165,-262.5 165,-245.5 165,-245.5 165,-239.5 171,-233.5 177,-233.5 177,-233.5 202,-233.5 202,-233.5 208,-233.5 214,-239.5 214,-245.5 214,-245.5 214,-262.5 214,-262.5 214,-268.5 208,-274.5 202,-274.5"/>
<text text-anchor="middle" x="189.5" y="-262.5" font-family="Arial" font-size="10.00" fill="#000000">Unique</text>
<text text-anchor="middle" x="189.5" y="-251.5" font-family="Arial" font-size="10.00" fill="#000000">Tree</text>
<text text-anchor="middle" x="189.5" y="-240.5" font-family="Arial" font-size="10.00" fill="#000000">Container</text>
</g>
<!-- uqbar.containers.UniqueTreeList.UniqueTreeList -->
<g id="node9" class="node">
<title>uqbar.containers.UniqueTreeList.UniqueTreeList</title>
<path fill="#ccebc5" stroke="#ccebc5" stroke-width="2" d="M278,-274.5C278,-274.5 262,-274.5 262,-274.5 256,-274.5 250,-268.5 250,-262.5 250,-262.5 250,-245.5 250,-245.5 250,-239.5 256,-233.5 262,-233.5 262,-233.5 278,-233.5 278,-233.5 284,-233.5 290,-239.5 290,-245.5 290,-245.5 290,-262.5 290,-262.5 290,-268.5 284,-274.5 278,-274.5"/>
<text text-anchor="middle" x="270" y="-262.5" font-family="Arial" font-size="10.00" fill="#000000">Unique</text>
<text text-anchor="middle" x="270" y="-251.5" font-family="Arial" font-size="10.00" fill="#000000">Tree</text>
<text text-anchor="middle" x="270" y="-240.5" font-family="Arial" font-size="10.00" fill="#000000">List</text>
</g>
<!-- uqbar.containers.UniqueTreeNode.UniqueTreeNode -->
<g id="node10" class="node">
<title>uqbar.containers.UniqueTreeNode.UniqueTreeNode</title>
<path fill="#ccebc5" stroke="#ccebc5" stroke-width="2" d="M117,-274.5C117,-274.5 101,-274.5 101,-274.5 95,-274.5 89,-268.5 89,-262.5 89,-262.5 89,-245.5 89,-245.5 89,-239.5 95,-233.5 101,-233.5 101,-233.5 117,-233.5 117,-233.5 123,-233.5 129,-239.5 129,-245.5 129,-245.5 129,-262.5 129,-262.5 129,-268.5 123,-274.5 117,-274.5"/>
<text text-anchor="middle" x="109" y="-262.5" font-family="Arial" font-size="10.00" fill="#000000">Unique</text>
<text text-anchor="middle" x="109" y="-251.5" font-family="Arial" font-size="10.00" fill="#000000">Tree</text>
<text text-anchor="middle" x="109" y="-240.5" font-family="Arial" font-size="10.00" fill="#000000">Node</text>
</g>
</g>
</svg>
