<?xml version="1.0" encoding="UTF-8" standalone="no"?>
<!DOCTYPE svg PUBLIC "-//W3C//DTD SVG 1.1//EN"
 "http://www.w3.org/Graphics/SVG/1.1/DTD/svg11.dtd">
<!-- Generated by graphviz version 2.44.1 (20200629.0846)
 -->
<!-- Title: InheritanceGraph Pages: 1 -->
<svg width="611pt" height="117pt"
 viewBox="0.00 0.00 610.79 117.00" xmlns="http://www.w3.org/2000/svg" xmlns:xlink="http://www.w3.org/1999/xlink">
<g id="graph0" class="graph" transform="scale(1 1) rotate(0) translate(4 113)">
<title>InheritanceGraph</title>
<g id="clust1" class="cluster">
<title>cluster_builtins</title>
<path fill="transparent" stroke="#bcd2ee" stroke-width="2" stroke-dasharray="5,2" d="M20,-27C20,-27 55,-27 55,-27 61,-27 67,-33 67,-39 67,-39 67,-70 67,-70 67,-76 61,-82 55,-82 55,-82 20,-82 20,-82 14,-82 8,-76 8,-70 8,-70 8,-39 8,-39 8,-33 14,-27 20,-27"/>
<text text-anchor="middle" x="37.5" y="-70" font-family="Arial" font-size="10.00">builtins</text>
</g>
<g id="clust2" class="cluster">
<title>cluster_supriya.synthdefs.bases</title>
<path fill="transparent" stroke="#bcd2ee" stroke-width="2" stroke-dasharray="5,2" d="M347,-8C347,-8 493.79,-8 493.79,-8 499.79,-8 505.79,-14 505.79,-20 505.79,-20 505.79,-89 505.79,-89 505.79,-95 499.79,-101 493.79,-101 493.79,-101 347,-101 347,-101 341,-101 335,-95 335,-89 335,-89 335,-20 335,-20 335,-14 341,-8 347,-8"/>
<text text-anchor="middle" x="420.4" y="-89" font-family="Arial" font-size="10.00">supriya.synthdefs.bases</text>
</g>
<g id="clust3" class="cluster">
<title>cluster_supriya.synthdefs.mixins</title>
<path fill="transparent" stroke="#bcd2ee" stroke-width="2" stroke-dasharray="5,2" d="M202,-16C202,-16 303,-16 303,-16 309,-16 315,-22 315,-28 315,-28 315,-81 315,-81 315,-87 309,-93 303,-93 303,-93 202,-93 202,-93 196,-93 190,-87 190,-81 190,-81 190,-28 190,-28 190,-22 196,-16 202,-16"/>
<text text-anchor="middle" x="252.5" y="-81" font-family="Arial" font-size="10.00">supriya.synthdefs.mixins</text>
</g>
<g id="clust4" class="cluster">
<title>cluster_supriya.system</title>
<path fill="transparent" stroke="#bcd2ee" stroke-width="2" stroke-dasharray="5,2" d="M99,-22C99,-22 158,-22 158,-22 164,-22 170,-28 170,-34 170,-34 170,-75 170,-75 170,-81 164,-87 158,-87 158,-87 99,-87 99,-87 93,-87 87,-81 87,-75 87,-75 87,-34 87,-34 87,-28 93,-22 99,-22"/>
<text text-anchor="middle" x="128.5" y="-75" font-family="Arial" font-size="10.00">supriya.system</text>
</g>
<g id="clust5" class="cluster">
<title>cluster_supriya.ugens</title>
<path fill="transparent" stroke="#bcd2ee" stroke-width="2" stroke-dasharray="5,2" d="M537.79,-22C537.79,-22 590.79,-22 590.79,-22 596.79,-22 602.79,-28 602.79,-34 602.79,-34 602.79,-75 602.79,-75 602.79,-81 596.79,-87 590.79,-87 590.79,-87 537.79,-87 537.79,-87 531.79,-87 525.79,-81 525.79,-75 525.79,-75 525.79,-34 525.79,-34 525.79,-28 531.79,-22 537.79,-22"/>
<text text-anchor="middle" x="564.29" y="-75" font-family="Arial" font-size="10.00">supriya.ugens</text>
</g>
<!-- builtins.object&#45;&gt;supriya.system.SupriyaObject -->
<g id="edge2" class="edge">
<title>builtins.object&#45;&gt;supriya.system.SupriyaObject</title>
<path fill="none" stroke="lightslategrey" d="M59.03,-45C69.03,-45 81.34,-45 92.72,-45"/>
<polygon fill="lightslategrey" stroke="lightslategrey" points="92.82,-48.5 102.82,-45 92.82,-41.5 92.82,-48.5"/>
</g>
<!-- supriya.synthdefs.bases.MultiOutUGen&#45;&gt;supriya.ugens.PanB.PanB -->
<g id="edge3" class="edge">
<title>supriya.synthdefs.bases.MultiOutUGen&#45;&gt;supriya.ugens.PanB.PanB</title>
<path fill="none" stroke="lightslategrey" d="M497.97,-45C510.24,-45 524.45,-45 536.43,-45"/>
<polygon fill="lightslategrey" stroke="lightslategrey" points="536.69,-48.5 546.69,-45 536.69,-41.5 536.69,-48.5"/>
</g>
<!-- supriya.synthdefs.bases.UGen&#45;&gt;supriya.synthdefs.bases.MultiOutUGen -->
<g id="edge1" class="edge">
<title>supriya.synthdefs.bases.UGen&#45;&gt;supriya.synthdefs.bases.MultiOutUGen</title>
<path fill="none" stroke="lightslategrey" d="M402.48,-45C410.56,-45 419.48,-45 428.05,-45"/>
<polygon fill="lightslategrey" stroke="lightslategrey" points="428.25,-48.5 438.25,-45 428.25,-41.5 428.25,-48.5"/>
</g>
<!-- supriya.synthdefs.mixins.UGenMethodMixin&#45;&gt;supriya.synthdefs.bases.UGen -->
<g id="edge4" class="edge">
<title>supriya.synthdefs.mixins.UGenMethodMixin&#45;&gt;supriya.synthdefs.bases.UGen</title>
<path fill="none" stroke="lightslategrey" d="M277.14,-45C292.98,-45 314.22,-45 332.55,-45"/>
<polygon fill="lightslategrey" stroke="lightslategrey" points="332.67,-48.5 342.67,-45 332.67,-41.5 332.67,-48.5"/>
</g>
<!-- supriya.system.SupriyaObject&#45;&gt;supriya.synthdefs.mixins.UGenMethodMixin -->
<g id="edge5" class="edge">
<title>supriya.system.SupriyaObject&#45;&gt;supriya.synthdefs.mixins.UGenMethodMixin</title>
<path fill="none" stroke="lightslategrey" d="M153.2,-45C171.61,-45 197.17,-45 217.61,-45"/>
<polygon fill="lightslategrey" stroke="lightslategrey" points="217.77,-48.5 227.77,-45 217.77,-41.5 217.77,-48.5"/>
</g>
<!-- builtins.object -->
<g id="node1" class="node">
<title>builtins.object</title>
<g id="a_node1"><a xlink:href="https://docs.python.org/3/library/functions.html#object" xlink:title="object" target="_top">
<path fill="#fbb4ae" stroke="#fbb4ae" stroke-width="2" d="M52.67,-54.5C52.67,-54.5 22.33,-54.5 22.33,-54.5 19.17,-54.5 16,-51.33 16,-48.17 16,-48.17 16,-41.83 16,-41.83 16,-38.67 19.17,-35.5 22.33,-35.5 22.33,-35.5 52.67,-35.5 52.67,-35.5 55.83,-35.5 59,-38.67 59,-41.83 59,-41.83 59,-48.17 59,-48.17 59,-51.33 55.83,-54.5 52.67,-54.5"/>
<text text-anchor="middle" x="37.5" y="-42.5" font-family="Arial" font-size="10.00">object</text>
</a>
</g>
</g>
<!-- supriya.synthdefs.bases.MultiOutUGen -->
<g id="node2" class="node">
<title>supriya.synthdefs.bases.MultiOutUGen</title>
<g id="a_node2"><a xlink:href="../api/supriya/ugens/../synthdefs/bases.html#supriya.synthdefs.bases.MultiOutUGen" xlink:title="Multi\nOut\nUGen" target="_top">
<ellipse fill="none" stroke="#b3cde3" stroke-width="2" cx="468.1" cy="-45" rx="29.9" ry="28.98"/>
<text text-anchor="middle" x="468.1" y="-53.5" font-family="Arial" font-size="10.00">Multi</text>
<text text-anchor="middle" x="468.1" y="-42.5" font-family="Arial" font-size="10.00">Out</text>
<text text-anchor="middle" x="468.1" y="-31.5" font-family="Arial" font-size="10.00">UGen</text>
</a>
</g>
</g>
<!-- supriya.synthdefs.bases.UGen -->
<g id="node3" class="node">
<title>supriya.synthdefs.bases.UGen</title>
<g id="a_node3"><a xlink:href="../api/supriya/ugens/../synthdefs/bases.html#supriya.synthdefs.bases.UGen" xlink:title="UGen" target="_top">
<ellipse fill="none" stroke="#b3cde3" stroke-width="2" cx="372.7" cy="-45" rx="29.9" ry="13.37"/>
<text text-anchor="middle" x="372.7" y="-42.5" font-family="Arial" font-size="10.00">UGen</text>
</a>
</g>
</g>
<!-- supriya.synthdefs.mixins.UGenMethodMixin -->
<g id="node4" class="node">
<title>supriya.synthdefs.mixins.UGenMethodMixin</title>
<g id="a_node4"><a xlink:href="../api/supriya/ugens/../synthdefs/mixins.html#supriya.synthdefs.mixins.UGenMethodMixin" xlink:title="UGen\nMethod\nMixin" target="_top">
<path fill="#ccebc5" stroke="#ccebc5" stroke-width="2" d="M265,-65.5C265,-65.5 240,-65.5 240,-65.5 234,-65.5 228,-59.5 228,-53.5 228,-53.5 228,-36.5 228,-36.5 228,-30.5 234,-24.5 240,-24.5 240,-24.5 265,-24.5 265,-24.5 271,-24.5 277,-30.5 277,-36.5 277,-36.5 277,-53.5 277,-53.5 277,-59.5 271,-65.5 265,-65.5"/>
<text text-anchor="middle" x="252.5" y="-53.5" font-family="Arial" font-size="10.00">UGen</text>
<text text-anchor="middle" x="252.5" y="-42.5" font-family="Arial" font-size="10.00">Method</text>
<text text-anchor="middle" x="252.5" y="-31.5" font-family="Arial" font-size="10.00">Mixin</text>
</a>
</g>
</g>
<!-- supriya.system.SupriyaObject -->
<g id="node5" class="node">
<title>supriya.system.SupriyaObject</title>
<g id="a_node5"><a xlink:href="../api/supriya/ugens/../system.html#supriya.system.SupriyaObject" xlink:title="Supriya\nObject" target="_top">
<path fill="#decbe4" stroke="#decbe4" stroke-width="2" d="M143,-60C143,-60 113,-60 113,-60 108,-60 103,-55 103,-50 103,-50 103,-40 103,-40 103,-35 108,-30 113,-30 113,-30 143,-30 143,-30 148,-30 153,-35 153,-40 153,-40 153,-50 153,-50 153,-55 148,-60 143,-60"/>
<text text-anchor="middle" x="128" y="-48" font-family="Arial" font-size="10.00">Supriya</text>
<text text-anchor="middle" x="128" y="-37" font-family="Arial" font-size="10.00">Object</text>
</a>
</g>
</g>
<!-- supriya.ugens.PanB.PanB -->
<g id="node6" class="node">
<title>supriya.ugens.PanB.PanB</title>
<g id="a_node6"><a xlink:href="../api/supriya/ugens/PanB.html#supriya.ugens.PanB.PanB" xlink:title="Pan\nB" target="_top">
<path fill="black" stroke="black" stroke-width="2" d="M570.79,-60C570.79,-60 556.79,-60 556.79,-60 551.79,-60 546.79,-55 546.79,-50 546.79,-50 546.79,-40 546.79,-40 546.79,-35 551.79,-30 556.79,-30 556.79,-30 570.79,-30 570.79,-30 575.79,-30 580.79,-35 580.79,-40 580.79,-40 580.79,-50 580.79,-50 580.79,-55 575.79,-60 570.79,-60"/>
<text text-anchor="middle" x="563.79" y="-48" font-family="Arial" font-size="10.00" fill="white">Pan</text>
<text text-anchor="middle" x="563.79" y="-37" font-family="Arial" font-size="10.00" fill="white">B</text>
</a>
</g>
</g>
</g>
</svg>
