<?xml version="1.0" encoding="UTF-8" standalone="no"?>
<!DOCTYPE svg PUBLIC "-//W3C//DTD SVG 1.1//EN"
 "http://www.w3.org/Graphics/SVG/1.1/DTD/svg11.dtd">
<!-- Generated by graphviz version 2.40.1 (20161225.0304)
 -->
<!-- Title: InheritanceGraph Pages: 1 -->
<svg width="488pt" height="248pt"
 viewBox="0.00 0.00 487.55 248.00" xmlns="http://www.w3.org/2000/svg" xmlns:xlink="http://www.w3.org/1999/xlink">
<g id="graph0" class="graph" transform="scale(1 1) rotate(0) translate(4 244)">
<title>InheritanceGraph</title>
<g id="clust1" class="cluster">
<title>cluster_builtins</title>
<path fill="transparent" stroke="#bcd2ee" stroke-width="2" stroke-dasharray="5,2" d="M20,-106C20,-106 49,-106 49,-106 55,-106 61,-112 61,-118 61,-118 61,-149 61,-149 61,-155 55,-161 49,-161 49,-161 20,-161 20,-161 14,-161 8,-155 8,-149 8,-149 8,-118 8,-118 8,-112 14,-106 20,-106"/>
<text text-anchor="middle" x="34.5" y="-149" font-family="Arial" font-size="10.00" fill="#000000">builtins</text>
</g>
<g id="clust2" class="cluster">
<title>cluster_collections.abc</title>
<path fill="transparent" stroke="#bcd2ee" stroke-width="2" stroke-dasharray="5,2" d="M93,-81C93,-81 370.5462,-81 370.5462,-81 376.5462,-81 382.5462,-87 382.5462,-93 382.5462,-93 382.5462,-220 382.5462,-220 382.5462,-226 376.5462,-232 370.5462,-232 370.5462,-232 93,-232 93,-232 87,-232 81,-226 81,-220 81,-220 81,-93 81,-93 81,-87 87,-81 93,-81"/>
<text text-anchor="middle" x="231.7731" y="-220" font-family="Arial" font-size="10.00" fill="#000000">collections.abc</text>
</g>
<g id="clust3" class="cluster">
<title>cluster_supriya.soundfiles</title>
<path fill="transparent" stroke="#bcd2ee" stroke-width="2" stroke-dasharray="5,2" d="M414.5462,-79C414.5462,-79 467.5462,-79 467.5462,-79 473.5462,-79 479.5462,-85 479.5462,-91 479.5462,-91 479.5462,-122 479.5462,-122 479.5462,-128 473.5462,-134 467.5462,-134 467.5462,-134 414.5462,-134 414.5462,-134 408.5462,-134 402.5462,-128 402.5462,-122 402.5462,-122 402.5462,-91 402.5462,-91 402.5462,-85 408.5462,-79 414.5462,-79"/>
<text text-anchor="middle" x="441.0462" y="-122" font-family="Arial" font-size="10.00" fill="#000000">supriya.soundfiles</text>
</g>
<g id="clust4" class="cluster">
<title>cluster_supriya.system</title>
<path fill="transparent" stroke="#bcd2ee" stroke-width="2" stroke-dasharray="5,2" d="M102.6482,-8C102.6482,-8 145.6482,-8 145.6482,-8 151.6482,-8 157.6482,-14 157.6482,-20 157.6482,-20 157.6482,-61 157.6482,-61 157.6482,-67 151.6482,-73 145.6482,-73 145.6482,-73 102.6482,-73 102.6482,-73 96.6482,-73 90.6482,-67 90.6482,-61 90.6482,-61 90.6482,-20 90.6482,-20 90.6482,-14 96.6482,-8 102.6482,-8"/>
<text text-anchor="middle" x="124.1482" y="-61" font-family="Arial" font-size="10.00" fill="#000000">supriya.system</text>
</g>
<!-- builtins.object&#45;&gt;collections.abc.Container -->
<g id="edge7" class="edge">
<title>builtins.object&#45;&gt;collections.abc.Container</title>
<path fill="none" stroke="#778899" d="M53.406,-128.8777C62.5628,-131.2401 73.9119,-134.1682 84.7979,-136.9767"/>
<polygon fill="#778899" stroke="#778899" points="84.0315,-140.3935 94.5888,-139.5028 85.7803,-133.6155 84.0315,-140.3935"/>
</g>
<!-- builtins.object&#45;&gt;collections.abc.Iterable -->
<g id="edge8" class="edge">
<title>builtins.object&#45;&gt;collections.abc.Iterable</title>
<path fill="none" stroke="#778899" d="M43.0936,-133.7597C51.9572,-143.46 66.495,-158.3842 81,-169 85.0306,-171.9499 89.4858,-174.7687 93.9517,-177.3585"/>
<polygon fill="#778899" stroke="#778899" points="92.5502,-180.5816 103.0012,-182.3215 95.9162,-174.444 92.5502,-180.5816"/>
</g>
<!-- builtins.object&#45;&gt;collections.abc.Sized -->
<g id="edge9" class="edge">
<title>builtins.object&#45;&gt;collections.abc.Sized</title>
<path fill="none" stroke="#778899" d="M53.406,-119.3344C64.3757,-116.6273 78.4915,-113.1438 91.1883,-110.0105"/>
<polygon fill="#778899" stroke="#778899" points="92.1093,-113.3883 100.9794,-107.5942 90.4321,-106.5921 92.1093,-113.3883"/>
</g>
<!-- builtins.object&#45;&gt;supriya.system.SupriyaObject.SupriyaObject -->
<g id="edge10" class="edge">
<title>builtins.object&#45;&gt;supriya.system.SupriyaObject.SupriyaObject</title>
<path fill="none" stroke="#778899" d="M43.7047,-114.3976C57.3718,-100.14 83.4206,-72.9657 102.0713,-53.5091"/>
<polygon fill="#778899" stroke="#778899" points="104.6679,-55.8582 109.0613,-46.2172 99.6146,-51.0142 104.6679,-55.8582"/>
</g>
<!-- collections.abc.Collection&#45;&gt;collections.abc.Sequence -->
<g id="edge1" class="edge">
<title>collections.abc.Collection&#45;&gt;collections.abc.Sequence</title>
<path fill="none" stroke="#778899" d="M265.8726,-147C274.664,-147 284.237,-147 293.4765,-147"/>
<polygon fill="#778899" stroke="#778899" points="293.7073,-150.5001 303.7072,-147 293.7072,-143.5001 293.7073,-150.5001"/>
</g>
<!-- collections.abc.Container&#45;&gt;collections.abc.Collection -->
<g id="edge2" class="edge">
<title>collections.abc.Container&#45;&gt;collections.abc.Collection</title>
<path fill="none" stroke="#778899" d="M158.5237,-147C167.3366,-147 176.9241,-147 186.1551,-147"/>
<polygon fill="#778899" stroke="#778899" points="186.3656,-150.5001 196.3655,-147 186.3655,-143.5001 186.3656,-150.5001"/>
</g>
<!-- collections.abc.Iterable&#45;&gt;collections.abc.Collection -->
<g id="edge3" class="edge">
<title>collections.abc.Iterable&#45;&gt;collections.abc.Collection</title>
<path fill="none" stroke="#778899" d="M145.645,-182.785C160.6275,-176.5085 180.7393,-168.0831 197.6844,-160.9844"/>
<polygon fill="#778899" stroke="#778899" points="199.3618,-164.0765 207.2328,-156.9843 196.657,-157.6201 199.3618,-164.0765"/>
</g>
<!-- collections.abc.Iterable&#45;&gt;collections.abc.Reversible -->
<g id="edge4" class="edge">
<title>collections.abc.Iterable&#45;&gt;collections.abc.Reversible</title>
<path fill="none" stroke="#778899" d="M153.5701,-192C162.9749,-192 173.5992,-192 183.8979,-192"/>
<polygon fill="#778899" stroke="#778899" points="184.0308,-195.5001 194.0308,-192 184.0307,-188.5001 184.0308,-195.5001"/>
</g>
<!-- collections.abc.Reversible&#45;&gt;collections.abc.Sequence -->
<g id="edge5" class="edge">
<title>collections.abc.Reversible&#45;&gt;collections.abc.Sequence</title>
<path fill="none" stroke="#778899" d="M255.3314,-181.9011C270.078,-175.7638 289.1262,-167.8362 305.3407,-161.088"/>
<polygon fill="#778899" stroke="#778899" points="307.1191,-164.1389 315.0066,-157.0652 304.4294,-157.6763 307.1191,-164.1389"/>
</g>
<!-- collections.abc.Sequence&#45;&gt;supriya.soundfiles.Frame.Frame -->
<g id="edge11" class="edge">
<title>collections.abc.Sequence&#45;&gt;supriya.soundfiles.Frame.Frame</title>
<path fill="none" stroke="#778899" d="M360.9342,-136.2737C375.9104,-128.8858 395.9565,-118.9967 412.1864,-110.9903"/>
<polygon fill="#778899" stroke="#778899" points="413.8145,-114.0899 421.2342,-106.5269 410.7176,-107.8122 413.8145,-114.0899"/>
</g>
<!-- collections.abc.Sized&#45;&gt;collections.abc.Collection -->
<g id="edge6" class="edge">
<title>collections.abc.Sized&#45;&gt;collections.abc.Collection</title>
<path fill="none" stroke="#778899" d="M143.3503,-110.2537C158.5793,-116.6335 180.0049,-125.6092 197.8683,-133.0926"/>
<polygon fill="#778899" stroke="#778899" points="196.7882,-136.4348 207.3639,-137.0706 199.4929,-129.9785 196.7882,-136.4348"/>
</g>
<!-- supriya.system.SupriyaObject.SupriyaObject&#45;&gt;supriya.soundfiles.Frame.Frame -->
<g id="edge12" class="edge">
<title>supriya.system.SupriyaObject.SupriyaObject&#45;&gt;supriya.soundfiles.Frame.Frame</title>
<path fill="none" stroke="#778899" d="M144.6933,-33.6035C189.1082,-39.3454 295.4971,-54.406 382.5462,-77 392.2373,-79.5154 402.6315,-82.88 411.9058,-86.1312"/>
<polygon fill="#778899" stroke="#778899" points="410.8492,-89.4707 421.4435,-89.5689 413.2227,-82.8854 410.8492,-89.4707"/>
</g>
<!-- builtins.object -->
<g id="node1" class="node">
<title>builtins.object</title>
<g id="a_node1"><a xlink:href="https://docs.python.org/3.6/library/functions.html#object" xlink:title="object" target="_top">
<path fill="#fbb4ae" stroke="#fbb4ae" stroke-width="2" d="M46.6667,-133.5C46.6667,-133.5 22.3333,-133.5 22.3333,-133.5 19.1667,-133.5 16,-130.3333 16,-127.1667 16,-127.1667 16,-120.8333 16,-120.8333 16,-117.6667 19.1667,-114.5 22.3333,-114.5 22.3333,-114.5 46.6667,-114.5 46.6667,-114.5 49.8333,-114.5 53,-117.6667 53,-120.8333 53,-120.8333 53,-127.1667 53,-127.1667 53,-130.3333 49.8333,-133.5 46.6667,-133.5"/>
<text text-anchor="middle" x="34.5" y="-121.5" font-family="Arial" font-size="10.00" fill="#000000">object</text>
</a>
</g>
</g>
<!-- collections.abc.Collection -->
<g id="node2" class="node">
<title>collections.abc.Collection</title>
<g id="a_node2"><a xlink:href="https://docs.python.org/3.6/library/collections.abc.html#collections.abc.Collection" xlink:title="Collection" target="_top">
<ellipse fill="none" stroke="#b3cde3" stroke-width="2" cx="231.066" cy="-147" rx="34.7971" ry="13.3704"/>
<text text-anchor="middle" x="231.066" y="-144.5" font-family="Arial" font-size="10.00" fill="#000000">Collection</text>
</a>
</g>
</g>
<!-- collections.abc.Container -->
<g id="node3" class="node">
<title>collections.abc.Container</title>
<g id="a_node3"><a xlink:href="https://docs.python.org/3.6/library/collections.abc.html#collections.abc.Container" xlink:title="Container" target="_top">
<ellipse fill="none" stroke="#b3cde3" stroke-width="2" cx="123.6482" cy="-147" rx="34.7971" ry="13.3704"/>
<text text-anchor="middle" x="123.6482" y="-144.5" font-family="Arial" font-size="10.00" fill="#000000">Container</text>
</a>
</g>
</g>
<!-- collections.abc.Iterable -->
<g id="node4" class="node">
<title>collections.abc.Iterable</title>
<g id="a_node4"><a xlink:href="https://docs.python.org/3.6/library/collections.abc.html#collections.abc.Iterable" xlink:title="Iterable" target="_top">
<ellipse fill="none" stroke="#b3cde3" stroke-width="2" cx="123.6482" cy="-192" rx="29.8983" ry="13.3704"/>
<text text-anchor="middle" x="123.6482" y="-189.5" font-family="Arial" font-size="10.00" fill="#000000">Iterable</text>
</a>
</g>
</g>
<!-- collections.abc.Reversible -->
<g id="node5" class="node">
<title>collections.abc.Reversible</title>
<g id="a_node5"><a xlink:href="https://docs.python.org/3.6/library/collections.abc.html#collections.abc.Reversible" xlink:title="Reversible" target="_top">
<ellipse fill="none" stroke="#b3cde3" stroke-width="2" cx="231.066" cy="-192" rx="36.5405" ry="13.3704"/>
<text text-anchor="middle" x="231.066" y="-189.5" font-family="Arial" font-size="10.00" fill="#000000">Reversible</text>
</a>
</g>
</g>
<!-- collections.abc.Sequence -->
<g id="node6" class="node">
<title>collections.abc.Sequence</title>
<g id="a_node6"><a xlink:href="https://docs.python.org/3.6/library/collections.abc.html#collections.abc.Sequence" xlink:title="Sequence" target="_top">
<ellipse fill="none" stroke="#b3cde3" stroke-width="2" cx="339.1909" cy="-147" rx="35.2113" ry="13.3704"/>
<text text-anchor="middle" x="339.1909" y="-144.5" font-family="Arial" font-size="10.00" fill="#000000">Sequence</text>
</a>
</g>
</g>
<!-- collections.abc.Sized -->
<g id="node7" class="node">
<title>collections.abc.Sized</title>
<g id="a_node7"><a xlink:href="https://docs.python.org/3.6/library/collections.abc.html#collections.abc.Sized" xlink:title="Sized" target="_top">
<ellipse fill="none" stroke="#b3cde3" stroke-width="2" cx="123.6482" cy="-102" rx="25" ry="13.3704"/>
<text text-anchor="middle" x="123.6482" y="-99.5" font-family="Arial" font-size="10.00" fill="#000000">Sized</text>
</a>
</g>
</g>
<!-- supriya.soundfiles.Frame.Frame -->
<g id="node8" class="node">
<title>supriya.soundfiles.Frame.Frame</title>
<g id="a_node8"><a xlink:href="../api/supriya/soundfiles/Frame.html#supriya.soundfiles.Frame.Frame" xlink:title="Frame" target="_top">
<path fill="#000000" stroke="#000000" stroke-width="2" d="M453.2129,-106.5C453.2129,-106.5 427.8796,-106.5 427.8796,-106.5 424.7129,-106.5 421.5462,-103.3333 421.5462,-100.1667 421.5462,-100.1667 421.5462,-93.8333 421.5462,-93.8333 421.5462,-90.6667 424.7129,-87.5 427.8796,-87.5 427.8796,-87.5 453.2129,-87.5 453.2129,-87.5 456.3796,-87.5 459.5462,-90.6667 459.5462,-93.8333 459.5462,-93.8333 459.5462,-100.1667 459.5462,-100.1667 459.5462,-103.3333 456.3796,-106.5 453.2129,-106.5"/>
<text text-anchor="middle" x="440.5462" y="-94.5" font-family="Arial" font-size="10.00" fill="#ffffff">Frame</text>
</a>
</g>
</g>
<!-- supriya.system.SupriyaObject.SupriyaObject -->
<g id="node9" class="node">
<title>supriya.system.SupriyaObject.SupriyaObject</title>
<g id="a_node9"><a xlink:href="../api/supriya/soundfiles/../system/SupriyaObject.html#supriya.system.SupriyaObject.SupriyaObject" xlink:title="Supriya\nObject" target="_top">
<path fill="#decbe4" stroke="#decbe4" stroke-width="2" d="M134.6482,-46C134.6482,-46 112.6482,-46 112.6482,-46 107.6482,-46 102.6482,-41 102.6482,-36 102.6482,-36 102.6482,-26 102.6482,-26 102.6482,-21 107.6482,-16 112.6482,-16 112.6482,-16 134.6482,-16 134.6482,-16 139.6482,-16 144.6482,-21 144.6482,-26 144.6482,-26 144.6482,-36 144.6482,-36 144.6482,-41 139.6482,-46 134.6482,-46"/>
<text text-anchor="middle" x="123.6482" y="-34" font-family="Arial" font-size="10.00" fill="#000000">Supriya</text>
<text text-anchor="middle" x="123.6482" y="-23" font-family="Arial" font-size="10.00" fill="#000000">Object</text>
</a>
</g>
</g>
</g>
</svg>
