<?xml version="1.0" encoding="UTF-8" standalone="no"?>
<!DOCTYPE svg PUBLIC "-//W3C//DTD SVG 1.1//EN"
 "http://www.w3.org/Graphics/SVG/1.1/DTD/svg11.dtd">
<!-- Generated by graphviz version 2.44.1 (20200629.0846)
 -->
<!-- Title: InheritanceGraph Pages: 1 -->
<svg width="833pt" height="848pt"
 viewBox="0.00 0.00 832.76 848.00" xmlns="http://www.w3.org/2000/svg" xmlns:xlink="http://www.w3.org/1999/xlink">
<g id="graph0" class="graph" transform="scale(1 1) rotate(0) translate(4 844)">
<title>InheritanceGraph</title>
<g id="clust1" class="cluster">
<title>cluster_builtins</title>
<path fill="transparent" stroke="#bcd2ee" stroke-width="2" stroke-dasharray="5,2" d="M20,-458C20,-458 55,-458 55,-458 61,-458 67,-464 67,-470 67,-470 67,-501 67,-501 67,-507 61,-513 55,-513 55,-513 20,-513 20,-513 14,-513 8,-507 8,-501 8,-501 8,-470 8,-470 8,-464 14,-458 20,-458"/>
<text text-anchor="middle" x="37.5" y="-501" font-family="Arial" font-size="10.00">builtins</text>
</g>
<g id="clust2" class="cluster">
<title>cluster_supriya.patterns.bases</title>
<path fill="transparent" stroke="#bcd2ee" stroke-width="2" stroke-dasharray="5,2" d="M271,-433C271,-433 434.76,-433 434.76,-433 440.76,-433 446.76,-439 446.76,-445 446.76,-445 446.76,-527 446.76,-527 446.76,-533 440.76,-539 434.76,-539 434.76,-539 271,-539 271,-539 265,-539 259,-533 259,-527 259,-527 259,-445 259,-445 259,-439 265,-433 271,-433"/>
<text text-anchor="middle" x="352.88" y="-527" font-family="Arial" font-size="10.00">supriya.patterns.bases</text>
</g>
<g id="clust3" class="cluster">
<title>cluster_supriya.patterns.events</title>
<path fill="transparent" stroke="#bcd2ee" stroke-width="2" stroke-dasharray="5,2" d="M478.76,-182C478.76,-182 573.76,-182 573.76,-182 579.76,-182 585.76,-188 585.76,-194 585.76,-194 585.76,-475 585.76,-475 585.76,-481 579.76,-487 573.76,-487 573.76,-487 478.76,-487 478.76,-487 472.76,-487 466.76,-481 466.76,-475 466.76,-475 466.76,-194 466.76,-194 466.76,-188 472.76,-182 478.76,-182"/>
<text text-anchor="middle" x="526.26" y="-475" font-family="Arial" font-size="10.00">supriya.patterns.events</text>
</g>
<g id="clust4" class="cluster">
<title>cluster_supriya.patterns.mappings</title>
<path fill="transparent" stroke="#bcd2ee" stroke-width="2" stroke-dasharray="5,2" d="M649.76,-603C649.76,-603 804.76,-603 804.76,-603 810.76,-603 816.76,-609 816.76,-615 816.76,-615 816.76,-757 816.76,-757 816.76,-763 810.76,-769 804.76,-769 804.76,-769 649.76,-769 649.76,-769 643.76,-769 637.76,-763 637.76,-757 637.76,-757 637.76,-615 637.76,-615 637.76,-609 643.76,-603 649.76,-603"/>
<text text-anchor="middle" x="727.26" y="-757" font-family="Arial" font-size="10.00">supriya.patterns.mappings</text>
</g>
<g id="clust5" class="cluster">
<title>cluster_supriya.patterns.parallel</title>
<path fill="transparent" stroke="#bcd2ee" stroke-width="2" stroke-dasharray="5,2" d="M511.26,-777C511.26,-777 686.26,-777 686.26,-777 692.26,-777 698.26,-783 698.26,-789 698.26,-789 698.26,-820 698.26,-820 698.26,-826 692.26,-832 686.26,-832 686.26,-832 511.26,-832 511.26,-832 505.26,-832 499.26,-826 499.26,-820 499.26,-820 499.26,-789 499.26,-789 499.26,-783 505.26,-777 511.26,-777"/>
<text text-anchor="middle" x="598.76" y="-820" font-family="Arial" font-size="10.00">supriya.patterns.parallel</text>
</g>
<g id="clust6" class="cluster">
<title>cluster_supriya.patterns.patterns</title>
<path fill="transparent" stroke="#bcd2ee" stroke-width="2" stroke-dasharray="5,2" d="M506.26,-8C506.26,-8 686.26,-8 686.26,-8 692.26,-8 698.26,-14 698.26,-20 698.26,-20 698.26,-162 698.26,-162 698.26,-168 692.26,-174 686.26,-174 686.26,-174 506.26,-174 506.26,-174 500.26,-174 494.26,-168 494.26,-162 494.26,-162 494.26,-20 494.26,-20 494.26,-14 500.26,-8 506.26,-8"/>
<text text-anchor="middle" x="596.26" y="-162" font-family="Arial" font-size="10.00">supriya.patterns.patterns</text>
</g>
<g id="clust7" class="cluster">
<title>cluster_supriya.patterns.structure</title>
<path fill="transparent" stroke="#bcd2ee" stroke-width="2" stroke-dasharray="5,2" d="M617.76,-466C617.76,-466 721.76,-466 721.76,-466 727.76,-466 733.76,-472 733.76,-478 733.76,-478 733.76,-583 733.76,-583 733.76,-589 727.76,-595 721.76,-595 721.76,-595 617.76,-595 617.76,-595 611.76,-595 605.76,-589 605.76,-583 605.76,-583 605.76,-478 605.76,-478 605.76,-472 611.76,-466 617.76,-466"/>
<text text-anchor="middle" x="669.76" y="-583" font-family="Arial" font-size="10.00">supriya.patterns.structure</text>
</g>
<g id="clust8" class="cluster">
<title>cluster_supriya.system</title>
<path fill="transparent" stroke="#bcd2ee" stroke-width="2" stroke-dasharray="5,2" d="M99,-447C99,-447 227,-447 227,-447 233,-447 239,-453 239,-459 239,-459 239,-512 239,-512 239,-518 233,-524 227,-524 227,-524 99,-524 99,-524 93,-524 87,-518 87,-512 87,-512 87,-459 87,-459 87,-453 93,-447 99,-447"/>
<text text-anchor="middle" x="163" y="-512" font-family="Arial" font-size="10.00">supriya.system</text>
</g>
<!-- builtins.object&#45;&gt;supriya.system.SupriyaObject -->
<g id="edge6" class="edge">
<title>builtins.object&#45;&gt;supriya.system.SupriyaObject</title>
<path fill="none" stroke="lightslategrey" d="M59.23,-476C66.98,-476 76,-476 84.66,-476"/>
<polygon fill="lightslategrey" stroke="lightslategrey" points="84.91,-479.5 94.91,-476 84.91,-472.5 84.91,-479.5"/>
</g>
<!-- supriya.patterns.bases.Event&#45;&gt;supriya.patterns.events.BusEvent -->
<g id="edge7" class="edge">
<title>supriya.patterns.bases.Event&#45;&gt;supriya.patterns.events.BusEvent</title>
<path fill="none" stroke="lightslategrey" d="M321.13,-489.11C326.28,-485.61 331.39,-481.22 334.88,-476 375.92,-414.71 323.03,-370.12 370.88,-314 402.4,-277.04 459.37,-262.29 494.45,-256.54"/>
<polygon fill="lightslategrey" stroke="lightslategrey" points="495.21,-259.97 504.59,-255.03 494.18,-253.04 495.21,-259.97"/>
</g>
<!-- supriya.patterns.bases.Event&#45;&gt;supriya.patterns.events.CompositeEvent -->
<g id="edge8" class="edge">
<title>supriya.patterns.bases.Event&#45;&gt;supriya.patterns.events.CompositeEvent</title>
<path fill="none" stroke="lightslategrey" d="M321.64,-488.98C326.68,-485.52 331.6,-481.18 334.88,-476 386.03,-395.27 310.31,-337.92 370.88,-264 398.61,-230.16 448.11,-215.7 483.49,-209.53"/>
<polygon fill="lightslategrey" stroke="lightslategrey" points="484.19,-212.97 493.52,-207.94 483.09,-206.05 484.19,-212.97"/>
</g>
<!-- supriya.patterns.bases.Event&#45;&gt;supriya.patterns.events.GroupEvent -->
<g id="edge9" class="edge">
<title>supriya.patterns.bases.Event&#45;&gt;supriya.patterns.events.GroupEvent</title>
<path fill="none" stroke="lightslategrey" d="M317.82,-487.83C331.28,-478.96 351.45,-467.09 370.88,-461 412.04,-448.1 462.1,-445.09 493.71,-444.64"/>
<polygon fill="lightslategrey" stroke="lightslategrey" points="494.1,-448.13 504.08,-444.57 494.06,-441.13 494.1,-448.13"/>
</g>
<!-- supriya.patterns.bases.Event&#45;&gt;supriya.patterns.events.NoteEvent -->
<g id="edge10" class="edge">
<title>supriya.patterns.bases.Event&#45;&gt;supriya.patterns.events.NoteEvent</title>
<path fill="none" stroke="lightslategrey" d="M318.67,-487.95C323.97,-484.29 329.77,-480.1 334.88,-476 351.82,-462.42 352.01,-453.71 370.88,-443 410.54,-420.5 462.31,-407.97 494.55,-401.86"/>
<polygon fill="lightslategrey" stroke="lightslategrey" points="495.47,-405.25 504.69,-400.03 494.22,-398.36 495.47,-405.25"/>
</g>
<!-- supriya.patterns.bases.Event&#45;&gt;supriya.patterns.events.NullEvent -->
<g id="edge11" class="edge">
<title>supriya.patterns.bases.Event&#45;&gt;supriya.patterns.events.NullEvent</title>
<path fill="none" stroke="lightslategrey" d="M320.27,-488.45C325.4,-484.92 330.71,-480.69 334.88,-476 357.35,-450.75 345.57,-431.41 370.88,-409 406.62,-377.35 460.96,-361.49 494.59,-354.27"/>
<polygon fill="lightslategrey" stroke="lightslategrey" points="495.62,-357.63 504.73,-352.22 494.23,-350.77 495.62,-357.63"/>
</g>
<!-- supriya.patterns.bases.Event&#45;&gt;supriya.patterns.events.SynthEvent -->
<g id="edge12" class="edge">
<title>supriya.patterns.bases.Event&#45;&gt;supriya.patterns.events.SynthEvent</title>
<path fill="none" stroke="lightslategrey" d="M320.83,-488.9C325.97,-485.39 331.15,-481.05 334.88,-476 365.94,-433.94 335.37,-402.38 370.88,-364 403.93,-328.28 460.17,-312.29 494.74,-305.53"/>
<polygon fill="lightslategrey" stroke="lightslategrey" points="495.51,-308.95 504.72,-303.71 494.26,-302.06 495.51,-308.95"/>
</g>
<!-- supriya.patterns.bases.EventPattern&#45;&gt;supriya.patterns.mappings.Pbind -->
<g id="edge13" class="edge">
<title>supriya.patterns.bases.EventPattern&#45;&gt;supriya.patterns.mappings.Pbind</title>
<path fill="none" stroke="lightslategrey" d="M413.9,-511.84C423.44,-533.87 441.28,-568.26 466.76,-589 518.19,-630.85 596.43,-647.92 638.69,-654.4"/>
<polygon fill="lightslategrey" stroke="lightslategrey" points="638.23,-657.87 648.62,-655.83 639.22,-650.94 638.23,-657.87"/>
</g>
<!-- supriya.patterns.bases.EventPattern&#45;&gt;supriya.patterns.mappings.Pbindf -->
<g id="edge14" class="edge">
<title>supriya.patterns.bases.EventPattern&#45;&gt;supriya.patterns.mappings.Pbindf</title>
<path fill="none" stroke="lightslategrey" d="M420.9,-509.76C432.3,-522.87 448.98,-539.95 466.76,-551 521.89,-585.25 595.97,-605.41 637.22,-614.72"/>
<polygon fill="lightslategrey" stroke="lightslategrey" points="636.69,-618.19 647.21,-616.91 638.19,-611.35 636.69,-618.19"/>
</g>
<!-- supriya.patterns.bases.EventPattern&#45;&gt;supriya.patterns.mappings.Pchain -->
<g id="edge15" class="edge">
<title>supriya.patterns.bases.EventPattern&#45;&gt;supriya.patterns.mappings.Pchain</title>
<path fill="none" stroke="lightslategrey" d="M406.96,-512.3C410.1,-549.71 421.98,-627.38 466.76,-671 512.97,-716 591.21,-727.94 635.37,-731.02"/>
<polygon fill="lightslategrey" stroke="lightslategrey" points="635.38,-734.53 645.56,-731.62 635.78,-727.54 635.38,-734.53"/>
</g>
<!-- supriya.patterns.bases.EventPattern&#45;&gt;supriya.patterns.mappings.Pn -->
<g id="edge16" class="edge">
<title>supriya.patterns.bases.EventPattern&#45;&gt;supriya.patterns.mappings.Pn</title>
<path fill="none" stroke="lightslategrey" d="M409.56,-512.26C415.96,-542.56 431.9,-598.04 466.76,-630 517.9,-676.86 603.13,-689.96 644.41,-693.6"/>
<polygon fill="lightslategrey" stroke="lightslategrey" points="644.36,-697.11 654.6,-694.38 644.89,-690.13 644.36,-697.11"/>
</g>
<!-- supriya.patterns.bases.EventPattern&#45;&gt;supriya.patterns.parallel.Ppar -->
<g id="edge17" class="edge">
<title>supriya.patterns.bases.EventPattern&#45;&gt;supriya.patterns.parallel.Ppar</title>
<path fill="none" stroke="lightslategrey" d="M406.41,-512.29C408.6,-558.5 418.86,-670 466.76,-747 474.91,-760.09 487.86,-771.3 499.46,-779.6"/>
<polygon fill="lightslategrey" stroke="lightslategrey" points="497.72,-782.65 507.96,-785.35 501.64,-776.85 497.72,-782.65"/>
</g>
<!-- supriya.patterns.bases.EventPattern&#45;&gt;supriya.patterns.structure.Pbus -->
<g id="edge18" class="edge">
<title>supriya.patterns.bases.EventPattern&#45;&gt;supriya.patterns.structure.Pbus</title>
<path fill="none" stroke="lightslategrey" d="M429.01,-505.9C440.06,-512.38 453.68,-519.49 466.76,-524 526.22,-544.48 599.94,-552.9 639.67,-556.14"/>
<polygon fill="lightslategrey" stroke="lightslategrey" points="639.47,-559.64 649.7,-556.91 640,-552.66 639.47,-559.64"/>
</g>
<!-- supriya.patterns.bases.EventPattern&#45;&gt;supriya.patterns.structure.Pfx -->
<g id="edge19" class="edge">
<title>supriya.patterns.bases.EventPattern&#45;&gt;supriya.patterns.structure.Pfx</title>
<path fill="none" stroke="lightslategrey" d="M436.34,-498.93C446.01,-501.2 456.79,-503.47 466.76,-505 529.74,-514.68 604.75,-518.68 643.04,-520.18"/>
<polygon fill="lightslategrey" stroke="lightslategrey" points="643.14,-523.69 653.26,-520.56 643.4,-516.69 643.14,-523.69"/>
</g>
<!-- supriya.patterns.bases.EventPattern&#45;&gt;supriya.patterns.structure.Pgroup -->
<g id="edge20" class="edge">
<title>supriya.patterns.bases.EventPattern&#45;&gt;supriya.patterns.structure.Pgroup</title>
<path fill="none" stroke="lightslategrey" d="M439.01,-491.84C475.13,-492.56 534.58,-493.17 585.76,-491 602.06,-490.31 620.12,-488.86 635.17,-487.45"/>
<polygon fill="lightslategrey" stroke="lightslategrey" points="635.92,-490.9 645.54,-486.45 635.25,-483.93 635.92,-490.9"/>
</g>
<!-- supriya.patterns.bases.Pattern&#45;&gt;supriya.patterns.bases.EventPattern -->
<g id="edge1" class="edge">
<title>supriya.patterns.bases.Pattern&#45;&gt;supriya.patterns.bases.EventPattern</title>
<path fill="none" stroke="lightslategrey" d="M326.6,-462.96C338.24,-467.18 352.4,-472.33 365.4,-477.05"/>
<polygon fill="lightslategrey" stroke="lightslategrey" points="364.46,-480.43 375.05,-480.55 366.85,-473.85 364.46,-480.43"/>
</g>
<!-- supriya.patterns.bases.Pattern&#45;&gt;supriya.patterns.patterns.Pbinop -->
<g id="edge21" class="edge">
<title>supriya.patterns.bases.Pattern&#45;&gt;supriya.patterns.patterns.Pbinop</title>
<path fill="none" stroke="lightslategrey" d="M302.82,-440.4C306.83,-382.76 325.12,-159.24 370.88,-109 401.85,-75 456.79,-65.72 491.96,-63.41"/>
<polygon fill="lightslategrey" stroke="lightslategrey" points="492.38,-66.9 502.19,-62.9 492.03,-59.91 492.38,-66.9"/>
</g>
<!-- supriya.patterns.bases.Pattern&#45;&gt;supriya.patterns.patterns.Pseed -->
<g id="edge22" class="edge">
<title>supriya.patterns.bases.Pattern&#45;&gt;supriya.patterns.patterns.Pseed</title>
<path fill="none" stroke="lightslategrey" d="M302.45,-440.38C305.03,-378.27 318.75,-122.39 370.88,-66 402.21,-32.11 458.26,-25.43 493.37,-24.87"/>
<polygon fill="lightslategrey" stroke="lightslategrey" points="493.55,-28.37 503.55,-24.87 493.55,-21.37 493.55,-28.37"/>
</g>
<!-- supriya.patterns.bases.Pattern&#45;&gt;supriya.patterns.patterns.Pseq -->
<g id="edge23" class="edge">
<title>supriya.patterns.bases.Pattern&#45;&gt;supriya.patterns.patterns.Pseq</title>
<path fill="none" stroke="lightslategrey" d="M302.18,-440.32C303.58,-400.66 312.7,-284.02 370.88,-214 403.58,-174.64 461.41,-153.48 496.1,-143.79"/>
<polygon fill="lightslategrey" stroke="lightslategrey" points="497.31,-147.09 506.08,-141.14 495.51,-140.32 497.31,-147.09"/>
</g>
<!-- supriya.patterns.bases.Pattern&#45;&gt;supriya.patterns.patterns.Pwhite -->
<g id="edge24" class="edge">
<title>supriya.patterns.bases.Pattern&#45;&gt;supriya.patterns.patterns.Pwhite</title>
<path fill="none" stroke="lightslategrey" d="M303.43,-440.29C309.39,-387.9 332.98,-201.03 370.88,-157 401.54,-121.39 456.57,-108 491.84,-102.99"/>
<polygon fill="lightslategrey" stroke="lightslategrey" points="492.62,-106.42 502.1,-101.68 491.74,-99.47 492.62,-106.42"/>
</g>
<!-- supriya.patterns.mappings.Pbind&#45;&gt;supriya.patterns.mappings.Pmono -->
<g id="edge2" class="edge">
<title>supriya.patterns.mappings.Pbind&#45;&gt;supriya.patterns.mappings.Pmono</title>
<path fill="none" stroke="lightslategrey" d="M689.86,-658C706.7,-658 731.33,-658 751.21,-658"/>
<polygon fill="lightslategrey" stroke="lightslategrey" points="751.4,-661.5 761.4,-658 751.4,-654.5 751.4,-661.5"/>
</g>
<!-- supriya.patterns.parallel.Ppar&#45;&gt;supriya.patterns.parallel.Pgpar -->
<g id="edge3" class="edge">
<title>supriya.patterns.parallel.Ppar&#45;&gt;supriya.patterns.parallel.Pgpar</title>
<path fill="none" stroke="lightslategrey" d="M544.4,-795C567.79,-795 609.42,-795 637.91,-795"/>
<polygon fill="lightslategrey" stroke="lightslategrey" points="638.12,-798.5 648.12,-795 638.12,-791.5 638.12,-798.5"/>
</g>
<!-- supriya.patterns.patterns.Pseq&#45;&gt;supriya.patterns.patterns.Prand -->
<g id="edge4" class="edge">
<title>supriya.patterns.patterns.Pseq&#45;&gt;supriya.patterns.patterns.Prand</title>
<path fill="none" stroke="lightslategrey" d="M545.55,-137C569.15,-137 609.94,-137 637.97,-137"/>
<polygon fill="lightslategrey" stroke="lightslategrey" points="638.02,-140.5 648.02,-137 638.02,-133.5 638.02,-140.5"/>
</g>
<!-- supriya.system.SupriyaObject&#45;&gt;supriya.system.SupriyaValueObject -->
<g id="edge5" class="edge">
<title>supriya.system.SupriyaObject&#45;&gt;supriya.system.SupriyaValueObject</title>
<path fill="none" stroke="lightslategrey" d="M145.3,-476C153.22,-476 162.17,-476 170.69,-476"/>
<polygon fill="lightslategrey" stroke="lightslategrey" points="170.76,-479.5 180.76,-476 170.76,-472.5 170.76,-479.5"/>
</g>
<!-- supriya.system.SupriyaValueObject&#45;&gt;supriya.patterns.bases.Event -->
<g id="edge25" class="edge">
<title>supriya.system.SupriyaValueObject&#45;&gt;supriya.patterns.bases.Event</title>
<path fill="none" stroke="lightslategrey" d="M231.42,-482.04C241.55,-484.55 253.5,-487.51 264.56,-490.24"/>
<polygon fill="lightslategrey" stroke="lightslategrey" points="263.84,-493.67 274.39,-492.68 265.52,-486.88 263.84,-493.67"/>
</g>
<!-- supriya.system.SupriyaValueObject&#45;&gt;supriya.patterns.bases.Pattern -->
<g id="edge26" class="edge">
<title>supriya.system.SupriyaValueObject&#45;&gt;supriya.patterns.bases.Pattern</title>
<path fill="none" stroke="lightslategrey" d="M231.42,-470.22C240.62,-468.04 251.31,-465.51 261.48,-463.1"/>
<polygon fill="lightslategrey" stroke="lightslategrey" points="262.48,-466.47 271.4,-460.76 260.86,-459.65 262.48,-466.47"/>
</g>
<!-- builtins.object -->
<g id="node1" class="node">
<title>builtins.object</title>
<g id="a_node1"><a xlink:href="https://docs.python.org/3/library/functions.html#object" xlink:title="object" target="_top">
<path fill="#fbb4ae" stroke="#fbb4ae" stroke-width="2" d="M52.67,-485.5C52.67,-485.5 22.33,-485.5 22.33,-485.5 19.17,-485.5 16,-482.33 16,-479.17 16,-479.17 16,-472.83 16,-472.83 16,-469.67 19.17,-466.5 22.33,-466.5 22.33,-466.5 52.67,-466.5 52.67,-466.5 55.83,-466.5 59,-469.67 59,-472.83 59,-472.83 59,-479.17 59,-479.17 59,-482.33 55.83,-485.5 52.67,-485.5"/>
<text text-anchor="middle" x="37.5" y="-473.5" font-family="Arial" font-size="10.00">object</text>
</a>
</g>
</g>
<!-- supriya.patterns.bases.Event -->
<g id="node2" class="node">
<title>supriya.patterns.bases.Event</title>
<g id="a_node2"><a xlink:href="../api/supriya/patterns/bases.html#supriya.patterns.bases.Event" xlink:title="Event" target="_top">
<ellipse fill="black" stroke="black" stroke-width="2" cx="300.94" cy="-499" rx="29.9" ry="13.37"/>
<text text-anchor="middle" x="300.94" y="-496.5" font-family="Arial" font-size="10.00" fill="white">Event</text>
</a>
</g>
</g>
<!-- supriya.patterns.bases.EventPattern -->
<g id="node3" class="node">
<title>supriya.patterns.bases.EventPattern</title>
<g id="a_node3"><a xlink:href="../api/supriya/patterns/bases.html#supriya.patterns.bases.EventPattern" xlink:title="Event\nPattern" target="_top">
<ellipse fill="black" stroke="black" stroke-width="2" cx="404.82" cy="-491" rx="33.88" ry="21.43"/>
<text text-anchor="middle" x="404.82" y="-494" font-family="Arial" font-size="10.00" fill="white">Event</text>
<text text-anchor="middle" x="404.82" y="-483" font-family="Arial" font-size="10.00" fill="white">Pattern</text>
</a>
</g>
</g>
<!-- supriya.patterns.bases.Pattern -->
<g id="node4" class="node">
<title>supriya.patterns.bases.Pattern</title>
<g id="a_node4"><a xlink:href="../api/supriya/patterns/bases.html#supriya.patterns.bases.Pattern" xlink:title="Pattern" target="_top">
<ellipse fill="black" stroke="black" stroke-width="2" cx="300.94" cy="-454" rx="33.88" ry="13.37"/>
<text text-anchor="middle" x="300.94" y="-451.5" font-family="Arial" font-size="10.00" fill="white">Pattern</text>
</a>
</g>
</g>
<!-- supriya.patterns.events.BusEvent -->
<g id="node5" class="node">
<title>supriya.patterns.events.BusEvent</title>
<g id="a_node5"><a xlink:href="../api/supriya/patterns/events.html#supriya.patterns.events.BusEvent" xlink:title="Bus\nEvent" target="_top">
<path fill="#ccebc5" stroke="#ccebc5" stroke-width="2" d="M536.76,-268C536.76,-268 514.76,-268 514.76,-268 509.76,-268 504.76,-263 504.76,-258 504.76,-258 504.76,-248 504.76,-248 504.76,-243 509.76,-238 514.76,-238 514.76,-238 536.76,-238 536.76,-238 541.76,-238 546.76,-243 546.76,-248 546.76,-248 546.76,-258 546.76,-258 546.76,-263 541.76,-268 536.76,-268"/>
<text text-anchor="middle" x="525.76" y="-256" font-family="Arial" font-size="10.00">Bus</text>
<text text-anchor="middle" x="525.76" y="-245" font-family="Arial" font-size="10.00">Event</text>
</a>
</g>
</g>
<!-- supriya.patterns.events.CompositeEvent -->
<g id="node6" class="node">
<title>supriya.patterns.events.CompositeEvent</title>
<g id="a_node6"><a xlink:href="../api/supriya/patterns/events.html#supriya.patterns.events.CompositeEvent" xlink:title="Composite\nEvent" target="_top">
<path fill="#ccebc5" stroke="#ccebc5" stroke-width="2" d="M547.76,-220C547.76,-220 503.76,-220 503.76,-220 498.76,-220 493.76,-215 493.76,-210 493.76,-210 493.76,-200 493.76,-200 493.76,-195 498.76,-190 503.76,-190 503.76,-190 547.76,-190 547.76,-190 552.76,-190 557.76,-195 557.76,-200 557.76,-200 557.76,-210 557.76,-210 557.76,-215 552.76,-220 547.76,-220"/>
<text text-anchor="middle" x="525.76" y="-208" font-family="Arial" font-size="10.00">Composite</text>
<text text-anchor="middle" x="525.76" y="-197" font-family="Arial" font-size="10.00">Event</text>
</a>
</g>
</g>
<!-- supriya.patterns.events.GroupEvent -->
<g id="node7" class="node">
<title>supriya.patterns.events.GroupEvent</title>
<g id="a_node7"><a xlink:href="../api/supriya/patterns/events.html#supriya.patterns.events.GroupEvent" xlink:title="Group\nEvent" target="_top">
<path fill="#ccebc5" stroke="#ccebc5" stroke-width="2" d="M537.26,-460C537.26,-460 514.26,-460 514.26,-460 509.26,-460 504.26,-455 504.26,-450 504.26,-450 504.26,-440 504.26,-440 504.26,-435 509.26,-430 514.26,-430 514.26,-430 537.26,-430 537.26,-430 542.26,-430 547.26,-435 547.26,-440 547.26,-440 547.26,-450 547.26,-450 547.26,-455 542.26,-460 537.26,-460"/>
<text text-anchor="middle" x="525.76" y="-448" font-family="Arial" font-size="10.00">Group</text>
<text text-anchor="middle" x="525.76" y="-437" font-family="Arial" font-size="10.00">Event</text>
</a>
</g>
</g>
<!-- supriya.patterns.events.NoteEvent -->
<g id="node8" class="node">
<title>supriya.patterns.events.NoteEvent</title>
<g id="a_node8"><a xlink:href="../api/supriya/patterns/events.html#supriya.patterns.events.NoteEvent" xlink:title="Note\nEvent" target="_top">
<path fill="#ccebc5" stroke="#ccebc5" stroke-width="2" d="M536.76,-412C536.76,-412 514.76,-412 514.76,-412 509.76,-412 504.76,-407 504.76,-402 504.76,-402 504.76,-392 504.76,-392 504.76,-387 509.76,-382 514.76,-382 514.76,-382 536.76,-382 536.76,-382 541.76,-382 546.76,-387 546.76,-392 546.76,-392 546.76,-402 546.76,-402 546.76,-407 541.76,-412 536.76,-412"/>
<text text-anchor="middle" x="525.76" y="-400" font-family="Arial" font-size="10.00">Note</text>
<text text-anchor="middle" x="525.76" y="-389" font-family="Arial" font-size="10.00">Event</text>
</a>
</g>
</g>
<!-- supriya.patterns.events.NullEvent -->
<g id="node9" class="node">
<title>supriya.patterns.events.NullEvent</title>
<g id="a_node9"><a xlink:href="../api/supriya/patterns/events.html#supriya.patterns.events.NullEvent" xlink:title="Null\nEvent" target="_top">
<path fill="#ccebc5" stroke="#ccebc5" stroke-width="2" d="M536.76,-364C536.76,-364 514.76,-364 514.76,-364 509.76,-364 504.76,-359 504.76,-354 504.76,-354 504.76,-344 504.76,-344 504.76,-339 509.76,-334 514.76,-334 514.76,-334 536.76,-334 536.76,-334 541.76,-334 546.76,-339 546.76,-344 546.76,-344 546.76,-354 546.76,-354 546.76,-359 541.76,-364 536.76,-364"/>
<text text-anchor="middle" x="525.76" y="-352" font-family="Arial" font-size="10.00">Null</text>
<text text-anchor="middle" x="525.76" y="-341" font-family="Arial" font-size="10.00">Event</text>
</a>
</g>
</g>
<!-- supriya.patterns.events.SynthEvent -->
<g id="node10" class="node">
<title>supriya.patterns.events.SynthEvent</title>
<g id="a_node10"><a xlink:href="../api/supriya/patterns/events.html#supriya.patterns.events.SynthEvent" xlink:title="Synth\nEvent" target="_top">
<path fill="#ccebc5" stroke="#ccebc5" stroke-width="2" d="M536.76,-316C536.76,-316 514.76,-316 514.76,-316 509.76,-316 504.76,-311 504.76,-306 504.76,-306 504.76,-296 504.76,-296 504.76,-291 509.76,-286 514.76,-286 514.76,-286 536.76,-286 536.76,-286 541.76,-286 546.76,-291 546.76,-296 546.76,-296 546.76,-306 546.76,-306 546.76,-311 541.76,-316 536.76,-316"/>
<text text-anchor="middle" x="525.76" y="-304" font-family="Arial" font-size="10.00">Synth</text>
<text text-anchor="middle" x="525.76" y="-293" font-family="Arial" font-size="10.00">Event</text>
</a>
</g>
</g>
<!-- supriya.patterns.mappings.Pbind -->
<g id="node11" class="node">
<title>supriya.patterns.mappings.Pbind</title>
<g id="a_node11"><a xlink:href="../api/supriya/patterns/mappings.html#supriya.patterns.mappings.Pbind" xlink:title="Pbind" target="_top">
<path fill="#decbe4" stroke="#decbe4" stroke-width="2" d="M683.43,-667.5C683.43,-667.5 655.1,-667.5 655.1,-667.5 651.93,-667.5 648.76,-664.33 648.76,-661.17 648.76,-661.17 648.76,-654.83 648.76,-654.83 648.76,-651.67 651.93,-648.5 655.1,-648.5 655.1,-648.5 683.43,-648.5 683.43,-648.5 686.6,-648.5 689.76,-651.67 689.76,-654.83 689.76,-654.83 689.76,-661.17 689.76,-661.17 689.76,-664.33 686.6,-667.5 683.43,-667.5"/>
<text text-anchor="middle" x="669.26" y="-655.5" font-family="Arial" font-size="10.00">Pbind</text>
</a>
</g>
</g>
<!-- supriya.patterns.mappings.Pmono -->
<g id="node12" class="node">
<title>supriya.patterns.mappings.Pmono</title>
<g id="a_node12"><a xlink:href="../api/supriya/patterns/mappings.html#supriya.patterns.mappings.Pmono" xlink:title="Pmono" target="_top">
<path fill="#decbe4" stroke="#decbe4" stroke-width="2" d="M802.43,-667.5C802.43,-667.5 768.1,-667.5 768.1,-667.5 764.93,-667.5 761.76,-664.33 761.76,-661.17 761.76,-661.17 761.76,-654.83 761.76,-654.83 761.76,-651.67 764.93,-648.5 768.1,-648.5 768.1,-648.5 802.43,-648.5 802.43,-648.5 805.6,-648.5 808.76,-651.67 808.76,-654.83 808.76,-654.83 808.76,-661.17 808.76,-661.17 808.76,-664.33 805.6,-667.5 802.43,-667.5"/>
<text text-anchor="middle" x="785.26" y="-655.5" font-family="Arial" font-size="10.00">Pmono</text>
</a>
</g>
</g>
<!-- supriya.patterns.mappings.Pbindf -->
<g id="node13" class="node">
<title>supriya.patterns.mappings.Pbindf</title>
<g id="a_node13"><a xlink:href="../api/supriya/patterns/mappings.html#supriya.patterns.mappings.Pbindf" xlink:title="Pbindf" target="_top">
<path fill="#decbe4" stroke="#decbe4" stroke-width="2" d="M684.93,-630.5C684.93,-630.5 653.6,-630.5 653.6,-630.5 650.43,-630.5 647.26,-627.33 647.26,-624.17 647.26,-624.17 647.26,-617.83 647.26,-617.83 647.26,-614.67 650.43,-611.5 653.6,-611.5 653.6,-611.5 684.93,-611.5 684.93,-611.5 688.1,-611.5 691.26,-614.67 691.26,-617.83 691.26,-617.83 691.26,-624.17 691.26,-624.17 691.26,-627.33 688.1,-630.5 684.93,-630.5"/>
<text text-anchor="middle" x="669.26" y="-618.5" font-family="Arial" font-size="10.00">Pbindf</text>
</a>
</g>
</g>
<!-- supriya.patterns.mappings.Pchain -->
<g id="node14" class="node">
<title>supriya.patterns.mappings.Pchain</title>
<g id="a_node14"><a xlink:href="../api/supriya/patterns/mappings.html#supriya.patterns.mappings.Pchain" xlink:title="Pchain" target="_top">
<path fill="#decbe4" stroke="#decbe4" stroke-width="2" d="M686.43,-741.5C686.43,-741.5 652.1,-741.5 652.1,-741.5 648.93,-741.5 645.76,-738.33 645.76,-735.17 645.76,-735.17 645.76,-728.83 645.76,-728.83 645.76,-725.67 648.93,-722.5 652.1,-722.5 652.1,-722.5 686.43,-722.5 686.43,-722.5 689.6,-722.5 692.76,-725.67 692.76,-728.83 692.76,-728.83 692.76,-735.17 692.76,-735.17 692.76,-738.33 689.6,-741.5 686.43,-741.5"/>
<text text-anchor="middle" x="669.26" y="-729.5" font-family="Arial" font-size="10.00">Pchain</text>
</a>
</g>
</g>
<!-- supriya.patterns.mappings.Pn -->
<g id="node15" class="node">
<title>supriya.patterns.mappings.Pn</title>
<g id="a_node15"><a xlink:href="../api/supriya/patterns/mappings.html#supriya.patterns.mappings.Pn" xlink:title="Pn" target="_top">
<path fill="#decbe4" stroke="#decbe4" stroke-width="2" d="M677.43,-704.5C677.43,-704.5 661.1,-704.5 661.1,-704.5 657.93,-704.5 654.76,-701.33 654.76,-698.17 654.76,-698.17 654.76,-691.83 654.76,-691.83 654.76,-688.67 657.93,-685.5 661.1,-685.5 661.1,-685.5 677.43,-685.5 677.43,-685.5 680.6,-685.5 683.76,-688.67 683.76,-691.83 683.76,-691.83 683.76,-698.17 683.76,-698.17 683.76,-701.33 680.6,-704.5 677.43,-704.5"/>
<text text-anchor="middle" x="669.26" y="-692.5" font-family="Arial" font-size="10.00">Pn</text>
</a>
</g>
</g>
<!-- supriya.patterns.parallel.Pgpar -->
<g id="node16" class="node">
<title>supriya.patterns.parallel.Pgpar</title>
<g id="a_node16"><a xlink:href="../api/supriya/patterns/parallel.html#supriya.patterns.parallel.Pgpar" xlink:title="Pgpar" target="_top">
<path fill="#fed9a6" stroke="#fed9a6" stroke-width="2" d="M683.93,-804.5C683.93,-804.5 654.6,-804.5 654.6,-804.5 651.43,-804.5 648.26,-801.33 648.26,-798.17 648.26,-798.17 648.26,-791.83 648.26,-791.83 648.26,-788.67 651.43,-785.5 654.6,-785.5 654.6,-785.5 683.93,-785.5 683.93,-785.5 687.1,-785.5 690.26,-788.67 690.26,-791.83 690.26,-791.83 690.26,-798.17 690.26,-798.17 690.26,-801.33 687.1,-804.5 683.93,-804.5"/>
<text text-anchor="middle" x="669.26" y="-792.5" font-family="Arial" font-size="10.00">Pgpar</text>
</a>
</g>
</g>
<!-- supriya.patterns.parallel.Ppar -->
<g id="node17" class="node">
<title>supriya.patterns.parallel.Ppar</title>
<g id="a_node17"><a xlink:href="../api/supriya/patterns/parallel.html#supriya.patterns.parallel.Ppar" xlink:title="Ppar" target="_top">
<path fill="#fed9a6" stroke="#fed9a6" stroke-width="2" d="M537.93,-804.5C537.93,-804.5 513.6,-804.5 513.6,-804.5 510.43,-804.5 507.26,-801.33 507.26,-798.17 507.26,-798.17 507.26,-791.83 507.26,-791.83 507.26,-788.67 510.43,-785.5 513.6,-785.5 513.6,-785.5 537.93,-785.5 537.93,-785.5 541.1,-785.5 544.26,-788.67 544.26,-791.83 544.26,-791.83 544.26,-798.17 544.26,-798.17 544.26,-801.33 541.1,-804.5 537.93,-804.5"/>
<text text-anchor="middle" x="525.76" y="-792.5" font-family="Arial" font-size="10.00">Ppar</text>
</a>
</g>
</g>
<!-- supriya.patterns.patterns.Pbinop -->
<g id="node18" class="node">
<title>supriya.patterns.patterns.Pbinop</title>
<g id="a_node18"><a xlink:href="../api/supriya/patterns/patterns.html#supriya.patterns.patterns.Pbinop" xlink:title="Pbinop" target="_top">
<path fill="#ffffcc" stroke="#ffffcc" stroke-width="2" d="M542.93,-72.5C542.93,-72.5 508.6,-72.5 508.6,-72.5 505.43,-72.5 502.26,-69.33 502.26,-66.17 502.26,-66.17 502.26,-59.83 502.26,-59.83 502.26,-56.67 505.43,-53.5 508.6,-53.5 508.6,-53.5 542.93,-53.5 542.93,-53.5 546.1,-53.5 549.26,-56.67 549.26,-59.83 549.26,-59.83 549.26,-66.17 549.26,-66.17 549.26,-69.33 546.1,-72.5 542.93,-72.5"/>
<text text-anchor="middle" x="525.76" y="-60.5" font-family="Arial" font-size="10.00">Pbinop</text>
</a>
</g>
</g>
<!-- supriya.patterns.patterns.Prand -->
<g id="node19" class="node">
<title>supriya.patterns.patterns.Prand</title>
<g id="a_node19"><a xlink:href="../api/supriya/patterns/patterns.html#supriya.patterns.patterns.Prand" xlink:title="Prand" target="_top">
<path fill="#ffffcc" stroke="#ffffcc" stroke-width="2" d="M683.93,-146.5C683.93,-146.5 654.6,-146.5 654.6,-146.5 651.43,-146.5 648.26,-143.33 648.26,-140.17 648.26,-140.17 648.26,-133.83 648.26,-133.83 648.26,-130.67 651.43,-127.5 654.6,-127.5 654.6,-127.5 683.93,-127.5 683.93,-127.5 687.1,-127.5 690.26,-130.67 690.26,-133.83 690.26,-133.83 690.26,-140.17 690.26,-140.17 690.26,-143.33 687.1,-146.5 683.93,-146.5"/>
<text text-anchor="middle" x="669.26" y="-134.5" font-family="Arial" font-size="10.00">Prand</text>
</a>
</g>
</g>
<!-- supriya.patterns.patterns.Pseed -->
<g id="node20" class="node">
<title>supriya.patterns.patterns.Pseed</title>
<g id="a_node20"><a xlink:href="../api/supriya/patterns/patterns.html#supriya.patterns.patterns.Pseed" xlink:title="Pseed" target="_top">
<path fill="#ffffcc" stroke="#ffffcc" stroke-width="2" d="M541.43,-35.5C541.43,-35.5 510.1,-35.5 510.1,-35.5 506.93,-35.5 503.76,-32.33 503.76,-29.17 503.76,-29.17 503.76,-22.83 503.76,-22.83 503.76,-19.67 506.93,-16.5 510.1,-16.5 510.1,-16.5 541.43,-16.5 541.43,-16.5 544.6,-16.5 547.76,-19.67 547.76,-22.83 547.76,-22.83 547.76,-29.17 547.76,-29.17 547.76,-32.33 544.6,-35.5 541.43,-35.5"/>
<text text-anchor="middle" x="525.76" y="-23.5" font-family="Arial" font-size="10.00">Pseed</text>
</a>
</g>
</g>
<!-- supriya.patterns.patterns.Pseq -->
<g id="node21" class="node">
<title>supriya.patterns.patterns.Pseq</title>
<g id="a_node21"><a xlink:href="../api/supriya/patterns/patterns.html#supriya.patterns.patterns.Pseq" xlink:title="Pseq" target="_top">
<path fill="#ffffcc" stroke="#ffffcc" stroke-width="2" d="M538.93,-146.5C538.93,-146.5 512.6,-146.5 512.6,-146.5 509.43,-146.5 506.26,-143.33 506.26,-140.17 506.26,-140.17 506.26,-133.83 506.26,-133.83 506.26,-130.67 509.43,-127.5 512.6,-127.5 512.6,-127.5 538.93,-127.5 538.93,-127.5 542.1,-127.5 545.26,-130.67 545.26,-133.83 545.26,-133.83 545.26,-140.17 545.26,-140.17 545.26,-143.33 542.1,-146.5 538.93,-146.5"/>
<text text-anchor="middle" x="525.76" y="-134.5" font-family="Arial" font-size="10.00">Pseq</text>
</a>
</g>
</g>
<!-- supriya.patterns.patterns.Pwhite -->
<g id="node22" class="node">
<title>supriya.patterns.patterns.Pwhite</title>
<g id="a_node22"><a xlink:href="../api/supriya/patterns/patterns.html#supriya.patterns.patterns.Pwhite" xlink:title="Pwhite" target="_top">
<path fill="#ffffcc" stroke="#ffffcc" stroke-width="2" d="M542.93,-109.5C542.93,-109.5 508.6,-109.5 508.6,-109.5 505.43,-109.5 502.26,-106.33 502.26,-103.17 502.26,-103.17 502.26,-96.83 502.26,-96.83 502.26,-93.67 505.43,-90.5 508.6,-90.5 508.6,-90.5 542.93,-90.5 542.93,-90.5 546.1,-90.5 549.26,-93.67 549.26,-96.83 549.26,-96.83 549.26,-103.17 549.26,-103.17 549.26,-106.33 546.1,-109.5 542.93,-109.5"/>
<text text-anchor="middle" x="525.76" y="-97.5" font-family="Arial" font-size="10.00">Pwhite</text>
</a>
</g>
</g>
<!-- supriya.patterns.structure.Pbus -->
<g id="node23" class="node">
<title>supriya.patterns.structure.Pbus</title>
<g id="a_node23"><a xlink:href="../api/supriya/patterns/structure.html#supriya.patterns.structure.Pbus" xlink:title="Pbus" target="_top">
<path fill="#e5d8bd" stroke="#e5d8bd" stroke-width="2" d="M682.43,-567.5C682.43,-567.5 656.1,-567.5 656.1,-567.5 652.93,-567.5 649.76,-564.33 649.76,-561.17 649.76,-561.17 649.76,-554.83 649.76,-554.83 649.76,-551.67 652.93,-548.5 656.1,-548.5 656.1,-548.5 682.43,-548.5 682.43,-548.5 685.6,-548.5 688.76,-551.67 688.76,-554.83 688.76,-554.83 688.76,-561.17 688.76,-561.17 688.76,-564.33 685.6,-567.5 682.43,-567.5"/>
<text text-anchor="middle" x="669.26" y="-555.5" font-family="Arial" font-size="10.00">Pbus</text>
</a>
</g>
</g>
<!-- supriya.patterns.structure.Pfx -->
<g id="node24" class="node">
<title>supriya.patterns.structure.Pfx</title>
<g id="a_node24"><a xlink:href="../api/supriya/patterns/structure.html#supriya.patterns.structure.Pfx" xlink:title="Pfx" target="_top">
<path fill="#e5d8bd" stroke="#e5d8bd" stroke-width="2" d="M678.93,-530.5C678.93,-530.5 659.6,-530.5 659.6,-530.5 656.43,-530.5 653.26,-527.33 653.26,-524.17 653.26,-524.17 653.26,-517.83 653.26,-517.83 653.26,-514.67 656.43,-511.5 659.6,-511.5 659.6,-511.5 678.93,-511.5 678.93,-511.5 682.1,-511.5 685.26,-514.67 685.26,-517.83 685.26,-517.83 685.26,-524.17 685.26,-524.17 685.26,-527.33 682.1,-530.5 678.93,-530.5"/>
<text text-anchor="middle" x="669.26" y="-518.5" font-family="Arial" font-size="10.00">Pfx</text>
</a>
</g>
</g>
<!-- supriya.patterns.structure.Pgroup -->
<g id="node25" class="node">
<title>supriya.patterns.structure.Pgroup</title>
<g id="a_node25"><a xlink:href="../api/supriya/patterns/structure.html#supriya.patterns.structure.Pgroup" xlink:title="Pgroup" target="_top">
<path fill="#e5d8bd" stroke="#e5d8bd" stroke-width="2" d="M686.43,-493.5C686.43,-493.5 652.1,-493.5 652.1,-493.5 648.93,-493.5 645.76,-490.33 645.76,-487.17 645.76,-487.17 645.76,-480.83 645.76,-480.83 645.76,-477.67 648.93,-474.5 652.1,-474.5 652.1,-474.5 686.43,-474.5 686.43,-474.5 689.6,-474.5 692.76,-477.67 692.76,-480.83 692.76,-480.83 692.76,-487.17 692.76,-487.17 692.76,-490.33 689.6,-493.5 686.43,-493.5"/>
<text text-anchor="middle" x="669.26" y="-481.5" font-family="Arial" font-size="10.00">Pgroup</text>
</a>
</g>
</g>
<!-- supriya.system.SupriyaObject -->
<g id="node26" class="node">
<title>supriya.system.SupriyaObject</title>
<g id="a_node26"><a xlink:href="../api/supriya/patterns/../system.html#supriya.system.SupriyaObject" xlink:title="Supriya\nObject" target="_top">
<path fill="#fddaec" stroke="#fddaec" stroke-width="2" d="M135,-491C135,-491 105,-491 105,-491 100,-491 95,-486 95,-481 95,-481 95,-471 95,-471 95,-466 100,-461 105,-461 105,-461 135,-461 135,-461 140,-461 145,-466 145,-471 145,-471 145,-481 145,-481 145,-486 140,-491 135,-491"/>
<text text-anchor="middle" x="120" y="-479" font-family="Arial" font-size="10.00">Supriya</text>
<text text-anchor="middle" x="120" y="-468" font-family="Arial" font-size="10.00">Object</text>
</a>
</g>
</g>
<!-- supriya.system.SupriyaValueObject -->
<g id="node27" class="node">
<title>supriya.system.SupriyaValueObject</title>
<g id="a_node27"><a xlink:href="../api/supriya/patterns/../system.html#supriya.system.SupriyaValueObject" xlink:title="Supriya\nValue\nObject" target="_top">
<path fill="#fddaec" stroke="#fddaec" stroke-width="2" d="M219,-496.5C219,-496.5 193,-496.5 193,-496.5 187,-496.5 181,-490.5 181,-484.5 181,-484.5 181,-467.5 181,-467.5 181,-461.5 187,-455.5 193,-455.5 193,-455.5 219,-455.5 219,-455.5 225,-455.5 231,-461.5 231,-467.5 231,-467.5 231,-484.5 231,-484.5 231,-490.5 225,-496.5 219,-496.5"/>
<text text-anchor="middle" x="206" y="-484.5" font-family="Arial" font-size="10.00">Supriya</text>
<text text-anchor="middle" x="206" y="-473.5" font-family="Arial" font-size="10.00">Value</text>
<text text-anchor="middle" x="206" y="-462.5" font-family="Arial" font-size="10.00">Object</text>
</a>
</g>
</g>
</g>
</svg>
