<?xml version="1.0" encoding="UTF-8" standalone="no"?>
<!DOCTYPE svg PUBLIC "-//W3C//DTD SVG 1.1//EN"
 "http://www.w3.org/Graphics/SVG/1.1/DTD/svg11.dtd">
<!-- Generated by graphviz version 2.44.1 (20200629.0846)
 -->
<!-- Title: InheritanceGraph Pages: 1 -->
<svg width="623pt" height="392pt"
 viewBox="0.00 0.00 623.21 392.00" xmlns="http://www.w3.org/2000/svg" xmlns:xlink="http://www.w3.org/1999/xlink">
<g id="graph0" class="graph" transform="scale(1 1) rotate(0) translate(4 388)">
<title>InheritanceGraph</title>
<g id="clust1" class="cluster">
<title>cluster_builtins</title>
<path fill="transparent" stroke="#bcd2ee" stroke-width="2" stroke-dasharray="5,2" d="M20,-210C20,-210 55,-210 55,-210 61,-210 67,-216 67,-222 67,-222 67,-253 67,-253 67,-259 61,-265 55,-265 55,-265 20,-265 20,-265 14,-265 8,-259 8,-253 8,-253 8,-222 8,-222 8,-216 14,-210 20,-210"/>
<text text-anchor="middle" x="37.5" y="-253" font-family="Arial" font-size="10.00">builtins</text>
</g>
<g id="clust2" class="cluster">
<title>cluster_supriya.realtime.bases</title>
<path fill="transparent" stroke="#bcd2ee" stroke-width="2" stroke-dasharray="5,2" d="M202,-199C202,-199 292.64,-199 292.64,-199 298.64,-199 304.64,-205 304.64,-211 304.64,-211 304.64,-264 304.64,-264 304.64,-270 298.64,-276 292.64,-276 292.64,-276 202,-276 202,-276 196,-276 190,-270 190,-264 190,-264 190,-211 190,-211 190,-205 196,-199 202,-199"/>
<text text-anchor="middle" x="247.32" y="-264" font-family="Arial" font-size="10.00">supriya.realtime.bases</text>
</g>
<g id="clust3" class="cluster">
<title>cluster_supriya.realtime.buffers</title>
<path fill="transparent" stroke="#bcd2ee" stroke-width="2" stroke-dasharray="5,2" d="M336.42,-273C336.42,-273 430.42,-273 430.42,-273 436.42,-273 442.42,-279 442.42,-285 442.42,-285 442.42,-364 442.42,-364 442.42,-370 436.42,-376 430.42,-376 430.42,-376 336.42,-376 336.42,-376 330.42,-376 324.42,-370 324.42,-364 324.42,-364 324.42,-285 324.42,-285 324.42,-279 330.42,-273 336.42,-273"/>
<text text-anchor="middle" x="383.42" y="-364" font-family="Arial" font-size="10.00">supriya.realtime.buffers</text>
</g>
<g id="clust4" class="cluster">
<title>cluster_supriya.realtime.buses</title>
<path fill="transparent" stroke="#bcd2ee" stroke-width="2" stroke-dasharray="5,2" d="M365.42,-108C365.42,-108 519.21,-108 519.21,-108 525.21,-108 531.21,-114 531.21,-120 531.21,-120 531.21,-253 531.21,-253 531.21,-259 525.21,-265 519.21,-265 519.21,-265 365.42,-265 365.42,-265 359.42,-265 353.42,-259 353.42,-253 353.42,-253 353.42,-120 353.42,-120 353.42,-114 359.42,-108 365.42,-108"/>
<text text-anchor="middle" x="442.32" y="-253" font-family="Arial" font-size="10.00">supriya.realtime.buses</text>
</g>
<g id="clust5" class="cluster">
<title>cluster_supriya.realtime.nodes</title>
<path fill="transparent" stroke="#bcd2ee" stroke-width="2" stroke-dasharray="5,2" d="M358.64,-8C358.64,-8 595.21,-8 595.21,-8 601.21,-8 607.21,-14 607.21,-20 607.21,-20 607.21,-88 607.21,-88 607.21,-94 601.21,-100 595.21,-100 595.21,-100 358.64,-100 358.64,-100 352.64,-100 346.64,-94 346.64,-88 346.64,-88 346.64,-20 346.64,-20 346.64,-14 352.64,-8 358.64,-8"/>
<text text-anchor="middle" x="476.92" y="-88" font-family="Arial" font-size="10.00">supriya.realtime.nodes</text>
</g>
<g id="clust6" class="cluster">
<title>cluster_supriya.system</title>
<path fill="transparent" stroke="#bcd2ee" stroke-width="2" stroke-dasharray="5,2" d="M99,-205C99,-205 158,-205 158,-205 164,-205 170,-211 170,-217 170,-217 170,-258 170,-258 170,-264 164,-270 158,-270 158,-270 99,-270 99,-270 93,-270 87,-264 87,-258 87,-258 87,-217 87,-217 87,-211 93,-205 99,-205"/>
<text text-anchor="middle" x="128.5" y="-258" font-family="Arial" font-size="10.00">supriya.system</text>
</g>
<!-- builtins.object&#45;&gt;supriya.system.SupriyaObject -->
<g id="edge6" class="edge">
<title>builtins.object&#45;&gt;supriya.system.SupriyaObject</title>
<path fill="none" stroke="lightslategrey" d="M59.03,-228C69.03,-228 81.34,-228 92.72,-228"/>
<polygon fill="lightslategrey" stroke="lightslategrey" points="92.82,-231.5 102.82,-228 92.82,-224.5 92.82,-231.5"/>
</g>
<!-- supriya.realtime.bases.ServerObject&#45;&gt;supriya.realtime.buffers.Buffer -->
<g id="edge7" class="edge">
<title>supriya.realtime.bases.ServerObject&#45;&gt;supriya.realtime.buffers.Buffer</title>
<path fill="none" stroke="lightslategrey" d="M259.47,-247.67C272.73,-268.45 296.25,-300.82 324.42,-320 332.66,-325.61 342.67,-329.66 352.02,-332.55"/>
<polygon fill="lightslategrey" stroke="lightslategrey" points="351.22,-335.96 361.79,-335.25 353.08,-329.21 351.22,-335.96"/>
</g>
<!-- supriya.realtime.bases.ServerObject&#45;&gt;supriya.realtime.buffers.BufferGroup -->
<g id="edge8" class="edge">
<title>supriya.realtime.bases.ServerObject&#45;&gt;supriya.realtime.buffers.BufferGroup</title>
<path fill="none" stroke="lightslategrey" d="M271.8,-241.25C286.82,-249.45 306.63,-260.07 324.42,-269 333.33,-273.47 343.11,-278.15 352.03,-282.33"/>
<polygon fill="lightslategrey" stroke="lightslategrey" points="350.76,-285.6 361.31,-286.64 353.71,-279.25 350.76,-285.6"/>
</g>
<!-- supriya.realtime.bases.ServerObject&#45;&gt;supriya.realtime.buses.Bus -->
<g id="edge9" class="edge">
<title>supriya.realtime.bases.ServerObject&#45;&gt;supriya.realtime.buses.Bus</title>
<path fill="none" stroke="lightslategrey" d="M278.92,-228C302.09,-228 333.39,-228 355.38,-228"/>
<polygon fill="lightslategrey" stroke="lightslategrey" points="355.65,-231.5 365.65,-228 355.65,-224.5 355.65,-231.5"/>
</g>
<!-- supriya.realtime.bases.ServerObject&#45;&gt;supriya.realtime.buses.BusGroup -->
<g id="edge10" class="edge">
<title>supriya.realtime.bases.ServerObject&#45;&gt;supriya.realtime.buses.BusGroup</title>
<path fill="none" stroke="lightslategrey" d="M275.93,-218.99C298.04,-211.9 328.8,-202.03 351.49,-194.76"/>
<polygon fill="lightslategrey" stroke="lightslategrey" points="352.84,-198 361.29,-191.62 350.7,-191.34 352.84,-198"/>
</g>
<!-- supriya.realtime.bases.ServerObject&#45;&gt;supriya.realtime.nodes.Node -->
<g id="edge11" class="edge">
<title>supriya.realtime.bases.ServerObject&#45;&gt;supriya.realtime.nodes.Node</title>
<path fill="none" stroke="lightslategrey" d="M257.49,-207.58C270.39,-181.68 295.05,-136.46 324.42,-104 333.78,-93.66 345.83,-84.02 356.47,-76.41"/>
<polygon fill="lightslategrey" stroke="lightslategrey" points="358.75,-79.09 365,-70.53 354.78,-73.33 358.75,-79.09"/>
</g>
<!-- supriya.realtime.buses.BusGroup&#45;&gt;supriya.realtime.buses.AudioInputBusGroup -->
<g id="edge1" class="edge">
<title>supriya.realtime.buses.BusGroup&#45;&gt;supriya.realtime.buses.AudioInputBusGroup</title>
<path fill="none" stroke="lightslategrey" d="M404.53,-177.31C422.46,-170.63 448.66,-160.85 468.96,-153.28"/>
<polygon fill="lightslategrey" stroke="lightslategrey" points="470.24,-156.54 478.39,-149.77 467.79,-149.98 470.24,-156.54"/>
</g>
<!-- supriya.realtime.buses.BusGroup&#45;&gt;supriya.realtime.buses.AudioOutputBusGroup -->
<g id="edge2" class="edge">
<title>supriya.realtime.buses.BusGroup&#45;&gt;supriya.realtime.buses.AudioOutputBusGroup</title>
<path fill="none" stroke="lightslategrey" d="M404.53,-189.83C421.96,-193.91 447.22,-199.82 467.27,-204.52"/>
<polygon fill="lightslategrey" stroke="lightslategrey" points="466.67,-207.97 477.21,-206.85 468.27,-201.16 466.67,-207.97"/>
</g>
<!-- supriya.realtime.nodes.Group&#45;&gt;supriya.realtime.nodes.RootNode -->
<g id="edge3" class="edge">
<title>supriya.realtime.nodes.Group&#45;&gt;supriya.realtime.nodes.RootNode</title>
<path fill="none" stroke="lightslategrey" d="M521.84,-27.34C530.17,-27.88 539.92,-28.51 548.96,-29.1"/>
<polygon fill="lightslategrey" stroke="lightslategrey" points="548.9,-32.6 559.1,-29.76 549.35,-25.62 548.9,-32.6"/>
</g>
<!-- supriya.realtime.nodes.Node&#45;&gt;supriya.realtime.nodes.Group -->
<g id="edge4" class="edge">
<title>supriya.realtime.nodes.Node&#45;&gt;supriya.realtime.nodes.Group</title>
<path fill="none" stroke="lightslategrey" d="M407.25,-53.12C424.99,-47.89 449.54,-40.65 468.81,-34.97"/>
<polygon fill="lightslategrey" stroke="lightslategrey" points="470.02,-38.26 478.62,-32.07 468.04,-31.54 470.02,-38.26"/>
</g>
<!-- supriya.realtime.nodes.Node&#45;&gt;supriya.realtime.nodes.Synth -->
<g id="edge5" class="edge">
<title>supriya.realtime.nodes.Node&#45;&gt;supriya.realtime.nodes.Synth</title>
<path fill="none" stroke="lightslategrey" d="M411.24,-60.71C428.53,-61.16 450.9,-61.74 468.75,-62.21"/>
<polygon fill="lightslategrey" stroke="lightslategrey" points="468.85,-65.71 478.94,-62.47 469.03,-58.71 468.85,-65.71"/>
</g>
<!-- supriya.system.SupriyaObject&#45;&gt;supriya.realtime.bases.ServerObject -->
<g id="edge12" class="edge">
<title>supriya.system.SupriyaObject&#45;&gt;supriya.realtime.bases.ServerObject</title>
<path fill="none" stroke="lightslategrey" d="M153.21,-228C168.04,-228 187.41,-228 204.61,-228"/>
<polygon fill="lightslategrey" stroke="lightslategrey" points="204.97,-231.5 214.97,-228 204.97,-224.5 204.97,-231.5"/>
</g>
<!-- builtins.object -->
<g id="node1" class="node">
<title>builtins.object</title>
<g id="a_node1"><a xlink:href="https://docs.python.org/3/library/functions.html#object" xlink:title="object" target="_top">
<path fill="#fbb4ae" stroke="#fbb4ae" stroke-width="2" d="M52.67,-237.5C52.67,-237.5 22.33,-237.5 22.33,-237.5 19.17,-237.5 16,-234.33 16,-231.17 16,-231.17 16,-224.83 16,-224.83 16,-221.67 19.17,-218.5 22.33,-218.5 22.33,-218.5 52.67,-218.5 52.67,-218.5 55.83,-218.5 59,-221.67 59,-224.83 59,-224.83 59,-231.17 59,-231.17 59,-234.33 55.83,-237.5 52.67,-237.5"/>
<text text-anchor="middle" x="37.5" y="-225.5" font-family="Arial" font-size="10.00">object</text>
</a>
</g>
</g>
<!-- supriya.realtime.bases.ServerObject -->
<g id="node2" class="node">
<title>supriya.realtime.bases.ServerObject</title>
<g id="a_node2"><a xlink:href="../api/supriya/realtime/bases.html#supriya.realtime.bases.ServerObject" xlink:title="Server\nObject" target="_top">
<ellipse fill="black" stroke="black" stroke-width="2" cx="246.82" cy="-228" rx="31.64" ry="21.43"/>
<text text-anchor="middle" x="246.82" y="-231" font-family="Arial" font-size="10.00" fill="white">Server</text>
<text text-anchor="middle" x="246.82" y="-220" font-family="Arial" font-size="10.00" fill="white">Object</text>
</a>
</g>
</g>
<!-- supriya.realtime.buffers.Buffer -->
<g id="node3" class="node">
<title>supriya.realtime.buffers.Buffer</title>
<g id="a_node3"><a xlink:href="../api/supriya/realtime/buffers.html#supriya.realtime.buffers.Buffer" xlink:title="Buffer" target="_top">
<path fill="#ccebc5" stroke="#ccebc5" stroke-width="2" d="M397.59,-348.5C397.59,-348.5 368.26,-348.5 368.26,-348.5 365.09,-348.5 361.92,-345.33 361.92,-342.17 361.92,-342.17 361.92,-335.83 361.92,-335.83 361.92,-332.67 365.09,-329.5 368.26,-329.5 368.26,-329.5 397.59,-329.5 397.59,-329.5 400.76,-329.5 403.92,-332.67 403.92,-335.83 403.92,-335.83 403.92,-342.17 403.92,-342.17 403.92,-345.33 400.76,-348.5 397.59,-348.5"/>
<text text-anchor="middle" x="382.92" y="-336.5" font-family="Arial" font-size="10.00">Buffer</text>
</a>
</g>
</g>
<!-- supriya.realtime.buffers.BufferGroup -->
<g id="node4" class="node">
<title>supriya.realtime.buffers.BufferGroup</title>
<g id="a_node4"><a xlink:href="../api/supriya/realtime/buffers.html#supriya.realtime.buffers.BufferGroup" xlink:title="Buffer\nGroup" target="_top">
<path fill="#ccebc5" stroke="#ccebc5" stroke-width="2" d="M394.42,-311C394.42,-311 371.42,-311 371.42,-311 366.42,-311 361.42,-306 361.42,-301 361.42,-301 361.42,-291 361.42,-291 361.42,-286 366.42,-281 371.42,-281 371.42,-281 394.42,-281 394.42,-281 399.42,-281 404.42,-286 404.42,-291 404.42,-291 404.42,-301 404.42,-301 404.42,-306 399.42,-311 394.42,-311"/>
<text text-anchor="middle" x="382.92" y="-299" font-family="Arial" font-size="10.00">Buffer</text>
<text text-anchor="middle" x="382.92" y="-288" font-family="Arial" font-size="10.00">Group</text>
</a>
</g>
</g>
<!-- supriya.realtime.buses.AudioInputBusGroup -->
<g id="node5" class="node">
<title>supriya.realtime.buses.AudioInputBusGroup</title>
<g id="a_node5"><a xlink:href="../api/supriya/realtime/buses.html#supriya.realtime.buses.AudioInputBusGroup" xlink:title="Audio\nInput\nBus\nGroup" target="_top">
<path fill="#decbe4" stroke="#decbe4" stroke-width="2" d="M509.71,-168C509.71,-168 490.71,-168 490.71,-168 484.71,-168 478.71,-162 478.71,-156 478.71,-156 478.71,-128 478.71,-128 478.71,-122 484.71,-116 490.71,-116 490.71,-116 509.71,-116 509.71,-116 515.71,-116 521.71,-122 521.71,-128 521.71,-128 521.71,-156 521.71,-156 521.71,-162 515.71,-168 509.71,-168"/>
<text text-anchor="middle" x="500.21" y="-156" font-family="Arial" font-size="10.00">Audio</text>
<text text-anchor="middle" x="500.21" y="-145" font-family="Arial" font-size="10.00">Input</text>
<text text-anchor="middle" x="500.21" y="-134" font-family="Arial" font-size="10.00">Bus</text>
<text text-anchor="middle" x="500.21" y="-123" font-family="Arial" font-size="10.00">Group</text>
</a>
</g>
</g>
<!-- supriya.realtime.buses.AudioOutputBusGroup -->
<g id="node6" class="node">
<title>supriya.realtime.buses.AudioOutputBusGroup</title>
<g id="a_node6"><a xlink:href="../api/supriya/realtime/buses.html#supriya.realtime.buses.AudioOutputBusGroup" xlink:title="Audio\nOutput\nBus\nGroup" target="_top">
<path fill="#decbe4" stroke="#decbe4" stroke-width="2" d="M511.21,-238C511.21,-238 489.21,-238 489.21,-238 483.21,-238 477.21,-232 477.21,-226 477.21,-226 477.21,-198 477.21,-198 477.21,-192 483.21,-186 489.21,-186 489.21,-186 511.21,-186 511.21,-186 517.21,-186 523.21,-192 523.21,-198 523.21,-198 523.21,-226 523.21,-226 523.21,-232 517.21,-238 511.21,-238"/>
<text text-anchor="middle" x="500.21" y="-226" font-family="Arial" font-size="10.00">Audio</text>
<text text-anchor="middle" x="500.21" y="-215" font-family="Arial" font-size="10.00">Output</text>
<text text-anchor="middle" x="500.21" y="-204" font-family="Arial" font-size="10.00">Bus</text>
<text text-anchor="middle" x="500.21" y="-193" font-family="Arial" font-size="10.00">Group</text>
</a>
</g>
</g>
<!-- supriya.realtime.buses.Bus -->
<g id="node7" class="node">
<title>supriya.realtime.buses.Bus</title>
<g id="a_node7"><a xlink:href="../api/supriya/realtime/buses.html#supriya.realtime.buses.Bus" xlink:title="Bus" target="_top">
<path fill="#decbe4" stroke="#decbe4" stroke-width="2" d="M393.59,-237.5C393.59,-237.5 372.26,-237.5 372.26,-237.5 369.09,-237.5 365.92,-234.33 365.92,-231.17 365.92,-231.17 365.92,-224.83 365.92,-224.83 365.92,-221.67 369.09,-218.5 372.26,-218.5 372.26,-218.5 393.59,-218.5 393.59,-218.5 396.76,-218.5 399.92,-221.67 399.92,-224.83 399.92,-224.83 399.92,-231.17 399.92,-231.17 399.92,-234.33 396.76,-237.5 393.59,-237.5"/>
<text text-anchor="middle" x="382.92" y="-225.5" font-family="Arial" font-size="10.00">Bus</text>
</a>
</g>
</g>
<!-- supriya.realtime.buses.BusGroup -->
<g id="node8" class="node">
<title>supriya.realtime.buses.BusGroup</title>
<g id="a_node8"><a xlink:href="../api/supriya/realtime/buses.html#supriya.realtime.buses.BusGroup" xlink:title="Bus\nGroup" target="_top">
<path fill="#decbe4" stroke="#decbe4" stroke-width="2" d="M394.42,-200C394.42,-200 371.42,-200 371.42,-200 366.42,-200 361.42,-195 361.42,-190 361.42,-190 361.42,-180 361.42,-180 361.42,-175 366.42,-170 371.42,-170 371.42,-170 394.42,-170 394.42,-170 399.42,-170 404.42,-175 404.42,-180 404.42,-180 404.42,-190 404.42,-190 404.42,-195 399.42,-200 394.42,-200"/>
<text text-anchor="middle" x="382.92" y="-188" font-family="Arial" font-size="10.00">Bus</text>
<text text-anchor="middle" x="382.92" y="-177" font-family="Arial" font-size="10.00">Group</text>
</a>
</g>
</g>
<!-- supriya.realtime.nodes.Group -->
<g id="node9" class="node">
<title>supriya.realtime.nodes.Group</title>
<g id="a_node9"><a xlink:href="../api/supriya/realtime/nodes.html#supriya.realtime.nodes.Group" xlink:title="Group" target="_top">
<path fill="#fed9a6" stroke="#fed9a6" stroke-width="2" d="M515.37,-35.5C515.37,-35.5 485.04,-35.5 485.04,-35.5 481.87,-35.5 478.71,-32.33 478.71,-29.17 478.71,-29.17 478.71,-22.83 478.71,-22.83 478.71,-19.67 481.87,-16.5 485.04,-16.5 485.04,-16.5 515.37,-16.5 515.37,-16.5 518.54,-16.5 521.71,-19.67 521.71,-22.83 521.71,-22.83 521.71,-29.17 521.71,-29.17 521.71,-32.33 518.54,-35.5 515.37,-35.5"/>
<text text-anchor="middle" x="500.21" y="-23.5" font-family="Arial" font-size="10.00">Group</text>
</a>
</g>
</g>
<!-- supriya.realtime.nodes.Node -->
<g id="node10" class="node">
<title>supriya.realtime.nodes.Node</title>
<g id="a_node10"><a xlink:href="../api/supriya/realtime/nodes.html#supriya.realtime.nodes.Node" xlink:title="Node" target="_top">
<ellipse fill="none" stroke="#fed9a6" stroke-width="2" cx="382.92" cy="-60" rx="28.07" ry="13.37"/>
<text text-anchor="middle" x="382.92" y="-57.5" font-family="Arial" font-size="10.00">Node</text>
</a>
</g>
</g>
<!-- supriya.realtime.nodes.RootNode -->
<g id="node11" class="node">
<title>supriya.realtime.nodes.RootNode</title>
<g id="a_node11"><a xlink:href="../api/supriya/realtime/nodes.html#supriya.realtime.nodes.RootNode" xlink:title="Root\nNode" target="_top">
<path fill="#fed9a6" stroke="#fed9a6" stroke-width="2" d="M589.21,-46C589.21,-46 569.21,-46 569.21,-46 564.21,-46 559.21,-41 559.21,-36 559.21,-36 559.21,-26 559.21,-26 559.21,-21 564.21,-16 569.21,-16 569.21,-16 589.21,-16 589.21,-16 594.21,-16 599.21,-21 599.21,-26 599.21,-26 599.21,-36 599.21,-36 599.21,-41 594.21,-46 589.21,-46"/>
<text text-anchor="middle" x="579.21" y="-34" font-family="Arial" font-size="10.00">Root</text>
<text text-anchor="middle" x="579.21" y="-23" font-family="Arial" font-size="10.00">Node</text>
</a>
</g>
</g>
<!-- supriya.realtime.nodes.Synth -->
<g id="node12" class="node">
<title>supriya.realtime.nodes.Synth</title>
<g id="a_node12"><a xlink:href="../api/supriya/realtime/nodes.html#supriya.realtime.nodes.Synth" xlink:title="Synth" target="_top">
<path fill="#fed9a6" stroke="#fed9a6" stroke-width="2" d="M514.87,-72.5C514.87,-72.5 485.54,-72.5 485.54,-72.5 482.37,-72.5 479.21,-69.33 479.21,-66.17 479.21,-66.17 479.21,-59.83 479.21,-59.83 479.21,-56.67 482.37,-53.5 485.54,-53.5 485.54,-53.5 514.87,-53.5 514.87,-53.5 518.04,-53.5 521.21,-56.67 521.21,-59.83 521.21,-59.83 521.21,-66.17 521.21,-66.17 521.21,-69.33 518.04,-72.5 514.87,-72.5"/>
<text text-anchor="middle" x="500.21" y="-60.5" font-family="Arial" font-size="10.00">Synth</text>
</a>
</g>
</g>
<!-- supriya.system.SupriyaObject -->
<g id="node13" class="node">
<title>supriya.system.SupriyaObject</title>
<g id="a_node13"><a xlink:href="../api/supriya/realtime/../system.html#supriya.system.SupriyaObject" xlink:title="Supriya\nObject" target="_top">
<path fill="#ffffcc" stroke="#ffffcc" stroke-width="2" d="M143,-243C143,-243 113,-243 113,-243 108,-243 103,-238 103,-233 103,-233 103,-223 103,-223 103,-218 108,-213 113,-213 113,-213 143,-213 143,-213 148,-213 153,-218 153,-223 153,-223 153,-233 153,-233 153,-238 148,-243 143,-243"/>
<text text-anchor="middle" x="128" y="-231" font-family="Arial" font-size="10.00">Supriya</text>
<text text-anchor="middle" x="128" y="-220" font-family="Arial" font-size="10.00">Object</text>
</a>
</g>
</g>
</g>
</svg>
