<?xml version="1.0" encoding="UTF-8" standalone="no"?>
<!DOCTYPE svg PUBLIC "-//W3C//DTD SVG 1.1//EN"
 "http://www.w3.org/Graphics/SVG/1.1/DTD/svg11.dtd">
<!-- Generated by graphviz version 2.44.1 (20200629.0846)
 -->
<!-- Title: InheritanceGraph Pages: 1 -->
<svg width="665pt" height="456pt"
 viewBox="0.00 0.00 665.00 456.00" xmlns="http://www.w3.org/2000/svg" xmlns:xlink="http://www.w3.org/1999/xlink">
<g id="graph0" class="graph" transform="scale(1 1) rotate(0) translate(4 452)">
<title>InheritanceGraph</title>
<g id="clust1" class="cluster">
<title>cluster_asyncio.protocols</title>
<path fill="transparent" stroke="#bcd2ee" stroke-width="2" stroke-dasharray="5,2" d="M99,-375C99,-375 239.5,-375 239.5,-375 245.5,-375 251.5,-381 251.5,-387 251.5,-387 251.5,-428 251.5,-428 251.5,-434 245.5,-440 239.5,-440 239.5,-440 99,-440 99,-440 93,-440 87,-434 87,-428 87,-428 87,-387 87,-387 87,-381 93,-375 99,-375"/>
<text text-anchor="middle" x="169.25" y="-428" font-family="Arial" font-size="10.00">asyncio.protocols</text>
</g>
<g id="clust2" class="cluster">
<title>cluster_builtins</title>
<path fill="transparent" stroke="#bcd2ee" stroke-width="2" stroke-dasharray="5,2" d="M20,-256C20,-256 338.5,-256 338.5,-256 344.5,-256 350.5,-262 350.5,-268 350.5,-268 350.5,-319 350.5,-319 350.5,-325 344.5,-331 338.5,-331 338.5,-331 20,-331 20,-331 14,-331 8,-325 8,-319 8,-319 8,-268 8,-268 8,-262 14,-256 20,-256"/>
<text text-anchor="middle" x="179.25" y="-319" font-family="Arial" font-size="10.00">builtins</text>
</g>
<g id="clust3" class="cluster">
<title>cluster_socketserver</title>
<path fill="transparent" stroke="#bcd2ee" stroke-width="2" stroke-dasharray="5,2" d="M191.5,-62C191.5,-62 444,-62 444,-62 450,-62 456,-68 456,-74 456,-74 456,-175 456,-175 456,-181 450,-187 444,-187 444,-187 191.5,-187 191.5,-187 185.5,-187 179.5,-181 179.5,-175 179.5,-175 179.5,-74 179.5,-74 179.5,-68 185.5,-62 191.5,-62"/>
<text text-anchor="middle" x="317.75" y="-175" font-family="Arial" font-size="10.00">socketserver</text>
</g>
<g id="clust4" class="cluster">
<title>cluster_supriya.osc.protocols</title>
<path fill="transparent" stroke="#bcd2ee" stroke-width="2" stroke-dasharray="5,2" d="M488,-8C488,-8 637,-8 637,-8 643,-8 649,-14 649,-20 649,-20 649,-406 649,-406 649,-412 643,-418 637,-418 637,-418 488,-418 488,-418 482,-418 476,-412 476,-406 476,-406 476,-20 476,-20 476,-14 482,-8 488,-8"/>
<text text-anchor="middle" x="562.5" y="-406" font-family="Arial" font-size="10.00">supriya.osc.protocols</text>
</g>
<!-- asyncio.protocols.BaseProtocol&#45;&gt;asyncio.protocols.DatagramProtocol -->
<g id="edge1" class="edge">
<title>asyncio.protocols.BaseProtocol&#45;&gt;asyncio.protocols.DatagramProtocol</title>
<path fill="none" stroke="lightslategrey" d="M148.19,-398C156.3,-398 165.46,-398 174.27,-398"/>
<polygon fill="lightslategrey" stroke="lightslategrey" points="174.38,-401.5 184.38,-398 174.38,-394.5 174.38,-401.5"/>
</g>
<!-- asyncio.protocols.DatagramProtocol&#45;&gt;supriya.osc.protocols.AsyncOscProtocol -->
<g id="edge9" class="edge">
<title>asyncio.protocols.DatagramProtocol&#45;&gt;supriya.osc.protocols.AsyncOscProtocol</title>
<path fill="none" stroke="lightslategrey" d="M243.73,-406.49C304,-422.6 446.46,-451.6 548,-400 571.46,-388.08 588.31,-362.98 598.74,-342.79"/>
<polygon fill="lightslategrey" stroke="lightslategrey" points="601.96,-344.16 603.21,-333.64 595.67,-341.09 601.96,-344.16"/>
</g>
<!-- builtins.BaseException&#45;&gt;builtins.Exception -->
<g id="edge2" class="edge">
<title>builtins.BaseException&#45;&gt;builtins.Exception</title>
<path fill="none" stroke="lightslategrey" d="M244.22,-290.51C253,-290.97 262.79,-291.48 272.12,-291.96"/>
<polygon fill="lightslategrey" stroke="lightslategrey" points="272.22,-295.47 282.38,-292.49 272.58,-288.48 272.22,-295.47"/>
</g>
<!-- builtins.Exception&#45;&gt;supriya.osc.protocols.OscProtocolAlreadyConnected -->
<g id="edge10" class="edge">
<title>builtins.Exception&#45;&gt;supriya.osc.protocols.OscProtocolAlreadyConnected</title>
<path fill="none" stroke="lightslategrey" d="M340.68,-303.58C375.04,-315.68 434.51,-336.64 474.3,-350.66"/>
<polygon fill="lightslategrey" stroke="lightslategrey" points="473.37,-354.04 483.97,-354.07 475.7,-347.44 473.37,-354.04"/>
</g>
<!-- builtins.Exception&#45;&gt;supriya.osc.protocols.OscProtocolOffline -->
<g id="edge11" class="edge">
<title>builtins.Exception&#45;&gt;supriya.osc.protocols.OscProtocolOffline</title>
<path fill="none" stroke="lightslategrey" d="M342.8,-294.87C378.92,-295.95 440.27,-297.77 479.16,-298.93"/>
<polygon fill="lightslategrey" stroke="lightslategrey" points="479.39,-302.44 489.49,-299.24 479.6,-295.44 479.39,-302.44"/>
</g>
<!-- builtins.object&#45;&gt;asyncio.protocols.BaseProtocol -->
<g id="edge12" class="edge">
<title>builtins.object&#45;&gt;asyncio.protocols.BaseProtocol</title>
<path fill="none" stroke="lightslategrey" d="M44.93,-283.73C57.69,-303.02 86.51,-346.6 104.64,-374.02"/>
<polygon fill="lightslategrey" stroke="lightslategrey" points="101.91,-376.23 110.34,-382.64 107.75,-372.37 101.91,-376.23"/>
</g>
<!-- builtins.object&#45;&gt;builtins.BaseException -->
<g id="edge3" class="edge">
<title>builtins.object&#45;&gt;builtins.BaseException</title>
<path fill="none" stroke="lightslategrey" d="M58.29,-283.69C66.9,-287.39 77.23,-291.15 87,-293 115.7,-298.42 148.71,-297.1 173.74,-294.6"/>
<polygon fill="lightslategrey" stroke="lightslategrey" points="174.39,-298.05 183.95,-293.47 173.62,-291.09 174.39,-298.05"/>
</g>
<!-- builtins.object&#45;&gt;builtins.tuple -->
<g id="edge4" class="edge">
<title>builtins.object&#45;&gt;builtins.tuple</title>
<path fill="none" stroke="lightslategrey" d="M59.19,-274C69.16,-274 81.26,-274 92.07,-274"/>
<polygon fill="lightslategrey" stroke="lightslategrey" points="92.33,-277.5 102.33,-274 92.33,-270.5 92.33,-277.5"/>
</g>
<!-- builtins.object&#45;&gt;socketserver.BaseRequestHandler -->
<g id="edge13" class="edge">
<title>builtins.object&#45;&gt;socketserver.BaseRequestHandler</title>
<path fill="none" stroke="lightslategrey" d="M40.05,-264.45C44.05,-242.54 56.63,-188 87,-155 111.56,-128.31 149.78,-111.1 177.69,-101.33"/>
<polygon fill="lightslategrey" stroke="lightslategrey" points="179.08,-104.55 187.46,-98.06 176.86,-97.91 179.08,-104.55"/>
</g>
<!-- builtins.object&#45;&gt;socketserver.BaseServer -->
<g id="edge14" class="edge">
<title>builtins.object&#45;&gt;socketserver.BaseServer</title>
<path fill="none" stroke="lightslategrey" d="M41.7,-264.48C47.86,-247.57 62.9,-212.17 87,-192 114.31,-169.15 153.8,-156.84 181.26,-150.63"/>
<polygon fill="lightslategrey" stroke="lightslategrey" points="182.09,-154.03 191.15,-148.54 180.64,-147.18 182.09,-154.03"/>
</g>
<!-- builtins.object&#45;&gt;supriya.osc.protocols.HealthCheck -->
<g id="edge15" class="edge">
<title>builtins.object&#45;&gt;supriya.osc.protocols.HealthCheck</title>
<path fill="none" stroke="lightslategrey" d="M38.95,-264.4C40.69,-237.3 48.92,-159 87,-110 126.99,-58.54 147.83,-35 213,-35 213,-35 213,-35 313.5,-35 373.44,-35 443.38,-33.21 483.1,-32.02"/>
<polygon fill="lightslategrey" stroke="lightslategrey" points="483.35,-35.52 493.24,-31.72 483.13,-28.52 483.35,-35.52"/>
</g>
<!-- builtins.object&#45;&gt;supriya.osc.protocols.OscProtocol -->
<g id="edge16" class="edge">
<title>builtins.object&#45;&gt;supriya.osc.protocols.OscProtocol</title>
<path fill="none" stroke="lightslategrey" d="M52.7,-264.26C81.54,-245.45 149.6,-206 213,-206 213,-206 213,-206 313.5,-206 371.51,-206 438.84,-202.65 479.12,-200.28"/>
<polygon fill="lightslategrey" stroke="lightslategrey" points="479.48,-203.77 489.25,-199.68 479.06,-196.78 479.48,-203.77"/>
</g>
<!-- builtins.tuple&#45;&gt;supriya.osc.protocols.OscCallback -->
<g id="edge17" class="edge">
<title>builtins.tuple&#45;&gt;supriya.osc.protocols.OscCallback</title>
<path fill="none" stroke="lightslategrey" d="M140.66,-270.66C151.83,-268.72 166.45,-266.4 179.5,-265 287.8,-253.41 416.58,-248.62 478.36,-246.88"/>
<polygon fill="lightslategrey" stroke="lightslategrey" points="478.5,-250.37 488.4,-246.6 478.3,-243.38 478.5,-250.37"/>
</g>
<!-- socketserver.BaseRequestHandler&#45;&gt;supriya.osc.protocols.ThreadedOscHandler -->
<g id="edge18" class="edge">
<title>socketserver.BaseRequestHandler&#45;&gt;supriya.osc.protocols.ThreadedOscHandler</title>
<path fill="none" stroke="lightslategrey" d="M240.58,-90.49C293.49,-89.43 415.18,-87 477.19,-85.76"/>
<polygon fill="lightslategrey" stroke="lightslategrey" points="477.4,-89.25 487.33,-85.55 477.26,-82.25 477.4,-89.25"/>
</g>
<!-- socketserver.BaseServer&#45;&gt;socketserver.TCPServer -->
<g id="edge5" class="edge">
<title>socketserver.BaseServer&#45;&gt;socketserver.TCPServer</title>
<path fill="none" stroke="lightslategrey" d="M236.9,-144.77C246.6,-144.67 258.36,-144.55 269.65,-144.43"/>
<polygon fill="lightslategrey" stroke="lightslategrey" points="269.84,-147.93 279.81,-144.33 269.77,-140.93 269.84,-147.93"/>
</g>
<!-- socketserver.TCPServer&#45;&gt;socketserver.UDPServer -->
<g id="edge6" class="edge">
<title>socketserver.TCPServer&#45;&gt;socketserver.UDPServer</title>
<path fill="none" stroke="lightslategrey" d="M345.14,-144C353.2,-144 361.99,-144 370.5,-144"/>
<polygon fill="lightslategrey" stroke="lightslategrey" points="370.69,-147.5 380.69,-144 370.69,-140.5 370.69,-147.5"/>
</g>
<!-- socketserver.UDPServer&#45;&gt;supriya.osc.protocols.ThreadedOscServer -->
<g id="edge19" class="edge">
<title>socketserver.UDPServer&#45;&gt;supriya.osc.protocols.ThreadedOscServer</title>
<path fill="none" stroke="lightslategrey" d="M448.08,-144C457.4,-144 467.64,-144 477.25,-144"/>
<polygon fill="lightslategrey" stroke="lightslategrey" points="477.35,-147.5 487.35,-144 477.35,-140.5 477.35,-147.5"/>
</g>
<!-- supriya.osc.protocols.OscProtocol&#45;&gt;supriya.osc.protocols.AsyncOscProtocol -->
<g id="edge7" class="edge">
<title>supriya.osc.protocols.OscProtocol&#45;&gt;supriya.osc.protocols.AsyncOscProtocol</title>
<path fill="none" stroke="lightslategrey" d="M538.41,-213.19C541.77,-215.96 545.09,-218.94 548,-222 565.8,-240.71 582.38,-264.78 594.12,-283.46"/>
<polygon fill="lightslategrey" stroke="lightslategrey" points="591.26,-285.48 599.49,-292.16 597.21,-281.81 591.26,-285.48"/>
</g>
<!-- supriya.osc.protocols.OscProtocol&#45;&gt;supriya.osc.protocols.ThreadedOscProtocol -->
<g id="edge8" class="edge">
<title>supriya.osc.protocols.OscProtocol&#45;&gt;supriya.osc.protocols.ThreadedOscProtocol</title>
<path fill="none" stroke="lightslategrey" d="M542.82,-198C552.33,-198 563.31,-198 573.66,-198"/>
<polygon fill="lightslategrey" stroke="lightslategrey" points="573.72,-201.5 583.72,-198 573.72,-194.5 573.72,-201.5"/>
</g>
<!-- asyncio.protocols.BaseProtocol -->
<g id="node1" class="node">
<title>asyncio.protocols.BaseProtocol</title>
<path fill="#fbb4ae" stroke="#fbb4ae" stroke-width="2" d="M138,-413C138,-413 105,-413 105,-413 100,-413 95,-408 95,-403 95,-403 95,-393 95,-393 95,-388 100,-383 105,-383 105,-383 138,-383 138,-383 143,-383 148,-388 148,-393 148,-393 148,-403 148,-403 148,-408 143,-413 138,-413"/>
<text text-anchor="middle" x="121.5" y="-401" font-family="Arial" font-size="10.00">Base</text>
<text text-anchor="middle" x="121.5" y="-390" font-family="Arial" font-size="10.00">Protocol</text>
</g>
<!-- asyncio.protocols.DatagramProtocol -->
<g id="node2" class="node">
<title>asyncio.protocols.DatagramProtocol</title>
<path fill="#fbb4ae" stroke="#fbb4ae" stroke-width="2" d="M233.5,-413C233.5,-413 194.5,-413 194.5,-413 189.5,-413 184.5,-408 184.5,-403 184.5,-403 184.5,-393 184.5,-393 184.5,-388 189.5,-383 194.5,-383 194.5,-383 233.5,-383 233.5,-383 238.5,-383 243.5,-388 243.5,-393 243.5,-393 243.5,-403 243.5,-403 243.5,-408 238.5,-413 233.5,-413"/>
<text text-anchor="middle" x="214" y="-401" font-family="Arial" font-size="10.00">Datagram</text>
<text text-anchor="middle" x="214" y="-390" font-family="Arial" font-size="10.00">Protocol</text>
</g>
<!-- builtins.BaseException -->
<g id="node3" class="node">
<title>builtins.BaseException</title>
<g id="a_node3"><a xlink:href="https://docs.python.org/3/library/exceptions.html#BaseException" xlink:title="Base\nException" target="_top">
<path fill="#b3cde3" stroke="#b3cde3" stroke-width="2" d="M234,-304C234,-304 194,-304 194,-304 189,-304 184,-299 184,-294 184,-294 184,-284 184,-284 184,-279 189,-274 194,-274 194,-274 234,-274 234,-274 239,-274 244,-279 244,-284 244,-284 244,-294 244,-294 244,-299 239,-304 234,-304"/>
<text text-anchor="middle" x="214" y="-292" font-family="Arial" font-size="10.00">Base</text>
<text text-anchor="middle" x="214" y="-281" font-family="Arial" font-size="10.00">Exception</text>
</a>
</g>
</g>
<!-- builtins.Exception -->
<g id="node4" class="node">
<title>builtins.Exception</title>
<g id="a_node4"><a xlink:href="https://docs.python.org/3/library/exceptions.html#Exception" xlink:title="Exception" target="_top">
<path fill="#b3cde3" stroke="#b3cde3" stroke-width="2" d="M336.17,-303.5C336.17,-303.5 288.83,-303.5 288.83,-303.5 285.67,-303.5 282.5,-300.33 282.5,-297.17 282.5,-297.17 282.5,-290.83 282.5,-290.83 282.5,-287.67 285.67,-284.5 288.83,-284.5 288.83,-284.5 336.17,-284.5 336.17,-284.5 339.33,-284.5 342.5,-287.67 342.5,-290.83 342.5,-290.83 342.5,-297.17 342.5,-297.17 342.5,-300.33 339.33,-303.5 336.17,-303.5"/>
<text text-anchor="middle" x="312.5" y="-291.5" font-family="Arial" font-size="10.00">Exception</text>
</a>
</g>
</g>
<!-- builtins.object -->
<g id="node5" class="node">
<title>builtins.object</title>
<g id="a_node5"><a xlink:href="https://docs.python.org/3/library/functions.html#object" xlink:title="object" target="_top">
<path fill="#b3cde3" stroke="#b3cde3" stroke-width="2" d="M52.67,-283.5C52.67,-283.5 22.33,-283.5 22.33,-283.5 19.17,-283.5 16,-280.33 16,-277.17 16,-277.17 16,-270.83 16,-270.83 16,-267.67 19.17,-264.5 22.33,-264.5 22.33,-264.5 52.67,-264.5 52.67,-264.5 55.83,-264.5 59,-267.67 59,-270.83 59,-270.83 59,-277.17 59,-277.17 59,-280.33 55.83,-283.5 52.67,-283.5"/>
<text text-anchor="middle" x="37.5" y="-271.5" font-family="Arial" font-size="10.00">object</text>
</a>
</g>
</g>
<!-- builtins.tuple -->
<g id="node6" class="node">
<title>builtins.tuple</title>
<g id="a_node6"><a xlink:href="https://docs.python.org/3/library/stdtypes.html#tuple" xlink:title="tuple" target="_top">
<path fill="#b3cde3" stroke="#b3cde3" stroke-width="2" d="M134.17,-283.5C134.17,-283.5 108.83,-283.5 108.83,-283.5 105.67,-283.5 102.5,-280.33 102.5,-277.17 102.5,-277.17 102.5,-270.83 102.5,-270.83 102.5,-267.67 105.67,-264.5 108.83,-264.5 108.83,-264.5 134.17,-264.5 134.17,-264.5 137.33,-264.5 140.5,-267.67 140.5,-270.83 140.5,-270.83 140.5,-277.17 140.5,-277.17 140.5,-280.33 137.33,-283.5 134.17,-283.5"/>
<text text-anchor="middle" x="121.5" y="-271.5" font-family="Arial" font-size="10.00">tuple</text>
</a>
</g>
</g>
<!-- socketserver.BaseRequestHandler -->
<g id="node7" class="node">
<title>socketserver.BaseRequestHandler</title>
<g id="a_node7"><a xlink:href="https://docs.python.org/3/library/socketserver.html#socketserver.BaseRequestHandler" xlink:title="Base\nRequest\nHandler" target="_top">
<path fill="#ccebc5" stroke="#ccebc5" stroke-width="2" d="M228.5,-111.5C228.5,-111.5 199.5,-111.5 199.5,-111.5 193.5,-111.5 187.5,-105.5 187.5,-99.5 187.5,-99.5 187.5,-82.5 187.5,-82.5 187.5,-76.5 193.5,-70.5 199.5,-70.5 199.5,-70.5 228.5,-70.5 228.5,-70.5 234.5,-70.5 240.5,-76.5 240.5,-82.5 240.5,-82.5 240.5,-99.5 240.5,-99.5 240.5,-105.5 234.5,-111.5 228.5,-111.5"/>
<text text-anchor="middle" x="214" y="-99.5" font-family="Arial" font-size="10.00">Base</text>
<text text-anchor="middle" x="214" y="-88.5" font-family="Arial" font-size="10.00">Request</text>
<text text-anchor="middle" x="214" y="-77.5" font-family="Arial" font-size="10.00">Handler</text>
</a>
</g>
</g>
<!-- socketserver.BaseServer -->
<g id="node8" class="node">
<title>socketserver.BaseServer</title>
<g id="a_node8"><a xlink:href="https://docs.python.org/3/library/socketserver.html#socketserver.BaseServer" xlink:title="Base\nServer" target="_top">
<path fill="#ccebc5" stroke="#ccebc5" stroke-width="2" d="M226.5,-160C226.5,-160 201.5,-160 201.5,-160 196.5,-160 191.5,-155 191.5,-150 191.5,-150 191.5,-140 191.5,-140 191.5,-135 196.5,-130 201.5,-130 201.5,-130 226.5,-130 226.5,-130 231.5,-130 236.5,-135 236.5,-140 236.5,-140 236.5,-150 236.5,-150 236.5,-155 231.5,-160 226.5,-160"/>
<text text-anchor="middle" x="214" y="-148" font-family="Arial" font-size="10.00">Base</text>
<text text-anchor="middle" x="214" y="-137" font-family="Arial" font-size="10.00">Server</text>
</a>
</g>
</g>
<!-- socketserver.TCPServer -->
<g id="node9" class="node">
<title>socketserver.TCPServer</title>
<g id="a_node9"><a xlink:href="https://docs.python.org/3/library/socketserver.html#socketserver.TCPServer" xlink:title="TCPServer" target="_top">
<path fill="#ccebc5" stroke="#ccebc5" stroke-width="2" d="M338.67,-153.5C338.67,-153.5 286.33,-153.5 286.33,-153.5 283.17,-153.5 280,-150.33 280,-147.17 280,-147.17 280,-140.83 280,-140.83 280,-137.67 283.17,-134.5 286.33,-134.5 286.33,-134.5 338.67,-134.5 338.67,-134.5 341.83,-134.5 345,-137.67 345,-140.83 345,-140.83 345,-147.17 345,-147.17 345,-150.33 341.83,-153.5 338.67,-153.5"/>
<text text-anchor="middle" x="312.5" y="-141.5" font-family="Arial" font-size="10.00">TCPServer</text>
</a>
</g>
</g>
<!-- socketserver.UDPServer -->
<g id="node10" class="node">
<title>socketserver.UDPServer</title>
<g id="a_node10"><a xlink:href="https://docs.python.org/3/library/socketserver.html#socketserver.UDPServer" xlink:title="UDPServer" target="_top">
<path fill="#ccebc5" stroke="#ccebc5" stroke-width="2" d="M441.67,-153.5C441.67,-153.5 387.33,-153.5 387.33,-153.5 384.17,-153.5 381,-150.33 381,-147.17 381,-147.17 381,-140.83 381,-140.83 381,-137.67 384.17,-134.5 387.33,-134.5 387.33,-134.5 441.67,-134.5 441.67,-134.5 444.83,-134.5 448,-137.67 448,-140.83 448,-140.83 448,-147.17 448,-147.17 448,-150.33 444.83,-153.5 441.67,-153.5"/>
<text text-anchor="middle" x="414.5" y="-141.5" font-family="Arial" font-size="10.00">UDPServer</text>
</a>
</g>
</g>
<!-- supriya.osc.protocols.AsyncOscProtocol -->
<g id="node11" class="node">
<title>supriya.osc.protocols.AsyncOscProtocol</title>
<g id="a_node11"><a xlink:href="../api/supriya/osc/protocols.html#supriya.osc.protocols.AsyncOscProtocol" xlink:title="Async\nOsc\nProtocol" target="_top">
<path fill="black" stroke="black" stroke-width="2" d="M627,-333.5C627,-333.5 598,-333.5 598,-333.5 592,-333.5 586,-327.5 586,-321.5 586,-321.5 586,-304.5 586,-304.5 586,-298.5 592,-292.5 598,-292.5 598,-292.5 627,-292.5 627,-292.5 633,-292.5 639,-298.5 639,-304.5 639,-304.5 639,-321.5 639,-321.5 639,-327.5 633,-333.5 627,-333.5"/>
<text text-anchor="middle" x="612.5" y="-321.5" font-family="Arial" font-size="10.00" fill="white">Async</text>
<text text-anchor="middle" x="612.5" y="-310.5" font-family="Arial" font-size="10.00" fill="white">Osc</text>
<text text-anchor="middle" x="612.5" y="-299.5" font-family="Arial" font-size="10.00" fill="white">Protocol</text>
</a>
</g>
</g>
<!-- supriya.osc.protocols.HealthCheck -->
<g id="node12" class="node">
<title>supriya.osc.protocols.HealthCheck</title>
<g id="a_node12"><a xlink:href="../api/supriya/osc/protocols.html#supriya.osc.protocols.HealthCheck" xlink:title="Health\nCheck" target="_top">
<path fill="black" stroke="black" stroke-width="2" d="M528.5,-46C528.5,-46 503.5,-46 503.5,-46 498.5,-46 493.5,-41 493.5,-36 493.5,-36 493.5,-26 493.5,-26 493.5,-21 498.5,-16 503.5,-16 503.5,-16 528.5,-16 528.5,-16 533.5,-16 538.5,-21 538.5,-26 538.5,-26 538.5,-36 538.5,-36 538.5,-41 533.5,-46 528.5,-46"/>
<text text-anchor="middle" x="516" y="-34" font-family="Arial" font-size="10.00" fill="white">Health</text>
<text text-anchor="middle" x="516" y="-23" font-family="Arial" font-size="10.00" fill="white">Check</text>
</a>
</g>
</g>
<!-- supriya.osc.protocols.OscCallback -->
<g id="node13" class="node">
<title>supriya.osc.protocols.OscCallback</title>
<g id="a_node13"><a xlink:href="../api/supriya/osc/protocols.html#supriya.osc.protocols.OscCallback" xlink:title="Osc\nCallback" target="_top">
<path fill="black" stroke="black" stroke-width="2" d="M533.5,-261C533.5,-261 498.5,-261 498.5,-261 493.5,-261 488.5,-256 488.5,-251 488.5,-251 488.5,-241 488.5,-241 488.5,-236 493.5,-231 498.5,-231 498.5,-231 533.5,-231 533.5,-231 538.5,-231 543.5,-236 543.5,-241 543.5,-241 543.5,-251 543.5,-251 543.5,-256 538.5,-261 533.5,-261"/>
<text text-anchor="middle" x="516" y="-249" font-family="Arial" font-size="10.00" fill="white">Osc</text>
<text text-anchor="middle" x="516" y="-238" font-family="Arial" font-size="10.00" fill="white">Callback</text>
</a>
</g>
</g>
<!-- supriya.osc.protocols.OscProtocol -->
<g id="node14" class="node">
<title>supriya.osc.protocols.OscProtocol</title>
<g id="a_node14"><a xlink:href="../api/supriya/osc/protocols.html#supriya.osc.protocols.OscProtocol" xlink:title="Osc\nProtocol" target="_top">
<path fill="black" stroke="black" stroke-width="2" d="M532.5,-213C532.5,-213 499.5,-213 499.5,-213 494.5,-213 489.5,-208 489.5,-203 489.5,-203 489.5,-193 489.5,-193 489.5,-188 494.5,-183 499.5,-183 499.5,-183 532.5,-183 532.5,-183 537.5,-183 542.5,-188 542.5,-193 542.5,-193 542.5,-203 542.5,-203 542.5,-208 537.5,-213 532.5,-213"/>
<text text-anchor="middle" x="516" y="-201" font-family="Arial" font-size="10.00" fill="white">Osc</text>
<text text-anchor="middle" x="516" y="-190" font-family="Arial" font-size="10.00" fill="white">Protocol</text>
</a>
</g>
</g>
<!-- supriya.osc.protocols.ThreadedOscProtocol -->
<g id="node15" class="node">
<title>supriya.osc.protocols.ThreadedOscProtocol</title>
<g id="a_node15"><a xlink:href="../api/supriya/osc/protocols.html#supriya.osc.protocols.ThreadedOscProtocol" xlink:title="Threaded\nOsc\nProtocol" target="_top">
<path fill="black" stroke="black" stroke-width="2" d="M629,-218.5C629,-218.5 596,-218.5 596,-218.5 590,-218.5 584,-212.5 584,-206.5 584,-206.5 584,-189.5 584,-189.5 584,-183.5 590,-177.5 596,-177.5 596,-177.5 629,-177.5 629,-177.5 635,-177.5 641,-183.5 641,-189.5 641,-189.5 641,-206.5 641,-206.5 641,-212.5 635,-218.5 629,-218.5"/>
<text text-anchor="middle" x="612.5" y="-206.5" font-family="Arial" font-size="10.00" fill="white">Threaded</text>
<text text-anchor="middle" x="612.5" y="-195.5" font-family="Arial" font-size="10.00" fill="white">Osc</text>
<text text-anchor="middle" x="612.5" y="-184.5" font-family="Arial" font-size="10.00" fill="white">Protocol</text>
</a>
</g>
</g>
<!-- supriya.osc.protocols.OscProtocolAlreadyConnected -->
<g id="node16" class="node">
<title>supriya.osc.protocols.OscProtocolAlreadyConnected</title>
<g id="a_node16"><a xlink:href="../api/supriya/osc/protocols.html#supriya.osc.protocols.OscProtocolAlreadyConnected" xlink:title="Osc\nProtocol\nAlready\nConnected" target="_top">
<path fill="black" stroke="black" stroke-width="2" d="M536,-391C536,-391 496,-391 496,-391 490,-391 484,-385 484,-379 484,-379 484,-351 484,-351 484,-345 490,-339 496,-339 496,-339 536,-339 536,-339 542,-339 548,-345 548,-351 548,-351 548,-379 548,-379 548,-385 542,-391 536,-391"/>
<text text-anchor="middle" x="516" y="-379" font-family="Arial" font-size="10.00" fill="white">Osc</text>
<text text-anchor="middle" x="516" y="-368" font-family="Arial" font-size="10.00" fill="white">Protocol</text>
<text text-anchor="middle" x="516" y="-357" font-family="Arial" font-size="10.00" fill="white">Already</text>
<text text-anchor="middle" x="516" y="-346" font-family="Arial" font-size="10.00" fill="white">Connected</text>
</a>
</g>
</g>
<!-- supriya.osc.protocols.OscProtocolOffline -->
<g id="node17" class="node">
<title>supriya.osc.protocols.OscProtocolOffline</title>
<g id="a_node17"><a xlink:href="../api/supriya/osc/protocols.html#supriya.osc.protocols.OscProtocolOffline" xlink:title="Osc\nProtocol\nOffline" target="_top">
<path fill="black" stroke="black" stroke-width="2" d="M530.5,-320.5C530.5,-320.5 501.5,-320.5 501.5,-320.5 495.5,-320.5 489.5,-314.5 489.5,-308.5 489.5,-308.5 489.5,-291.5 489.5,-291.5 489.5,-285.5 495.5,-279.5 501.5,-279.5 501.5,-279.5 530.5,-279.5 530.5,-279.5 536.5,-279.5 542.5,-285.5 542.5,-291.5 542.5,-291.5 542.5,-308.5 542.5,-308.5 542.5,-314.5 536.5,-320.5 530.5,-320.5"/>
<text text-anchor="middle" x="516" y="-308.5" font-family="Arial" font-size="10.00" fill="white">Osc</text>
<text text-anchor="middle" x="516" y="-297.5" font-family="Arial" font-size="10.00" fill="white">Protocol</text>
<text text-anchor="middle" x="516" y="-286.5" font-family="Arial" font-size="10.00" fill="white">Offline</text>
</a>
</g>
</g>
<!-- supriya.osc.protocols.ThreadedOscHandler -->
<g id="node18" class="node">
<title>supriya.osc.protocols.ThreadedOscHandler</title>
<g id="a_node18"><a xlink:href="../api/supriya/osc/protocols.html#supriya.osc.protocols.ThreadedOscHandler" xlink:title="Threaded\nOsc\nHandler" target="_top">
<path fill="black" stroke="black" stroke-width="2" d="M532.5,-105.5C532.5,-105.5 499.5,-105.5 499.5,-105.5 493.5,-105.5 487.5,-99.5 487.5,-93.5 487.5,-93.5 487.5,-76.5 487.5,-76.5 487.5,-70.5 493.5,-64.5 499.5,-64.5 499.5,-64.5 532.5,-64.5 532.5,-64.5 538.5,-64.5 544.5,-70.5 544.5,-76.5 544.5,-76.5 544.5,-93.5 544.5,-93.5 544.5,-99.5 538.5,-105.5 532.5,-105.5"/>
<text text-anchor="middle" x="516" y="-93.5" font-family="Arial" font-size="10.00" fill="white">Threaded</text>
<text text-anchor="middle" x="516" y="-82.5" font-family="Arial" font-size="10.00" fill="white">Osc</text>
<text text-anchor="middle" x="516" y="-71.5" font-family="Arial" font-size="10.00" fill="white">Handler</text>
</a>
</g>
</g>
<!-- supriya.osc.protocols.ThreadedOscServer -->
<g id="node19" class="node">
<title>supriya.osc.protocols.ThreadedOscServer</title>
<g id="a_node19"><a xlink:href="../api/supriya/osc/protocols.html#supriya.osc.protocols.ThreadedOscServer" xlink:title="Threaded\nOsc\nServer" target="_top">
<path fill="black" stroke="black" stroke-width="2" d="M532.5,-164.5C532.5,-164.5 499.5,-164.5 499.5,-164.5 493.5,-164.5 487.5,-158.5 487.5,-152.5 487.5,-152.5 487.5,-135.5 487.5,-135.5 487.5,-129.5 493.5,-123.5 499.5,-123.5 499.5,-123.5 532.5,-123.5 532.5,-123.5 538.5,-123.5 544.5,-129.5 544.5,-135.5 544.5,-135.5 544.5,-152.5 544.5,-152.5 544.5,-158.5 538.5,-164.5 532.5,-164.5"/>
<text text-anchor="middle" x="516" y="-152.5" font-family="Arial" font-size="10.00" fill="white">Threaded</text>
<text text-anchor="middle" x="516" y="-141.5" font-family="Arial" font-size="10.00" fill="white">Osc</text>
<text text-anchor="middle" x="516" y="-130.5" font-family="Arial" font-size="10.00" fill="white">Server</text>
</a>
</g>
</g>
</g>
</svg>
