<?xml version="1.0" encoding="UTF-8" standalone="no"?>
<!DOCTYPE svg PUBLIC "-//W3C//DTD SVG 1.1//EN"
 "http://www.w3.org/Graphics/SVG/1.1/DTD/svg11.dtd">
<!-- Generated by graphviz version 2.44.1 (20200629.0846)
 -->
<!-- Title: InheritanceGraph Pages: 1 -->
<svg width="635pt" height="389pt"
 viewBox="0.00 0.00 634.79 389.00" xmlns="http://www.w3.org/2000/svg" xmlns:xlink="http://www.w3.org/1999/xlink">
<g id="graph0" class="graph" transform="scale(1 1) rotate(0) translate(4 385)">
<title>InheritanceGraph</title>
<g id="clust1" class="cluster">
<title>cluster_builtins</title>
<path fill="transparent" stroke="#bcd2ee" stroke-width="2" stroke-dasharray="5,2" d="M20,-162C20,-162 55,-162 55,-162 61,-162 67,-168 67,-174 67,-174 67,-205 67,-205 67,-211 61,-217 55,-217 55,-217 20,-217 20,-217 14,-217 8,-211 8,-205 8,-205 8,-174 8,-174 8,-168 14,-162 20,-162"/>
<text text-anchor="middle" x="37.5" y="-205" font-family="Arial" font-size="10.00">builtins</text>
</g>
<g id="clust2" class="cluster">
<title>cluster_supriya.synthdefs.bases</title>
<path fill="transparent" stroke="#bcd2ee" stroke-width="2" stroke-dasharray="5,2" d="M347,-159C347,-159 493.79,-159 493.79,-159 499.79,-159 505.79,-165 505.79,-171 505.79,-171 505.79,-316 505.79,-316 505.79,-322 499.79,-328 493.79,-328 493.79,-328 347,-328 347,-328 341,-328 335,-322 335,-316 335,-316 335,-171 335,-171 335,-165 341,-159 347,-159"/>
<text text-anchor="middle" x="420.4" y="-316" font-family="Arial" font-size="10.00">supriya.synthdefs.bases</text>
</g>
<g id="clust3" class="cluster">
<title>cluster_supriya.synthdefs.mixins</title>
<path fill="transparent" stroke="#bcd2ee" stroke-width="2" stroke-dasharray="5,2" d="M202,-151C202,-151 303,-151 303,-151 309,-151 315,-157 315,-163 315,-163 315,-216 315,-216 315,-222 309,-228 303,-228 303,-228 202,-228 202,-228 196,-228 190,-222 190,-216 190,-216 190,-163 190,-163 190,-157 196,-151 202,-151"/>
<text text-anchor="middle" x="252.5" y="-216" font-family="Arial" font-size="10.00">supriya.synthdefs.mixins</text>
</g>
<g id="clust4" class="cluster">
<title>cluster_supriya.system</title>
<path fill="transparent" stroke="#bcd2ee" stroke-width="2" stroke-dasharray="5,2" d="M99,-157C99,-157 158,-157 158,-157 164,-157 170,-163 170,-169 170,-169 170,-210 170,-210 170,-216 164,-222 158,-222 158,-222 99,-222 99,-222 93,-222 87,-216 87,-210 87,-210 87,-169 87,-169 87,-163 93,-157 99,-157"/>
<text text-anchor="middle" x="128.5" y="-210" font-family="Arial" font-size="10.00">supriya.system</text>
</g>
<g id="clust5" class="cluster">
<title>cluster_supriya.ugens.bufio</title>
<path fill="transparent" stroke="#bcd2ee" stroke-width="2" stroke-dasharray="5,2" d="M537.79,-8C537.79,-8 614.79,-8 614.79,-8 620.79,-8 626.79,-14 626.79,-20 626.79,-20 626.79,-361 626.79,-361 626.79,-367 620.79,-373 614.79,-373 614.79,-373 537.79,-373 537.79,-373 531.79,-373 525.79,-367 525.79,-361 525.79,-361 525.79,-20 525.79,-20 525.79,-14 531.79,-8 537.79,-8"/>
<text text-anchor="middle" x="576.29" y="-361" font-family="Arial" font-size="10.00">supriya.ugens.bufio</text>
</g>
<!-- builtins.object&#45;&gt;supriya.system.SupriyaObject -->
<g id="edge3" class="edge">
<title>builtins.object&#45;&gt;supriya.system.SupriyaObject</title>
<path fill="none" stroke="lightslategrey" d="M59.03,-180C69.03,-180 81.34,-180 92.72,-180"/>
<polygon fill="lightslategrey" stroke="lightslategrey" points="92.82,-183.5 102.82,-180 92.82,-176.5 92.82,-183.5"/>
</g>
<!-- supriya.synthdefs.bases.MultiOutUGen&#45;&gt;supriya.ugens.bufio.BufRd -->
<g id="edge4" class="edge">
<title>supriya.synthdefs.bases.MultiOutUGen&#45;&gt;supriya.ugens.bufio.BufRd</title>
<path fill="none" stroke="lightslategrey" d="M497.7,-193.56C513.89,-192.19 533.96,-190.48 549.57,-189.15"/>
<polygon fill="lightslategrey" stroke="lightslategrey" points="549.89,-192.63 559.55,-188.3 549.29,-185.66 549.89,-192.63"/>
</g>
<!-- supriya.synthdefs.bases.MultiOutUGen&#45;&gt;supriya.ugens.bufio.PlayBuf -->
<g id="edge5" class="edge">
<title>supriya.synthdefs.bases.MultiOutUGen&#45;&gt;supriya.ugens.bufio.PlayBuf</title>
<path fill="none" stroke="lightslategrey" d="M496.04,-205.94C511.9,-211.79 531.88,-219.17 547.75,-225.02"/>
<polygon fill="lightslategrey" stroke="lightslategrey" points="546.91,-228.44 557.5,-228.62 549.33,-221.88 546.91,-228.44"/>
</g>
<!-- supriya.synthdefs.bases.UGen&#45;&gt;supriya.synthdefs.bases.MultiOutUGen -->
<g id="edge1" class="edge">
<title>supriya.synthdefs.bases.UGen&#45;&gt;supriya.synthdefs.bases.MultiOutUGen</title>
<path fill="none" stroke="lightslategrey" d="M400.71,-184.63C409.42,-186.12 419.24,-187.8 428.6,-189.41"/>
<polygon fill="lightslategrey" stroke="lightslategrey" points="428.07,-192.86 438.51,-191.1 429.25,-185.97 428.07,-192.86"/>
</g>
<!-- supriya.synthdefs.bases.UGen&#45;&gt;supriya.synthdefs.bases.WidthFirstUGen -->
<g id="edge2" class="edge">
<title>supriya.synthdefs.bases.UGen&#45;&gt;supriya.synthdefs.bases.WidthFirstUGen</title>
<path fill="none" stroke="lightslategrey" d="M386.29,-192.41C399.8,-205.71 421.67,-227.26 439.26,-244.58"/>
<polygon fill="lightslategrey" stroke="lightslategrey" points="436.92,-247.18 446.5,-251.71 441.83,-242.2 436.92,-247.18"/>
</g>
<!-- supriya.synthdefs.bases.UGen&#45;&gt;supriya.ugens.bufio.BufWr -->
<g id="edge6" class="edge">
<title>supriya.synthdefs.bases.UGen&#45;&gt;supriya.ugens.bufio.BufWr</title>
<path fill="none" stroke="lightslategrey" d="M395.55,-171.41C407.95,-166.84 423.85,-161.45 438.4,-158 476.59,-148.93 521.91,-143.68 549.49,-141.08"/>
<polygon fill="lightslategrey" stroke="lightslategrey" points="549.84,-144.56 559.48,-140.18 549.21,-137.59 549.84,-144.56"/>
</g>
<!-- supriya.synthdefs.bases.UGen&#45;&gt;supriya.ugens.bufio.MaxLocalBufs -->
<g id="edge7" class="edge">
<title>supriya.synthdefs.bases.UGen&#45;&gt;supriya.ugens.bufio.MaxLocalBufs</title>
<path fill="none" stroke="lightslategrey" d="M390.65,-169.19C403.5,-161.21 421.73,-150.33 438.4,-142 474.59,-123.91 517.93,-106.49 545.89,-95.77"/>
<polygon fill="lightslategrey" stroke="lightslategrey" points="547.35,-98.96 555.45,-92.13 544.86,-92.41 547.35,-98.96"/>
</g>
<!-- supriya.synthdefs.bases.UGen&#45;&gt;supriya.ugens.bufio.RecordBuf -->
<g id="edge8" class="edge">
<title>supriya.synthdefs.bases.UGen&#45;&gt;supriya.ugens.bufio.RecordBuf</title>
<path fill="none" stroke="lightslategrey" d="M383.22,-167.22C395.03,-151.94 416.32,-126.14 438.4,-108 473.32,-79.31 486.22,-77.84 525.79,-56 531.15,-53.04 536.89,-50 542.5,-47.1"/>
<polygon fill="lightslategrey" stroke="lightslategrey" points="544.39,-50.07 551.7,-42.4 541.2,-43.83 544.39,-50.07"/>
</g>
<!-- supriya.synthdefs.bases.WidthFirstUGen&#45;&gt;supriya.ugens.bufio.ClearBuf -->
<g id="edge9" class="edge">
<title>supriya.synthdefs.bases.WidthFirstUGen&#45;&gt;supriya.ugens.bufio.ClearBuf</title>
<path fill="none" stroke="lightslategrey" d="M497.7,-274.98C512.46,-276.51 530.44,-278.38 545.32,-279.93"/>
<polygon fill="lightslategrey" stroke="lightslategrey" points="545.21,-283.44 555.52,-280.99 545.94,-276.48 545.21,-283.44"/>
</g>
<!-- supriya.synthdefs.bases.WidthFirstUGen&#45;&gt;supriya.ugens.bufio.LocalBuf -->
<g id="edge10" class="edge">
<title>supriya.synthdefs.bases.WidthFirstUGen&#45;&gt;supriya.ugens.bufio.LocalBuf</title>
<path fill="none" stroke="lightslategrey" d="M493.35,-287.69C503.27,-293.92 514.96,-301.02 525.79,-307 532.26,-310.57 539.33,-314.19 546.03,-317.5"/>
<polygon fill="lightslategrey" stroke="lightslategrey" points="544.97,-320.87 555.49,-322.08 548.02,-314.57 544.97,-320.87"/>
</g>
<!-- supriya.synthdefs.mixins.UGenMethodMixin&#45;&gt;supriya.synthdefs.bases.UGen -->
<g id="edge11" class="edge">
<title>supriya.synthdefs.mixins.UGenMethodMixin&#45;&gt;supriya.synthdefs.bases.UGen</title>
<path fill="none" stroke="lightslategrey" d="M277.14,-180C292.98,-180 314.22,-180 332.55,-180"/>
<polygon fill="lightslategrey" stroke="lightslategrey" points="332.67,-183.5 342.67,-180 332.67,-176.5 332.67,-183.5"/>
</g>
<!-- supriya.system.SupriyaObject&#45;&gt;supriya.synthdefs.mixins.UGenMethodMixin -->
<g id="edge12" class="edge">
<title>supriya.system.SupriyaObject&#45;&gt;supriya.synthdefs.mixins.UGenMethodMixin</title>
<path fill="none" stroke="lightslategrey" d="M153.2,-180C171.61,-180 197.17,-180 217.61,-180"/>
<polygon fill="lightslategrey" stroke="lightslategrey" points="217.77,-183.5 227.77,-180 217.77,-176.5 217.77,-183.5"/>
</g>
<!-- builtins.object -->
<g id="node1" class="node">
<title>builtins.object</title>
<g id="a_node1"><a xlink:href="https://docs.python.org/3/library/functions.html#object" xlink:title="object" target="_top">
<path fill="#fbb4ae" stroke="#fbb4ae" stroke-width="2" d="M52.67,-189.5C52.67,-189.5 22.33,-189.5 22.33,-189.5 19.17,-189.5 16,-186.33 16,-183.17 16,-183.17 16,-176.83 16,-176.83 16,-173.67 19.17,-170.5 22.33,-170.5 22.33,-170.5 52.67,-170.5 52.67,-170.5 55.83,-170.5 59,-173.67 59,-176.83 59,-176.83 59,-183.17 59,-183.17 59,-186.33 55.83,-189.5 52.67,-189.5"/>
<text text-anchor="middle" x="37.5" y="-177.5" font-family="Arial" font-size="10.00">object</text>
</a>
</g>
</g>
<!-- supriya.synthdefs.bases.MultiOutUGen -->
<g id="node2" class="node">
<title>supriya.synthdefs.bases.MultiOutUGen</title>
<g id="a_node2"><a xlink:href="../api/supriya/ugens/../synthdefs/bases.html#supriya.synthdefs.bases.MultiOutUGen" xlink:title="Multi\nOut\nUGen" target="_top">
<ellipse fill="none" stroke="#b3cde3" stroke-width="2" cx="468.1" cy="-196" rx="29.9" ry="28.98"/>
<text text-anchor="middle" x="468.1" y="-204.5" font-family="Arial" font-size="10.00">Multi</text>
<text text-anchor="middle" x="468.1" y="-193.5" font-family="Arial" font-size="10.00">Out</text>
<text text-anchor="middle" x="468.1" y="-182.5" font-family="Arial" font-size="10.00">UGen</text>
</a>
</g>
</g>
<!-- supriya.synthdefs.bases.UGen -->
<g id="node3" class="node">
<title>supriya.synthdefs.bases.UGen</title>
<g id="a_node3"><a xlink:href="../api/supriya/ugens/../synthdefs/bases.html#supriya.synthdefs.bases.UGen" xlink:title="UGen" target="_top">
<ellipse fill="none" stroke="#b3cde3" stroke-width="2" cx="372.7" cy="-180" rx="29.9" ry="13.37"/>
<text text-anchor="middle" x="372.7" y="-177.5" font-family="Arial" font-size="10.00">UGen</text>
</a>
</g>
</g>
<!-- supriya.synthdefs.bases.WidthFirstUGen -->
<g id="node4" class="node">
<title>supriya.synthdefs.bases.WidthFirstUGen</title>
<g id="a_node4"><a xlink:href="../api/supriya/ugens/../synthdefs/bases.html#supriya.synthdefs.bases.WidthFirstUGen" xlink:title="Width\nFirst\nUGen" target="_top">
<ellipse fill="none" stroke="#b3cde3" stroke-width="2" cx="468.1" cy="-272" rx="29.9" ry="28.98"/>
<text text-anchor="middle" x="468.1" y="-280.5" font-family="Arial" font-size="10.00">Width</text>
<text text-anchor="middle" x="468.1" y="-269.5" font-family="Arial" font-size="10.00">First</text>
<text text-anchor="middle" x="468.1" y="-258.5" font-family="Arial" font-size="10.00">UGen</text>
</a>
</g>
</g>
<!-- supriya.synthdefs.mixins.UGenMethodMixin -->
<g id="node5" class="node">
<title>supriya.synthdefs.mixins.UGenMethodMixin</title>
<g id="a_node5"><a xlink:href="../api/supriya/ugens/../synthdefs/mixins.html#supriya.synthdefs.mixins.UGenMethodMixin" xlink:title="UGen\nMethod\nMixin" target="_top">
<path fill="#ccebc5" stroke="#ccebc5" stroke-width="2" d="M265,-200.5C265,-200.5 240,-200.5 240,-200.5 234,-200.5 228,-194.5 228,-188.5 228,-188.5 228,-171.5 228,-171.5 228,-165.5 234,-159.5 240,-159.5 240,-159.5 265,-159.5 265,-159.5 271,-159.5 277,-165.5 277,-171.5 277,-171.5 277,-188.5 277,-188.5 277,-194.5 271,-200.5 265,-200.5"/>
<text text-anchor="middle" x="252.5" y="-188.5" font-family="Arial" font-size="10.00">UGen</text>
<text text-anchor="middle" x="252.5" y="-177.5" font-family="Arial" font-size="10.00">Method</text>
<text text-anchor="middle" x="252.5" y="-166.5" font-family="Arial" font-size="10.00">Mixin</text>
</a>
</g>
</g>
<!-- supriya.system.SupriyaObject -->
<g id="node6" class="node">
<title>supriya.system.SupriyaObject</title>
<g id="a_node6"><a xlink:href="../api/supriya/ugens/../system.html#supriya.system.SupriyaObject" xlink:title="Supriya\nObject" target="_top">
<path fill="#decbe4" stroke="#decbe4" stroke-width="2" d="M143,-195C143,-195 113,-195 113,-195 108,-195 103,-190 103,-185 103,-185 103,-175 103,-175 103,-170 108,-165 113,-165 113,-165 143,-165 143,-165 148,-165 153,-170 153,-175 153,-175 153,-185 153,-185 153,-190 148,-195 143,-195"/>
<text text-anchor="middle" x="128" y="-183" font-family="Arial" font-size="10.00">Supriya</text>
<text text-anchor="middle" x="128" y="-172" font-family="Arial" font-size="10.00">Object</text>
</a>
</g>
</g>
<!-- supriya.ugens.bufio.BufRd -->
<g id="node7" class="node">
<title>supriya.ugens.bufio.BufRd</title>
<g id="a_node7"><a xlink:href="../api/supriya/ugens/bufio.html#supriya.ugens.bufio.BufRd" xlink:title="Buf\nRd" target="_top">
<path fill="black" stroke="black" stroke-width="2" d="M581.79,-202C581.79,-202 569.79,-202 569.79,-202 564.79,-202 559.79,-197 559.79,-192 559.79,-192 559.79,-182 559.79,-182 559.79,-177 564.79,-172 569.79,-172 569.79,-172 581.79,-172 581.79,-172 586.79,-172 591.79,-177 591.79,-182 591.79,-182 591.79,-192 591.79,-192 591.79,-197 586.79,-202 581.79,-202"/>
<text text-anchor="middle" x="575.79" y="-190" font-family="Arial" font-size="10.00" fill="white">Buf</text>
<text text-anchor="middle" x="575.79" y="-179" font-family="Arial" font-size="10.00" fill="white">Rd</text>
</a>
</g>
</g>
<!-- supriya.ugens.bufio.BufWr -->
<g id="node8" class="node">
<title>supriya.ugens.bufio.BufWr</title>
<g id="a_node8"><a xlink:href="../api/supriya/ugens/bufio.html#supriya.ugens.bufio.BufWr" xlink:title="Buf\nWr" target="_top">
<path fill="black" stroke="black" stroke-width="2" d="M581.79,-154C581.79,-154 569.79,-154 569.79,-154 564.79,-154 559.79,-149 559.79,-144 559.79,-144 559.79,-134 559.79,-134 559.79,-129 564.79,-124 569.79,-124 569.79,-124 581.79,-124 581.79,-124 586.79,-124 591.79,-129 591.79,-134 591.79,-134 591.79,-144 591.79,-144 591.79,-149 586.79,-154 581.79,-154"/>
<text text-anchor="middle" x="575.79" y="-142" font-family="Arial" font-size="10.00" fill="white">Buf</text>
<text text-anchor="middle" x="575.79" y="-131" font-family="Arial" font-size="10.00" fill="white">Wr</text>
</a>
</g>
</g>
<!-- supriya.ugens.bufio.ClearBuf -->
<g id="node9" class="node">
<title>supriya.ugens.bufio.ClearBuf</title>
<g id="a_node9"><a xlink:href="../api/supriya/ugens/bufio.html#supriya.ugens.bufio.ClearBuf" xlink:title="Clear\nBuf" target="_top">
<path fill="black" stroke="black" stroke-width="2" d="M585.79,-298C585.79,-298 565.79,-298 565.79,-298 560.79,-298 555.79,-293 555.79,-288 555.79,-288 555.79,-278 555.79,-278 555.79,-273 560.79,-268 565.79,-268 565.79,-268 585.79,-268 585.79,-268 590.79,-268 595.79,-273 595.79,-278 595.79,-278 595.79,-288 595.79,-288 595.79,-293 590.79,-298 585.79,-298"/>
<text text-anchor="middle" x="575.79" y="-286" font-family="Arial" font-size="10.00" fill="white">Clear</text>
<text text-anchor="middle" x="575.79" y="-275" font-family="Arial" font-size="10.00" fill="white">Buf</text>
</a>
</g>
</g>
<!-- supriya.ugens.bufio.LocalBuf -->
<g id="node10" class="node">
<title>supriya.ugens.bufio.LocalBuf</title>
<g id="a_node10"><a xlink:href="../api/supriya/ugens/bufio.html#supriya.ugens.bufio.LocalBuf" xlink:title="Local\nBuf" target="_top">
<path fill="black" stroke="black" stroke-width="2" d="M585.79,-346C585.79,-346 565.79,-346 565.79,-346 560.79,-346 555.79,-341 555.79,-336 555.79,-336 555.79,-326 555.79,-326 555.79,-321 560.79,-316 565.79,-316 565.79,-316 585.79,-316 585.79,-316 590.79,-316 595.79,-321 595.79,-326 595.79,-326 595.79,-336 595.79,-336 595.79,-341 590.79,-346 585.79,-346"/>
<text text-anchor="middle" x="575.79" y="-334" font-family="Arial" font-size="10.00" fill="white">Local</text>
<text text-anchor="middle" x="575.79" y="-323" font-family="Arial" font-size="10.00" fill="white">Buf</text>
</a>
</g>
</g>
<!-- supriya.ugens.bufio.MaxLocalBufs -->
<g id="node11" class="node">
<title>supriya.ugens.bufio.MaxLocalBufs</title>
<g id="a_node11"><a xlink:href="../api/supriya/ugens/bufio.html#supriya.ugens.bufio.MaxLocalBufs" xlink:title="Max\nLocal\nBufs" target="_top">
<path fill="black" stroke="black" stroke-width="2" d="M583.79,-105.5C583.79,-105.5 567.79,-105.5 567.79,-105.5 561.79,-105.5 555.79,-99.5 555.79,-93.5 555.79,-93.5 555.79,-76.5 555.79,-76.5 555.79,-70.5 561.79,-64.5 567.79,-64.5 567.79,-64.5 583.79,-64.5 583.79,-64.5 589.79,-64.5 595.79,-70.5 595.79,-76.5 595.79,-76.5 595.79,-93.5 595.79,-93.5 595.79,-99.5 589.79,-105.5 583.79,-105.5"/>
<text text-anchor="middle" x="575.79" y="-93.5" font-family="Arial" font-size="10.00" fill="white">Max</text>
<text text-anchor="middle" x="575.79" y="-82.5" font-family="Arial" font-size="10.00" fill="white">Local</text>
<text text-anchor="middle" x="575.79" y="-71.5" font-family="Arial" font-size="10.00" fill="white">Bufs</text>
</a>
</g>
</g>
<!-- supriya.ugens.bufio.PlayBuf -->
<g id="node12" class="node">
<title>supriya.ugens.bufio.PlayBuf</title>
<g id="a_node12"><a xlink:href="../api/supriya/ugens/bufio.html#supriya.ugens.bufio.PlayBuf" xlink:title="Play\nBuf" target="_top">
<path fill="black" stroke="black" stroke-width="2" d="M583.79,-250C583.79,-250 567.79,-250 567.79,-250 562.79,-250 557.79,-245 557.79,-240 557.79,-240 557.79,-230 557.79,-230 557.79,-225 562.79,-220 567.79,-220 567.79,-220 583.79,-220 583.79,-220 588.79,-220 593.79,-225 593.79,-230 593.79,-230 593.79,-240 593.79,-240 593.79,-245 588.79,-250 583.79,-250"/>
<text text-anchor="middle" x="575.79" y="-238" font-family="Arial" font-size="10.00" fill="white">Play</text>
<text text-anchor="middle" x="575.79" y="-227" font-family="Arial" font-size="10.00" fill="white">Buf</text>
</a>
</g>
</g>
<!-- supriya.ugens.bufio.RecordBuf -->
<g id="node13" class="node">
<title>supriya.ugens.bufio.RecordBuf</title>
<g id="a_node13"><a xlink:href="../api/supriya/ugens/bufio.html#supriya.ugens.bufio.RecordBuf" xlink:title="Record\nBuf" target="_top">
<path fill="black" stroke="black" stroke-width="2" d="M589.79,-46C589.79,-46 561.79,-46 561.79,-46 556.79,-46 551.79,-41 551.79,-36 551.79,-36 551.79,-26 551.79,-26 551.79,-21 556.79,-16 561.79,-16 561.79,-16 589.79,-16 589.79,-16 594.79,-16 599.79,-21 599.79,-26 599.79,-26 599.79,-36 599.79,-36 599.79,-41 594.79,-46 589.79,-46"/>
<text text-anchor="middle" x="575.79" y="-34" font-family="Arial" font-size="10.00" fill="white">Record</text>
<text text-anchor="middle" x="575.79" y="-23" font-family="Arial" font-size="10.00" fill="white">Buf</text>
</a>
</g>
</g>
</g>
</svg>
