<?xml version="1.0" encoding="UTF-8" standalone="no"?>
<!DOCTYPE svg PUBLIC "-//W3C//DTD SVG 1.1//EN"
 "http://www.w3.org/Graphics/SVG/1.1/DTD/svg11.dtd">
<!-- Generated by graphviz version 2.40.1 (20161225.0304)
 -->
<!-- Title: InheritanceGraph Pages: 1 -->
<svg width="489pt" height="282pt"
 viewBox="0.00 0.00 488.55 282.00" xmlns="http://www.w3.org/2000/svg" xmlns:xlink="http://www.w3.org/1999/xlink">
<g id="graph0" class="graph" transform="scale(1 1) rotate(0) translate(4 278)">
<title>InheritanceGraph</title>
<g id="clust1" class="cluster">
<title>cluster_builtins</title>
<path fill="transparent" stroke="#bcd2ee" stroke-width="2" stroke-dasharray="5,2" d="M20,-140C20,-140 49,-140 49,-140 55,-140 61,-146 61,-152 61,-152 61,-183 61,-183 61,-189 55,-195 49,-195 49,-195 20,-195 20,-195 14,-195 8,-189 8,-183 8,-183 8,-152 8,-152 8,-146 14,-140 20,-140"/>
<text text-anchor="middle" x="34.5" y="-183" font-family="Arial" font-size="10.00" fill="#000000">builtins</text>
</g>
<g id="clust2" class="cluster">
<title>cluster_collections.abc</title>
<path fill="transparent" stroke="#bcd2ee" stroke-width="2" stroke-dasharray="5,2" d="M93,-115C93,-115 370.5462,-115 370.5462,-115 376.5462,-115 382.5462,-121 382.5462,-127 382.5462,-127 382.5462,-254 382.5462,-254 382.5462,-260 376.5462,-266 370.5462,-266 370.5462,-266 93,-266 93,-266 87,-266 81,-260 81,-254 81,-254 81,-127 81,-127 81,-121 87,-115 93,-115"/>
<text text-anchor="middle" x="231.7731" y="-254" font-family="Arial" font-size="10.00" fill="#000000">collections.abc</text>
</g>
<g id="clust4" class="cluster">
<title>cluster_supriya.system</title>
<path fill="transparent" stroke="#bcd2ee" stroke-width="2" stroke-dasharray="5,2" d="M106.6482,-25C106.6482,-25 248.066,-25 248.066,-25 254.066,-25 260.066,-31 260.066,-37 260.066,-37 260.066,-90 260.066,-90 260.066,-96 254.066,-102 248.066,-102 248.066,-102 106.6482,-102 106.6482,-102 100.6482,-102 94.6482,-96 94.6482,-90 94.6482,-90 94.6482,-37 94.6482,-37 94.6482,-31 100.6482,-25 106.6482,-25"/>
<text text-anchor="middle" x="177.3571" y="-90" font-family="Arial" font-size="10.00" fill="#000000">supriya.system</text>
</g>
<g id="clust3" class="cluster">
<title>cluster_supriya.commands</title>
<path fill="transparent" stroke="#bcd2ee" stroke-width="2" stroke-dasharray="5,2" d="M318.1909,-8C318.1909,-8 460.5462,-8 460.5462,-8 466.5462,-8 472.5462,-14 472.5462,-20 472.5462,-20 472.5462,-95 472.5462,-95 472.5462,-101 466.5462,-107 460.5462,-107 460.5462,-107 318.1909,-107 318.1909,-107 312.1909,-107 306.1909,-101 306.1909,-95 306.1909,-95 306.1909,-20 306.1909,-20 306.1909,-14 312.1909,-8 318.1909,-8"/>
<text text-anchor="middle" x="389.3686" y="-95" font-family="Arial" font-size="10.00" fill="#000000">supriya.commands</text>
</g>
<!-- builtins.object&#45;&gt;collections.abc.Container -->
<g id="edge9" class="edge">
<title>builtins.object&#45;&gt;collections.abc.Container</title>
<path fill="none" stroke="#778899" d="M53.406,-162.8777C62.5628,-165.2401 73.9119,-168.1682 84.7979,-170.9767"/>
<polygon fill="#778899" stroke="#778899" points="84.0315,-174.3935 94.5888,-173.5028 85.7803,-167.6155 84.0315,-174.3935"/>
</g>
<!-- builtins.object&#45;&gt;collections.abc.Iterable -->
<g id="edge10" class="edge">
<title>builtins.object&#45;&gt;collections.abc.Iterable</title>
<path fill="none" stroke="#778899" d="M43.0936,-167.7597C51.9572,-177.46 66.495,-192.3842 81,-203 85.0306,-205.9499 89.4858,-208.7687 93.9517,-211.3585"/>
<polygon fill="#778899" stroke="#778899" points="92.5502,-214.5816 103.0012,-216.3215 95.9162,-208.444 92.5502,-214.5816"/>
</g>
<!-- builtins.object&#45;&gt;collections.abc.Sized -->
<g id="edge11" class="edge">
<title>builtins.object&#45;&gt;collections.abc.Sized</title>
<path fill="none" stroke="#778899" d="M53.406,-153.3344C64.3757,-150.6273 78.4915,-147.1438 91.1883,-144.0105"/>
<polygon fill="#778899" stroke="#778899" points="92.1093,-147.3883 100.9794,-141.5942 90.4321,-140.5921 92.1093,-147.3883"/>
</g>
<!-- builtins.object&#45;&gt;supriya.system.SupriyaObject.SupriyaObject -->
<g id="edge12" class="edge">
<title>builtins.object&#45;&gt;supriya.system.SupriyaObject.SupriyaObject</title>
<path fill="none" stroke="#778899" d="M43.0479,-148.3157C56.8823,-132.6422 84.5455,-101.3012 103.5715,-79.7459"/>
<polygon fill="#778899" stroke="#778899" points="106.4001,-81.8302 110.3936,-72.0168 101.152,-77.1979 106.4001,-81.8302"/>
</g>
<!-- collections.abc.Collection&#45;&gt;collections.abc.Sequence -->
<g id="edge1" class="edge">
<title>collections.abc.Collection&#45;&gt;collections.abc.Sequence</title>
<path fill="none" stroke="#778899" d="M265.8726,-181C274.664,-181 284.237,-181 293.4765,-181"/>
<polygon fill="#778899" stroke="#778899" points="293.7073,-184.5001 303.7072,-181 293.7072,-177.5001 293.7073,-184.5001"/>
</g>
<!-- collections.abc.Container&#45;&gt;collections.abc.Collection -->
<g id="edge2" class="edge">
<title>collections.abc.Container&#45;&gt;collections.abc.Collection</title>
<path fill="none" stroke="#778899" d="M158.5237,-181C167.3366,-181 176.9241,-181 186.1551,-181"/>
<polygon fill="#778899" stroke="#778899" points="186.3656,-184.5001 196.3655,-181 186.3655,-177.5001 186.3656,-184.5001"/>
</g>
<!-- collections.abc.Iterable&#45;&gt;collections.abc.Collection -->
<g id="edge3" class="edge">
<title>collections.abc.Iterable&#45;&gt;collections.abc.Collection</title>
<path fill="none" stroke="#778899" d="M145.645,-216.785C160.6275,-210.5085 180.7393,-202.0831 197.6844,-194.9844"/>
<polygon fill="#778899" stroke="#778899" points="199.3618,-198.0765 207.2328,-190.9843 196.657,-191.6201 199.3618,-198.0765"/>
</g>
<!-- collections.abc.Iterable&#45;&gt;collections.abc.Reversible -->
<g id="edge4" class="edge">
<title>collections.abc.Iterable&#45;&gt;collections.abc.Reversible</title>
<path fill="none" stroke="#778899" d="M153.5701,-226C162.9749,-226 173.5992,-226 183.8979,-226"/>
<polygon fill="#778899" stroke="#778899" points="184.0308,-229.5001 194.0308,-226 184.0307,-222.5001 184.0308,-229.5001"/>
</g>
<!-- collections.abc.Reversible&#45;&gt;collections.abc.Sequence -->
<g id="edge5" class="edge">
<title>collections.abc.Reversible&#45;&gt;collections.abc.Sequence</title>
<path fill="none" stroke="#778899" d="M255.3314,-215.9011C270.078,-209.7638 289.1262,-201.8362 305.3407,-195.088"/>
<polygon fill="#778899" stroke="#778899" points="307.1191,-198.1389 315.0066,-191.0652 304.4294,-191.6763 307.1191,-198.1389"/>
</g>
<!-- collections.abc.Sequence&#45;&gt;supriya.commands.ControlBusSetContiguousResponse.ControlBusSetContiguousResponse -->
<g id="edge13" class="edge">
<title>collections.abc.Sequence&#45;&gt;supriya.commands.ControlBusSetContiguousResponse.ControlBusSetContiguousResponse</title>
<path fill="none" stroke="#778899" d="M348.9812,-167.7612C362.6318,-149.3023 387.9671,-115.0429 408.0542,-87.8803"/>
<polygon fill="#778899" stroke="#778899" points="410.9691,-89.8251 414.1009,-79.7037 405.3409,-85.6629 410.9691,-89.8251"/>
</g>
<!-- collections.abc.Sized&#45;&gt;collections.abc.Collection -->
<g id="edge6" class="edge">
<title>collections.abc.Sized&#45;&gt;collections.abc.Collection</title>
<path fill="none" stroke="#778899" d="M143.3503,-144.2537C158.5793,-150.6335 180.0049,-159.6092 197.8683,-167.0926"/>
<polygon fill="#778899" stroke="#778899" points="196.7882,-170.4348 207.3639,-171.0706 199.4929,-163.9785 196.7882,-170.4348"/>
</g>
<!-- supriya.commands.Response.Response&#45;&gt;supriya.commands.ControlBusSetContiguousResponse.ControlBusSetContiguousResponse -->
<g id="edge7" class="edge">
<title>supriya.commands.Response.Response&#45;&gt;supriya.commands.ControlBusSetContiguousResponse.ControlBusSetContiguousResponse</title>
<path fill="none" stroke="#778899" d="M364.2646,-50.2352C375.1815,-49.9022 388.2039,-49.505 400.2219,-49.1385"/>
<polygon fill="#778899" stroke="#778899" points="400.5579,-52.6299 410.4465,-48.8266 400.3444,-45.6332 400.5579,-52.6299"/>
</g>
<!-- supriya.system.SupriyaObject.SupriyaObject&#45;&gt;supriya.system.SupriyaValueObject.SupriyaValueObject -->
<g id="edge8" class="edge">
<title>supriya.system.SupriyaObject.SupriyaObject&#45;&gt;supriya.system.SupriyaValueObject.SupriyaValueObject</title>
<path fill="none" stroke="#778899" d="M144.8705,-56.4073C160.4656,-55.9718 181.9141,-55.3727 199.5137,-54.8812"/>
<polygon fill="#778899" stroke="#778899" points="199.9894,-58.3694 209.8878,-54.5915 199.794,-51.3721 199.9894,-58.3694"/>
</g>
<!-- supriya.system.SupriyaValueObject.SupriyaValueObject&#45;&gt;supriya.commands.Response.Response -->
<g id="edge14" class="edge">
<title>supriya.system.SupriyaValueObject.SupriyaValueObject&#45;&gt;supriya.commands.Response.Response</title>
<path fill="none" stroke="#778899" d="M252.1703,-53.4144C266.8279,-53.0078 286.7124,-52.4561 303.7736,-51.9827"/>
<polygon fill="#778899" stroke="#778899" points="304.0608,-55.4762 313.9598,-51.7001 303.8666,-48.4788 304.0608,-55.4762"/>
</g>
<!-- builtins.object -->
<g id="node1" class="node">
<title>builtins.object</title>
<g id="a_node1"><a xlink:href="https://docs.python.org/3.6/library/functions.html#object" xlink:title="object" target="_top">
<path fill="#fbb4ae" stroke="#fbb4ae" stroke-width="2" d="M46.6667,-167.5C46.6667,-167.5 22.3333,-167.5 22.3333,-167.5 19.1667,-167.5 16,-164.3333 16,-161.1667 16,-161.1667 16,-154.8333 16,-154.8333 16,-151.6667 19.1667,-148.5 22.3333,-148.5 22.3333,-148.5 46.6667,-148.5 46.6667,-148.5 49.8333,-148.5 53,-151.6667 53,-154.8333 53,-154.8333 53,-161.1667 53,-161.1667 53,-164.3333 49.8333,-167.5 46.6667,-167.5"/>
<text text-anchor="middle" x="34.5" y="-155.5" font-family="Arial" font-size="10.00" fill="#000000">object</text>
</a>
</g>
</g>
<!-- collections.abc.Collection -->
<g id="node2" class="node">
<title>collections.abc.Collection</title>
<g id="a_node2"><a xlink:href="https://docs.python.org/3.6/library/collections.abc.html#collections.abc.Collection" xlink:title="Collection" target="_top">
<ellipse fill="none" stroke="#b3cde3" stroke-width="2" cx="231.066" cy="-181" rx="34.7971" ry="13.3704"/>
<text text-anchor="middle" x="231.066" y="-178.5" font-family="Arial" font-size="10.00" fill="#000000">Collection</text>
</a>
</g>
</g>
<!-- collections.abc.Container -->
<g id="node3" class="node">
<title>collections.abc.Container</title>
<g id="a_node3"><a xlink:href="https://docs.python.org/3.6/library/collections.abc.html#collections.abc.Container" xlink:title="Container" target="_top">
<ellipse fill="none" stroke="#b3cde3" stroke-width="2" cx="123.6482" cy="-181" rx="34.7971" ry="13.3704"/>
<text text-anchor="middle" x="123.6482" y="-178.5" font-family="Arial" font-size="10.00" fill="#000000">Container</text>
</a>
</g>
</g>
<!-- collections.abc.Iterable -->
<g id="node4" class="node">
<title>collections.abc.Iterable</title>
<g id="a_node4"><a xlink:href="https://docs.python.org/3.6/library/collections.abc.html#collections.abc.Iterable" xlink:title="Iterable" target="_top">
<ellipse fill="none" stroke="#b3cde3" stroke-width="2" cx="123.6482" cy="-226" rx="29.8983" ry="13.3704"/>
<text text-anchor="middle" x="123.6482" y="-223.5" font-family="Arial" font-size="10.00" fill="#000000">Iterable</text>
</a>
</g>
</g>
<!-- collections.abc.Reversible -->
<g id="node5" class="node">
<title>collections.abc.Reversible</title>
<g id="a_node5"><a xlink:href="https://docs.python.org/3.6/library/collections.abc.html#collections.abc.Reversible" xlink:title="Reversible" target="_top">
<ellipse fill="none" stroke="#b3cde3" stroke-width="2" cx="231.066" cy="-226" rx="36.5405" ry="13.3704"/>
<text text-anchor="middle" x="231.066" y="-223.5" font-family="Arial" font-size="10.00" fill="#000000">Reversible</text>
</a>
</g>
</g>
<!-- collections.abc.Sequence -->
<g id="node6" class="node">
<title>collections.abc.Sequence</title>
<g id="a_node6"><a xlink:href="https://docs.python.org/3.6/library/collections.abc.html#collections.abc.Sequence" xlink:title="Sequence" target="_top">
<ellipse fill="none" stroke="#b3cde3" stroke-width="2" cx="339.1909" cy="-181" rx="35.2113" ry="13.3704"/>
<text text-anchor="middle" x="339.1909" y="-178.5" font-family="Arial" font-size="10.00" fill="#000000">Sequence</text>
</a>
</g>
</g>
<!-- collections.abc.Sized -->
<g id="node7" class="node">
<title>collections.abc.Sized</title>
<g id="a_node7"><a xlink:href="https://docs.python.org/3.6/library/collections.abc.html#collections.abc.Sized" xlink:title="Sized" target="_top">
<ellipse fill="none" stroke="#b3cde3" stroke-width="2" cx="123.6482" cy="-136" rx="25" ry="13.3704"/>
<text text-anchor="middle" x="123.6482" y="-133.5" font-family="Arial" font-size="10.00" fill="#000000">Sized</text>
</a>
</g>
</g>
<!-- supriya.commands.ControlBusSetContiguousResponse.ControlBusSetContiguousResponse -->
<g id="node8" class="node">
<title>supriya.commands.ControlBusSetContiguousResponse.ControlBusSetContiguousResponse</title>
<g id="a_node8"><a xlink:href="../api/supriya/commands/ControlBusSetContiguousResponse.html#supriya.commands.ControlBusSetContiguousResponse.ControlBusSetContiguousResponse" xlink:title="Control\nBus\nSet\nContiguous\nResponse" target="_top">
<path fill="#000000" stroke="#000000" stroke-width="2" d="M452.5462,-79.5C452.5462,-79.5 422.5462,-79.5 422.5462,-79.5 416.5462,-79.5 410.5462,-73.5 410.5462,-67.5 410.5462,-67.5 410.5462,-28.5 410.5462,-28.5 410.5462,-22.5 416.5462,-16.5 422.5462,-16.5 422.5462,-16.5 452.5462,-16.5 452.5462,-16.5 458.5462,-16.5 464.5462,-22.5 464.5462,-28.5 464.5462,-28.5 464.5462,-67.5 464.5462,-67.5 464.5462,-73.5 458.5462,-79.5 452.5462,-79.5"/>
<text text-anchor="middle" x="437.5462" y="-67.5" font-family="Arial" font-size="10.00" fill="#ffffff">Control</text>
<text text-anchor="middle" x="437.5462" y="-56.5" font-family="Arial" font-size="10.00" fill="#ffffff">Bus</text>
<text text-anchor="middle" x="437.5462" y="-45.5" font-family="Arial" font-size="10.00" fill="#ffffff">Set</text>
<text text-anchor="middle" x="437.5462" y="-34.5" font-family="Arial" font-size="10.00" fill="#ffffff">Contiguous</text>
<text text-anchor="middle" x="437.5462" y="-23.5" font-family="Arial" font-size="10.00" fill="#ffffff">Response</text>
</a>
</g>
</g>
<!-- supriya.commands.Response.Response -->
<g id="node9" class="node">
<title>supriya.commands.Response.Response</title>
<g id="a_node9"><a xlink:href="../api/supriya/commands/Response.html#supriya.commands.Response.Response" xlink:title="Response" target="_top">
<path fill="#ccebc5" stroke="#ccebc5" stroke-width="2" d="M357.8576,-60.5C357.8576,-60.5 320.5242,-60.5 320.5242,-60.5 317.3576,-60.5 314.1909,-57.3333 314.1909,-54.1667 314.1909,-54.1667 314.1909,-47.8333 314.1909,-47.8333 314.1909,-44.6667 317.3576,-41.5 320.5242,-41.5 320.5242,-41.5 357.8576,-41.5 357.8576,-41.5 361.0242,-41.5 364.1909,-44.6667 364.1909,-47.8333 364.1909,-47.8333 364.1909,-54.1667 364.1909,-54.1667 364.1909,-57.3333 361.0242,-60.5 357.8576,-60.5"/>
<text text-anchor="middle" x="339.1909" y="-48.5" font-family="Arial" font-size="10.00" fill="#000000">Response</text>
</a>
</g>
</g>
<!-- supriya.system.SupriyaObject.SupriyaObject -->
<g id="node10" class="node">
<title>supriya.system.SupriyaObject.SupriyaObject</title>
<g id="a_node10"><a xlink:href="../api/supriya/commands/../system/SupriyaObject.html#supriya.system.SupriyaObject.SupriyaObject" xlink:title="Supriya\nObject" target="_top">
<path fill="#decbe4" stroke="#decbe4" stroke-width="2" d="M134.6482,-72C134.6482,-72 112.6482,-72 112.6482,-72 107.6482,-72 102.6482,-67 102.6482,-62 102.6482,-62 102.6482,-52 102.6482,-52 102.6482,-47 107.6482,-42 112.6482,-42 112.6482,-42 134.6482,-42 134.6482,-42 139.6482,-42 144.6482,-47 144.6482,-52 144.6482,-52 144.6482,-62 144.6482,-62 144.6482,-67 139.6482,-72 134.6482,-72"/>
<text text-anchor="middle" x="123.6482" y="-60" font-family="Arial" font-size="10.00" fill="#000000">Supriya</text>
<text text-anchor="middle" x="123.6482" y="-49" font-family="Arial" font-size="10.00" fill="#000000">Object</text>
</a>
</g>
</g>
<!-- supriya.system.SupriyaValueObject.SupriyaValueObject -->
<g id="node11" class="node">
<title>supriya.system.SupriyaValueObject.SupriyaValueObject</title>
<g id="a_node11"><a xlink:href="../api/supriya/commands/../system/SupriyaValueObject.html#supriya.system.SupriyaValueObject.SupriyaValueObject" xlink:title="Supriya\nValue\nObject" target="_top">
<path fill="#decbe4" stroke="#decbe4" stroke-width="2" d="M240.066,-74.5C240.066,-74.5 222.066,-74.5 222.066,-74.5 216.066,-74.5 210.066,-68.5 210.066,-62.5 210.066,-62.5 210.066,-45.5 210.066,-45.5 210.066,-39.5 216.066,-33.5 222.066,-33.5 222.066,-33.5 240.066,-33.5 240.066,-33.5 246.066,-33.5 252.066,-39.5 252.066,-45.5 252.066,-45.5 252.066,-62.5 252.066,-62.5 252.066,-68.5 246.066,-74.5 240.066,-74.5"/>
<text text-anchor="middle" x="231.066" y="-62.5" font-family="Arial" font-size="10.00" fill="#000000">Supriya</text>
<text text-anchor="middle" x="231.066" y="-51.5" font-family="Arial" font-size="10.00" fill="#000000">Value</text>
<text text-anchor="middle" x="231.066" y="-40.5" font-family="Arial" font-size="10.00" fill="#000000">Object</text>
</a>
</g>
</g>
</g>
</svg>
