<?xml version="1.0" encoding="UTF-8" standalone="no"?>
<!DOCTYPE svg PUBLIC "-//W3C//DTD SVG 1.1//EN"
 "http://www.w3.org/Graphics/SVG/1.1/DTD/svg11.dtd">
<!-- Generated by graphviz version 2.44.1 (20200629.0846)
 -->
<!-- Title: InheritanceGraph Pages: 1 -->
<svg width="546pt" height="101pt"
 viewBox="0.00 0.00 545.76 101.00" xmlns="http://www.w3.org/2000/svg" xmlns:xlink="http://www.w3.org/1999/xlink">
<g id="graph0" class="graph" transform="scale(1 1) rotate(0) translate(4 97)">
<title>InheritanceGraph</title>
<g id="clust1" class="cluster">
<title>cluster_builtins</title>
<path fill="transparent" stroke="#bcd2ee" stroke-width="2" stroke-dasharray="5,2" d="M20,-19C20,-19 55,-19 55,-19 61,-19 67,-25 67,-31 67,-31 67,-62 67,-62 67,-68 61,-74 55,-74 55,-74 20,-74 20,-74 14,-74 8,-68 8,-62 8,-62 8,-31 8,-31 8,-25 14,-19 20,-19"/>
<text text-anchor="middle" x="37.5" y="-62" font-family="Arial" font-size="10.00">builtins</text>
</g>
<g id="clust2" class="cluster">
<title>cluster_supriya.patterns</title>
<path fill="transparent" stroke="#bcd2ee" stroke-width="2" stroke-dasharray="5,2" d="M271,-8C271,-8 517.76,-8 517.76,-8 523.76,-8 529.76,-14 529.76,-20 529.76,-20 529.76,-73 529.76,-73 529.76,-79 523.76,-85 517.76,-85 517.76,-85 271,-85 271,-85 265,-85 259,-79 259,-73 259,-73 259,-20 259,-20 259,-14 265,-8 271,-8"/>
<text text-anchor="middle" x="394.38" y="-73" font-family="Arial" font-size="10.00">supriya.patterns</text>
</g>
<g id="clust3" class="cluster">
<title>cluster_supriya.system</title>
<path fill="transparent" stroke="#bcd2ee" stroke-width="2" stroke-dasharray="5,2" d="M99,-8C99,-8 227,-8 227,-8 233,-8 239,-14 239,-20 239,-20 239,-73 239,-73 239,-79 233,-85 227,-85 227,-85 99,-85 99,-85 93,-85 87,-79 87,-73 87,-73 87,-20 87,-20 87,-14 93,-8 99,-8"/>
<text text-anchor="middle" x="163" y="-73" font-family="Arial" font-size="10.00">supriya.system</text>
</g>
<!-- builtins.object&#45;&gt;supriya.system.SupriyaObject -->
<g id="edge4" class="edge">
<title>builtins.object&#45;&gt;supriya.system.SupriyaObject</title>
<path fill="none" stroke="lightslategrey" d="M59.23,-37C66.98,-37 76,-37 84.66,-37"/>
<polygon fill="lightslategrey" stroke="lightslategrey" points="84.91,-40.5 94.91,-37 84.91,-33.5 84.91,-40.5"/>
</g>
<!-- supriya.patterns.EventPattern.EventPattern&#45;&gt;supriya.patterns.Pchain.Pchain -->
<g id="edge1" class="edge">
<title>supriya.patterns.EventPattern.EventPattern&#45;&gt;supriya.patterns.Pchain.Pchain</title>
<path fill="none" stroke="lightslategrey" d="M438.84,-37C447.18,-37 456.14,-37 464.47,-37"/>
<polygon fill="lightslategrey" stroke="lightslategrey" points="464.6,-40.5 474.6,-37 464.6,-33.5 464.6,-40.5"/>
</g>
<!-- supriya.patterns.Pattern.Pattern&#45;&gt;supriya.patterns.EventPattern.EventPattern -->
<g id="edge2" class="edge">
<title>supriya.patterns.Pattern.Pattern&#45;&gt;supriya.patterns.EventPattern.EventPattern</title>
<path fill="none" stroke="lightslategrey" d="M335.02,-37C343.12,-37 351.9,-37 360.4,-37"/>
<polygon fill="lightslategrey" stroke="lightslategrey" points="360.56,-40.5 370.56,-37 360.56,-33.5 360.56,-40.5"/>
</g>
<!-- supriya.system.SupriyaObject&#45;&gt;supriya.system.SupriyaValueObject -->
<g id="edge3" class="edge">
<title>supriya.system.SupriyaObject&#45;&gt;supriya.system.SupriyaValueObject</title>
<path fill="none" stroke="lightslategrey" d="M145.3,-37C153.22,-37 162.17,-37 170.69,-37"/>
<polygon fill="lightslategrey" stroke="lightslategrey" points="170.76,-40.5 180.76,-37 170.76,-33.5 170.76,-40.5"/>
</g>
<!-- supriya.system.SupriyaValueObject&#45;&gt;supriya.patterns.Pattern.Pattern -->
<g id="edge5" class="edge">
<title>supriya.system.SupriyaValueObject&#45;&gt;supriya.patterns.Pattern.Pattern</title>
<path fill="none" stroke="lightslategrey" d="M231.42,-37C239.23,-37 248.12,-37 256.85,-37"/>
<polygon fill="lightslategrey" stroke="lightslategrey" points="256.95,-40.5 266.95,-37 256.95,-33.5 256.95,-40.5"/>
</g>
<!-- builtins.object -->
<g id="node1" class="node">
<title>builtins.object</title>
<g id="a_node1"><a xlink:href="https://docs.python.org/3/library/functions.html#object" xlink:title="object" target="_top">
<path fill="#fbb4ae" stroke="#fbb4ae" stroke-width="2" d="M52.67,-46.5C52.67,-46.5 22.33,-46.5 22.33,-46.5 19.17,-46.5 16,-43.33 16,-40.17 16,-40.17 16,-33.83 16,-33.83 16,-30.67 19.17,-27.5 22.33,-27.5 22.33,-27.5 52.67,-27.5 52.67,-27.5 55.83,-27.5 59,-30.67 59,-33.83 59,-33.83 59,-40.17 59,-40.17 59,-43.33 55.83,-46.5 52.67,-46.5"/>
<text text-anchor="middle" x="37.5" y="-34.5" font-family="Arial" font-size="10.00">object</text>
</a>
</g>
</g>
<!-- supriya.patterns.EventPattern.EventPattern -->
<g id="node2" class="node">
<title>supriya.patterns.EventPattern.EventPattern</title>
<g id="a_node2"><a xlink:href="../api/supriya/patterns/EventPattern.html#supriya.patterns.EventPattern.EventPattern" xlink:title="Event\nPattern" target="_top">
<ellipse fill="none" stroke="#b3cde3" stroke-width="2" cx="404.82" cy="-37" rx="33.88" ry="21.43"/>
<text text-anchor="middle" x="404.82" y="-40" font-family="Arial" font-size="10.00">Event</text>
<text text-anchor="middle" x="404.82" y="-29" font-family="Arial" font-size="10.00">Pattern</text>
</a>
</g>
</g>
<!-- supriya.patterns.Pattern.Pattern -->
<g id="node3" class="node">
<title>supriya.patterns.Pattern.Pattern</title>
<g id="a_node3"><a xlink:href="../api/supriya/patterns/Pattern.html#supriya.patterns.Pattern.Pattern" xlink:title="Pattern" target="_top">
<ellipse fill="none" stroke="#b3cde3" stroke-width="2" cx="300.94" cy="-37" rx="33.88" ry="13.37"/>
<text text-anchor="middle" x="300.94" y="-34.5" font-family="Arial" font-size="10.00">Pattern</text>
</a>
</g>
</g>
<!-- supriya.patterns.Pchain.Pchain -->
<g id="node4" class="node">
<title>supriya.patterns.Pchain.Pchain</title>
<g id="a_node4"><a xlink:href="../api/supriya/patterns/Pchain.html#supriya.patterns.Pchain.Pchain" xlink:title="Pchain" target="_top">
<path fill="black" stroke="black" stroke-width="2" d="M515.43,-46.5C515.43,-46.5 481.1,-46.5 481.1,-46.5 477.93,-46.5 474.76,-43.33 474.76,-40.17 474.76,-40.17 474.76,-33.83 474.76,-33.83 474.76,-30.67 477.93,-27.5 481.1,-27.5 481.1,-27.5 515.43,-27.5 515.43,-27.5 518.6,-27.5 521.76,-30.67 521.76,-33.83 521.76,-33.83 521.76,-40.17 521.76,-40.17 521.76,-43.33 518.6,-46.5 515.43,-46.5"/>
<text text-anchor="middle" x="498.26" y="-34.5" font-family="Arial" font-size="10.00" fill="white">Pchain</text>
</a>
</g>
</g>
<!-- supriya.system.SupriyaObject -->
<g id="node5" class="node">
<title>supriya.system.SupriyaObject</title>
<g id="a_node5"><a xlink:href="../api/supriya/patterns/../system.html#supriya.system.SupriyaObject" xlink:title="Supriya\nObject" target="_top">
<path fill="#ccebc5" stroke="#ccebc5" stroke-width="2" d="M135,-52C135,-52 105,-52 105,-52 100,-52 95,-47 95,-42 95,-42 95,-32 95,-32 95,-27 100,-22 105,-22 105,-22 135,-22 135,-22 140,-22 145,-27 145,-32 145,-32 145,-42 145,-42 145,-47 140,-52 135,-52"/>
<text text-anchor="middle" x="120" y="-40" font-family="Arial" font-size="10.00">Supriya</text>
<text text-anchor="middle" x="120" y="-29" font-family="Arial" font-size="10.00">Object</text>
</a>
</g>
</g>
<!-- supriya.system.SupriyaValueObject -->
<g id="node6" class="node">
<title>supriya.system.SupriyaValueObject</title>
<g id="a_node6"><a xlink:href="../api/supriya/patterns/../system.html#supriya.system.SupriyaValueObject" xlink:title="Supriya\nValue\nObject" target="_top">
<path fill="#ccebc5" stroke="#ccebc5" stroke-width="2" d="M219,-57.5C219,-57.5 193,-57.5 193,-57.5 187,-57.5 181,-51.5 181,-45.5 181,-45.5 181,-28.5 181,-28.5 181,-22.5 187,-16.5 193,-16.5 193,-16.5 219,-16.5 219,-16.5 225,-16.5 231,-22.5 231,-28.5 231,-28.5 231,-45.5 231,-45.5 231,-51.5 225,-57.5 219,-57.5"/>
<text text-anchor="middle" x="206" y="-45.5" font-family="Arial" font-size="10.00">Supriya</text>
<text text-anchor="middle" x="206" y="-34.5" font-family="Arial" font-size="10.00">Value</text>
<text text-anchor="middle" x="206" y="-23.5" font-family="Arial" font-size="10.00">Object</text>
</a>
</g>
</g>
</g>
</svg>
