<?xml version="1.0" encoding="UTF-8" standalone="no"?>
<!DOCTYPE svg PUBLIC "-//W3C//DTD SVG 1.1//EN"
 "http://www.w3.org/Graphics/SVG/1.1/DTD/svg11.dtd">
<!-- Generated by graphviz version 2.44.1 (20200629.0846)
 -->
<!-- Title: InheritanceGraph Pages: 1 -->
<svg width="465pt" height="187pt"
 viewBox="0.00 0.00 464.64 187.00" xmlns="http://www.w3.org/2000/svg" xmlns:xlink="http://www.w3.org/1999/xlink">
<g id="graph0" class="graph" transform="scale(1 1) rotate(0) translate(4 183)">
<title>InheritanceGraph</title>
<g id="clust1" class="cluster">
<title>cluster_builtins</title>
<path fill="transparent" stroke="#bcd2ee" stroke-width="2" stroke-dasharray="5,2" d="M20,-102C20,-102 55,-102 55,-102 61,-102 67,-108 67,-114 67,-114 67,-145 67,-145 67,-151 61,-157 55,-157 55,-157 20,-157 20,-157 14,-157 8,-151 8,-145 8,-145 8,-114 8,-114 8,-108 14,-102 20,-102"/>
<text text-anchor="middle" x="37.5" y="-145" font-family="Arial" font-size="10.00">builtins</text>
</g>
<g id="clust2" class="cluster">
<title>cluster_supriya.realtime.bases</title>
<path fill="transparent" stroke="#bcd2ee" stroke-width="2" stroke-dasharray="5,2" d="M185,-9C185,-9 275.64,-9 275.64,-9 281.64,-9 287.64,-15 287.64,-21 287.64,-21 287.64,-74 287.64,-74 287.64,-80 281.64,-86 275.64,-86 275.64,-86 185,-86 185,-86 179,-86 173,-80 173,-74 173,-74 173,-21 173,-21 173,-15 179,-9 185,-9"/>
<text text-anchor="middle" x="230.32" y="-74" font-family="Arial" font-size="10.00">supriya.realtime.bases</text>
</g>
<g id="clust3" class="cluster">
<title>cluster_supriya.realtime.buses</title>
<path fill="transparent" stroke="#bcd2ee" stroke-width="2" stroke-dasharray="5,2" d="M319.64,-8C319.64,-8 436.64,-8 436.64,-8 442.64,-8 448.64,-14 448.64,-20 448.64,-20 448.64,-153 448.64,-153 448.64,-159 442.64,-165 436.64,-165 436.64,-165 319.64,-165 319.64,-165 313.64,-165 307.64,-159 307.64,-153 307.64,-153 307.64,-20 307.64,-20 307.64,-14 313.64,-8 319.64,-8"/>
<text text-anchor="middle" x="378.14" y="-153" font-family="Arial" font-size="10.00">supriya.realtime.buses</text>
</g>
<g id="clust4" class="cluster">
<title>cluster_supriya.system</title>
<path fill="transparent" stroke="#bcd2ee" stroke-width="2" stroke-dasharray="5,2" d="M99,-94C99,-94 250.82,-94 250.82,-94 256.82,-94 262.82,-100 262.82,-106 262.82,-106 262.82,-159 262.82,-159 262.82,-165 256.82,-171 250.82,-171 250.82,-171 99,-171 99,-171 93,-171 87,-165 87,-159 87,-159 87,-106 87,-106 87,-100 93,-94 99,-94"/>
<text text-anchor="middle" x="174.91" y="-159" font-family="Arial" font-size="10.00">supriya.system</text>
</g>
<!-- builtins.object&#45;&gt;supriya.system.SupriyaObject -->
<g id="edge4" class="edge">
<title>builtins.object&#45;&gt;supriya.system.SupriyaObject</title>
<path fill="none" stroke="lightslategrey" d="M59.23,-120C66.98,-120 76,-120 84.66,-120"/>
<polygon fill="lightslategrey" stroke="lightslategrey" points="84.91,-123.5 94.91,-120 84.91,-116.5 84.91,-123.5"/>
</g>
<!-- supriya.realtime.bases.ServerObject&#45;&gt;supriya.realtime.buses.Bus -->
<g id="edge5" class="edge">
<title>supriya.realtime.bases.ServerObject&#45;&gt;supriya.realtime.buses.Bus</title>
<path fill="none" stroke="lightslategrey" d="M257.4,-48.6C273.75,-55.12 294.59,-63.43 310.72,-69.86"/>
<polygon fill="lightslategrey" stroke="lightslategrey" points="309.49,-73.14 320.07,-73.59 312.08,-66.64 309.49,-73.14"/>
</g>
<!-- supriya.realtime.bases.ServerObject&#45;&gt;supriya.realtime.buses.BusGroup -->
<g id="edge6" class="edge">
<title>supriya.realtime.bases.ServerObject&#45;&gt;supriya.realtime.buses.BusGroup</title>
<path fill="none" stroke="lightslategrey" d="M261.85,-37.71C275.54,-37.58 291.6,-37.42 305.27,-37.29"/>
<polygon fill="lightslategrey" stroke="lightslategrey" points="305.67,-40.79 315.64,-37.19 305.6,-33.79 305.67,-40.79"/>
</g>
<!-- supriya.realtime.buses.BusGroup&#45;&gt;supriya.realtime.buses.AudioInputBusGroup -->
<g id="edge1" class="edge">
<title>supriya.realtime.buses.BusGroup&#45;&gt;supriya.realtime.buses.AudioInputBusGroup</title>
<path fill="none" stroke="lightslategrey" d="M358.76,-38.31C366.99,-38.84 376.64,-39.45 385.68,-40.03"/>
<polygon fill="lightslategrey" stroke="lightslategrey" points="385.68,-43.53 395.88,-40.68 386.12,-36.55 385.68,-43.53"/>
</g>
<!-- supriya.realtime.buses.BusGroup&#45;&gt;supriya.realtime.buses.AudioOutputBusGroup -->
<g id="edge2" class="edge">
<title>supriya.realtime.buses.BusGroup&#45;&gt;supriya.realtime.buses.AudioOutputBusGroup</title>
<path fill="none" stroke="lightslategrey" d="M354.03,-52.18C363.49,-61.22 375.8,-72.98 387,-83.69"/>
<polygon fill="lightslategrey" stroke="lightslategrey" points="384.88,-86.5 394.53,-90.88 389.72,-81.44 384.88,-86.5"/>
</g>
<!-- supriya.system.SupriyaObject&#45;&gt;supriya.realtime.bases.ServerObject -->
<g id="edge7" class="edge">
<title>supriya.system.SupriyaObject&#45;&gt;supriya.realtime.bases.ServerObject</title>
<path fill="none" stroke="lightslategrey" d="M140.78,-104.96C157.33,-92.37 181.18,-74.23 199.88,-60.01"/>
<polygon fill="lightslategrey" stroke="lightslategrey" points="202.23,-62.62 208.07,-53.78 197.99,-57.05 202.23,-62.62"/>
</g>
<!-- supriya.system.SupriyaObject&#45;&gt;supriya.system.SupriyaValueObject -->
<g id="edge3" class="edge">
<title>supriya.system.SupriyaObject&#45;&gt;supriya.system.SupriyaValueObject</title>
<path fill="none" stroke="lightslategrey" d="M145.2,-120.67C159.76,-121.08 178.54,-121.6 194.61,-122.05"/>
<polygon fill="lightslategrey" stroke="lightslategrey" points="194.61,-125.55 204.7,-122.33 194.8,-118.55 194.61,-125.55"/>
</g>
<!-- supriya.system.SupriyaValueObject&#45;&gt;supriya.realtime.buses.BusProxy -->
<g id="edge8" class="edge">
<title>supriya.system.SupriyaValueObject&#45;&gt;supriya.realtime.buses.BusProxy</title>
<path fill="none" stroke="lightslategrey" d="M254.98,-123C270.13,-123 289.77,-123 305.94,-123"/>
<polygon fill="lightslategrey" stroke="lightslategrey" points="305.98,-126.5 315.98,-123 305.98,-119.5 305.98,-126.5"/>
</g>
<!-- builtins.object -->
<g id="node1" class="node">
<title>builtins.object</title>
<g id="a_node1"><a xlink:href="https://docs.python.org/3/library/functions.html#object" xlink:title="object" target="_top">
<path fill="#fbb4ae" stroke="#fbb4ae" stroke-width="2" d="M52.67,-129.5C52.67,-129.5 22.33,-129.5 22.33,-129.5 19.17,-129.5 16,-126.33 16,-123.17 16,-123.17 16,-116.83 16,-116.83 16,-113.67 19.17,-110.5 22.33,-110.5 22.33,-110.5 52.67,-110.5 52.67,-110.5 55.83,-110.5 59,-113.67 59,-116.83 59,-116.83 59,-123.17 59,-123.17 59,-126.33 55.83,-129.5 52.67,-129.5"/>
<text text-anchor="middle" x="37.5" y="-117.5" font-family="Arial" font-size="10.00">object</text>
</a>
</g>
</g>
<!-- supriya.realtime.bases.ServerObject -->
<g id="node2" class="node">
<title>supriya.realtime.bases.ServerObject</title>
<g id="a_node2"><a xlink:href="../api/supriya/realtime/bases.html#supriya.realtime.bases.ServerObject" xlink:title="Server\nObject" target="_top">
<ellipse fill="none" stroke="#b3cde3" stroke-width="2" cx="229.82" cy="-38" rx="31.64" ry="21.43"/>
<text text-anchor="middle" x="229.82" y="-41" font-family="Arial" font-size="10.00">Server</text>
<text text-anchor="middle" x="229.82" y="-30" font-family="Arial" font-size="10.00">Object</text>
</a>
</g>
</g>
<!-- supriya.realtime.buses.AudioInputBusGroup -->
<g id="node3" class="node">
<title>supriya.realtime.buses.AudioInputBusGroup</title>
<g id="a_node3"><a xlink:href="../api/supriya/realtime/buses.html#supriya.realtime.buses.AudioInputBusGroup" xlink:title="Audio\nInput\nBus\nGroup" target="_top">
<path fill="black" stroke="black" stroke-width="2" d="M427.14,-68C427.14,-68 408.14,-68 408.14,-68 402.14,-68 396.14,-62 396.14,-56 396.14,-56 396.14,-28 396.14,-28 396.14,-22 402.14,-16 408.14,-16 408.14,-16 427.14,-16 427.14,-16 433.14,-16 439.14,-22 439.14,-28 439.14,-28 439.14,-56 439.14,-56 439.14,-62 433.14,-68 427.14,-68"/>
<text text-anchor="middle" x="417.64" y="-56" font-family="Arial" font-size="10.00" fill="white">Audio</text>
<text text-anchor="middle" x="417.64" y="-45" font-family="Arial" font-size="10.00" fill="white">Input</text>
<text text-anchor="middle" x="417.64" y="-34" font-family="Arial" font-size="10.00" fill="white">Bus</text>
<text text-anchor="middle" x="417.64" y="-23" font-family="Arial" font-size="10.00" fill="white">Group</text>
</a>
</g>
</g>
<!-- supriya.realtime.buses.AudioOutputBusGroup -->
<g id="node4" class="node">
<title>supriya.realtime.buses.AudioOutputBusGroup</title>
<g id="a_node4"><a xlink:href="../api/supriya/realtime/buses.html#supriya.realtime.buses.AudioOutputBusGroup" xlink:title="Audio\nOutput\nBus\nGroup" target="_top">
<path fill="black" stroke="black" stroke-width="2" d="M428.64,-138C428.64,-138 406.64,-138 406.64,-138 400.64,-138 394.64,-132 394.64,-126 394.64,-126 394.64,-98 394.64,-98 394.64,-92 400.64,-86 406.64,-86 406.64,-86 428.64,-86 428.64,-86 434.64,-86 440.64,-92 440.64,-98 440.64,-98 440.64,-126 440.64,-126 440.64,-132 434.64,-138 428.64,-138"/>
<text text-anchor="middle" x="417.64" y="-126" font-family="Arial" font-size="10.00" fill="white">Audio</text>
<text text-anchor="middle" x="417.64" y="-115" font-family="Arial" font-size="10.00" fill="white">Output</text>
<text text-anchor="middle" x="417.64" y="-104" font-family="Arial" font-size="10.00" fill="white">Bus</text>
<text text-anchor="middle" x="417.64" y="-93" font-family="Arial" font-size="10.00" fill="white">Group</text>
</a>
</g>
</g>
<!-- supriya.realtime.buses.Bus -->
<g id="node5" class="node">
<title>supriya.realtime.buses.Bus</title>
<g id="a_node5"><a xlink:href="../api/supriya/realtime/buses.html#supriya.realtime.buses.Bus" xlink:title="Bus" target="_top">
<path fill="black" stroke="black" stroke-width="2" d="M347.81,-89.5C347.81,-89.5 326.47,-89.5 326.47,-89.5 323.31,-89.5 320.14,-86.33 320.14,-83.17 320.14,-83.17 320.14,-76.83 320.14,-76.83 320.14,-73.67 323.31,-70.5 326.47,-70.5 326.47,-70.5 347.81,-70.5 347.81,-70.5 350.97,-70.5 354.14,-73.67 354.14,-76.83 354.14,-76.83 354.14,-83.17 354.14,-83.17 354.14,-86.33 350.97,-89.5 347.81,-89.5"/>
<text text-anchor="middle" x="337.14" y="-77.5" font-family="Arial" font-size="10.00" fill="white">Bus</text>
</a>
</g>
</g>
<!-- supriya.realtime.buses.BusGroup -->
<g id="node6" class="node">
<title>supriya.realtime.buses.BusGroup</title>
<g id="a_node6"><a xlink:href="../api/supriya/realtime/buses.html#supriya.realtime.buses.BusGroup" xlink:title="Bus\nGroup" target="_top">
<path fill="black" stroke="black" stroke-width="2" d="M348.64,-52C348.64,-52 325.64,-52 325.64,-52 320.64,-52 315.64,-47 315.64,-42 315.64,-42 315.64,-32 315.64,-32 315.64,-27 320.64,-22 325.64,-22 325.64,-22 348.64,-22 348.64,-22 353.64,-22 358.64,-27 358.64,-32 358.64,-32 358.64,-42 358.64,-42 358.64,-47 353.64,-52 348.64,-52"/>
<text text-anchor="middle" x="337.14" y="-40" font-family="Arial" font-size="10.00" fill="white">Bus</text>
<text text-anchor="middle" x="337.14" y="-29" font-family="Arial" font-size="10.00" fill="white">Group</text>
</a>
</g>
</g>
<!-- supriya.realtime.buses.BusProxy -->
<g id="node7" class="node">
<title>supriya.realtime.buses.BusProxy</title>
<g id="a_node7"><a xlink:href="../api/supriya/realtime/buses.html#supriya.realtime.buses.BusProxy" xlink:title="Bus\nProxy" target="_top">
<path fill="black" stroke="black" stroke-width="2" d="M348.14,-138C348.14,-138 326.14,-138 326.14,-138 321.14,-138 316.14,-133 316.14,-128 316.14,-128 316.14,-118 316.14,-118 316.14,-113 321.14,-108 326.14,-108 326.14,-108 348.14,-108 348.14,-108 353.14,-108 358.14,-113 358.14,-118 358.14,-118 358.14,-128 358.14,-128 358.14,-133 353.14,-138 348.14,-138"/>
<text text-anchor="middle" x="337.14" y="-126" font-family="Arial" font-size="10.00" fill="white">Bus</text>
<text text-anchor="middle" x="337.14" y="-115" font-family="Arial" font-size="10.00" fill="white">Proxy</text>
</a>
</g>
</g>
<!-- supriya.system.SupriyaObject -->
<g id="node8" class="node">
<title>supriya.system.SupriyaObject</title>
<g id="a_node8"><a xlink:href="../api/supriya/realtime/../system.html#supriya.system.SupriyaObject" xlink:title="Supriya\nObject" target="_top">
<path fill="#decbe4" stroke="#decbe4" stroke-width="2" d="M135,-135C135,-135 105,-135 105,-135 100,-135 95,-130 95,-125 95,-125 95,-115 95,-115 95,-110 100,-105 105,-105 105,-105 135,-105 135,-105 140,-105 145,-110 145,-115 145,-115 145,-125 145,-125 145,-130 140,-135 135,-135"/>
<text text-anchor="middle" x="120" y="-123" font-family="Arial" font-size="10.00">Supriya</text>
<text text-anchor="middle" x="120" y="-112" font-family="Arial" font-size="10.00">Object</text>
</a>
</g>
</g>
<!-- supriya.system.SupriyaValueObject -->
<g id="node9" class="node">
<title>supriya.system.SupriyaValueObject</title>
<g id="a_node9"><a xlink:href="../api/supriya/realtime/../system.html#supriya.system.SupriyaValueObject" xlink:title="Supriya\nValue\nObject" target="_top">
<path fill="#decbe4" stroke="#decbe4" stroke-width="2" d="M242.82,-143.5C242.82,-143.5 216.82,-143.5 216.82,-143.5 210.82,-143.5 204.82,-137.5 204.82,-131.5 204.82,-131.5 204.82,-114.5 204.82,-114.5 204.82,-108.5 210.82,-102.5 216.82,-102.5 216.82,-102.5 242.82,-102.5 242.82,-102.5 248.82,-102.5 254.82,-108.5 254.82,-114.5 254.82,-114.5 254.82,-131.5 254.82,-131.5 254.82,-137.5 248.82,-143.5 242.82,-143.5"/>
<text text-anchor="middle" x="229.82" y="-131.5" font-family="Arial" font-size="10.00">Supriya</text>
<text text-anchor="middle" x="229.82" y="-120.5" font-family="Arial" font-size="10.00">Value</text>
<text text-anchor="middle" x="229.82" y="-109.5" font-family="Arial" font-size="10.00">Object</text>
</a>
</g>
</g>
</g>
</svg>
