<?xml version="1.0" encoding="UTF-8" standalone="no"?>
<!DOCTYPE svg PUBLIC "-//W3C//DTD SVG 1.1//EN"
 "http://www.w3.org/Graphics/SVG/1.1/DTD/svg11.dtd">
<!-- Generated by graphviz version 2.44.1 (20200629.0846)
 -->
<!-- Title: InheritanceGraph Pages: 1 -->
<svg width="651pt" height="592pt"
 viewBox="0.00 0.00 650.95 592.00" xmlns="http://www.w3.org/2000/svg" xmlns:xlink="http://www.w3.org/1999/xlink">
<g id="graph0" class="graph" transform="scale(1 1) rotate(0) translate(4 588)">
<title>InheritanceGraph</title>
<g id="clust1" class="cluster">
<title>cluster_builtins</title>
<path fill="transparent" stroke="#bcd2ee" stroke-width="2" stroke-dasharray="5,2" d="M20,-237C20,-237 55,-237 55,-237 61,-237 67,-243 67,-249 67,-249 67,-280 67,-280 67,-286 61,-292 55,-292 55,-292 20,-292 20,-292 14,-292 8,-286 8,-280 8,-280 8,-249 8,-249 8,-243 14,-237 20,-237"/>
<text text-anchor="middle" x="37.5" y="-280" font-family="Arial" font-size="10.00">builtins</text>
</g>
<g id="clust2" class="cluster">
<title>cluster_supriya.commands.bases</title>
<path fill="transparent" stroke="#bcd2ee" stroke-width="2" stroke-dasharray="5,2" d="M271,-219C271,-219 444.95,-219 444.95,-219 450.95,-219 456.95,-225 456.95,-231 456.95,-231 456.95,-299 456.95,-299 456.95,-305 450.95,-311 444.95,-311 444.95,-311 271,-311 271,-311 265,-311 259,-305 259,-299 259,-299 259,-231 259,-231 259,-225 265,-219 271,-219"/>
<text text-anchor="middle" x="357.98" y="-299" font-family="Arial" font-size="10.00">supriya.commands.bases</text>
</g>
<g id="clust3" class="cluster">
<title>cluster_supriya.commands.server</title>
<path fill="transparent" stroke="#bcd2ee" stroke-width="2" stroke-dasharray="5,2" d="M525.95,-8C525.95,-8 630.95,-8 630.95,-8 636.95,-8 642.95,-14 642.95,-20 642.95,-20 642.95,-564 642.95,-564 642.95,-570 636.95,-576 630.95,-576 630.95,-576 525.95,-576 525.95,-576 519.95,-576 513.95,-570 513.95,-564 513.95,-564 513.95,-20 513.95,-20 513.95,-14 519.95,-8 525.95,-8"/>
<text text-anchor="middle" x="578.45" y="-564" font-family="Arial" font-size="10.00">supriya.commands.server</text>
</g>
<g id="clust4" class="cluster">
<title>cluster_supriya.system</title>
<path fill="transparent" stroke="#bcd2ee" stroke-width="2" stroke-dasharray="5,2" d="M99,-226C99,-226 227,-226 227,-226 233,-226 239,-232 239,-238 239,-238 239,-291 239,-291 239,-297 233,-303 227,-303 227,-303 99,-303 99,-303 93,-303 87,-297 87,-291 87,-291 87,-238 87,-238 87,-232 93,-226 99,-226"/>
<text text-anchor="middle" x="163" y="-291" font-family="Arial" font-size="10.00">supriya.system</text>
</g>
<!-- builtins.object&#45;&gt;supriya.system.SupriyaObject -->
<g id="edge3" class="edge">
<title>builtins.object&#45;&gt;supriya.system.SupriyaObject</title>
<path fill="none" stroke="lightslategrey" d="M59.23,-255C66.98,-255 76,-255 84.66,-255"/>
<polygon fill="lightslategrey" stroke="lightslategrey" points="84.91,-258.5 94.91,-255 84.91,-251.5 84.91,-258.5"/>
</g>
<!-- supriya.commands.bases.Request&#45;&gt;supriya.commands.server.ClearScheduleRequest -->
<g id="edge4" class="edge">
<title>supriya.commands.bases.Request&#45;&gt;supriya.commands.server.ClearScheduleRequest</title>
<path fill="none" stroke="lightslategrey" d="M414.98,-284.45C422.79,-322.88 450.08,-434.51 513.95,-499 521.31,-506.43 530.92,-512.14 540.42,-516.45"/>
<polygon fill="lightslategrey" stroke="lightslategrey" points="539.23,-519.75 549.81,-520.31 541.89,-513.27 539.23,-519.75"/>
</g>
<!-- supriya.commands.bases.Request&#45;&gt;supriya.commands.server.DumpOscRequest -->
<g id="edge5" class="edge">
<title>supriya.commands.bases.Request&#45;&gt;supriya.commands.server.DumpOscRequest</title>
<path fill="none" stroke="lightslategrey" d="M417.48,-284.58C429.55,-315.71 463.12,-393.1 513.95,-439 522.18,-446.43 532.58,-452.37 542.56,-456.93"/>
<polygon fill="lightslategrey" stroke="lightslategrey" points="541.35,-460.22 551.93,-460.9 544.08,-453.78 541.35,-460.22"/>
</g>
<!-- supriya.commands.bases.Request&#45;&gt;supriya.commands.server.NothingRequest -->
<g id="edge6" class="edge">
<title>supriya.commands.bases.Request&#45;&gt;supriya.commands.server.NothingRequest</title>
<path fill="none" stroke="lightslategrey" d="M420.31,-284.08C435.48,-308.39 471.17,-360.77 513.95,-391 522.47,-397.02 532.69,-401.74 542.41,-405.35"/>
<polygon fill="lightslategrey" stroke="lightslategrey" points="541.3,-408.67 551.89,-408.59 543.56,-402.05 541.3,-408.67"/>
</g>
<!-- supriya.commands.bases.Request&#45;&gt;supriya.commands.server.NotifyRequest -->
<g id="edge7" class="edge">
<title>supriya.commands.bases.Request&#45;&gt;supriya.commands.server.NotifyRequest</title>
<path fill="none" stroke="lightslategrey" d="M427.16,-283.26C446.22,-298.73 480.97,-325.44 513.95,-343 522.83,-347.73 532.85,-351.97 542.26,-355.53"/>
<polygon fill="lightslategrey" stroke="lightslategrey" points="541.18,-358.86 551.77,-358.97 543.56,-352.28 541.18,-358.86"/>
</g>
<!-- supriya.commands.bases.Request&#45;&gt;supriya.commands.server.QuitRequest -->
<g id="edge8" class="edge">
<title>supriya.commands.bases.Request&#45;&gt;supriya.commands.server.QuitRequest</title>
<path fill="none" stroke="lightslategrey" d="M441.21,-279.36C469.25,-287.52 511.95,-299.94 542.07,-308.7"/>
<polygon fill="lightslategrey" stroke="lightslategrey" points="541.18,-312.09 551.75,-311.52 543.13,-305.37 541.18,-312.09"/>
</g>
<!-- supriya.commands.bases.Request&#45;&gt;supriya.commands.server.StatusRequest -->
<g id="edge9" class="edge">
<title>supriya.commands.bases.Request&#45;&gt;supriya.commands.server.StatusRequest</title>
<path fill="none" stroke="lightslategrey" d="M449.09,-271C476.58,-271 514.03,-271 541.39,-271"/>
<polygon fill="lightslategrey" stroke="lightslategrey" points="541.7,-274.5 551.7,-271 541.7,-267.5 541.7,-274.5"/>
</g>
<!-- supriya.commands.bases.Request&#45;&gt;supriya.commands.server.SyncRequest -->
<g id="edge10" class="edge">
<title>supriya.commands.bases.Request&#45;&gt;supriya.commands.server.SyncRequest</title>
<path fill="none" stroke="lightslategrey" d="M441.21,-262.64C469.25,-254.48 511.95,-242.06 542.07,-233.3"/>
<polygon fill="lightslategrey" stroke="lightslategrey" points="543.13,-236.63 551.75,-230.48 541.18,-229.91 543.13,-236.63"/>
</g>
<!-- supriya.commands.bases.Requestable&#45;&gt;supriya.commands.bases.Request -->
<g id="edge1" class="edge">
<title>supriya.commands.bases.Requestable&#45;&gt;supriya.commands.bases.Request</title>
<path fill="none" stroke="lightslategrey" d="M338.23,-273.03C346.48,-272.79 355.4,-272.54 364.07,-272.3"/>
<polygon fill="lightslategrey" stroke="lightslategrey" points="364.18,-275.8 374.08,-272.02 363.99,-268.8 364.18,-275.8"/>
</g>
<!-- supriya.commands.bases.Response&#45;&gt;supriya.commands.server.DoneResponse -->
<g id="edge11" class="edge">
<title>supriya.commands.bases.Response&#45;&gt;supriya.commands.server.DoneResponse</title>
<path fill="none" stroke="lightslategrey" d="M333.08,-230.31C382.57,-219.1 482.2,-196.56 537.75,-183.99"/>
<polygon fill="lightslategrey" stroke="lightslategrey" points="538.6,-187.38 547.58,-181.76 537.06,-180.55 538.6,-187.38"/>
</g>
<!-- supriya.commands.bases.Response&#45;&gt;supriya.commands.server.FailResponse -->
<g id="edge12" class="edge">
<title>supriya.commands.bases.Response&#45;&gt;supriya.commands.server.FailResponse</title>
<path fill="none" stroke="lightslategrey" d="M319.07,-227.38C333.1,-218.96 354.46,-206.74 374,-198 429.53,-173.17 496.59,-151.24 538.14,-138.54"/>
<polygon fill="lightslategrey" stroke="lightslategrey" points="539.32,-141.84 547.87,-135.59 537.29,-135.14 539.32,-141.84"/>
</g>
<!-- supriya.commands.bases.Response&#45;&gt;supriya.commands.server.StatusResponse -->
<g id="edge13" class="edge">
<title>supriya.commands.bases.Response&#45;&gt;supriya.commands.server.StatusResponse</title>
<path fill="none" stroke="lightslategrey" d="M310.27,-227.35C321.76,-211.58 346.52,-180.12 374,-161 425.51,-125.16 495.01,-101.48 537.99,-89.16"/>
<polygon fill="lightslategrey" stroke="lightslategrey" points="539.11,-92.48 547.8,-86.42 537.22,-85.74 539.11,-92.48"/>
</g>
<!-- supriya.commands.bases.Response&#45;&gt;supriya.commands.server.SyncedResponse -->
<g id="edge14" class="edge">
<title>supriya.commands.bases.Response&#45;&gt;supriya.commands.server.SyncedResponse</title>
<path fill="none" stroke="lightslategrey" d="M306.58,-227.2C314.29,-204.17 336.5,-146.11 374,-113 421.67,-70.91 493.72,-48.84 538.06,-38.58"/>
<polygon fill="lightslategrey" stroke="lightslategrey" points="538.89,-41.98 547.89,-36.39 537.37,-35.15 538.89,-41.98"/>
</g>
<!-- supriya.system.SupriyaObject&#45;&gt;supriya.system.SupriyaValueObject -->
<g id="edge2" class="edge">
<title>supriya.system.SupriyaObject&#45;&gt;supriya.system.SupriyaValueObject</title>
<path fill="none" stroke="lightslategrey" d="M145.3,-255C153.22,-255 162.17,-255 170.69,-255"/>
<polygon fill="lightslategrey" stroke="lightslategrey" points="170.76,-258.5 180.76,-255 170.76,-251.5 170.76,-258.5"/>
</g>
<!-- supriya.system.SupriyaValueObject&#45;&gt;supriya.commands.bases.Requestable -->
<g id="edge15" class="edge">
<title>supriya.system.SupriyaValueObject&#45;&gt;supriya.commands.bases.Requestable</title>
<path fill="none" stroke="lightslategrey" d="M231.34,-259.89C239.2,-261.47 248.19,-263.28 257.04,-265.06"/>
<polygon fill="lightslategrey" stroke="lightslategrey" points="256.42,-268.51 266.92,-267.05 257.8,-261.64 256.42,-268.51"/>
</g>
<!-- supriya.system.SupriyaValueObject&#45;&gt;supriya.commands.bases.Response -->
<g id="edge16" class="edge">
<title>supriya.system.SupriyaValueObject&#45;&gt;supriya.commands.bases.Response</title>
<path fill="none" stroke="lightslategrey" d="M231.34,-250.36C240.61,-248.6 251.43,-246.54 261.76,-244.57"/>
<polygon fill="lightslategrey" stroke="lightslategrey" points="262.68,-247.96 271.85,-242.65 261.37,-241.08 262.68,-247.96"/>
</g>
<!-- builtins.object -->
<g id="node1" class="node">
<title>builtins.object</title>
<g id="a_node1"><a xlink:href="https://docs.python.org/3/library/functions.html#object" xlink:title="object" target="_top">
<path fill="#fbb4ae" stroke="#fbb4ae" stroke-width="2" d="M52.67,-264.5C52.67,-264.5 22.33,-264.5 22.33,-264.5 19.17,-264.5 16,-261.33 16,-258.17 16,-258.17 16,-251.83 16,-251.83 16,-248.67 19.17,-245.5 22.33,-245.5 22.33,-245.5 52.67,-245.5 52.67,-245.5 55.83,-245.5 59,-248.67 59,-251.83 59,-251.83 59,-258.17 59,-258.17 59,-261.33 55.83,-264.5 52.67,-264.5"/>
<text text-anchor="middle" x="37.5" y="-252.5" font-family="Arial" font-size="10.00">object</text>
</a>
</g>
</g>
<!-- supriya.commands.bases.Request -->
<g id="node2" class="node">
<title>supriya.commands.bases.Request</title>
<g id="a_node2"><a xlink:href="../api/supriya/commands/bases.html#supriya.commands.bases.Request" xlink:title="Request" target="_top">
<ellipse fill="none" stroke="#b3cde3" stroke-width="2" cx="411.48" cy="-271" rx="37.45" ry="13.37"/>
<text text-anchor="middle" x="411.48" y="-268.5" font-family="Arial" font-size="10.00">Request</text>
</a>
</g>
</g>
<!-- supriya.commands.bases.Requestable -->
<g id="node3" class="node">
<title>supriya.commands.bases.Requestable</title>
<g id="a_node3"><a xlink:href="../api/supriya/commands/bases.html#supriya.commands.bases.Requestable" xlink:title="Requestable" target="_top">
<path fill="#b3cde3" stroke="#b3cde3" stroke-width="2" d="M331.67,-283.5C331.67,-283.5 273.33,-283.5 273.33,-283.5 270.17,-283.5 267,-280.33 267,-277.17 267,-277.17 267,-270.83 267,-270.83 267,-267.67 270.17,-264.5 273.33,-264.5 273.33,-264.5 331.67,-264.5 331.67,-264.5 334.83,-264.5 338,-267.67 338,-270.83 338,-270.83 338,-277.17 338,-277.17 338,-280.33 334.83,-283.5 331.67,-283.5"/>
<text text-anchor="middle" x="302.5" y="-271.5" font-family="Arial" font-size="10.00">Requestable</text>
</a>
</g>
</g>
<!-- supriya.commands.bases.Response -->
<g id="node4" class="node">
<title>supriya.commands.bases.Response</title>
<g id="a_node4"><a xlink:href="../api/supriya/commands/bases.html#supriya.commands.bases.Response" xlink:title="Response" target="_top">
<path fill="#b3cde3" stroke="#b3cde3" stroke-width="2" d="M326.67,-246.5C326.67,-246.5 278.33,-246.5 278.33,-246.5 275.17,-246.5 272,-243.33 272,-240.17 272,-240.17 272,-233.83 272,-233.83 272,-230.67 275.17,-227.5 278.33,-227.5 278.33,-227.5 326.67,-227.5 326.67,-227.5 329.83,-227.5 333,-230.67 333,-233.83 333,-233.83 333,-240.17 333,-240.17 333,-243.33 329.83,-246.5 326.67,-246.5"/>
<text text-anchor="middle" x="302.5" y="-234.5" font-family="Arial" font-size="10.00">Response</text>
</a>
</g>
</g>
<!-- supriya.commands.server.ClearScheduleRequest -->
<g id="node5" class="node">
<title>supriya.commands.server.ClearScheduleRequest</title>
<g id="a_node5"><a xlink:href="../api/supriya/commands/server.html#supriya.commands.server.ClearScheduleRequest" xlink:title="Clear\nSchedule\nRequest" target="_top">
<path fill="black" stroke="black" stroke-width="2" d="M594.95,-548.5C594.95,-548.5 561.95,-548.5 561.95,-548.5 555.95,-548.5 549.95,-542.5 549.95,-536.5 549.95,-536.5 549.95,-519.5 549.95,-519.5 549.95,-513.5 555.95,-507.5 561.95,-507.5 561.95,-507.5 594.95,-507.5 594.95,-507.5 600.95,-507.5 606.95,-513.5 606.95,-519.5 606.95,-519.5 606.95,-536.5 606.95,-536.5 606.95,-542.5 600.95,-548.5 594.95,-548.5"/>
<text text-anchor="middle" x="578.45" y="-536.5" font-family="Arial" font-size="10.00" fill="white">Clear</text>
<text text-anchor="middle" x="578.45" y="-525.5" font-family="Arial" font-size="10.00" fill="white">Schedule</text>
<text text-anchor="middle" x="578.45" y="-514.5" font-family="Arial" font-size="10.00" fill="white">Request</text>
</a>
</g>
</g>
<!-- supriya.commands.server.DoneResponse -->
<g id="node6" class="node">
<title>supriya.commands.server.DoneResponse</title>
<g id="a_node6"><a xlink:href="../api/supriya/commands/server.html#supriya.commands.server.DoneResponse" xlink:title="Done\nResponse" target="_top">
<path fill="black" stroke="black" stroke-width="2" d="M598.95,-190C598.95,-190 557.95,-190 557.95,-190 552.95,-190 547.95,-185 547.95,-180 547.95,-180 547.95,-170 547.95,-170 547.95,-165 552.95,-160 557.95,-160 557.95,-160 598.95,-160 598.95,-160 603.95,-160 608.95,-165 608.95,-170 608.95,-170 608.95,-180 608.95,-180 608.95,-185 603.95,-190 598.95,-190"/>
<text text-anchor="middle" x="578.45" y="-178" font-family="Arial" font-size="10.00" fill="white">Done</text>
<text text-anchor="middle" x="578.45" y="-167" font-family="Arial" font-size="10.00" fill="white">Response</text>
</a>
</g>
</g>
<!-- supriya.commands.server.DumpOscRequest -->
<g id="node7" class="node">
<title>supriya.commands.server.DumpOscRequest</title>
<g id="a_node7"><a xlink:href="../api/supriya/commands/server.html#supriya.commands.server.DumpOscRequest" xlink:title="Dump\nOsc\nRequest" target="_top">
<path fill="black" stroke="black" stroke-width="2" d="M592.95,-489.5C592.95,-489.5 563.95,-489.5 563.95,-489.5 557.95,-489.5 551.95,-483.5 551.95,-477.5 551.95,-477.5 551.95,-460.5 551.95,-460.5 551.95,-454.5 557.95,-448.5 563.95,-448.5 563.95,-448.5 592.95,-448.5 592.95,-448.5 598.95,-448.5 604.95,-454.5 604.95,-460.5 604.95,-460.5 604.95,-477.5 604.95,-477.5 604.95,-483.5 598.95,-489.5 592.95,-489.5"/>
<text text-anchor="middle" x="578.45" y="-477.5" font-family="Arial" font-size="10.00" fill="white">Dump</text>
<text text-anchor="middle" x="578.45" y="-466.5" font-family="Arial" font-size="10.00" fill="white">Osc</text>
<text text-anchor="middle" x="578.45" y="-455.5" font-family="Arial" font-size="10.00" fill="white">Request</text>
</a>
</g>
</g>
<!-- supriya.commands.server.FailResponse -->
<g id="node8" class="node">
<title>supriya.commands.server.FailResponse</title>
<g id="a_node8"><a xlink:href="../api/supriya/commands/server.html#supriya.commands.server.FailResponse" xlink:title="Fail\nResponse" target="_top">
<path fill="black" stroke="black" stroke-width="2" d="M598.95,-142C598.95,-142 557.95,-142 557.95,-142 552.95,-142 547.95,-137 547.95,-132 547.95,-132 547.95,-122 547.95,-122 547.95,-117 552.95,-112 557.95,-112 557.95,-112 598.95,-112 598.95,-112 603.95,-112 608.95,-117 608.95,-122 608.95,-122 608.95,-132 608.95,-132 608.95,-137 603.95,-142 598.95,-142"/>
<text text-anchor="middle" x="578.45" y="-130" font-family="Arial" font-size="10.00" fill="white">Fail</text>
<text text-anchor="middle" x="578.45" y="-119" font-family="Arial" font-size="10.00" fill="white">Response</text>
</a>
</g>
</g>
<!-- supriya.commands.server.NothingRequest -->
<g id="node9" class="node">
<title>supriya.commands.server.NothingRequest</title>
<g id="a_node9"><a xlink:href="../api/supriya/commands/server.html#supriya.commands.server.NothingRequest" xlink:title="Nothing\nRequest" target="_top">
<path fill="black" stroke="black" stroke-width="2" d="M594.95,-430C594.95,-430 561.95,-430 561.95,-430 556.95,-430 551.95,-425 551.95,-420 551.95,-420 551.95,-410 551.95,-410 551.95,-405 556.95,-400 561.95,-400 561.95,-400 594.95,-400 594.95,-400 599.95,-400 604.95,-405 604.95,-410 604.95,-410 604.95,-420 604.95,-420 604.95,-425 599.95,-430 594.95,-430"/>
<text text-anchor="middle" x="578.45" y="-418" font-family="Arial" font-size="10.00" fill="white">Nothing</text>
<text text-anchor="middle" x="578.45" y="-407" font-family="Arial" font-size="10.00" fill="white">Request</text>
</a>
</g>
</g>
<!-- supriya.commands.server.NotifyRequest -->
<g id="node10" class="node">
<title>supriya.commands.server.NotifyRequest</title>
<g id="a_node10"><a xlink:href="../api/supriya/commands/server.html#supriya.commands.server.NotifyRequest" xlink:title="Notify\nRequest" target="_top">
<path fill="black" stroke="black" stroke-width="2" d="M594.95,-382C594.95,-382 561.95,-382 561.95,-382 556.95,-382 551.95,-377 551.95,-372 551.95,-372 551.95,-362 551.95,-362 551.95,-357 556.95,-352 561.95,-352 561.95,-352 594.95,-352 594.95,-352 599.95,-352 604.95,-357 604.95,-362 604.95,-362 604.95,-372 604.95,-372 604.95,-377 599.95,-382 594.95,-382"/>
<text text-anchor="middle" x="578.45" y="-370" font-family="Arial" font-size="10.00" fill="white">Notify</text>
<text text-anchor="middle" x="578.45" y="-359" font-family="Arial" font-size="10.00" fill="white">Request</text>
</a>
</g>
</g>
<!-- supriya.commands.server.QuitRequest -->
<g id="node11" class="node">
<title>supriya.commands.server.QuitRequest</title>
<g id="a_node11"><a xlink:href="../api/supriya/commands/server.html#supriya.commands.server.QuitRequest" xlink:title="Quit\nRequest" target="_top">
<path fill="black" stroke="black" stroke-width="2" d="M594.95,-334C594.95,-334 561.95,-334 561.95,-334 556.95,-334 551.95,-329 551.95,-324 551.95,-324 551.95,-314 551.95,-314 551.95,-309 556.95,-304 561.95,-304 561.95,-304 594.95,-304 594.95,-304 599.95,-304 604.95,-309 604.95,-314 604.95,-314 604.95,-324 604.95,-324 604.95,-329 599.95,-334 594.95,-334"/>
<text text-anchor="middle" x="578.45" y="-322" font-family="Arial" font-size="10.00" fill="white">Quit</text>
<text text-anchor="middle" x="578.45" y="-311" font-family="Arial" font-size="10.00" fill="white">Request</text>
</a>
</g>
</g>
<!-- supriya.commands.server.StatusRequest -->
<g id="node12" class="node">
<title>supriya.commands.server.StatusRequest</title>
<g id="a_node12"><a xlink:href="../api/supriya/commands/server.html#supriya.commands.server.StatusRequest" xlink:title="Status\nRequest" target="_top">
<path fill="black" stroke="black" stroke-width="2" d="M594.95,-286C594.95,-286 561.95,-286 561.95,-286 556.95,-286 551.95,-281 551.95,-276 551.95,-276 551.95,-266 551.95,-266 551.95,-261 556.95,-256 561.95,-256 561.95,-256 594.95,-256 594.95,-256 599.95,-256 604.95,-261 604.95,-266 604.95,-266 604.95,-276 604.95,-276 604.95,-281 599.95,-286 594.95,-286"/>
<text text-anchor="middle" x="578.45" y="-274" font-family="Arial" font-size="10.00" fill="white">Status</text>
<text text-anchor="middle" x="578.45" y="-263" font-family="Arial" font-size="10.00" fill="white">Request</text>
</a>
</g>
</g>
<!-- supriya.commands.server.StatusResponse -->
<g id="node13" class="node">
<title>supriya.commands.server.StatusResponse</title>
<g id="a_node13"><a xlink:href="../api/supriya/commands/server.html#supriya.commands.server.StatusResponse" xlink:title="Status\nResponse" target="_top">
<path fill="black" stroke="black" stroke-width="2" d="M598.95,-94C598.95,-94 557.95,-94 557.95,-94 552.95,-94 547.95,-89 547.95,-84 547.95,-84 547.95,-74 547.95,-74 547.95,-69 552.95,-64 557.95,-64 557.95,-64 598.95,-64 598.95,-64 603.95,-64 608.95,-69 608.95,-74 608.95,-74 608.95,-84 608.95,-84 608.95,-89 603.95,-94 598.95,-94"/>
<text text-anchor="middle" x="578.45" y="-82" font-family="Arial" font-size="10.00" fill="white">Status</text>
<text text-anchor="middle" x="578.45" y="-71" font-family="Arial" font-size="10.00" fill="white">Response</text>
</a>
</g>
</g>
<!-- supriya.commands.server.SyncRequest -->
<g id="node14" class="node">
<title>supriya.commands.server.SyncRequest</title>
<g id="a_node14"><a xlink:href="../api/supriya/commands/server.html#supriya.commands.server.SyncRequest" xlink:title="Sync\nRequest" target="_top">
<path fill="black" stroke="black" stroke-width="2" d="M594.95,-238C594.95,-238 561.95,-238 561.95,-238 556.95,-238 551.95,-233 551.95,-228 551.95,-228 551.95,-218 551.95,-218 551.95,-213 556.95,-208 561.95,-208 561.95,-208 594.95,-208 594.95,-208 599.95,-208 604.95,-213 604.95,-218 604.95,-218 604.95,-228 604.95,-228 604.95,-233 599.95,-238 594.95,-238"/>
<text text-anchor="middle" x="578.45" y="-226" font-family="Arial" font-size="10.00" fill="white">Sync</text>
<text text-anchor="middle" x="578.45" y="-215" font-family="Arial" font-size="10.00" fill="white">Request</text>
</a>
</g>
</g>
<!-- supriya.commands.server.SyncedResponse -->
<g id="node15" class="node">
<title>supriya.commands.server.SyncedResponse</title>
<g id="a_node15"><a xlink:href="../api/supriya/commands/server.html#supriya.commands.server.SyncedResponse" xlink:title="Synced\nResponse" target="_top">
<path fill="black" stroke="black" stroke-width="2" d="M598.95,-46C598.95,-46 557.95,-46 557.95,-46 552.95,-46 547.95,-41 547.95,-36 547.95,-36 547.95,-26 547.95,-26 547.95,-21 552.95,-16 557.95,-16 557.95,-16 598.95,-16 598.95,-16 603.95,-16 608.95,-21 608.95,-26 608.95,-26 608.95,-36 608.95,-36 608.95,-41 603.95,-46 598.95,-46"/>
<text text-anchor="middle" x="578.45" y="-34" font-family="Arial" font-size="10.00" fill="white">Synced</text>
<text text-anchor="middle" x="578.45" y="-23" font-family="Arial" font-size="10.00" fill="white">Response</text>
</a>
</g>
</g>
<!-- supriya.system.SupriyaObject -->
<g id="node16" class="node">
<title>supriya.system.SupriyaObject</title>
<g id="a_node16"><a xlink:href="../api/supriya/commands/../system.html#supriya.system.SupriyaObject" xlink:title="Supriya\nObject" target="_top">
<path fill="#decbe4" stroke="#decbe4" stroke-width="2" d="M135,-270C135,-270 105,-270 105,-270 100,-270 95,-265 95,-260 95,-260 95,-250 95,-250 95,-245 100,-240 105,-240 105,-240 135,-240 135,-240 140,-240 145,-245 145,-250 145,-250 145,-260 145,-260 145,-265 140,-270 135,-270"/>
<text text-anchor="middle" x="120" y="-258" font-family="Arial" font-size="10.00">Supriya</text>
<text text-anchor="middle" x="120" y="-247" font-family="Arial" font-size="10.00">Object</text>
</a>
</g>
</g>
<!-- supriya.system.SupriyaValueObject -->
<g id="node17" class="node">
<title>supriya.system.SupriyaValueObject</title>
<g id="a_node17"><a xlink:href="../api/supriya/commands/../system.html#supriya.system.SupriyaValueObject" xlink:title="Supriya\nValue\nObject" target="_top">
<path fill="#decbe4" stroke="#decbe4" stroke-width="2" d="M219,-275.5C219,-275.5 193,-275.5 193,-275.5 187,-275.5 181,-269.5 181,-263.5 181,-263.5 181,-246.5 181,-246.5 181,-240.5 187,-234.5 193,-234.5 193,-234.5 219,-234.5 219,-234.5 225,-234.5 231,-240.5 231,-246.5 231,-246.5 231,-263.5 231,-263.5 231,-269.5 225,-275.5 219,-275.5"/>
<text text-anchor="middle" x="206" y="-263.5" font-family="Arial" font-size="10.00">Supriya</text>
<text text-anchor="middle" x="206" y="-252.5" font-family="Arial" font-size="10.00">Value</text>
<text text-anchor="middle" x="206" y="-241.5" font-family="Arial" font-size="10.00">Object</text>
</a>
</g>
</g>
</g>
</svg>
