<?xml version="1.0" encoding="UTF-8" standalone="no"?>
<!DOCTYPE svg PUBLIC "-//W3C//DTD SVG 1.1//EN"
 "http://www.w3.org/Graphics/SVG/1.1/DTD/svg11.dtd">
<!-- Generated by graphviz version 2.40.1 (20161225.0304)
 -->
<!-- Title: InheritanceGraph Pages: 1 -->
<svg width="482pt" height="199pt"
 viewBox="0.00 0.00 482.24 199.00" xmlns="http://www.w3.org/2000/svg" xmlns:xlink="http://www.w3.org/1999/xlink">
<g id="graph0" class="graph" transform="scale(1 1) rotate(0) translate(4 195)">
<title>InheritanceGraph</title>
<g id="clust1" class="cluster">
<title>cluster_builtins</title>
<path fill="transparent" stroke="#bcd2ee" stroke-width="2" stroke-dasharray="5,2" d="M20,-72C20,-72 49,-72 49,-72 55,-72 61,-78 61,-84 61,-84 61,-115 61,-115 61,-121 55,-127 49,-127 49,-127 20,-127 20,-127 14,-127 8,-121 8,-115 8,-115 8,-84 8,-84 8,-78 14,-72 20,-72"/>
<text text-anchor="middle" x="34.5" y="-115" font-family="Arial" font-size="10.00" fill="#000000">builtins</text>
</g>
<g id="clust2" class="cluster">
<title>cluster_supriya.realtime</title>
<path fill="transparent" stroke="#bcd2ee" stroke-width="2" stroke-dasharray="5,2" d="M180,-8C180,-8 454.2376,-8 454.2376,-8 460.2376,-8 466.2376,-14 466.2376,-20 466.2376,-20 466.2376,-73 466.2376,-73 466.2376,-79 460.2376,-85 454.2376,-85 454.2376,-85 180,-85 180,-85 174,-85 168,-79 168,-73 168,-73 168,-20 168,-20 168,-14 174,-8 180,-8"/>
<text text-anchor="middle" x="317.1188" y="-73" font-family="Arial" font-size="10.00" fill="#000000">supriya.realtime</text>
</g>
<g id="clust3" class="cluster">
<title>cluster_supriya.system</title>
<path fill="transparent" stroke="#bcd2ee" stroke-width="2" stroke-dasharray="5,2" d="M93,-23C93,-23 136,-23 136,-23 142,-23 148,-29 148,-35 148,-35 148,-76 148,-76 148,-82 142,-88 136,-88 136,-88 93,-88 93,-88 87,-88 81,-82 81,-76 81,-76 81,-35 81,-35 81,-29 87,-23 93,-23"/>
<text text-anchor="middle" x="114.5" y="-76" font-family="Arial" font-size="10.00" fill="#000000">supriya.system</text>
</g>
<g id="clust4" class="cluster">
<title>cluster_uqbar.containers</title>
<path fill="transparent" stroke="#bcd2ee" stroke-width="2" stroke-dasharray="5,2" d="M98,-106C98,-106 307.196,-106 307.196,-106 313.196,-106 319.196,-112 319.196,-118 319.196,-118 319.196,-171 319.196,-171 319.196,-177 313.196,-183 307.196,-183 307.196,-183 98,-183 98,-183 92,-183 86,-177 86,-171 86,-171 86,-118 86,-118 86,-112 92,-106 98,-106"/>
<text text-anchor="middle" x="202.598" y="-171" font-family="Arial" font-size="10.00" fill="#000000">uqbar.containers</text>
</g>
<!-- builtins.object&#45;&gt;supriya.system.SupriyaObject.SupriyaObject -->
<g id="edge6" class="edge">
<title>builtins.object&#45;&gt;supriya.system.SupriyaObject.SupriyaObject</title>
<path fill="none" stroke="#778899" d="M51.7503,-80.4527C61.1692,-75.2397 73.1011,-68.6359 83.9929,-62.6077"/>
<polygon fill="#778899" stroke="#778899" points="85.765,-65.6273 92.8195,-57.7226 82.3752,-59.5027 85.765,-65.6273"/>
</g>
<!-- builtins.object&#45;&gt;uqbar.containers.UniqueTreeNode.UniqueTreeNode -->
<g id="edge7" class="edge">
<title>builtins.object&#45;&gt;uqbar.containers.UniqueTreeNode.UniqueTreeNode</title>
<path fill="none" stroke="#778899" d="M51.3599,-99.5433C61.1423,-105.0806 73.7305,-112.2059 85.0531,-118.615"/>
<polygon fill="#778899" stroke="#778899" points="83.3579,-121.6772 93.7846,-123.5573 86.8061,-115.5854 83.3579,-121.6772"/>
</g>
<!-- supriya.realtime.Group.Group&#45;&gt;supriya.realtime.RootNode.RootNode -->
<g id="edge1" class="edge">
<title>supriya.realtime.Group.Group&#45;&gt;supriya.realtime.RootNode.RootNode</title>
<path fill="none" stroke="#778899" d="M388.5234,-43.7373C396.2037,-43.6298 405.2439,-43.5034 413.6484,-43.3859"/>
<polygon fill="#778899" stroke="#778899" points="413.8538,-46.8834 423.8039,-43.2438 413.7559,-39.8841 413.8538,-46.8834"/>
</g>
<!-- supriya.realtime.Node.Node&#45;&gt;supriya.realtime.Group.Group -->
<g id="edge2" class="edge">
<title>supriya.realtime.Node.Node&#45;&gt;supriya.realtime.Group.Group</title>
<path fill="none" stroke="#778899" d="M315.6165,-44C323.6588,-44 332.6756,-44 341.0085,-44"/>
<polygon fill="#778899" stroke="#778899" points="341.073,-47.5001 351.073,-44 341.0729,-40.5001 341.073,-47.5001"/>
</g>
<!-- supriya.realtime.ServerObject.ServerObject&#45;&gt;supriya.realtime.Node.Node -->
<g id="edge3" class="edge">
<title>supriya.realtime.ServerObject.ServerObject&#45;&gt;supriya.realtime.Node.Node</title>
<path fill="none" stroke="#778899" d="M231.3003,-39.2148C239.4983,-39.8698 248.569,-40.5945 257.1189,-41.2775"/>
<polygon fill="#778899" stroke="#778899" points="256.9488,-44.775 267.1958,-42.0826 257.5063,-37.7972 256.9488,-44.775"/>
</g>
<!-- supriya.system.SupriyaObject.SupriyaObject&#45;&gt;supriya.realtime.ServerObject.ServerObject -->
<g id="edge8" class="edge">
<title>supriya.system.SupriyaObject.SupriyaObject&#45;&gt;supriya.realtime.ServerObject.ServerObject</title>
<path fill="none" stroke="#778899" d="M135.2285,-43.8671C144.3859,-42.9471 155.3802,-41.8424 165.847,-40.7908"/>
<polygon fill="#778899" stroke="#778899" points="166.4503,-44.2479 176.0503,-39.7657 165.7505,-37.283 166.4503,-44.2479"/>
</g>
<!-- uqbar.containers.UniqueTreeContainer.UniqueTreeContainer&#45;&gt;uqbar.containers.UniqueTreeList.UniqueTreeList -->
<g id="edge4" class="edge">
<title>uqbar.containers.UniqueTreeContainer.UniqueTreeContainer&#45;&gt;uqbar.containers.UniqueTreeList.UniqueTreeList</title>
<path fill="none" stroke="#778899" d="M228.4508,-135C238.5443,-135 250.2983,-135 260.8863,-135"/>
<polygon fill="#778899" stroke="#778899" points="260.981,-138.5001 270.981,-135 260.9809,-131.5001 260.981,-138.5001"/>
</g>
<!-- uqbar.containers.UniqueTreeList.UniqueTreeList&#45;&gt;supriya.realtime.Group.Group -->
<g id="edge9" class="edge">
<title>uqbar.containers.UniqueTreeList.UniqueTreeList&#45;&gt;supriya.realtime.Group.Group</title>
<path fill="none" stroke="#778899" d="M309.0183,-114.3507C322.766,-98.4223 341.5724,-76.6327 354.5967,-61.5426"/>
<polygon fill="#778899" stroke="#778899" points="357.2844,-63.7853 361.1687,-53.9281 351.9852,-59.2116 357.2844,-63.7853"/>
</g>
<!-- uqbar.containers.UniqueTreeNode.UniqueTreeNode&#45;&gt;supriya.realtime.Node.Node -->
<g id="edge10" class="edge">
<title>uqbar.containers.UniqueTreeNode.UniqueTreeNode&#45;&gt;supriya.realtime.Node.Node</title>
<path fill="none" stroke="#778899" d="M134.1902,-123.993C144.3069,-118.5196 156.7651,-111.8425 168,-106 200.6316,-89.0305 238.4589,-70.1029 263.4978,-57.6768"/>
<polygon fill="#778899" stroke="#778899" points="265.3446,-60.6679 272.751,-53.0919 262.2366,-54.3957 265.3446,-60.6679"/>
</g>
<!-- uqbar.containers.UniqueTreeNode.UniqueTreeNode&#45;&gt;uqbar.containers.UniqueTreeContainer.UniqueTreeContainer -->
<g id="edge5" class="edge">
<title>uqbar.containers.UniqueTreeNode.UniqueTreeNode&#45;&gt;uqbar.containers.UniqueTreeContainer.UniqueTreeContainer</title>
<path fill="none" stroke="#778899" d="M134.3264,-135C144.4438,-135 156.9634,-135 168.5634,-135"/>
<polygon fill="#778899" stroke="#778899" points="168.8627,-138.5001 178.8627,-135 168.8627,-131.5001 168.8627,-138.5001"/>
</g>
<!-- builtins.object -->
<g id="node1" class="node">
<title>builtins.object</title>
<g id="a_node1"><a xlink:href="https://docs.python.org/3.6/library/functions.html#object" xlink:title="object" target="_top">
<path fill="#fbb4ae" stroke="#fbb4ae" stroke-width="2" d="M46.6667,-99.5C46.6667,-99.5 22.3333,-99.5 22.3333,-99.5 19.1667,-99.5 16,-96.3333 16,-93.1667 16,-93.1667 16,-86.8333 16,-86.8333 16,-83.6667 19.1667,-80.5 22.3333,-80.5 22.3333,-80.5 46.6667,-80.5 46.6667,-80.5 49.8333,-80.5 53,-83.6667 53,-86.8333 53,-86.8333 53,-93.1667 53,-93.1667 53,-96.3333 49.8333,-99.5 46.6667,-99.5"/>
<text text-anchor="middle" x="34.5" y="-87.5" font-family="Arial" font-size="10.00" fill="#000000">object</text>
</a>
</g>
</g>
<!-- supriya.realtime.Group.Group -->
<g id="node2" class="node">
<title>supriya.realtime.Group.Group</title>
<g id="a_node2"><a xlink:href="../api/supriya/realtime/Group.html#supriya.realtime.Group.Group" xlink:title="Group" target="_top">
<path fill="#b3cde3" stroke="#b3cde3" stroke-width="2" d="M381.9043,-53.5C381.9043,-53.5 357.5709,-53.5 357.5709,-53.5 354.4043,-53.5 351.2376,-50.3333 351.2376,-47.1667 351.2376,-47.1667 351.2376,-40.8333 351.2376,-40.8333 351.2376,-37.6667 354.4043,-34.5 357.5709,-34.5 357.5709,-34.5 381.9043,-34.5 381.9043,-34.5 385.0709,-34.5 388.2376,-37.6667 388.2376,-40.8333 388.2376,-40.8333 388.2376,-47.1667 388.2376,-47.1667 388.2376,-50.3333 385.0709,-53.5 381.9043,-53.5"/>
<text text-anchor="middle" x="369.7376" y="-41.5" font-family="Arial" font-size="10.00" fill="#000000">Group</text>
</a>
</g>
</g>
<!-- supriya.realtime.Node.Node -->
<g id="node3" class="node">
<title>supriya.realtime.Node.Node</title>
<g id="a_node3"><a xlink:href="../api/supriya/realtime/Node.html#supriya.realtime.Node.Node" xlink:title="Node" target="_top">
<ellipse fill="none" stroke="#b3cde3" stroke-width="2" cx="291.196" cy="-44" rx="24.0833" ry="13.3704"/>
<text text-anchor="middle" x="291.196" y="-41.5" font-family="Arial" font-size="10.00" fill="#000000">Node</text>
</a>
</g>
</g>
<!-- supriya.realtime.RootNode.RootNode -->
<g id="node4" class="node">
<title>supriya.realtime.RootNode.RootNode</title>
<g id="a_node4"><a xlink:href="../api/supriya/realtime/RootNode.html#supriya.realtime.RootNode.RootNode" xlink:title="Root\nNode" target="_top">
<path fill="#000000" stroke="#000000" stroke-width="2" d="M448.2376,-58C448.2376,-58 434.2376,-58 434.2376,-58 429.2376,-58 424.2376,-53 424.2376,-48 424.2376,-48 424.2376,-38 424.2376,-38 424.2376,-33 429.2376,-28 434.2376,-28 434.2376,-28 448.2376,-28 448.2376,-28 453.2376,-28 458.2376,-33 458.2376,-38 458.2376,-38 458.2376,-48 458.2376,-48 458.2376,-53 453.2376,-58 448.2376,-58"/>
<text text-anchor="middle" x="441.2376" y="-46" font-family="Arial" font-size="10.00" fill="#ffffff">Root</text>
<text text-anchor="middle" x="441.2376" y="-35" font-family="Arial" font-size="10.00" fill="#ffffff">Node</text>
</a>
</g>
</g>
<!-- supriya.realtime.ServerObject.ServerObject -->
<g id="node5" class="node">
<title>supriya.realtime.ServerObject.ServerObject</title>
<g id="a_node5"><a xlink:href="../api/supriya/realtime/ServerObject.html#supriya.realtime.ServerObject.ServerObject" xlink:title="Server\nObject" target="_top">
<ellipse fill="none" stroke="#b3cde3" stroke-width="2" cx="203.5772" cy="-37" rx="27.6545" ry="21.4286"/>
<text text-anchor="middle" x="203.5772" y="-40" font-family="Arial" font-size="10.00" fill="#000000">Server</text>
<text text-anchor="middle" x="203.5772" y="-29" font-family="Arial" font-size="10.00" fill="#000000">Object</text>
</a>
</g>
</g>
<!-- supriya.system.SupriyaObject.SupriyaObject -->
<g id="node6" class="node">
<title>supriya.system.SupriyaObject.SupriyaObject</title>
<g id="a_node6"><a xlink:href="../api/supriya/realtime/../system/SupriyaObject.html#supriya.system.SupriyaObject.SupriyaObject" xlink:title="Supriya\nObject" target="_top">
<path fill="#ccebc5" stroke="#ccebc5" stroke-width="2" d="M125,-61C125,-61 103,-61 103,-61 98,-61 93,-56 93,-51 93,-51 93,-41 93,-41 93,-36 98,-31 103,-31 103,-31 125,-31 125,-31 130,-31 135,-36 135,-41 135,-41 135,-51 135,-51 135,-56 130,-61 125,-61"/>
<text text-anchor="middle" x="114" y="-49" font-family="Arial" font-size="10.00" fill="#000000">Supriya</text>
<text text-anchor="middle" x="114" y="-38" font-family="Arial" font-size="10.00" fill="#000000">Object</text>
</a>
</g>
</g>
<!-- uqbar.containers.UniqueTreeContainer.UniqueTreeContainer -->
<g id="node7" class="node">
<title>uqbar.containers.UniqueTreeContainer.UniqueTreeContainer</title>
<path fill="#decbe4" stroke="#decbe4" stroke-width="2" d="M216.0772,-155.5C216.0772,-155.5 191.0772,-155.5 191.0772,-155.5 185.0772,-155.5 179.0772,-149.5 179.0772,-143.5 179.0772,-143.5 179.0772,-126.5 179.0772,-126.5 179.0772,-120.5 185.0772,-114.5 191.0772,-114.5 191.0772,-114.5 216.0772,-114.5 216.0772,-114.5 222.0772,-114.5 228.0772,-120.5 228.0772,-126.5 228.0772,-126.5 228.0772,-143.5 228.0772,-143.5 228.0772,-149.5 222.0772,-155.5 216.0772,-155.5"/>
<text text-anchor="middle" x="203.5772" y="-143.5" font-family="Arial" font-size="10.00" fill="#000000">Unique</text>
<text text-anchor="middle" x="203.5772" y="-132.5" font-family="Arial" font-size="10.00" fill="#000000">Tree</text>
<text text-anchor="middle" x="203.5772" y="-121.5" font-family="Arial" font-size="10.00" fill="#000000">Container</text>
</g>
<!-- uqbar.containers.UniqueTreeList.UniqueTreeList -->
<g id="node8" class="node">
<title>uqbar.containers.UniqueTreeList.UniqueTreeList</title>
<path fill="#decbe4" stroke="#decbe4" stroke-width="2" d="M299.196,-155.5C299.196,-155.5 283.196,-155.5 283.196,-155.5 277.196,-155.5 271.196,-149.5 271.196,-143.5 271.196,-143.5 271.196,-126.5 271.196,-126.5 271.196,-120.5 277.196,-114.5 283.196,-114.5 283.196,-114.5 299.196,-114.5 299.196,-114.5 305.196,-114.5 311.196,-120.5 311.196,-126.5 311.196,-126.5 311.196,-143.5 311.196,-143.5 311.196,-149.5 305.196,-155.5 299.196,-155.5"/>
<text text-anchor="middle" x="291.196" y="-143.5" font-family="Arial" font-size="10.00" fill="#000000">Unique</text>
<text text-anchor="middle" x="291.196" y="-132.5" font-family="Arial" font-size="10.00" fill="#000000">Tree</text>
<text text-anchor="middle" x="291.196" y="-121.5" font-family="Arial" font-size="10.00" fill="#000000">List</text>
</g>
<!-- uqbar.containers.UniqueTreeNode.UniqueTreeNode -->
<g id="node9" class="node">
<title>uqbar.containers.UniqueTreeNode.UniqueTreeNode</title>
<path fill="#decbe4" stroke="#decbe4" stroke-width="2" d="M122,-155.5C122,-155.5 106,-155.5 106,-155.5 100,-155.5 94,-149.5 94,-143.5 94,-143.5 94,-126.5 94,-126.5 94,-120.5 100,-114.5 106,-114.5 106,-114.5 122,-114.5 122,-114.5 128,-114.5 134,-120.5 134,-126.5 134,-126.5 134,-143.5 134,-143.5 134,-149.5 128,-155.5 122,-155.5"/>
<text text-anchor="middle" x="114" y="-143.5" font-family="Arial" font-size="10.00" fill="#000000">Unique</text>
<text text-anchor="middle" x="114" y="-132.5" font-family="Arial" font-size="10.00" fill="#000000">Tree</text>
<text text-anchor="middle" x="114" y="-121.5" font-family="Arial" font-size="10.00" fill="#000000">Node</text>
</g>
</g>
</svg>
