<?xml version="1.0" encoding="UTF-8" standalone="no"?>
<!DOCTYPE svg PUBLIC "-//W3C//DTD SVG 1.1//EN"
 "http://www.w3.org/Graphics/SVG/1.1/DTD/svg11.dtd">
<!-- Generated by graphviz version 2.44.1 (20200629.0846)
 -->
<!-- Title: InheritanceGraph Pages: 1 -->
<svg width="675pt" height="1220pt"
 viewBox="0.00 0.00 674.79 1220.00" xmlns="http://www.w3.org/2000/svg" xmlns:xlink="http://www.w3.org/1999/xlink">
<g id="graph0" class="graph" transform="scale(1 1) rotate(0) translate(4 1216)">
<title>InheritanceGraph</title>
<g id="clust1" class="cluster">
<title>cluster_builtins</title>
<path fill="transparent" stroke="#bcd2ee" stroke-width="2" stroke-dasharray="5,2" d="M20,-543C20,-543 55,-543 55,-543 61,-543 67,-549 67,-555 67,-555 67,-586 67,-586 67,-592 61,-598 55,-598 55,-598 20,-598 20,-598 14,-598 8,-592 8,-586 8,-586 8,-555 8,-555 8,-549 14,-543 20,-543"/>
<text text-anchor="middle" x="37.5" y="-586" font-family="Arial" font-size="10.00">builtins</text>
</g>
<g id="clust2" class="cluster">
<title>cluster_supriya.synthdefs.bases</title>
<path fill="transparent" stroke="#bcd2ee" stroke-width="2" stroke-dasharray="5,2" d="M347,-540C347,-540 493.79,-540 493.79,-540 499.79,-540 505.79,-546 505.79,-552 505.79,-552 505.79,-605 505.79,-605 505.79,-611 499.79,-617 493.79,-617 493.79,-617 347,-617 347,-617 341,-617 335,-611 335,-605 335,-605 335,-552 335,-552 335,-546 341,-540 347,-540"/>
<text text-anchor="middle" x="420.4" y="-605" font-family="Arial" font-size="10.00">supriya.synthdefs.bases</text>
</g>
<g id="clust3" class="cluster">
<title>cluster_supriya.synthdefs.mixins</title>
<path fill="transparent" stroke="#bcd2ee" stroke-width="2" stroke-dasharray="5,2" d="M202,-532C202,-532 303,-532 303,-532 309,-532 315,-538 315,-544 315,-544 315,-597 315,-597 315,-603 309,-609 303,-609 303,-609 202,-609 202,-609 196,-609 190,-603 190,-597 190,-597 190,-544 190,-544 190,-538 196,-532 202,-532"/>
<text text-anchor="middle" x="252.5" y="-597" font-family="Arial" font-size="10.00">supriya.synthdefs.mixins</text>
</g>
<g id="clust4" class="cluster">
<title>cluster_supriya.system</title>
<path fill="transparent" stroke="#bcd2ee" stroke-width="2" stroke-dasharray="5,2" d="M99,-538C99,-538 158,-538 158,-538 164,-538 170,-544 170,-550 170,-550 170,-591 170,-591 170,-597 164,-603 158,-603 158,-603 99,-603 99,-603 93,-603 87,-597 87,-591 87,-591 87,-550 87,-550 87,-544 93,-538 99,-538"/>
<text text-anchor="middle" x="128.5" y="-591" font-family="Arial" font-size="10.00">supriya.system</text>
</g>
<g id="clust5" class="cluster">
<title>cluster_supriya.ugens.delay</title>
<path fill="transparent" stroke="#bcd2ee" stroke-width="2" stroke-dasharray="5,2" d="M574.79,-8C574.79,-8 654.79,-8 654.79,-8 660.79,-8 666.79,-14 666.79,-20 666.79,-20 666.79,-1192 666.79,-1192 666.79,-1198 660.79,-1204 654.79,-1204 654.79,-1204 574.79,-1204 574.79,-1204 568.79,-1204 562.79,-1198 562.79,-1192 562.79,-1192 562.79,-20 562.79,-20 562.79,-14 568.79,-8 574.79,-8"/>
<text text-anchor="middle" x="614.79" y="-1192" font-family="Arial" font-size="10.00">supriya.ugens.delay</text>
</g>
<!-- builtins.object&#45;&gt;supriya.system.SupriyaObject -->
<g id="edge2" class="edge">
<title>builtins.object&#45;&gt;supriya.system.SupriyaObject</title>
<path fill="none" stroke="lightslategrey" d="M59.03,-561C69.03,-561 81.34,-561 92.72,-561"/>
<polygon fill="lightslategrey" stroke="lightslategrey" points="92.82,-564.5 102.82,-561 92.82,-557.5 92.82,-564.5"/>
</g>
<!-- supriya.synthdefs.bases.PureUGen&#45;&gt;supriya.ugens.delay.AllpassC -->
<g id="edge3" class="edge">
<title>supriya.synthdefs.bases.PureUGen&#45;&gt;supriya.ugens.delay.AllpassC</title>
<path fill="none" stroke="lightslategrey" d="M471.58,-590.31C479.2,-654.39 503.53,-850.82 533.79,-1012 544.4,-1068.48 526.81,-1093.2 562.79,-1138 567.33,-1143.64 573.51,-1148.04 579.98,-1151.43"/>
<polygon fill="lightslategrey" stroke="lightslategrey" points="578.98,-1154.81 589.54,-1155.71 581.84,-1148.43 578.98,-1154.81"/>
</g>
<!-- supriya.synthdefs.bases.PureUGen&#45;&gt;supriya.ugens.delay.AllpassL -->
<g id="edge4" class="edge">
<title>supriya.synthdefs.bases.PureUGen&#45;&gt;supriya.ugens.delay.AllpassL</title>
<path fill="none" stroke="lightslategrey" d="M471.14,-590.15C477.44,-652.82 498.32,-842.84 533.79,-997 543.5,-1039.19 534.42,-1057.3 562.79,-1090 567.5,-1095.42 573.69,-1099.71 580.13,-1103.07"/>
<polygon fill="lightslategrey" stroke="lightslategrey" points="579.03,-1106.42 589.58,-1107.35 581.92,-1100.04 579.03,-1106.42"/>
</g>
<!-- supriya.synthdefs.bases.PureUGen&#45;&gt;supriya.ugens.delay.AllpassN -->
<g id="edge5" class="edge">
<title>supriya.synthdefs.bases.PureUGen&#45;&gt;supriya.ugens.delay.AllpassN</title>
<path fill="none" stroke="lightslategrey" d="M470.73,-590.15C477.48,-672.4 505.49,-969.92 562.79,-1042 567.45,-1047.85 573.87,-1052.35 580.57,-1055.79"/>
<polygon fill="lightslategrey" stroke="lightslategrey" points="579.19,-1059.01 589.76,-1059.84 582.02,-1052.6 579.19,-1059.01"/>
</g>
<!-- supriya.synthdefs.bases.PureUGen&#45;&gt;supriya.ugens.delay.BufAllpassC -->
<g id="edge6" class="edge">
<title>supriya.synthdefs.bases.PureUGen&#45;&gt;supriya.ugens.delay.BufAllpassC</title>
<path fill="none" stroke="lightslategrey" d="M472.37,-590.18C480.66,-642.42 503.93,-781.44 533.79,-895 544.27,-934.83 536.77,-951.08 562.79,-983 567.62,-988.93 574.01,-993.88 580.61,-997.92"/>
<polygon fill="lightslategrey" stroke="lightslategrey" points="579.16,-1001.12 589.61,-1002.87 582.53,-994.99 579.16,-1001.12"/>
</g>
<!-- supriya.synthdefs.bases.PureUGen&#45;&gt;supriya.ugens.delay.BufAllpassL -->
<g id="edge7" class="edge">
<title>supriya.synthdefs.bases.PureUGen&#45;&gt;supriya.ugens.delay.BufAllpassL</title>
<path fill="none" stroke="lightslategrey" d="M468.88,-590.51C469.41,-650.34 478.64,-821.13 562.79,-924 567.63,-929.92 574.02,-934.87 580.62,-938.91"/>
<polygon fill="lightslategrey" stroke="lightslategrey" points="579.17,-942.11 589.62,-943.86 582.55,-935.98 579.17,-942.11"/>
</g>
<!-- supriya.synthdefs.bases.PureUGen&#45;&gt;supriya.ugens.delay.BufAllpassN -->
<g id="edge8" class="edge">
<title>supriya.synthdefs.bases.PureUGen&#45;&gt;supriya.ugens.delay.BufAllpassN</title>
<path fill="none" stroke="lightslategrey" d="M470.47,-590.17C474.89,-642.56 492.87,-780.13 562.79,-865 567.66,-870.9 574.05,-875.85 580.65,-879.89"/>
<polygon fill="lightslategrey" stroke="lightslategrey" points="579.2,-883.08 589.65,-884.84 582.58,-876.95 579.2,-883.08"/>
</g>
<!-- supriya.synthdefs.bases.PureUGen&#45;&gt;supriya.ugens.delay.BufCombC -->
<g id="edge9" class="edge">
<title>supriya.synthdefs.bases.PureUGen&#45;&gt;supriya.ugens.delay.BufCombC</title>
<path fill="none" stroke="lightslategrey" d="M472.58,-590.12C480.9,-634.73 505.64,-739.9 562.79,-806 568.37,-812.45 575.76,-817.8 583.16,-822.07"/>
<polygon fill="lightslategrey" stroke="lightslategrey" points="581.92,-825.37 592.4,-826.91 585.16,-819.17 581.92,-825.37"/>
</g>
<!-- supriya.synthdefs.bases.PureUGen&#45;&gt;supriya.ugens.delay.BufCombL -->
<g id="edge10" class="edge">
<title>supriya.synthdefs.bases.PureUGen&#45;&gt;supriya.ugens.delay.BufCombL</title>
<path fill="none" stroke="lightslategrey" d="M475.67,-589.71C487.9,-625.5 517.11,-699.6 562.79,-747 568.66,-753.09 576.09,-758.3 583.43,-762.55"/>
<polygon fill="lightslategrey" stroke="lightslategrey" points="582.09,-765.8 592.56,-767.42 585.38,-759.62 582.09,-765.8"/>
</g>
<!-- supriya.synthdefs.bases.PureUGen&#45;&gt;supriya.ugens.delay.BufCombN -->
<g id="edge11" class="edge">
<title>supriya.synthdefs.bases.PureUGen&#45;&gt;supriya.ugens.delay.BufCombN</title>
<path fill="none" stroke="lightslategrey" d="M480.84,-588.17C496.97,-613.35 527.97,-657.92 562.79,-688 569.03,-693.39 576.42,-698.29 583.6,-702.46"/>
<polygon fill="lightslategrey" stroke="lightslategrey" points="582.02,-705.59 592.47,-707.35 585.39,-699.46 582.02,-705.59"/>
</g>
<!-- supriya.synthdefs.bases.PureUGen&#45;&gt;supriya.ugens.delay.BufDelayC -->
<g id="edge12" class="edge">
<title>supriya.synthdefs.bases.PureUGen&#45;&gt;supriya.ugens.delay.BufDelayC</title>
<path fill="none" stroke="lightslategrey" d="M490.49,-583.12C509.37,-595.47 537.69,-613.77 562.79,-629 569.57,-633.11 576.93,-637.42 583.88,-641.43"/>
<polygon fill="lightslategrey" stroke="lightslategrey" points="582.59,-644.72 593.01,-646.65 586.07,-638.65 582.59,-644.72"/>
</g>
<!-- supriya.synthdefs.bases.PureUGen&#45;&gt;supriya.ugens.delay.BufDelayL -->
<g id="edge13" class="edge">
<title>supriya.synthdefs.bases.PureUGen&#45;&gt;supriya.ugens.delay.BufDelayL</title>
<path fill="none" stroke="lightslategrey" d="M496.9,-574.78C521.64,-579.93 557.75,-587.44 583.17,-592.73"/>
<polygon fill="lightslategrey" stroke="lightslategrey" points="582.51,-596.17 593.02,-594.78 583.94,-589.32 582.51,-596.17"/>
</g>
<!-- supriya.synthdefs.bases.PureUGen&#45;&gt;supriya.ugens.delay.BufDelayN -->
<g id="edge14" class="edge">
<title>supriya.synthdefs.bases.PureUGen&#45;&gt;supriya.ugens.delay.BufDelayN</title>
<path fill="none" stroke="lightslategrey" d="M496.9,-563.41C521.64,-558.43 557.75,-551.17 583.17,-546.06"/>
<polygon fill="lightslategrey" stroke="lightslategrey" points="583.9,-549.48 593.02,-544.08 582.52,-542.62 583.9,-549.48"/>
</g>
<!-- supriya.synthdefs.bases.PureUGen&#45;&gt;supriya.ugens.delay.CombC -->
<g id="edge15" class="edge">
<title>supriya.synthdefs.bases.PureUGen&#45;&gt;supriya.ugens.delay.CombC</title>
<path fill="none" stroke="lightslategrey" d="M490.71,-554.81C509.48,-542.69 537.54,-525.03 562.79,-511 569.38,-507.34 576.57,-503.62 583.41,-500.21"/>
<polygon fill="lightslategrey" stroke="lightslategrey" points="584.99,-503.33 592.43,-495.78 581.91,-497.05 584.99,-503.33"/>
</g>
<!-- supriya.synthdefs.bases.PureUGen&#45;&gt;supriya.ugens.delay.CombL -->
<g id="edge16" class="edge">
<title>supriya.synthdefs.bases.PureUGen&#45;&gt;supriya.ugens.delay.CombL</title>
<path fill="none" stroke="lightslategrey" d="M482.09,-549.87C498.63,-526.66 529.12,-487.47 562.79,-462 568.97,-457.33 576.2,-453.24 583.22,-449.82"/>
<polygon fill="lightslategrey" stroke="lightslategrey" points="584.9,-452.91 592.56,-445.59 582.01,-446.53 584.9,-452.91"/>
</g>
<!-- supriya.synthdefs.bases.PureUGen&#45;&gt;supriya.ugens.delay.CombN -->
<g id="edge17" class="edge">
<title>supriya.synthdefs.bases.PureUGen&#45;&gt;supriya.ugens.delay.CombN</title>
<path fill="none" stroke="lightslategrey" d="M476.87,-548.59C490.09,-516.25 519.77,-452.92 562.79,-414 568.68,-408.67 575.97,-404.3 583.15,-400.81"/>
<polygon fill="lightslategrey" stroke="lightslategrey" points="584.99,-403.83 592.75,-396.61 582.18,-397.42 584.99,-403.83"/>
</g>
<!-- supriya.synthdefs.bases.PureUGen&#45;&gt;supriya.ugens.delay.Delay1 -->
<g id="edge18" class="edge">
<title>supriya.synthdefs.bases.PureUGen&#45;&gt;supriya.ugens.delay.Delay1</title>
<path fill="none" stroke="lightslategrey" d="M473.68,-548.16C483.47,-508.06 509.98,-419.41 562.79,-366 568.65,-360.08 576.25,-355.43 583.77,-351.87"/>
<polygon fill="lightslategrey" stroke="lightslategrey" points="585.26,-355.04 593.11,-347.92 582.54,-348.59 585.26,-355.04"/>
</g>
<!-- supriya.synthdefs.bases.PureUGen&#45;&gt;supriya.ugens.delay.Delay2 -->
<g id="edge19" class="edge">
<title>supriya.synthdefs.bases.PureUGen&#45;&gt;supriya.ugens.delay.Delay2</title>
<path fill="none" stroke="lightslategrey" d="M471.61,-547.71C478.2,-500.62 500.07,-386.39 562.79,-318 568.47,-311.81 576.07,-307.07 583.65,-303.49"/>
<polygon fill="lightslategrey" stroke="lightslategrey" points="585.2,-306.64 593.1,-299.58 582.52,-300.18 585.2,-306.64"/>
</g>
<!-- supriya.synthdefs.bases.PureUGen&#45;&gt;supriya.ugens.delay.DelayC -->
<g id="edge20" class="edge">
<title>supriya.synthdefs.bases.PureUGen&#45;&gt;supriya.ugens.delay.DelayC</title>
<path fill="none" stroke="lightslategrey" d="M469.88,-547.58C472.97,-493.99 488.15,-352.49 562.79,-270 568.43,-263.77 576.02,-259.02 583.6,-255.44"/>
<polygon fill="lightslategrey" stroke="lightslategrey" points="585.15,-258.59 593.05,-251.53 582.47,-252.12 585.15,-258.59"/>
</g>
<!-- supriya.synthdefs.bases.PureUGen&#45;&gt;supriya.ugens.delay.DelayL -->
<g id="edge21" class="edge">
<title>supriya.synthdefs.bases.PureUGen&#45;&gt;supriya.ugens.delay.DelayL</title>
<path fill="none" stroke="lightslategrey" d="M468.58,-547.58C468.32,-488.04 475.69,-318.64 562.79,-222 568.52,-215.64 576.3,-210.82 584.02,-207.22"/>
<polygon fill="lightslategrey" stroke="lightslategrey" points="585.36,-210.46 593.29,-203.43 582.71,-203.98 585.36,-210.46"/>
</g>
<!-- supriya.synthdefs.bases.PureUGen&#45;&gt;supriya.ugens.delay.DelayN -->
<g id="edge22" class="edge">
<title>supriya.synthdefs.bases.PureUGen&#45;&gt;supriya.ugens.delay.DelayN</title>
<path fill="none" stroke="lightslategrey" d="M472.44,-547.89C480.7,-497.09 503.62,-364.24 533.79,-256 544.17,-218.76 536.91,-202.71 562.79,-174 568.52,-167.64 576.3,-162.82 584.02,-159.22"/>
<polygon fill="lightslategrey" stroke="lightslategrey" points="585.36,-162.46 593.29,-155.43 582.71,-155.98 585.36,-162.46"/>
</g>
<!-- supriya.synthdefs.bases.UGen&#45;&gt;supriya.synthdefs.bases.PureUGen -->
<g id="edge1" class="edge">
<title>supriya.synthdefs.bases.UGen&#45;&gt;supriya.synthdefs.bases.PureUGen</title>
<path fill="none" stroke="lightslategrey" d="M401.97,-563.42C410.31,-564.14 419.58,-564.93 428.45,-565.69"/>
<polygon fill="lightslategrey" stroke="lightslategrey" points="428.33,-569.19 438.59,-566.56 428.93,-562.22 428.33,-569.19"/>
</g>
<!-- supriya.synthdefs.bases.UGen&#45;&gt;supriya.ugens.delay.DelTapRd -->
<g id="edge23" class="edge">
<title>supriya.synthdefs.bases.UGen&#45;&gt;supriya.ugens.delay.DelTapRd</title>
<path fill="none" stroke="lightslategrey" d="M376.34,-547.66C388.24,-490.58 441.65,-263.46 562.79,-126 569.9,-117.94 579.71,-111.43 588.8,-106.56"/>
<polygon fill="lightslategrey" stroke="lightslategrey" points="590.45,-109.65 597.87,-102.09 587.35,-103.37 590.45,-109.65"/>
</g>
<!-- supriya.synthdefs.bases.UGen&#45;&gt;supriya.ugens.delay.DelTapWr -->
<g id="edge24" class="edge">
<title>supriya.synthdefs.bases.UGen&#45;&gt;supriya.ugens.delay.DelTapWr</title>
<path fill="none" stroke="lightslategrey" d="M373.51,-547.5C373.36,-498.44 377.43,-326.1 438.4,-203 474.75,-129.59 499.25,-118.7 562.79,-67 570.81,-60.48 580.39,-54.42 589.05,-49.48"/>
<polygon fill="lightslategrey" stroke="lightslategrey" points="590.87,-52.47 597.95,-44.58 587.5,-46.33 590.87,-52.47"/>
</g>
<!-- supriya.synthdefs.mixins.UGenMethodMixin&#45;&gt;supriya.synthdefs.bases.UGen -->
<g id="edge25" class="edge">
<title>supriya.synthdefs.mixins.UGenMethodMixin&#45;&gt;supriya.synthdefs.bases.UGen</title>
<path fill="none" stroke="lightslategrey" d="M277.14,-561C292.98,-561 314.22,-561 332.55,-561"/>
<polygon fill="lightslategrey" stroke="lightslategrey" points="332.67,-564.5 342.67,-561 332.67,-557.5 332.67,-564.5"/>
</g>
<!-- supriya.system.SupriyaObject&#45;&gt;supriya.synthdefs.mixins.UGenMethodMixin -->
<g id="edge26" class="edge">
<title>supriya.system.SupriyaObject&#45;&gt;supriya.synthdefs.mixins.UGenMethodMixin</title>
<path fill="none" stroke="lightslategrey" d="M153.2,-561C171.61,-561 197.17,-561 217.61,-561"/>
<polygon fill="lightslategrey" stroke="lightslategrey" points="217.77,-564.5 227.77,-561 217.77,-557.5 217.77,-564.5"/>
</g>
<!-- builtins.object -->
<g id="node1" class="node">
<title>builtins.object</title>
<g id="a_node1"><a xlink:href="https://docs.python.org/3/library/functions.html#object" xlink:title="object" target="_top">
<path fill="#fbb4ae" stroke="#fbb4ae" stroke-width="2" d="M52.67,-570.5C52.67,-570.5 22.33,-570.5 22.33,-570.5 19.17,-570.5 16,-567.33 16,-564.17 16,-564.17 16,-557.83 16,-557.83 16,-554.67 19.17,-551.5 22.33,-551.5 22.33,-551.5 52.67,-551.5 52.67,-551.5 55.83,-551.5 59,-554.67 59,-557.83 59,-557.83 59,-564.17 59,-564.17 59,-567.33 55.83,-570.5 52.67,-570.5"/>
<text text-anchor="middle" x="37.5" y="-558.5" font-family="Arial" font-size="10.00">object</text>
</a>
</g>
</g>
<!-- supriya.synthdefs.bases.PureUGen -->
<g id="node2" class="node">
<title>supriya.synthdefs.bases.PureUGen</title>
<g id="a_node2"><a xlink:href="../api/supriya/ugens/../synthdefs/bases.html#supriya.synthdefs.bases.PureUGen" xlink:title="Pure\nUGen" target="_top">
<ellipse fill="none" stroke="#b3cde3" stroke-width="2" cx="468.1" cy="-569" rx="29.9" ry="21.43"/>
<text text-anchor="middle" x="468.1" y="-572" font-family="Arial" font-size="10.00">Pure</text>
<text text-anchor="middle" x="468.1" y="-561" font-family="Arial" font-size="10.00">UGen</text>
</a>
</g>
</g>
<!-- supriya.synthdefs.bases.UGen -->
<g id="node3" class="node">
<title>supriya.synthdefs.bases.UGen</title>
<g id="a_node3"><a xlink:href="../api/supriya/ugens/../synthdefs/bases.html#supriya.synthdefs.bases.UGen" xlink:title="UGen" target="_top">
<ellipse fill="none" stroke="#b3cde3" stroke-width="2" cx="372.7" cy="-561" rx="29.9" ry="13.37"/>
<text text-anchor="middle" x="372.7" y="-558.5" font-family="Arial" font-size="10.00">UGen</text>
</a>
</g>
</g>
<!-- supriya.synthdefs.mixins.UGenMethodMixin -->
<g id="node4" class="node">
<title>supriya.synthdefs.mixins.UGenMethodMixin</title>
<g id="a_node4"><a xlink:href="../api/supriya/ugens/../synthdefs/mixins.html#supriya.synthdefs.mixins.UGenMethodMixin" xlink:title="UGen\nMethod\nMixin" target="_top">
<path fill="#ccebc5" stroke="#ccebc5" stroke-width="2" d="M265,-581.5C265,-581.5 240,-581.5 240,-581.5 234,-581.5 228,-575.5 228,-569.5 228,-569.5 228,-552.5 228,-552.5 228,-546.5 234,-540.5 240,-540.5 240,-540.5 265,-540.5 265,-540.5 271,-540.5 277,-546.5 277,-552.5 277,-552.5 277,-569.5 277,-569.5 277,-575.5 271,-581.5 265,-581.5"/>
<text text-anchor="middle" x="252.5" y="-569.5" font-family="Arial" font-size="10.00">UGen</text>
<text text-anchor="middle" x="252.5" y="-558.5" font-family="Arial" font-size="10.00">Method</text>
<text text-anchor="middle" x="252.5" y="-547.5" font-family="Arial" font-size="10.00">Mixin</text>
</a>
</g>
</g>
<!-- supriya.system.SupriyaObject -->
<g id="node5" class="node">
<title>supriya.system.SupriyaObject</title>
<g id="a_node5"><a xlink:href="../api/supriya/ugens/../system.html#supriya.system.SupriyaObject" xlink:title="Supriya\nObject" target="_top">
<path fill="#decbe4" stroke="#decbe4" stroke-width="2" d="M143,-576C143,-576 113,-576 113,-576 108,-576 103,-571 103,-566 103,-566 103,-556 103,-556 103,-551 108,-546 113,-546 113,-546 143,-546 143,-546 148,-546 153,-551 153,-556 153,-556 153,-566 153,-566 153,-571 148,-576 143,-576"/>
<text text-anchor="middle" x="128" y="-564" font-family="Arial" font-size="10.00">Supriya</text>
<text text-anchor="middle" x="128" y="-553" font-family="Arial" font-size="10.00">Object</text>
</a>
</g>
</g>
<!-- supriya.ugens.delay.AllpassC -->
<g id="node6" class="node">
<title>supriya.ugens.delay.AllpassC</title>
<g id="a_node6"><a xlink:href="../api/supriya/ugens/delay.html#supriya.ugens.delay.AllpassC" xlink:title="Allpass\nC" target="_top">
<path fill="black" stroke="black" stroke-width="2" d="M628.79,-1177C628.79,-1177 599.79,-1177 599.79,-1177 594.79,-1177 589.79,-1172 589.79,-1167 589.79,-1167 589.79,-1157 589.79,-1157 589.79,-1152 594.79,-1147 599.79,-1147 599.79,-1147 628.79,-1147 628.79,-1147 633.79,-1147 638.79,-1152 638.79,-1157 638.79,-1157 638.79,-1167 638.79,-1167 638.79,-1172 633.79,-1177 628.79,-1177"/>
<text text-anchor="middle" x="614.29" y="-1165" font-family="Arial" font-size="10.00" fill="white">Allpass</text>
<text text-anchor="middle" x="614.29" y="-1154" font-family="Arial" font-size="10.00" fill="white">C</text>
</a>
</g>
</g>
<!-- supriya.ugens.delay.AllpassL -->
<g id="node7" class="node">
<title>supriya.ugens.delay.AllpassL</title>
<g id="a_node7"><a xlink:href="../api/supriya/ugens/delay.html#supriya.ugens.delay.AllpassL" xlink:title="Allpass\nL" target="_top">
<path fill="black" stroke="black" stroke-width="2" d="M628.79,-1129C628.79,-1129 599.79,-1129 599.79,-1129 594.79,-1129 589.79,-1124 589.79,-1119 589.79,-1119 589.79,-1109 589.79,-1109 589.79,-1104 594.79,-1099 599.79,-1099 599.79,-1099 628.79,-1099 628.79,-1099 633.79,-1099 638.79,-1104 638.79,-1109 638.79,-1109 638.79,-1119 638.79,-1119 638.79,-1124 633.79,-1129 628.79,-1129"/>
<text text-anchor="middle" x="614.29" y="-1117" font-family="Arial" font-size="10.00" fill="white">Allpass</text>
<text text-anchor="middle" x="614.29" y="-1106" font-family="Arial" font-size="10.00" fill="white">L</text>
</a>
</g>
</g>
<!-- supriya.ugens.delay.AllpassN -->
<g id="node8" class="node">
<title>supriya.ugens.delay.AllpassN</title>
<g id="a_node8"><a xlink:href="../api/supriya/ugens/delay.html#supriya.ugens.delay.AllpassN" xlink:title="Allpass\nN" target="_top">
<path fill="black" stroke="black" stroke-width="2" d="M628.79,-1081C628.79,-1081 599.79,-1081 599.79,-1081 594.79,-1081 589.79,-1076 589.79,-1071 589.79,-1071 589.79,-1061 589.79,-1061 589.79,-1056 594.79,-1051 599.79,-1051 599.79,-1051 628.79,-1051 628.79,-1051 633.79,-1051 638.79,-1056 638.79,-1061 638.79,-1061 638.79,-1071 638.79,-1071 638.79,-1076 633.79,-1081 628.79,-1081"/>
<text text-anchor="middle" x="614.29" y="-1069" font-family="Arial" font-size="10.00" fill="white">Allpass</text>
<text text-anchor="middle" x="614.29" y="-1058" font-family="Arial" font-size="10.00" fill="white">N</text>
</a>
</g>
</g>
<!-- supriya.ugens.delay.BufAllpassC -->
<g id="node9" class="node">
<title>supriya.ugens.delay.BufAllpassC</title>
<g id="a_node9"><a xlink:href="../api/supriya/ugens/delay.html#supriya.ugens.delay.BufAllpassC" xlink:title="Buf\nAllpass\nC" target="_top">
<path fill="black" stroke="black" stroke-width="2" d="M626.79,-1032.5C626.79,-1032.5 601.79,-1032.5 601.79,-1032.5 595.79,-1032.5 589.79,-1026.5 589.79,-1020.5 589.79,-1020.5 589.79,-1003.5 589.79,-1003.5 589.79,-997.5 595.79,-991.5 601.79,-991.5 601.79,-991.5 626.79,-991.5 626.79,-991.5 632.79,-991.5 638.79,-997.5 638.79,-1003.5 638.79,-1003.5 638.79,-1020.5 638.79,-1020.5 638.79,-1026.5 632.79,-1032.5 626.79,-1032.5"/>
<text text-anchor="middle" x="614.29" y="-1020.5" font-family="Arial" font-size="10.00" fill="white">Buf</text>
<text text-anchor="middle" x="614.29" y="-1009.5" font-family="Arial" font-size="10.00" fill="white">Allpass</text>
<text text-anchor="middle" x="614.29" y="-998.5" font-family="Arial" font-size="10.00" fill="white">C</text>
</a>
</g>
</g>
<!-- supriya.ugens.delay.BufAllpassL -->
<g id="node10" class="node">
<title>supriya.ugens.delay.BufAllpassL</title>
<g id="a_node10"><a xlink:href="../api/supriya/ugens/delay.html#supriya.ugens.delay.BufAllpassL" xlink:title="Buf\nAllpass\nL" target="_top">
<path fill="black" stroke="black" stroke-width="2" d="M626.79,-973.5C626.79,-973.5 601.79,-973.5 601.79,-973.5 595.79,-973.5 589.79,-967.5 589.79,-961.5 589.79,-961.5 589.79,-944.5 589.79,-944.5 589.79,-938.5 595.79,-932.5 601.79,-932.5 601.79,-932.5 626.79,-932.5 626.79,-932.5 632.79,-932.5 638.79,-938.5 638.79,-944.5 638.79,-944.5 638.79,-961.5 638.79,-961.5 638.79,-967.5 632.79,-973.5 626.79,-973.5"/>
<text text-anchor="middle" x="614.29" y="-961.5" font-family="Arial" font-size="10.00" fill="white">Buf</text>
<text text-anchor="middle" x="614.29" y="-950.5" font-family="Arial" font-size="10.00" fill="white">Allpass</text>
<text text-anchor="middle" x="614.29" y="-939.5" font-family="Arial" font-size="10.00" fill="white">L</text>
</a>
</g>
</g>
<!-- supriya.ugens.delay.BufAllpassN -->
<g id="node11" class="node">
<title>supriya.ugens.delay.BufAllpassN</title>
<g id="a_node11"><a xlink:href="../api/supriya/ugens/delay.html#supriya.ugens.delay.BufAllpassN" xlink:title="Buf\nAllpass\nN" target="_top">
<path fill="black" stroke="black" stroke-width="2" d="M626.79,-914.5C626.79,-914.5 601.79,-914.5 601.79,-914.5 595.79,-914.5 589.79,-908.5 589.79,-902.5 589.79,-902.5 589.79,-885.5 589.79,-885.5 589.79,-879.5 595.79,-873.5 601.79,-873.5 601.79,-873.5 626.79,-873.5 626.79,-873.5 632.79,-873.5 638.79,-879.5 638.79,-885.5 638.79,-885.5 638.79,-902.5 638.79,-902.5 638.79,-908.5 632.79,-914.5 626.79,-914.5"/>
<text text-anchor="middle" x="614.29" y="-902.5" font-family="Arial" font-size="10.00" fill="white">Buf</text>
<text text-anchor="middle" x="614.29" y="-891.5" font-family="Arial" font-size="10.00" fill="white">Allpass</text>
<text text-anchor="middle" x="614.29" y="-880.5" font-family="Arial" font-size="10.00" fill="white">N</text>
</a>
</g>
</g>
<!-- supriya.ugens.delay.BufCombC -->
<g id="node12" class="node">
<title>supriya.ugens.delay.BufCombC</title>
<g id="a_node12"><a xlink:href="../api/supriya/ugens/delay.html#supriya.ugens.delay.BufCombC" xlink:title="Buf\nComb\nC" target="_top">
<path fill="black" stroke="black" stroke-width="2" d="M623.79,-855.5C623.79,-855.5 604.79,-855.5 604.79,-855.5 598.79,-855.5 592.79,-849.5 592.79,-843.5 592.79,-843.5 592.79,-826.5 592.79,-826.5 592.79,-820.5 598.79,-814.5 604.79,-814.5 604.79,-814.5 623.79,-814.5 623.79,-814.5 629.79,-814.5 635.79,-820.5 635.79,-826.5 635.79,-826.5 635.79,-843.5 635.79,-843.5 635.79,-849.5 629.79,-855.5 623.79,-855.5"/>
<text text-anchor="middle" x="614.29" y="-843.5" font-family="Arial" font-size="10.00" fill="white">Buf</text>
<text text-anchor="middle" x="614.29" y="-832.5" font-family="Arial" font-size="10.00" fill="white">Comb</text>
<text text-anchor="middle" x="614.29" y="-821.5" font-family="Arial" font-size="10.00" fill="white">C</text>
</a>
</g>
</g>
<!-- supriya.ugens.delay.BufCombL -->
<g id="node13" class="node">
<title>supriya.ugens.delay.BufCombL</title>
<g id="a_node13"><a xlink:href="../api/supriya/ugens/delay.html#supriya.ugens.delay.BufCombL" xlink:title="Buf\nComb\nL" target="_top">
<path fill="black" stroke="black" stroke-width="2" d="M623.79,-796.5C623.79,-796.5 604.79,-796.5 604.79,-796.5 598.79,-796.5 592.79,-790.5 592.79,-784.5 592.79,-784.5 592.79,-767.5 592.79,-767.5 592.79,-761.5 598.79,-755.5 604.79,-755.5 604.79,-755.5 623.79,-755.5 623.79,-755.5 629.79,-755.5 635.79,-761.5 635.79,-767.5 635.79,-767.5 635.79,-784.5 635.79,-784.5 635.79,-790.5 629.79,-796.5 623.79,-796.5"/>
<text text-anchor="middle" x="614.29" y="-784.5" font-family="Arial" font-size="10.00" fill="white">Buf</text>
<text text-anchor="middle" x="614.29" y="-773.5" font-family="Arial" font-size="10.00" fill="white">Comb</text>
<text text-anchor="middle" x="614.29" y="-762.5" font-family="Arial" font-size="10.00" fill="white">L</text>
</a>
</g>
</g>
<!-- supriya.ugens.delay.BufCombN -->
<g id="node14" class="node">
<title>supriya.ugens.delay.BufCombN</title>
<g id="a_node14"><a xlink:href="../api/supriya/ugens/delay.html#supriya.ugens.delay.BufCombN" xlink:title="Buf\nComb\nN" target="_top">
<path fill="black" stroke="black" stroke-width="2" d="M623.79,-737.5C623.79,-737.5 604.79,-737.5 604.79,-737.5 598.79,-737.5 592.79,-731.5 592.79,-725.5 592.79,-725.5 592.79,-708.5 592.79,-708.5 592.79,-702.5 598.79,-696.5 604.79,-696.5 604.79,-696.5 623.79,-696.5 623.79,-696.5 629.79,-696.5 635.79,-702.5 635.79,-708.5 635.79,-708.5 635.79,-725.5 635.79,-725.5 635.79,-731.5 629.79,-737.5 623.79,-737.5"/>
<text text-anchor="middle" x="614.29" y="-725.5" font-family="Arial" font-size="10.00" fill="white">Buf</text>
<text text-anchor="middle" x="614.29" y="-714.5" font-family="Arial" font-size="10.00" fill="white">Comb</text>
<text text-anchor="middle" x="614.29" y="-703.5" font-family="Arial" font-size="10.00" fill="white">N</text>
</a>
</g>
</g>
<!-- supriya.ugens.delay.BufDelayC -->
<g id="node15" class="node">
<title>supriya.ugens.delay.BufDelayC</title>
<g id="a_node15"><a xlink:href="../api/supriya/ugens/delay.html#supriya.ugens.delay.BufDelayC" xlink:title="Buf\nDelay\nC" target="_top">
<path fill="black" stroke="black" stroke-width="2" d="M623.29,-678.5C623.29,-678.5 605.29,-678.5 605.29,-678.5 599.29,-678.5 593.29,-672.5 593.29,-666.5 593.29,-666.5 593.29,-649.5 593.29,-649.5 593.29,-643.5 599.29,-637.5 605.29,-637.5 605.29,-637.5 623.29,-637.5 623.29,-637.5 629.29,-637.5 635.29,-643.5 635.29,-649.5 635.29,-649.5 635.29,-666.5 635.29,-666.5 635.29,-672.5 629.29,-678.5 623.29,-678.5"/>
<text text-anchor="middle" x="614.29" y="-666.5" font-family="Arial" font-size="10.00" fill="white">Buf</text>
<text text-anchor="middle" x="614.29" y="-655.5" font-family="Arial" font-size="10.00" fill="white">Delay</text>
<text text-anchor="middle" x="614.29" y="-644.5" font-family="Arial" font-size="10.00" fill="white">C</text>
</a>
</g>
</g>
<!-- supriya.ugens.delay.BufDelayL -->
<g id="node16" class="node">
<title>supriya.ugens.delay.BufDelayL</title>
<g id="a_node16"><a xlink:href="../api/supriya/ugens/delay.html#supriya.ugens.delay.BufDelayL" xlink:title="Buf\nDelay\nL" target="_top">
<path fill="black" stroke="black" stroke-width="2" d="M623.29,-619.5C623.29,-619.5 605.29,-619.5 605.29,-619.5 599.29,-619.5 593.29,-613.5 593.29,-607.5 593.29,-607.5 593.29,-590.5 593.29,-590.5 593.29,-584.5 599.29,-578.5 605.29,-578.5 605.29,-578.5 623.29,-578.5 623.29,-578.5 629.29,-578.5 635.29,-584.5 635.29,-590.5 635.29,-590.5 635.29,-607.5 635.29,-607.5 635.29,-613.5 629.29,-619.5 623.29,-619.5"/>
<text text-anchor="middle" x="614.29" y="-607.5" font-family="Arial" font-size="10.00" fill="white">Buf</text>
<text text-anchor="middle" x="614.29" y="-596.5" font-family="Arial" font-size="10.00" fill="white">Delay</text>
<text text-anchor="middle" x="614.29" y="-585.5" font-family="Arial" font-size="10.00" fill="white">L</text>
</a>
</g>
</g>
<!-- supriya.ugens.delay.BufDelayN -->
<g id="node17" class="node">
<title>supriya.ugens.delay.BufDelayN</title>
<g id="a_node17"><a xlink:href="../api/supriya/ugens/delay.html#supriya.ugens.delay.BufDelayN" xlink:title="Buf\nDelay\nN" target="_top">
<path fill="black" stroke="black" stroke-width="2" d="M623.29,-560.5C623.29,-560.5 605.29,-560.5 605.29,-560.5 599.29,-560.5 593.29,-554.5 593.29,-548.5 593.29,-548.5 593.29,-531.5 593.29,-531.5 593.29,-525.5 599.29,-519.5 605.29,-519.5 605.29,-519.5 623.29,-519.5 623.29,-519.5 629.29,-519.5 635.29,-525.5 635.29,-531.5 635.29,-531.5 635.29,-548.5 635.29,-548.5 635.29,-554.5 629.29,-560.5 623.29,-560.5"/>
<text text-anchor="middle" x="614.29" y="-548.5" font-family="Arial" font-size="10.00" fill="white">Buf</text>
<text text-anchor="middle" x="614.29" y="-537.5" font-family="Arial" font-size="10.00" fill="white">Delay</text>
<text text-anchor="middle" x="614.29" y="-526.5" font-family="Arial" font-size="10.00" fill="white">N</text>
</a>
</g>
</g>
<!-- supriya.ugens.delay.CombC -->
<g id="node18" class="node">
<title>supriya.ugens.delay.CombC</title>
<g id="a_node18"><a xlink:href="../api/supriya/ugens/delay.html#supriya.ugens.delay.CombC" xlink:title="Comb\nC" target="_top">
<path fill="black" stroke="black" stroke-width="2" d="M625.79,-501C625.79,-501 602.79,-501 602.79,-501 597.79,-501 592.79,-496 592.79,-491 592.79,-491 592.79,-481 592.79,-481 592.79,-476 597.79,-471 602.79,-471 602.79,-471 625.79,-471 625.79,-471 630.79,-471 635.79,-476 635.79,-481 635.79,-481 635.79,-491 635.79,-491 635.79,-496 630.79,-501 625.79,-501"/>
<text text-anchor="middle" x="614.29" y="-489" font-family="Arial" font-size="10.00" fill="white">Comb</text>
<text text-anchor="middle" x="614.29" y="-478" font-family="Arial" font-size="10.00" fill="white">C</text>
</a>
</g>
</g>
<!-- supriya.ugens.delay.CombL -->
<g id="node19" class="node">
<title>supriya.ugens.delay.CombL</title>
<g id="a_node19"><a xlink:href="../api/supriya/ugens/delay.html#supriya.ugens.delay.CombL" xlink:title="Comb\nL" target="_top">
<path fill="black" stroke="black" stroke-width="2" d="M625.79,-453C625.79,-453 602.79,-453 602.79,-453 597.79,-453 592.79,-448 592.79,-443 592.79,-443 592.79,-433 592.79,-433 592.79,-428 597.79,-423 602.79,-423 602.79,-423 625.79,-423 625.79,-423 630.79,-423 635.79,-428 635.79,-433 635.79,-433 635.79,-443 635.79,-443 635.79,-448 630.79,-453 625.79,-453"/>
<text text-anchor="middle" x="614.29" y="-441" font-family="Arial" font-size="10.00" fill="white">Comb</text>
<text text-anchor="middle" x="614.29" y="-430" font-family="Arial" font-size="10.00" fill="white">L</text>
</a>
</g>
</g>
<!-- supriya.ugens.delay.CombN -->
<g id="node20" class="node">
<title>supriya.ugens.delay.CombN</title>
<g id="a_node20"><a xlink:href="../api/supriya/ugens/delay.html#supriya.ugens.delay.CombN" xlink:title="Comb\nN" target="_top">
<path fill="black" stroke="black" stroke-width="2" d="M625.79,-405C625.79,-405 602.79,-405 602.79,-405 597.79,-405 592.79,-400 592.79,-395 592.79,-395 592.79,-385 592.79,-385 592.79,-380 597.79,-375 602.79,-375 602.79,-375 625.79,-375 625.79,-375 630.79,-375 635.79,-380 635.79,-385 635.79,-385 635.79,-395 635.79,-395 635.79,-400 630.79,-405 625.79,-405"/>
<text text-anchor="middle" x="614.29" y="-393" font-family="Arial" font-size="10.00" fill="white">Comb</text>
<text text-anchor="middle" x="614.29" y="-382" font-family="Arial" font-size="10.00" fill="white">N</text>
</a>
</g>
</g>
<!-- supriya.ugens.delay.DelTapRd -->
<g id="node21" class="node">
<title>supriya.ugens.delay.DelTapRd</title>
<g id="a_node21"><a xlink:href="../api/supriya/ugens/delay.html#supriya.ugens.delay.DelTapRd" xlink:title="Del\nTap\nRd" target="_top">
<path fill="black" stroke="black" stroke-width="2" d="M619.63,-116.5C619.63,-116.5 608.96,-116.5 608.96,-116.5 603.63,-116.5 598.29,-111.17 598.29,-105.83 598.29,-105.83 598.29,-86.17 598.29,-86.17 598.29,-80.83 603.63,-75.5 608.96,-75.5 608.96,-75.5 619.63,-75.5 619.63,-75.5 624.96,-75.5 630.29,-80.83 630.29,-86.17 630.29,-86.17 630.29,-105.83 630.29,-105.83 630.29,-111.17 624.96,-116.5 619.63,-116.5"/>
<text text-anchor="middle" x="614.29" y="-104.5" font-family="Arial" font-size="10.00" fill="white">Del</text>
<text text-anchor="middle" x="614.29" y="-93.5" font-family="Arial" font-size="10.00" fill="white">Tap</text>
<text text-anchor="middle" x="614.29" y="-82.5" font-family="Arial" font-size="10.00" fill="white">Rd</text>
</a>
</g>
</g>
<!-- supriya.ugens.delay.DelTapWr -->
<g id="node22" class="node">
<title>supriya.ugens.delay.DelTapWr</title>
<g id="a_node22"><a xlink:href="../api/supriya/ugens/delay.html#supriya.ugens.delay.DelTapWr" xlink:title="Del\nTap\nWr" target="_top">
<path fill="black" stroke="black" stroke-width="2" d="M619.63,-57.5C619.63,-57.5 608.96,-57.5 608.96,-57.5 603.63,-57.5 598.29,-52.17 598.29,-46.83 598.29,-46.83 598.29,-27.17 598.29,-27.17 598.29,-21.83 603.63,-16.5 608.96,-16.5 608.96,-16.5 619.63,-16.5 619.63,-16.5 624.96,-16.5 630.29,-21.83 630.29,-27.17 630.29,-27.17 630.29,-46.83 630.29,-46.83 630.29,-52.17 624.96,-57.5 619.63,-57.5"/>
<text text-anchor="middle" x="614.29" y="-45.5" font-family="Arial" font-size="10.00" fill="white">Del</text>
<text text-anchor="middle" x="614.29" y="-34.5" font-family="Arial" font-size="10.00" fill="white">Tap</text>
<text text-anchor="middle" x="614.29" y="-23.5" font-family="Arial" font-size="10.00" fill="white">Wr</text>
</a>
</g>
</g>
<!-- supriya.ugens.delay.Delay1 -->
<g id="node23" class="node">
<title>supriya.ugens.delay.Delay1</title>
<g id="a_node23"><a xlink:href="../api/supriya/ugens/delay.html#supriya.ugens.delay.Delay1" xlink:title="Delay\n1" target="_top">
<path fill="black" stroke="black" stroke-width="2" d="M625.29,-357C625.29,-357 603.29,-357 603.29,-357 598.29,-357 593.29,-352 593.29,-347 593.29,-347 593.29,-337 593.29,-337 593.29,-332 598.29,-327 603.29,-327 603.29,-327 625.29,-327 625.29,-327 630.29,-327 635.29,-332 635.29,-337 635.29,-337 635.29,-347 635.29,-347 635.29,-352 630.29,-357 625.29,-357"/>
<text text-anchor="middle" x="614.29" y="-345" font-family="Arial" font-size="10.00" fill="white">Delay</text>
<text text-anchor="middle" x="614.29" y="-334" font-family="Arial" font-size="10.00" fill="white">1</text>
</a>
</g>
</g>
<!-- supriya.ugens.delay.Delay2 -->
<g id="node24" class="node">
<title>supriya.ugens.delay.Delay2</title>
<g id="a_node24"><a xlink:href="../api/supriya/ugens/delay.html#supriya.ugens.delay.Delay2" xlink:title="Delay\n2" target="_top">
<path fill="black" stroke="black" stroke-width="2" d="M625.29,-309C625.29,-309 603.29,-309 603.29,-309 598.29,-309 593.29,-304 593.29,-299 593.29,-299 593.29,-289 593.29,-289 593.29,-284 598.29,-279 603.29,-279 603.29,-279 625.29,-279 625.29,-279 630.29,-279 635.29,-284 635.29,-289 635.29,-289 635.29,-299 635.29,-299 635.29,-304 630.29,-309 625.29,-309"/>
<text text-anchor="middle" x="614.29" y="-297" font-family="Arial" font-size="10.00" fill="white">Delay</text>
<text text-anchor="middle" x="614.29" y="-286" font-family="Arial" font-size="10.00" fill="white">2</text>
</a>
</g>
</g>
<!-- supriya.ugens.delay.DelayC -->
<g id="node25" class="node">
<title>supriya.ugens.delay.DelayC</title>
<g id="a_node25"><a xlink:href="../api/supriya/ugens/delay.html#supriya.ugens.delay.DelayC" xlink:title="Delay\nC" target="_top">
<path fill="black" stroke="black" stroke-width="2" d="M625.29,-261C625.29,-261 603.29,-261 603.29,-261 598.29,-261 593.29,-256 593.29,-251 593.29,-251 593.29,-241 593.29,-241 593.29,-236 598.29,-231 603.29,-231 603.29,-231 625.29,-231 625.29,-231 630.29,-231 635.29,-236 635.29,-241 635.29,-241 635.29,-251 635.29,-251 635.29,-256 630.29,-261 625.29,-261"/>
<text text-anchor="middle" x="614.29" y="-249" font-family="Arial" font-size="10.00" fill="white">Delay</text>
<text text-anchor="middle" x="614.29" y="-238" font-family="Arial" font-size="10.00" fill="white">C</text>
</a>
</g>
</g>
<!-- supriya.ugens.delay.DelayL -->
<g id="node26" class="node">
<title>supriya.ugens.delay.DelayL</title>
<g id="a_node26"><a xlink:href="../api/supriya/ugens/delay.html#supriya.ugens.delay.DelayL" xlink:title="Delay\nL" target="_top">
<path fill="black" stroke="black" stroke-width="2" d="M625.29,-213C625.29,-213 603.29,-213 603.29,-213 598.29,-213 593.29,-208 593.29,-203 593.29,-203 593.29,-193 593.29,-193 593.29,-188 598.29,-183 603.29,-183 603.29,-183 625.29,-183 625.29,-183 630.29,-183 635.29,-188 635.29,-193 635.29,-193 635.29,-203 635.29,-203 635.29,-208 630.29,-213 625.29,-213"/>
<text text-anchor="middle" x="614.29" y="-201" font-family="Arial" font-size="10.00" fill="white">Delay</text>
<text text-anchor="middle" x="614.29" y="-190" font-family="Arial" font-size="10.00" fill="white">L</text>
</a>
</g>
</g>
<!-- supriya.ugens.delay.DelayN -->
<g id="node27" class="node">
<title>supriya.ugens.delay.DelayN</title>
<g id="a_node27"><a xlink:href="../api/supriya/ugens/delay.html#supriya.ugens.delay.DelayN" xlink:title="Delay\nN" target="_top">
<path fill="black" stroke="black" stroke-width="2" d="M625.29,-165C625.29,-165 603.29,-165 603.29,-165 598.29,-165 593.29,-160 593.29,-155 593.29,-155 593.29,-145 593.29,-145 593.29,-140 598.29,-135 603.29,-135 603.29,-135 625.29,-135 625.29,-135 630.29,-135 635.29,-140 635.29,-145 635.29,-145 635.29,-155 635.29,-155 635.29,-160 630.29,-165 625.29,-165"/>
<text text-anchor="middle" x="614.29" y="-153" font-family="Arial" font-size="10.00" fill="white">Delay</text>
<text text-anchor="middle" x="614.29" y="-142" font-family="Arial" font-size="10.00" fill="white">N</text>
</a>
</g>
</g>
</g>
</svg>
