<?xml version="1.0" encoding="UTF-8" standalone="no"?>
<!DOCTYPE svg PUBLIC "-//W3C//DTD SVG 1.1//EN"
 "http://www.w3.org/Graphics/SVG/1.1/DTD/svg11.dtd">
<!-- Generated by graphviz version 2.40.1 (20161225.0304)
 -->
<!-- Title: InheritanceGraph Pages: 1 -->
<svg width="485pt" height="260pt"
 viewBox="0.00 0.00 484.55 260.00" xmlns="http://www.w3.org/2000/svg" xmlns:xlink="http://www.w3.org/1999/xlink">
<g id="graph0" class="graph" transform="scale(1 1) rotate(0) translate(4 256)">
<title>InheritanceGraph</title>
<g id="clust1" class="cluster">
<title>cluster_builtins</title>
<path fill="transparent" stroke="#bcd2ee" stroke-width="2" stroke-dasharray="5,2" d="M20,-118C20,-118 49,-118 49,-118 55,-118 61,-124 61,-130 61,-130 61,-161 61,-161 61,-167 55,-173 49,-173 49,-173 20,-173 20,-173 14,-173 8,-167 8,-161 8,-161 8,-130 8,-130 8,-124 14,-118 20,-118"/>
<text text-anchor="middle" x="34.5" y="-161" font-family="Arial" font-size="10.00" fill="#000000">builtins</text>
</g>
<g id="clust2" class="cluster">
<title>cluster_collections.abc</title>
<path fill="transparent" stroke="#bcd2ee" stroke-width="2" stroke-dasharray="5,2" d="M93,-93C93,-93 370.5462,-93 370.5462,-93 376.5462,-93 382.5462,-99 382.5462,-105 382.5462,-105 382.5462,-232 382.5462,-232 382.5462,-238 376.5462,-244 370.5462,-244 370.5462,-244 93,-244 93,-244 87,-244 81,-238 81,-232 81,-232 81,-105 81,-105 81,-99 87,-93 93,-93"/>
<text text-anchor="middle" x="231.7731" y="-232" font-family="Arial" font-size="10.00" fill="#000000">collections.abc</text>
</g>
<g id="clust4" class="cluster">
<title>cluster_supriya.system</title>
<path fill="transparent" stroke="#bcd2ee" stroke-width="2" stroke-dasharray="5,2" d="M106.6482,-8C106.6482,-8 248.066,-8 248.066,-8 254.066,-8 260.066,-14 260.066,-20 260.066,-20 260.066,-73 260.066,-73 260.066,-79 254.066,-85 248.066,-85 248.066,-85 106.6482,-85 106.6482,-85 100.6482,-85 94.6482,-79 94.6482,-73 94.6482,-73 94.6482,-20 94.6482,-20 94.6482,-14 100.6482,-8 106.6482,-8"/>
<text text-anchor="middle" x="177.3571" y="-73" font-family="Arial" font-size="10.00" fill="#000000">supriya.system</text>
</g>
<g id="clust3" class="cluster">
<title>cluster_supriya.commands</title>
<path fill="transparent" stroke="#bcd2ee" stroke-width="2" stroke-dasharray="5,2" d="M318.1909,-8C318.1909,-8 456.5462,-8 456.5462,-8 462.5462,-8 468.5462,-14 468.5462,-20 468.5462,-20 468.5462,-73 468.5462,-73 468.5462,-79 462.5462,-85 456.5462,-85 456.5462,-85 318.1909,-85 318.1909,-85 312.1909,-85 306.1909,-79 306.1909,-73 306.1909,-73 306.1909,-20 306.1909,-20 306.1909,-14 312.1909,-8 318.1909,-8"/>
<text text-anchor="middle" x="387.3686" y="-73" font-family="Arial" font-size="10.00" fill="#000000">supriya.commands</text>
</g>
<!-- builtins.object&#45;&gt;collections.abc.Container -->
<g id="edge9" class="edge">
<title>builtins.object&#45;&gt;collections.abc.Container</title>
<path fill="none" stroke="#778899" d="M53.406,-140.8777C62.5628,-143.2401 73.9119,-146.1682 84.7979,-148.9767"/>
<polygon fill="#778899" stroke="#778899" points="84.0315,-152.3935 94.5888,-151.5028 85.7803,-145.6155 84.0315,-152.3935"/>
</g>
<!-- builtins.object&#45;&gt;collections.abc.Iterable -->
<g id="edge10" class="edge">
<title>builtins.object&#45;&gt;collections.abc.Iterable</title>
<path fill="none" stroke="#778899" d="M43.0936,-145.7597C51.9572,-155.46 66.495,-170.3842 81,-181 85.0306,-183.9499 89.4858,-186.7687 93.9517,-189.3585"/>
<polygon fill="#778899" stroke="#778899" points="92.5502,-192.5816 103.0012,-194.3215 95.9162,-186.444 92.5502,-192.5816"/>
</g>
<!-- builtins.object&#45;&gt;collections.abc.Sized -->
<g id="edge11" class="edge">
<title>builtins.object&#45;&gt;collections.abc.Sized</title>
<path fill="none" stroke="#778899" d="M53.406,-131.3344C64.3757,-128.6273 78.4915,-125.1438 91.1883,-122.0105"/>
<polygon fill="#778899" stroke="#778899" points="92.1093,-125.3883 100.9794,-119.5942 90.4321,-118.5921 92.1093,-125.3883"/>
</g>
<!-- builtins.object&#45;&gt;supriya.system.SupriyaObject.SupriyaObject -->
<g id="edge12" class="edge">
<title>builtins.object&#45;&gt;supriya.system.SupriyaObject.SupriyaObject</title>
<path fill="none" stroke="#778899" d="M43.3738,-126.4442C57.0595,-111.7066 83.7032,-83.0152 102.5341,-62.7369"/>
<polygon fill="#778899" stroke="#778899" points="105.3316,-64.8679 109.5716,-55.1585 100.2021,-60.1046 105.3316,-64.8679"/>
</g>
<!-- collections.abc.Collection&#45;&gt;collections.abc.Sequence -->
<g id="edge1" class="edge">
<title>collections.abc.Collection&#45;&gt;collections.abc.Sequence</title>
<path fill="none" stroke="#778899" d="M265.8726,-159C274.664,-159 284.237,-159 293.4765,-159"/>
<polygon fill="#778899" stroke="#778899" points="293.7073,-162.5001 303.7072,-159 293.7072,-155.5001 293.7073,-162.5001"/>
</g>
<!-- collections.abc.Container&#45;&gt;collections.abc.Collection -->
<g id="edge2" class="edge">
<title>collections.abc.Container&#45;&gt;collections.abc.Collection</title>
<path fill="none" stroke="#778899" d="M158.5237,-159C167.3366,-159 176.9241,-159 186.1551,-159"/>
<polygon fill="#778899" stroke="#778899" points="186.3656,-162.5001 196.3655,-159 186.3655,-155.5001 186.3656,-162.5001"/>
</g>
<!-- collections.abc.Iterable&#45;&gt;collections.abc.Collection -->
<g id="edge3" class="edge">
<title>collections.abc.Iterable&#45;&gt;collections.abc.Collection</title>
<path fill="none" stroke="#778899" d="M145.645,-194.785C160.6275,-188.5085 180.7393,-180.0831 197.6844,-172.9844"/>
<polygon fill="#778899" stroke="#778899" points="199.3618,-176.0765 207.2328,-168.9843 196.657,-169.6201 199.3618,-176.0765"/>
</g>
<!-- collections.abc.Iterable&#45;&gt;collections.abc.Reversible -->
<g id="edge4" class="edge">
<title>collections.abc.Iterable&#45;&gt;collections.abc.Reversible</title>
<path fill="none" stroke="#778899" d="M153.5701,-204C162.9749,-204 173.5992,-204 183.8979,-204"/>
<polygon fill="#778899" stroke="#778899" points="184.0308,-207.5001 194.0308,-204 184.0307,-200.5001 184.0308,-207.5001"/>
</g>
<!-- collections.abc.Reversible&#45;&gt;collections.abc.Sequence -->
<g id="edge5" class="edge">
<title>collections.abc.Reversible&#45;&gt;collections.abc.Sequence</title>
<path fill="none" stroke="#778899" d="M255.3314,-193.9011C270.078,-187.7638 289.1262,-179.8362 305.3407,-173.088"/>
<polygon fill="#778899" stroke="#778899" points="307.1191,-176.1389 315.0066,-169.0652 304.4294,-169.6763 307.1191,-176.1389"/>
</g>
<!-- collections.abc.Sequence&#45;&gt;supriya.commands.BufferSetResponse.BufferSetResponse -->
<g id="edge13" class="edge">
<title>collections.abc.Sequence&#45;&gt;supriya.commands.BufferSetResponse.BufferSetResponse</title>
<path fill="none" stroke="#778899" d="M349.5026,-145.9439C364.5073,-126.9458 392.7496,-91.1868 412.7808,-65.8245"/>
<polygon fill="#778899" stroke="#778899" points="415.7768,-67.678 419.2281,-57.6611 410.2834,-63.3394 415.7768,-67.678"/>
</g>
<!-- collections.abc.Sized&#45;&gt;collections.abc.Collection -->
<g id="edge6" class="edge">
<title>collections.abc.Sized&#45;&gt;collections.abc.Collection</title>
<path fill="none" stroke="#778899" d="M143.3503,-122.2537C158.5793,-128.6335 180.0049,-137.6092 197.8683,-145.0926"/>
<polygon fill="#778899" stroke="#778899" points="196.7882,-148.4348 207.3639,-149.0706 199.4929,-141.9785 196.7882,-148.4348"/>
</g>
<!-- supriya.commands.Response.Response&#45;&gt;supriya.commands.BufferSetResponse.BufferSetResponse -->
<g id="edge7" class="edge">
<title>supriya.commands.Response.Response&#45;&gt;supriya.commands.BufferSetResponse.BufferSetResponse</title>
<path fill="none" stroke="#778899" d="M364.2556,-37C375.21,-37 388.2538,-37 400.1707,-37"/>
<polygon fill="#778899" stroke="#778899" points="400.2724,-40.5001 410.2723,-37 400.2723,-33.5001 400.2724,-40.5001"/>
</g>
<!-- supriya.system.SupriyaObject.SupriyaObject&#45;&gt;supriya.system.SupriyaValueObject.SupriyaValueObject -->
<g id="edge8" class="edge">
<title>supriya.system.SupriyaObject.SupriyaObject&#45;&gt;supriya.system.SupriyaValueObject.SupriyaValueObject</title>
<path fill="none" stroke="#778899" d="M144.8705,-39.4073C160.4656,-38.9718 181.9141,-38.3727 199.5137,-37.8812"/>
<polygon fill="#778899" stroke="#778899" points="199.9894,-41.3694 209.8878,-37.5915 199.794,-34.3721 199.9894,-41.3694"/>
</g>
<!-- supriya.system.SupriyaValueObject.SupriyaValueObject&#45;&gt;supriya.commands.Response.Response -->
<g id="edge14" class="edge">
<title>supriya.system.SupriyaValueObject.SupriyaValueObject&#45;&gt;supriya.commands.Response.Response</title>
<path fill="none" stroke="#778899" d="M252.1703,-37C266.8279,-37 286.7124,-37 303.7736,-37"/>
<polygon fill="#778899" stroke="#778899" points="303.9599,-40.5001 313.9598,-37 303.9598,-33.5001 303.9599,-40.5001"/>
</g>
<!-- builtins.object -->
<g id="node1" class="node">
<title>builtins.object</title>
<g id="a_node1"><a xlink:href="https://docs.python.org/3.6/library/functions.html#object" xlink:title="object" target="_top">
<path fill="#fbb4ae" stroke="#fbb4ae" stroke-width="2" d="M46.6667,-145.5C46.6667,-145.5 22.3333,-145.5 22.3333,-145.5 19.1667,-145.5 16,-142.3333 16,-139.1667 16,-139.1667 16,-132.8333 16,-132.8333 16,-129.6667 19.1667,-126.5 22.3333,-126.5 22.3333,-126.5 46.6667,-126.5 46.6667,-126.5 49.8333,-126.5 53,-129.6667 53,-132.8333 53,-132.8333 53,-139.1667 53,-139.1667 53,-142.3333 49.8333,-145.5 46.6667,-145.5"/>
<text text-anchor="middle" x="34.5" y="-133.5" font-family="Arial" font-size="10.00" fill="#000000">object</text>
</a>
</g>
</g>
<!-- collections.abc.Collection -->
<g id="node2" class="node">
<title>collections.abc.Collection</title>
<g id="a_node2"><a xlink:href="https://docs.python.org/3.6/library/collections.abc.html#collections.abc.Collection" xlink:title="Collection" target="_top">
<ellipse fill="none" stroke="#b3cde3" stroke-width="2" cx="231.066" cy="-159" rx="34.7971" ry="13.3704"/>
<text text-anchor="middle" x="231.066" y="-156.5" font-family="Arial" font-size="10.00" fill="#000000">Collection</text>
</a>
</g>
</g>
<!-- collections.abc.Container -->
<g id="node3" class="node">
<title>collections.abc.Container</title>
<g id="a_node3"><a xlink:href="https://docs.python.org/3.6/library/collections.abc.html#collections.abc.Container" xlink:title="Container" target="_top">
<ellipse fill="none" stroke="#b3cde3" stroke-width="2" cx="123.6482" cy="-159" rx="34.7971" ry="13.3704"/>
<text text-anchor="middle" x="123.6482" y="-156.5" font-family="Arial" font-size="10.00" fill="#000000">Container</text>
</a>
</g>
</g>
<!-- collections.abc.Iterable -->
<g id="node4" class="node">
<title>collections.abc.Iterable</title>
<g id="a_node4"><a xlink:href="https://docs.python.org/3.6/library/collections.abc.html#collections.abc.Iterable" xlink:title="Iterable" target="_top">
<ellipse fill="none" stroke="#b3cde3" stroke-width="2" cx="123.6482" cy="-204" rx="29.8983" ry="13.3704"/>
<text text-anchor="middle" x="123.6482" y="-201.5" font-family="Arial" font-size="10.00" fill="#000000">Iterable</text>
</a>
</g>
</g>
<!-- collections.abc.Reversible -->
<g id="node5" class="node">
<title>collections.abc.Reversible</title>
<g id="a_node5"><a xlink:href="https://docs.python.org/3.6/library/collections.abc.html#collections.abc.Reversible" xlink:title="Reversible" target="_top">
<ellipse fill="none" stroke="#b3cde3" stroke-width="2" cx="231.066" cy="-204" rx="36.5405" ry="13.3704"/>
<text text-anchor="middle" x="231.066" y="-201.5" font-family="Arial" font-size="10.00" fill="#000000">Reversible</text>
</a>
</g>
</g>
<!-- collections.abc.Sequence -->
<g id="node6" class="node">
<title>collections.abc.Sequence</title>
<g id="a_node6"><a xlink:href="https://docs.python.org/3.6/library/collections.abc.html#collections.abc.Sequence" xlink:title="Sequence" target="_top">
<ellipse fill="none" stroke="#b3cde3" stroke-width="2" cx="339.1909" cy="-159" rx="35.2113" ry="13.3704"/>
<text text-anchor="middle" x="339.1909" y="-156.5" font-family="Arial" font-size="10.00" fill="#000000">Sequence</text>
</a>
</g>
</g>
<!-- collections.abc.Sized -->
<g id="node7" class="node">
<title>collections.abc.Sized</title>
<g id="a_node7"><a xlink:href="https://docs.python.org/3.6/library/collections.abc.html#collections.abc.Sized" xlink:title="Sized" target="_top">
<ellipse fill="none" stroke="#b3cde3" stroke-width="2" cx="123.6482" cy="-114" rx="25" ry="13.3704"/>
<text text-anchor="middle" x="123.6482" y="-111.5" font-family="Arial" font-size="10.00" fill="#000000">Sized</text>
</a>
</g>
</g>
<!-- supriya.commands.BufferSetResponse.BufferSetResponse -->
<g id="node8" class="node">
<title>supriya.commands.BufferSetResponse.BufferSetResponse</title>
<g id="a_node8"><a xlink:href="../api/supriya/commands/BufferSetResponse.html#supriya.commands.BufferSetResponse.BufferSetResponse" xlink:title="Buffer\nSet\nResponse" target="_top">
<path fill="#000000" stroke="#000000" stroke-width="2" d="M448.5462,-57.5C448.5462,-57.5 422.5462,-57.5 422.5462,-57.5 416.5462,-57.5 410.5462,-51.5 410.5462,-45.5 410.5462,-45.5 410.5462,-28.5 410.5462,-28.5 410.5462,-22.5 416.5462,-16.5 422.5462,-16.5 422.5462,-16.5 448.5462,-16.5 448.5462,-16.5 454.5462,-16.5 460.5462,-22.5 460.5462,-28.5 460.5462,-28.5 460.5462,-45.5 460.5462,-45.5 460.5462,-51.5 454.5462,-57.5 448.5462,-57.5"/>
<text text-anchor="middle" x="435.5462" y="-45.5" font-family="Arial" font-size="10.00" fill="#ffffff">Buffer</text>
<text text-anchor="middle" x="435.5462" y="-34.5" font-family="Arial" font-size="10.00" fill="#ffffff">Set</text>
<text text-anchor="middle" x="435.5462" y="-23.5" font-family="Arial" font-size="10.00" fill="#ffffff">Response</text>
</a>
</g>
</g>
<!-- supriya.commands.Response.Response -->
<g id="node9" class="node">
<title>supriya.commands.Response.Response</title>
<g id="a_node9"><a xlink:href="../api/supriya/commands/Response.html#supriya.commands.Response.Response" xlink:title="Response" target="_top">
<path fill="#ccebc5" stroke="#ccebc5" stroke-width="2" d="M357.8576,-46.5C357.8576,-46.5 320.5242,-46.5 320.5242,-46.5 317.3576,-46.5 314.1909,-43.3333 314.1909,-40.1667 314.1909,-40.1667 314.1909,-33.8333 314.1909,-33.8333 314.1909,-30.6667 317.3576,-27.5 320.5242,-27.5 320.5242,-27.5 357.8576,-27.5 357.8576,-27.5 361.0242,-27.5 364.1909,-30.6667 364.1909,-33.8333 364.1909,-33.8333 364.1909,-40.1667 364.1909,-40.1667 364.1909,-43.3333 361.0242,-46.5 357.8576,-46.5"/>
<text text-anchor="middle" x="339.1909" y="-34.5" font-family="Arial" font-size="10.00" fill="#000000">Response</text>
</a>
</g>
</g>
<!-- supriya.system.SupriyaObject.SupriyaObject -->
<g id="node10" class="node">
<title>supriya.system.SupriyaObject.SupriyaObject</title>
<g id="a_node10"><a xlink:href="../api/supriya/commands/../system/SupriyaObject.html#supriya.system.SupriyaObject.SupriyaObject" xlink:title="Supriya\nObject" target="_top">
<path fill="#decbe4" stroke="#decbe4" stroke-width="2" d="M134.6482,-55C134.6482,-55 112.6482,-55 112.6482,-55 107.6482,-55 102.6482,-50 102.6482,-45 102.6482,-45 102.6482,-35 102.6482,-35 102.6482,-30 107.6482,-25 112.6482,-25 112.6482,-25 134.6482,-25 134.6482,-25 139.6482,-25 144.6482,-30 144.6482,-35 144.6482,-35 144.6482,-45 144.6482,-45 144.6482,-50 139.6482,-55 134.6482,-55"/>
<text text-anchor="middle" x="123.6482" y="-43" font-family="Arial" font-size="10.00" fill="#000000">Supriya</text>
<text text-anchor="middle" x="123.6482" y="-32" font-family="Arial" font-size="10.00" fill="#000000">Object</text>
</a>
</g>
</g>
<!-- supriya.system.SupriyaValueObject.SupriyaValueObject -->
<g id="node11" class="node">
<title>supriya.system.SupriyaValueObject.SupriyaValueObject</title>
<g id="a_node11"><a xlink:href="../api/supriya/commands/../system/SupriyaValueObject.html#supriya.system.SupriyaValueObject.SupriyaValueObject" xlink:title="Supriya\nValue\nObject" target="_top">
<path fill="#decbe4" stroke="#decbe4" stroke-width="2" d="M240.066,-57.5C240.066,-57.5 222.066,-57.5 222.066,-57.5 216.066,-57.5 210.066,-51.5 210.066,-45.5 210.066,-45.5 210.066,-28.5 210.066,-28.5 210.066,-22.5 216.066,-16.5 222.066,-16.5 222.066,-16.5 240.066,-16.5 240.066,-16.5 246.066,-16.5 252.066,-22.5 252.066,-28.5 252.066,-28.5 252.066,-45.5 252.066,-45.5 252.066,-51.5 246.066,-57.5 240.066,-57.5"/>
<text text-anchor="middle" x="231.066" y="-45.5" font-family="Arial" font-size="10.00" fill="#000000">Supriya</text>
<text text-anchor="middle" x="231.066" y="-34.5" font-family="Arial" font-size="10.00" fill="#000000">Value</text>
<text text-anchor="middle" x="231.066" y="-23.5" font-family="Arial" font-size="10.00" fill="#000000">Object</text>
</a>
</g>
</g>
</g>
</svg>
