<?xml version="1.0" encoding="UTF-8" standalone="no"?>
<!DOCTYPE svg PUBLIC "-//W3C//DTD SVG 1.1//EN"
 "http://www.w3.org/Graphics/SVG/1.1/DTD/svg11.dtd">
<!-- Generated by graphviz version 2.40.1 (20161225.0304)
 -->
<!-- Title: InheritanceGraph Pages: 1 -->
<svg width="165pt" height="101pt"
 viewBox="0.00 0.00 165.00 101.00" xmlns="http://www.w3.org/2000/svg" xmlns:xlink="http://www.w3.org/1999/xlink">
<g id="graph0" class="graph" transform="scale(1 1) rotate(0) translate(4 97)">
<title>InheritanceGraph</title>
<g id="clust1" class="cluster">
<title>cluster_builtins</title>
<path fill="transparent" stroke="#bcd2ee" stroke-width="2" stroke-dasharray="5,2" d="M20,-19C20,-19 49,-19 49,-19 55,-19 61,-25 61,-31 61,-31 61,-62 61,-62 61,-68 55,-74 49,-74 49,-74 20,-74 20,-74 14,-74 8,-68 8,-62 8,-62 8,-31 8,-31 8,-25 14,-19 20,-19"/>
<text text-anchor="middle" x="34.5" y="-62" font-family="Arial" font-size="10.00" fill="#000000">builtins</text>
</g>
<g id="clust2" class="cluster">
<title>cluster_supriya.intervals</title>
<path fill="transparent" stroke="#bcd2ee" stroke-width="2" stroke-dasharray="5,2" d="M93,-8C93,-8 140,-8 140,-8 146,-8 152,-14 152,-20 152,-20 152,-73 152,-73 152,-79 146,-85 140,-85 140,-85 93,-85 93,-85 87,-85 81,-79 81,-73 81,-73 81,-20 81,-20 81,-14 87,-8 93,-8"/>
<text text-anchor="middle" x="116.5" y="-73" font-family="Arial" font-size="10.00" fill="#000000">supriya.intervals</text>
</g>
<!-- builtins.object&#45;&gt;supriya.intervals.TimespanCollectionDriver.TimespanCollectionDriver -->
<g id="edge1" class="edge">
<title>builtins.object&#45;&gt;supriya.intervals.TimespanCollectionDriver.TimespanCollectionDriver</title>
<path fill="none" stroke="#778899" d="M53.1071,-37C61.5048,-37 71.7105,-37 81.4572,-37"/>
<polygon fill="#778899" stroke="#778899" points="81.7461,-40.5001 91.7461,-37 81.7461,-33.5001 81.7461,-40.5001"/>
</g>
<!-- builtins.object -->
<g id="node1" class="node">
<title>builtins.object</title>
<g id="a_node1"><a xlink:href="https://docs.python.org/3.6/library/functions.html#object" xlink:title="object" target="_top">
<path fill="#fbb4ae" stroke="#fbb4ae" stroke-width="2" d="M46.6667,-46.5C46.6667,-46.5 22.3333,-46.5 22.3333,-46.5 19.1667,-46.5 16,-43.3333 16,-40.1667 16,-40.1667 16,-33.8333 16,-33.8333 16,-30.6667 19.1667,-27.5 22.3333,-27.5 22.3333,-27.5 46.6667,-27.5 46.6667,-27.5 49.8333,-27.5 53,-30.6667 53,-33.8333 53,-33.8333 53,-40.1667 53,-40.1667 53,-43.3333 49.8333,-46.5 46.6667,-46.5"/>
<text text-anchor="middle" x="34.5" y="-34.5" font-family="Arial" font-size="10.00" fill="#000000">object</text>
</a>
</g>
</g>
<!-- supriya.intervals.TimespanCollectionDriver.TimespanCollectionDriver -->
<g id="node2" class="node">
<title>supriya.intervals.TimespanCollectionDriver.TimespanCollectionDriver</title>
<g id="a_node2"><a xlink:href="../api/supriya/intervals/TimespanCollectionDriver.html#supriya.intervals.TimespanCollectionDriver.TimespanCollectionDriver" xlink:title="Timespan\nCollection\nDriver" target="_top">
<path fill="#000000" stroke="#000000" stroke-width="2" d="M129,-57.5C129,-57.5 104,-57.5 104,-57.5 98,-57.5 92,-51.5 92,-45.5 92,-45.5 92,-28.5 92,-28.5 92,-22.5 98,-16.5 104,-16.5 104,-16.5 129,-16.5 129,-16.5 135,-16.5 141,-22.5 141,-28.5 141,-28.5 141,-45.5 141,-45.5 141,-51.5 135,-57.5 129,-57.5"/>
<text text-anchor="middle" x="116.5" y="-45.5" font-family="Arial" font-size="10.00" fill="#ffffff">Timespan</text>
<text text-anchor="middle" x="116.5" y="-34.5" font-family="Arial" font-size="10.00" fill="#ffffff">Collection</text>
<text text-anchor="middle" x="116.5" y="-23.5" font-family="Arial" font-size="10.00" fill="#ffffff">Driver</text>
</a>
</g>
</g>
</g>
</svg>
