<?xml version="1.0" encoding="UTF-8" standalone="no"?>
<!DOCTYPE svg PUBLIC "-//W3C//DTD SVG 1.1//EN"
 "http://www.w3.org/Graphics/SVG/1.1/DTD/svg11.dtd">
<!-- Generated by graphviz version 2.44.1 (20200629.0846)
 -->
<!-- Title: InheritanceGraph Pages: 1 -->
<svg width="601pt" height="190pt"
 viewBox="0.00 0.00 601.40 190.00" xmlns="http://www.w3.org/2000/svg" xmlns:xlink="http://www.w3.org/1999/xlink">
<g id="graph0" class="graph" transform="scale(1 1) rotate(0) translate(4 186)">
<title>InheritanceGraph</title>
<g id="clust1" class="cluster">
<title>cluster_builtins</title>
<path fill="transparent" stroke="#bcd2ee" stroke-width="2" stroke-dasharray="5,2" d="M20,-63C20,-63 55,-63 55,-63 61,-63 67,-69 67,-75 67,-75 67,-106 67,-106 67,-112 61,-118 55,-118 55,-118 20,-118 20,-118 14,-118 8,-112 8,-106 8,-106 8,-75 8,-75 8,-69 14,-63 20,-63"/>
<text text-anchor="middle" x="37.5" y="-106" font-family="Arial" font-size="10.00">builtins</text>
</g>
<g id="clust2" class="cluster">
<title>cluster_supriya.synthdefs.bases</title>
<path fill="transparent" stroke="#bcd2ee" stroke-width="2" stroke-dasharray="5,2" d="M347,-60C347,-60 445.4,-60 445.4,-60 451.4,-60 457.4,-66 457.4,-72 457.4,-72 457.4,-109 457.4,-109 457.4,-115 451.4,-121 445.4,-121 445.4,-121 347,-121 347,-121 341,-121 335,-115 335,-109 335,-109 335,-72 335,-72 335,-66 341,-60 347,-60"/>
<text text-anchor="middle" x="396.2" y="-109" font-family="Arial" font-size="10.00">supriya.synthdefs.bases</text>
</g>
<g id="clust3" class="cluster">
<title>cluster_supriya.synthdefs.mixins</title>
<path fill="transparent" stroke="#bcd2ee" stroke-width="2" stroke-dasharray="5,2" d="M202,-52C202,-52 303,-52 303,-52 309,-52 315,-58 315,-64 315,-64 315,-117 315,-117 315,-123 309,-129 303,-129 303,-129 202,-129 202,-129 196,-129 190,-123 190,-117 190,-117 190,-64 190,-64 190,-58 196,-52 202,-52"/>
<text text-anchor="middle" x="252.5" y="-117" font-family="Arial" font-size="10.00">supriya.synthdefs.mixins</text>
</g>
<g id="clust4" class="cluster">
<title>cluster_supriya.system</title>
<path fill="transparent" stroke="#bcd2ee" stroke-width="2" stroke-dasharray="5,2" d="M99,-58C99,-58 158,-58 158,-58 164,-58 170,-64 170,-70 170,-70 170,-111 170,-111 170,-117 164,-123 158,-123 158,-123 99,-123 99,-123 93,-123 87,-117 87,-111 87,-111 87,-70 87,-70 87,-64 93,-58 99,-58"/>
<text text-anchor="middle" x="128.5" y="-111" font-family="Arial" font-size="10.00">supriya.system</text>
</g>
<g id="clust5" class="cluster">
<title>cluster_supriya.ugens.physical</title>
<path fill="transparent" stroke="#bcd2ee" stroke-width="2" stroke-dasharray="5,2" d="M489.4,-8C489.4,-8 581.4,-8 581.4,-8 587.4,-8 593.4,-14 593.4,-20 593.4,-20 593.4,-162 593.4,-162 593.4,-168 587.4,-174 581.4,-174 581.4,-174 489.4,-174 489.4,-174 483.4,-174 477.4,-168 477.4,-162 477.4,-162 477.4,-20 477.4,-20 477.4,-14 483.4,-8 489.4,-8"/>
<text text-anchor="middle" x="535.4" y="-162" font-family="Arial" font-size="10.00">supriya.ugens.physical</text>
</g>
<!-- builtins.object&#45;&gt;supriya.system.SupriyaObject -->
<g id="edge1" class="edge">
<title>builtins.object&#45;&gt;supriya.system.SupriyaObject</title>
<path fill="none" stroke="lightslategrey" d="M59.03,-81C69.03,-81 81.34,-81 92.72,-81"/>
<polygon fill="lightslategrey" stroke="lightslategrey" points="92.82,-84.5 102.82,-81 92.82,-77.5 92.82,-84.5"/>
</g>
<!-- supriya.synthdefs.bases.UGen&#45;&gt;supriya.ugens.physical.Ball -->
<g id="edge2" class="edge">
<title>supriya.synthdefs.bases.UGen&#45;&gt;supriya.ugens.physical.Ball</title>
<path fill="none" stroke="lightslategrey" d="M415.95,-90.96C432.1,-99.1 455.91,-110.59 477.4,-119 487.58,-122.99 499.04,-126.74 509,-129.78"/>
<polygon fill="lightslategrey" stroke="lightslategrey" points="508.14,-133.17 518.72,-132.67 510.13,-126.46 508.14,-133.17"/>
</g>
<!-- supriya.synthdefs.bases.UGen&#45;&gt;supriya.ugens.physical.Pluck -->
<g id="edge3" class="edge">
<title>supriya.synthdefs.bases.UGen&#45;&gt;supriya.ugens.physical.Pluck</title>
<path fill="none" stroke="lightslategrey" d="M424.23,-84.8C447.48,-88.01 480.69,-92.59 504.57,-95.88"/>
<polygon fill="lightslategrey" stroke="lightslategrey" points="504.1,-99.35 514.49,-97.25 505.06,-92.42 504.1,-99.35"/>
</g>
<!-- supriya.synthdefs.bases.UGen&#45;&gt;supriya.ugens.physical.Spring -->
<g id="edge4" class="edge">
<title>supriya.synthdefs.bases.UGen&#45;&gt;supriya.ugens.physical.Spring</title>
<path fill="none" stroke="lightslategrey" d="M424.56,-77.36C447.33,-74.38 479.48,-70.18 503.12,-67.09"/>
<polygon fill="lightslategrey" stroke="lightslategrey" points="503.86,-70.52 513.32,-65.76 502.95,-63.58 503.86,-70.52"/>
</g>
<!-- supriya.synthdefs.bases.UGen&#45;&gt;supriya.ugens.physical.TBall -->
<g id="edge5" class="edge">
<title>supriya.synthdefs.bases.UGen&#45;&gt;supriya.ugens.physical.TBall</title>
<path fill="none" stroke="lightslategrey" d="M416.7,-71.42C432.89,-63.83 456.38,-53.17 477.4,-45 486.68,-41.39 496.97,-37.83 506.22,-34.79"/>
<polygon fill="lightslategrey" stroke="lightslategrey" points="507.31,-38.11 515.75,-31.71 505.16,-31.45 507.31,-38.11"/>
</g>
<!-- supriya.synthdefs.mixins.UGenMethodMixin&#45;&gt;supriya.synthdefs.bases.UGen -->
<g id="edge6" class="edge">
<title>supriya.synthdefs.mixins.UGenMethodMixin&#45;&gt;supriya.synthdefs.bases.UGen</title>
<path fill="none" stroke="lightslategrey" d="M277.13,-81C298.5,-81 330.36,-81 355.53,-81"/>
<polygon fill="lightslategrey" stroke="lightslategrey" points="355.86,-84.5 365.86,-81 355.86,-77.5 355.86,-84.5"/>
</g>
<!-- supriya.system.SupriyaObject&#45;&gt;supriya.synthdefs.mixins.UGenMethodMixin -->
<g id="edge7" class="edge">
<title>supriya.system.SupriyaObject&#45;&gt;supriya.synthdefs.mixins.UGenMethodMixin</title>
<path fill="none" stroke="lightslategrey" d="M153.2,-81C171.61,-81 197.17,-81 217.61,-81"/>
<polygon fill="lightslategrey" stroke="lightslategrey" points="217.77,-84.5 227.77,-81 217.77,-77.5 217.77,-84.5"/>
</g>
<!-- builtins.object -->
<g id="node1" class="node">
<title>builtins.object</title>
<g id="a_node1"><a xlink:href="https://docs.python.org/3/library/functions.html#object" xlink:title="object" target="_top">
<path fill="#fbb4ae" stroke="#fbb4ae" stroke-width="2" d="M52.67,-90.5C52.67,-90.5 22.33,-90.5 22.33,-90.5 19.17,-90.5 16,-87.33 16,-84.17 16,-84.17 16,-77.83 16,-77.83 16,-74.67 19.17,-71.5 22.33,-71.5 22.33,-71.5 52.67,-71.5 52.67,-71.5 55.83,-71.5 59,-74.67 59,-77.83 59,-77.83 59,-84.17 59,-84.17 59,-87.33 55.83,-90.5 52.67,-90.5"/>
<text text-anchor="middle" x="37.5" y="-78.5" font-family="Arial" font-size="10.00">object</text>
</a>
</g>
</g>
<!-- supriya.synthdefs.bases.UGen -->
<g id="node2" class="node">
<title>supriya.synthdefs.bases.UGen</title>
<g id="a_node2"><a xlink:href="../api/supriya/ugens/../synthdefs/bases.html#supriya.synthdefs.bases.UGen" xlink:title="UGen" target="_top">
<ellipse fill="none" stroke="#b3cde3" stroke-width="2" cx="395.7" cy="-81" rx="29.9" ry="13.37"/>
<text text-anchor="middle" x="395.7" y="-78.5" font-family="Arial" font-size="10.00">UGen</text>
</a>
</g>
</g>
<!-- supriya.synthdefs.mixins.UGenMethodMixin -->
<g id="node3" class="node">
<title>supriya.synthdefs.mixins.UGenMethodMixin</title>
<g id="a_node3"><a xlink:href="../api/supriya/ugens/../synthdefs/mixins.html#supriya.synthdefs.mixins.UGenMethodMixin" xlink:title="UGen\nMethod\nMixin" target="_top">
<path fill="#ccebc5" stroke="#ccebc5" stroke-width="2" d="M265,-101.5C265,-101.5 240,-101.5 240,-101.5 234,-101.5 228,-95.5 228,-89.5 228,-89.5 228,-72.5 228,-72.5 228,-66.5 234,-60.5 240,-60.5 240,-60.5 265,-60.5 265,-60.5 271,-60.5 277,-66.5 277,-72.5 277,-72.5 277,-89.5 277,-89.5 277,-95.5 271,-101.5 265,-101.5"/>
<text text-anchor="middle" x="252.5" y="-89.5" font-family="Arial" font-size="10.00">UGen</text>
<text text-anchor="middle" x="252.5" y="-78.5" font-family="Arial" font-size="10.00">Method</text>
<text text-anchor="middle" x="252.5" y="-67.5" font-family="Arial" font-size="10.00">Mixin</text>
</a>
</g>
</g>
<!-- supriya.system.SupriyaObject -->
<g id="node4" class="node">
<title>supriya.system.SupriyaObject</title>
<g id="a_node4"><a xlink:href="../api/supriya/ugens/../system.html#supriya.system.SupriyaObject" xlink:title="Supriya\nObject" target="_top">
<path fill="#decbe4" stroke="#decbe4" stroke-width="2" d="M143,-96C143,-96 113,-96 113,-96 108,-96 103,-91 103,-86 103,-86 103,-76 103,-76 103,-71 108,-66 113,-66 113,-66 143,-66 143,-66 148,-66 153,-71 153,-76 153,-76 153,-86 153,-86 153,-91 148,-96 143,-96"/>
<text text-anchor="middle" x="128" y="-84" font-family="Arial" font-size="10.00">Supriya</text>
<text text-anchor="middle" x="128" y="-73" font-family="Arial" font-size="10.00">Object</text>
</a>
</g>
</g>
<!-- supriya.ugens.physical.Ball -->
<g id="node5" class="node">
<title>supriya.ugens.physical.Ball</title>
<g id="a_node5"><a xlink:href="../api/supriya/ugens/physical.html#supriya.ugens.physical.Ball" xlink:title="Ball" target="_top">
<path fill="black" stroke="black" stroke-width="2" d="M545.56,-146.5C545.56,-146.5 525.23,-146.5 525.23,-146.5 522.06,-146.5 518.9,-143.33 518.9,-140.17 518.9,-140.17 518.9,-133.83 518.9,-133.83 518.9,-130.67 522.06,-127.5 525.23,-127.5 525.23,-127.5 545.56,-127.5 545.56,-127.5 548.73,-127.5 551.9,-130.67 551.9,-133.83 551.9,-133.83 551.9,-140.17 551.9,-140.17 551.9,-143.33 548.73,-146.5 545.56,-146.5"/>
<text text-anchor="middle" x="535.4" y="-134.5" font-family="Arial" font-size="10.00" fill="white">Ball</text>
</a>
</g>
</g>
<!-- supriya.ugens.physical.Pluck -->
<g id="node6" class="node">
<title>supriya.ugens.physical.Pluck</title>
<g id="a_node6"><a xlink:href="../api/supriya/ugens/physical.html#supriya.ugens.physical.Pluck" xlink:title="Pluck" target="_top">
<path fill="black" stroke="black" stroke-width="2" d="M549.56,-109.5C549.56,-109.5 521.23,-109.5 521.23,-109.5 518.06,-109.5 514.9,-106.33 514.9,-103.17 514.9,-103.17 514.9,-96.83 514.9,-96.83 514.9,-93.67 518.06,-90.5 521.23,-90.5 521.23,-90.5 549.56,-90.5 549.56,-90.5 552.73,-90.5 555.9,-93.67 555.9,-96.83 555.9,-96.83 555.9,-103.17 555.9,-103.17 555.9,-106.33 552.73,-109.5 549.56,-109.5"/>
<text text-anchor="middle" x="535.4" y="-97.5" font-family="Arial" font-size="10.00" fill="white">Pluck</text>
</a>
</g>
</g>
<!-- supriya.ugens.physical.Spring -->
<g id="node7" class="node">
<title>supriya.ugens.physical.Spring</title>
<g id="a_node7"><a xlink:href="../api/supriya/ugens/physical.html#supriya.ugens.physical.Spring" xlink:title="Spring" target="_top">
<path fill="black" stroke="black" stroke-width="2" d="M551.06,-72.5C551.06,-72.5 519.73,-72.5 519.73,-72.5 516.56,-72.5 513.4,-69.33 513.4,-66.17 513.4,-66.17 513.4,-59.83 513.4,-59.83 513.4,-56.67 516.56,-53.5 519.73,-53.5 519.73,-53.5 551.06,-53.5 551.06,-53.5 554.23,-53.5 557.4,-56.67 557.4,-59.83 557.4,-59.83 557.4,-66.17 557.4,-66.17 557.4,-69.33 554.23,-72.5 551.06,-72.5"/>
<text text-anchor="middle" x="535.4" y="-60.5" font-family="Arial" font-size="10.00" fill="white">Spring</text>
</a>
</g>
</g>
<!-- supriya.ugens.physical.TBall -->
<g id="node8" class="node">
<title>supriya.ugens.physical.TBall</title>
<g id="a_node8"><a xlink:href="../api/supriya/ugens/physical.html#supriya.ugens.physical.TBall" xlink:title="TBall" target="_top">
<path fill="black" stroke="black" stroke-width="2" d="M548.56,-35.5C548.56,-35.5 522.23,-35.5 522.23,-35.5 519.06,-35.5 515.9,-32.33 515.9,-29.17 515.9,-29.17 515.9,-22.83 515.9,-22.83 515.9,-19.67 519.06,-16.5 522.23,-16.5 522.23,-16.5 548.56,-16.5 548.56,-16.5 551.73,-16.5 554.9,-19.67 554.9,-22.83 554.9,-22.83 554.9,-29.17 554.9,-29.17 554.9,-32.33 551.73,-35.5 548.56,-35.5"/>
<text text-anchor="middle" x="535.4" y="-23.5" font-family="Arial" font-size="10.00" fill="white">TBall</text>
</a>
</g>
</g>
</g>
</svg>
