<?xml version="1.0" encoding="UTF-8" standalone="no"?>
<!DOCTYPE svg PUBLIC "-//W3C//DTD SVG 1.1//EN"
 "http://www.w3.org/Graphics/SVG/1.1/DTD/svg11.dtd">
<!-- Generated by graphviz version 2.44.1 (20200629.0846)
 -->
<!-- Title: InheritanceGraph Pages: 1 -->
<svg width="681pt" height="508pt"
 viewBox="0.00 0.00 681.00 507.65" xmlns="http://www.w3.org/2000/svg" xmlns:xlink="http://www.w3.org/1999/xlink">
<g id="graph0" class="graph" transform="scale(1 1) rotate(0) translate(4 503.65)">
<title>InheritanceGraph</title>
<g id="clust1" class="cluster">
<title>cluster_builtins</title>
<path fill="transparent" stroke="#bcd2ee" stroke-width="2" stroke-dasharray="5,2" d="M20,-230.65C20,-230.65 154,-230.65 154,-230.65 160,-230.65 166,-236.65 166,-242.65 166,-242.65 166,-310.65 166,-310.65 166,-316.65 160,-322.65 154,-322.65 154,-322.65 20,-322.65 20,-322.65 14,-322.65 8,-316.65 8,-310.65 8,-310.65 8,-242.65 8,-242.65 8,-236.65 14,-230.65 20,-230.65"/>
<text text-anchor="middle" x="87" y="-310.65" font-family="Arial" font-size="10.00">builtins</text>
</g>
<g id="clust2" class="cluster">
<title>cluster_enum</title>
<path fill="transparent" stroke="#bcd2ee" stroke-width="2" stroke-dasharray="5,2" d="M263.5,-353.65C263.5,-353.65 449,-353.65 449,-353.65 455,-353.65 461,-359.65 461,-365.65 461,-365.65 461,-406.65 461,-406.65 461,-412.65 455,-418.65 449,-418.65 449,-418.65 263.5,-418.65 263.5,-418.65 257.5,-418.65 251.5,-412.65 251.5,-406.65 251.5,-406.65 251.5,-365.65 251.5,-365.65 251.5,-359.65 257.5,-353.65 263.5,-353.65"/>
<text text-anchor="middle" x="356.25" y="-406.65" font-family="Arial" font-size="10.00">enum</text>
</g>
<g id="clust3" class="cluster">
<title>cluster_queue</title>
<path fill="transparent" stroke="#bcd2ee" stroke-width="2" stroke-dasharray="5,2" d="M120.5,-426.65C120.5,-426.65 300,-426.65 300,-426.65 306,-426.65 312,-432.65 312,-438.65 312,-438.65 312,-479.65 312,-479.65 312,-485.65 306,-491.65 300,-491.65 300,-491.65 120.5,-491.65 120.5,-491.65 114.5,-491.65 108.5,-485.65 108.5,-479.65 108.5,-479.65 108.5,-438.65 108.5,-438.65 108.5,-432.65 114.5,-426.65 120.5,-426.65"/>
<text text-anchor="middle" x="210.25" y="-479.65" font-family="Arial" font-size="10.00">queue</text>
</g>
<g id="clust4" class="cluster">
<title>cluster_supriya.clock.asynchronous</title>
<path fill="transparent" stroke="#bcd2ee" stroke-width="2" stroke-dasharray="5,2" d="M223.5,-58.65C223.5,-58.65 337.5,-58.65 337.5,-58.65 343.5,-58.65 349.5,-64.65 349.5,-70.65 349.5,-70.65 349.5,-123.65 349.5,-123.65 349.5,-129.65 343.5,-135.65 337.5,-135.65 337.5,-135.65 223.5,-135.65 223.5,-135.65 217.5,-135.65 211.5,-129.65 211.5,-123.65 211.5,-123.65 211.5,-70.65 211.5,-70.65 211.5,-64.65 217.5,-58.65 223.5,-58.65"/>
<text text-anchor="middle" x="280.5" y="-123.65" font-family="Arial" font-size="10.00">supriya.clock.asynchronous</text>
</g>
<g id="clust5" class="cluster">
<title>cluster_supriya.clock.bases</title>
<path fill="transparent" stroke="#bcd2ee" stroke-width="2" stroke-dasharray="5,2" d="M99,-58.65C99,-58.65 179,-58.65 179,-58.65 185,-58.65 191,-64.65 191,-70.65 191,-70.65 191,-123.65 191,-123.65 191,-129.65 185,-135.65 179,-135.65 179,-135.65 99,-135.65 99,-135.65 93,-135.65 87,-129.65 87,-123.65 87,-123.65 87,-70.65 87,-70.65 87,-64.65 93,-58.65 99,-58.65"/>
<text text-anchor="middle" x="139" y="-123.65" font-family="Arial" font-size="10.00">supriya.clock.bases</text>
</g>
<g id="clust6" class="cluster">
<title>cluster_supriya.clock.ephemera</title>
<path fill="transparent" stroke="#bcd2ee" stroke-width="2" stroke-dasharray="5,2" d="M565,-67.65C565,-67.65 661,-67.65 661,-67.65 667,-67.65 673,-73.65 673,-79.65 673,-79.65 673,-446.65 673,-446.65 673,-452.65 667,-458.65 661,-458.65 661,-458.65 565,-458.65 565,-458.65 559,-458.65 553,-452.65 553,-446.65 553,-446.65 553,-79.65 553,-79.65 553,-73.65 559,-67.65 565,-67.65"/>
<text text-anchor="middle" x="613" y="-446.65" font-family="Arial" font-size="10.00">supriya.clock.ephemera</text>
</g>
<g id="clust7" class="cluster">
<title>cluster_supriya.clock.eventqueue</title>
<path fill="transparent" stroke="#bcd2ee" stroke-width="2" stroke-dasharray="5,2" d="M380.5,-426.65C380.5,-426.65 484.5,-426.65 484.5,-426.65 490.5,-426.65 496.5,-432.65 496.5,-438.65 496.5,-438.65 496.5,-479.65 496.5,-479.65 496.5,-485.65 490.5,-491.65 484.5,-491.65 484.5,-491.65 380.5,-491.65 380.5,-491.65 374.5,-491.65 368.5,-485.65 368.5,-479.65 368.5,-479.65 368.5,-438.65 368.5,-438.65 368.5,-432.65 374.5,-426.65 380.5,-426.65"/>
<text text-anchor="middle" x="432.5" y="-479.65" font-family="Arial" font-size="10.00">supriya.clock.eventqueue</text>
</g>
<g id="clust8" class="cluster">
<title>cluster_supriya.clock.threaded</title>
<path fill="transparent" stroke="#bcd2ee" stroke-width="2" stroke-dasharray="5,2" d="M387,-20.65C387,-20.65 478,-20.65 478,-20.65 484,-20.65 490,-26.65 490,-32.65 490,-32.65 490,-73.65 490,-73.65 490,-79.65 484,-85.65 478,-85.65 478,-85.65 387,-85.65 387,-85.65 381,-85.65 375,-79.65 375,-73.65 375,-73.65 375,-32.65 375,-32.65 375,-26.65 381,-20.65 387,-20.65"/>
<text text-anchor="middle" x="432.5" y="-73.65" font-family="Arial" font-size="10.00">supriya.clock.threaded</text>
</g>
<!-- builtins.int&#45;&gt;enum.IntEnum -->
<g id="edge5" class="edge">
<title>builtins.int&#45;&gt;enum.IntEnum</title>
<path fill="none" stroke="lightslategrey" d="M152.6,-292.54C166.65,-300.01 190.19,-311.89 211.5,-319.65 277.5,-343.66 358.1,-361.88 400.9,-370.73"/>
<polygon fill="lightslategrey" stroke="lightslategrey" points="400.44,-374.2 410.94,-372.77 401.84,-367.35 400.44,-374.2"/>
</g>
<!-- builtins.object&#45;&gt;builtins.int -->
<g id="edge1" class="edge">
<title>builtins.object&#45;&gt;builtins.int</title>
<path fill="none" stroke="lightslategrey" d="M59.12,-270.58C75.46,-273.7 98.28,-278.06 115.17,-281.29"/>
<polygon fill="lightslategrey" stroke="lightslategrey" points="114.81,-284.78 125.29,-283.22 116.12,-277.91 114.81,-284.78"/>
</g>
<!-- builtins.object&#45;&gt;builtins.tuple -->
<g id="edge2" class="edge">
<title>builtins.object&#45;&gt;builtins.tuple</title>
<path fill="none" stroke="lightslategrey" d="M59.12,-262.92C73.78,-260.26 93.65,-256.67 109.78,-253.75"/>
<polygon fill="lightslategrey" stroke="lightslategrey" points="110.53,-257.17 119.75,-251.95 109.29,-250.28 110.53,-257.17"/>
</g>
<!-- builtins.object&#45;&gt;enum.Enum -->
<g id="edge6" class="edge">
<title>builtins.object&#45;&gt;enum.Enum</title>
<path fill="none" stroke="lightslategrey" d="M49.03,-276.35C58.45,-284.66 72.91,-296.53 87,-304.65 141.26,-335.9 210.66,-360.23 249.58,-372.62"/>
<polygon fill="lightslategrey" stroke="lightslategrey" points="248.66,-376 259.25,-375.65 250.75,-369.32 248.66,-376"/>
</g>
<!-- builtins.object&#45;&gt;queue.Queue -->
<g id="edge7" class="edge">
<title>builtins.object&#45;&gt;queue.Queue</title>
<path fill="none" stroke="lightslategrey" d="M42.03,-276.3C49.28,-295.71 66.9,-340.61 87,-375.65 97.9,-394.65 112.73,-414.8 123.59,-428.76"/>
<polygon fill="lightslategrey" stroke="lightslategrey" points="121.12,-431.29 130.07,-436.97 126.61,-426.95 121.12,-431.29"/>
</g>
<!-- builtins.object&#45;&gt;supriya.clock.bases.BaseTempoClock -->
<g id="edge8" class="edge">
<title>builtins.object&#45;&gt;supriya.clock.bases.BaseTempoClock</title>
<path fill="none" stroke="lightslategrey" d="M43.85,-257.02C58.34,-230.96 98.77,-158.23 121.66,-117.05"/>
<polygon fill="lightslategrey" stroke="lightslategrey" points="124.73,-118.72 126.53,-108.28 118.61,-115.32 124.73,-118.72"/>
</g>
<!-- builtins.object&#45;&gt;supriya.clock.ephemera.Moment -->
<g id="edge9" class="edge">
<title>builtins.object&#45;&gt;supriya.clock.ephemera.Moment</title>
<path fill="none" stroke="lightslategrey" d="M39.41,-257.03C43.12,-219.67 58.35,-84.72 87,-54.65 148.29,9.69 190.64,-0.65 279.5,-0.65 279.5,-0.65 279.5,-0.65 433,-0.65 496.52,-0.65 561.53,-44.86 592.84,-69.51"/>
<polygon fill="lightslategrey" stroke="lightslategrey" points="590.76,-72.34 600.74,-75.9 595.16,-66.89 590.76,-72.34"/>
</g>
<!-- builtins.tuple&#45;&gt;supriya.clock.ephemera.CallbackCommand -->
<g id="edge10" class="edge">
<title>builtins.tuple&#45;&gt;supriya.clock.ephemera.CallbackCommand</title>
<path fill="none" stroke="lightslategrey" d="M158.02,-254.8C172.36,-259.49 193.01,-265.78 211.5,-269.65 341.79,-296.9 499.18,-311.78 571.76,-317.65"/>
<polygon fill="lightslategrey" stroke="lightslategrey" points="571.59,-321.15 581.84,-318.45 572.14,-314.17 571.59,-321.15"/>
</g>
<!-- builtins.tuple&#45;&gt;supriya.clock.ephemera.CallbackEvent -->
<g id="edge11" class="edge">
<title>builtins.tuple&#45;&gt;supriya.clock.ephemera.CallbackEvent</title>
<path fill="none" stroke="lightslategrey" d="M158.21,-249.57C228.11,-253.13 479.97,-265.93 575.19,-270.77"/>
<polygon fill="lightslategrey" stroke="lightslategrey" points="575.06,-274.27 585.22,-271.28 575.41,-267.28 575.06,-274.27"/>
</g>
<!-- builtins.tuple&#45;&gt;supriya.clock.ephemera.ChangeCommand -->
<g id="edge12" class="edge">
<title>builtins.tuple&#45;&gt;supriya.clock.ephemera.ChangeCommand</title>
<path fill="none" stroke="lightslategrey" d="M158.21,-247.72C227.28,-244.21 474.03,-231.66 571.74,-226.69"/>
<polygon fill="lightslategrey" stroke="lightslategrey" points="572,-230.18 581.81,-226.18 571.65,-223.19 572,-230.18"/>
</g>
<!-- builtins.tuple&#45;&gt;supriya.clock.ephemera.ChangeEvent -->
<g id="edge13" class="edge">
<title>builtins.tuple&#45;&gt;supriya.clock.ephemera.ChangeEvent</title>
<path fill="none" stroke="lightslategrey" d="M158.16,-244.49C172.57,-241.28 193.26,-236.85 211.5,-233.65 346.43,-209.92 508.26,-189.26 577.66,-180.76"/>
<polygon fill="lightslategrey" stroke="lightslategrey" points="578.48,-184.19 587.99,-179.51 577.64,-177.24 578.48,-184.19"/>
</g>
<!-- builtins.tuple&#45;&gt;supriya.clock.ephemera.ClockState -->
<g id="edge14" class="edge">
<title>builtins.tuple&#45;&gt;supriya.clock.ephemera.ClockState</title>
<path fill="none" stroke="lightslategrey" d="M153.28,-238.98C167.13,-229.35 189.82,-214.85 211.5,-206.65 343.88,-156.56 513.6,-137.14 581.72,-131.03"/>
<polygon fill="lightslategrey" stroke="lightslategrey" points="582.1,-134.51 591.76,-130.16 581.49,-127.54 582.1,-134.51"/>
</g>
<!-- enum.Enum&#45;&gt;enum.IntEnum -->
<g id="edge3" class="edge">
<title>enum.Enum&#45;&gt;enum.IntEnum</title>
<path fill="none" stroke="lightslategrey" d="M301.66,-380.97C327.07,-380.12 370.99,-378.65 400.52,-377.67"/>
<polygon fill="lightslategrey" stroke="lightslategrey" points="400.8,-381.16 410.68,-377.33 400.57,-374.16 400.8,-381.16"/>
</g>
<!-- enum.IntEnum&#45;&gt;supriya.clock.ephemera.EventType -->
<g id="edge15" class="edge">
<title>enum.IntEnum&#45;&gt;supriya.clock.ephemera.EventType</title>
<path fill="none" stroke="lightslategrey" d="M453.19,-381.16C484.56,-388.17 545.21,-401.72 581.81,-409.9"/>
<polygon fill="lightslategrey" stroke="lightslategrey" points="581.37,-413.39 591.89,-412.15 582.89,-406.56 581.37,-413.39"/>
</g>
<!-- enum.IntEnum&#45;&gt;supriya.clock.ephemera.TimeUnit -->
<g id="edge16" class="edge">
<title>enum.IntEnum&#45;&gt;supriya.clock.ephemera.TimeUnit</title>
<path fill="none" stroke="lightslategrey" d="M453.19,-375.74C485,-374.32 546.94,-371.55 583.35,-369.93"/>
<polygon fill="lightslategrey" stroke="lightslategrey" points="583.93,-373.4 593.77,-369.46 583.62,-366.41 583.93,-373.4"/>
</g>
<!-- queue.PriorityQueue&#45;&gt;supriya.clock.eventqueue.EventQueue -->
<g id="edge17" class="edge">
<title>queue.PriorityQueue&#45;&gt;supriya.clock.eventqueue.EventQueue</title>
<path fill="none" stroke="lightslategrey" d="M304.21,-449.65C329.41,-449.65 370.29,-449.65 398.8,-449.65"/>
<polygon fill="lightslategrey" stroke="lightslategrey" points="399.06,-453.15 409.06,-449.65 399.06,-446.15 399.06,-453.15"/>
</g>
<!-- queue.Queue&#45;&gt;queue.PriorityQueue -->
<g id="edge4" class="edge">
<title>queue.Queue&#45;&gt;queue.PriorityQueue</title>
<path fill="none" stroke="lightslategrey" d="M161.8,-447.11C184.56,-447.6 220.53,-448.38 246.72,-448.94"/>
<polygon fill="lightslategrey" stroke="lightslategrey" points="246.86,-452.44 256.93,-449.16 247.01,-445.45 246.86,-452.44"/>
</g>
<!-- supriya.clock.bases.BaseTempoClock&#45;&gt;supriya.clock.asynchronous.AsyncTempoClock -->
<g id="edge18" class="edge">
<title>supriya.clock.bases.BaseTempoClock&#45;&gt;supriya.clock.asynchronous.AsyncTempoClock</title>
<path fill="none" stroke="lightslategrey" d="M162.1,-87.65C185.06,-87.65 221.21,-87.65 247.33,-87.65"/>
<polygon fill="lightslategrey" stroke="lightslategrey" points="247.5,-91.15 257.5,-87.65 247.5,-84.15 247.5,-91.15"/>
</g>
<!-- supriya.clock.bases.BaseTempoClock&#45;&gt;supriya.clock.threaded.TempoClock -->
<g id="edge19" class="edge">
<title>supriya.clock.bases.BaseTempoClock&#45;&gt;supriya.clock.threaded.TempoClock</title>
<path fill="none" stroke="lightslategrey" d="M162.05,-74.79C175.79,-67.47 194.11,-58.92 211.5,-54.65 276.4,-38.68 355.24,-39.41 398.57,-41.47"/>
<polygon fill="lightslategrey" stroke="lightslategrey" points="398.62,-44.97 408.79,-42.01 398.99,-37.98 398.62,-44.97"/>
</g>
<!-- builtins.int -->
<g id="node1" class="node">
<title>builtins.int</title>
<g id="a_node1"><a xlink:href="https://docs.python.org/3/library/functions.html#int" xlink:title="int" target="_top">
<path fill="#fbb4ae" stroke="#fbb4ae" stroke-width="2" d="M146.17,-295.15C146.17,-295.15 131.83,-295.15 131.83,-295.15 128.67,-295.15 125.5,-291.98 125.5,-288.81 125.5,-288.81 125.5,-282.48 125.5,-282.48 125.5,-279.31 128.67,-276.15 131.83,-276.15 131.83,-276.15 146.17,-276.15 146.17,-276.15 149.33,-276.15 152.5,-279.31 152.5,-282.48 152.5,-282.48 152.5,-288.81 152.5,-288.81 152.5,-291.98 149.33,-295.15 146.17,-295.15"/>
<text text-anchor="middle" x="139" y="-283.15" font-family="Arial" font-size="10.00">int</text>
</a>
</g>
</g>
<!-- builtins.object -->
<g id="node2" class="node">
<title>builtins.object</title>
<g id="a_node2"><a xlink:href="https://docs.python.org/3/library/functions.html#object" xlink:title="object" target="_top">
<path fill="#fbb4ae" stroke="#fbb4ae" stroke-width="2" d="M52.67,-276.15C52.67,-276.15 22.33,-276.15 22.33,-276.15 19.17,-276.15 16,-272.98 16,-269.81 16,-269.81 16,-263.48 16,-263.48 16,-260.31 19.17,-257.15 22.33,-257.15 22.33,-257.15 52.67,-257.15 52.67,-257.15 55.83,-257.15 59,-260.31 59,-263.48 59,-263.48 59,-269.81 59,-269.81 59,-272.98 55.83,-276.15 52.67,-276.15"/>
<text text-anchor="middle" x="37.5" y="-264.15" font-family="Arial" font-size="10.00">object</text>
</a>
</g>
</g>
<!-- builtins.tuple -->
<g id="node3" class="node">
<title>builtins.tuple</title>
<g id="a_node3"><a xlink:href="https://docs.python.org/3/library/stdtypes.html#tuple" xlink:title="tuple" target="_top">
<path fill="#fbb4ae" stroke="#fbb4ae" stroke-width="2" d="M151.67,-258.15C151.67,-258.15 126.33,-258.15 126.33,-258.15 123.17,-258.15 120,-254.98 120,-251.81 120,-251.81 120,-245.48 120,-245.48 120,-242.31 123.17,-239.15 126.33,-239.15 126.33,-239.15 151.67,-239.15 151.67,-239.15 154.83,-239.15 158,-242.31 158,-245.48 158,-245.48 158,-251.81 158,-251.81 158,-254.98 154.83,-258.15 151.67,-258.15"/>
<text text-anchor="middle" x="139" y="-246.15" font-family="Arial" font-size="10.00">tuple</text>
</a>
</g>
</g>
<!-- enum.Enum -->
<g id="node4" class="node">
<title>enum.Enum</title>
<g id="a_node4"><a xlink:href="https://docs.python.org/3/library/enum.html#enum.Enum" xlink:title="Enum" target="_top">
<path fill="#b3cde3" stroke="#b3cde3" stroke-width="2" d="M295.17,-391.15C295.17,-391.15 265.83,-391.15 265.83,-391.15 262.67,-391.15 259.5,-387.98 259.5,-384.81 259.5,-384.81 259.5,-378.48 259.5,-378.48 259.5,-375.31 262.67,-372.15 265.83,-372.15 265.83,-372.15 295.17,-372.15 295.17,-372.15 298.33,-372.15 301.5,-375.31 301.5,-378.48 301.5,-378.48 301.5,-384.81 301.5,-384.81 301.5,-387.98 298.33,-391.15 295.17,-391.15"/>
<text text-anchor="middle" x="280.5" y="-379.15" font-family="Arial" font-size="10.00">Enum</text>
</a>
</g>
</g>
<!-- enum.IntEnum -->
<g id="node5" class="node">
<title>enum.IntEnum</title>
<g id="a_node5"><a xlink:href="https://docs.python.org/3/library/enum.html#enum.IntEnum" xlink:title="Int\nEnum" target="_top">
<path fill="#b3cde3" stroke="#b3cde3" stroke-width="2" d="M443,-391.65C443,-391.65 421,-391.65 421,-391.65 416,-391.65 411,-386.65 411,-381.65 411,-381.65 411,-371.65 411,-371.65 411,-366.65 416,-361.65 421,-361.65 421,-361.65 443,-361.65 443,-361.65 448,-361.65 453,-366.65 453,-371.65 453,-371.65 453,-381.65 453,-381.65 453,-386.65 448,-391.65 443,-391.65"/>
<text text-anchor="middle" x="432" y="-379.65" font-family="Arial" font-size="10.00">Int</text>
<text text-anchor="middle" x="432" y="-368.65" font-family="Arial" font-size="10.00">Enum</text>
</a>
</g>
</g>
<!-- queue.PriorityQueue -->
<g id="node6" class="node">
<title>queue.PriorityQueue</title>
<g id="a_node6"><a xlink:href="https://docs.python.org/3/library/queue.html#queue.PriorityQueue" xlink:title="Priority\nQueue" target="_top">
<path fill="#ccebc5" stroke="#ccebc5" stroke-width="2" d="M294,-464.65C294,-464.65 267,-464.65 267,-464.65 262,-464.65 257,-459.65 257,-454.65 257,-454.65 257,-444.65 257,-444.65 257,-439.65 262,-434.65 267,-434.65 267,-434.65 294,-434.65 294,-434.65 299,-434.65 304,-439.65 304,-444.65 304,-444.65 304,-454.65 304,-454.65 304,-459.65 299,-464.65 294,-464.65"/>
<text text-anchor="middle" x="280.5" y="-452.65" font-family="Arial" font-size="10.00">Priority</text>
<text text-anchor="middle" x="280.5" y="-441.65" font-family="Arial" font-size="10.00">Queue</text>
</a>
</g>
</g>
<!-- queue.Queue -->
<g id="node7" class="node">
<title>queue.Queue</title>
<g id="a_node7"><a xlink:href="https://docs.python.org/3/library/queue.html#queue.Queue" xlink:title="Queue" target="_top">
<path fill="#ccebc5" stroke="#ccebc5" stroke-width="2" d="M155.17,-456.15C155.17,-456.15 122.83,-456.15 122.83,-456.15 119.67,-456.15 116.5,-452.98 116.5,-449.81 116.5,-449.81 116.5,-443.48 116.5,-443.48 116.5,-440.31 119.67,-437.15 122.83,-437.15 122.83,-437.15 155.17,-437.15 155.17,-437.15 158.33,-437.15 161.5,-440.31 161.5,-443.48 161.5,-443.48 161.5,-449.81 161.5,-449.81 161.5,-452.98 158.33,-456.15 155.17,-456.15"/>
<text text-anchor="middle" x="139" y="-444.15" font-family="Arial" font-size="10.00">Queue</text>
</a>
</g>
</g>
<!-- supriya.clock.asynchronous.AsyncTempoClock -->
<g id="node8" class="node">
<title>supriya.clock.asynchronous.AsyncTempoClock</title>
<g id="a_node8"><a xlink:href="../api/supriya/clock/asynchronous.html#supriya.clock.asynchronous.AsyncTempoClock" xlink:title="Async\nTempo\nClock" target="_top">
<path fill="#decbe4" stroke="#decbe4" stroke-width="2" d="M291.5,-108.15C291.5,-108.15 269.5,-108.15 269.5,-108.15 263.5,-108.15 257.5,-102.15 257.5,-96.15 257.5,-96.15 257.5,-79.15 257.5,-79.15 257.5,-73.15 263.5,-67.15 269.5,-67.15 269.5,-67.15 291.5,-67.15 291.5,-67.15 297.5,-67.15 303.5,-73.15 303.5,-79.15 303.5,-79.15 303.5,-96.15 303.5,-96.15 303.5,-102.15 297.5,-108.15 291.5,-108.15"/>
<text text-anchor="middle" x="280.5" y="-96.15" font-family="Arial" font-size="10.00">Async</text>
<text text-anchor="middle" x="280.5" y="-85.15" font-family="Arial" font-size="10.00">Tempo</text>
<text text-anchor="middle" x="280.5" y="-74.15" font-family="Arial" font-size="10.00">Clock</text>
</a>
</g>
</g>
<!-- supriya.clock.bases.BaseTempoClock -->
<g id="node9" class="node">
<title>supriya.clock.bases.BaseTempoClock</title>
<g id="a_node9"><a xlink:href="../api/supriya/clock/bases.html#supriya.clock.bases.BaseTempoClock" xlink:title="Base\nTempo\nClock" target="_top">
<path fill="#fed9a6" stroke="#fed9a6" stroke-width="2" d="M150,-108.15C150,-108.15 128,-108.15 128,-108.15 122,-108.15 116,-102.15 116,-96.15 116,-96.15 116,-79.15 116,-79.15 116,-73.15 122,-67.15 128,-67.15 128,-67.15 150,-67.15 150,-67.15 156,-67.15 162,-73.15 162,-79.15 162,-79.15 162,-96.15 162,-96.15 162,-102.15 156,-108.15 150,-108.15"/>
<text text-anchor="middle" x="139" y="-96.15" font-family="Arial" font-size="10.00">Base</text>
<text text-anchor="middle" x="139" y="-85.15" font-family="Arial" font-size="10.00">Tempo</text>
<text text-anchor="middle" x="139" y="-74.15" font-family="Arial" font-size="10.00">Clock</text>
</a>
</g>
</g>
<!-- supriya.clock.ephemera.CallbackCommand -->
<g id="node10" class="node">
<title>supriya.clock.ephemera.CallbackCommand</title>
<g id="a_node10"><a xlink:href="../api/supriya/clock/ephemera.html#supriya.clock.ephemera.CallbackCommand" xlink:title="Callback\nCommand" target="_top">
<path fill="#ffffcc" stroke="#ffffcc" stroke-width="2" d="M634,-335.65C634,-335.65 592,-335.65 592,-335.65 587,-335.65 582,-330.65 582,-325.65 582,-325.65 582,-315.65 582,-315.65 582,-310.65 587,-305.65 592,-305.65 592,-305.65 634,-305.65 634,-305.65 639,-305.65 644,-310.65 644,-315.65 644,-315.65 644,-325.65 644,-325.65 644,-330.65 639,-335.65 634,-335.65"/>
<text text-anchor="middle" x="613" y="-323.65" font-family="Arial" font-size="10.00">Callback</text>
<text text-anchor="middle" x="613" y="-312.65" font-family="Arial" font-size="10.00">Command</text>
</a>
</g>
</g>
<!-- supriya.clock.ephemera.CallbackEvent -->
<g id="node11" class="node">
<title>supriya.clock.ephemera.CallbackEvent</title>
<g id="a_node11"><a xlink:href="../api/supriya/clock/ephemera.html#supriya.clock.ephemera.CallbackEvent" xlink:title="Callback\nEvent" target="_top">
<path fill="#ffffcc" stroke="#ffffcc" stroke-width="2" d="M630.5,-287.65C630.5,-287.65 595.5,-287.65 595.5,-287.65 590.5,-287.65 585.5,-282.65 585.5,-277.65 585.5,-277.65 585.5,-267.65 585.5,-267.65 585.5,-262.65 590.5,-257.65 595.5,-257.65 595.5,-257.65 630.5,-257.65 630.5,-257.65 635.5,-257.65 640.5,-262.65 640.5,-267.65 640.5,-267.65 640.5,-277.65 640.5,-277.65 640.5,-282.65 635.5,-287.65 630.5,-287.65"/>
<text text-anchor="middle" x="613" y="-275.65" font-family="Arial" font-size="10.00">Callback</text>
<text text-anchor="middle" x="613" y="-264.65" font-family="Arial" font-size="10.00">Event</text>
</a>
</g>
</g>
<!-- supriya.clock.ephemera.ChangeCommand -->
<g id="node12" class="node">
<title>supriya.clock.ephemera.ChangeCommand</title>
<g id="a_node12"><a xlink:href="../api/supriya/clock/ephemera.html#supriya.clock.ephemera.ChangeCommand" xlink:title="Change\nCommand" target="_top">
<path fill="#ffffcc" stroke="#ffffcc" stroke-width="2" d="M634,-239.65C634,-239.65 592,-239.65 592,-239.65 587,-239.65 582,-234.65 582,-229.65 582,-229.65 582,-219.65 582,-219.65 582,-214.65 587,-209.65 592,-209.65 592,-209.65 634,-209.65 634,-209.65 639,-209.65 644,-214.65 644,-219.65 644,-219.65 644,-229.65 644,-229.65 644,-234.65 639,-239.65 634,-239.65"/>
<text text-anchor="middle" x="613" y="-227.65" font-family="Arial" font-size="10.00">Change</text>
<text text-anchor="middle" x="613" y="-216.65" font-family="Arial" font-size="10.00">Command</text>
</a>
</g>
</g>
<!-- supriya.clock.ephemera.ChangeEvent -->
<g id="node13" class="node">
<title>supriya.clock.ephemera.ChangeEvent</title>
<g id="a_node13"><a xlink:href="../api/supriya/clock/ephemera.html#supriya.clock.ephemera.ChangeEvent" xlink:title="Change\nEvent" target="_top">
<path fill="#ffffcc" stroke="#ffffcc" stroke-width="2" d="M628,-191.65C628,-191.65 598,-191.65 598,-191.65 593,-191.65 588,-186.65 588,-181.65 588,-181.65 588,-171.65 588,-171.65 588,-166.65 593,-161.65 598,-161.65 598,-161.65 628,-161.65 628,-161.65 633,-161.65 638,-166.65 638,-171.65 638,-171.65 638,-181.65 638,-181.65 638,-186.65 633,-191.65 628,-191.65"/>
<text text-anchor="middle" x="613" y="-179.65" font-family="Arial" font-size="10.00">Change</text>
<text text-anchor="middle" x="613" y="-168.65" font-family="Arial" font-size="10.00">Event</text>
</a>
</g>
</g>
<!-- supriya.clock.ephemera.ClockState -->
<g id="node14" class="node">
<title>supriya.clock.ephemera.ClockState</title>
<g id="a_node14"><a xlink:href="../api/supriya/clock/ephemera.html#supriya.clock.ephemera.ClockState" xlink:title="Clock\nState" target="_top">
<path fill="#ffffcc" stroke="#ffffcc" stroke-width="2" d="M624,-143.65C624,-143.65 602,-143.65 602,-143.65 597,-143.65 592,-138.65 592,-133.65 592,-133.65 592,-123.65 592,-123.65 592,-118.65 597,-113.65 602,-113.65 602,-113.65 624,-113.65 624,-113.65 629,-113.65 634,-118.65 634,-123.65 634,-123.65 634,-133.65 634,-133.65 634,-138.65 629,-143.65 624,-143.65"/>
<text text-anchor="middle" x="613" y="-131.65" font-family="Arial" font-size="10.00">Clock</text>
<text text-anchor="middle" x="613" y="-120.65" font-family="Arial" font-size="10.00">State</text>
</a>
</g>
</g>
<!-- supriya.clock.ephemera.EventType -->
<g id="node15" class="node">
<title>supriya.clock.ephemera.EventType</title>
<g id="a_node15"><a xlink:href="../api/supriya/clock/ephemera.html#supriya.clock.ephemera.EventType" xlink:title="Event\nType" target="_top">
<path fill="#ffffcc" stroke="#ffffcc" stroke-width="2" d="M624,-431.65C624,-431.65 602,-431.65 602,-431.65 597,-431.65 592,-426.65 592,-421.65 592,-421.65 592,-411.65 592,-411.65 592,-406.65 597,-401.65 602,-401.65 602,-401.65 624,-401.65 624,-401.65 629,-401.65 634,-406.65 634,-411.65 634,-411.65 634,-421.65 634,-421.65 634,-426.65 629,-431.65 624,-431.65"/>
<text text-anchor="middle" x="613" y="-419.65" font-family="Arial" font-size="10.00">Event</text>
<text text-anchor="middle" x="613" y="-408.65" font-family="Arial" font-size="10.00">Type</text>
</a>
</g>
</g>
<!-- supriya.clock.ephemera.Moment -->
<g id="node16" class="node">
<title>supriya.clock.ephemera.Moment</title>
<g id="a_node16"><a xlink:href="../api/supriya/clock/ephemera.html#supriya.clock.ephemera.Moment" xlink:title="Moment" target="_top">
<path fill="#ffffcc" stroke="#ffffcc" stroke-width="2" d="M632.67,-95.15C632.67,-95.15 593.33,-95.15 593.33,-95.15 590.17,-95.15 587,-91.98 587,-88.81 587,-88.81 587,-82.48 587,-82.48 587,-79.31 590.17,-76.15 593.33,-76.15 593.33,-76.15 632.67,-76.15 632.67,-76.15 635.83,-76.15 639,-79.31 639,-82.48 639,-82.48 639,-88.81 639,-88.81 639,-91.98 635.83,-95.15 632.67,-95.15"/>
<text text-anchor="middle" x="613" y="-83.15" font-family="Arial" font-size="10.00">Moment</text>
</a>
</g>
</g>
<!-- supriya.clock.ephemera.TimeUnit -->
<g id="node17" class="node">
<title>supriya.clock.ephemera.TimeUnit</title>
<g id="a_node17"><a xlink:href="../api/supriya/clock/ephemera.html#supriya.clock.ephemera.TimeUnit" xlink:title="Time\nUnit" target="_top">
<path fill="#ffffcc" stroke="#ffffcc" stroke-width="2" d="M622,-383.65C622,-383.65 604,-383.65 604,-383.65 599,-383.65 594,-378.65 594,-373.65 594,-373.65 594,-363.65 594,-363.65 594,-358.65 599,-353.65 604,-353.65 604,-353.65 622,-353.65 622,-353.65 627,-353.65 632,-358.65 632,-363.65 632,-363.65 632,-373.65 632,-373.65 632,-378.65 627,-383.65 622,-383.65"/>
<text text-anchor="middle" x="613" y="-371.65" font-family="Arial" font-size="10.00">Time</text>
<text text-anchor="middle" x="613" y="-360.65" font-family="Arial" font-size="10.00">Unit</text>
</a>
</g>
</g>
<!-- supriya.clock.eventqueue.EventQueue -->
<g id="node18" class="node">
<title>supriya.clock.eventqueue.EventQueue</title>
<g id="a_node18"><a xlink:href="../api/supriya/clock/eventqueue.html#supriya.clock.eventqueue.EventQueue" xlink:title="Event\nQueue" target="_top">
<path fill="#e5d8bd" stroke="#e5d8bd" stroke-width="2" d="M444.5,-464.65C444.5,-464.65 419.5,-464.65 419.5,-464.65 414.5,-464.65 409.5,-459.65 409.5,-454.65 409.5,-454.65 409.5,-444.65 409.5,-444.65 409.5,-439.65 414.5,-434.65 419.5,-434.65 419.5,-434.65 444.5,-434.65 444.5,-434.65 449.5,-434.65 454.5,-439.65 454.5,-444.65 454.5,-444.65 454.5,-454.65 454.5,-454.65 454.5,-459.65 449.5,-464.65 444.5,-464.65"/>
<text text-anchor="middle" x="432" y="-452.65" font-family="Arial" font-size="10.00">Event</text>
<text text-anchor="middle" x="432" y="-441.65" font-family="Arial" font-size="10.00">Queue</text>
</a>
</g>
</g>
<!-- supriya.clock.threaded.TempoClock -->
<g id="node19" class="node">
<title>supriya.clock.threaded.TempoClock</title>
<g id="a_node19"><a xlink:href="../api/supriya/clock/threaded.html#supriya.clock.threaded.TempoClock" xlink:title="Tempo\nClock" target="_top">
<path fill="#fddaec" stroke="#fddaec" stroke-width="2" d="M445,-58.65C445,-58.65 419,-58.65 419,-58.65 414,-58.65 409,-53.65 409,-48.65 409,-48.65 409,-38.65 409,-38.65 409,-33.65 414,-28.65 419,-28.65 419,-28.65 445,-28.65 445,-28.65 450,-28.65 455,-33.65 455,-38.65 455,-38.65 455,-48.65 455,-48.65 455,-53.65 450,-58.65 445,-58.65"/>
<text text-anchor="middle" x="432" y="-46.65" font-family="Arial" font-size="10.00">Tempo</text>
<text text-anchor="middle" x="432" y="-35.65" font-family="Arial" font-size="10.00">Clock</text>
</a>
</g>
</g>
</g>
</svg>
