<?xml version="1.0" encoding="UTF-8" standalone="no"?>
<!DOCTYPE svg PUBLIC "-//W3C//DTD SVG 1.1//EN"
 "http://www.w3.org/Graphics/SVG/1.1/DTD/svg11.dtd">
<!-- Generated by graphviz version 2.40.1 (20161225.0304)
 -->
<!-- Title: InheritanceGraph Pages: 1 -->
<svg width="598pt" height="133pt"
 viewBox="0.00 0.00 597.74 133.00" xmlns="http://www.w3.org/2000/svg" xmlns:xlink="http://www.w3.org/1999/xlink">
<g id="graph0" class="graph" transform="scale(1 1) rotate(0) translate(4 129)">
<title>InheritanceGraph</title>
<g id="clust1" class="cluster">
<title>cluster_builtins</title>
<path fill="transparent" stroke="#bcd2ee" stroke-width="2" stroke-dasharray="5,2" d="M20,-35C20,-35 49,-35 49,-35 55,-35 61,-41 61,-47 61,-47 61,-78 61,-78 61,-84 55,-90 49,-90 49,-90 20,-90 20,-90 14,-90 8,-84 8,-78 8,-78 8,-47 8,-47 8,-41 14,-35 20,-35"/>
<text text-anchor="middle" x="34.5" y="-78" font-family="Arial" font-size="10.00" fill="#000000">builtins</text>
</g>
<g id="clust2" class="cluster">
<title>cluster_supriya.synthdefs</title>
<path fill="transparent" stroke="#bcd2ee" stroke-width="2" stroke-dasharray="5,2" d="M180,-24C180,-24 231,-24 231,-24 237,-24 243,-30 243,-36 243,-36 243,-89 243,-89 243,-95 237,-101 231,-101 231,-101 180,-101 180,-101 174,-101 168,-95 168,-89 168,-89 168,-36 168,-36 168,-30 174,-24 180,-24"/>
<text text-anchor="middle" x="205.5" y="-89" font-family="Arial" font-size="10.00" fill="#000000">supriya.synthdefs</text>
</g>
<g id="clust3" class="cluster">
<title>cluster_supriya.system</title>
<path fill="transparent" stroke="#bcd2ee" stroke-width="2" stroke-dasharray="5,2" d="M93,-30C93,-30 136,-30 136,-30 142,-30 148,-36 148,-42 148,-42 148,-83 148,-83 148,-89 142,-95 136,-95 136,-95 93,-95 93,-95 87,-95 81,-89 81,-83 81,-83 81,-42 81,-42 81,-36 87,-30 93,-30"/>
<text text-anchor="middle" x="114.5" y="-83" font-family="Arial" font-size="10.00" fill="#000000">supriya.system</text>
</g>
<g id="clust4" class="cluster">
<title>cluster_supriya.ugens</title>
<path fill="transparent" stroke="#bcd2ee" stroke-width="2" stroke-dasharray="5,2" d="M275,-8C275,-8 569.7351,-8 569.7351,-8 575.7351,-8 581.7351,-14 581.7351,-20 581.7351,-20 581.7351,-105 581.7351,-105 581.7351,-111 575.7351,-117 569.7351,-117 569.7351,-117 275,-117 275,-117 269,-117 263,-111 263,-105 263,-105 263,-20 263,-20 263,-14 269,-8 275,-8"/>
<text text-anchor="middle" x="422.3675" y="-105" font-family="Arial" font-size="10.00" fill="#000000">supriya.ugens</text>
</g>
<!-- builtins.object&#45;&gt;supriya.system.SupriyaObject.SupriyaObject -->
<g id="edge4" class="edge">
<title>builtins.object&#45;&gt;supriya.system.SupriyaObject.SupriyaObject</title>
<path fill="none" stroke="#778899" d="M53.3404,-53C62.0401,-53 72.6079,-53 82.4698,-53"/>
<polygon fill="#778899" stroke="#778899" points="82.7722,-56.5001 92.7722,-53 82.7721,-49.5001 82.7722,-56.5001"/>
</g>
<!-- supriya.synthdefs.UGenMethodMixin.UGenMethodMixin&#45;&gt;supriya.ugens.UGen.UGen -->
<g id="edge5" class="edge">
<title>supriya.synthdefs.UGenMethodMixin.UGenMethodMixin&#45;&gt;supriya.ugens.UGen.UGen</title>
<path fill="none" stroke="#778899" d="M226.2117,-53C236.3925,-53 248.8752,-53 260.4793,-53"/>
<polygon fill="#778899" stroke="#778899" points="260.7979,-56.5001 270.7978,-53 260.7978,-49.5001 260.7979,-56.5001"/>
</g>
<!-- supriya.system.SupriyaObject.SupriyaObject&#45;&gt;supriya.synthdefs.UGenMethodMixin.UGenMethodMixin -->
<g id="edge6" class="edge">
<title>supriya.system.SupriyaObject.SupriyaObject&#45;&gt;supriya.synthdefs.UGenMethodMixin.UGenMethodMixin</title>
<path fill="none" stroke="#778899" d="M135.106,-53C146.5093,-53 160.815,-53 173.5087,-53"/>
<polygon fill="#778899" stroke="#778899" points="173.6933,-56.5001 183.6933,-53 173.6932,-49.5001 173.6933,-56.5001"/>
</g>
<!-- supriya.ugens.BufInfoUGenBase.BufInfoUGenBase&#45;&gt;supriya.ugens.BufFrames.BufFrames -->
<g id="edge1" class="edge">
<title>supriya.ugens.BufInfoUGenBase.BufInfoUGenBase&#45;&gt;supriya.ugens.BufFrames.BufFrames</title>
<path fill="none" stroke="#778899" d="M495.9168,-53C503.961,-53 512.9339,-53 521.3297,-53"/>
<polygon fill="#778899" stroke="#778899" points="521.5425,-56.5001 531.5425,-53 521.5424,-49.5001 521.5425,-56.5001"/>
</g>
<!-- supriya.ugens.InfoUGenBase.InfoUGenBase&#45;&gt;supriya.ugens.BufInfoUGenBase.BufInfoUGenBase -->
<g id="edge2" class="edge">
<title>supriya.ugens.InfoUGenBase.InfoUGenBase&#45;&gt;supriya.ugens.BufInfoUGenBase.BufInfoUGenBase</title>
<path fill="none" stroke="#778899" d="M408.9738,-53C416.9478,-53 425.8922,-53 434.432,-53"/>
<polygon fill="#778899" stroke="#778899" points="434.5556,-56.5001 444.5556,-53 434.5556,-49.5001 434.5556,-56.5001"/>
</g>
<!-- supriya.ugens.UGen.UGen&#45;&gt;supriya.ugens.InfoUGenBase.InfoUGenBase -->
<g id="edge3" class="edge">
<title>supriya.ugens.UGen.UGen&#45;&gt;supriya.ugens.InfoUGenBase.InfoUGenBase</title>
<path fill="none" stroke="#778899" d="M322.0621,-53C330.0361,-53 338.9805,-53 347.5203,-53"/>
<polygon fill="#778899" stroke="#778899" points="347.644,-56.5001 357.6439,-53 347.6439,-49.5001 347.644,-56.5001"/>
</g>
<!-- builtins.object -->
<g id="node1" class="node">
<title>builtins.object</title>
<g id="a_node1"><a xlink:href="https://docs.python.org/3.6/library/functions.html#object" xlink:title="object" target="_top">
<path fill="#fbb4ae" stroke="#fbb4ae" stroke-width="2" d="M46.6667,-62.5C46.6667,-62.5 22.3333,-62.5 22.3333,-62.5 19.1667,-62.5 16,-59.3333 16,-56.1667 16,-56.1667 16,-49.8333 16,-49.8333 16,-46.6667 19.1667,-43.5 22.3333,-43.5 22.3333,-43.5 46.6667,-43.5 46.6667,-43.5 49.8333,-43.5 53,-46.6667 53,-49.8333 53,-49.8333 53,-56.1667 53,-56.1667 53,-59.3333 49.8333,-62.5 46.6667,-62.5"/>
<text text-anchor="middle" x="34.5" y="-50.5" font-family="Arial" font-size="10.00" fill="#000000">object</text>
</a>
</g>
</g>
<!-- supriya.synthdefs.UGenMethodMixin.UGenMethodMixin -->
<g id="node2" class="node">
<title>supriya.synthdefs.UGenMethodMixin.UGenMethodMixin</title>
<g id="a_node2"><a xlink:href="../api/supriya/ugens/../synthdefs/UGenMethodMixin.html#supriya.synthdefs.UGenMethodMixin.UGenMethodMixin" xlink:title="UGen\nMethod\nMixin" target="_top">
<path fill="#b3cde3" stroke="#b3cde3" stroke-width="2" d="M214,-73.5C214,-73.5 196,-73.5 196,-73.5 190,-73.5 184,-67.5 184,-61.5 184,-61.5 184,-44.5 184,-44.5 184,-38.5 190,-32.5 196,-32.5 196,-32.5 214,-32.5 214,-32.5 220,-32.5 226,-38.5 226,-44.5 226,-44.5 226,-61.5 226,-61.5 226,-67.5 220,-73.5 214,-73.5"/>
<text text-anchor="middle" x="205" y="-61.5" font-family="Arial" font-size="10.00" fill="#000000">UGen</text>
<text text-anchor="middle" x="205" y="-50.5" font-family="Arial" font-size="10.00" fill="#000000">Method</text>
<text text-anchor="middle" x="205" y="-39.5" font-family="Arial" font-size="10.00" fill="#000000">Mixin</text>
</a>
</g>
</g>
<!-- supriya.system.SupriyaObject.SupriyaObject -->
<g id="node3" class="node">
<title>supriya.system.SupriyaObject.SupriyaObject</title>
<g id="a_node3"><a xlink:href="../api/supriya/ugens/../system/SupriyaObject.html#supriya.system.SupriyaObject.SupriyaObject" xlink:title="Supriya\nObject" target="_top">
<path fill="#ccebc5" stroke="#ccebc5" stroke-width="2" d="M125,-68C125,-68 103,-68 103,-68 98,-68 93,-63 93,-58 93,-58 93,-48 93,-48 93,-43 98,-38 103,-38 103,-38 125,-38 125,-38 130,-38 135,-43 135,-48 135,-48 135,-58 135,-58 135,-63 130,-68 125,-68"/>
<text text-anchor="middle" x="114" y="-56" font-family="Arial" font-size="10.00" fill="#000000">Supriya</text>
<text text-anchor="middle" x="114" y="-45" font-family="Arial" font-size="10.00" fill="#000000">Object</text>
</a>
</g>
</g>
<!-- supriya.ugens.BufFrames.BufFrames -->
<g id="node4" class="node">
<title>supriya.ugens.BufFrames.BufFrames</title>
<g id="a_node4"><a xlink:href="../api/supriya/ugens/BufFrames.html#supriya.ugens.BufFrames.BufFrames" xlink:title="Buf\nFrames" target="_top">
<path fill="#000000" stroke="#000000" stroke-width="2" d="M563.7351,-68C563.7351,-68 541.7351,-68 541.7351,-68 536.7351,-68 531.7351,-63 531.7351,-58 531.7351,-58 531.7351,-48 531.7351,-48 531.7351,-43 536.7351,-38 541.7351,-38 541.7351,-38 563.7351,-38 563.7351,-38 568.7351,-38 573.7351,-43 573.7351,-48 573.7351,-48 573.7351,-58 573.7351,-58 573.7351,-63 568.7351,-68 563.7351,-68"/>
<text text-anchor="middle" x="552.7351" y="-56" font-family="Arial" font-size="10.00" fill="#ffffff">Buf</text>
<text text-anchor="middle" x="552.7351" y="-45" font-family="Arial" font-size="10.00" fill="#ffffff">Frames</text>
</a>
</g>
</g>
<!-- supriya.ugens.BufInfoUGenBase.BufInfoUGenBase -->
<g id="node5" class="node">
<title>supriya.ugens.BufInfoUGenBase.BufInfoUGenBase</title>
<g id="a_node5"><a xlink:href="../api/supriya/ugens/BufInfoUGenBase.html#supriya.ugens.BufInfoUGenBase.BufInfoUGenBase" xlink:title="Buf\nInfo\nUGen\nBase" target="_top">
<ellipse fill="none" stroke="#decbe4" stroke-width="2" cx="470.2792" cy="-53" rx="25.4118" ry="36.5405"/>
<text text-anchor="middle" x="470.2792" y="-67" font-family="Arial" font-size="10.00" fill="#000000">Buf</text>
<text text-anchor="middle" x="470.2792" y="-56" font-family="Arial" font-size="10.00" fill="#000000">Info</text>
<text text-anchor="middle" x="470.2792" y="-45" font-family="Arial" font-size="10.00" fill="#000000">UGen</text>
<text text-anchor="middle" x="470.2792" y="-34" font-family="Arial" font-size="10.00" fill="#000000">Base</text>
</a>
</g>
</g>
<!-- supriya.ugens.InfoUGenBase.InfoUGenBase -->
<g id="node6" class="node">
<title>supriya.ugens.InfoUGenBase.InfoUGenBase</title>
<g id="a_node6"><a xlink:href="../api/supriya/ugens/InfoUGenBase.html#supriya.ugens.InfoUGenBase.InfoUGenBase" xlink:title="Info\nUGen\nBase" target="_top">
<ellipse fill="none" stroke="#decbe4" stroke-width="2" cx="383.3675" cy="-53" rx="25.4118" ry="28.9828"/>
<text text-anchor="middle" x="383.3675" y="-61.5" font-family="Arial" font-size="10.00" fill="#000000">Info</text>
<text text-anchor="middle" x="383.3675" y="-50.5" font-family="Arial" font-size="10.00" fill="#000000">UGen</text>
<text text-anchor="middle" x="383.3675" y="-39.5" font-family="Arial" font-size="10.00" fill="#000000">Base</text>
</a>
</g>
</g>
<!-- supriya.ugens.UGen.UGen -->
<g id="node7" class="node">
<title>supriya.ugens.UGen.UGen</title>
<g id="a_node7"><a xlink:href="../api/supriya/ugens/UGen.html#supriya.ugens.UGen.UGen" xlink:title="UGen" target="_top">
<ellipse fill="none" stroke="#decbe4" stroke-width="2" cx="296.4558" cy="-53" rx="25.4118" ry="13.3704"/>
<text text-anchor="middle" x="296.4558" y="-50.5" font-family="Arial" font-size="10.00" fill="#000000">UGen</text>
</a>
</g>
</g>
</g>
</svg>
