<?xml version="1.0" encoding="UTF-8" standalone="no"?>
<!DOCTYPE svg PUBLIC "-//W3C//DTD SVG 1.1//EN"
 "http://www.w3.org/Graphics/SVG/1.1/DTD/svg11.dtd">
<!-- Generated by graphviz version 2.44.1 (20200629.0846)
 -->
<!-- Title: InheritanceGraph Pages: 1 -->
<svg width="357pt" height="174pt"
 viewBox="0.00 0.00 357.00 174.00" xmlns="http://www.w3.org/2000/svg" xmlns:xlink="http://www.w3.org/1999/xlink">
<g id="graph0" class="graph" transform="scale(1 1) rotate(0) translate(4 170)">
<title>InheritanceGraph</title>
<g id="clust1" class="cluster">
<title>cluster_builtins</title>
<path fill="transparent" stroke="#bcd2ee" stroke-width="2" stroke-dasharray="5,2" d="M20,-54C20,-54 55,-54 55,-54 61,-54 67,-60 67,-66 67,-66 67,-97 67,-97 67,-103 61,-109 55,-109 55,-109 20,-109 20,-109 14,-109 8,-103 8,-97 8,-97 8,-66 8,-66 8,-60 14,-54 20,-54"/>
<text text-anchor="middle" x="37.5" y="-97" font-family="Arial" font-size="10.00">builtins</text>
</g>
<g id="clust2" class="cluster">
<title>cluster_supriya.clock.asynchronous</title>
<path fill="transparent" stroke="#bcd2ee" stroke-width="2" stroke-dasharray="5,2" d="M223,-81C223,-81 337,-81 337,-81 343,-81 349,-87 349,-93 349,-93 349,-146 349,-146 349,-152 343,-158 337,-158 337,-158 223,-158 223,-158 217,-158 211,-152 211,-146 211,-146 211,-93 211,-93 211,-87 217,-81 223,-81"/>
<text text-anchor="middle" x="280" y="-146" font-family="Arial" font-size="10.00">supriya.clock.asynchronous</text>
</g>
<g id="clust3" class="cluster">
<title>cluster_supriya.clock.bases</title>
<path fill="transparent" stroke="#bcd2ee" stroke-width="2" stroke-dasharray="5,2" d="M99,-43C99,-43 179,-43 179,-43 185,-43 191,-49 191,-55 191,-55 191,-108 191,-108 191,-114 185,-120 179,-120 179,-120 99,-120 99,-120 93,-120 87,-114 87,-108 87,-108 87,-55 87,-55 87,-49 93,-43 99,-43"/>
<text text-anchor="middle" x="139" y="-108" font-family="Arial" font-size="10.00">supriya.clock.bases</text>
</g>
<g id="clust4" class="cluster">
<title>cluster_supriya.clock.threaded</title>
<path fill="transparent" stroke="#bcd2ee" stroke-width="2" stroke-dasharray="5,2" d="M235,-8C235,-8 326,-8 326,-8 332,-8 338,-14 338,-20 338,-20 338,-61 338,-61 338,-67 332,-73 326,-73 326,-73 235,-73 235,-73 229,-73 223,-67 223,-61 223,-61 223,-20 223,-20 223,-14 229,-8 235,-8"/>
<text text-anchor="middle" x="280.5" y="-61" font-family="Arial" font-size="10.00">supriya.clock.threaded</text>
</g>
<!-- builtins.object&#45;&gt;supriya.clock.bases.BaseTempoClock -->
<g id="edge1" class="edge">
<title>builtins.object&#45;&gt;supriya.clock.bases.BaseTempoClock</title>
<path fill="none" stroke="lightslategrey" d="M59.12,-72C72.53,-72 90.3,-72 105.58,-72"/>
<polygon fill="lightslategrey" stroke="lightslategrey" points="105.68,-75.5 115.68,-72 105.68,-68.5 105.68,-75.5"/>
</g>
<!-- supriya.clock.bases.BaseTempoClock&#45;&gt;supriya.clock.asynchronous.AsyncTempoClock -->
<g id="edge2" class="edge">
<title>supriya.clock.bases.BaseTempoClock&#45;&gt;supriya.clock.asynchronous.AsyncTempoClock</title>
<path fill="none" stroke="lightslategrey" d="M162.02,-78.02C184.87,-84.27 220.82,-94.09 246.83,-101.21"/>
<polygon fill="lightslategrey" stroke="lightslategrey" points="246.05,-104.62 256.62,-103.88 247.89,-97.87 246.05,-104.62"/>
</g>
<!-- supriya.clock.bases.BaseTempoClock&#45;&gt;supriya.clock.threaded.TempoClock -->
<g id="edge3" class="edge">
<title>supriya.clock.bases.BaseTempoClock&#45;&gt;supriya.clock.threaded.TempoClock</title>
<path fill="none" stroke="lightslategrey" d="M162.02,-65.5C184.87,-58.77 220.82,-48.16 246.83,-40.49"/>
<polygon fill="lightslategrey" stroke="lightslategrey" points="248.02,-43.79 256.62,-37.6 246.04,-37.07 248.02,-43.79"/>
</g>
<!-- builtins.object -->
<g id="node1" class="node">
<title>builtins.object</title>
<g id="a_node1"><a xlink:href="https://docs.python.org/3/library/functions.html#object" xlink:title="object" target="_top">
<path fill="#fbb4ae" stroke="#fbb4ae" stroke-width="2" d="M52.67,-81.5C52.67,-81.5 22.33,-81.5 22.33,-81.5 19.17,-81.5 16,-78.33 16,-75.17 16,-75.17 16,-68.83 16,-68.83 16,-65.67 19.17,-62.5 22.33,-62.5 22.33,-62.5 52.67,-62.5 52.67,-62.5 55.83,-62.5 59,-65.67 59,-68.83 59,-68.83 59,-75.17 59,-75.17 59,-78.33 55.83,-81.5 52.67,-81.5"/>
<text text-anchor="middle" x="37.5" y="-69.5" font-family="Arial" font-size="10.00">object</text>
</a>
</g>
</g>
<!-- supriya.clock.asynchronous.AsyncTempoClock -->
<g id="node2" class="node">
<title>supriya.clock.asynchronous.AsyncTempoClock</title>
<g id="a_node2"><a xlink:href="../api/supriya/clock/asynchronous.html#supriya.clock.asynchronous.AsyncTempoClock" xlink:title="Async\nTempo\nClock" target="_top">
<path fill="#b3cde3" stroke="#b3cde3" stroke-width="2" d="M291,-130.5C291,-130.5 269,-130.5 269,-130.5 263,-130.5 257,-124.5 257,-118.5 257,-118.5 257,-101.5 257,-101.5 257,-95.5 263,-89.5 269,-89.5 269,-89.5 291,-89.5 291,-89.5 297,-89.5 303,-95.5 303,-101.5 303,-101.5 303,-118.5 303,-118.5 303,-124.5 297,-130.5 291,-130.5"/>
<text text-anchor="middle" x="280" y="-118.5" font-family="Arial" font-size="10.00">Async</text>
<text text-anchor="middle" x="280" y="-107.5" font-family="Arial" font-size="10.00">Tempo</text>
<text text-anchor="middle" x="280" y="-96.5" font-family="Arial" font-size="10.00">Clock</text>
</a>
</g>
</g>
<!-- supriya.clock.bases.BaseTempoClock -->
<g id="node3" class="node">
<title>supriya.clock.bases.BaseTempoClock</title>
<g id="a_node3"><a xlink:href="../api/supriya/clock/bases.html#supriya.clock.bases.BaseTempoClock" xlink:title="Base\nTempo\nClock" target="_top">
<path fill="black" stroke="black" stroke-width="2" d="M150,-92.5C150,-92.5 128,-92.5 128,-92.5 122,-92.5 116,-86.5 116,-80.5 116,-80.5 116,-63.5 116,-63.5 116,-57.5 122,-51.5 128,-51.5 128,-51.5 150,-51.5 150,-51.5 156,-51.5 162,-57.5 162,-63.5 162,-63.5 162,-80.5 162,-80.5 162,-86.5 156,-92.5 150,-92.5"/>
<text text-anchor="middle" x="139" y="-80.5" font-family="Arial" font-size="10.00" fill="white">Base</text>
<text text-anchor="middle" x="139" y="-69.5" font-family="Arial" font-size="10.00" fill="white">Tempo</text>
<text text-anchor="middle" x="139" y="-58.5" font-family="Arial" font-size="10.00" fill="white">Clock</text>
</a>
</g>
</g>
<!-- supriya.clock.threaded.TempoClock -->
<g id="node4" class="node">
<title>supriya.clock.threaded.TempoClock</title>
<g id="a_node4"><a xlink:href="../api/supriya/clock/threaded.html#supriya.clock.threaded.TempoClock" xlink:title="Tempo\nClock" target="_top">
<path fill="#decbe4" stroke="#decbe4" stroke-width="2" d="M293,-46C293,-46 267,-46 267,-46 262,-46 257,-41 257,-36 257,-36 257,-26 257,-26 257,-21 262,-16 267,-16 267,-16 293,-16 293,-16 298,-16 303,-21 303,-26 303,-26 303,-36 303,-36 303,-41 298,-46 293,-46"/>
<text text-anchor="middle" x="280" y="-34" font-family="Arial" font-size="10.00">Tempo</text>
<text text-anchor="middle" x="280" y="-23" font-family="Arial" font-size="10.00">Clock</text>
</a>
</g>
</g>
</g>
</svg>
