<?xml version="1.0" encoding="UTF-8" standalone="no"?>
<!DOCTYPE svg PUBLIC "-//W3C//DTD SVG 1.1//EN"
 "http://www.w3.org/Graphics/SVG/1.1/DTD/svg11.dtd">
<!-- Generated by graphviz version 2.40.1 (20161225.0304)
 -->
<!-- Title: InheritanceGraph Pages: 1 -->
<svg width="652pt" height="219pt"
 viewBox="0.00 0.00 651.82 219.00" xmlns="http://www.w3.org/2000/svg" xmlns:xlink="http://www.w3.org/1999/xlink">
<g id="graph0" class="graph" transform="scale(1 1) rotate(0) translate(4 215)">
<title>InheritanceGraph</title>
<g id="clust1" class="cluster">
<title>cluster_builtins</title>
<path fill="transparent" stroke="#bcd2ee" stroke-width="2" stroke-dasharray="5,2" d="M20,-78C20,-78 49,-78 49,-78 55,-78 61,-84 61,-90 61,-90 61,-121 61,-121 61,-127 55,-133 49,-133 49,-133 20,-133 20,-133 14,-133 8,-127 8,-121 8,-121 8,-90 8,-90 8,-84 14,-78 20,-78"/>
<text text-anchor="middle" x="34.5" y="-121" font-family="Arial" font-size="10.00" fill="#000000">builtins</text>
</g>
<g id="clust2" class="cluster">
<title>cluster_supriya.synthdefs</title>
<path fill="transparent" stroke="#bcd2ee" stroke-width="2" stroke-dasharray="5,2" d="M180,-67C180,-67 231,-67 231,-67 237,-67 243,-73 243,-79 243,-79 243,-132 243,-132 243,-138 237,-144 231,-144 231,-144 180,-144 180,-144 174,-144 168,-138 168,-132 168,-132 168,-79 168,-79 168,-73 174,-67 180,-67"/>
<text text-anchor="middle" x="205.5" y="-132" font-family="Arial" font-size="10.00" fill="#000000">supriya.synthdefs</text>
</g>
<g id="clust3" class="cluster">
<title>cluster_supriya.system</title>
<path fill="transparent" stroke="#bcd2ee" stroke-width="2" stroke-dasharray="5,2" d="M93,-73C93,-73 136,-73 136,-73 142,-73 148,-79 148,-85 148,-85 148,-126 148,-126 148,-132 142,-138 136,-138 136,-138 93,-138 93,-138 87,-138 81,-132 81,-126 81,-126 81,-85 81,-85 81,-79 87,-73 93,-73"/>
<text text-anchor="middle" x="114.5" y="-126" font-family="Arial" font-size="10.00" fill="#000000">supriya.system</text>
</g>
<g id="clust4" class="cluster">
<title>cluster_supriya.ugens</title>
<path fill="transparent" stroke="#bcd2ee" stroke-width="2" stroke-dasharray="5,2" d="M275,-8C275,-8 623.8234,-8 623.8234,-8 629.8234,-8 635.8234,-14 635.8234,-20 635.8234,-20 635.8234,-191 635.8234,-191 635.8234,-197 629.8234,-203 623.8234,-203 623.8234,-203 275,-203 275,-203 269,-203 263,-197 263,-191 263,-191 263,-20 263,-20 263,-14 269,-8 275,-8"/>
<text text-anchor="middle" x="449.4117" y="-191" font-family="Arial" font-size="10.00" fill="#000000">supriya.ugens</text>
</g>
<!-- builtins.object&#45;&gt;supriya.system.SupriyaObject.SupriyaObject -->
<g id="edge7" class="edge">
<title>builtins.object&#45;&gt;supriya.system.SupriyaObject.SupriyaObject</title>
<path fill="none" stroke="#778899" d="M53.3404,-96C62.0401,-96 72.6079,-96 82.4698,-96"/>
<polygon fill="#778899" stroke="#778899" points="82.7722,-99.5001 92.7722,-96 82.7721,-92.5001 82.7722,-99.5001"/>
</g>
<!-- supriya.synthdefs.UGenMethodMixin.UGenMethodMixin&#45;&gt;supriya.ugens.UGen.UGen -->
<g id="edge8" class="edge">
<title>supriya.synthdefs.UGenMethodMixin.UGenMethodMixin&#45;&gt;supriya.ugens.UGen.UGen</title>
<path fill="none" stroke="#778899" d="M226.2117,-96C236.3925,-96 248.8752,-96 260.4793,-96"/>
<polygon fill="#778899" stroke="#778899" points="260.7979,-99.5001 270.7978,-96 260.7978,-92.5001 260.7979,-99.5001"/>
</g>
<!-- supriya.system.SupriyaObject.SupriyaObject&#45;&gt;supriya.synthdefs.UGenMethodMixin.UGenMethodMixin -->
<g id="edge9" class="edge">
<title>supriya.system.SupriyaObject.SupriyaObject&#45;&gt;supriya.synthdefs.UGenMethodMixin.UGenMethodMixin</title>
<path fill="none" stroke="#778899" d="M135.106,-96C146.5093,-96 160.815,-96 173.5087,-96"/>
<polygon fill="#778899" stroke="#778899" points="173.6933,-99.5001 183.6933,-96 173.6932,-92.5001 173.6933,-99.5001"/>
</g>
<!-- supriya.ugens.PV_ChainUGen.PV_ChainUGen&#45;&gt;supriya.ugens.PV_MagAbove.PV_MagAbove -->
<g id="edge1" class="edge">
<title>supriya.ugens.PV_ChainUGen.PV_ChainUGen&#45;&gt;supriya.ugens.PV_MagAbove.PV_MagAbove</title>
<path fill="none" stroke="#778899" d="M480.8683,-96C488.6127,-96 497.8612,-96 506.5422,-96"/>
<polygon fill="#778899" stroke="#778899" points="506.7106,-99.5001 516.7105,-96 506.7105,-92.5001 506.7106,-99.5001"/>
</g>
<!-- supriya.ugens.PV_MagAbove.PV_MagAbove&#45;&gt;supriya.ugens.PV_LocalMax.PV_LocalMax -->
<g id="edge2" class="edge">
<title>supriya.ugens.PV_MagAbove.PV_MagAbove&#45;&gt;supriya.ugens.PV_LocalMax.PV_LocalMax</title>
<path fill="none" stroke="#778899" d="M555.1346,-80.4984C563.9509,-73.4215 574.5102,-64.9452 583.9563,-57.3627"/>
<polygon fill="#778899" stroke="#778899" points="586.2917,-59.9762 591.8991,-50.9868 581.9098,-54.5173 586.2917,-59.9762"/>
</g>
<!-- supriya.ugens.PV_MagAbove.PV_MagAbove&#45;&gt;supriya.ugens.PV_MagBelow.PV_MagBelow -->
<g id="edge3" class="edge">
<title>supriya.ugens.PV_MagAbove.PV_MagAbove&#45;&gt;supriya.ugens.PV_MagBelow.PV_MagBelow</title>
<path fill="none" stroke="#778899" d="M555.1346,-96C562.8503,-96 571.9011,-96 580.3724,-96"/>
<polygon fill="#778899" stroke="#778899" points="580.6485,-99.5001 590.6485,-96 580.6485,-92.5001 580.6485,-99.5001"/>
</g>
<!-- supriya.ugens.PV_MagAbove.PV_MagAbove&#45;&gt;supriya.ugens.PV_MagClip.PV_MagClip -->
<g id="edge4" class="edge">
<title>supriya.ugens.PV_MagAbove.PV_MagAbove&#45;&gt;supriya.ugens.PV_MagClip.PV_MagClip</title>
<path fill="none" stroke="#778899" d="M555.1346,-111.5016C564.4387,-118.9701 575.6841,-127.997 585.5136,-135.8874"/>
<polygon fill="#778899" stroke="#778899" points="583.3743,-138.6583 593.3636,-142.1888 587.7563,-133.1994 583.3743,-138.6583"/>
</g>
<!-- supriya.ugens.UGen.UGen&#45;&gt;supriya.ugens.WidthFirstUGen.WidthFirstUGen -->
<g id="edge5" class="edge">
<title>supriya.ugens.UGen.UGen&#45;&gt;supriya.ugens.WidthFirstUGen.WidthFirstUGen</title>
<path fill="none" stroke="#778899" d="M322.0621,-96C330.0361,-96 338.9805,-96 347.5203,-96"/>
<polygon fill="#778899" stroke="#778899" points="347.644,-99.5001 357.6439,-96 347.6439,-92.5001 347.644,-99.5001"/>
</g>
<!-- supriya.ugens.WidthFirstUGen.WidthFirstUGen&#45;&gt;supriya.ugens.PV_ChainUGen.PV_ChainUGen -->
<g id="edge6" class="edge">
<title>supriya.ugens.WidthFirstUGen.WidthFirstUGen&#45;&gt;supriya.ugens.PV_ChainUGen.PV_ChainUGen</title>
<path fill="none" stroke="#778899" d="M408.9452,-96C417.1111,-96 426.1945,-96 434.541,-96"/>
<polygon fill="#778899" stroke="#778899" points="434.5946,-99.5001 444.5946,-96 434.5946,-92.5001 434.5946,-99.5001"/>
</g>
<!-- builtins.object -->
<g id="node1" class="node">
<title>builtins.object</title>
<g id="a_node1"><a xlink:href="https://docs.python.org/3.6/library/functions.html#object" xlink:title="object" target="_top">
<path fill="#fbb4ae" stroke="#fbb4ae" stroke-width="2" d="M46.6667,-105.5C46.6667,-105.5 22.3333,-105.5 22.3333,-105.5 19.1667,-105.5 16,-102.3333 16,-99.1667 16,-99.1667 16,-92.8333 16,-92.8333 16,-89.6667 19.1667,-86.5 22.3333,-86.5 22.3333,-86.5 46.6667,-86.5 46.6667,-86.5 49.8333,-86.5 53,-89.6667 53,-92.8333 53,-92.8333 53,-99.1667 53,-99.1667 53,-102.3333 49.8333,-105.5 46.6667,-105.5"/>
<text text-anchor="middle" x="34.5" y="-93.5" font-family="Arial" font-size="10.00" fill="#000000">object</text>
</a>
</g>
</g>
<!-- supriya.synthdefs.UGenMethodMixin.UGenMethodMixin -->
<g id="node2" class="node">
<title>supriya.synthdefs.UGenMethodMixin.UGenMethodMixin</title>
<g id="a_node2"><a xlink:href="../api/supriya/ugens/../synthdefs/UGenMethodMixin.html#supriya.synthdefs.UGenMethodMixin.UGenMethodMixin" xlink:title="UGen\nMethod\nMixin" target="_top">
<path fill="#b3cde3" stroke="#b3cde3" stroke-width="2" d="M214,-116.5C214,-116.5 196,-116.5 196,-116.5 190,-116.5 184,-110.5 184,-104.5 184,-104.5 184,-87.5 184,-87.5 184,-81.5 190,-75.5 196,-75.5 196,-75.5 214,-75.5 214,-75.5 220,-75.5 226,-81.5 226,-87.5 226,-87.5 226,-104.5 226,-104.5 226,-110.5 220,-116.5 214,-116.5"/>
<text text-anchor="middle" x="205" y="-104.5" font-family="Arial" font-size="10.00" fill="#000000">UGen</text>
<text text-anchor="middle" x="205" y="-93.5" font-family="Arial" font-size="10.00" fill="#000000">Method</text>
<text text-anchor="middle" x="205" y="-82.5" font-family="Arial" font-size="10.00" fill="#000000">Mixin</text>
</a>
</g>
</g>
<!-- supriya.system.SupriyaObject.SupriyaObject -->
<g id="node3" class="node">
<title>supriya.system.SupriyaObject.SupriyaObject</title>
<g id="a_node3"><a xlink:href="../api/supriya/ugens/../system/SupriyaObject.html#supriya.system.SupriyaObject.SupriyaObject" xlink:title="Supriya\nObject" target="_top">
<path fill="#ccebc5" stroke="#ccebc5" stroke-width="2" d="M125,-111C125,-111 103,-111 103,-111 98,-111 93,-106 93,-101 93,-101 93,-91 93,-91 93,-86 98,-81 103,-81 103,-81 125,-81 125,-81 130,-81 135,-86 135,-91 135,-91 135,-101 135,-101 135,-106 130,-111 125,-111"/>
<text text-anchor="middle" x="114" y="-99" font-family="Arial" font-size="10.00" fill="#000000">Supriya</text>
<text text-anchor="middle" x="114" y="-88" font-family="Arial" font-size="10.00" fill="#000000">Object</text>
</a>
</g>
</g>
<!-- supriya.ugens.PV_ChainUGen.PV_ChainUGen -->
<g id="node4" class="node">
<title>supriya.ugens.PV_ChainUGen.PV_ChainUGen</title>
<g id="a_node4"><a xlink:href="../api/supriya/ugens/PV_ChainUGen.html#supriya.ugens.PV_ChainUGen.PV_ChainUGen" xlink:title="PV\nChain\nUGen" target="_top">
<path fill="#decbe4" stroke="#decbe4" stroke-width="2" d="M468.8234,-116.5C468.8234,-116.5 456.8234,-116.5 456.8234,-116.5 450.8234,-116.5 444.8234,-110.5 444.8234,-104.5 444.8234,-104.5 444.8234,-87.5 444.8234,-87.5 444.8234,-81.5 450.8234,-75.5 456.8234,-75.5 456.8234,-75.5 468.8234,-75.5 468.8234,-75.5 474.8234,-75.5 480.8234,-81.5 480.8234,-87.5 480.8234,-87.5 480.8234,-104.5 480.8234,-104.5 480.8234,-110.5 474.8234,-116.5 468.8234,-116.5"/>
<text text-anchor="middle" x="462.8234" y="-104.5" font-family="Arial" font-size="10.00" fill="#000000">PV</text>
<text text-anchor="middle" x="462.8234" y="-93.5" font-family="Arial" font-size="10.00" fill="#000000">Chain</text>
<text text-anchor="middle" x="462.8234" y="-82.5" font-family="Arial" font-size="10.00" fill="#000000">UGen</text>
</a>
</g>
</g>
<!-- supriya.ugens.PV_LocalMax.PV_LocalMax -->
<g id="node5" class="node">
<title>supriya.ugens.PV_LocalMax.PV_LocalMax</title>
<g id="a_node5"><a xlink:href="../api/supriya/ugens/PV_LocalMax.html#supriya.ugens.PV_LocalMax.PV_LocalMax" xlink:title="PV\nLocal\nMax" target="_top">
<path fill="#decbe4" stroke="#decbe4" stroke-width="2" d="M614.99,-57.5C614.99,-57.5 603.6567,-57.5 603.6567,-57.5 597.99,-57.5 592.3234,-51.8333 592.3234,-46.1667 592.3234,-46.1667 592.3234,-27.8333 592.3234,-27.8333 592.3234,-22.1667 597.99,-16.5 603.6567,-16.5 603.6567,-16.5 614.99,-16.5 614.99,-16.5 620.6567,-16.5 626.3234,-22.1667 626.3234,-27.8333 626.3234,-27.8333 626.3234,-46.1667 626.3234,-46.1667 626.3234,-51.8333 620.6567,-57.5 614.99,-57.5"/>
<text text-anchor="middle" x="609.3234" y="-45.5" font-family="Arial" font-size="10.00" fill="#000000">PV</text>
<text text-anchor="middle" x="609.3234" y="-34.5" font-family="Arial" font-size="10.00" fill="#000000">Local</text>
<text text-anchor="middle" x="609.3234" y="-23.5" font-family="Arial" font-size="10.00" fill="#000000">Max</text>
</a>
</g>
</g>
<!-- supriya.ugens.PV_MagAbove.PV_MagAbove -->
<g id="node6" class="node">
<title>supriya.ugens.PV_MagAbove.PV_MagAbove</title>
<g id="a_node6"><a xlink:href="../api/supriya/ugens/PV_MagAbove.html#supriya.ugens.PV_MagAbove.PV_MagAbove" xlink:title="PV\nMag\nAbove" target="_top">
<path fill="#000000" stroke="#000000" stroke-width="2" d="M542.8234,-116.5C542.8234,-116.5 528.8234,-116.5 528.8234,-116.5 522.8234,-116.5 516.8234,-110.5 516.8234,-104.5 516.8234,-104.5 516.8234,-87.5 516.8234,-87.5 516.8234,-81.5 522.8234,-75.5 528.8234,-75.5 528.8234,-75.5 542.8234,-75.5 542.8234,-75.5 548.8234,-75.5 554.8234,-81.5 554.8234,-87.5 554.8234,-87.5 554.8234,-104.5 554.8234,-104.5 554.8234,-110.5 548.8234,-116.5 542.8234,-116.5"/>
<text text-anchor="middle" x="535.8234" y="-104.5" font-family="Arial" font-size="10.00" fill="#ffffff">PV</text>
<text text-anchor="middle" x="535.8234" y="-93.5" font-family="Arial" font-size="10.00" fill="#ffffff">Mag</text>
<text text-anchor="middle" x="535.8234" y="-82.5" font-family="Arial" font-size="10.00" fill="#ffffff">Above</text>
</a>
</g>
</g>
<!-- supriya.ugens.PV_MagBelow.PV_MagBelow -->
<g id="node7" class="node">
<title>supriya.ugens.PV_MagBelow.PV_MagBelow</title>
<g id="a_node7"><a xlink:href="../api/supriya/ugens/PV_MagBelow.html#supriya.ugens.PV_MagBelow.PV_MagBelow" xlink:title="PV\nMag\nBelow" target="_top">
<path fill="#decbe4" stroke="#decbe4" stroke-width="2" d="M615.8234,-116.5C615.8234,-116.5 602.8234,-116.5 602.8234,-116.5 596.8234,-116.5 590.8234,-110.5 590.8234,-104.5 590.8234,-104.5 590.8234,-87.5 590.8234,-87.5 590.8234,-81.5 596.8234,-75.5 602.8234,-75.5 602.8234,-75.5 615.8234,-75.5 615.8234,-75.5 621.8234,-75.5 627.8234,-81.5 627.8234,-87.5 627.8234,-87.5 627.8234,-104.5 627.8234,-104.5 627.8234,-110.5 621.8234,-116.5 615.8234,-116.5"/>
<text text-anchor="middle" x="609.3234" y="-104.5" font-family="Arial" font-size="10.00" fill="#000000">PV</text>
<text text-anchor="middle" x="609.3234" y="-93.5" font-family="Arial" font-size="10.00" fill="#000000">Mag</text>
<text text-anchor="middle" x="609.3234" y="-82.5" font-family="Arial" font-size="10.00" fill="#000000">Below</text>
</a>
</g>
</g>
<!-- supriya.ugens.PV_MagClip.PV_MagClip -->
<g id="node8" class="node">
<title>supriya.ugens.PV_MagClip.PV_MagClip</title>
<g id="a_node8"><a xlink:href="../api/supriya/ugens/PV_MagClip.html#supriya.ugens.PV_MagClip.PV_MagClip" xlink:title="PV\nMag\nClip" target="_top">
<path fill="#decbe4" stroke="#decbe4" stroke-width="2" d="M614.49,-175.5C614.49,-175.5 604.1567,-175.5 604.1567,-175.5 598.99,-175.5 593.8234,-170.3333 593.8234,-165.1667 593.8234,-165.1667 593.8234,-144.8333 593.8234,-144.8333 593.8234,-139.6667 598.99,-134.5 604.1567,-134.5 604.1567,-134.5 614.49,-134.5 614.49,-134.5 619.6567,-134.5 624.8234,-139.6667 624.8234,-144.8333 624.8234,-144.8333 624.8234,-165.1667 624.8234,-165.1667 624.8234,-170.3333 619.6567,-175.5 614.49,-175.5"/>
<text text-anchor="middle" x="609.3234" y="-163.5" font-family="Arial" font-size="10.00" fill="#000000">PV</text>
<text text-anchor="middle" x="609.3234" y="-152.5" font-family="Arial" font-size="10.00" fill="#000000">Mag</text>
<text text-anchor="middle" x="609.3234" y="-141.5" font-family="Arial" font-size="10.00" fill="#000000">Clip</text>
</a>
</g>
</g>
<!-- supriya.ugens.UGen.UGen -->
<g id="node9" class="node">
<title>supriya.ugens.UGen.UGen</title>
<g id="a_node9"><a xlink:href="../api/supriya/ugens/UGen.html#supriya.ugens.UGen.UGen" xlink:title="UGen" target="_top">
<ellipse fill="none" stroke="#decbe4" stroke-width="2" cx="296.4558" cy="-96" rx="25.4118" ry="13.3704"/>
<text text-anchor="middle" x="296.4558" y="-93.5" font-family="Arial" font-size="10.00" fill="#000000">UGen</text>
</a>
</g>
</g>
<!-- supriya.ugens.WidthFirstUGen.WidthFirstUGen -->
<g id="node10" class="node">
<title>supriya.ugens.WidthFirstUGen.WidthFirstUGen</title>
<g id="a_node10"><a xlink:href="../api/supriya/ugens/WidthFirstUGen.html#supriya.ugens.WidthFirstUGen.WidthFirstUGen" xlink:title="Width\nFirst\nUGen" target="_top">
<ellipse fill="none" stroke="#decbe4" stroke-width="2" cx="383.3675" cy="-96" rx="25.4118" ry="28.9828"/>
<text text-anchor="middle" x="383.3675" y="-104.5" font-family="Arial" font-size="10.00" fill="#000000">Width</text>
<text text-anchor="middle" x="383.3675" y="-93.5" font-family="Arial" font-size="10.00" fill="#000000">First</text>
<text text-anchor="middle" x="383.3675" y="-82.5" font-family="Arial" font-size="10.00" fill="#000000">UGen</text>
</a>
</g>
</g>
</g>
</svg>
