<?xml version="1.0" encoding="UTF-8" standalone="no"?>
<!DOCTYPE svg PUBLIC "-//W3C//DTD SVG 1.1//EN"
 "http://www.w3.org/Graphics/SVG/1.1/DTD/svg11.dtd">
<!-- Generated by graphviz version 2.40.1 (20161225.0304)
 -->
<!-- Title: InheritanceGraph Pages: 1 -->
<svg width="419pt" height="202pt"
 viewBox="0.00 0.00 419.24 202.00" xmlns="http://www.w3.org/2000/svg" xmlns:xlink="http://www.w3.org/1999/xlink">
<g id="graph0" class="graph" transform="scale(1 1) rotate(0) translate(4 198)">
<title>InheritanceGraph</title>
<g id="clust1" class="cluster">
<title>cluster_builtins</title>
<path fill="transparent" stroke="#bcd2ee" stroke-width="2" stroke-dasharray="5,2" d="M20,-65C20,-65 49,-65 49,-65 55,-65 61,-71 61,-77 61,-77 61,-108 61,-108 61,-114 55,-120 49,-120 49,-120 20,-120 20,-120 14,-120 8,-114 8,-108 8,-108 8,-77 8,-77 8,-71 14,-65 20,-65"/>
<text text-anchor="middle" x="34.5" y="-108" font-family="Arial" font-size="10.00" fill="#000000">builtins</text>
</g>
<g id="clust2" class="cluster">
<title>cluster_supriya.realtime</title>
<path fill="transparent" stroke="#bcd2ee" stroke-width="2" stroke-dasharray="5,2" d="M180,-93C180,-93 391.2376,-93 391.2376,-93 397.2376,-93 403.2376,-99 403.2376,-105 403.2376,-105 403.2376,-174 403.2376,-174 403.2376,-180 397.2376,-186 391.2376,-186 391.2376,-186 180,-186 180,-186 174,-186 168,-180 168,-174 168,-174 168,-105 168,-105 168,-99 174,-93 180,-93"/>
<text text-anchor="middle" x="285.6188" y="-174" font-family="Arial" font-size="10.00" fill="#000000">supriya.realtime</text>
</g>
<g id="clust3" class="cluster">
<title>cluster_supriya.system</title>
<path fill="transparent" stroke="#bcd2ee" stroke-width="2" stroke-dasharray="5,2" d="M93,-94C93,-94 136,-94 136,-94 142,-94 148,-100 148,-106 148,-106 148,-147 148,-147 148,-153 142,-159 136,-159 136,-159 93,-159 93,-159 87,-159 81,-153 81,-147 81,-147 81,-106 81,-106 81,-100 87,-94 93,-94"/>
<text text-anchor="middle" x="114.5" y="-147" font-family="Arial" font-size="10.00" fill="#000000">supriya.system</text>
</g>
<g id="clust4" class="cluster">
<title>cluster_uqbar.containers</title>
<path fill="transparent" stroke="#bcd2ee" stroke-width="2" stroke-dasharray="5,2" d="M179.5772,-8C179.5772,-8 227.5772,-8 227.5772,-8 233.5772,-8 239.5772,-14 239.5772,-20 239.5772,-20 239.5772,-73 239.5772,-73 239.5772,-79 233.5772,-85 227.5772,-85 227.5772,-85 179.5772,-85 179.5772,-85 173.5772,-85 167.5772,-79 167.5772,-73 167.5772,-73 167.5772,-20 167.5772,-20 167.5772,-14 173.5772,-8 179.5772,-8"/>
<text text-anchor="middle" x="203.5772" y="-73" font-family="Arial" font-size="10.00" fill="#000000">uqbar.containers</text>
</g>
<!-- builtins.object&#45;&gt;supriya.system.SupriyaObject.SupriyaObject -->
<g id="edge3" class="edge">
<title>builtins.object&#45;&gt;supriya.system.SupriyaObject.SupriyaObject</title>
<path fill="none" stroke="#778899" d="M53.3404,-91.0575C62.3178,-94.8969 73.2843,-99.587 83.4118,-103.9182"/>
<polygon fill="#778899" stroke="#778899" points="82.2014,-107.2072 92.7722,-107.9214 84.954,-100.7711 82.2014,-107.2072"/>
</g>
<!-- builtins.object&#45;&gt;uqbar.containers.UniqueTreeNode.UniqueTreeNode -->
<g id="edge4" class="edge">
<title>builtins.object&#45;&gt;uqbar.containers.UniqueTreeNode.UniqueTreeNode</title>
<path fill="none" stroke="#778899" d="M53.2402,-77.9014C82.3039,-69.9942 138.5208,-54.6996 173.3684,-45.2188"/>
<polygon fill="#778899" stroke="#778899" points="174.713,-48.4802 183.4434,-42.4777 172.8752,-41.7258 174.713,-48.4802"/>
</g>
<!-- supriya.realtime.Node.Node&#45;&gt;supriya.realtime.Synth.Synth -->
<g id="edge1" class="edge">
<title>supriya.realtime.Node.Node&#45;&gt;supriya.realtime.Synth.Synth</title>
<path fill="none" stroke="#778899" d="M323.461,-122C331.5151,-122 340.5527,-122 348.8869,-122"/>
<polygon fill="#778899" stroke="#778899" points="348.9403,-125.5001 358.9403,-122 348.9403,-118.5001 348.9403,-125.5001"/>
</g>
<!-- supriya.realtime.ServerObjectProxy.ServerObjectProxy&#45;&gt;supriya.realtime.Node.Node -->
<g id="edge2" class="edge">
<title>supriya.realtime.ServerObjectProxy.ServerObjectProxy&#45;&gt;supriya.realtime.Node.Node</title>
<path fill="none" stroke="#778899" d="M231.2341,-127.6861C241.7672,-126.8048 253.8976,-125.7899 264.9685,-124.8637"/>
<polygon fill="#778899" stroke="#778899" points="265.4981,-128.3317 275.1714,-124.01 264.9144,-121.356 265.4981,-128.3317"/>
</g>
<!-- supriya.system.SupriyaObject.SupriyaObject&#45;&gt;supriya.realtime.ServerObjectProxy.ServerObjectProxy -->
<g id="edge5" class="edge">
<title>supriya.system.SupriyaObject.SupriyaObject&#45;&gt;supriya.realtime.ServerObjectProxy.ServerObjectProxy</title>
<path fill="none" stroke="#778899" d="M135.2285,-120.0808C144.3859,-121.4098 155.3802,-123.0054 165.847,-124.5244"/>
<polygon fill="#778899" stroke="#778899" points="165.6513,-128.0325 176.0503,-126.0051 166.6567,-121.1051 165.6513,-128.0325"/>
</g>
<!-- uqbar.containers.UniqueTreeNode.UniqueTreeNode&#45;&gt;supriya.realtime.Node.Node -->
<g id="edge6" class="edge">
<title>uqbar.containers.UniqueTreeNode.UniqueTreeNode&#45;&gt;supriya.realtime.Node.Node</title>
<path fill="none" stroke="#778899" d="M223.8555,-55.0263C239.9144,-69.3019 262.2599,-89.1658 278.4414,-103.5503"/>
<polygon fill="#778899" stroke="#778899" points="276.4763,-106.4864 286.2755,-110.5144 281.127,-101.2547 276.4763,-106.4864"/>
</g>
<!-- builtins.object -->
<g id="node1" class="node">
<title>builtins.object</title>
<g id="a_node1"><a xlink:href="https://docs.python.org/3.6/library/functions.html#object" xlink:title="object" target="_top">
<path fill="#fbb4ae" stroke="#fbb4ae" stroke-width="2" d="M46.6667,-92.5C46.6667,-92.5 22.3333,-92.5 22.3333,-92.5 19.1667,-92.5 16,-89.3333 16,-86.1667 16,-86.1667 16,-79.8333 16,-79.8333 16,-76.6667 19.1667,-73.5 22.3333,-73.5 22.3333,-73.5 46.6667,-73.5 46.6667,-73.5 49.8333,-73.5 53,-76.6667 53,-79.8333 53,-79.8333 53,-86.1667 53,-86.1667 53,-89.3333 49.8333,-92.5 46.6667,-92.5"/>
<text text-anchor="middle" x="34.5" y="-80.5" font-family="Arial" font-size="10.00" fill="#000000">object</text>
</a>
</g>
</g>
<!-- supriya.realtime.Node.Node -->
<g id="node2" class="node">
<title>supriya.realtime.Node.Node</title>
<g id="a_node2"><a xlink:href="../api/supriya/realtime/Node.html#supriya.realtime.Node.Node" xlink:title="Node" target="_top">
<ellipse fill="none" stroke="#b3cde3" stroke-width="2" cx="299.196" cy="-122" rx="24.0833" ry="13.3704"/>
<text text-anchor="middle" x="299.196" y="-119.5" font-family="Arial" font-size="10.00" fill="#000000">Node</text>
</a>
</g>
</g>
<!-- supriya.realtime.ServerObjectProxy.ServerObjectProxy -->
<g id="node3" class="node">
<title>supriya.realtime.ServerObjectProxy.ServerObjectProxy</title>
<g id="a_node3"><a xlink:href="../api/supriya/realtime/ServerObjectProxy.html#supriya.realtime.ServerObjectProxy.ServerObjectProxy" xlink:title="Server\nObject\nProxy" target="_top">
<ellipse fill="none" stroke="#b3cde3" stroke-width="2" cx="203.5772" cy="-130" rx="27.6545" ry="28.9828"/>
<text text-anchor="middle" x="203.5772" y="-138.5" font-family="Arial" font-size="10.00" fill="#000000">Server</text>
<text text-anchor="middle" x="203.5772" y="-127.5" font-family="Arial" font-size="10.00" fill="#000000">Object</text>
<text text-anchor="middle" x="203.5772" y="-116.5" font-family="Arial" font-size="10.00" fill="#000000">Proxy</text>
</a>
</g>
</g>
<!-- supriya.realtime.Synth.Synth -->
<g id="node4" class="node">
<title>supriya.realtime.Synth.Synth</title>
<g id="a_node4"><a xlink:href="../api/supriya/realtime/Synth.html#supriya.realtime.Synth.Synth" xlink:title="Synth" target="_top">
<path fill="#000000" stroke="#000000" stroke-width="2" d="M388.9043,-131.5C388.9043,-131.5 365.5709,-131.5 365.5709,-131.5 362.4043,-131.5 359.2376,-128.3333 359.2376,-125.1667 359.2376,-125.1667 359.2376,-118.8333 359.2376,-118.8333 359.2376,-115.6667 362.4043,-112.5 365.5709,-112.5 365.5709,-112.5 388.9043,-112.5 388.9043,-112.5 392.0709,-112.5 395.2376,-115.6667 395.2376,-118.8333 395.2376,-118.8333 395.2376,-125.1667 395.2376,-125.1667 395.2376,-128.3333 392.0709,-131.5 388.9043,-131.5"/>
<text text-anchor="middle" x="377.2376" y="-119.5" font-family="Arial" font-size="10.00" fill="#ffffff">Synth</text>
</a>
</g>
</g>
<!-- supriya.system.SupriyaObject.SupriyaObject -->
<g id="node5" class="node">
<title>supriya.system.SupriyaObject.SupriyaObject</title>
<g id="a_node5"><a xlink:href="../api/supriya/realtime/../system/SupriyaObject.html#supriya.system.SupriyaObject.SupriyaObject" xlink:title="Supriya\nObject" target="_top">
<path fill="#ccebc5" stroke="#ccebc5" stroke-width="2" d="M125,-132C125,-132 103,-132 103,-132 98,-132 93,-127 93,-122 93,-122 93,-112 93,-112 93,-107 98,-102 103,-102 103,-102 125,-102 125,-102 130,-102 135,-107 135,-112 135,-112 135,-122 135,-122 135,-127 130,-132 125,-132"/>
<text text-anchor="middle" x="114" y="-120" font-family="Arial" font-size="10.00" fill="#000000">Supriya</text>
<text text-anchor="middle" x="114" y="-109" font-family="Arial" font-size="10.00" fill="#000000">Object</text>
</a>
</g>
</g>
<!-- uqbar.containers.UniqueTreeNode.UniqueTreeNode -->
<g id="node6" class="node">
<title>uqbar.containers.UniqueTreeNode.UniqueTreeNode</title>
<path fill="#decbe4" stroke="#decbe4" stroke-width="2" d="M211.5772,-57.5C211.5772,-57.5 195.5772,-57.5 195.5772,-57.5 189.5772,-57.5 183.5772,-51.5 183.5772,-45.5 183.5772,-45.5 183.5772,-28.5 183.5772,-28.5 183.5772,-22.5 189.5772,-16.5 195.5772,-16.5 195.5772,-16.5 211.5772,-16.5 211.5772,-16.5 217.5772,-16.5 223.5772,-22.5 223.5772,-28.5 223.5772,-28.5 223.5772,-45.5 223.5772,-45.5 223.5772,-51.5 217.5772,-57.5 211.5772,-57.5"/>
<text text-anchor="middle" x="203.5772" y="-45.5" font-family="Arial" font-size="10.00" fill="#000000">Unique</text>
<text text-anchor="middle" x="203.5772" y="-34.5" font-family="Arial" font-size="10.00" fill="#000000">Tree</text>
<text text-anchor="middle" x="203.5772" y="-23.5" font-family="Arial" font-size="10.00" fill="#000000">Node</text>
</g>
</g>
</svg>
