<?xml version="1.0" encoding="UTF-8" standalone="no"?>
<!DOCTYPE svg PUBLIC "-//W3C//DTD SVG 1.1//EN"
 "http://www.w3.org/Graphics/SVG/1.1/DTD/svg11.dtd">
<!-- Generated by graphviz version 2.40.1 (20161225.0304)
 -->
<!-- Title: InheritanceGraph Pages: 1 -->
<svg width="342pt" height="117pt"
 viewBox="0.00 0.00 342.15 117.00" xmlns="http://www.w3.org/2000/svg" xmlns:xlink="http://www.w3.org/1999/xlink">
<g id="graph0" class="graph" transform="scale(1 1) rotate(0) translate(4 113)">
<title>InheritanceGraph</title>
<g id="clust1" class="cluster">
<title>cluster_builtins</title>
<path fill="transparent" stroke="#bcd2ee" stroke-width="2" stroke-dasharray="5,2" d="M20,-27C20,-27 49,-27 49,-27 55,-27 61,-33 61,-39 61,-39 61,-70 61,-70 61,-76 55,-82 49,-82 49,-82 20,-82 20,-82 14,-82 8,-76 8,-70 8,-70 8,-39 8,-39 8,-33 14,-27 20,-27"/>
<text text-anchor="middle" x="34.5" y="-70" font-family="Arial" font-size="10.00" fill="#000000">builtins</text>
</g>
<g id="clust2" class="cluster">
<title>cluster_supriya.realtime</title>
<path fill="transparent" stroke="#bcd2ee" stroke-width="2" stroke-dasharray="5,2" d="M180,-8C180,-8 227.1543,-8 227.1543,-8 233.1543,-8 239.1543,-14 239.1543,-20 239.1543,-20 239.1543,-89 239.1543,-89 239.1543,-95 233.1543,-101 227.1543,-101 227.1543,-101 180,-101 180,-101 174,-101 168,-95 168,-89 168,-89 168,-20 168,-20 168,-14 174,-8 180,-8"/>
<text text-anchor="middle" x="203.5772" y="-89" font-family="Arial" font-size="10.00" fill="#000000">supriya.realtime</text>
</g>
<g id="clust3" class="cluster">
<title>cluster_supriya.synthdefs</title>
<path fill="transparent" stroke="#bcd2ee" stroke-width="2" stroke-dasharray="5,2" d="M271.1543,-22C271.1543,-22 322.1543,-22 322.1543,-22 328.1543,-22 334.1543,-28 334.1543,-34 334.1543,-34 334.1543,-75 334.1543,-75 334.1543,-81 328.1543,-87 322.1543,-87 322.1543,-87 271.1543,-87 271.1543,-87 265.1543,-87 259.1543,-81 259.1543,-75 259.1543,-75 259.1543,-34 259.1543,-34 259.1543,-28 265.1543,-22 271.1543,-22"/>
<text text-anchor="middle" x="296.6543" y="-75" font-family="Arial" font-size="10.00" fill="#000000">supriya.synthdefs</text>
</g>
<g id="clust4" class="cluster">
<title>cluster_supriya.system</title>
<path fill="transparent" stroke="#bcd2ee" stroke-width="2" stroke-dasharray="5,2" d="M93,-22C93,-22 136,-22 136,-22 142,-22 148,-28 148,-34 148,-34 148,-75 148,-75 148,-81 142,-87 136,-87 136,-87 93,-87 93,-87 87,-87 81,-81 81,-75 81,-75 81,-34 81,-34 81,-28 87,-22 93,-22"/>
<text text-anchor="middle" x="114.5" y="-75" font-family="Arial" font-size="10.00" fill="#000000">supriya.system</text>
</g>
<!-- builtins.object&#45;&gt;supriya.system.SupriyaObject.SupriyaObject -->
<g id="edge1" class="edge">
<title>builtins.object&#45;&gt;supriya.system.SupriyaObject.SupriyaObject</title>
<path fill="none" stroke="#778899" d="M53.3404,-45C62.0401,-45 72.6079,-45 82.4698,-45"/>
<polygon fill="#778899" stroke="#778899" points="82.7722,-48.5001 92.7722,-45 82.7721,-41.5001 82.7722,-48.5001"/>
</g>
<!-- supriya.realtime.ServerObjectProxy.ServerObjectProxy&#45;&gt;supriya.synthdefs.SynthDef.SynthDef -->
<g id="edge2" class="edge">
<title>supriya.realtime.ServerObjectProxy.ServerObjectProxy&#45;&gt;supriya.synthdefs.SynthDef.SynthDef</title>
<path fill="none" stroke="#778899" d="M231.3534,-45C242.9341,-45 256.3658,-45 267.9876,-45"/>
<polygon fill="#778899" stroke="#778899" points="268.0469,-48.5001 278.0469,-45 268.0468,-41.5001 268.0469,-48.5001"/>
</g>
<!-- supriya.system.SupriyaObject.SupriyaObject&#45;&gt;supriya.realtime.ServerObjectProxy.ServerObjectProxy -->
<g id="edge3" class="edge">
<title>supriya.system.SupriyaObject.SupriyaObject&#45;&gt;supriya.realtime.ServerObjectProxy.ServerObjectProxy</title>
<path fill="none" stroke="#778899" d="M135.2285,-45C144.3083,-45 155.194,-45 165.5808,-45"/>
<polygon fill="#778899" stroke="#778899" points="165.7159,-48.5001 175.7158,-45 165.7158,-41.5001 165.7159,-48.5001"/>
</g>
<!-- builtins.object -->
<g id="node1" class="node">
<title>builtins.object</title>
<g id="a_node1"><a xlink:href="https://docs.python.org/3.6/library/functions.html#object" xlink:title="object" target="_top">
<path fill="#fbb4ae" stroke="#fbb4ae" stroke-width="2" d="M46.6667,-54.5C46.6667,-54.5 22.3333,-54.5 22.3333,-54.5 19.1667,-54.5 16,-51.3333 16,-48.1667 16,-48.1667 16,-41.8333 16,-41.8333 16,-38.6667 19.1667,-35.5 22.3333,-35.5 22.3333,-35.5 46.6667,-35.5 46.6667,-35.5 49.8333,-35.5 53,-38.6667 53,-41.8333 53,-41.8333 53,-48.1667 53,-48.1667 53,-51.3333 49.8333,-54.5 46.6667,-54.5"/>
<text text-anchor="middle" x="34.5" y="-42.5" font-family="Arial" font-size="10.00" fill="#000000">object</text>
</a>
</g>
</g>
<!-- supriya.realtime.ServerObjectProxy.ServerObjectProxy -->
<g id="node2" class="node">
<title>supriya.realtime.ServerObjectProxy.ServerObjectProxy</title>
<g id="a_node2"><a xlink:href="../api/supriya/synthdefs/../realtime/ServerObjectProxy.html#supriya.realtime.ServerObjectProxy.ServerObjectProxy" xlink:title="Server\nObject\nProxy" target="_top">
<ellipse fill="none" stroke="#b3cde3" stroke-width="2" cx="203.5772" cy="-45" rx="27.6545" ry="28.9828"/>
<text text-anchor="middle" x="203.5772" y="-53.5" font-family="Arial" font-size="10.00" fill="#000000">Server</text>
<text text-anchor="middle" x="203.5772" y="-42.5" font-family="Arial" font-size="10.00" fill="#000000">Object</text>
<text text-anchor="middle" x="203.5772" y="-31.5" font-family="Arial" font-size="10.00" fill="#000000">Proxy</text>
</a>
</g>
</g>
<!-- supriya.synthdefs.SynthDef.SynthDef -->
<g id="node3" class="node">
<title>supriya.synthdefs.SynthDef.SynthDef</title>
<g id="a_node3"><a xlink:href="../api/supriya/synthdefs/SynthDef.html#supriya.synthdefs.SynthDef.SynthDef" xlink:title="Synth\nDef" target="_top">
<path fill="#000000" stroke="#000000" stroke-width="2" d="M304.1543,-60C304.1543,-60 288.1543,-60 288.1543,-60 283.1543,-60 278.1543,-55 278.1543,-50 278.1543,-50 278.1543,-40 278.1543,-40 278.1543,-35 283.1543,-30 288.1543,-30 288.1543,-30 304.1543,-30 304.1543,-30 309.1543,-30 314.1543,-35 314.1543,-40 314.1543,-40 314.1543,-50 314.1543,-50 314.1543,-55 309.1543,-60 304.1543,-60"/>
<text text-anchor="middle" x="296.1543" y="-48" font-family="Arial" font-size="10.00" fill="#ffffff">Synth</text>
<text text-anchor="middle" x="296.1543" y="-37" font-family="Arial" font-size="10.00" fill="#ffffff">Def</text>
</a>
</g>
</g>
<!-- supriya.system.SupriyaObject.SupriyaObject -->
<g id="node4" class="node">
<title>supriya.system.SupriyaObject.SupriyaObject</title>
<g id="a_node4"><a xlink:href="../api/supriya/synthdefs/../system/SupriyaObject.html#supriya.system.SupriyaObject.SupriyaObject" xlink:title="Supriya\nObject" target="_top">
<path fill="#decbe4" stroke="#decbe4" stroke-width="2" d="M125,-60C125,-60 103,-60 103,-60 98,-60 93,-55 93,-50 93,-50 93,-40 93,-40 93,-35 98,-30 103,-30 103,-30 125,-30 125,-30 130,-30 135,-35 135,-40 135,-40 135,-50 135,-50 135,-55 130,-60 125,-60"/>
<text text-anchor="middle" x="114" y="-48" font-family="Arial" font-size="10.00" fill="#000000">Supriya</text>
<text text-anchor="middle" x="114" y="-37" font-family="Arial" font-size="10.00" fill="#000000">Object</text>
</a>
</g>
</g>
</g>
</svg>
