<?xml version="1.0" encoding="UTF-8" standalone="no"?>
<!DOCTYPE svg PUBLIC "-//W3C//DTD SVG 1.1//EN"
 "http://www.w3.org/Graphics/SVG/1.1/DTD/svg11.dtd">
<!-- Generated by graphviz version 2.44.1 (20200629.0846)
 -->
<!-- Title: InheritanceGraph Pages: 1 -->
<svg width="484pt" height="703pt"
 viewBox="0.00 0.00 484.00 703.00" xmlns="http://www.w3.org/2000/svg" xmlns:xlink="http://www.w3.org/1999/xlink">
<g id="graph0" class="graph" transform="scale(1 1) rotate(0) translate(4 699)">
<title>InheritanceGraph</title>
<g id="clust1" class="cluster">
<title>cluster_builtins</title>
<path fill="transparent" stroke="#bcd2ee" stroke-width="2" stroke-dasharray="5,2" d="M20,-380C20,-380 125.5,-380 125.5,-380 131.5,-380 137.5,-386 137.5,-392 137.5,-392 137.5,-423 137.5,-423 137.5,-429 131.5,-435 125.5,-435 125.5,-435 20,-435 20,-435 14,-435 8,-429 8,-423 8,-423 8,-392 8,-392 8,-386 14,-380 20,-380"/>
<text text-anchor="middle" x="72.75" y="-423" font-family="Arial" font-size="10.00">builtins</text>
</g>
<g id="clust2" class="cluster">
<title>cluster_enum</title>
<path fill="transparent" stroke="#bcd2ee" stroke-width="2" stroke-dasharray="5,2" d="M99,-307C99,-307 211,-307 211,-307 217,-307 223,-313 223,-319 223,-319 223,-360 223,-360 223,-366 217,-372 211,-372 211,-372 99,-372 99,-372 93,-372 87,-366 87,-360 87,-360 87,-319 87,-319 87,-313 93,-307 99,-307"/>
<text text-anchor="middle" x="155" y="-360" font-family="Arial" font-size="10.00">enum</text>
</g>
<g id="clust3" class="cluster">
<title>cluster_supriya.enums</title>
<path fill="transparent" stroke="#bcd2ee" stroke-width="2" stroke-dasharray="5,2" d="M399,-8C399,-8 456,-8 456,-8 462,-8 468,-14 468,-20 468,-20 468,-675 468,-675 468,-681 462,-687 456,-687 456,-687 399,-687 399,-687 393,-687 387,-681 387,-675 387,-675 387,-20 387,-20 387,-14 393,-8 399,-8"/>
<text text-anchor="middle" x="427.5" y="-675" font-family="Arial" font-size="10.00">supriya.enums</text>
</g>
<g id="clust4" class="cluster">
<title>cluster_uqbar.enums</title>
<path fill="transparent" stroke="#bcd2ee" stroke-width="2" stroke-dasharray="5,2" d="M255,-261C255,-261 318,-261 318,-261 324,-261 330,-267 330,-273 330,-273 330,-362 330,-362 330,-368 324,-374 318,-374 318,-374 255,-374 255,-374 249,-374 243,-368 243,-362 243,-362 243,-273 243,-273 243,-267 249,-261 255,-261"/>
<text text-anchor="middle" x="286.5" y="-362" font-family="Arial" font-size="10.00">uqbar.enums</text>
</g>
<!-- builtins.int&#45;&gt;enum.IntEnum -->
<g id="edge3" class="edge">
<title>builtins.int&#45;&gt;enum.IntEnum</title>
<path fill="none" stroke="lightslategrey" d="M127.89,-388.26C138.39,-378.86 154.65,-364.31 168.29,-352.11"/>
<polygon fill="lightslategrey" stroke="lightslategrey" points="170.84,-354.52 175.96,-345.25 166.17,-349.31 170.84,-354.52"/>
</g>
<!-- builtins.object&#45;&gt;builtins.int -->
<g id="edge1" class="edge">
<title>builtins.object&#45;&gt;builtins.int</title>
<path fill="none" stroke="lightslategrey" d="M59,-398C69.25,-398 81.68,-398 92.23,-398"/>
<polygon fill="lightslategrey" stroke="lightslategrey" points="92.36,-401.5 102.36,-398 92.36,-394.5 92.36,-401.5"/>
</g>
<!-- builtins.object&#45;&gt;enum.Enum -->
<g id="edge4" class="edge">
<title>builtins.object&#45;&gt;enum.Enum</title>
<path fill="none" stroke="lightslategrey" d="M49.46,-388.26C61.73,-377.35 81.82,-359.49 96.53,-346.42"/>
<polygon fill="lightslategrey" stroke="lightslategrey" points="98.91,-348.98 104.06,-339.72 94.26,-343.75 98.91,-348.98"/>
</g>
<!-- enum.Enum&#45;&gt;enum.IntEnum -->
<g id="edge2" class="edge">
<title>enum.Enum&#45;&gt;enum.IntEnum</title>
<path fill="none" stroke="lightslategrey" d="M137.37,-330C145.18,-330 154.27,-330 162.82,-330"/>
<polygon fill="lightslategrey" stroke="lightslategrey" points="162.84,-333.5 172.84,-330 162.84,-326.5 162.84,-333.5"/>
</g>
<!-- enum.Enum&#45;&gt;uqbar.enums.StrictEnumeration -->
<g id="edge5" class="edge">
<title>enum.Enum&#45;&gt;uqbar.enums.StrictEnumeration</title>
<path fill="none" stroke="lightslategrey" d="M136.57,-320.4C147.15,-315.52 160.57,-309.83 173,-306 194.98,-299.22 220.05,-294.08 240.93,-290.48"/>
<polygon fill="lightslategrey" stroke="lightslategrey" points="241.53,-293.93 250.82,-288.83 240.38,-287.02 241.53,-293.93"/>
</g>
<!-- enum.IntEnum&#45;&gt;uqbar.enums.IntEnumeration -->
<g id="edge6" class="edge">
<title>enum.IntEnum&#45;&gt;uqbar.enums.IntEnumeration</title>
<path fill="none" stroke="lightslategrey" d="M215.08,-330.44C222.73,-330.61 231.77,-330.81 240.79,-331.01"/>
<polygon fill="lightslategrey" stroke="lightslategrey" points="240.81,-334.51 250.89,-331.24 240.97,-327.51 240.81,-334.51"/>
</g>
<!-- uqbar.enums.IntEnumeration&#45;&gt;supriya.enums.AddAction -->
<g id="edge7" class="edge">
<title>uqbar.enums.IntEnumeration&#45;&gt;supriya.enums.AddAction</title>
<path fill="none" stroke="lightslategrey" d="M288.91,-347.03C293.94,-393.15 314.8,-534.73 387,-621 389.78,-624.32 393.15,-627.31 396.73,-629.96"/>
<polygon fill="lightslategrey" stroke="lightslategrey" points="395,-633.01 405.29,-635.52 398.81,-627.14 395,-633.01"/>
</g>
<!-- uqbar.enums.IntEnumeration&#45;&gt;supriya.enums.BinaryOperator -->
<g id="edge8" class="edge">
<title>uqbar.enums.IntEnumeration&#45;&gt;supriya.enums.BinaryOperator</title>
<path fill="none" stroke="lightslategrey" d="M290.34,-347.29C298.6,-388.2 326.01,-501.87 387,-573 388.53,-574.78 390.22,-576.47 392.02,-578.06"/>
<polygon fill="lightslategrey" stroke="lightslategrey" points="390.36,-581.19 400.44,-584.42 394.58,-575.6 390.36,-581.19"/>
</g>
<!-- uqbar.enums.IntEnumeration&#45;&gt;supriya.enums.CalculationRate -->
<g id="edge9" class="edge">
<title>uqbar.enums.IntEnumeration&#45;&gt;supriya.enums.CalculationRate</title>
<path fill="none" stroke="lightslategrey" d="M292.15,-347.22C303.46,-382.21 335.33,-469.58 387,-525 387.77,-525.82 388.57,-526.63 389.4,-527.41"/>
<polygon fill="lightslategrey" stroke="lightslategrey" points="387.49,-530.37 397.45,-533.96 391.9,-524.94 387.49,-530.37"/>
</g>
<!-- uqbar.enums.IntEnumeration&#45;&gt;supriya.enums.DoneAction -->
<g id="edge10" class="edge">
<title>uqbar.enums.IntEnumeration&#45;&gt;supriya.enums.DoneAction</title>
<path fill="none" stroke="lightslategrey" d="M295.06,-347.1C309.74,-375.29 344.42,-436.71 387,-477 389.93,-479.77 393.24,-482.39 396.66,-484.79"/>
<polygon fill="lightslategrey" stroke="lightslategrey" points="394.94,-487.85 405.24,-490.32 398.73,-481.96 394.94,-487.85"/>
</g>
<!-- uqbar.enums.IntEnumeration&#45;&gt;supriya.enums.EnvelopeShape -->
<g id="edge11" class="edge">
<title>uqbar.enums.IntEnumeration&#45;&gt;supriya.enums.EnvelopeShape</title>
<path fill="none" stroke="lightslategrey" d="M301.06,-347.22C319.39,-367.31 353.63,-403.14 387,-429 388.35,-430.05 389.75,-431.09 391.18,-432.11"/>
<polygon fill="lightslategrey" stroke="lightslategrey" points="389.36,-435.1 399.6,-437.79 393.27,-429.3 389.36,-435.1"/>
</g>
<!-- uqbar.enums.IntEnumeration&#45;&gt;supriya.enums.HeaderFormat -->
<g id="edge12" class="edge">
<title>uqbar.enums.IntEnumeration&#45;&gt;supriya.enums.HeaderFormat</title>
<path fill="none" stroke="lightslategrey" d="M316.3,-347.13C339.05,-359.07 370.77,-375.73 394.34,-388.11"/>
<polygon fill="lightslategrey" stroke="lightslategrey" points="392.78,-391.24 403.26,-392.79 396.03,-385.05 392.78,-391.24"/>
</g>
<!-- uqbar.enums.IntEnumeration&#45;&gt;supriya.enums.NodeAction -->
<g id="edge13" class="edge">
<title>uqbar.enums.IntEnumeration&#45;&gt;supriya.enums.NodeAction</title>
<path fill="none" stroke="lightslategrey" d="M322.22,-338.24C344.61,-342.27 373.49,-347.46 395.17,-351.37"/>
<polygon fill="lightslategrey" stroke="lightslategrey" points="394.72,-354.84 405.18,-353.17 395.96,-347.95 394.72,-354.84"/>
</g>
<!-- uqbar.enums.IntEnumeration&#45;&gt;supriya.enums.ParameterRate -->
<g id="edge14" class="edge">
<title>uqbar.enums.IntEnumeration&#45;&gt;supriya.enums.ParameterRate</title>
<path fill="none" stroke="lightslategrey" d="M322.22,-326.26C341.75,-323.02 366.23,-318.97 386.56,-315.61"/>
<polygon fill="lightslategrey" stroke="lightslategrey" points="387.17,-319.06 396.46,-313.97 386.03,-312.15 387.17,-319.06"/>
</g>
<!-- uqbar.enums.IntEnumeration&#45;&gt;supriya.enums.RequestId -->
<g id="edge15" class="edge">
<title>uqbar.enums.IntEnumeration&#45;&gt;supriya.enums.RequestId</title>
<path fill="none" stroke="lightslategrey" d="M316.98,-316.94C338.83,-305.78 368.69,-290.53 391.71,-278.77"/>
<polygon fill="lightslategrey" stroke="lightslategrey" points="393.49,-281.79 400.8,-274.13 390.31,-275.56 393.49,-281.79"/>
</g>
<!-- uqbar.enums.IntEnumeration&#45;&gt;supriya.enums.SampleFormat -->
<g id="edge16" class="edge">
<title>uqbar.enums.IntEnumeration&#45;&gt;supriya.enums.SampleFormat</title>
<path fill="none" stroke="lightslategrey" d="M317.72,-316.85C322.02,-314.15 326.25,-311.18 330,-308 360.84,-281.8 356.58,-263.69 387,-237 389.15,-235.11 391.46,-233.29 393.86,-231.54"/>
<polygon fill="lightslategrey" stroke="lightslategrey" points="395.83,-234.43 402.18,-225.95 391.93,-228.63 395.83,-234.43"/>
</g>
<!-- uqbar.enums.IntEnumeration&#45;&gt;supriya.enums.SignalRange -->
<g id="edge17" class="edge">
<title>uqbar.enums.IntEnumeration&#45;&gt;supriya.enums.SignalRange</title>
<path fill="none" stroke="lightslategrey" d="M319.29,-317C323.18,-314.34 326.88,-311.34 330,-308 370.05,-265.16 347.64,-232.47 387,-189 389.71,-186.01 392.88,-183.26 396.22,-180.79"/>
<polygon fill="lightslategrey" stroke="lightslategrey" points="398.3,-183.61 404.74,-175.19 394.46,-177.76 398.3,-183.61"/>
</g>
<!-- uqbar.enums.IntEnumeration&#45;&gt;supriya.enums.UnaryOperator -->
<g id="edge18" class="edge">
<title>uqbar.enums.IntEnumeration&#45;&gt;supriya.enums.UnaryOperator</title>
<path fill="none" stroke="lightslategrey" d="M320.51,-316.72C324.02,-314.16 327.29,-311.26 330,-308 380.09,-247.66 337.88,-202.14 387,-141 388.47,-139.17 390.12,-137.45 391.89,-135.83"/>
<polygon fill="lightslategrey" stroke="lightslategrey" points="394.45,-138.27 400.22,-129.39 390.17,-132.73 394.45,-138.27"/>
</g>
<!-- uqbar.enums.IntEnumeration&#45;&gt;supriya.enums.Unit -->
<g id="edge19" class="edge">
<title>uqbar.enums.IntEnumeration&#45;&gt;supriya.enums.Unit</title>
<path fill="none" stroke="lightslategrey" d="M320.74,-316.9C324.21,-314.31 327.41,-311.35 330,-308 360.22,-268.89 355.51,-131.1 387,-93 390.64,-88.6 395.53,-85.15 400.64,-82.47"/>
<polygon fill="lightslategrey" stroke="lightslategrey" points="402.08,-85.66 409.83,-78.43 399.26,-79.25 402.08,-85.66"/>
</g>
<!-- uqbar.enums.StrictEnumeration&#45;&gt;supriya.enums.RequestName -->
<g id="edge20" class="edge">
<title>uqbar.enums.StrictEnumeration&#45;&gt;supriya.enums.RequestName</title>
<path fill="none" stroke="lightslategrey" d="M288.7,-268.92C292.42,-231.11 306.83,-130.93 358,-69 366.82,-58.33 379.45,-50.14 391.48,-44.14"/>
<polygon fill="lightslategrey" stroke="lightslategrey" points="393.29,-47.16 400.9,-39.79 390.36,-40.8 393.29,-47.16"/>
</g>
<!-- builtins.int -->
<g id="node1" class="node">
<title>builtins.int</title>
<g id="a_node1"><a xlink:href="https://docs.python.org/3/library/functions.html#int" xlink:title="int" target="_top">
<path fill="#fbb4ae" stroke="#fbb4ae" stroke-width="2" d="M123.17,-407.5C123.17,-407.5 108.83,-407.5 108.83,-407.5 105.67,-407.5 102.5,-404.33 102.5,-401.17 102.5,-401.17 102.5,-394.83 102.5,-394.83 102.5,-391.67 105.67,-388.5 108.83,-388.5 108.83,-388.5 123.17,-388.5 123.17,-388.5 126.33,-388.5 129.5,-391.67 129.5,-394.83 129.5,-394.83 129.5,-401.17 129.5,-401.17 129.5,-404.33 126.33,-407.5 123.17,-407.5"/>
<text text-anchor="middle" x="116" y="-395.5" font-family="Arial" font-size="10.00">int</text>
</a>
</g>
</g>
<!-- builtins.object -->
<g id="node2" class="node">
<title>builtins.object</title>
<g id="a_node2"><a xlink:href="https://docs.python.org/3/library/functions.html#object" xlink:title="object" target="_top">
<path fill="#fbb4ae" stroke="#fbb4ae" stroke-width="2" d="M52.67,-407.5C52.67,-407.5 22.33,-407.5 22.33,-407.5 19.17,-407.5 16,-404.33 16,-401.17 16,-401.17 16,-394.83 16,-394.83 16,-391.67 19.17,-388.5 22.33,-388.5 22.33,-388.5 52.67,-388.5 52.67,-388.5 55.83,-388.5 59,-391.67 59,-394.83 59,-394.83 59,-401.17 59,-401.17 59,-404.33 55.83,-407.5 52.67,-407.5"/>
<text text-anchor="middle" x="37.5" y="-395.5" font-family="Arial" font-size="10.00">object</text>
</a>
</g>
</g>
<!-- enum.Enum -->
<g id="node3" class="node">
<title>enum.Enum</title>
<g id="a_node3"><a xlink:href="https://docs.python.org/3/library/enum.html#enum.Enum" xlink:title="Enum" target="_top">
<path fill="#b3cde3" stroke="#b3cde3" stroke-width="2" d="M130.67,-339.5C130.67,-339.5 101.33,-339.5 101.33,-339.5 98.17,-339.5 95,-336.33 95,-333.17 95,-333.17 95,-326.83 95,-326.83 95,-323.67 98.17,-320.5 101.33,-320.5 101.33,-320.5 130.67,-320.5 130.67,-320.5 133.83,-320.5 137,-323.67 137,-326.83 137,-326.83 137,-333.17 137,-333.17 137,-336.33 133.83,-339.5 130.67,-339.5"/>
<text text-anchor="middle" x="116" y="-327.5" font-family="Arial" font-size="10.00">Enum</text>
</a>
</g>
</g>
<!-- enum.IntEnum -->
<g id="node4" class="node">
<title>enum.IntEnum</title>
<g id="a_node4"><a xlink:href="https://docs.python.org/3/library/enum.html#enum.IntEnum" xlink:title="Int\nEnum" target="_top">
<path fill="#b3cde3" stroke="#b3cde3" stroke-width="2" d="M205,-345C205,-345 183,-345 183,-345 178,-345 173,-340 173,-335 173,-335 173,-325 173,-325 173,-320 178,-315 183,-315 183,-315 205,-315 205,-315 210,-315 215,-320 215,-325 215,-325 215,-335 215,-335 215,-340 210,-345 205,-345"/>
<text text-anchor="middle" x="194" y="-333" font-family="Arial" font-size="10.00">Int</text>
<text text-anchor="middle" x="194" y="-322" font-family="Arial" font-size="10.00">Enum</text>
</a>
</g>
</g>
<!-- supriya.enums.AddAction -->
<g id="node5" class="node">
<title>supriya.enums.AddAction</title>
<g id="a_node5"><a xlink:href="../api/supriya/enums.html#supriya.enums.AddAction" xlink:title="Add\nAction" target="_top">
<path fill="black" stroke="black" stroke-width="2" d="M439.5,-660C439.5,-660 415.5,-660 415.5,-660 410.5,-660 405.5,-655 405.5,-650 405.5,-650 405.5,-640 405.5,-640 405.5,-635 410.5,-630 415.5,-630 415.5,-630 439.5,-630 439.5,-630 444.5,-630 449.5,-635 449.5,-640 449.5,-640 449.5,-650 449.5,-650 449.5,-655 444.5,-660 439.5,-660"/>
<text text-anchor="middle" x="427.5" y="-648" font-family="Arial" font-size="10.00" fill="white">Add</text>
<text text-anchor="middle" x="427.5" y="-637" font-family="Arial" font-size="10.00" fill="white">Action</text>
</a>
</g>
</g>
<!-- supriya.enums.BinaryOperator -->
<g id="node6" class="node">
<title>supriya.enums.BinaryOperator</title>
<g id="a_node6"><a xlink:href="../api/supriya/enums.html#supriya.enums.BinaryOperator" xlink:title="Binary\nOperator" target="_top">
<path fill="black" stroke="black" stroke-width="2" d="M444.5,-612C444.5,-612 410.5,-612 410.5,-612 405.5,-612 400.5,-607 400.5,-602 400.5,-602 400.5,-592 400.5,-592 400.5,-587 405.5,-582 410.5,-582 410.5,-582 444.5,-582 444.5,-582 449.5,-582 454.5,-587 454.5,-592 454.5,-592 454.5,-602 454.5,-602 454.5,-607 449.5,-612 444.5,-612"/>
<text text-anchor="middle" x="427.5" y="-600" font-family="Arial" font-size="10.00" fill="white">Binary</text>
<text text-anchor="middle" x="427.5" y="-589" font-family="Arial" font-size="10.00" fill="white">Operator</text>
</a>
</g>
</g>
<!-- supriya.enums.CalculationRate -->
<g id="node7" class="node">
<title>supriya.enums.CalculationRate</title>
<g id="a_node7"><a xlink:href="../api/supriya/enums.html#supriya.enums.CalculationRate" xlink:title="Calculation\nRate" target="_top">
<path fill="black" stroke="black" stroke-width="2" d="M450,-564C450,-564 405,-564 405,-564 400,-564 395,-559 395,-554 395,-554 395,-544 395,-544 395,-539 400,-534 405,-534 405,-534 450,-534 450,-534 455,-534 460,-539 460,-544 460,-544 460,-554 460,-554 460,-559 455,-564 450,-564"/>
<text text-anchor="middle" x="427.5" y="-552" font-family="Arial" font-size="10.00" fill="white">Calculation</text>
<text text-anchor="middle" x="427.5" y="-541" font-family="Arial" font-size="10.00" fill="white">Rate</text>
</a>
</g>
</g>
<!-- supriya.enums.DoneAction -->
<g id="node8" class="node">
<title>supriya.enums.DoneAction</title>
<g id="a_node8"><a xlink:href="../api/supriya/enums.html#supriya.enums.DoneAction" xlink:title="Done\nAction" target="_top">
<path fill="black" stroke="black" stroke-width="2" d="M439.5,-516C439.5,-516 415.5,-516 415.5,-516 410.5,-516 405.5,-511 405.5,-506 405.5,-506 405.5,-496 405.5,-496 405.5,-491 410.5,-486 415.5,-486 415.5,-486 439.5,-486 439.5,-486 444.5,-486 449.5,-491 449.5,-496 449.5,-496 449.5,-506 449.5,-506 449.5,-511 444.5,-516 439.5,-516"/>
<text text-anchor="middle" x="427.5" y="-504" font-family="Arial" font-size="10.00" fill="white">Done</text>
<text text-anchor="middle" x="427.5" y="-493" font-family="Arial" font-size="10.00" fill="white">Action</text>
</a>
</g>
</g>
<!-- supriya.enums.EnvelopeShape -->
<g id="node9" class="node">
<title>supriya.enums.EnvelopeShape</title>
<g id="a_node9"><a xlink:href="../api/supriya/enums.html#supriya.enums.EnvelopeShape" xlink:title="Envelope\nShape" target="_top">
<path fill="black" stroke="black" stroke-width="2" d="M446,-468C446,-468 409,-468 409,-468 404,-468 399,-463 399,-458 399,-458 399,-448 399,-448 399,-443 404,-438 409,-438 409,-438 446,-438 446,-438 451,-438 456,-443 456,-448 456,-448 456,-458 456,-458 456,-463 451,-468 446,-468"/>
<text text-anchor="middle" x="427.5" y="-456" font-family="Arial" font-size="10.00" fill="white">Envelope</text>
<text text-anchor="middle" x="427.5" y="-445" font-family="Arial" font-size="10.00" fill="white">Shape</text>
</a>
</g>
</g>
<!-- supriya.enums.HeaderFormat -->
<g id="node10" class="node">
<title>supriya.enums.HeaderFormat</title>
<g id="a_node10"><a xlink:href="../api/supriya/enums.html#supriya.enums.HeaderFormat" xlink:title="Header\nFormat" target="_top">
<path fill="black" stroke="black" stroke-width="2" d="M441.5,-420C441.5,-420 413.5,-420 413.5,-420 408.5,-420 403.5,-415 403.5,-410 403.5,-410 403.5,-400 403.5,-400 403.5,-395 408.5,-390 413.5,-390 413.5,-390 441.5,-390 441.5,-390 446.5,-390 451.5,-395 451.5,-400 451.5,-400 451.5,-410 451.5,-410 451.5,-415 446.5,-420 441.5,-420"/>
<text text-anchor="middle" x="427.5" y="-408" font-family="Arial" font-size="10.00" fill="white">Header</text>
<text text-anchor="middle" x="427.5" y="-397" font-family="Arial" font-size="10.00" fill="white">Format</text>
</a>
</g>
</g>
<!-- supriya.enums.NodeAction -->
<g id="node11" class="node">
<title>supriya.enums.NodeAction</title>
<g id="a_node11"><a xlink:href="../api/supriya/enums.html#supriya.enums.NodeAction" xlink:title="Node\nAction" target="_top">
<path fill="black" stroke="black" stroke-width="2" d="M439.5,-372C439.5,-372 415.5,-372 415.5,-372 410.5,-372 405.5,-367 405.5,-362 405.5,-362 405.5,-352 405.5,-352 405.5,-347 410.5,-342 415.5,-342 415.5,-342 439.5,-342 439.5,-342 444.5,-342 449.5,-347 449.5,-352 449.5,-352 449.5,-362 449.5,-362 449.5,-367 444.5,-372 439.5,-372"/>
<text text-anchor="middle" x="427.5" y="-360" font-family="Arial" font-size="10.00" fill="white">Node</text>
<text text-anchor="middle" x="427.5" y="-349" font-family="Arial" font-size="10.00" fill="white">Action</text>
</a>
</g>
</g>
<!-- supriya.enums.ParameterRate -->
<g id="node12" class="node">
<title>supriya.enums.ParameterRate</title>
<g id="a_node12"><a xlink:href="../api/supriya/enums.html#supriya.enums.ParameterRate" xlink:title="Parameter\nRate" target="_top">
<path fill="black" stroke="black" stroke-width="2" d="M448.5,-324C448.5,-324 406.5,-324 406.5,-324 401.5,-324 396.5,-319 396.5,-314 396.5,-314 396.5,-304 396.5,-304 396.5,-299 401.5,-294 406.5,-294 406.5,-294 448.5,-294 448.5,-294 453.5,-294 458.5,-299 458.5,-304 458.5,-304 458.5,-314 458.5,-314 458.5,-319 453.5,-324 448.5,-324"/>
<text text-anchor="middle" x="427.5" y="-312" font-family="Arial" font-size="10.00" fill="white">Parameter</text>
<text text-anchor="middle" x="427.5" y="-301" font-family="Arial" font-size="10.00" fill="white">Rate</text>
</a>
</g>
</g>
<!-- supriya.enums.RequestId -->
<g id="node13" class="node">
<title>supriya.enums.RequestId</title>
<g id="a_node13"><a xlink:href="../api/supriya/enums.html#supriya.enums.RequestId" xlink:title="Request\nId" target="_top">
<path fill="black" stroke="black" stroke-width="2" d="M444,-276C444,-276 411,-276 411,-276 406,-276 401,-271 401,-266 401,-266 401,-256 401,-256 401,-251 406,-246 411,-246 411,-246 444,-246 444,-246 449,-246 454,-251 454,-256 454,-256 454,-266 454,-266 454,-271 449,-276 444,-276"/>
<text text-anchor="middle" x="427.5" y="-264" font-family="Arial" font-size="10.00" fill="white">Request</text>
<text text-anchor="middle" x="427.5" y="-253" font-family="Arial" font-size="10.00" fill="white">Id</text>
</a>
</g>
</g>
<!-- supriya.enums.RequestName -->
<g id="node14" class="node">
<title>supriya.enums.RequestName</title>
<g id="a_node14"><a xlink:href="../api/supriya/enums.html#supriya.enums.RequestName" xlink:title="Request\nName" target="_top">
<path fill="black" stroke="black" stroke-width="2" d="M444,-46C444,-46 411,-46 411,-46 406,-46 401,-41 401,-36 401,-36 401,-26 401,-26 401,-21 406,-16 411,-16 411,-16 444,-16 444,-16 449,-16 454,-21 454,-26 454,-26 454,-36 454,-36 454,-41 449,-46 444,-46"/>
<text text-anchor="middle" x="427.5" y="-34" font-family="Arial" font-size="10.00" fill="white">Request</text>
<text text-anchor="middle" x="427.5" y="-23" font-family="Arial" font-size="10.00" fill="white">Name</text>
</a>
</g>
</g>
<!-- supriya.enums.SampleFormat -->
<g id="node15" class="node">
<title>supriya.enums.SampleFormat</title>
<g id="a_node15"><a xlink:href="../api/supriya/enums.html#supriya.enums.SampleFormat" xlink:title="Sample\nFormat" target="_top">
<path fill="black" stroke="black" stroke-width="2" d="M442.5,-228C442.5,-228 412.5,-228 412.5,-228 407.5,-228 402.5,-223 402.5,-218 402.5,-218 402.5,-208 402.5,-208 402.5,-203 407.5,-198 412.5,-198 412.5,-198 442.5,-198 442.5,-198 447.5,-198 452.5,-203 452.5,-208 452.5,-208 452.5,-218 452.5,-218 452.5,-223 447.5,-228 442.5,-228"/>
<text text-anchor="middle" x="427.5" y="-216" font-family="Arial" font-size="10.00" fill="white">Sample</text>
<text text-anchor="middle" x="427.5" y="-205" font-family="Arial" font-size="10.00" fill="white">Format</text>
</a>
</g>
</g>
<!-- supriya.enums.SignalRange -->
<g id="node16" class="node">
<title>supriya.enums.SignalRange</title>
<g id="a_node16"><a xlink:href="../api/supriya/enums.html#supriya.enums.SignalRange" xlink:title="Signal\nRange" target="_top">
<path fill="black" stroke="black" stroke-width="2" d="M440,-180C440,-180 415,-180 415,-180 410,-180 405,-175 405,-170 405,-170 405,-160 405,-160 405,-155 410,-150 415,-150 415,-150 440,-150 440,-150 445,-150 450,-155 450,-160 450,-160 450,-170 450,-170 450,-175 445,-180 440,-180"/>
<text text-anchor="middle" x="427.5" y="-168" font-family="Arial" font-size="10.00" fill="white">Signal</text>
<text text-anchor="middle" x="427.5" y="-157" font-family="Arial" font-size="10.00" fill="white">Range</text>
</a>
</g>
</g>
<!-- supriya.enums.UnaryOperator -->
<g id="node17" class="node">
<title>supriya.enums.UnaryOperator</title>
<g id="a_node17"><a xlink:href="../api/supriya/enums.html#supriya.enums.UnaryOperator" xlink:title="Unary\nOperator" target="_top">
<path fill="black" stroke="black" stroke-width="2" d="M444.5,-132C444.5,-132 410.5,-132 410.5,-132 405.5,-132 400.5,-127 400.5,-122 400.5,-122 400.5,-112 400.5,-112 400.5,-107 405.5,-102 410.5,-102 410.5,-102 444.5,-102 444.5,-102 449.5,-102 454.5,-107 454.5,-112 454.5,-112 454.5,-122 454.5,-122 454.5,-127 449.5,-132 444.5,-132"/>
<text text-anchor="middle" x="427.5" y="-120" font-family="Arial" font-size="10.00" fill="white">Unary</text>
<text text-anchor="middle" x="427.5" y="-109" font-family="Arial" font-size="10.00" fill="white">Operator</text>
</a>
</g>
</g>
<!-- supriya.enums.Unit -->
<g id="node18" class="node">
<title>supriya.enums.Unit</title>
<g id="a_node18"><a xlink:href="../api/supriya/enums.html#supriya.enums.Unit" xlink:title="Unit" target="_top">
<path fill="black" stroke="black" stroke-width="2" d="M438.67,-83.5C438.67,-83.5 416.33,-83.5 416.33,-83.5 413.17,-83.5 410,-80.33 410,-77.17 410,-77.17 410,-70.83 410,-70.83 410,-67.67 413.17,-64.5 416.33,-64.5 416.33,-64.5 438.67,-64.5 438.67,-64.5 441.83,-64.5 445,-67.67 445,-70.83 445,-70.83 445,-77.17 445,-77.17 445,-80.33 441.83,-83.5 438.67,-83.5"/>
<text text-anchor="middle" x="427.5" y="-71.5" font-family="Arial" font-size="10.00" fill="white">Unit</text>
</a>
</g>
</g>
<!-- uqbar.enums.IntEnumeration -->
<g id="node19" class="node">
<title>uqbar.enums.IntEnumeration</title>
<g id="a_node19"><a xlink:href="http://josiahwolfoberholtzer.com/uqbar/api/uqbar/enums.html#uqbar.enums.IntEnumeration" xlink:title="Int\nEnumeration" target="_top">
<path fill="#decbe4" stroke="#decbe4" stroke-width="2" d="M312,-347C312,-347 261,-347 261,-347 256,-347 251,-342 251,-337 251,-337 251,-327 251,-327 251,-322 256,-317 261,-317 261,-317 312,-317 312,-317 317,-317 322,-322 322,-327 322,-327 322,-337 322,-337 322,-342 317,-347 312,-347"/>
<text text-anchor="middle" x="286.5" y="-335" font-family="Arial" font-size="10.00">Int</text>
<text text-anchor="middle" x="286.5" y="-324" font-family="Arial" font-size="10.00">Enumeration</text>
</a>
</g>
</g>
<!-- uqbar.enums.StrictEnumeration -->
<g id="node20" class="node">
<title>uqbar.enums.StrictEnumeration</title>
<g id="a_node20"><a xlink:href="http://josiahwolfoberholtzer.com/uqbar/api/uqbar/enums.html#uqbar.enums.StrictEnumeration" xlink:title="Strict\nEnumeration" target="_top">
<path fill="#decbe4" stroke="#decbe4" stroke-width="2" d="M312,-299C312,-299 261,-299 261,-299 256,-299 251,-294 251,-289 251,-289 251,-279 251,-279 251,-274 256,-269 261,-269 261,-269 312,-269 312,-269 317,-269 322,-274 322,-279 322,-279 322,-289 322,-289 322,-294 317,-299 312,-299"/>
<text text-anchor="middle" x="286.5" y="-287" font-family="Arial" font-size="10.00">Strict</text>
<text text-anchor="middle" x="286.5" y="-276" font-family="Arial" font-size="10.00">Enumeration</text>
</a>
</g>
</g>
</g>
</svg>
