<?xml version="1.0" encoding="UTF-8" standalone="no"?>
<!DOCTYPE svg PUBLIC "-//W3C//DTD SVG 1.1//EN"
 "http://www.w3.org/Graphics/SVG/1.1/DTD/svg11.dtd">
<!-- Generated by graphviz version 2.44.1 (20200629.0846)
 -->
<!-- Title: InheritanceGraph Pages: 1 -->
<svg width="659pt" height="371pt"
 viewBox="0.00 0.00 658.95 371.00" xmlns="http://www.w3.org/2000/svg" xmlns:xlink="http://www.w3.org/1999/xlink">
<g id="graph0" class="graph" transform="scale(1 1) rotate(0) translate(4 367)">
<title>InheritanceGraph</title>
<g id="clust1" class="cluster">
<title>cluster_builtins</title>
<path fill="transparent" stroke="#bcd2ee" stroke-width="2" stroke-dasharray="5,2" d="M20,-133C20,-133 55,-133 55,-133 61,-133 67,-139 67,-145 67,-145 67,-176 67,-176 67,-182 61,-188 55,-188 55,-188 20,-188 20,-188 14,-188 8,-182 8,-176 8,-176 8,-145 8,-145 8,-139 14,-133 20,-133"/>
<text text-anchor="middle" x="37.5" y="-176" font-family="Arial" font-size="10.00">builtins</text>
</g>
<g id="clust2" class="cluster">
<title>cluster_supriya.commands.bases</title>
<path fill="transparent" stroke="#bcd2ee" stroke-width="2" stroke-dasharray="5,2" d="M271,-115C271,-115 444.95,-115 444.95,-115 450.95,-115 456.95,-121 456.95,-127 456.95,-127 456.95,-195 456.95,-195 456.95,-201 450.95,-207 444.95,-207 444.95,-207 271,-207 271,-207 265,-207 259,-201 259,-195 259,-195 259,-127 259,-127 259,-121 265,-115 271,-115"/>
<text text-anchor="middle" x="357.98" y="-195" font-family="Arial" font-size="10.00">supriya.commands.bases</text>
</g>
<g id="clust3" class="cluster">
<title>cluster_supriya.commands.groups</title>
<path fill="transparent" stroke="#bcd2ee" stroke-width="2" stroke-dasharray="5,2" d="M488.95,-8C488.95,-8 630.95,-8 630.95,-8 636.95,-8 642.95,-14 642.95,-20 642.95,-20 642.95,-343 642.95,-343 642.95,-349 636.95,-355 630.95,-355 630.95,-355 488.95,-355 488.95,-355 482.95,-355 476.95,-349 476.95,-343 476.95,-343 476.95,-20 476.95,-20 476.95,-14 482.95,-8 488.95,-8"/>
<text text-anchor="middle" x="559.95" y="-343" font-family="Arial" font-size="10.00">supriya.commands.groups</text>
</g>
<g id="clust4" class="cluster">
<title>cluster_supriya.system</title>
<path fill="transparent" stroke="#bcd2ee" stroke-width="2" stroke-dasharray="5,2" d="M99,-122C99,-122 227,-122 227,-122 233,-122 239,-128 239,-134 239,-134 239,-187 239,-187 239,-193 233,-199 227,-199 227,-199 99,-199 99,-199 93,-199 87,-193 87,-187 87,-187 87,-134 87,-134 87,-128 93,-122 99,-122"/>
<text text-anchor="middle" x="163" y="-187" font-family="Arial" font-size="10.00">supriya.system</text>
</g>
<!-- builtins.object&#45;&gt;supriya.system.SupriyaObject -->
<g id="edge4" class="edge">
<title>builtins.object&#45;&gt;supriya.system.SupriyaObject</title>
<path fill="none" stroke="lightslategrey" d="M59.23,-151C66.98,-151 76,-151 84.66,-151"/>
<polygon fill="lightslategrey" stroke="lightslategrey" points="84.91,-154.5 94.91,-151 84.91,-147.5 84.91,-154.5"/>
</g>
<!-- supriya.commands.bases.Request&#45;&gt;supriya.commands.groups.GroupDeepFreeRequest -->
<g id="edge5" class="edge">
<title>supriya.commands.bases.Request&#45;&gt;supriya.commands.groups.GroupDeepFreeRequest</title>
<path fill="none" stroke="lightslategrey" d="M419.66,-180.33C430.67,-200.2 452.97,-238.31 476.95,-267 478.39,-268.72 479.91,-270.44 481.48,-272.15"/>
<polygon fill="lightslategrey" stroke="lightslategrey" points="479.11,-274.73 488.59,-279.46 484.13,-269.85 479.11,-274.73"/>
</g>
<!-- supriya.commands.bases.Request&#45;&gt;supriya.commands.groups.GroupFreeAllRequest -->
<g id="edge6" class="edge">
<title>supriya.commands.bases.Request&#45;&gt;supriya.commands.groups.GroupFreeAllRequest</title>
<path fill="none" stroke="lightslategrey" d="M430.71,-178.62C444.34,-187.31 463.39,-199.45 479.87,-209.96"/>
<polygon fill="lightslategrey" stroke="lightslategrey" points="478.4,-213.17 488.72,-215.6 482.17,-207.27 478.4,-213.17"/>
</g>
<!-- supriya.commands.bases.Request&#45;&gt;supriya.commands.groups.GroupNewRequest -->
<g id="edge7" class="edge">
<title>supriya.commands.bases.Request&#45;&gt;supriya.commands.groups.GroupNewRequest</title>
<path fill="none" stroke="lightslategrey" d="M449,-167C458.66,-167 469.06,-167 478.68,-167"/>
<polygon fill="lightslategrey" stroke="lightslategrey" points="478.72,-170.5 488.72,-167 478.72,-163.5 478.72,-170.5"/>
</g>
<!-- supriya.commands.bases.Request&#45;&gt;supriya.commands.groups.GroupQueryTreeRequest -->
<g id="edge8" class="edge">
<title>supriya.commands.bases.Request&#45;&gt;supriya.commands.groups.GroupQueryTreeRequest</title>
<path fill="none" stroke="lightslategrey" d="M430.71,-155.38C444.34,-146.69 463.39,-134.55 479.87,-124.04"/>
<polygon fill="lightslategrey" stroke="lightslategrey" points="482.17,-126.73 488.72,-118.4 478.4,-120.83 482.17,-126.73"/>
</g>
<!-- supriya.commands.bases.Requestable&#45;&gt;supriya.commands.bases.Request -->
<g id="edge1" class="edge">
<title>supriya.commands.bases.Requestable&#45;&gt;supriya.commands.bases.Request</title>
<path fill="none" stroke="lightslategrey" d="M338.23,-169.03C346.48,-168.79 355.4,-168.54 364.07,-168.3"/>
<polygon fill="lightslategrey" stroke="lightslategrey" points="364.18,-171.8 374.08,-168.02 363.99,-164.8 364.18,-171.8"/>
</g>
<!-- supriya.commands.bases.Response&#45;&gt;supriya.commands.groups.QueryTreeResponse -->
<g id="edge9" class="edge">
<title>supriya.commands.bases.Response&#45;&gt;supriya.commands.groups.QueryTreeResponse</title>
<path fill="none" stroke="lightslategrey" d="M324.5,-123.44C359.65,-107.45 430.91,-75.02 475.46,-54.75"/>
<polygon fill="lightslategrey" stroke="lightslategrey" points="477.16,-57.82 484.81,-50.49 474.26,-51.45 477.16,-57.82"/>
</g>
<!-- supriya.commands.groups.GroupNewRequest&#45;&gt;supriya.commands.groups.ParallelGroupNewRequest -->
<g id="edge2" class="edge">
<title>supriya.commands.groups.GroupNewRequest&#45;&gt;supriya.commands.groups.ParallelGroupNewRequest</title>
<path fill="none" stroke="lightslategrey" d="M542.29,-167C551.39,-167 561.8,-167 571.59,-167"/>
<polygon fill="lightslategrey" stroke="lightslategrey" points="571.87,-170.5 581.87,-167 571.87,-163.5 571.87,-170.5"/>
</g>
<!-- supriya.system.SupriyaObject&#45;&gt;supriya.system.SupriyaValueObject -->
<g id="edge3" class="edge">
<title>supriya.system.SupriyaObject&#45;&gt;supriya.system.SupriyaValueObject</title>
<path fill="none" stroke="lightslategrey" d="M145.3,-151C153.22,-151 162.17,-151 170.69,-151"/>
<polygon fill="lightslategrey" stroke="lightslategrey" points="170.76,-154.5 180.76,-151 170.76,-147.5 170.76,-154.5"/>
</g>
<!-- supriya.system.SupriyaValueObject&#45;&gt;supriya.commands.bases.Requestable -->
<g id="edge10" class="edge">
<title>supriya.system.SupriyaValueObject&#45;&gt;supriya.commands.bases.Requestable</title>
<path fill="none" stroke="lightslategrey" d="M231.34,-155.89C239.2,-157.47 248.19,-159.28 257.04,-161.06"/>
<polygon fill="lightslategrey" stroke="lightslategrey" points="256.42,-164.51 266.92,-163.05 257.8,-157.64 256.42,-164.51"/>
</g>
<!-- supriya.system.SupriyaValueObject&#45;&gt;supriya.commands.bases.Response -->
<g id="edge11" class="edge">
<title>supriya.system.SupriyaValueObject&#45;&gt;supriya.commands.bases.Response</title>
<path fill="none" stroke="lightslategrey" d="M231.34,-146.36C240.61,-144.6 251.43,-142.54 261.76,-140.57"/>
<polygon fill="lightslategrey" stroke="lightslategrey" points="262.68,-143.96 271.85,-138.65 261.37,-137.08 262.68,-143.96"/>
</g>
<!-- builtins.object -->
<g id="node1" class="node">
<title>builtins.object</title>
<g id="a_node1"><a xlink:href="https://docs.python.org/3/library/functions.html#object" xlink:title="object" target="_top">
<path fill="#fbb4ae" stroke="#fbb4ae" stroke-width="2" d="M52.67,-160.5C52.67,-160.5 22.33,-160.5 22.33,-160.5 19.17,-160.5 16,-157.33 16,-154.17 16,-154.17 16,-147.83 16,-147.83 16,-144.67 19.17,-141.5 22.33,-141.5 22.33,-141.5 52.67,-141.5 52.67,-141.5 55.83,-141.5 59,-144.67 59,-147.83 59,-147.83 59,-154.17 59,-154.17 59,-157.33 55.83,-160.5 52.67,-160.5"/>
<text text-anchor="middle" x="37.5" y="-148.5" font-family="Arial" font-size="10.00">object</text>
</a>
</g>
</g>
<!-- supriya.commands.bases.Request -->
<g id="node2" class="node">
<title>supriya.commands.bases.Request</title>
<g id="a_node2"><a xlink:href="../api/supriya/commands/bases.html#supriya.commands.bases.Request" xlink:title="Request" target="_top">
<ellipse fill="none" stroke="#b3cde3" stroke-width="2" cx="411.48" cy="-167" rx="37.45" ry="13.37"/>
<text text-anchor="middle" x="411.48" y="-164.5" font-family="Arial" font-size="10.00">Request</text>
</a>
</g>
</g>
<!-- supriya.commands.bases.Requestable -->
<g id="node3" class="node">
<title>supriya.commands.bases.Requestable</title>
<g id="a_node3"><a xlink:href="../api/supriya/commands/bases.html#supriya.commands.bases.Requestable" xlink:title="Requestable" target="_top">
<path fill="#b3cde3" stroke="#b3cde3" stroke-width="2" d="M331.67,-179.5C331.67,-179.5 273.33,-179.5 273.33,-179.5 270.17,-179.5 267,-176.33 267,-173.17 267,-173.17 267,-166.83 267,-166.83 267,-163.67 270.17,-160.5 273.33,-160.5 273.33,-160.5 331.67,-160.5 331.67,-160.5 334.83,-160.5 338,-163.67 338,-166.83 338,-166.83 338,-173.17 338,-173.17 338,-176.33 334.83,-179.5 331.67,-179.5"/>
<text text-anchor="middle" x="302.5" y="-167.5" font-family="Arial" font-size="10.00">Requestable</text>
</a>
</g>
</g>
<!-- supriya.commands.bases.Response -->
<g id="node4" class="node">
<title>supriya.commands.bases.Response</title>
<g id="a_node4"><a xlink:href="../api/supriya/commands/bases.html#supriya.commands.bases.Response" xlink:title="Response" target="_top">
<path fill="#b3cde3" stroke="#b3cde3" stroke-width="2" d="M326.67,-142.5C326.67,-142.5 278.33,-142.5 278.33,-142.5 275.17,-142.5 272,-139.33 272,-136.17 272,-136.17 272,-129.83 272,-129.83 272,-126.67 275.17,-123.5 278.33,-123.5 278.33,-123.5 326.67,-123.5 326.67,-123.5 329.83,-123.5 333,-126.67 333,-129.83 333,-129.83 333,-136.17 333,-136.17 333,-139.33 329.83,-142.5 326.67,-142.5"/>
<text text-anchor="middle" x="302.5" y="-130.5" font-family="Arial" font-size="10.00">Response</text>
</a>
</g>
</g>
<!-- supriya.commands.groups.GroupDeepFreeRequest -->
<g id="node5" class="node">
<title>supriya.commands.groups.GroupDeepFreeRequest</title>
<g id="a_node5"><a xlink:href="../api/supriya/commands/groups.html#supriya.commands.groups.GroupDeepFreeRequest" xlink:title="Group\nDeep\nFree\nRequest" target="_top">
<path fill="black" stroke="black" stroke-width="2" d="M529.95,-328C529.95,-328 500.95,-328 500.95,-328 494.95,-328 488.95,-322 488.95,-316 488.95,-316 488.95,-288 488.95,-288 488.95,-282 494.95,-276 500.95,-276 500.95,-276 529.95,-276 529.95,-276 535.95,-276 541.95,-282 541.95,-288 541.95,-288 541.95,-316 541.95,-316 541.95,-322 535.95,-328 529.95,-328"/>
<text text-anchor="middle" x="515.45" y="-316" font-family="Arial" font-size="10.00" fill="white">Group</text>
<text text-anchor="middle" x="515.45" y="-305" font-family="Arial" font-size="10.00" fill="white">Deep</text>
<text text-anchor="middle" x="515.45" y="-294" font-family="Arial" font-size="10.00" fill="white">Free</text>
<text text-anchor="middle" x="515.45" y="-283" font-family="Arial" font-size="10.00" fill="white">Request</text>
</a>
</g>
</g>
<!-- supriya.commands.groups.GroupFreeAllRequest -->
<g id="node6" class="node">
<title>supriya.commands.groups.GroupFreeAllRequest</title>
<g id="a_node6"><a xlink:href="../api/supriya/commands/groups.html#supriya.commands.groups.GroupFreeAllRequest" xlink:title="Group\nFree\nAll\nRequest" target="_top">
<path fill="black" stroke="black" stroke-width="2" d="M529.95,-258C529.95,-258 500.95,-258 500.95,-258 494.95,-258 488.95,-252 488.95,-246 488.95,-246 488.95,-218 488.95,-218 488.95,-212 494.95,-206 500.95,-206 500.95,-206 529.95,-206 529.95,-206 535.95,-206 541.95,-212 541.95,-218 541.95,-218 541.95,-246 541.95,-246 541.95,-252 535.95,-258 529.95,-258"/>
<text text-anchor="middle" x="515.45" y="-246" font-family="Arial" font-size="10.00" fill="white">Group</text>
<text text-anchor="middle" x="515.45" y="-235" font-family="Arial" font-size="10.00" fill="white">Free</text>
<text text-anchor="middle" x="515.45" y="-224" font-family="Arial" font-size="10.00" fill="white">All</text>
<text text-anchor="middle" x="515.45" y="-213" font-family="Arial" font-size="10.00" fill="white">Request</text>
</a>
</g>
</g>
<!-- supriya.commands.groups.GroupNewRequest -->
<g id="node7" class="node">
<title>supriya.commands.groups.GroupNewRequest</title>
<g id="a_node7"><a xlink:href="../api/supriya/commands/groups.html#supriya.commands.groups.GroupNewRequest" xlink:title="Group\nNew\nRequest" target="_top">
<path fill="black" stroke="black" stroke-width="2" d="M529.95,-187.5C529.95,-187.5 500.95,-187.5 500.95,-187.5 494.95,-187.5 488.95,-181.5 488.95,-175.5 488.95,-175.5 488.95,-158.5 488.95,-158.5 488.95,-152.5 494.95,-146.5 500.95,-146.5 500.95,-146.5 529.95,-146.5 529.95,-146.5 535.95,-146.5 541.95,-152.5 541.95,-158.5 541.95,-158.5 541.95,-175.5 541.95,-175.5 541.95,-181.5 535.95,-187.5 529.95,-187.5"/>
<text text-anchor="middle" x="515.45" y="-175.5" font-family="Arial" font-size="10.00" fill="white">Group</text>
<text text-anchor="middle" x="515.45" y="-164.5" font-family="Arial" font-size="10.00" fill="white">New</text>
<text text-anchor="middle" x="515.45" y="-153.5" font-family="Arial" font-size="10.00" fill="white">Request</text>
</a>
</g>
</g>
<!-- supriya.commands.groups.GroupQueryTreeRequest -->
<g id="node8" class="node">
<title>supriya.commands.groups.GroupQueryTreeRequest</title>
<g id="a_node8"><a xlink:href="../api/supriya/commands/groups.html#supriya.commands.groups.GroupQueryTreeRequest" xlink:title="Group\nQuery\nTree\nRequest" target="_top">
<path fill="black" stroke="black" stroke-width="2" d="M529.95,-128C529.95,-128 500.95,-128 500.95,-128 494.95,-128 488.95,-122 488.95,-116 488.95,-116 488.95,-88 488.95,-88 488.95,-82 494.95,-76 500.95,-76 500.95,-76 529.95,-76 529.95,-76 535.95,-76 541.95,-82 541.95,-88 541.95,-88 541.95,-116 541.95,-116 541.95,-122 535.95,-128 529.95,-128"/>
<text text-anchor="middle" x="515.45" y="-116" font-family="Arial" font-size="10.00" fill="white">Group</text>
<text text-anchor="middle" x="515.45" y="-105" font-family="Arial" font-size="10.00" fill="white">Query</text>
<text text-anchor="middle" x="515.45" y="-94" font-family="Arial" font-size="10.00" fill="white">Tree</text>
<text text-anchor="middle" x="515.45" y="-83" font-family="Arial" font-size="10.00" fill="white">Request</text>
</a>
</g>
</g>
<!-- supriya.commands.groups.ParallelGroupNewRequest -->
<g id="node9" class="node">
<title>supriya.commands.groups.ParallelGroupNewRequest</title>
<g id="a_node9"><a xlink:href="../api/supriya/commands/groups.html#supriya.commands.groups.ParallelGroupNewRequest" xlink:title="Parallel\nGroup\nNew\nRequest" target="_top">
<path fill="black" stroke="black" stroke-width="2" d="M622.95,-193C622.95,-193 593.95,-193 593.95,-193 587.95,-193 581.95,-187 581.95,-181 581.95,-181 581.95,-153 581.95,-153 581.95,-147 587.95,-141 593.95,-141 593.95,-141 622.95,-141 622.95,-141 628.95,-141 634.95,-147 634.95,-153 634.95,-153 634.95,-181 634.95,-181 634.95,-187 628.95,-193 622.95,-193"/>
<text text-anchor="middle" x="608.45" y="-181" font-family="Arial" font-size="10.00" fill="white">Parallel</text>
<text text-anchor="middle" x="608.45" y="-170" font-family="Arial" font-size="10.00" fill="white">Group</text>
<text text-anchor="middle" x="608.45" y="-159" font-family="Arial" font-size="10.00" fill="white">New</text>
<text text-anchor="middle" x="608.45" y="-148" font-family="Arial" font-size="10.00" fill="white">Request</text>
</a>
</g>
</g>
<!-- supriya.commands.groups.QueryTreeResponse -->
<g id="node10" class="node">
<title>supriya.commands.groups.QueryTreeResponse</title>
<g id="a_node10"><a xlink:href="../api/supriya/commands/groups.html#supriya.commands.groups.QueryTreeResponse" xlink:title="Query\nTree\nResponse" target="_top">
<path fill="black" stroke="black" stroke-width="2" d="M533.95,-57.5C533.95,-57.5 496.95,-57.5 496.95,-57.5 490.95,-57.5 484.95,-51.5 484.95,-45.5 484.95,-45.5 484.95,-28.5 484.95,-28.5 484.95,-22.5 490.95,-16.5 496.95,-16.5 496.95,-16.5 533.95,-16.5 533.95,-16.5 539.95,-16.5 545.95,-22.5 545.95,-28.5 545.95,-28.5 545.95,-45.5 545.95,-45.5 545.95,-51.5 539.95,-57.5 533.95,-57.5"/>
<text text-anchor="middle" x="515.45" y="-45.5" font-family="Arial" font-size="10.00" fill="white">Query</text>
<text text-anchor="middle" x="515.45" y="-34.5" font-family="Arial" font-size="10.00" fill="white">Tree</text>
<text text-anchor="middle" x="515.45" y="-23.5" font-family="Arial" font-size="10.00" fill="white">Response</text>
</a>
</g>
</g>
<!-- supriya.system.SupriyaObject -->
<g id="node11" class="node">
<title>supriya.system.SupriyaObject</title>
<g id="a_node11"><a xlink:href="../api/supriya/commands/../system.html#supriya.system.SupriyaObject" xlink:title="Supriya\nObject" target="_top">
<path fill="#decbe4" stroke="#decbe4" stroke-width="2" d="M135,-166C135,-166 105,-166 105,-166 100,-166 95,-161 95,-156 95,-156 95,-146 95,-146 95,-141 100,-136 105,-136 105,-136 135,-136 135,-136 140,-136 145,-141 145,-146 145,-146 145,-156 145,-156 145,-161 140,-166 135,-166"/>
<text text-anchor="middle" x="120" y="-154" font-family="Arial" font-size="10.00">Supriya</text>
<text text-anchor="middle" x="120" y="-143" font-family="Arial" font-size="10.00">Object</text>
</a>
</g>
</g>
<!-- supriya.system.SupriyaValueObject -->
<g id="node12" class="node">
<title>supriya.system.SupriyaValueObject</title>
<g id="a_node12"><a xlink:href="../api/supriya/commands/../system.html#supriya.system.SupriyaValueObject" xlink:title="Supriya\nValue\nObject" target="_top">
<path fill="#decbe4" stroke="#decbe4" stroke-width="2" d="M219,-171.5C219,-171.5 193,-171.5 193,-171.5 187,-171.5 181,-165.5 181,-159.5 181,-159.5 181,-142.5 181,-142.5 181,-136.5 187,-130.5 193,-130.5 193,-130.5 219,-130.5 219,-130.5 225,-130.5 231,-136.5 231,-142.5 231,-142.5 231,-159.5 231,-159.5 231,-165.5 225,-171.5 219,-171.5"/>
<text text-anchor="middle" x="206" y="-159.5" font-family="Arial" font-size="10.00">Supriya</text>
<text text-anchor="middle" x="206" y="-148.5" font-family="Arial" font-size="10.00">Value</text>
<text text-anchor="middle" x="206" y="-137.5" font-family="Arial" font-size="10.00">Object</text>
</a>
</g>
</g>
</g>
</svg>
