<?xml version="1.0" encoding="UTF-8" standalone="no"?>
<!DOCTYPE svg PUBLIC "-//W3C//DTD SVG 1.1//EN"
 "http://www.w3.org/Graphics/SVG/1.1/DTD/svg11.dtd">
<!-- Generated by graphviz version 2.40.1 (20161225.0304)
 -->
<!-- Title: InheritanceGraph Pages: 1 -->
<svg width="604pt" height="352pt"
 viewBox="0.00 0.00 603.74 352.00" xmlns="http://www.w3.org/2000/svg" xmlns:xlink="http://www.w3.org/1999/xlink">
<g id="graph0" class="graph" transform="scale(1 1) rotate(0) translate(4 348)">
<title>InheritanceGraph</title>
<g id="clust1" class="cluster">
<title>cluster_builtins</title>
<path fill="transparent" stroke="#bcd2ee" stroke-width="2" stroke-dasharray="5,2" d="M20,-136C20,-136 49,-136 49,-136 55,-136 61,-142 61,-148 61,-148 61,-179 61,-179 61,-185 55,-191 49,-191 49,-191 20,-191 20,-191 14,-191 8,-185 8,-179 8,-179 8,-148 8,-148 8,-142 14,-136 20,-136"/>
<text text-anchor="middle" x="34.5" y="-179" font-family="Arial" font-size="10.00" fill="#000000">builtins</text>
</g>
<g id="clust2" class="cluster">
<title>cluster_supriya.synthdefs</title>
<path fill="transparent" stroke="#bcd2ee" stroke-width="2" stroke-dasharray="5,2" d="M180,-125C180,-125 231,-125 231,-125 237,-125 243,-131 243,-137 243,-137 243,-190 243,-190 243,-196 237,-202 231,-202 231,-202 180,-202 180,-202 174,-202 168,-196 168,-190 168,-190 168,-137 168,-137 168,-131 174,-125 180,-125"/>
<text text-anchor="middle" x="205.5" y="-190" font-family="Arial" font-size="10.00" fill="#000000">supriya.synthdefs</text>
</g>
<g id="clust3" class="cluster">
<title>cluster_supriya.system</title>
<path fill="transparent" stroke="#bcd2ee" stroke-width="2" stroke-dasharray="5,2" d="M93,-131C93,-131 136,-131 136,-131 142,-131 148,-137 148,-143 148,-143 148,-184 148,-184 148,-190 142,-196 136,-196 136,-196 93,-196 93,-196 87,-196 81,-190 81,-184 81,-184 81,-143 81,-143 81,-137 87,-131 93,-131"/>
<text text-anchor="middle" x="114.5" y="-184" font-family="Arial" font-size="10.00" fill="#000000">supriya.system</text>
</g>
<g id="clust4" class="cluster">
<title>cluster_supriya.ugens</title>
<path fill="transparent" stroke="#bcd2ee" stroke-width="2" stroke-dasharray="5,2" d="M275,-8C275,-8 575.7351,-8 575.7351,-8 581.7351,-8 587.7351,-14 587.7351,-20 587.7351,-20 587.7351,-324 587.7351,-324 587.7351,-330 581.7351,-336 575.7351,-336 575.7351,-336 275,-336 275,-336 269,-336 263,-330 263,-324 263,-324 263,-20 263,-20 263,-14 269,-8 275,-8"/>
<text text-anchor="middle" x="425.3675" y="-324" font-family="Arial" font-size="10.00" fill="#000000">supriya.ugens</text>
</g>
<!-- builtins.object&#45;&gt;supriya.system.SupriyaObject.SupriyaObject -->
<g id="edge9" class="edge">
<title>builtins.object&#45;&gt;supriya.system.SupriyaObject.SupriyaObject</title>
<path fill="none" stroke="#778899" d="M53.3404,-154C62.0401,-154 72.6079,-154 82.4698,-154"/>
<polygon fill="#778899" stroke="#778899" points="82.7722,-157.5001 92.7722,-154 82.7721,-150.5001 82.7722,-157.5001"/>
</g>
<!-- supriya.synthdefs.UGenMethodMixin.UGenMethodMixin&#45;&gt;supriya.ugens.UGen.UGen -->
<g id="edge10" class="edge">
<title>supriya.synthdefs.UGenMethodMixin.UGenMethodMixin&#45;&gt;supriya.ugens.UGen.UGen</title>
<path fill="none" stroke="#778899" d="M226.2117,-154C236.3925,-154 248.8752,-154 260.4793,-154"/>
<polygon fill="#778899" stroke="#778899" points="260.7979,-157.5001 270.7978,-154 260.7978,-150.5001 260.7979,-157.5001"/>
</g>
<!-- supriya.system.SupriyaObject.SupriyaObject&#45;&gt;supriya.synthdefs.UGenMethodMixin.UGenMethodMixin -->
<g id="edge11" class="edge">
<title>supriya.system.SupriyaObject.SupriyaObject&#45;&gt;supriya.synthdefs.UGenMethodMixin.UGenMethodMixin</title>
<path fill="none" stroke="#778899" d="M135.106,-154C146.5093,-154 160.815,-154 173.5087,-154"/>
<polygon fill="#778899" stroke="#778899" points="173.6933,-157.5001 183.6933,-154 173.6932,-150.5001 173.6933,-157.5001"/>
</g>
<!-- supriya.ugens.BufInfoUGenBase.BufInfoUGenBase&#45;&gt;supriya.ugens.BufChannels.BufChannels -->
<g id="edge1" class="edge">
<title>supriya.ugens.BufInfoUGenBase.BufInfoUGenBase&#45;&gt;supriya.ugens.BufChannels.BufChannels</title>
<path fill="none" stroke="#778899" d="M486.1072,-124.6714C497.6462,-104.3257 514.2628,-77.0324 531.7351,-55 532.1126,-54.5239 532.4988,-54.0472 532.8921,-53.5707"/>
<polygon fill="#778899" stroke="#778899" points="535.6127,-55.7795 539.6915,-46.0013 530.4051,-51.1017 535.6127,-55.7795"/>
</g>
<!-- supriya.ugens.BufInfoUGenBase.BufInfoUGenBase&#45;&gt;supriya.ugens.BufDur.BufDur -->
<g id="edge2" class="edge">
<title>supriya.ugens.BufInfoUGenBase.BufInfoUGenBase&#45;&gt;supriya.ugens.BufDur.BufDur</title>
<path fill="none" stroke="#778899" d="M492.2862,-134.6856C504.862,-123.6486 520.5975,-109.8384 533.2518,-98.7324"/>
<polygon fill="#778899" stroke="#778899" points="535.8511,-101.1079 541.0583,-91.881 531.2337,-95.8467 535.8511,-101.1079"/>
</g>
<!-- supriya.ugens.BufInfoUGenBase.BufInfoUGenBase&#45;&gt;supriya.ugens.BufFrames.BufFrames -->
<g id="edge3" class="edge">
<title>supriya.ugens.BufInfoUGenBase.BufInfoUGenBase&#45;&gt;supriya.ugens.BufFrames.BufFrames</title>
<path fill="none" stroke="#778899" d="M495.4566,-146.0451C504.6647,-143.1358 515.1891,-139.8106 524.8393,-136.7616"/>
<polygon fill="#778899" stroke="#778899" points="526.0067,-140.0634 534.4876,-133.7132 523.8977,-133.3886 526.0067,-140.0634"/>
</g>
<!-- supriya.ugens.BufInfoUGenBase.BufInfoUGenBase&#45;&gt;supriya.ugens.BufRateScale.BufRateScale -->
<g id="edge4" class="edge">
<title>supriya.ugens.BufInfoUGenBase.BufInfoUGenBase&#45;&gt;supriya.ugens.BufRateScale.BufRateScale</title>
<path fill="none" stroke="#778899" d="M495.4566,-161.9549C505.8286,-165.2319 517.8707,-169.0366 528.4523,-172.3799"/>
<polygon fill="#778899" stroke="#778899" points="527.4581,-175.7363 538.048,-175.4117 529.5671,-169.0615 527.4581,-175.7363"/>
</g>
<!-- supriya.ugens.BufInfoUGenBase.BufInfoUGenBase&#45;&gt;supriya.ugens.BufSampleRate.BufSampleRate -->
<g id="edge5" class="edge">
<title>supriya.ugens.BufInfoUGenBase.BufInfoUGenBase&#45;&gt;supriya.ugens.BufSampleRate.BufSampleRate</title>
<path fill="none" stroke="#778899" d="M491.4031,-175.2584C502.4544,-186.3801 516.1223,-200.135 528.0137,-212.1021"/>
<polygon fill="#778899" stroke="#778899" points="525.6177,-214.6564 535.149,-219.2829 530.5831,-209.7223 525.6177,-214.6564"/>
</g>
<!-- supriya.ugens.BufInfoUGenBase.BufInfoUGenBase&#45;&gt;supriya.ugens.BufSamples.BufSamples -->
<g id="edge6" class="edge">
<title>supriya.ugens.BufInfoUGenBase.BufInfoUGenBase&#45;&gt;supriya.ugens.BufSamples.BufSamples</title>
<path fill="none" stroke="#778899" d="M483.8462,-185.5223C494.9902,-209.7361 512.0982,-243.4208 531.7351,-270 532.0152,-270.3792 532.3012,-270.758 532.5926,-271.1363"/>
<polygon fill="#778899" stroke="#778899" points="530.083,-273.5854 539.2667,-278.8685 535.382,-269.0115 530.083,-273.5854"/>
</g>
<!-- supriya.ugens.InfoUGenBase.InfoUGenBase&#45;&gt;supriya.ugens.BufInfoUGenBase.BufInfoUGenBase -->
<g id="edge7" class="edge">
<title>supriya.ugens.InfoUGenBase.InfoUGenBase&#45;&gt;supriya.ugens.BufInfoUGenBase.BufInfoUGenBase</title>
<path fill="none" stroke="#778899" d="M408.9738,-154C416.9478,-154 425.8922,-154 434.432,-154"/>
<polygon fill="#778899" stroke="#778899" points="434.5556,-157.5001 444.5556,-154 434.5556,-150.5001 434.5556,-157.5001"/>
</g>
<!-- supriya.ugens.UGen.UGen&#45;&gt;supriya.ugens.InfoUGenBase.InfoUGenBase -->
<g id="edge8" class="edge">
<title>supriya.ugens.UGen.UGen&#45;&gt;supriya.ugens.InfoUGenBase.InfoUGenBase</title>
<path fill="none" stroke="#778899" d="M322.0621,-154C330.0361,-154 338.9805,-154 347.5203,-154"/>
<polygon fill="#778899" stroke="#778899" points="347.644,-157.5001 357.6439,-154 347.6439,-150.5001 347.644,-157.5001"/>
</g>
<!-- builtins.object -->
<g id="node1" class="node">
<title>builtins.object</title>
<g id="a_node1"><a xlink:href="https://docs.python.org/3.6/library/functions.html#object" xlink:title="object" target="_top">
<path fill="#fbb4ae" stroke="#fbb4ae" stroke-width="2" d="M46.6667,-163.5C46.6667,-163.5 22.3333,-163.5 22.3333,-163.5 19.1667,-163.5 16,-160.3333 16,-157.1667 16,-157.1667 16,-150.8333 16,-150.8333 16,-147.6667 19.1667,-144.5 22.3333,-144.5 22.3333,-144.5 46.6667,-144.5 46.6667,-144.5 49.8333,-144.5 53,-147.6667 53,-150.8333 53,-150.8333 53,-157.1667 53,-157.1667 53,-160.3333 49.8333,-163.5 46.6667,-163.5"/>
<text text-anchor="middle" x="34.5" y="-151.5" font-family="Arial" font-size="10.00" fill="#000000">object</text>
</a>
</g>
</g>
<!-- supriya.synthdefs.UGenMethodMixin.UGenMethodMixin -->
<g id="node2" class="node">
<title>supriya.synthdefs.UGenMethodMixin.UGenMethodMixin</title>
<g id="a_node2"><a xlink:href="../api/supriya/ugens/../synthdefs/UGenMethodMixin.html#supriya.synthdefs.UGenMethodMixin.UGenMethodMixin" xlink:title="UGen\nMethod\nMixin" target="_top">
<path fill="#b3cde3" stroke="#b3cde3" stroke-width="2" d="M214,-174.5C214,-174.5 196,-174.5 196,-174.5 190,-174.5 184,-168.5 184,-162.5 184,-162.5 184,-145.5 184,-145.5 184,-139.5 190,-133.5 196,-133.5 196,-133.5 214,-133.5 214,-133.5 220,-133.5 226,-139.5 226,-145.5 226,-145.5 226,-162.5 226,-162.5 226,-168.5 220,-174.5 214,-174.5"/>
<text text-anchor="middle" x="205" y="-162.5" font-family="Arial" font-size="10.00" fill="#000000">UGen</text>
<text text-anchor="middle" x="205" y="-151.5" font-family="Arial" font-size="10.00" fill="#000000">Method</text>
<text text-anchor="middle" x="205" y="-140.5" font-family="Arial" font-size="10.00" fill="#000000">Mixin</text>
</a>
</g>
</g>
<!-- supriya.system.SupriyaObject.SupriyaObject -->
<g id="node3" class="node">
<title>supriya.system.SupriyaObject.SupriyaObject</title>
<g id="a_node3"><a xlink:href="../api/supriya/ugens/../system/SupriyaObject.html#supriya.system.SupriyaObject.SupriyaObject" xlink:title="Supriya\nObject" target="_top">
<path fill="#ccebc5" stroke="#ccebc5" stroke-width="2" d="M125,-169C125,-169 103,-169 103,-169 98,-169 93,-164 93,-159 93,-159 93,-149 93,-149 93,-144 98,-139 103,-139 103,-139 125,-139 125,-139 130,-139 135,-144 135,-149 135,-149 135,-159 135,-159 135,-164 130,-169 125,-169"/>
<text text-anchor="middle" x="114" y="-157" font-family="Arial" font-size="10.00" fill="#000000">Supriya</text>
<text text-anchor="middle" x="114" y="-146" font-family="Arial" font-size="10.00" fill="#000000">Object</text>
</a>
</g>
</g>
<!-- supriya.ugens.BufChannels.BufChannels -->
<g id="node4" class="node">
<title>supriya.ugens.BufChannels.BufChannels</title>
<g id="a_node4"><a xlink:href="../api/supriya/ugens/BufChannels.html#supriya.ugens.BufChannels.BufChannels" xlink:title="Buf\nChannels" target="_top">
<path fill="#decbe4" stroke="#decbe4" stroke-width="2" d="M569.7351,-46C569.7351,-46 541.7351,-46 541.7351,-46 536.7351,-46 531.7351,-41 531.7351,-36 531.7351,-36 531.7351,-26 531.7351,-26 531.7351,-21 536.7351,-16 541.7351,-16 541.7351,-16 569.7351,-16 569.7351,-16 574.7351,-16 579.7351,-21 579.7351,-26 579.7351,-26 579.7351,-36 579.7351,-36 579.7351,-41 574.7351,-46 569.7351,-46"/>
<text text-anchor="middle" x="555.7351" y="-34" font-family="Arial" font-size="10.00" fill="#000000">Buf</text>
<text text-anchor="middle" x="555.7351" y="-23" font-family="Arial" font-size="10.00" fill="#000000">Channels</text>
</a>
</g>
</g>
<!-- supriya.ugens.BufDur.BufDur -->
<g id="node5" class="node">
<title>supriya.ugens.BufDur.BufDur</title>
<g id="a_node5"><a xlink:href="../api/supriya/ugens/BufDur.html#supriya.ugens.BufDur.BufDur" xlink:title="Buf\nDur" target="_top">
<path fill="#decbe4" stroke="#decbe4" stroke-width="2" d="M560.5684,-94C560.5684,-94 550.9017,-94 550.9017,-94 546.0684,-94 541.2351,-89.1667 541.2351,-84.3333 541.2351,-84.3333 541.2351,-73.6667 541.2351,-73.6667 541.2351,-68.8333 546.0684,-64 550.9017,-64 550.9017,-64 560.5684,-64 560.5684,-64 565.4017,-64 570.2351,-68.8333 570.2351,-73.6667 570.2351,-73.6667 570.2351,-84.3333 570.2351,-84.3333 570.2351,-89.1667 565.4017,-94 560.5684,-94"/>
<text text-anchor="middle" x="555.7351" y="-82" font-family="Arial" font-size="10.00" fill="#000000">Buf</text>
<text text-anchor="middle" x="555.7351" y="-71" font-family="Arial" font-size="10.00" fill="#000000">Dur</text>
</a>
</g>
</g>
<!-- supriya.ugens.BufFrames.BufFrames -->
<g id="node6" class="node">
<title>supriya.ugens.BufFrames.BufFrames</title>
<g id="a_node6"><a xlink:href="../api/supriya/ugens/BufFrames.html#supriya.ugens.BufFrames.BufFrames" xlink:title="Buf\nFrames" target="_top">
<path fill="#decbe4" stroke="#decbe4" stroke-width="2" d="M566.7351,-142C566.7351,-142 544.7351,-142 544.7351,-142 539.7351,-142 534.7351,-137 534.7351,-132 534.7351,-132 534.7351,-122 534.7351,-122 534.7351,-117 539.7351,-112 544.7351,-112 544.7351,-112 566.7351,-112 566.7351,-112 571.7351,-112 576.7351,-117 576.7351,-122 576.7351,-122 576.7351,-132 576.7351,-132 576.7351,-137 571.7351,-142 566.7351,-142"/>
<text text-anchor="middle" x="555.7351" y="-130" font-family="Arial" font-size="10.00" fill="#000000">Buf</text>
<text text-anchor="middle" x="555.7351" y="-119" font-family="Arial" font-size="10.00" fill="#000000">Frames</text>
</a>
</g>
</g>
<!-- supriya.ugens.BufInfoUGenBase.BufInfoUGenBase -->
<g id="node7" class="node">
<title>supriya.ugens.BufInfoUGenBase.BufInfoUGenBase</title>
<g id="a_node7"><a xlink:href="../api/supriya/ugens/BufInfoUGenBase.html#supriya.ugens.BufInfoUGenBase.BufInfoUGenBase" xlink:title="Buf\nInfo\nUGen\nBase" target="_top">
<ellipse fill="#000000" stroke="#000000" stroke-width="2" cx="470.2792" cy="-154" rx="25.4118" ry="36.5405"/>
<text text-anchor="middle" x="470.2792" y="-168" font-family="Arial" font-size="10.00" fill="#ffffff">Buf</text>
<text text-anchor="middle" x="470.2792" y="-157" font-family="Arial" font-size="10.00" fill="#ffffff">Info</text>
<text text-anchor="middle" x="470.2792" y="-146" font-family="Arial" font-size="10.00" fill="#ffffff">UGen</text>
<text text-anchor="middle" x="470.2792" y="-135" font-family="Arial" font-size="10.00" fill="#ffffff">Base</text>
</a>
</g>
</g>
<!-- supriya.ugens.BufRateScale.BufRateScale -->
<g id="node8" class="node">
<title>supriya.ugens.BufRateScale.BufRateScale</title>
<g id="a_node8"><a xlink:href="../api/supriya/ugens/BufRateScale.html#supriya.ugens.BufRateScale.BufRateScale" xlink:title="Buf\nRate\nScale" target="_top">
<path fill="#decbe4" stroke="#decbe4" stroke-width="2" d="M561.5684,-201.5C561.5684,-201.5 549.9017,-201.5 549.9017,-201.5 544.0684,-201.5 538.2351,-195.6667 538.2351,-189.8333 538.2351,-189.8333 538.2351,-172.1667 538.2351,-172.1667 538.2351,-166.3333 544.0684,-160.5 549.9017,-160.5 549.9017,-160.5 561.5684,-160.5 561.5684,-160.5 567.4017,-160.5 573.2351,-166.3333 573.2351,-172.1667 573.2351,-172.1667 573.2351,-189.8333 573.2351,-189.8333 573.2351,-195.6667 567.4017,-201.5 561.5684,-201.5"/>
<text text-anchor="middle" x="555.7351" y="-189.5" font-family="Arial" font-size="10.00" fill="#000000">Buf</text>
<text text-anchor="middle" x="555.7351" y="-178.5" font-family="Arial" font-size="10.00" fill="#000000">Rate</text>
<text text-anchor="middle" x="555.7351" y="-167.5" font-family="Arial" font-size="10.00" fill="#000000">Scale</text>
</a>
</g>
</g>
<!-- supriya.ugens.BufSampleRate.BufSampleRate -->
<g id="node9" class="node">
<title>supriya.ugens.BufSampleRate.BufSampleRate</title>
<g id="a_node9"><a xlink:href="../api/supriya/ugens/BufSampleRate.html#supriya.ugens.BufSampleRate.BufSampleRate" xlink:title="Buf\nSample\nRate" target="_top">
<path fill="#decbe4" stroke="#decbe4" stroke-width="2" d="M564.7351,-260.5C564.7351,-260.5 546.7351,-260.5 546.7351,-260.5 540.7351,-260.5 534.7351,-254.5 534.7351,-248.5 534.7351,-248.5 534.7351,-231.5 534.7351,-231.5 534.7351,-225.5 540.7351,-219.5 546.7351,-219.5 546.7351,-219.5 564.7351,-219.5 564.7351,-219.5 570.7351,-219.5 576.7351,-225.5 576.7351,-231.5 576.7351,-231.5 576.7351,-248.5 576.7351,-248.5 576.7351,-254.5 570.7351,-260.5 564.7351,-260.5"/>
<text text-anchor="middle" x="555.7351" y="-248.5" font-family="Arial" font-size="10.00" fill="#000000">Buf</text>
<text text-anchor="middle" x="555.7351" y="-237.5" font-family="Arial" font-size="10.00" fill="#000000">Sample</text>
<text text-anchor="middle" x="555.7351" y="-226.5" font-family="Arial" font-size="10.00" fill="#000000">Rate</text>
</a>
</g>
</g>
<!-- supriya.ugens.BufSamples.BufSamples -->
<g id="node10" class="node">
<title>supriya.ugens.BufSamples.BufSamples</title>
<g id="a_node10"><a xlink:href="../api/supriya/ugens/BufSamples.html#supriya.ugens.BufSamples.BufSamples" xlink:title="Buf\nSamples" target="_top">
<path fill="#decbe4" stroke="#decbe4" stroke-width="2" d="M568.7351,-309C568.7351,-309 542.7351,-309 542.7351,-309 537.7351,-309 532.7351,-304 532.7351,-299 532.7351,-299 532.7351,-289 532.7351,-289 532.7351,-284 537.7351,-279 542.7351,-279 542.7351,-279 568.7351,-279 568.7351,-279 573.7351,-279 578.7351,-284 578.7351,-289 578.7351,-289 578.7351,-299 578.7351,-299 578.7351,-304 573.7351,-309 568.7351,-309"/>
<text text-anchor="middle" x="555.7351" y="-297" font-family="Arial" font-size="10.00" fill="#000000">Buf</text>
<text text-anchor="middle" x="555.7351" y="-286" font-family="Arial" font-size="10.00" fill="#000000">Samples</text>
</a>
</g>
</g>
<!-- supriya.ugens.InfoUGenBase.InfoUGenBase -->
<g id="node11" class="node">
<title>supriya.ugens.InfoUGenBase.InfoUGenBase</title>
<g id="a_node11"><a xlink:href="../api/supriya/ugens/InfoUGenBase.html#supriya.ugens.InfoUGenBase.InfoUGenBase" xlink:title="Info\nUGen\nBase" target="_top">
<ellipse fill="none" stroke="#decbe4" stroke-width="2" cx="383.3675" cy="-154" rx="25.4118" ry="28.9828"/>
<text text-anchor="middle" x="383.3675" y="-162.5" font-family="Arial" font-size="10.00" fill="#000000">Info</text>
<text text-anchor="middle" x="383.3675" y="-151.5" font-family="Arial" font-size="10.00" fill="#000000">UGen</text>
<text text-anchor="middle" x="383.3675" y="-140.5" font-family="Arial" font-size="10.00" fill="#000000">Base</text>
</a>
</g>
</g>
<!-- supriya.ugens.UGen.UGen -->
<g id="node12" class="node">
<title>supriya.ugens.UGen.UGen</title>
<g id="a_node12"><a xlink:href="../api/supriya/ugens/UGen.html#supriya.ugens.UGen.UGen" xlink:title="UGen" target="_top">
<ellipse fill="none" stroke="#decbe4" stroke-width="2" cx="296.4558" cy="-154" rx="25.4118" ry="13.3704"/>
<text text-anchor="middle" x="296.4558" y="-151.5" font-family="Arial" font-size="10.00" fill="#000000">UGen</text>
</a>
</g>
</g>
</g>
</svg>
