<?xml version="1.0" encoding="UTF-8" standalone="no"?>
<!DOCTYPE svg PUBLIC "-//W3C//DTD SVG 1.1//EN"
 "http://www.w3.org/Graphics/SVG/1.1/DTD/svg11.dtd">
<!-- Generated by graphviz version 2.40.1 (20161225.0304)
 -->
<!-- Title: InheritanceGraph Pages: 1 -->
<svg width="512pt" height="101pt"
 viewBox="0.00 0.00 512.23 101.00" xmlns="http://www.w3.org/2000/svg" xmlns:xlink="http://www.w3.org/1999/xlink">
<g id="graph0" class="graph" transform="scale(1 1) rotate(0) translate(4 97)">
<title>InheritanceGraph</title>
<g id="clust1" class="cluster">
<title>cluster_builtins</title>
<path fill="transparent" stroke="#bcd2ee" stroke-width="2" stroke-dasharray="5,2" d="M20,-19C20,-19 49,-19 49,-19 55,-19 61,-25 61,-31 61,-31 61,-62 61,-62 61,-68 55,-74 49,-74 49,-74 20,-74 20,-74 14,-74 8,-68 8,-62 8,-62 8,-31 8,-31 8,-25 14,-19 20,-19"/>
<text text-anchor="middle" x="34.5" y="-62" font-family="Arial" font-size="10.00" fill="#000000">builtins</text>
</g>
<g id="clust2" class="cluster">
<title>cluster_supriya.commands</title>
<path fill="transparent" stroke="#bcd2ee" stroke-width="2" stroke-dasharray="5,2" d="M249,-8C249,-8 484.2254,-8 484.2254,-8 490.2254,-8 496.2254,-14 496.2254,-20 496.2254,-20 496.2254,-73 496.2254,-73 496.2254,-79 490.2254,-85 484.2254,-85 484.2254,-85 249,-85 249,-85 243,-85 237,-79 237,-73 237,-73 237,-20 237,-20 237,-14 243,-8 249,-8"/>
<text text-anchor="middle" x="366.6127" y="-73" font-family="Arial" font-size="10.00" fill="#000000">supriya.commands</text>
</g>
<g id="clust3" class="cluster">
<title>cluster_supriya.system</title>
<path fill="transparent" stroke="#bcd2ee" stroke-width="2" stroke-dasharray="5,2" d="M93,-8C93,-8 205,-8 205,-8 211,-8 217,-14 217,-20 217,-20 217,-73 217,-73 217,-79 211,-85 205,-85 205,-85 93,-85 93,-85 87,-85 81,-79 81,-73 81,-73 81,-20 81,-20 81,-14 87,-8 93,-8"/>
<text text-anchor="middle" x="149" y="-73" font-family="Arial" font-size="10.00" fill="#000000">supriya.system</text>
</g>
<!-- builtins.object&#45;&gt;supriya.system.SupriyaObject.SupriyaObject -->
<g id="edge4" class="edge">
<title>builtins.object&#45;&gt;supriya.system.SupriyaObject.SupriyaObject</title>
<path fill="none" stroke="#778899" d="M53.1629,-37C60.862,-37 69.9986,-37 78.6696,-37"/>
<polygon fill="#778899" stroke="#778899" points="78.8875,-40.5001 88.8875,-37 78.8874,-33.5001 78.8875,-40.5001"/>
</g>
<!-- supriya.commands.Request.Request&#45;&gt;supriya.commands.BufferNormalizeRequest.BufferNormalizeRequest -->
<g id="edge1" class="edge">
<title>supriya.commands.Request.Request&#45;&gt;supriya.commands.BufferNormalizeRequest.BufferNormalizeRequest</title>
<path fill="none" stroke="#778899" d="M402.2979,-37C410.6095,-37 419.6451,-37 428.1501,-37"/>
<polygon fill="#778899" stroke="#778899" points="428.1769,-40.5001 438.1769,-37 428.1768,-33.5001 428.1769,-40.5001"/>
</g>
<!-- supriya.commands.Requestable.Requestable&#45;&gt;supriya.commands.Request.Request -->
<g id="edge2" class="edge">
<title>supriya.commands.Requestable.Requestable&#45;&gt;supriya.commands.Request.Request</title>
<path fill="none" stroke="#778899" d="M304.012,-37C312.0601,-37 320.9328,-37 329.5171,-37"/>
<polygon fill="#778899" stroke="#778899" points="329.7704,-40.5001 339.7704,-37 329.7703,-33.5001 329.7704,-40.5001"/>
</g>
<!-- supriya.system.SupriyaObject.SupriyaObject&#45;&gt;supriya.system.SupriyaValueObject.SupriyaValueObject -->
<g id="edge3" class="edge">
<title>supriya.system.SupriyaObject.SupriyaObject&#45;&gt;supriya.system.SupriyaValueObject.SupriyaValueObject</title>
<path fill="none" stroke="#778899" d="M131.3138,-37C139.2025,-37 148.316,-37 156.8971,-37"/>
<polygon fill="#778899" stroke="#778899" points="156.982,-40.5001 166.982,-37 156.982,-33.5001 156.982,-40.5001"/>
</g>
<!-- supriya.system.SupriyaValueObject.SupriyaValueObject&#45;&gt;supriya.commands.Requestable.Requestable -->
<g id="edge5" class="edge">
<title>supriya.system.SupriyaValueObject.SupriyaValueObject&#45;&gt;supriya.commands.Requestable.Requestable</title>
<path fill="none" stroke="#778899" d="M209.382,-37C217.0772,-37 226.0257,-37 234.7801,-37"/>
<polygon fill="#778899" stroke="#778899" points="234.881,-40.5001 244.881,-37 234.8809,-33.5001 234.881,-40.5001"/>
</g>
<!-- builtins.object -->
<g id="node1" class="node">
<title>builtins.object</title>
<g id="a_node1"><a xlink:href="https://docs.python.org/3.6/library/functions.html#object" xlink:title="object" target="_top">
<path fill="#fbb4ae" stroke="#fbb4ae" stroke-width="2" d="M46.6667,-46.5C46.6667,-46.5 22.3333,-46.5 22.3333,-46.5 19.1667,-46.5 16,-43.3333 16,-40.1667 16,-40.1667 16,-33.8333 16,-33.8333 16,-30.6667 19.1667,-27.5 22.3333,-27.5 22.3333,-27.5 46.6667,-27.5 46.6667,-27.5 49.8333,-27.5 53,-30.6667 53,-33.8333 53,-33.8333 53,-40.1667 53,-40.1667 53,-43.3333 49.8333,-46.5 46.6667,-46.5"/>
<text text-anchor="middle" x="34.5" y="-34.5" font-family="Arial" font-size="10.00" fill="#000000">object</text>
</a>
</g>
</g>
<!-- supriya.commands.BufferNormalizeRequest.BufferNormalizeRequest -->
<g id="node2" class="node">
<title>supriya.commands.BufferNormalizeRequest.BufferNormalizeRequest</title>
<g id="a_node2"><a xlink:href="../api/supriya/commands/BufferNormalizeRequest.html#supriya.commands.BufferNormalizeRequest.BufferNormalizeRequest" xlink:title="Buffer\nNormalize\nRequest" target="_top">
<path fill="#000000" stroke="#000000" stroke-width="2" d="M476.2254,-57.5C476.2254,-57.5 450.2254,-57.5 450.2254,-57.5 444.2254,-57.5 438.2254,-51.5 438.2254,-45.5 438.2254,-45.5 438.2254,-28.5 438.2254,-28.5 438.2254,-22.5 444.2254,-16.5 450.2254,-16.5 450.2254,-16.5 476.2254,-16.5 476.2254,-16.5 482.2254,-16.5 488.2254,-22.5 488.2254,-28.5 488.2254,-28.5 488.2254,-45.5 488.2254,-45.5 488.2254,-51.5 482.2254,-57.5 476.2254,-57.5"/>
<text text-anchor="middle" x="463.2254" y="-45.5" font-family="Arial" font-size="10.00" fill="#ffffff">Buffer</text>
<text text-anchor="middle" x="463.2254" y="-34.5" font-family="Arial" font-size="10.00" fill="#ffffff">Normalize</text>
<text text-anchor="middle" x="463.2254" y="-23.5" font-family="Arial" font-size="10.00" fill="#ffffff">Request</text>
</a>
</g>
</g>
<!-- supriya.commands.Request.Request -->
<g id="node3" class="node">
<title>supriya.commands.Request.Request</title>
<g id="a_node3"><a xlink:href="../api/supriya/commands/Request.html#supriya.commands.Request.Request" xlink:title="Request" target="_top">
<ellipse fill="none" stroke="#b3cde3" stroke-width="2" cx="371.1127" cy="-37" rx="31.2258" ry="13.3704"/>
<text text-anchor="middle" x="371.1127" y="-34.5" font-family="Arial" font-size="10.00" fill="#000000">Request</text>
</a>
</g>
</g>
<!-- supriya.commands.Requestable.Requestable -->
<g id="node4" class="node">
<title>supriya.commands.Requestable.Requestable</title>
<g id="a_node4"><a xlink:href="../api/supriya/commands/Requestable.html#supriya.commands.Requestable.Requestable" xlink:title="Requestable" target="_top">
<path fill="#b3cde3" stroke="#b3cde3" stroke-width="2" d="M297.6667,-46.5C297.6667,-46.5 251.3333,-46.5 251.3333,-46.5 248.1667,-46.5 245,-43.3333 245,-40.1667 245,-40.1667 245,-33.8333 245,-33.8333 245,-30.6667 248.1667,-27.5 251.3333,-27.5 251.3333,-27.5 297.6667,-27.5 297.6667,-27.5 300.8333,-27.5 304,-30.6667 304,-33.8333 304,-33.8333 304,-40.1667 304,-40.1667 304,-43.3333 300.8333,-46.5 297.6667,-46.5"/>
<text text-anchor="middle" x="274.5" y="-34.5" font-family="Arial" font-size="10.00" fill="#000000">Requestable</text>
</a>
</g>
</g>
<!-- supriya.system.SupriyaObject.SupriyaObject -->
<g id="node5" class="node">
<title>supriya.system.SupriyaObject.SupriyaObject</title>
<g id="a_node5"><a xlink:href="../api/supriya/commands/../system/SupriyaObject.html#supriya.system.SupriyaObject.SupriyaObject" xlink:title="Supriya\nObject" target="_top">
<path fill="#ccebc5" stroke="#ccebc5" stroke-width="2" d="M121,-52C121,-52 99,-52 99,-52 94,-52 89,-47 89,-42 89,-42 89,-32 89,-32 89,-27 94,-22 99,-22 99,-22 121,-22 121,-22 126,-22 131,-27 131,-32 131,-32 131,-42 131,-42 131,-47 126,-52 121,-52"/>
<text text-anchor="middle" x="110" y="-40" font-family="Arial" font-size="10.00" fill="#000000">Supriya</text>
<text text-anchor="middle" x="110" y="-29" font-family="Arial" font-size="10.00" fill="#000000">Object</text>
</a>
</g>
</g>
<!-- supriya.system.SupriyaValueObject.SupriyaValueObject -->
<g id="node6" class="node">
<title>supriya.system.SupriyaValueObject.SupriyaValueObject</title>
<g id="a_node6"><a xlink:href="../api/supriya/commands/../system/SupriyaValueObject.html#supriya.system.SupriyaValueObject.SupriyaValueObject" xlink:title="Supriya\nValue\nObject" target="_top">
<path fill="#ccebc5" stroke="#ccebc5" stroke-width="2" d="M197,-57.5C197,-57.5 179,-57.5 179,-57.5 173,-57.5 167,-51.5 167,-45.5 167,-45.5 167,-28.5 167,-28.5 167,-22.5 173,-16.5 179,-16.5 179,-16.5 197,-16.5 197,-16.5 203,-16.5 209,-22.5 209,-28.5 209,-28.5 209,-45.5 209,-45.5 209,-51.5 203,-57.5 197,-57.5"/>
<text text-anchor="middle" x="188" y="-45.5" font-family="Arial" font-size="10.00" fill="#000000">Supriya</text>
<text text-anchor="middle" x="188" y="-34.5" font-family="Arial" font-size="10.00" fill="#000000">Value</text>
<text text-anchor="middle" x="188" y="-23.5" font-family="Arial" font-size="10.00" fill="#000000">Object</text>
</a>
</g>
</g>
</g>
</svg>
