<?xml version="1.0" encoding="UTF-8" standalone="no"?>
<!DOCTYPE svg PUBLIC "-//W3C//DTD SVG 1.1//EN"
 "http://www.w3.org/Graphics/SVG/1.1/DTD/svg11.dtd">
<!-- Generated by graphviz version 2.40.1 (20161225.0304)
 -->
<!-- Title: InheritanceGraph Pages: 1 -->
<svg width="509pt" height="123pt"
 viewBox="0.00 0.00 509.23 123.00" xmlns="http://www.w3.org/2000/svg" xmlns:xlink="http://www.w3.org/1999/xlink">
<g id="graph0" class="graph" transform="scale(1 1) rotate(0) translate(4 119)">
<title>InheritanceGraph</title>
<g id="clust1" class="cluster">
<title>cluster_builtins</title>
<path fill="transparent" stroke="#bcd2ee" stroke-width="2" stroke-dasharray="5,2" d="M20,-30C20,-30 49,-30 49,-30 55,-30 61,-36 61,-42 61,-42 61,-73 61,-73 61,-79 55,-85 49,-85 49,-85 20,-85 20,-85 14,-85 8,-79 8,-73 8,-73 8,-42 8,-42 8,-36 14,-30 20,-30"/>
<text text-anchor="middle" x="34.5" y="-73" font-family="Arial" font-size="10.00" fill="#000000">builtins</text>
</g>
<g id="clust2" class="cluster">
<title>cluster_supriya.commands</title>
<path fill="transparent" stroke="#bcd2ee" stroke-width="2" stroke-dasharray="5,2" d="M249,-8C249,-8 481.2254,-8 481.2254,-8 487.2254,-8 493.2254,-14 493.2254,-20 493.2254,-20 493.2254,-95 493.2254,-95 493.2254,-101 487.2254,-107 481.2254,-107 481.2254,-107 249,-107 249,-107 243,-107 237,-101 237,-95 237,-95 237,-20 237,-20 237,-14 243,-8 249,-8"/>
<text text-anchor="middle" x="365.1127" y="-95" font-family="Arial" font-size="10.00" fill="#000000">supriya.commands</text>
</g>
<g id="clust3" class="cluster">
<title>cluster_supriya.system</title>
<path fill="transparent" stroke="#bcd2ee" stroke-width="2" stroke-dasharray="5,2" d="M93,-19C93,-19 205,-19 205,-19 211,-19 217,-25 217,-31 217,-31 217,-84 217,-84 217,-90 211,-96 205,-96 205,-96 93,-96 93,-96 87,-96 81,-90 81,-84 81,-84 81,-31 81,-31 81,-25 87,-19 93,-19"/>
<text text-anchor="middle" x="149" y="-84" font-family="Arial" font-size="10.00" fill="#000000">supriya.system</text>
</g>
<!-- builtins.object&#45;&gt;supriya.system.SupriyaObject.SupriyaObject -->
<g id="edge4" class="edge">
<title>builtins.object&#45;&gt;supriya.system.SupriyaObject.SupriyaObject</title>
<path fill="none" stroke="#778899" d="M53.1629,-48C60.862,-48 69.9986,-48 78.6696,-48"/>
<polygon fill="#778899" stroke="#778899" points="78.8875,-51.5001 88.8875,-48 78.8874,-44.5001 78.8875,-51.5001"/>
</g>
<!-- supriya.commands.Request.Request&#45;&gt;supriya.commands.SynthDefLoadDirectoryRequest.SynthDefLoadDirectoryRequest -->
<g id="edge1" class="edge">
<title>supriya.commands.Request.Request&#45;&gt;supriya.commands.SynthDefLoadDirectoryRequest.SynthDefLoadDirectoryRequest</title>
<path fill="none" stroke="#778899" d="M402.2964,-48C410.5754,-48 419.5534,-48 427.9628,-48"/>
<polygon fill="#778899" stroke="#778899" points="428.2154,-51.5001 438.2154,-48 428.2154,-44.5001 428.2154,-51.5001"/>
</g>
<!-- supriya.commands.Requestable.Requestable&#45;&gt;supriya.commands.Request.Request -->
<g id="edge2" class="edge">
<title>supriya.commands.Requestable.Requestable&#45;&gt;supriya.commands.Request.Request</title>
<path fill="none" stroke="#778899" d="M304.012,-48C312.0601,-48 320.9328,-48 329.5171,-48"/>
<polygon fill="#778899" stroke="#778899" points="329.7704,-51.5001 339.7704,-48 329.7703,-44.5001 329.7704,-51.5001"/>
</g>
<!-- supriya.system.SupriyaObject.SupriyaObject&#45;&gt;supriya.system.SupriyaValueObject.SupriyaValueObject -->
<g id="edge3" class="edge">
<title>supriya.system.SupriyaObject.SupriyaObject&#45;&gt;supriya.system.SupriyaValueObject.SupriyaValueObject</title>
<path fill="none" stroke="#778899" d="M131.3138,-48C139.2025,-48 148.316,-48 156.8971,-48"/>
<polygon fill="#778899" stroke="#778899" points="156.982,-51.5001 166.982,-48 156.982,-44.5001 156.982,-51.5001"/>
</g>
<!-- supriya.system.SupriyaValueObject.SupriyaValueObject&#45;&gt;supriya.commands.Requestable.Requestable -->
<g id="edge5" class="edge">
<title>supriya.system.SupriyaValueObject.SupriyaValueObject&#45;&gt;supriya.commands.Requestable.Requestable</title>
<path fill="none" stroke="#778899" d="M209.382,-48C217.0772,-48 226.0257,-48 234.7801,-48"/>
<polygon fill="#778899" stroke="#778899" points="234.881,-51.5001 244.881,-48 234.8809,-44.5001 234.881,-51.5001"/>
</g>
<!-- builtins.object -->
<g id="node1" class="node">
<title>builtins.object</title>
<g id="a_node1"><a xlink:href="https://docs.python.org/3.6/library/functions.html#object" xlink:title="object" target="_top">
<path fill="#fbb4ae" stroke="#fbb4ae" stroke-width="2" d="M46.6667,-57.5C46.6667,-57.5 22.3333,-57.5 22.3333,-57.5 19.1667,-57.5 16,-54.3333 16,-51.1667 16,-51.1667 16,-44.8333 16,-44.8333 16,-41.6667 19.1667,-38.5 22.3333,-38.5 22.3333,-38.5 46.6667,-38.5 46.6667,-38.5 49.8333,-38.5 53,-41.6667 53,-44.8333 53,-44.8333 53,-51.1667 53,-51.1667 53,-54.3333 49.8333,-57.5 46.6667,-57.5"/>
<text text-anchor="middle" x="34.5" y="-45.5" font-family="Arial" font-size="10.00" fill="#000000">object</text>
</a>
</g>
</g>
<!-- supriya.commands.Request.Request -->
<g id="node2" class="node">
<title>supriya.commands.Request.Request</title>
<g id="a_node2"><a xlink:href="../api/supriya/commands/Request.html#supriya.commands.Request.Request" xlink:title="Request" target="_top">
<ellipse fill="none" stroke="#b3cde3" stroke-width="2" cx="371.1127" cy="-48" rx="31.2258" ry="13.3704"/>
<text text-anchor="middle" x="371.1127" y="-45.5" font-family="Arial" font-size="10.00" fill="#000000">Request</text>
</a>
</g>
</g>
<!-- supriya.commands.Requestable.Requestable -->
<g id="node3" class="node">
<title>supriya.commands.Requestable.Requestable</title>
<g id="a_node3"><a xlink:href="../api/supriya/commands/Requestable.html#supriya.commands.Requestable.Requestable" xlink:title="Requestable" target="_top">
<path fill="#b3cde3" stroke="#b3cde3" stroke-width="2" d="M297.6667,-57.5C297.6667,-57.5 251.3333,-57.5 251.3333,-57.5 248.1667,-57.5 245,-54.3333 245,-51.1667 245,-51.1667 245,-44.8333 245,-44.8333 245,-41.6667 248.1667,-38.5 251.3333,-38.5 251.3333,-38.5 297.6667,-38.5 297.6667,-38.5 300.8333,-38.5 304,-41.6667 304,-44.8333 304,-44.8333 304,-51.1667 304,-51.1667 304,-54.3333 300.8333,-57.5 297.6667,-57.5"/>
<text text-anchor="middle" x="274.5" y="-45.5" font-family="Arial" font-size="10.00" fill="#000000">Requestable</text>
</a>
</g>
</g>
<!-- supriya.commands.SynthDefLoadDirectoryRequest.SynthDefLoadDirectoryRequest -->
<g id="node4" class="node">
<title>supriya.commands.SynthDefLoadDirectoryRequest.SynthDefLoadDirectoryRequest</title>
<g id="a_node4"><a xlink:href="../api/supriya/commands/SynthDefLoadDirectoryRequest.html#supriya.commands.SynthDefLoadDirectoryRequest.SynthDefLoadDirectoryRequest" xlink:title="Synth\nDef\nLoad\nDirectory\nRequest" target="_top">
<path fill="#000000" stroke="#000000" stroke-width="2" d="M473.2254,-79.5C473.2254,-79.5 450.2254,-79.5 450.2254,-79.5 444.2254,-79.5 438.2254,-73.5 438.2254,-67.5 438.2254,-67.5 438.2254,-28.5 438.2254,-28.5 438.2254,-22.5 444.2254,-16.5 450.2254,-16.5 450.2254,-16.5 473.2254,-16.5 473.2254,-16.5 479.2254,-16.5 485.2254,-22.5 485.2254,-28.5 485.2254,-28.5 485.2254,-67.5 485.2254,-67.5 485.2254,-73.5 479.2254,-79.5 473.2254,-79.5"/>
<text text-anchor="middle" x="461.7254" y="-67.5" font-family="Arial" font-size="10.00" fill="#ffffff">Synth</text>
<text text-anchor="middle" x="461.7254" y="-56.5" font-family="Arial" font-size="10.00" fill="#ffffff">Def</text>
<text text-anchor="middle" x="461.7254" y="-45.5" font-family="Arial" font-size="10.00" fill="#ffffff">Load</text>
<text text-anchor="middle" x="461.7254" y="-34.5" font-family="Arial" font-size="10.00" fill="#ffffff">Directory</text>
<text text-anchor="middle" x="461.7254" y="-23.5" font-family="Arial" font-size="10.00" fill="#ffffff">Request</text>
</a>
</g>
</g>
<!-- supriya.system.SupriyaObject.SupriyaObject -->
<g id="node5" class="node">
<title>supriya.system.SupriyaObject.SupriyaObject</title>
<g id="a_node5"><a xlink:href="../api/supriya/commands/../system/SupriyaObject.html#supriya.system.SupriyaObject.SupriyaObject" xlink:title="Supriya\nObject" target="_top">
<path fill="#ccebc5" stroke="#ccebc5" stroke-width="2" d="M121,-63C121,-63 99,-63 99,-63 94,-63 89,-58 89,-53 89,-53 89,-43 89,-43 89,-38 94,-33 99,-33 99,-33 121,-33 121,-33 126,-33 131,-38 131,-43 131,-43 131,-53 131,-53 131,-58 126,-63 121,-63"/>
<text text-anchor="middle" x="110" y="-51" font-family="Arial" font-size="10.00" fill="#000000">Supriya</text>
<text text-anchor="middle" x="110" y="-40" font-family="Arial" font-size="10.00" fill="#000000">Object</text>
</a>
</g>
</g>
<!-- supriya.system.SupriyaValueObject.SupriyaValueObject -->
<g id="node6" class="node">
<title>supriya.system.SupriyaValueObject.SupriyaValueObject</title>
<g id="a_node6"><a xlink:href="../api/supriya/commands/../system/SupriyaValueObject.html#supriya.system.SupriyaValueObject.SupriyaValueObject" xlink:title="Supriya\nValue\nObject" target="_top">
<path fill="#ccebc5" stroke="#ccebc5" stroke-width="2" d="M197,-68.5C197,-68.5 179,-68.5 179,-68.5 173,-68.5 167,-62.5 167,-56.5 167,-56.5 167,-39.5 167,-39.5 167,-33.5 173,-27.5 179,-27.5 179,-27.5 197,-27.5 197,-27.5 203,-27.5 209,-33.5 209,-39.5 209,-39.5 209,-56.5 209,-56.5 209,-62.5 203,-68.5 197,-68.5"/>
<text text-anchor="middle" x="188" y="-56.5" font-family="Arial" font-size="10.00" fill="#000000">Supriya</text>
<text text-anchor="middle" x="188" y="-45.5" font-family="Arial" font-size="10.00" fill="#000000">Value</text>
<text text-anchor="middle" x="188" y="-34.5" font-family="Arial" font-size="10.00" fill="#000000">Object</text>
</a>
</g>
</g>
</g>
</svg>
