<?xml version="1.0" encoding="UTF-8" standalone="no"?>
<!DOCTYPE svg PUBLIC "-//W3C//DTD SVG 1.1//EN"
 "http://www.w3.org/Graphics/SVG/1.1/DTD/svg11.dtd">
<!-- Generated by graphviz version 2.44.1 (20200629.0846)
 -->
<!-- Title: InheritanceGraph Pages: 1 -->
<svg width="686pt" height="117pt"
 viewBox="0.00 0.00 685.79 117.00" xmlns="http://www.w3.org/2000/svg" xmlns:xlink="http://www.w3.org/1999/xlink">
<g id="graph0" class="graph" transform="scale(1 1) rotate(0) translate(4 113)">
<title>InheritanceGraph</title>
<g id="clust1" class="cluster">
<title>cluster_builtins</title>
<path fill="transparent" stroke="#bcd2ee" stroke-width="2" stroke-dasharray="5,2" d="M20,-27C20,-27 55,-27 55,-27 61,-27 67,-33 67,-39 67,-39 67,-70 67,-70 67,-76 61,-82 55,-82 55,-82 20,-82 20,-82 14,-82 8,-76 8,-70 8,-70 8,-39 8,-39 8,-33 14,-27 20,-27"/>
<text text-anchor="middle" x="37.5" y="-70" font-family="Arial" font-size="10.00">builtins</text>
</g>
<g id="clust2" class="cluster">
<title>cluster_supriya.synthdefs.bases</title>
<path fill="transparent" stroke="#bcd2ee" stroke-width="2" stroke-dasharray="5,2" d="M347,-8C347,-8 493.79,-8 493.79,-8 499.79,-8 505.79,-14 505.79,-20 505.79,-20 505.79,-89 505.79,-89 505.79,-95 499.79,-101 493.79,-101 493.79,-101 347,-101 347,-101 341,-101 335,-95 335,-89 335,-89 335,-20 335,-20 335,-14 341,-8 347,-8"/>
<text text-anchor="middle" x="420.4" y="-89" font-family="Arial" font-size="10.00">supriya.synthdefs.bases</text>
</g>
<g id="clust3" class="cluster">
<title>cluster_supriya.synthdefs.mixins</title>
<path fill="transparent" stroke="#bcd2ee" stroke-width="2" stroke-dasharray="5,2" d="M202,-16C202,-16 303,-16 303,-16 309,-16 315,-22 315,-28 315,-28 315,-81 315,-81 315,-87 309,-93 303,-93 303,-93 202,-93 202,-93 196,-93 190,-87 190,-81 190,-81 190,-28 190,-28 190,-22 196,-16 202,-16"/>
<text text-anchor="middle" x="252.5" y="-81" font-family="Arial" font-size="10.00">supriya.synthdefs.mixins</text>
</g>
<g id="clust4" class="cluster">
<title>cluster_supriya.system</title>
<path fill="transparent" stroke="#bcd2ee" stroke-width="2" stroke-dasharray="5,2" d="M99,-22C99,-22 158,-22 158,-22 164,-22 170,-28 170,-34 170,-34 170,-75 170,-75 170,-81 164,-87 158,-87 158,-87 99,-87 99,-87 93,-87 87,-81 87,-75 87,-75 87,-34 87,-34 87,-28 93,-22 99,-22"/>
<text text-anchor="middle" x="128.5" y="-75" font-family="Arial" font-size="10.00">supriya.system</text>
</g>
<g id="clust5" class="cluster">
<title>cluster_supriya.ugens</title>
<path fill="transparent" stroke="#bcd2ee" stroke-width="2" stroke-dasharray="5,2" d="M537.79,-16C537.79,-16 657.79,-16 657.79,-16 663.79,-16 669.79,-22 669.79,-28 669.79,-28 669.79,-81 669.79,-81 669.79,-87 663.79,-93 657.79,-93 657.79,-93 537.79,-93 537.79,-93 531.79,-93 525.79,-87 525.79,-81 525.79,-81 525.79,-28 525.79,-28 525.79,-22 531.79,-16 537.79,-16"/>
<text text-anchor="middle" x="597.79" y="-81" font-family="Arial" font-size="10.00">supriya.ugens</text>
</g>
<!-- builtins.object&#45;&gt;supriya.system.SupriyaObject -->
<g id="edge3" class="edge">
<title>builtins.object&#45;&gt;supriya.system.SupriyaObject</title>
<path fill="none" stroke="lightslategrey" d="M59.03,-45C69.03,-45 81.34,-45 92.72,-45"/>
<polygon fill="lightslategrey" stroke="lightslategrey" points="92.82,-48.5 102.82,-45 92.82,-41.5 92.82,-48.5"/>
</g>
<!-- supriya.synthdefs.bases.UGen&#45;&gt;supriya.synthdefs.bases.WidthFirstUGen -->
<g id="edge1" class="edge">
<title>supriya.synthdefs.bases.UGen&#45;&gt;supriya.synthdefs.bases.WidthFirstUGen</title>
<path fill="none" stroke="lightslategrey" d="M402.48,-45C410.56,-45 419.48,-45 428.05,-45"/>
<polygon fill="lightslategrey" stroke="lightslategrey" points="428.25,-48.5 438.25,-45 428.25,-41.5 428.25,-48.5"/>
</g>
<!-- supriya.synthdefs.bases.WidthFirstUGen&#45;&gt;supriya.ugens.PV_ChainUGen.PV_ChainUGen -->
<g id="edge4" class="edge">
<title>supriya.synthdefs.bases.WidthFirstUGen&#45;&gt;supriya.ugens.PV_ChainUGen.PV_ChainUGen</title>
<path fill="none" stroke="lightslategrey" d="M498.24,-45C506.45,-45 515.4,-45 523.66,-45"/>
<polygon fill="lightslategrey" stroke="lightslategrey" points="523.66,-48.5 533.66,-45 523.66,-41.5 523.66,-48.5"/>
</g>
<!-- supriya.synthdefs.mixins.UGenMethodMixin&#45;&gt;supriya.synthdefs.bases.UGen -->
<g id="edge5" class="edge">
<title>supriya.synthdefs.mixins.UGenMethodMixin&#45;&gt;supriya.synthdefs.bases.UGen</title>
<path fill="none" stroke="lightslategrey" d="M277.14,-45C292.98,-45 314.22,-45 332.55,-45"/>
<polygon fill="lightslategrey" stroke="lightslategrey" points="332.67,-48.5 342.67,-45 332.67,-41.5 332.67,-48.5"/>
</g>
<!-- supriya.system.SupriyaObject&#45;&gt;supriya.synthdefs.mixins.UGenMethodMixin -->
<g id="edge6" class="edge">
<title>supriya.system.SupriyaObject&#45;&gt;supriya.synthdefs.mixins.UGenMethodMixin</title>
<path fill="none" stroke="lightslategrey" d="M153.2,-45C171.61,-45 197.17,-45 217.61,-45"/>
<polygon fill="lightslategrey" stroke="lightslategrey" points="217.77,-48.5 227.77,-45 217.77,-41.5 217.77,-48.5"/>
</g>
<!-- supriya.ugens.PV_ChainUGen.PV_ChainUGen&#45;&gt;supriya.ugens.PV_Diffuser.PV_Diffuser -->
<g id="edge2" class="edge">
<title>supriya.ugens.PV_ChainUGen.PV_ChainUGen&#45;&gt;supriya.ugens.PV_Diffuser.PV_Diffuser</title>
<path fill="none" stroke="lightslategrey" d="M575.98,-45C583.68,-45 592.69,-45 601.35,-45"/>
<polygon fill="lightslategrey" stroke="lightslategrey" points="601.62,-48.5 611.62,-45 601.62,-41.5 601.62,-48.5"/>
</g>
<!-- builtins.object -->
<g id="node1" class="node">
<title>builtins.object</title>
<g id="a_node1"><a xlink:href="https://docs.python.org/3/library/functions.html#object" xlink:title="object" target="_top">
<path fill="#fbb4ae" stroke="#fbb4ae" stroke-width="2" d="M52.67,-54.5C52.67,-54.5 22.33,-54.5 22.33,-54.5 19.17,-54.5 16,-51.33 16,-48.17 16,-48.17 16,-41.83 16,-41.83 16,-38.67 19.17,-35.5 22.33,-35.5 22.33,-35.5 52.67,-35.5 52.67,-35.5 55.83,-35.5 59,-38.67 59,-41.83 59,-41.83 59,-48.17 59,-48.17 59,-51.33 55.83,-54.5 52.67,-54.5"/>
<text text-anchor="middle" x="37.5" y="-42.5" font-family="Arial" font-size="10.00">object</text>
</a>
</g>
</g>
<!-- supriya.synthdefs.bases.UGen -->
<g id="node2" class="node">
<title>supriya.synthdefs.bases.UGen</title>
<g id="a_node2"><a xlink:href="../api/supriya/ugens/../synthdefs/bases.html#supriya.synthdefs.bases.UGen" xlink:title="UGen" target="_top">
<ellipse fill="none" stroke="#b3cde3" stroke-width="2" cx="372.7" cy="-45" rx="29.9" ry="13.37"/>
<text text-anchor="middle" x="372.7" y="-42.5" font-family="Arial" font-size="10.00">UGen</text>
</a>
</g>
</g>
<!-- supriya.synthdefs.bases.WidthFirstUGen -->
<g id="node3" class="node">
<title>supriya.synthdefs.bases.WidthFirstUGen</title>
<g id="a_node3"><a xlink:href="../api/supriya/ugens/../synthdefs/bases.html#supriya.synthdefs.bases.WidthFirstUGen" xlink:title="Width\nFirst\nUGen" target="_top">
<ellipse fill="none" stroke="#b3cde3" stroke-width="2" cx="468.1" cy="-45" rx="29.9" ry="28.98"/>
<text text-anchor="middle" x="468.1" y="-53.5" font-family="Arial" font-size="10.00">Width</text>
<text text-anchor="middle" x="468.1" y="-42.5" font-family="Arial" font-size="10.00">First</text>
<text text-anchor="middle" x="468.1" y="-31.5" font-family="Arial" font-size="10.00">UGen</text>
</a>
</g>
</g>
<!-- supriya.synthdefs.mixins.UGenMethodMixin -->
<g id="node4" class="node">
<title>supriya.synthdefs.mixins.UGenMethodMixin</title>
<g id="a_node4"><a xlink:href="../api/supriya/ugens/../synthdefs/mixins.html#supriya.synthdefs.mixins.UGenMethodMixin" xlink:title="UGen\nMethod\nMixin" target="_top">
<path fill="#ccebc5" stroke="#ccebc5" stroke-width="2" d="M265,-65.5C265,-65.5 240,-65.5 240,-65.5 234,-65.5 228,-59.5 228,-53.5 228,-53.5 228,-36.5 228,-36.5 228,-30.5 234,-24.5 240,-24.5 240,-24.5 265,-24.5 265,-24.5 271,-24.5 277,-30.5 277,-36.5 277,-36.5 277,-53.5 277,-53.5 277,-59.5 271,-65.5 265,-65.5"/>
<text text-anchor="middle" x="252.5" y="-53.5" font-family="Arial" font-size="10.00">UGen</text>
<text text-anchor="middle" x="252.5" y="-42.5" font-family="Arial" font-size="10.00">Method</text>
<text text-anchor="middle" x="252.5" y="-31.5" font-family="Arial" font-size="10.00">Mixin</text>
</a>
</g>
</g>
<!-- supriya.system.SupriyaObject -->
<g id="node5" class="node">
<title>supriya.system.SupriyaObject</title>
<g id="a_node5"><a xlink:href="../api/supriya/ugens/../system.html#supriya.system.SupriyaObject" xlink:title="Supriya\nObject" target="_top">
<path fill="#decbe4" stroke="#decbe4" stroke-width="2" d="M143,-60C143,-60 113,-60 113,-60 108,-60 103,-55 103,-50 103,-50 103,-40 103,-40 103,-35 108,-30 113,-30 113,-30 143,-30 143,-30 148,-30 153,-35 153,-40 153,-40 153,-50 153,-50 153,-55 148,-60 143,-60"/>
<text text-anchor="middle" x="128" y="-48" font-family="Arial" font-size="10.00">Supriya</text>
<text text-anchor="middle" x="128" y="-37" font-family="Arial" font-size="10.00">Object</text>
</a>
</g>
</g>
<!-- supriya.ugens.PV_ChainUGen.PV_ChainUGen -->
<g id="node6" class="node">
<title>supriya.ugens.PV_ChainUGen.PV_ChainUGen</title>
<g id="a_node6"><a xlink:href="../api/supriya/ugens/PV_ChainUGen.html#supriya.ugens.PV_ChainUGen.PV_ChainUGen" xlink:title="PV\nChain\nUGen" target="_top">
<path fill="#fed9a6" stroke="#fed9a6" stroke-width="2" d="M563.79,-65.5C563.79,-65.5 545.79,-65.5 545.79,-65.5 539.79,-65.5 533.79,-59.5 533.79,-53.5 533.79,-53.5 533.79,-36.5 533.79,-36.5 533.79,-30.5 539.79,-24.5 545.79,-24.5 545.79,-24.5 563.79,-24.5 563.79,-24.5 569.79,-24.5 575.79,-30.5 575.79,-36.5 575.79,-36.5 575.79,-53.5 575.79,-53.5 575.79,-59.5 569.79,-65.5 563.79,-65.5"/>
<text text-anchor="middle" x="554.79" y="-53.5" font-family="Arial" font-size="10.00">PV</text>
<text text-anchor="middle" x="554.79" y="-42.5" font-family="Arial" font-size="10.00">Chain</text>
<text text-anchor="middle" x="554.79" y="-31.5" font-family="Arial" font-size="10.00">UGen</text>
</a>
</g>
</g>
<!-- supriya.ugens.PV_Diffuser.PV_Diffuser -->
<g id="node7" class="node">
<title>supriya.ugens.PV_Diffuser.PV_Diffuser</title>
<g id="a_node7"><a xlink:href="../api/supriya/ugens/PV_Diffuser.html#supriya.ugens.PV_Diffuser.PV_Diffuser" xlink:title="PV\nDiffuser" target="_top">
<path fill="black" stroke="black" stroke-width="2" d="M651.79,-60C651.79,-60 621.79,-60 621.79,-60 616.79,-60 611.79,-55 611.79,-50 611.79,-50 611.79,-40 611.79,-40 611.79,-35 616.79,-30 621.79,-30 621.79,-30 651.79,-30 651.79,-30 656.79,-30 661.79,-35 661.79,-40 661.79,-40 661.79,-50 661.79,-50 661.79,-55 656.79,-60 651.79,-60"/>
<text text-anchor="middle" x="636.79" y="-48" font-family="Arial" font-size="10.00" fill="white">PV</text>
<text text-anchor="middle" x="636.79" y="-37" font-family="Arial" font-size="10.00" fill="white">Diffuser</text>
</a>
</g>
</g>
</g>
</svg>
