<?xml version="1.0" encoding="UTF-8" standalone="no"?>
<!DOCTYPE svg PUBLIC "-//W3C//DTD SVG 1.1//EN"
 "http://www.w3.org/Graphics/SVG/1.1/DTD/svg11.dtd">
<!-- Generated by graphviz version 2.44.1 (20200629.0846)
 -->
<!-- Title: InheritanceGraph Pages: 1 -->
<svg width="365pt" height="233pt"
 viewBox="0.00 0.00 365.00 233.00" xmlns="http://www.w3.org/2000/svg" xmlns:xlink="http://www.w3.org/1999/xlink">
<g id="graph0" class="graph" transform="scale(1 1) rotate(0) translate(4 229)">
<title>InheritanceGraph</title>
<g id="clust1" class="cluster">
<title>cluster_asyncio.protocols</title>
<path fill="transparent" stroke="#bcd2ee" stroke-width="2" stroke-dasharray="5,2" d="M99,-152C99,-152 248,-152 248,-152 254,-152 260,-158 260,-164 260,-164 260,-205 260,-205 260,-211 254,-217 248,-217 248,-217 99,-217 99,-217 93,-217 87,-211 87,-205 87,-205 87,-164 87,-164 87,-158 93,-152 99,-152"/>
<text text-anchor="middle" x="173.5" y="-205" font-family="Arial" font-size="10.00">asyncio.protocols</text>
</g>
<g id="clust2" class="cluster">
<title>cluster_builtins</title>
<path fill="transparent" stroke="#bcd2ee" stroke-width="2" stroke-dasharray="5,2" d="M20,-126C20,-126 55,-126 55,-126 61,-126 67,-132 67,-138 67,-138 67,-169 67,-169 67,-175 61,-181 55,-181 55,-181 20,-181 20,-181 14,-181 8,-175 8,-169 8,-169 8,-138 8,-138 8,-132 14,-126 20,-126"/>
<text text-anchor="middle" x="37.5" y="-169" font-family="Arial" font-size="10.00">builtins</text>
</g>
<g id="clust3" class="cluster">
<title>cluster_supriya.realtime.protocols</title>
<path fill="transparent" stroke="#bcd2ee" stroke-width="2" stroke-dasharray="5,2" d="M195.5,-8C195.5,-8 337,-8 337,-8 343,-8 349,-14 349,-20 349,-20 349,-132 349,-132 349,-138 343,-144 337,-144 337,-144 195.5,-144 195.5,-144 189.5,-144 183.5,-138 183.5,-132 183.5,-132 183.5,-20 183.5,-20 183.5,-14 189.5,-8 195.5,-8"/>
<text text-anchor="middle" x="266.25" y="-132" font-family="Arial" font-size="10.00">supriya.realtime.protocols</text>
</g>
<!-- asyncio.protocols.BaseProtocol&#45;&gt;asyncio.protocols.SubprocessProtocol -->
<g id="edge1" class="edge">
<title>asyncio.protocols.BaseProtocol&#45;&gt;asyncio.protocols.SubprocessProtocol</title>
<path fill="none" stroke="lightslategrey" d="M148.32,-175C156.18,-175 165.04,-175 173.71,-175"/>
<polygon fill="lightslategrey" stroke="lightslategrey" points="173.75,-178.5 183.75,-175 173.75,-171.5 173.75,-178.5"/>
</g>
<!-- asyncio.protocols.SubprocessProtocol&#45;&gt;supriya.realtime.protocols.AsyncProcessProtocol -->
<g id="edge4" class="edge">
<title>asyncio.protocols.SubprocessProtocol&#45;&gt;supriya.realtime.protocols.AsyncProcessProtocol</title>
<path fill="none" stroke="lightslategrey" d="M243.82,-159.74C249.29,-156.08 254.95,-152.06 260,-148 269.12,-140.67 278.47,-132.04 286.75,-123.94"/>
<polygon fill="lightslategrey" stroke="lightslategrey" points="289.4,-126.23 294.01,-116.7 284.46,-121.28 289.4,-126.23"/>
</g>
<!-- builtins.object&#45;&gt;asyncio.protocols.BaseProtocol -->
<g id="edge5" class="edge">
<title>builtins.object&#45;&gt;asyncio.protocols.BaseProtocol</title>
<path fill="none" stroke="lightslategrey" d="M59.19,-151.82C67.14,-154.83 76.44,-158.34 85.37,-161.72"/>
<polygon fill="lightslategrey" stroke="lightslategrey" points="84.23,-165.03 94.82,-165.29 86.71,-158.48 84.23,-165.03"/>
</g>
<!-- builtins.object&#45;&gt;supriya.realtime.protocols.ProcessProtocol -->
<g id="edge6" class="edge">
<title>builtins.object&#45;&gt;supriya.realtime.protocols.ProcessProtocol</title>
<path fill="none" stroke="lightslategrey" d="M59.33,-138.4C89.34,-130.33 145.14,-115.32 181.67,-105.5"/>
<polygon fill="lightslategrey" stroke="lightslategrey" points="182.68,-108.85 191.42,-102.88 180.86,-102.09 182.68,-108.85"/>
</g>
<!-- supriya.realtime.protocols.ProcessProtocol&#45;&gt;supriya.realtime.protocols.AsyncProcessProtocol -->
<g id="edge2" class="edge">
<title>supriya.realtime.protocols.ProcessProtocol&#45;&gt;supriya.realtime.protocols.AsyncProcessProtocol</title>
<path fill="none" stroke="lightslategrey" d="M244.82,-96C254.93,-96 266.69,-96 277.6,-96"/>
<polygon fill="lightslategrey" stroke="lightslategrey" points="277.71,-99.5 287.71,-96 277.71,-92.5 277.71,-99.5"/>
</g>
<!-- supriya.realtime.protocols.ProcessProtocol&#45;&gt;supriya.realtime.protocols.SyncProcessProtocol -->
<g id="edge3" class="edge">
<title>supriya.realtime.protocols.ProcessProtocol&#45;&gt;supriya.realtime.protocols.SyncProcessProtocol</title>
<path fill="none" stroke="lightslategrey" d="M243.34,-80.81C254.23,-74 267.27,-65.86 279.14,-58.46"/>
<polygon fill="lightslategrey" stroke="lightslategrey" points="281.3,-61.23 287.92,-52.97 277.59,-55.29 281.3,-61.23"/>
</g>
<!-- asyncio.protocols.BaseProtocol -->
<g id="node1" class="node">
<title>asyncio.protocols.BaseProtocol</title>
<path fill="#fbb4ae" stroke="#fbb4ae" stroke-width="2" d="M138,-190C138,-190 105,-190 105,-190 100,-190 95,-185 95,-180 95,-180 95,-170 95,-170 95,-165 100,-160 105,-160 105,-160 138,-160 138,-160 143,-160 148,-165 148,-170 148,-170 148,-180 148,-180 148,-185 143,-190 138,-190"/>
<text text-anchor="middle" x="121.5" y="-178" font-family="Arial" font-size="10.00">Base</text>
<text text-anchor="middle" x="121.5" y="-167" font-family="Arial" font-size="10.00">Protocol</text>
</g>
<!-- asyncio.protocols.SubprocessProtocol -->
<g id="node2" class="node">
<title>asyncio.protocols.SubprocessProtocol</title>
<path fill="#fbb4ae" stroke="#fbb4ae" stroke-width="2" d="M242,-190C242,-190 194,-190 194,-190 189,-190 184,-185 184,-180 184,-180 184,-170 184,-170 184,-165 189,-160 194,-160 194,-160 242,-160 242,-160 247,-160 252,-165 252,-170 252,-170 252,-180 252,-180 252,-185 247,-190 242,-190"/>
<text text-anchor="middle" x="218" y="-178" font-family="Arial" font-size="10.00">Subprocess</text>
<text text-anchor="middle" x="218" y="-167" font-family="Arial" font-size="10.00">Protocol</text>
</g>
<!-- builtins.object -->
<g id="node3" class="node">
<title>builtins.object</title>
<g id="a_node3"><a xlink:href="https://docs.python.org/3/library/functions.html#object" xlink:title="object" target="_top">
<path fill="#b3cde3" stroke="#b3cde3" stroke-width="2" d="M52.67,-153.5C52.67,-153.5 22.33,-153.5 22.33,-153.5 19.17,-153.5 16,-150.33 16,-147.17 16,-147.17 16,-140.83 16,-140.83 16,-137.67 19.17,-134.5 22.33,-134.5 22.33,-134.5 52.67,-134.5 52.67,-134.5 55.83,-134.5 59,-137.67 59,-140.83 59,-140.83 59,-147.17 59,-147.17 59,-150.33 55.83,-153.5 52.67,-153.5"/>
<text text-anchor="middle" x="37.5" y="-141.5" font-family="Arial" font-size="10.00">object</text>
</a>
</g>
</g>
<!-- supriya.realtime.protocols.AsyncProcessProtocol -->
<g id="node4" class="node">
<title>supriya.realtime.protocols.AsyncProcessProtocol</title>
<g id="a_node4"><a xlink:href="../api/supriya/realtime/protocols.html#supriya.realtime.protocols.AsyncProcessProtocol" xlink:title="Async\nProcess\nProtocol" target="_top">
<path fill="black" stroke="black" stroke-width="2" d="M329,-116.5C329,-116.5 300,-116.5 300,-116.5 294,-116.5 288,-110.5 288,-104.5 288,-104.5 288,-87.5 288,-87.5 288,-81.5 294,-75.5 300,-75.5 300,-75.5 329,-75.5 329,-75.5 335,-75.5 341,-81.5 341,-87.5 341,-87.5 341,-104.5 341,-104.5 341,-110.5 335,-116.5 329,-116.5"/>
<text text-anchor="middle" x="314.5" y="-104.5" font-family="Arial" font-size="10.00" fill="white">Async</text>
<text text-anchor="middle" x="314.5" y="-93.5" font-family="Arial" font-size="10.00" fill="white">Process</text>
<text text-anchor="middle" x="314.5" y="-82.5" font-family="Arial" font-size="10.00" fill="white">Protocol</text>
</a>
</g>
</g>
<!-- supriya.realtime.protocols.ProcessProtocol -->
<g id="node5" class="node">
<title>supriya.realtime.protocols.ProcessProtocol</title>
<g id="a_node5"><a xlink:href="../api/supriya/realtime/protocols.html#supriya.realtime.protocols.ProcessProtocol" xlink:title="Process\nProtocol" target="_top">
<path fill="black" stroke="black" stroke-width="2" d="M234.5,-111C234.5,-111 201.5,-111 201.5,-111 196.5,-111 191.5,-106 191.5,-101 191.5,-101 191.5,-91 191.5,-91 191.5,-86 196.5,-81 201.5,-81 201.5,-81 234.5,-81 234.5,-81 239.5,-81 244.5,-86 244.5,-91 244.5,-91 244.5,-101 244.5,-101 244.5,-106 239.5,-111 234.5,-111"/>
<text text-anchor="middle" x="218" y="-99" font-family="Arial" font-size="10.00" fill="white">Process</text>
<text text-anchor="middle" x="218" y="-88" font-family="Arial" font-size="10.00" fill="white">Protocol</text>
</a>
</g>
</g>
<!-- supriya.realtime.protocols.SyncProcessProtocol -->
<g id="node6" class="node">
<title>supriya.realtime.protocols.SyncProcessProtocol</title>
<g id="a_node6"><a xlink:href="../api/supriya/realtime/protocols.html#supriya.realtime.protocols.SyncProcessProtocol" xlink:title="Sync\nProcess\nProtocol" target="_top">
<path fill="black" stroke="black" stroke-width="2" d="M329,-57.5C329,-57.5 300,-57.5 300,-57.5 294,-57.5 288,-51.5 288,-45.5 288,-45.5 288,-28.5 288,-28.5 288,-22.5 294,-16.5 300,-16.5 300,-16.5 329,-16.5 329,-16.5 335,-16.5 341,-22.5 341,-28.5 341,-28.5 341,-45.5 341,-45.5 341,-51.5 335,-57.5 329,-57.5"/>
<text text-anchor="middle" x="314.5" y="-45.5" font-family="Arial" font-size="10.00" fill="white">Sync</text>
<text text-anchor="middle" x="314.5" y="-34.5" font-family="Arial" font-size="10.00" fill="white">Process</text>
<text text-anchor="middle" x="314.5" y="-23.5" font-family="Arial" font-size="10.00" fill="white">Protocol</text>
</a>
</g>
</g>
</g>
</svg>
