<?xml version="1.0" encoding="UTF-8" standalone="no"?>
<!DOCTYPE svg PUBLIC "-//W3C//DTD SVG 1.1//EN"
 "http://www.w3.org/Graphics/SVG/1.1/DTD/svg11.dtd">
<!-- Generated by graphviz version 2.40.1 (20161225.0304)
 -->
<!-- Title: InheritanceGraph Pages: 1 -->
<svg width="651pt" height="374pt"
 viewBox="0.00 0.00 651.00 374.00" xmlns="http://www.w3.org/2000/svg" xmlns:xlink="http://www.w3.org/1999/xlink">
<g id="graph0" class="graph" transform="scale(1 1) rotate(0) translate(4 370)">
<title>InheritanceGraph</title>
<g id="clust1" class="cluster">
<title>cluster_enum</title>
<path fill="transparent" stroke="#bcd2ee" stroke-width="2" stroke-dasharray="5,2" d="M174,-180C174,-180 277,-180 277,-180 283,-180 289,-186 289,-192 289,-192 289,-233 289,-233 289,-239 283,-245 277,-245 277,-245 174,-245 174,-245 168,-245 162,-239 162,-233 162,-233 162,-192 162,-192 162,-186 168,-180 174,-180"/>
<text text-anchor="middle" x="225.5" y="-233" font-family="Arial" font-size="10.00" fill="#000000">enum</text>
</g>
<g id="clust2" class="cluster">
<title>cluster_supriya.midi</title>
<path fill="transparent" stroke="#bcd2ee" stroke-width="2" stroke-dasharray="5,2" d="M416,-8C416,-8 623,-8 623,-8 629,-8 635,-14 635,-20 635,-20 635,-302 635,-302 635,-308 629,-314 623,-314 623,-314 416,-314 416,-314 410,-314 404,-308 404,-302 404,-302 404,-20 404,-20 404,-14 410,-8 416,-8"/>
<text text-anchor="middle" x="519.5" y="-302" font-family="Arial" font-size="10.00" fill="#000000">supriya.midi</text>
</g>
<g id="clust3" class="cluster">
<title>cluster_supriya.system</title>
<path fill="transparent" stroke="#bcd2ee" stroke-width="2" stroke-dasharray="5,2" d="M93,-281C93,-281 205,-281 205,-281 211,-281 217,-287 217,-293 217,-293 217,-346 217,-346 217,-352 211,-358 205,-358 205,-358 93,-358 93,-358 87,-358 81,-352 81,-346 81,-346 81,-293 81,-293 81,-287 87,-281 93,-281"/>
<text text-anchor="middle" x="149" y="-346" font-family="Arial" font-size="10.00" fill="#000000">supriya.system</text>
</g>
<g id="clust4" class="cluster">
<title>cluster_uqbar.enums</title>
<path fill="transparent" stroke="#bcd2ee" stroke-width="2" stroke-dasharray="5,2" d="M321,-190C321,-190 372,-190 372,-190 378,-190 384,-196 384,-202 384,-202 384,-243 384,-243 384,-249 378,-255 372,-255 372,-255 321,-255 321,-255 315,-255 309,-249 309,-243 309,-243 309,-202 309,-202 309,-196 315,-190 321,-190"/>
<text text-anchor="middle" x="346.5" y="-243" font-family="Arial" font-size="10.00" fill="#000000">uqbar.enums</text>
</g>
<g id="clust5" class="cluster">
<title>cluster_builtins</title>
<path fill="transparent" stroke="#bcd2ee" stroke-width="2" stroke-dasharray="5,2" d="M20,-218C20,-218 118,-218 118,-218 124,-218 130,-224 130,-230 130,-230 130,-261 130,-261 130,-267 124,-273 118,-273 118,-273 20,-273 20,-273 14,-273 8,-267 8,-261 8,-261 8,-230 8,-230 8,-224 14,-218 20,-218"/>
<text text-anchor="middle" x="69" y="-261" font-family="Arial" font-size="10.00" fill="#000000">builtins</text>
</g>
<!-- enum.Enum&#45;&gt;enum.IntEnum -->
<g id="edge1" class="edge">
<title>enum.Enum&#45;&gt;enum.IntEnum</title>
<path fill="none" stroke="#778899" d="M206.1554,-199.2104C214.6599,-199.7773 224.9924,-200.4662 234.5036,-201.1002"/>
<polygon fill="#778899" stroke="#778899" points="234.5411,-204.6104 244.7518,-201.7835 235.0068,-197.6259 234.5411,-204.6104"/>
</g>
<!-- enum.IntEnum&#45;&gt;uqbar.enums.IntEnumeration -->
<g id="edge14" class="edge">
<title>enum.IntEnum&#45;&gt;uqbar.enums.IntEnumeration</title>
<path fill="none" stroke="#778899" d="M281.1183,-205.1699C288.7154,-206.0797 297.8693,-207.176 306.8896,-208.2562"/>
<polygon fill="#778899" stroke="#778899" points="306.5817,-211.7443 316.927,-209.4583 307.4142,-204.794 306.5817,-211.7443"/>
</g>
<!-- supriya.midi.MidiMessage.MidiMessage&#45;&gt;supriya.midi.ControllerChangeMessage.ControllerChangeMessage -->
<g id="edge2" class="edge">
<title>supriya.midi.MidiMessage.MidiMessage&#45;&gt;supriya.midi.ControllerChangeMessage.ControllerChangeMessage</title>
<path fill="none" stroke="#778899" d="M450.4219,-256.7684C453.2707,-253.8583 456.2281,-250.8357 459,-248 469.8281,-236.9225 481.7367,-224.7223 492.1035,-214.0961"/>
<polygon fill="#778899" stroke="#778899" points="494.8649,-216.2777 499.3422,-206.6753 489.8541,-211.3898 494.8649,-216.2777"/>
</g>
<!-- supriya.midi.MidiMessage.MidiMessage&#45;&gt;supriya.midi.NoteOffMessage.NoteOffMessage -->
<g id="edge3" class="edge">
<title>supriya.midi.MidiMessage.MidiMessage&#45;&gt;supriya.midi.NoteOffMessage.NoteOffMessage</title>
<path fill="none" stroke="#778899" d="M456.1904,-256.8299C467.1723,-249.5776 481.2185,-241.5118 495,-237 519.1227,-229.1028 547.7355,-226.4601 569.5202,-225.7344"/>
<polygon fill="#778899" stroke="#778899" points="569.6938,-229.2316 579.6163,-225.5175 569.5434,-222.2332 569.6938,-229.2316"/>
</g>
<!-- supriya.midi.MidiMessage.MidiMessage&#45;&gt;supriya.midi.NoteOnMessage.NoteOnMessage -->
<g id="edge4" class="edge">
<title>supriya.midi.MidiMessage.MidiMessage&#45;&gt;supriya.midi.NoteOnMessage.NoteOnMessage</title>
<path fill="none" stroke="#778899" d="M459.3463,-270.2967C467.5738,-269.709 476.9522,-269.0391 485.8159,-268.406"/>
<polygon fill="#778899" stroke="#778899" points="486.1596,-271.8905 495.8848,-267.6868 485.6608,-264.9083 486.1596,-271.8905"/>
</g>
<!-- supriya.system.SupriyaObject.SupriyaObject&#45;&gt;supriya.system.SupriyaValueObject.SupriyaValueObject -->
<g id="edge5" class="edge">
<title>supriya.system.SupriyaObject.SupriyaObject&#45;&gt;supriya.system.SupriyaValueObject.SupriyaValueObject</title>
<path fill="none" stroke="#778899" d="M131.3138,-307.8198C139.2025,-308.1232 148.316,-308.4737 156.8971,-308.8037"/>
<polygon fill="#778899" stroke="#778899" points="156.8548,-312.3046 166.982,-309.1916 157.1239,-305.3098 156.8548,-312.3046"/>
</g>
<!-- supriya.system.SupriyaValueObject.SupriyaValueObject&#45;&gt;supriya.midi.MidiMessage.MidiMessage -->
<g id="edge15" class="edge">
<title>supriya.system.SupriyaValueObject.SupriyaValueObject&#45;&gt;supriya.midi.MidiMessage.MidiMessage</title>
<path fill="none" stroke="#778899" d="M209.1017,-306.7601C252.0821,-300.1611 350.0816,-285.1147 401.9172,-277.1561"/>
<polygon fill="#778899" stroke="#778899" points="402.5872,-280.5944 411.9402,-275.6173 401.5249,-273.6754 402.5872,-280.5944"/>
</g>
<!-- uqbar.enums.IntEnumeration&#45;&gt;supriya.midi.LogicalControlMode.LogicalControlMode -->
<g id="edge16" class="edge">
<title>uqbar.enums.IntEnumeration&#45;&gt;supriya.midi.LogicalControlMode.LogicalControlMode</title>
<path fill="none" stroke="#778899" d="M376.1357,-214.6649C385.3942,-215.1851 395.6225,-215.7597 404.943,-216.2833"/>
<polygon fill="#778899" stroke="#778899" points="404.7997,-219.7807 414.9803,-216.8472 405.1924,-212.7917 404.7997,-219.7807"/>
</g>
<!-- builtins.int&#45;&gt;enum.IntEnum -->
<g id="edge7" class="edge">
<title>builtins.int&#45;&gt;enum.IntEnum</title>
<path fill="none" stroke="#778899" d="M122.294,-234.3063C142.2952,-231.4415 183.0602,-225.1471 217,-217 222.9281,-215.577 229.2175,-213.8265 235.1797,-212.0512"/>
<polygon fill="#778899" stroke="#778899" points="236.2562,-215.382 244.783,-209.0935 234.1958,-208.6921 236.2562,-215.382"/>
</g>
<!-- builtins.object&#45;&gt;enum.Enum -->
<g id="edge8" class="edge">
<title>builtins.object&#45;&gt;enum.Enum</title>
<path fill="none" stroke="#778899" d="M53.2345,-227.8386C61.6082,-224.4288 71.6743,-220.652 81,-218 107.3999,-210.4926 138.2837,-205.0664 160.0668,-201.7762"/>
<polygon fill="#778899" stroke="#778899" points="160.5792,-205.2386 169.9698,-200.3328 159.5695,-198.3117 160.5792,-205.2386"/>
</g>
<!-- builtins.object&#45;&gt;supriya.midi.Device.Device -->
<g id="edge9" class="edge">
<title>builtins.object&#45;&gt;supriya.midi.Device.Device</title>
<path fill="none" stroke="#778899" d="M45.1397,-226.3745C68.8936,-205.924 128.8237,-160 188,-160 188,-160 188,-160 263,-160 313.0771,-160 371.1946,-164.2521 405.573,-167.2109"/>
<polygon fill="#778899" stroke="#778899" points="405.5913,-170.7261 415.8604,-168.1191 406.207,-163.7532 405.5913,-170.7261"/>
</g>
<!-- builtins.object&#45;&gt;supriya.midi.LogicalControl.LogicalControl -->
<g id="edge10" class="edge">
<title>builtins.object&#45;&gt;supriya.midi.LogicalControl.LogicalControl</title>
<path fill="none" stroke="#778899" d="M38.8716,-226.385C45.8773,-211.9309 60.9004,-184.5388 81,-168 120.9716,-135.1097 136.2361,-122 188,-122 188,-122 188,-122 263,-122 312.4734,-122 369.8948,-124.0803 404.4262,-125.5573"/>
<polygon fill="#778899" stroke="#778899" points="404.6505,-129.0704 414.7943,-126.0122 404.9574,-122.0771 404.6505,-129.0704"/>
</g>
<!-- builtins.object&#45;&gt;supriya.midi.LogicalView.LogicalView -->
<g id="edge11" class="edge">
<title>builtins.object&#45;&gt;supriya.midi.LogicalView.LogicalView</title>
<path fill="none" stroke="#778899" d="M36.1939,-226.2982C40.28,-205.6043 52.5235,-156.6855 81,-128 117.5933,-91.138 136.0589,-81 188,-81 188,-81 188,-81 263,-81 312.7262,-81 370.5102,-80.1587 404.9838,-79.5674"/>
<polygon fill="#778899" stroke="#778899" points="405.3808,-83.0611 415.3176,-79.3856 405.2576,-76.0622 405.3808,-83.0611"/>
</g>
<!-- builtins.object&#45;&gt;supriya.midi.PhysicalControl.PhysicalControl -->
<g id="edge12" class="edge">
<title>builtins.object&#45;&gt;supriya.midi.PhysicalControl.PhysicalControl</title>
<path fill="none" stroke="#778899" d="M36.3502,-226.4966C42.2806,-196.8609 61.5661,-106.8112 81,-85 115.5536,-46.2195 136.0589,-38 188,-38 188,-38 188,-38 263,-38 312.0286,-38 368.8312,-35.142 403.455,-33.0783"/>
<polygon fill="#778899" stroke="#778899" points="403.6872,-36.5708 413.4551,-32.4674 403.2603,-29.5838 403.6872,-36.5708"/>
</g>
<!-- builtins.object&#45;&gt;supriya.system.SupriyaObject.SupriyaObject -->
<g id="edge13" class="edge">
<title>builtins.object&#45;&gt;supriya.system.SupriyaObject.SupriyaObject</title>
<path fill="none" stroke="#778899" d="M44.6823,-245.5754C55.3461,-255.6037 72.4634,-271.7007 86.4999,-284.9006"/>
<polygon fill="#778899" stroke="#778899" points="84.2379,-287.5779 93.9205,-291.8789 89.0334,-282.4785 84.2379,-287.5779"/>
</g>
<!-- builtins.object&#45;&gt;builtins.int -->
<g id="edge6" class="edge">
<title>builtins.object&#45;&gt;builtins.int</title>
<path fill="none" stroke="#778899" d="M53.1629,-236C63.6431,-236 76.7867,-236 87.794,-236"/>
<polygon fill="#778899" stroke="#778899" points="87.9115,-239.5001 97.9115,-236 87.9115,-232.5001 87.9115,-239.5001"/>
</g>
<!-- enum.Enum -->
<g id="node1" class="node">
<title>enum.Enum</title>
<g id="a_node1"><a xlink:href="https://docs.python.org/3.6/library/enum.html#enum.Enum" xlink:title="Enum" target="_top">
<path fill="#b3cde3" stroke="#b3cde3" stroke-width="2" d="M199.6667,-207.5C199.6667,-207.5 176.3333,-207.5 176.3333,-207.5 173.1667,-207.5 170,-204.3333 170,-201.1667 170,-201.1667 170,-194.8333 170,-194.8333 170,-191.6667 173.1667,-188.5 176.3333,-188.5 176.3333,-188.5 199.6667,-188.5 199.6667,-188.5 202.8333,-188.5 206,-191.6667 206,-194.8333 206,-194.8333 206,-201.1667 206,-201.1667 206,-204.3333 202.8333,-207.5 199.6667,-207.5"/>
<text text-anchor="middle" x="188" y="-195.5" font-family="Arial" font-size="10.00" fill="#000000">Enum</text>
</a>
</g>
</g>
<!-- enum.IntEnum -->
<g id="node2" class="node">
<title>enum.IntEnum</title>
<g id="a_node2"><a xlink:href="https://docs.python.org/3.6/library/enum.html#enum.IntEnum" xlink:title="Int\nEnum" target="_top">
<path fill="#b3cde3" stroke="#b3cde3" stroke-width="2" d="M271,-218C271,-218 255,-218 255,-218 250,-218 245,-213 245,-208 245,-208 245,-198 245,-198 245,-193 250,-188 255,-188 255,-188 271,-188 271,-188 276,-188 281,-193 281,-198 281,-198 281,-208 281,-208 281,-213 276,-218 271,-218"/>
<text text-anchor="middle" x="263" y="-206" font-family="Arial" font-size="10.00" fill="#000000">Int</text>
<text text-anchor="middle" x="263" y="-195" font-family="Arial" font-size="10.00" fill="#000000">Enum</text>
</a>
</g>
</g>
<!-- supriya.midi.ControllerChangeMessage.ControllerChangeMessage -->
<g id="node3" class="node">
<title>supriya.midi.ControllerChangeMessage.ControllerChangeMessage</title>
<g id="a_node3"><a xlink:href="../api/supriya/midi/ControllerChangeMessage.html#supriya.midi.ControllerChangeMessage.ControllerChangeMessage" xlink:title="Controller\nChange\nMessage" target="_top">
<path fill="#000000" stroke="#000000" stroke-width="2" d="M532,-206.5C532,-206.5 507,-206.5 507,-206.5 501,-206.5 495,-200.5 495,-194.5 495,-194.5 495,-177.5 495,-177.5 495,-171.5 501,-165.5 507,-165.5 507,-165.5 532,-165.5 532,-165.5 538,-165.5 544,-171.5 544,-177.5 544,-177.5 544,-194.5 544,-194.5 544,-200.5 538,-206.5 532,-206.5"/>
<text text-anchor="middle" x="519.5" y="-194.5" font-family="Arial" font-size="10.00" fill="#ffffff">Controller</text>
<text text-anchor="middle" x="519.5" y="-183.5" font-family="Arial" font-size="10.00" fill="#ffffff">Change</text>
<text text-anchor="middle" x="519.5" y="-172.5" font-family="Arial" font-size="10.00" fill="#ffffff">Message</text>
</a>
</g>
</g>
<!-- supriya.midi.Device.Device -->
<g id="node4" class="node">
<title>supriya.midi.Device.Device</title>
<g id="a_node4"><a xlink:href="../api/supriya/midi/Device.html#supriya.midi.Device.Device" xlink:title="Device" target="_top">
<path fill="#000000" stroke="#000000" stroke-width="2" d="M448.6667,-179.5C448.6667,-179.5 422.3333,-179.5 422.3333,-179.5 419.1667,-179.5 416,-176.3333 416,-173.1667 416,-173.1667 416,-166.8333 416,-166.8333 416,-163.6667 419.1667,-160.5 422.3333,-160.5 422.3333,-160.5 448.6667,-160.5 448.6667,-160.5 451.8333,-160.5 455,-163.6667 455,-166.8333 455,-166.8333 455,-173.1667 455,-173.1667 455,-176.3333 451.8333,-179.5 448.6667,-179.5"/>
<text text-anchor="middle" x="435.5" y="-167.5" font-family="Arial" font-size="10.00" fill="#ffffff">Device</text>
</a>
</g>
</g>
<!-- supriya.midi.LogicalControl.LogicalControl -->
<g id="node5" class="node">
<title>supriya.midi.LogicalControl.LogicalControl</title>
<g id="a_node5"><a xlink:href="../api/supriya/midi/LogicalControl.html#supriya.midi.LogicalControl.LogicalControl" xlink:title="Logical\nControl" target="_top">
<path fill="#000000" stroke="#000000" stroke-width="2" d="M446,-142C446,-142 425,-142 425,-142 420,-142 415,-137 415,-132 415,-132 415,-122 415,-122 415,-117 420,-112 425,-112 425,-112 446,-112 446,-112 451,-112 456,-117 456,-122 456,-122 456,-132 456,-132 456,-137 451,-142 446,-142"/>
<text text-anchor="middle" x="435.5" y="-130" font-family="Arial" font-size="10.00" fill="#ffffff">Logical</text>
<text text-anchor="middle" x="435.5" y="-119" font-family="Arial" font-size="10.00" fill="#ffffff">Control</text>
</a>
</g>
</g>
<!-- supriya.midi.LogicalControlMode.LogicalControlMode -->
<g id="node6" class="node">
<title>supriya.midi.LogicalControlMode.LogicalControlMode</title>
<g id="a_node6"><a xlink:href="../api/supriya/midi/LogicalControlMode.html#supriya.midi.LogicalControlMode.LogicalControlMode" xlink:title="Logical\nControl\nMode" target="_top">
<path fill="#000000" stroke="#000000" stroke-width="2" d="M444,-238.5C444,-238.5 427,-238.5 427,-238.5 421,-238.5 415,-232.5 415,-226.5 415,-226.5 415,-209.5 415,-209.5 415,-203.5 421,-197.5 427,-197.5 427,-197.5 444,-197.5 444,-197.5 450,-197.5 456,-203.5 456,-209.5 456,-209.5 456,-226.5 456,-226.5 456,-232.5 450,-238.5 444,-238.5"/>
<text text-anchor="middle" x="435.5" y="-226.5" font-family="Arial" font-size="10.00" fill="#ffffff">Logical</text>
<text text-anchor="middle" x="435.5" y="-215.5" font-family="Arial" font-size="10.00" fill="#ffffff">Control</text>
<text text-anchor="middle" x="435.5" y="-204.5" font-family="Arial" font-size="10.00" fill="#ffffff">Mode</text>
</a>
</g>
</g>
<!-- supriya.midi.LogicalView.LogicalView -->
<g id="node7" class="node">
<title>supriya.midi.LogicalView.LogicalView</title>
<g id="a_node7"><a xlink:href="../api/supriya/midi/LogicalView.html#supriya.midi.LogicalView.LogicalView" xlink:title="Logical\nView" target="_top">
<path fill="#000000" stroke="#000000" stroke-width="2" d="M445.5,-94C445.5,-94 425.5,-94 425.5,-94 420.5,-94 415.5,-89 415.5,-84 415.5,-84 415.5,-74 415.5,-74 415.5,-69 420.5,-64 425.5,-64 425.5,-64 445.5,-64 445.5,-64 450.5,-64 455.5,-69 455.5,-74 455.5,-74 455.5,-84 455.5,-84 455.5,-89 450.5,-94 445.5,-94"/>
<text text-anchor="middle" x="435.5" y="-82" font-family="Arial" font-size="10.00" fill="#ffffff">Logical</text>
<text text-anchor="middle" x="435.5" y="-71" font-family="Arial" font-size="10.00" fill="#ffffff">View</text>
</a>
</g>
</g>
<!-- supriya.midi.MidiMessage.MidiMessage -->
<g id="node8" class="node">
<title>supriya.midi.MidiMessage.MidiMessage</title>
<g id="a_node8"><a xlink:href="../api/supriya/midi/MidiMessage.html#supriya.midi.MidiMessage.MidiMessage" xlink:title="Midi\nMessage" target="_top">
<path fill="#000000" stroke="#000000" stroke-width="2" d="M449,-287C449,-287 422,-287 422,-287 417,-287 412,-282 412,-277 412,-277 412,-267 412,-267 412,-262 417,-257 422,-257 422,-257 449,-257 449,-257 454,-257 459,-262 459,-267 459,-267 459,-277 459,-277 459,-282 454,-287 449,-287"/>
<text text-anchor="middle" x="435.5" y="-275" font-family="Arial" font-size="10.00" fill="#ffffff">Midi</text>
<text text-anchor="middle" x="435.5" y="-264" font-family="Arial" font-size="10.00" fill="#ffffff">Message</text>
</a>
</g>
</g>
<!-- supriya.midi.NoteOffMessage.NoteOffMessage -->
<g id="node9" class="node">
<title>supriya.midi.NoteOffMessage.NoteOffMessage</title>
<g id="a_node9"><a xlink:href="../api/supriya/midi/NoteOffMessage.html#supriya.midi.NoteOffMessage.NoteOffMessage" xlink:title="Note\nOff\nMessage" target="_top">
<path fill="#000000" stroke="#000000" stroke-width="2" d="M615,-246.5C615,-246.5 592,-246.5 592,-246.5 586,-246.5 580,-240.5 580,-234.5 580,-234.5 580,-217.5 580,-217.5 580,-211.5 586,-205.5 592,-205.5 592,-205.5 615,-205.5 615,-205.5 621,-205.5 627,-211.5 627,-217.5 627,-217.5 627,-234.5 627,-234.5 627,-240.5 621,-246.5 615,-246.5"/>
<text text-anchor="middle" x="603.5" y="-234.5" font-family="Arial" font-size="10.00" fill="#ffffff">Note</text>
<text text-anchor="middle" x="603.5" y="-223.5" font-family="Arial" font-size="10.00" fill="#ffffff">Off</text>
<text text-anchor="middle" x="603.5" y="-212.5" font-family="Arial" font-size="10.00" fill="#ffffff">Message</text>
</a>
</g>
</g>
<!-- supriya.midi.NoteOnMessage.NoteOnMessage -->
<g id="node10" class="node">
<title>supriya.midi.NoteOnMessage.NoteOnMessage</title>
<g id="a_node10"><a xlink:href="../api/supriya/midi/NoteOnMessage.html#supriya.midi.NoteOnMessage.NoteOnMessage" xlink:title="Note\nOn\nMessage" target="_top">
<path fill="#000000" stroke="#000000" stroke-width="2" d="M531,-286.5C531,-286.5 508,-286.5 508,-286.5 502,-286.5 496,-280.5 496,-274.5 496,-274.5 496,-257.5 496,-257.5 496,-251.5 502,-245.5 508,-245.5 508,-245.5 531,-245.5 531,-245.5 537,-245.5 543,-251.5 543,-257.5 543,-257.5 543,-274.5 543,-274.5 543,-280.5 537,-286.5 531,-286.5"/>
<text text-anchor="middle" x="519.5" y="-274.5" font-family="Arial" font-size="10.00" fill="#ffffff">Note</text>
<text text-anchor="middle" x="519.5" y="-263.5" font-family="Arial" font-size="10.00" fill="#ffffff">On</text>
<text text-anchor="middle" x="519.5" y="-252.5" font-family="Arial" font-size="10.00" fill="#ffffff">Message</text>
</a>
</g>
</g>
<!-- supriya.midi.PhysicalControl.PhysicalControl -->
<g id="node11" class="node">
<title>supriya.midi.PhysicalControl.PhysicalControl</title>
<g id="a_node11"><a xlink:href="../api/supriya/midi/PhysicalControl.html#supriya.midi.PhysicalControl.PhysicalControl" xlink:title="Physical\nControl" target="_top">
<path fill="#000000" stroke="#000000" stroke-width="2" d="M447.5,-46C447.5,-46 423.5,-46 423.5,-46 418.5,-46 413.5,-41 413.5,-36 413.5,-36 413.5,-26 413.5,-26 413.5,-21 418.5,-16 423.5,-16 423.5,-16 447.5,-16 447.5,-16 452.5,-16 457.5,-21 457.5,-26 457.5,-26 457.5,-36 457.5,-36 457.5,-41 452.5,-46 447.5,-46"/>
<text text-anchor="middle" x="435.5" y="-34" font-family="Arial" font-size="10.00" fill="#ffffff">Physical</text>
<text text-anchor="middle" x="435.5" y="-23" font-family="Arial" font-size="10.00" fill="#ffffff">Control</text>
</a>
</g>
</g>
<!-- supriya.system.SupriyaObject.SupriyaObject -->
<g id="node12" class="node">
<title>supriya.system.SupriyaObject.SupriyaObject</title>
<g id="a_node12"><a xlink:href="../api/supriya/midi/../system/SupriyaObject.html#supriya.system.SupriyaObject.SupriyaObject" xlink:title="Supriya\nObject" target="_top">
<path fill="#decbe4" stroke="#decbe4" stroke-width="2" d="M121,-322C121,-322 99,-322 99,-322 94,-322 89,-317 89,-312 89,-312 89,-302 89,-302 89,-297 94,-292 99,-292 99,-292 121,-292 121,-292 126,-292 131,-297 131,-302 131,-302 131,-312 131,-312 131,-317 126,-322 121,-322"/>
<text text-anchor="middle" x="110" y="-310" font-family="Arial" font-size="10.00" fill="#000000">Supriya</text>
<text text-anchor="middle" x="110" y="-299" font-family="Arial" font-size="10.00" fill="#000000">Object</text>
</a>
</g>
</g>
<!-- supriya.system.SupriyaValueObject.SupriyaValueObject -->
<g id="node13" class="node">
<title>supriya.system.SupriyaValueObject.SupriyaValueObject</title>
<g id="a_node13"><a xlink:href="../api/supriya/midi/../system/SupriyaValueObject.html#supriya.system.SupriyaValueObject.SupriyaValueObject" xlink:title="Supriya\nValue\nObject" target="_top">
<path fill="#decbe4" stroke="#decbe4" stroke-width="2" d="M197,-330.5C197,-330.5 179,-330.5 179,-330.5 173,-330.5 167,-324.5 167,-318.5 167,-318.5 167,-301.5 167,-301.5 167,-295.5 173,-289.5 179,-289.5 179,-289.5 197,-289.5 197,-289.5 203,-289.5 209,-295.5 209,-301.5 209,-301.5 209,-318.5 209,-318.5 209,-324.5 203,-330.5 197,-330.5"/>
<text text-anchor="middle" x="188" y="-318.5" font-family="Arial" font-size="10.00" fill="#000000">Supriya</text>
<text text-anchor="middle" x="188" y="-307.5" font-family="Arial" font-size="10.00" fill="#000000">Value</text>
<text text-anchor="middle" x="188" y="-296.5" font-family="Arial" font-size="10.00" fill="#000000">Object</text>
</a>
</g>
</g>
<!-- uqbar.enums.IntEnumeration -->
<g id="node14" class="node">
<title>uqbar.enums.IntEnumeration</title>
<path fill="#fed9a6" stroke="#fed9a6" stroke-width="2" d="M366,-228C366,-228 327,-228 327,-228 322,-228 317,-223 317,-218 317,-218 317,-208 317,-208 317,-203 322,-198 327,-198 327,-198 366,-198 366,-198 371,-198 376,-203 376,-208 376,-208 376,-218 376,-218 376,-223 371,-228 366,-228"/>
<text text-anchor="middle" x="346.5" y="-216" font-family="Arial" font-size="10.00" fill="#000000">Int</text>
<text text-anchor="middle" x="346.5" y="-205" font-family="Arial" font-size="10.00" fill="#000000">Enumeration</text>
</g>
<!-- builtins.int -->
<g id="node15" class="node">
<title>builtins.int</title>
<g id="a_node15"><a xlink:href="https://docs.python.org/3.6/library/functions.html#int" xlink:title="int" target="_top">
<path fill="#fbb4ae" stroke="#fbb4ae" stroke-width="2" d="M115.6667,-245.5C115.6667,-245.5 104.3333,-245.5 104.3333,-245.5 101.1667,-245.5 98,-242.3333 98,-239.1667 98,-239.1667 98,-232.8333 98,-232.8333 98,-229.6667 101.1667,-226.5 104.3333,-226.5 104.3333,-226.5 115.6667,-226.5 115.6667,-226.5 118.8333,-226.5 122,-229.6667 122,-232.8333 122,-232.8333 122,-239.1667 122,-239.1667 122,-242.3333 118.8333,-245.5 115.6667,-245.5"/>
<text text-anchor="middle" x="110" y="-233.5" font-family="Arial" font-size="10.00" fill="#000000">int</text>
</a>
</g>
</g>
<!-- builtins.object -->
<g id="node16" class="node">
<title>builtins.object</title>
<g id="a_node16"><a xlink:href="https://docs.python.org/3.6/library/functions.html#object" xlink:title="object" target="_top">
<path fill="#fbb4ae" stroke="#fbb4ae" stroke-width="2" d="M46.6667,-245.5C46.6667,-245.5 22.3333,-245.5 22.3333,-245.5 19.1667,-245.5 16,-242.3333 16,-239.1667 16,-239.1667 16,-232.8333 16,-232.8333 16,-229.6667 19.1667,-226.5 22.3333,-226.5 22.3333,-226.5 46.6667,-226.5 46.6667,-226.5 49.8333,-226.5 53,-229.6667 53,-232.8333 53,-232.8333 53,-239.1667 53,-239.1667 53,-242.3333 49.8333,-245.5 46.6667,-245.5"/>
<text text-anchor="middle" x="34.5" y="-233.5" font-family="Arial" font-size="10.00" fill="#000000">object</text>
</a>
</g>
</g>
</g>
</svg>
