<?xml version="1.0" encoding="UTF-8" standalone="no"?>
<!DOCTYPE svg PUBLIC "-//W3C//DTD SVG 1.1//EN"
 "http://www.w3.org/Graphics/SVG/1.1/DTD/svg11.dtd">
<!-- Generated by graphviz version 2.44.1 (20200629.0846)
 -->
<!-- Title: InheritanceGraph Pages: 1 -->
<svg width="558pt" height="329pt"
 viewBox="0.00 0.00 558.40 329.00" xmlns="http://www.w3.org/2000/svg" xmlns:xlink="http://www.w3.org/1999/xlink">
<g id="graph0" class="graph" transform="scale(1 1) rotate(0) translate(4 325)">
<title>InheritanceGraph</title>
<g id="clust1" class="cluster">
<title>cluster_builtins</title>
<path fill="transparent" stroke="#bcd2ee" stroke-width="2" stroke-dasharray="5,2" d="M20,-132C20,-132 55,-132 55,-132 61,-132 67,-138 67,-144 67,-144 67,-175 67,-175 67,-181 61,-187 55,-187 55,-187 20,-187 20,-187 14,-187 8,-181 8,-175 8,-175 8,-144 8,-144 8,-138 14,-132 20,-132"/>
<text text-anchor="middle" x="37.5" y="-175" font-family="Arial" font-size="10.00">builtins</text>
</g>
<g id="clust2" class="cluster">
<title>cluster_supriya.patterns.bases</title>
<path fill="transparent" stroke="#bcd2ee" stroke-width="2" stroke-dasharray="5,2" d="M271,-129C271,-129 362.4,-129 362.4,-129 368.4,-129 374.4,-135 374.4,-141 374.4,-141 374.4,-178 374.4,-178 374.4,-184 368.4,-190 362.4,-190 362.4,-190 271,-190 271,-190 265,-190 259,-184 259,-178 259,-178 259,-141 259,-141 259,-135 265,-129 271,-129"/>
<text text-anchor="middle" x="316.7" y="-178" font-family="Arial" font-size="10.00">supriya.patterns.bases</text>
</g>
<g id="clust3" class="cluster">
<title>cluster_supriya.patterns.events</title>
<path fill="transparent" stroke="#bcd2ee" stroke-width="2" stroke-dasharray="5,2" d="M443.4,-8C443.4,-8 538.4,-8 538.4,-8 544.4,-8 550.4,-14 550.4,-20 550.4,-20 550.4,-301 550.4,-301 550.4,-307 544.4,-313 538.4,-313 538.4,-313 443.4,-313 443.4,-313 437.4,-313 431.4,-307 431.4,-301 431.4,-301 431.4,-20 431.4,-20 431.4,-14 437.4,-8 443.4,-8"/>
<text text-anchor="middle" x="490.9" y="-301" font-family="Arial" font-size="10.00">supriya.patterns.events</text>
</g>
<g id="clust4" class="cluster">
<title>cluster_supriya.system</title>
<path fill="transparent" stroke="#bcd2ee" stroke-width="2" stroke-dasharray="5,2" d="M99,-121C99,-121 227,-121 227,-121 233,-121 239,-127 239,-133 239,-133 239,-186 239,-186 239,-192 233,-198 227,-198 227,-198 99,-198 99,-198 93,-198 87,-192 87,-186 87,-186 87,-133 87,-133 87,-127 93,-121 99,-121"/>
<text text-anchor="middle" x="163" y="-186" font-family="Arial" font-size="10.00">supriya.system</text>
</g>
<!-- builtins.object&#45;&gt;supriya.system.SupriyaObject -->
<g id="edge2" class="edge">
<title>builtins.object&#45;&gt;supriya.system.SupriyaObject</title>
<path fill="none" stroke="lightslategrey" d="M59.23,-150C66.98,-150 76,-150 84.66,-150"/>
<polygon fill="lightslategrey" stroke="lightslategrey" points="84.91,-153.5 94.91,-150 84.91,-146.5 84.91,-153.5"/>
</g>
<!-- supriya.patterns.bases.Event&#45;&gt;supriya.patterns.events.BusEvent -->
<g id="edge3" class="edge">
<title>supriya.patterns.bases.Event&#45;&gt;supriya.patterns.events.BusEvent</title>
<path fill="none" stroke="lightslategrey" d="M329.64,-162.46C349.31,-182.44 390.46,-221.94 431.4,-247 440.23,-252.41 450.49,-257.1 459.91,-260.88"/>
<polygon fill="lightslategrey" stroke="lightslategrey" points="458.73,-264.17 469.32,-264.46 461.22,-257.63 458.73,-264.17"/>
</g>
<!-- supriya.patterns.bases.Event&#45;&gt;supriya.patterns.events.CompositeEvent -->
<g id="edge4" class="edge">
<title>supriya.patterns.bases.Event&#45;&gt;supriya.patterns.events.CompositeEvent</title>
<path fill="none" stroke="lightslategrey" d="M338.62,-159.12C361.39,-169.03 398.92,-185.28 431.4,-199 436.99,-201.36 442.9,-203.83 448.72,-206.26"/>
<polygon fill="lightslategrey" stroke="lightslategrey" points="447.78,-209.66 458.36,-210.25 450.46,-203.19 447.78,-209.66"/>
</g>
<!-- supriya.patterns.bases.Event&#45;&gt;supriya.patterns.events.GroupEvent -->
<g id="edge5" class="edge">
<title>supriya.patterns.bases.Event&#45;&gt;supriya.patterns.events.GroupEvent</title>
<path fill="none" stroke="lightslategrey" d="M345.28,-154.02C376.29,-158.53 426.48,-165.84 458.7,-170.53"/>
<polygon fill="lightslategrey" stroke="lightslategrey" points="458.48,-174.04 468.88,-172.01 459.49,-167.11 458.48,-174.04"/>
</g>
<!-- supriya.patterns.bases.Event&#45;&gt;supriya.patterns.events.NoteEvent -->
<g id="edge6" class="edge">
<title>supriya.patterns.bases.Event&#45;&gt;supriya.patterns.events.NoteEvent</title>
<path fill="none" stroke="lightslategrey" d="M345.28,-146.3C376.46,-142.13 427.03,-135.35 459.23,-131.04"/>
<polygon fill="lightslategrey" stroke="lightslategrey" points="459.94,-134.48 469.39,-129.68 459.01,-127.54 459.94,-134.48"/>
</g>
<!-- supriya.patterns.bases.Event&#45;&gt;supriya.patterns.events.NullEvent -->
<g id="edge7" class="edge">
<title>supriya.patterns.bases.Event&#45;&gt;supriya.patterns.events.NullEvent</title>
<path fill="none" stroke="lightslategrey" d="M339.1,-141.15C369.53,-128.57 425.44,-105.45 459.82,-91.23"/>
<polygon fill="lightslategrey" stroke="lightslategrey" points="461.43,-94.35 469.33,-87.3 458.75,-87.88 461.43,-94.35"/>
</g>
<!-- supriya.patterns.bases.Event&#45;&gt;supriya.patterns.events.SynthEvent -->
<g id="edge8" class="edge">
<title>supriya.patterns.bases.Event&#45;&gt;supriya.patterns.events.SynthEvent</title>
<path fill="none" stroke="lightslategrey" d="M329.69,-137.82C349.44,-118.28 390.68,-79.64 431.4,-55 440.25,-49.64 450.52,-44.95 459.94,-41.18"/>
<polygon fill="lightslategrey" stroke="lightslategrey" points="461.26,-44.42 469.35,-37.58 458.76,-37.88 461.26,-44.42"/>
</g>
<!-- supriya.system.SupriyaObject&#45;&gt;supriya.system.SupriyaValueObject -->
<g id="edge1" class="edge">
<title>supriya.system.SupriyaObject&#45;&gt;supriya.system.SupriyaValueObject</title>
<path fill="none" stroke="lightslategrey" d="M145.3,-150C153.22,-150 162.17,-150 170.69,-150"/>
<polygon fill="lightslategrey" stroke="lightslategrey" points="170.76,-153.5 180.76,-150 170.76,-146.5 170.76,-153.5"/>
</g>
<!-- supriya.system.SupriyaValueObject&#45;&gt;supriya.patterns.bases.Event -->
<g id="edge9" class="edge">
<title>supriya.system.SupriyaValueObject&#45;&gt;supriya.patterns.bases.Event</title>
<path fill="none" stroke="lightslategrey" d="M231.12,-150C244.44,-150 261.3,-150 276.46,-150"/>
<polygon fill="lightslategrey" stroke="lightslategrey" points="276.62,-153.5 286.62,-150 276.62,-146.5 276.62,-153.5"/>
</g>
<!-- builtins.object -->
<g id="node1" class="node">
<title>builtins.object</title>
<g id="a_node1"><a xlink:href="https://docs.python.org/3/library/functions.html#object" xlink:title="object" target="_top">
<path fill="#fbb4ae" stroke="#fbb4ae" stroke-width="2" d="M52.67,-159.5C52.67,-159.5 22.33,-159.5 22.33,-159.5 19.17,-159.5 16,-156.33 16,-153.17 16,-153.17 16,-146.83 16,-146.83 16,-143.67 19.17,-140.5 22.33,-140.5 22.33,-140.5 52.67,-140.5 52.67,-140.5 55.83,-140.5 59,-143.67 59,-146.83 59,-146.83 59,-153.17 59,-153.17 59,-156.33 55.83,-159.5 52.67,-159.5"/>
<text text-anchor="middle" x="37.5" y="-147.5" font-family="Arial" font-size="10.00">object</text>
</a>
</g>
</g>
<!-- supriya.patterns.bases.Event -->
<g id="node2" class="node">
<title>supriya.patterns.bases.Event</title>
<g id="a_node2"><a xlink:href="../api/supriya/patterns/bases.html#supriya.patterns.bases.Event" xlink:title="Event" target="_top">
<ellipse fill="none" stroke="#b3cde3" stroke-width="2" cx="316.7" cy="-150" rx="29.9" ry="13.37"/>
<text text-anchor="middle" x="316.7" y="-147.5" font-family="Arial" font-size="10.00">Event</text>
</a>
</g>
</g>
<!-- supriya.patterns.events.BusEvent -->
<g id="node3" class="node">
<title>supriya.patterns.events.BusEvent</title>
<g id="a_node3"><a xlink:href="../api/supriya/patterns/events.html#supriya.patterns.events.BusEvent" xlink:title="Bus\nEvent" target="_top">
<path fill="black" stroke="black" stroke-width="2" d="M501.4,-286C501.4,-286 479.4,-286 479.4,-286 474.4,-286 469.4,-281 469.4,-276 469.4,-276 469.4,-266 469.4,-266 469.4,-261 474.4,-256 479.4,-256 479.4,-256 501.4,-256 501.4,-256 506.4,-256 511.4,-261 511.4,-266 511.4,-266 511.4,-276 511.4,-276 511.4,-281 506.4,-286 501.4,-286"/>
<text text-anchor="middle" x="490.4" y="-274" font-family="Arial" font-size="10.00" fill="white">Bus</text>
<text text-anchor="middle" x="490.4" y="-263" font-family="Arial" font-size="10.00" fill="white">Event</text>
</a>
</g>
</g>
<!-- supriya.patterns.events.CompositeEvent -->
<g id="node4" class="node">
<title>supriya.patterns.events.CompositeEvent</title>
<g id="a_node4"><a xlink:href="../api/supriya/patterns/events.html#supriya.patterns.events.CompositeEvent" xlink:title="Composite\nEvent" target="_top">
<path fill="black" stroke="black" stroke-width="2" d="M512.4,-238C512.4,-238 468.4,-238 468.4,-238 463.4,-238 458.4,-233 458.4,-228 458.4,-228 458.4,-218 458.4,-218 458.4,-213 463.4,-208 468.4,-208 468.4,-208 512.4,-208 512.4,-208 517.4,-208 522.4,-213 522.4,-218 522.4,-218 522.4,-228 522.4,-228 522.4,-233 517.4,-238 512.4,-238"/>
<text text-anchor="middle" x="490.4" y="-226" font-family="Arial" font-size="10.00" fill="white">Composite</text>
<text text-anchor="middle" x="490.4" y="-215" font-family="Arial" font-size="10.00" fill="white">Event</text>
</a>
</g>
</g>
<!-- supriya.patterns.events.GroupEvent -->
<g id="node5" class="node">
<title>supriya.patterns.events.GroupEvent</title>
<g id="a_node5"><a xlink:href="../api/supriya/patterns/events.html#supriya.patterns.events.GroupEvent" xlink:title="Group\nEvent" target="_top">
<path fill="black" stroke="black" stroke-width="2" d="M501.9,-190C501.9,-190 478.9,-190 478.9,-190 473.9,-190 468.9,-185 468.9,-180 468.9,-180 468.9,-170 468.9,-170 468.9,-165 473.9,-160 478.9,-160 478.9,-160 501.9,-160 501.9,-160 506.9,-160 511.9,-165 511.9,-170 511.9,-170 511.9,-180 511.9,-180 511.9,-185 506.9,-190 501.9,-190"/>
<text text-anchor="middle" x="490.4" y="-178" font-family="Arial" font-size="10.00" fill="white">Group</text>
<text text-anchor="middle" x="490.4" y="-167" font-family="Arial" font-size="10.00" fill="white">Event</text>
</a>
</g>
</g>
<!-- supriya.patterns.events.NoteEvent -->
<g id="node6" class="node">
<title>supriya.patterns.events.NoteEvent</title>
<g id="a_node6"><a xlink:href="../api/supriya/patterns/events.html#supriya.patterns.events.NoteEvent" xlink:title="Note\nEvent" target="_top">
<path fill="black" stroke="black" stroke-width="2" d="M501.4,-142C501.4,-142 479.4,-142 479.4,-142 474.4,-142 469.4,-137 469.4,-132 469.4,-132 469.4,-122 469.4,-122 469.4,-117 474.4,-112 479.4,-112 479.4,-112 501.4,-112 501.4,-112 506.4,-112 511.4,-117 511.4,-122 511.4,-122 511.4,-132 511.4,-132 511.4,-137 506.4,-142 501.4,-142"/>
<text text-anchor="middle" x="490.4" y="-130" font-family="Arial" font-size="10.00" fill="white">Note</text>
<text text-anchor="middle" x="490.4" y="-119" font-family="Arial" font-size="10.00" fill="white">Event</text>
</a>
</g>
</g>
<!-- supriya.patterns.events.NullEvent -->
<g id="node7" class="node">
<title>supriya.patterns.events.NullEvent</title>
<g id="a_node7"><a xlink:href="../api/supriya/patterns/events.html#supriya.patterns.events.NullEvent" xlink:title="Null\nEvent" target="_top">
<path fill="black" stroke="black" stroke-width="2" d="M501.4,-94C501.4,-94 479.4,-94 479.4,-94 474.4,-94 469.4,-89 469.4,-84 469.4,-84 469.4,-74 469.4,-74 469.4,-69 474.4,-64 479.4,-64 479.4,-64 501.4,-64 501.4,-64 506.4,-64 511.4,-69 511.4,-74 511.4,-74 511.4,-84 511.4,-84 511.4,-89 506.4,-94 501.4,-94"/>
<text text-anchor="middle" x="490.4" y="-82" font-family="Arial" font-size="10.00" fill="white">Null</text>
<text text-anchor="middle" x="490.4" y="-71" font-family="Arial" font-size="10.00" fill="white">Event</text>
</a>
</g>
</g>
<!-- supriya.patterns.events.SynthEvent -->
<g id="node8" class="node">
<title>supriya.patterns.events.SynthEvent</title>
<g id="a_node8"><a xlink:href="../api/supriya/patterns/events.html#supriya.patterns.events.SynthEvent" xlink:title="Synth\nEvent" target="_top">
<path fill="black" stroke="black" stroke-width="2" d="M501.4,-46C501.4,-46 479.4,-46 479.4,-46 474.4,-46 469.4,-41 469.4,-36 469.4,-36 469.4,-26 469.4,-26 469.4,-21 474.4,-16 479.4,-16 479.4,-16 501.4,-16 501.4,-16 506.4,-16 511.4,-21 511.4,-26 511.4,-26 511.4,-36 511.4,-36 511.4,-41 506.4,-46 501.4,-46"/>
<text text-anchor="middle" x="490.4" y="-34" font-family="Arial" font-size="10.00" fill="white">Synth</text>
<text text-anchor="middle" x="490.4" y="-23" font-family="Arial" font-size="10.00" fill="white">Event</text>
</a>
</g>
</g>
<!-- supriya.system.SupriyaObject -->
<g id="node9" class="node">
<title>supriya.system.SupriyaObject</title>
<g id="a_node9"><a xlink:href="../api/supriya/patterns/../system.html#supriya.system.SupriyaObject" xlink:title="Supriya\nObject" target="_top">
<path fill="#decbe4" stroke="#decbe4" stroke-width="2" d="M135,-165C135,-165 105,-165 105,-165 100,-165 95,-160 95,-155 95,-155 95,-145 95,-145 95,-140 100,-135 105,-135 105,-135 135,-135 135,-135 140,-135 145,-140 145,-145 145,-145 145,-155 145,-155 145,-160 140,-165 135,-165"/>
<text text-anchor="middle" x="120" y="-153" font-family="Arial" font-size="10.00">Supriya</text>
<text text-anchor="middle" x="120" y="-142" font-family="Arial" font-size="10.00">Object</text>
</a>
</g>
</g>
<!-- supriya.system.SupriyaValueObject -->
<g id="node10" class="node">
<title>supriya.system.SupriyaValueObject</title>
<g id="a_node10"><a xlink:href="../api/supriya/patterns/../system.html#supriya.system.SupriyaValueObject" xlink:title="Supriya\nValue\nObject" target="_top">
<path fill="#decbe4" stroke="#decbe4" stroke-width="2" d="M219,-170.5C219,-170.5 193,-170.5 193,-170.5 187,-170.5 181,-164.5 181,-158.5 181,-158.5 181,-141.5 181,-141.5 181,-135.5 187,-129.5 193,-129.5 193,-129.5 219,-129.5 219,-129.5 225,-129.5 231,-135.5 231,-141.5 231,-141.5 231,-158.5 231,-158.5 231,-164.5 225,-170.5 219,-170.5"/>
<text text-anchor="middle" x="206" y="-158.5" font-family="Arial" font-size="10.00">Supriya</text>
<text text-anchor="middle" x="206" y="-147.5" font-family="Arial" font-size="10.00">Value</text>
<text text-anchor="middle" x="206" y="-136.5" font-family="Arial" font-size="10.00">Object</text>
</a>
</g>
</g>
</g>
</svg>
