<?xml version="1.0" encoding="UTF-8" standalone="no"?>
<!DOCTYPE svg PUBLIC "-//W3C//DTD SVG 1.1//EN"
 "http://www.w3.org/Graphics/SVG/1.1/DTD/svg11.dtd">
<!-- Generated by graphviz version 2.40.1 (20161225.0304)
 -->
<!-- Title: InheritanceGraph Pages: 1 -->
<svg width="394pt" height="305pt"
 viewBox="0.00 0.00 394.00 305.00" xmlns="http://www.w3.org/2000/svg" xmlns:xlink="http://www.w3.org/1999/xlink">
<g id="graph0" class="graph" transform="scale(1 1) rotate(0) translate(4 301)">
<title>InheritanceGraph</title>
<g id="clust1" class="cluster">
<title>cluster_builtins</title>
<path fill="transparent" stroke="#bcd2ee" stroke-width="2" stroke-dasharray="5,2" d="M20,-89C20,-89 49,-89 49,-89 55,-89 61,-95 61,-101 61,-101 61,-132 61,-132 61,-138 55,-144 49,-144 49,-144 20,-144 20,-144 14,-144 8,-138 8,-132 8,-132 8,-101 8,-101 8,-95 14,-89 20,-89"/>
<text text-anchor="middle" x="34.5" y="-132" font-family="Arial" font-size="10.00" fill="#000000">builtins</text>
</g>
<g id="clust2" class="cluster">
<title>cluster_supriya.realtime</title>
<path fill="transparent" stroke="#bcd2ee" stroke-width="2" stroke-dasharray="5,2" d="M329,-223C329,-223 374,-223 374,-223 380,-223 386,-229 386,-235 386,-235 386,-266 386,-266 386,-272 380,-278 374,-278 374,-278 329,-278 329,-278 323,-278 317,-272 317,-266 317,-266 317,-235 317,-235 317,-229 323,-223 329,-223"/>
<text text-anchor="middle" x="351.5" y="-266" font-family="Arial" font-size="10.00" fill="#000000">supriya.realtime</text>
</g>
<g id="clust3" class="cluster">
<title>cluster_supriya.system</title>
<path fill="transparent" stroke="#bcd2ee" stroke-width="2" stroke-dasharray="5,2" d="M93,-212C93,-212 205,-212 205,-212 211,-212 217,-218 217,-224 217,-224 217,-277 217,-277 217,-283 211,-289 205,-289 205,-289 93,-289 93,-289 87,-289 81,-283 81,-277 81,-277 81,-224 81,-224 81,-218 87,-212 93,-212"/>
<text text-anchor="middle" x="149" y="-277" font-family="Arial" font-size="10.00" fill="#000000">supriya.system</text>
</g>
<g id="clust4" class="cluster">
<title>cluster_supriya.time</title>
<path fill="transparent" stroke="#bcd2ee" stroke-width="2" stroke-dasharray="5,2" d="M249,-8C249,-8 285,-8 285,-8 291,-8 297,-14 297,-20 297,-20 297,-266 297,-266 297,-272 291,-278 285,-278 285,-278 249,-278 249,-278 243,-278 237,-272 237,-266 237,-266 237,-20 237,-20 237,-14 243,-8 249,-8"/>
<text text-anchor="middle" x="267" y="-266" font-family="Arial" font-size="10.00" fill="#000000">supriya.time</text>
</g>
<!-- builtins.object&#45;&gt;supriya.system.SupriyaObject.SupriyaObject -->
<g id="edge2" class="edge">
<title>builtins.object&#45;&gt;supriya.system.SupriyaObject.SupriyaObject</title>
<path fill="none" stroke="#778899" d="M40.1748,-116.6208C51.8829,-136.4703 79.0235,-182.4836 95.8098,-210.9424"/>
<polygon fill="#778899" stroke="#778899" points="92.9731,-213.0224 101.0683,-219.8575 99.0024,-209.4661 92.9731,-213.0224"/>
</g>
<!-- builtins.object&#45;&gt;supriya.time.IntervalTreeDriver.IntervalTreeDriver -->
<g id="edge3" class="edge">
<title>builtins.object&#45;&gt;supriya.time.IntervalTreeDriver.IntervalTreeDriver</title>
<path fill="none" stroke="#778899" d="M53.1334,-107C93.0888,-107 187.3396,-107 236.2883,-107"/>
<polygon fill="#778899" stroke="#778899" points="236.2922,-110.5001 246.2921,-107 236.2921,-103.5001 236.2922,-110.5001"/>
</g>
<!-- builtins.object&#45;&gt;supriya.time.IntervalTreeDriverEx.IntervalTreeDriverEx -->
<g id="edge4" class="edge">
<title>builtins.object&#45;&gt;supriya.time.IntervalTreeDriverEx.IntervalTreeDriverEx</title>
<path fill="none" stroke="#778899" d="M53.1334,-101.7907C93.1726,-90.5969 187.7351,-64.1601 236.5956,-50.5002"/>
<polygon fill="#778899" stroke="#778899" points="237.6038,-53.8526 246.2921,-47.7893 235.719,-47.1111 237.6038,-53.8526"/>
</g>
<!-- supriya.system.SupriyaObject.SupriyaObject&#45;&gt;supriya.system.SupriyaValueObject.SupriyaValueObject -->
<g id="edge1" class="edge">
<title>supriya.system.SupriyaObject.SupriyaObject&#45;&gt;supriya.system.SupriyaValueObject.SupriyaValueObject</title>
<path fill="none" stroke="#778899" d="M131.3138,-236.6395C139.2025,-237.2463 148.316,-237.9474 156.8971,-238.6075"/>
<polygon fill="#778899" stroke="#778899" points="156.743,-242.1059 166.982,-239.3832 157.2799,-235.1265 156.743,-242.1059"/>
</g>
<!-- supriya.system.SupriyaObject.SupriyaObject&#45;&gt;supriya.time.IntervalTree.IntervalTree -->
<g id="edge5" class="edge">
<title>supriya.system.SupriyaObject.SupriyaObject&#45;&gt;supriya.time.IntervalTree.IntervalTree</title>
<path fill="none" stroke="#778899" d="M131.2285,-224.991C141.7748,-220.3939 154.8356,-215.2531 167,-212 189.8249,-205.896 216.3339,-202.3387 236.3213,-200.3385"/>
<polygon fill="#778899" stroke="#778899" points="236.7718,-203.8119 246.4067,-199.4052 236.1267,-196.8417 236.7718,-203.8119"/>
</g>
<!-- supriya.system.SupriyaObject.SupriyaObject&#45;&gt;supriya.time.Moment.Moment -->
<g id="edge6" class="edge">
<title>supriya.system.SupriyaObject.SupriyaObject&#45;&gt;supriya.time.Moment.Moment</title>
<path fill="none" stroke="#778899" d="M131.1301,-220.058C141.6531,-212.9371 154.7227,-204.5632 167,-198 189.0989,-186.1863 215.1334,-175.0745 235.0977,-167.1069"/>
<polygon fill="#778899" stroke="#778899" points="236.6241,-170.2676 244.6486,-163.3496 234.0614,-163.7535 236.6241,-170.2676"/>
</g>
<!-- supriya.system.SupriyaValueObject.SupriyaValueObject&#45;&gt;supriya.time.Interval.Interval -->
<g id="edge7" class="edge">
<title>supriya.system.SupriyaValueObject.SupriyaValueObject&#45;&gt;supriya.time.Interval.Interval</title>
<path fill="none" stroke="#778899" d="M209.1706,-241C217.4488,-241 227.1071,-241 236.1332,-241"/>
<polygon fill="#778899" stroke="#778899" points="236.3179,-244.5001 246.3179,-241 236.3178,-237.5001 236.3179,-244.5001"/>
</g>
<!-- supriya.time.Interval.Interval&#45;&gt;supriya.realtime.Block.Block -->
<g id="edge8" class="edge">
<title>supriya.time.Interval.Interval&#45;&gt;supriya.realtime.Block.Block</title>
<path fill="none" stroke="#778899" d="M287.8876,-241C298.7389,-241 312.1415,-241 323.842,-241"/>
<polygon fill="#778899" stroke="#778899" points="323.9868,-244.5001 333.9867,-241 323.9867,-237.5001 323.9868,-244.5001"/>
</g>
<!-- builtins.object -->
<g id="node1" class="node">
<title>builtins.object</title>
<g id="a_node1"><a xlink:href="https://docs.python.org/3.6/library/functions.html#object" xlink:title="object" target="_top">
<path fill="#fbb4ae" stroke="#fbb4ae" stroke-width="2" d="M46.6667,-116.5C46.6667,-116.5 22.3333,-116.5 22.3333,-116.5 19.1667,-116.5 16,-113.3333 16,-110.1667 16,-110.1667 16,-103.8333 16,-103.8333 16,-100.6667 19.1667,-97.5 22.3333,-97.5 22.3333,-97.5 46.6667,-97.5 46.6667,-97.5 49.8333,-97.5 53,-100.6667 53,-103.8333 53,-103.8333 53,-110.1667 53,-110.1667 53,-113.3333 49.8333,-116.5 46.6667,-116.5"/>
<text text-anchor="middle" x="34.5" y="-104.5" font-family="Arial" font-size="10.00" fill="#000000">object</text>
</a>
</g>
</g>
<!-- supriya.realtime.Block.Block -->
<g id="node2" class="node">
<title>supriya.realtime.Block.Block</title>
<g id="a_node2"><a xlink:href="../api/supriya/time/../realtime/Block.html#supriya.realtime.Block.Block" xlink:title="Block" target="_top">
<path fill="#b3cde3" stroke="#b3cde3" stroke-width="2" d="M362.6667,-250.5C362.6667,-250.5 340.3333,-250.5 340.3333,-250.5 337.1667,-250.5 334,-247.3333 334,-244.1667 334,-244.1667 334,-237.8333 334,-237.8333 334,-234.6667 337.1667,-231.5 340.3333,-231.5 340.3333,-231.5 362.6667,-231.5 362.6667,-231.5 365.8333,-231.5 369,-234.6667 369,-237.8333 369,-237.8333 369,-244.1667 369,-244.1667 369,-247.3333 365.8333,-250.5 362.6667,-250.5"/>
<text text-anchor="middle" x="351.5" y="-238.5" font-family="Arial" font-size="10.00" fill="#000000">Block</text>
</a>
</g>
</g>
<!-- supriya.system.SupriyaObject.SupriyaObject -->
<g id="node3" class="node">
<title>supriya.system.SupriyaObject.SupriyaObject</title>
<g id="a_node3"><a xlink:href="../api/supriya/time/../system/SupriyaObject.html#supriya.system.SupriyaObject.SupriyaObject" xlink:title="Supriya\nObject" target="_top">
<path fill="#ccebc5" stroke="#ccebc5" stroke-width="2" d="M121,-250C121,-250 99,-250 99,-250 94,-250 89,-245 89,-240 89,-240 89,-230 89,-230 89,-225 94,-220 99,-220 99,-220 121,-220 121,-220 126,-220 131,-225 131,-230 131,-230 131,-240 131,-240 131,-245 126,-250 121,-250"/>
<text text-anchor="middle" x="110" y="-238" font-family="Arial" font-size="10.00" fill="#000000">Supriya</text>
<text text-anchor="middle" x="110" y="-227" font-family="Arial" font-size="10.00" fill="#000000">Object</text>
</a>
</g>
</g>
<!-- supriya.system.SupriyaValueObject.SupriyaValueObject -->
<g id="node4" class="node">
<title>supriya.system.SupriyaValueObject.SupriyaValueObject</title>
<g id="a_node4"><a xlink:href="../api/supriya/time/../system/SupriyaValueObject.html#supriya.system.SupriyaValueObject.SupriyaValueObject" xlink:title="Supriya\nValue\nObject" target="_top">
<path fill="#ccebc5" stroke="#ccebc5" stroke-width="2" d="M197,-261.5C197,-261.5 179,-261.5 179,-261.5 173,-261.5 167,-255.5 167,-249.5 167,-249.5 167,-232.5 167,-232.5 167,-226.5 173,-220.5 179,-220.5 179,-220.5 197,-220.5 197,-220.5 203,-220.5 209,-226.5 209,-232.5 209,-232.5 209,-249.5 209,-249.5 209,-255.5 203,-261.5 197,-261.5"/>
<text text-anchor="middle" x="188" y="-249.5" font-family="Arial" font-size="10.00" fill="#000000">Supriya</text>
<text text-anchor="middle" x="188" y="-238.5" font-family="Arial" font-size="10.00" fill="#000000">Value</text>
<text text-anchor="middle" x="188" y="-227.5" font-family="Arial" font-size="10.00" fill="#000000">Object</text>
</a>
</g>
</g>
<!-- supriya.time.Interval.Interval -->
<g id="node5" class="node">
<title>supriya.time.Interval.Interval</title>
<g id="a_node5"><a xlink:href="../api/supriya/time/Interval.html#supriya.time.Interval.Interval" xlink:title="Interval" target="_top">
<path fill="#000000" stroke="#000000" stroke-width="2" d="M281.1667,-250.5C281.1667,-250.5 252.8333,-250.5 252.8333,-250.5 249.6667,-250.5 246.5,-247.3333 246.5,-244.1667 246.5,-244.1667 246.5,-237.8333 246.5,-237.8333 246.5,-234.6667 249.6667,-231.5 252.8333,-231.5 252.8333,-231.5 281.1667,-231.5 281.1667,-231.5 284.3333,-231.5 287.5,-234.6667 287.5,-237.8333 287.5,-237.8333 287.5,-244.1667 287.5,-244.1667 287.5,-247.3333 284.3333,-250.5 281.1667,-250.5"/>
<text text-anchor="middle" x="267" y="-238.5" font-family="Arial" font-size="10.00" fill="#ffffff">Interval</text>
</a>
</g>
</g>
<!-- supriya.time.IntervalTree.IntervalTree -->
<g id="node6" class="node">
<title>supriya.time.IntervalTree.IntervalTree</title>
<g id="a_node6"><a xlink:href="../api/supriya/time/IntervalTree.html#supriya.time.IntervalTree.IntervalTree" xlink:title="Interval\nTree" target="_top">
<path fill="#000000" stroke="#000000" stroke-width="2" d="M277.5,-213C277.5,-213 256.5,-213 256.5,-213 251.5,-213 246.5,-208 246.5,-203 246.5,-203 246.5,-193 246.5,-193 246.5,-188 251.5,-183 256.5,-183 256.5,-183 277.5,-183 277.5,-183 282.5,-183 287.5,-188 287.5,-193 287.5,-193 287.5,-203 287.5,-203 287.5,-208 282.5,-213 277.5,-213"/>
<text text-anchor="middle" x="267" y="-201" font-family="Arial" font-size="10.00" fill="#ffffff">Interval</text>
<text text-anchor="middle" x="267" y="-190" font-family="Arial" font-size="10.00" fill="#ffffff">Tree</text>
</a>
</g>
</g>
<!-- supriya.time.IntervalTreeDriver.IntervalTreeDriver -->
<g id="node7" class="node">
<title>supriya.time.IntervalTreeDriver.IntervalTreeDriver</title>
<g id="a_node7"><a xlink:href="../api/supriya/time/IntervalTreeDriver.html#supriya.time.IntervalTreeDriver.IntervalTreeDriver" xlink:title="Interval\nTree\nDriver" target="_top">
<path fill="#000000" stroke="#000000" stroke-width="2" d="M275.5,-127.5C275.5,-127.5 258.5,-127.5 258.5,-127.5 252.5,-127.5 246.5,-121.5 246.5,-115.5 246.5,-115.5 246.5,-98.5 246.5,-98.5 246.5,-92.5 252.5,-86.5 258.5,-86.5 258.5,-86.5 275.5,-86.5 275.5,-86.5 281.5,-86.5 287.5,-92.5 287.5,-98.5 287.5,-98.5 287.5,-115.5 287.5,-115.5 287.5,-121.5 281.5,-127.5 275.5,-127.5"/>
<text text-anchor="middle" x="267" y="-115.5" font-family="Arial" font-size="10.00" fill="#ffffff">Interval</text>
<text text-anchor="middle" x="267" y="-104.5" font-family="Arial" font-size="10.00" fill="#ffffff">Tree</text>
<text text-anchor="middle" x="267" y="-93.5" font-family="Arial" font-size="10.00" fill="#ffffff">Driver</text>
</a>
</g>
</g>
<!-- supriya.time.IntervalTreeDriverEx.IntervalTreeDriverEx -->
<g id="node8" class="node">
<title>supriya.time.IntervalTreeDriverEx.IntervalTreeDriverEx</title>
<g id="a_node8"><a xlink:href="../api/supriya/time/IntervalTreeDriverEx.html#supriya.time.IntervalTreeDriverEx.IntervalTreeDriverEx" xlink:title="Interval\nTree\nDriver\nEx" target="_top">
<path fill="#000000" stroke="#000000" stroke-width="2" d="M275.5,-68C275.5,-68 258.5,-68 258.5,-68 252.5,-68 246.5,-62 246.5,-56 246.5,-56 246.5,-28 246.5,-28 246.5,-22 252.5,-16 258.5,-16 258.5,-16 275.5,-16 275.5,-16 281.5,-16 287.5,-22 287.5,-28 287.5,-28 287.5,-56 287.5,-56 287.5,-62 281.5,-68 275.5,-68"/>
<text text-anchor="middle" x="267" y="-56" font-family="Arial" font-size="10.00" fill="#ffffff">Interval</text>
<text text-anchor="middle" x="267" y="-45" font-family="Arial" font-size="10.00" fill="#ffffff">Tree</text>
<text text-anchor="middle" x="267" y="-34" font-family="Arial" font-size="10.00" fill="#ffffff">Driver</text>
<text text-anchor="middle" x="267" y="-23" font-family="Arial" font-size="10.00" fill="#ffffff">Ex</text>
</a>
</g>
</g>
<!-- supriya.time.Moment.Moment -->
<g id="node9" class="node">
<title>supriya.time.Moment.Moment</title>
<g id="a_node9"><a xlink:href="../api/supriya/time/Moment.html#supriya.time.Moment.Moment" xlink:title="Moment" target="_top">
<path fill="#000000" stroke="#000000" stroke-width="2" d="M282.6667,-164.5C282.6667,-164.5 251.3333,-164.5 251.3333,-164.5 248.1667,-164.5 245,-161.3333 245,-158.1667 245,-158.1667 245,-151.8333 245,-151.8333 245,-148.6667 248.1667,-145.5 251.3333,-145.5 251.3333,-145.5 282.6667,-145.5 282.6667,-145.5 285.8333,-145.5 289,-148.6667 289,-151.8333 289,-151.8333 289,-158.1667 289,-158.1667 289,-161.3333 285.8333,-164.5 282.6667,-164.5"/>
<text text-anchor="middle" x="267" y="-152.5" font-family="Arial" font-size="10.00" fill="#ffffff">Moment</text>
</a>
</g>
</g>
</g>
</svg>
