<?xml version="1.0" encoding="UTF-8" standalone="no"?>
<!DOCTYPE svg PUBLIC "-//W3C//DTD SVG 1.1//EN"
 "http://www.w3.org/Graphics/SVG/1.1/DTD/svg11.dtd">
<!-- Generated by graphviz version 2.44.1 (20200629.0846)
 -->
<!-- Title: InheritanceGraph Pages: 1 -->
<svg width="506pt" height="198pt"
 viewBox="0.00 0.00 506.00 198.00" xmlns="http://www.w3.org/2000/svg" xmlns:xlink="http://www.w3.org/1999/xlink">
<g id="graph0" class="graph" transform="scale(1 1) rotate(0) translate(4 194)">
<title>InheritanceGraph</title>
<g id="clust1" class="cluster">
<title>cluster_builtins</title>
<path fill="transparent" stroke="#bcd2ee" stroke-width="2" stroke-dasharray="5,2" d="M20,-110C20,-110 55,-110 55,-110 61,-110 67,-116 67,-122 67,-122 67,-153 67,-153 67,-159 61,-165 55,-165 55,-165 20,-165 20,-165 14,-165 8,-159 8,-153 8,-153 8,-122 8,-122 8,-116 14,-110 20,-110"/>
<text text-anchor="middle" x="37.5" y="-153" font-family="Arial" font-size="10.00">builtins</text>
</g>
<g id="clust2" class="cluster">
<title>cluster_supriya.intervals</title>
<path fill="transparent" stroke="#bcd2ee" stroke-width="2" stroke-dasharray="5,2" d="M271,-116C271,-116 335,-116 335,-116 341,-116 347,-122 347,-128 347,-128 347,-159 347,-159 347,-165 341,-171 335,-171 335,-171 271,-171 271,-171 265,-171 259,-165 259,-159 259,-159 259,-128 259,-128 259,-122 265,-116 271,-116"/>
<text text-anchor="middle" x="303" y="-159" font-family="Arial" font-size="10.00">supriya.intervals</text>
</g>
<g id="clust3" class="cluster">
<title>cluster_supriya.realtime.allocators</title>
<path fill="transparent" stroke="#bcd2ee" stroke-width="2" stroke-dasharray="5,2" d="M379,-8C379,-8 486,-8 486,-8 492,-8 498,-14 498,-20 498,-20 498,-159 498,-159 498,-165 492,-171 486,-171 486,-171 379,-171 379,-171 373,-171 367,-165 367,-159 367,-159 367,-20 367,-20 367,-14 373,-8 379,-8"/>
<text text-anchor="middle" x="432.5" y="-159" font-family="Arial" font-size="10.00">supriya.realtime.allocators</text>
</g>
<g id="clust4" class="cluster">
<title>cluster_supriya.system</title>
<path fill="transparent" stroke="#bcd2ee" stroke-width="2" stroke-dasharray="5,2" d="M99,-105C99,-105 227,-105 227,-105 233,-105 239,-111 239,-117 239,-117 239,-170 239,-170 239,-176 233,-182 227,-182 227,-182 99,-182 99,-182 93,-182 87,-176 87,-170 87,-170 87,-117 87,-117 87,-111 93,-105 99,-105"/>
<text text-anchor="middle" x="163" y="-170" font-family="Arial" font-size="10.00">supriya.system</text>
</g>
<!-- builtins.object&#45;&gt;supriya.system.SupriyaObject -->
<g id="edge2" class="edge">
<title>builtins.object&#45;&gt;supriya.system.SupriyaObject</title>
<path fill="none" stroke="lightslategrey" d="M59.23,-128C66.98,-128 76,-128 84.66,-128"/>
<polygon fill="lightslategrey" stroke="lightslategrey" points="84.91,-131.5 94.91,-128 84.91,-124.5 84.91,-131.5"/>
</g>
<!-- supriya.intervals.Interval.Interval&#45;&gt;supriya.realtime.allocators.Block -->
<g id="edge3" class="edge">
<title>supriya.intervals.Interval.Interval&#45;&gt;supriya.realtime.allocators.Block</title>
<path fill="none" stroke="lightslategrey" d="M327.28,-134C348.25,-134 378.91,-134 401.55,-134"/>
<polygon fill="lightslategrey" stroke="lightslategrey" points="401.63,-137.5 411.63,-134 401.63,-130.5 401.63,-137.5"/>
</g>
<!-- supriya.system.SupriyaObject&#45;&gt;supriya.realtime.allocators.BlockAllocator -->
<g id="edge4" class="edge">
<title>supriya.system.SupriyaObject&#45;&gt;supriya.realtime.allocators.BlockAllocator</title>
<path fill="none" stroke="lightslategrey" d="M145.29,-116.72C156,-112.26 168.89,-107.59 181,-105 255.6,-89.03 345.38,-88.36 394.65,-89.53"/>
<polygon fill="lightslategrey" stroke="lightslategrey" points="394.72,-93.03 404.82,-89.81 394.92,-86.03 394.72,-93.03"/>
</g>
<!-- supriya.system.SupriyaObject&#45;&gt;supriya.realtime.allocators.NodeIdAllocator -->
<g id="edge5" class="edge">
<title>supriya.system.SupriyaObject&#45;&gt;supriya.realtime.allocators.NodeIdAllocator</title>
<path fill="none" stroke="lightslategrey" d="M142.34,-112.87C153.42,-105.63 167.45,-97.38 181,-92 253.82,-63.06 344.9,-47.92 394.72,-41.28"/>
<polygon fill="lightslategrey" stroke="lightslategrey" points="395.24,-44.74 404.71,-39.99 394.34,-37.8 395.24,-44.74"/>
</g>
<!-- supriya.system.SupriyaObject&#45;&gt;supriya.system.SupriyaValueObject -->
<g id="edge1" class="edge">
<title>supriya.system.SupriyaObject&#45;&gt;supriya.system.SupriyaValueObject</title>
<path fill="none" stroke="lightslategrey" d="M145.3,-129.74C153.22,-130.3 162.17,-130.94 170.69,-131.55"/>
<polygon fill="lightslategrey" stroke="lightslategrey" points="170.53,-135.05 180.76,-132.27 171.03,-128.06 170.53,-135.05"/>
</g>
<!-- supriya.system.SupriyaValueObject&#45;&gt;supriya.intervals.Interval.Interval -->
<g id="edge6" class="edge">
<title>supriya.system.SupriyaValueObject&#45;&gt;supriya.intervals.Interval.Interval</title>
<path fill="none" stroke="lightslategrey" d="M231.34,-134C242.42,-134 255.72,-134 267.75,-134"/>
<polygon fill="lightslategrey" stroke="lightslategrey" points="267.9,-137.5 277.9,-134 267.9,-130.5 267.9,-137.5"/>
</g>
<!-- builtins.object -->
<g id="node1" class="node">
<title>builtins.object</title>
<g id="a_node1"><a xlink:href="https://docs.python.org/3/library/functions.html#object" xlink:title="object" target="_top">
<path fill="#fbb4ae" stroke="#fbb4ae" stroke-width="2" d="M52.67,-137.5C52.67,-137.5 22.33,-137.5 22.33,-137.5 19.17,-137.5 16,-134.33 16,-131.17 16,-131.17 16,-124.83 16,-124.83 16,-121.67 19.17,-118.5 22.33,-118.5 22.33,-118.5 52.67,-118.5 52.67,-118.5 55.83,-118.5 59,-121.67 59,-124.83 59,-124.83 59,-131.17 59,-131.17 59,-134.33 55.83,-137.5 52.67,-137.5"/>
<text text-anchor="middle" x="37.5" y="-125.5" font-family="Arial" font-size="10.00">object</text>
</a>
</g>
</g>
<!-- supriya.intervals.Interval.Interval -->
<g id="node2" class="node">
<title>supriya.intervals.Interval.Interval</title>
<g id="a_node2"><a xlink:href="../api/supriya/realtime/../intervals/Interval.html#supriya.intervals.Interval.Interval" xlink:title="Interval" target="_top">
<path fill="#b3cde3" stroke="#b3cde3" stroke-width="2" d="M320.67,-143.5C320.67,-143.5 284.33,-143.5 284.33,-143.5 281.17,-143.5 278,-140.33 278,-137.17 278,-137.17 278,-130.83 278,-130.83 278,-127.67 281.17,-124.5 284.33,-124.5 284.33,-124.5 320.67,-124.5 320.67,-124.5 323.83,-124.5 327,-127.67 327,-130.83 327,-130.83 327,-137.17 327,-137.17 327,-140.33 323.83,-143.5 320.67,-143.5"/>
<text text-anchor="middle" x="302.5" y="-131.5" font-family="Arial" font-size="10.00">Interval</text>
</a>
</g>
</g>
<!-- supriya.realtime.allocators.Block -->
<g id="node3" class="node">
<title>supriya.realtime.allocators.Block</title>
<g id="a_node3"><a xlink:href="../api/supriya/realtime/allocators.html#supriya.realtime.allocators.Block" xlink:title="Block" target="_top">
<path fill="black" stroke="black" stroke-width="2" d="M446.67,-143.5C446.67,-143.5 418.33,-143.5 418.33,-143.5 415.17,-143.5 412,-140.33 412,-137.17 412,-137.17 412,-130.83 412,-130.83 412,-127.67 415.17,-124.5 418.33,-124.5 418.33,-124.5 446.67,-124.5 446.67,-124.5 449.83,-124.5 453,-127.67 453,-130.83 453,-130.83 453,-137.17 453,-137.17 453,-140.33 449.83,-143.5 446.67,-143.5"/>
<text text-anchor="middle" x="432.5" y="-131.5" font-family="Arial" font-size="10.00" fill="white">Block</text>
</a>
</g>
</g>
<!-- supriya.realtime.allocators.BlockAllocator -->
<g id="node4" class="node">
<title>supriya.realtime.allocators.BlockAllocator</title>
<g id="a_node4"><a xlink:href="../api/supriya/realtime/allocators.html#supriya.realtime.allocators.BlockAllocator" xlink:title="Block\nAllocator" target="_top">
<path fill="black" stroke="black" stroke-width="2" d="M450,-106C450,-106 415,-106 415,-106 410,-106 405,-101 405,-96 405,-96 405,-86 405,-86 405,-81 410,-76 415,-76 415,-76 450,-76 450,-76 455,-76 460,-81 460,-86 460,-86 460,-96 460,-96 460,-101 455,-106 450,-106"/>
<text text-anchor="middle" x="432.5" y="-94" font-family="Arial" font-size="10.00" fill="white">Block</text>
<text text-anchor="middle" x="432.5" y="-83" font-family="Arial" font-size="10.00" fill="white">Allocator</text>
</a>
</g>
</g>
<!-- supriya.realtime.allocators.NodeIdAllocator -->
<g id="node5" class="node">
<title>supriya.realtime.allocators.NodeIdAllocator</title>
<g id="a_node5"><a xlink:href="../api/supriya/realtime/allocators.html#supriya.realtime.allocators.NodeIdAllocator" xlink:title="Node\nId\nAllocator" target="_top">
<path fill="black" stroke="black" stroke-width="2" d="M448,-57.5C448,-57.5 417,-57.5 417,-57.5 411,-57.5 405,-51.5 405,-45.5 405,-45.5 405,-28.5 405,-28.5 405,-22.5 411,-16.5 417,-16.5 417,-16.5 448,-16.5 448,-16.5 454,-16.5 460,-22.5 460,-28.5 460,-28.5 460,-45.5 460,-45.5 460,-51.5 454,-57.5 448,-57.5"/>
<text text-anchor="middle" x="432.5" y="-45.5" font-family="Arial" font-size="10.00" fill="white">Node</text>
<text text-anchor="middle" x="432.5" y="-34.5" font-family="Arial" font-size="10.00" fill="white">Id</text>
<text text-anchor="middle" x="432.5" y="-23.5" font-family="Arial" font-size="10.00" fill="white">Allocator</text>
</a>
</g>
</g>
<!-- supriya.system.SupriyaObject -->
<g id="node6" class="node">
<title>supriya.system.SupriyaObject</title>
<g id="a_node6"><a xlink:href="../api/supriya/realtime/../system.html#supriya.system.SupriyaObject" xlink:title="Supriya\nObject" target="_top">
<path fill="#decbe4" stroke="#decbe4" stroke-width="2" d="M135,-143C135,-143 105,-143 105,-143 100,-143 95,-138 95,-133 95,-133 95,-123 95,-123 95,-118 100,-113 105,-113 105,-113 135,-113 135,-113 140,-113 145,-118 145,-123 145,-123 145,-133 145,-133 145,-138 140,-143 135,-143"/>
<text text-anchor="middle" x="120" y="-131" font-family="Arial" font-size="10.00">Supriya</text>
<text text-anchor="middle" x="120" y="-120" font-family="Arial" font-size="10.00">Object</text>
</a>
</g>
</g>
<!-- supriya.system.SupriyaValueObject -->
<g id="node7" class="node">
<title>supriya.system.SupriyaValueObject</title>
<g id="a_node7"><a xlink:href="../api/supriya/realtime/../system.html#supriya.system.SupriyaValueObject" xlink:title="Supriya\nValue\nObject" target="_top">
<path fill="#decbe4" stroke="#decbe4" stroke-width="2" d="M219,-154.5C219,-154.5 193,-154.5 193,-154.5 187,-154.5 181,-148.5 181,-142.5 181,-142.5 181,-125.5 181,-125.5 181,-119.5 187,-113.5 193,-113.5 193,-113.5 219,-113.5 219,-113.5 225,-113.5 231,-119.5 231,-125.5 231,-125.5 231,-142.5 231,-142.5 231,-148.5 225,-154.5 219,-154.5"/>
<text text-anchor="middle" x="206" y="-142.5" font-family="Arial" font-size="10.00">Supriya</text>
<text text-anchor="middle" x="206" y="-131.5" font-family="Arial" font-size="10.00">Value</text>
<text text-anchor="middle" x="206" y="-120.5" font-family="Arial" font-size="10.00">Object</text>
</a>
</g>
</g>
</g>
</svg>
