<?xml version="1.0" encoding="UTF-8" standalone="no"?>
<!DOCTYPE svg PUBLIC "-//W3C//DTD SVG 1.1//EN"
 "http://www.w3.org/Graphics/SVG/1.1/DTD/svg11.dtd">
<!-- Generated by graphviz version 2.40.1 (20161225.0304)
 -->
<!-- Title: InheritanceGraph Pages: 1 -->
<svg width="506pt" height="111pt"
 viewBox="0.00 0.00 506.23 111.00" xmlns="http://www.w3.org/2000/svg" xmlns:xlink="http://www.w3.org/1999/xlink">
<g id="graph0" class="graph" transform="scale(1 1) rotate(0) translate(4 107)">
<title>InheritanceGraph</title>
<g id="clust1" class="cluster">
<title>cluster_builtins</title>
<path fill="transparent" stroke="#bcd2ee" stroke-width="2" stroke-dasharray="5,2" d="M20,-24C20,-24 49,-24 49,-24 55,-24 61,-30 61,-36 61,-36 61,-67 61,-67 61,-73 55,-79 49,-79 49,-79 20,-79 20,-79 14,-79 8,-73 8,-67 8,-67 8,-36 8,-36 8,-30 14,-24 20,-24"/>
<text text-anchor="middle" x="34.5" y="-67" font-family="Arial" font-size="10.00" fill="#000000">builtins</text>
</g>
<g id="clust2" class="cluster">
<title>cluster_supriya.commands</title>
<path fill="transparent" stroke="#bcd2ee" stroke-width="2" stroke-dasharray="5,2" d="M249,-8C249,-8 478.2254,-8 478.2254,-8 484.2254,-8 490.2254,-14 490.2254,-20 490.2254,-20 490.2254,-83 490.2254,-83 490.2254,-89 484.2254,-95 478.2254,-95 478.2254,-95 249,-95 249,-95 243,-95 237,-89 237,-83 237,-83 237,-20 237,-20 237,-14 243,-8 249,-8"/>
<text text-anchor="middle" x="363.6127" y="-83" font-family="Arial" font-size="10.00" fill="#000000">supriya.commands</text>
</g>
<g id="clust3" class="cluster">
<title>cluster_supriya.system</title>
<path fill="transparent" stroke="#bcd2ee" stroke-width="2" stroke-dasharray="5,2" d="M93,-13C93,-13 205,-13 205,-13 211,-13 217,-19 217,-25 217,-25 217,-78 217,-78 217,-84 211,-90 205,-90 205,-90 93,-90 93,-90 87,-90 81,-84 81,-78 81,-78 81,-25 81,-25 81,-19 87,-13 93,-13"/>
<text text-anchor="middle" x="149" y="-78" font-family="Arial" font-size="10.00" fill="#000000">supriya.system</text>
</g>
<!-- builtins.object&#45;&gt;supriya.system.SupriyaObject.SupriyaObject -->
<g id="edge4" class="edge">
<title>builtins.object&#45;&gt;supriya.system.SupriyaObject.SupriyaObject</title>
<path fill="none" stroke="#778899" d="M53.1629,-42C60.862,-42 69.9986,-42 78.6696,-42"/>
<polygon fill="#778899" stroke="#778899" points="78.8875,-45.5001 88.8875,-42 78.8874,-38.5001 78.8875,-45.5001"/>
</g>
<!-- supriya.commands.Request.Request&#45;&gt;supriya.commands.SynthDefFreeRequest.SynthDefFreeRequest -->
<g id="edge1" class="edge">
<title>supriya.commands.Request.Request&#45;&gt;supriya.commands.SynthDefFreeRequest.SynthDefFreeRequest</title>
<path fill="none" stroke="#778899" d="M402.28,-42C410.6085,-42 419.625,-42 428.0088,-42"/>
<polygon fill="#778899" stroke="#778899" points="428.1904,-45.5001 438.1904,-42 428.1903,-38.5001 428.1904,-45.5001"/>
</g>
<!-- supriya.commands.Requestable.Requestable&#45;&gt;supriya.commands.Request.Request -->
<g id="edge2" class="edge">
<title>supriya.commands.Requestable.Requestable&#45;&gt;supriya.commands.Request.Request</title>
<path fill="none" stroke="#778899" d="M304.012,-42C312.0601,-42 320.9328,-42 329.5171,-42"/>
<polygon fill="#778899" stroke="#778899" points="329.7704,-45.5001 339.7704,-42 329.7703,-38.5001 329.7704,-45.5001"/>
</g>
<!-- supriya.system.SupriyaObject.SupriyaObject&#45;&gt;supriya.system.SupriyaValueObject.SupriyaValueObject -->
<g id="edge3" class="edge">
<title>supriya.system.SupriyaObject.SupriyaObject&#45;&gt;supriya.system.SupriyaValueObject.SupriyaValueObject</title>
<path fill="none" stroke="#778899" d="M131.3138,-42C139.2025,-42 148.316,-42 156.8971,-42"/>
<polygon fill="#778899" stroke="#778899" points="156.982,-45.5001 166.982,-42 156.982,-38.5001 156.982,-45.5001"/>
</g>
<!-- supriya.system.SupriyaValueObject.SupriyaValueObject&#45;&gt;supriya.commands.Requestable.Requestable -->
<g id="edge5" class="edge">
<title>supriya.system.SupriyaValueObject.SupriyaValueObject&#45;&gt;supriya.commands.Requestable.Requestable</title>
<path fill="none" stroke="#778899" d="M209.382,-42C217.0772,-42 226.0257,-42 234.7801,-42"/>
<polygon fill="#778899" stroke="#778899" points="234.881,-45.5001 244.881,-42 234.8809,-38.5001 234.881,-45.5001"/>
</g>
<!-- builtins.object -->
<g id="node1" class="node">
<title>builtins.object</title>
<g id="a_node1"><a xlink:href="https://docs.python.org/3.6/library/functions.html#object" xlink:title="object" target="_top">
<path fill="#fbb4ae" stroke="#fbb4ae" stroke-width="2" d="M46.6667,-51.5C46.6667,-51.5 22.3333,-51.5 22.3333,-51.5 19.1667,-51.5 16,-48.3333 16,-45.1667 16,-45.1667 16,-38.8333 16,-38.8333 16,-35.6667 19.1667,-32.5 22.3333,-32.5 22.3333,-32.5 46.6667,-32.5 46.6667,-32.5 49.8333,-32.5 53,-35.6667 53,-38.8333 53,-38.8333 53,-45.1667 53,-45.1667 53,-48.3333 49.8333,-51.5 46.6667,-51.5"/>
<text text-anchor="middle" x="34.5" y="-39.5" font-family="Arial" font-size="10.00" fill="#000000">object</text>
</a>
</g>
</g>
<!-- supriya.commands.Request.Request -->
<g id="node2" class="node">
<title>supriya.commands.Request.Request</title>
<g id="a_node2"><a xlink:href="../api/supriya/commands/Request.html#supriya.commands.Request.Request" xlink:title="Request" target="_top">
<ellipse fill="none" stroke="#b3cde3" stroke-width="2" cx="371.1127" cy="-42" rx="31.2258" ry="13.3704"/>
<text text-anchor="middle" x="371.1127" y="-39.5" font-family="Arial" font-size="10.00" fill="#000000">Request</text>
</a>
</g>
</g>
<!-- supriya.commands.Requestable.Requestable -->
<g id="node3" class="node">
<title>supriya.commands.Requestable.Requestable</title>
<g id="a_node3"><a xlink:href="../api/supriya/commands/Requestable.html#supriya.commands.Requestable.Requestable" xlink:title="Requestable" target="_top">
<path fill="#b3cde3" stroke="#b3cde3" stroke-width="2" d="M297.6667,-51.5C297.6667,-51.5 251.3333,-51.5 251.3333,-51.5 248.1667,-51.5 245,-48.3333 245,-45.1667 245,-45.1667 245,-38.8333 245,-38.8333 245,-35.6667 248.1667,-32.5 251.3333,-32.5 251.3333,-32.5 297.6667,-32.5 297.6667,-32.5 300.8333,-32.5 304,-35.6667 304,-38.8333 304,-38.8333 304,-45.1667 304,-45.1667 304,-48.3333 300.8333,-51.5 297.6667,-51.5"/>
<text text-anchor="middle" x="274.5" y="-39.5" font-family="Arial" font-size="10.00" fill="#000000">Requestable</text>
</a>
</g>
</g>
<!-- supriya.commands.SynthDefFreeRequest.SynthDefFreeRequest -->
<g id="node4" class="node">
<title>supriya.commands.SynthDefFreeRequest.SynthDefFreeRequest</title>
<g id="a_node4"><a xlink:href="../api/supriya/commands/SynthDefFreeRequest.html#supriya.commands.SynthDefFreeRequest.SynthDefFreeRequest" xlink:title="Synth\nDef\nFree\nRequest" target="_top">
<path fill="#000000" stroke="#000000" stroke-width="2" d="M470.2254,-68C470.2254,-68 450.2254,-68 450.2254,-68 444.2254,-68 438.2254,-62 438.2254,-56 438.2254,-56 438.2254,-28 438.2254,-28 438.2254,-22 444.2254,-16 450.2254,-16 450.2254,-16 470.2254,-16 470.2254,-16 476.2254,-16 482.2254,-22 482.2254,-28 482.2254,-28 482.2254,-56 482.2254,-56 482.2254,-62 476.2254,-68 470.2254,-68"/>
<text text-anchor="middle" x="460.2254" y="-56" font-family="Arial" font-size="10.00" fill="#ffffff">Synth</text>
<text text-anchor="middle" x="460.2254" y="-45" font-family="Arial" font-size="10.00" fill="#ffffff">Def</text>
<text text-anchor="middle" x="460.2254" y="-34" font-family="Arial" font-size="10.00" fill="#ffffff">Free</text>
<text text-anchor="middle" x="460.2254" y="-23" font-family="Arial" font-size="10.00" fill="#ffffff">Request</text>
</a>
</g>
</g>
<!-- supriya.system.SupriyaObject.SupriyaObject -->
<g id="node5" class="node">
<title>supriya.system.SupriyaObject.SupriyaObject</title>
<g id="a_node5"><a xlink:href="../api/supriya/commands/../system/SupriyaObject.html#supriya.system.SupriyaObject.SupriyaObject" xlink:title="Supriya\nObject" target="_top">
<path fill="#ccebc5" stroke="#ccebc5" stroke-width="2" d="M121,-57C121,-57 99,-57 99,-57 94,-57 89,-52 89,-47 89,-47 89,-37 89,-37 89,-32 94,-27 99,-27 99,-27 121,-27 121,-27 126,-27 131,-32 131,-37 131,-37 131,-47 131,-47 131,-52 126,-57 121,-57"/>
<text text-anchor="middle" x="110" y="-45" font-family="Arial" font-size="10.00" fill="#000000">Supriya</text>
<text text-anchor="middle" x="110" y="-34" font-family="Arial" font-size="10.00" fill="#000000">Object</text>
</a>
</g>
</g>
<!-- supriya.system.SupriyaValueObject.SupriyaValueObject -->
<g id="node6" class="node">
<title>supriya.system.SupriyaValueObject.SupriyaValueObject</title>
<g id="a_node6"><a xlink:href="../api/supriya/commands/../system/SupriyaValueObject.html#supriya.system.SupriyaValueObject.SupriyaValueObject" xlink:title="Supriya\nValue\nObject" target="_top">
<path fill="#ccebc5" stroke="#ccebc5" stroke-width="2" d="M197,-62.5C197,-62.5 179,-62.5 179,-62.5 173,-62.5 167,-56.5 167,-50.5 167,-50.5 167,-33.5 167,-33.5 167,-27.5 173,-21.5 179,-21.5 179,-21.5 197,-21.5 197,-21.5 203,-21.5 209,-27.5 209,-33.5 209,-33.5 209,-50.5 209,-50.5 209,-56.5 203,-62.5 197,-62.5"/>
<text text-anchor="middle" x="188" y="-50.5" font-family="Arial" font-size="10.00" fill="#000000">Supriya</text>
<text text-anchor="middle" x="188" y="-39.5" font-family="Arial" font-size="10.00" fill="#000000">Value</text>
<text text-anchor="middle" x="188" y="-28.5" font-family="Arial" font-size="10.00" fill="#000000">Object</text>
</a>
</g>
</g>
</g>
</svg>
