<?xml version="1.0" encoding="UTF-8" standalone="no"?>
<!DOCTYPE svg PUBLIC "-//W3C//DTD SVG 1.1//EN"
 "http://www.w3.org/Graphics/SVG/1.1/DTD/svg11.dtd">
<!-- Generated by graphviz version 2.40.1 (20161225.0304)
 -->
<!-- Title: InheritanceGraph Pages: 1 -->
<svg width="277pt" height="89pt"
 viewBox="0.00 0.00 277.00 89.00" xmlns="http://www.w3.org/2000/svg" xmlns:xlink="http://www.w3.org/1999/xlink">
<g id="graph0" class="graph" transform="scale(1 1) rotate(0) translate(4 85)">
<title>InheritanceGraph</title>
<g id="clust1" class="cluster">
<title>cluster_builtins</title>
<path fill="transparent" stroke="#bcd2ee" stroke-width="2" stroke-dasharray="5,2" d="M20,-13C20,-13 49,-13 49,-13 55,-13 61,-19 61,-25 61,-25 61,-56 61,-56 61,-62 55,-68 49,-68 49,-68 20,-68 20,-68 14,-68 8,-62 8,-56 8,-56 8,-25 8,-25 8,-19 14,-13 20,-13"/>
<text text-anchor="middle" x="34.5" y="-56" font-family="Arial" font-size="10.00" fill="#000000">builtins</text>
</g>
<g id="clust2" class="cluster">
<title>cluster_supriya.ext.book</title>
<path fill="transparent" stroke="#bcd2ee" stroke-width="2" stroke-dasharray="5,2" d="M205,-8C205,-8 252,-8 252,-8 258,-8 264,-14 264,-20 264,-20 264,-61 264,-61 264,-67 258,-73 252,-73 252,-73 205,-73 205,-73 199,-73 193,-67 193,-61 193,-61 193,-20 193,-20 193,-14 199,-8 205,-8"/>
<text text-anchor="middle" x="228.5" y="-61" font-family="Arial" font-size="10.00" fill="#000000">supriya.ext.book</text>
</g>
<g id="clust3" class="cluster">
<title>cluster_uqbar.book.extensions</title>
<path fill="transparent" stroke="#bcd2ee" stroke-width="2" stroke-dasharray="5,2" d="M93,-13C93,-13 161,-13 161,-13 167,-13 173,-19 173,-25 173,-25 173,-56 173,-56 173,-62 167,-68 161,-68 161,-68 93,-68 93,-68 87,-68 81,-62 81,-56 81,-56 81,-25 81,-25 81,-19 87,-13 93,-13"/>
<text text-anchor="middle" x="127" y="-56" font-family="Arial" font-size="10.00" fill="#000000">uqbar.book.extensions</text>
</g>
<!-- builtins.object&#45;&gt;uqbar.book.extensions.Extension -->
<g id="edge1" class="edge">
<title>builtins.object&#45;&gt;uqbar.book.extensions.Extension</title>
<path fill="none" stroke="#778899" d="M53.1176,-31C64.2208,-31 78.6705,-31 91.8082,-31"/>
<polygon fill="#778899" stroke="#778899" points="91.9741,-34.5001 101.9741,-31 91.9741,-27.5001 91.9741,-34.5001"/>
</g>
<!-- uqbar.book.extensions.Extension&#45;&gt;supriya.ext.book.RenderExtension -->
<g id="edge2" class="edge">
<title>uqbar.book.extensions.Extension&#45;&gt;supriya.ext.book.RenderExtension</title>
<path fill="none" stroke="#778899" d="M151.1914,-31C163.8768,-31 179.5527,-31 193.4656,-31"/>
<polygon fill="#778899" stroke="#778899" points="193.6825,-34.5001 203.6825,-31 193.6825,-27.5001 193.6825,-34.5001"/>
</g>
<!-- builtins.object -->
<g id="node1" class="node">
<title>builtins.object</title>
<g id="a_node1"><a xlink:href="https://docs.python.org/3.6/library/functions.html#object" xlink:title="object" target="_top">
<path fill="#fbb4ae" stroke="#fbb4ae" stroke-width="2" d="M46.6667,-40.5C46.6667,-40.5 22.3333,-40.5 22.3333,-40.5 19.1667,-40.5 16,-37.3333 16,-34.1667 16,-34.1667 16,-27.8333 16,-27.8333 16,-24.6667 19.1667,-21.5 22.3333,-21.5 22.3333,-21.5 46.6667,-21.5 46.6667,-21.5 49.8333,-21.5 53,-24.6667 53,-27.8333 53,-27.8333 53,-34.1667 53,-34.1667 53,-37.3333 49.8333,-40.5 46.6667,-40.5"/>
<text text-anchor="middle" x="34.5" y="-28.5" font-family="Arial" font-size="10.00" fill="#000000">object</text>
</a>
</g>
</g>
<!-- supriya.ext.book.RenderExtension -->
<g id="node2" class="node">
<title>supriya.ext.book.RenderExtension</title>
<g id="a_node2"><a xlink:href="../api/supriya/ext/book.html#supriya.ext.book.RenderExtension" xlink:title="Render\nExtension" target="_top">
<path fill="#b3cde3" stroke="#b3cde3" stroke-width="2" d="M243,-46C243,-46 214,-46 214,-46 209,-46 204,-41 204,-36 204,-36 204,-26 204,-26 204,-21 209,-16 214,-16 214,-16 243,-16 243,-16 248,-16 253,-21 253,-26 253,-26 253,-36 253,-36 253,-41 248,-46 243,-46"/>
<text text-anchor="middle" x="228.5" y="-34" font-family="Arial" font-size="10.00" fill="#000000">Render</text>
<text text-anchor="middle" x="228.5" y="-23" font-family="Arial" font-size="10.00" fill="#000000">Extension</text>
</a>
</g>
</g>
<!-- uqbar.book.extensions.Extension -->
<g id="node3" class="node">
<title>uqbar.book.extensions.Extension</title>
<path fill="#ccebc5" stroke="#ccebc5" stroke-width="2" d="M144.6667,-40.5C144.6667,-40.5 108.3333,-40.5 108.3333,-40.5 105.1667,-40.5 102,-37.3333 102,-34.1667 102,-34.1667 102,-27.8333 102,-27.8333 102,-24.6667 105.1667,-21.5 108.3333,-21.5 108.3333,-21.5 144.6667,-21.5 144.6667,-21.5 147.8333,-21.5 151,-24.6667 151,-27.8333 151,-27.8333 151,-34.1667 151,-34.1667 151,-37.3333 147.8333,-40.5 144.6667,-40.5"/>
<text text-anchor="middle" x="126.5" y="-28.5" font-family="Arial" font-size="10.00" fill="#000000">Extension</text>
</g>
</g>
</svg>
