<?xml version="1.0" encoding="UTF-8" standalone="no"?>
<!DOCTYPE svg PUBLIC "-//W3C//DTD SVG 1.1//EN"
 "http://www.w3.org/Graphics/SVG/1.1/DTD/svg11.dtd">
<!-- Generated by graphviz version 2.40.1 (20161225.0304)
 -->
<!-- Title: InheritanceGraph Pages: 1 -->
<svg width="249pt" height="79pt"
 viewBox="0.00 0.00 249.00 79.00" xmlns="http://www.w3.org/2000/svg" xmlns:xlink="http://www.w3.org/1999/xlink">
<g id="graph0" class="graph" transform="scale(1 1) rotate(0) translate(4 75)">
<title>InheritanceGraph</title>
<g id="clust1" class="cluster">
<title>cluster_abjad.timespans</title>
<path fill="transparent" stroke="#bcd2ee" stroke-width="2" stroke-dasharray="5,2" d="M93,-8C93,-8 140,-8 140,-8 146,-8 152,-14 152,-20 152,-20 152,-51 152,-51 152,-57 146,-63 140,-63 140,-63 93,-63 93,-63 87,-63 81,-57 81,-51 81,-51 81,-20 81,-20 81,-14 87,-8 93,-8"/>
<text text-anchor="middle" x="116.5" y="-51" font-family="Arial" font-size="10.00" fill="#000000">abjad.timespans</text>
</g>
<g id="clust2" class="cluster">
<title>cluster_builtins</title>
<path fill="transparent" stroke="#bcd2ee" stroke-width="2" stroke-dasharray="5,2" d="M20,-8C20,-8 49,-8 49,-8 55,-8 61,-14 61,-20 61,-20 61,-51 61,-51 61,-57 55,-63 49,-63 49,-63 20,-63 20,-63 14,-63 8,-57 8,-51 8,-51 8,-20 8,-20 8,-14 14,-8 20,-8"/>
<text text-anchor="middle" x="34.5" y="-51" font-family="Arial" font-size="10.00" fill="#000000">builtins</text>
</g>
<g id="clust3" class="cluster">
<title>cluster_supriya.realtime</title>
<path fill="transparent" stroke="#bcd2ee" stroke-width="2" stroke-dasharray="5,2" d="M184,-8C184,-8 229,-8 229,-8 235,-8 241,-14 241,-20 241,-20 241,-51 241,-51 241,-57 235,-63 229,-63 229,-63 184,-63 184,-63 178,-63 172,-57 172,-51 172,-51 172,-20 172,-20 172,-14 178,-8 184,-8"/>
<text text-anchor="middle" x="206.5" y="-51" font-family="Arial" font-size="10.00" fill="#000000">supriya.realtime</text>
</g>
<!-- abjad.timespans.Timespan&#45;&gt;supriya.realtime.Block.Block -->
<g id="edge1" class="edge">
<title>abjad.timespans.Timespan&#45;&gt;supriya.realtime.Block.Block</title>
<path fill="none" stroke="#778899" d="M141.0929,-26C152.6486,-26 166.4822,-26 178.4449,-26"/>
<polygon fill="#778899" stroke="#778899" points="178.7861,-29.5001 188.786,-26 178.786,-22.5001 178.7861,-29.5001"/>
</g>
<!-- builtins.object&#45;&gt;abjad.timespans.Timespan -->
<g id="edge2" class="edge">
<title>builtins.object&#45;&gt;abjad.timespans.Timespan</title>
<path fill="none" stroke="#778899" d="M53.1071,-26C61.5048,-26 71.7105,-26 81.4572,-26"/>
<polygon fill="#778899" stroke="#778899" points="81.7461,-29.5001 91.7461,-26 81.7461,-22.5001 81.7461,-29.5001"/>
</g>
<!-- abjad.timespans.Timespan -->
<g id="node1" class="node">
<title>abjad.timespans.Timespan</title>
<path fill="#fbb4ae" stroke="#fbb4ae" stroke-width="2" d="M134.6667,-35.5C134.6667,-35.5 98.3333,-35.5 98.3333,-35.5 95.1667,-35.5 92,-32.3333 92,-29.1667 92,-29.1667 92,-22.8333 92,-22.8333 92,-19.6667 95.1667,-16.5 98.3333,-16.5 98.3333,-16.5 134.6667,-16.5 134.6667,-16.5 137.8333,-16.5 141,-19.6667 141,-22.8333 141,-22.8333 141,-29.1667 141,-29.1667 141,-32.3333 137.8333,-35.5 134.6667,-35.5"/>
<text text-anchor="middle" x="116.5" y="-23.5" font-family="Arial" font-size="10.00" fill="#000000">Timespan</text>
</g>
<!-- builtins.object -->
<g id="node2" class="node">
<title>builtins.object</title>
<g id="a_node2"><a xlink:href="https://docs.python.org/3.6/library/functions.html#object" xlink:title="object" target="_top">
<path fill="#b3cde3" stroke="#b3cde3" stroke-width="2" d="M46.6667,-35.5C46.6667,-35.5 22.3333,-35.5 22.3333,-35.5 19.1667,-35.5 16,-32.3333 16,-29.1667 16,-29.1667 16,-22.8333 16,-22.8333 16,-19.6667 19.1667,-16.5 22.3333,-16.5 22.3333,-16.5 46.6667,-16.5 46.6667,-16.5 49.8333,-16.5 53,-19.6667 53,-22.8333 53,-22.8333 53,-29.1667 53,-29.1667 53,-32.3333 49.8333,-35.5 46.6667,-35.5"/>
<text text-anchor="middle" x="34.5" y="-23.5" font-family="Arial" font-size="10.00" fill="#000000">object</text>
</a>
</g>
</g>
<!-- supriya.realtime.Block.Block -->
<g id="node3" class="node">
<title>supriya.realtime.Block.Block</title>
<g id="a_node3"><a xlink:href="../api/supriya/realtime/Block.html#supriya.realtime.Block.Block" xlink:title="Block" target="_top">
<path fill="#000000" stroke="#000000" stroke-width="2" d="M217.6667,-35.5C217.6667,-35.5 195.3333,-35.5 195.3333,-35.5 192.1667,-35.5 189,-32.3333 189,-29.1667 189,-29.1667 189,-22.8333 189,-22.8333 189,-19.6667 192.1667,-16.5 195.3333,-16.5 195.3333,-16.5 217.6667,-16.5 217.6667,-16.5 220.8333,-16.5 224,-19.6667 224,-22.8333 224,-22.8333 224,-29.1667 224,-29.1667 224,-32.3333 220.8333,-35.5 217.6667,-35.5"/>
<text text-anchor="middle" x="206.5" y="-23.5" font-family="Arial" font-size="10.00" fill="#ffffff">Block</text>
</a>
</g>
</g>
</g>
</svg>
