<?xml version="1.0" encoding="UTF-8" standalone="no"?>
<!DOCTYPE svg PUBLIC "-//W3C//DTD SVG 1.1//EN"
 "http://www.w3.org/Graphics/SVG/1.1/DTD/svg11.dtd">
<!-- Generated by graphviz version 2.44.1 (20200629.0846)
 -->
<!-- Title: InheritanceGraph Pages: 1 -->
<svg width="562pt" height="111pt"
 viewBox="0.00 0.00 562.40 111.00" xmlns="http://www.w3.org/2000/svg" xmlns:xlink="http://www.w3.org/1999/xlink">
<g id="graph0" class="graph" transform="scale(1 1) rotate(0) translate(4 107)">
<title>InheritanceGraph</title>
<g id="clust1" class="cluster">
<title>cluster_builtins</title>
<path fill="transparent" stroke="#bcd2ee" stroke-width="2" stroke-dasharray="5,2" d="M20,-24C20,-24 55,-24 55,-24 61,-24 67,-30 67,-36 67,-36 67,-67 67,-67 67,-73 61,-79 55,-79 55,-79 20,-79 20,-79 14,-79 8,-73 8,-67 8,-67 8,-36 8,-36 8,-30 14,-24 20,-24"/>
<text text-anchor="middle" x="37.5" y="-67" font-family="Arial" font-size="10.00">builtins</text>
</g>
<g id="clust2" class="cluster">
<title>cluster_supriya.synthdefs.bases</title>
<path fill="transparent" stroke="#bcd2ee" stroke-width="2" stroke-dasharray="5,2" d="M347,-21C347,-21 445.4,-21 445.4,-21 451.4,-21 457.4,-27 457.4,-33 457.4,-33 457.4,-70 457.4,-70 457.4,-76 451.4,-82 445.4,-82 445.4,-82 347,-82 347,-82 341,-82 335,-76 335,-70 335,-70 335,-33 335,-33 335,-27 341,-21 347,-21"/>
<text text-anchor="middle" x="396.2" y="-70" font-family="Arial" font-size="10.00">supriya.synthdefs.bases</text>
</g>
<g id="clust3" class="cluster">
<title>cluster_supriya.synthdefs.mixins</title>
<path fill="transparent" stroke="#bcd2ee" stroke-width="2" stroke-dasharray="5,2" d="M202,-13C202,-13 303,-13 303,-13 309,-13 315,-19 315,-25 315,-25 315,-78 315,-78 315,-84 309,-90 303,-90 303,-90 202,-90 202,-90 196,-90 190,-84 190,-78 190,-78 190,-25 190,-25 190,-19 196,-13 202,-13"/>
<text text-anchor="middle" x="252.5" y="-78" font-family="Arial" font-size="10.00">supriya.synthdefs.mixins</text>
</g>
<g id="clust4" class="cluster">
<title>cluster_supriya.system</title>
<path fill="transparent" stroke="#bcd2ee" stroke-width="2" stroke-dasharray="5,2" d="M99,-19C99,-19 158,-19 158,-19 164,-19 170,-25 170,-31 170,-31 170,-72 170,-72 170,-78 164,-84 158,-84 158,-84 99,-84 99,-84 93,-84 87,-78 87,-72 87,-72 87,-31 87,-31 87,-25 93,-19 99,-19"/>
<text text-anchor="middle" x="128.5" y="-72" font-family="Arial" font-size="10.00">supriya.system</text>
</g>
<g id="clust5" class="cluster">
<title>cluster_supriya.ugens</title>
<path fill="transparent" stroke="#bcd2ee" stroke-width="2" stroke-dasharray="5,2" d="M489.4,-8C489.4,-8 542.4,-8 542.4,-8 548.4,-8 554.4,-14 554.4,-20 554.4,-20 554.4,-83 554.4,-83 554.4,-89 548.4,-95 542.4,-95 542.4,-95 489.4,-95 489.4,-95 483.4,-95 477.4,-89 477.4,-83 477.4,-83 477.4,-20 477.4,-20 477.4,-14 483.4,-8 489.4,-8"/>
<text text-anchor="middle" x="515.9" y="-83" font-family="Arial" font-size="10.00">supriya.ugens</text>
</g>
<!-- builtins.object&#45;&gt;supriya.system.SupriyaObject -->
<g id="edge1" class="edge">
<title>builtins.object&#45;&gt;supriya.system.SupriyaObject</title>
<path fill="none" stroke="lightslategrey" d="M59.03,-42C69.03,-42 81.34,-42 92.72,-42"/>
<polygon fill="lightslategrey" stroke="lightslategrey" points="92.82,-45.5 102.82,-42 92.82,-38.5 92.82,-45.5"/>
</g>
<!-- supriya.synthdefs.bases.UGen&#45;&gt;supriya.ugens.PauseSelfWhenDone.PauseSelfWhenDone -->
<g id="edge2" class="edge">
<title>supriya.synthdefs.bases.UGen&#45;&gt;supriya.ugens.PauseSelfWhenDone.PauseSelfWhenDone</title>
<path fill="none" stroke="lightslategrey" d="M425.49,-42C442.93,-42 465.19,-42 483.07,-42"/>
<polygon fill="lightslategrey" stroke="lightslategrey" points="483.28,-45.5 493.28,-42 483.28,-38.5 483.28,-45.5"/>
</g>
<!-- supriya.synthdefs.mixins.UGenMethodMixin&#45;&gt;supriya.synthdefs.bases.UGen -->
<g id="edge3" class="edge">
<title>supriya.synthdefs.mixins.UGenMethodMixin&#45;&gt;supriya.synthdefs.bases.UGen</title>
<path fill="none" stroke="lightslategrey" d="M277.13,-42C298.5,-42 330.36,-42 355.53,-42"/>
<polygon fill="lightslategrey" stroke="lightslategrey" points="355.86,-45.5 365.86,-42 355.86,-38.5 355.86,-45.5"/>
</g>
<!-- supriya.system.SupriyaObject&#45;&gt;supriya.synthdefs.mixins.UGenMethodMixin -->
<g id="edge4" class="edge">
<title>supriya.system.SupriyaObject&#45;&gt;supriya.synthdefs.mixins.UGenMethodMixin</title>
<path fill="none" stroke="lightslategrey" d="M153.2,-42C171.61,-42 197.17,-42 217.61,-42"/>
<polygon fill="lightslategrey" stroke="lightslategrey" points="217.77,-45.5 227.77,-42 217.77,-38.5 217.77,-45.5"/>
</g>
<!-- builtins.object -->
<g id="node1" class="node">
<title>builtins.object</title>
<g id="a_node1"><a xlink:href="https://docs.python.org/3/library/functions.html#object" xlink:title="object" target="_top">
<path fill="#fbb4ae" stroke="#fbb4ae" stroke-width="2" d="M52.67,-51.5C52.67,-51.5 22.33,-51.5 22.33,-51.5 19.17,-51.5 16,-48.33 16,-45.17 16,-45.17 16,-38.83 16,-38.83 16,-35.67 19.17,-32.5 22.33,-32.5 22.33,-32.5 52.67,-32.5 52.67,-32.5 55.83,-32.5 59,-35.67 59,-38.83 59,-38.83 59,-45.17 59,-45.17 59,-48.33 55.83,-51.5 52.67,-51.5"/>
<text text-anchor="middle" x="37.5" y="-39.5" font-family="Arial" font-size="10.00">object</text>
</a>
</g>
</g>
<!-- supriya.synthdefs.bases.UGen -->
<g id="node2" class="node">
<title>supriya.synthdefs.bases.UGen</title>
<g id="a_node2"><a xlink:href="../api/supriya/ugens/../synthdefs/bases.html#supriya.synthdefs.bases.UGen" xlink:title="UGen" target="_top">
<ellipse fill="none" stroke="#b3cde3" stroke-width="2" cx="395.7" cy="-42" rx="29.9" ry="13.37"/>
<text text-anchor="middle" x="395.7" y="-39.5" font-family="Arial" font-size="10.00">UGen</text>
</a>
</g>
</g>
<!-- supriya.synthdefs.mixins.UGenMethodMixin -->
<g id="node3" class="node">
<title>supriya.synthdefs.mixins.UGenMethodMixin</title>
<g id="a_node3"><a xlink:href="../api/supriya/ugens/../synthdefs/mixins.html#supriya.synthdefs.mixins.UGenMethodMixin" xlink:title="UGen\nMethod\nMixin" target="_top">
<path fill="#ccebc5" stroke="#ccebc5" stroke-width="2" d="M265,-62.5C265,-62.5 240,-62.5 240,-62.5 234,-62.5 228,-56.5 228,-50.5 228,-50.5 228,-33.5 228,-33.5 228,-27.5 234,-21.5 240,-21.5 240,-21.5 265,-21.5 265,-21.5 271,-21.5 277,-27.5 277,-33.5 277,-33.5 277,-50.5 277,-50.5 277,-56.5 271,-62.5 265,-62.5"/>
<text text-anchor="middle" x="252.5" y="-50.5" font-family="Arial" font-size="10.00">UGen</text>
<text text-anchor="middle" x="252.5" y="-39.5" font-family="Arial" font-size="10.00">Method</text>
<text text-anchor="middle" x="252.5" y="-28.5" font-family="Arial" font-size="10.00">Mixin</text>
</a>
</g>
</g>
<!-- supriya.system.SupriyaObject -->
<g id="node4" class="node">
<title>supriya.system.SupriyaObject</title>
<g id="a_node4"><a xlink:href="../api/supriya/ugens/../system.html#supriya.system.SupriyaObject" xlink:title="Supriya\nObject" target="_top">
<path fill="#decbe4" stroke="#decbe4" stroke-width="2" d="M143,-57C143,-57 113,-57 113,-57 108,-57 103,-52 103,-47 103,-47 103,-37 103,-37 103,-32 108,-27 113,-27 113,-27 143,-27 143,-27 148,-27 153,-32 153,-37 153,-37 153,-47 153,-47 153,-52 148,-57 143,-57"/>
<text text-anchor="middle" x="128" y="-45" font-family="Arial" font-size="10.00">Supriya</text>
<text text-anchor="middle" x="128" y="-34" font-family="Arial" font-size="10.00">Object</text>
</a>
</g>
</g>
<!-- supriya.ugens.PauseSelfWhenDone.PauseSelfWhenDone -->
<g id="node5" class="node">
<title>supriya.ugens.PauseSelfWhenDone.PauseSelfWhenDone</title>
<g id="a_node5"><a xlink:href="../api/supriya/ugens/PauseSelfWhenDone.html#supriya.ugens.PauseSelfWhenDone.PauseSelfWhenDone" xlink:title="Pause\nSelf\nWhen\nDone" target="_top">
<path fill="black" stroke="black" stroke-width="2" d="M525.4,-68C525.4,-68 505.4,-68 505.4,-68 499.4,-68 493.4,-62 493.4,-56 493.4,-56 493.4,-28 493.4,-28 493.4,-22 499.4,-16 505.4,-16 505.4,-16 525.4,-16 525.4,-16 531.4,-16 537.4,-22 537.4,-28 537.4,-28 537.4,-56 537.4,-56 537.4,-62 531.4,-68 525.4,-68"/>
<text text-anchor="middle" x="515.4" y="-56" font-family="Arial" font-size="10.00" fill="white">Pause</text>
<text text-anchor="middle" x="515.4" y="-45" font-family="Arial" font-size="10.00" fill="white">Self</text>
<text text-anchor="middle" x="515.4" y="-34" font-family="Arial" font-size="10.00" fill="white">When</text>
<text text-anchor="middle" x="515.4" y="-23" font-family="Arial" font-size="10.00" fill="white">Done</text>
</a>
</g>
</g>
</g>
</svg>
