<?xml version="1.0" encoding="UTF-8" standalone="no"?>
<!DOCTYPE svg PUBLIC "-//W3C//DTD SVG 1.1//EN"
 "http://www.w3.org/Graphics/SVG/1.1/DTD/svg11.dtd">
<!-- Generated by graphviz version 2.44.1 (20200629.0846)
 -->
<!-- Title: InheritanceGraph Pages: 1 -->
<svg width="649pt" height="117pt"
 viewBox="0.00 0.00 648.79 117.00" xmlns="http://www.w3.org/2000/svg" xmlns:xlink="http://www.w3.org/1999/xlink">
<g id="graph0" class="graph" transform="scale(1 1) rotate(0) translate(4 113)">
<title>InheritanceGraph</title>
<g id="clust1" class="cluster">
<title>cluster_builtins</title>
<path fill="transparent" stroke="#bcd2ee" stroke-width="2" stroke-dasharray="5,2" d="M20,-27C20,-27 55,-27 55,-27 61,-27 67,-33 67,-39 67,-39 67,-70 67,-70 67,-76 61,-82 55,-82 55,-82 20,-82 20,-82 14,-82 8,-76 8,-70 8,-70 8,-39 8,-39 8,-33 14,-27 20,-27"/>
<text text-anchor="middle" x="37.5" y="-70" font-family="Arial" font-size="10.00">builtins</text>
</g>
<g id="clust2" class="cluster">
<title>cluster_supriya.synthdefs.bases</title>
<path fill="transparent" stroke="#bcd2ee" stroke-width="2" stroke-dasharray="5,2" d="M347,-24C347,-24 445.4,-24 445.4,-24 451.4,-24 457.4,-30 457.4,-36 457.4,-36 457.4,-73 457.4,-73 457.4,-79 451.4,-85 445.4,-85 445.4,-85 347,-85 347,-85 341,-85 335,-79 335,-73 335,-73 335,-36 335,-36 335,-30 341,-24 347,-24"/>
<text text-anchor="middle" x="396.2" y="-73" font-family="Arial" font-size="10.00">supriya.synthdefs.bases</text>
</g>
<g id="clust3" class="cluster">
<title>cluster_supriya.synthdefs.mixins</title>
<path fill="transparent" stroke="#bcd2ee" stroke-width="2" stroke-dasharray="5,2" d="M202,-16C202,-16 303,-16 303,-16 309,-16 315,-22 315,-28 315,-28 315,-81 315,-81 315,-87 309,-93 303,-93 303,-93 202,-93 202,-93 196,-93 190,-87 190,-81 190,-81 190,-28 190,-28 190,-22 196,-16 202,-16"/>
<text text-anchor="middle" x="252.5" y="-81" font-family="Arial" font-size="10.00">supriya.synthdefs.mixins</text>
</g>
<g id="clust4" class="cluster">
<title>cluster_supriya.system</title>
<path fill="transparent" stroke="#bcd2ee" stroke-width="2" stroke-dasharray="5,2" d="M99,-22C99,-22 158,-22 158,-22 164,-22 170,-28 170,-34 170,-34 170,-75 170,-75 170,-81 164,-87 158,-87 158,-87 99,-87 99,-87 93,-87 87,-81 87,-75 87,-75 87,-34 87,-34 87,-28 93,-22 99,-22"/>
<text text-anchor="middle" x="128.5" y="-75" font-family="Arial" font-size="10.00">supriya.system</text>
</g>
<g id="clust5" class="cluster">
<title>cluster_supriya.ugens</title>
<path fill="transparent" stroke="#bcd2ee" stroke-width="2" stroke-dasharray="5,2" d="M489.4,-8C489.4,-8 620.79,-8 620.79,-8 626.79,-8 632.79,-14 632.79,-20 632.79,-20 632.79,-89 632.79,-89 632.79,-95 626.79,-101 620.79,-101 620.79,-101 489.4,-101 489.4,-101 483.4,-101 477.4,-95 477.4,-89 477.4,-89 477.4,-20 477.4,-20 477.4,-14 483.4,-8 489.4,-8"/>
<text text-anchor="middle" x="555.1" y="-89" font-family="Arial" font-size="10.00">supriya.ugens</text>
</g>
<!-- builtins.object&#45;&gt;supriya.system.SupriyaObject -->
<g id="edge2" class="edge">
<title>builtins.object&#45;&gt;supriya.system.SupriyaObject</title>
<path fill="none" stroke="lightslategrey" d="M59.03,-45C69.03,-45 81.34,-45 92.72,-45"/>
<polygon fill="lightslategrey" stroke="lightslategrey" points="92.82,-48.5 102.82,-45 92.82,-41.5 92.82,-48.5"/>
</g>
<!-- supriya.synthdefs.bases.UGen&#45;&gt;supriya.ugens.InfoUGenBase.InfoUGenBase -->
<g id="edge3" class="edge">
<title>supriya.synthdefs.bases.UGen&#45;&gt;supriya.ugens.InfoUGenBase.InfoUGenBase</title>
<path fill="none" stroke="lightslategrey" d="M425.42,-45C440.34,-45 458.8,-45 475,-45"/>
<polygon fill="lightslategrey" stroke="lightslategrey" points="475.27,-48.5 485.27,-45 475.27,-41.5 475.27,-48.5"/>
</g>
<!-- supriya.synthdefs.mixins.UGenMethodMixin&#45;&gt;supriya.synthdefs.bases.UGen -->
<g id="edge4" class="edge">
<title>supriya.synthdefs.mixins.UGenMethodMixin&#45;&gt;supriya.synthdefs.bases.UGen</title>
<path fill="none" stroke="lightslategrey" d="M277.13,-45C298.5,-45 330.36,-45 355.53,-45"/>
<polygon fill="lightslategrey" stroke="lightslategrey" points="355.86,-48.5 365.86,-45 355.86,-41.5 355.86,-48.5"/>
</g>
<!-- supriya.system.SupriyaObject&#45;&gt;supriya.synthdefs.mixins.UGenMethodMixin -->
<g id="edge5" class="edge">
<title>supriya.system.SupriyaObject&#45;&gt;supriya.synthdefs.mixins.UGenMethodMixin</title>
<path fill="none" stroke="lightslategrey" d="M153.2,-45C171.61,-45 197.17,-45 217.61,-45"/>
<polygon fill="lightslategrey" stroke="lightslategrey" points="217.77,-48.5 227.77,-45 217.77,-41.5 217.77,-48.5"/>
</g>
<!-- supriya.ugens.InfoUGenBase.InfoUGenBase&#45;&gt;supriya.ugens.NumAudioBuses.NumAudioBuses -->
<g id="edge1" class="edge">
<title>supriya.ugens.InfoUGenBase.InfoUGenBase&#45;&gt;supriya.ugens.NumAudioBuses.NumAudioBuses</title>
<path fill="none" stroke="lightslategrey" d="M545.11,-45C553.3,-45 562.25,-45 570.57,-45"/>
<polygon fill="lightslategrey" stroke="lightslategrey" points="570.67,-48.5 580.67,-45 570.66,-41.5 570.67,-48.5"/>
</g>
<!-- builtins.object -->
<g id="node1" class="node">
<title>builtins.object</title>
<g id="a_node1"><a xlink:href="https://docs.python.org/3/library/functions.html#object" xlink:title="object" target="_top">
<path fill="#fbb4ae" stroke="#fbb4ae" stroke-width="2" d="M52.67,-54.5C52.67,-54.5 22.33,-54.5 22.33,-54.5 19.17,-54.5 16,-51.33 16,-48.17 16,-48.17 16,-41.83 16,-41.83 16,-38.67 19.17,-35.5 22.33,-35.5 22.33,-35.5 52.67,-35.5 52.67,-35.5 55.83,-35.5 59,-38.67 59,-41.83 59,-41.83 59,-48.17 59,-48.17 59,-51.33 55.83,-54.5 52.67,-54.5"/>
<text text-anchor="middle" x="37.5" y="-42.5" font-family="Arial" font-size="10.00">object</text>
</a>
</g>
</g>
<!-- supriya.synthdefs.bases.UGen -->
<g id="node2" class="node">
<title>supriya.synthdefs.bases.UGen</title>
<g id="a_node2"><a xlink:href="../api/supriya/ugens/../synthdefs/bases.html#supriya.synthdefs.bases.UGen" xlink:title="UGen" target="_top">
<ellipse fill="none" stroke="#b3cde3" stroke-width="2" cx="395.7" cy="-45" rx="29.9" ry="13.37"/>
<text text-anchor="middle" x="395.7" y="-42.5" font-family="Arial" font-size="10.00">UGen</text>
</a>
</g>
</g>
<!-- supriya.synthdefs.mixins.UGenMethodMixin -->
<g id="node3" class="node">
<title>supriya.synthdefs.mixins.UGenMethodMixin</title>
<g id="a_node3"><a xlink:href="../api/supriya/ugens/../synthdefs/mixins.html#supriya.synthdefs.mixins.UGenMethodMixin" xlink:title="UGen\nMethod\nMixin" target="_top">
<path fill="#ccebc5" stroke="#ccebc5" stroke-width="2" d="M265,-65.5C265,-65.5 240,-65.5 240,-65.5 234,-65.5 228,-59.5 228,-53.5 228,-53.5 228,-36.5 228,-36.5 228,-30.5 234,-24.5 240,-24.5 240,-24.5 265,-24.5 265,-24.5 271,-24.5 277,-30.5 277,-36.5 277,-36.5 277,-53.5 277,-53.5 277,-59.5 271,-65.5 265,-65.5"/>
<text text-anchor="middle" x="252.5" y="-53.5" font-family="Arial" font-size="10.00">UGen</text>
<text text-anchor="middle" x="252.5" y="-42.5" font-family="Arial" font-size="10.00">Method</text>
<text text-anchor="middle" x="252.5" y="-31.5" font-family="Arial" font-size="10.00">Mixin</text>
</a>
</g>
</g>
<!-- supriya.system.SupriyaObject -->
<g id="node4" class="node">
<title>supriya.system.SupriyaObject</title>
<g id="a_node4"><a xlink:href="../api/supriya/ugens/../system.html#supriya.system.SupriyaObject" xlink:title="Supriya\nObject" target="_top">
<path fill="#decbe4" stroke="#decbe4" stroke-width="2" d="M143,-60C143,-60 113,-60 113,-60 108,-60 103,-55 103,-50 103,-50 103,-40 103,-40 103,-35 108,-30 113,-30 113,-30 143,-30 143,-30 148,-30 153,-35 153,-40 153,-40 153,-50 153,-50 153,-55 148,-60 143,-60"/>
<text text-anchor="middle" x="128" y="-48" font-family="Arial" font-size="10.00">Supriya</text>
<text text-anchor="middle" x="128" y="-37" font-family="Arial" font-size="10.00">Object</text>
</a>
</g>
</g>
<!-- supriya.ugens.InfoUGenBase.InfoUGenBase -->
<g id="node5" class="node">
<title>supriya.ugens.InfoUGenBase.InfoUGenBase</title>
<g id="a_node5"><a xlink:href="../api/supriya/ugens/InfoUGenBase.html#supriya.ugens.InfoUGenBase.InfoUGenBase" xlink:title="Info\nUGen\nBase" target="_top">
<ellipse fill="none" stroke="#fed9a6" stroke-width="2" cx="515.1" cy="-45" rx="29.9" ry="28.98"/>
<text text-anchor="middle" x="515.1" y="-53.5" font-family="Arial" font-size="10.00">Info</text>
<text text-anchor="middle" x="515.1" y="-42.5" font-family="Arial" font-size="10.00">UGen</text>
<text text-anchor="middle" x="515.1" y="-31.5" font-family="Arial" font-size="10.00">Base</text>
</a>
</g>
</g>
<!-- supriya.ugens.NumAudioBuses.NumAudioBuses -->
<g id="node6" class="node">
<title>supriya.ugens.NumAudioBuses.NumAudioBuses</title>
<g id="a_node6"><a xlink:href="../api/supriya/ugens/NumAudioBuses.html#supriya.ugens.NumAudioBuses.NumAudioBuses" xlink:title="Num\nAudio\nBuses" target="_top">
<path fill="black" stroke="black" stroke-width="2" d="M612.79,-65.5C612.79,-65.5 592.79,-65.5 592.79,-65.5 586.79,-65.5 580.79,-59.5 580.79,-53.5 580.79,-53.5 580.79,-36.5 580.79,-36.5 580.79,-30.5 586.79,-24.5 592.79,-24.5 592.79,-24.5 612.79,-24.5 612.79,-24.5 618.79,-24.5 624.79,-30.5 624.79,-36.5 624.79,-36.5 624.79,-53.5 624.79,-53.5 624.79,-59.5 618.79,-65.5 612.79,-65.5"/>
<text text-anchor="middle" x="602.79" y="-53.5" font-family="Arial" font-size="10.00" fill="white">Num</text>
<text text-anchor="middle" x="602.79" y="-42.5" font-family="Arial" font-size="10.00" fill="white">Audio</text>
<text text-anchor="middle" x="602.79" y="-31.5" font-family="Arial" font-size="10.00" fill="white">Buses</text>
</a>
</g>
</g>
</g>
</svg>
