<?xml version="1.0" encoding="UTF-8" standalone="no"?>
<!DOCTYPE svg PUBLIC "-//W3C//DTD SVG 1.1//EN"
 "http://www.w3.org/Graphics/SVG/1.1/DTD/svg11.dtd">
<!-- Generated by graphviz version 2.40.1 (20161225.0304)
 -->
<!-- Title: InheritanceGraph Pages: 1 -->
<svg width="253pt" height="101pt"
 viewBox="0.00 0.00 253.00 101.00" xmlns="http://www.w3.org/2000/svg" xmlns:xlink="http://www.w3.org/1999/xlink">
<g id="graph0" class="graph" transform="scale(1 1) rotate(0) translate(4 97)">
<title>InheritanceGraph</title>
<g id="clust1" class="cluster">
<title>cluster_builtins</title>
<path fill="transparent" stroke="#bcd2ee" stroke-width="2" stroke-dasharray="5,2" d="M20,-19C20,-19 49,-19 49,-19 55,-19 61,-25 61,-31 61,-31 61,-62 61,-62 61,-68 55,-74 49,-74 49,-74 20,-74 20,-74 14,-74 8,-68 8,-62 8,-62 8,-31 8,-31 8,-25 14,-19 20,-19"/>
<text text-anchor="middle" x="34.5" y="-62" font-family="Arial" font-size="10.00" fill="#000000">builtins</text>
</g>
<g id="clust2" class="cluster">
<title>cluster_supriya.synthdefs</title>
<path fill="transparent" stroke="#bcd2ee" stroke-width="2" stroke-dasharray="5,2" d="M180,-8C180,-8 231,-8 231,-8 237,-8 243,-14 243,-20 243,-20 243,-73 243,-73 243,-79 237,-85 231,-85 231,-85 180,-85 180,-85 174,-85 168,-79 168,-73 168,-73 168,-20 168,-20 168,-14 174,-8 180,-8"/>
<text text-anchor="middle" x="205.5" y="-73" font-family="Arial" font-size="10.00" fill="#000000">supriya.synthdefs</text>
</g>
<g id="clust3" class="cluster">
<title>cluster_supriya.system</title>
<path fill="transparent" stroke="#bcd2ee" stroke-width="2" stroke-dasharray="5,2" d="M93,-14C93,-14 136,-14 136,-14 142,-14 148,-20 148,-26 148,-26 148,-67 148,-67 148,-73 142,-79 136,-79 136,-79 93,-79 93,-79 87,-79 81,-73 81,-67 81,-67 81,-26 81,-26 81,-20 87,-14 93,-14"/>
<text text-anchor="middle" x="114.5" y="-67" font-family="Arial" font-size="10.00" fill="#000000">supriya.system</text>
</g>
<!-- builtins.object&#45;&gt;supriya.system.SupriyaObject.SupriyaObject -->
<g id="edge1" class="edge">
<title>builtins.object&#45;&gt;supriya.system.SupriyaObject.SupriyaObject</title>
<path fill="none" stroke="#778899" d="M53.3404,-37C62.0401,-37 72.6079,-37 82.4698,-37"/>
<polygon fill="#778899" stroke="#778899" points="82.7722,-40.5001 92.7722,-37 82.7721,-33.5001 82.7722,-40.5001"/>
</g>
<!-- supriya.system.SupriyaObject.SupriyaObject&#45;&gt;supriya.synthdefs.SynthDefCompiler.SynthDefCompiler -->
<g id="edge2" class="edge">
<title>supriya.system.SupriyaObject.SupriyaObject&#45;&gt;supriya.synthdefs.SynthDefCompiler.SynthDefCompiler</title>
<path fill="none" stroke="#778899" d="M135.2219,-37C146.0016,-37 159.3607,-37 171.5273,-37"/>
<polygon fill="#778899" stroke="#778899" points="171.8175,-40.5001 181.8175,-37 171.8174,-33.5001 171.8175,-40.5001"/>
</g>
<!-- builtins.object -->
<g id="node1" class="node">
<title>builtins.object</title>
<g id="a_node1"><a xlink:href="https://docs.python.org/3.6/library/functions.html#object" xlink:title="object" target="_top">
<path fill="#fbb4ae" stroke="#fbb4ae" stroke-width="2" d="M46.6667,-46.5C46.6667,-46.5 22.3333,-46.5 22.3333,-46.5 19.1667,-46.5 16,-43.3333 16,-40.1667 16,-40.1667 16,-33.8333 16,-33.8333 16,-30.6667 19.1667,-27.5 22.3333,-27.5 22.3333,-27.5 46.6667,-27.5 46.6667,-27.5 49.8333,-27.5 53,-30.6667 53,-33.8333 53,-33.8333 53,-40.1667 53,-40.1667 53,-43.3333 49.8333,-46.5 46.6667,-46.5"/>
<text text-anchor="middle" x="34.5" y="-34.5" font-family="Arial" font-size="10.00" fill="#000000">object</text>
</a>
</g>
</g>
<!-- supriya.synthdefs.SynthDefCompiler.SynthDefCompiler -->
<g id="node2" class="node">
<title>supriya.synthdefs.SynthDefCompiler.SynthDefCompiler</title>
<g id="a_node2"><a xlink:href="../api/supriya/synthdefs/SynthDefCompiler.html#supriya.synthdefs.SynthDefCompiler.SynthDefCompiler" xlink:title="Synth\nDef\nCompiler" target="_top">
<path fill="#000000" stroke="#000000" stroke-width="2" d="M217,-57.5C217,-57.5 194,-57.5 194,-57.5 188,-57.5 182,-51.5 182,-45.5 182,-45.5 182,-28.5 182,-28.5 182,-22.5 188,-16.5 194,-16.5 194,-16.5 217,-16.5 217,-16.5 223,-16.5 229,-22.5 229,-28.5 229,-28.5 229,-45.5 229,-45.5 229,-51.5 223,-57.5 217,-57.5"/>
<text text-anchor="middle" x="205.5" y="-45.5" font-family="Arial" font-size="10.00" fill="#ffffff">Synth</text>
<text text-anchor="middle" x="205.5" y="-34.5" font-family="Arial" font-size="10.00" fill="#ffffff">Def</text>
<text text-anchor="middle" x="205.5" y="-23.5" font-family="Arial" font-size="10.00" fill="#ffffff">Compiler</text>
</a>
</g>
</g>
<!-- supriya.system.SupriyaObject.SupriyaObject -->
<g id="node3" class="node">
<title>supriya.system.SupriyaObject.SupriyaObject</title>
<g id="a_node3"><a xlink:href="../api/supriya/synthdefs/../system/SupriyaObject.html#supriya.system.SupriyaObject.SupriyaObject" xlink:title="Supriya\nObject" target="_top">
<path fill="#ccebc5" stroke="#ccebc5" stroke-width="2" d="M125,-52C125,-52 103,-52 103,-52 98,-52 93,-47 93,-42 93,-42 93,-32 93,-32 93,-27 98,-22 103,-22 103,-22 125,-22 125,-22 130,-22 135,-27 135,-32 135,-32 135,-42 135,-42 135,-47 130,-52 125,-52"/>
<text text-anchor="middle" x="114" y="-40" font-family="Arial" font-size="10.00" fill="#000000">Supriya</text>
<text text-anchor="middle" x="114" y="-29" font-family="Arial" font-size="10.00" fill="#000000">Object</text>
</a>
</g>
</g>
</g>
</svg>
