<?xml version="1.0" encoding="UTF-8" standalone="no"?>
<!DOCTYPE svg PUBLIC "-//W3C//DTD SVG 1.1//EN"
 "http://www.w3.org/Graphics/SVG/1.1/DTD/svg11.dtd">
<!-- Generated by graphviz version 2.40.1 (20161225.0304)
 -->
<!-- Title: InheritanceGraph Pages: 1 -->
<svg width="569pt" height="101pt"
 viewBox="0.00 0.00 568.97 101.00" xmlns="http://www.w3.org/2000/svg" xmlns:xlink="http://www.w3.org/1999/xlink">
<g id="graph0" class="graph" transform="scale(1 1) rotate(0) translate(4 97)">
<title>InheritanceGraph</title>
<g id="clust1" class="cluster">
<title>cluster_builtins</title>
<path fill="transparent" stroke="#bcd2ee" stroke-width="2" stroke-dasharray="5,2" d="M20,-19C20,-19 49,-19 49,-19 55,-19 61,-25 61,-31 61,-31 61,-62 61,-62 61,-68 55,-74 49,-74 49,-74 20,-74 20,-74 14,-74 8,-68 8,-62 8,-62 8,-31 8,-31 8,-25 14,-19 20,-19"/>
<text text-anchor="middle" x="34.5" y="-62" font-family="Arial" font-size="10.00" fill="#000000">builtins</text>
</g>
<g id="clust2" class="cluster">
<title>cluster_supriya.patterns</title>
<path fill="transparent" stroke="#bcd2ee" stroke-width="2" stroke-dasharray="5,2" d="M249,-8C249,-8 540.9655,-8 540.9655,-8 546.9655,-8 552.9655,-14 552.9655,-20 552.9655,-20 552.9655,-73 552.9655,-73 552.9655,-79 546.9655,-85 540.9655,-85 540.9655,-85 249,-85 249,-85 243,-85 237,-79 237,-73 237,-73 237,-20 237,-20 237,-14 243,-8 249,-8"/>
<text text-anchor="middle" x="394.9828" y="-73" font-family="Arial" font-size="10.00" fill="#000000">supriya.patterns</text>
</g>
<g id="clust3" class="cluster">
<title>cluster_supriya.system</title>
<path fill="transparent" stroke="#bcd2ee" stroke-width="2" stroke-dasharray="5,2" d="M93,-8C93,-8 205,-8 205,-8 211,-8 217,-14 217,-20 217,-20 217,-73 217,-73 217,-79 211,-85 205,-85 205,-85 93,-85 93,-85 87,-85 81,-79 81,-73 81,-73 81,-20 81,-20 81,-14 87,-8 93,-8"/>
<text text-anchor="middle" x="149" y="-73" font-family="Arial" font-size="10.00" fill="#000000">supriya.system</text>
</g>
<!-- builtins.object&#45;&gt;supriya.system.SupriyaObject.SupriyaObject -->
<g id="edge5" class="edge">
<title>builtins.object&#45;&gt;supriya.system.SupriyaObject.SupriyaObject</title>
<path fill="none" stroke="#778899" d="M53.1629,-37C60.862,-37 69.9986,-37 78.6696,-37"/>
<polygon fill="#778899" stroke="#778899" points="78.8875,-40.5001 88.8875,-37 78.8874,-33.5001 78.8875,-40.5001"/>
</g>
<!-- supriya.patterns.EventPattern.EventPattern&#45;&gt;supriya.patterns.Pbind.Pbind -->
<g id="edge1" class="edge">
<title>supriya.patterns.EventPattern.EventPattern&#45;&gt;supriya.patterns.Pbind.Pbind</title>
<path fill="none" stroke="#778899" d="M397.0005,-37C405.4142,-37 414.5819,-37 422.9335,-37"/>
<polygon fill="#778899" stroke="#778899" points="422.9577,-40.5001 432.9576,-37 422.9576,-33.5001 422.9577,-40.5001"/>
</g>
<!-- supriya.patterns.Pattern.Pattern&#45;&gt;supriya.patterns.EventPattern.EventPattern -->
<g id="edge2" class="edge">
<title>supriya.patterns.Pattern.Pattern&#45;&gt;supriya.patterns.EventPattern.EventPattern</title>
<path fill="none" stroke="#778899" d="M303.2129,-37C311.2577,-37 320.1174,-37 328.6326,-37"/>
<polygon fill="#778899" stroke="#778899" points="328.7707,-40.5001 338.7707,-37 328.7706,-33.5001 328.7707,-40.5001"/>
</g>
<!-- supriya.patterns.Pbind.Pbind&#45;&gt;supriya.patterns.Pmono.Pmono -->
<g id="edge3" class="edge">
<title>supriya.patterns.Pbind.Pbind&#45;&gt;supriya.patterns.Pmono.Pmono</title>
<path fill="none" stroke="#778899" d="M469.2577,-37C476.9255,-37 486.0481,-37 494.6684,-37"/>
<polygon fill="#778899" stroke="#778899" points="494.8028,-40.5001 504.8027,-37 494.8027,-33.5001 494.8028,-40.5001"/>
</g>
<!-- supriya.system.SupriyaObject.SupriyaObject&#45;&gt;supriya.system.SupriyaValueObject.SupriyaValueObject -->
<g id="edge4" class="edge">
<title>supriya.system.SupriyaObject.SupriyaObject&#45;&gt;supriya.system.SupriyaValueObject.SupriyaValueObject</title>
<path fill="none" stroke="#778899" d="M131.3138,-37C139.2025,-37 148.316,-37 156.8971,-37"/>
<polygon fill="#778899" stroke="#778899" points="156.982,-40.5001 166.982,-37 156.982,-33.5001 156.982,-40.5001"/>
</g>
<!-- supriya.system.SupriyaValueObject.SupriyaValueObject&#45;&gt;supriya.patterns.Pattern.Pattern -->
<g id="edge6" class="edge">
<title>supriya.system.SupriyaValueObject.SupriyaValueObject&#45;&gt;supriya.patterns.Pattern.Pattern</title>
<path fill="none" stroke="#778899" d="M209.2563,-37C216.9777,-37 225.9685,-37 234.749,-37"/>
<polygon fill="#778899" stroke="#778899" points="234.8712,-40.5001 244.8711,-37 234.8711,-33.5001 234.8712,-40.5001"/>
</g>
<!-- builtins.object -->
<g id="node1" class="node">
<title>builtins.object</title>
<g id="a_node1"><a xlink:href="https://docs.python.org/3.6/library/functions.html#object" xlink:title="object" target="_top">
<path fill="#fbb4ae" stroke="#fbb4ae" stroke-width="2" d="M46.6667,-46.5C46.6667,-46.5 22.3333,-46.5 22.3333,-46.5 19.1667,-46.5 16,-43.3333 16,-40.1667 16,-40.1667 16,-33.8333 16,-33.8333 16,-30.6667 19.1667,-27.5 22.3333,-27.5 22.3333,-27.5 46.6667,-27.5 46.6667,-27.5 49.8333,-27.5 53,-30.6667 53,-33.8333 53,-33.8333 53,-40.1667 53,-40.1667 53,-43.3333 49.8333,-46.5 46.6667,-46.5"/>
<text text-anchor="middle" x="34.5" y="-34.5" font-family="Arial" font-size="10.00" fill="#000000">object</text>
</a>
</g>
</g>
<!-- supriya.patterns.EventPattern.EventPattern -->
<g id="node2" class="node">
<title>supriya.patterns.EventPattern.EventPattern</title>
<g id="a_node2"><a xlink:href="../api/supriya/patterns/EventPattern.html#supriya.patterns.EventPattern.EventPattern" xlink:title="Event\nPattern" target="_top">
<ellipse fill="none" stroke="#b3cde3" stroke-width="2" cx="367.9741" cy="-37" rx="28.9828" ry="21.4286"/>
<text text-anchor="middle" x="367.9741" y="-40" font-family="Arial" font-size="10.00" fill="#000000">Event</text>
<text text-anchor="middle" x="367.9741" y="-29" font-family="Arial" font-size="10.00" fill="#000000">Pattern</text>
</a>
</g>
</g>
<!-- supriya.patterns.Pattern.Pattern -->
<g id="node3" class="node">
<title>supriya.patterns.Pattern.Pattern</title>
<g id="a_node3"><a xlink:href="../api/supriya/patterns/Pattern.html#supriya.patterns.Pattern.Pattern" xlink:title="Pattern" target="_top">
<ellipse fill="none" stroke="#b3cde3" stroke-width="2" cx="273.9914" cy="-37" rx="28.9828" ry="13.3704"/>
<text text-anchor="middle" x="273.9914" y="-34.5" font-family="Arial" font-size="10.00" fill="#000000">Pattern</text>
</a>
</g>
</g>
<!-- supriya.patterns.Pbind.Pbind -->
<g id="node4" class="node">
<title>supriya.patterns.Pbind.Pbind</title>
<g id="a_node4"><a xlink:href="../api/supriya/patterns/Pbind.html#supriya.patterns.Pbind.Pbind" xlink:title="Pbind" target="_top">
<path fill="#b3cde3" stroke="#b3cde3" stroke-width="2" d="M462.6322,-46.5C462.6322,-46.5 439.2988,-46.5 439.2988,-46.5 436.1322,-46.5 432.9655,-43.3333 432.9655,-40.1667 432.9655,-40.1667 432.9655,-33.8333 432.9655,-33.8333 432.9655,-30.6667 436.1322,-27.5 439.2988,-27.5 439.2988,-27.5 462.6322,-27.5 462.6322,-27.5 465.7988,-27.5 468.9655,-30.6667 468.9655,-33.8333 468.9655,-33.8333 468.9655,-40.1667 468.9655,-40.1667 468.9655,-43.3333 465.7988,-46.5 462.6322,-46.5"/>
<text text-anchor="middle" x="450.9655" y="-34.5" font-family="Arial" font-size="10.00" fill="#000000">Pbind</text>
</a>
</g>
</g>
<!-- supriya.patterns.Pmono.Pmono -->
<g id="node5" class="node">
<title>supriya.patterns.Pmono.Pmono</title>
<g id="a_node5"><a xlink:href="../api/supriya/patterns/Pmono.html#supriya.patterns.Pmono.Pmono" xlink:title="Pmono" target="_top">
<path fill="#000000" stroke="#000000" stroke-width="2" d="M538.6322,-46.5C538.6322,-46.5 511.2988,-46.5 511.2988,-46.5 508.1322,-46.5 504.9655,-43.3333 504.9655,-40.1667 504.9655,-40.1667 504.9655,-33.8333 504.9655,-33.8333 504.9655,-30.6667 508.1322,-27.5 511.2988,-27.5 511.2988,-27.5 538.6322,-27.5 538.6322,-27.5 541.7988,-27.5 544.9655,-30.6667 544.9655,-33.8333 544.9655,-33.8333 544.9655,-40.1667 544.9655,-40.1667 544.9655,-43.3333 541.7988,-46.5 538.6322,-46.5"/>
<text text-anchor="middle" x="524.9655" y="-34.5" font-family="Arial" font-size="10.00" fill="#ffffff">Pmono</text>
</a>
</g>
</g>
<!-- supriya.system.SupriyaObject.SupriyaObject -->
<g id="node6" class="node">
<title>supriya.system.SupriyaObject.SupriyaObject</title>
<g id="a_node6"><a xlink:href="../api/supriya/patterns/../system/SupriyaObject.html#supriya.system.SupriyaObject.SupriyaObject" xlink:title="Supriya\nObject" target="_top">
<path fill="#ccebc5" stroke="#ccebc5" stroke-width="2" d="M121,-52C121,-52 99,-52 99,-52 94,-52 89,-47 89,-42 89,-42 89,-32 89,-32 89,-27 94,-22 99,-22 99,-22 121,-22 121,-22 126,-22 131,-27 131,-32 131,-32 131,-42 131,-42 131,-47 126,-52 121,-52"/>
<text text-anchor="middle" x="110" y="-40" font-family="Arial" font-size="10.00" fill="#000000">Supriya</text>
<text text-anchor="middle" x="110" y="-29" font-family="Arial" font-size="10.00" fill="#000000">Object</text>
</a>
</g>
</g>
<!-- supriya.system.SupriyaValueObject.SupriyaValueObject -->
<g id="node7" class="node">
<title>supriya.system.SupriyaValueObject.SupriyaValueObject</title>
<g id="a_node7"><a xlink:href="../api/supriya/patterns/../system/SupriyaValueObject.html#supriya.system.SupriyaValueObject.SupriyaValueObject" xlink:title="Supriya\nValue\nObject" target="_top">
<path fill="#ccebc5" stroke="#ccebc5" stroke-width="2" d="M197,-57.5C197,-57.5 179,-57.5 179,-57.5 173,-57.5 167,-51.5 167,-45.5 167,-45.5 167,-28.5 167,-28.5 167,-22.5 173,-16.5 179,-16.5 179,-16.5 197,-16.5 197,-16.5 203,-16.5 209,-22.5 209,-28.5 209,-28.5 209,-45.5 209,-45.5 209,-51.5 203,-57.5 197,-57.5"/>
<text text-anchor="middle" x="188" y="-45.5" font-family="Arial" font-size="10.00" fill="#000000">Supriya</text>
<text text-anchor="middle" x="188" y="-34.5" font-family="Arial" font-size="10.00" fill="#000000">Value</text>
<text text-anchor="middle" x="188" y="-23.5" font-family="Arial" font-size="10.00" fill="#000000">Object</text>
</a>
</g>
</g>
</g>
</svg>
