<?xml version="1.0" encoding="UTF-8" standalone="no"?>
<!DOCTYPE svg PUBLIC "-//W3C//DTD SVG 1.1//EN"
 "http://www.w3.org/Graphics/SVG/1.1/DTD/svg11.dtd">
<!-- Generated by graphviz version 2.44.1 (20200629.0846)
 -->
<!-- Title: InheritanceGraph Pages: 1 -->
<svg width="756pt" height="101pt"
 viewBox="0.00 0.00 755.53 101.00" xmlns="http://www.w3.org/2000/svg" xmlns:xlink="http://www.w3.org/1999/xlink">
<g id="graph0" class="graph" transform="scale(1 1) rotate(0) translate(4 97)">
<title>InheritanceGraph</title>
<g id="clust1" class="cluster">
<title>cluster_builtins</title>
<path fill="transparent" stroke="#bcd2ee" stroke-width="2" stroke-dasharray="5,2" d="M20,-19C20,-19 55,-19 55,-19 61,-19 67,-25 67,-31 67,-31 67,-62 67,-62 67,-68 61,-74 55,-74 55,-74 20,-74 20,-74 14,-74 8,-68 8,-62 8,-62 8,-31 8,-31 8,-25 14,-19 20,-19"/>
<text text-anchor="middle" x="37.5" y="-62" font-family="Arial" font-size="10.00">builtins</text>
</g>
<g id="clust2" class="cluster">
<title>cluster_supriya.synthdefs.bases</title>
<path fill="transparent" stroke="#bcd2ee" stroke-width="2" stroke-dasharray="5,2" d="M347,-8C347,-8 493.79,-8 493.79,-8 499.79,-8 505.79,-14 505.79,-20 505.79,-20 505.79,-73 505.79,-73 505.79,-79 499.79,-85 493.79,-85 493.79,-85 347,-85 347,-85 341,-85 335,-79 335,-73 335,-73 335,-20 335,-20 335,-14 341,-8 347,-8"/>
<text text-anchor="middle" x="420.4" y="-73" font-family="Arial" font-size="10.00">supriya.synthdefs.bases</text>
</g>
<g id="clust3" class="cluster">
<title>cluster_supriya.synthdefs.mixins</title>
<path fill="transparent" stroke="#bcd2ee" stroke-width="2" stroke-dasharray="5,2" d="M202,-8C202,-8 303,-8 303,-8 309,-8 315,-14 315,-20 315,-20 315,-73 315,-73 315,-79 309,-85 303,-85 303,-85 202,-85 202,-85 196,-85 190,-79 190,-73 190,-73 190,-20 190,-20 190,-14 196,-8 202,-8"/>
<text text-anchor="middle" x="252.5" y="-73" font-family="Arial" font-size="10.00">supriya.synthdefs.mixins</text>
</g>
<g id="clust4" class="cluster">
<title>cluster_supriya.system</title>
<path fill="transparent" stroke="#bcd2ee" stroke-width="2" stroke-dasharray="5,2" d="M99,-14C99,-14 158,-14 158,-14 164,-14 170,-20 170,-26 170,-26 170,-67 170,-67 170,-73 164,-79 158,-79 158,-79 99,-79 99,-79 93,-79 87,-73 87,-67 87,-67 87,-26 87,-26 87,-20 93,-14 99,-14"/>
<text text-anchor="middle" x="128.5" y="-67" font-family="Arial" font-size="10.00">supriya.system</text>
</g>
<g id="clust5" class="cluster">
<title>cluster_supriya.ugens</title>
<path fill="transparent" stroke="#bcd2ee" stroke-width="2" stroke-dasharray="5,2" d="M537.79,-14C537.79,-14 727.53,-14 727.53,-14 733.53,-14 739.53,-20 739.53,-26 739.53,-26 739.53,-67 739.53,-67 739.53,-73 733.53,-79 727.53,-79 727.53,-79 537.79,-79 537.79,-79 531.79,-79 525.79,-73 525.79,-67 525.79,-67 525.79,-26 525.79,-26 525.79,-20 531.79,-14 537.79,-14"/>
<text text-anchor="middle" x="632.66" y="-67" font-family="Arial" font-size="10.00">supriya.ugens</text>
</g>
<!-- builtins.object&#45;&gt;supriya.system.SupriyaObject -->
<g id="edge4" class="edge">
<title>builtins.object&#45;&gt;supriya.system.SupriyaObject</title>
<path fill="none" stroke="lightslategrey" d="M59.03,-37C69.03,-37 81.34,-37 92.72,-37"/>
<polygon fill="lightslategrey" stroke="lightslategrey" points="92.82,-40.5 102.82,-37 92.82,-33.5 92.82,-40.5"/>
</g>
<!-- supriya.synthdefs.bases.PureUGen&#45;&gt;supriya.ugens.Filter.Filter -->
<g id="edge5" class="edge">
<title>supriya.synthdefs.bases.PureUGen&#45;&gt;supriya.ugens.Filter.Filter</title>
<path fill="none" stroke="lightslategrey" d="M498,-37C506.17,-37 515.16,-37 523.7,-37"/>
<polygon fill="lightslategrey" stroke="lightslategrey" points="523.79,-40.5 533.79,-37 523.79,-33.5 523.79,-40.5"/>
</g>
<!-- supriya.synthdefs.bases.UGen&#45;&gt;supriya.synthdefs.bases.PureUGen -->
<g id="edge1" class="edge">
<title>supriya.synthdefs.bases.UGen&#45;&gt;supriya.synthdefs.bases.PureUGen</title>
<path fill="none" stroke="lightslategrey" d="M402.48,-37C410.56,-37 419.48,-37 428.05,-37"/>
<polygon fill="lightslategrey" stroke="lightslategrey" points="428.25,-40.5 438.25,-37 428.25,-33.5 428.25,-40.5"/>
</g>
<!-- supriya.synthdefs.mixins.UGenMethodMixin&#45;&gt;supriya.synthdefs.bases.UGen -->
<g id="edge6" class="edge">
<title>supriya.synthdefs.mixins.UGenMethodMixin&#45;&gt;supriya.synthdefs.bases.UGen</title>
<path fill="none" stroke="lightslategrey" d="M277.14,-37C292.98,-37 314.22,-37 332.55,-37"/>
<polygon fill="lightslategrey" stroke="lightslategrey" points="332.67,-40.5 342.67,-37 332.67,-33.5 332.67,-40.5"/>
</g>
<!-- supriya.system.SupriyaObject&#45;&gt;supriya.synthdefs.mixins.UGenMethodMixin -->
<g id="edge7" class="edge">
<title>supriya.system.SupriyaObject&#45;&gt;supriya.synthdefs.mixins.UGenMethodMixin</title>
<path fill="none" stroke="lightslategrey" d="M153.2,-37C171.61,-37 197.17,-37 217.61,-37"/>
<polygon fill="lightslategrey" stroke="lightslategrey" points="217.77,-40.5 227.77,-37 217.77,-33.5 217.77,-40.5"/>
</g>
<!-- supriya.ugens.Filter.Filter&#45;&gt;supriya.ugens.OnePole.OnePole -->
<g id="edge2" class="edge">
<title>supriya.ugens.Filter.Filter&#45;&gt;supriya.ugens.OnePole.OnePole</title>
<path fill="none" stroke="lightslategrey" d="M587.93,-37C596.03,-37 604.97,-37 613.14,-37"/>
<polygon fill="lightslategrey" stroke="lightslategrey" points="613.31,-40.5 623.31,-37 613.31,-33.5 613.31,-40.5"/>
</g>
<!-- supriya.ugens.OnePole.OnePole&#45;&gt;supriya.ugens.OneZero.OneZero -->
<g id="edge3" class="edge">
<title>supriya.ugens.OnePole.OnePole&#45;&gt;supriya.ugens.OneZero.OneZero</title>
<path fill="none" stroke="lightslategrey" d="M659.84,-37C667.55,-37 676.82,-37 685.42,-37"/>
<polygon fill="lightslategrey" stroke="lightslategrey" points="685.43,-40.5 695.43,-37 685.43,-33.5 685.43,-40.5"/>
</g>
<!-- builtins.object -->
<g id="node1" class="node">
<title>builtins.object</title>
<g id="a_node1"><a xlink:href="https://docs.python.org/3/library/functions.html#object" xlink:title="object" target="_top">
<path fill="#fbb4ae" stroke="#fbb4ae" stroke-width="2" d="M52.67,-46.5C52.67,-46.5 22.33,-46.5 22.33,-46.5 19.17,-46.5 16,-43.33 16,-40.17 16,-40.17 16,-33.83 16,-33.83 16,-30.67 19.17,-27.5 22.33,-27.5 22.33,-27.5 52.67,-27.5 52.67,-27.5 55.83,-27.5 59,-30.67 59,-33.83 59,-33.83 59,-40.17 59,-40.17 59,-43.33 55.83,-46.5 52.67,-46.5"/>
<text text-anchor="middle" x="37.5" y="-34.5" font-family="Arial" font-size="10.00">object</text>
</a>
</g>
</g>
<!-- supriya.synthdefs.bases.PureUGen -->
<g id="node2" class="node">
<title>supriya.synthdefs.bases.PureUGen</title>
<g id="a_node2"><a xlink:href="../api/supriya/ugens/../synthdefs/bases.html#supriya.synthdefs.bases.PureUGen" xlink:title="Pure\nUGen" target="_top">
<ellipse fill="none" stroke="#b3cde3" stroke-width="2" cx="468.1" cy="-37" rx="29.9" ry="21.43"/>
<text text-anchor="middle" x="468.1" y="-40" font-family="Arial" font-size="10.00">Pure</text>
<text text-anchor="middle" x="468.1" y="-29" font-family="Arial" font-size="10.00">UGen</text>
</a>
</g>
</g>
<!-- supriya.synthdefs.bases.UGen -->
<g id="node3" class="node">
<title>supriya.synthdefs.bases.UGen</title>
<g id="a_node3"><a xlink:href="../api/supriya/ugens/../synthdefs/bases.html#supriya.synthdefs.bases.UGen" xlink:title="UGen" target="_top">
<ellipse fill="none" stroke="#b3cde3" stroke-width="2" cx="372.7" cy="-37" rx="29.9" ry="13.37"/>
<text text-anchor="middle" x="372.7" y="-34.5" font-family="Arial" font-size="10.00">UGen</text>
</a>
</g>
</g>
<!-- supriya.synthdefs.mixins.UGenMethodMixin -->
<g id="node4" class="node">
<title>supriya.synthdefs.mixins.UGenMethodMixin</title>
<g id="a_node4"><a xlink:href="../api/supriya/ugens/../synthdefs/mixins.html#supriya.synthdefs.mixins.UGenMethodMixin" xlink:title="UGen\nMethod\nMixin" target="_top">
<path fill="#ccebc5" stroke="#ccebc5" stroke-width="2" d="M265,-57.5C265,-57.5 240,-57.5 240,-57.5 234,-57.5 228,-51.5 228,-45.5 228,-45.5 228,-28.5 228,-28.5 228,-22.5 234,-16.5 240,-16.5 240,-16.5 265,-16.5 265,-16.5 271,-16.5 277,-22.5 277,-28.5 277,-28.5 277,-45.5 277,-45.5 277,-51.5 271,-57.5 265,-57.5"/>
<text text-anchor="middle" x="252.5" y="-45.5" font-family="Arial" font-size="10.00">UGen</text>
<text text-anchor="middle" x="252.5" y="-34.5" font-family="Arial" font-size="10.00">Method</text>
<text text-anchor="middle" x="252.5" y="-23.5" font-family="Arial" font-size="10.00">Mixin</text>
</a>
</g>
</g>
<!-- supriya.system.SupriyaObject -->
<g id="node5" class="node">
<title>supriya.system.SupriyaObject</title>
<g id="a_node5"><a xlink:href="../api/supriya/ugens/../system.html#supriya.system.SupriyaObject" xlink:title="Supriya\nObject" target="_top">
<path fill="#decbe4" stroke="#decbe4" stroke-width="2" d="M143,-52C143,-52 113,-52 113,-52 108,-52 103,-47 103,-42 103,-42 103,-32 103,-32 103,-27 108,-22 113,-22 113,-22 143,-22 143,-22 148,-22 153,-27 153,-32 153,-32 153,-42 153,-42 153,-47 148,-52 143,-52"/>
<text text-anchor="middle" x="128" y="-40" font-family="Arial" font-size="10.00">Supriya</text>
<text text-anchor="middle" x="128" y="-29" font-family="Arial" font-size="10.00">Object</text>
</a>
</g>
</g>
<!-- supriya.ugens.Filter.Filter -->
<g id="node6" class="node">
<title>supriya.ugens.Filter.Filter</title>
<g id="a_node6"><a xlink:href="../api/supriya/ugens/Filter.html#supriya.ugens.Filter.Filter" xlink:title="Filter" target="_top">
<ellipse fill="none" stroke="#fed9a6" stroke-width="2" cx="560.66" cy="-37" rx="26.74" ry="13.37"/>
<text text-anchor="middle" x="560.66" y="-34.5" font-family="Arial" font-size="10.00">Filter</text>
</a>
</g>
</g>
<!-- supriya.ugens.OnePole.OnePole -->
<g id="node7" class="node">
<title>supriya.ugens.OnePole.OnePole</title>
<g id="a_node7"><a xlink:href="../api/supriya/ugens/OnePole.html#supriya.ugens.OnePole.OnePole" xlink:title="One\nPole" target="_top">
<path fill="#fed9a6" stroke="#fed9a6" stroke-width="2" d="M649.53,-52C649.53,-52 633.53,-52 633.53,-52 628.53,-52 623.53,-47 623.53,-42 623.53,-42 623.53,-32 623.53,-32 623.53,-27 628.53,-22 633.53,-22 633.53,-22 649.53,-22 649.53,-22 654.53,-22 659.53,-27 659.53,-32 659.53,-32 659.53,-42 659.53,-42 659.53,-47 654.53,-52 649.53,-52"/>
<text text-anchor="middle" x="641.53" y="-40" font-family="Arial" font-size="10.00">One</text>
<text text-anchor="middle" x="641.53" y="-29" font-family="Arial" font-size="10.00">Pole</text>
</a>
</g>
</g>
<!-- supriya.ugens.OneZero.OneZero -->
<g id="node8" class="node">
<title>supriya.ugens.OneZero.OneZero</title>
<g id="a_node8"><a xlink:href="../api/supriya/ugens/OneZero.html#supriya.ugens.OneZero.OneZero" xlink:title="One\nZero" target="_top">
<path fill="black" stroke="black" stroke-width="2" d="M721.53,-52C721.53,-52 705.53,-52 705.53,-52 700.53,-52 695.53,-47 695.53,-42 695.53,-42 695.53,-32 695.53,-32 695.53,-27 700.53,-22 705.53,-22 705.53,-22 721.53,-22 721.53,-22 726.53,-22 731.53,-27 731.53,-32 731.53,-32 731.53,-42 731.53,-42 731.53,-47 726.53,-52 721.53,-52"/>
<text text-anchor="middle" x="713.53" y="-40" font-family="Arial" font-size="10.00" fill="white">One</text>
<text text-anchor="middle" x="713.53" y="-29" font-family="Arial" font-size="10.00" fill="white">Zero</text>
</a>
</g>
</g>
</g>
</svg>
