<?xml version="1.0" encoding="UTF-8" standalone="no"?>
<!DOCTYPE svg PUBLIC "-//W3C//DTD SVG 1.1//EN"
 "http://www.w3.org/Graphics/SVG/1.1/DTD/svg11.dtd">
<!-- Generated by graphviz version 2.40.1 (20161225.0304)
 -->
<!-- Title: InheritanceGraph Pages: 1 -->
<svg width="483pt" height="202pt"
 viewBox="0.00 0.00 483.15 202.00" xmlns="http://www.w3.org/2000/svg" xmlns:xlink="http://www.w3.org/1999/xlink">
<g id="graph0" class="graph" transform="scale(1 1) rotate(0) translate(4 198)">
<title>InheritanceGraph</title>
<g id="clust1" class="cluster">
<title>cluster_builtins</title>
<path fill="transparent" stroke="#bcd2ee" stroke-width="2" stroke-dasharray="5,2" d="M20,-65C20,-65 49,-65 49,-65 55,-65 61,-71 61,-77 61,-77 61,-108 61,-108 61,-114 55,-120 49,-120 49,-120 20,-120 20,-120 14,-120 8,-114 8,-108 8,-108 8,-77 8,-77 8,-71 14,-65 20,-65"/>
<text text-anchor="middle" x="34.5" y="-108" font-family="Arial" font-size="10.00" fill="#000000">builtins</text>
</g>
<g id="clust2" class="cluster">
<title>cluster_supriya.realtime</title>
<path fill="transparent" stroke="#bcd2ee" stroke-width="2" stroke-dasharray="5,2" d="M180,-93C180,-93 455.1543,-93 455.1543,-93 461.1543,-93 467.1543,-99 467.1543,-105 467.1543,-105 467.1543,-174 467.1543,-174 467.1543,-180 461.1543,-186 455.1543,-186 455.1543,-186 180,-186 180,-186 174,-186 168,-180 168,-174 168,-174 168,-105 168,-105 168,-99 174,-93 180,-93"/>
<text text-anchor="middle" x="317.5772" y="-174" font-family="Arial" font-size="10.00" fill="#000000">supriya.realtime</text>
</g>
<g id="clust3" class="cluster">
<title>cluster_supriya.system</title>
<path fill="transparent" stroke="#bcd2ee" stroke-width="2" stroke-dasharray="5,2" d="M93,-94C93,-94 136,-94 136,-94 142,-94 148,-100 148,-106 148,-106 148,-147 148,-147 148,-153 142,-159 136,-159 136,-159 93,-159 93,-159 87,-159 81,-153 81,-147 81,-147 81,-106 81,-106 81,-100 87,-94 93,-94"/>
<text text-anchor="middle" x="114.5" y="-147" font-family="Arial" font-size="10.00" fill="#000000">supriya.system</text>
</g>
<g id="clust4" class="cluster">
<title>cluster_uqbar.containers</title>
<path fill="transparent" stroke="#bcd2ee" stroke-width="2" stroke-dasharray="5,2" d="M187.5772,-8C187.5772,-8 312.1543,-8 312.1543,-8 318.1543,-8 324.1543,-14 324.1543,-20 324.1543,-20 324.1543,-73 324.1543,-73 324.1543,-79 318.1543,-85 312.1543,-85 312.1543,-85 187.5772,-85 187.5772,-85 181.5772,-85 175.5772,-79 175.5772,-73 175.5772,-73 175.5772,-20 175.5772,-20 175.5772,-14 181.5772,-8 187.5772,-8"/>
<text text-anchor="middle" x="249.8657" y="-73" font-family="Arial" font-size="10.00" fill="#000000">uqbar.containers</text>
</g>
<!-- builtins.object&#45;&gt;supriya.system.SupriyaObject.SupriyaObject -->
<g id="edge5" class="edge">
<title>builtins.object&#45;&gt;supriya.system.SupriyaObject.SupriyaObject</title>
<path fill="none" stroke="#778899" d="M53.3404,-91.0575C62.3178,-94.8969 73.2843,-99.587 83.4118,-103.9182"/>
<polygon fill="#778899" stroke="#778899" points="82.2014,-107.2072 92.7722,-107.9214 84.954,-100.7711 82.2014,-107.2072"/>
</g>
<!-- builtins.object&#45;&gt;uqbar.containers.UniqueTreeNode.UniqueTreeNode -->
<g id="edge6" class="edge">
<title>builtins.object&#45;&gt;uqbar.containers.UniqueTreeNode.UniqueTreeNode</title>
<path fill="none" stroke="#778899" d="M53.2402,-77.9014C82.3039,-69.9942 138.5208,-54.6996 173.3684,-45.2188"/>
<polygon fill="#778899" stroke="#778899" points="174.713,-48.4802 183.4434,-42.4777 172.8752,-41.7258 174.713,-48.4802"/>
</g>
<!-- supriya.realtime.Group.Group&#45;&gt;supriya.realtime.RootNode.RootNode -->
<g id="edge1" class="edge">
<title>supriya.realtime.Group.Group&#45;&gt;supriya.realtime.RootNode.RootNode</title>
<path fill="none" stroke="#778899" d="M389.4401,-115.2627C397.1204,-115.3702 406.1606,-115.4966 414.5651,-115.6141"/>
<polygon fill="#778899" stroke="#778899" points="414.6726,-119.1159 424.7206,-115.7562 414.7706,-112.1166 414.6726,-119.1159"/>
</g>
<!-- supriya.realtime.Node.Node&#45;&gt;supriya.realtime.Group.Group -->
<g id="edge2" class="edge">
<title>supriya.realtime.Node.Node&#45;&gt;supriya.realtime.Group.Group</title>
<path fill="none" stroke="#778899" d="M315.7862,-115C323.9539,-115 333.1601,-115 341.6652,-115"/>
<polygon fill="#778899" stroke="#778899" points="341.9325,-118.5001 351.9324,-115 341.9324,-111.5001 341.9325,-118.5001"/>
</g>
<!-- supriya.realtime.ServerObjectProxy.ServerObjectProxy&#45;&gt;supriya.realtime.Node.Node -->
<g id="edge3" class="edge">
<title>supriya.realtime.ServerObjectProxy.ServerObjectProxy&#45;&gt;supriya.realtime.Node.Node</title>
<path fill="none" stroke="#778899" d="M230.9625,-125.3361C239.6948,-123.849 249.4516,-122.1873 258.5448,-120.6387"/>
<polygon fill="#778899" stroke="#778899" points="259.1689,-124.0829 268.4393,-118.9536 257.9936,-117.1823 259.1689,-124.0829"/>
</g>
<!-- supriya.system.SupriyaObject.SupriyaObject&#45;&gt;supriya.realtime.ServerObjectProxy.ServerObjectProxy -->
<g id="edge7" class="edge">
<title>supriya.system.SupriyaObject.SupriyaObject&#45;&gt;supriya.realtime.ServerObjectProxy.ServerObjectProxy</title>
<path fill="none" stroke="#778899" d="M135.2285,-120.0808C144.3859,-121.4098 155.3802,-123.0054 165.847,-124.5244"/>
<polygon fill="#778899" stroke="#778899" points="165.6513,-128.0325 176.0503,-126.0051 166.6567,-121.1051 165.6513,-128.0325"/>
</g>
<!-- uqbar.containers.UniqueTreeContainer.UniqueTreeContainer&#45;&gt;supriya.realtime.Group.Group -->
<g id="edge8" class="edge">
<title>uqbar.containers.UniqueTreeContainer.UniqueTreeContainer&#45;&gt;supriya.realtime.Group.Group</title>
<path fill="none" stroke="#778899" d="M312.8249,-57.9026C325.5722,-70.4885 341.5919,-86.3055 353.5362,-98.0986"/>
<polygon fill="#778899" stroke="#778899" points="351.1464,-100.6575 360.7214,-105.1928 356.0645,-95.6763 351.1464,-100.6575"/>
</g>
<!-- uqbar.containers.UniqueTreeNode.UniqueTreeNode&#45;&gt;supriya.realtime.Node.Node -->
<g id="edge9" class="edge">
<title>uqbar.containers.UniqueTreeNode.UniqueTreeNode&#45;&gt;supriya.realtime.Node.Node</title>
<path fill="none" stroke="#778899" d="M224.0052,-55.0908C238.1088,-67.5808 256.7994,-84.1329 270.9602,-96.6736"/>
<polygon fill="#778899" stroke="#778899" points="268.8987,-99.5231 278.7056,-103.5327 273.5396,-94.2827 268.8987,-99.5231"/>
</g>
<!-- uqbar.containers.UniqueTreeNode.UniqueTreeNode&#45;&gt;uqbar.containers.UniqueTreeContainer.UniqueTreeContainer -->
<g id="edge4" class="edge">
<title>uqbar.containers.UniqueTreeNode.UniqueTreeNode&#45;&gt;uqbar.containers.UniqueTreeContainer.UniqueTreeContainer</title>
<path fill="none" stroke="#778899" d="M224.0052,-37C233.7099,-37 245.5864,-37 256.6645,-37"/>
<polygon fill="#778899" stroke="#778899" points="256.9442,-40.5001 266.9442,-37 256.9442,-33.5001 256.9442,-40.5001"/>
</g>
<!-- builtins.object -->
<g id="node1" class="node">
<title>builtins.object</title>
<g id="a_node1"><a xlink:href="https://docs.python.org/3.6/library/functions.html#object" xlink:title="object" target="_top">
<path fill="#fbb4ae" stroke="#fbb4ae" stroke-width="2" d="M46.6667,-92.5C46.6667,-92.5 22.3333,-92.5 22.3333,-92.5 19.1667,-92.5 16,-89.3333 16,-86.1667 16,-86.1667 16,-79.8333 16,-79.8333 16,-76.6667 19.1667,-73.5 22.3333,-73.5 22.3333,-73.5 46.6667,-73.5 46.6667,-73.5 49.8333,-73.5 53,-76.6667 53,-79.8333 53,-79.8333 53,-86.1667 53,-86.1667 53,-89.3333 49.8333,-92.5 46.6667,-92.5"/>
<text text-anchor="middle" x="34.5" y="-80.5" font-family="Arial" font-size="10.00" fill="#000000">object</text>
</a>
</g>
</g>
<!-- supriya.realtime.Group.Group -->
<g id="node2" class="node">
<title>supriya.realtime.Group.Group</title>
<g id="a_node2"><a xlink:href="../api/supriya/realtime/Group.html#supriya.realtime.Group.Group" xlink:title="Group" target="_top">
<path fill="#000000" stroke="#000000" stroke-width="2" d="M382.821,-124.5C382.821,-124.5 358.4877,-124.5 358.4877,-124.5 355.321,-124.5 352.1543,-121.3333 352.1543,-118.1667 352.1543,-118.1667 352.1543,-111.8333 352.1543,-111.8333 352.1543,-108.6667 355.321,-105.5 358.4877,-105.5 358.4877,-105.5 382.821,-105.5 382.821,-105.5 385.9877,-105.5 389.1543,-108.6667 389.1543,-111.8333 389.1543,-111.8333 389.1543,-118.1667 389.1543,-118.1667 389.1543,-121.3333 385.9877,-124.5 382.821,-124.5"/>
<text text-anchor="middle" x="370.6543" y="-112.5" font-family="Arial" font-size="10.00" fill="#ffffff">Group</text>
</a>
</g>
</g>
<!-- supriya.realtime.Node.Node -->
<g id="node3" class="node">
<title>supriya.realtime.Node.Node</title>
<g id="a_node3"><a xlink:href="../api/supriya/realtime/Node.html#supriya.realtime.Node.Node" xlink:title="Node" target="_top">
<ellipse fill="none" stroke="#b3cde3" stroke-width="2" cx="291.6543" cy="-115" rx="24.0833" ry="13.3704"/>
<text text-anchor="middle" x="291.6543" y="-112.5" font-family="Arial" font-size="10.00" fill="#000000">Node</text>
</a>
</g>
</g>
<!-- supriya.realtime.RootNode.RootNode -->
<g id="node4" class="node">
<title>supriya.realtime.RootNode.RootNode</title>
<g id="a_node4"><a xlink:href="../api/supriya/realtime/RootNode.html#supriya.realtime.RootNode.RootNode" xlink:title="Root\nNode" target="_top">
<path fill="#b3cde3" stroke="#b3cde3" stroke-width="2" d="M449.1543,-131C449.1543,-131 435.1543,-131 435.1543,-131 430.1543,-131 425.1543,-126 425.1543,-121 425.1543,-121 425.1543,-111 425.1543,-111 425.1543,-106 430.1543,-101 435.1543,-101 435.1543,-101 449.1543,-101 449.1543,-101 454.1543,-101 459.1543,-106 459.1543,-111 459.1543,-111 459.1543,-121 459.1543,-121 459.1543,-126 454.1543,-131 449.1543,-131"/>
<text text-anchor="middle" x="442.1543" y="-119" font-family="Arial" font-size="10.00" fill="#000000">Root</text>
<text text-anchor="middle" x="442.1543" y="-108" font-family="Arial" font-size="10.00" fill="#000000">Node</text>
</a>
</g>
</g>
<!-- supriya.realtime.ServerObjectProxy.ServerObjectProxy -->
<g id="node5" class="node">
<title>supriya.realtime.ServerObjectProxy.ServerObjectProxy</title>
<g id="a_node5"><a xlink:href="../api/supriya/realtime/ServerObjectProxy.html#supriya.realtime.ServerObjectProxy.ServerObjectProxy" xlink:title="Server\nObject\nProxy" target="_top">
<ellipse fill="none" stroke="#b3cde3" stroke-width="2" cx="203.5772" cy="-130" rx="27.6545" ry="28.9828"/>
<text text-anchor="middle" x="203.5772" y="-138.5" font-family="Arial" font-size="10.00" fill="#000000">Server</text>
<text text-anchor="middle" x="203.5772" y="-127.5" font-family="Arial" font-size="10.00" fill="#000000">Object</text>
<text text-anchor="middle" x="203.5772" y="-116.5" font-family="Arial" font-size="10.00" fill="#000000">Proxy</text>
</a>
</g>
</g>
<!-- supriya.system.SupriyaObject.SupriyaObject -->
<g id="node6" class="node">
<title>supriya.system.SupriyaObject.SupriyaObject</title>
<g id="a_node6"><a xlink:href="../api/supriya/realtime/../system/SupriyaObject.html#supriya.system.SupriyaObject.SupriyaObject" xlink:title="Supriya\nObject" target="_top">
<path fill="#ccebc5" stroke="#ccebc5" stroke-width="2" d="M125,-132C125,-132 103,-132 103,-132 98,-132 93,-127 93,-122 93,-122 93,-112 93,-112 93,-107 98,-102 103,-102 103,-102 125,-102 125,-102 130,-102 135,-107 135,-112 135,-112 135,-122 135,-122 135,-127 130,-132 125,-132"/>
<text text-anchor="middle" x="114" y="-120" font-family="Arial" font-size="10.00" fill="#000000">Supriya</text>
<text text-anchor="middle" x="114" y="-109" font-family="Arial" font-size="10.00" fill="#000000">Object</text>
</a>
</g>
</g>
<!-- uqbar.containers.UniqueTreeContainer.UniqueTreeContainer -->
<g id="node7" class="node">
<title>uqbar.containers.UniqueTreeContainer.UniqueTreeContainer</title>
<path fill="#decbe4" stroke="#decbe4" stroke-width="2" d="M304.1543,-57.5C304.1543,-57.5 279.1543,-57.5 279.1543,-57.5 273.1543,-57.5 267.1543,-51.5 267.1543,-45.5 267.1543,-45.5 267.1543,-28.5 267.1543,-28.5 267.1543,-22.5 273.1543,-16.5 279.1543,-16.5 279.1543,-16.5 304.1543,-16.5 304.1543,-16.5 310.1543,-16.5 316.1543,-22.5 316.1543,-28.5 316.1543,-28.5 316.1543,-45.5 316.1543,-45.5 316.1543,-51.5 310.1543,-57.5 304.1543,-57.5"/>
<text text-anchor="middle" x="291.6543" y="-45.5" font-family="Arial" font-size="10.00" fill="#000000">Unique</text>
<text text-anchor="middle" x="291.6543" y="-34.5" font-family="Arial" font-size="10.00" fill="#000000">Tree</text>
<text text-anchor="middle" x="291.6543" y="-23.5" font-family="Arial" font-size="10.00" fill="#000000">Container</text>
</g>
<!-- uqbar.containers.UniqueTreeNode.UniqueTreeNode -->
<g id="node8" class="node">
<title>uqbar.containers.UniqueTreeNode.UniqueTreeNode</title>
<path fill="#decbe4" stroke="#decbe4" stroke-width="2" d="M211.5772,-57.5C211.5772,-57.5 195.5772,-57.5 195.5772,-57.5 189.5772,-57.5 183.5772,-51.5 183.5772,-45.5 183.5772,-45.5 183.5772,-28.5 183.5772,-28.5 183.5772,-22.5 189.5772,-16.5 195.5772,-16.5 195.5772,-16.5 211.5772,-16.5 211.5772,-16.5 217.5772,-16.5 223.5772,-22.5 223.5772,-28.5 223.5772,-28.5 223.5772,-45.5 223.5772,-45.5 223.5772,-51.5 217.5772,-57.5 211.5772,-57.5"/>
<text text-anchor="middle" x="203.5772" y="-45.5" font-family="Arial" font-size="10.00" fill="#000000">Unique</text>
<text text-anchor="middle" x="203.5772" y="-34.5" font-family="Arial" font-size="10.00" fill="#000000">Tree</text>
<text text-anchor="middle" x="203.5772" y="-23.5" font-family="Arial" font-size="10.00" fill="#000000">Node</text>
</g>
</g>
</svg>
