<?xml version="1.0" encoding="UTF-8" standalone="no"?>
<!DOCTYPE svg PUBLIC "-//W3C//DTD SVG 1.1//EN"
 "http://www.w3.org/Graphics/SVG/1.1/DTD/svg11.dtd">
<!-- Generated by graphviz version 2.40.1 (20161225.0304)
 -->
<!-- Title: InheritanceGraph Pages: 1 -->
<svg width="595pt" height="342pt"
 viewBox="0.00 0.00 594.81 342.00" xmlns="http://www.w3.org/2000/svg" xmlns:xlink="http://www.w3.org/1999/xlink">
<g id="graph0" class="graph" transform="scale(1 1) rotate(0) translate(4 338)">
<title>InheritanceGraph</title>
<g id="clust1" class="cluster">
<title>cluster_supriya.system</title>
<path fill="transparent" stroke="#bcd2ee" stroke-width="2" stroke-dasharray="5,2" d="M93,-245C93,-245 242,-245 242,-245 248,-245 254,-251 254,-257 254,-257 254,-310 254,-310 254,-316 248,-322 242,-322 242,-322 93,-322 93,-322 87,-322 81,-316 81,-310 81,-310 81,-257 81,-257 81,-251 87,-245 93,-245"/>
<text text-anchor="middle" x="167.5" y="-310" font-family="Arial" font-size="10.00" fill="#000000">supriya.system</text>
</g>
<g id="clust2" class="cluster">
<title>cluster_builtins</title>
<path fill="transparent" stroke="#bcd2ee" stroke-width="2" stroke-dasharray="5,2" d="M20,-78C20,-78 49,-78 49,-78 55,-78 61,-84 61,-90 61,-90 61,-121 61,-121 61,-127 55,-133 49,-133 49,-133 20,-133 20,-133 14,-133 8,-127 8,-121 8,-121 8,-90 8,-90 8,-84 14,-78 20,-78"/>
<text text-anchor="middle" x="34.5" y="-121" font-family="Arial" font-size="10.00" fill="#000000">builtins</text>
</g>
<g id="clust3" class="cluster">
<title>cluster_supriya.nonrealtime</title>
<path fill="transparent" stroke="#bcd2ee" stroke-width="2" stroke-dasharray="5,2" d="M286,-8C286,-8 566.8112,-8 566.8112,-8 572.8112,-8 578.8112,-14 578.8112,-20 578.8112,-20 578.8112,-314 578.8112,-314 578.8112,-320 572.8112,-326 566.8112,-326 566.8112,-326 286,-326 286,-326 280,-326 274,-320 274,-314 274,-314 274,-20 274,-20 274,-14 280,-8 286,-8"/>
<text text-anchor="middle" x="426.4056" y="-314" font-family="Arial" font-size="10.00" fill="#000000">supriya.nonrealtime</text>
</g>
<!-- supriya.system.SupriyaObject.SupriyaObject&#45;&gt;supriya.system.SupriyaValueObject.SupriyaValueObject -->
<g id="edge1" class="edge">
<title>supriya.system.SupriyaObject.SupriyaObject&#45;&gt;supriya.system.SupriyaValueObject.SupriyaValueObject</title>
<path fill="none" stroke="#778899" d="M131.0928,-269.1005C148.5715,-270.0124 173.6747,-271.3222 193.5296,-272.3581"/>
<polygon fill="#778899" stroke="#778899" points="193.4827,-275.8603 203.6515,-272.8862 193.8475,-268.8698 193.4827,-275.8603"/>
</g>
<!-- supriya.system.SupriyaObject.SupriyaObject&#45;&gt;supriya.nonrealtime.SessionObject.SessionObject -->
<g id="edge18" class="edge">
<title>supriya.system.SupriyaObject.SupriyaObject&#45;&gt;supriya.nonrealtime.SessionObject.SessionObject</title>
<path fill="none" stroke="#778899" d="M131.1437,-262.1684C150.1064,-257.0962 178.7511,-249.8226 204,-245 226.5107,-240.7004 251.8752,-237.1224 272.4067,-234.5406"/>
<polygon fill="#778899" stroke="#778899" points="272.863,-238.0109 282.3621,-233.3186 272.0102,-231.0631 272.863,-238.0109"/>
</g>
<!-- supriya.system.SupriyaObject.SupriyaObject&#45;&gt;supriya.nonrealtime.SessionRenderer.SessionRenderer -->
<g id="edge19" class="edge">
<title>supriya.system.SupriyaObject.SupriyaObject&#45;&gt;supriya.nonrealtime.SessionRenderer.SessionRenderer</title>
<path fill="none" stroke="#778899" d="M131.2784,-258.3283C166.4953,-242.321 237.1635,-210.2 279.0602,-191.1566"/>
<polygon fill="#778899" stroke="#778899" points="280.6413,-194.2825 288.2968,-186.9583 277.7448,-187.9099 280.6413,-194.2825"/>
</g>
<!-- supriya.system.SupriyaValueObject.SupriyaValueObject&#45;&gt;supriya.nonrealtime.NodeTransition.NodeTransition -->
<g id="edge20" class="edge">
<title>supriya.system.SupriyaValueObject.SupriyaValueObject&#45;&gt;supriya.nonrealtime.NodeTransition.NodeTransition</title>
<path fill="none" stroke="#778899" d="M246.1585,-276.4207C255.5558,-277.4959 266.8682,-278.7901 277.4641,-280.0024"/>
<polygon fill="#778899" stroke="#778899" points="277.3907,-283.5167 287.7237,-281.1762 278.1864,-276.5621 277.3907,-283.5167"/>
</g>
<!-- builtins.object&#45;&gt;supriya.system.SupriyaObject.SupriyaObject -->
<g id="edge17" class="edge">
<title>builtins.object&#45;&gt;supriya.system.SupriyaObject.SupriyaObject</title>
<path fill="none" stroke="#778899" d="M38.7755,-105.7403C50.3156,-132.0303 82.3632,-205.0395 99.2586,-243.5295"/>
<polygon fill="#778899" stroke="#778899" points="96.1753,-245.2133 103.3995,-252.9632 102.585,-242.3997 96.1753,-245.2133"/>
</g>
<!-- builtins.object&#45;&gt;supriya.nonrealtime.DoNotPropagate.DoNotPropagate -->
<g id="edge14" class="edge">
<title>builtins.object&#45;&gt;supriya.nonrealtime.DoNotPropagate.DoNotPropagate</title>
<path fill="none" stroke="#778899" d="M53.0161,-99.0805C61.5231,-100.4203 71.7554,-101.9259 81,-103 149.9477,-111.0109 230.8393,-116.8413 276.4121,-119.8001"/>
<polygon fill="#778899" stroke="#778899" points="276.4643,-123.3105 286.6673,-120.456 276.9111,-116.3248 276.4643,-123.3105"/>
</g>
<!-- builtins.object&#45;&gt;supriya.nonrealtime.Session.Session -->
<g id="edge15" class="edge">
<title>builtins.object&#45;&gt;supriya.nonrealtime.Session.Session</title>
<path fill="none" stroke="#778899" d="M53.1657,-94.5224C99.9095,-90.8219 222.4141,-81.124 280.7044,-76.5096"/>
<polygon fill="#778899" stroke="#778899" points="281.1158,-79.9881 290.8084,-75.7097 280.5634,-73.0099 281.1158,-79.9881"/>
</g>
<!-- builtins.object&#45;&gt;supriya.nonrealtime.SessionFactory.SessionFactory -->
<g id="edge16" class="edge">
<title>builtins.object&#45;&gt;supriya.nonrealtime.SessionFactory.SessionFactory</title>
<path fill="none" stroke="#778899" d="M53.0252,-91.0952C61.534,-88.8743 71.7652,-86.2487 81,-84 152.1795,-66.6677 236.0752,-47.8528 280.7127,-37.9702"/>
<polygon fill="#778899" stroke="#778899" points="281.6554,-41.3464 290.6646,-35.7709 280.1449,-34.5113 281.6554,-41.3464"/>
</g>
<!-- supriya.nonrealtime.BusGroup.BusGroup&#45;&gt;supriya.nonrealtime.AudioInputBusGroup.AudioInputBusGroup -->
<g id="edge2" class="edge">
<title>supriya.nonrealtime.BusGroup.BusGroup&#45;&gt;supriya.nonrealtime.AudioInputBusGroup.AudioInputBusGroup</title>
<path fill="none" stroke="#778899" d="M415.8297,-178.1068C424.9707,-172.7297 436.1821,-166.1348 446.3019,-160.1819"/>
<polygon fill="#778899" stroke="#778899" points="448.3533,-163.0359 455.1981,-154.9489 444.8041,-157.0024 448.3533,-163.0359"/>
</g>
<!-- supriya.nonrealtime.BusGroup.BusGroup&#45;&gt;supriya.nonrealtime.AudioOutputBusGroup.AudioOutputBusGroup -->
<g id="edge3" class="edge">
<title>supriya.nonrealtime.BusGroup.BusGroup&#45;&gt;supriya.nonrealtime.AudioOutputBusGroup.AudioOutputBusGroup</title>
<path fill="none" stroke="#778899" d="M415.8872,-188.7588C442.0786,-188.4186 490.1482,-187.7943 521.4064,-187.3884"/>
<polygon fill="#778899" stroke="#778899" points="521.7446,-190.8844 531.6983,-187.2547 521.6536,-183.885 521.7446,-190.8844"/>
</g>
<!-- supriya.nonrealtime.Group.Group&#45;&gt;supriya.nonrealtime.RootNode.RootNode -->
<g id="edge4" class="edge">
<title>supriya.nonrealtime.Group.Group&#45;&gt;supriya.nonrealtime.RootNode.RootNode</title>
<path fill="none" stroke="#778899" d="M492.5718,-252.8214C502.1136,-251.7133 513.8824,-250.3466 524.3737,-249.1282"/>
<polygon fill="#778899" stroke="#778899" points="524.78,-252.6047 534.3095,-247.9744 523.9725,-245.6514 524.78,-252.6047"/>
</g>
<!-- supriya.nonrealtime.Node.Node&#45;&gt;supriya.nonrealtime.Group.Group -->
<g id="edge5" class="edge">
<title>supriya.nonrealtime.Node.Node&#45;&gt;supriya.nonrealtime.Group.Group</title>
<path fill="none" stroke="#778899" d="M414.6702,-252.6807C423.635,-253.0323 434.8083,-253.4705 445.0215,-253.871"/>
<polygon fill="#778899" stroke="#778899" points="445.0548,-257.3749 455.1843,-254.2695 445.3292,-250.3803 445.0548,-257.3749"/>
</g>
<!-- supriya.nonrealtime.Node.Node&#45;&gt;supriya.nonrealtime.Synth.Synth -->
<g id="edge6" class="edge">
<title>supriya.nonrealtime.Node.Node&#45;&gt;supriya.nonrealtime.Synth.Synth</title>
<path fill="none" stroke="#778899" d="M414.6232,-260.2021C425.1611,-264.8862 439.0152,-270.5048 451.8112,-274 475.3811,-280.4382 502.8962,-284.3188 523.0103,-286.5147"/>
<polygon fill="#778899" stroke="#778899" points="522.7687,-290.0082 533.0722,-287.5405 523.4788,-283.0443 522.7687,-290.0082"/>
</g>
<!-- supriya.nonrealtime.SessionObject.SessionObject&#45;&gt;supriya.nonrealtime.Buffer.Buffer -->
<g id="edge7" class="edge">
<title>supriya.nonrealtime.SessionObject.SessionObject&#45;&gt;supriya.nonrealtime.Buffer.Buffer</title>
<path fill="none" stroke="#778899" d="M331.7109,-213.307C335.7205,-209.2287 339.6746,-204.6824 342.8112,-200 366.3291,-164.8918 357.7224,-148.6189 378.8112,-112 379.9631,-109.9998 381.2636,-107.9802 382.6279,-106.0067"/>
<polygon fill="#778899" stroke="#778899" points="385.5455,-107.9501 388.754,-97.8528 379.949,-103.7454 385.5455,-107.9501"/>
</g>
<!-- supriya.nonrealtime.SessionObject.SessionObject&#45;&gt;supriya.nonrealtime.BufferGroup.BufferGroup -->
<g id="edge8" class="edge">
<title>supriya.nonrealtime.SessionObject.SessionObject&#45;&gt;supriya.nonrealtime.BufferGroup.BufferGroup</title>
<path fill="none" stroke="#778899" d="M331.4527,-213.1269C335.4757,-209.0579 339.5005,-204.561 342.8112,-200 363.8277,-171.0465 353.0294,-152.8052 378.8112,-128 388.9015,-118.2919 421.4837,-104.616 445.6923,-95.312"/>
<polygon fill="#778899" stroke="#778899" points="447.0265,-98.5494 455.1409,-91.7371 444.5494,-92.0023 447.0265,-98.5494"/>
</g>
<!-- supriya.nonrealtime.SessionObject.SessionObject&#45;&gt;supriya.nonrealtime.Bus.Bus -->
<g id="edge9" class="edge">
<title>supriya.nonrealtime.SessionObject.SessionObject&#45;&gt;supriya.nonrealtime.Bus.Bus</title>
<path fill="none" stroke="#778899" d="M330.0976,-212.5564C334.2687,-208.4405 338.698,-204.0668 342.8112,-200 355.4633,-187.4904 369.7503,-173.3333 380.5214,-162.6539"/>
<polygon fill="#778899" stroke="#778899" points="383.0332,-165.0922 387.6694,-155.5655 378.1042,-160.1217 383.0332,-165.0922"/>
</g>
<!-- supriya.nonrealtime.SessionObject.SessionObject&#45;&gt;supriya.nonrealtime.BusGroup.BusGroup -->
<g id="edge10" class="edge">
<title>supriya.nonrealtime.SessionObject.SessionObject&#45;&gt;supriya.nonrealtime.BusGroup.BusGroup</title>
<path fill="none" stroke="#778899" d="M337.4208,-217.9204C347.5327,-213.0375 359.2422,-207.3831 369.6108,-202.3762"/>
<polygon fill="#778899" stroke="#778899" points="371.1886,-205.5011 378.6717,-198.0008 368.1447,-199.1975 371.1886,-205.5011"/>
</g>
<!-- supriya.nonrealtime.SessionObject.SessionObject&#45;&gt;supriya.nonrealtime.Moment.Moment -->
<g id="edge11" class="edge">
<title>supriya.nonrealtime.SessionObject.SessionObject&#45;&gt;supriya.nonrealtime.Moment.Moment</title>
<path fill="none" stroke="#778899" d="M342.7647,-227.7429C370.7818,-225.6599 412.277,-222.5749 441.0372,-220.4366"/>
<polygon fill="#778899" stroke="#778899" points="441.6687,-223.8994 451.3817,-219.6676 441.1497,-216.9187 441.6687,-223.8994"/>
</g>
<!-- supriya.nonrealtime.SessionObject.SessionObject&#45;&gt;supriya.nonrealtime.Node.Node -->
<g id="edge12" class="edge">
<title>supriya.nonrealtime.SessionObject.SessionObject&#45;&gt;supriya.nonrealtime.Node.Node</title>
<path fill="none" stroke="#778899" d="M341.1508,-237.4482C350.5884,-239.8936 361.0385,-242.6013 370.3397,-245.0114"/>
<polygon fill="#778899" stroke="#778899" points="369.6795,-248.4558 380.2378,-247.5761 371.4354,-241.6796 369.6795,-248.4558"/>
</g>
<!-- supriya.nonrealtime.SessionObject.SessionObject&#45;&gt;supriya.nonrealtime.State.State -->
<g id="edge13" class="edge">
<title>supriya.nonrealtime.SessionObject.SessionObject&#45;&gt;supriya.nonrealtime.State.State</title>
<path fill="none" stroke="#778899" d="M334.2709,-245.194C346.7649,-253.8759 362.3979,-264.7392 374.9704,-273.4756"/>
<polygon fill="#778899" stroke="#778899" points="373.2862,-276.5673 383.4955,-279.3996 377.2807,-270.8189 373.2862,-276.5673"/>
</g>
<!-- supriya.system.SupriyaObject.SupriyaObject -->
<g id="node1" class="node">
<title>supriya.system.SupriyaObject.SupriyaObject</title>
<g id="a_node1"><a xlink:href="../api/supriya/nonrealtime/../system/SupriyaObject.html#supriya.system.SupriyaObject.SupriyaObject" xlink:title="Supriya\nObject" target="_top">
<path fill="#ccebc5" stroke="#ccebc5" stroke-width="2" d="M121,-283C121,-283 99,-283 99,-283 94,-283 89,-278 89,-273 89,-273 89,-263 89,-263 89,-258 94,-253 99,-253 99,-253 121,-253 121,-253 126,-253 131,-258 131,-263 131,-263 131,-273 131,-273 131,-278 126,-283 121,-283"/>
<text text-anchor="middle" x="110" y="-271" font-family="Arial" font-size="10.00" fill="#000000">Supriya</text>
<text text-anchor="middle" x="110" y="-260" font-family="Arial" font-size="10.00" fill="#000000">Object</text>
</a>
</g>
</g>
<!-- supriya.system.SupriyaValueObject.SupriyaValueObject -->
<g id="node2" class="node">
<title>supriya.system.SupriyaValueObject.SupriyaValueObject</title>
<g id="a_node2"><a xlink:href="../api/supriya/nonrealtime/../system/SupriyaValueObject.html#supriya.system.SupriyaValueObject.SupriyaValueObject" xlink:title="Supriya\nValue\nObject" target="_top">
<path fill="#ccebc5" stroke="#ccebc5" stroke-width="2" d="M234,-294.5C234,-294.5 216,-294.5 216,-294.5 210,-294.5 204,-288.5 204,-282.5 204,-282.5 204,-265.5 204,-265.5 204,-259.5 210,-253.5 216,-253.5 216,-253.5 234,-253.5 234,-253.5 240,-253.5 246,-259.5 246,-265.5 246,-265.5 246,-282.5 246,-282.5 246,-288.5 240,-294.5 234,-294.5"/>
<text text-anchor="middle" x="225" y="-282.5" font-family="Arial" font-size="10.00" fill="#000000">Supriya</text>
<text text-anchor="middle" x="225" y="-271.5" font-family="Arial" font-size="10.00" fill="#000000">Value</text>
<text text-anchor="middle" x="225" y="-260.5" font-family="Arial" font-size="10.00" fill="#000000">Object</text>
</a>
</g>
</g>
<!-- builtins.object -->
<g id="node3" class="node">
<title>builtins.object</title>
<g id="a_node3"><a xlink:href="https://docs.python.org/3.6/library/functions.html#object" xlink:title="object" target="_top">
<path fill="#fbb4ae" stroke="#fbb4ae" stroke-width="2" d="M46.6667,-105.5C46.6667,-105.5 22.3333,-105.5 22.3333,-105.5 19.1667,-105.5 16,-102.3333 16,-99.1667 16,-99.1667 16,-92.8333 16,-92.8333 16,-89.6667 19.1667,-86.5 22.3333,-86.5 22.3333,-86.5 46.6667,-86.5 46.6667,-86.5 49.8333,-86.5 53,-89.6667 53,-92.8333 53,-92.8333 53,-99.1667 53,-99.1667 53,-102.3333 49.8333,-105.5 46.6667,-105.5"/>
<text text-anchor="middle" x="34.5" y="-93.5" font-family="Arial" font-size="10.00" fill="#000000">object</text>
</a>
</g>
</g>
<!-- supriya.nonrealtime.AudioInputBusGroup.AudioInputBusGroup -->
<g id="node4" class="node">
<title>supriya.nonrealtime.AudioInputBusGroup.AudioInputBusGroup</title>
<g id="a_node4"><a xlink:href="../api/supriya/nonrealtime/AudioInputBusGroup.html#supriya.nonrealtime.AudioInputBusGroup.AudioInputBusGroup" xlink:title="Audio\nInput\nBus\nGroup" target="_top">
<path fill="#000000" stroke="#000000" stroke-width="2" d="M480.3112,-170C480.3112,-170 467.3112,-170 467.3112,-170 461.3112,-170 455.3112,-164 455.3112,-158 455.3112,-158 455.3112,-130 455.3112,-130 455.3112,-124 461.3112,-118 467.3112,-118 467.3112,-118 480.3112,-118 480.3112,-118 486.3112,-118 492.3112,-124 492.3112,-130 492.3112,-130 492.3112,-158 492.3112,-158 492.3112,-164 486.3112,-170 480.3112,-170"/>
<text text-anchor="middle" x="473.8112" y="-158" font-family="Arial" font-size="10.00" fill="#ffffff">Audio</text>
<text text-anchor="middle" x="473.8112" y="-147" font-family="Arial" font-size="10.00" fill="#ffffff">Input</text>
<text text-anchor="middle" x="473.8112" y="-136" font-family="Arial" font-size="10.00" fill="#ffffff">Bus</text>
<text text-anchor="middle" x="473.8112" y="-125" font-family="Arial" font-size="10.00" fill="#ffffff">Group</text>
</a>
</g>
</g>
<!-- supriya.nonrealtime.AudioOutputBusGroup.AudioOutputBusGroup -->
<g id="node5" class="node">
<title>supriya.nonrealtime.AudioOutputBusGroup.AudioOutputBusGroup</title>
<g id="a_node5"><a xlink:href="../api/supriya/nonrealtime/AudioOutputBusGroup.html#supriya.nonrealtime.AudioOutputBusGroup.AudioOutputBusGroup" xlink:title="Audio\nOutput\nBus\nGroup" target="_top">
<path fill="#000000" stroke="#000000" stroke-width="2" d="M558.8112,-213C558.8112,-213 543.8112,-213 543.8112,-213 537.8112,-213 531.8112,-207 531.8112,-201 531.8112,-201 531.8112,-173 531.8112,-173 531.8112,-167 537.8112,-161 543.8112,-161 543.8112,-161 558.8112,-161 558.8112,-161 564.8112,-161 570.8112,-167 570.8112,-173 570.8112,-173 570.8112,-201 570.8112,-201 570.8112,-207 564.8112,-213 558.8112,-213"/>
<text text-anchor="middle" x="551.3112" y="-201" font-family="Arial" font-size="10.00" fill="#ffffff">Audio</text>
<text text-anchor="middle" x="551.3112" y="-190" font-family="Arial" font-size="10.00" fill="#ffffff">Output</text>
<text text-anchor="middle" x="551.3112" y="-179" font-family="Arial" font-size="10.00" fill="#ffffff">Bus</text>
<text text-anchor="middle" x="551.3112" y="-168" font-family="Arial" font-size="10.00" fill="#ffffff">Group</text>
</a>
</g>
</g>
<!-- supriya.nonrealtime.Buffer.Buffer -->
<g id="node6" class="node">
<title>supriya.nonrealtime.Buffer.Buffer</title>
<g id="a_node6"><a xlink:href="../api/supriya/nonrealtime/Buffer.html#supriya.nonrealtime.Buffer.Buffer" xlink:title="Buffer" target="_top">
<path fill="#000000" stroke="#000000" stroke-width="2" d="M409.4778,-97.5C409.4778,-97.5 385.1445,-97.5 385.1445,-97.5 381.9778,-97.5 378.8112,-94.3333 378.8112,-91.1667 378.8112,-91.1667 378.8112,-84.8333 378.8112,-84.8333 378.8112,-81.6667 381.9778,-78.5 385.1445,-78.5 385.1445,-78.5 409.4778,-78.5 409.4778,-78.5 412.6445,-78.5 415.8112,-81.6667 415.8112,-84.8333 415.8112,-84.8333 415.8112,-91.1667 415.8112,-91.1667 415.8112,-94.3333 412.6445,-97.5 409.4778,-97.5"/>
<text text-anchor="middle" x="397.3112" y="-85.5" font-family="Arial" font-size="10.00" fill="#ffffff">Buffer</text>
</a>
</g>
</g>
<!-- supriya.nonrealtime.BufferGroup.BufferGroup -->
<g id="node7" class="node">
<title>supriya.nonrealtime.BufferGroup.BufferGroup</title>
<g id="a_node7"><a xlink:href="../api/supriya/nonrealtime/BufferGroup.html#supriya.nonrealtime.BufferGroup.BufferGroup" xlink:title="Buffer\nGroup" target="_top">
<path fill="#000000" stroke="#000000" stroke-width="2" d="M482.3112,-100C482.3112,-100 465.3112,-100 465.3112,-100 460.3112,-100 455.3112,-95 455.3112,-90 455.3112,-90 455.3112,-80 455.3112,-80 455.3112,-75 460.3112,-70 465.3112,-70 465.3112,-70 482.3112,-70 482.3112,-70 487.3112,-70 492.3112,-75 492.3112,-80 492.3112,-80 492.3112,-90 492.3112,-90 492.3112,-95 487.3112,-100 482.3112,-100"/>
<text text-anchor="middle" x="473.8112" y="-88" font-family="Arial" font-size="10.00" fill="#ffffff">Buffer</text>
<text text-anchor="middle" x="473.8112" y="-77" font-family="Arial" font-size="10.00" fill="#ffffff">Group</text>
</a>
</g>
</g>
<!-- supriya.nonrealtime.Bus.Bus -->
<g id="node8" class="node">
<title>supriya.nonrealtime.Bus.Bus</title>
<g id="a_node8"><a xlink:href="../api/supriya/nonrealtime/Bus.html#supriya.nonrealtime.Bus.Bus" xlink:title="Bus" target="_top">
<path fill="#000000" stroke="#000000" stroke-width="2" d="M405.4778,-155.5C405.4778,-155.5 389.1445,-155.5 389.1445,-155.5 385.9778,-155.5 382.8112,-152.3333 382.8112,-149.1667 382.8112,-149.1667 382.8112,-142.8333 382.8112,-142.8333 382.8112,-139.6667 385.9778,-136.5 389.1445,-136.5 389.1445,-136.5 405.4778,-136.5 405.4778,-136.5 408.6445,-136.5 411.8112,-139.6667 411.8112,-142.8333 411.8112,-142.8333 411.8112,-149.1667 411.8112,-149.1667 411.8112,-152.3333 408.6445,-155.5 405.4778,-155.5"/>
<text text-anchor="middle" x="397.3112" y="-143.5" font-family="Arial" font-size="10.00" fill="#ffffff">Bus</text>
</a>
</g>
</g>
<!-- supriya.nonrealtime.BusGroup.BusGroup -->
<g id="node9" class="node">
<title>supriya.nonrealtime.BusGroup.BusGroup</title>
<g id="a_node9"><a xlink:href="../api/supriya/nonrealtime/BusGroup.html#supriya.nonrealtime.BusGroup.BusGroup" xlink:title="Bus\nGroup" target="_top">
<path fill="#000000" stroke="#000000" stroke-width="2" d="M405.8112,-204C405.8112,-204 388.8112,-204 388.8112,-204 383.8112,-204 378.8112,-199 378.8112,-194 378.8112,-194 378.8112,-184 378.8112,-184 378.8112,-179 383.8112,-174 388.8112,-174 388.8112,-174 405.8112,-174 405.8112,-174 410.8112,-174 415.8112,-179 415.8112,-184 415.8112,-184 415.8112,-194 415.8112,-194 415.8112,-199 410.8112,-204 405.8112,-204"/>
<text text-anchor="middle" x="397.3112" y="-192" font-family="Arial" font-size="10.00" fill="#ffffff">Bus</text>
<text text-anchor="middle" x="397.3112" y="-181" font-family="Arial" font-size="10.00" fill="#ffffff">Group</text>
</a>
</g>
</g>
<!-- supriya.nonrealtime.DoNotPropagate.DoNotPropagate -->
<g id="node10" class="node">
<title>supriya.nonrealtime.DoNotPropagate.DoNotPropagate</title>
<g id="a_node10"><a xlink:href="../api/supriya/nonrealtime/DoNotPropagate.html#supriya.nonrealtime.DoNotPropagate.DoNotPropagate" xlink:title="Do\nNot\nPropagate" target="_top">
<path fill="#000000" stroke="#000000" stroke-width="2" d="M325.9056,-142.5C325.9056,-142.5 298.9056,-142.5 298.9056,-142.5 292.9056,-142.5 286.9056,-136.5 286.9056,-130.5 286.9056,-130.5 286.9056,-113.5 286.9056,-113.5 286.9056,-107.5 292.9056,-101.5 298.9056,-101.5 298.9056,-101.5 325.9056,-101.5 325.9056,-101.5 331.9056,-101.5 337.9056,-107.5 337.9056,-113.5 337.9056,-113.5 337.9056,-130.5 337.9056,-130.5 337.9056,-136.5 331.9056,-142.5 325.9056,-142.5"/>
<text text-anchor="middle" x="312.4056" y="-130.5" font-family="Arial" font-size="10.00" fill="#ffffff">Do</text>
<text text-anchor="middle" x="312.4056" y="-119.5" font-family="Arial" font-size="10.00" fill="#ffffff">Not</text>
<text text-anchor="middle" x="312.4056" y="-108.5" font-family="Arial" font-size="10.00" fill="#ffffff">Propagate</text>
</a>
</g>
</g>
<!-- supriya.nonrealtime.Group.Group -->
<g id="node11" class="node">
<title>supriya.nonrealtime.Group.Group</title>
<g id="a_node11"><a xlink:href="../api/supriya/nonrealtime/Group.html#supriya.nonrealtime.Group.Group" xlink:title="Group" target="_top">
<path fill="#000000" stroke="#000000" stroke-width="2" d="M485.9778,-264.5C485.9778,-264.5 461.6445,-264.5 461.6445,-264.5 458.4778,-264.5 455.3112,-261.3333 455.3112,-258.1667 455.3112,-258.1667 455.3112,-251.8333 455.3112,-251.8333 455.3112,-248.6667 458.4778,-245.5 461.6445,-245.5 461.6445,-245.5 485.9778,-245.5 485.9778,-245.5 489.1445,-245.5 492.3112,-248.6667 492.3112,-251.8333 492.3112,-251.8333 492.3112,-258.1667 492.3112,-258.1667 492.3112,-261.3333 489.1445,-264.5 485.9778,-264.5"/>
<text text-anchor="middle" x="473.8112" y="-252.5" font-family="Arial" font-size="10.00" fill="#ffffff">Group</text>
</a>
</g>
</g>
<!-- supriya.nonrealtime.RootNode.RootNode -->
<g id="node12" class="node">
<title>supriya.nonrealtime.RootNode.RootNode</title>
<g id="a_node12"><a xlink:href="../api/supriya/nonrealtime/RootNode.html#supriya.nonrealtime.RootNode.RootNode" xlink:title="Root\nNode" target="_top">
<path fill="#000000" stroke="#000000" stroke-width="2" d="M558.3112,-261C558.3112,-261 544.3112,-261 544.3112,-261 539.3112,-261 534.3112,-256 534.3112,-251 534.3112,-251 534.3112,-241 534.3112,-241 534.3112,-236 539.3112,-231 544.3112,-231 544.3112,-231 558.3112,-231 558.3112,-231 563.3112,-231 568.3112,-236 568.3112,-241 568.3112,-241 568.3112,-251 568.3112,-251 568.3112,-256 563.3112,-261 558.3112,-261"/>
<text text-anchor="middle" x="551.3112" y="-249" font-family="Arial" font-size="10.00" fill="#ffffff">Root</text>
<text text-anchor="middle" x="551.3112" y="-238" font-family="Arial" font-size="10.00" fill="#ffffff">Node</text>
</a>
</g>
</g>
<!-- supriya.nonrealtime.Moment.Moment -->
<g id="node13" class="node">
<title>supriya.nonrealtime.Moment.Moment</title>
<g id="a_node13"><a xlink:href="../api/supriya/nonrealtime/Moment.html#supriya.nonrealtime.Moment.Moment" xlink:title="Moment" target="_top">
<path fill="#000000" stroke="#000000" stroke-width="2" d="M489.4778,-227.5C489.4778,-227.5 458.1445,-227.5 458.1445,-227.5 454.9778,-227.5 451.8112,-224.3333 451.8112,-221.1667 451.8112,-221.1667 451.8112,-214.8333 451.8112,-214.8333 451.8112,-211.6667 454.9778,-208.5 458.1445,-208.5 458.1445,-208.5 489.4778,-208.5 489.4778,-208.5 492.6445,-208.5 495.8112,-211.6667 495.8112,-214.8333 495.8112,-214.8333 495.8112,-221.1667 495.8112,-221.1667 495.8112,-224.3333 492.6445,-227.5 489.4778,-227.5"/>
<text text-anchor="middle" x="473.8112" y="-215.5" font-family="Arial" font-size="10.00" fill="#ffffff">Moment</text>
</a>
</g>
</g>
<!-- supriya.nonrealtime.Node.Node -->
<g id="node14" class="node">
<title>supriya.nonrealtime.Node.Node</title>
<g id="a_node14"><a xlink:href="../api/supriya/nonrealtime/Node.html#supriya.nonrealtime.Node.Node" xlink:title="Node" target="_top">
<path fill="#000000" stroke="#000000" stroke-width="2" d="M407.9778,-261.5C407.9778,-261.5 386.6445,-261.5 386.6445,-261.5 383.4778,-261.5 380.3112,-258.3333 380.3112,-255.1667 380.3112,-255.1667 380.3112,-248.8333 380.3112,-248.8333 380.3112,-245.6667 383.4778,-242.5 386.6445,-242.5 386.6445,-242.5 407.9778,-242.5 407.9778,-242.5 411.1445,-242.5 414.3112,-245.6667 414.3112,-248.8333 414.3112,-248.8333 414.3112,-255.1667 414.3112,-255.1667 414.3112,-258.3333 411.1445,-261.5 407.9778,-261.5"/>
<text text-anchor="middle" x="397.3112" y="-249.5" font-family="Arial" font-size="10.00" fill="#ffffff">Node</text>
</a>
</g>
</g>
<!-- supriya.nonrealtime.Synth.Synth -->
<g id="node15" class="node">
<title>supriya.nonrealtime.Synth.Synth</title>
<g id="a_node15"><a xlink:href="../api/supriya/nonrealtime/Synth.html#supriya.nonrealtime.Synth.Synth" xlink:title="Synth" target="_top">
<path fill="#000000" stroke="#000000" stroke-width="2" d="M562.9778,-298.5C562.9778,-298.5 539.6445,-298.5 539.6445,-298.5 536.4778,-298.5 533.3112,-295.3333 533.3112,-292.1667 533.3112,-292.1667 533.3112,-285.8333 533.3112,-285.8333 533.3112,-282.6667 536.4778,-279.5 539.6445,-279.5 539.6445,-279.5 562.9778,-279.5 562.9778,-279.5 566.1445,-279.5 569.3112,-282.6667 569.3112,-285.8333 569.3112,-285.8333 569.3112,-292.1667 569.3112,-292.1667 569.3112,-295.3333 566.1445,-298.5 562.9778,-298.5"/>
<text text-anchor="middle" x="551.3112" y="-286.5" font-family="Arial" font-size="10.00" fill="#ffffff">Synth</text>
</a>
</g>
</g>
<!-- supriya.nonrealtime.NodeTransition.NodeTransition -->
<g id="node16" class="node">
<title>supriya.nonrealtime.NodeTransition.NodeTransition</title>
<g id="a_node16"><a xlink:href="../api/supriya/nonrealtime/NodeTransition.html#supriya.nonrealtime.NodeTransition.NodeTransition" xlink:title="Node\nTransition" target="_top">
<path fill="#000000" stroke="#000000" stroke-width="2" d="M326.9056,-299C326.9056,-299 297.9056,-299 297.9056,-299 292.9056,-299 287.9056,-294 287.9056,-289 287.9056,-289 287.9056,-279 287.9056,-279 287.9056,-274 292.9056,-269 297.9056,-269 297.9056,-269 326.9056,-269 326.9056,-269 331.9056,-269 336.9056,-274 336.9056,-279 336.9056,-279 336.9056,-289 336.9056,-289 336.9056,-294 331.9056,-299 326.9056,-299"/>
<text text-anchor="middle" x="312.4056" y="-287" font-family="Arial" font-size="10.00" fill="#ffffff">Node</text>
<text text-anchor="middle" x="312.4056" y="-276" font-family="Arial" font-size="10.00" fill="#ffffff">Transition</text>
</a>
</g>
</g>
<!-- supriya.nonrealtime.Session.Session -->
<g id="node17" class="node">
<title>supriya.nonrealtime.Session.Session</title>
<g id="a_node17"><a xlink:href="../api/supriya/nonrealtime/Session.html#supriya.nonrealtime.Session.Session" xlink:title="Session" target="_top">
<path fill="#000000" stroke="#000000" stroke-width="2" d="M327.5723,-83.5C327.5723,-83.5 297.2389,-83.5 297.2389,-83.5 294.0723,-83.5 290.9056,-80.3333 290.9056,-77.1667 290.9056,-77.1667 290.9056,-70.8333 290.9056,-70.8333 290.9056,-67.6667 294.0723,-64.5 297.2389,-64.5 297.2389,-64.5 327.5723,-64.5 327.5723,-64.5 330.7389,-64.5 333.9056,-67.6667 333.9056,-70.8333 333.9056,-70.8333 333.9056,-77.1667 333.9056,-77.1667 333.9056,-80.3333 330.7389,-83.5 327.5723,-83.5"/>
<text text-anchor="middle" x="312.4056" y="-71.5" font-family="Arial" font-size="10.00" fill="#ffffff">Session</text>
</a>
</g>
</g>
<!-- supriya.nonrealtime.SessionFactory.SessionFactory -->
<g id="node18" class="node">
<title>supriya.nonrealtime.SessionFactory.SessionFactory</title>
<g id="a_node18"><a xlink:href="../api/supriya/nonrealtime/SessionFactory.html#supriya.nonrealtime.SessionFactory.SessionFactory" xlink:title="Session\nFactory" target="_top">
<path fill="#000000" stroke="#000000" stroke-width="2" d="M323.9056,-46C323.9056,-46 300.9056,-46 300.9056,-46 295.9056,-46 290.9056,-41 290.9056,-36 290.9056,-36 290.9056,-26 290.9056,-26 290.9056,-21 295.9056,-16 300.9056,-16 300.9056,-16 323.9056,-16 323.9056,-16 328.9056,-16 333.9056,-21 333.9056,-26 333.9056,-26 333.9056,-36 333.9056,-36 333.9056,-41 328.9056,-46 323.9056,-46"/>
<text text-anchor="middle" x="312.4056" y="-34" font-family="Arial" font-size="10.00" fill="#ffffff">Session</text>
<text text-anchor="middle" x="312.4056" y="-23" font-family="Arial" font-size="10.00" fill="#ffffff">Factory</text>
</a>
</g>
</g>
<!-- supriya.nonrealtime.SessionObject.SessionObject -->
<g id="node19" class="node">
<title>supriya.nonrealtime.SessionObject.SessionObject</title>
<g id="a_node19"><a xlink:href="../api/supriya/nonrealtime/SessionObject.html#supriya.nonrealtime.SessionObject.SessionObject" xlink:title="Session\nObject" target="_top">
<ellipse fill="#000000" stroke="#000000" stroke-width="2" cx="312.4056" cy="-230" rx="30.3115" ry="21.4286"/>
<text text-anchor="middle" x="312.4056" y="-233" font-family="Arial" font-size="10.00" fill="#ffffff">Session</text>
<text text-anchor="middle" x="312.4056" y="-222" font-family="Arial" font-size="10.00" fill="#ffffff">Object</text>
</a>
</g>
</g>
<!-- supriya.nonrealtime.State.State -->
<g id="node20" class="node">
<title>supriya.nonrealtime.State.State</title>
<g id="a_node20"><a xlink:href="../api/supriya/nonrealtime/State.html#supriya.nonrealtime.State.State" xlink:title="State" target="_top">
<path fill="#000000" stroke="#000000" stroke-width="2" d="M407.9778,-298.5C407.9778,-298.5 386.6445,-298.5 386.6445,-298.5 383.4778,-298.5 380.3112,-295.3333 380.3112,-292.1667 380.3112,-292.1667 380.3112,-285.8333 380.3112,-285.8333 380.3112,-282.6667 383.4778,-279.5 386.6445,-279.5 386.6445,-279.5 407.9778,-279.5 407.9778,-279.5 411.1445,-279.5 414.3112,-282.6667 414.3112,-285.8333 414.3112,-285.8333 414.3112,-292.1667 414.3112,-292.1667 414.3112,-295.3333 411.1445,-298.5 407.9778,-298.5"/>
<text text-anchor="middle" x="397.3112" y="-286.5" font-family="Arial" font-size="10.00" fill="#ffffff">State</text>
</a>
</g>
</g>
<!-- supriya.nonrealtime.SessionRenderer.SessionRenderer -->
<g id="node21" class="node">
<title>supriya.nonrealtime.SessionRenderer.SessionRenderer</title>
<g id="a_node21"><a xlink:href="../api/supriya/nonrealtime/SessionRenderer.html#supriya.nonrealtime.SessionRenderer.SessionRenderer" xlink:title="Session\nRenderer" target="_top">
<path fill="#000000" stroke="#000000" stroke-width="2" d="M326.4056,-191C326.4056,-191 298.4056,-191 298.4056,-191 293.4056,-191 288.4056,-186 288.4056,-181 288.4056,-181 288.4056,-171 288.4056,-171 288.4056,-166 293.4056,-161 298.4056,-161 298.4056,-161 326.4056,-161 326.4056,-161 331.4056,-161 336.4056,-166 336.4056,-171 336.4056,-171 336.4056,-181 336.4056,-181 336.4056,-186 331.4056,-191 326.4056,-191"/>
<text text-anchor="middle" x="312.4056" y="-179" font-family="Arial" font-size="10.00" fill="#ffffff">Session</text>
<text text-anchor="middle" x="312.4056" y="-168" font-family="Arial" font-size="10.00" fill="#ffffff">Renderer</text>
</a>
</g>
</g>
</g>
</svg>
