<?xml version="1.0" encoding="UTF-8" standalone="no"?>
<!DOCTYPE svg PUBLIC "-//W3C//DTD SVG 1.1//EN"
 "http://www.w3.org/Graphics/SVG/1.1/DTD/svg11.dtd">
<!-- Generated by graphviz version 2.40.1 (20161225.0304)
 -->
<!-- Title: InheritanceGraph Pages: 1 -->
<svg width="401pt" height="219pt"
 viewBox="0.00 0.00 401.00 219.00" xmlns="http://www.w3.org/2000/svg" xmlns:xlink="http://www.w3.org/1999/xlink">
<g id="graph0" class="graph" transform="scale(1 1) rotate(0) translate(4 215)">
<title>InheritanceGraph</title>
<g id="clust1" class="cluster">
<title>cluster_builtins</title>
<path fill="transparent" stroke="#bcd2ee" stroke-width="2" stroke-dasharray="5,2" d="M20,-78C20,-78 49,-78 49,-78 55,-78 61,-84 61,-90 61,-90 61,-121 61,-121 61,-127 55,-133 49,-133 49,-133 20,-133 20,-133 14,-133 8,-127 8,-121 8,-121 8,-90 8,-90 8,-84 14,-78 20,-78"/>
<text text-anchor="middle" x="34.5" y="-121" font-family="Arial" font-size="10.00" fill="#000000">builtins</text>
</g>
<g id="clust2" class="cluster">
<title>cluster_supriya.midi</title>
<path fill="transparent" stroke="#bcd2ee" stroke-width="2" stroke-dasharray="5,2" d="M249,-8C249,-8 373,-8 373,-8 379,-8 385,-14 385,-20 385,-20 385,-191 385,-191 385,-197 379,-203 373,-203 373,-203 249,-203 249,-203 243,-203 237,-197 237,-191 237,-191 237,-20 237,-20 237,-14 243,-8 249,-8"/>
<text text-anchor="middle" x="311" y="-191" font-family="Arial" font-size="10.00" fill="#000000">supriya.midi</text>
</g>
<g id="clust3" class="cluster">
<title>cluster_supriya.system</title>
<path fill="transparent" stroke="#bcd2ee" stroke-width="2" stroke-dasharray="5,2" d="M93,-67C93,-67 205,-67 205,-67 211,-67 217,-73 217,-79 217,-79 217,-132 217,-132 217,-138 211,-144 205,-144 205,-144 93,-144 93,-144 87,-144 81,-138 81,-132 81,-132 81,-79 81,-79 81,-73 87,-67 93,-67"/>
<text text-anchor="middle" x="149" y="-132" font-family="Arial" font-size="10.00" fill="#000000">supriya.system</text>
</g>
<!-- builtins.object&#45;&gt;supriya.system.SupriyaObject.SupriyaObject -->
<g id="edge5" class="edge">
<title>builtins.object&#45;&gt;supriya.system.SupriyaObject.SupriyaObject</title>
<path fill="none" stroke="#778899" d="M53.1629,-96C60.862,-96 69.9986,-96 78.6696,-96"/>
<polygon fill="#778899" stroke="#778899" points="78.8875,-99.5001 88.8875,-96 78.8874,-92.5001 78.8875,-99.5001"/>
</g>
<!-- supriya.midi.MidiMessage.MidiMessage&#45;&gt;supriya.midi.ControllerChangeMessage.ControllerChangeMessage -->
<g id="edge1" class="edge">
<title>supriya.midi.MidiMessage.MidiMessage&#45;&gt;supriya.midi.ControllerChangeMessage.ControllerChangeMessage</title>
<path fill="none" stroke="#778899" d="M290.1321,-80.806C299.0802,-74.521 309.6558,-67.0929 319.5321,-60.1561"/>
<polygon fill="#778899" stroke="#778899" points="321.8011,-62.8394 327.9726,-54.2276 317.7777,-57.1112 321.8011,-62.8394"/>
</g>
<!-- supriya.midi.MidiMessage.MidiMessage&#45;&gt;supriya.midi.NoteOffMessage.NoteOffMessage -->
<g id="edge2" class="edge">
<title>supriya.midi.MidiMessage.MidiMessage&#45;&gt;supriya.midi.NoteOffMessage.NoteOffMessage</title>
<path fill="none" stroke="#778899" d="M292.3463,-96C300.5738,-96 309.9522,-96 318.8159,-96"/>
<polygon fill="#778899" stroke="#778899" points="318.8848,-99.5001 328.8848,-96 318.8847,-92.5001 318.8848,-99.5001"/>
</g>
<!-- supriya.midi.MidiMessage.MidiMessage&#45;&gt;supriya.midi.NoteOnMessage.NoteOnMessage -->
<g id="edge3" class="edge">
<title>supriya.midi.MidiMessage.MidiMessage&#45;&gt;supriya.midi.NoteOnMessage.NoteOnMessage</title>
<path fill="none" stroke="#778899" d="M290.1321,-111.194C299.3985,-117.7025 310.4102,-125.4369 320.5831,-132.5821"/>
<polygon fill="#778899" stroke="#778899" points="318.6794,-135.5221 328.8743,-138.4057 322.7028,-129.7939 318.6794,-135.5221"/>
</g>
<!-- supriya.system.SupriyaObject.SupriyaObject&#45;&gt;supriya.system.SupriyaValueObject.SupriyaValueObject -->
<g id="edge4" class="edge">
<title>supriya.system.SupriyaObject.SupriyaObject&#45;&gt;supriya.system.SupriyaValueObject.SupriyaValueObject</title>
<path fill="none" stroke="#778899" d="M131.3138,-96C139.2025,-96 148.316,-96 156.8971,-96"/>
<polygon fill="#778899" stroke="#778899" points="156.982,-99.5001 166.982,-96 156.982,-92.5001 156.982,-99.5001"/>
</g>
<!-- supriya.system.SupriyaValueObject.SupriyaValueObject&#45;&gt;supriya.midi.MidiMessage.MidiMessage -->
<g id="edge6" class="edge">
<title>supriya.system.SupriyaValueObject.SupriyaValueObject&#45;&gt;supriya.midi.MidiMessage.MidiMessage</title>
<path fill="none" stroke="#778899" d="M209.1504,-96C216.9663,-96 226.0329,-96 234.6914,-96"/>
<polygon fill="#778899" stroke="#778899" points="234.9387,-99.5001 244.9387,-96 234.9387,-92.5001 234.9387,-99.5001"/>
</g>
<!-- builtins.object -->
<g id="node1" class="node">
<title>builtins.object</title>
<g id="a_node1"><a xlink:href="https://docs.python.org/3.6/library/functions.html#object" xlink:title="object" target="_top">
<path fill="#fbb4ae" stroke="#fbb4ae" stroke-width="2" d="M46.6667,-105.5C46.6667,-105.5 22.3333,-105.5 22.3333,-105.5 19.1667,-105.5 16,-102.3333 16,-99.1667 16,-99.1667 16,-92.8333 16,-92.8333 16,-89.6667 19.1667,-86.5 22.3333,-86.5 22.3333,-86.5 46.6667,-86.5 46.6667,-86.5 49.8333,-86.5 53,-89.6667 53,-92.8333 53,-92.8333 53,-99.1667 53,-99.1667 53,-102.3333 49.8333,-105.5 46.6667,-105.5"/>
<text text-anchor="middle" x="34.5" y="-93.5" font-family="Arial" font-size="10.00" fill="#000000">object</text>
</a>
</g>
</g>
<!-- supriya.midi.ControllerChangeMessage.ControllerChangeMessage -->
<g id="node2" class="node">
<title>supriya.midi.ControllerChangeMessage.ControllerChangeMessage</title>
<g id="a_node2"><a xlink:href="../api/supriya/midi/ControllerChangeMessage.html#supriya.midi.ControllerChangeMessage.ControllerChangeMessage" xlink:title="Controller\nChange\nMessage" target="_top">
<path fill="#b3cde3" stroke="#b3cde3" stroke-width="2" d="M365,-57.5C365,-57.5 340,-57.5 340,-57.5 334,-57.5 328,-51.5 328,-45.5 328,-45.5 328,-28.5 328,-28.5 328,-22.5 334,-16.5 340,-16.5 340,-16.5 365,-16.5 365,-16.5 371,-16.5 377,-22.5 377,-28.5 377,-28.5 377,-45.5 377,-45.5 377,-51.5 371,-57.5 365,-57.5"/>
<text text-anchor="middle" x="352.5" y="-45.5" font-family="Arial" font-size="10.00" fill="#000000">Controller</text>
<text text-anchor="middle" x="352.5" y="-34.5" font-family="Arial" font-size="10.00" fill="#000000">Change</text>
<text text-anchor="middle" x="352.5" y="-23.5" font-family="Arial" font-size="10.00" fill="#000000">Message</text>
</a>
</g>
</g>
<!-- supriya.midi.MidiMessage.MidiMessage -->
<g id="node3" class="node">
<title>supriya.midi.MidiMessage.MidiMessage</title>
<g id="a_node3"><a xlink:href="../api/supriya/midi/MidiMessage.html#supriya.midi.MidiMessage.MidiMessage" xlink:title="Midi\nMessage" target="_top">
<path fill="#000000" stroke="#000000" stroke-width="2" d="M282,-111C282,-111 255,-111 255,-111 250,-111 245,-106 245,-101 245,-101 245,-91 245,-91 245,-86 250,-81 255,-81 255,-81 282,-81 282,-81 287,-81 292,-86 292,-91 292,-91 292,-101 292,-101 292,-106 287,-111 282,-111"/>
<text text-anchor="middle" x="268.5" y="-99" font-family="Arial" font-size="10.00" fill="#ffffff">Midi</text>
<text text-anchor="middle" x="268.5" y="-88" font-family="Arial" font-size="10.00" fill="#ffffff">Message</text>
</a>
</g>
</g>
<!-- supriya.midi.NoteOffMessage.NoteOffMessage -->
<g id="node4" class="node">
<title>supriya.midi.NoteOffMessage.NoteOffMessage</title>
<g id="a_node4"><a xlink:href="../api/supriya/midi/NoteOffMessage.html#supriya.midi.NoteOffMessage.NoteOffMessage" xlink:title="Note\nOff\nMessage" target="_top">
<path fill="#b3cde3" stroke="#b3cde3" stroke-width="2" d="M364,-116.5C364,-116.5 341,-116.5 341,-116.5 335,-116.5 329,-110.5 329,-104.5 329,-104.5 329,-87.5 329,-87.5 329,-81.5 335,-75.5 341,-75.5 341,-75.5 364,-75.5 364,-75.5 370,-75.5 376,-81.5 376,-87.5 376,-87.5 376,-104.5 376,-104.5 376,-110.5 370,-116.5 364,-116.5"/>
<text text-anchor="middle" x="352.5" y="-104.5" font-family="Arial" font-size="10.00" fill="#000000">Note</text>
<text text-anchor="middle" x="352.5" y="-93.5" font-family="Arial" font-size="10.00" fill="#000000">Off</text>
<text text-anchor="middle" x="352.5" y="-82.5" font-family="Arial" font-size="10.00" fill="#000000">Message</text>
</a>
</g>
</g>
<!-- supriya.midi.NoteOnMessage.NoteOnMessage -->
<g id="node5" class="node">
<title>supriya.midi.NoteOnMessage.NoteOnMessage</title>
<g id="a_node5"><a xlink:href="../api/supriya/midi/NoteOnMessage.html#supriya.midi.NoteOnMessage.NoteOnMessage" xlink:title="Note\nOn\nMessage" target="_top">
<path fill="#b3cde3" stroke="#b3cde3" stroke-width="2" d="M364,-175.5C364,-175.5 341,-175.5 341,-175.5 335,-175.5 329,-169.5 329,-163.5 329,-163.5 329,-146.5 329,-146.5 329,-140.5 335,-134.5 341,-134.5 341,-134.5 364,-134.5 364,-134.5 370,-134.5 376,-140.5 376,-146.5 376,-146.5 376,-163.5 376,-163.5 376,-169.5 370,-175.5 364,-175.5"/>
<text text-anchor="middle" x="352.5" y="-163.5" font-family="Arial" font-size="10.00" fill="#000000">Note</text>
<text text-anchor="middle" x="352.5" y="-152.5" font-family="Arial" font-size="10.00" fill="#000000">On</text>
<text text-anchor="middle" x="352.5" y="-141.5" font-family="Arial" font-size="10.00" fill="#000000">Message</text>
</a>
</g>
</g>
<!-- supriya.system.SupriyaObject.SupriyaObject -->
<g id="node6" class="node">
<title>supriya.system.SupriyaObject.SupriyaObject</title>
<g id="a_node6"><a xlink:href="../api/supriya/midi/../system/SupriyaObject.html#supriya.system.SupriyaObject.SupriyaObject" xlink:title="Supriya\nObject" target="_top">
<path fill="#ccebc5" stroke="#ccebc5" stroke-width="2" d="M121,-111C121,-111 99,-111 99,-111 94,-111 89,-106 89,-101 89,-101 89,-91 89,-91 89,-86 94,-81 99,-81 99,-81 121,-81 121,-81 126,-81 131,-86 131,-91 131,-91 131,-101 131,-101 131,-106 126,-111 121,-111"/>
<text text-anchor="middle" x="110" y="-99" font-family="Arial" font-size="10.00" fill="#000000">Supriya</text>
<text text-anchor="middle" x="110" y="-88" font-family="Arial" font-size="10.00" fill="#000000">Object</text>
</a>
</g>
</g>
<!-- supriya.system.SupriyaValueObject.SupriyaValueObject -->
<g id="node7" class="node">
<title>supriya.system.SupriyaValueObject.SupriyaValueObject</title>
<g id="a_node7"><a xlink:href="../api/supriya/midi/../system/SupriyaValueObject.html#supriya.system.SupriyaValueObject.SupriyaValueObject" xlink:title="Supriya\nValue\nObject" target="_top">
<path fill="#ccebc5" stroke="#ccebc5" stroke-width="2" d="M197,-116.5C197,-116.5 179,-116.5 179,-116.5 173,-116.5 167,-110.5 167,-104.5 167,-104.5 167,-87.5 167,-87.5 167,-81.5 173,-75.5 179,-75.5 179,-75.5 197,-75.5 197,-75.5 203,-75.5 209,-81.5 209,-87.5 209,-87.5 209,-104.5 209,-104.5 209,-110.5 203,-116.5 197,-116.5"/>
<text text-anchor="middle" x="188" y="-104.5" font-family="Arial" font-size="10.00" fill="#000000">Supriya</text>
<text text-anchor="middle" x="188" y="-93.5" font-family="Arial" font-size="10.00" fill="#000000">Value</text>
<text text-anchor="middle" x="188" y="-82.5" font-family="Arial" font-size="10.00" fill="#000000">Object</text>
</a>
</g>
</g>
</g>
</svg>
