<?xml version="1.0" encoding="UTF-8" standalone="no"?>
<!DOCTYPE svg PUBLIC "-//W3C//DTD SVG 1.1//EN"
 "http://www.w3.org/Graphics/SVG/1.1/DTD/svg11.dtd">
<!-- Generated by graphviz version 2.40.1 (20161225.0304)
 -->
<!-- Title: InheritanceGraph Pages: 1 -->
<svg width="419pt" height="186pt"
 viewBox="0.00 0.00 419.24 186.00" xmlns="http://www.w3.org/2000/svg" xmlns:xlink="http://www.w3.org/1999/xlink">
<g id="graph0" class="graph" transform="scale(1 1) rotate(0) translate(4 182)">
<title>InheritanceGraph</title>
<g id="clust1" class="cluster">
<title>cluster_builtins</title>
<path fill="transparent" stroke="#bcd2ee" stroke-width="2" stroke-dasharray="5,2" d="M20,-61C20,-61 49,-61 49,-61 55,-61 61,-67 61,-73 61,-73 61,-104 61,-104 61,-110 55,-116 49,-116 49,-116 20,-116 20,-116 14,-116 8,-110 8,-104 8,-104 8,-73 8,-73 8,-67 14,-61 20,-61"/>
<text text-anchor="middle" x="34.5" y="-104" font-family="Arial" font-size="10.00" fill="#000000">builtins</text>
</g>
<g id="clust2" class="cluster">
<title>cluster_supriya.realtime</title>
<path fill="transparent" stroke="#bcd2ee" stroke-width="2" stroke-dasharray="5,2" d="M180,-93C180,-93 391.2376,-93 391.2376,-93 397.2376,-93 403.2376,-99 403.2376,-105 403.2376,-105 403.2376,-158 403.2376,-158 403.2376,-164 397.2376,-170 391.2376,-170 391.2376,-170 180,-170 180,-170 174,-170 168,-164 168,-158 168,-158 168,-105 168,-105 168,-99 174,-93 180,-93"/>
<text text-anchor="middle" x="285.6188" y="-158" font-family="Arial" font-size="10.00" fill="#000000">supriya.realtime</text>
</g>
<g id="clust3" class="cluster">
<title>cluster_supriya.system</title>
<path fill="transparent" stroke="#bcd2ee" stroke-width="2" stroke-dasharray="5,2" d="M93,-88C93,-88 136,-88 136,-88 142,-88 148,-94 148,-100 148,-100 148,-141 148,-141 148,-147 142,-153 136,-153 136,-153 93,-153 93,-153 87,-153 81,-147 81,-141 81,-141 81,-100 81,-100 81,-94 87,-88 93,-88"/>
<text text-anchor="middle" x="114.5" y="-141" font-family="Arial" font-size="10.00" fill="#000000">supriya.system</text>
</g>
<g id="clust4" class="cluster">
<title>cluster_uqbar.containers</title>
<path fill="transparent" stroke="#bcd2ee" stroke-width="2" stroke-dasharray="5,2" d="M179.5772,-8C179.5772,-8 227.5772,-8 227.5772,-8 233.5772,-8 239.5772,-14 239.5772,-20 239.5772,-20 239.5772,-73 239.5772,-73 239.5772,-79 233.5772,-85 227.5772,-85 227.5772,-85 179.5772,-85 179.5772,-85 173.5772,-85 167.5772,-79 167.5772,-73 167.5772,-73 167.5772,-20 167.5772,-20 167.5772,-14 173.5772,-8 179.5772,-8"/>
<text text-anchor="middle" x="203.5772" y="-73" font-family="Arial" font-size="10.00" fill="#000000">uqbar.containers</text>
</g>
<!-- builtins.object&#45;&gt;supriya.system.SupriyaObject.SupriyaObject -->
<g id="edge3" class="edge">
<title>builtins.object&#45;&gt;supriya.system.SupriyaObject.SupriyaObject</title>
<path fill="none" stroke="#778899" d="M53.3404,-86.5836C62.3178,-90.1971 73.2843,-94.6113 83.4118,-98.6878"/>
<polygon fill="#778899" stroke="#778899" points="82.1885,-101.9682 92.7722,-102.4555 84.8024,-95.4745 82.1885,-101.9682"/>
</g>
<!-- builtins.object&#45;&gt;uqbar.containers.UniqueTreeNode.UniqueTreeNode -->
<g id="edge4" class="edge">
<title>builtins.object&#45;&gt;uqbar.containers.UniqueTreeNode.UniqueTreeNode</title>
<path fill="none" stroke="#778899" d="M53.2402,-74.3448C82.3039,-67.1252 138.5208,-53.1605 173.3684,-44.5041"/>
<polygon fill="#778899" stroke="#778899" points="174.5821,-47.809 183.4434,-42.0014 172.8945,-41.0155 174.5821,-47.809"/>
</g>
<!-- supriya.realtime.Node.Node&#45;&gt;supriya.realtime.Synth.Synth -->
<g id="edge1" class="edge">
<title>supriya.realtime.Node.Node&#45;&gt;supriya.realtime.Synth.Synth</title>
<path fill="none" stroke="#778899" d="M323.461,-118C331.5151,-118 340.5527,-118 348.8869,-118"/>
<polygon fill="#778899" stroke="#778899" points="348.9403,-121.5001 358.9403,-118 348.9403,-114.5001 348.9403,-121.5001"/>
</g>
<!-- supriya.realtime.ServerObject.ServerObject&#45;&gt;supriya.realtime.Node.Node -->
<g id="edge2" class="edge">
<title>supriya.realtime.ServerObject.ServerObject&#45;&gt;supriya.realtime.Node.Node</title>
<path fill="none" stroke="#778899" d="M231.2341,-120.843C241.7672,-120.4024 253.8976,-119.895 264.9685,-119.4318"/>
<polygon fill="#778899" stroke="#778899" points="265.3265,-122.92 275.1714,-119.005 265.0339,-115.9261 265.3265,-122.92"/>
</g>
<!-- supriya.system.SupriyaObject.SupriyaObject&#45;&gt;supriya.realtime.ServerObject.ServerObject -->
<g id="edge5" class="edge">
<title>supriya.system.SupriyaObject.SupriyaObject&#45;&gt;supriya.realtime.ServerObject.ServerObject</title>
<path fill="none" stroke="#778899" d="M135.2285,-113.6068C144.3859,-114.7314 155.3802,-116.0815 165.847,-117.3668"/>
<polygon fill="#778899" stroke="#778899" points="165.6983,-120.8747 176.0503,-118.6197 166.5515,-113.9269 165.6983,-120.8747"/>
</g>
<!-- uqbar.containers.UniqueTreeNode.UniqueTreeNode&#45;&gt;supriya.realtime.Node.Node -->
<g id="edge6" class="edge">
<title>uqbar.containers.UniqueTreeNode.UniqueTreeNode&#45;&gt;supriya.realtime.Node.Node</title>
<path fill="none" stroke="#778899" d="M223.8555,-54.178C239.7277,-67.6236 261.7411,-86.2714 277.8745,-99.9383"/>
<polygon fill="#778899" stroke="#778899" points="275.819,-102.7841 285.7116,-106.5772 280.3436,-97.4429 275.819,-102.7841"/>
</g>
<!-- builtins.object -->
<g id="node1" class="node">
<title>builtins.object</title>
<g id="a_node1"><a xlink:href="https://docs.python.org/3.6/library/functions.html#object" xlink:title="object" target="_top">
<path fill="#fbb4ae" stroke="#fbb4ae" stroke-width="2" d="M46.6667,-88.5C46.6667,-88.5 22.3333,-88.5 22.3333,-88.5 19.1667,-88.5 16,-85.3333 16,-82.1667 16,-82.1667 16,-75.8333 16,-75.8333 16,-72.6667 19.1667,-69.5 22.3333,-69.5 22.3333,-69.5 46.6667,-69.5 46.6667,-69.5 49.8333,-69.5 53,-72.6667 53,-75.8333 53,-75.8333 53,-82.1667 53,-82.1667 53,-85.3333 49.8333,-88.5 46.6667,-88.5"/>
<text text-anchor="middle" x="34.5" y="-76.5" font-family="Arial" font-size="10.00" fill="#000000">object</text>
</a>
</g>
</g>
<!-- supriya.realtime.Node.Node -->
<g id="node2" class="node">
<title>supriya.realtime.Node.Node</title>
<g id="a_node2"><a xlink:href="../api/supriya/realtime/Node.html#supriya.realtime.Node.Node" xlink:title="Node" target="_top">
<ellipse fill="none" stroke="#b3cde3" stroke-width="2" cx="299.196" cy="-118" rx="24.0833" ry="13.3704"/>
<text text-anchor="middle" x="299.196" y="-115.5" font-family="Arial" font-size="10.00" fill="#000000">Node</text>
</a>
</g>
</g>
<!-- supriya.realtime.ServerObject.ServerObject -->
<g id="node3" class="node">
<title>supriya.realtime.ServerObject.ServerObject</title>
<g id="a_node3"><a xlink:href="../api/supriya/realtime/ServerObject.html#supriya.realtime.ServerObject.ServerObject" xlink:title="Server\nObject" target="_top">
<ellipse fill="none" stroke="#b3cde3" stroke-width="2" cx="203.5772" cy="-122" rx="27.6545" ry="21.4286"/>
<text text-anchor="middle" x="203.5772" y="-125" font-family="Arial" font-size="10.00" fill="#000000">Server</text>
<text text-anchor="middle" x="203.5772" y="-114" font-family="Arial" font-size="10.00" fill="#000000">Object</text>
</a>
</g>
</g>
<!-- supriya.realtime.Synth.Synth -->
<g id="node4" class="node">
<title>supriya.realtime.Synth.Synth</title>
<g id="a_node4"><a xlink:href="../api/supriya/realtime/Synth.html#supriya.realtime.Synth.Synth" xlink:title="Synth" target="_top">
<path fill="#000000" stroke="#000000" stroke-width="2" d="M388.9043,-127.5C388.9043,-127.5 365.5709,-127.5 365.5709,-127.5 362.4043,-127.5 359.2376,-124.3333 359.2376,-121.1667 359.2376,-121.1667 359.2376,-114.8333 359.2376,-114.8333 359.2376,-111.6667 362.4043,-108.5 365.5709,-108.5 365.5709,-108.5 388.9043,-108.5 388.9043,-108.5 392.0709,-108.5 395.2376,-111.6667 395.2376,-114.8333 395.2376,-114.8333 395.2376,-121.1667 395.2376,-121.1667 395.2376,-124.3333 392.0709,-127.5 388.9043,-127.5"/>
<text text-anchor="middle" x="377.2376" y="-115.5" font-family="Arial" font-size="10.00" fill="#ffffff">Synth</text>
</a>
</g>
</g>
<!-- supriya.system.SupriyaObject.SupriyaObject -->
<g id="node5" class="node">
<title>supriya.system.SupriyaObject.SupriyaObject</title>
<g id="a_node5"><a xlink:href="../api/supriya/realtime/../system/SupriyaObject.html#supriya.system.SupriyaObject.SupriyaObject" xlink:title="Supriya\nObject" target="_top">
<path fill="#ccebc5" stroke="#ccebc5" stroke-width="2" d="M125,-126C125,-126 103,-126 103,-126 98,-126 93,-121 93,-116 93,-116 93,-106 93,-106 93,-101 98,-96 103,-96 103,-96 125,-96 125,-96 130,-96 135,-101 135,-106 135,-106 135,-116 135,-116 135,-121 130,-126 125,-126"/>
<text text-anchor="middle" x="114" y="-114" font-family="Arial" font-size="10.00" fill="#000000">Supriya</text>
<text text-anchor="middle" x="114" y="-103" font-family="Arial" font-size="10.00" fill="#000000">Object</text>
</a>
</g>
</g>
<!-- uqbar.containers.UniqueTreeNode.UniqueTreeNode -->
<g id="node6" class="node">
<title>uqbar.containers.UniqueTreeNode.UniqueTreeNode</title>
<path fill="#decbe4" stroke="#decbe4" stroke-width="2" d="M211.5772,-57.5C211.5772,-57.5 195.5772,-57.5 195.5772,-57.5 189.5772,-57.5 183.5772,-51.5 183.5772,-45.5 183.5772,-45.5 183.5772,-28.5 183.5772,-28.5 183.5772,-22.5 189.5772,-16.5 195.5772,-16.5 195.5772,-16.5 211.5772,-16.5 211.5772,-16.5 217.5772,-16.5 223.5772,-22.5 223.5772,-28.5 223.5772,-28.5 223.5772,-45.5 223.5772,-45.5 223.5772,-51.5 217.5772,-57.5 211.5772,-57.5"/>
<text text-anchor="middle" x="203.5772" y="-45.5" font-family="Arial" font-size="10.00" fill="#000000">Unique</text>
<text text-anchor="middle" x="203.5772" y="-34.5" font-family="Arial" font-size="10.00" fill="#000000">Tree</text>
<text text-anchor="middle" x="203.5772" y="-23.5" font-family="Arial" font-size="10.00" fill="#000000">Node</text>
</g>
</g>
</svg>
