<?xml version="1.0" encoding="UTF-8" standalone="no"?>
<!DOCTYPE svg PUBLIC "-//W3C//DTD SVG 1.1//EN"
 "http://www.w3.org/Graphics/SVG/1.1/DTD/svg11.dtd">
<!-- Generated by graphviz version 2.40.1 (20161225.0304)
 -->
<!-- Title: InheritanceGraph Pages: 1 -->
<svg width="321pt" height="186pt"
 viewBox="0.00 0.00 321.00 186.00" xmlns="http://www.w3.org/2000/svg" xmlns:xlink="http://www.w3.org/1999/xlink">
<g id="graph0" class="graph" transform="scale(1 1) rotate(0) translate(4 182)">
<title>InheritanceGraph</title>
<g id="clust1" class="cluster">
<title>cluster_builtins</title>
<path fill="transparent" stroke="#bcd2ee" stroke-width="2" stroke-dasharray="5,2" d="M20,-101C20,-101 49,-101 49,-101 55,-101 61,-107 61,-113 61,-113 61,-144 61,-144 61,-150 55,-156 49,-156 49,-156 20,-156 20,-156 14,-156 8,-150 8,-144 8,-144 8,-113 8,-113 8,-107 14,-101 20,-101"/>
<text text-anchor="middle" x="34.5" y="-144" font-family="Arial" font-size="10.00" fill="#000000">builtins</text>
</g>
<g id="clust2" class="cluster">
<title>cluster_supriya.synthdefs</title>
<path fill="transparent" stroke="#bcd2ee" stroke-width="2" stroke-dasharray="5,2" d="M171,-8C171,-8 293,-8 293,-8 299,-8 305,-14 305,-20 305,-20 305,-73 305,-73 305,-79 299,-85 293,-85 293,-85 171,-85 171,-85 165,-85 159,-79 159,-73 159,-73 159,-20 159,-20 159,-14 165,-8 171,-8"/>
<text text-anchor="middle" x="232" y="-73" font-family="Arial" font-size="10.00" fill="#000000">supriya.synthdefs</text>
</g>
<g id="clust3" class="cluster">
<title>cluster_supriya.system</title>
<path fill="transparent" stroke="#bcd2ee" stroke-width="2" stroke-dasharray="5,2" d="M93,-93C93,-93 205,-93 205,-93 211,-93 217,-99 217,-105 217,-105 217,-158 217,-158 217,-164 211,-170 205,-170 205,-170 93,-170 93,-170 87,-170 81,-164 81,-158 81,-158 81,-105 81,-105 81,-99 87,-93 93,-93"/>
<text text-anchor="middle" x="149" y="-158" font-family="Arial" font-size="10.00" fill="#000000">supriya.system</text>
</g>
<!-- builtins.object&#45;&gt;supriya.system.SupriyaObject.SupriyaObject -->
<g id="edge3" class="edge">
<title>builtins.object&#45;&gt;supriya.system.SupriyaObject.SupriyaObject</title>
<path fill="none" stroke="#778899" d="M53.1629,-119C60.862,-119 69.9986,-119 78.6696,-119"/>
<polygon fill="#778899" stroke="#778899" points="78.8875,-122.5001 88.8875,-119 78.8874,-115.5001 78.8875,-122.5001"/>
</g>
<!-- supriya.synthdefs.UGenMethodMixin.UGenMethodMixin&#45;&gt;supriya.synthdefs.Parameter.Parameter -->
<g id="edge1" class="edge">
<title>supriya.synthdefs.UGenMethodMixin.UGenMethodMixin&#45;&gt;supriya.synthdefs.Parameter.Parameter</title>
<path fill="none" stroke="#778899" d="M209.3746,-38.2876C217.1767,-38.7576 226.2311,-39.3031 234.9579,-39.8288"/>
<polygon fill="#778899" stroke="#778899" points="234.7647,-43.3234 244.9571,-40.4312 235.1857,-36.3361 234.7647,-43.3234"/>
</g>
<!-- supriya.system.SupriyaObject.SupriyaObject&#45;&gt;supriya.synthdefs.UGenMethodMixin.UGenMethodMixin -->
<g id="edge4" class="edge">
<title>supriya.system.SupriyaObject.SupriyaObject&#45;&gt;supriya.synthdefs.UGenMethodMixin.UGenMethodMixin</title>
<path fill="none" stroke="#778899" d="M124.3064,-103.9599C134.6741,-93.0606 148.9969,-78.0032 161.4351,-64.9272"/>
<polygon fill="#778899" stroke="#778899" points="164.1403,-67.1615 168.4965,-57.5036 159.0684,-62.337 164.1403,-67.1615"/>
</g>
<!-- supriya.system.SupriyaObject.SupriyaObject&#45;&gt;supriya.system.SupriyaValueObject.SupriyaValueObject -->
<g id="edge2" class="edge">
<title>supriya.system.SupriyaObject.SupriyaObject&#45;&gt;supriya.system.SupriyaValueObject.SupriyaValueObject</title>
<path fill="none" stroke="#778899" d="M131.3138,-119.8198C139.2025,-120.1232 148.316,-120.4737 156.8971,-120.8037"/>
<polygon fill="#778899" stroke="#778899" points="156.8548,-124.3046 166.982,-121.1916 157.1239,-117.3098 156.8548,-124.3046"/>
</g>
<!-- supriya.system.SupriyaValueObject.SupriyaValueObject&#45;&gt;supriya.synthdefs.Parameter.Parameter -->
<g id="edge5" class="edge">
<title>supriya.system.SupriyaValueObject.SupriyaValueObject&#45;&gt;supriya.synthdefs.Parameter.Parameter</title>
<path fill="none" stroke="#778899" d="M209.3746,-101.398C223.0576,-88.2095 240.5921,-71.3088 253.4562,-58.9097"/>
<polygon fill="#778899" stroke="#778899" points="256.0151,-61.3044 260.7862,-51.8446 251.1572,-56.2644 256.0151,-61.3044"/>
</g>
<!-- builtins.object -->
<g id="node1" class="node">
<title>builtins.object</title>
<g id="a_node1"><a xlink:href="https://docs.python.org/3.6/library/functions.html#object" xlink:title="object" target="_top">
<path fill="#fbb4ae" stroke="#fbb4ae" stroke-width="2" d="M46.6667,-128.5C46.6667,-128.5 22.3333,-128.5 22.3333,-128.5 19.1667,-128.5 16,-125.3333 16,-122.1667 16,-122.1667 16,-115.8333 16,-115.8333 16,-112.6667 19.1667,-109.5 22.3333,-109.5 22.3333,-109.5 46.6667,-109.5 46.6667,-109.5 49.8333,-109.5 53,-112.6667 53,-115.8333 53,-115.8333 53,-122.1667 53,-122.1667 53,-125.3333 49.8333,-128.5 46.6667,-128.5"/>
<text text-anchor="middle" x="34.5" y="-116.5" font-family="Arial" font-size="10.00" fill="#000000">object</text>
</a>
</g>
</g>
<!-- supriya.synthdefs.Parameter.Parameter -->
<g id="node2" class="node">
<title>supriya.synthdefs.Parameter.Parameter</title>
<g id="a_node2"><a xlink:href="../api/supriya/synthdefs/Parameter.html#supriya.synthdefs.Parameter.Parameter" xlink:title="Parameter" target="_top">
<path fill="#000000" stroke="#000000" stroke-width="2" d="M290.6667,-51.5C290.6667,-51.5 251.3333,-51.5 251.3333,-51.5 248.1667,-51.5 245,-48.3333 245,-45.1667 245,-45.1667 245,-38.8333 245,-38.8333 245,-35.6667 248.1667,-32.5 251.3333,-32.5 251.3333,-32.5 290.6667,-32.5 290.6667,-32.5 293.8333,-32.5 297,-35.6667 297,-38.8333 297,-38.8333 297,-45.1667 297,-45.1667 297,-48.3333 293.8333,-51.5 290.6667,-51.5"/>
<text text-anchor="middle" x="271" y="-39.5" font-family="Arial" font-size="10.00" fill="#ffffff">Parameter</text>
</a>
</g>
</g>
<!-- supriya.synthdefs.UGenMethodMixin.UGenMethodMixin -->
<g id="node3" class="node">
<title>supriya.synthdefs.UGenMethodMixin.UGenMethodMixin</title>
<g id="a_node3"><a xlink:href="../api/supriya/synthdefs/UGenMethodMixin.html#supriya.synthdefs.UGenMethodMixin.UGenMethodMixin" xlink:title="UGen\nMethod\nMixin" target="_top">
<path fill="#b3cde3" stroke="#b3cde3" stroke-width="2" d="M197,-57.5C197,-57.5 179,-57.5 179,-57.5 173,-57.5 167,-51.5 167,-45.5 167,-45.5 167,-28.5 167,-28.5 167,-22.5 173,-16.5 179,-16.5 179,-16.5 197,-16.5 197,-16.5 203,-16.5 209,-22.5 209,-28.5 209,-28.5 209,-45.5 209,-45.5 209,-51.5 203,-57.5 197,-57.5"/>
<text text-anchor="middle" x="188" y="-45.5" font-family="Arial" font-size="10.00" fill="#000000">UGen</text>
<text text-anchor="middle" x="188" y="-34.5" font-family="Arial" font-size="10.00" fill="#000000">Method</text>
<text text-anchor="middle" x="188" y="-23.5" font-family="Arial" font-size="10.00" fill="#000000">Mixin</text>
</a>
</g>
</g>
<!-- supriya.system.SupriyaObject.SupriyaObject -->
<g id="node4" class="node">
<title>supriya.system.SupriyaObject.SupriyaObject</title>
<g id="a_node4"><a xlink:href="../api/supriya/synthdefs/../system/SupriyaObject.html#supriya.system.SupriyaObject.SupriyaObject" xlink:title="Supriya\nObject" target="_top">
<path fill="#ccebc5" stroke="#ccebc5" stroke-width="2" d="M121,-134C121,-134 99,-134 99,-134 94,-134 89,-129 89,-124 89,-124 89,-114 89,-114 89,-109 94,-104 99,-104 99,-104 121,-104 121,-104 126,-104 131,-109 131,-114 131,-114 131,-124 131,-124 131,-129 126,-134 121,-134"/>
<text text-anchor="middle" x="110" y="-122" font-family="Arial" font-size="10.00" fill="#000000">Supriya</text>
<text text-anchor="middle" x="110" y="-111" font-family="Arial" font-size="10.00" fill="#000000">Object</text>
</a>
</g>
</g>
<!-- supriya.system.SupriyaValueObject.SupriyaValueObject -->
<g id="node5" class="node">
<title>supriya.system.SupriyaValueObject.SupriyaValueObject</title>
<g id="a_node5"><a xlink:href="../api/supriya/synthdefs/../system/SupriyaValueObject.html#supriya.system.SupriyaValueObject.SupriyaValueObject" xlink:title="Supriya\nValue\nObject" target="_top">
<path fill="#ccebc5" stroke="#ccebc5" stroke-width="2" d="M197,-142.5C197,-142.5 179,-142.5 179,-142.5 173,-142.5 167,-136.5 167,-130.5 167,-130.5 167,-113.5 167,-113.5 167,-107.5 173,-101.5 179,-101.5 179,-101.5 197,-101.5 197,-101.5 203,-101.5 209,-107.5 209,-113.5 209,-113.5 209,-130.5 209,-130.5 209,-136.5 203,-142.5 197,-142.5"/>
<text text-anchor="middle" x="188" y="-130.5" font-family="Arial" font-size="10.00" fill="#000000">Supriya</text>
<text text-anchor="middle" x="188" y="-119.5" font-family="Arial" font-size="10.00" fill="#000000">Value</text>
<text text-anchor="middle" x="188" y="-108.5" font-family="Arial" font-size="10.00" fill="#000000">Object</text>
</a>
</g>
</g>
</g>
</svg>
