<?xml version="1.0" encoding="UTF-8" standalone="no"?>
<!DOCTYPE svg PUBLIC "-//W3C//DTD SVG 1.1//EN"
 "http://www.w3.org/Graphics/SVG/1.1/DTD/svg11.dtd">
<!-- Generated by graphviz version 2.40.1 (20161225.0304)
 -->
<!-- Title: InheritanceGraph Pages: 1 -->
<svg width="516pt" height="145pt"
 viewBox="0.00 0.00 516.23 145.00" xmlns="http://www.w3.org/2000/svg" xmlns:xlink="http://www.w3.org/1999/xlink">
<g id="graph0" class="graph" transform="scale(1 1) rotate(0) translate(4 141)">
<title>InheritanceGraph</title>
<g id="clust1" class="cluster">
<title>cluster_builtins</title>
<path fill="transparent" stroke="#bcd2ee" stroke-width="2" stroke-dasharray="5,2" d="M20,-41C20,-41 49,-41 49,-41 55,-41 61,-47 61,-53 61,-53 61,-84 61,-84 61,-90 55,-96 49,-96 49,-96 20,-96 20,-96 14,-96 8,-90 8,-84 8,-84 8,-53 8,-53 8,-47 14,-41 20,-41"/>
<text text-anchor="middle" x="34.5" y="-84" font-family="Arial" font-size="10.00" fill="#000000">builtins</text>
</g>
<g id="clust2" class="cluster">
<title>cluster_supriya.commands</title>
<path fill="transparent" stroke="#bcd2ee" stroke-width="2" stroke-dasharray="5,2" d="M249,-8C249,-8 488.2254,-8 488.2254,-8 494.2254,-8 500.2254,-14 500.2254,-20 500.2254,-20 500.2254,-117 500.2254,-117 500.2254,-123 494.2254,-129 488.2254,-129 488.2254,-129 249,-129 249,-129 243,-129 237,-123 237,-117 237,-117 237,-20 237,-20 237,-14 243,-8 249,-8"/>
<text text-anchor="middle" x="368.6127" y="-117" font-family="Arial" font-size="10.00" fill="#000000">supriya.commands</text>
</g>
<g id="clust3" class="cluster">
<title>cluster_supriya.system</title>
<path fill="transparent" stroke="#bcd2ee" stroke-width="2" stroke-dasharray="5,2" d="M93,-30C93,-30 205,-30 205,-30 211,-30 217,-36 217,-42 217,-42 217,-95 217,-95 217,-101 211,-107 205,-107 205,-107 93,-107 93,-107 87,-107 81,-101 81,-95 81,-95 81,-42 81,-42 81,-36 87,-30 93,-30"/>
<text text-anchor="middle" x="149" y="-95" font-family="Arial" font-size="10.00" fill="#000000">supriya.system</text>
</g>
<!-- builtins.object&#45;&gt;supriya.system.SupriyaObject.SupriyaObject -->
<g id="edge4" class="edge">
<title>builtins.object&#45;&gt;supriya.system.SupriyaObject.SupriyaObject</title>
<path fill="none" stroke="#778899" d="M53.1629,-59C60.862,-59 69.9986,-59 78.6696,-59"/>
<polygon fill="#778899" stroke="#778899" points="78.8875,-62.5001 88.8875,-59 78.8874,-55.5001 78.8875,-62.5001"/>
</g>
<!-- supriya.commands.Request.Request&#45;&gt;supriya.commands.NodeMapToControlBusContiguousRequest.NodeMapToControlBusContiguousRequest -->
<g id="edge1" class="edge">
<title>supriya.commands.Request.Request&#45;&gt;supriya.commands.NodeMapToControlBusContiguousRequest.NodeMapToControlBusContiguousRequest</title>
<path fill="none" stroke="#778899" d="M402.4509,-59C410.6621,-59 419.5947,-59 428.0774,-59"/>
<polygon fill="#778899" stroke="#778899" points="428.1225,-62.5001 438.1225,-59 428.1224,-55.5001 428.1225,-62.5001"/>
</g>
<!-- supriya.commands.Requestable.Requestable&#45;&gt;supriya.commands.Request.Request -->
<g id="edge2" class="edge">
<title>supriya.commands.Requestable.Requestable&#45;&gt;supriya.commands.Request.Request</title>
<path fill="none" stroke="#778899" d="M304.012,-59C312.0601,-59 320.9328,-59 329.5171,-59"/>
<polygon fill="#778899" stroke="#778899" points="329.7704,-62.5001 339.7704,-59 329.7703,-55.5001 329.7704,-62.5001"/>
</g>
<!-- supriya.system.SupriyaObject.SupriyaObject&#45;&gt;supriya.system.SupriyaValueObject.SupriyaValueObject -->
<g id="edge3" class="edge">
<title>supriya.system.SupriyaObject.SupriyaObject&#45;&gt;supriya.system.SupriyaValueObject.SupriyaValueObject</title>
<path fill="none" stroke="#778899" d="M131.3138,-59C139.2025,-59 148.316,-59 156.8971,-59"/>
<polygon fill="#778899" stroke="#778899" points="156.982,-62.5001 166.982,-59 156.982,-55.5001 156.982,-62.5001"/>
</g>
<!-- supriya.system.SupriyaValueObject.SupriyaValueObject&#45;&gt;supriya.commands.Requestable.Requestable -->
<g id="edge5" class="edge">
<title>supriya.system.SupriyaValueObject.SupriyaValueObject&#45;&gt;supriya.commands.Requestable.Requestable</title>
<path fill="none" stroke="#778899" d="M209.382,-59C217.0772,-59 226.0257,-59 234.7801,-59"/>
<polygon fill="#778899" stroke="#778899" points="234.881,-62.5001 244.881,-59 234.8809,-55.5001 234.881,-62.5001"/>
</g>
<!-- builtins.object -->
<g id="node1" class="node">
<title>builtins.object</title>
<g id="a_node1"><a xlink:href="https://docs.python.org/3.6/library/functions.html#object" xlink:title="object" target="_top">
<path fill="#fbb4ae" stroke="#fbb4ae" stroke-width="2" d="M46.6667,-68.5C46.6667,-68.5 22.3333,-68.5 22.3333,-68.5 19.1667,-68.5 16,-65.3333 16,-62.1667 16,-62.1667 16,-55.8333 16,-55.8333 16,-52.6667 19.1667,-49.5 22.3333,-49.5 22.3333,-49.5 46.6667,-49.5 46.6667,-49.5 49.8333,-49.5 53,-52.6667 53,-55.8333 53,-55.8333 53,-62.1667 53,-62.1667 53,-65.3333 49.8333,-68.5 46.6667,-68.5"/>
<text text-anchor="middle" x="34.5" y="-56.5" font-family="Arial" font-size="10.00" fill="#000000">object</text>
</a>
</g>
</g>
<!-- supriya.commands.NodeMapToControlBusContiguousRequest.NodeMapToControlBusContiguousRequest -->
<g id="node2" class="node">
<title>supriya.commands.NodeMapToControlBusContiguousRequest.NodeMapToControlBusContiguousRequest</title>
<g id="a_node2"><a xlink:href="../api/supriya/commands/NodeMapToControlBusContiguousRequest.html#supriya.commands.NodeMapToControlBusContiguousRequest.NodeMapToControlBusContiguousRequest" xlink:title="Node\nMap\nTo\nControl\nBus\nContiguous\nRequest" target="_top">
<path fill="#000000" stroke="#000000" stroke-width="2" d="M480.2254,-101.5C480.2254,-101.5 450.2254,-101.5 450.2254,-101.5 444.2254,-101.5 438.2254,-95.5 438.2254,-89.5 438.2254,-89.5 438.2254,-28.5 438.2254,-28.5 438.2254,-22.5 444.2254,-16.5 450.2254,-16.5 450.2254,-16.5 480.2254,-16.5 480.2254,-16.5 486.2254,-16.5 492.2254,-22.5 492.2254,-28.5 492.2254,-28.5 492.2254,-89.5 492.2254,-89.5 492.2254,-95.5 486.2254,-101.5 480.2254,-101.5"/>
<text text-anchor="middle" x="465.2254" y="-89.5" font-family="Arial" font-size="10.00" fill="#ffffff">Node</text>
<text text-anchor="middle" x="465.2254" y="-78.5" font-family="Arial" font-size="10.00" fill="#ffffff">Map</text>
<text text-anchor="middle" x="465.2254" y="-67.5" font-family="Arial" font-size="10.00" fill="#ffffff">To</text>
<text text-anchor="middle" x="465.2254" y="-56.5" font-family="Arial" font-size="10.00" fill="#ffffff">Control</text>
<text text-anchor="middle" x="465.2254" y="-45.5" font-family="Arial" font-size="10.00" fill="#ffffff">Bus</text>
<text text-anchor="middle" x="465.2254" y="-34.5" font-family="Arial" font-size="10.00" fill="#ffffff">Contiguous</text>
<text text-anchor="middle" x="465.2254" y="-23.5" font-family="Arial" font-size="10.00" fill="#ffffff">Request</text>
</a>
</g>
</g>
<!-- supriya.commands.Request.Request -->
<g id="node3" class="node">
<title>supriya.commands.Request.Request</title>
<g id="a_node3"><a xlink:href="../api/supriya/commands/Request.html#supriya.commands.Request.Request" xlink:title="Request" target="_top">
<ellipse fill="none" stroke="#b3cde3" stroke-width="2" cx="371.1127" cy="-59" rx="31.2258" ry="13.3704"/>
<text text-anchor="middle" x="371.1127" y="-56.5" font-family="Arial" font-size="10.00" fill="#000000">Request</text>
</a>
</g>
</g>
<!-- supriya.commands.Requestable.Requestable -->
<g id="node4" class="node">
<title>supriya.commands.Requestable.Requestable</title>
<g id="a_node4"><a xlink:href="../api/supriya/commands/Requestable.html#supriya.commands.Requestable.Requestable" xlink:title="Requestable" target="_top">
<path fill="#b3cde3" stroke="#b3cde3" stroke-width="2" d="M297.6667,-68.5C297.6667,-68.5 251.3333,-68.5 251.3333,-68.5 248.1667,-68.5 245,-65.3333 245,-62.1667 245,-62.1667 245,-55.8333 245,-55.8333 245,-52.6667 248.1667,-49.5 251.3333,-49.5 251.3333,-49.5 297.6667,-49.5 297.6667,-49.5 300.8333,-49.5 304,-52.6667 304,-55.8333 304,-55.8333 304,-62.1667 304,-62.1667 304,-65.3333 300.8333,-68.5 297.6667,-68.5"/>
<text text-anchor="middle" x="274.5" y="-56.5" font-family="Arial" font-size="10.00" fill="#000000">Requestable</text>
</a>
</g>
</g>
<!-- supriya.system.SupriyaObject.SupriyaObject -->
<g id="node5" class="node">
<title>supriya.system.SupriyaObject.SupriyaObject</title>
<g id="a_node5"><a xlink:href="../api/supriya/commands/../system/SupriyaObject.html#supriya.system.SupriyaObject.SupriyaObject" xlink:title="Supriya\nObject" target="_top">
<path fill="#ccebc5" stroke="#ccebc5" stroke-width="2" d="M121,-74C121,-74 99,-74 99,-74 94,-74 89,-69 89,-64 89,-64 89,-54 89,-54 89,-49 94,-44 99,-44 99,-44 121,-44 121,-44 126,-44 131,-49 131,-54 131,-54 131,-64 131,-64 131,-69 126,-74 121,-74"/>
<text text-anchor="middle" x="110" y="-62" font-family="Arial" font-size="10.00" fill="#000000">Supriya</text>
<text text-anchor="middle" x="110" y="-51" font-family="Arial" font-size="10.00" fill="#000000">Object</text>
</a>
</g>
</g>
<!-- supriya.system.SupriyaValueObject.SupriyaValueObject -->
<g id="node6" class="node">
<title>supriya.system.SupriyaValueObject.SupriyaValueObject</title>
<g id="a_node6"><a xlink:href="../api/supriya/commands/../system/SupriyaValueObject.html#supriya.system.SupriyaValueObject.SupriyaValueObject" xlink:title="Supriya\nValue\nObject" target="_top">
<path fill="#ccebc5" stroke="#ccebc5" stroke-width="2" d="M197,-79.5C197,-79.5 179,-79.5 179,-79.5 173,-79.5 167,-73.5 167,-67.5 167,-67.5 167,-50.5 167,-50.5 167,-44.5 173,-38.5 179,-38.5 179,-38.5 197,-38.5 197,-38.5 203,-38.5 209,-44.5 209,-50.5 209,-50.5 209,-67.5 209,-67.5 209,-73.5 203,-79.5 197,-79.5"/>
<text text-anchor="middle" x="188" y="-67.5" font-family="Arial" font-size="10.00" fill="#000000">Supriya</text>
<text text-anchor="middle" x="188" y="-56.5" font-family="Arial" font-size="10.00" fill="#000000">Value</text>
<text text-anchor="middle" x="188" y="-45.5" font-family="Arial" font-size="10.00" fill="#000000">Object</text>
</a>
</g>
</g>
</g>
</svg>
