<?xml version="1.0" encoding="UTF-8" standalone="no"?>
<!DOCTYPE svg PUBLIC "-//W3C//DTD SVG 1.1//EN"
 "http://www.w3.org/Graphics/SVG/1.1/DTD/svg11.dtd">
<!-- Generated by graphviz version 2.40.1 (20161225.0304)
 -->
<!-- Title: InheritanceGraph Pages: 1 -->
<svg width="237pt" height="89pt"
 viewBox="0.00 0.00 237.00 89.00" xmlns="http://www.w3.org/2000/svg" xmlns:xlink="http://www.w3.org/1999/xlink">
<g id="graph0" class="graph" transform="scale(1 1) rotate(0) translate(4 85)">
<title>InheritanceGraph</title>
<g id="clust1" class="cluster">
<title>cluster_builtins</title>
<path fill="transparent" stroke="#bcd2ee" stroke-width="2" stroke-dasharray="5,2" d="M20,-13C20,-13 49,-13 49,-13 55,-13 61,-19 61,-25 61,-25 61,-56 61,-56 61,-62 55,-68 49,-68 49,-68 20,-68 20,-68 14,-68 8,-62 8,-56 8,-56 8,-25 8,-25 8,-19 14,-13 20,-13"/>
<text text-anchor="middle" x="34.5" y="-56" font-family="Arial" font-size="10.00" fill="#000000">builtins</text>
</g>
<g id="clust2" class="cluster">
<title>cluster_supriya.realtime</title>
<path fill="transparent" stroke="#bcd2ee" stroke-width="2" stroke-dasharray="5,2" d="M169,-8C169,-8 214,-8 214,-8 220,-8 226,-14 226,-20 226,-20 226,-61 226,-61 226,-67 220,-73 214,-73 214,-73 169,-73 169,-73 163,-73 157,-67 157,-61 157,-61 157,-20 157,-20 157,-14 163,-8 169,-8"/>
<text text-anchor="middle" x="191.5" y="-61" font-family="Arial" font-size="10.00" fill="#000000">supriya.realtime</text>
</g>
<g id="clust3" class="cluster">
<title>cluster_threading</title>
<path fill="transparent" stroke="#bcd2ee" stroke-width="2" stroke-dasharray="5,2" d="M93,-13C93,-13 125,-13 125,-13 131,-13 137,-19 137,-25 137,-25 137,-56 137,-56 137,-62 131,-68 125,-68 125,-68 93,-68 93,-68 87,-68 81,-62 81,-56 81,-56 81,-25 81,-25 81,-19 87,-13 93,-13"/>
<text text-anchor="middle" x="109" y="-56" font-family="Arial" font-size="10.00" fill="#000000">threading</text>
</g>
<!-- builtins.object&#45;&gt;threading.Thread -->
<g id="edge1" class="edge">
<title>builtins.object&#45;&gt;threading.Thread</title>
<path fill="none" stroke="#778899" d="M53.2995,-31C61.0221,-31 70.1602,-31 78.7776,-31"/>
<polygon fill="#778899" stroke="#778899" points="78.9006,-34.5001 88.9006,-31 78.9005,-27.5001 78.9006,-34.5001"/>
</g>
<!-- threading.Thread&#45;&gt;supriya.realtime.StatusWatcher.StatusWatcher -->
<g id="edge2" class="edge">
<title>threading.Thread&#45;&gt;supriya.realtime.StatusWatcher.StatusWatcher</title>
<path fill="none" stroke="#778899" d="M129.2697,-31C138.2104,-31 148.9358,-31 158.9197,-31"/>
<polygon fill="#778899" stroke="#778899" points="158.9497,-34.5001 168.9497,-31 158.9496,-27.5001 158.9497,-34.5001"/>
</g>
<!-- builtins.object -->
<g id="node1" class="node">
<title>builtins.object</title>
<g id="a_node1"><a xlink:href="https://docs.python.org/3.6/library/functions.html#object" xlink:title="object" target="_top">
<path fill="#fbb4ae" stroke="#fbb4ae" stroke-width="2" d="M46.6667,-40.5C46.6667,-40.5 22.3333,-40.5 22.3333,-40.5 19.1667,-40.5 16,-37.3333 16,-34.1667 16,-34.1667 16,-27.8333 16,-27.8333 16,-24.6667 19.1667,-21.5 22.3333,-21.5 22.3333,-21.5 46.6667,-21.5 46.6667,-21.5 49.8333,-21.5 53,-24.6667 53,-27.8333 53,-27.8333 53,-34.1667 53,-34.1667 53,-37.3333 49.8333,-40.5 46.6667,-40.5"/>
<text text-anchor="middle" x="34.5" y="-28.5" font-family="Arial" font-size="10.00" fill="#000000">object</text>
</a>
</g>
</g>
<!-- supriya.realtime.StatusWatcher.StatusWatcher -->
<g id="node2" class="node">
<title>supriya.realtime.StatusWatcher.StatusWatcher</title>
<g id="a_node2"><a xlink:href="../api/supriya/realtime/StatusWatcher.html#supriya.realtime.StatusWatcher.StatusWatcher" xlink:title="Status\nWatcher" target="_top">
<path fill="#000000" stroke="#000000" stroke-width="2" d="M203,-46C203,-46 179,-46 179,-46 174,-46 169,-41 169,-36 169,-36 169,-26 169,-26 169,-21 174,-16 179,-16 179,-16 203,-16 203,-16 208,-16 213,-21 213,-26 213,-26 213,-36 213,-36 213,-41 208,-46 203,-46"/>
<text text-anchor="middle" x="191" y="-34" font-family="Arial" font-size="10.00" fill="#ffffff">Status</text>
<text text-anchor="middle" x="191" y="-23" font-family="Arial" font-size="10.00" fill="#ffffff">Watcher</text>
</a>
</g>
</g>
<!-- threading.Thread -->
<g id="node3" class="node">
<title>threading.Thread</title>
<g id="a_node3"><a xlink:href="https://docs.python.org/3.6/library/threading.html#threading.Thread" xlink:title="Thread" target="_top">
<path fill="#ccebc5" stroke="#ccebc5" stroke-width="2" d="M122.6667,-40.5C122.6667,-40.5 95.3333,-40.5 95.3333,-40.5 92.1667,-40.5 89,-37.3333 89,-34.1667 89,-34.1667 89,-27.8333 89,-27.8333 89,-24.6667 92.1667,-21.5 95.3333,-21.5 95.3333,-21.5 122.6667,-21.5 122.6667,-21.5 125.8333,-21.5 129,-24.6667 129,-27.8333 129,-27.8333 129,-34.1667 129,-34.1667 129,-37.3333 125.8333,-40.5 122.6667,-40.5"/>
<text text-anchor="middle" x="109" y="-28.5" font-family="Arial" font-size="10.00" fill="#000000">Thread</text>
</a>
</g>
</g>
</g>
</svg>
