<?xml version="1.0" encoding="UTF-8" standalone="no"?>
<!DOCTYPE svg PUBLIC "-//W3C//DTD SVG 1.1//EN"
 "http://www.w3.org/Graphics/SVG/1.1/DTD/svg11.dtd">
<!-- Generated by graphviz version 2.40.1 (20161225.0304)
 -->
<!-- Title: InheritanceGraph Pages: 1 -->
<svg width="249pt" height="89pt"
 viewBox="0.00 0.00 249.00 89.00" xmlns="http://www.w3.org/2000/svg" xmlns:xlink="http://www.w3.org/1999/xlink">
<g id="graph0" class="graph" transform="scale(1 1) rotate(0) translate(4 85)">
<title>InheritanceGraph</title>
<g id="clust1" class="cluster">
<title>cluster_builtins</title>
<path fill="transparent" stroke="#bcd2ee" stroke-width="2" stroke-dasharray="5,2" d="M20,-13C20,-13 49,-13 49,-13 55,-13 61,-19 61,-25 61,-25 61,-56 61,-56 61,-62 55,-68 49,-68 49,-68 20,-68 20,-68 14,-68 8,-62 8,-56 8,-56 8,-25 8,-25 8,-19 14,-13 20,-13"/>
<text text-anchor="middle" x="34.5" y="-56" font-family="Arial" font-size="10.00" fill="#000000">builtins</text>
</g>
<g id="clust2" class="cluster">
<title>cluster_supriya.system</title>
<path fill="transparent" stroke="#bcd2ee" stroke-width="2" stroke-dasharray="5,2" d="M93,-8C93,-8 136,-8 136,-8 142,-8 148,-14 148,-20 148,-20 148,-61 148,-61 148,-67 142,-73 136,-73 136,-73 93,-73 93,-73 87,-73 81,-67 81,-61 81,-61 81,-20 81,-20 81,-14 87,-8 93,-8"/>
<text text-anchor="middle" x="114.5" y="-61" font-family="Arial" font-size="10.00" fill="#000000">supriya.system</text>
</g>
<g id="clust3" class="cluster">
<title>cluster_supriya.time</title>
<path fill="transparent" stroke="#bcd2ee" stroke-width="2" stroke-dasharray="5,2" d="M180,-8C180,-8 221,-8 221,-8 227,-8 233,-14 233,-20 233,-20 233,-61 233,-61 233,-67 227,-73 221,-73 221,-73 180,-73 180,-73 174,-73 168,-67 168,-61 168,-61 168,-20 168,-20 168,-14 174,-8 180,-8"/>
<text text-anchor="middle" x="200.5" y="-61" font-family="Arial" font-size="10.00" fill="#000000">supriya.time</text>
</g>
<!-- builtins.object&#45;&gt;supriya.system.SupriyaObject.SupriyaObject -->
<g id="edge1" class="edge">
<title>builtins.object&#45;&gt;supriya.system.SupriyaObject.SupriyaObject</title>
<path fill="none" stroke="#778899" d="M53.3404,-31C62.0401,-31 72.6079,-31 82.4698,-31"/>
<polygon fill="#778899" stroke="#778899" points="82.7722,-34.5001 92.7722,-31 82.7721,-27.5001 82.7722,-34.5001"/>
</g>
<!-- supriya.system.SupriyaObject.SupriyaObject&#45;&gt;supriya.time.TimespanCollection.TimespanCollection -->
<g id="edge2" class="edge">
<title>supriya.system.SupriyaObject.SupriyaObject&#45;&gt;supriya.time.TimespanCollection.TimespanCollection</title>
<path fill="none" stroke="#778899" d="M135.382,-31C144.6125,-31 155.6463,-31 165.9852,-31"/>
<polygon fill="#778899" stroke="#778899" points="165.9999,-34.5001 175.9999,-31 165.9999,-27.5001 165.9999,-34.5001"/>
</g>
<!-- builtins.object -->
<g id="node1" class="node">
<title>builtins.object</title>
<g id="a_node1"><a xlink:href="https://docs.python.org/3.6/library/functions.html#object" xlink:title="object" target="_top">
<path fill="#fbb4ae" stroke="#fbb4ae" stroke-width="2" d="M46.6667,-40.5C46.6667,-40.5 22.3333,-40.5 22.3333,-40.5 19.1667,-40.5 16,-37.3333 16,-34.1667 16,-34.1667 16,-27.8333 16,-27.8333 16,-24.6667 19.1667,-21.5 22.3333,-21.5 22.3333,-21.5 46.6667,-21.5 46.6667,-21.5 49.8333,-21.5 53,-24.6667 53,-27.8333 53,-27.8333 53,-34.1667 53,-34.1667 53,-37.3333 49.8333,-40.5 46.6667,-40.5"/>
<text text-anchor="middle" x="34.5" y="-28.5" font-family="Arial" font-size="10.00" fill="#000000">object</text>
</a>
</g>
</g>
<!-- supriya.system.SupriyaObject.SupriyaObject -->
<g id="node2" class="node">
<title>supriya.system.SupriyaObject.SupriyaObject</title>
<g id="a_node2"><a xlink:href="../api/supriya/time/../system/SupriyaObject.html#supriya.system.SupriyaObject.SupriyaObject" xlink:title="Supriya\nObject" target="_top">
<path fill="#b3cde3" stroke="#b3cde3" stroke-width="2" d="M125,-46C125,-46 103,-46 103,-46 98,-46 93,-41 93,-36 93,-36 93,-26 93,-26 93,-21 98,-16 103,-16 103,-16 125,-16 125,-16 130,-16 135,-21 135,-26 135,-26 135,-36 135,-36 135,-41 130,-46 125,-46"/>
<text text-anchor="middle" x="114" y="-34" font-family="Arial" font-size="10.00" fill="#000000">Supriya</text>
<text text-anchor="middle" x="114" y="-23" font-family="Arial" font-size="10.00" fill="#000000">Object</text>
</a>
</g>
</g>
<!-- supriya.time.TimespanCollection.TimespanCollection -->
<g id="node3" class="node">
<title>supriya.time.TimespanCollection.TimespanCollection</title>
<g id="a_node3"><a xlink:href="../api/supriya/time/TimespanCollection.html#supriya.time.TimespanCollection.TimespanCollection" xlink:title="Timespan\nCollection" target="_top">
<path fill="#000000" stroke="#000000" stroke-width="2" d="M215,-46C215,-46 186,-46 186,-46 181,-46 176,-41 176,-36 176,-36 176,-26 176,-26 176,-21 181,-16 186,-16 186,-16 215,-16 215,-16 220,-16 225,-21 225,-26 225,-26 225,-36 225,-36 225,-41 220,-46 215,-46"/>
<text text-anchor="middle" x="200.5" y="-34" font-family="Arial" font-size="10.00" fill="#ffffff">Timespan</text>
<text text-anchor="middle" x="200.5" y="-23" font-family="Arial" font-size="10.00" fill="#ffffff">Collection</text>
</a>
</g>
</g>
</g>
</svg>
