<?xml version="1.0" encoding="UTF-8" standalone="no"?>
<!DOCTYPE svg PUBLIC "-//W3C//DTD SVG 1.1//EN"
 "http://www.w3.org/Graphics/SVG/1.1/DTD/svg11.dtd">
<!-- Generated by graphviz version 2.40.1 (20161225.0304)
 -->
<!-- Title: InheritanceGraph Pages: 1 -->
<svg width="809pt" height="337pt"
 viewBox="0.00 0.00 808.97 337.00" xmlns="http://www.w3.org/2000/svg" xmlns:xlink="http://www.w3.org/1999/xlink">
<g id="graph0" class="graph" transform="scale(1 1) rotate(0) translate(4 333)">
<title>InheritanceGraph</title>
<g id="clust1" class="cluster">
<title>cluster_abc</title>
<path fill="transparent" stroke="#bcd2ee" stroke-width="2" stroke-dasharray="5,2" d="M148.6482,-105C148.6482,-105 172.6482,-105 172.6482,-105 178.6482,-105 184.6482,-111 184.6482,-117 184.6482,-117 184.6482,-148 184.6482,-148 184.6482,-154 178.6482,-160 172.6482,-160 172.6482,-160 148.6482,-160 148.6482,-160 142.6482,-160 136.6482,-154 136.6482,-148 136.6482,-148 136.6482,-117 136.6482,-117 136.6482,-111 142.6482,-105 148.6482,-105"/>
<text text-anchor="middle" x="160.6482" y="-148" font-family="Arial" font-size="10.00" fill="#000000">abc</text>
</g>
<g id="clust2" class="cluster">
<title>cluster_builtins</title>
<path fill="transparent" stroke="#bcd2ee" stroke-width="2" stroke-dasharray="5,2" d="M20,-173C20,-173 49,-173 49,-173 55,-173 61,-179 61,-185 61,-185 61,-216 61,-216 61,-222 55,-228 49,-228 49,-228 20,-228 20,-228 14,-228 8,-222 8,-216 8,-216 8,-185 8,-185 8,-179 14,-173 20,-173"/>
<text text-anchor="middle" x="34.5" y="-216" font-family="Arial" font-size="10.00" fill="#000000">builtins</text>
</g>
<g id="clust3" class="cluster">
<title>cluster_collections.abc</title>
<path fill="transparent" stroke="#bcd2ee" stroke-width="2" stroke-dasharray="5,2" d="M130,-170C130,-170 410.3747,-170 410.3747,-170 416.3747,-170 422.3747,-176 422.3747,-182 422.3747,-182 422.3747,-309 422.3747,-309 422.3747,-315 416.3747,-321 410.3747,-321 410.3747,-321 130,-321 130,-321 124,-321 118,-315 118,-309 118,-309 118,-182 118,-182 118,-176 124,-170 130,-170"/>
<text text-anchor="middle" x="270.1873" y="-309" font-family="Arial" font-size="10.00" fill="#000000">collections.abc</text>
</g>
<g id="clust4" class="cluster">
<title>cluster_supriya.cli</title>
<path fill="transparent" stroke="#bcd2ee" stroke-width="2" stroke-dasharray="5,2" d="M468.5168,-8C468.5168,-8 780.9676,-8 780.9676,-8 786.9676,-8 792.9676,-14 792.9676,-20 792.9676,-20 792.9676,-239 792.9676,-239 792.9676,-245 786.9676,-251 780.9676,-251 780.9676,-251 468.5168,-251 468.5168,-251 462.5168,-251 456.5168,-245 456.5168,-239 456.5168,-239 456.5168,-20 456.5168,-20 456.5168,-14 462.5168,-8 468.5168,-8"/>
<text text-anchor="middle" x="624.7422" y="-239" font-family="Arial" font-size="10.00" fill="#000000">supriya.cli</text>
</g>
<g id="clust5" class="cluster">
<title>cluster_uqbar.cli</title>
<path fill="transparent" stroke="#bcd2ee" stroke-width="2" stroke-dasharray="5,2" d="M250.1457,-101C250.1457,-101 424.5168,-101 424.5168,-101 430.5168,-101 436.5168,-107 436.5168,-113 436.5168,-113 436.5168,-150 436.5168,-150 436.5168,-156 430.5168,-162 424.5168,-162 424.5168,-162 250.1457,-162 250.1457,-162 244.1457,-162 238.1457,-156 238.1457,-150 238.1457,-150 238.1457,-113 238.1457,-113 238.1457,-107 244.1457,-101 250.1457,-101"/>
<text text-anchor="middle" x="337.3313" y="-150" font-family="Arial" font-size="10.00" fill="#000000">uqbar.cli</text>
</g>
<!-- abc.ABC&#45;&gt;uqbar.cli.CLI.CLI -->
<g id="edge12" class="edge">
<title>abc.ABC&#45;&gt;uqbar.cli.CLI.CLI</title>
<path fill="none" stroke="#778899" d="M177.1008,-122.8438C192.8155,-122.6945 216.869,-122.4661 235.9867,-122.2845"/>
<polygon fill="#778899" stroke="#778899" points="236.0492,-125.7842 246.0154,-122.1893 235.9826,-118.7845 236.0492,-125.7842"/>
</g>
<!-- builtins.object&#45;&gt;abc.ABC -->
<g id="edge13" class="edge">
<title>builtins.object&#45;&gt;abc.ABC</title>
<path fill="none" stroke="#778899" d="M52.3064,-181.4015C74.0108,-169.7018 110.83,-149.8545 135.4394,-136.5888"/>
<polygon fill="#778899" stroke="#778899" points="137.3885,-139.5143 144.5303,-131.6883 134.067,-133.3525 137.3885,-139.5143"/>
</g>
<!-- builtins.object&#45;&gt;collections.abc.Container -->
<g id="edge14" class="edge">
<title>builtins.object&#45;&gt;collections.abc.Container</title>
<path fill="none" stroke="#778899" d="M45.0921,-200.5489C60.495,-214.1851 90.27,-239.6177 118,-258 121.8104,-260.5259 125.9249,-263.0159 130.0426,-265.3713"/>
<polygon fill="#778899" stroke="#778899" points="128.4977,-268.5161 138.9456,-270.2746 131.8747,-262.3846 128.4977,-268.5161"/>
</g>
<!-- builtins.object&#45;&gt;collections.abc.Iterable -->
<g id="edge15" class="edge">
<title>builtins.object&#45;&gt;collections.abc.Iterable</title>
<path fill="none" stroke="#778899" d="M53.1136,-197.6399C72.6634,-204.6138 103.8076,-215.7236 127.559,-224.1963"/>
<polygon fill="#778899" stroke="#778899" points="126.6355,-227.5829 137.2302,-227.6462 128.9875,-220.9898 126.6355,-227.5829"/>
</g>
<!-- builtins.object&#45;&gt;collections.abc.Sized -->
<g id="edge16" class="edge">
<title>builtins.object&#45;&gt;collections.abc.Sized</title>
<path fill="none" stroke="#778899" d="M53.1136,-191C72.1322,-191 102.1239,-191 125.6071,-191"/>
<polygon fill="#778899" stroke="#778899" points="125.8759,-194.5001 135.8759,-191 125.8759,-187.5001 125.8759,-194.5001"/>
</g>
<!-- builtins.object&#45;&gt;supriya.cli.ProjectManager.ProjectManager -->
<g id="edge17" class="edge">
<title>builtins.object&#45;&gt;supriya.cli.ProjectManager.ProjectManager</title>
<path fill="none" stroke="#778899" d="M37.1694,-181.3666C47.1573,-147.6523 85.6509,-37 160.6482,-37 160.6482,-37 160.6482,-37 265.9447,-37 336.3555,-37 418.7929,-34.1822 463.7063,-32.4087"/>
<polygon fill="#778899" stroke="#778899" points="463.908,-35.9035 473.7592,-32.0043 463.6266,-28.9092 463.908,-35.9035"/>
</g>
<!-- collections.abc.Collection&#45;&gt;collections.abc.Mapping -->
<g id="edge1" class="edge">
<title>collections.abc.Collection&#45;&gt;collections.abc.Mapping</title>
<path fill="none" stroke="#778899" d="M300.3009,-226.9376C312.9174,-226.1803 327.3448,-225.3142 340.5572,-224.5211"/>
<polygon fill="#778899" stroke="#778899" points="341.0628,-227.9971 350.835,-223.9041 340.6432,-221.0097 341.0628,-227.9971"/>
</g>
<!-- collections.abc.Mapping&#45;&gt;supriya.cli.ProjectSettings.ProjectSettings -->
<g id="edge18" class="edge">
<title>collections.abc.Mapping&#45;&gt;supriya.cli.ProjectSettings.ProjectSettings</title>
<path fill="none" stroke="#778899" d="M413.5372,-218.482C429.3998,-216.6808 448.6972,-214.4897 464.7438,-212.6676"/>
<polygon fill="#778899" stroke="#778899" points="465.2093,-216.1373 474.7505,-211.5314 464.4194,-209.182 465.2093,-216.1373"/>
</g>
<!-- collections.abc.Container&#45;&gt;collections.abc.Collection -->
<g id="edge2" class="edge">
<title>collections.abc.Container&#45;&gt;collections.abc.Collection</title>
<path fill="none" stroke="#778899" d="M182.2106,-270.3515C197.5421,-262.7802 218.353,-252.5029 235.3919,-244.0883"/>
<polygon fill="#778899" stroke="#778899" points="236.9947,-247.2004 244.4111,-239.6342 233.8951,-240.924 236.9947,-247.2004"/>
</g>
<!-- collections.abc.Iterable&#45;&gt;collections.abc.Collection -->
<g id="edge3" class="edge">
<title>collections.abc.Iterable&#45;&gt;collections.abc.Collection</title>
<path fill="none" stroke="#778899" d="M190.2594,-234.0315C200.0318,-233.3818 211.1233,-232.6445 221.7439,-231.9384"/>
<polygon fill="#778899" stroke="#778899" points="221.9781,-235.4307 231.7239,-231.275 221.5137,-228.4461 221.9781,-235.4307"/>
</g>
<!-- collections.abc.Sized&#45;&gt;collections.abc.Collection -->
<g id="edge4" class="edge">
<title>collections.abc.Sized&#45;&gt;collections.abc.Collection</title>
<path fill="none" stroke="#778899" d="M181.4514,-198.5076C195.4481,-203.5588 214.2546,-210.3458 230.5715,-216.2343"/>
<polygon fill="#778899" stroke="#778899" points="229.7497,-219.6586 240.3441,-219.7611 232.126,-213.0743 229.7497,-219.6586"/>
</g>
<!-- supriya.cli.ProjectPackageScript.ProjectPackageScript&#45;&gt;supriya.cli.ManageAssetScript.ManageAssetScript -->
<g id="edge5" class="edge">
<title>supriya.cli.ProjectPackageScript.ProjectPackageScript&#45;&gt;supriya.cli.ManageAssetScript.ManageAssetScript</title>
<path fill="none" stroke="#778899" d="M524.6664,-77.2519C536.9948,-70.2232 551.5736,-61.9116 564.2729,-54.6715"/>
<polygon fill="#778899" stroke="#778899" points="566.175,-57.616 573.1288,-49.6226 562.708,-51.5349 566.175,-57.616"/>
</g>
<!-- supriya.cli.ProjectPackageScript.ProjectPackageScript&#45;&gt;supriya.cli.ManageProjectScript.ManageProjectScript -->
<g id="edge6" class="edge">
<title>supriya.cli.ProjectPackageScript.ProjectPackageScript&#45;&gt;supriya.cli.ManageProjectScript.ManageProjectScript</title>
<path fill="none" stroke="#778899" d="M529.4611,-90.1458C540.8743,-89.1452 553.7914,-88.0174 565.5706,-87 594.3772,-84.512 627.1637,-81.7228 650.7528,-79.7235"/>
<polygon fill="#778899" stroke="#778899" points="651.2275,-83.1959 660.8964,-78.8644 650.6367,-76.2209 651.2275,-83.1959"/>
</g>
<!-- supriya.cli.ProjectPackageScript.ProjectPackageScript&#45;&gt;supriya.cli.ManageSynthDefScript.ManageSynthDefScript -->
<g id="edge7" class="edge">
<title>supriya.cli.ProjectPackageScript.ProjectPackageScript&#45;&gt;supriya.cli.ManageSynthDefScript.ManageSynthDefScript</title>
<path fill="none" stroke="#778899" d="M528.1229,-102.1758C539.3112,-105.479 551.9495,-109.2103 563.219,-112.5375"/>
<polygon fill="#778899" stroke="#778899" points="562.5211,-115.9808 573.1029,-115.4557 564.5033,-109.2673 562.5211,-115.9808"/>
</g>
<!-- supriya.cli.ProjectPackageScript.ProjectPackageScript&#45;&gt;supriya.cli.ProjectSectionScript.ProjectSectionScript -->
<g id="edge8" class="edge">
<title>supriya.cli.ProjectPackageScript.ProjectPackageScript&#45;&gt;supriya.cli.ProjectSectionScript.ProjectSectionScript</title>
<path fill="none" stroke="#778899" d="M518.3572,-115.1325C532.7099,-130.0368 551.7857,-149.8456 567.3486,-166.0066"/>
<polygon fill="#778899" stroke="#778899" points="565.2127,-168.8344 574.6704,-173.6097 570.2549,-163.9788 565.2127,-168.8344"/>
</g>
<!-- supriya.cli.ProjectSectionScript.ProjectSectionScript&#45;&gt;supriya.cli.ManageMaterialScript.ManageMaterialScript -->
<g id="edge9" class="edge">
<title>supriya.cli.ProjectSectionScript.ProjectSectionScript&#45;&gt;supriya.cli.ManageMaterialScript.ManageMaterialScript</title>
<path fill="none" stroke="#778899" d="M624.9598,-196.3542C633.2055,-196.7303 642.1994,-197.1405 650.5905,-197.5233"/>
<polygon fill="#778899" stroke="#778899" points="650.646,-201.0293 660.7951,-197.9887 650.965,-194.0366 650.646,-201.0293"/>
</g>
<!-- supriya.cli.ProjectSectionScript.ProjectSectionScript&#45;&gt;supriya.cli.ManageSessionScript.ManageSessionScript -->
<g id="edge10" class="edge">
<title>supriya.cli.ProjectSectionScript.ProjectSectionScript&#45;&gt;supriya.cli.ManageSessionScript.ManageSessionScript</title>
<path fill="none" stroke="#778899" d="M622.5837,-182.8077C634.2021,-178.097 648.0326,-173.104 660.9676,-170 683.8697,-164.5042 710.3271,-161.751 730.5563,-160.3735"/>
<polygon fill="#778899" stroke="#778899" points="731.0316,-163.8513 740.803,-159.7562 730.6106,-156.864 731.0316,-163.8513"/>
</g>
<!-- uqbar.cli.CLI.CLI&#45;&gt;supriya.cli.ProjectPackageScript.ProjectPackageScript -->
<g id="edge19" class="edge">
<title>uqbar.cli.CLI.CLI&#45;&gt;supriya.cli.ProjectPackageScript.ProjectPackageScript</title>
<path fill="none" stroke="#778899" d="M283.3439,-115.1966C297.4567,-110.018 317.99,-103.2459 336.5929,-100 376.1253,-93.1024 421.9212,-91.748 454.4429,-91.8841"/>
<polygon fill="#778899" stroke="#778899" points="454.4792,-95.3845 464.5106,-91.9755 454.5429,-88.3848 454.4792,-95.3845"/>
</g>
<!-- uqbar.cli.CLI.CLI&#45;&gt;uqbar.cli.CLIAggregator.CLIAggregator -->
<g id="edge11" class="edge">
<title>uqbar.cli.CLI.CLI&#45;&gt;uqbar.cli.CLIAggregator.CLIAggregator</title>
<path fill="none" stroke="#778899" d="M285.9907,-122C297.0995,-122 311.5258,-122 325.8256,-122"/>
<polygon fill="#778899" stroke="#778899" points="326.1665,-125.5001 336.1664,-122 326.1664,-118.5001 326.1665,-125.5001"/>
</g>
<!-- uqbar.cli.CLIAggregator.CLIAggregator&#45;&gt;supriya.cli.SupriyaScript.SupriyaScript -->
<g id="edge20" class="edge">
<title>uqbar.cli.CLIAggregator.CLIAggregator&#45;&gt;supriya.cli.SupriyaScript.SupriyaScript</title>
<path fill="none" stroke="#778899" d="M415.3628,-131.4565C431.2986,-136.0498 450.3448,-141.5396 466.0354,-146.0622"/>
<polygon fill="#778899" stroke="#778899" points="465.2171,-149.4688 475.7953,-148.8754 467.1559,-142.7426 465.2171,-149.4688"/>
</g>
<!-- abc.ABC -->
<g id="node1" class="node">
<title>abc.ABC</title>
<g id="a_node1"><a xlink:href="https://docs.python.org/3.6/library/abc.html#abc.ABC" xlink:title="ABC" target="_top">
<path fill="#fbb4ae" stroke="#fbb4ae" stroke-width="2" d="M170.3149,-132.5C170.3149,-132.5 150.9816,-132.5 150.9816,-132.5 147.8149,-132.5 144.6482,-129.3333 144.6482,-126.1667 144.6482,-126.1667 144.6482,-119.8333 144.6482,-119.8333 144.6482,-116.6667 147.8149,-113.5 150.9816,-113.5 150.9816,-113.5 170.3149,-113.5 170.3149,-113.5 173.4816,-113.5 176.6482,-116.6667 176.6482,-119.8333 176.6482,-119.8333 176.6482,-126.1667 176.6482,-126.1667 176.6482,-129.3333 173.4816,-132.5 170.3149,-132.5"/>
<text text-anchor="middle" x="160.6482" y="-120.5" font-family="Arial" font-size="10.00" fill="#000000">ABC</text>
</a>
</g>
</g>
<!-- builtins.object -->
<g id="node2" class="node">
<title>builtins.object</title>
<g id="a_node2"><a xlink:href="https://docs.python.org/3.6/library/functions.html#object" xlink:title="object" target="_top">
<path fill="#b3cde3" stroke="#b3cde3" stroke-width="2" d="M46.6667,-200.5C46.6667,-200.5 22.3333,-200.5 22.3333,-200.5 19.1667,-200.5 16,-197.3333 16,-194.1667 16,-194.1667 16,-187.8333 16,-187.8333 16,-184.6667 19.1667,-181.5 22.3333,-181.5 22.3333,-181.5 46.6667,-181.5 46.6667,-181.5 49.8333,-181.5 53,-184.6667 53,-187.8333 53,-187.8333 53,-194.1667 53,-194.1667 53,-197.3333 49.8333,-200.5 46.6667,-200.5"/>
<text text-anchor="middle" x="34.5" y="-188.5" font-family="Arial" font-size="10.00" fill="#000000">object</text>
</a>
</g>
</g>
<!-- collections.abc.Collection -->
<g id="node3" class="node">
<title>collections.abc.Collection</title>
<g id="a_node3"><a xlink:href="https://docs.python.org/3.6/library/collections.abc.html#collections.abc.Collection" xlink:title="Collection" target="_top">
<ellipse fill="none" stroke="#ccebc5" stroke-width="2" cx="265.9447" cy="-229" rx="34.7971" ry="13.3704"/>
<text text-anchor="middle" x="265.9447" y="-226.5" font-family="Arial" font-size="10.00" fill="#000000">Collection</text>
</a>
</g>
</g>
<!-- collections.abc.Mapping -->
<g id="node4" class="node">
<title>collections.abc.Mapping</title>
<g id="a_node4"><a xlink:href="https://docs.python.org/3.6/library/collections.abc.html#collections.abc.Mapping" xlink:title="Mapping" target="_top">
<ellipse fill="none" stroke="#ccebc5" stroke-width="2" cx="382.5549" cy="-222" rx="31.6406" ry="13.3704"/>
<text text-anchor="middle" x="382.5549" y="-219.5" font-family="Arial" font-size="10.00" fill="#000000">Mapping</text>
</a>
</g>
</g>
<!-- collections.abc.Container -->
<g id="node5" class="node">
<title>collections.abc.Container</title>
<g id="a_node5"><a xlink:href="https://docs.python.org/3.6/library/collections.abc.html#collections.abc.Container" xlink:title="Container" target="_top">
<ellipse fill="none" stroke="#ccebc5" stroke-width="2" cx="160.6482" cy="-281" rx="34.7971" ry="13.3704"/>
<text text-anchor="middle" x="160.6482" y="-278.5" font-family="Arial" font-size="10.00" fill="#000000">Container</text>
</a>
</g>
</g>
<!-- collections.abc.Iterable -->
<g id="node6" class="node">
<title>collections.abc.Iterable</title>
<g id="a_node6"><a xlink:href="https://docs.python.org/3.6/library/collections.abc.html#collections.abc.Iterable" xlink:title="Iterable" target="_top">
<ellipse fill="none" stroke="#ccebc5" stroke-width="2" cx="160.6482" cy="-236" rx="29.8983" ry="13.3704"/>
<text text-anchor="middle" x="160.6482" y="-233.5" font-family="Arial" font-size="10.00" fill="#000000">Iterable</text>
</a>
</g>
</g>
<!-- collections.abc.Sized -->
<g id="node7" class="node">
<title>collections.abc.Sized</title>
<g id="a_node7"><a xlink:href="https://docs.python.org/3.6/library/collections.abc.html#collections.abc.Sized" xlink:title="Sized" target="_top">
<ellipse fill="none" stroke="#ccebc5" stroke-width="2" cx="160.6482" cy="-191" rx="25" ry="13.3704"/>
<text text-anchor="middle" x="160.6482" y="-188.5" font-family="Arial" font-size="10.00" fill="#000000">Sized</text>
</a>
</g>
</g>
<!-- supriya.cli.ManageAssetScript.ManageAssetScript -->
<g id="node8" class="node">
<title>supriya.cli.ManageAssetScript.ManageAssetScript</title>
<g id="a_node8"><a xlink:href="../api/supriya/cli/ManageAssetScript.html#supriya.cli.ManageAssetScript.ManageAssetScript" xlink:title="Manage\nAsset\nScript" target="_top">
<path fill="#000000" stroke="#000000" stroke-width="2" d="M605.2691,-57.5C605.2691,-57.5 585.2691,-57.5 585.2691,-57.5 579.2691,-57.5 573.2691,-51.5 573.2691,-45.5 573.2691,-45.5 573.2691,-28.5 573.2691,-28.5 573.2691,-22.5 579.2691,-16.5 585.2691,-16.5 585.2691,-16.5 605.2691,-16.5 605.2691,-16.5 611.2691,-16.5 617.2691,-22.5 617.2691,-28.5 617.2691,-28.5 617.2691,-45.5 617.2691,-45.5 617.2691,-51.5 611.2691,-57.5 605.2691,-57.5"/>
<text text-anchor="middle" x="595.2691" y="-45.5" font-family="Arial" font-size="10.00" fill="#ffffff">Manage</text>
<text text-anchor="middle" x="595.2691" y="-34.5" font-family="Arial" font-size="10.00" fill="#ffffff">Asset</text>
<text text-anchor="middle" x="595.2691" y="-23.5" font-family="Arial" font-size="10.00" fill="#ffffff">Script</text>
</a>
</g>
</g>
<!-- supriya.cli.ManageMaterialScript.ManageMaterialScript -->
<g id="node9" class="node">
<title>supriya.cli.ManageMaterialScript.ManageMaterialScript</title>
<g id="a_node9"><a xlink:href="../api/supriya/cli/ManageMaterialScript.html#supriya.cli.ManageMaterialScript.ManageMaterialScript" xlink:title="Manage\nMaterial\nScript" target="_top">
<path fill="#000000" stroke="#000000" stroke-width="2" d="M692.9676,-219.5C692.9676,-219.5 672.9676,-219.5 672.9676,-219.5 666.9676,-219.5 660.9676,-213.5 660.9676,-207.5 660.9676,-207.5 660.9676,-190.5 660.9676,-190.5 660.9676,-184.5 666.9676,-178.5 672.9676,-178.5 672.9676,-178.5 692.9676,-178.5 692.9676,-178.5 698.9676,-178.5 704.9676,-184.5 704.9676,-190.5 704.9676,-190.5 704.9676,-207.5 704.9676,-207.5 704.9676,-213.5 698.9676,-219.5 692.9676,-219.5"/>
<text text-anchor="middle" x="682.9676" y="-207.5" font-family="Arial" font-size="10.00" fill="#ffffff">Manage</text>
<text text-anchor="middle" x="682.9676" y="-196.5" font-family="Arial" font-size="10.00" fill="#ffffff">Material</text>
<text text-anchor="middle" x="682.9676" y="-185.5" font-family="Arial" font-size="10.00" fill="#ffffff">Script</text>
</a>
</g>
</g>
<!-- supriya.cli.ManageProjectScript.ManageProjectScript -->
<g id="node10" class="node">
<title>supriya.cli.ManageProjectScript.ManageProjectScript</title>
<g id="a_node10"><a xlink:href="../api/supriya/cli/ManageProjectScript.html#supriya.cli.ManageProjectScript.ManageProjectScript" xlink:title="Manage\nProject\nScript" target="_top">
<path fill="#000000" stroke="#000000" stroke-width="2" d="M692.9676,-97.5C692.9676,-97.5 672.9676,-97.5 672.9676,-97.5 666.9676,-97.5 660.9676,-91.5 660.9676,-85.5 660.9676,-85.5 660.9676,-68.5 660.9676,-68.5 660.9676,-62.5 666.9676,-56.5 672.9676,-56.5 672.9676,-56.5 692.9676,-56.5 692.9676,-56.5 698.9676,-56.5 704.9676,-62.5 704.9676,-68.5 704.9676,-68.5 704.9676,-85.5 704.9676,-85.5 704.9676,-91.5 698.9676,-97.5 692.9676,-97.5"/>
<text text-anchor="middle" x="682.9676" y="-85.5" font-family="Arial" font-size="10.00" fill="#ffffff">Manage</text>
<text text-anchor="middle" x="682.9676" y="-74.5" font-family="Arial" font-size="10.00" fill="#ffffff">Project</text>
<text text-anchor="middle" x="682.9676" y="-63.5" font-family="Arial" font-size="10.00" fill="#ffffff">Script</text>
</a>
</g>
</g>
<!-- supriya.cli.ManageSessionScript.ManageSessionScript -->
<g id="node11" class="node">
<title>supriya.cli.ManageSessionScript.ManageSessionScript</title>
<g id="a_node11"><a xlink:href="../api/supriya/cli/ManageSessionScript.html#supriya.cli.ManageSessionScript.ManageSessionScript" xlink:title="Manage\nSession\nScript" target="_top">
<path fill="#000000" stroke="#000000" stroke-width="2" d="M772.9676,-179.5C772.9676,-179.5 752.9676,-179.5 752.9676,-179.5 746.9676,-179.5 740.9676,-173.5 740.9676,-167.5 740.9676,-167.5 740.9676,-150.5 740.9676,-150.5 740.9676,-144.5 746.9676,-138.5 752.9676,-138.5 752.9676,-138.5 772.9676,-138.5 772.9676,-138.5 778.9676,-138.5 784.9676,-144.5 784.9676,-150.5 784.9676,-150.5 784.9676,-167.5 784.9676,-167.5 784.9676,-173.5 778.9676,-179.5 772.9676,-179.5"/>
<text text-anchor="middle" x="762.9676" y="-167.5" font-family="Arial" font-size="10.00" fill="#ffffff">Manage</text>
<text text-anchor="middle" x="762.9676" y="-156.5" font-family="Arial" font-size="10.00" fill="#ffffff">Session</text>
<text text-anchor="middle" x="762.9676" y="-145.5" font-family="Arial" font-size="10.00" fill="#ffffff">Script</text>
</a>
</g>
</g>
<!-- supriya.cli.ManageSynthDefScript.ManageSynthDefScript -->
<g id="node12" class="node">
<title>supriya.cli.ManageSynthDefScript.ManageSynthDefScript</title>
<g id="a_node12"><a xlink:href="../api/supriya/cli/ManageSynthDefScript.html#supriya.cli.ManageSynthDefScript.ManageSynthDefScript" xlink:title="Manage\nSynth\nDef\nScript" target="_top">
<path fill="#000000" stroke="#000000" stroke-width="2" d="M605.2691,-148C605.2691,-148 585.2691,-148 585.2691,-148 579.2691,-148 573.2691,-142 573.2691,-136 573.2691,-136 573.2691,-108 573.2691,-108 573.2691,-102 579.2691,-96 585.2691,-96 585.2691,-96 605.2691,-96 605.2691,-96 611.2691,-96 617.2691,-102 617.2691,-108 617.2691,-108 617.2691,-136 617.2691,-136 617.2691,-142 611.2691,-148 605.2691,-148"/>
<text text-anchor="middle" x="595.2691" y="-136" font-family="Arial" font-size="10.00" fill="#ffffff">Manage</text>
<text text-anchor="middle" x="595.2691" y="-125" font-family="Arial" font-size="10.00" fill="#ffffff">Synth</text>
<text text-anchor="middle" x="595.2691" y="-114" font-family="Arial" font-size="10.00" fill="#ffffff">Def</text>
<text text-anchor="middle" x="595.2691" y="-103" font-family="Arial" font-size="10.00" fill="#ffffff">Script</text>
</a>
</g>
</g>
<!-- supriya.cli.ProjectManager.ProjectManager -->
<g id="node13" class="node">
<title>supriya.cli.ProjectManager.ProjectManager</title>
<g id="a_node13"><a xlink:href="../api/supriya/cli/ProjectManager.html#supriya.cli.ProjectManager.ProjectManager" xlink:title="Project\nManager" target="_top">
<path fill="#000000" stroke="#000000" stroke-width="2" d="M510.0437,-46C510.0437,-46 484.0437,-46 484.0437,-46 479.0437,-46 474.0437,-41 474.0437,-36 474.0437,-36 474.0437,-26 474.0437,-26 474.0437,-21 479.0437,-16 484.0437,-16 484.0437,-16 510.0437,-16 510.0437,-16 515.0437,-16 520.0437,-21 520.0437,-26 520.0437,-26 520.0437,-36 520.0437,-36 520.0437,-41 515.0437,-46 510.0437,-46"/>
<text text-anchor="middle" x="497.0437" y="-34" font-family="Arial" font-size="10.00" fill="#ffffff">Project</text>
<text text-anchor="middle" x="497.0437" y="-23" font-family="Arial" font-size="10.00" fill="#ffffff">Manager</text>
</a>
</g>
</g>
<!-- supriya.cli.ProjectPackageScript.ProjectPackageScript -->
<g id="node14" class="node">
<title>supriya.cli.ProjectPackageScript.ProjectPackageScript</title>
<g id="a_node14"><a xlink:href="../api/supriya/cli/ProjectPackageScript.html#supriya.cli.ProjectPackageScript.ProjectPackageScript" xlink:title="Project\nPackage\nScript" target="_top">
<ellipse fill="#000000" stroke="#000000" stroke-width="2" cx="497.0437" cy="-93" rx="32.5538" ry="28.9828"/>
<text text-anchor="middle" x="497.0437" y="-101.5" font-family="Arial" font-size="10.00" fill="#ffffff">Project</text>
<text text-anchor="middle" x="497.0437" y="-90.5" font-family="Arial" font-size="10.00" fill="#ffffff">Package</text>
<text text-anchor="middle" x="497.0437" y="-79.5" font-family="Arial" font-size="10.00" fill="#ffffff">Script</text>
</a>
</g>
</g>
<!-- supriya.cli.ProjectSectionScript.ProjectSectionScript -->
<g id="node15" class="node">
<title>supriya.cli.ProjectSectionScript.ProjectSectionScript</title>
<g id="a_node15"><a xlink:href="../api/supriya/cli/ProjectSectionScript.html#supriya.cli.ProjectSectionScript.ProjectSectionScript" xlink:title="Project\nSection\nScript" target="_top">
<ellipse fill="#000000" stroke="#000000" stroke-width="2" cx="595.2691" cy="-195" rx="29.8983" ry="28.9828"/>
<text text-anchor="middle" x="595.2691" y="-203.5" font-family="Arial" font-size="10.00" fill="#ffffff">Project</text>
<text text-anchor="middle" x="595.2691" y="-192.5" font-family="Arial" font-size="10.00" fill="#ffffff">Section</text>
<text text-anchor="middle" x="595.2691" y="-181.5" font-family="Arial" font-size="10.00" fill="#ffffff">Script</text>
</a>
</g>
</g>
<!-- supriya.cli.ProjectSettings.ProjectSettings -->
<g id="node16" class="node">
<title>supriya.cli.ProjectSettings.ProjectSettings</title>
<g id="a_node16"><a xlink:href="../api/supriya/cli/ProjectSettings.html#supriya.cli.ProjectSettings.ProjectSettings" xlink:title="Project\nSettings" target="_top">
<path fill="#000000" stroke="#000000" stroke-width="2" d="M509.0437,-224C509.0437,-224 485.0437,-224 485.0437,-224 480.0437,-224 475.0437,-219 475.0437,-214 475.0437,-214 475.0437,-204 475.0437,-204 475.0437,-199 480.0437,-194 485.0437,-194 485.0437,-194 509.0437,-194 509.0437,-194 514.0437,-194 519.0437,-199 519.0437,-204 519.0437,-204 519.0437,-214 519.0437,-214 519.0437,-219 514.0437,-224 509.0437,-224"/>
<text text-anchor="middle" x="497.0437" y="-212" font-family="Arial" font-size="10.00" fill="#ffffff">Project</text>
<text text-anchor="middle" x="497.0437" y="-201" font-family="Arial" font-size="10.00" fill="#ffffff">Settings</text>
</a>
</g>
</g>
<!-- supriya.cli.SupriyaScript.SupriyaScript -->
<g id="node17" class="node">
<title>supriya.cli.SupriyaScript.SupriyaScript</title>
<g id="a_node17"><a xlink:href="../api/supriya/cli/SupriyaScript.html#supriya.cli.SupriyaScript.SupriyaScript" xlink:title="Supriya\nScript" target="_top">
<path fill="#000000" stroke="#000000" stroke-width="2" d="M508.0437,-170C508.0437,-170 486.0437,-170 486.0437,-170 481.0437,-170 476.0437,-165 476.0437,-160 476.0437,-160 476.0437,-150 476.0437,-150 476.0437,-145 481.0437,-140 486.0437,-140 486.0437,-140 508.0437,-140 508.0437,-140 513.0437,-140 518.0437,-145 518.0437,-150 518.0437,-150 518.0437,-160 518.0437,-160 518.0437,-165 513.0437,-170 508.0437,-170"/>
<text text-anchor="middle" x="497.0437" y="-158" font-family="Arial" font-size="10.00" fill="#ffffff">Supriya</text>
<text text-anchor="middle" x="497.0437" y="-147" font-family="Arial" font-size="10.00" fill="#ffffff">Script</text>
</a>
</g>
</g>
<!-- uqbar.cli.CLI.CLI -->
<g id="node18" class="node">
<title>uqbar.cli.CLI.CLI</title>
<ellipse fill="none" stroke="#fed9a6" stroke-width="2" cx="265.9447" cy="-122" rx="19.6" ry="13.3704"/>
<text text-anchor="middle" x="265.9447" y="-119.5" font-family="Arial" font-size="10.00" fill="#000000">CLI</text>
</g>
<!-- uqbar.cli.CLIAggregator.CLIAggregator -->
<g id="node19" class="node">
<title>uqbar.cli.CLIAggregator.CLIAggregator</title>
<ellipse fill="none" stroke="#fed9a6" stroke-width="2" cx="382.5549" cy="-122" rx="45.9239" ry="13.3704"/>
<text text-anchor="middle" x="382.5549" y="-119.5" font-family="Arial" font-size="10.00" fill="#000000">CLIAggregator</text>
</g>
</g>
</svg>
