<?xml version="1.0" encoding="UTF-8" standalone="no"?>
<!DOCTYPE svg PUBLIC "-//W3C//DTD SVG 1.1//EN"
 "http://www.w3.org/Graphics/SVG/1.1/DTD/svg11.dtd">
<!-- Generated by graphviz version 2.40.1 (20161225.0304)
 -->
<!-- Title: InheritanceGraph Pages: 1 -->
<svg width="347pt" height="137pt"
 viewBox="0.00 0.00 347.05 137.00" xmlns="http://www.w3.org/2000/svg" xmlns:xlink="http://www.w3.org/1999/xlink">
<g id="graph0" class="graph" transform="scale(1 1) rotate(0) translate(4 133)">
<title>InheritanceGraph</title>
<g id="clust1" class="cluster">
<title>cluster_builtins</title>
<path fill="transparent" stroke="#bcd2ee" stroke-width="2" stroke-dasharray="5,2" d="M20,-37C20,-37 49,-37 49,-37 55,-37 61,-43 61,-49 61,-49 61,-80 61,-80 61,-86 55,-92 49,-92 49,-92 20,-92 20,-92 14,-92 8,-86 8,-80 8,-80 8,-49 8,-49 8,-43 14,-37 20,-37"/>
<text text-anchor="middle" x="34.5" y="-80" font-family="Arial" font-size="10.00" fill="#000000">builtins</text>
</g>
<g id="clust2" class="cluster">
<title>cluster_supriya.realtime</title>
<path fill="transparent" stroke="#bcd2ee" stroke-width="2" stroke-dasharray="5,2" d="M180,-8C180,-8 319.0538,-8 319.0538,-8 325.0538,-8 331.0538,-14 331.0538,-20 331.0538,-20 331.0538,-109 331.0538,-109 331.0538,-115 325.0538,-121 319.0538,-121 319.0538,-121 180,-121 180,-121 174,-121 168,-115 168,-109 168,-109 168,-20 168,-20 168,-14 174,-8 180,-8"/>
<text text-anchor="middle" x="249.5269" y="-109" font-family="Arial" font-size="10.00" fill="#000000">supriya.realtime</text>
</g>
<g id="clust3" class="cluster">
<title>cluster_supriya.system</title>
<path fill="transparent" stroke="#bcd2ee" stroke-width="2" stroke-dasharray="5,2" d="M93,-32C93,-32 136,-32 136,-32 142,-32 148,-38 148,-44 148,-44 148,-85 148,-85 148,-91 142,-97 136,-97 136,-97 93,-97 93,-97 87,-97 81,-91 81,-85 81,-85 81,-44 81,-44 81,-38 87,-32 93,-32"/>
<text text-anchor="middle" x="114.5" y="-85" font-family="Arial" font-size="10.00" fill="#000000">supriya.system</text>
</g>
<!-- builtins.object&#45;&gt;supriya.system.SupriyaObject.SupriyaObject -->
<g id="edge3" class="edge">
<title>builtins.object&#45;&gt;supriya.system.SupriyaObject.SupriyaObject</title>
<path fill="none" stroke="#778899" d="M53.3404,-55C62.0401,-55 72.6079,-55 82.4698,-55"/>
<polygon fill="#778899" stroke="#778899" points="82.7722,-58.5001 92.7722,-55 82.7721,-51.5001 82.7722,-58.5001"/>
</g>
<!-- supriya.realtime.ControlInterface.ControlInterface&#45;&gt;supriya.realtime.GroupInterface.GroupInterface -->
<g id="edge1" class="edge">
<title>supriya.realtime.ControlInterface.ControlInterface&#45;&gt;supriya.realtime.GroupInterface.GroupInterface</title>
<path fill="none" stroke="#778899" d="M238.7499,-47.075C247.8507,-44.6886 257.882,-42.0582 267.1479,-39.6285"/>
<polygon fill="#778899" stroke="#778899" points="268.0366,-43.0139 276.8218,-37.0918 266.2611,-36.2428 268.0366,-43.0139"/>
</g>
<!-- supriya.realtime.ControlInterface.ControlInterface&#45;&gt;supriya.realtime.SynthInterface.SynthInterface -->
<g id="edge2" class="edge">
<title>supriya.realtime.ControlInterface.ControlInterface&#45;&gt;supriya.realtime.SynthInterface.SynthInterface</title>
<path fill="none" stroke="#778899" d="M238.7499,-62.925C247.8507,-65.3114 257.882,-67.9418 267.1479,-70.3715"/>
<polygon fill="#778899" stroke="#778899" points="266.2611,-73.7572 276.8218,-72.9082 268.0366,-66.9861 266.2611,-73.7572"/>
</g>
<!-- supriya.system.SupriyaObject.SupriyaObject&#45;&gt;supriya.realtime.ControlInterface.ControlInterface -->
<g id="edge4" class="edge">
<title>supriya.system.SupriyaObject.SupriyaObject&#45;&gt;supriya.realtime.ControlInterface.ControlInterface</title>
<path fill="none" stroke="#778899" d="M135.4496,-55C144.3557,-55 155.0258,-55 165.4251,-55"/>
<polygon fill="#778899" stroke="#778899" points="165.6588,-58.5001 175.6588,-55 165.6587,-51.5001 165.6588,-58.5001"/>
</g>
<!-- builtins.object -->
<g id="node1" class="node">
<title>builtins.object</title>
<g id="a_node1"><a xlink:href="https://docs.python.org/3.6/library/functions.html#object" xlink:title="object" target="_top">
<path fill="#fbb4ae" stroke="#fbb4ae" stroke-width="2" d="M46.6667,-64.5C46.6667,-64.5 22.3333,-64.5 22.3333,-64.5 19.1667,-64.5 16,-61.3333 16,-58.1667 16,-58.1667 16,-51.8333 16,-51.8333 16,-48.6667 19.1667,-45.5 22.3333,-45.5 22.3333,-45.5 46.6667,-45.5 46.6667,-45.5 49.8333,-45.5 53,-48.6667 53,-51.8333 53,-51.8333 53,-58.1667 53,-58.1667 53,-61.3333 49.8333,-64.5 46.6667,-64.5"/>
<text text-anchor="middle" x="34.5" y="-52.5" font-family="Arial" font-size="10.00" fill="#000000">object</text>
</a>
</g>
</g>
<!-- supriya.realtime.ControlInterface.ControlInterface -->
<g id="node2" class="node">
<title>supriya.realtime.ControlInterface.ControlInterface</title>
<g id="a_node2"><a xlink:href="../api/supriya/realtime/ControlInterface.html#supriya.realtime.ControlInterface.ControlInterface" xlink:title="Control\nInterface" target="_top">
<ellipse fill="#000000" stroke="#000000" stroke-width="2" cx="208.5269" cy="-55" rx="32.5538" ry="21.4286"/>
<text text-anchor="middle" x="208.5269" y="-58" font-family="Arial" font-size="10.00" fill="#ffffff">Control</text>
<text text-anchor="middle" x="208.5269" y="-47" font-family="Arial" font-size="10.00" fill="#ffffff">Interface</text>
</a>
</g>
</g>
<!-- supriya.realtime.GroupInterface.GroupInterface -->
<g id="node3" class="node">
<title>supriya.realtime.GroupInterface.GroupInterface</title>
<g id="a_node3"><a xlink:href="../api/supriya/realtime/GroupInterface.html#supriya.realtime.GroupInterface.GroupInterface" xlink:title="Group\nInterface" target="_top">
<path fill="#b3cde3" stroke="#b3cde3" stroke-width="2" d="M313.0538,-46C313.0538,-46 287.0538,-46 287.0538,-46 282.0538,-46 277.0538,-41 277.0538,-36 277.0538,-36 277.0538,-26 277.0538,-26 277.0538,-21 282.0538,-16 287.0538,-16 287.0538,-16 313.0538,-16 313.0538,-16 318.0538,-16 323.0538,-21 323.0538,-26 323.0538,-26 323.0538,-36 323.0538,-36 323.0538,-41 318.0538,-46 313.0538,-46"/>
<text text-anchor="middle" x="300.0538" y="-34" font-family="Arial" font-size="10.00" fill="#000000">Group</text>
<text text-anchor="middle" x="300.0538" y="-23" font-family="Arial" font-size="10.00" fill="#000000">Interface</text>
</a>
</g>
</g>
<!-- supriya.realtime.SynthInterface.SynthInterface -->
<g id="node4" class="node">
<title>supriya.realtime.SynthInterface.SynthInterface</title>
<g id="a_node4"><a xlink:href="../api/supriya/realtime/SynthInterface.html#supriya.realtime.SynthInterface.SynthInterface" xlink:title="Synth\nInterface" target="_top">
<path fill="#b3cde3" stroke="#b3cde3" stroke-width="2" d="M313.0538,-94C313.0538,-94 287.0538,-94 287.0538,-94 282.0538,-94 277.0538,-89 277.0538,-84 277.0538,-84 277.0538,-74 277.0538,-74 277.0538,-69 282.0538,-64 287.0538,-64 287.0538,-64 313.0538,-64 313.0538,-64 318.0538,-64 323.0538,-69 323.0538,-74 323.0538,-74 323.0538,-84 323.0538,-84 323.0538,-89 318.0538,-94 313.0538,-94"/>
<text text-anchor="middle" x="300.0538" y="-82" font-family="Arial" font-size="10.00" fill="#000000">Synth</text>
<text text-anchor="middle" x="300.0538" y="-71" font-family="Arial" font-size="10.00" fill="#000000">Interface</text>
</a>
</g>
</g>
<!-- supriya.system.SupriyaObject.SupriyaObject -->
<g id="node5" class="node">
<title>supriya.system.SupriyaObject.SupriyaObject</title>
<g id="a_node5"><a xlink:href="../api/supriya/realtime/../system/SupriyaObject.html#supriya.system.SupriyaObject.SupriyaObject" xlink:title="Supriya\nObject" target="_top">
<path fill="#ccebc5" stroke="#ccebc5" stroke-width="2" d="M125,-70C125,-70 103,-70 103,-70 98,-70 93,-65 93,-60 93,-60 93,-50 93,-50 93,-45 98,-40 103,-40 103,-40 125,-40 125,-40 130,-40 135,-45 135,-50 135,-50 135,-60 135,-60 135,-65 130,-70 125,-70"/>
<text text-anchor="middle" x="114" y="-58" font-family="Arial" font-size="10.00" fill="#000000">Supriya</text>
<text text-anchor="middle" x="114" y="-47" font-family="Arial" font-size="10.00" fill="#000000">Object</text>
</a>
</g>
</g>
</g>
</svg>
