<?xml version="1.0" encoding="UTF-8" standalone="no"?>
<!DOCTYPE svg PUBLIC "-//W3C//DTD SVG 1.1//EN"
 "http://www.w3.org/Graphics/SVG/1.1/DTD/svg11.dtd">
<!-- Generated by graphviz version 2.44.1 (20200629.0846)
 -->
<!-- Title: InheritanceGraph Pages: 1 -->
<svg width="562pt" height="133pt"
 viewBox="0.00 0.00 561.95 133.00" xmlns="http://www.w3.org/2000/svg" xmlns:xlink="http://www.w3.org/1999/xlink">
<g id="graph0" class="graph" transform="scale(1 1) rotate(0) translate(4 129)">
<title>InheritanceGraph</title>
<g id="clust2" class="cluster">
<title>cluster_supriya.commands</title>
<path fill="transparent" stroke="#bcd2ee" stroke-width="2" stroke-dasharray="5,2" d="M271,-8C271,-8 533.95,-8 533.95,-8 539.95,-8 545.95,-14 545.95,-20 545.95,-20 545.95,-105 545.95,-105 545.95,-111 539.95,-117 533.95,-117 533.95,-117 271,-117 271,-117 265,-117 259,-111 259,-105 259,-105 259,-20 259,-20 259,-14 265,-8 271,-8"/>
<text text-anchor="middle" x="402.48" y="-105" font-family="Arial" font-size="10.00">supriya.commands</text>
</g>
<g id="clust3" class="cluster">
<title>cluster_supriya.system</title>
<path fill="transparent" stroke="#bcd2ee" stroke-width="2" stroke-dasharray="5,2" d="M99,-24C99,-24 227,-24 227,-24 233,-24 239,-30 239,-36 239,-36 239,-89 239,-89 239,-95 233,-101 227,-101 227,-101 99,-101 99,-101 93,-101 87,-95 87,-89 87,-89 87,-36 87,-36 87,-30 93,-24 99,-24"/>
<text text-anchor="middle" x="163" y="-89" font-family="Arial" font-size="10.00">supriya.system</text>
</g>
<g id="clust1" class="cluster">
<title>cluster_builtins</title>
<path fill="transparent" stroke="#bcd2ee" stroke-width="2" stroke-dasharray="5,2" d="M20,-35C20,-35 55,-35 55,-35 61,-35 67,-41 67,-47 67,-47 67,-78 67,-78 67,-84 61,-90 55,-90 55,-90 20,-90 20,-90 14,-90 8,-84 8,-78 8,-78 8,-47 8,-47 8,-41 14,-35 20,-35"/>
<text text-anchor="middle" x="37.5" y="-78" font-family="Arial" font-size="10.00">builtins</text>
</g>
<!-- builtins.object&#45;&gt;supriya.system.SupriyaObject -->
<g id="edge4" class="edge">
<title>builtins.object&#45;&gt;supriya.system.SupriyaObject</title>
<path fill="none" stroke="lightslategrey" d="M59.23,-53C66.98,-53 76,-53 84.66,-53"/>
<polygon fill="lightslategrey" stroke="lightslategrey" points="84.91,-56.5 94.91,-53 84.91,-49.5 84.91,-56.5"/>
</g>
<!-- supriya.commands.Request.Request&#45;&gt;supriya.commands.NodeMapToAudioBusRequest.NodeMapToAudioBusRequest -->
<g id="edge1" class="edge">
<title>supriya.commands.Request.Request&#45;&gt;supriya.commands.NodeMapToAudioBusRequest.NodeMapToAudioBusRequest</title>
<path fill="none" stroke="lightslategrey" d="M448.96,-53C457.38,-53 466.32,-53 474.7,-53"/>
<polygon fill="lightslategrey" stroke="lightslategrey" points="474.94,-56.5 484.94,-53 474.94,-49.5 474.94,-56.5"/>
</g>
<!-- supriya.commands.Requestable.Requestable&#45;&gt;supriya.commands.Request.Request -->
<g id="edge2" class="edge">
<title>supriya.commands.Requestable.Requestable&#45;&gt;supriya.commands.Request.Request</title>
<path fill="none" stroke="lightslategrey" d="M338.23,-53C346.3,-53 355.02,-53 363.52,-53"/>
<polygon fill="lightslategrey" stroke="lightslategrey" points="363.71,-56.5 373.71,-53 363.71,-49.5 363.71,-56.5"/>
</g>
<!-- supriya.system.SupriyaObject&#45;&gt;supriya.system.SupriyaValueObject -->
<g id="edge3" class="edge">
<title>supriya.system.SupriyaObject&#45;&gt;supriya.system.SupriyaValueObject</title>
<path fill="none" stroke="lightslategrey" d="M145.3,-53C153.22,-53 162.17,-53 170.69,-53"/>
<polygon fill="lightslategrey" stroke="lightslategrey" points="170.76,-56.5 180.76,-53 170.76,-49.5 170.76,-56.5"/>
</g>
<!-- supriya.system.SupriyaValueObject&#45;&gt;supriya.commands.Requestable.Requestable -->
<g id="edge5" class="edge">
<title>supriya.system.SupriyaValueObject&#45;&gt;supriya.commands.Requestable.Requestable</title>
<path fill="none" stroke="lightslategrey" d="M231.34,-53C239.12,-53 248,-53 256.76,-53"/>
<polygon fill="lightslategrey" stroke="lightslategrey" points="256.92,-56.5 266.92,-53 256.92,-49.5 256.92,-56.5"/>
</g>
<!-- builtins.object -->
<g id="node1" class="node">
<title>builtins.object</title>
<g id="a_node1"><a xlink:href="https://docs.python.org/3/library/functions.html#object" xlink:title="object" target="_top">
<path fill="#fbb4ae" stroke="#fbb4ae" stroke-width="2" d="M52.67,-62.5C52.67,-62.5 22.33,-62.5 22.33,-62.5 19.17,-62.5 16,-59.33 16,-56.17 16,-56.17 16,-49.83 16,-49.83 16,-46.67 19.17,-43.5 22.33,-43.5 22.33,-43.5 52.67,-43.5 52.67,-43.5 55.83,-43.5 59,-46.67 59,-49.83 59,-49.83 59,-56.17 59,-56.17 59,-59.33 55.83,-62.5 52.67,-62.5"/>
<text text-anchor="middle" x="37.5" y="-50.5" font-family="Arial" font-size="10.00">object</text>
</a>
</g>
</g>
<!-- supriya.commands.NodeMapToAudioBusRequest.NodeMapToAudioBusRequest -->
<g id="node2" class="node">
<title>supriya.commands.NodeMapToAudioBusRequest.NodeMapToAudioBusRequest</title>
<g id="a_node2"><a xlink:href="../api/supriya/commands/NodeMapToAudioBusRequest.html#supriya.commands.NodeMapToAudioBusRequest.NodeMapToAudioBusRequest" xlink:title="Node\nMap\nTo\nAudio\nBus\nRequest" target="_top">
<path fill="black" stroke="black" stroke-width="2" d="M525.95,-90C525.95,-90 496.95,-90 496.95,-90 490.95,-90 484.95,-84 484.95,-78 484.95,-78 484.95,-28 484.95,-28 484.95,-22 490.95,-16 496.95,-16 496.95,-16 525.95,-16 525.95,-16 531.95,-16 537.95,-22 537.95,-28 537.95,-28 537.95,-78 537.95,-78 537.95,-84 531.95,-90 525.95,-90"/>
<text text-anchor="middle" x="511.45" y="-78" font-family="Arial" font-size="10.00" fill="white">Node</text>
<text text-anchor="middle" x="511.45" y="-67" font-family="Arial" font-size="10.00" fill="white">Map</text>
<text text-anchor="middle" x="511.45" y="-56" font-family="Arial" font-size="10.00" fill="white">To</text>
<text text-anchor="middle" x="511.45" y="-45" font-family="Arial" font-size="10.00" fill="white">Audio</text>
<text text-anchor="middle" x="511.45" y="-34" font-family="Arial" font-size="10.00" fill="white">Bus</text>
<text text-anchor="middle" x="511.45" y="-23" font-family="Arial" font-size="10.00" fill="white">Request</text>
</a>
</g>
</g>
<!-- supriya.commands.Request.Request -->
<g id="node3" class="node">
<title>supriya.commands.Request.Request</title>
<g id="a_node3"><a xlink:href="../api/supriya/commands/Request.html#supriya.commands.Request.Request" xlink:title="Request" target="_top">
<ellipse fill="none" stroke="#b3cde3" stroke-width="2" cx="411.48" cy="-53" rx="37.45" ry="13.37"/>
<text text-anchor="middle" x="411.48" y="-50.5" font-family="Arial" font-size="10.00">Request</text>
</a>
</g>
</g>
<!-- supriya.commands.Requestable.Requestable -->
<g id="node4" class="node">
<title>supriya.commands.Requestable.Requestable</title>
<g id="a_node4"><a xlink:href="../api/supriya/commands/Requestable.html#supriya.commands.Requestable.Requestable" xlink:title="Requestable" target="_top">
<path fill="#b3cde3" stroke="#b3cde3" stroke-width="2" d="M331.67,-62.5C331.67,-62.5 273.33,-62.5 273.33,-62.5 270.17,-62.5 267,-59.33 267,-56.17 267,-56.17 267,-49.83 267,-49.83 267,-46.67 270.17,-43.5 273.33,-43.5 273.33,-43.5 331.67,-43.5 331.67,-43.5 334.83,-43.5 338,-46.67 338,-49.83 338,-49.83 338,-56.17 338,-56.17 338,-59.33 334.83,-62.5 331.67,-62.5"/>
<text text-anchor="middle" x="302.5" y="-50.5" font-family="Arial" font-size="10.00">Requestable</text>
</a>
</g>
</g>
<!-- supriya.system.SupriyaObject -->
<g id="node5" class="node">
<title>supriya.system.SupriyaObject</title>
<g id="a_node5"><a xlink:href="../api/supriya/commands/../system.html#supriya.system.SupriyaObject" xlink:title="Supriya\nObject" target="_top">
<path fill="#ccebc5" stroke="#ccebc5" stroke-width="2" d="M135,-68C135,-68 105,-68 105,-68 100,-68 95,-63 95,-58 95,-58 95,-48 95,-48 95,-43 100,-38 105,-38 105,-38 135,-38 135,-38 140,-38 145,-43 145,-48 145,-48 145,-58 145,-58 145,-63 140,-68 135,-68"/>
<text text-anchor="middle" x="120" y="-56" font-family="Arial" font-size="10.00">Supriya</text>
<text text-anchor="middle" x="120" y="-45" font-family="Arial" font-size="10.00">Object</text>
</a>
</g>
</g>
<!-- supriya.system.SupriyaValueObject -->
<g id="node6" class="node">
<title>supriya.system.SupriyaValueObject</title>
<g id="a_node6"><a xlink:href="../api/supriya/commands/../system.html#supriya.system.SupriyaValueObject" xlink:title="Supriya\nValue\nObject" target="_top">
<path fill="#ccebc5" stroke="#ccebc5" stroke-width="2" d="M219,-73.5C219,-73.5 193,-73.5 193,-73.5 187,-73.5 181,-67.5 181,-61.5 181,-61.5 181,-44.5 181,-44.5 181,-38.5 187,-32.5 193,-32.5 193,-32.5 219,-32.5 219,-32.5 225,-32.5 231,-38.5 231,-44.5 231,-44.5 231,-61.5 231,-61.5 231,-67.5 225,-73.5 219,-73.5"/>
<text text-anchor="middle" x="206" y="-61.5" font-family="Arial" font-size="10.00">Supriya</text>
<text text-anchor="middle" x="206" y="-50.5" font-family="Arial" font-size="10.00">Value</text>
<text text-anchor="middle" x="206" y="-39.5" font-family="Arial" font-size="10.00">Object</text>
</a>
</g>
</g>
</g>
</svg>
