<?xml version="1.0" encoding="UTF-8" standalone="no"?>
<!DOCTYPE svg PUBLIC "-//W3C//DTD SVG 1.1//EN"
 "http://www.w3.org/Graphics/SVG/1.1/DTD/svg11.dtd">
<!-- Generated by graphviz version 2.40.1 (20161225.0304)
 -->
<!-- Title: InheritanceGraph Pages: 1 -->
<svg width="583pt" height="309pt"
 viewBox="0.00 0.00 583.00 309.00" xmlns="http://www.w3.org/2000/svg" xmlns:xlink="http://www.w3.org/1999/xlink">
<g id="graph0" class="graph" transform="scale(1 1) rotate(0) translate(4 305)">
<title>InheritanceGraph</title>
<g id="clust1" class="cluster">
<title>cluster_builtins</title>
<path fill="transparent" stroke="#bcd2ee" stroke-width="2" stroke-dasharray="5,2" d="M20,-165C20,-165 116.5,-165 116.5,-165 122.5,-165 128.5,-171 128.5,-177 128.5,-177 128.5,-208 128.5,-208 128.5,-214 122.5,-220 116.5,-220 116.5,-220 20,-220 20,-220 14,-220 8,-214 8,-208 8,-208 8,-177 8,-177 8,-171 14,-165 20,-165"/>
<text text-anchor="middle" x="68.25" y="-208" font-family="Arial" font-size="10.00" fill="#000000">builtins</text>
</g>
<g id="clust2" class="cluster">
<title>cluster_enum</title>
<path fill="transparent" stroke="#bcd2ee" stroke-width="2" stroke-dasharray="5,2" d="M170,-129C170,-129 272,-129 272,-129 278,-129 284,-135 284,-141 284,-141 284,-182 284,-182 284,-188 278,-194 272,-194 272,-194 170,-194 170,-194 164,-194 158,-188 158,-182 158,-182 158,-141 158,-141 158,-135 164,-129 170,-129"/>
<text text-anchor="middle" x="221" y="-182" font-family="Arial" font-size="10.00" fill="#000000">enum</text>
</g>
<g id="clust3" class="cluster">
<title>cluster_queue</title>
<path fill="transparent" stroke="#bcd2ee" stroke-width="2" stroke-dasharray="5,2" d="M93,-228C93,-228 200,-228 200,-228 206,-228 212,-234 212,-240 212,-240 212,-281 212,-281 212,-287 206,-293 200,-293 200,-293 93,-293 93,-293 87,-293 81,-287 81,-281 81,-281 81,-240 81,-240 81,-234 87,-228 93,-228"/>
<text text-anchor="middle" x="146.5" y="-281" font-family="Arial" font-size="10.00" fill="#000000">queue</text>
</g>
<g id="clust4" class="cluster">
<title>cluster_supriya.transport</title>
<path fill="transparent" stroke="#bcd2ee" stroke-width="2" stroke-dasharray="5,2" d="M353,-8C353,-8 555,-8 555,-8 561,-8 567,-14 567,-20 567,-20 567,-281 567,-281 567,-287 561,-293 555,-293 555,-293 353,-293 353,-293 347,-293 341,-287 341,-281 341,-281 341,-20 341,-20 341,-14 347,-8 353,-8"/>
<text text-anchor="middle" x="454" y="-281" font-family="Arial" font-size="10.00" fill="#000000">supriya.transport</text>
</g>
<!-- builtins.int&#45;&gt;enum.IntEnum -->
<g id="edge6" class="edge">
<title>builtins.int&#45;&gt;enum.IntEnum</title>
<path fill="none" stroke="#778899" d="M120.7126,-181.5281C140.1774,-179.0627 179.3701,-173.6098 212,-166 217.9372,-164.6154 224.2305,-162.8814 230.1936,-161.11"/>
<polygon fill="#778899" stroke="#778899" points="231.2716,-164.4403 239.7961,-158.1488 229.2087,-157.7512 231.2716,-164.4403"/>
</g>
<!-- builtins.object&#45;&gt;builtins.int -->
<g id="edge1" class="edge">
<title>builtins.object&#45;&gt;builtins.int</title>
<path fill="none" stroke="#778899" d="M53.1733,-183C63.2151,-183 75.6662,-183 86.2124,-183"/>
<polygon fill="#778899" stroke="#778899" points="86.3323,-186.5001 96.3322,-183 86.3322,-179.5001 86.3323,-186.5001"/>
</g>
<!-- builtins.object&#45;&gt;enum.Enum -->
<g id="edge7" class="edge">
<title>builtins.object&#45;&gt;enum.Enum</title>
<path fill="none" stroke="#778899" d="M53.2199,-174.7864C61.5908,-171.367 71.6588,-167.597 81,-165 105.8721,-158.085 134.8958,-153.2981 155.7832,-150.4088"/>
<polygon fill="#778899" stroke="#778899" points="156.4451,-153.8518 165.8993,-149.0696 155.5264,-146.9123 156.4451,-153.8518"/>
</g>
<!-- builtins.object&#45;&gt;queue.Queue -->
<g id="edge8" class="edge">
<title>builtins.object&#45;&gt;queue.Queue</title>
<path fill="none" stroke="#778899" d="M45.5726,-192.791C54.985,-201.1073 68.8635,-213.3537 81,-224 83.885,-226.5308 86.9441,-229.2073 89.9334,-231.819"/>
<polygon fill="#778899" stroke="#778899" points="87.6801,-234.498 97.5158,-238.4363 92.2828,-229.224 87.6801,-234.498"/>
</g>
<!-- builtins.object&#45;&gt;supriya.transport.Moment -->
<g id="edge9" class="edge">
<title>builtins.object&#45;&gt;supriya.transport.Moment</title>
<path fill="none" stroke="#778899" d="M44.8169,-173.3745C67.8608,-152.924 126.0589,-107 184,-107 184,-107 184,-107 258,-107 286.3183,-107 318.4891,-108.5057 341.7563,-109.8646"/>
<polygon fill="#778899" stroke="#778899" points="341.5806,-113.3603 351.7743,-110.4727 342.0047,-106.3731 341.5806,-113.3603"/>
</g>
<!-- builtins.object&#45;&gt;supriya.transport.SchedulerEvent -->
<g id="edge10" class="edge">
<title>builtins.object&#45;&gt;supriya.transport.SchedulerEvent</title>
<path fill="none" stroke="#778899" d="M38.9007,-173.4202C45.9445,-159.012 61.0167,-131.6792 81,-115 119.4902,-82.874 133.8644,-69 184,-69 184,-69 184,-69 258,-69 284.9476,-69 315.4164,-69 338.3633,-69"/>
<polygon fill="#778899" stroke="#778899" points="338.6558,-72.5001 348.6558,-69 338.6558,-65.5001 338.6558,-72.5001"/>
</g>
<!-- builtins.object&#45;&gt;supriya.transport.Transport -->
<g id="edge11" class="edge">
<title>builtins.object&#45;&gt;supriya.transport.Transport</title>
<path fill="none" stroke="#778899" d="M36.2075,-173.3117C40.32,-152.6439 52.6118,-103.7728 81,-75 116.2119,-39.311 133.8644,-29 184,-29 184,-29 184,-29 258,-29 285.1305,-29 315.8183,-28.1698 338.8126,-27.3828"/>
<polygon fill="#778899" stroke="#778899" points="339.245,-30.8697 349.1139,-27.0157 338.9956,-23.8742 339.245,-30.8697"/>
</g>
<!-- enum.Enum&#45;&gt;enum.IntEnum -->
<g id="edge2" class="edge">
<title>enum.Enum&#45;&gt;enum.IntEnum</title>
<path fill="none" stroke="#778899" d="M202.2921,-148.236C210.6261,-148.7991 220.6784,-149.4783 229.9367,-150.1038"/>
<polygon fill="#778899" stroke="#778899" points="229.705,-153.5961 239.9183,-150.7783 230.177,-146.612 229.705,-153.5961"/>
</g>
<!-- enum.IntEnum&#45;&gt;supriya.transport.EventType -->
<g id="edge12" class="edge">
<title>enum.IntEnum&#45;&gt;supriya.transport.EventType</title>
<path fill="none" stroke="#778899" d="M276.125,-159.9688C294.9127,-168.2288 324.5195,-181.2456 346.2543,-190.8015"/>
<polygon fill="#778899" stroke="#778899" points="345.0565,-194.0981 355.6195,-194.9189 347.8738,-187.6901 345.0565,-194.0981"/>
</g>
<!-- enum.IntEnum&#45;&gt;supriya.transport.TimeUnit -->
<g id="edge13" class="edge">
<title>enum.IntEnum&#45;&gt;supriya.transport.TimeUnit</title>
<path fill="none" stroke="#778899" d="M276.125,-152.4688C295.0949,-152.9593 325.0948,-153.7352 346.8844,-154.2987"/>
<polygon fill="#778899" stroke="#778899" points="347.0454,-157.804 357.1326,-154.5638 347.2265,-150.8063 347.0454,-157.804"/>
</g>
<!-- queue.PriorityQueue&#45;&gt;supriya.transport.EventQueue -->
<g id="edge14" class="edge">
<title>queue.PriorityQueue&#45;&gt;supriya.transport.EventQueue</title>
<path fill="none" stroke="#778899" d="M204.3333,-251C237.9353,-251 305.2048,-251 344.1885,-251"/>
<polygon fill="#778899" stroke="#778899" points="344.3823,-254.5001 354.3823,-251 344.3823,-247.5001 344.3823,-254.5001"/>
</g>
<!-- queue.Queue&#45;&gt;queue.PriorityQueue -->
<g id="edge3" class="edge">
<title>queue.Queue&#45;&gt;queue.PriorityQueue</title>
<path fill="none" stroke="#778899" d="M128.3367,-248.7882C136.102,-249.0968 145.1837,-249.4576 153.7321,-249.7973"/>
<polygon fill="#778899" stroke="#778899" points="153.6394,-253.2963 163.7705,-250.1962 153.9174,-246.3018 153.6394,-253.2963"/>
</g>
<!-- supriya.transport.SchedulerEvent&#45;&gt;supriya.transport.CallbackEvent -->
<g id="edge4" class="edge">
<title>supriya.transport.SchedulerEvent&#45;&gt;supriya.transport.CallbackEvent</title>
<path fill="none" stroke="#778899" d="M399.0528,-63.8994C407.1126,-62.2585 416.1665,-60.4152 424.6974,-58.6784"/>
<polygon fill="#778899" stroke="#778899" points="425.6412,-62.0581 434.7419,-56.6334 424.2446,-55.1988 425.6412,-62.0581"/>
</g>
<!-- supriya.transport.SchedulerEvent&#45;&gt;supriya.transport.ChangeEvent -->
<g id="edge5" class="edge">
<title>supriya.transport.SchedulerEvent&#45;&gt;supriya.transport.ChangeEvent</title>
<path fill="none" stroke="#778899" d="M399.216,-71.9911C410.2028,-73.2691 423.2337,-74.751 435,-76 458.6616,-78.5117 485.4224,-81.1144 505.6656,-83.0348"/>
<polygon fill="#778899" stroke="#778899" points="505.6083,-86.5448 515.8928,-83.9995 506.2657,-79.5757 505.6083,-86.5448"/>
</g>
<!-- builtins.int -->
<g id="node1" class="node">
<title>builtins.int</title>
<g id="a_node1"><a xlink:href="https://docs.python.org/3.6/library/functions.html#int" xlink:title="int" target="_top">
<path fill="#fbb4ae" stroke="#fbb4ae" stroke-width="2" d="M114.1667,-192.5C114.1667,-192.5 102.8333,-192.5 102.8333,-192.5 99.6667,-192.5 96.5,-189.3333 96.5,-186.1667 96.5,-186.1667 96.5,-179.8333 96.5,-179.8333 96.5,-176.6667 99.6667,-173.5 102.8333,-173.5 102.8333,-173.5 114.1667,-173.5 114.1667,-173.5 117.3333,-173.5 120.5,-176.6667 120.5,-179.8333 120.5,-179.8333 120.5,-186.1667 120.5,-186.1667 120.5,-189.3333 117.3333,-192.5 114.1667,-192.5"/>
<text text-anchor="middle" x="108.5" y="-180.5" font-family="Arial" font-size="10.00" fill="#000000">int</text>
</a>
</g>
</g>
<!-- builtins.object -->
<g id="node2" class="node">
<title>builtins.object</title>
<g id="a_node2"><a xlink:href="https://docs.python.org/3.6/library/functions.html#object" xlink:title="object" target="_top">
<path fill="#fbb4ae" stroke="#fbb4ae" stroke-width="2" d="M46.6667,-192.5C46.6667,-192.5 22.3333,-192.5 22.3333,-192.5 19.1667,-192.5 16,-189.3333 16,-186.1667 16,-186.1667 16,-179.8333 16,-179.8333 16,-176.6667 19.1667,-173.5 22.3333,-173.5 22.3333,-173.5 46.6667,-173.5 46.6667,-173.5 49.8333,-173.5 53,-176.6667 53,-179.8333 53,-179.8333 53,-186.1667 53,-186.1667 53,-189.3333 49.8333,-192.5 46.6667,-192.5"/>
<text text-anchor="middle" x="34.5" y="-180.5" font-family="Arial" font-size="10.00" fill="#000000">object</text>
</a>
</g>
</g>
<!-- enum.Enum -->
<g id="node3" class="node">
<title>enum.Enum</title>
<g id="a_node3"><a xlink:href="https://docs.python.org/3.6/library/enum.html#enum.Enum" xlink:title="Enum" target="_top">
<path fill="#b3cde3" stroke="#b3cde3" stroke-width="2" d="M195.6667,-156.5C195.6667,-156.5 172.3333,-156.5 172.3333,-156.5 169.1667,-156.5 166,-153.3333 166,-150.1667 166,-150.1667 166,-143.8333 166,-143.8333 166,-140.6667 169.1667,-137.5 172.3333,-137.5 172.3333,-137.5 195.6667,-137.5 195.6667,-137.5 198.8333,-137.5 202,-140.6667 202,-143.8333 202,-143.8333 202,-150.1667 202,-150.1667 202,-153.3333 198.8333,-156.5 195.6667,-156.5"/>
<text text-anchor="middle" x="184" y="-144.5" font-family="Arial" font-size="10.00" fill="#000000">Enum</text>
</a>
</g>
</g>
<!-- enum.IntEnum -->
<g id="node4" class="node">
<title>enum.IntEnum</title>
<g id="a_node4"><a xlink:href="https://docs.python.org/3.6/library/enum.html#enum.IntEnum" xlink:title="Int\nEnum" target="_top">
<path fill="#b3cde3" stroke="#b3cde3" stroke-width="2" d="M266,-167C266,-167 250,-167 250,-167 245,-167 240,-162 240,-157 240,-157 240,-147 240,-147 240,-142 245,-137 250,-137 250,-137 266,-137 266,-137 271,-137 276,-142 276,-147 276,-147 276,-157 276,-157 276,-162 271,-167 266,-167"/>
<text text-anchor="middle" x="258" y="-155" font-family="Arial" font-size="10.00" fill="#000000">Int</text>
<text text-anchor="middle" x="258" y="-144" font-family="Arial" font-size="10.00" fill="#000000">Enum</text>
</a>
</g>
</g>
<!-- queue.PriorityQueue -->
<g id="node5" class="node">
<title>queue.PriorityQueue</title>
<g id="a_node5"><a xlink:href="https://docs.python.org/3.6/library/queue.html#queue.PriorityQueue" xlink:title="Priority\nQueue" target="_top">
<path fill="#ccebc5" stroke="#ccebc5" stroke-width="2" d="M194,-266C194,-266 174,-266 174,-266 169,-266 164,-261 164,-256 164,-256 164,-246 164,-246 164,-241 169,-236 174,-236 174,-236 194,-236 194,-236 199,-236 204,-241 204,-246 204,-246 204,-256 204,-256 204,-261 199,-266 194,-266"/>
<text text-anchor="middle" x="184" y="-254" font-family="Arial" font-size="10.00" fill="#000000">Priority</text>
<text text-anchor="middle" x="184" y="-243" font-family="Arial" font-size="10.00" fill="#000000">Queue</text>
</a>
</g>
</g>
<!-- queue.Queue -->
<g id="node6" class="node">
<title>queue.Queue</title>
<g id="a_node6"><a xlink:href="https://docs.python.org/3.6/library/queue.html#queue.Queue" xlink:title="Queue" target="_top">
<path fill="#ccebc5" stroke="#ccebc5" stroke-width="2" d="M121.6667,-257.5C121.6667,-257.5 95.3333,-257.5 95.3333,-257.5 92.1667,-257.5 89,-254.3333 89,-251.1667 89,-251.1667 89,-244.8333 89,-244.8333 89,-241.6667 92.1667,-238.5 95.3333,-238.5 95.3333,-238.5 121.6667,-238.5 121.6667,-238.5 124.8333,-238.5 128,-241.6667 128,-244.8333 128,-244.8333 128,-251.1667 128,-251.1667 128,-254.3333 124.8333,-257.5 121.6667,-257.5"/>
<text text-anchor="middle" x="108.5" y="-245.5" font-family="Arial" font-size="10.00" fill="#000000">Queue</text>
</a>
</g>
</g>
<!-- supriya.transport.CallbackEvent -->
<g id="node7" class="node">
<title>supriya.transport.CallbackEvent</title>
<g id="a_node7"><a xlink:href="../api/supriya/transport.html#supriya.transport.CallbackEvent" xlink:title="Callback\nEvent" target="_top">
<path fill="#000000" stroke="#000000" stroke-width="2" d="M470,-67C470,-67 445,-67 445,-67 440,-67 435,-62 435,-57 435,-57 435,-47 435,-47 435,-42 440,-37 445,-37 445,-37 470,-37 470,-37 475,-37 480,-42 480,-47 480,-47 480,-57 480,-57 480,-62 475,-67 470,-67"/>
<text text-anchor="middle" x="457.5" y="-55" font-family="Arial" font-size="10.00" fill="#ffffff">Callback</text>
<text text-anchor="middle" x="457.5" y="-44" font-family="Arial" font-size="10.00" fill="#ffffff">Event</text>
</a>
</g>
</g>
<!-- supriya.transport.ChangeEvent -->
<g id="node8" class="node">
<title>supriya.transport.ChangeEvent</title>
<g id="a_node8"><a xlink:href="../api/supriya/transport.html#supriya.transport.ChangeEvent" xlink:title="Change\nEvent" target="_top">
<path fill="#000000" stroke="#000000" stroke-width="2" d="M549,-101C549,-101 526,-101 526,-101 521,-101 516,-96 516,-91 516,-91 516,-81 516,-81 516,-76 521,-71 526,-71 526,-71 549,-71 549,-71 554,-71 559,-76 559,-81 559,-81 559,-91 559,-91 559,-96 554,-101 549,-101"/>
<text text-anchor="middle" x="537.5" y="-89" font-family="Arial" font-size="10.00" fill="#ffffff">Change</text>
<text text-anchor="middle" x="537.5" y="-78" font-family="Arial" font-size="10.00" fill="#ffffff">Event</text>
</a>
</g>
</g>
<!-- supriya.transport.EventQueue -->
<g id="node9" class="node">
<title>supriya.transport.EventQueue</title>
<g id="a_node9"><a xlink:href="../api/supriya/transport.html#supriya.transport.EventQueue" xlink:title="Event\nQueue" target="_top">
<path fill="#000000" stroke="#000000" stroke-width="2" d="M383.5,-266C383.5,-266 364.5,-266 364.5,-266 359.5,-266 354.5,-261 354.5,-256 354.5,-256 354.5,-246 354.5,-246 354.5,-241 359.5,-236 364.5,-236 364.5,-236 383.5,-236 383.5,-236 388.5,-236 393.5,-241 393.5,-246 393.5,-246 393.5,-256 393.5,-256 393.5,-261 388.5,-266 383.5,-266"/>
<text text-anchor="middle" x="374" y="-254" font-family="Arial" font-size="10.00" fill="#ffffff">Event</text>
<text text-anchor="middle" x="374" y="-243" font-family="Arial" font-size="10.00" fill="#ffffff">Queue</text>
</a>
</g>
</g>
<!-- supriya.transport.EventType -->
<g id="node10" class="node">
<title>supriya.transport.EventType</title>
<g id="a_node10"><a xlink:href="../api/supriya/transport.html#supriya.transport.EventType" xlink:title="Event\nType" target="_top">
<path fill="#000000" stroke="#000000" stroke-width="2" d="M382,-218C382,-218 366,-218 366,-218 361,-218 356,-213 356,-208 356,-208 356,-198 356,-198 356,-193 361,-188 366,-188 366,-188 382,-188 382,-188 387,-188 392,-193 392,-198 392,-198 392,-208 392,-208 392,-213 387,-218 382,-218"/>
<text text-anchor="middle" x="374" y="-206" font-family="Arial" font-size="10.00" fill="#ffffff">Event</text>
<text text-anchor="middle" x="374" y="-195" font-family="Arial" font-size="10.00" fill="#ffffff">Type</text>
</a>
</g>
</g>
<!-- supriya.transport.Moment -->
<g id="node11" class="node">
<title>supriya.transport.Moment</title>
<g id="a_node11"><a xlink:href="../api/supriya/transport.html#supriya.transport.Moment" xlink:title="Moment" target="_top">
<path fill="#000000" stroke="#000000" stroke-width="2" d="M389.6667,-121.5C389.6667,-121.5 358.3333,-121.5 358.3333,-121.5 355.1667,-121.5 352,-118.3333 352,-115.1667 352,-115.1667 352,-108.8333 352,-108.8333 352,-105.6667 355.1667,-102.5 358.3333,-102.5 358.3333,-102.5 389.6667,-102.5 389.6667,-102.5 392.8333,-102.5 396,-105.6667 396,-108.8333 396,-108.8333 396,-115.1667 396,-115.1667 396,-118.3333 392.8333,-121.5 389.6667,-121.5"/>
<text text-anchor="middle" x="374" y="-109.5" font-family="Arial" font-size="10.00" fill="#ffffff">Moment</text>
</a>
</g>
</g>
<!-- supriya.transport.SchedulerEvent -->
<g id="node12" class="node">
<title>supriya.transport.SchedulerEvent</title>
<g id="a_node12"><a xlink:href="../api/supriya/transport.html#supriya.transport.SchedulerEvent" xlink:title="Scheduler\nEvent" target="_top">
<path fill="#000000" stroke="#000000" stroke-width="2" d="M389,-84C389,-84 359,-84 359,-84 354,-84 349,-79 349,-74 349,-74 349,-64 349,-64 349,-59 354,-54 359,-54 359,-54 389,-54 389,-54 394,-54 399,-59 399,-64 399,-64 399,-74 399,-74 399,-79 394,-84 389,-84"/>
<text text-anchor="middle" x="374" y="-72" font-family="Arial" font-size="10.00" fill="#ffffff">Scheduler</text>
<text text-anchor="middle" x="374" y="-61" font-family="Arial" font-size="10.00" fill="#ffffff">Event</text>
</a>
</g>
</g>
<!-- supriya.transport.TimeUnit -->
<g id="node13" class="node">
<title>supriya.transport.TimeUnit</title>
<g id="a_node13"><a xlink:href="../api/supriya/transport.html#supriya.transport.TimeUnit" xlink:title="Time\nUnit" target="_top">
<path fill="#000000" stroke="#000000" stroke-width="2" d="M380.5,-170C380.5,-170 367.5,-170 367.5,-170 362.5,-170 357.5,-165 357.5,-160 357.5,-160 357.5,-150 357.5,-150 357.5,-145 362.5,-140 367.5,-140 367.5,-140 380.5,-140 380.5,-140 385.5,-140 390.5,-145 390.5,-150 390.5,-150 390.5,-160 390.5,-160 390.5,-165 385.5,-170 380.5,-170"/>
<text text-anchor="middle" x="374" y="-158" font-family="Arial" font-size="10.00" fill="#ffffff">Time</text>
<text text-anchor="middle" x="374" y="-147" font-family="Arial" font-size="10.00" fill="#ffffff">Unit</text>
</a>
</g>
</g>
<!-- supriya.transport.Transport -->
<g id="node14" class="node">
<title>supriya.transport.Transport</title>
<g id="a_node14"><a xlink:href="../api/supriya/transport.html#supriya.transport.Transport" xlink:title="Transport" target="_top">
<path fill="#000000" stroke="#000000" stroke-width="2" d="M392.1667,-35.5C392.1667,-35.5 355.8333,-35.5 355.8333,-35.5 352.6667,-35.5 349.5,-32.3333 349.5,-29.1667 349.5,-29.1667 349.5,-22.8333 349.5,-22.8333 349.5,-19.6667 352.6667,-16.5 355.8333,-16.5 355.8333,-16.5 392.1667,-16.5 392.1667,-16.5 395.3333,-16.5 398.5,-19.6667 398.5,-22.8333 398.5,-22.8333 398.5,-29.1667 398.5,-29.1667 398.5,-32.3333 395.3333,-35.5 392.1667,-35.5"/>
<text text-anchor="middle" x="374" y="-23.5" font-family="Arial" font-size="10.00" fill="#ffffff">Transport</text>
</a>
</g>
</g>
</g>
</svg>
