<?xml version="1.0" encoding="UTF-8" standalone="no"?>
<!DOCTYPE svg PUBLIC "-//W3C//DTD SVG 1.1//EN"
 "http://www.w3.org/Graphics/SVG/1.1/DTD/svg11.dtd">
<!-- Generated by graphviz version 2.40.1 (20161225.0304)
 -->
<!-- Title: InheritanceGraph Pages: 1 -->
<svg width="153pt" height="79pt"
 viewBox="0.00 0.00 153.00 79.00" xmlns="http://www.w3.org/2000/svg" xmlns:xlink="http://www.w3.org/1999/xlink">
<g id="graph0" class="graph" transform="scale(1 1) rotate(0) translate(4 75)">
<title>InheritanceGraph</title>
<g id="clust1" class="cluster">
<title>cluster_builtins</title>
<path fill="transparent" stroke="#bcd2ee" stroke-width="2" stroke-dasharray="5,2" d="M20,-8C20,-8 49,-8 49,-8 55,-8 61,-14 61,-20 61,-20 61,-51 61,-51 61,-57 55,-63 49,-63 49,-63 20,-63 20,-63 14,-63 8,-57 8,-51 8,-51 8,-20 8,-20 8,-14 14,-8 20,-8"/>
<text text-anchor="middle" x="34.5" y="-51" font-family="Arial" font-size="10.00" fill="#000000">builtins</text>
</g>
<g id="clust2" class="cluster">
<title>cluster_supriya.midi</title>
<path fill="transparent" stroke="#bcd2ee" stroke-width="2" stroke-dasharray="5,2" d="M93,-8C93,-8 126,-8 126,-8 132,-8 138,-14 138,-20 138,-20 138,-51 138,-51 138,-57 132,-63 126,-63 126,-63 93,-63 93,-63 87,-63 81,-57 81,-51 81,-51 81,-20 81,-20 81,-14 87,-8 93,-8"/>
<text text-anchor="middle" x="109.5" y="-51" font-family="Arial" font-size="10.00" fill="#000000">supriya.midi</text>
</g>
<!-- builtins.object&#45;&gt;supriya.midi.Device.Device -->
<g id="edge1" class="edge">
<title>builtins.object&#45;&gt;supriya.midi.Device.Device</title>
<path fill="none" stroke="#778899" d="M53.0393,-26C61.0833,-26 70.7068,-26 79.7105,-26"/>
<polygon fill="#778899" stroke="#778899" points="79.8636,-29.5001 89.8635,-26 79.8635,-22.5001 79.8636,-29.5001"/>
</g>
<!-- builtins.object -->
<g id="node1" class="node">
<title>builtins.object</title>
<g id="a_node1"><a xlink:href="https://docs.python.org/3.6/library/functions.html#object" xlink:title="object" target="_top">
<path fill="#fbb4ae" stroke="#fbb4ae" stroke-width="2" d="M46.6667,-35.5C46.6667,-35.5 22.3333,-35.5 22.3333,-35.5 19.1667,-35.5 16,-32.3333 16,-29.1667 16,-29.1667 16,-22.8333 16,-22.8333 16,-19.6667 19.1667,-16.5 22.3333,-16.5 22.3333,-16.5 46.6667,-16.5 46.6667,-16.5 49.8333,-16.5 53,-19.6667 53,-22.8333 53,-22.8333 53,-29.1667 53,-29.1667 53,-32.3333 49.8333,-35.5 46.6667,-35.5"/>
<text text-anchor="middle" x="34.5" y="-23.5" font-family="Arial" font-size="10.00" fill="#000000">object</text>
</a>
</g>
</g>
<!-- supriya.midi.Device.Device -->
<g id="node2" class="node">
<title>supriya.midi.Device.Device</title>
<g id="a_node2"><a xlink:href="../api/supriya/midi/Device.html#supriya.midi.Device.Device" xlink:title="Device" target="_top">
<path fill="#000000" stroke="#000000" stroke-width="2" d="M122.6667,-35.5C122.6667,-35.5 96.3333,-35.5 96.3333,-35.5 93.1667,-35.5 90,-32.3333 90,-29.1667 90,-29.1667 90,-22.8333 90,-22.8333 90,-19.6667 93.1667,-16.5 96.3333,-16.5 96.3333,-16.5 122.6667,-16.5 122.6667,-16.5 125.8333,-16.5 129,-19.6667 129,-22.8333 129,-22.8333 129,-29.1667 129,-29.1667 129,-32.3333 125.8333,-35.5 122.6667,-35.5"/>
<text text-anchor="middle" x="109.5" y="-23.5" font-family="Arial" font-size="10.00" fill="#ffffff">Device</text>
</a>
</g>
</g>
</g>
</svg>
