<?xml version="1.0" encoding="UTF-8" standalone="no"?>
<!DOCTYPE svg PUBLIC "-//W3C//DTD SVG 1.1//EN"
 "http://www.w3.org/Graphics/SVG/1.1/DTD/svg11.dtd">
<!-- Generated by graphviz version 2.40.1 (20161225.0304)
 -->
<!-- Title: InheritanceGraph Pages: 1 -->
<svg width="296pt" height="101pt"
 viewBox="0.00 0.00 296.00 101.00" xmlns="http://www.w3.org/2000/svg" xmlns:xlink="http://www.w3.org/1999/xlink">
<g id="graph0" class="graph" transform="scale(1 1) rotate(0) translate(4 97)">
<title>InheritanceGraph</title>
<g id="clust1" class="cluster">
<title>cluster_builtins</title>
<path fill="transparent" stroke="#bcd2ee" stroke-width="2" stroke-dasharray="5,2" d="M20,-19C20,-19 49,-19 49,-19 55,-19 61,-25 61,-31 61,-31 61,-62 61,-62 61,-68 55,-74 49,-74 49,-74 20,-74 20,-74 14,-74 8,-68 8,-62 8,-62 8,-31 8,-31 8,-25 14,-19 20,-19"/>
<text text-anchor="middle" x="34.5" y="-62" font-family="Arial" font-size="10.00" fill="#000000">builtins</text>
</g>
<g id="clust2" class="cluster">
<title>cluster_supriya.live</title>
<path fill="transparent" stroke="#bcd2ee" stroke-width="2" stroke-dasharray="5,2" d="M93,-8C93,-8 268,-8 268,-8 274,-8 280,-14 280,-20 280,-20 280,-73 280,-73 280,-79 274,-85 268,-85 268,-85 93,-85 93,-85 87,-85 81,-79 81,-73 81,-73 81,-20 81,-20 81,-14 87,-8 93,-8"/>
<text text-anchor="middle" x="180.5" y="-73" font-family="Arial" font-size="10.00" fill="#000000">supriya.live</text>
</g>
<!-- builtins.object&#45;&gt;supriya.live.Slot.Slot -->
<g id="edge3" class="edge">
<title>builtins.object&#45;&gt;supriya.live.Slot.Slot</title>
<path fill="none" stroke="#778899" d="M53.3546,-37C61.2102,-37 70.4388,-37 78.8231,-37"/>
<polygon fill="#778899" stroke="#778899" points="78.8247,-40.5001 88.8247,-37 78.8246,-33.5001 78.8247,-40.5001"/>
</g>
<!-- supriya.live.PatternSlot.PatternSlot&#45;&gt;supriya.live.TriggerPatternSlot.TriggerPatternSlot -->
<g id="edge1" class="edge">
<title>supriya.live.PatternSlot.PatternSlot&#45;&gt;supriya.live.TriggerPatternSlot.TriggerPatternSlot</title>
<path fill="none" stroke="#778899" d="M195.1346,-37C202.9889,-37 212.1178,-37 220.7121,-37"/>
<polygon fill="#778899" stroke="#778899" points="220.8085,-40.5001 230.8085,-37 220.8084,-33.5001 220.8085,-40.5001"/>
</g>
<!-- supriya.live.Slot.Slot&#45;&gt;supriya.live.PatternSlot.PatternSlot -->
<g id="edge2" class="edge">
<title>supriya.live.Slot.Slot&#45;&gt;supriya.live.PatternSlot.PatternSlot</title>
<path fill="none" stroke="#778899" d="M118.2112,-37C125.6265,-37 134.9103,-37 143.7873,-37"/>
<polygon fill="#778899" stroke="#778899" points="143.8849,-40.5001 153.8849,-37 143.8849,-33.5001 143.8849,-40.5001"/>
</g>
<!-- builtins.object -->
<g id="node1" class="node">
<title>builtins.object</title>
<g id="a_node1"><a xlink:href="https://docs.python.org/3.6/library/functions.html#object" xlink:title="object" target="_top">
<path fill="#fbb4ae" stroke="#fbb4ae" stroke-width="2" d="M46.6667,-46.5C46.6667,-46.5 22.3333,-46.5 22.3333,-46.5 19.1667,-46.5 16,-43.3333 16,-40.1667 16,-40.1667 16,-33.8333 16,-33.8333 16,-30.6667 19.1667,-27.5 22.3333,-27.5 22.3333,-27.5 46.6667,-27.5 46.6667,-27.5 49.8333,-27.5 53,-30.6667 53,-33.8333 53,-33.8333 53,-40.1667 53,-40.1667 53,-43.3333 49.8333,-46.5 46.6667,-46.5"/>
<text text-anchor="middle" x="34.5" y="-34.5" font-family="Arial" font-size="10.00" fill="#000000">object</text>
</a>
</g>
</g>
<!-- supriya.live.PatternSlot.PatternSlot -->
<g id="node2" class="node">
<title>supriya.live.PatternSlot.PatternSlot</title>
<g id="a_node2"><a xlink:href="../api/supriya/live/PatternSlot.html#supriya.live.PatternSlot.PatternSlot" xlink:title="Pattern\nSlot" target="_top">
<path fill="#b3cde3" stroke="#b3cde3" stroke-width="2" d="M185,-52C185,-52 164,-52 164,-52 159,-52 154,-47 154,-42 154,-42 154,-32 154,-32 154,-27 159,-22 164,-22 164,-22 185,-22 185,-22 190,-22 195,-27 195,-32 195,-32 195,-42 195,-42 195,-47 190,-52 185,-52"/>
<text text-anchor="middle" x="174.5" y="-40" font-family="Arial" font-size="10.00" fill="#000000">Pattern</text>
<text text-anchor="middle" x="174.5" y="-29" font-family="Arial" font-size="10.00" fill="#000000">Slot</text>
</a>
</g>
</g>
<!-- supriya.live.Slot.Slot -->
<g id="node3" class="node">
<title>supriya.live.Slot.Slot</title>
<g id="a_node3"><a xlink:href="../api/supriya/live/Slot.html#supriya.live.Slot.Slot" xlink:title="Slot" target="_top">
<path fill="#b3cde3" stroke="#b3cde3" stroke-width="2" d="M111.6667,-46.5C111.6667,-46.5 95.3333,-46.5 95.3333,-46.5 92.1667,-46.5 89,-43.3333 89,-40.1667 89,-40.1667 89,-33.8333 89,-33.8333 89,-30.6667 92.1667,-27.5 95.3333,-27.5 95.3333,-27.5 111.6667,-27.5 111.6667,-27.5 114.8333,-27.5 118,-30.6667 118,-33.8333 118,-33.8333 118,-40.1667 118,-40.1667 118,-43.3333 114.8333,-46.5 111.6667,-46.5"/>
<text text-anchor="middle" x="103.5" y="-34.5" font-family="Arial" font-size="10.00" fill="#000000">Slot</text>
</a>
</g>
</g>
<!-- supriya.live.TriggerPatternSlot.TriggerPatternSlot -->
<g id="node4" class="node">
<title>supriya.live.TriggerPatternSlot.TriggerPatternSlot</title>
<g id="a_node4"><a xlink:href="../api/supriya/live/TriggerPatternSlot.html#supriya.live.TriggerPatternSlot.TriggerPatternSlot" xlink:title="Trigger\nPattern\nSlot" target="_top">
<path fill="#000000" stroke="#000000" stroke-width="2" d="M260,-57.5C260,-57.5 243,-57.5 243,-57.5 237,-57.5 231,-51.5 231,-45.5 231,-45.5 231,-28.5 231,-28.5 231,-22.5 237,-16.5 243,-16.5 243,-16.5 260,-16.5 260,-16.5 266,-16.5 272,-22.5 272,-28.5 272,-28.5 272,-45.5 272,-45.5 272,-51.5 266,-57.5 260,-57.5"/>
<text text-anchor="middle" x="251.5" y="-45.5" font-family="Arial" font-size="10.00" fill="#ffffff">Trigger</text>
<text text-anchor="middle" x="251.5" y="-34.5" font-family="Arial" font-size="10.00" fill="#ffffff">Pattern</text>
<text text-anchor="middle" x="251.5" y="-23.5" font-family="Arial" font-size="10.00" fill="#ffffff">Slot</text>
</a>
</g>
</g>
</g>
</svg>
