<?xml version="1.0" encoding="UTF-8" standalone="no"?>
<!DOCTYPE svg PUBLIC "-//W3C//DTD SVG 1.1//EN"
 "http://www.w3.org/Graphics/SVG/1.1/DTD/svg11.dtd">
<!-- Generated by graphviz version 2.44.1 (20200629.0846)
 -->
<!-- Title: InheritanceGraph Pages: 1 -->
<svg width="183pt" height="101pt"
 viewBox="0.00 0.00 183.00 101.00" xmlns="http://www.w3.org/2000/svg" xmlns:xlink="http://www.w3.org/1999/xlink">
<g id="graph0" class="graph" transform="scale(1 1) rotate(0) translate(4 97)">
<title>InheritanceGraph</title>
<g id="clust1" class="cluster">
<title>cluster_builtins</title>
<path fill="transparent" stroke="#bcd2ee" stroke-width="2" stroke-dasharray="5,2" d="M20,-19C20,-19 55,-19 55,-19 61,-19 67,-25 67,-31 67,-31 67,-62 67,-62 67,-68 61,-74 55,-74 55,-74 20,-74 20,-74 14,-74 8,-68 8,-62 8,-62 8,-31 8,-31 8,-25 14,-19 20,-19"/>
<text text-anchor="middle" x="37.5" y="-62" font-family="Arial" font-size="10.00">builtins</text>
</g>
<g id="clust2" class="cluster">
<title>cluster_supriya.intervals</title>
<path fill="transparent" stroke="#bcd2ee" stroke-width="2" stroke-dasharray="5,2" d="M99,-8C99,-8 163,-8 163,-8 169,-8 175,-14 175,-20 175,-20 175,-73 175,-73 175,-79 169,-85 163,-85 163,-85 99,-85 99,-85 93,-85 87,-79 87,-73 87,-73 87,-20 87,-20 87,-14 93,-8 99,-8"/>
<text text-anchor="middle" x="131" y="-73" font-family="Arial" font-size="10.00">supriya.intervals</text>
</g>
<!-- builtins.object&#45;&gt;supriya.intervals.IntervalTreeDriver.IntervalTreeDriver -->
<g id="edge1" class="edge">
<title>builtins.object&#45;&gt;supriya.intervals.IntervalTreeDriver.IntervalTreeDriver</title>
<path fill="none" stroke="lightslategrey" d="M59.15,-37C69.86,-37 83.21,-37 95.4,-37"/>
<polygon fill="lightslategrey" stroke="lightslategrey" points="95.72,-40.5 105.72,-37 95.72,-33.5 95.72,-40.5"/>
</g>
<!-- builtins.object -->
<g id="node1" class="node">
<title>builtins.object</title>
<g id="a_node1"><a xlink:href="https://docs.python.org/3/library/functions.html#object" xlink:title="object" target="_top">
<path fill="#fbb4ae" stroke="#fbb4ae" stroke-width="2" d="M52.67,-46.5C52.67,-46.5 22.33,-46.5 22.33,-46.5 19.17,-46.5 16,-43.33 16,-40.17 16,-40.17 16,-33.83 16,-33.83 16,-30.67 19.17,-27.5 22.33,-27.5 22.33,-27.5 52.67,-27.5 52.67,-27.5 55.83,-27.5 59,-30.67 59,-33.83 59,-33.83 59,-40.17 59,-40.17 59,-43.33 55.83,-46.5 52.67,-46.5"/>
<text text-anchor="middle" x="37.5" y="-34.5" font-family="Arial" font-size="10.00">object</text>
</a>
</g>
</g>
<!-- supriya.intervals.IntervalTreeDriver.IntervalTreeDriver -->
<g id="node2" class="node">
<title>supriya.intervals.IntervalTreeDriver.IntervalTreeDriver</title>
<g id="a_node2"><a xlink:href="../api/supriya/intervals/IntervalTreeDriver.html#supriya.intervals.IntervalTreeDriver.IntervalTreeDriver" xlink:title="Interval\nTree\nDriver" target="_top">
<path fill="black" stroke="black" stroke-width="2" d="M143,-57.5C143,-57.5 118,-57.5 118,-57.5 112,-57.5 106,-51.5 106,-45.5 106,-45.5 106,-28.5 106,-28.5 106,-22.5 112,-16.5 118,-16.5 118,-16.5 143,-16.5 143,-16.5 149,-16.5 155,-22.5 155,-28.5 155,-28.5 155,-45.5 155,-45.5 155,-51.5 149,-57.5 143,-57.5"/>
<text text-anchor="middle" x="130.5" y="-45.5" font-family="Arial" font-size="10.00" fill="white">Interval</text>
<text text-anchor="middle" x="130.5" y="-34.5" font-family="Arial" font-size="10.00" fill="white">Tree</text>
<text text-anchor="middle" x="130.5" y="-23.5" font-family="Arial" font-size="10.00" fill="white">Driver</text>
</a>
</g>
</g>
</g>
</svg>
