<?xml version="1.0" encoding="UTF-8" standalone="no"?>
<!DOCTYPE svg PUBLIC "-//W3C//DTD SVG 1.1//EN"
 "http://www.w3.org/Graphics/SVG/1.1/DTD/svg11.dtd">
<!-- Generated by graphviz version 2.40.1 (20161225.0304)
 -->
<!-- Title: InheritanceGraph Pages: 1 -->
<svg width="240pt" height="79pt"
 viewBox="0.00 0.00 240.00 79.00" xmlns="http://www.w3.org/2000/svg" xmlns:xlink="http://www.w3.org/1999/xlink">
<g id="graph0" class="graph" transform="scale(1 1) rotate(0) translate(4 75)">
<title>InheritanceGraph</title>
<g id="clust1" class="cluster">
<title>cluster_builtins</title>
<path fill="transparent" stroke="#bcd2ee" stroke-width="2" stroke-dasharray="5,2" d="M20,-8C20,-8 49,-8 49,-8 55,-8 61,-14 61,-20 61,-20 61,-51 61,-51 61,-57 55,-63 49,-63 49,-63 20,-63 20,-63 14,-63 8,-57 8,-51 8,-51 8,-20 8,-20 8,-14 14,-8 20,-8"/>
<text text-anchor="middle" x="34.5" y="-51" font-family="Arial" font-size="10.00" fill="#000000">builtins</text>
</g>
<g id="clust2" class="cluster">
<title>cluster_supriya.live</title>
<path fill="transparent" stroke="#bcd2ee" stroke-width="2" stroke-dasharray="5,2" d="M93,-8C93,-8 212,-8 212,-8 218,-8 224,-14 224,-20 224,-20 224,-51 224,-51 224,-57 218,-63 212,-63 212,-63 93,-63 93,-63 87,-63 81,-57 81,-51 81,-51 81,-20 81,-20 81,-14 87,-8 93,-8"/>
<text text-anchor="middle" x="152.5" y="-51" font-family="Arial" font-size="10.00" fill="#000000">supriya.live</text>
</g>
<!-- builtins.object&#45;&gt;supriya.live.Device.Device -->
<g id="edge2" class="edge">
<title>builtins.object&#45;&gt;supriya.live.Device.Device</title>
<path fill="none" stroke="#778899" d="M53.1733,-26C60.905,-26 70.065,-26 78.6841,-26"/>
<polygon fill="#778899" stroke="#778899" points="78.797,-29.5001 88.7969,-26 78.7969,-22.5001 78.797,-29.5001"/>
</g>
<!-- supriya.live.Device.Device&#45;&gt;supriya.live.Instrument.Instrument -->
<g id="edge1" class="edge">
<title>supriya.live.Device.Device&#45;&gt;supriya.live.Instrument.Instrument</title>
<path fill="none" stroke="#778899" d="M128.2289,-26C135.949,-26 145.0552,-26 153.8694,-26"/>
<polygon fill="#778899" stroke="#778899" points="153.9818,-29.5001 163.9818,-26 153.9818,-22.5001 153.9818,-29.5001"/>
</g>
<!-- builtins.object -->
<g id="node1" class="node">
<title>builtins.object</title>
<g id="a_node1"><a xlink:href="https://docs.python.org/3.6/library/functions.html#object" xlink:title="object" target="_top">
<path fill="#fbb4ae" stroke="#fbb4ae" stroke-width="2" d="M46.6667,-35.5C46.6667,-35.5 22.3333,-35.5 22.3333,-35.5 19.1667,-35.5 16,-32.3333 16,-29.1667 16,-29.1667 16,-22.8333 16,-22.8333 16,-19.6667 19.1667,-16.5 22.3333,-16.5 22.3333,-16.5 46.6667,-16.5 46.6667,-16.5 49.8333,-16.5 53,-19.6667 53,-22.8333 53,-22.8333 53,-29.1667 53,-29.1667 53,-32.3333 49.8333,-35.5 46.6667,-35.5"/>
<text text-anchor="middle" x="34.5" y="-23.5" font-family="Arial" font-size="10.00" fill="#000000">object</text>
</a>
</g>
</g>
<!-- supriya.live.Device.Device -->
<g id="node2" class="node">
<title>supriya.live.Device.Device</title>
<g id="a_node2"><a xlink:href="../api/supriya/live/Device.html#supriya.live.Device.Device" xlink:title="Device" target="_top">
<path fill="#b3cde3" stroke="#b3cde3" stroke-width="2" d="M121.6667,-35.5C121.6667,-35.5 95.3333,-35.5 95.3333,-35.5 92.1667,-35.5 89,-32.3333 89,-29.1667 89,-29.1667 89,-22.8333 89,-22.8333 89,-19.6667 92.1667,-16.5 95.3333,-16.5 95.3333,-16.5 121.6667,-16.5 121.6667,-16.5 124.8333,-16.5 128,-19.6667 128,-22.8333 128,-22.8333 128,-29.1667 128,-29.1667 128,-32.3333 124.8333,-35.5 121.6667,-35.5"/>
<text text-anchor="middle" x="108.5" y="-23.5" font-family="Arial" font-size="10.00" fill="#000000">Device</text>
</a>
</g>
</g>
<!-- supriya.live.Instrument.Instrument -->
<g id="node3" class="node">
<title>supriya.live.Instrument.Instrument</title>
<g id="a_node3"><a xlink:href="../api/supriya/live/Instrument.html#supriya.live.Instrument.Instrument" xlink:title="Instrument" target="_top">
<path fill="#000000" stroke="#000000" stroke-width="2" d="M209.6667,-35.5C209.6667,-35.5 170.3333,-35.5 170.3333,-35.5 167.1667,-35.5 164,-32.3333 164,-29.1667 164,-29.1667 164,-22.8333 164,-22.8333 164,-19.6667 167.1667,-16.5 170.3333,-16.5 170.3333,-16.5 209.6667,-16.5 209.6667,-16.5 212.8333,-16.5 216,-19.6667 216,-22.8333 216,-22.8333 216,-29.1667 216,-29.1667 216,-32.3333 212.8333,-35.5 209.6667,-35.5"/>
<text text-anchor="middle" x="190" y="-23.5" font-family="Arial" font-size="10.00" fill="#ffffff">Instrument</text>
</a>
</g>
</g>
</g>
</svg>
