<?xml version="1.0" encoding="UTF-8" standalone="no"?>
<!DOCTYPE svg PUBLIC "-//W3C//DTD SVG 1.1//EN"
 "http://www.w3.org/Graphics/SVG/1.1/DTD/svg11.dtd">
<!-- Generated by graphviz version 2.40.1 (20161225.0304)
 -->
<!-- Title: InheritanceGraph Pages: 1 -->
<svg width="479pt" height="212pt"
 viewBox="0.00 0.00 479.00 212.00" xmlns="http://www.w3.org/2000/svg" xmlns:xlink="http://www.w3.org/1999/xlink">
<g id="graph0" class="graph" transform="scale(1 1) rotate(0) translate(4 208)">
<title>InheritanceGraph</title>
<g id="clust1" class="cluster">
<title>cluster_builtins</title>
<path fill="transparent" stroke="#bcd2ee" stroke-width="2" stroke-dasharray="5,2" d="M20,-69C20,-69 49,-69 49,-69 55,-69 61,-75 61,-81 61,-81 61,-112 61,-112 61,-118 55,-124 49,-124 49,-124 20,-124 20,-124 14,-124 8,-118 8,-112 8,-112 8,-81 8,-81 8,-75 14,-69 20,-69"/>
<text text-anchor="middle" x="34.5" y="-112" font-family="Arial" font-size="10.00" fill="#000000">builtins</text>
</g>
<g id="clust2" class="cluster">
<title>cluster_supriya.daw</title>
<path fill="transparent" stroke="#bcd2ee" stroke-width="2" stroke-dasharray="5,2" d="M176.5,-8C176.5,-8 451,-8 451,-8 457,-8 463,-14 463,-20 463,-20 463,-99 463,-99 463,-105 457,-111 451,-111 451,-111 176.5,-111 176.5,-111 170.5,-111 164.5,-105 164.5,-99 164.5,-99 164.5,-20 164.5,-20 164.5,-14 170.5,-8 176.5,-8"/>
<text text-anchor="middle" x="313.75" y="-99" font-family="Arial" font-size="10.00" fill="#000000">supriya.daw</text>
</g>
<g id="clust3" class="cluster">
<title>cluster_uqbar.containers</title>
<path fill="transparent" stroke="#bcd2ee" stroke-width="2" stroke-dasharray="5,2" d="M93,-119C93,-119 287,-119 287,-119 293,-119 299,-125 299,-131 299,-131 299,-184 299,-184 299,-190 293,-196 287,-196 287,-196 93,-196 93,-196 87,-196 81,-190 81,-184 81,-184 81,-131 81,-131 81,-125 87,-119 93,-119"/>
<text text-anchor="middle" x="190" y="-184" font-family="Arial" font-size="10.00" fill="#000000">uqbar.containers</text>
</g>
<!-- builtins.object&#45;&gt;supriya.daw.MixerContext.MixerContext -->
<g id="edge7" class="edge">
<title>builtins.object&#45;&gt;supriya.daw.MixerContext.MixerContext</title>
<path fill="none" stroke="#778899" d="M53.147,-79.7865C78.1273,-70.3996 124.0083,-54.1227 164.5,-45 189.5568,-39.3547 218.4789,-35.7315 239.8544,-33.5886"/>
<polygon fill="#778899" stroke="#778899" points="240.3628,-37.0562 249.9872,-32.6267 239.7012,-30.0875 240.3628,-37.0562"/>
</g>
<!-- builtins.object&#45;&gt;uqbar.containers.UniqueTreeNode.UniqueTreeNode -->
<g id="edge8" class="edge">
<title>builtins.object&#45;&gt;uqbar.containers.UniqueTreeNode.UniqueTreeNode</title>
<path fill="none" stroke="#778899" d="M46.1406,-96.5313C55.3843,-104.0999 68.7061,-115.0076 80.7086,-124.8352"/>
<polygon fill="#778899" stroke="#778899" points="78.7863,-127.7849 88.741,-131.4121 83.221,-122.3688 78.7863,-127.7849"/>
</g>
<!-- supriya.daw.DawNode.DawNode&#45;&gt;supriya.daw.Device.Device -->
<g id="edge1" class="edge">
<title>supriya.daw.DawNode.DawNode&#45;&gt;supriya.daw.Device.Device</title>
<path fill="none" stroke="#778899" d="M206.7841,-70.0604C216.8009,-70.6749 229.6873,-71.4655 241.2843,-72.177"/>
<polygon fill="#778899" stroke="#778899" points="241.2572,-75.6818 251.4528,-72.8008 241.6859,-68.6949 241.2572,-75.6818"/>
</g>
<!-- supriya.daw.Device.Device&#45;&gt;supriya.daw.RackDevice.RackDevice -->
<g id="edge2" class="edge">
<title>supriya.daw.Device.Device&#45;&gt;supriya.daw.RackDevice.RackDevice</title>
<path fill="none" stroke="#778899" d="M290.7007,-72.7124C298.91,-72.1758 308.6235,-71.5409 317.6748,-70.9494"/>
<polygon fill="#778899" stroke="#778899" points="318.1157,-74.4281 327.8661,-70.2833 317.6591,-67.443 318.1157,-74.4281"/>
</g>
<!-- supriya.daw.MixerContext.MixerContext&#45;&gt;supriya.daw.RackDevice.RackDevice -->
<g id="edge3" class="edge">
<title>supriya.daw.MixerContext.MixerContext&#45;&gt;supriya.daw.RackDevice.RackDevice</title>
<path fill="none" stroke="#778899" d="M292.3095,-41.5851C300.4912,-45.6492 309.9688,-50.357 318.7365,-54.7123"/>
<polygon fill="#778899" stroke="#778899" points="317.3639,-57.9384 327.877,-59.2526 320.4781,-51.6693 317.3639,-57.9384"/>
</g>
<!-- supriya.daw.RackDevice.RackDevice&#45;&gt;supriya.daw.InstrumentRack.InstrumentRack -->
<g id="edge4" class="edge">
<title>supriya.daw.RackDevice.RackDevice&#45;&gt;supriya.daw.InstrumentRack.InstrumentRack</title>
<path fill="none" stroke="#778899" d="M367.2289,-69C374.949,-69 384.0552,-69 392.8694,-69"/>
<polygon fill="#778899" stroke="#778899" points="392.9818,-72.5001 402.9818,-69 392.9818,-65.5001 392.9818,-72.5001"/>
</g>
<!-- uqbar.containers.UniqueTreeContainer.UniqueTreeContainer&#45;&gt;uqbar.containers.UniqueTreeTuple.UniqueTreeTuple -->
<g id="edge5" class="edge">
<title>uqbar.containers.UniqueTreeContainer.UniqueTreeContainer&#45;&gt;uqbar.containers.UniqueTreeTuple.UniqueTreeTuple</title>
<path fill="none" stroke="#778899" d="M214.3955,-148C222.7156,-148 232.0803,-148 240.7619,-148"/>
<polygon fill="#778899" stroke="#778899" points="240.8965,-151.5001 250.8964,-148 240.8964,-144.5001 240.8965,-151.5001"/>
</g>
<!-- uqbar.containers.UniqueTreeNode.UniqueTreeNode&#45;&gt;supriya.daw.DawNode.DawNode -->
<g id="edge9" class="edge">
<title>uqbar.containers.UniqueTreeNode.UniqueTreeNode&#45;&gt;supriya.daw.DawNode.DawNode</title>
<path fill="none" stroke="#778899" d="M129.3135,-128.065C140.6995,-116.8912 154.9329,-102.923 166.6993,-91.3759"/>
<polygon fill="#778899" stroke="#778899" points="169.3347,-93.6934 174.0205,-84.1911 164.4317,-88.6973 169.3347,-93.6934"/>
</g>
<!-- uqbar.containers.UniqueTreeNode.UniqueTreeNode&#45;&gt;uqbar.containers.UniqueTreeContainer.UniqueTreeContainer -->
<g id="edge6" class="edge">
<title>uqbar.containers.UniqueTreeNode.UniqueTreeNode&#45;&gt;uqbar.containers.UniqueTreeContainer.UniqueTreeContainer</title>
<path fill="none" stroke="#778899" d="M129.3135,-148C136.9959,-148 145.9745,-148 154.617,-148"/>
<polygon fill="#778899" stroke="#778899" points="154.8826,-151.5001 164.8825,-148 154.8825,-144.5001 154.8826,-151.5001"/>
</g>
<!-- uqbar.containers.UniqueTreeTuple.UniqueTreeTuple&#45;&gt;supriya.daw.RackDevice.RackDevice -->
<g id="edge10" class="edge">
<title>uqbar.containers.UniqueTreeTuple.UniqueTreeTuple&#45;&gt;supriya.daw.RackDevice.RackDevice</title>
<path fill="none" stroke="#778899" d="M291.0995,-127.2437C301.7461,-116.2491 314.8351,-102.7324 325.7229,-91.4888"/>
<polygon fill="#778899" stroke="#778899" points="328.4097,-93.7455 332.8518,-84.1269 323.381,-88.8759 328.4097,-93.7455"/>
</g>
<!-- builtins.object -->
<g id="node1" class="node">
<title>builtins.object</title>
<g id="a_node1"><a xlink:href="https://docs.python.org/3.6/library/functions.html#object" xlink:title="object" target="_top">
<path fill="#fbb4ae" stroke="#fbb4ae" stroke-width="2" d="M46.6667,-96.5C46.6667,-96.5 22.3333,-96.5 22.3333,-96.5 19.1667,-96.5 16,-93.3333 16,-90.1667 16,-90.1667 16,-83.8333 16,-83.8333 16,-80.6667 19.1667,-77.5 22.3333,-77.5 22.3333,-77.5 46.6667,-77.5 46.6667,-77.5 49.8333,-77.5 53,-80.6667 53,-83.8333 53,-83.8333 53,-90.1667 53,-90.1667 53,-93.3333 49.8333,-96.5 46.6667,-96.5"/>
<text text-anchor="middle" x="34.5" y="-84.5" font-family="Arial" font-size="10.00" fill="#000000">object</text>
</a>
</g>
</g>
<!-- supriya.daw.DawNode.DawNode -->
<g id="node2" class="node">
<title>supriya.daw.DawNode.DawNode</title>
<g id="a_node2"><a xlink:href="../api/supriya/daw/DawNode.html#supriya.daw.DawNode.DawNode" xlink:title="Daw\nNode" target="_top">
<path fill="#b3cde3" stroke="#b3cde3" stroke-width="2" d="M196.5,-84C196.5,-84 182.5,-84 182.5,-84 177.5,-84 172.5,-79 172.5,-74 172.5,-74 172.5,-64 172.5,-64 172.5,-59 177.5,-54 182.5,-54 182.5,-54 196.5,-54 196.5,-54 201.5,-54 206.5,-59 206.5,-64 206.5,-64 206.5,-74 206.5,-74 206.5,-79 201.5,-84 196.5,-84"/>
<text text-anchor="middle" x="189.5" y="-72" font-family="Arial" font-size="10.00" fill="#000000">Daw</text>
<text text-anchor="middle" x="189.5" y="-61" font-family="Arial" font-size="10.00" fill="#000000">Node</text>
</a>
</g>
</g>
<!-- supriya.daw.Device.Device -->
<g id="node3" class="node">
<title>supriya.daw.Device.Device</title>
<g id="a_node3"><a xlink:href="../api/supriya/daw/Device.html#supriya.daw.Device.Device" xlink:title="Device" target="_top">
<path fill="#b3cde3" stroke="#b3cde3" stroke-width="2" d="M284.1667,-83.5C284.1667,-83.5 257.8333,-83.5 257.8333,-83.5 254.6667,-83.5 251.5,-80.3333 251.5,-77.1667 251.5,-77.1667 251.5,-70.8333 251.5,-70.8333 251.5,-67.6667 254.6667,-64.5 257.8333,-64.5 257.8333,-64.5 284.1667,-64.5 284.1667,-64.5 287.3333,-64.5 290.5,-67.6667 290.5,-70.8333 290.5,-70.8333 290.5,-77.1667 290.5,-77.1667 290.5,-80.3333 287.3333,-83.5 284.1667,-83.5"/>
<text text-anchor="middle" x="271" y="-71.5" font-family="Arial" font-size="10.00" fill="#000000">Device</text>
</a>
</g>
</g>
<!-- supriya.daw.InstrumentRack.InstrumentRack -->
<g id="node4" class="node">
<title>supriya.daw.InstrumentRack.InstrumentRack</title>
<g id="a_node4"><a xlink:href="../api/supriya/daw/InstrumentRack.html#supriya.daw.InstrumentRack.InstrumentRack" xlink:title="Instrument\nRack" target="_top">
<path fill="#000000" stroke="#000000" stroke-width="2" d="M445,-84C445,-84 413,-84 413,-84 408,-84 403,-79 403,-74 403,-74 403,-64 403,-64 403,-59 408,-54 413,-54 413,-54 445,-54 445,-54 450,-54 455,-59 455,-64 455,-64 455,-74 455,-74 455,-79 450,-84 445,-84"/>
<text text-anchor="middle" x="429" y="-72" font-family="Arial" font-size="10.00" fill="#ffffff">Instrument</text>
<text text-anchor="middle" x="429" y="-61" font-family="Arial" font-size="10.00" fill="#ffffff">Rack</text>
</a>
</g>
</g>
<!-- supriya.daw.MixerContext.MixerContext -->
<g id="node5" class="node">
<title>supriya.daw.MixerContext.MixerContext</title>
<g id="a_node5"><a xlink:href="../api/supriya/daw/MixerContext.html#supriya.daw.MixerContext.MixerContext" xlink:title="Mixer\nContext" target="_top">
<path fill="#b3cde3" stroke="#b3cde3" stroke-width="2" d="M282,-46C282,-46 260,-46 260,-46 255,-46 250,-41 250,-36 250,-36 250,-26 250,-26 250,-21 255,-16 260,-16 260,-16 282,-16 282,-16 287,-16 292,-21 292,-26 292,-26 292,-36 292,-36 292,-41 287,-46 282,-46"/>
<text text-anchor="middle" x="271" y="-34" font-family="Arial" font-size="10.00" fill="#000000">Mixer</text>
<text text-anchor="middle" x="271" y="-23" font-family="Arial" font-size="10.00" fill="#000000">Context</text>
</a>
</g>
</g>
<!-- supriya.daw.RackDevice.RackDevice -->
<g id="node6" class="node">
<title>supriya.daw.RackDevice.RackDevice</title>
<g id="a_node6"><a xlink:href="../api/supriya/daw/RackDevice.html#supriya.daw.RackDevice.RackDevice" xlink:title="Rack\nDevice" target="_top">
<path fill="#b3cde3" stroke="#b3cde3" stroke-width="2" d="M357,-84C357,-84 338,-84 338,-84 333,-84 328,-79 328,-74 328,-74 328,-64 328,-64 328,-59 333,-54 338,-54 338,-54 357,-54 357,-54 362,-54 367,-59 367,-64 367,-64 367,-74 367,-74 367,-79 362,-84 357,-84"/>
<text text-anchor="middle" x="347.5" y="-72" font-family="Arial" font-size="10.00" fill="#000000">Rack</text>
<text text-anchor="middle" x="347.5" y="-61" font-family="Arial" font-size="10.00" fill="#000000">Device</text>
</a>
</g>
</g>
<!-- uqbar.containers.UniqueTreeContainer.UniqueTreeContainer -->
<g id="node7" class="node">
<title>uqbar.containers.UniqueTreeContainer.UniqueTreeContainer</title>
<path fill="#ccebc5" stroke="#ccebc5" stroke-width="2" d="M202,-168.5C202,-168.5 177,-168.5 177,-168.5 171,-168.5 165,-162.5 165,-156.5 165,-156.5 165,-139.5 165,-139.5 165,-133.5 171,-127.5 177,-127.5 177,-127.5 202,-127.5 202,-127.5 208,-127.5 214,-133.5 214,-139.5 214,-139.5 214,-156.5 214,-156.5 214,-162.5 208,-168.5 202,-168.5"/>
<text text-anchor="middle" x="189.5" y="-156.5" font-family="Arial" font-size="10.00" fill="#000000">Unique</text>
<text text-anchor="middle" x="189.5" y="-145.5" font-family="Arial" font-size="10.00" fill="#000000">Tree</text>
<text text-anchor="middle" x="189.5" y="-134.5" font-family="Arial" font-size="10.00" fill="#000000">Container</text>
</g>
<!-- uqbar.containers.UniqueTreeNode.UniqueTreeNode -->
<g id="node8" class="node">
<title>uqbar.containers.UniqueTreeNode.UniqueTreeNode</title>
<path fill="#ccebc5" stroke="#ccebc5" stroke-width="2" d="M117,-168.5C117,-168.5 101,-168.5 101,-168.5 95,-168.5 89,-162.5 89,-156.5 89,-156.5 89,-139.5 89,-139.5 89,-133.5 95,-127.5 101,-127.5 101,-127.5 117,-127.5 117,-127.5 123,-127.5 129,-133.5 129,-139.5 129,-139.5 129,-156.5 129,-156.5 129,-162.5 123,-168.5 117,-168.5"/>
<text text-anchor="middle" x="109" y="-156.5" font-family="Arial" font-size="10.00" fill="#000000">Unique</text>
<text text-anchor="middle" x="109" y="-145.5" font-family="Arial" font-size="10.00" fill="#000000">Tree</text>
<text text-anchor="middle" x="109" y="-134.5" font-family="Arial" font-size="10.00" fill="#000000">Node</text>
</g>
<!-- uqbar.containers.UniqueTreeTuple.UniqueTreeTuple -->
<g id="node9" class="node">
<title>uqbar.containers.UniqueTreeTuple.UniqueTreeTuple</title>
<path fill="#ccebc5" stroke="#ccebc5" stroke-width="2" d="M279,-168.5C279,-168.5 263,-168.5 263,-168.5 257,-168.5 251,-162.5 251,-156.5 251,-156.5 251,-139.5 251,-139.5 251,-133.5 257,-127.5 263,-127.5 263,-127.5 279,-127.5 279,-127.5 285,-127.5 291,-133.5 291,-139.5 291,-139.5 291,-156.5 291,-156.5 291,-162.5 285,-168.5 279,-168.5"/>
<text text-anchor="middle" x="271" y="-156.5" font-family="Arial" font-size="10.00" fill="#000000">Unique</text>
<text text-anchor="middle" x="271" y="-145.5" font-family="Arial" font-size="10.00" fill="#000000">Tree</text>
<text text-anchor="middle" x="271" y="-134.5" font-family="Arial" font-size="10.00" fill="#000000">Tuple</text>
</g>
</g>
</svg>
