<?xml version="1.0" encoding="UTF-8" standalone="no"?>
<!DOCTYPE svg PUBLIC "-//W3C//DTD SVG 1.1//EN"
 "http://www.w3.org/Graphics/SVG/1.1/DTD/svg11.dtd">
<!-- Generated by graphviz version 2.40.1 (20161225.0304)
 -->
<!-- Title: InheritanceGraph Pages: 1 -->
<svg width="294pt" height="267pt"
 viewBox="0.00 0.00 294.00 267.00" xmlns="http://www.w3.org/2000/svg" xmlns:xlink="http://www.w3.org/1999/xlink">
<g id="graph0" class="graph" transform="scale(1 1) rotate(0) translate(4 263)">
<title>InheritanceGraph</title>
<g id="clust1" class="cluster">
<title>cluster_builtins</title>
<path fill="transparent" stroke="#bcd2ee" stroke-width="2" stroke-dasharray="5,2" d="M20,-120C20,-120 49,-120 49,-120 55,-120 61,-126 61,-132 61,-132 61,-163 61,-163 61,-169 55,-175 49,-175 49,-175 20,-175 20,-175 14,-175 8,-169 8,-163 8,-163 8,-132 8,-132 8,-126 14,-120 20,-120"/>
<text text-anchor="middle" x="34.5" y="-163" font-family="Arial" font-size="10.00" fill="#000000">builtins</text>
</g>
<g id="clust2" class="cluster">
<title>cluster_supriya.intervals</title>
<path fill="transparent" stroke="#bcd2ee" stroke-width="2" stroke-dasharray="5,2" d="M217,-8C217,-8 266,-8 266,-8 272,-8 278,-14 278,-20 278,-20 278,-239 278,-239 278,-245 272,-251 266,-251 266,-251 217,-251 217,-251 211,-251 205,-245 205,-239 205,-239 205,-20 205,-20 205,-14 211,-8 217,-8"/>
<text text-anchor="middle" x="241.5" y="-239" font-family="Arial" font-size="10.00" fill="#000000">supriya.intervals</text>
</g>
<g id="clust3" class="cluster">
<title>cluster_supriya.system</title>
<path fill="transparent" stroke="#bcd2ee" stroke-width="2" stroke-dasharray="5,2" d="M93,-55C93,-55 136,-55 136,-55 142,-55 148,-61 148,-67 148,-67 148,-108 148,-108 148,-114 142,-120 136,-120 136,-120 93,-120 93,-120 87,-120 81,-114 81,-108 81,-108 81,-67 81,-67 81,-61 87,-55 93,-55"/>
<text text-anchor="middle" x="114.5" y="-108" font-family="Arial" font-size="10.00" fill="#000000">supriya.system</text>
</g>
<!-- builtins.object&#45;&gt;supriya.intervals.TimespanCollectionDriver.TimespanCollectionDriver -->
<g id="edge1" class="edge">
<title>builtins.object&#45;&gt;supriya.intervals.TimespanCollectionDriver.TimespanCollectionDriver</title>
<path fill="none" stroke="#778899" d="M53.235,-143.883C88.0431,-154.8131 163.1488,-178.397 207.253,-192.2461"/>
<polygon fill="#778899" stroke="#778899" points="206.3722,-195.638 216.9615,-195.2947 208.4694,-188.9595 206.3722,-195.638"/>
</g>
<!-- builtins.object&#45;&gt;supriya.intervals.TimespanCollectionDriverEx.TimespanCollectionDriverEx -->
<g id="edge2" class="edge">
<title>builtins.object&#45;&gt;supriya.intervals.TimespanCollectionDriverEx.TimespanCollectionDriverEx</title>
<path fill="none" stroke="#778899" d="M53.235,-138C87.8966,-138 162.5171,-138 206.6943,-138"/>
<polygon fill="#778899" stroke="#778899" points="206.9615,-141.5001 216.9615,-138 206.9614,-134.5001 206.9615,-141.5001"/>
</g>
<!-- builtins.object&#45;&gt;supriya.system.SupriyaObject.SupriyaObject -->
<g id="edge3" class="edge">
<title>builtins.object&#45;&gt;supriya.system.SupriyaObject.SupriyaObject</title>
<path fill="none" stroke="#778899" d="M47.2731,-128.36C57.6426,-120.5339 72.6497,-109.2078 85.8067,-99.278"/>
<polygon fill="#778899" stroke="#778899" points="88.2448,-101.8229 94.1183,-93.0051 84.0279,-96.2355 88.2448,-101.8229"/>
</g>
<!-- supriya.system.SupriyaObject.SupriyaObject&#45;&gt;supriya.intervals.TimespanCollection.TimespanCollection -->
<g id="edge4" class="edge">
<title>supriya.system.SupriyaObject.SupriyaObject&#45;&gt;supriya.intervals.TimespanCollection.TimespanCollection</title>
<path fill="none" stroke="#778899" d="M135.054,-78.1651C154.5588,-78.3181 183.9323,-78.5485 206.8856,-78.7285"/>
<polygon fill="#778899" stroke="#778899" points="206.8943,-82.2286 216.9214,-78.8072 206.9492,-75.2288 206.8943,-82.2286"/>
</g>
<!-- supriya.system.SupriyaObject.SupriyaObject&#45;&gt;supriya.intervals.TimespanSimultaneity.TimespanSimultaneity -->
<g id="edge5" class="edge">
<title>supriya.system.SupriyaObject.SupriyaObject&#45;&gt;supriya.intervals.TimespanSimultaneity.TimespanSimultaneity</title>
<path fill="none" stroke="#778899" d="M135.054,-70.2389C153.5377,-63.4253 180.8837,-53.3448 203.2301,-45.1074"/>
<polygon fill="#778899" stroke="#778899" points="204.605,-48.3308 212.7772,-41.588 202.1838,-41.7628 204.605,-48.3308"/>
</g>
<!-- builtins.object -->
<g id="node1" class="node">
<title>builtins.object</title>
<g id="a_node1"><a xlink:href="https://docs.python.org/3.6/library/functions.html#object" xlink:title="object" target="_top">
<path fill="#fbb4ae" stroke="#fbb4ae" stroke-width="2" d="M46.6667,-147.5C46.6667,-147.5 22.3333,-147.5 22.3333,-147.5 19.1667,-147.5 16,-144.3333 16,-141.1667 16,-141.1667 16,-134.8333 16,-134.8333 16,-131.6667 19.1667,-128.5 22.3333,-128.5 22.3333,-128.5 46.6667,-128.5 46.6667,-128.5 49.8333,-128.5 53,-131.6667 53,-134.8333 53,-134.8333 53,-141.1667 53,-141.1667 53,-144.3333 49.8333,-147.5 46.6667,-147.5"/>
<text text-anchor="middle" x="34.5" y="-135.5" font-family="Arial" font-size="10.00" fill="#000000">object</text>
</a>
</g>
</g>
<!-- supriya.intervals.TimespanCollection.TimespanCollection -->
<g id="node2" class="node">
<title>supriya.intervals.TimespanCollection.TimespanCollection</title>
<g id="a_node2"><a xlink:href="../api/supriya/intervals/TimespanCollection.html#supriya.intervals.TimespanCollection.TimespanCollection" xlink:title="Timespan\nCollection" target="_top">
<path fill="#000000" stroke="#000000" stroke-width="2" d="M256,-94C256,-94 227,-94 227,-94 222,-94 217,-89 217,-84 217,-84 217,-74 217,-74 217,-69 222,-64 227,-64 227,-64 256,-64 256,-64 261,-64 266,-69 266,-74 266,-74 266,-84 266,-84 266,-89 261,-94 256,-94"/>
<text text-anchor="middle" x="241.5" y="-82" font-family="Arial" font-size="10.00" fill="#ffffff">Timespan</text>
<text text-anchor="middle" x="241.5" y="-71" font-family="Arial" font-size="10.00" fill="#ffffff">Collection</text>
</a>
</g>
</g>
<!-- supriya.intervals.TimespanCollectionDriver.TimespanCollectionDriver -->
<g id="node3" class="node">
<title>supriya.intervals.TimespanCollectionDriver.TimespanCollectionDriver</title>
<g id="a_node3"><a xlink:href="../api/supriya/intervals/TimespanCollectionDriver.html#supriya.intervals.TimespanCollectionDriver.TimespanCollectionDriver" xlink:title="Timespan\nCollection\nDriver" target="_top">
<path fill="#000000" stroke="#000000" stroke-width="2" d="M254,-223.5C254,-223.5 229,-223.5 229,-223.5 223,-223.5 217,-217.5 217,-211.5 217,-211.5 217,-194.5 217,-194.5 217,-188.5 223,-182.5 229,-182.5 229,-182.5 254,-182.5 254,-182.5 260,-182.5 266,-188.5 266,-194.5 266,-194.5 266,-211.5 266,-211.5 266,-217.5 260,-223.5 254,-223.5"/>
<text text-anchor="middle" x="241.5" y="-211.5" font-family="Arial" font-size="10.00" fill="#ffffff">Timespan</text>
<text text-anchor="middle" x="241.5" y="-200.5" font-family="Arial" font-size="10.00" fill="#ffffff">Collection</text>
<text text-anchor="middle" x="241.5" y="-189.5" font-family="Arial" font-size="10.00" fill="#ffffff">Driver</text>
</a>
</g>
</g>
<!-- supriya.intervals.TimespanCollectionDriverEx.TimespanCollectionDriverEx -->
<g id="node4" class="node">
<title>supriya.intervals.TimespanCollectionDriverEx.TimespanCollectionDriverEx</title>
<g id="a_node4"><a xlink:href="../api/supriya/intervals/TimespanCollectionDriverEx.html#supriya.intervals.TimespanCollectionDriverEx.TimespanCollectionDriverEx" xlink:title="Timespan\nCollection\nDriver\nEx" target="_top">
<path fill="#000000" stroke="#000000" stroke-width="2" d="M254,-164C254,-164 229,-164 229,-164 223,-164 217,-158 217,-152 217,-152 217,-124 217,-124 217,-118 223,-112 229,-112 229,-112 254,-112 254,-112 260,-112 266,-118 266,-124 266,-124 266,-152 266,-152 266,-158 260,-164 254,-164"/>
<text text-anchor="middle" x="241.5" y="-152" font-family="Arial" font-size="10.00" fill="#ffffff">Timespan</text>
<text text-anchor="middle" x="241.5" y="-141" font-family="Arial" font-size="10.00" fill="#ffffff">Collection</text>
<text text-anchor="middle" x="241.5" y="-130" font-family="Arial" font-size="10.00" fill="#ffffff">Driver</text>
<text text-anchor="middle" x="241.5" y="-119" font-family="Arial" font-size="10.00" fill="#ffffff">Ex</text>
</a>
</g>
</g>
<!-- supriya.intervals.TimespanSimultaneity.TimespanSimultaneity -->
<g id="node5" class="node">
<title>supriya.intervals.TimespanSimultaneity.TimespanSimultaneity</title>
<g id="a_node5"><a xlink:href="../api/supriya/intervals/TimespanSimultaneity.html#supriya.intervals.TimespanSimultaneity.TimespanSimultaneity" xlink:title="Timespan\nSimultaneity" target="_top">
<path fill="#000000" stroke="#000000" stroke-width="2" d="M260,-46C260,-46 223,-46 223,-46 218,-46 213,-41 213,-36 213,-36 213,-26 213,-26 213,-21 218,-16 223,-16 223,-16 260,-16 260,-16 265,-16 270,-21 270,-26 270,-26 270,-36 270,-36 270,-41 265,-46 260,-46"/>
<text text-anchor="middle" x="241.5" y="-34" font-family="Arial" font-size="10.00" fill="#ffffff">Timespan</text>
<text text-anchor="middle" x="241.5" y="-23" font-family="Arial" font-size="10.00" fill="#ffffff">Simultaneity</text>
</a>
</g>
</g>
<!-- supriya.system.SupriyaObject.SupriyaObject -->
<g id="node6" class="node">
<title>supriya.system.SupriyaObject.SupriyaObject</title>
<g id="a_node6"><a xlink:href="../api/supriya/intervals/../system/SupriyaObject.html#supriya.system.SupriyaObject.SupriyaObject" xlink:title="Supriya\nObject" target="_top">
<path fill="#ccebc5" stroke="#ccebc5" stroke-width="2" d="M125,-93C125,-93 103,-93 103,-93 98,-93 93,-88 93,-83 93,-83 93,-73 93,-73 93,-68 98,-63 103,-63 103,-63 125,-63 125,-63 130,-63 135,-68 135,-73 135,-73 135,-83 135,-83 135,-88 130,-93 125,-93"/>
<text text-anchor="middle" x="114" y="-81" font-family="Arial" font-size="10.00" fill="#000000">Supriya</text>
<text text-anchor="middle" x="114" y="-70" font-family="Arial" font-size="10.00" fill="#000000">Object</text>
</a>
</g>
</g>
</g>
</svg>
