<?xml version="1.0" encoding="UTF-8" standalone="no"?>
<!DOCTYPE svg PUBLIC "-//W3C//DTD SVG 1.1//EN"
 "http://www.w3.org/Graphics/SVG/1.1/DTD/svg11.dtd">
<!-- Generated by graphviz version 2.40.1 (20161225.0304)
 -->
<!-- Title: InheritanceGraph Pages: 1 -->
<svg width="660pt" height="289pt"
 viewBox="0.00 0.00 659.82 289.00" xmlns="http://www.w3.org/2000/svg" xmlns:xlink="http://www.w3.org/1999/xlink">
<g id="graph0" class="graph" transform="scale(1 1) rotate(0) translate(4 285)">
<title>InheritanceGraph</title>
<g id="clust1" class="cluster">
<title>cluster_builtins</title>
<path fill="transparent" stroke="#bcd2ee" stroke-width="2" stroke-dasharray="5,2" d="M20,-99C20,-99 49,-99 49,-99 55,-99 61,-105 61,-111 61,-111 61,-142 61,-142 61,-148 55,-154 49,-154 49,-154 20,-154 20,-154 14,-154 8,-148 8,-142 8,-142 8,-111 8,-111 8,-105 14,-99 20,-99"/>
<text text-anchor="middle" x="34.5" y="-142" font-family="Arial" font-size="10.00" fill="#000000">builtins</text>
</g>
<g id="clust2" class="cluster">
<title>cluster_supriya.synthdefs</title>
<path fill="transparent" stroke="#bcd2ee" stroke-width="2" stroke-dasharray="5,2" d="M180,-88C180,-88 231,-88 231,-88 237,-88 243,-94 243,-100 243,-100 243,-153 243,-153 243,-159 237,-165 231,-165 231,-165 180,-165 180,-165 174,-165 168,-159 168,-153 168,-153 168,-100 168,-100 168,-94 174,-88 180,-88"/>
<text text-anchor="middle" x="205.5" y="-153" font-family="Arial" font-size="10.00" fill="#000000">supriya.synthdefs</text>
</g>
<g id="clust3" class="cluster">
<title>cluster_supriya.system</title>
<path fill="transparent" stroke="#bcd2ee" stroke-width="2" stroke-dasharray="5,2" d="M93,-94C93,-94 136,-94 136,-94 142,-94 148,-100 148,-106 148,-106 148,-147 148,-147 148,-153 142,-159 136,-159 136,-159 93,-159 93,-159 87,-159 81,-153 81,-147 81,-147 81,-106 81,-106 81,-100 87,-94 93,-94"/>
<text text-anchor="middle" x="114.5" y="-147" font-family="Arial" font-size="10.00" fill="#000000">supriya.system</text>
</g>
<g id="clust4" class="cluster">
<title>cluster_supriya.ugens</title>
<path fill="transparent" stroke="#bcd2ee" stroke-width="2" stroke-dasharray="5,2" d="M275,-8C275,-8 631.8234,-8 631.8234,-8 637.8234,-8 643.8234,-14 643.8234,-20 643.8234,-20 643.8234,-261 643.8234,-261 643.8234,-267 637.8234,-273 631.8234,-273 631.8234,-273 275,-273 275,-273 269,-273 263,-267 263,-261 263,-261 263,-20 263,-20 263,-14 269,-8 275,-8"/>
<text text-anchor="middle" x="453.4117" y="-261" font-family="Arial" font-size="10.00" fill="#000000">supriya.ugens</text>
</g>
<!-- builtins.object&#45;&gt;supriya.system.SupriyaObject.SupriyaObject -->
<g id="edge8" class="edge">
<title>builtins.object&#45;&gt;supriya.system.SupriyaObject.SupriyaObject</title>
<path fill="none" stroke="#778899" d="M53.3404,-117C62.0401,-117 72.6079,-117 82.4698,-117"/>
<polygon fill="#778899" stroke="#778899" points="82.7722,-120.5001 92.7722,-117 82.7721,-113.5001 82.7722,-120.5001"/>
</g>
<!-- supriya.synthdefs.UGenMethodMixin.UGenMethodMixin&#45;&gt;supriya.ugens.UGen.UGen -->
<g id="edge9" class="edge">
<title>supriya.synthdefs.UGenMethodMixin.UGenMethodMixin&#45;&gt;supriya.ugens.UGen.UGen</title>
<path fill="none" stroke="#778899" d="M226.2117,-117C236.3925,-117 248.8752,-117 260.4793,-117"/>
<polygon fill="#778899" stroke="#778899" points="260.7979,-120.5001 270.7978,-117 260.7978,-113.5001 260.7979,-120.5001"/>
</g>
<!-- supriya.system.SupriyaObject.SupriyaObject&#45;&gt;supriya.synthdefs.UGenMethodMixin.UGenMethodMixin -->
<g id="edge10" class="edge">
<title>supriya.system.SupriyaObject.SupriyaObject&#45;&gt;supriya.synthdefs.UGenMethodMixin.UGenMethodMixin</title>
<path fill="none" stroke="#778899" d="M135.106,-117C146.5093,-117 160.815,-117 173.5087,-117"/>
<polygon fill="#778899" stroke="#778899" points="173.6933,-120.5001 183.6933,-117 173.6932,-113.5001 173.6933,-120.5001"/>
</g>
<!-- supriya.ugens.PV_ChainUGen.PV_ChainUGen&#45;&gt;supriya.ugens.PV_MagSquared.PV_MagSquared -->
<g id="edge1" class="edge">
<title>supriya.ugens.PV_ChainUGen.PV_ChainUGen&#45;&gt;supriya.ugens.PV_MagSquared.PV_MagSquared</title>
<path fill="none" stroke="#778899" d="M480.9528,-117C488.638,-117 497.8382,-117 506.637,-117"/>
<polygon fill="#778899" stroke="#778899" points="506.6669,-120.5001 516.6668,-117 506.6668,-113.5001 506.6669,-120.5001"/>
</g>
<!-- supriya.ugens.PV_MagSquared.PV_MagSquared&#45;&gt;supriya.ugens.PV_Conj.PV_Conj -->
<g id="edge2" class="edge">
<title>supriya.ugens.PV_MagSquared.PV_MagSquared&#45;&gt;supriya.ugens.PV_Conj.PV_Conj</title>
<path fill="none" stroke="#778899" d="M558.084,-96.1818C569.5843,-83.4201 584.3195,-67.0688 596.1543,-53.936"/>
<polygon fill="#778899" stroke="#778899" points="598.999,-56.0075 603.0935,-46.2358 593.799,-51.3214 598.999,-56.0075"/>
</g>
<!-- supriya.ugens.PV_MagSquared.PV_MagSquared&#45;&gt;supriya.ugens.PV_MagNoise.PV_MagNoise -->
<g id="edge3" class="edge">
<title>supriya.ugens.PV_MagSquared.PV_MagSquared&#45;&gt;supriya.ugens.PV_MagNoise.PV_MagNoise</title>
<path fill="none" stroke="#778899" d="M562.1568,-107.572C570.7476,-104.0248 580.6018,-99.956 589.5565,-96.2586"/>
<polygon fill="#778899" stroke="#778899" points="590.9107,-99.4861 598.818,-92.4345 588.2392,-93.0159 590.9107,-99.4861"/>
</g>
<!-- supriya.ugens.PV_MagSquared.PV_MagSquared&#45;&gt;supriya.ugens.PV_PhaseShift270.PV_PhaseShift270 -->
<g id="edge4" class="edge">
<title>supriya.ugens.PV_MagSquared.PV_MagSquared&#45;&gt;supriya.ugens.PV_PhaseShift270.PV_PhaseShift270</title>
<path fill="none" stroke="#778899" d="M562.1568,-126.7226C570.3967,-130.2312 579.7988,-134.2347 588.4548,-137.9205"/>
<polygon fill="#778899" stroke="#778899" points="587.2371,-141.206 597.8089,-141.9035 589.9795,-134.7656 587.2371,-141.206"/>
</g>
<!-- supriya.ugens.PV_MagSquared.PV_MagSquared&#45;&gt;supriya.ugens.PV_PhaseShift90.PV_PhaseShift90 -->
<g id="edge5" class="edge">
<title>supriya.ugens.PV_MagSquared.PV_MagSquared&#45;&gt;supriya.ugens.PV_PhaseShift90.PV_PhaseShift90</title>
<path fill="none" stroke="#778899" d="M555.0067,-137.8436C565.4774,-151.7595 579.481,-170.3708 591.5121,-186.3604"/>
<polygon fill="#778899" stroke="#778899" points="588.7853,-188.5579 597.5945,-194.4442 594.3788,-184.3492 588.7853,-188.5579"/>
</g>
<!-- supriya.ugens.UGen.UGen&#45;&gt;supriya.ugens.WidthFirstUGen.WidthFirstUGen -->
<g id="edge6" class="edge">
<title>supriya.ugens.UGen.UGen&#45;&gt;supriya.ugens.WidthFirstUGen.WidthFirstUGen</title>
<path fill="none" stroke="#778899" d="M322.0621,-117C330.0361,-117 338.9805,-117 347.5203,-117"/>
<polygon fill="#778899" stroke="#778899" points="347.644,-120.5001 357.6439,-117 347.6439,-113.5001 347.644,-120.5001"/>
</g>
<!-- supriya.ugens.WidthFirstUGen.WidthFirstUGen&#45;&gt;supriya.ugens.PV_ChainUGen.PV_ChainUGen -->
<g id="edge7" class="edge">
<title>supriya.ugens.WidthFirstUGen.WidthFirstUGen&#45;&gt;supriya.ugens.PV_ChainUGen.PV_ChainUGen</title>
<path fill="none" stroke="#778899" d="M408.9452,-117C417.1111,-117 426.1945,-117 434.541,-117"/>
<polygon fill="#778899" stroke="#778899" points="434.5946,-120.5001 444.5946,-117 434.5946,-113.5001 434.5946,-120.5001"/>
</g>
<!-- builtins.object -->
<g id="node1" class="node">
<title>builtins.object</title>
<g id="a_node1"><a xlink:href="https://docs.python.org/3.6/library/functions.html#object" xlink:title="object" target="_top">
<path fill="#fbb4ae" stroke="#fbb4ae" stroke-width="2" d="M46.6667,-126.5C46.6667,-126.5 22.3333,-126.5 22.3333,-126.5 19.1667,-126.5 16,-123.3333 16,-120.1667 16,-120.1667 16,-113.8333 16,-113.8333 16,-110.6667 19.1667,-107.5 22.3333,-107.5 22.3333,-107.5 46.6667,-107.5 46.6667,-107.5 49.8333,-107.5 53,-110.6667 53,-113.8333 53,-113.8333 53,-120.1667 53,-120.1667 53,-123.3333 49.8333,-126.5 46.6667,-126.5"/>
<text text-anchor="middle" x="34.5" y="-114.5" font-family="Arial" font-size="10.00" fill="#000000">object</text>
</a>
</g>
</g>
<!-- supriya.synthdefs.UGenMethodMixin.UGenMethodMixin -->
<g id="node2" class="node">
<title>supriya.synthdefs.UGenMethodMixin.UGenMethodMixin</title>
<g id="a_node2"><a xlink:href="../api/supriya/ugens/../synthdefs/UGenMethodMixin.html#supriya.synthdefs.UGenMethodMixin.UGenMethodMixin" xlink:title="UGen\nMethod\nMixin" target="_top">
<path fill="#b3cde3" stroke="#b3cde3" stroke-width="2" d="M214,-137.5C214,-137.5 196,-137.5 196,-137.5 190,-137.5 184,-131.5 184,-125.5 184,-125.5 184,-108.5 184,-108.5 184,-102.5 190,-96.5 196,-96.5 196,-96.5 214,-96.5 214,-96.5 220,-96.5 226,-102.5 226,-108.5 226,-108.5 226,-125.5 226,-125.5 226,-131.5 220,-137.5 214,-137.5"/>
<text text-anchor="middle" x="205" y="-125.5" font-family="Arial" font-size="10.00" fill="#000000">UGen</text>
<text text-anchor="middle" x="205" y="-114.5" font-family="Arial" font-size="10.00" fill="#000000">Method</text>
<text text-anchor="middle" x="205" y="-103.5" font-family="Arial" font-size="10.00" fill="#000000">Mixin</text>
</a>
</g>
</g>
<!-- supriya.system.SupriyaObject.SupriyaObject -->
<g id="node3" class="node">
<title>supriya.system.SupriyaObject.SupriyaObject</title>
<g id="a_node3"><a xlink:href="../api/supriya/ugens/../system/SupriyaObject.html#supriya.system.SupriyaObject.SupriyaObject" xlink:title="Supriya\nObject" target="_top">
<path fill="#ccebc5" stroke="#ccebc5" stroke-width="2" d="M125,-132C125,-132 103,-132 103,-132 98,-132 93,-127 93,-122 93,-122 93,-112 93,-112 93,-107 98,-102 103,-102 103,-102 125,-102 125,-102 130,-102 135,-107 135,-112 135,-112 135,-122 135,-122 135,-127 130,-132 125,-132"/>
<text text-anchor="middle" x="114" y="-120" font-family="Arial" font-size="10.00" fill="#000000">Supriya</text>
<text text-anchor="middle" x="114" y="-109" font-family="Arial" font-size="10.00" fill="#000000">Object</text>
</a>
</g>
</g>
<!-- supriya.ugens.PV_ChainUGen.PV_ChainUGen -->
<g id="node4" class="node">
<title>supriya.ugens.PV_ChainUGen.PV_ChainUGen</title>
<g id="a_node4"><a xlink:href="../api/supriya/ugens/PV_ChainUGen.html#supriya.ugens.PV_ChainUGen.PV_ChainUGen" xlink:title="PV\nChain\nUGen" target="_top">
<path fill="#decbe4" stroke="#decbe4" stroke-width="2" d="M468.8234,-137.5C468.8234,-137.5 456.8234,-137.5 456.8234,-137.5 450.8234,-137.5 444.8234,-131.5 444.8234,-125.5 444.8234,-125.5 444.8234,-108.5 444.8234,-108.5 444.8234,-102.5 450.8234,-96.5 456.8234,-96.5 456.8234,-96.5 468.8234,-96.5 468.8234,-96.5 474.8234,-96.5 480.8234,-102.5 480.8234,-108.5 480.8234,-108.5 480.8234,-125.5 480.8234,-125.5 480.8234,-131.5 474.8234,-137.5 468.8234,-137.5"/>
<text text-anchor="middle" x="462.8234" y="-125.5" font-family="Arial" font-size="10.00" fill="#000000">PV</text>
<text text-anchor="middle" x="462.8234" y="-114.5" font-family="Arial" font-size="10.00" fill="#000000">Chain</text>
<text text-anchor="middle" x="462.8234" y="-103.5" font-family="Arial" font-size="10.00" fill="#000000">UGen</text>
</a>
</g>
</g>
<!-- supriya.ugens.PV_Conj.PV_Conj -->
<g id="node5" class="node">
<title>supriya.ugens.PV_Conj.PV_Conj</title>
<g id="a_node5"><a xlink:href="../api/supriya/ugens/PV_Conj.html#supriya.ugens.PV_Conj.PV_Conj" xlink:title="PV\nConj" target="_top">
<path fill="#decbe4" stroke="#decbe4" stroke-width="2" d="M622.8234,-46C622.8234,-46 610.8234,-46 610.8234,-46 605.8234,-46 600.8234,-41 600.8234,-36 600.8234,-36 600.8234,-26 600.8234,-26 600.8234,-21 605.8234,-16 610.8234,-16 610.8234,-16 622.8234,-16 622.8234,-16 627.8234,-16 632.8234,-21 632.8234,-26 632.8234,-26 632.8234,-36 632.8234,-36 632.8234,-41 627.8234,-46 622.8234,-46"/>
<text text-anchor="middle" x="616.8234" y="-34" font-family="Arial" font-size="10.00" fill="#000000">PV</text>
<text text-anchor="middle" x="616.8234" y="-23" font-family="Arial" font-size="10.00" fill="#000000">Conj</text>
</a>
</g>
</g>
<!-- supriya.ugens.PV_MagNoise.PV_MagNoise -->
<g id="node6" class="node">
<title>supriya.ugens.PV_MagNoise.PV_MagNoise</title>
<g id="a_node6"><a xlink:href="../api/supriya/ugens/PV_MagNoise.html#supriya.ugens.PV_MagNoise.PV_MagNoise" xlink:title="PV\nMag\nNoise" target="_top">
<path fill="#decbe4" stroke="#decbe4" stroke-width="2" d="M622.8234,-105.5C622.8234,-105.5 610.8234,-105.5 610.8234,-105.5 604.8234,-105.5 598.8234,-99.5 598.8234,-93.5 598.8234,-93.5 598.8234,-76.5 598.8234,-76.5 598.8234,-70.5 604.8234,-64.5 610.8234,-64.5 610.8234,-64.5 622.8234,-64.5 622.8234,-64.5 628.8234,-64.5 634.8234,-70.5 634.8234,-76.5 634.8234,-76.5 634.8234,-93.5 634.8234,-93.5 634.8234,-99.5 628.8234,-105.5 622.8234,-105.5"/>
<text text-anchor="middle" x="616.8234" y="-93.5" font-family="Arial" font-size="10.00" fill="#000000">PV</text>
<text text-anchor="middle" x="616.8234" y="-82.5" font-family="Arial" font-size="10.00" fill="#000000">Mag</text>
<text text-anchor="middle" x="616.8234" y="-71.5" font-family="Arial" font-size="10.00" fill="#000000">Noise</text>
</a>
</g>
</g>
<!-- supriya.ugens.PV_MagSquared.PV_MagSquared -->
<g id="node7" class="node">
<title>supriya.ugens.PV_MagSquared.PV_MagSquared</title>
<g id="a_node7"><a xlink:href="../api/supriya/ugens/PV_MagSquared.html#supriya.ugens.PV_MagSquared.PV_MagSquared" xlink:title="PV\nMag\nSquared" target="_top">
<path fill="#000000" stroke="#000000" stroke-width="2" d="M549.8234,-137.5C549.8234,-137.5 528.8234,-137.5 528.8234,-137.5 522.8234,-137.5 516.8234,-131.5 516.8234,-125.5 516.8234,-125.5 516.8234,-108.5 516.8234,-108.5 516.8234,-102.5 522.8234,-96.5 528.8234,-96.5 528.8234,-96.5 549.8234,-96.5 549.8234,-96.5 555.8234,-96.5 561.8234,-102.5 561.8234,-108.5 561.8234,-108.5 561.8234,-125.5 561.8234,-125.5 561.8234,-131.5 555.8234,-137.5 549.8234,-137.5"/>
<text text-anchor="middle" x="539.3234" y="-125.5" font-family="Arial" font-size="10.00" fill="#ffffff">PV</text>
<text text-anchor="middle" x="539.3234" y="-114.5" font-family="Arial" font-size="10.00" fill="#ffffff">Mag</text>
<text text-anchor="middle" x="539.3234" y="-103.5" font-family="Arial" font-size="10.00" fill="#ffffff">Squared</text>
</a>
</g>
</g>
<!-- supriya.ugens.PV_PhaseShift270.PV_PhaseShift270 -->
<g id="node8" class="node">
<title>supriya.ugens.PV_PhaseShift270.PV_PhaseShift270</title>
<g id="a_node8"><a xlink:href="../api/supriya/ugens/PV_PhaseShift270.html#supriya.ugens.PV_PhaseShift270.PV_PhaseShift270" xlink:title="PV\nPhase\nShift\n270" target="_top">
<path fill="#decbe4" stroke="#decbe4" stroke-width="2" d="M623.8234,-176C623.8234,-176 609.8234,-176 609.8234,-176 603.8234,-176 597.8234,-170 597.8234,-164 597.8234,-164 597.8234,-136 597.8234,-136 597.8234,-130 603.8234,-124 609.8234,-124 609.8234,-124 623.8234,-124 623.8234,-124 629.8234,-124 635.8234,-130 635.8234,-136 635.8234,-136 635.8234,-164 635.8234,-164 635.8234,-170 629.8234,-176 623.8234,-176"/>
<text text-anchor="middle" x="616.8234" y="-164" font-family="Arial" font-size="10.00" fill="#000000">PV</text>
<text text-anchor="middle" x="616.8234" y="-153" font-family="Arial" font-size="10.00" fill="#000000">Phase</text>
<text text-anchor="middle" x="616.8234" y="-142" font-family="Arial" font-size="10.00" fill="#000000">Shift</text>
<text text-anchor="middle" x="616.8234" y="-131" font-family="Arial" font-size="10.00" fill="#000000">270</text>
</a>
</g>
</g>
<!-- supriya.ugens.PV_PhaseShift90.PV_PhaseShift90 -->
<g id="node9" class="node">
<title>supriya.ugens.PV_PhaseShift90.PV_PhaseShift90</title>
<g id="a_node9"><a xlink:href="../api/supriya/ugens/PV_PhaseShift90.html#supriya.ugens.PV_PhaseShift90.PV_PhaseShift90" xlink:title="PV\nPhase\nShift\n90" target="_top">
<path fill="#decbe4" stroke="#decbe4" stroke-width="2" d="M623.8234,-246C623.8234,-246 609.8234,-246 609.8234,-246 603.8234,-246 597.8234,-240 597.8234,-234 597.8234,-234 597.8234,-206 597.8234,-206 597.8234,-200 603.8234,-194 609.8234,-194 609.8234,-194 623.8234,-194 623.8234,-194 629.8234,-194 635.8234,-200 635.8234,-206 635.8234,-206 635.8234,-234 635.8234,-234 635.8234,-240 629.8234,-246 623.8234,-246"/>
<text text-anchor="middle" x="616.8234" y="-234" font-family="Arial" font-size="10.00" fill="#000000">PV</text>
<text text-anchor="middle" x="616.8234" y="-223" font-family="Arial" font-size="10.00" fill="#000000">Phase</text>
<text text-anchor="middle" x="616.8234" y="-212" font-family="Arial" font-size="10.00" fill="#000000">Shift</text>
<text text-anchor="middle" x="616.8234" y="-201" font-family="Arial" font-size="10.00" fill="#000000">90</text>
</a>
</g>
</g>
<!-- supriya.ugens.UGen.UGen -->
<g id="node10" class="node">
<title>supriya.ugens.UGen.UGen</title>
<g id="a_node10"><a xlink:href="../api/supriya/ugens/UGen.html#supriya.ugens.UGen.UGen" xlink:title="UGen" target="_top">
<ellipse fill="none" stroke="#decbe4" stroke-width="2" cx="296.4558" cy="-117" rx="25.4118" ry="13.3704"/>
<text text-anchor="middle" x="296.4558" y="-114.5" font-family="Arial" font-size="10.00" fill="#000000">UGen</text>
</a>
</g>
</g>
<!-- supriya.ugens.WidthFirstUGen.WidthFirstUGen -->
<g id="node11" class="node">
<title>supriya.ugens.WidthFirstUGen.WidthFirstUGen</title>
<g id="a_node11"><a xlink:href="../api/supriya/ugens/WidthFirstUGen.html#supriya.ugens.WidthFirstUGen.WidthFirstUGen" xlink:title="Width\nFirst\nUGen" target="_top">
<ellipse fill="none" stroke="#decbe4" stroke-width="2" cx="383.3675" cy="-117" rx="25.4118" ry="28.9828"/>
<text text-anchor="middle" x="383.3675" y="-125.5" font-family="Arial" font-size="10.00" fill="#000000">Width</text>
<text text-anchor="middle" x="383.3675" y="-114.5" font-family="Arial" font-size="10.00" fill="#000000">First</text>
<text text-anchor="middle" x="383.3675" y="-103.5" font-family="Arial" font-size="10.00" fill="#000000">UGen</text>
</a>
</g>
</g>
</g>
</svg>
