<?xml version="1.0" encoding="UTF-8" standalone="no"?>
<!DOCTYPE svg PUBLIC "-//W3C//DTD SVG 1.1//EN"
 "http://www.w3.org/Graphics/SVG/1.1/DTD/svg11.dtd">
<!-- Generated by graphviz version 2.40.1 (20161225.0304)
 -->
<!-- Title: InheritanceGraph Pages: 1 -->
<svg width="587pt" height="185pt"
 viewBox="0.00 0.00 586.82 185.00" xmlns="http://www.w3.org/2000/svg" xmlns:xlink="http://www.w3.org/1999/xlink">
<g id="graph0" class="graph" transform="scale(1 1) rotate(0) translate(4 181)">
<title>InheritanceGraph</title>
<g id="clust1" class="cluster">
<title>cluster_builtins</title>
<path fill="transparent" stroke="#bcd2ee" stroke-width="2" stroke-dasharray="5,2" d="M20,-61C20,-61 49,-61 49,-61 55,-61 61,-67 61,-73 61,-73 61,-104 61,-104 61,-110 55,-116 49,-116 49,-116 20,-116 20,-116 14,-116 8,-110 8,-104 8,-104 8,-73 8,-73 8,-67 14,-61 20,-61"/>
<text text-anchor="middle" x="34.5" y="-104" font-family="Arial" font-size="10.00" fill="#000000">builtins</text>
</g>
<g id="clust2" class="cluster">
<title>cluster_supriya.synthdefs</title>
<path fill="transparent" stroke="#bcd2ee" stroke-width="2" stroke-dasharray="5,2" d="M180,-50C180,-50 231,-50 231,-50 237,-50 243,-56 243,-62 243,-62 243,-115 243,-115 243,-121 237,-127 231,-127 231,-127 180,-127 180,-127 174,-127 168,-121 168,-115 168,-115 168,-62 168,-62 168,-56 174,-50 180,-50"/>
<text text-anchor="middle" x="205.5" y="-115" font-family="Arial" font-size="10.00" fill="#000000">supriya.synthdefs</text>
</g>
<g id="clust3" class="cluster">
<title>cluster_supriya.system</title>
<path fill="transparent" stroke="#bcd2ee" stroke-width="2" stroke-dasharray="5,2" d="M93,-56C93,-56 136,-56 136,-56 142,-56 148,-62 148,-68 148,-68 148,-109 148,-109 148,-115 142,-121 136,-121 136,-121 93,-121 93,-121 87,-121 81,-115 81,-109 81,-109 81,-68 81,-68 81,-62 87,-56 93,-56"/>
<text text-anchor="middle" x="114.5" y="-109" font-family="Arial" font-size="10.00" fill="#000000">supriya.system</text>
</g>
<g id="clust4" class="cluster">
<title>cluster_supriya.ugens</title>
<path fill="transparent" stroke="#bcd2ee" stroke-width="2" stroke-dasharray="5,2" d="M275,-8C275,-8 558.8234,-8 558.8234,-8 564.8234,-8 570.8234,-14 570.8234,-20 570.8234,-20 570.8234,-157 570.8234,-157 570.8234,-163 564.8234,-169 558.8234,-169 558.8234,-169 275,-169 275,-169 269,-169 263,-163 263,-157 263,-157 263,-20 263,-20 263,-14 269,-8 275,-8"/>
<text text-anchor="middle" x="416.9117" y="-157" font-family="Arial" font-size="10.00" fill="#000000">supriya.ugens</text>
</g>
<!-- builtins.object&#45;&gt;supriya.system.SupriyaObject.SupriyaObject -->
<g id="edge6" class="edge">
<title>builtins.object&#45;&gt;supriya.system.SupriyaObject.SupriyaObject</title>
<path fill="none" stroke="#778899" d="M53.3404,-79C62.0401,-79 72.6079,-79 82.4698,-79"/>
<polygon fill="#778899" stroke="#778899" points="82.7722,-82.5001 92.7722,-79 82.7721,-75.5001 82.7722,-82.5001"/>
</g>
<!-- supriya.synthdefs.UGenMethodMixin.UGenMethodMixin&#45;&gt;supriya.ugens.UGen.UGen -->
<g id="edge7" class="edge">
<title>supriya.synthdefs.UGenMethodMixin.UGenMethodMixin&#45;&gt;supriya.ugens.UGen.UGen</title>
<path fill="none" stroke="#778899" d="M226.2117,-79C236.3925,-79 248.8752,-79 260.4793,-79"/>
<polygon fill="#778899" stroke="#778899" points="260.7979,-82.5001 270.7978,-79 260.7978,-75.5001 260.7979,-82.5001"/>
</g>
<!-- supriya.system.SupriyaObject.SupriyaObject&#45;&gt;supriya.synthdefs.UGenMethodMixin.UGenMethodMixin -->
<g id="edge8" class="edge">
<title>supriya.system.SupriyaObject.SupriyaObject&#45;&gt;supriya.synthdefs.UGenMethodMixin.UGenMethodMixin</title>
<path fill="none" stroke="#778899" d="M135.106,-79C146.5093,-79 160.815,-79 173.5087,-79"/>
<polygon fill="#778899" stroke="#778899" points="173.6933,-82.5001 183.6933,-79 173.6932,-75.5001 173.6933,-82.5001"/>
</g>
<!-- supriya.ugens.Control.Control&#45;&gt;supriya.ugens.AudioControl.AudioControl -->
<g id="edge1" class="edge">
<title>supriya.ugens.Control.Control&#45;&gt;supriya.ugens.AudioControl.AudioControl</title>
<path fill="none" stroke="#778899" d="M480.9055,-69.2865C490.1984,-63.4935 502.2921,-55.9545 513.2878,-49.1001"/>
<polygon fill="#778899" stroke="#778899" points="515.1616,-52.0564 521.7963,-43.7961 511.4585,-46.1161 515.1616,-52.0564"/>
</g>
<!-- supriya.ugens.Control.Control&#45;&gt;supriya.ugens.LagControl.LagControl -->
<g id="edge2" class="edge">
<title>supriya.ugens.Control.Control&#45;&gt;supriya.ugens.LagControl.LagControl</title>
<path fill="none" stroke="#778899" d="M485.958,-79C493.8122,-79 502.9412,-79 511.5355,-79"/>
<polygon fill="#778899" stroke="#778899" points="511.6319,-82.5001 521.6318,-79 511.6318,-75.5001 511.6319,-82.5001"/>
</g>
<!-- supriya.ugens.Control.Control&#45;&gt;supriya.ugens.TrigControl.TrigControl -->
<g id="edge3" class="edge">
<title>supriya.ugens.Control.Control&#45;&gt;supriya.ugens.TrigControl.TrigControl</title>
<path fill="none" stroke="#778899" d="M480.9055,-88.7135C490.1984,-94.5065 502.2921,-102.0455 513.2878,-108.8999"/>
<polygon fill="#778899" stroke="#778899" points="511.4585,-111.8839 521.7963,-114.2039 515.1616,-105.9436 511.4585,-111.8839"/>
</g>
<!-- supriya.ugens.MultiOutUGen.MultiOutUGen&#45;&gt;supriya.ugens.Control.Control -->
<g id="edge4" class="edge">
<title>supriya.ugens.MultiOutUGen.MultiOutUGen&#45;&gt;supriya.ugens.Control.Control</title>
<path fill="none" stroke="#778899" d="M408.8496,-79C416.9772,-79 426.0586,-79 434.5218,-79"/>
<polygon fill="#778899" stroke="#778899" points="434.7929,-82.5001 444.7928,-79 434.7928,-75.5001 434.7929,-82.5001"/>
</g>
<!-- supriya.ugens.UGen.UGen&#45;&gt;supriya.ugens.MultiOutUGen.MultiOutUGen -->
<g id="edge5" class="edge">
<title>supriya.ugens.UGen.UGen&#45;&gt;supriya.ugens.MultiOutUGen.MultiOutUGen</title>
<path fill="none" stroke="#778899" d="M322.0621,-79C330.0361,-79 338.9805,-79 347.5203,-79"/>
<polygon fill="#778899" stroke="#778899" points="347.644,-82.5001 357.6439,-79 347.6439,-75.5001 347.644,-82.5001"/>
</g>
<!-- builtins.object -->
<g id="node1" class="node">
<title>builtins.object</title>
<g id="a_node1"><a xlink:href="https://docs.python.org/3.6/library/functions.html#object" xlink:title="object" target="_top">
<path fill="#fbb4ae" stroke="#fbb4ae" stroke-width="2" d="M46.6667,-88.5C46.6667,-88.5 22.3333,-88.5 22.3333,-88.5 19.1667,-88.5 16,-85.3333 16,-82.1667 16,-82.1667 16,-75.8333 16,-75.8333 16,-72.6667 19.1667,-69.5 22.3333,-69.5 22.3333,-69.5 46.6667,-69.5 46.6667,-69.5 49.8333,-69.5 53,-72.6667 53,-75.8333 53,-75.8333 53,-82.1667 53,-82.1667 53,-85.3333 49.8333,-88.5 46.6667,-88.5"/>
<text text-anchor="middle" x="34.5" y="-76.5" font-family="Arial" font-size="10.00" fill="#000000">object</text>
</a>
</g>
</g>
<!-- supriya.synthdefs.UGenMethodMixin.UGenMethodMixin -->
<g id="node2" class="node">
<title>supriya.synthdefs.UGenMethodMixin.UGenMethodMixin</title>
<g id="a_node2"><a xlink:href="../api/supriya/ugens/../synthdefs/UGenMethodMixin.html#supriya.synthdefs.UGenMethodMixin.UGenMethodMixin" xlink:title="UGen\nMethod\nMixin" target="_top">
<path fill="#b3cde3" stroke="#b3cde3" stroke-width="2" d="M214,-99.5C214,-99.5 196,-99.5 196,-99.5 190,-99.5 184,-93.5 184,-87.5 184,-87.5 184,-70.5 184,-70.5 184,-64.5 190,-58.5 196,-58.5 196,-58.5 214,-58.5 214,-58.5 220,-58.5 226,-64.5 226,-70.5 226,-70.5 226,-87.5 226,-87.5 226,-93.5 220,-99.5 214,-99.5"/>
<text text-anchor="middle" x="205" y="-87.5" font-family="Arial" font-size="10.00" fill="#000000">UGen</text>
<text text-anchor="middle" x="205" y="-76.5" font-family="Arial" font-size="10.00" fill="#000000">Method</text>
<text text-anchor="middle" x="205" y="-65.5" font-family="Arial" font-size="10.00" fill="#000000">Mixin</text>
</a>
</g>
</g>
<!-- supriya.system.SupriyaObject.SupriyaObject -->
<g id="node3" class="node">
<title>supriya.system.SupriyaObject.SupriyaObject</title>
<g id="a_node3"><a xlink:href="../api/supriya/ugens/../system/SupriyaObject.html#supriya.system.SupriyaObject.SupriyaObject" xlink:title="Supriya\nObject" target="_top">
<path fill="#ccebc5" stroke="#ccebc5" stroke-width="2" d="M125,-94C125,-94 103,-94 103,-94 98,-94 93,-89 93,-84 93,-84 93,-74 93,-74 93,-69 98,-64 103,-64 103,-64 125,-64 125,-64 130,-64 135,-69 135,-74 135,-74 135,-84 135,-84 135,-89 130,-94 125,-94"/>
<text text-anchor="middle" x="114" y="-82" font-family="Arial" font-size="10.00" fill="#000000">Supriya</text>
<text text-anchor="middle" x="114" y="-71" font-family="Arial" font-size="10.00" fill="#000000">Object</text>
</a>
</g>
</g>
<!-- supriya.ugens.AudioControl.AudioControl -->
<g id="node4" class="node">
<title>supriya.ugens.AudioControl.AudioControl</title>
<g id="a_node4"><a xlink:href="../api/supriya/ugens/AudioControl.html#supriya.ugens.AudioControl.AudioControl" xlink:title="Audio\nControl" target="_top">
<path fill="#decbe4" stroke="#decbe4" stroke-width="2" d="M552.8234,-46C552.8234,-46 531.8234,-46 531.8234,-46 526.8234,-46 521.8234,-41 521.8234,-36 521.8234,-36 521.8234,-26 521.8234,-26 521.8234,-21 526.8234,-16 531.8234,-16 531.8234,-16 552.8234,-16 552.8234,-16 557.8234,-16 562.8234,-21 562.8234,-26 562.8234,-26 562.8234,-36 562.8234,-36 562.8234,-41 557.8234,-46 552.8234,-46"/>
<text text-anchor="middle" x="542.3234" y="-34" font-family="Arial" font-size="10.00" fill="#000000">Audio</text>
<text text-anchor="middle" x="542.3234" y="-23" font-family="Arial" font-size="10.00" fill="#000000">Control</text>
</a>
</g>
</g>
<!-- supriya.ugens.Control.Control -->
<g id="node5" class="node">
<title>supriya.ugens.Control.Control</title>
<g id="a_node5"><a xlink:href="../api/supriya/ugens/Control.html#supriya.ugens.Control.Control" xlink:title="Control" target="_top">
<path fill="#000000" stroke="#000000" stroke-width="2" d="M479.49,-88.5C479.49,-88.5 451.1567,-88.5 451.1567,-88.5 447.99,-88.5 444.8234,-85.3333 444.8234,-82.1667 444.8234,-82.1667 444.8234,-75.8333 444.8234,-75.8333 444.8234,-72.6667 447.99,-69.5 451.1567,-69.5 451.1567,-69.5 479.49,-69.5 479.49,-69.5 482.6567,-69.5 485.8234,-72.6667 485.8234,-75.8333 485.8234,-75.8333 485.8234,-82.1667 485.8234,-82.1667 485.8234,-85.3333 482.6567,-88.5 479.49,-88.5"/>
<text text-anchor="middle" x="465.3234" y="-76.5" font-family="Arial" font-size="10.00" fill="#ffffff">Control</text>
</a>
</g>
</g>
<!-- supriya.ugens.LagControl.LagControl -->
<g id="node6" class="node">
<title>supriya.ugens.LagControl.LagControl</title>
<g id="a_node6"><a xlink:href="../api/supriya/ugens/LagControl.html#supriya.ugens.LagControl.LagControl" xlink:title="Lag\nControl" target="_top">
<path fill="#decbe4" stroke="#decbe4" stroke-width="2" d="M552.8234,-94C552.8234,-94 531.8234,-94 531.8234,-94 526.8234,-94 521.8234,-89 521.8234,-84 521.8234,-84 521.8234,-74 521.8234,-74 521.8234,-69 526.8234,-64 531.8234,-64 531.8234,-64 552.8234,-64 552.8234,-64 557.8234,-64 562.8234,-69 562.8234,-74 562.8234,-74 562.8234,-84 562.8234,-84 562.8234,-89 557.8234,-94 552.8234,-94"/>
<text text-anchor="middle" x="542.3234" y="-82" font-family="Arial" font-size="10.00" fill="#000000">Lag</text>
<text text-anchor="middle" x="542.3234" y="-71" font-family="Arial" font-size="10.00" fill="#000000">Control</text>
</a>
</g>
</g>
<!-- supriya.ugens.MultiOutUGen.MultiOutUGen -->
<g id="node7" class="node">
<title>supriya.ugens.MultiOutUGen.MultiOutUGen</title>
<g id="a_node7"><a xlink:href="../api/supriya/ugens/MultiOutUGen.html#supriya.ugens.MultiOutUGen.MultiOutUGen" xlink:title="Multi\nOut\nUGen" target="_top">
<ellipse fill="none" stroke="#decbe4" stroke-width="2" cx="383.3675" cy="-79" rx="25.4118" ry="28.9828"/>
<text text-anchor="middle" x="383.3675" y="-87.5" font-family="Arial" font-size="10.00" fill="#000000">Multi</text>
<text text-anchor="middle" x="383.3675" y="-76.5" font-family="Arial" font-size="10.00" fill="#000000">Out</text>
<text text-anchor="middle" x="383.3675" y="-65.5" font-family="Arial" font-size="10.00" fill="#000000">UGen</text>
</a>
</g>
</g>
<!-- supriya.ugens.TrigControl.TrigControl -->
<g id="node8" class="node">
<title>supriya.ugens.TrigControl.TrigControl</title>
<g id="a_node8"><a xlink:href="../api/supriya/ugens/TrigControl.html#supriya.ugens.TrigControl.TrigControl" xlink:title="Trig\nControl" target="_top">
<path fill="#decbe4" stroke="#decbe4" stroke-width="2" d="M552.8234,-142C552.8234,-142 531.8234,-142 531.8234,-142 526.8234,-142 521.8234,-137 521.8234,-132 521.8234,-132 521.8234,-122 521.8234,-122 521.8234,-117 526.8234,-112 531.8234,-112 531.8234,-112 552.8234,-112 552.8234,-112 557.8234,-112 562.8234,-117 562.8234,-122 562.8234,-122 562.8234,-132 562.8234,-132 562.8234,-137 557.8234,-142 552.8234,-142"/>
<text text-anchor="middle" x="542.3234" y="-130" font-family="Arial" font-size="10.00" fill="#000000">Trig</text>
<text text-anchor="middle" x="542.3234" y="-119" font-family="Arial" font-size="10.00" fill="#000000">Control</text>
</a>
</g>
</g>
<!-- supriya.ugens.UGen.UGen -->
<g id="node9" class="node">
<title>supriya.ugens.UGen.UGen</title>
<g id="a_node9"><a xlink:href="../api/supriya/ugens/UGen.html#supriya.ugens.UGen.UGen" xlink:title="UGen" target="_top">
<ellipse fill="none" stroke="#decbe4" stroke-width="2" cx="296.4558" cy="-79" rx="25.4118" ry="13.3704"/>
<text text-anchor="middle" x="296.4558" y="-76.5" font-family="Arial" font-size="10.00" fill="#000000">UGen</text>
</a>
</g>
</g>
</g>
</svg>
