<?xml version="1.0" encoding="UTF-8" standalone="no"?>
<!DOCTYPE svg PUBLIC "-//W3C//DTD SVG 1.1//EN"
 "http://www.w3.org/Graphics/SVG/1.1/DTD/svg11.dtd">
<!-- Generated by graphviz version 2.44.1 (20200629.0846)
 -->
<!-- Title: InheritanceGraph Pages: 1 -->
<svg width="512pt" height="101pt"
 viewBox="0.00 0.00 511.88 101.00" xmlns="http://www.w3.org/2000/svg" xmlns:xlink="http://www.w3.org/1999/xlink">
<g id="graph0" class="graph" transform="scale(1 1) rotate(0) translate(4 97)">
<title>InheritanceGraph</title>
<g id="clust1" class="cluster">
<title>cluster_builtins</title>
<path fill="transparent" stroke="#bcd2ee" stroke-width="2" stroke-dasharray="5,2" d="M20,-19C20,-19 55,-19 55,-19 61,-19 67,-25 67,-31 67,-31 67,-62 67,-62 67,-68 61,-74 55,-74 55,-74 20,-74 20,-74 14,-74 8,-68 8,-62 8,-62 8,-31 8,-31 8,-25 14,-19 20,-19"/>
<text text-anchor="middle" x="37.5" y="-62" font-family="Arial" font-size="10.00">builtins</text>
</g>
<g id="clust2" class="cluster">
<title>cluster_supriya.patterns</title>
<path fill="transparent" stroke="#bcd2ee" stroke-width="2" stroke-dasharray="5,2" d="M271,-16C271,-16 483.88,-16 483.88,-16 489.88,-16 495.88,-22 495.88,-28 495.88,-28 495.88,-65 495.88,-65 495.88,-71 489.88,-77 483.88,-77 483.88,-77 271,-77 271,-77 265,-77 259,-71 259,-65 259,-65 259,-28 259,-28 259,-22 265,-16 271,-16"/>
<text text-anchor="middle" x="377.44" y="-65" font-family="Arial" font-size="10.00">supriya.patterns</text>
</g>
<g id="clust3" class="cluster">
<title>cluster_supriya.system</title>
<path fill="transparent" stroke="#bcd2ee" stroke-width="2" stroke-dasharray="5,2" d="M99,-8C99,-8 227,-8 227,-8 233,-8 239,-14 239,-20 239,-20 239,-73 239,-73 239,-79 233,-85 227,-85 227,-85 99,-85 99,-85 93,-85 87,-79 87,-73 87,-73 87,-20 87,-20 87,-14 93,-8 99,-8"/>
<text text-anchor="middle" x="163" y="-73" font-family="Arial" font-size="10.00">supriya.system</text>
</g>
<!-- builtins.object&#45;&gt;supriya.system.SupriyaObject -->
<g id="edge4" class="edge">
<title>builtins.object&#45;&gt;supriya.system.SupriyaObject</title>
<path fill="none" stroke="lightslategrey" d="M59.23,-37C66.98,-37 76,-37 84.66,-37"/>
<polygon fill="lightslategrey" stroke="lightslategrey" points="84.91,-40.5 94.91,-37 84.91,-33.5 84.91,-40.5"/>
</g>
<!-- supriya.patterns.Pattern.Pattern&#45;&gt;supriya.patterns.Pseq.Pseq -->
<g id="edge1" class="edge">
<title>supriya.patterns.Pattern.Pattern&#45;&gt;supriya.patterns.Pseq.Pseq</title>
<path fill="none" stroke="lightslategrey" d="M335,-37C343.34,-37 352.23,-37 360.35,-37"/>
<polygon fill="lightslategrey" stroke="lightslategrey" points="360.48,-40.5 370.48,-37 360.48,-33.5 360.48,-40.5"/>
</g>
<!-- supriya.patterns.Pseq.Pseq&#45;&gt;supriya.patterns.Prand.Prand -->
<g id="edge2" class="edge">
<title>supriya.patterns.Pseq.Pseq&#45;&gt;supriya.patterns.Prand.Prand</title>
<path fill="none" stroke="lightslategrey" d="M410.18,-37C417.9,-37 427.04,-37 435.66,-37"/>
<polygon fill="lightslategrey" stroke="lightslategrey" points="435.78,-40.5 445.78,-37 435.78,-33.5 435.78,-40.5"/>
</g>
<!-- supriya.system.SupriyaObject&#45;&gt;supriya.system.SupriyaValueObject -->
<g id="edge3" class="edge">
<title>supriya.system.SupriyaObject&#45;&gt;supriya.system.SupriyaValueObject</title>
<path fill="none" stroke="lightslategrey" d="M145.3,-37C153.22,-37 162.17,-37 170.69,-37"/>
<polygon fill="lightslategrey" stroke="lightslategrey" points="170.76,-40.5 180.76,-37 170.76,-33.5 170.76,-40.5"/>
</g>
<!-- supriya.system.SupriyaValueObject&#45;&gt;supriya.patterns.Pattern.Pattern -->
<g id="edge5" class="edge">
<title>supriya.system.SupriyaValueObject&#45;&gt;supriya.patterns.Pattern.Pattern</title>
<path fill="none" stroke="lightslategrey" d="M231.42,-37C239.23,-37 248.12,-37 256.85,-37"/>
<polygon fill="lightslategrey" stroke="lightslategrey" points="256.95,-40.5 266.95,-37 256.95,-33.5 256.95,-40.5"/>
</g>
<!-- builtins.object -->
<g id="node1" class="node">
<title>builtins.object</title>
<g id="a_node1"><a xlink:href="https://docs.python.org/3/library/functions.html#object" xlink:title="object" target="_top">
<path fill="#fbb4ae" stroke="#fbb4ae" stroke-width="2" d="M52.67,-46.5C52.67,-46.5 22.33,-46.5 22.33,-46.5 19.17,-46.5 16,-43.33 16,-40.17 16,-40.17 16,-33.83 16,-33.83 16,-30.67 19.17,-27.5 22.33,-27.5 22.33,-27.5 52.67,-27.5 52.67,-27.5 55.83,-27.5 59,-30.67 59,-33.83 59,-33.83 59,-40.17 59,-40.17 59,-43.33 55.83,-46.5 52.67,-46.5"/>
<text text-anchor="middle" x="37.5" y="-34.5" font-family="Arial" font-size="10.00">object</text>
</a>
</g>
</g>
<!-- supriya.patterns.Pattern.Pattern -->
<g id="node2" class="node">
<title>supriya.patterns.Pattern.Pattern</title>
<g id="a_node2"><a xlink:href="../api/supriya/patterns/Pattern.html#supriya.patterns.Pattern.Pattern" xlink:title="Pattern" target="_top">
<ellipse fill="none" stroke="#b3cde3" stroke-width="2" cx="300.94" cy="-37" rx="33.88" ry="13.37"/>
<text text-anchor="middle" x="300.94" y="-34.5" font-family="Arial" font-size="10.00">Pattern</text>
</a>
</g>
</g>
<!-- supriya.patterns.Prand.Prand -->
<g id="node3" class="node">
<title>supriya.patterns.Prand.Prand</title>
<g id="a_node3"><a xlink:href="../api/supriya/patterns/Prand.html#supriya.patterns.Prand.Prand" xlink:title="Prand" target="_top">
<path fill="#b3cde3" stroke="#b3cde3" stroke-width="2" d="M481.55,-46.5C481.55,-46.5 452.22,-46.5 452.22,-46.5 449.05,-46.5 445.88,-43.33 445.88,-40.17 445.88,-40.17 445.88,-33.83 445.88,-33.83 445.88,-30.67 449.05,-27.5 452.22,-27.5 452.22,-27.5 481.55,-27.5 481.55,-27.5 484.72,-27.5 487.88,-30.67 487.88,-33.83 487.88,-33.83 487.88,-40.17 487.88,-40.17 487.88,-43.33 484.72,-46.5 481.55,-46.5"/>
<text text-anchor="middle" x="466.88" y="-34.5" font-family="Arial" font-size="10.00">Prand</text>
</a>
</g>
</g>
<!-- supriya.patterns.Pseq.Pseq -->
<g id="node4" class="node">
<title>supriya.patterns.Pseq.Pseq</title>
<g id="a_node4"><a xlink:href="../api/supriya/patterns/Pseq.html#supriya.patterns.Pseq.Pseq" xlink:title="Pseq" target="_top">
<path fill="black" stroke="black" stroke-width="2" d="M403.55,-46.5C403.55,-46.5 377.22,-46.5 377.22,-46.5 374.05,-46.5 370.88,-43.33 370.88,-40.17 370.88,-40.17 370.88,-33.83 370.88,-33.83 370.88,-30.67 374.05,-27.5 377.22,-27.5 377.22,-27.5 403.55,-27.5 403.55,-27.5 406.72,-27.5 409.88,-30.67 409.88,-33.83 409.88,-33.83 409.88,-40.17 409.88,-40.17 409.88,-43.33 406.72,-46.5 403.55,-46.5"/>
<text text-anchor="middle" x="390.38" y="-34.5" font-family="Arial" font-size="10.00" fill="white">Pseq</text>
</a>
</g>
</g>
<!-- supriya.system.SupriyaObject -->
<g id="node5" class="node">
<title>supriya.system.SupriyaObject</title>
<g id="a_node5"><a xlink:href="../api/supriya/patterns/../system.html#supriya.system.SupriyaObject" xlink:title="Supriya\nObject" target="_top">
<path fill="#ccebc5" stroke="#ccebc5" stroke-width="2" d="M135,-52C135,-52 105,-52 105,-52 100,-52 95,-47 95,-42 95,-42 95,-32 95,-32 95,-27 100,-22 105,-22 105,-22 135,-22 135,-22 140,-22 145,-27 145,-32 145,-32 145,-42 145,-42 145,-47 140,-52 135,-52"/>
<text text-anchor="middle" x="120" y="-40" font-family="Arial" font-size="10.00">Supriya</text>
<text text-anchor="middle" x="120" y="-29" font-family="Arial" font-size="10.00">Object</text>
</a>
</g>
</g>
<!-- supriya.system.SupriyaValueObject -->
<g id="node6" class="node">
<title>supriya.system.SupriyaValueObject</title>
<g id="a_node6"><a xlink:href="../api/supriya/patterns/../system.html#supriya.system.SupriyaValueObject" xlink:title="Supriya\nValue\nObject" target="_top">
<path fill="#ccebc5" stroke="#ccebc5" stroke-width="2" d="M219,-57.5C219,-57.5 193,-57.5 193,-57.5 187,-57.5 181,-51.5 181,-45.5 181,-45.5 181,-28.5 181,-28.5 181,-22.5 187,-16.5 193,-16.5 193,-16.5 219,-16.5 219,-16.5 225,-16.5 231,-22.5 231,-28.5 231,-28.5 231,-45.5 231,-45.5 231,-51.5 225,-57.5 219,-57.5"/>
<text text-anchor="middle" x="206" y="-45.5" font-family="Arial" font-size="10.00">Supriya</text>
<text text-anchor="middle" x="206" y="-34.5" font-family="Arial" font-size="10.00">Value</text>
<text text-anchor="middle" x="206" y="-23.5" font-family="Arial" font-size="10.00">Object</text>
</a>
</g>
</g>
</g>
</svg>
