<?xml version="1.0" encoding="UTF-8" standalone="no"?>
<!DOCTYPE svg PUBLIC "-//W3C//DTD SVG 1.1//EN"
 "http://www.w3.org/Graphics/SVG/1.1/DTD/svg11.dtd">
<!-- Generated by graphviz version 2.40.1 (20161225.0304)
 -->
<!-- Title: InheritanceGraph Pages: 1 -->
<svg width="420pt" height="111pt"
 viewBox="0.00 0.00 419.91 111.00" xmlns="http://www.w3.org/2000/svg" xmlns:xlink="http://www.w3.org/1999/xlink">
<g id="graph0" class="graph" transform="scale(1 1) rotate(0) translate(4 107)">
<title>InheritanceGraph</title>
<g id="clust1" class="cluster">
<title>cluster_builtins</title>
<path fill="transparent" stroke="#bcd2ee" stroke-width="2" stroke-dasharray="5,2" d="M20,-24C20,-24 49,-24 49,-24 55,-24 61,-30 61,-36 61,-36 61,-67 61,-67 61,-73 55,-79 49,-79 49,-79 20,-79 20,-79 14,-79 8,-73 8,-67 8,-67 8,-36 8,-36 8,-30 14,-24 20,-24"/>
<text text-anchor="middle" x="34.5" y="-67" font-family="Arial" font-size="10.00" fill="#000000">builtins</text>
</g>
<g id="clust2" class="cluster">
<title>cluster_supriya.synthdefs</title>
<path fill="transparent" stroke="#bcd2ee" stroke-width="2" stroke-dasharray="5,2" d="M180,-13C180,-13 231,-13 231,-13 237,-13 243,-19 243,-25 243,-25 243,-78 243,-78 243,-84 237,-90 231,-90 231,-90 180,-90 180,-90 174,-90 168,-84 168,-78 168,-78 168,-25 168,-25 168,-19 174,-13 180,-13"/>
<text text-anchor="middle" x="205.5" y="-78" font-family="Arial" font-size="10.00" fill="#000000">supriya.synthdefs</text>
</g>
<g id="clust3" class="cluster">
<title>cluster_supriya.system</title>
<path fill="transparent" stroke="#bcd2ee" stroke-width="2" stroke-dasharray="5,2" d="M93,-19C93,-19 136,-19 136,-19 142,-19 148,-25 148,-31 148,-31 148,-72 148,-72 148,-78 142,-84 136,-84 136,-84 93,-84 93,-84 87,-84 81,-78 81,-72 81,-72 81,-31 81,-31 81,-25 87,-19 93,-19"/>
<text text-anchor="middle" x="114.5" y="-72" font-family="Arial" font-size="10.00" fill="#000000">supriya.system</text>
</g>
<g id="clust4" class="cluster">
<title>cluster_supriya.ugens</title>
<path fill="transparent" stroke="#bcd2ee" stroke-width="2" stroke-dasharray="5,2" d="M275,-8C275,-8 391.9117,-8 391.9117,-8 397.9117,-8 403.9117,-14 403.9117,-20 403.9117,-20 403.9117,-83 403.9117,-83 403.9117,-89 397.9117,-95 391.9117,-95 391.9117,-95 275,-95 275,-95 269,-95 263,-89 263,-83 263,-83 263,-20 263,-20 263,-14 269,-8 275,-8"/>
<text text-anchor="middle" x="333.4558" y="-83" font-family="Arial" font-size="10.00" fill="#000000">supriya.ugens</text>
</g>
<!-- builtins.object&#45;&gt;supriya.system.SupriyaObject.SupriyaObject -->
<g id="edge2" class="edge">
<title>builtins.object&#45;&gt;supriya.system.SupriyaObject.SupriyaObject</title>
<path fill="none" stroke="#778899" d="M53.3404,-42C62.0401,-42 72.6079,-42 82.4698,-42"/>
<polygon fill="#778899" stroke="#778899" points="82.7722,-45.5001 92.7722,-42 82.7721,-38.5001 82.7722,-45.5001"/>
</g>
<!-- supriya.synthdefs.UGenMethodMixin.UGenMethodMixin&#45;&gt;supriya.ugens.UGen.UGen -->
<g id="edge3" class="edge">
<title>supriya.synthdefs.UGenMethodMixin.UGenMethodMixin&#45;&gt;supriya.ugens.UGen.UGen</title>
<path fill="none" stroke="#778899" d="M226.2117,-42C236.3925,-42 248.8752,-42 260.4793,-42"/>
<polygon fill="#778899" stroke="#778899" points="260.7979,-45.5001 270.7978,-42 260.7978,-38.5001 260.7979,-45.5001"/>
</g>
<!-- supriya.system.SupriyaObject.SupriyaObject&#45;&gt;supriya.synthdefs.UGenMethodMixin.UGenMethodMixin -->
<g id="edge4" class="edge">
<title>supriya.system.SupriyaObject.SupriyaObject&#45;&gt;supriya.synthdefs.UGenMethodMixin.UGenMethodMixin</title>
<path fill="none" stroke="#778899" d="M135.106,-42C146.5093,-42 160.815,-42 173.5087,-42"/>
<polygon fill="#778899" stroke="#778899" points="173.6933,-45.5001 183.6933,-42 173.6932,-38.5001 173.6933,-45.5001"/>
</g>
<!-- supriya.ugens.UGen.UGen&#45;&gt;supriya.ugens.PauseSelfWhenDone.PauseSelfWhenDone -->
<g id="edge1" class="edge">
<title>supriya.ugens.UGen.UGen&#45;&gt;supriya.ugens.PauseSelfWhenDone.PauseSelfWhenDone</title>
<path fill="none" stroke="#778899" d="M321.9126,-42C330.0698,-42 339.168,-42 347.579,-42"/>
<polygon fill="#778899" stroke="#778899" points="347.7428,-45.5001 357.7427,-42 347.7427,-38.5001 347.7428,-45.5001"/>
</g>
<!-- builtins.object -->
<g id="node1" class="node">
<title>builtins.object</title>
<g id="a_node1"><a xlink:href="https://docs.python.org/3.6/library/functions.html#object" xlink:title="object" target="_top">
<path fill="#fbb4ae" stroke="#fbb4ae" stroke-width="2" d="M46.6667,-51.5C46.6667,-51.5 22.3333,-51.5 22.3333,-51.5 19.1667,-51.5 16,-48.3333 16,-45.1667 16,-45.1667 16,-38.8333 16,-38.8333 16,-35.6667 19.1667,-32.5 22.3333,-32.5 22.3333,-32.5 46.6667,-32.5 46.6667,-32.5 49.8333,-32.5 53,-35.6667 53,-38.8333 53,-38.8333 53,-45.1667 53,-45.1667 53,-48.3333 49.8333,-51.5 46.6667,-51.5"/>
<text text-anchor="middle" x="34.5" y="-39.5" font-family="Arial" font-size="10.00" fill="#000000">object</text>
</a>
</g>
</g>
<!-- supriya.synthdefs.UGenMethodMixin.UGenMethodMixin -->
<g id="node2" class="node">
<title>supriya.synthdefs.UGenMethodMixin.UGenMethodMixin</title>
<g id="a_node2"><a xlink:href="../api/supriya/ugens/../synthdefs/UGenMethodMixin.html#supriya.synthdefs.UGenMethodMixin.UGenMethodMixin" xlink:title="UGen\nMethod\nMixin" target="_top">
<path fill="#b3cde3" stroke="#b3cde3" stroke-width="2" d="M214,-62.5C214,-62.5 196,-62.5 196,-62.5 190,-62.5 184,-56.5 184,-50.5 184,-50.5 184,-33.5 184,-33.5 184,-27.5 190,-21.5 196,-21.5 196,-21.5 214,-21.5 214,-21.5 220,-21.5 226,-27.5 226,-33.5 226,-33.5 226,-50.5 226,-50.5 226,-56.5 220,-62.5 214,-62.5"/>
<text text-anchor="middle" x="205" y="-50.5" font-family="Arial" font-size="10.00" fill="#000000">UGen</text>
<text text-anchor="middle" x="205" y="-39.5" font-family="Arial" font-size="10.00" fill="#000000">Method</text>
<text text-anchor="middle" x="205" y="-28.5" font-family="Arial" font-size="10.00" fill="#000000">Mixin</text>
</a>
</g>
</g>
<!-- supriya.system.SupriyaObject.SupriyaObject -->
<g id="node3" class="node">
<title>supriya.system.SupriyaObject.SupriyaObject</title>
<g id="a_node3"><a xlink:href="../api/supriya/ugens/../system/SupriyaObject.html#supriya.system.SupriyaObject.SupriyaObject" xlink:title="Supriya\nObject" target="_top">
<path fill="#ccebc5" stroke="#ccebc5" stroke-width="2" d="M125,-57C125,-57 103,-57 103,-57 98,-57 93,-52 93,-47 93,-47 93,-37 93,-37 93,-32 98,-27 103,-27 103,-27 125,-27 125,-27 130,-27 135,-32 135,-37 135,-37 135,-47 135,-47 135,-52 130,-57 125,-57"/>
<text text-anchor="middle" x="114" y="-45" font-family="Arial" font-size="10.00" fill="#000000">Supriya</text>
<text text-anchor="middle" x="114" y="-34" font-family="Arial" font-size="10.00" fill="#000000">Object</text>
</a>
</g>
</g>
<!-- supriya.ugens.PauseSelfWhenDone.PauseSelfWhenDone -->
<g id="node4" class="node">
<title>supriya.ugens.PauseSelfWhenDone.PauseSelfWhenDone</title>
<g id="a_node4"><a xlink:href="../api/supriya/ugens/PauseSelfWhenDone.html#supriya.ugens.PauseSelfWhenDone.PauseSelfWhenDone" xlink:title="Pause\nSelf\nWhen\nDone" target="_top">
<path fill="#000000" stroke="#000000" stroke-width="2" d="M383.9117,-68C383.9117,-68 369.9117,-68 369.9117,-68 363.9117,-68 357.9117,-62 357.9117,-56 357.9117,-56 357.9117,-28 357.9117,-28 357.9117,-22 363.9117,-16 369.9117,-16 369.9117,-16 383.9117,-16 383.9117,-16 389.9117,-16 395.9117,-22 395.9117,-28 395.9117,-28 395.9117,-56 395.9117,-56 395.9117,-62 389.9117,-68 383.9117,-68"/>
<text text-anchor="middle" x="376.9117" y="-56" font-family="Arial" font-size="10.00" fill="#ffffff">Pause</text>
<text text-anchor="middle" x="376.9117" y="-45" font-family="Arial" font-size="10.00" fill="#ffffff">Self</text>
<text text-anchor="middle" x="376.9117" y="-34" font-family="Arial" font-size="10.00" fill="#ffffff">When</text>
<text text-anchor="middle" x="376.9117" y="-23" font-family="Arial" font-size="10.00" fill="#ffffff">Done</text>
</a>
</g>
</g>
<!-- supriya.ugens.UGen.UGen -->
<g id="node5" class="node">
<title>supriya.ugens.UGen.UGen</title>
<g id="a_node5"><a xlink:href="../api/supriya/ugens/UGen.html#supriya.ugens.UGen.UGen" xlink:title="UGen" target="_top">
<ellipse fill="none" stroke="#decbe4" stroke-width="2" cx="296.4558" cy="-42" rx="25.4118" ry="13.3704"/>
<text text-anchor="middle" x="296.4558" y="-39.5" font-family="Arial" font-size="10.00" fill="#000000">UGen</text>
</a>
</g>
</g>
</g>
</svg>
