<?xml version="1.0" encoding="UTF-8" standalone="no"?>
<!DOCTYPE svg PUBLIC "-//W3C//DTD SVG 1.1//EN"
 "http://www.w3.org/Graphics/SVG/1.1/DTD/svg11.dtd">
<!-- Generated by graphviz version 2.40.1 (20161225.0304)
 -->
<!-- Title: InheritanceGraph Pages: 1 -->
<svg width="154pt" height="111pt"
 viewBox="0.00 0.00 154.00 111.00" xmlns="http://www.w3.org/2000/svg" xmlns:xlink="http://www.w3.org/1999/xlink">
<g id="graph0" class="graph" transform="scale(1 1) rotate(0) translate(4 107)">
<title>InheritanceGraph</title>
<g id="clust1" class="cluster">
<title>cluster_builtins</title>
<path fill="transparent" stroke="#bcd2ee" stroke-width="2" stroke-dasharray="5,2" d="M20,-24C20,-24 49,-24 49,-24 55,-24 61,-30 61,-36 61,-36 61,-67 61,-67 61,-73 55,-79 49,-79 49,-79 20,-79 20,-79 14,-79 8,-73 8,-67 8,-67 8,-36 8,-36 8,-30 14,-24 20,-24"/>
<text text-anchor="middle" x="34.5" y="-67" font-family="Arial" font-size="10.00" fill="#000000">builtins</text>
</g>
<g id="clust2" class="cluster">
<title>cluster_supriya.time</title>
<path fill="transparent" stroke="#bcd2ee" stroke-width="2" stroke-dasharray="5,2" d="M93,-8C93,-8 126,-8 126,-8 132,-8 138,-14 138,-20 138,-20 138,-83 138,-83 138,-89 132,-95 126,-95 126,-95 93,-95 93,-95 87,-95 81,-89 81,-83 81,-83 81,-20 81,-20 81,-14 87,-8 93,-8"/>
<text text-anchor="middle" x="109.5" y="-83" font-family="Arial" font-size="10.00" fill="#000000">supriya.time</text>
</g>
<!-- builtins.object&#45;&gt;supriya.time.IntervalTreeDriverEx.IntervalTreeDriverEx -->
<g id="edge1" class="edge">
<title>builtins.object&#45;&gt;supriya.time.IntervalTreeDriverEx.IntervalTreeDriverEx</title>
<path fill="none" stroke="#778899" d="M53.0393,-42C60.7491,-42 69.91,-42 78.5854,-42"/>
<polygon fill="#778899" stroke="#778899" points="78.7965,-45.5001 88.7965,-42 78.7965,-38.5001 78.7965,-45.5001"/>
</g>
<!-- builtins.object -->
<g id="node1" class="node">
<title>builtins.object</title>
<g id="a_node1"><a xlink:href="https://docs.python.org/3.6/library/functions.html#object" xlink:title="object" target="_top">
<path fill="#fbb4ae" stroke="#fbb4ae" stroke-width="2" d="M46.6667,-51.5C46.6667,-51.5 22.3333,-51.5 22.3333,-51.5 19.1667,-51.5 16,-48.3333 16,-45.1667 16,-45.1667 16,-38.8333 16,-38.8333 16,-35.6667 19.1667,-32.5 22.3333,-32.5 22.3333,-32.5 46.6667,-32.5 46.6667,-32.5 49.8333,-32.5 53,-35.6667 53,-38.8333 53,-38.8333 53,-45.1667 53,-45.1667 53,-48.3333 49.8333,-51.5 46.6667,-51.5"/>
<text text-anchor="middle" x="34.5" y="-39.5" font-family="Arial" font-size="10.00" fill="#000000">object</text>
</a>
</g>
</g>
<!-- supriya.time.IntervalTreeDriverEx.IntervalTreeDriverEx -->
<g id="node2" class="node">
<title>supriya.time.IntervalTreeDriverEx.IntervalTreeDriverEx</title>
<g id="a_node2"><a xlink:href="../api/supriya/time/IntervalTreeDriverEx.html#supriya.time.IntervalTreeDriverEx.IntervalTreeDriverEx" xlink:title="Interval\nTree\nDriver\nEx" target="_top">
<path fill="#b3cde3" stroke="#b3cde3" stroke-width="2" d="M118,-68C118,-68 101,-68 101,-68 95,-68 89,-62 89,-56 89,-56 89,-28 89,-28 89,-22 95,-16 101,-16 101,-16 118,-16 118,-16 124,-16 130,-22 130,-28 130,-28 130,-56 130,-56 130,-62 124,-68 118,-68"/>
<text text-anchor="middle" x="109.5" y="-56" font-family="Arial" font-size="10.00" fill="#000000">Interval</text>
<text text-anchor="middle" x="109.5" y="-45" font-family="Arial" font-size="10.00" fill="#000000">Tree</text>
<text text-anchor="middle" x="109.5" y="-34" font-family="Arial" font-size="10.00" fill="#000000">Driver</text>
<text text-anchor="middle" x="109.5" y="-23" font-family="Arial" font-size="10.00" fill="#000000">Ex</text>
</a>
</g>
</g>
</g>
</svg>
