<?xml version="1.0" encoding="UTF-8" standalone="no"?>
<!DOCTYPE svg PUBLIC "-//W3C//DTD SVG 1.1//EN"
 "http://www.w3.org/Graphics/SVG/1.1/DTD/svg11.dtd">
<!-- Generated by graphviz version 2.40.1 (20161225.0304)
 -->
<!-- Title: InheritanceGraph Pages: 1 -->
<svg width="171pt" height="79pt"
 viewBox="0.00 0.00 171.00 79.00" xmlns="http://www.w3.org/2000/svg" xmlns:xlink="http://www.w3.org/1999/xlink">
<g id="graph0" class="graph" transform="scale(1 1) rotate(0) translate(4 75)">
<title>InheritanceGraph</title>
<g id="clust1" class="cluster">
<title>cluster_builtins</title>
<path fill="transparent" stroke="#bcd2ee" stroke-width="2" stroke-dasharray="5,2" d="M20,-8C20,-8 49,-8 49,-8 55,-8 61,-14 61,-20 61,-20 61,-51 61,-51 61,-57 55,-63 49,-63 49,-63 20,-63 20,-63 14,-63 8,-57 8,-51 8,-51 8,-20 8,-20 8,-14 14,-8 20,-8"/>
<text text-anchor="middle" x="34.5" y="-51" font-family="Arial" font-size="10.00" fill="#000000">builtins</text>
</g>
<g id="clust2" class="cluster">
<title>cluster_supriya.nonrealtime</title>
<path fill="transparent" stroke="#bcd2ee" stroke-width="2" stroke-dasharray="5,2" d="M93,-8C93,-8 151,-8 151,-8 157,-8 163,-14 163,-20 163,-20 163,-51 163,-51 163,-57 157,-63 151,-63 151,-63 93,-63 93,-63 87,-63 81,-57 81,-51 81,-51 81,-20 81,-20 81,-14 87,-8 93,-8"/>
<text text-anchor="middle" x="122" y="-51" font-family="Arial" font-size="10.00" fill="#000000">supriya.nonrealtime</text>
</g>
<!-- builtins.object&#45;&gt;supriya.nonrealtime.Session.Session -->
<g id="edge1" class="edge">
<title>builtins.object&#45;&gt;supriya.nonrealtime.Session.Session</title>
<path fill="none" stroke="#778899" d="M53.3777,-26C63.9686,-26 77.4629,-26 89.6428,-26"/>
<polygon fill="#778899" stroke="#778899" points="89.9019,-29.5001 99.9018,-26 89.9018,-22.5001 89.9019,-29.5001"/>
</g>
<!-- builtins.object -->
<g id="node1" class="node">
<title>builtins.object</title>
<g id="a_node1"><a xlink:href="https://docs.python.org/3.6/library/functions.html#object" xlink:title="object" target="_top">
<path fill="#fbb4ae" stroke="#fbb4ae" stroke-width="2" d="M46.6667,-35.5C46.6667,-35.5 22.3333,-35.5 22.3333,-35.5 19.1667,-35.5 16,-32.3333 16,-29.1667 16,-29.1667 16,-22.8333 16,-22.8333 16,-19.6667 19.1667,-16.5 22.3333,-16.5 22.3333,-16.5 46.6667,-16.5 46.6667,-16.5 49.8333,-16.5 53,-19.6667 53,-22.8333 53,-22.8333 53,-29.1667 53,-29.1667 53,-32.3333 49.8333,-35.5 46.6667,-35.5"/>
<text text-anchor="middle" x="34.5" y="-23.5" font-family="Arial" font-size="10.00" fill="#000000">object</text>
</a>
</g>
</g>
<!-- supriya.nonrealtime.Session.Session -->
<g id="node2" class="node">
<title>supriya.nonrealtime.Session.Session</title>
<g id="a_node2"><a xlink:href="../api/supriya/nonrealtime/Session.html#supriya.nonrealtime.Session.Session" xlink:title="Session" target="_top">
<path fill="#000000" stroke="#000000" stroke-width="2" d="M136.6667,-35.5C136.6667,-35.5 106.3333,-35.5 106.3333,-35.5 103.1667,-35.5 100,-32.3333 100,-29.1667 100,-29.1667 100,-22.8333 100,-22.8333 100,-19.6667 103.1667,-16.5 106.3333,-16.5 106.3333,-16.5 136.6667,-16.5 136.6667,-16.5 139.8333,-16.5 143,-19.6667 143,-22.8333 143,-22.8333 143,-29.1667 143,-29.1667 143,-32.3333 139.8333,-35.5 136.6667,-35.5"/>
<text text-anchor="middle" x="121.5" y="-23.5" font-family="Arial" font-size="10.00" fill="#ffffff">Session</text>
</a>
</g>
</g>
</g>
</svg>
