<?xml version="1.0" encoding="UTF-8" standalone="no"?>
<!DOCTYPE svg PUBLIC "-//W3C//DTD SVG 1.1//EN"
 "http://www.w3.org/Graphics/SVG/1.1/DTD/svg11.dtd">
<!-- Generated by graphviz version 2.40.1 (20161225.0304)
 -->
<!-- Title: InheritanceGraph Pages: 1 -->
<svg width="171pt" height="101pt"
 viewBox="0.00 0.00 171.00 101.00" xmlns="http://www.w3.org/2000/svg" xmlns:xlink="http://www.w3.org/1999/xlink">
<g id="graph0" class="graph" transform="scale(1 1) rotate(0) translate(4 97)">
<title>InheritanceGraph</title>
<g id="clust1" class="cluster">
<title>cluster_builtins</title>
<path fill="transparent" stroke="#bcd2ee" stroke-width="2" stroke-dasharray="5,2" d="M20,-19C20,-19 49,-19 49,-19 55,-19 61,-25 61,-31 61,-31 61,-62 61,-62 61,-68 55,-74 49,-74 49,-74 20,-74 20,-74 14,-74 8,-68 8,-62 8,-62 8,-31 8,-31 8,-25 14,-19 20,-19"/>
<text text-anchor="middle" x="34.5" y="-62" font-family="Arial" font-size="10.00" fill="#000000">builtins</text>
</g>
<g id="clust2" class="cluster">
<title>cluster_supriya.nonrealtime</title>
<path fill="transparent" stroke="#bcd2ee" stroke-width="2" stroke-dasharray="5,2" d="M93,-8C93,-8 151,-8 151,-8 157,-8 163,-14 163,-20 163,-20 163,-73 163,-73 163,-79 157,-85 151,-85 151,-85 93,-85 93,-85 87,-85 81,-79 81,-73 81,-73 81,-20 81,-20 81,-14 87,-8 93,-8"/>
<text text-anchor="middle" x="122" y="-73" font-family="Arial" font-size="10.00" fill="#000000">supriya.nonrealtime</text>
</g>
<!-- builtins.object&#45;&gt;supriya.nonrealtime.DoNotPropagate.DoNotPropagate -->
<g id="edge1" class="edge">
<title>builtins.object&#45;&gt;supriya.nonrealtime.DoNotPropagate.DoNotPropagate</title>
<path fill="none" stroke="#778899" d="M53.3777,-37C62.77,-37 74.4457,-37 85.463,-37"/>
<polygon fill="#778899" stroke="#778899" points="85.7283,-40.5001 95.7282,-37 85.7282,-33.5001 85.7283,-40.5001"/>
</g>
<!-- builtins.object -->
<g id="node1" class="node">
<title>builtins.object</title>
<g id="a_node1"><a xlink:href="https://docs.python.org/3.6/library/functions.html#object" xlink:title="object" target="_top">
<path fill="#fbb4ae" stroke="#fbb4ae" stroke-width="2" d="M46.6667,-46.5C46.6667,-46.5 22.3333,-46.5 22.3333,-46.5 19.1667,-46.5 16,-43.3333 16,-40.1667 16,-40.1667 16,-33.8333 16,-33.8333 16,-30.6667 19.1667,-27.5 22.3333,-27.5 22.3333,-27.5 46.6667,-27.5 46.6667,-27.5 49.8333,-27.5 53,-30.6667 53,-33.8333 53,-33.8333 53,-40.1667 53,-40.1667 53,-43.3333 49.8333,-46.5 46.6667,-46.5"/>
<text text-anchor="middle" x="34.5" y="-34.5" font-family="Arial" font-size="10.00" fill="#000000">object</text>
</a>
</g>
</g>
<!-- supriya.nonrealtime.DoNotPropagate.DoNotPropagate -->
<g id="node2" class="node">
<title>supriya.nonrealtime.DoNotPropagate.DoNotPropagate</title>
<g id="a_node2"><a xlink:href="../api/supriya/nonrealtime/DoNotPropagate.html#supriya.nonrealtime.DoNotPropagate.DoNotPropagate" xlink:title="Do\nNot\nPropagate" target="_top">
<path fill="#000000" stroke="#000000" stroke-width="2" d="M135,-57.5C135,-57.5 108,-57.5 108,-57.5 102,-57.5 96,-51.5 96,-45.5 96,-45.5 96,-28.5 96,-28.5 96,-22.5 102,-16.5 108,-16.5 108,-16.5 135,-16.5 135,-16.5 141,-16.5 147,-22.5 147,-28.5 147,-28.5 147,-45.5 147,-45.5 147,-51.5 141,-57.5 135,-57.5"/>
<text text-anchor="middle" x="121.5" y="-45.5" font-family="Arial" font-size="10.00" fill="#ffffff">Do</text>
<text text-anchor="middle" x="121.5" y="-34.5" font-family="Arial" font-size="10.00" fill="#ffffff">Not</text>
<text text-anchor="middle" x="121.5" y="-23.5" font-family="Arial" font-size="10.00" fill="#ffffff">Propagate</text>
</a>
</g>
</g>
</g>
</svg>
