<?xml version="1.0" encoding="UTF-8" standalone="no"?>
<!DOCTYPE svg PUBLIC "-//W3C//DTD SVG 1.1//EN"
 "http://www.w3.org/Graphics/SVG/1.1/DTD/svg11.dtd">
<!-- Generated by graphviz version 2.44.1 (20200629.0846)
 -->
<!-- Title: InheritanceGraph Pages: 1 -->
<svg width="737pt" height="626pt"
 viewBox="0.00 0.00 737.00 626.00" xmlns="http://www.w3.org/2000/svg" xmlns:xlink="http://www.w3.org/1999/xlink">
<g id="graph0" class="graph" transform="scale(1 1) rotate(0) translate(4 622)">
<title>InheritanceGraph</title>
<g id="clust1" class="cluster">
<title>cluster_asyncio.protocols</title>
<path fill="transparent" stroke="#bcd2ee" stroke-width="2" stroke-dasharray="5,2" d="M99,-93C99,-93 258.5,-93 258.5,-93 264.5,-93 270.5,-99 270.5,-105 270.5,-105 270.5,-146 270.5,-146 270.5,-152 264.5,-158 258.5,-158 258.5,-158 99,-158 99,-158 93,-158 87,-152 87,-146 87,-146 87,-105 87,-105 87,-99 93,-93 99,-93"/>
<text text-anchor="middle" x="178.75" y="-146" font-family="Arial" font-size="10.00">asyncio.protocols</text>
</g>
<g id="clust2" class="cluster">
<title>cluster_builtins</title>
<path fill="transparent" stroke="#bcd2ee" stroke-width="2" stroke-dasharray="5,2" d="M20,-297C20,-297 373.5,-297 373.5,-297 379.5,-297 385.5,-303 385.5,-309 385.5,-309 385.5,-360 385.5,-360 385.5,-366 379.5,-372 373.5,-372 373.5,-372 20,-372 20,-372 14,-372 8,-366 8,-360 8,-360 8,-309 8,-309 8,-303 14,-297 20,-297"/>
<text text-anchor="middle" x="196.75" y="-360" font-family="Arial" font-size="10.00">builtins</text>
</g>
<g id="clust3" class="cluster">
<title>cluster_socketserver</title>
<path fill="transparent" stroke="#bcd2ee" stroke-width="2" stroke-dasharray="5,2" d="M210.5,-380C210.5,-380 500,-380 500,-380 506,-380 512,-386 512,-392 512,-392 512,-493 512,-493 512,-499 506,-505 500,-505 500,-505 210.5,-505 210.5,-505 204.5,-505 198.5,-499 198.5,-493 198.5,-493 198.5,-392 198.5,-392 198.5,-386 204.5,-380 210.5,-380"/>
<text text-anchor="middle" x="355.25" y="-493" font-family="Arial" font-size="10.00">socketserver</text>
</g>
<g id="clust4" class="cluster">
<title>cluster_supriya.osc.captures</title>
<path fill="transparent" stroke="#bcd2ee" stroke-width="2" stroke-dasharray="5,2" d="M191.5,-166C191.5,-166 274.5,-166 274.5,-166 280.5,-166 286.5,-172 286.5,-178 286.5,-178 286.5,-257 286.5,-257 286.5,-263 280.5,-269 274.5,-269 274.5,-269 191.5,-269 191.5,-269 185.5,-269 179.5,-263 179.5,-257 179.5,-257 179.5,-178 179.5,-178 179.5,-172 185.5,-166 191.5,-166"/>
<text text-anchor="middle" x="233" y="-257" font-family="Arial" font-size="10.00">supriya.osc.captures</text>
</g>
<g id="clust5" class="cluster">
<title>cluster_supriya.osc.messages</title>
<path fill="transparent" stroke="#bcd2ee" stroke-width="2" stroke-dasharray="5,2" d="M425.5,-10C425.5,-10 516.5,-10 516.5,-10 522.5,-10 528.5,-16 528.5,-22 528.5,-22 528.5,-111 528.5,-111 528.5,-117 522.5,-123 516.5,-123 516.5,-123 425.5,-123 425.5,-123 419.5,-123 413.5,-117 413.5,-111 413.5,-111 413.5,-22 413.5,-22 413.5,-16 419.5,-10 425.5,-10"/>
<text text-anchor="middle" x="471" y="-111" font-family="Arial" font-size="10.00">supriya.osc.messages</text>
</g>
<g id="clust6" class="cluster">
<title>cluster_supriya.osc.protocols</title>
<path fill="transparent" stroke="#bcd2ee" stroke-width="2" stroke-dasharray="5,2" d="M560,-200C560,-200 709,-200 709,-200 715,-200 721,-206 721,-212 721,-212 721,-598 721,-598 721,-604 715,-610 709,-610 709,-610 560,-610 560,-610 554,-610 548,-604 548,-598 548,-598 548,-212 548,-212 548,-206 554,-200 560,-200"/>
<text text-anchor="middle" x="634.5" y="-598" font-family="Arial" font-size="10.00">supriya.osc.protocols</text>
</g>
<g id="clust7" class="cluster">
<title>cluster_supriya.system</title>
<path fill="transparent" stroke="#bcd2ee" stroke-width="2" stroke-dasharray="5,2" d="M100.5,-8C100.5,-8 254,-8 254,-8 260,-8 266,-14 266,-20 266,-20 266,-73 266,-73 266,-79 260,-85 254,-85 254,-85 100.5,-85 100.5,-85 94.5,-85 88.5,-79 88.5,-73 88.5,-73 88.5,-20 88.5,-20 88.5,-14 94.5,-8 100.5,-8"/>
<text text-anchor="middle" x="177.25" y="-73" font-family="Arial" font-size="10.00">supriya.system</text>
</g>
<!-- asyncio.protocols.BaseProtocol&#45;&gt;asyncio.protocols.DatagramProtocol -->
<g id="edge1" class="edge">
<title>asyncio.protocols.BaseProtocol&#45;&gt;asyncio.protocols.DatagramProtocol</title>
<path fill="none" stroke="lightslategrey" d="M148.17,-116C161.63,-116 178.39,-116 193.37,-116"/>
<polygon fill="lightslategrey" stroke="lightslategrey" points="193.41,-119.5 203.41,-116 193.41,-112.5 193.41,-119.5"/>
</g>
<!-- asyncio.protocols.DatagramProtocol&#45;&gt;supriya.osc.protocols.AsyncOscProtocol -->
<g id="edge10" class="edge">
<title>asyncio.protocols.DatagramProtocol&#45;&gt;supriya.osc.protocols.AsyncOscProtocol</title>
<path fill="none" stroke="lightslategrey" d="M262.65,-118.78C342.37,-127.01 564.58,-153.62 620,-199 655.51,-228.08 671.67,-280.85 678.64,-314.35"/>
<polygon fill="lightslategrey" stroke="lightslategrey" points="675.27,-315.34 680.59,-324.5 682.14,-314.01 675.27,-315.34"/>
</g>
<!-- builtins.BaseException&#45;&gt;builtins.Exception -->
<g id="edge2" class="edge">
<title>builtins.BaseException&#45;&gt;builtins.Exception</title>
<path fill="none" stroke="lightslategrey" d="M263.26,-330C276.68,-330 292.77,-330 307.22,-330"/>
<polygon fill="lightslategrey" stroke="lightslategrey" points="307.38,-333.5 317.38,-330 307.38,-326.5 307.38,-333.5"/>
</g>
<!-- builtins.Exception&#45;&gt;supriya.osc.protocols.OscProtocolAlreadyConnected -->
<g id="edge11" class="edge">
<title>builtins.Exception&#45;&gt;supriya.osc.protocols.OscProtocolAlreadyConnected</title>
<path fill="none" stroke="lightslategrey" d="M377.56,-334.2C388.77,-335.66 401.71,-337.14 413.5,-338 458.57,-341.28 510.38,-342.09 545.57,-342.2"/>
<polygon fill="lightslategrey" stroke="lightslategrey" points="545.92,-345.7 555.93,-342.21 545.93,-338.7 545.92,-345.7"/>
</g>
<!-- builtins.Exception&#45;&gt;supriya.osc.protocols.OscProtocolOffline -->
<g id="edge12" class="edge">
<title>builtins.Exception&#45;&gt;supriya.osc.protocols.OscProtocolOffline</title>
<path fill="none" stroke="lightslategrey" d="M377.59,-327.05C413.51,-322.98 476.29,-314.44 528.5,-300 536.27,-297.85 544.42,-295.03 552.09,-292.1"/>
<polygon fill="lightslategrey" stroke="lightslategrey" points="553.47,-295.32 561.48,-288.38 550.89,-288.81 553.47,-295.32"/>
</g>
<!-- builtins.object&#45;&gt;asyncio.protocols.BaseProtocol -->
<g id="edge13" class="edge">
<title>builtins.object&#45;&gt;asyncio.protocols.BaseProtocol</title>
<path fill="none" stroke="lightslategrey" d="M42.13,-325.31C54.2,-293.07 93.25,-188.79 111.25,-140.7"/>
<polygon fill="lightslategrey" stroke="lightslategrey" points="114.63,-141.67 114.86,-131.08 108.07,-139.21 114.63,-141.67"/>
</g>
<!-- builtins.object&#45;&gt;builtins.BaseException -->
<g id="edge3" class="edge">
<title>builtins.object&#45;&gt;builtins.BaseException</title>
<path fill="none" stroke="lightslategrey" d="M59.09,-335.05C81.1,-335.04 117.02,-334.88 148,-334 162.54,-333.59 178.48,-332.89 192.53,-332.19"/>
<polygon fill="lightslategrey" stroke="lightslategrey" points="193.05,-335.67 202.85,-331.66 192.69,-328.68 193.05,-335.67"/>
</g>
<!-- builtins.object&#45;&gt;builtins.tuple -->
<g id="edge4" class="edge">
<title>builtins.object&#45;&gt;builtins.tuple</title>
<path fill="none" stroke="lightslategrey" d="M59.19,-329.95C69.26,-327.5 81.51,-324.51 92.41,-321.85"/>
<polygon fill="lightslategrey" stroke="lightslategrey" points="93.44,-325.2 102.33,-319.43 91.78,-318.4 93.44,-325.2"/>
</g>
<!-- builtins.object&#45;&gt;socketserver.BaseRequestHandler -->
<g id="edge14" class="edge">
<title>builtins.object&#45;&gt;socketserver.BaseRequestHandler</title>
<path fill="none" stroke="lightslategrey" d="M48.4,-344.67C57.86,-353.64 72.75,-367.06 87,-377 122.75,-401.93 167.01,-425.39 197.16,-440.37"/>
<polygon fill="lightslategrey" stroke="lightslategrey" points="195.91,-443.66 206.42,-444.93 199,-437.38 195.91,-443.66"/>
</g>
<!-- builtins.object&#45;&gt;socketserver.BaseServer -->
<g id="edge15" class="edge">
<title>builtins.object&#45;&gt;socketserver.BaseServer</title>
<path fill="none" stroke="lightslategrey" d="M59.21,-342.28C93.18,-354.22 160.95,-378.03 200.78,-392.03"/>
<polygon fill="lightslategrey" stroke="lightslategrey" points="199.67,-395.35 210.26,-395.36 201.99,-388.74 199.67,-395.35"/>
</g>
<!-- builtins.object&#45;&gt;supriya.osc.captures.Capture -->
<g id="edge16" class="edge">
<title>builtins.object&#45;&gt;supriya.osc.captures.Capture</title>
<path fill="none" stroke="lightslategrey" d="M46.37,-325.3C66.27,-301.34 121.18,-238.75 179.5,-203 185.09,-199.58 191.38,-196.64 197.62,-194.16"/>
<polygon fill="lightslategrey" stroke="lightslategrey" points="199.07,-197.36 207.28,-190.66 196.68,-190.78 199.07,-197.36"/>
</g>
<!-- builtins.object&#45;&gt;supriya.osc.protocols.HealthCheck -->
<g id="edge17" class="edge">
<title>builtins.object&#45;&gt;supriya.osc.protocols.HealthCheck</title>
<path fill="none" stroke="lightslategrey" d="M39.73,-344.67C43.21,-368.62 55.02,-431.67 87,-472 134.57,-531.99 155.44,-565 232,-565 232,-565 232,-565 348.5,-565 422.49,-565 509.38,-566.46 555.12,-567.34"/>
<polygon fill="lightslategrey" stroke="lightslategrey" points="555.23,-570.85 565.3,-567.54 555.37,-563.85 555.23,-570.85"/>
</g>
<!-- builtins.object&#45;&gt;supriya.osc.protocols.OscProtocol -->
<g id="edge18" class="edge">
<title>builtins.object&#45;&gt;supriya.osc.protocols.OscProtocol</title>
<path fill="none" stroke="lightslategrey" d="M42.56,-344.58C59.49,-382.89 128.49,-523 232,-523 232,-523 232,-523 348.5,-523 420.34,-523 504.34,-521.62 551.03,-520.73"/>
<polygon fill="lightslategrey" stroke="lightslategrey" points="551.31,-524.23 561.24,-520.54 551.17,-517.23 551.31,-524.23"/>
</g>
<!-- builtins.object&#45;&gt;supriya.system.SupriyaObject -->
<g id="edge19" class="edge">
<title>builtins.object&#45;&gt;supriya.system.SupriyaObject</title>
<path fill="none" stroke="lightslategrey" d="M39.02,-325.21C41.11,-291.23 50.63,-175.71 87,-89 90.67,-80.26 96.03,-71.47 101.38,-63.8"/>
<polygon fill="lightslategrey" stroke="lightslategrey" points="104.47,-65.51 107.58,-55.38 98.83,-61.36 104.47,-65.51"/>
</g>
<!-- builtins.tuple&#45;&gt;supriya.osc.captures.CaptureEntry -->
<g id="edge20" class="edge">
<title>builtins.tuple&#45;&gt;supriya.osc.captures.CaptureEntry</title>
<path fill="none" stroke="lightslategrey" d="M134.64,-305.25C151.6,-291.62 182.84,-266.51 205.36,-248.41"/>
<polygon fill="lightslategrey" stroke="lightslategrey" points="207.62,-251.08 213.22,-242.09 203.24,-245.62 207.62,-251.08"/>
</g>
<!-- builtins.tuple&#45;&gt;supriya.osc.protocols.OscCallback -->
<g id="edge21" class="edge">
<title>builtins.tuple&#45;&gt;supriya.osc.protocols.OscCallback</title>
<path fill="none" stroke="lightslategrey" d="M140.71,-311.39C209.82,-297.7 456.75,-248.8 550.52,-230.23"/>
<polygon fill="lightslategrey" stroke="lightslategrey" points="551.27,-233.64 560.4,-228.27 549.91,-226.78 551.27,-233.64"/>
</g>
<!-- socketserver.BaseRequestHandler&#45;&gt;supriya.osc.protocols.ThreadedOscHandler -->
<g id="edge22" class="edge">
<title>socketserver.BaseRequestHandler&#45;&gt;supriya.osc.protocols.ThreadedOscHandler</title>
<path fill="none" stroke="lightslategrey" d="M259.67,-457.65C321.22,-459.22 477.4,-463.21 549.49,-465.04"/>
<polygon fill="lightslategrey" stroke="lightslategrey" points="549.41,-468.54 559.49,-465.3 549.59,-461.54 549.41,-468.54"/>
</g>
<!-- socketserver.BaseServer&#45;&gt;socketserver.TCPServer -->
<g id="edge5" class="edge">
<title>socketserver.BaseServer&#45;&gt;socketserver.TCPServer</title>
<path fill="none" stroke="lightslategrey" d="M255.69,-403.19C269.54,-403.32 287.96,-403.48 304.59,-403.63"/>
<polygon fill="lightslategrey" stroke="lightslategrey" points="304.63,-407.13 314.66,-403.72 304.69,-400.13 304.63,-407.13"/>
</g>
<!-- socketserver.TCPServer&#45;&gt;socketserver.UDPServer -->
<g id="edge6" class="edge">
<title>socketserver.TCPServer&#45;&gt;socketserver.UDPServer</title>
<path fill="none" stroke="lightslategrey" d="M380.29,-404.26C394.4,-404.38 411.22,-404.52 426.43,-404.64"/>
<polygon fill="lightslategrey" stroke="lightslategrey" points="426.63,-408.15 436.66,-404.73 426.69,-401.15 426.63,-408.15"/>
</g>
<!-- socketserver.UDPServer&#45;&gt;supriya.osc.protocols.ThreadedOscServer -->
<g id="edge23" class="edge">
<title>socketserver.UDPServer&#45;&gt;supriya.osc.protocols.ThreadedOscServer</title>
<path fill="none" stroke="lightslategrey" d="M504.29,-405.57C518.24,-405.81 534.6,-406.09 549.07,-406.34"/>
<polygon fill="lightslategrey" stroke="lightslategrey" points="549.16,-409.85 559.22,-406.52 549.28,-402.85 549.16,-409.85"/>
</g>
<!-- supriya.osc.protocols.OscProtocol&#45;&gt;supriya.osc.protocols.AsyncOscProtocol -->
<g id="edge7" class="edge">
<title>supriya.osc.protocols.OscProtocol&#45;&gt;supriya.osc.protocols.AsyncOscProtocol</title>
<path fill="none" stroke="lightslategrey" d="M611.63,-504.76C614.69,-502.07 617.6,-499.13 620,-496 648.37,-459.06 666.43,-407.59 675.76,-375.29"/>
<polygon fill="lightslategrey" stroke="lightslategrey" points="679.17,-376.09 678.49,-365.52 672.43,-374.21 679.17,-376.09"/>
</g>
<!-- supriya.osc.protocols.OscProtocol&#45;&gt;supriya.osc.protocols.ThreadedOscProtocol -->
<g id="edge8" class="edge">
<title>supriya.osc.protocols.OscProtocol&#45;&gt;supriya.osc.protocols.ThreadedOscProtocol</title>
<path fill="none" stroke="lightslategrey" d="M614.82,-520C624.33,-520 635.31,-520 645.66,-520"/>
<polygon fill="lightslategrey" stroke="lightslategrey" points="645.72,-523.5 655.72,-520 645.72,-516.5 645.72,-523.5"/>
</g>
<!-- supriya.system.SupriyaObject&#45;&gt;supriya.system.SupriyaValueObject -->
<g id="edge9" class="edge">
<title>supriya.system.SupriyaObject&#45;&gt;supriya.system.SupriyaValueObject</title>
<path fill="none" stroke="lightslategrey" d="M146.53,-39.34C161.4,-38.93 180.75,-38.4 197.27,-37.95"/>
<polygon fill="lightslategrey" stroke="lightslategrey" points="197.75,-41.44 207.65,-37.67 197.56,-34.44 197.75,-41.44"/>
</g>
<!-- supriya.system.SupriyaValueObject&#45;&gt;supriya.osc.messages.OscBundle -->
<g id="edge24" class="edge">
<title>supriya.system.SupriyaValueObject&#45;&gt;supriya.osc.messages.OscBundle</title>
<path fill="none" stroke="lightslategrey" d="M258.32,-41.54C300.91,-49.5 389.01,-65.96 436.86,-74.9"/>
<polygon fill="lightslategrey" stroke="lightslategrey" points="436.23,-78.35 446.71,-76.74 437.52,-71.46 436.23,-78.35"/>
</g>
<!-- supriya.system.SupriyaValueObject&#45;&gt;supriya.osc.messages.OscMessage -->
<g id="edge25" class="edge">
<title>supriya.system.SupriyaValueObject&#45;&gt;supriya.osc.messages.OscMessage</title>
<path fill="none" stroke="lightslategrey" d="M258.32,-36.59C299.59,-35.89 383.62,-34.46 432.32,-33.63"/>
<polygon fill="lightslategrey" stroke="lightslategrey" points="432.5,-37.13 442.44,-33.46 432.38,-30.13 432.5,-37.13"/>
</g>
<!-- asyncio.protocols.BaseProtocol -->
<g id="node1" class="node">
<title>asyncio.protocols.BaseProtocol</title>
<path fill="#fbb4ae" stroke="#fbb4ae" stroke-width="2" d="M138,-131C138,-131 105,-131 105,-131 100,-131 95,-126 95,-121 95,-121 95,-111 95,-111 95,-106 100,-101 105,-101 105,-101 138,-101 138,-101 143,-101 148,-106 148,-111 148,-111 148,-121 148,-121 148,-126 143,-131 138,-131"/>
<text text-anchor="middle" x="121.5" y="-119" font-family="Arial" font-size="10.00">Base</text>
<text text-anchor="middle" x="121.5" y="-108" font-family="Arial" font-size="10.00">Protocol</text>
</g>
<!-- asyncio.protocols.DatagramProtocol -->
<g id="node2" class="node">
<title>asyncio.protocols.DatagramProtocol</title>
<path fill="#fbb4ae" stroke="#fbb4ae" stroke-width="2" d="M252.5,-131C252.5,-131 213.5,-131 213.5,-131 208.5,-131 203.5,-126 203.5,-121 203.5,-121 203.5,-111 203.5,-111 203.5,-106 208.5,-101 213.5,-101 213.5,-101 252.5,-101 252.5,-101 257.5,-101 262.5,-106 262.5,-111 262.5,-111 262.5,-121 262.5,-121 262.5,-126 257.5,-131 252.5,-131"/>
<text text-anchor="middle" x="233" y="-119" font-family="Arial" font-size="10.00">Datagram</text>
<text text-anchor="middle" x="233" y="-108" font-family="Arial" font-size="10.00">Protocol</text>
</g>
<!-- builtins.BaseException -->
<g id="node3" class="node">
<title>builtins.BaseException</title>
<g id="a_node3"><a xlink:href="https://docs.python.org/3/library/exceptions.html#BaseException" xlink:title="Base\nException" target="_top">
<path fill="#b3cde3" stroke="#b3cde3" stroke-width="2" d="M253,-345C253,-345 213,-345 213,-345 208,-345 203,-340 203,-335 203,-335 203,-325 203,-325 203,-320 208,-315 213,-315 213,-315 253,-315 253,-315 258,-315 263,-320 263,-325 263,-325 263,-335 263,-335 263,-340 258,-345 253,-345"/>
<text text-anchor="middle" x="233" y="-333" font-family="Arial" font-size="10.00">Base</text>
<text text-anchor="middle" x="233" y="-322" font-family="Arial" font-size="10.00">Exception</text>
</a>
</g>
</g>
<!-- builtins.Exception -->
<g id="node4" class="node">
<title>builtins.Exception</title>
<g id="a_node4"><a xlink:href="https://docs.python.org/3/library/exceptions.html#Exception" xlink:title="Exception" target="_top">
<path fill="#b3cde3" stroke="#b3cde3" stroke-width="2" d="M371.17,-339.5C371.17,-339.5 323.83,-339.5 323.83,-339.5 320.67,-339.5 317.5,-336.33 317.5,-333.17 317.5,-333.17 317.5,-326.83 317.5,-326.83 317.5,-323.67 320.67,-320.5 323.83,-320.5 323.83,-320.5 371.17,-320.5 371.17,-320.5 374.33,-320.5 377.5,-323.67 377.5,-326.83 377.5,-326.83 377.5,-333.17 377.5,-333.17 377.5,-336.33 374.33,-339.5 371.17,-339.5"/>
<text text-anchor="middle" x="347.5" y="-327.5" font-family="Arial" font-size="10.00">Exception</text>
</a>
</g>
</g>
<!-- builtins.object -->
<g id="node5" class="node">
<title>builtins.object</title>
<g id="a_node5"><a xlink:href="https://docs.python.org/3/library/functions.html#object" xlink:title="object" target="_top">
<path fill="#b3cde3" stroke="#b3cde3" stroke-width="2" d="M52.67,-344.5C52.67,-344.5 22.33,-344.5 22.33,-344.5 19.17,-344.5 16,-341.33 16,-338.17 16,-338.17 16,-331.83 16,-331.83 16,-328.67 19.17,-325.5 22.33,-325.5 22.33,-325.5 52.67,-325.5 52.67,-325.5 55.83,-325.5 59,-328.67 59,-331.83 59,-331.83 59,-338.17 59,-338.17 59,-341.33 55.83,-344.5 52.67,-344.5"/>
<text text-anchor="middle" x="37.5" y="-332.5" font-family="Arial" font-size="10.00">object</text>
</a>
</g>
</g>
<!-- builtins.tuple -->
<g id="node6" class="node">
<title>builtins.tuple</title>
<g id="a_node6"><a xlink:href="https://docs.python.org/3/library/stdtypes.html#tuple" xlink:title="tuple" target="_top">
<path fill="#b3cde3" stroke="#b3cde3" stroke-width="2" d="M134.17,-324.5C134.17,-324.5 108.83,-324.5 108.83,-324.5 105.67,-324.5 102.5,-321.33 102.5,-318.17 102.5,-318.17 102.5,-311.83 102.5,-311.83 102.5,-308.67 105.67,-305.5 108.83,-305.5 108.83,-305.5 134.17,-305.5 134.17,-305.5 137.33,-305.5 140.5,-308.67 140.5,-311.83 140.5,-311.83 140.5,-318.17 140.5,-318.17 140.5,-321.33 137.33,-324.5 134.17,-324.5"/>
<text text-anchor="middle" x="121.5" y="-312.5" font-family="Arial" font-size="10.00">tuple</text>
</a>
</g>
</g>
<!-- socketserver.BaseRequestHandler -->
<g id="node7" class="node">
<title>socketserver.BaseRequestHandler</title>
<g id="a_node7"><a xlink:href="https://docs.python.org/3/library/socketserver.html#socketserver.BaseRequestHandler" xlink:title="Base\nRequest\nHandler" target="_top">
<path fill="#ccebc5" stroke="#ccebc5" stroke-width="2" d="M247.5,-477.5C247.5,-477.5 218.5,-477.5 218.5,-477.5 212.5,-477.5 206.5,-471.5 206.5,-465.5 206.5,-465.5 206.5,-448.5 206.5,-448.5 206.5,-442.5 212.5,-436.5 218.5,-436.5 218.5,-436.5 247.5,-436.5 247.5,-436.5 253.5,-436.5 259.5,-442.5 259.5,-448.5 259.5,-448.5 259.5,-465.5 259.5,-465.5 259.5,-471.5 253.5,-477.5 247.5,-477.5"/>
<text text-anchor="middle" x="233" y="-465.5" font-family="Arial" font-size="10.00">Base</text>
<text text-anchor="middle" x="233" y="-454.5" font-family="Arial" font-size="10.00">Request</text>
<text text-anchor="middle" x="233" y="-443.5" font-family="Arial" font-size="10.00">Handler</text>
</a>
</g>
</g>
<!-- socketserver.BaseServer -->
<g id="node8" class="node">
<title>socketserver.BaseServer</title>
<g id="a_node8"><a xlink:href="https://docs.python.org/3/library/socketserver.html#socketserver.BaseServer" xlink:title="Base\nServer" target="_top">
<path fill="#ccebc5" stroke="#ccebc5" stroke-width="2" d="M245.5,-418C245.5,-418 220.5,-418 220.5,-418 215.5,-418 210.5,-413 210.5,-408 210.5,-408 210.5,-398 210.5,-398 210.5,-393 215.5,-388 220.5,-388 220.5,-388 245.5,-388 245.5,-388 250.5,-388 255.5,-393 255.5,-398 255.5,-398 255.5,-408 255.5,-408 255.5,-413 250.5,-418 245.5,-418"/>
<text text-anchor="middle" x="233" y="-406" font-family="Arial" font-size="10.00">Base</text>
<text text-anchor="middle" x="233" y="-395" font-family="Arial" font-size="10.00">Server</text>
</a>
</g>
</g>
<!-- socketserver.TCPServer -->
<g id="node9" class="node">
<title>socketserver.TCPServer</title>
<g id="a_node9"><a xlink:href="https://docs.python.org/3/library/socketserver.html#socketserver.TCPServer" xlink:title="TCPServer" target="_top">
<path fill="#ccebc5" stroke="#ccebc5" stroke-width="2" d="M373.67,-413.5C373.67,-413.5 321.33,-413.5 321.33,-413.5 318.17,-413.5 315,-410.33 315,-407.17 315,-407.17 315,-400.83 315,-400.83 315,-397.67 318.17,-394.5 321.33,-394.5 321.33,-394.5 373.67,-394.5 373.67,-394.5 376.83,-394.5 380,-397.67 380,-400.83 380,-400.83 380,-407.17 380,-407.17 380,-410.33 376.83,-413.5 373.67,-413.5"/>
<text text-anchor="middle" x="347.5" y="-401.5" font-family="Arial" font-size="10.00">TCPServer</text>
</a>
</g>
</g>
<!-- socketserver.UDPServer -->
<g id="node10" class="node">
<title>socketserver.UDPServer</title>
<g id="a_node10"><a xlink:href="https://docs.python.org/3/library/socketserver.html#socketserver.UDPServer" xlink:title="UDPServer" target="_top">
<path fill="#ccebc5" stroke="#ccebc5" stroke-width="2" d="M497.67,-414.5C497.67,-414.5 443.33,-414.5 443.33,-414.5 440.17,-414.5 437,-411.33 437,-408.17 437,-408.17 437,-401.83 437,-401.83 437,-398.67 440.17,-395.5 443.33,-395.5 443.33,-395.5 497.67,-395.5 497.67,-395.5 500.83,-395.5 504,-398.67 504,-401.83 504,-401.83 504,-408.17 504,-408.17 504,-411.33 500.83,-414.5 497.67,-414.5"/>
<text text-anchor="middle" x="470.5" y="-402.5" font-family="Arial" font-size="10.00">UDPServer</text>
</a>
</g>
</g>
<!-- supriya.osc.captures.Capture -->
<g id="node11" class="node">
<title>supriya.osc.captures.Capture</title>
<g id="a_node11"><a xlink:href="../api/supriya/osc/captures.html#supriya.osc.captures.Capture" xlink:title="Capture" target="_top">
<path fill="#decbe4" stroke="#decbe4" stroke-width="2" d="M252.17,-193.5C252.17,-193.5 213.83,-193.5 213.83,-193.5 210.67,-193.5 207.5,-190.33 207.5,-187.17 207.5,-187.17 207.5,-180.83 207.5,-180.83 207.5,-177.67 210.67,-174.5 213.83,-174.5 213.83,-174.5 252.17,-174.5 252.17,-174.5 255.33,-174.5 258.5,-177.67 258.5,-180.83 258.5,-180.83 258.5,-187.17 258.5,-187.17 258.5,-190.33 255.33,-193.5 252.17,-193.5"/>
<text text-anchor="middle" x="233" y="-181.5" font-family="Arial" font-size="10.00">Capture</text>
</a>
</g>
</g>
<!-- supriya.osc.captures.CaptureEntry -->
<g id="node12" class="node">
<title>supriya.osc.captures.CaptureEntry</title>
<g id="a_node12"><a xlink:href="../api/supriya/osc/captures.html#supriya.osc.captures.CaptureEntry" xlink:title="Capture\nEntry" target="_top">
<path fill="#decbe4" stroke="#decbe4" stroke-width="2" d="M248.5,-242C248.5,-242 217.5,-242 217.5,-242 212.5,-242 207.5,-237 207.5,-232 207.5,-232 207.5,-222 207.5,-222 207.5,-217 212.5,-212 217.5,-212 217.5,-212 248.5,-212 248.5,-212 253.5,-212 258.5,-217 258.5,-222 258.5,-222 258.5,-232 258.5,-232 258.5,-237 253.5,-242 248.5,-242"/>
<text text-anchor="middle" x="233" y="-230" font-family="Arial" font-size="10.00">Capture</text>
<text text-anchor="middle" x="233" y="-219" font-family="Arial" font-size="10.00">Entry</text>
</a>
</g>
</g>
<!-- supriya.osc.messages.OscBundle -->
<g id="node13" class="node">
<title>supriya.osc.messages.OscBundle</title>
<g id="a_node13"><a xlink:href="../api/supriya/osc/messages.html#supriya.osc.messages.OscBundle" xlink:title="Osc\nBundle" target="_top">
<path fill="#fed9a6" stroke="#fed9a6" stroke-width="2" d="M484,-96C484,-96 457,-96 457,-96 452,-96 447,-91 447,-86 447,-86 447,-76 447,-76 447,-71 452,-66 457,-66 457,-66 484,-66 484,-66 489,-66 494,-71 494,-76 494,-76 494,-86 494,-86 494,-91 489,-96 484,-96"/>
<text text-anchor="middle" x="470.5" y="-84" font-family="Arial" font-size="10.00">Osc</text>
<text text-anchor="middle" x="470.5" y="-73" font-family="Arial" font-size="10.00">Bundle</text>
</a>
</g>
</g>
<!-- supriya.osc.messages.OscMessage -->
<g id="node14" class="node">
<title>supriya.osc.messages.OscMessage</title>
<g id="a_node14"><a xlink:href="../api/supriya/osc/messages.html#supriya.osc.messages.OscMessage" xlink:title="Osc\nMessage" target="_top">
<path fill="#fed9a6" stroke="#fed9a6" stroke-width="2" d="M488.5,-48C488.5,-48 452.5,-48 452.5,-48 447.5,-48 442.5,-43 442.5,-38 442.5,-38 442.5,-28 442.5,-28 442.5,-23 447.5,-18 452.5,-18 452.5,-18 488.5,-18 488.5,-18 493.5,-18 498.5,-23 498.5,-28 498.5,-28 498.5,-38 498.5,-38 498.5,-43 493.5,-48 488.5,-48"/>
<text text-anchor="middle" x="470.5" y="-36" font-family="Arial" font-size="10.00">Osc</text>
<text text-anchor="middle" x="470.5" y="-25" font-family="Arial" font-size="10.00">Message</text>
</a>
</g>
</g>
<!-- supriya.osc.protocols.AsyncOscProtocol -->
<g id="node15" class="node">
<title>supriya.osc.protocols.AsyncOscProtocol</title>
<g id="a_node15"><a xlink:href="../api/supriya/osc/protocols.html#supriya.osc.protocols.AsyncOscProtocol" xlink:title="Async\nOsc\nProtocol" target="_top">
<path fill="#ffffcc" stroke="#ffffcc" stroke-width="2" d="M699,-365.5C699,-365.5 670,-365.5 670,-365.5 664,-365.5 658,-359.5 658,-353.5 658,-353.5 658,-336.5 658,-336.5 658,-330.5 664,-324.5 670,-324.5 670,-324.5 699,-324.5 699,-324.5 705,-324.5 711,-330.5 711,-336.5 711,-336.5 711,-353.5 711,-353.5 711,-359.5 705,-365.5 699,-365.5"/>
<text text-anchor="middle" x="684.5" y="-353.5" font-family="Arial" font-size="10.00">Async</text>
<text text-anchor="middle" x="684.5" y="-342.5" font-family="Arial" font-size="10.00">Osc</text>
<text text-anchor="middle" x="684.5" y="-331.5" font-family="Arial" font-size="10.00">Protocol</text>
</a>
</g>
</g>
<!-- supriya.osc.protocols.HealthCheck -->
<g id="node16" class="node">
<title>supriya.osc.protocols.HealthCheck</title>
<g id="a_node16"><a xlink:href="../api/supriya/osc/protocols.html#supriya.osc.protocols.HealthCheck" xlink:title="Health\nCheck" target="_top">
<path fill="#ffffcc" stroke="#ffffcc" stroke-width="2" d="M600.5,-583C600.5,-583 575.5,-583 575.5,-583 570.5,-583 565.5,-578 565.5,-573 565.5,-573 565.5,-563 565.5,-563 565.5,-558 570.5,-553 575.5,-553 575.5,-553 600.5,-553 600.5,-553 605.5,-553 610.5,-558 610.5,-563 610.5,-563 610.5,-573 610.5,-573 610.5,-578 605.5,-583 600.5,-583"/>
<text text-anchor="middle" x="588" y="-571" font-family="Arial" font-size="10.00">Health</text>
<text text-anchor="middle" x="588" y="-560" font-family="Arial" font-size="10.00">Check</text>
</a>
</g>
</g>
<!-- supriya.osc.protocols.OscCallback -->
<g id="node17" class="node">
<title>supriya.osc.protocols.OscCallback</title>
<g id="a_node17"><a xlink:href="../api/supriya/osc/protocols.html#supriya.osc.protocols.OscCallback" xlink:title="Osc\nCallback" target="_top">
<path fill="#ffffcc" stroke="#ffffcc" stroke-width="2" d="M605.5,-238C605.5,-238 570.5,-238 570.5,-238 565.5,-238 560.5,-233 560.5,-228 560.5,-228 560.5,-218 560.5,-218 560.5,-213 565.5,-208 570.5,-208 570.5,-208 605.5,-208 605.5,-208 610.5,-208 615.5,-213 615.5,-218 615.5,-218 615.5,-228 615.5,-228 615.5,-233 610.5,-238 605.5,-238"/>
<text text-anchor="middle" x="588" y="-226" font-family="Arial" font-size="10.00">Osc</text>
<text text-anchor="middle" x="588" y="-215" font-family="Arial" font-size="10.00">Callback</text>
</a>
</g>
</g>
<!-- supriya.osc.protocols.OscProtocol -->
<g id="node18" class="node">
<title>supriya.osc.protocols.OscProtocol</title>
<g id="a_node18"><a xlink:href="../api/supriya/osc/protocols.html#supriya.osc.protocols.OscProtocol" xlink:title="Osc\nProtocol" target="_top">
<path fill="#ffffcc" stroke="#ffffcc" stroke-width="2" d="M604.5,-535C604.5,-535 571.5,-535 571.5,-535 566.5,-535 561.5,-530 561.5,-525 561.5,-525 561.5,-515 561.5,-515 561.5,-510 566.5,-505 571.5,-505 571.5,-505 604.5,-505 604.5,-505 609.5,-505 614.5,-510 614.5,-515 614.5,-515 614.5,-525 614.5,-525 614.5,-530 609.5,-535 604.5,-535"/>
<text text-anchor="middle" x="588" y="-523" font-family="Arial" font-size="10.00">Osc</text>
<text text-anchor="middle" x="588" y="-512" font-family="Arial" font-size="10.00">Protocol</text>
</a>
</g>
</g>
<!-- supriya.osc.protocols.ThreadedOscProtocol -->
<g id="node19" class="node">
<title>supriya.osc.protocols.ThreadedOscProtocol</title>
<g id="a_node19"><a xlink:href="../api/supriya/osc/protocols.html#supriya.osc.protocols.ThreadedOscProtocol" xlink:title="Threaded\nOsc\nProtocol" target="_top">
<path fill="#ffffcc" stroke="#ffffcc" stroke-width="2" d="M701,-540.5C701,-540.5 668,-540.5 668,-540.5 662,-540.5 656,-534.5 656,-528.5 656,-528.5 656,-511.5 656,-511.5 656,-505.5 662,-499.5 668,-499.5 668,-499.5 701,-499.5 701,-499.5 707,-499.5 713,-505.5 713,-511.5 713,-511.5 713,-528.5 713,-528.5 713,-534.5 707,-540.5 701,-540.5"/>
<text text-anchor="middle" x="684.5" y="-528.5" font-family="Arial" font-size="10.00">Threaded</text>
<text text-anchor="middle" x="684.5" y="-517.5" font-family="Arial" font-size="10.00">Osc</text>
<text text-anchor="middle" x="684.5" y="-506.5" font-family="Arial" font-size="10.00">Protocol</text>
</a>
</g>
</g>
<!-- supriya.osc.protocols.OscProtocolAlreadyConnected -->
<g id="node20" class="node">
<title>supriya.osc.protocols.OscProtocolAlreadyConnected</title>
<g id="a_node20"><a xlink:href="../api/supriya/osc/protocols.html#supriya.osc.protocols.OscProtocolAlreadyConnected" xlink:title="Osc\nProtocol\nAlready\nConnected" target="_top">
<path fill="#ffffcc" stroke="#ffffcc" stroke-width="2" d="M608,-368C608,-368 568,-368 568,-368 562,-368 556,-362 556,-356 556,-356 556,-328 556,-328 556,-322 562,-316 568,-316 568,-316 608,-316 608,-316 614,-316 620,-322 620,-328 620,-328 620,-356 620,-356 620,-362 614,-368 608,-368"/>
<text text-anchor="middle" x="588" y="-356" font-family="Arial" font-size="10.00">Osc</text>
<text text-anchor="middle" x="588" y="-345" font-family="Arial" font-size="10.00">Protocol</text>
<text text-anchor="middle" x="588" y="-334" font-family="Arial" font-size="10.00">Already</text>
<text text-anchor="middle" x="588" y="-323" font-family="Arial" font-size="10.00">Connected</text>
</a>
</g>
</g>
<!-- supriya.osc.protocols.OscProtocolOffline -->
<g id="node21" class="node">
<title>supriya.osc.protocols.OscProtocolOffline</title>
<g id="a_node21"><a xlink:href="../api/supriya/osc/protocols.html#supriya.osc.protocols.OscProtocolOffline" xlink:title="Osc\nProtocol\nOffline" target="_top">
<path fill="#ffffcc" stroke="#ffffcc" stroke-width="2" d="M602.5,-297.5C602.5,-297.5 573.5,-297.5 573.5,-297.5 567.5,-297.5 561.5,-291.5 561.5,-285.5 561.5,-285.5 561.5,-268.5 561.5,-268.5 561.5,-262.5 567.5,-256.5 573.5,-256.5 573.5,-256.5 602.5,-256.5 602.5,-256.5 608.5,-256.5 614.5,-262.5 614.5,-268.5 614.5,-268.5 614.5,-285.5 614.5,-285.5 614.5,-291.5 608.5,-297.5 602.5,-297.5"/>
<text text-anchor="middle" x="588" y="-285.5" font-family="Arial" font-size="10.00">Osc</text>
<text text-anchor="middle" x="588" y="-274.5" font-family="Arial" font-size="10.00">Protocol</text>
<text text-anchor="middle" x="588" y="-263.5" font-family="Arial" font-size="10.00">Offline</text>
</a>
</g>
</g>
<!-- supriya.osc.protocols.ThreadedOscHandler -->
<g id="node22" class="node">
<title>supriya.osc.protocols.ThreadedOscHandler</title>
<g id="a_node22"><a xlink:href="../api/supriya/osc/protocols.html#supriya.osc.protocols.ThreadedOscHandler" xlink:title="Threaded\nOsc\nHandler" target="_top">
<path fill="#ffffcc" stroke="#ffffcc" stroke-width="2" d="M604.5,-486.5C604.5,-486.5 571.5,-486.5 571.5,-486.5 565.5,-486.5 559.5,-480.5 559.5,-474.5 559.5,-474.5 559.5,-457.5 559.5,-457.5 559.5,-451.5 565.5,-445.5 571.5,-445.5 571.5,-445.5 604.5,-445.5 604.5,-445.5 610.5,-445.5 616.5,-451.5 616.5,-457.5 616.5,-457.5 616.5,-474.5 616.5,-474.5 616.5,-480.5 610.5,-486.5 604.5,-486.5"/>
<text text-anchor="middle" x="588" y="-474.5" font-family="Arial" font-size="10.00">Threaded</text>
<text text-anchor="middle" x="588" y="-463.5" font-family="Arial" font-size="10.00">Osc</text>
<text text-anchor="middle" x="588" y="-452.5" font-family="Arial" font-size="10.00">Handler</text>
</a>
</g>
</g>
<!-- supriya.osc.protocols.ThreadedOscServer -->
<g id="node23" class="node">
<title>supriya.osc.protocols.ThreadedOscServer</title>
<g id="a_node23"><a xlink:href="../api/supriya/osc/protocols.html#supriya.osc.protocols.ThreadedOscServer" xlink:title="Threaded\nOsc\nServer" target="_top">
<path fill="#ffffcc" stroke="#ffffcc" stroke-width="2" d="M604.5,-427.5C604.5,-427.5 571.5,-427.5 571.5,-427.5 565.5,-427.5 559.5,-421.5 559.5,-415.5 559.5,-415.5 559.5,-398.5 559.5,-398.5 559.5,-392.5 565.5,-386.5 571.5,-386.5 571.5,-386.5 604.5,-386.5 604.5,-386.5 610.5,-386.5 616.5,-392.5 616.5,-398.5 616.5,-398.5 616.5,-415.5 616.5,-415.5 616.5,-421.5 610.5,-427.5 604.5,-427.5"/>
<text text-anchor="middle" x="588" y="-415.5" font-family="Arial" font-size="10.00">Threaded</text>
<text text-anchor="middle" x="588" y="-404.5" font-family="Arial" font-size="10.00">Osc</text>
<text text-anchor="middle" x="588" y="-393.5" font-family="Arial" font-size="10.00">Server</text>
</a>
</g>
</g>
<!-- supriya.system.SupriyaObject -->
<g id="node24" class="node">
<title>supriya.system.SupriyaObject</title>
<g id="a_node24"><a xlink:href="../api/supriya/osc/../system.html#supriya.system.SupriyaObject" xlink:title="Supriya\nObject" target="_top">
<path fill="#e5d8bd" stroke="#e5d8bd" stroke-width="2" d="M136.5,-55C136.5,-55 106.5,-55 106.5,-55 101.5,-55 96.5,-50 96.5,-45 96.5,-45 96.5,-35 96.5,-35 96.5,-30 101.5,-25 106.5,-25 106.5,-25 136.5,-25 136.5,-25 141.5,-25 146.5,-30 146.5,-35 146.5,-35 146.5,-45 146.5,-45 146.5,-50 141.5,-55 136.5,-55"/>
<text text-anchor="middle" x="121.5" y="-43" font-family="Arial" font-size="10.00">Supriya</text>
<text text-anchor="middle" x="121.5" y="-32" font-family="Arial" font-size="10.00">Object</text>
</a>
</g>
</g>
<!-- supriya.system.SupriyaValueObject -->
<g id="node25" class="node">
<title>supriya.system.SupriyaValueObject</title>
<g id="a_node25"><a xlink:href="../api/supriya/osc/../system.html#supriya.system.SupriyaValueObject" xlink:title="Supriya\nValue\nObject" target="_top">
<path fill="#e5d8bd" stroke="#e5d8bd" stroke-width="2" d="M246,-57.5C246,-57.5 220,-57.5 220,-57.5 214,-57.5 208,-51.5 208,-45.5 208,-45.5 208,-28.5 208,-28.5 208,-22.5 214,-16.5 220,-16.5 220,-16.5 246,-16.5 246,-16.5 252,-16.5 258,-22.5 258,-28.5 258,-28.5 258,-45.5 258,-45.5 258,-51.5 252,-57.5 246,-57.5"/>
<text text-anchor="middle" x="233" y="-45.5" font-family="Arial" font-size="10.00">Supriya</text>
<text text-anchor="middle" x="233" y="-34.5" font-family="Arial" font-size="10.00">Value</text>
<text text-anchor="middle" x="233" y="-23.5" font-family="Arial" font-size="10.00">Object</text>
</a>
</g>
</g>
</g>
</svg>
