<?xml version="1.0" encoding="UTF-8" standalone="no"?>
<!DOCTYPE svg PUBLIC "-//W3C//DTD SVG 1.1//EN"
 "http://www.w3.org/Graphics/SVG/1.1/DTD/svg11.dtd">
<!-- Generated by graphviz version 2.40.1 (20161225.0304)
 -->
<!-- Title: InheritanceGraph Pages: 1 -->
<svg width="587pt" height="117pt"
 viewBox="0.00 0.00 586.82 117.00" xmlns="http://www.w3.org/2000/svg" xmlns:xlink="http://www.w3.org/1999/xlink">
<g id="graph0" class="graph" transform="scale(1 1) rotate(0) translate(4 113)">
<title>InheritanceGraph</title>
<g id="clust1" class="cluster">
<title>cluster_builtins</title>
<path fill="transparent" stroke="#bcd2ee" stroke-width="2" stroke-dasharray="5,2" d="M20,-27C20,-27 49,-27 49,-27 55,-27 61,-33 61,-39 61,-39 61,-70 61,-70 61,-76 55,-82 49,-82 49,-82 20,-82 20,-82 14,-82 8,-76 8,-70 8,-70 8,-39 8,-39 8,-33 14,-27 20,-27"/>
<text text-anchor="middle" x="34.5" y="-70" font-family="Arial" font-size="10.00" fill="#000000">builtins</text>
</g>
<g id="clust2" class="cluster">
<title>cluster_supriya.synthdefs</title>
<path fill="transparent" stroke="#bcd2ee" stroke-width="2" stroke-dasharray="5,2" d="M180,-16C180,-16 231,-16 231,-16 237,-16 243,-22 243,-28 243,-28 243,-81 243,-81 243,-87 237,-93 231,-93 231,-93 180,-93 180,-93 174,-93 168,-87 168,-81 168,-81 168,-28 168,-28 168,-22 174,-16 180,-16"/>
<text text-anchor="middle" x="205.5" y="-81" font-family="Arial" font-size="10.00" fill="#000000">supriya.synthdefs</text>
</g>
<g id="clust3" class="cluster">
<title>cluster_supriya.system</title>
<path fill="transparent" stroke="#bcd2ee" stroke-width="2" stroke-dasharray="5,2" d="M93,-22C93,-22 136,-22 136,-22 142,-22 148,-28 148,-34 148,-34 148,-75 148,-75 148,-81 142,-87 136,-87 136,-87 93,-87 93,-87 87,-87 81,-81 81,-75 81,-75 81,-34 81,-34 81,-28 87,-22 93,-22"/>
<text text-anchor="middle" x="114.5" y="-75" font-family="Arial" font-size="10.00" fill="#000000">supriya.system</text>
</g>
<g id="clust4" class="cluster">
<title>cluster_supriya.ugens</title>
<path fill="transparent" stroke="#bcd2ee" stroke-width="2" stroke-dasharray="5,2" d="M275,-8C275,-8 558.8234,-8 558.8234,-8 564.8234,-8 570.8234,-14 570.8234,-20 570.8234,-20 570.8234,-89 570.8234,-89 570.8234,-95 564.8234,-101 558.8234,-101 558.8234,-101 275,-101 275,-101 269,-101 263,-95 263,-89 263,-89 263,-20 263,-20 263,-14 269,-8 275,-8"/>
<text text-anchor="middle" x="416.9117" y="-89" font-family="Arial" font-size="10.00" fill="#000000">supriya.ugens</text>
</g>
<!-- builtins.object&#45;&gt;supriya.system.SupriyaObject.SupriyaObject -->
<g id="edge4" class="edge">
<title>builtins.object&#45;&gt;supriya.system.SupriyaObject.SupriyaObject</title>
<path fill="none" stroke="#778899" d="M53.3404,-45C62.0401,-45 72.6079,-45 82.4698,-45"/>
<polygon fill="#778899" stroke="#778899" points="82.7722,-48.5001 92.7722,-45 82.7721,-41.5001 82.7722,-48.5001"/>
</g>
<!-- supriya.synthdefs.UGenMethodMixin.UGenMethodMixin&#45;&gt;supriya.ugens.UGen.UGen -->
<g id="edge5" class="edge">
<title>supriya.synthdefs.UGenMethodMixin.UGenMethodMixin&#45;&gt;supriya.ugens.UGen.UGen</title>
<path fill="none" stroke="#778899" d="M226.2117,-45C236.3925,-45 248.8752,-45 260.4793,-45"/>
<polygon fill="#778899" stroke="#778899" points="260.7979,-48.5001 270.7978,-45 260.7978,-41.5001 260.7979,-48.5001"/>
</g>
<!-- supriya.system.SupriyaObject.SupriyaObject&#45;&gt;supriya.synthdefs.UGenMethodMixin.UGenMethodMixin -->
<g id="edge6" class="edge">
<title>supriya.system.SupriyaObject.SupriyaObject&#45;&gt;supriya.synthdefs.UGenMethodMixin.UGenMethodMixin</title>
<path fill="none" stroke="#778899" d="M135.106,-45C146.5093,-45 160.815,-45 173.5087,-45"/>
<polygon fill="#778899" stroke="#778899" points="173.6933,-48.5001 183.6933,-45 173.6932,-41.5001 173.6933,-48.5001"/>
</g>
<!-- supriya.ugens.Control.Control&#45;&gt;supriya.ugens.TrigControl.TrigControl -->
<g id="edge1" class="edge">
<title>supriya.ugens.Control.Control&#45;&gt;supriya.ugens.TrigControl.TrigControl</title>
<path fill="none" stroke="#778899" d="M485.958,-45C493.8122,-45 502.9412,-45 511.5355,-45"/>
<polygon fill="#778899" stroke="#778899" points="511.6319,-48.5001 521.6318,-45 511.6318,-41.5001 511.6319,-48.5001"/>
</g>
<!-- supriya.ugens.MultiOutUGen.MultiOutUGen&#45;&gt;supriya.ugens.Control.Control -->
<g id="edge2" class="edge">
<title>supriya.ugens.MultiOutUGen.MultiOutUGen&#45;&gt;supriya.ugens.Control.Control</title>
<path fill="none" stroke="#778899" d="M408.8496,-45C416.9772,-45 426.0586,-45 434.5218,-45"/>
<polygon fill="#778899" stroke="#778899" points="434.7929,-48.5001 444.7928,-45 434.7928,-41.5001 434.7929,-48.5001"/>
</g>
<!-- supriya.ugens.UGen.UGen&#45;&gt;supriya.ugens.MultiOutUGen.MultiOutUGen -->
<g id="edge3" class="edge">
<title>supriya.ugens.UGen.UGen&#45;&gt;supriya.ugens.MultiOutUGen.MultiOutUGen</title>
<path fill="none" stroke="#778899" d="M322.0621,-45C330.0361,-45 338.9805,-45 347.5203,-45"/>
<polygon fill="#778899" stroke="#778899" points="347.644,-48.5001 357.6439,-45 347.6439,-41.5001 347.644,-48.5001"/>
</g>
<!-- builtins.object -->
<g id="node1" class="node">
<title>builtins.object</title>
<g id="a_node1"><a xlink:href="https://docs.python.org/3.6/library/functions.html#object" xlink:title="object" target="_top">
<path fill="#fbb4ae" stroke="#fbb4ae" stroke-width="2" d="M46.6667,-54.5C46.6667,-54.5 22.3333,-54.5 22.3333,-54.5 19.1667,-54.5 16,-51.3333 16,-48.1667 16,-48.1667 16,-41.8333 16,-41.8333 16,-38.6667 19.1667,-35.5 22.3333,-35.5 22.3333,-35.5 46.6667,-35.5 46.6667,-35.5 49.8333,-35.5 53,-38.6667 53,-41.8333 53,-41.8333 53,-48.1667 53,-48.1667 53,-51.3333 49.8333,-54.5 46.6667,-54.5"/>
<text text-anchor="middle" x="34.5" y="-42.5" font-family="Arial" font-size="10.00" fill="#000000">object</text>
</a>
</g>
</g>
<!-- supriya.synthdefs.UGenMethodMixin.UGenMethodMixin -->
<g id="node2" class="node">
<title>supriya.synthdefs.UGenMethodMixin.UGenMethodMixin</title>
<g id="a_node2"><a xlink:href="../api/supriya/ugens/../synthdefs/UGenMethodMixin.html#supriya.synthdefs.UGenMethodMixin.UGenMethodMixin" xlink:title="UGen\nMethod\nMixin" target="_top">
<path fill="#b3cde3" stroke="#b3cde3" stroke-width="2" d="M214,-65.5C214,-65.5 196,-65.5 196,-65.5 190,-65.5 184,-59.5 184,-53.5 184,-53.5 184,-36.5 184,-36.5 184,-30.5 190,-24.5 196,-24.5 196,-24.5 214,-24.5 214,-24.5 220,-24.5 226,-30.5 226,-36.5 226,-36.5 226,-53.5 226,-53.5 226,-59.5 220,-65.5 214,-65.5"/>
<text text-anchor="middle" x="205" y="-53.5" font-family="Arial" font-size="10.00" fill="#000000">UGen</text>
<text text-anchor="middle" x="205" y="-42.5" font-family="Arial" font-size="10.00" fill="#000000">Method</text>
<text text-anchor="middle" x="205" y="-31.5" font-family="Arial" font-size="10.00" fill="#000000">Mixin</text>
</a>
</g>
</g>
<!-- supriya.system.SupriyaObject.SupriyaObject -->
<g id="node3" class="node">
<title>supriya.system.SupriyaObject.SupriyaObject</title>
<g id="a_node3"><a xlink:href="../api/supriya/ugens/../system/SupriyaObject.html#supriya.system.SupriyaObject.SupriyaObject" xlink:title="Supriya\nObject" target="_top">
<path fill="#ccebc5" stroke="#ccebc5" stroke-width="2" d="M125,-60C125,-60 103,-60 103,-60 98,-60 93,-55 93,-50 93,-50 93,-40 93,-40 93,-35 98,-30 103,-30 103,-30 125,-30 125,-30 130,-30 135,-35 135,-40 135,-40 135,-50 135,-50 135,-55 130,-60 125,-60"/>
<text text-anchor="middle" x="114" y="-48" font-family="Arial" font-size="10.00" fill="#000000">Supriya</text>
<text text-anchor="middle" x="114" y="-37" font-family="Arial" font-size="10.00" fill="#000000">Object</text>
</a>
</g>
</g>
<!-- supriya.ugens.Control.Control -->
<g id="node4" class="node">
<title>supriya.ugens.Control.Control</title>
<g id="a_node4"><a xlink:href="../api/supriya/ugens/Control.html#supriya.ugens.Control.Control" xlink:title="Control" target="_top">
<path fill="#decbe4" stroke="#decbe4" stroke-width="2" d="M479.49,-54.5C479.49,-54.5 451.1567,-54.5 451.1567,-54.5 447.99,-54.5 444.8234,-51.3333 444.8234,-48.1667 444.8234,-48.1667 444.8234,-41.8333 444.8234,-41.8333 444.8234,-38.6667 447.99,-35.5 451.1567,-35.5 451.1567,-35.5 479.49,-35.5 479.49,-35.5 482.6567,-35.5 485.8234,-38.6667 485.8234,-41.8333 485.8234,-41.8333 485.8234,-48.1667 485.8234,-48.1667 485.8234,-51.3333 482.6567,-54.5 479.49,-54.5"/>
<text text-anchor="middle" x="465.3234" y="-42.5" font-family="Arial" font-size="10.00" fill="#000000">Control</text>
</a>
</g>
</g>
<!-- supriya.ugens.MultiOutUGen.MultiOutUGen -->
<g id="node5" class="node">
<title>supriya.ugens.MultiOutUGen.MultiOutUGen</title>
<g id="a_node5"><a xlink:href="../api/supriya/ugens/MultiOutUGen.html#supriya.ugens.MultiOutUGen.MultiOutUGen" xlink:title="Multi\nOut\nUGen" target="_top">
<ellipse fill="none" stroke="#decbe4" stroke-width="2" cx="383.3675" cy="-45" rx="25.4118" ry="28.9828"/>
<text text-anchor="middle" x="383.3675" y="-53.5" font-family="Arial" font-size="10.00" fill="#000000">Multi</text>
<text text-anchor="middle" x="383.3675" y="-42.5" font-family="Arial" font-size="10.00" fill="#000000">Out</text>
<text text-anchor="middle" x="383.3675" y="-31.5" font-family="Arial" font-size="10.00" fill="#000000">UGen</text>
</a>
</g>
</g>
<!-- supriya.ugens.TrigControl.TrigControl -->
<g id="node6" class="node">
<title>supriya.ugens.TrigControl.TrigControl</title>
<g id="a_node6"><a xlink:href="../api/supriya/ugens/TrigControl.html#supriya.ugens.TrigControl.TrigControl" xlink:title="Trig\nControl" target="_top">
<path fill="#000000" stroke="#000000" stroke-width="2" d="M552.8234,-60C552.8234,-60 531.8234,-60 531.8234,-60 526.8234,-60 521.8234,-55 521.8234,-50 521.8234,-50 521.8234,-40 521.8234,-40 521.8234,-35 526.8234,-30 531.8234,-30 531.8234,-30 552.8234,-30 552.8234,-30 557.8234,-30 562.8234,-35 562.8234,-40 562.8234,-40 562.8234,-50 562.8234,-50 562.8234,-55 557.8234,-60 552.8234,-60"/>
<text text-anchor="middle" x="542.3234" y="-48" font-family="Arial" font-size="10.00" fill="#ffffff">Trig</text>
<text text-anchor="middle" x="542.3234" y="-37" font-family="Arial" font-size="10.00" fill="#ffffff">Control</text>
</a>
</g>
</g>
<!-- supriya.ugens.UGen.UGen -->
<g id="node7" class="node">
<title>supriya.ugens.UGen.UGen</title>
<g id="a_node7"><a xlink:href="../api/supriya/ugens/UGen.html#supriya.ugens.UGen.UGen" xlink:title="UGen" target="_top">
<ellipse fill="none" stroke="#decbe4" stroke-width="2" cx="296.4558" cy="-45" rx="25.4118" ry="13.3704"/>
<text text-anchor="middle" x="296.4558" y="-42.5" font-family="Arial" font-size="10.00" fill="#000000">UGen</text>
</a>
</g>
</g>
</g>
</svg>
