<?xml version="1.0" encoding="UTF-8" standalone="no"?>
<!DOCTYPE svg PUBLIC "-//W3C//DTD SVG 1.1//EN"
 "http://www.w3.org/Graphics/SVG/1.1/DTD/svg11.dtd">
<!-- Generated by graphviz version 2.44.1 (20200629.0846)
 -->
<!-- Title: InheritanceGraph Pages: 1 -->
<svg width="750pt" height="133pt"
 viewBox="0.00 0.00 750.19 133.00" xmlns="http://www.w3.org/2000/svg" xmlns:xlink="http://www.w3.org/1999/xlink">
<g id="graph0" class="graph" transform="scale(1 1) rotate(0) translate(4 129)">
<title>InheritanceGraph</title>
<g id="clust1" class="cluster">
<title>cluster_builtins</title>
<path fill="transparent" stroke="#bcd2ee" stroke-width="2" stroke-dasharray="5,2" d="M20,-35C20,-35 55,-35 55,-35 61,-35 67,-41 67,-47 67,-47 67,-78 67,-78 67,-84 61,-90 55,-90 55,-90 20,-90 20,-90 14,-90 8,-84 8,-78 8,-78 8,-47 8,-47 8,-41 14,-35 20,-35"/>
<text text-anchor="middle" x="37.5" y="-78" font-family="Arial" font-size="10.00">builtins</text>
</g>
<g id="clust2" class="cluster">
<title>cluster_supriya.synthdefs.bases</title>
<path fill="transparent" stroke="#bcd2ee" stroke-width="2" stroke-dasharray="5,2" d="M347,-32C347,-32 445.4,-32 445.4,-32 451.4,-32 457.4,-38 457.4,-44 457.4,-44 457.4,-81 457.4,-81 457.4,-87 451.4,-93 445.4,-93 445.4,-93 347,-93 347,-93 341,-93 335,-87 335,-81 335,-81 335,-44 335,-44 335,-38 341,-32 347,-32"/>
<text text-anchor="middle" x="396.2" y="-81" font-family="Arial" font-size="10.00">supriya.synthdefs.bases</text>
</g>
<g id="clust3" class="cluster">
<title>cluster_supriya.synthdefs.mixins</title>
<path fill="transparent" stroke="#bcd2ee" stroke-width="2" stroke-dasharray="5,2" d="M202,-24C202,-24 303,-24 303,-24 309,-24 315,-30 315,-36 315,-36 315,-89 315,-89 315,-95 309,-101 303,-101 303,-101 202,-101 202,-101 196,-101 190,-95 190,-89 190,-89 190,-36 190,-36 190,-30 196,-24 202,-24"/>
<text text-anchor="middle" x="252.5" y="-89" font-family="Arial" font-size="10.00">supriya.synthdefs.mixins</text>
</g>
<g id="clust4" class="cluster">
<title>cluster_supriya.system</title>
<path fill="transparent" stroke="#bcd2ee" stroke-width="2" stroke-dasharray="5,2" d="M99,-30C99,-30 158,-30 158,-30 164,-30 170,-36 170,-42 170,-42 170,-83 170,-83 170,-89 164,-95 158,-95 158,-95 99,-95 99,-95 93,-95 87,-89 87,-83 87,-83 87,-42 87,-42 87,-36 93,-30 99,-30"/>
<text text-anchor="middle" x="128.5" y="-83" font-family="Arial" font-size="10.00">supriya.system</text>
</g>
<g id="clust5" class="cluster">
<title>cluster_supriya.ugens</title>
<path fill="transparent" stroke="#bcd2ee" stroke-width="2" stroke-dasharray="5,2" d="M489.4,-8C489.4,-8 722.19,-8 722.19,-8 728.19,-8 734.19,-14 734.19,-20 734.19,-20 734.19,-105 734.19,-105 734.19,-111 728.19,-117 722.19,-117 722.19,-117 489.4,-117 489.4,-117 483.4,-117 477.4,-111 477.4,-105 477.4,-105 477.4,-20 477.4,-20 477.4,-14 483.4,-8 489.4,-8"/>
<text text-anchor="middle" x="605.79" y="-105" font-family="Arial" font-size="10.00">supriya.ugens</text>
</g>
<!-- builtins.object&#45;&gt;supriya.system.SupriyaObject -->
<g id="edge3" class="edge">
<title>builtins.object&#45;&gt;supriya.system.SupriyaObject</title>
<path fill="none" stroke="lightslategrey" d="M59.03,-53C69.03,-53 81.34,-53 92.72,-53"/>
<polygon fill="lightslategrey" stroke="lightslategrey" points="92.82,-56.5 102.82,-53 92.82,-49.5 92.82,-56.5"/>
</g>
<!-- supriya.synthdefs.bases.UGen&#45;&gt;supriya.ugens.InfoUGenBase.InfoUGenBase -->
<g id="edge4" class="edge">
<title>supriya.synthdefs.bases.UGen&#45;&gt;supriya.ugens.InfoUGenBase.InfoUGenBase</title>
<path fill="none" stroke="lightslategrey" d="M425.42,-53C440.34,-53 458.8,-53 475,-53"/>
<polygon fill="lightslategrey" stroke="lightslategrey" points="475.27,-56.5 485.27,-53 475.27,-49.5 475.27,-56.5"/>
</g>
<!-- supriya.synthdefs.mixins.UGenMethodMixin&#45;&gt;supriya.synthdefs.bases.UGen -->
<g id="edge5" class="edge">
<title>supriya.synthdefs.mixins.UGenMethodMixin&#45;&gt;supriya.synthdefs.bases.UGen</title>
<path fill="none" stroke="lightslategrey" d="M277.13,-53C298.5,-53 330.36,-53 355.53,-53"/>
<polygon fill="lightslategrey" stroke="lightslategrey" points="355.86,-56.5 365.86,-53 355.86,-49.5 355.86,-56.5"/>
</g>
<!-- supriya.system.SupriyaObject&#45;&gt;supriya.synthdefs.mixins.UGenMethodMixin -->
<g id="edge6" class="edge">
<title>supriya.system.SupriyaObject&#45;&gt;supriya.synthdefs.mixins.UGenMethodMixin</title>
<path fill="none" stroke="lightslategrey" d="M153.2,-53C171.61,-53 197.17,-53 217.61,-53"/>
<polygon fill="lightslategrey" stroke="lightslategrey" points="217.77,-56.5 227.77,-53 217.77,-49.5 217.77,-56.5"/>
</g>
<!-- supriya.ugens.BufInfoUGenBase.BufInfoUGenBase&#45;&gt;supriya.ugens.BufSampleRate.BufSampleRate -->
<g id="edge1" class="edge">
<title>supriya.ugens.BufInfoUGenBase.BufInfoUGenBase&#45;&gt;supriya.ugens.BufSampleRate.BufSampleRate</title>
<path fill="none" stroke="lightslategrey" d="M640.54,-53C648.64,-53 657.51,-53 665.88,-53"/>
<polygon fill="lightslategrey" stroke="lightslategrey" points="666.12,-56.5 676.12,-53 666.12,-49.5 666.12,-56.5"/>
</g>
<!-- supriya.ugens.InfoUGenBase.InfoUGenBase&#45;&gt;supriya.ugens.BufInfoUGenBase.BufInfoUGenBase -->
<g id="edge2" class="edge">
<title>supriya.ugens.InfoUGenBase.InfoUGenBase&#45;&gt;supriya.ugens.BufInfoUGenBase.BufInfoUGenBase</title>
<path fill="none" stroke="lightslategrey" d="M544.88,-53C552.96,-53 561.88,-53 570.45,-53"/>
<polygon fill="lightslategrey" stroke="lightslategrey" points="570.64,-56.5 580.64,-53 570.64,-49.5 570.64,-56.5"/>
</g>
<!-- builtins.object -->
<g id="node1" class="node">
<title>builtins.object</title>
<g id="a_node1"><a xlink:href="https://docs.python.org/3/library/functions.html#object" xlink:title="object" target="_top">
<path fill="#fbb4ae" stroke="#fbb4ae" stroke-width="2" d="M52.67,-62.5C52.67,-62.5 22.33,-62.5 22.33,-62.5 19.17,-62.5 16,-59.33 16,-56.17 16,-56.17 16,-49.83 16,-49.83 16,-46.67 19.17,-43.5 22.33,-43.5 22.33,-43.5 52.67,-43.5 52.67,-43.5 55.83,-43.5 59,-46.67 59,-49.83 59,-49.83 59,-56.17 59,-56.17 59,-59.33 55.83,-62.5 52.67,-62.5"/>
<text text-anchor="middle" x="37.5" y="-50.5" font-family="Arial" font-size="10.00">object</text>
</a>
</g>
</g>
<!-- supriya.synthdefs.bases.UGen -->
<g id="node2" class="node">
<title>supriya.synthdefs.bases.UGen</title>
<g id="a_node2"><a xlink:href="../api/supriya/ugens/../synthdefs/bases.html#supriya.synthdefs.bases.UGen" xlink:title="UGen" target="_top">
<ellipse fill="none" stroke="#b3cde3" stroke-width="2" cx="395.7" cy="-53" rx="29.9" ry="13.37"/>
<text text-anchor="middle" x="395.7" y="-50.5" font-family="Arial" font-size="10.00">UGen</text>
</a>
</g>
</g>
<!-- supriya.synthdefs.mixins.UGenMethodMixin -->
<g id="node3" class="node">
<title>supriya.synthdefs.mixins.UGenMethodMixin</title>
<g id="a_node3"><a xlink:href="../api/supriya/ugens/../synthdefs/mixins.html#supriya.synthdefs.mixins.UGenMethodMixin" xlink:title="UGen\nMethod\nMixin" target="_top">
<path fill="#ccebc5" stroke="#ccebc5" stroke-width="2" d="M265,-73.5C265,-73.5 240,-73.5 240,-73.5 234,-73.5 228,-67.5 228,-61.5 228,-61.5 228,-44.5 228,-44.5 228,-38.5 234,-32.5 240,-32.5 240,-32.5 265,-32.5 265,-32.5 271,-32.5 277,-38.5 277,-44.5 277,-44.5 277,-61.5 277,-61.5 277,-67.5 271,-73.5 265,-73.5"/>
<text text-anchor="middle" x="252.5" y="-61.5" font-family="Arial" font-size="10.00">UGen</text>
<text text-anchor="middle" x="252.5" y="-50.5" font-family="Arial" font-size="10.00">Method</text>
<text text-anchor="middle" x="252.5" y="-39.5" font-family="Arial" font-size="10.00">Mixin</text>
</a>
</g>
</g>
<!-- supriya.system.SupriyaObject -->
<g id="node4" class="node">
<title>supriya.system.SupriyaObject</title>
<g id="a_node4"><a xlink:href="../api/supriya/ugens/../system.html#supriya.system.SupriyaObject" xlink:title="Supriya\nObject" target="_top">
<path fill="#decbe4" stroke="#decbe4" stroke-width="2" d="M143,-68C143,-68 113,-68 113,-68 108,-68 103,-63 103,-58 103,-58 103,-48 103,-48 103,-43 108,-38 113,-38 113,-38 143,-38 143,-38 148,-38 153,-43 153,-48 153,-48 153,-58 153,-58 153,-63 148,-68 143,-68"/>
<text text-anchor="middle" x="128" y="-56" font-family="Arial" font-size="10.00">Supriya</text>
<text text-anchor="middle" x="128" y="-45" font-family="Arial" font-size="10.00">Object</text>
</a>
</g>
</g>
<!-- supriya.ugens.BufInfoUGenBase.BufInfoUGenBase -->
<g id="node5" class="node">
<title>supriya.ugens.BufInfoUGenBase.BufInfoUGenBase</title>
<g id="a_node5"><a xlink:href="../api/supriya/ugens/BufInfoUGenBase.html#supriya.ugens.BufInfoUGenBase.BufInfoUGenBase" xlink:title="Buf\nInfo\nUGen\nBase" target="_top">
<ellipse fill="none" stroke="#fed9a6" stroke-width="2" cx="610.49" cy="-53" rx="29.9" ry="36.54"/>
<text text-anchor="middle" x="610.49" y="-67" font-family="Arial" font-size="10.00">Buf</text>
<text text-anchor="middle" x="610.49" y="-56" font-family="Arial" font-size="10.00">Info</text>
<text text-anchor="middle" x="610.49" y="-45" font-family="Arial" font-size="10.00">UGen</text>
<text text-anchor="middle" x="610.49" y="-34" font-family="Arial" font-size="10.00">Base</text>
</a>
</g>
</g>
<!-- supriya.ugens.BufSampleRate.BufSampleRate -->
<g id="node6" class="node">
<title>supriya.ugens.BufSampleRate.BufSampleRate</title>
<g id="a_node6"><a xlink:href="../api/supriya/ugens/BufSampleRate.html#supriya.ugens.BufSampleRate.BufSampleRate" xlink:title="Buf\nSample\nRate" target="_top">
<path fill="black" stroke="black" stroke-width="2" d="M714.19,-73.5C714.19,-73.5 688.19,-73.5 688.19,-73.5 682.19,-73.5 676.19,-67.5 676.19,-61.5 676.19,-61.5 676.19,-44.5 676.19,-44.5 676.19,-38.5 682.19,-32.5 688.19,-32.5 688.19,-32.5 714.19,-32.5 714.19,-32.5 720.19,-32.5 726.19,-38.5 726.19,-44.5 726.19,-44.5 726.19,-61.5 726.19,-61.5 726.19,-67.5 720.19,-73.5 714.19,-73.5"/>
<text text-anchor="middle" x="701.19" y="-61.5" font-family="Arial" font-size="10.00" fill="white">Buf</text>
<text text-anchor="middle" x="701.19" y="-50.5" font-family="Arial" font-size="10.00" fill="white">Sample</text>
<text text-anchor="middle" x="701.19" y="-39.5" font-family="Arial" font-size="10.00" fill="white">Rate</text>
</a>
</g>
</g>
<!-- supriya.ugens.InfoUGenBase.InfoUGenBase -->
<g id="node7" class="node">
<title>supriya.ugens.InfoUGenBase.InfoUGenBase</title>
<g id="a_node7"><a xlink:href="../api/supriya/ugens/InfoUGenBase.html#supriya.ugens.InfoUGenBase.InfoUGenBase" xlink:title="Info\nUGen\nBase" target="_top">
<ellipse fill="none" stroke="#fed9a6" stroke-width="2" cx="515.1" cy="-53" rx="29.9" ry="28.98"/>
<text text-anchor="middle" x="515.1" y="-61.5" font-family="Arial" font-size="10.00">Info</text>
<text text-anchor="middle" x="515.1" y="-50.5" font-family="Arial" font-size="10.00">UGen</text>
<text text-anchor="middle" x="515.1" y="-39.5" font-family="Arial" font-size="10.00">Base</text>
</a>
</g>
</g>
</g>
</svg>
