<?xml version="1.0" encoding="UTF-8" standalone="no"?>
<!DOCTYPE svg PUBLIC "-//W3C//DTD SVG 1.1//EN"
 "http://www.w3.org/Graphics/SVG/1.1/DTD/svg11.dtd">
<!-- Generated by graphviz version 2.40.1 (20161225.0304)
 -->
<!-- Title: InheritanceGraph Pages: 1 -->
<svg width="525pt" height="379pt"
 viewBox="0.00 0.00 524.55 379.00" xmlns="http://www.w3.org/2000/svg" xmlns:xlink="http://www.w3.org/1999/xlink">
<g id="graph0" class="graph" transform="scale(1 1) rotate(0) translate(4 375)">
<title>InheritanceGraph</title>
<g id="clust1" class="cluster">
<title>cluster_builtins</title>
<path fill="transparent" stroke="#bcd2ee" stroke-width="2" stroke-dasharray="5,2" d="M20,-237C20,-237 49,-237 49,-237 55,-237 61,-243 61,-249 61,-249 61,-280 61,-280 61,-286 55,-292 49,-292 49,-292 20,-292 20,-292 14,-292 8,-286 8,-280 8,-280 8,-249 8,-249 8,-243 14,-237 20,-237"/>
<text text-anchor="middle" x="34.5" y="-280" font-family="Arial" font-size="10.00" fill="#000000">builtins</text>
</g>
<g id="clust2" class="cluster">
<title>cluster_collections.abc</title>
<path fill="transparent" stroke="#bcd2ee" stroke-width="2" stroke-dasharray="5,2" d="M130,-212C130,-212 407.5462,-212 407.5462,-212 413.5462,-212 419.5462,-218 419.5462,-224 419.5462,-224 419.5462,-351 419.5462,-351 419.5462,-357 413.5462,-363 407.5462,-363 407.5462,-363 130,-363 130,-363 124,-363 118,-357 118,-351 118,-351 118,-224 118,-224 118,-218 124,-212 130,-212"/>
<text text-anchor="middle" x="268.7731" y="-351" font-family="Arial" font-size="10.00" fill="#000000">collections.abc</text>
</g>
<g id="clust3" class="cluster">
<title>cluster_supriya.soundfiles</title>
<path fill="transparent" stroke="#bcd2ee" stroke-width="2" stroke-dasharray="5,2" d="M451.5462,-8C451.5462,-8 504.5462,-8 504.5462,-8 510.5462,-8 516.5462,-14 516.5462,-20 516.5462,-20 516.5462,-173 516.5462,-173 516.5462,-179 510.5462,-185 504.5462,-185 504.5462,-185 451.5462,-185 451.5462,-185 445.5462,-185 439.5462,-179 439.5462,-173 439.5462,-173 439.5462,-20 439.5462,-20 439.5462,-14 445.5462,-8 451.5462,-8"/>
<text text-anchor="middle" x="478.0462" y="-173" font-family="Arial" font-size="10.00" fill="#000000">supriya.soundfiles</text>
</g>
<g id="clust4" class="cluster">
<title>cluster_supriya.system</title>
<path fill="transparent" stroke="#bcd2ee" stroke-width="2" stroke-dasharray="5,2" d="M251.066,-127C251.066,-127 393.1909,-127 393.1909,-127 399.1909,-127 405.1909,-133 405.1909,-139 405.1909,-139 405.1909,-192 405.1909,-192 405.1909,-198 399.1909,-204 393.1909,-204 393.1909,-204 251.066,-204 251.066,-204 245.066,-204 239.066,-198 239.066,-192 239.066,-192 239.066,-139 239.066,-139 239.066,-133 245.066,-127 251.066,-127"/>
<text text-anchor="middle" x="322.1285" y="-192" font-family="Arial" font-size="10.00" fill="#000000">supriya.system</text>
</g>
<!-- builtins.object&#45;&gt;collections.abc.Container -->
<g id="edge8" class="edge">
<title>builtins.object&#45;&gt;collections.abc.Container</title>
<path fill="none" stroke="#778899" d="M53.1136,-258.3937C70.4681,-261.5579 96.9593,-266.3879 119.305,-270.4621"/>
<polygon fill="#778899" stroke="#778899" points="118.7668,-273.9216 129.2325,-272.2721 120.0224,-267.0351 118.7668,-273.9216"/>
</g>
<!-- builtins.object&#45;&gt;collections.abc.Iterable -->
<g id="edge9" class="edge">
<title>builtins.object&#45;&gt;collections.abc.Iterable</title>
<path fill="none" stroke="#778899" d="M53.1136,-251.7538C71.3002,-248.5821 99.5206,-243.6605 122.489,-239.6549"/>
<polygon fill="#778899" stroke="#778899" points="123.3676,-243.0546 132.6176,-237.8885 122.1649,-236.1587 123.3676,-243.0546"/>
</g>
<!-- builtins.object&#45;&gt;collections.abc.Sized -->
<g id="edge10" class="edge">
<title>builtins.object&#45;&gt;collections.abc.Sized</title>
<path fill="none" stroke="#778899" d="M52.3064,-264.5985C73.625,-276.0903 109.526,-295.4426 134.1159,-308.6978"/>
<polygon fill="#778899" stroke="#778899" points="132.4691,-311.7862 142.9324,-313.4503 135.7906,-305.6244 132.4691,-311.7862"/>
</g>
<!-- builtins.object&#45;&gt;supriya.system.SupriyaObject.SupriyaObject -->
<g id="edge11" class="edge">
<title>builtins.object&#45;&gt;supriya.system.SupriyaObject.SupriyaObject</title>
<path fill="none" stroke="#778899" d="M49.8432,-245.4783C66.3299,-235.459 93.4759,-219.5677 118,-208 158.1726,-189.0511 206.3421,-171.2632 237.0719,-160.5058"/>
<polygon fill="#778899" stroke="#778899" points="238.4873,-163.7195 246.788,-157.1356 236.1932,-157.106 238.4873,-163.7195"/>
</g>
<!-- collections.abc.Collection&#45;&gt;collections.abc.Sequence -->
<g id="edge1" class="edge">
<title>collections.abc.Collection&#45;&gt;collections.abc.Sequence</title>
<path fill="none" stroke="#778899" d="M291.7945,-268.1246C306.7606,-261.8959 326.3124,-253.7587 342.8283,-246.885"/>
<polygon fill="#778899" stroke="#778899" points="344.2566,-250.0817 352.1441,-243.0079 341.5669,-243.619 344.2566,-250.0817"/>
</g>
<!-- collections.abc.Sequence&#45;&gt;supriya.soundfiles.Frame.Frame -->
<g id="edge12" class="edge">
<title>collections.abc.Sequence&#45;&gt;supriya.soundfiles.Frame.Frame</title>
<path fill="none" stroke="#778899" d="M400.8216,-223.2042C407.7538,-219.386 414.7126,-214.3666 419.5462,-208 441.1868,-179.496 417.0687,-157.8487 439.5462,-130 442.2563,-126.6423 445.7122,-123.8271 449.4314,-121.4816"/>
<polygon fill="#778899" stroke="#778899" points="451.1107,-124.5533 458.3606,-116.8275 447.8752,-118.3459 451.1107,-124.5533"/>
</g>
<!-- collections.abc.Container&#45;&gt;collections.abc.Collection -->
<g id="edge2" class="edge">
<title>collections.abc.Container&#45;&gt;collections.abc.Collection</title>
<path fill="none" stroke="#778899" d="M195.5237,-278C204.3366,-278 213.9241,-278 223.1551,-278"/>
<polygon fill="#778899" stroke="#778899" points="223.3656,-281.5001 233.3655,-278 223.3655,-274.5001 223.3656,-281.5001"/>
</g>
<!-- collections.abc.Iterable&#45;&gt;collections.abc.Collection -->
<g id="edge3" class="edge">
<title>collections.abc.Iterable&#45;&gt;collections.abc.Collection</title>
<path fill="none" stroke="#778899" d="M182.645,-242.215C197.6275,-248.4915 217.7393,-256.9169 234.6844,-264.0156"/>
<polygon fill="#778899" stroke="#778899" points="233.657,-267.3799 244.2328,-268.0157 236.3618,-260.9235 233.657,-267.3799"/>
</g>
<!-- collections.abc.Iterable&#45;&gt;collections.abc.Reversible -->
<g id="edge4" class="edge">
<title>collections.abc.Iterable&#45;&gt;collections.abc.Reversible</title>
<path fill="none" stroke="#778899" d="M190.5701,-233C199.9749,-233 210.5992,-233 220.8979,-233"/>
<polygon fill="#778899" stroke="#778899" points="221.0308,-236.5001 231.0308,-233 221.0307,-229.5001 221.0308,-236.5001"/>
</g>
<!-- collections.abc.Reversible&#45;&gt;collections.abc.Sequence -->
<g id="edge5" class="edge">
<title>collections.abc.Reversible&#45;&gt;collections.abc.Sequence</title>
<path fill="none" stroke="#778899" d="M304.9741,-233C313.1508,-233 321.9117,-233 330.3944,-233"/>
<polygon fill="#778899" stroke="#778899" points="330.5457,-236.5001 340.5457,-233 330.5457,-229.5001 330.5457,-236.5001"/>
</g>
<!-- collections.abc.Sized&#45;&gt;collections.abc.Collection -->
<g id="edge6" class="edge">
<title>collections.abc.Sized&#45;&gt;collections.abc.Collection</title>
<path fill="none" stroke="#778899" d="M180.3503,-314.7463C195.5793,-308.3665 217.0049,-299.3908 234.8683,-291.9074"/>
<polygon fill="#778899" stroke="#778899" points="236.4929,-295.0215 244.3639,-287.9294 233.7882,-288.5652 236.4929,-295.0215"/>
</g>
<!-- supriya.system.SupriyaObject.SupriyaObject&#45;&gt;supriya.soundfiles.Frame.Frame -->
<g id="edge13" class="edge">
<title>supriya.system.SupriyaObject.SupriyaObject&#45;&gt;supriya.soundfiles.Frame.Frame</title>
<path fill="none" stroke="#778899" d="M289.1146,-142.179C303.4947,-137.1267 323.0874,-130.8074 340.8356,-127 377.3451,-119.168 420.2189,-114.9359 448.0855,-112.8271"/>
<polygon fill="#778899" stroke="#778899" points="448.6137,-116.2984 458.3395,-112.0961 448.1159,-109.3161 448.6137,-116.2984"/>
</g>
<!-- supriya.system.SupriyaObject.SupriyaObject&#45;&gt;supriya.soundfiles.Signal.Signal -->
<g id="edge14" class="edge">
<title>supriya.system.SupriyaObject.SupriyaObject&#45;&gt;supriya.soundfiles.Signal.Signal</title>
<path fill="none" stroke="#778899" d="M289.1022,-137.0699C303.3139,-128.7541 322.7191,-118.1971 340.8356,-111 377.1056,-96.5911 420.9534,-85.8263 449.0397,-79.7257"/>
<polygon fill="#778899" stroke="#778899" points="449.9267,-83.1156 458.9837,-77.6182 448.4752,-76.2677 449.9267,-83.1156"/>
</g>
<!-- supriya.system.SupriyaObject.SupriyaObject&#45;&gt;supriya.soundfiles.SoundFile.SoundFile -->
<g id="edge15" class="edge">
<title>supriya.system.SupriyaObject.SupriyaObject&#45;&gt;supriya.soundfiles.SoundFile.SoundFile</title>
<path fill="none" stroke="#778899" d="M281.2316,-134.8972C294.8826,-120.0099 317.4658,-97.4507 340.8356,-83 375.2673,-61.7091 419.8323,-46.7697 448.5568,-38.5278"/>
<polygon fill="#778899" stroke="#778899" points="449.6796,-41.8485 458.3748,-35.795 447.8024,-35.1048 449.6796,-41.8485"/>
</g>
<!-- supriya.system.SupriyaObject.SupriyaObject&#45;&gt;supriya.system.SupriyaValueObject.SupriyaValueObject -->
<g id="edge7" class="edge">
<title>supriya.system.SupriyaObject.SupriyaObject&#45;&gt;supriya.system.SupriyaValueObject.SupriyaValueObject</title>
<path fill="none" stroke="#778899" d="M289.1703,-151.1711C305.0964,-152.0549 327.1933,-153.2811 345.1346,-154.2766"/>
<polygon fill="#778899" stroke="#778899" points="344.9613,-157.7723 355.1399,-154.8318 345.3492,-150.7831 344.9613,-157.7723"/>
</g>
<!-- supriya.system.SupriyaValueObject.SupriyaValueObject&#45;&gt;supriya.soundfiles.Say.Say -->
<g id="edge16" class="edge">
<title>supriya.system.SupriyaValueObject.SupriyaValueObject&#45;&gt;supriya.soundfiles.Say.Say</title>
<path fill="none" stroke="#778899" d="M397.1918,-154.3424C413.2687,-153.0734 435.4979,-151.3189 452.5013,-149.9768"/>
<polygon fill="#778899" stroke="#778899" points="453.1097,-153.4398 462.8032,-149.1637 452.5588,-146.4615 453.1097,-153.4398"/>
</g>
<!-- builtins.object -->
<g id="node1" class="node">
<title>builtins.object</title>
<g id="a_node1"><a xlink:href="https://docs.python.org/3.6/library/functions.html#object" xlink:title="object" target="_top">
<path fill="#fbb4ae" stroke="#fbb4ae" stroke-width="2" d="M46.6667,-264.5C46.6667,-264.5 22.3333,-264.5 22.3333,-264.5 19.1667,-264.5 16,-261.3333 16,-258.1667 16,-258.1667 16,-251.8333 16,-251.8333 16,-248.6667 19.1667,-245.5 22.3333,-245.5 22.3333,-245.5 46.6667,-245.5 46.6667,-245.5 49.8333,-245.5 53,-248.6667 53,-251.8333 53,-251.8333 53,-258.1667 53,-258.1667 53,-261.3333 49.8333,-264.5 46.6667,-264.5"/>
<text text-anchor="middle" x="34.5" y="-252.5" font-family="Arial" font-size="10.00" fill="#000000">object</text>
</a>
</g>
</g>
<!-- collections.abc.Collection -->
<g id="node2" class="node">
<title>collections.abc.Collection</title>
<g id="a_node2"><a xlink:href="https://docs.python.org/3.6/library/collections.abc.html#collections.abc.Collection" xlink:title="Collection" target="_top">
<ellipse fill="none" stroke="#b3cde3" stroke-width="2" cx="268.066" cy="-278" rx="34.7971" ry="13.3704"/>
<text text-anchor="middle" x="268.066" y="-275.5" font-family="Arial" font-size="10.00" fill="#000000">Collection</text>
</a>
</g>
</g>
<!-- collections.abc.Sequence -->
<g id="node3" class="node">
<title>collections.abc.Sequence</title>
<g id="a_node3"><a xlink:href="https://docs.python.org/3.6/library/collections.abc.html#collections.abc.Sequence" xlink:title="Sequence" target="_top">
<ellipse fill="none" stroke="#b3cde3" stroke-width="2" cx="376.1909" cy="-233" rx="35.2113" ry="13.3704"/>
<text text-anchor="middle" x="376.1909" y="-230.5" font-family="Arial" font-size="10.00" fill="#000000">Sequence</text>
</a>
</g>
</g>
<!-- collections.abc.Container -->
<g id="node4" class="node">
<title>collections.abc.Container</title>
<g id="a_node4"><a xlink:href="https://docs.python.org/3.6/library/collections.abc.html#collections.abc.Container" xlink:title="Container" target="_top">
<ellipse fill="none" stroke="#b3cde3" stroke-width="2" cx="160.6482" cy="-278" rx="34.7971" ry="13.3704"/>
<text text-anchor="middle" x="160.6482" y="-275.5" font-family="Arial" font-size="10.00" fill="#000000">Container</text>
</a>
</g>
</g>
<!-- collections.abc.Iterable -->
<g id="node5" class="node">
<title>collections.abc.Iterable</title>
<g id="a_node5"><a xlink:href="https://docs.python.org/3.6/library/collections.abc.html#collections.abc.Iterable" xlink:title="Iterable" target="_top">
<ellipse fill="none" stroke="#b3cde3" stroke-width="2" cx="160.6482" cy="-233" rx="29.8983" ry="13.3704"/>
<text text-anchor="middle" x="160.6482" y="-230.5" font-family="Arial" font-size="10.00" fill="#000000">Iterable</text>
</a>
</g>
</g>
<!-- collections.abc.Reversible -->
<g id="node6" class="node">
<title>collections.abc.Reversible</title>
<g id="a_node6"><a xlink:href="https://docs.python.org/3.6/library/collections.abc.html#collections.abc.Reversible" xlink:title="Reversible" target="_top">
<ellipse fill="none" stroke="#b3cde3" stroke-width="2" cx="268.066" cy="-233" rx="36.5405" ry="13.3704"/>
<text text-anchor="middle" x="268.066" y="-230.5" font-family="Arial" font-size="10.00" fill="#000000">Reversible</text>
</a>
</g>
</g>
<!-- collections.abc.Sized -->
<g id="node7" class="node">
<title>collections.abc.Sized</title>
<g id="a_node7"><a xlink:href="https://docs.python.org/3.6/library/collections.abc.html#collections.abc.Sized" xlink:title="Sized" target="_top">
<ellipse fill="none" stroke="#b3cde3" stroke-width="2" cx="160.6482" cy="-323" rx="25" ry="13.3704"/>
<text text-anchor="middle" x="160.6482" y="-320.5" font-family="Arial" font-size="10.00" fill="#000000">Sized</text>
</a>
</g>
</g>
<!-- supriya.soundfiles.Frame.Frame -->
<g id="node8" class="node">
<title>supriya.soundfiles.Frame.Frame</title>
<g id="a_node8"><a xlink:href="../api/supriya/soundfiles/Frame.html#supriya.soundfiles.Frame.Frame" xlink:title="Frame" target="_top">
<path fill="#000000" stroke="#000000" stroke-width="2" d="M490.2129,-120.5C490.2129,-120.5 464.8796,-120.5 464.8796,-120.5 461.7129,-120.5 458.5462,-117.3333 458.5462,-114.1667 458.5462,-114.1667 458.5462,-107.8333 458.5462,-107.8333 458.5462,-104.6667 461.7129,-101.5 464.8796,-101.5 464.8796,-101.5 490.2129,-101.5 490.2129,-101.5 493.3796,-101.5 496.5462,-104.6667 496.5462,-107.8333 496.5462,-107.8333 496.5462,-114.1667 496.5462,-114.1667 496.5462,-117.3333 493.3796,-120.5 490.2129,-120.5"/>
<text text-anchor="middle" x="477.5462" y="-108.5" font-family="Arial" font-size="10.00" fill="#ffffff">Frame</text>
</a>
</g>
</g>
<!-- supriya.soundfiles.Say.Say -->
<g id="node9" class="node">
<title>supriya.soundfiles.Say.Say</title>
<g id="a_node9"><a xlink:href="../api/supriya/soundfiles/Say.html#supriya.soundfiles.Say.Say" xlink:title="Say" target="_top">
<path fill="#000000" stroke="#000000" stroke-width="2" d="M485.7129,-157.5C485.7129,-157.5 469.3796,-157.5 469.3796,-157.5 466.2129,-157.5 463.0462,-154.3333 463.0462,-151.1667 463.0462,-151.1667 463.0462,-144.8333 463.0462,-144.8333 463.0462,-141.6667 466.2129,-138.5 469.3796,-138.5 469.3796,-138.5 485.7129,-138.5 485.7129,-138.5 488.8796,-138.5 492.0462,-141.6667 492.0462,-144.8333 492.0462,-144.8333 492.0462,-151.1667 492.0462,-151.1667 492.0462,-154.3333 488.8796,-157.5 485.7129,-157.5"/>
<text text-anchor="middle" x="477.5462" y="-145.5" font-family="Arial" font-size="10.00" fill="#ffffff">Say</text>
</a>
</g>
</g>
<!-- supriya.soundfiles.Signal.Signal -->
<g id="node10" class="node">
<title>supriya.soundfiles.Signal.Signal</title>
<g id="a_node10"><a xlink:href="../api/supriya/soundfiles/Signal.html#supriya.soundfiles.Signal.Signal" xlink:title="Signal" target="_top">
<path fill="#000000" stroke="#000000" stroke-width="2" d="M489.7129,-83.5C489.7129,-83.5 465.3796,-83.5 465.3796,-83.5 462.2129,-83.5 459.0462,-80.3333 459.0462,-77.1667 459.0462,-77.1667 459.0462,-70.8333 459.0462,-70.8333 459.0462,-67.6667 462.2129,-64.5 465.3796,-64.5 465.3796,-64.5 489.7129,-64.5 489.7129,-64.5 492.8796,-64.5 496.0462,-67.6667 496.0462,-70.8333 496.0462,-70.8333 496.0462,-77.1667 496.0462,-77.1667 496.0462,-80.3333 492.8796,-83.5 489.7129,-83.5"/>
<text text-anchor="middle" x="477.5462" y="-71.5" font-family="Arial" font-size="10.00" fill="#ffffff">Signal</text>
</a>
</g>
</g>
<!-- supriya.soundfiles.SoundFile.SoundFile -->
<g id="node11" class="node">
<title>supriya.soundfiles.SoundFile.SoundFile</title>
<g id="a_node11"><a xlink:href="../api/supriya/soundfiles/SoundFile.html#supriya.soundfiles.SoundFile.SoundFile" xlink:title="Sound\nFile" target="_top">
<path fill="#000000" stroke="#000000" stroke-width="2" d="M486.5462,-46C486.5462,-46 468.5462,-46 468.5462,-46 463.5462,-46 458.5462,-41 458.5462,-36 458.5462,-36 458.5462,-26 458.5462,-26 458.5462,-21 463.5462,-16 468.5462,-16 468.5462,-16 486.5462,-16 486.5462,-16 491.5462,-16 496.5462,-21 496.5462,-26 496.5462,-26 496.5462,-36 496.5462,-36 496.5462,-41 491.5462,-46 486.5462,-46"/>
<text text-anchor="middle" x="477.5462" y="-34" font-family="Arial" font-size="10.00" fill="#ffffff">Sound</text>
<text text-anchor="middle" x="477.5462" y="-23" font-family="Arial" font-size="10.00" fill="#ffffff">File</text>
</a>
</g>
</g>
<!-- supriya.system.SupriyaObject.SupriyaObject -->
<g id="node12" class="node">
<title>supriya.system.SupriyaObject.SupriyaObject</title>
<g id="a_node12"><a xlink:href="../api/supriya/soundfiles/../system/SupriyaObject.html#supriya.system.SupriyaObject.SupriyaObject" xlink:title="Supriya\nObject" target="_top">
<path fill="#decbe4" stroke="#decbe4" stroke-width="2" d="M279.066,-165C279.066,-165 257.066,-165 257.066,-165 252.066,-165 247.066,-160 247.066,-155 247.066,-155 247.066,-145 247.066,-145 247.066,-140 252.066,-135 257.066,-135 257.066,-135 279.066,-135 279.066,-135 284.066,-135 289.066,-140 289.066,-145 289.066,-145 289.066,-155 289.066,-155 289.066,-160 284.066,-165 279.066,-165"/>
<text text-anchor="middle" x="268.066" y="-153" font-family="Arial" font-size="10.00" fill="#000000">Supriya</text>
<text text-anchor="middle" x="268.066" y="-142" font-family="Arial" font-size="10.00" fill="#000000">Object</text>
</a>
</g>
</g>
<!-- supriya.system.SupriyaValueObject.SupriyaValueObject -->
<g id="node13" class="node">
<title>supriya.system.SupriyaValueObject.SupriyaValueObject</title>
<g id="a_node13"><a xlink:href="../api/supriya/soundfiles/../system/SupriyaValueObject.html#supriya.system.SupriyaValueObject.SupriyaValueObject" xlink:title="Supriya\nValue\nObject" target="_top">
<path fill="#decbe4" stroke="#decbe4" stroke-width="2" d="M385.1909,-176.5C385.1909,-176.5 367.1909,-176.5 367.1909,-176.5 361.1909,-176.5 355.1909,-170.5 355.1909,-164.5 355.1909,-164.5 355.1909,-147.5 355.1909,-147.5 355.1909,-141.5 361.1909,-135.5 367.1909,-135.5 367.1909,-135.5 385.1909,-135.5 385.1909,-135.5 391.1909,-135.5 397.1909,-141.5 397.1909,-147.5 397.1909,-147.5 397.1909,-164.5 397.1909,-164.5 397.1909,-170.5 391.1909,-176.5 385.1909,-176.5"/>
<text text-anchor="middle" x="376.1909" y="-164.5" font-family="Arial" font-size="10.00" fill="#000000">Supriya</text>
<text text-anchor="middle" x="376.1909" y="-153.5" font-family="Arial" font-size="10.00" fill="#000000">Value</text>
<text text-anchor="middle" x="376.1909" y="-142.5" font-family="Arial" font-size="10.00" fill="#000000">Object</text>
</a>
</g>
</g>
</g>
</svg>
