<?xml version="1.0" encoding="UTF-8" standalone="no"?>
<!DOCTYPE svg PUBLIC "-//W3C//DTD SVG 1.1//EN"
 "http://www.w3.org/Graphics/SVG/1.1/DTD/svg11.dtd">
<!-- Generated by graphviz version 2.44.1 (20200629.0846)
 -->
<!-- Title: InheritanceGraph Pages: 1 -->
<svg width="568pt" height="216pt"
 viewBox="0.00 0.00 568.21 216.00" xmlns="http://www.w3.org/2000/svg" xmlns:xlink="http://www.w3.org/1999/xlink">
<g id="graph0" class="graph" transform="scale(1 1) rotate(0) translate(4 212)">
<title>InheritanceGraph</title>
<g id="clust1" class="cluster">
<title>cluster_builtins</title>
<path fill="transparent" stroke="#bcd2ee" stroke-width="2" stroke-dasharray="5,2" d="M20,-94C20,-94 55,-94 55,-94 61,-94 67,-100 67,-106 67,-106 67,-137 67,-137 67,-143 61,-149 55,-149 55,-149 20,-149 20,-149 14,-149 8,-143 8,-137 8,-137 8,-106 8,-106 8,-100 14,-94 20,-94"/>
<text text-anchor="middle" x="37.5" y="-137" font-family="Arial" font-size="10.00">builtins</text>
</g>
<g id="clust2" class="cluster">
<title>cluster_supriya.realtime.bases</title>
<path fill="transparent" stroke="#bcd2ee" stroke-width="2" stroke-dasharray="5,2" d="M202,-8C202,-8 292.64,-8 292.64,-8 298.64,-8 304.64,-14 304.64,-20 304.64,-20 304.64,-73 304.64,-73 304.64,-79 298.64,-85 292.64,-85 292.64,-85 202,-85 202,-85 196,-85 190,-79 190,-73 190,-73 190,-20 190,-20 190,-14 196,-8 202,-8"/>
<text text-anchor="middle" x="247.32" y="-73" font-family="Arial" font-size="10.00">supriya.realtime.bases</text>
</g>
<g id="clust3" class="cluster">
<title>cluster_supriya.realtime.nodes</title>
<path fill="transparent" stroke="#bcd2ee" stroke-width="2" stroke-dasharray="5,2" d="M336.64,-23C336.64,-23 540.21,-23 540.21,-23 546.21,-23 552.21,-29 552.21,-35 552.21,-35 552.21,-103 552.21,-103 552.21,-109 546.21,-115 540.21,-115 540.21,-115 336.64,-115 336.64,-115 330.64,-115 324.64,-109 324.64,-103 324.64,-103 324.64,-35 324.64,-35 324.64,-29 330.64,-23 336.64,-23"/>
<text text-anchor="middle" x="438.42" y="-103" font-family="Arial" font-size="10.00">supriya.realtime.nodes</text>
</g>
<g id="clust4" class="cluster">
<title>cluster_supriya.system</title>
<path fill="transparent" stroke="#bcd2ee" stroke-width="2" stroke-dasharray="5,2" d="M99,-32C99,-32 158,-32 158,-32 164,-32 170,-38 170,-44 170,-44 170,-85 170,-85 170,-91 164,-97 158,-97 158,-97 99,-97 99,-97 93,-97 87,-91 87,-85 87,-85 87,-44 87,-44 87,-38 93,-32 99,-32"/>
<text text-anchor="middle" x="128.5" y="-85" font-family="Arial" font-size="10.00">supriya.system</text>
</g>
<g id="clust5" class="cluster">
<title>cluster_uqbar.containers</title>
<path fill="transparent" stroke="#bcd2ee" stroke-width="2" stroke-dasharray="5,2" d="M108.5,-123C108.5,-123 380.42,-123 380.42,-123 386.42,-123 392.42,-129 392.42,-135 392.42,-135 392.42,-188 392.42,-188 392.42,-194 386.42,-200 380.42,-200 380.42,-200 108.5,-200 108.5,-200 102.5,-200 96.5,-194 96.5,-188 96.5,-188 96.5,-135 96.5,-135 96.5,-129 102.5,-123 108.5,-123"/>
<text text-anchor="middle" x="244.46" y="-188" font-family="Arial" font-size="10.00">uqbar.containers</text>
</g>
<!-- builtins.object&#45;&gt;supriya.system.SupriyaObject -->
<g id="edge6" class="edge">
<title>builtins.object&#45;&gt;supriya.system.SupriyaObject</title>
<path fill="none" stroke="lightslategrey" d="M53.51,-102.33C64.87,-95.02 80.87,-84.71 95.04,-75.58"/>
<polygon fill="lightslategrey" stroke="lightslategrey" points="97.06,-78.45 103.57,-70.09 93.27,-72.56 97.06,-78.45"/>
</g>
<!-- builtins.object&#45;&gt;uqbar.containers.UniqueTreeNode.UniqueTreeNode -->
<g id="edge7" class="edge">
<title>builtins.object&#45;&gt;uqbar.containers.UniqueTreeNode.UniqueTreeNode</title>
<path fill="none" stroke="lightslategrey" d="M59.03,-121.28C69.74,-126.12 83.1,-132.16 95.12,-137.59"/>
<polygon fill="lightslategrey" stroke="lightslategrey" points="93.86,-140.86 104.41,-141.79 96.74,-134.48 93.86,-140.86"/>
</g>
<!-- supriya.realtime.bases.ServerObject&#45;&gt;supriya.realtime.nodes.Node -->
<g id="edge8" class="edge">
<title>supriya.realtime.bases.ServerObject&#45;&gt;supriya.realtime.nodes.Node</title>
<path fill="none" stroke="lightslategrey" d="M277.57,-42.84C292.01,-45.67 309.46,-49.1 324.58,-52.06"/>
<polygon fill="lightslategrey" stroke="lightslategrey" points="324.12,-55.54 334.6,-54.03 325.46,-48.67 324.12,-55.54"/>
</g>
<!-- supriya.realtime.nodes.Group&#45;&gt;supriya.realtime.nodes.RootNode -->
<g id="edge1" class="edge">
<title>supriya.realtime.nodes.Group&#45;&gt;supriya.realtime.nodes.RootNode</title>
<path fill="none" stroke="lightslategrey" d="M468.34,-76.63C476.29,-76.11 485.52,-75.5 494.11,-74.93"/>
<polygon fill="lightslategrey" stroke="lightslategrey" points="494.41,-78.41 504.16,-74.26 493.95,-71.43 494.41,-78.41"/>
</g>
<!-- supriya.realtime.nodes.Node&#45;&gt;supriya.realtime.nodes.Group -->
<g id="edge2" class="edge">
<title>supriya.realtime.nodes.Node&#45;&gt;supriya.realtime.nodes.Group</title>
<path fill="none" stroke="lightslategrey" d="M387.06,-64.7C395.89,-66.7 405.9,-68.97 415.12,-71.06"/>
<polygon fill="lightslategrey" stroke="lightslategrey" points="414.57,-74.53 425.09,-73.33 416.12,-67.7 414.57,-74.53"/>
</g>
<!-- supriya.realtime.nodes.Node&#45;&gt;supriya.realtime.nodes.Synth -->
<g id="edge3" class="edge">
<title>supriya.realtime.nodes.Node&#45;&gt;supriya.realtime.nodes.Synth</title>
<path fill="none" stroke="lightslategrey" d="M387.06,-53.6C396.03,-51.67 406.22,-49.48 415.56,-47.48"/>
<polygon fill="lightslategrey" stroke="lightslategrey" points="416.6,-50.83 425.64,-45.31 415.13,-43.99 416.6,-50.83"/>
</g>
<!-- supriya.system.SupriyaObject&#45;&gt;supriya.realtime.bases.ServerObject -->
<g id="edge9" class="edge">
<title>supriya.system.SupriyaObject&#45;&gt;supriya.realtime.bases.ServerObject</title>
<path fill="none" stroke="lightslategrey" d="M153.21,-51.27C168.29,-48.95 188.07,-45.9 205.48,-43.22"/>
<polygon fill="lightslategrey" stroke="lightslategrey" points="206.05,-46.67 215.4,-41.69 204.98,-39.75 206.05,-46.67"/>
</g>
<!-- uqbar.containers.UniqueTreeContainer.UniqueTreeContainer&#45;&gt;uqbar.containers.UniqueTreeList.UniqueTreeList -->
<g id="edge4" class="edge">
<title>uqbar.containers.UniqueTreeContainer.UniqueTreeContainer&#45;&gt;uqbar.containers.UniqueTreeList.UniqueTreeList</title>
<path fill="none" stroke="lightslategrey" d="M276.4,-152C291.94,-152 311.22,-152 327.34,-152"/>
<polygon fill="lightslategrey" stroke="lightslategrey" points="327.4,-155.5 337.4,-152 327.4,-148.5 327.4,-155.5"/>
</g>
<!-- uqbar.containers.UniqueTreeList.UniqueTreeList&#45;&gt;supriya.realtime.nodes.Group -->
<g id="edge10" class="edge">
<title>uqbar.containers.UniqueTreeList.UniqueTreeList&#45;&gt;supriya.realtime.nodes.Group</title>
<path fill="none" stroke="lightslategrey" d="M384.82,-131.78C398.17,-119.98 414.79,-105.3 427.3,-94.26"/>
<polygon fill="lightslategrey" stroke="lightslategrey" points="429.66,-96.84 434.84,-87.6 425.03,-91.59 429.66,-96.84"/>
</g>
<!-- uqbar.containers.UniqueTreeNode.UniqueTreeNode&#45;&gt;supriya.realtime.nodes.Node -->
<g id="edge11" class="edge">
<title>uqbar.containers.UniqueTreeNode.UniqueTreeNode&#45;&gt;supriya.realtime.nodes.Node</title>
<path fill="none" stroke="lightslategrey" d="M151.52,-140.26C162.87,-134.61 176.97,-127.99 190,-123 239.62,-103.98 255.54,-109.34 304.64,-89 314.52,-84.91 324.94,-79.55 334.03,-74.5"/>
<polygon fill="lightslategrey" stroke="lightslategrey" points="336,-77.41 342.95,-69.41 332.53,-71.33 336,-77.41"/>
</g>
<!-- uqbar.containers.UniqueTreeNode.UniqueTreeNode&#45;&gt;uqbar.containers.UniqueTreeContainer.UniqueTreeContainer -->
<g id="edge5" class="edge">
<title>uqbar.containers.UniqueTreeNode.UniqueTreeNode&#45;&gt;uqbar.containers.UniqueTreeContainer.UniqueTreeContainer</title>
<path fill="none" stroke="lightslategrey" d="M151.52,-152C167.23,-152 188.58,-152 206.99,-152"/>
<polygon fill="lightslategrey" stroke="lightslategrey" points="207.15,-155.5 217.15,-152 207.15,-148.5 207.15,-155.5"/>
</g>
<!-- builtins.object -->
<g id="node1" class="node">
<title>builtins.object</title>
<g id="a_node1"><a xlink:href="https://docs.python.org/3/library/functions.html#object" xlink:title="object" target="_top">
<path fill="#fbb4ae" stroke="#fbb4ae" stroke-width="2" d="M52.67,-121.5C52.67,-121.5 22.33,-121.5 22.33,-121.5 19.17,-121.5 16,-118.33 16,-115.17 16,-115.17 16,-108.83 16,-108.83 16,-105.67 19.17,-102.5 22.33,-102.5 22.33,-102.5 52.67,-102.5 52.67,-102.5 55.83,-102.5 59,-105.67 59,-108.83 59,-108.83 59,-115.17 59,-115.17 59,-118.33 55.83,-121.5 52.67,-121.5"/>
<text text-anchor="middle" x="37.5" y="-109.5" font-family="Arial" font-size="10.00">object</text>
</a>
</g>
</g>
<!-- supriya.realtime.bases.ServerObject -->
<g id="node2" class="node">
<title>supriya.realtime.bases.ServerObject</title>
<g id="a_node2"><a xlink:href="../api/supriya/realtime/bases.html#supriya.realtime.bases.ServerObject" xlink:title="Server\nObject" target="_top">
<ellipse fill="none" stroke="#b3cde3" stroke-width="2" cx="246.82" cy="-37" rx="31.64" ry="21.43"/>
<text text-anchor="middle" x="246.82" y="-40" font-family="Arial" font-size="10.00">Server</text>
<text text-anchor="middle" x="246.82" y="-29" font-family="Arial" font-size="10.00">Object</text>
</a>
</g>
</g>
<!-- supriya.realtime.nodes.Group -->
<g id="node3" class="node">
<title>supriya.realtime.nodes.Group</title>
<g id="a_node3"><a xlink:href="../api/supriya/realtime/nodes.html#supriya.realtime.nodes.Group" xlink:title="Group" target="_top">
<path fill="black" stroke="black" stroke-width="2" d="M461.87,-87.5C461.87,-87.5 431.54,-87.5 431.54,-87.5 428.37,-87.5 425.21,-84.33 425.21,-81.17 425.21,-81.17 425.21,-74.83 425.21,-74.83 425.21,-71.67 428.37,-68.5 431.54,-68.5 431.54,-68.5 461.87,-68.5 461.87,-68.5 465.04,-68.5 468.21,-71.67 468.21,-74.83 468.21,-74.83 468.21,-81.17 468.21,-81.17 468.21,-84.33 465.04,-87.5 461.87,-87.5"/>
<text text-anchor="middle" x="446.71" y="-75.5" font-family="Arial" font-size="10.00" fill="white">Group</text>
</a>
</g>
</g>
<!-- supriya.realtime.nodes.Node -->
<g id="node4" class="node">
<title>supriya.realtime.nodes.Node</title>
<g id="a_node4"><a xlink:href="../api/supriya/realtime/nodes.html#supriya.realtime.nodes.Node" xlink:title="Node" target="_top">
<ellipse fill="black" stroke="black" stroke-width="2" cx="360.92" cy="-59" rx="28.07" ry="13.37"/>
<text text-anchor="middle" x="360.92" y="-56.5" font-family="Arial" font-size="10.00" fill="white">Node</text>
</a>
</g>
</g>
<!-- supriya.realtime.nodes.RootNode -->
<g id="node5" class="node">
<title>supriya.realtime.nodes.RootNode</title>
<g id="a_node5"><a xlink:href="../api/supriya/realtime/nodes.html#supriya.realtime.nodes.RootNode" xlink:title="Root\nNode" target="_top">
<path fill="black" stroke="black" stroke-width="2" d="M534.21,-88C534.21,-88 514.21,-88 514.21,-88 509.21,-88 504.21,-83 504.21,-78 504.21,-78 504.21,-68 504.21,-68 504.21,-63 509.21,-58 514.21,-58 514.21,-58 534.21,-58 534.21,-58 539.21,-58 544.21,-63 544.21,-68 544.21,-68 544.21,-78 544.21,-78 544.21,-83 539.21,-88 534.21,-88"/>
<text text-anchor="middle" x="524.21" y="-76" font-family="Arial" font-size="10.00" fill="white">Root</text>
<text text-anchor="middle" x="524.21" y="-65" font-family="Arial" font-size="10.00" fill="white">Node</text>
</a>
</g>
</g>
<!-- supriya.realtime.nodes.Synth -->
<g id="node6" class="node">
<title>supriya.realtime.nodes.Synth</title>
<g id="a_node6"><a xlink:href="../api/supriya/realtime/nodes.html#supriya.realtime.nodes.Synth" xlink:title="Synth" target="_top">
<path fill="black" stroke="black" stroke-width="2" d="M461.37,-50.5C461.37,-50.5 432.04,-50.5 432.04,-50.5 428.87,-50.5 425.71,-47.33 425.71,-44.17 425.71,-44.17 425.71,-37.83 425.71,-37.83 425.71,-34.67 428.87,-31.5 432.04,-31.5 432.04,-31.5 461.37,-31.5 461.37,-31.5 464.54,-31.5 467.71,-34.67 467.71,-37.83 467.71,-37.83 467.71,-44.17 467.71,-44.17 467.71,-47.33 464.54,-50.5 461.37,-50.5"/>
<text text-anchor="middle" x="446.71" y="-38.5" font-family="Arial" font-size="10.00" fill="white">Synth</text>
</a>
</g>
</g>
<!-- supriya.system.SupriyaObject -->
<g id="node7" class="node">
<title>supriya.system.SupriyaObject</title>
<g id="a_node7"><a xlink:href="../api/supriya/realtime/../system.html#supriya.system.SupriyaObject" xlink:title="Supriya\nObject" target="_top">
<path fill="#decbe4" stroke="#decbe4" stroke-width="2" d="M143,-70C143,-70 113,-70 113,-70 108,-70 103,-65 103,-60 103,-60 103,-50 103,-50 103,-45 108,-40 113,-40 113,-40 143,-40 143,-40 148,-40 153,-45 153,-50 153,-50 153,-60 153,-60 153,-65 148,-70 143,-70"/>
<text text-anchor="middle" x="128" y="-58" font-family="Arial" font-size="10.00">Supriya</text>
<text text-anchor="middle" x="128" y="-47" font-family="Arial" font-size="10.00">Object</text>
</a>
</g>
</g>
<!-- uqbar.containers.UniqueTreeContainer.UniqueTreeContainer -->
<g id="node8" class="node">
<title>uqbar.containers.UniqueTreeContainer.UniqueTreeContainer</title>
<g id="a_node8"><a xlink:href="http://josiahwolfoberholtzer.com/uqbar/api/uqbar/containers/UniqueTreeContainer.html#uqbar.containers.UniqueTreeContainer.UniqueTreeContainer" xlink:title="Unique\nTree\nContainer" target="_top">
<path fill="#fed9a6" stroke="#fed9a6" stroke-width="2" d="M264.32,-172.5C264.32,-172.5 229.32,-172.5 229.32,-172.5 223.32,-172.5 217.32,-166.5 217.32,-160.5 217.32,-160.5 217.32,-143.5 217.32,-143.5 217.32,-137.5 223.32,-131.5 229.32,-131.5 229.32,-131.5 264.32,-131.5 264.32,-131.5 270.32,-131.5 276.32,-137.5 276.32,-143.5 276.32,-143.5 276.32,-160.5 276.32,-160.5 276.32,-166.5 270.32,-172.5 264.32,-172.5"/>
<text text-anchor="middle" x="246.82" y="-160.5" font-family="Arial" font-size="10.00">Unique</text>
<text text-anchor="middle" x="246.82" y="-149.5" font-family="Arial" font-size="10.00">Tree</text>
<text text-anchor="middle" x="246.82" y="-138.5" font-family="Arial" font-size="10.00">Container</text>
</a>
</g>
</g>
<!-- uqbar.containers.UniqueTreeList.UniqueTreeList -->
<g id="node9" class="node">
<title>uqbar.containers.UniqueTreeList.UniqueTreeList</title>
<g id="a_node9"><a xlink:href="http://josiahwolfoberholtzer.com/uqbar/api/uqbar/containers/UniqueTreeList.html#uqbar.containers.UniqueTreeList.UniqueTreeList" xlink:title="Unique\nTree\nList" target="_top">
<path fill="#fed9a6" stroke="#fed9a6" stroke-width="2" d="M372.42,-172.5C372.42,-172.5 349.42,-172.5 349.42,-172.5 343.42,-172.5 337.42,-166.5 337.42,-160.5 337.42,-160.5 337.42,-143.5 337.42,-143.5 337.42,-137.5 343.42,-131.5 349.42,-131.5 349.42,-131.5 372.42,-131.5 372.42,-131.5 378.42,-131.5 384.42,-137.5 384.42,-143.5 384.42,-143.5 384.42,-160.5 384.42,-160.5 384.42,-166.5 378.42,-172.5 372.42,-172.5"/>
<text text-anchor="middle" x="360.92" y="-160.5" font-family="Arial" font-size="10.00">Unique</text>
<text text-anchor="middle" x="360.92" y="-149.5" font-family="Arial" font-size="10.00">Tree</text>
<text text-anchor="middle" x="360.92" y="-138.5" font-family="Arial" font-size="10.00">List</text>
</a>
</g>
</g>
<!-- uqbar.containers.UniqueTreeNode.UniqueTreeNode -->
<g id="node10" class="node">
<title>uqbar.containers.UniqueTreeNode.UniqueTreeNode</title>
<g id="a_node10"><a xlink:href="http://josiahwolfoberholtzer.com/uqbar/api/uqbar/containers/UniqueTreeNode.html#uqbar.containers.UniqueTreeNode.UniqueTreeNode" xlink:title="Unique\nTree\nNode" target="_top">
<path fill="#fed9a6" stroke="#fed9a6" stroke-width="2" d="M139.5,-172.5C139.5,-172.5 116.5,-172.5 116.5,-172.5 110.5,-172.5 104.5,-166.5 104.5,-160.5 104.5,-160.5 104.5,-143.5 104.5,-143.5 104.5,-137.5 110.5,-131.5 116.5,-131.5 116.5,-131.5 139.5,-131.5 139.5,-131.5 145.5,-131.5 151.5,-137.5 151.5,-143.5 151.5,-143.5 151.5,-160.5 151.5,-160.5 151.5,-166.5 145.5,-172.5 139.5,-172.5"/>
<text text-anchor="middle" x="128" y="-160.5" font-family="Arial" font-size="10.00">Unique</text>
<text text-anchor="middle" x="128" y="-149.5" font-family="Arial" font-size="10.00">Tree</text>
<text text-anchor="middle" x="128" y="-138.5" font-family="Arial" font-size="10.00">Node</text>
</a>
</g>
</g>
</g>
</svg>
