<?xml version="1.0" encoding="UTF-8" standalone="no"?>
<!DOCTYPE svg PUBLIC "-//W3C//DTD SVG 1.1//EN"
 "http://www.w3.org/Graphics/SVG/1.1/DTD/svg11.dtd">
<!-- Generated by graphviz version 2.44.1 (20200629.0846)
 -->
<!-- Title: InheritanceGraph Pages: 1 -->
<svg width="211pt" height="116pt"
 viewBox="0.00 0.00 211.00 116.00" xmlns="http://www.w3.org/2000/svg" xmlns:xlink="http://www.w3.org/1999/xlink">
<g id="graph0" class="graph" transform="scale(1 1) rotate(0) translate(4 112)">
<title>InheritanceGraph</title>
<g id="clust1" class="cluster">
<title>cluster_builtins</title>
<path fill="transparent" stroke="#bcd2ee" stroke-width="2" stroke-dasharray="5,2" d="M20,-45C20,-45 55,-45 55,-45 61,-45 67,-51 67,-57 67,-57 67,-88 67,-88 67,-94 61,-100 55,-100 55,-100 20,-100 20,-100 14,-100 8,-94 8,-88 8,-88 8,-57 8,-57 8,-51 14,-45 20,-45"/>
<text text-anchor="middle" x="37.5" y="-88" font-family="Arial" font-size="10.00">builtins</text>
</g>
<g id="clust2" class="cluster">
<title>cluster_supriya.typing</title>
<path fill="transparent" stroke="#bcd2ee" stroke-width="2" stroke-dasharray="5,2" d="M136,-8C136,-8 189,-8 189,-8 195,-8 201,-14 201,-20 201,-20 201,-88 201,-88 201,-94 195,-100 189,-100 189,-100 136,-100 136,-100 130,-100 124,-94 124,-88 124,-88 124,-20 124,-20 124,-14 130,-8 136,-8"/>
<text text-anchor="middle" x="162.5" y="-88" font-family="Arial" font-size="10.00">supriya.typing</text>
</g>
<!-- builtins.object&#45;&gt;supriya.typing.Default -->
<g id="edge1" class="edge">
<title>builtins.object&#45;&gt;supriya.typing.Default</title>
<path fill="none" stroke="lightslategrey" d="M59,-63C77.73,-63 105.77,-63 127.71,-63"/>
<polygon fill="lightslategrey" stroke="lightslategrey" points="127.92,-66.5 137.92,-63 127.92,-59.5 127.92,-66.5"/>
</g>
<!-- builtins.object&#45;&gt;supriya.typing.Missing -->
<g id="edge2" class="edge">
<title>builtins.object&#45;&gt;supriya.typing.Missing</title>
<path fill="none" stroke="lightslategrey" d="M59,-56.81C77.47,-51.23 104.97,-42.92 126.76,-36.34"/>
<polygon fill="lightslategrey" stroke="lightslategrey" points="128.07,-39.6 136.63,-33.36 126.05,-32.9 128.07,-39.6"/>
</g>
<!-- builtins.object -->
<g id="node1" class="node">
<title>builtins.object</title>
<g id="a_node1"><a xlink:href="https://docs.python.org/3/library/functions.html#object" xlink:title="object" target="_top">
<path fill="#fbb4ae" stroke="#fbb4ae" stroke-width="2" d="M52.67,-72.5C52.67,-72.5 22.33,-72.5 22.33,-72.5 19.17,-72.5 16,-69.33 16,-66.17 16,-66.17 16,-59.83 16,-59.83 16,-56.67 19.17,-53.5 22.33,-53.5 22.33,-53.5 52.67,-53.5 52.67,-53.5 55.83,-53.5 59,-56.67 59,-59.83 59,-59.83 59,-66.17 59,-66.17 59,-69.33 55.83,-72.5 52.67,-72.5"/>
<text text-anchor="middle" x="37.5" y="-60.5" font-family="Arial" font-size="10.00">object</text>
</a>
</g>
</g>
<!-- supriya.typing.Default -->
<g id="node2" class="node">
<title>supriya.typing.Default</title>
<g id="a_node2"><a xlink:href="../api/supriya/typing.html#supriya.typing.Default" xlink:title="Default" target="_top">
<path fill="black" stroke="black" stroke-width="2" d="M179.67,-72.5C179.67,-72.5 144.33,-72.5 144.33,-72.5 141.17,-72.5 138,-69.33 138,-66.17 138,-66.17 138,-59.83 138,-59.83 138,-56.67 141.17,-53.5 144.33,-53.5 144.33,-53.5 179.67,-53.5 179.67,-53.5 182.83,-53.5 186,-56.67 186,-59.83 186,-59.83 186,-66.17 186,-66.17 186,-69.33 182.83,-72.5 179.67,-72.5"/>
<text text-anchor="middle" x="162" y="-60.5" font-family="Arial" font-size="10.00" fill="white">Default</text>
</a>
</g>
</g>
<!-- supriya.typing.Missing -->
<g id="node3" class="node">
<title>supriya.typing.Missing</title>
<g id="a_node3"><a xlink:href="../api/supriya/typing.html#supriya.typing.Missing" xlink:title="Missing" target="_top">
<path fill="black" stroke="black" stroke-width="2" d="M180.67,-35.5C180.67,-35.5 143.33,-35.5 143.33,-35.5 140.17,-35.5 137,-32.33 137,-29.17 137,-29.17 137,-22.83 137,-22.83 137,-19.67 140.17,-16.5 143.33,-16.5 143.33,-16.5 180.67,-16.5 180.67,-16.5 183.83,-16.5 187,-19.67 187,-22.83 187,-22.83 187,-29.17 187,-29.17 187,-32.33 183.83,-35.5 180.67,-35.5"/>
<text text-anchor="middle" x="162" y="-23.5" font-family="Arial" font-size="10.00" fill="white">Missing</text>
</a>
</g>
</g>
</g>
</svg>
