<?xml version="1.0" encoding="UTF-8" standalone="no"?>
<!DOCTYPE svg PUBLIC "-//W3C//DTD SVG 1.1//EN"
 "http://www.w3.org/Graphics/SVG/1.1/DTD/svg11.dtd">
<!-- Generated by graphviz version 2.44.1 (20200629.0846)
 -->
<!-- Title: InheritanceGraph Pages: 1 -->
<svg width="673pt" height="101pt"
 viewBox="0.00 0.00 672.91 101.00" xmlns="http://www.w3.org/2000/svg" xmlns:xlink="http://www.w3.org/1999/xlink">
<g id="graph0" class="graph" transform="scale(1 1) rotate(0) translate(4 97)">
<title>InheritanceGraph</title>
<g id="clust1" class="cluster">
<title>cluster_builtins</title>
<path fill="transparent" stroke="#bcd2ee" stroke-width="2" stroke-dasharray="5,2" d="M20,-19C20,-19 55,-19 55,-19 61,-19 67,-25 67,-31 67,-31 67,-62 67,-62 67,-68 61,-74 55,-74 55,-74 20,-74 20,-74 14,-74 8,-68 8,-62 8,-62 8,-31 8,-31 8,-25 14,-19 20,-19"/>
<text text-anchor="middle" x="37.5" y="-62" font-family="Arial" font-size="10.00">builtins</text>
</g>
<g id="clust2" class="cluster">
<title>cluster_supriya.commands</title>
<path fill="transparent" stroke="#bcd2ee" stroke-width="2" stroke-dasharray="5,2" d="M271,-8C271,-8 644.91,-8 644.91,-8 650.91,-8 656.91,-14 656.91,-20 656.91,-20 656.91,-73 656.91,-73 656.91,-79 650.91,-85 644.91,-85 644.91,-85 271,-85 271,-85 265,-85 259,-79 259,-73 259,-73 259,-20 259,-20 259,-14 265,-8 271,-8"/>
<text text-anchor="middle" x="457.95" y="-73" font-family="Arial" font-size="10.00">supriya.commands</text>
</g>
<g id="clust3" class="cluster">
<title>cluster_supriya.system</title>
<path fill="transparent" stroke="#bcd2ee" stroke-width="2" stroke-dasharray="5,2" d="M99,-8C99,-8 227,-8 227,-8 233,-8 239,-14 239,-20 239,-20 239,-73 239,-73 239,-79 233,-85 227,-85 227,-85 99,-85 99,-85 93,-85 87,-79 87,-73 87,-73 87,-20 87,-20 87,-14 93,-8 99,-8"/>
<text text-anchor="middle" x="163" y="-73" font-family="Arial" font-size="10.00">supriya.system</text>
</g>
<!-- builtins.object&#45;&gt;supriya.system.SupriyaObject -->
<g id="edge5" class="edge">
<title>builtins.object&#45;&gt;supriya.system.SupriyaObject</title>
<path fill="none" stroke="lightslategrey" d="M59.23,-37C66.98,-37 76,-37 84.66,-37"/>
<polygon fill="lightslategrey" stroke="lightslategrey" points="84.91,-40.5 94.91,-37 84.91,-33.5 84.91,-40.5"/>
</g>
<!-- supriya.commands.MoveRequest.MoveRequest&#45;&gt;supriya.commands.GroupTailRequest.GroupTailRequest -->
<g id="edge1" class="edge">
<title>supriya.commands.MoveRequest.MoveRequest&#45;&gt;supriya.commands.GroupTailRequest.GroupTailRequest</title>
<path fill="none" stroke="lightslategrey" d="M559.91,-37C568.33,-37 577.27,-37 585.66,-37"/>
<polygon fill="lightslategrey" stroke="lightslategrey" points="585.9,-40.5 595.9,-37 585.9,-33.5 585.9,-40.5"/>
</g>
<!-- supriya.commands.Request.Request&#45;&gt;supriya.commands.MoveRequest.MoveRequest -->
<g id="edge2" class="edge">
<title>supriya.commands.Request.Request&#45;&gt;supriya.commands.MoveRequest.MoveRequest</title>
<path fill="none" stroke="lightslategrey" d="M449.06,-37C457.23,-37 466.01,-37 474.54,-37"/>
<polygon fill="lightslategrey" stroke="lightslategrey" points="474.76,-40.5 484.76,-37 474.76,-33.5 474.76,-40.5"/>
</g>
<!-- supriya.commands.Requestable.Requestable&#45;&gt;supriya.commands.Request.Request -->
<g id="edge3" class="edge">
<title>supriya.commands.Requestable.Requestable&#45;&gt;supriya.commands.Request.Request</title>
<path fill="none" stroke="lightslategrey" d="M338.23,-37C346.3,-37 355.02,-37 363.52,-37"/>
<polygon fill="lightslategrey" stroke="lightslategrey" points="363.71,-40.5 373.71,-37 363.71,-33.5 363.71,-40.5"/>
</g>
<!-- supriya.system.SupriyaObject&#45;&gt;supriya.system.SupriyaValueObject -->
<g id="edge4" class="edge">
<title>supriya.system.SupriyaObject&#45;&gt;supriya.system.SupriyaValueObject</title>
<path fill="none" stroke="lightslategrey" d="M145.3,-37C153.22,-37 162.17,-37 170.69,-37"/>
<polygon fill="lightslategrey" stroke="lightslategrey" points="170.76,-40.5 180.76,-37 170.76,-33.5 170.76,-40.5"/>
</g>
<!-- supriya.system.SupriyaValueObject&#45;&gt;supriya.commands.Requestable.Requestable -->
<g id="edge6" class="edge">
<title>supriya.system.SupriyaValueObject&#45;&gt;supriya.commands.Requestable.Requestable</title>
<path fill="none" stroke="lightslategrey" d="M231.34,-37C239.12,-37 248,-37 256.76,-37"/>
<polygon fill="lightslategrey" stroke="lightslategrey" points="256.92,-40.5 266.92,-37 256.92,-33.5 256.92,-40.5"/>
</g>
<!-- builtins.object -->
<g id="node1" class="node">
<title>builtins.object</title>
<g id="a_node1"><a xlink:href="https://docs.python.org/3/library/functions.html#object" xlink:title="object" target="_top">
<path fill="#fbb4ae" stroke="#fbb4ae" stroke-width="2" d="M52.67,-46.5C52.67,-46.5 22.33,-46.5 22.33,-46.5 19.17,-46.5 16,-43.33 16,-40.17 16,-40.17 16,-33.83 16,-33.83 16,-30.67 19.17,-27.5 22.33,-27.5 22.33,-27.5 52.67,-27.5 52.67,-27.5 55.83,-27.5 59,-30.67 59,-33.83 59,-33.83 59,-40.17 59,-40.17 59,-43.33 55.83,-46.5 52.67,-46.5"/>
<text text-anchor="middle" x="37.5" y="-34.5" font-family="Arial" font-size="10.00">object</text>
</a>
</g>
</g>
<!-- supriya.commands.GroupTailRequest.GroupTailRequest -->
<g id="node2" class="node">
<title>supriya.commands.GroupTailRequest.GroupTailRequest</title>
<g id="a_node2"><a xlink:href="../api/supriya/commands/GroupTailRequest.html#supriya.commands.GroupTailRequest.GroupTailRequest" xlink:title="Group\nTail\nRequest" target="_top">
<path fill="black" stroke="black" stroke-width="2" d="M636.91,-57.5C636.91,-57.5 607.91,-57.5 607.91,-57.5 601.91,-57.5 595.91,-51.5 595.91,-45.5 595.91,-45.5 595.91,-28.5 595.91,-28.5 595.91,-22.5 601.91,-16.5 607.91,-16.5 607.91,-16.5 636.91,-16.5 636.91,-16.5 642.91,-16.5 648.91,-22.5 648.91,-28.5 648.91,-28.5 648.91,-45.5 648.91,-45.5 648.91,-51.5 642.91,-57.5 636.91,-57.5"/>
<text text-anchor="middle" x="622.41" y="-45.5" font-family="Arial" font-size="10.00" fill="white">Group</text>
<text text-anchor="middle" x="622.41" y="-34.5" font-family="Arial" font-size="10.00" fill="white">Tail</text>
<text text-anchor="middle" x="622.41" y="-23.5" font-family="Arial" font-size="10.00" fill="white">Request</text>
</a>
</g>
</g>
<!-- supriya.commands.MoveRequest.MoveRequest -->
<g id="node3" class="node">
<title>supriya.commands.MoveRequest.MoveRequest</title>
<g id="a_node3"><a xlink:href="../api/supriya/commands/MoveRequest.html#supriya.commands.MoveRequest.MoveRequest" xlink:title="Move\nRequest" target="_top">
<ellipse fill="none" stroke="#b3cde3" stroke-width="2" cx="522.43" cy="-37" rx="37.45" ry="21.43"/>
<text text-anchor="middle" x="522.43" y="-40" font-family="Arial" font-size="10.00">Move</text>
<text text-anchor="middle" x="522.43" y="-29" font-family="Arial" font-size="10.00">Request</text>
</a>
</g>
</g>
<!-- supriya.commands.Request.Request -->
<g id="node4" class="node">
<title>supriya.commands.Request.Request</title>
<g id="a_node4"><a xlink:href="../api/supriya/commands/Request.html#supriya.commands.Request.Request" xlink:title="Request" target="_top">
<ellipse fill="none" stroke="#b3cde3" stroke-width="2" cx="411.48" cy="-37" rx="37.45" ry="13.37"/>
<text text-anchor="middle" x="411.48" y="-34.5" font-family="Arial" font-size="10.00">Request</text>
</a>
</g>
</g>
<!-- supriya.commands.Requestable.Requestable -->
<g id="node5" class="node">
<title>supriya.commands.Requestable.Requestable</title>
<g id="a_node5"><a xlink:href="../api/supriya/commands/Requestable.html#supriya.commands.Requestable.Requestable" xlink:title="Requestable" target="_top">
<path fill="#b3cde3" stroke="#b3cde3" stroke-width="2" d="M331.67,-46.5C331.67,-46.5 273.33,-46.5 273.33,-46.5 270.17,-46.5 267,-43.33 267,-40.17 267,-40.17 267,-33.83 267,-33.83 267,-30.67 270.17,-27.5 273.33,-27.5 273.33,-27.5 331.67,-27.5 331.67,-27.5 334.83,-27.5 338,-30.67 338,-33.83 338,-33.83 338,-40.17 338,-40.17 338,-43.33 334.83,-46.5 331.67,-46.5"/>
<text text-anchor="middle" x="302.5" y="-34.5" font-family="Arial" font-size="10.00">Requestable</text>
</a>
</g>
</g>
<!-- supriya.system.SupriyaObject -->
<g id="node6" class="node">
<title>supriya.system.SupriyaObject</title>
<g id="a_node6"><a xlink:href="../api/supriya/commands/../system.html#supriya.system.SupriyaObject" xlink:title="Supriya\nObject" target="_top">
<path fill="#ccebc5" stroke="#ccebc5" stroke-width="2" d="M135,-52C135,-52 105,-52 105,-52 100,-52 95,-47 95,-42 95,-42 95,-32 95,-32 95,-27 100,-22 105,-22 105,-22 135,-22 135,-22 140,-22 145,-27 145,-32 145,-32 145,-42 145,-42 145,-47 140,-52 135,-52"/>
<text text-anchor="middle" x="120" y="-40" font-family="Arial" font-size="10.00">Supriya</text>
<text text-anchor="middle" x="120" y="-29" font-family="Arial" font-size="10.00">Object</text>
</a>
</g>
</g>
<!-- supriya.system.SupriyaValueObject -->
<g id="node7" class="node">
<title>supriya.system.SupriyaValueObject</title>
<g id="a_node7"><a xlink:href="../api/supriya/commands/../system.html#supriya.system.SupriyaValueObject" xlink:title="Supriya\nValue\nObject" target="_top">
<path fill="#ccebc5" stroke="#ccebc5" stroke-width="2" d="M219,-57.5C219,-57.5 193,-57.5 193,-57.5 187,-57.5 181,-51.5 181,-45.5 181,-45.5 181,-28.5 181,-28.5 181,-22.5 187,-16.5 193,-16.5 193,-16.5 219,-16.5 219,-16.5 225,-16.5 231,-22.5 231,-28.5 231,-28.5 231,-45.5 231,-45.5 231,-51.5 225,-57.5 219,-57.5"/>
<text text-anchor="middle" x="206" y="-45.5" font-family="Arial" font-size="10.00">Supriya</text>
<text text-anchor="middle" x="206" y="-34.5" font-family="Arial" font-size="10.00">Value</text>
<text text-anchor="middle" x="206" y="-23.5" font-family="Arial" font-size="10.00">Object</text>
</a>
</g>
</g>
</g>
</svg>
