<?xml version="1.0" encoding="UTF-8" standalone="no"?>
<!DOCTYPE svg PUBLIC "-//W3C//DTD SVG 1.1//EN"
 "http://www.w3.org/Graphics/SVG/1.1/DTD/svg11.dtd">
<!-- Generated by graphviz version 2.44.1 (20200629.0846)
 -->
<!-- Title: InheritanceGraph Pages: 1 -->
<svg width="817pt" height="935pt"
 viewBox="0.00 0.00 817.40 935.00" xmlns="http://www.w3.org/2000/svg" xmlns:xlink="http://www.w3.org/1999/xlink">
<g id="graph0" class="graph" transform="scale(1 1) rotate(0) translate(4 931)">
<title>InheritanceGraph</title>
<g id="clust1" class="cluster">
<title>cluster_builtins</title>
<path fill="transparent" stroke="#bcd2ee" stroke-width="2" stroke-dasharray="5,2" d="M20,-447C20,-447 55,-447 55,-447 61,-447 67,-453 67,-459 67,-459 67,-490 67,-490 67,-496 61,-502 55,-502 55,-502 20,-502 20,-502 14,-502 8,-496 8,-490 8,-490 8,-459 8,-459 8,-453 14,-447 20,-447"/>
<text text-anchor="middle" x="37.5" y="-490" font-family="Arial" font-size="10.00">builtins</text>
</g>
<g id="clust2" class="cluster">
<title>cluster_supriya.synthdefs.bases</title>
<path fill="transparent" stroke="#bcd2ee" stroke-width="2" stroke-dasharray="5,2" d="M347,-444C347,-444 445.4,-444 445.4,-444 451.4,-444 457.4,-450 457.4,-456 457.4,-456 457.4,-493 457.4,-493 457.4,-499 451.4,-505 445.4,-505 445.4,-505 347,-505 347,-505 341,-505 335,-499 335,-493 335,-493 335,-456 335,-456 335,-450 341,-444 347,-444"/>
<text text-anchor="middle" x="396.2" y="-493" font-family="Arial" font-size="10.00">supriya.synthdefs.bases</text>
</g>
<g id="clust3" class="cluster">
<title>cluster_supriya.synthdefs.mixins</title>
<path fill="transparent" stroke="#bcd2ee" stroke-width="2" stroke-dasharray="5,2" d="M202,-436C202,-436 303,-436 303,-436 309,-436 315,-442 315,-448 315,-448 315,-501 315,-501 315,-507 309,-513 303,-513 303,-513 202,-513 202,-513 196,-513 190,-507 190,-501 190,-501 190,-448 190,-448 190,-442 196,-436 202,-436"/>
<text text-anchor="middle" x="252.5" y="-501" font-family="Arial" font-size="10.00">supriya.synthdefs.mixins</text>
</g>
<g id="clust4" class="cluster">
<title>cluster_supriya.system</title>
<path fill="transparent" stroke="#bcd2ee" stroke-width="2" stroke-dasharray="5,2" d="M99,-442C99,-442 158,-442 158,-442 164,-442 170,-448 170,-454 170,-454 170,-495 170,-495 170,-501 164,-507 158,-507 158,-507 99,-507 99,-507 93,-507 87,-501 87,-495 87,-495 87,-454 87,-454 87,-448 93,-442 99,-442"/>
<text text-anchor="middle" x="128.5" y="-495" font-family="Arial" font-size="10.00">supriya.system</text>
</g>
<g id="clust5" class="cluster">
<title>cluster_supriya.ugens.triggers</title>
<path fill="transparent" stroke="#bcd2ee" stroke-width="2" stroke-dasharray="5,2" d="M563.4,-8C563.4,-8 789.4,-8 789.4,-8 795.4,-8 801.4,-14 801.4,-20 801.4,-20 801.4,-907 801.4,-907 801.4,-913 795.4,-919 789.4,-919 789.4,-919 563.4,-919 563.4,-919 557.4,-919 551.4,-913 551.4,-907 551.4,-907 551.4,-20 551.4,-20 551.4,-14 557.4,-8 563.4,-8"/>
<text text-anchor="middle" x="676.4" y="-907" font-family="Arial" font-size="10.00">supriya.ugens.triggers</text>
</g>
<!-- builtins.object&#45;&gt;supriya.system.SupriyaObject -->
<g id="edge3" class="edge">
<title>builtins.object&#45;&gt;supriya.system.SupriyaObject</title>
<path fill="none" stroke="lightslategrey" d="M59.03,-465C69.03,-465 81.34,-465 92.72,-465"/>
<polygon fill="lightslategrey" stroke="lightslategrey" points="92.82,-468.5 102.82,-465 92.82,-461.5 92.82,-468.5"/>
</g>
<!-- supriya.synthdefs.bases.UGen&#45;&gt;supriya.ugens.triggers.Clip -->
<g id="edge4" class="edge">
<title>supriya.synthdefs.bases.UGen&#45;&gt;supriya.ugens.triggers.Clip</title>
<path fill="none" stroke="lightslategrey" d="M400.62,-478.37C412.22,-517.45 447.86,-634.66 485.4,-729 499.88,-765.4 505.03,-773.88 522.4,-809 534.65,-833.77 531.76,-844.56 551.4,-864 554.27,-866.84 557.67,-869.33 561.22,-871.47"/>
<polygon fill="lightslategrey" stroke="lightslategrey" points="559.6,-874.58 570.09,-876.11 562.85,-868.38 559.6,-874.58"/>
</g>
<!-- supriya.synthdefs.bases.UGen&#45;&gt;supriya.ugens.triggers.Fold -->
<g id="edge5" class="edge">
<title>supriya.synthdefs.bases.UGen&#45;&gt;supriya.ugens.triggers.Fold</title>
<path fill="none" stroke="lightslategrey" d="M400.45,-478.37C411.33,-516.34 444.69,-627.78 485.4,-715 509.84,-767.35 509.38,-787.34 551.4,-827 554.19,-829.64 557.46,-831.99 560.84,-834.05"/>
<polygon fill="lightslategrey" stroke="lightslategrey" points="559.38,-837.24 569.85,-838.82 562.65,-831.05 559.38,-837.24"/>
</g>
<!-- supriya.synthdefs.bases.UGen&#45;&gt;supriya.ugens.triggers.Gate -->
<g id="edge6" class="edge">
<title>supriya.synthdefs.bases.UGen&#45;&gt;supriya.ugens.triggers.Gate</title>
<path fill="none" stroke="lightslategrey" d="M399.7,-478.63C411.02,-527.14 455.49,-693.62 551.4,-789 553.8,-791.39 556.56,-793.56 559.46,-795.51"/>
<polygon fill="lightslategrey" stroke="lightslategrey" points="557.94,-798.67 568.35,-800.68 561.47,-792.62 557.94,-798.67"/>
</g>
<!-- supriya.synthdefs.bases.UGen&#45;&gt;supriya.ugens.triggers.InRange -->
<g id="edge7" class="edge">
<title>supriya.synthdefs.bases.UGen&#45;&gt;supriya.ugens.triggers.InRange</title>
<path fill="none" stroke="lightslategrey" d="M401.29,-478.36C416.57,-521.19 469.4,-657.16 551.4,-741 552.99,-742.63 554.7,-744.21 556.49,-745.74"/>
<polygon fill="lightslategrey" stroke="lightslategrey" points="554.57,-748.68 564.63,-752.03 558.86,-743.14 554.57,-748.68"/>
</g>
<!-- supriya.synthdefs.bases.UGen&#45;&gt;supriya.ugens.triggers.Latch -->
<g id="edge8" class="edge">
<title>supriya.synthdefs.bases.UGen&#45;&gt;supriya.ugens.triggers.Latch</title>
<path fill="none" stroke="lightslategrey" d="M402.4,-478.21C419.72,-517.06 475.2,-632.6 551.4,-703 553.35,-704.81 555.51,-706.5 557.77,-708.07"/>
<polygon fill="lightslategrey" stroke="lightslategrey" points="556.37,-711.32 566.73,-713.53 560.01,-705.34 556.37,-711.32"/>
</g>
<!-- supriya.synthdefs.bases.UGen&#45;&gt;supriya.ugens.triggers.LeastChange -->
<g id="edge9" class="edge">
<title>supriya.synthdefs.bases.UGen&#45;&gt;supriya.ugens.triggers.LeastChange</title>
<path fill="none" stroke="lightslategrey" d="M405.35,-478.06C427.23,-510.47 487.57,-596.22 551.4,-655 552.34,-655.87 553.32,-656.73 554.32,-657.59"/>
<polygon fill="lightslategrey" stroke="lightslategrey" points="552.32,-660.46 562.35,-663.87 556.64,-654.95 552.32,-660.46"/>
</g>
<!-- supriya.synthdefs.bases.UGen&#45;&gt;supriya.ugens.triggers.MostChange -->
<g id="edge10" class="edge">
<title>supriya.synthdefs.bases.UGen&#45;&gt;supriya.ugens.triggers.MostChange</title>
<path fill="none" stroke="lightslategrey" d="M408.99,-477.42C434.5,-502.91 495.47,-562.52 551.4,-607 552.59,-607.95 553.81,-608.9 555.06,-609.84"/>
<polygon fill="lightslategrey" stroke="lightslategrey" points="553.32,-612.91 563.47,-615.96 557.44,-607.25 553.32,-612.91"/>
</g>
<!-- supriya.synthdefs.bases.UGen&#45;&gt;supriya.ugens.triggers.Peak -->
<g id="edge11" class="edge">
<title>supriya.synthdefs.bases.UGen&#45;&gt;supriya.ugens.triggers.Peak</title>
<path fill="none" stroke="lightslategrey" d="M412.63,-476.44C440.32,-496.17 499.36,-537.48 551.4,-569 553.89,-570.51 556.51,-572.04 559.16,-573.54"/>
<polygon fill="lightslategrey" stroke="lightslategrey" points="557.6,-576.68 568.05,-578.46 560.99,-570.56 557.6,-576.68"/>
</g>
<!-- supriya.synthdefs.bases.UGen&#45;&gt;supriya.ugens.triggers.PeakFollower -->
<g id="edge12" class="edge">
<title>supriya.synthdefs.bases.UGen&#45;&gt;supriya.ugens.triggers.PeakFollower</title>
<path fill="none" stroke="lightslategrey" d="M418.09,-474.02C450.52,-487.7 512.45,-513.82 551.47,-530.27"/>
<polygon fill="lightslategrey" stroke="lightslategrey" points="550.29,-533.57 560.87,-534.23 553.01,-527.12 550.29,-533.57"/>
</g>
<!-- supriya.synthdefs.bases.UGen&#45;&gt;supriya.ugens.triggers.Phasor -->
<g id="edge13" class="edge">
<title>supriya.synthdefs.bases.UGen&#45;&gt;supriya.ugens.triggers.Phasor</title>
<path fill="none" stroke="lightslategrey" d="M423.48,-470.22C457.59,-476.88 516.53,-488.37 553.39,-495.56"/>
<polygon fill="lightslategrey" stroke="lightslategrey" points="553.13,-499.08 563.62,-497.56 554.47,-492.21 553.13,-499.08"/>
</g>
<!-- supriya.synthdefs.bases.UGen&#45;&gt;supriya.ugens.triggers.Poll -->
<g id="edge14" class="edge">
<title>supriya.synthdefs.bases.UGen&#45;&gt;supriya.ugens.triggers.Poll</title>
<path fill="none" stroke="lightslategrey" d="M425.51,-465C462.17,-465 524.97,-465 560.29,-465"/>
<polygon fill="lightslategrey" stroke="lightslategrey" points="560.72,-468.5 570.72,-465 560.72,-461.5 560.72,-468.5"/>
</g>
<!-- supriya.synthdefs.bases.UGen&#45;&gt;supriya.ugens.triggers.Schmidt -->
<g id="edge15" class="edge">
<title>supriya.synthdefs.bases.UGen&#45;&gt;supriya.ugens.triggers.Schmidt</title>
<path fill="none" stroke="lightslategrey" d="M423.48,-459.78C456.8,-453.28 513.83,-442.15 550.81,-434.94"/>
<polygon fill="lightslategrey" stroke="lightslategrey" points="551.52,-438.37 560.67,-433.02 550.18,-431.5 551.52,-438.37"/>
</g>
<!-- supriya.synthdefs.bases.UGen&#45;&gt;supriya.ugens.triggers.SendPeakRMS -->
<g id="edge16" class="edge">
<title>supriya.synthdefs.bases.UGen&#45;&gt;supriya.ugens.triggers.SendPeakRMS</title>
<path fill="none" stroke="lightslategrey" d="M417.36,-455.74C451.47,-440.46 519.63,-409.92 558.16,-392.65"/>
<polygon fill="lightslategrey" stroke="lightslategrey" points="560.04,-395.64 567.74,-388.36 557.18,-389.26 560.04,-395.64"/>
</g>
<!-- supriya.synthdefs.bases.UGen&#45;&gt;supriya.ugens.triggers.SendTrig -->
<g id="edge17" class="edge">
<title>supriya.synthdefs.bases.UGen&#45;&gt;supriya.ugens.triggers.SendTrig</title>
<path fill="none" stroke="lightslategrey" d="M412.01,-453.6C439.73,-432.99 500.09,-388.22 551.4,-351 554.06,-349.07 556.84,-347.07 559.61,-345.07"/>
<polygon fill="lightslategrey" stroke="lightslategrey" points="561.74,-347.85 567.83,-339.18 557.66,-342.16 561.74,-347.85"/>
</g>
<!-- supriya.synthdefs.bases.UGen&#45;&gt;supriya.ugens.triggers.Sweep -->
<g id="edge18" class="edge">
<title>supriya.synthdefs.bases.UGen&#45;&gt;supriya.ugens.triggers.Sweep</title>
<path fill="none" stroke="lightslategrey" d="M406.44,-452.27C429.3,-423 489.18,-349.73 551.4,-302 553.22,-300.6 555.17,-299.24 557.17,-297.94"/>
<polygon fill="lightslategrey" stroke="lightslategrey" points="559.3,-300.74 566.1,-292.62 555.72,-294.73 559.3,-300.74"/>
</g>
<!-- supriya.synthdefs.bases.UGen&#45;&gt;supriya.ugens.triggers.TDelay -->
<g id="edge19" class="edge">
<title>supriya.synthdefs.bases.UGen&#45;&gt;supriya.ugens.triggers.TDelay</title>
<path fill="none" stroke="lightslategrey" d="M404.21,-451.8C424.32,-417.39 482.52,-323.59 551.4,-265 553.11,-263.54 554.95,-262.15 556.86,-260.83"/>
<polygon fill="lightslategrey" stroke="lightslategrey" points="558.81,-263.74 565.49,-255.51 555.14,-257.78 558.81,-263.74"/>
</g>
<!-- supriya.synthdefs.bases.UGen&#45;&gt;supriya.ugens.triggers.ToggleFF -->
<g id="edge20" class="edge">
<title>supriya.synthdefs.bases.UGen&#45;&gt;supriya.ugens.triggers.ToggleFF</title>
<path fill="none" stroke="lightslategrey" d="M403.09,-451.72C421.84,-413.65 479.96,-302.12 551.4,-228 553,-226.34 554.72,-224.72 556.51,-223.15"/>
<polygon fill="lightslategrey" stroke="lightslategrey" points="559.03,-225.61 564.66,-216.64 554.66,-220.14 559.03,-225.61"/>
</g>
<!-- supriya.synthdefs.bases.UGen&#45;&gt;supriya.ugens.triggers.Trig -->
<g id="edge21" class="edge">
<title>supriya.synthdefs.bases.UGen&#45;&gt;supriya.ugens.triggers.Trig</title>
<path fill="none" stroke="lightslategrey" d="M400.83,-451.64C415.05,-407.57 465.84,-264.69 551.4,-179 554.47,-175.92 558.16,-173.2 561.96,-170.86"/>
<polygon fill="lightslategrey" stroke="lightslategrey" points="563.69,-173.9 570.83,-166.07 560.36,-167.74 563.69,-173.9"/>
</g>
<!-- supriya.synthdefs.bases.UGen&#45;&gt;supriya.ugens.triggers.Trig1 -->
<g id="edge22" class="edge">
<title>supriya.synthdefs.bases.UGen&#45;&gt;supriya.ugens.triggers.Trig1</title>
<path fill="none" stroke="lightslategrey" d="M400.2,-451.47C413.04,-403.96 461.6,-242.29 551.4,-142 554.56,-138.46 558.32,-135.14 562.17,-132.14"/>
<polygon fill="lightslategrey" stroke="lightslategrey" points="564.47,-134.8 570.58,-126.15 560.4,-129.11 564.47,-134.8"/>
</g>
<!-- supriya.synthdefs.bases.UGen&#45;&gt;supriya.ugens.triggers.Wrap -->
<g id="edge23" class="edge">
<title>supriya.synthdefs.bases.UGen&#45;&gt;supriya.ugens.triggers.Wrap</title>
<path fill="none" stroke="lightslategrey" d="M398.74,-451.63C407.38,-399.15 445.57,-204.71 551.4,-93 553.68,-90.59 556.34,-88.42 559.15,-86.48"/>
<polygon fill="lightslategrey" stroke="lightslategrey" points="561,-89.45 567.82,-81.34 557.43,-83.42 561,-89.45"/>
</g>
<!-- supriya.synthdefs.bases.UGen&#45;&gt;supriya.ugens.triggers.ZeroCrossing -->
<g id="edge24" class="edge">
<title>supriya.synthdefs.bases.UGen&#45;&gt;supriya.ugens.triggers.ZeroCrossing</title>
<path fill="none" stroke="lightslategrey" d="M399.93,-451.68C410.11,-410.52 443.33,-282.11 485.4,-181 509.53,-123 510.06,-103.31 551.4,-56 552.38,-54.88 553.42,-53.77 554.51,-52.7"/>
<polygon fill="lightslategrey" stroke="lightslategrey" points="556.93,-55.23 562.17,-46.02 552.33,-49.95 556.93,-55.23"/>
</g>
<!-- supriya.synthdefs.mixins.UGenMethodMixin&#45;&gt;supriya.synthdefs.bases.UGen -->
<g id="edge25" class="edge">
<title>supriya.synthdefs.mixins.UGenMethodMixin&#45;&gt;supriya.synthdefs.bases.UGen</title>
<path fill="none" stroke="lightslategrey" d="M277.13,-465C298.5,-465 330.36,-465 355.53,-465"/>
<polygon fill="lightslategrey" stroke="lightslategrey" points="355.86,-468.5 365.86,-465 355.86,-461.5 355.86,-468.5"/>
</g>
<!-- supriya.system.SupriyaObject&#45;&gt;supriya.synthdefs.mixins.UGenMethodMixin -->
<g id="edge26" class="edge">
<title>supriya.system.SupriyaObject&#45;&gt;supriya.synthdefs.mixins.UGenMethodMixin</title>
<path fill="none" stroke="lightslategrey" d="M153.2,-465C171.61,-465 197.17,-465 217.61,-465"/>
<polygon fill="lightslategrey" stroke="lightslategrey" points="217.77,-468.5 227.77,-465 217.77,-461.5 217.77,-468.5"/>
</g>
<!-- supriya.ugens.triggers.Peak&#45;&gt;supriya.ugens.triggers.RunningMax -->
<g id="edge1" class="edge">
<title>supriya.ugens.triggers.Peak&#45;&gt;supriya.ugens.triggers.RunningMax</title>
<path fill="none" stroke="lightslategrey" d="M607.17,-584.39C617.05,-582.5 629.52,-580.1 641.17,-577.86"/>
<polygon fill="lightslategrey" stroke="lightslategrey" points="641.95,-581.28 651.11,-575.95 640.63,-574.4 641.95,-581.28"/>
</g>
<!-- supriya.ugens.triggers.Peak&#45;&gt;supriya.ugens.triggers.RunningMin -->
<g id="edge2" class="edge">
<title>supriya.ugens.triggers.Peak&#45;&gt;supriya.ugens.triggers.RunningMin</title>
<path fill="none" stroke="lightslategrey" d="M607.13,-590.2C619.65,-591.64 636.5,-593.52 651.4,-595 677.62,-597.6 707.27,-600.18 729.82,-602.07"/>
<polygon fill="lightslategrey" stroke="lightslategrey" points="729.7,-605.57 739.96,-602.91 730.28,-598.59 729.7,-605.57"/>
</g>
<!-- builtins.object -->
<g id="node1" class="node">
<title>builtins.object</title>
<g id="a_node1"><a xlink:href="https://docs.python.org/3/library/functions.html#object" xlink:title="object" target="_top">
<path fill="#fbb4ae" stroke="#fbb4ae" stroke-width="2" d="M52.67,-474.5C52.67,-474.5 22.33,-474.5 22.33,-474.5 19.17,-474.5 16,-471.33 16,-468.17 16,-468.17 16,-461.83 16,-461.83 16,-458.67 19.17,-455.5 22.33,-455.5 22.33,-455.5 52.67,-455.5 52.67,-455.5 55.83,-455.5 59,-458.67 59,-461.83 59,-461.83 59,-468.17 59,-468.17 59,-471.33 55.83,-474.5 52.67,-474.5"/>
<text text-anchor="middle" x="37.5" y="-462.5" font-family="Arial" font-size="10.00">object</text>
</a>
</g>
</g>
<!-- supriya.synthdefs.bases.UGen -->
<g id="node2" class="node">
<title>supriya.synthdefs.bases.UGen</title>
<g id="a_node2"><a xlink:href="../api/supriya/ugens/../synthdefs/bases.html#supriya.synthdefs.bases.UGen" xlink:title="UGen" target="_top">
<ellipse fill="none" stroke="#b3cde3" stroke-width="2" cx="395.7" cy="-465" rx="29.9" ry="13.37"/>
<text text-anchor="middle" x="395.7" y="-462.5" font-family="Arial" font-size="10.00">UGen</text>
</a>
</g>
</g>
<!-- supriya.synthdefs.mixins.UGenMethodMixin -->
<g id="node3" class="node">
<title>supriya.synthdefs.mixins.UGenMethodMixin</title>
<g id="a_node3"><a xlink:href="../api/supriya/ugens/../synthdefs/mixins.html#supriya.synthdefs.mixins.UGenMethodMixin" xlink:title="UGen\nMethod\nMixin" target="_top">
<path fill="#ccebc5" stroke="#ccebc5" stroke-width="2" d="M265,-485.5C265,-485.5 240,-485.5 240,-485.5 234,-485.5 228,-479.5 228,-473.5 228,-473.5 228,-456.5 228,-456.5 228,-450.5 234,-444.5 240,-444.5 240,-444.5 265,-444.5 265,-444.5 271,-444.5 277,-450.5 277,-456.5 277,-456.5 277,-473.5 277,-473.5 277,-479.5 271,-485.5 265,-485.5"/>
<text text-anchor="middle" x="252.5" y="-473.5" font-family="Arial" font-size="10.00">UGen</text>
<text text-anchor="middle" x="252.5" y="-462.5" font-family="Arial" font-size="10.00">Method</text>
<text text-anchor="middle" x="252.5" y="-451.5" font-family="Arial" font-size="10.00">Mixin</text>
</a>
</g>
</g>
<!-- supriya.system.SupriyaObject -->
<g id="node4" class="node">
<title>supriya.system.SupriyaObject</title>
<g id="a_node4"><a xlink:href="../api/supriya/ugens/../system.html#supriya.system.SupriyaObject" xlink:title="Supriya\nObject" target="_top">
<path fill="#decbe4" stroke="#decbe4" stroke-width="2" d="M143,-480C143,-480 113,-480 113,-480 108,-480 103,-475 103,-470 103,-470 103,-460 103,-460 103,-455 108,-450 113,-450 113,-450 143,-450 143,-450 148,-450 153,-455 153,-460 153,-460 153,-470 153,-470 153,-475 148,-480 143,-480"/>
<text text-anchor="middle" x="128" y="-468" font-family="Arial" font-size="10.00">Supriya</text>
<text text-anchor="middle" x="128" y="-457" font-family="Arial" font-size="10.00">Object</text>
</a>
</g>
</g>
<!-- supriya.ugens.triggers.Clip -->
<g id="node5" class="node">
<title>supriya.ugens.triggers.Clip</title>
<g id="a_node5"><a xlink:href="../api/supriya/ugens/triggers.html#supriya.ugens.triggers.Clip" xlink:title="Clip" target="_top">
<path fill="black" stroke="black" stroke-width="2" d="M598.06,-891.5C598.06,-891.5 576.73,-891.5 576.73,-891.5 573.56,-891.5 570.4,-888.33 570.4,-885.17 570.4,-885.17 570.4,-878.83 570.4,-878.83 570.4,-875.67 573.56,-872.5 576.73,-872.5 576.73,-872.5 598.06,-872.5 598.06,-872.5 601.23,-872.5 604.4,-875.67 604.4,-878.83 604.4,-878.83 604.4,-885.17 604.4,-885.17 604.4,-888.33 601.23,-891.5 598.06,-891.5"/>
<text text-anchor="middle" x="587.4" y="-879.5" font-family="Arial" font-size="10.00" fill="white">Clip</text>
</a>
</g>
</g>
<!-- supriya.ugens.triggers.Fold -->
<g id="node6" class="node">
<title>supriya.ugens.triggers.Fold</title>
<g id="a_node6"><a xlink:href="../api/supriya/ugens/triggers.html#supriya.ugens.triggers.Fold" xlink:title="Fold" target="_top">
<path fill="black" stroke="black" stroke-width="2" d="M598.56,-854.5C598.56,-854.5 576.23,-854.5 576.23,-854.5 573.06,-854.5 569.9,-851.33 569.9,-848.17 569.9,-848.17 569.9,-841.83 569.9,-841.83 569.9,-838.67 573.06,-835.5 576.23,-835.5 576.23,-835.5 598.56,-835.5 598.56,-835.5 601.73,-835.5 604.9,-838.67 604.9,-841.83 604.9,-841.83 604.9,-848.17 604.9,-848.17 604.9,-851.33 601.73,-854.5 598.56,-854.5"/>
<text text-anchor="middle" x="587.4" y="-842.5" font-family="Arial" font-size="10.00" fill="white">Fold</text>
</a>
</g>
</g>
<!-- supriya.ugens.triggers.Gate -->
<g id="node7" class="node">
<title>supriya.ugens.triggers.Gate</title>
<g id="a_node7"><a xlink:href="../api/supriya/ugens/triggers.html#supriya.ugens.triggers.Gate" xlink:title="Gate" target="_top">
<path fill="black" stroke="black" stroke-width="2" d="M600.06,-817.5C600.06,-817.5 574.73,-817.5 574.73,-817.5 571.56,-817.5 568.4,-814.33 568.4,-811.17 568.4,-811.17 568.4,-804.83 568.4,-804.83 568.4,-801.67 571.56,-798.5 574.73,-798.5 574.73,-798.5 600.06,-798.5 600.06,-798.5 603.23,-798.5 606.4,-801.67 606.4,-804.83 606.4,-804.83 606.4,-811.17 606.4,-811.17 606.4,-814.33 603.23,-817.5 600.06,-817.5"/>
<text text-anchor="middle" x="587.4" y="-805.5" font-family="Arial" font-size="10.00" fill="white">Gate</text>
</a>
</g>
</g>
<!-- supriya.ugens.triggers.InRange -->
<g id="node8" class="node">
<title>supriya.ugens.triggers.InRange</title>
<g id="a_node8"><a xlink:href="../api/supriya/ugens/triggers.html#supriya.ugens.triggers.InRange" xlink:title="In\nRange" target="_top">
<path fill="black" stroke="black" stroke-width="2" d="M599.9,-780C599.9,-780 574.9,-780 574.9,-780 569.9,-780 564.9,-775 564.9,-770 564.9,-770 564.9,-760 564.9,-760 564.9,-755 569.9,-750 574.9,-750 574.9,-750 599.9,-750 599.9,-750 604.9,-750 609.9,-755 609.9,-760 609.9,-760 609.9,-770 609.9,-770 609.9,-775 604.9,-780 599.9,-780"/>
<text text-anchor="middle" x="587.4" y="-768" font-family="Arial" font-size="10.00" fill="white">In</text>
<text text-anchor="middle" x="587.4" y="-757" font-family="Arial" font-size="10.00" fill="white">Range</text>
</a>
</g>
</g>
<!-- supriya.ugens.triggers.Latch -->
<g id="node9" class="node">
<title>supriya.ugens.triggers.Latch</title>
<g id="a_node9"><a xlink:href="../api/supriya/ugens/triggers.html#supriya.ugens.triggers.Latch" xlink:title="Latch" target="_top">
<path fill="black" stroke="black" stroke-width="2" d="M601.56,-731.5C601.56,-731.5 573.23,-731.5 573.23,-731.5 570.06,-731.5 566.9,-728.33 566.9,-725.17 566.9,-725.17 566.9,-718.83 566.9,-718.83 566.9,-715.67 570.06,-712.5 573.23,-712.5 573.23,-712.5 601.56,-712.5 601.56,-712.5 604.73,-712.5 607.9,-715.67 607.9,-718.83 607.9,-718.83 607.9,-725.17 607.9,-725.17 607.9,-728.33 604.73,-731.5 601.56,-731.5"/>
<text text-anchor="middle" x="587.4" y="-719.5" font-family="Arial" font-size="10.00" fill="white">Latch</text>
</a>
</g>
</g>
<!-- supriya.ugens.triggers.LeastChange -->
<g id="node10" class="node">
<title>supriya.ugens.triggers.LeastChange</title>
<g id="a_node10"><a xlink:href="../api/supriya/ugens/triggers.html#supriya.ugens.triggers.LeastChange" xlink:title="Least\nChange" target="_top">
<path fill="black" stroke="black" stroke-width="2" d="M602.4,-694C602.4,-694 572.4,-694 572.4,-694 567.4,-694 562.4,-689 562.4,-684 562.4,-684 562.4,-674 562.4,-674 562.4,-669 567.4,-664 572.4,-664 572.4,-664 602.4,-664 602.4,-664 607.4,-664 612.4,-669 612.4,-674 612.4,-674 612.4,-684 612.4,-684 612.4,-689 607.4,-694 602.4,-694"/>
<text text-anchor="middle" x="587.4" y="-682" font-family="Arial" font-size="10.00" fill="white">Least</text>
<text text-anchor="middle" x="587.4" y="-671" font-family="Arial" font-size="10.00" fill="white">Change</text>
</a>
</g>
</g>
<!-- supriya.ugens.triggers.MostChange -->
<g id="node11" class="node">
<title>supriya.ugens.triggers.MostChange</title>
<g id="a_node11"><a xlink:href="../api/supriya/ugens/triggers.html#supriya.ugens.triggers.MostChange" xlink:title="Most\nChange" target="_top">
<path fill="black" stroke="black" stroke-width="2" d="M602.4,-646C602.4,-646 572.4,-646 572.4,-646 567.4,-646 562.4,-641 562.4,-636 562.4,-636 562.4,-626 562.4,-626 562.4,-621 567.4,-616 572.4,-616 572.4,-616 602.4,-616 602.4,-616 607.4,-616 612.4,-621 612.4,-626 612.4,-626 612.4,-636 612.4,-636 612.4,-641 607.4,-646 602.4,-646"/>
<text text-anchor="middle" x="587.4" y="-634" font-family="Arial" font-size="10.00" fill="white">Most</text>
<text text-anchor="middle" x="587.4" y="-623" font-family="Arial" font-size="10.00" fill="white">Change</text>
</a>
</g>
</g>
<!-- supriya.ugens.triggers.Peak -->
<g id="node12" class="node">
<title>supriya.ugens.triggers.Peak</title>
<g id="a_node12"><a xlink:href="../api/supriya/ugens/triggers.html#supriya.ugens.triggers.Peak" xlink:title="Peak" target="_top">
<path fill="black" stroke="black" stroke-width="2" d="M600.56,-597.5C600.56,-597.5 574.23,-597.5 574.23,-597.5 571.06,-597.5 567.9,-594.33 567.9,-591.17 567.9,-591.17 567.9,-584.83 567.9,-584.83 567.9,-581.67 571.06,-578.5 574.23,-578.5 574.23,-578.5 600.56,-578.5 600.56,-578.5 603.73,-578.5 606.9,-581.67 606.9,-584.83 606.9,-584.83 606.9,-591.17 606.9,-591.17 606.9,-594.33 603.73,-597.5 600.56,-597.5"/>
<text text-anchor="middle" x="587.4" y="-585.5" font-family="Arial" font-size="10.00" fill="white">Peak</text>
</a>
</g>
</g>
<!-- supriya.ugens.triggers.RunningMax -->
<g id="node13" class="node">
<title>supriya.ugens.triggers.RunningMax</title>
<g id="a_node13"><a xlink:href="../api/supriya/ugens/triggers.html#supriya.ugens.triggers.RunningMax" xlink:title="Running\nMax" target="_top">
<path fill="black" stroke="black" stroke-width="2" d="M694.4,-586C694.4,-586 661.4,-586 661.4,-586 656.4,-586 651.4,-581 651.4,-576 651.4,-576 651.4,-566 651.4,-566 651.4,-561 656.4,-556 661.4,-556 661.4,-556 694.4,-556 694.4,-556 699.4,-556 704.4,-561 704.4,-566 704.4,-566 704.4,-576 704.4,-576 704.4,-581 699.4,-586 694.4,-586"/>
<text text-anchor="middle" x="677.9" y="-574" font-family="Arial" font-size="10.00" fill="white">Running</text>
<text text-anchor="middle" x="677.9" y="-563" font-family="Arial" font-size="10.00" fill="white">Max</text>
</a>
</g>
</g>
<!-- supriya.ugens.triggers.RunningMin -->
<g id="node14" class="node">
<title>supriya.ugens.triggers.RunningMin</title>
<g id="a_node14"><a xlink:href="../api/supriya/ugens/triggers.html#supriya.ugens.triggers.RunningMin" xlink:title="Running\nMin" target="_top">
<path fill="black" stroke="black" stroke-width="2" d="M783.4,-620C783.4,-620 750.4,-620 750.4,-620 745.4,-620 740.4,-615 740.4,-610 740.4,-610 740.4,-600 740.4,-600 740.4,-595 745.4,-590 750.4,-590 750.4,-590 783.4,-590 783.4,-590 788.4,-590 793.4,-595 793.4,-600 793.4,-600 793.4,-610 793.4,-610 793.4,-615 788.4,-620 783.4,-620"/>
<text text-anchor="middle" x="766.9" y="-608" font-family="Arial" font-size="10.00" fill="white">Running</text>
<text text-anchor="middle" x="766.9" y="-597" font-family="Arial" font-size="10.00" fill="white">Min</text>
</a>
</g>
</g>
<!-- supriya.ugens.triggers.PeakFollower -->
<g id="node15" class="node">
<title>supriya.ugens.triggers.PeakFollower</title>
<g id="a_node15"><a xlink:href="../api/supriya/ugens/triggers.html#supriya.ugens.triggers.PeakFollower" xlink:title="Peak\nFollower" target="_top">
<path fill="black" stroke="black" stroke-width="2" d="M603.9,-560C603.9,-560 570.9,-560 570.9,-560 565.9,-560 560.9,-555 560.9,-550 560.9,-550 560.9,-540 560.9,-540 560.9,-535 565.9,-530 570.9,-530 570.9,-530 603.9,-530 603.9,-530 608.9,-530 613.9,-535 613.9,-540 613.9,-540 613.9,-550 613.9,-550 613.9,-555 608.9,-560 603.9,-560"/>
<text text-anchor="middle" x="587.4" y="-548" font-family="Arial" font-size="10.00" fill="white">Peak</text>
<text text-anchor="middle" x="587.4" y="-537" font-family="Arial" font-size="10.00" fill="white">Follower</text>
</a>
</g>
</g>
<!-- supriya.ugens.triggers.Phasor -->
<g id="node16" class="node">
<title>supriya.ugens.triggers.Phasor</title>
<g id="a_node16"><a xlink:href="../api/supriya/ugens/triggers.html#supriya.ugens.triggers.Phasor" xlink:title="Phasor" target="_top">
<path fill="black" stroke="black" stroke-width="2" d="M604.56,-511.5C604.56,-511.5 570.23,-511.5 570.23,-511.5 567.06,-511.5 563.9,-508.33 563.9,-505.17 563.9,-505.17 563.9,-498.83 563.9,-498.83 563.9,-495.67 567.06,-492.5 570.23,-492.5 570.23,-492.5 604.56,-492.5 604.56,-492.5 607.73,-492.5 610.9,-495.67 610.9,-498.83 610.9,-498.83 610.9,-505.17 610.9,-505.17 610.9,-508.33 607.73,-511.5 604.56,-511.5"/>
<text text-anchor="middle" x="587.4" y="-499.5" font-family="Arial" font-size="10.00" fill="white">Phasor</text>
</a>
</g>
</g>
<!-- supriya.ugens.triggers.Poll -->
<g id="node17" class="node">
<title>supriya.ugens.triggers.Poll</title>
<g id="a_node17"><a xlink:href="../api/supriya/ugens/triggers.html#supriya.ugens.triggers.Poll" xlink:title="Poll" target="_top">
<path fill="black" stroke="black" stroke-width="2" d="M597.56,-474.5C597.56,-474.5 577.23,-474.5 577.23,-474.5 574.06,-474.5 570.9,-471.33 570.9,-468.17 570.9,-468.17 570.9,-461.83 570.9,-461.83 570.9,-458.67 574.06,-455.5 577.23,-455.5 577.23,-455.5 597.56,-455.5 597.56,-455.5 600.73,-455.5 603.9,-458.67 603.9,-461.83 603.9,-461.83 603.9,-468.17 603.9,-468.17 603.9,-471.33 600.73,-474.5 597.56,-474.5"/>
<text text-anchor="middle" x="587.4" y="-462.5" font-family="Arial" font-size="10.00" fill="white">Poll</text>
</a>
</g>
</g>
<!-- supriya.ugens.triggers.Schmidt -->
<g id="node18" class="node">
<title>supriya.ugens.triggers.Schmidt</title>
<g id="a_node18"><a xlink:href="../api/supriya/ugens/triggers.html#supriya.ugens.triggers.Schmidt" xlink:title="Schmidt" target="_top">
<path fill="black" stroke="black" stroke-width="2" d="M607.56,-437.5C607.56,-437.5 567.23,-437.5 567.23,-437.5 564.06,-437.5 560.9,-434.33 560.9,-431.17 560.9,-431.17 560.9,-424.83 560.9,-424.83 560.9,-421.67 564.06,-418.5 567.23,-418.5 567.23,-418.5 607.56,-418.5 607.56,-418.5 610.73,-418.5 613.9,-421.67 613.9,-424.83 613.9,-424.83 613.9,-431.17 613.9,-431.17 613.9,-434.33 610.73,-437.5 607.56,-437.5"/>
<text text-anchor="middle" x="587.4" y="-425.5" font-family="Arial" font-size="10.00" fill="white">Schmidt</text>
</a>
</g>
</g>
<!-- supriya.ugens.triggers.SendPeakRMS -->
<g id="node19" class="node">
<title>supriya.ugens.triggers.SendPeakRMS</title>
<g id="a_node19"><a xlink:href="../api/supriya/ugens/triggers.html#supriya.ugens.triggers.SendPeakRMS" xlink:title="Send\nPeak\nRMS" target="_top">
<path fill="black" stroke="black" stroke-width="2" d="M594.9,-400.5C594.9,-400.5 579.9,-400.5 579.9,-400.5 573.9,-400.5 567.9,-394.5 567.9,-388.5 567.9,-388.5 567.9,-371.5 567.9,-371.5 567.9,-365.5 573.9,-359.5 579.9,-359.5 579.9,-359.5 594.9,-359.5 594.9,-359.5 600.9,-359.5 606.9,-365.5 606.9,-371.5 606.9,-371.5 606.9,-388.5 606.9,-388.5 606.9,-394.5 600.9,-400.5 594.9,-400.5"/>
<text text-anchor="middle" x="587.4" y="-388.5" font-family="Arial" font-size="10.00" fill="white">Send</text>
<text text-anchor="middle" x="587.4" y="-377.5" font-family="Arial" font-size="10.00" fill="white">Peak</text>
<text text-anchor="middle" x="587.4" y="-366.5" font-family="Arial" font-size="10.00" fill="white">RMS</text>
</a>
</g>
</g>
<!-- supriya.ugens.triggers.SendTrig -->
<g id="node20" class="node">
<title>supriya.ugens.triggers.SendTrig</title>
<g id="a_node20"><a xlink:href="../api/supriya/ugens/triggers.html#supriya.ugens.triggers.SendTrig" xlink:title="Send\nTrig" target="_top">
<path fill="black" stroke="black" stroke-width="2" d="M596.9,-341C596.9,-341 577.9,-341 577.9,-341 572.9,-341 567.9,-336 567.9,-331 567.9,-331 567.9,-321 567.9,-321 567.9,-316 572.9,-311 577.9,-311 577.9,-311 596.9,-311 596.9,-311 601.9,-311 606.9,-316 606.9,-321 606.9,-321 606.9,-331 606.9,-331 606.9,-336 601.9,-341 596.9,-341"/>
<text text-anchor="middle" x="587.4" y="-329" font-family="Arial" font-size="10.00" fill="white">Send</text>
<text text-anchor="middle" x="587.4" y="-318" font-family="Arial" font-size="10.00" fill="white">Trig</text>
</a>
</g>
</g>
<!-- supriya.ugens.triggers.Sweep -->
<g id="node21" class="node">
<title>supriya.ugens.triggers.Sweep</title>
<g id="a_node21"><a xlink:href="../api/supriya/ugens/triggers.html#supriya.ugens.triggers.Sweep" xlink:title="Sweep" target="_top">
<path fill="black" stroke="black" stroke-width="2" d="M604.56,-292.5C604.56,-292.5 570.23,-292.5 570.23,-292.5 567.06,-292.5 563.9,-289.33 563.9,-286.17 563.9,-286.17 563.9,-279.83 563.9,-279.83 563.9,-276.67 567.06,-273.5 570.23,-273.5 570.23,-273.5 604.56,-273.5 604.56,-273.5 607.73,-273.5 610.9,-276.67 610.9,-279.83 610.9,-279.83 610.9,-286.17 610.9,-286.17 610.9,-289.33 607.73,-292.5 604.56,-292.5"/>
<text text-anchor="middle" x="587.4" y="-280.5" font-family="Arial" font-size="10.00" fill="white">Sweep</text>
</a>
</g>
</g>
<!-- supriya.ugens.triggers.TDelay -->
<g id="node22" class="node">
<title>supriya.ugens.triggers.TDelay</title>
<g id="a_node22"><a xlink:href="../api/supriya/ugens/triggers.html#supriya.ugens.triggers.TDelay" xlink:title="TDelay" target="_top">
<path fill="black" stroke="black" stroke-width="2" d="M605.06,-255.5C605.06,-255.5 569.73,-255.5 569.73,-255.5 566.56,-255.5 563.4,-252.33 563.4,-249.17 563.4,-249.17 563.4,-242.83 563.4,-242.83 563.4,-239.67 566.56,-236.5 569.73,-236.5 569.73,-236.5 605.06,-236.5 605.06,-236.5 608.23,-236.5 611.4,-239.67 611.4,-242.83 611.4,-242.83 611.4,-249.17 611.4,-249.17 611.4,-252.33 608.23,-255.5 605.06,-255.5"/>
<text text-anchor="middle" x="587.4" y="-243.5" font-family="Arial" font-size="10.00" fill="white">TDelay</text>
</a>
</g>
</g>
<!-- supriya.ugens.triggers.ToggleFF -->
<g id="node23" class="node">
<title>supriya.ugens.triggers.ToggleFF</title>
<g id="a_node23"><a xlink:href="../api/supriya/ugens/triggers.html#supriya.ugens.triggers.ToggleFF" xlink:title="Toggle\nFF" target="_top">
<path fill="black" stroke="black" stroke-width="2" d="M599.9,-218C599.9,-218 574.9,-218 574.9,-218 569.9,-218 564.9,-213 564.9,-208 564.9,-208 564.9,-198 564.9,-198 564.9,-193 569.9,-188 574.9,-188 574.9,-188 599.9,-188 599.9,-188 604.9,-188 609.9,-193 609.9,-198 609.9,-198 609.9,-208 609.9,-208 609.9,-213 604.9,-218 599.9,-218"/>
<text text-anchor="middle" x="587.4" y="-206" font-family="Arial" font-size="10.00" fill="white">Toggle</text>
<text text-anchor="middle" x="587.4" y="-195" font-family="Arial" font-size="10.00" fill="white">FF</text>
</a>
</g>
</g>
<!-- supriya.ugens.triggers.Trig -->
<g id="node24" class="node">
<title>supriya.ugens.triggers.Trig</title>
<g id="a_node24"><a xlink:href="../api/supriya/ugens/triggers.html#supriya.ugens.triggers.Trig" xlink:title="Trig" target="_top">
<path fill="black" stroke="black" stroke-width="2" d="M597.56,-169.5C597.56,-169.5 577.23,-169.5 577.23,-169.5 574.06,-169.5 570.9,-166.33 570.9,-163.17 570.9,-163.17 570.9,-156.83 570.9,-156.83 570.9,-153.67 574.06,-150.5 577.23,-150.5 577.23,-150.5 597.56,-150.5 597.56,-150.5 600.73,-150.5 603.9,-153.67 603.9,-156.83 603.9,-156.83 603.9,-163.17 603.9,-163.17 603.9,-166.33 600.73,-169.5 597.56,-169.5"/>
<text text-anchor="middle" x="587.4" y="-157.5" font-family="Arial" font-size="10.00" fill="white">Trig</text>
</a>
</g>
</g>
<!-- supriya.ugens.triggers.Trig1 -->
<g id="node25" class="node">
<title>supriya.ugens.triggers.Trig1</title>
<g id="a_node25"><a xlink:href="../api/supriya/ugens/triggers.html#supriya.ugens.triggers.Trig1" xlink:title="Trig\n1" target="_top">
<path fill="black" stroke="black" stroke-width="2" d="M593.9,-132C593.9,-132 580.9,-132 580.9,-132 575.9,-132 570.9,-127 570.9,-122 570.9,-122 570.9,-112 570.9,-112 570.9,-107 575.9,-102 580.9,-102 580.9,-102 593.9,-102 593.9,-102 598.9,-102 603.9,-107 603.9,-112 603.9,-112 603.9,-122 603.9,-122 603.9,-127 598.9,-132 593.9,-132"/>
<text text-anchor="middle" x="587.4" y="-120" font-family="Arial" font-size="10.00" fill="white">Trig</text>
<text text-anchor="middle" x="587.4" y="-109" font-family="Arial" font-size="10.00" fill="white">1</text>
</a>
</g>
</g>
<!-- supriya.ugens.triggers.Wrap -->
<g id="node26" class="node">
<title>supriya.ugens.triggers.Wrap</title>
<g id="a_node26"><a xlink:href="../api/supriya/ugens/triggers.html#supriya.ugens.triggers.Wrap" xlink:title="Wrap" target="_top">
<path fill="black" stroke="black" stroke-width="2" d="M600.56,-83.5C600.56,-83.5 574.23,-83.5 574.23,-83.5 571.06,-83.5 567.9,-80.33 567.9,-77.17 567.9,-77.17 567.9,-70.83 567.9,-70.83 567.9,-67.67 571.06,-64.5 574.23,-64.5 574.23,-64.5 600.56,-64.5 600.56,-64.5 603.73,-64.5 606.9,-67.67 606.9,-70.83 606.9,-70.83 606.9,-77.17 606.9,-77.17 606.9,-80.33 603.73,-83.5 600.56,-83.5"/>
<text text-anchor="middle" x="587.4" y="-71.5" font-family="Arial" font-size="10.00" fill="white">Wrap</text>
</a>
</g>
</g>
<!-- supriya.ugens.triggers.ZeroCrossing -->
<g id="node27" class="node">
<title>supriya.ugens.triggers.ZeroCrossing</title>
<g id="a_node27"><a xlink:href="../api/supriya/ugens/triggers.html#supriya.ugens.triggers.ZeroCrossing" xlink:title="Zero\nCrossing" target="_top">
<path fill="black" stroke="black" stroke-width="2" d="M605.4,-46C605.4,-46 569.4,-46 569.4,-46 564.4,-46 559.4,-41 559.4,-36 559.4,-36 559.4,-26 559.4,-26 559.4,-21 564.4,-16 569.4,-16 569.4,-16 605.4,-16 605.4,-16 610.4,-16 615.4,-21 615.4,-26 615.4,-26 615.4,-36 615.4,-36 615.4,-41 610.4,-46 605.4,-46"/>
<text text-anchor="middle" x="587.4" y="-34" font-family="Arial" font-size="10.00" fill="white">Zero</text>
<text text-anchor="middle" x="587.4" y="-23" font-family="Arial" font-size="10.00" fill="white">Crossing</text>
</a>
</g>
</g>
</g>
</svg>
