<?xml version="1.0" encoding="utf-8" standalone="no"?>
<!DOCTYPE svg PUBLIC "-//W3C//DTD SVG 1.1//EN"
  "http://www.w3.org/Graphics/SVG/1.1/DTD/svg11.dtd">
<svg xmlns:xlink="http://www.w3.org/1999/xlink" width="492.082812pt" height="155.63625pt" viewBox="0 0 492.082812 155.63625" xmlns="http://www.w3.org/2000/svg" version="1.1">
 <metadata>
  <rdf:RDF xmlns:dc="http://purl.org/dc/elements/1.1/" xmlns:cc="http://creativecommons.org/ns#" xmlns:rdf="http://www.w3.org/1999/02/22-rdf-syntax-ns#">
   <cc:Work>
    <dc:type rdf:resource="http://purl.org/dc/dcmitype/StillImage"/>
    <dc:date>2022-01-06T13:50:02.691440</dc:date>
    <dc:format>image/svg+xml</dc:format>
    <dc:creator>
     <cc:Agent>
      <dc:title>Matplotlib v3.5.1, https://matplotlib.org/</dc:title>
     </cc:Agent>
    </dc:creator>
   </cc:Work>
  </rdf:RDF>
 </metadata>
 <defs>
  <style type="text/css">*{stroke-linejoin: round; stroke-linecap: butt}</style>
 </defs>
 <g id="figure_1">
  <g id="patch_1">
   <path d="M 0 155.63625 
L 492.082812 155.63625 
L 492.082812 0 
L 0 0 
L 0 155.63625 
z
" style="fill: none; opacity: 0"/>
  </g>
  <g id="axes_1">
   <g id="patch_2">
    <path d="M 38.482813 118.08 
L 484.882812 118.08 
L 484.882812 7.2 
L 38.482813 7.2 
z
" style="fill: #ffffff"/>
   </g>
   <g id="matplotlib.axis_1">
    <g id="xtick_1">
     <g id="line2d_1">
      <defs>
       <path id="m95d3f95dd0" d="M 0 0 
L 0 3.5 
" style="stroke: #ffffff; stroke-width: 0.8"/>
      </defs>
      <g>
       <use xlink:href="#m95d3f95dd0" x="58.773722" y="118.08" style="fill: #ffffff; stroke: #ffffff; stroke-width: 0.8"/>
      </g>
     </g>
     <g id="text_1">
      <!-- 0.000 -->
      <g style="fill: #ffffff" transform="translate(44.459659 132.678438)scale(0.1 -0.1)">
       <defs>
        <path id="DejaVuSans-30" d="M 2034 4250 
Q 1547 4250 1301 3770 
Q 1056 3291 1056 2328 
Q 1056 1369 1301 889 
Q 1547 409 2034 409 
Q 2525 409 2770 889 
Q 3016 1369 3016 2328 
Q 3016 3291 2770 3770 
Q 2525 4250 2034 4250 
z
M 2034 4750 
Q 2819 4750 3233 4129 
Q 3647 3509 3647 2328 
Q 3647 1150 3233 529 
Q 2819 -91 2034 -91 
Q 1250 -91 836 529 
Q 422 1150 422 2328 
Q 422 3509 836 4129 
Q 1250 4750 2034 4750 
z
" transform="scale(0.015625)"/>
        <path id="DejaVuSans-2e" d="M 684 794 
L 1344 794 
L 1344 0 
L 684 0 
L 684 794 
z
" transform="scale(0.015625)"/>
       </defs>
       <use xlink:href="#DejaVuSans-30"/>
       <use xlink:href="#DejaVuSans-2e" x="63.623047"/>
       <use xlink:href="#DejaVuSans-30" x="95.410156"/>
       <use xlink:href="#DejaVuSans-30" x="159.033203"/>
       <use xlink:href="#DejaVuSans-30" x="222.65625"/>
      </g>
     </g>
    </g>
    <g id="xtick_2">
     <g id="line2d_2">
      <g>
       <use xlink:href="#m95d3f95dd0" x="115.953583" y="118.08" style="fill: #ffffff; stroke: #ffffff; stroke-width: 0.8"/>
      </g>
     </g>
     <g id="text_2">
      <!-- 0.002 -->
      <g style="fill: #ffffff" transform="translate(101.63952 132.678438)scale(0.1 -0.1)">
       <defs>
        <path id="DejaVuSans-32" d="M 1228 531 
L 3431 531 
L 3431 0 
L 469 0 
L 469 531 
Q 828 903 1448 1529 
Q 2069 2156 2228 2338 
Q 2531 2678 2651 2914 
Q 2772 3150 2772 3378 
Q 2772 3750 2511 3984 
Q 2250 4219 1831 4219 
Q 1534 4219 1204 4116 
Q 875 4013 500 3803 
L 500 4441 
Q 881 4594 1212 4672 
Q 1544 4750 1819 4750 
Q 2544 4750 2975 4387 
Q 3406 4025 3406 3419 
Q 3406 3131 3298 2873 
Q 3191 2616 2906 2266 
Q 2828 2175 2409 1742 
Q 1991 1309 1228 531 
z
" transform="scale(0.015625)"/>
       </defs>
       <use xlink:href="#DejaVuSans-30"/>
       <use xlink:href="#DejaVuSans-2e" x="63.623047"/>
       <use xlink:href="#DejaVuSans-30" x="95.410156"/>
       <use xlink:href="#DejaVuSans-30" x="159.033203"/>
       <use xlink:href="#DejaVuSans-32" x="222.65625"/>
      </g>
     </g>
    </g>
    <g id="xtick_3">
     <g id="line2d_3">
      <g>
       <use xlink:href="#m95d3f95dd0" x="173.133444" y="118.08" style="fill: #ffffff; stroke: #ffffff; stroke-width: 0.8"/>
      </g>
     </g>
     <g id="text_3">
      <!-- 0.003 -->
      <g style="fill: #ffffff" transform="translate(158.819382 132.678438)scale(0.1 -0.1)">
       <defs>
        <path id="DejaVuSans-33" d="M 2597 2516 
Q 3050 2419 3304 2112 
Q 3559 1806 3559 1356 
Q 3559 666 3084 287 
Q 2609 -91 1734 -91 
Q 1441 -91 1130 -33 
Q 819 25 488 141 
L 488 750 
Q 750 597 1062 519 
Q 1375 441 1716 441 
Q 2309 441 2620 675 
Q 2931 909 2931 1356 
Q 2931 1769 2642 2001 
Q 2353 2234 1838 2234 
L 1294 2234 
L 1294 2753 
L 1863 2753 
Q 2328 2753 2575 2939 
Q 2822 3125 2822 3475 
Q 2822 3834 2567 4026 
Q 2313 4219 1838 4219 
Q 1578 4219 1281 4162 
Q 984 4106 628 3988 
L 628 4550 
Q 988 4650 1302 4700 
Q 1616 4750 1894 4750 
Q 2613 4750 3031 4423 
Q 3450 4097 3450 3541 
Q 3450 3153 3228 2886 
Q 3006 2619 2597 2516 
z
" transform="scale(0.015625)"/>
       </defs>
       <use xlink:href="#DejaVuSans-30"/>
       <use xlink:href="#DejaVuSans-2e" x="63.623047"/>
       <use xlink:href="#DejaVuSans-30" x="95.410156"/>
       <use xlink:href="#DejaVuSans-30" x="159.033203"/>
       <use xlink:href="#DejaVuSans-33" x="222.65625"/>
      </g>
     </g>
    </g>
    <g id="xtick_4">
     <g id="line2d_4">
      <g>
       <use xlink:href="#m95d3f95dd0" x="230.313305" y="118.08" style="fill: #ffffff; stroke: #ffffff; stroke-width: 0.8"/>
      </g>
     </g>
     <g id="text_4">
      <!-- 0.005 -->
      <g style="fill: #ffffff" transform="translate(215.999243 132.678438)scale(0.1 -0.1)">
       <defs>
        <path id="DejaVuSans-35" d="M 691 4666 
L 3169 4666 
L 3169 4134 
L 1269 4134 
L 1269 2991 
Q 1406 3038 1543 3061 
Q 1681 3084 1819 3084 
Q 2600 3084 3056 2656 
Q 3513 2228 3513 1497 
Q 3513 744 3044 326 
Q 2575 -91 1722 -91 
Q 1428 -91 1123 -41 
Q 819 9 494 109 
L 494 744 
Q 775 591 1075 516 
Q 1375 441 1709 441 
Q 2250 441 2565 725 
Q 2881 1009 2881 1497 
Q 2881 1984 2565 2268 
Q 2250 2553 1709 2553 
Q 1456 2553 1204 2497 
Q 953 2441 691 2322 
L 691 4666 
z
" transform="scale(0.015625)"/>
       </defs>
       <use xlink:href="#DejaVuSans-30"/>
       <use xlink:href="#DejaVuSans-2e" x="63.623047"/>
       <use xlink:href="#DejaVuSans-30" x="95.410156"/>
       <use xlink:href="#DejaVuSans-30" x="159.033203"/>
       <use xlink:href="#DejaVuSans-35" x="222.65625"/>
      </g>
     </g>
    </g>
    <g id="xtick_5">
     <g id="line2d_5">
      <g>
       <use xlink:href="#m95d3f95dd0" x="287.493167" y="118.08" style="fill: #ffffff; stroke: #ffffff; stroke-width: 0.8"/>
      </g>
     </g>
     <g id="text_5">
      <!-- 0.006 -->
      <g style="fill: #ffffff" transform="translate(273.179104 132.678438)scale(0.1 -0.1)">
       <defs>
        <path id="DejaVuSans-36" d="M 2113 2584 
Q 1688 2584 1439 2293 
Q 1191 2003 1191 1497 
Q 1191 994 1439 701 
Q 1688 409 2113 409 
Q 2538 409 2786 701 
Q 3034 994 3034 1497 
Q 3034 2003 2786 2293 
Q 2538 2584 2113 2584 
z
M 3366 4563 
L 3366 3988 
Q 3128 4100 2886 4159 
Q 2644 4219 2406 4219 
Q 1781 4219 1451 3797 
Q 1122 3375 1075 2522 
Q 1259 2794 1537 2939 
Q 1816 3084 2150 3084 
Q 2853 3084 3261 2657 
Q 3669 2231 3669 1497 
Q 3669 778 3244 343 
Q 2819 -91 2113 -91 
Q 1303 -91 875 529 
Q 447 1150 447 2328 
Q 447 3434 972 4092 
Q 1497 4750 2381 4750 
Q 2619 4750 2861 4703 
Q 3103 4656 3366 4563 
z
" transform="scale(0.015625)"/>
       </defs>
       <use xlink:href="#DejaVuSans-30"/>
       <use xlink:href="#DejaVuSans-2e" x="63.623047"/>
       <use xlink:href="#DejaVuSans-30" x="95.410156"/>
       <use xlink:href="#DejaVuSans-30" x="159.033203"/>
       <use xlink:href="#DejaVuSans-36" x="222.65625"/>
      </g>
     </g>
    </g>
    <g id="xtick_6">
     <g id="line2d_6">
      <g>
       <use xlink:href="#m95d3f95dd0" x="344.673028" y="118.08" style="fill: #ffffff; stroke: #ffffff; stroke-width: 0.8"/>
      </g>
     </g>
     <g id="text_6">
      <!-- 0.008 -->
      <g style="fill: #ffffff" transform="translate(330.358965 132.678438)scale(0.1 -0.1)">
       <defs>
        <path id="DejaVuSans-38" d="M 2034 2216 
Q 1584 2216 1326 1975 
Q 1069 1734 1069 1313 
Q 1069 891 1326 650 
Q 1584 409 2034 409 
Q 2484 409 2743 651 
Q 3003 894 3003 1313 
Q 3003 1734 2745 1975 
Q 2488 2216 2034 2216 
z
M 1403 2484 
Q 997 2584 770 2862 
Q 544 3141 544 3541 
Q 544 4100 942 4425 
Q 1341 4750 2034 4750 
Q 2731 4750 3128 4425 
Q 3525 4100 3525 3541 
Q 3525 3141 3298 2862 
Q 3072 2584 2669 2484 
Q 3125 2378 3379 2068 
Q 3634 1759 3634 1313 
Q 3634 634 3220 271 
Q 2806 -91 2034 -91 
Q 1263 -91 848 271 
Q 434 634 434 1313 
Q 434 1759 690 2068 
Q 947 2378 1403 2484 
z
M 1172 3481 
Q 1172 3119 1398 2916 
Q 1625 2713 2034 2713 
Q 2441 2713 2670 2916 
Q 2900 3119 2900 3481 
Q 2900 3844 2670 4047 
Q 2441 4250 2034 4250 
Q 1625 4250 1398 4047 
Q 1172 3844 1172 3481 
z
" transform="scale(0.015625)"/>
       </defs>
       <use xlink:href="#DejaVuSans-30"/>
       <use xlink:href="#DejaVuSans-2e" x="63.623047"/>
       <use xlink:href="#DejaVuSans-30" x="95.410156"/>
       <use xlink:href="#DejaVuSans-30" x="159.033203"/>
       <use xlink:href="#DejaVuSans-38" x="222.65625"/>
      </g>
     </g>
    </g>
    <g id="xtick_7">
     <g id="line2d_7">
      <g>
       <use xlink:href="#m95d3f95dd0" x="401.852889" y="118.08" style="fill: #ffffff; stroke: #ffffff; stroke-width: 0.8"/>
      </g>
     </g>
     <g id="text_7">
      <!-- 0.009 -->
      <g style="fill: #ffffff" transform="translate(387.538826 132.678438)scale(0.1 -0.1)">
       <defs>
        <path id="DejaVuSans-39" d="M 703 97 
L 703 672 
Q 941 559 1184 500 
Q 1428 441 1663 441 
Q 2288 441 2617 861 
Q 2947 1281 2994 2138 
Q 2813 1869 2534 1725 
Q 2256 1581 1919 1581 
Q 1219 1581 811 2004 
Q 403 2428 403 3163 
Q 403 3881 828 4315 
Q 1253 4750 1959 4750 
Q 2769 4750 3195 4129 
Q 3622 3509 3622 2328 
Q 3622 1225 3098 567 
Q 2575 -91 1691 -91 
Q 1453 -91 1209 -44 
Q 966 3 703 97 
z
M 1959 2075 
Q 2384 2075 2632 2365 
Q 2881 2656 2881 3163 
Q 2881 3666 2632 3958 
Q 2384 4250 1959 4250 
Q 1534 4250 1286 3958 
Q 1038 3666 1038 3163 
Q 1038 2656 1286 2365 
Q 1534 2075 1959 2075 
z
" transform="scale(0.015625)"/>
       </defs>
       <use xlink:href="#DejaVuSans-30"/>
       <use xlink:href="#DejaVuSans-2e" x="63.623047"/>
       <use xlink:href="#DejaVuSans-30" x="95.410156"/>
       <use xlink:href="#DejaVuSans-30" x="159.033203"/>
       <use xlink:href="#DejaVuSans-39" x="222.65625"/>
      </g>
     </g>
    </g>
    <g id="xtick_8">
     <g id="line2d_8">
      <g>
       <use xlink:href="#m95d3f95dd0" x="459.03275" y="118.08" style="fill: #ffffff; stroke: #ffffff; stroke-width: 0.8"/>
      </g>
     </g>
     <g id="text_8">
      <!-- 0.011 -->
      <g style="fill: #ffffff" transform="translate(444.718688 132.678438)scale(0.1 -0.1)">
       <defs>
        <path id="DejaVuSans-31" d="M 794 531 
L 1825 531 
L 1825 4091 
L 703 3866 
L 703 4441 
L 1819 4666 
L 2450 4666 
L 2450 531 
L 3481 531 
L 3481 0 
L 794 0 
L 794 531 
z
" transform="scale(0.015625)"/>
       </defs>
       <use xlink:href="#DejaVuSans-30"/>
       <use xlink:href="#DejaVuSans-2e" x="63.623047"/>
       <use xlink:href="#DejaVuSans-30" x="95.410156"/>
       <use xlink:href="#DejaVuSans-31" x="159.033203"/>
       <use xlink:href="#DejaVuSans-31" x="222.65625"/>
      </g>
     </g>
    </g>
    <g id="text_9">
     <!-- Time -->
     <g style="fill: #ffffff" transform="translate(249.449219 146.356562)scale(0.1 -0.1)">
      <defs>
       <path id="DejaVuSans-54" d="M -19 4666 
L 3928 4666 
L 3928 4134 
L 2272 4134 
L 2272 0 
L 1638 0 
L 1638 4134 
L -19 4134 
L -19 4666 
z
" transform="scale(0.015625)"/>
       <path id="DejaVuSans-69" d="M 603 3500 
L 1178 3500 
L 1178 0 
L 603 0 
L 603 3500 
z
M 603 4863 
L 1178 4863 
L 1178 4134 
L 603 4134 
L 603 4863 
z
" transform="scale(0.015625)"/>
       <path id="DejaVuSans-6d" d="M 3328 2828 
Q 3544 3216 3844 3400 
Q 4144 3584 4550 3584 
Q 5097 3584 5394 3201 
Q 5691 2819 5691 2113 
L 5691 0 
L 5113 0 
L 5113 2094 
Q 5113 2597 4934 2840 
Q 4756 3084 4391 3084 
Q 3944 3084 3684 2787 
Q 3425 2491 3425 1978 
L 3425 0 
L 2847 0 
L 2847 2094 
Q 2847 2600 2669 2842 
Q 2491 3084 2119 3084 
Q 1678 3084 1418 2786 
Q 1159 2488 1159 1978 
L 1159 0 
L 581 0 
L 581 3500 
L 1159 3500 
L 1159 2956 
Q 1356 3278 1631 3431 
Q 1906 3584 2284 3584 
Q 2666 3584 2933 3390 
Q 3200 3197 3328 2828 
z
" transform="scale(0.015625)"/>
       <path id="DejaVuSans-65" d="M 3597 1894 
L 3597 1613 
L 953 1613 
Q 991 1019 1311 708 
Q 1631 397 2203 397 
Q 2534 397 2845 478 
Q 3156 559 3463 722 
L 3463 178 
Q 3153 47 2828 -22 
Q 2503 -91 2169 -91 
Q 1331 -91 842 396 
Q 353 884 353 1716 
Q 353 2575 817 3079 
Q 1281 3584 2069 3584 
Q 2775 3584 3186 3129 
Q 3597 2675 3597 1894 
z
M 3022 2063 
Q 3016 2534 2758 2815 
Q 2500 3097 2075 3097 
Q 1594 3097 1305 2825 
Q 1016 2553 972 2059 
L 3022 2063 
z
" transform="scale(0.015625)"/>
      </defs>
      <use xlink:href="#DejaVuSans-54"/>
      <use xlink:href="#DejaVuSans-69" x="57.958984"/>
      <use xlink:href="#DejaVuSans-6d" x="85.742188"/>
      <use xlink:href="#DejaVuSans-65" x="183.154297"/>
     </g>
    </g>
   </g>
   <g id="matplotlib.axis_2">
    <g id="ytick_1">
     <g id="line2d_9">
      <defs>
       <path id="mfef8032a0e" d="M 0 0 
L -3.5 0 
" style="stroke: #ffffff; stroke-width: 0.8"/>
      </defs>
      <g>
       <use xlink:href="#mfef8032a0e" x="38.482813" y="113.04" style="fill: #ffffff; stroke: #ffffff; stroke-width: 0.8"/>
      </g>
     </g>
     <g id="text_10">
      <!-- −1.0 -->
      <g style="fill: #ffffff" transform="translate(7.2 116.839219)scale(0.1 -0.1)">
       <defs>
        <path id="DejaVuSans-2212" d="M 678 2272 
L 4684 2272 
L 4684 1741 
L 678 1741 
L 678 2272 
z
" transform="scale(0.015625)"/>
       </defs>
       <use xlink:href="#DejaVuSans-2212"/>
       <use xlink:href="#DejaVuSans-31" x="83.789062"/>
       <use xlink:href="#DejaVuSans-2e" x="147.412109"/>
       <use xlink:href="#DejaVuSans-30" x="179.199219"/>
      </g>
     </g>
    </g>
    <g id="ytick_2">
     <g id="line2d_10">
      <g>
       <use xlink:href="#mfef8032a0e" x="38.482813" y="87.84" style="fill: #ffffff; stroke: #ffffff; stroke-width: 0.8"/>
      </g>
     </g>
     <g id="text_11">
      <!-- −0.5 -->
      <g style="fill: #ffffff" transform="translate(7.2 91.639219)scale(0.1 -0.1)">
       <use xlink:href="#DejaVuSans-2212"/>
       <use xlink:href="#DejaVuSans-30" x="83.789062"/>
       <use xlink:href="#DejaVuSans-2e" x="147.412109"/>
       <use xlink:href="#DejaVuSans-35" x="179.199219"/>
      </g>
     </g>
    </g>
    <g id="ytick_3">
     <g id="line2d_11">
      <g>
       <use xlink:href="#mfef8032a0e" x="38.482813" y="62.64" style="fill: #ffffff; stroke: #ffffff; stroke-width: 0.8"/>
      </g>
     </g>
     <g id="text_12">
      <!-- 0.0 -->
      <g style="fill: #ffffff" transform="translate(15.579688 66.439219)scale(0.1 -0.1)">
       <use xlink:href="#DejaVuSans-30"/>
       <use xlink:href="#DejaVuSans-2e" x="63.623047"/>
       <use xlink:href="#DejaVuSans-30" x="95.410156"/>
      </g>
     </g>
    </g>
    <g id="ytick_4">
     <g id="line2d_12">
      <g>
       <use xlink:href="#mfef8032a0e" x="38.482813" y="37.44" style="fill: #ffffff; stroke: #ffffff; stroke-width: 0.8"/>
      </g>
     </g>
     <g id="text_13">
      <!-- 0.5 -->
      <g style="fill: #ffffff" transform="translate(15.579688 41.239219)scale(0.1 -0.1)">
       <use xlink:href="#DejaVuSans-30"/>
       <use xlink:href="#DejaVuSans-2e" x="63.623047"/>
       <use xlink:href="#DejaVuSans-35" x="95.410156"/>
      </g>
     </g>
    </g>
    <g id="ytick_5">
     <g id="line2d_13">
      <g>
       <use xlink:href="#mfef8032a0e" x="38.482813" y="12.24" style="fill: #ffffff; stroke: #ffffff; stroke-width: 0.8"/>
      </g>
     </g>
     <g id="text_14">
      <!-- 1.0 -->
      <g style="fill: #ffffff" transform="translate(15.579688 16.039219)scale(0.1 -0.1)">
       <use xlink:href="#DejaVuSans-31"/>
       <use xlink:href="#DejaVuSans-2e" x="63.623047"/>
       <use xlink:href="#DejaVuSans-30" x="95.410156"/>
      </g>
     </g>
    </g>
   </g>
   <g id="line2d_14">
    <path d="M 58.773722 62.64 
L 59.567886 62.64 
L 59.567886 61.155508 
L 60.362051 61.155508 
L 60.362051 59.672357 
L 61.156216 59.672357 
L 61.156216 58.191887 
L 61.950381 58.191887 
L 61.950381 56.715434 
L 62.744545 56.715434 
L 62.744545 55.244331 
L 63.53871 55.244331 
L 63.53871 53.779902 
L 64.332875 53.779902 
L 64.332875 52.323466 
L 65.12704 52.323466 
L 65.12704 50.876333 
L 65.921204 50.876333 
L 65.921204 49.439798 
L 66.715369 49.439798 
L 66.715369 48.01515 
L 67.509534 48.01515 
L 67.509534 46.603661 
L 68.303698 46.603661 
L 68.303698 45.206586 
L 69.097863 45.206586 
L 69.097863 43.825167 
L 69.892028 43.825167 
L 69.892028 42.460623 
L 70.686193 42.460623 
L 70.686193 41.114161 
L 71.480357 41.114161 
L 71.480357 39.786964 
L 72.274522 39.786964 
L 72.274522 38.480189 
L 73.068687 38.480189 
L 73.068687 37.194973 
L 73.862852 37.194973 
L 73.862852 35.932426 
L 74.657016 35.932426 
L 74.657016 34.693636 
L 75.451181 34.693636 
L 75.451181 33.479666 
L 76.245346 33.479666 
L 76.245346 32.291537 
L 77.039511 32.291537 
L 77.039511 31.130252 
L 77.833675 31.130252 
L 77.833675 29.996788 
L 78.62784 29.996788 
L 78.62784 28.892075 
L 79.422005 28.892075 
L 79.422005 27.817019 
L 80.21617 27.817019 
L 80.21617 26.7725 
L 81.010334 26.7725 
L 81.010334 25.759343 
L 81.804499 25.759343 
L 81.804499 24.778353 
L 82.598664 24.778353 
L 82.598664 23.830298 
L 83.392829 23.830298 
L 83.392829 22.9159 
L 84.186993 22.9159 
L 84.186993 22.035853 
L 84.981158 22.035853 
L 84.981158 21.190798 
L 85.775323 21.190798 
L 85.775323 20.381359 
L 86.569487 20.381359 
L 86.569487 19.608093 
L 87.363652 19.608093 
L 87.363652 18.871533 
L 88.157817 18.871533 
L 88.157817 18.172172 
L 88.951982 18.172172 
L 88.951982 17.510453 
L 89.746146 17.510453 
L 89.746146 16.886783 
L 90.540311 16.886783 
L 90.540311 16.301514 
L 91.334476 16.301514 
L 91.334476 15.754974 
L 92.128641 15.754974 
L 92.128641 15.247439 
L 92.922805 15.247439 
L 92.922805 14.779131 
L 93.71697 14.779131 
L 93.71697 14.350251 
L 94.511135 14.350251 
L 94.511135 13.960938 
L 95.3053 13.960938 
L 95.3053 13.611294 
L 96.099464 13.611294 
L 96.099464 13.301372 
L 96.893629 13.301372 
L 96.893629 13.031195 
L 97.687794 13.031195 
L 97.687794 12.800731 
L 98.481959 12.800731 
L 98.481959 12.609901 
L 99.276123 12.609901 
L 99.276123 12.458591 
L 100.070288 12.458591 
L 100.070288 12.346645 
L 104.835276 12.36886 
L 104.835276 12.48741 
L 105.629441 12.48741 
L 105.629441 12.643045 
L 106.423606 12.643045 
L 106.423606 12.835272 
L 107.217771 12.835272 
L 107.217771 13.063588 
L 108.011935 13.063588 
L 108.011935 13.327409 
L 108.8061 13.327409 
L 108.8061 13.626155 
L 109.600265 13.626155 
L 109.600265 13.959184 
L 110.39443 13.959184 
L 110.39443 14.325828 
L 111.188594 14.325828 
L 111.188594 14.725388 
L 111.982759 14.725388 
L 111.982759 15.157127 
L 112.776924 15.157127 
L 112.776924 15.620286 
L 113.571089 15.620286 
L 113.571089 16.114054 
L 114.365253 16.114054 
L 114.365253 16.637613 
L 115.159418 16.637613 
L 115.159418 17.19011 
L 115.953583 17.19011 
L 115.953583 17.770654 
L 116.747748 17.770654 
L 116.747748 18.378345 
L 117.541912 18.378345 
L 117.541912 19.012234 
L 118.336077 19.012234 
L 118.336077 19.671382 
L 119.130242 19.671382 
L 119.130242 20.354803 
L 119.924407 20.354803 
L 119.924407 21.061485 
L 120.718571 21.061485 
L 120.718571 21.790414 
L 121.512736 21.790414 
L 121.512736 22.540553 
L 122.306901 22.540553 
L 122.306901 23.310842 
L 123.101065 23.310842 
L 123.101065 24.100208 
L 123.89523 24.100208 
L 123.89523 24.907571 
L 124.689395 24.907571 
L 124.689395 25.731816 
L 125.48356 25.731816 
L 125.48356 26.571846 
L 126.277724 26.571846 
L 126.277724 27.426532 
L 127.071889 27.426532 
L 127.071889 28.294742 
L 127.866054 28.294742 
L 127.866054 29.175345 
L 128.660219 29.175345 
L 128.660219 30.067191 
L 129.454383 30.067191 
L 129.454383 30.96914 
L 130.248548 30.96914 
L 130.248548 31.880036 
L 131.042713 31.880036 
L 131.042713 32.79873 
L 131.836878 32.79873 
L 131.836878 33.724062 
L 132.631042 33.724062 
L 132.631042 34.654896 
L 133.425207 34.654896 
L 133.425207 35.590073 
L 134.219372 35.590073 
L 134.219372 36.528456 
L 135.013537 36.528456 
L 135.013537 37.468902 
L 135.807701 37.468902 
L 135.807701 38.410287 
L 136.601866 38.410287 
L 136.601866 39.351486 
L 137.396031 39.351486 
L 137.396031 40.291394 
L 138.190196 40.291394 
L 138.190196 41.228896 
L 138.98436 41.228896 
L 138.98436 42.16292 
L 139.778525 42.16292 
L 139.778525 43.092385 
L 140.57269 43.092385 
L 140.57269 44.016231 
L 141.366854 44.016231 
L 141.366854 44.933421 
L 142.161019 44.933421 
L 142.161019 45.842928 
L 142.955184 45.842928 
L 142.955184 46.743747 
L 143.749349 46.743747 
L 143.749349 47.634896 
L 144.543513 47.634896 
L 144.543513 48.515407 
L 145.337678 48.515407 
L 145.337678 49.384341 
L 146.131843 49.384341 
L 146.131843 50.240782 
L 146.926008 50.240782 
L 146.926008 51.083834 
L 147.720172 51.083834 
L 147.720172 51.912636 
L 148.514337 51.912636 
L 148.514337 52.726338 
L 149.308502 52.726338 
L 149.308502 53.524133 
L 150.102667 53.524133 
L 150.102667 54.305235 
L 150.896831 54.305235 
L 150.896831 55.06889 
L 151.690996 55.06889 
L 151.690996 55.814367 
L 152.485161 55.814367 
L 152.485161 56.54098 
L 153.279326 56.54098 
L 153.279326 57.248062 
L 154.07349 57.248062 
L 154.07349 57.934979 
L 154.867655 57.934979 
L 154.867655 58.60114 
L 155.66182 58.60114 
L 155.66182 59.245978 
L 156.455985 59.245978 
L 156.455985 59.868961 
L 157.250149 59.868961 
L 157.250149 60.469599 
L 158.044314 60.469599 
L 158.044314 61.047428 
L 158.838479 61.047428 
L 158.838479 61.602024 
L 159.632643 61.602024 
L 159.632643 62.132999 
L 160.426808 62.132999 
L 160.426808 62.64 
L 161.220973 62.64 
L 161.220973 63.122709 
L 162.015138 63.122709 
L 162.015138 63.58085 
L 162.809302 63.58085 
L 162.809302 64.014178 
L 163.603467 64.014178 
L 163.603467 64.422484 
L 164.397632 64.422484 
L 164.397632 64.805601 
L 165.191797 64.805601 
L 165.191797 65.163399 
L 165.985961 65.163399 
L 165.985961 65.495778 
L 166.780126 65.495778 
L 166.780126 65.802681 
L 167.574291 65.802681 
L 167.574291 66.084087 
L 168.368456 66.084087 
L 168.368456 66.340008 
L 169.16262 66.340008 
L 169.16262 66.570496 
L 169.956785 66.570496 
L 169.956785 66.775638 
L 170.75095 66.775638 
L 170.75095 66.955553 
L 171.545115 66.955553 
L 171.545115 67.110399 
L 172.339279 67.110399 
L 172.339279 67.240369 
L 173.927609 67.345688 
L 173.927609 67.426614 
L 180.280927 67.338739 
L 180.280927 67.237717 
L 181.075091 67.237717 
L 181.075091 67.116048 
L 181.869256 67.116048 
L 181.869256 66.974292 
L 182.663421 66.974292 
L 182.663421 66.813032 
L 183.457586 66.813032 
L 183.457586 66.632877 
L 184.25175 66.632877 
L 184.25175 66.434458 
L 185.045915 66.434458 
L 185.045915 66.21843 
L 185.84008 66.21843 
L 185.84008 65.985466 
L 186.634245 65.985466 
L 186.634245 65.736259 
L 187.428409 65.736259 
L 187.428409 65.471526 
L 188.222574 65.471526 
L 188.222574 65.191998 
L 189.016739 65.191998 
L 189.016739 64.898423 
L 189.810904 64.898423 
L 189.810904 64.591563 
L 190.605068 64.591563 
L 190.605068 64.272198 
L 191.399233 64.272198 
L 191.399233 63.941116 
L 192.193398 63.941116 
L 192.193398 63.599122 
L 192.987563 63.599122 
L 192.987563 63.247029 
L 193.781727 63.247029 
L 193.781727 62.885658 
L 194.575892 62.885658 
L 194.575892 62.515841 
L 195.370057 62.515841 
L 195.370057 62.138414 
L 196.164222 62.138414 
L 196.164222 61.75422 
L 196.958386 61.75422 
L 196.958386 61.364107 
L 197.752551 61.364107 
L 197.752551 60.968926 
L 198.546716 60.968926 
L 198.546716 60.569527 
L 199.34088 60.569527 
L 199.34088 60.166761 
L 200.135045 60.166761 
L 200.135045 59.761482 
L 200.92921 59.761482 
L 200.92921 59.354539 
L 201.723375 59.354539 
L 201.723375 58.946775 
L 202.517539 58.946775 
L 202.517539 58.539033 
L 203.311704 58.539033 
L 203.311704 58.132151 
L 204.105869 58.132151 
L 204.105869 57.726953 
L 204.900034 57.726953 
L 204.900034 57.324261 
L 205.694198 57.324261 
L 205.694198 56.924886 
L 206.488363 56.924886 
L 206.488363 56.529628 
L 207.282528 56.529628 
L 207.282528 56.139273 
L 208.076693 56.139273 
L 208.076693 55.754598 
L 208.870857 55.754598 
L 208.870857 55.376366 
L 209.665022 55.376366 
L 209.665022 55.005319 
L 210.459187 55.005319 
L 210.459187 54.642191 
L 211.253352 54.642191 
L 211.253352 54.287693 
L 212.047516 54.287693 
L 212.047516 53.942518 
L 212.841681 53.942518 
L 212.841681 53.607342 
L 213.635846 53.607342 
L 213.635846 53.282823 
L 214.430011 53.282823 
L 214.430011 52.969591 
L 215.224175 52.969591 
L 215.224175 52.668261 
L 216.01834 52.668261 
L 216.01834 52.379421 
L 216.812505 52.379421 
L 216.812505 52.103638 
L 217.606669 52.103638 
L 217.606669 51.841452 
L 218.400834 51.841452 
L 218.400834 51.59338 
L 219.194999 51.59338 
L 219.194999 51.359913 
L 219.989164 51.359913 
L 219.989164 51.141514 
L 220.783328 51.141514 
L 220.783328 50.938621 
L 221.577493 50.938621 
L 221.577493 50.751646 
L 222.371658 50.751646 
L 222.371658 50.580966 
L 223.165823 50.580966 
L 223.165823 50.426935 
L 223.959987 50.426935 
L 223.959987 50.289878 
L 224.754152 50.289878 
L 224.754152 50.170089 
L 226.342482 50.067832 
L 226.342482 49.983342 
L 227.930811 49.916819 
L 227.930811 49.868445 
L 233.489964 49.965008 
L 233.489964 50.045894 
L 235.078294 50.145196 
L 235.078294 50.262811 
L 235.872458 50.262811 
L 235.872458 50.398605 
L 236.666623 50.398605 
L 236.666623 50.552413 
L 237.460788 50.552413 
L 237.460788 50.724042 
L 238.254953 50.724042 
L 238.254953 50.913268 
L 239.049117 50.913268 
L 239.049117 51.11984 
L 239.843282 51.11984 
L 239.843282 51.343477 
L 240.637447 51.343477 
L 240.637447 51.583872 
L 241.431612 51.583872 
L 241.431612 51.840686 
L 242.225776 51.840686 
L 242.225776 52.113561 
L 243.019941 52.113561 
L 243.019941 52.402106 
L 243.814106 52.402106 
L 243.814106 52.705909 
L 244.608271 52.705909 
L 244.608271 53.024533 
L 245.402435 53.024533 
L 245.402435 53.357513 
L 246.1966 53.357513 
L 246.1966 53.704364 
L 246.990765 53.704364 
L 246.990765 54.06458 
L 247.78493 54.06458 
L 247.78493 54.43763 
L 248.579094 54.43763 
L 248.579094 54.822965 
L 249.373259 54.822965 
L 249.373259 55.220015 
L 250.167424 55.220015 
L 250.167424 55.628192 
L 250.961589 55.628192 
L 250.961589 56.046889 
L 251.755753 56.046889 
L 251.755753 56.475483 
L 252.549918 56.475483 
L 252.549918 56.913334 
L 253.344083 56.913334 
L 253.344083 57.359789 
L 254.138247 57.359789 
L 254.138247 57.814179 
L 254.932412 57.814179 
L 254.932412 58.275825 
L 255.726577 58.275825 
L 255.726577 58.744034 
L 256.520742 58.744034 
L 256.520742 59.218104 
L 257.314906 59.218104 
L 257.314906 59.697323 
L 258.109071 59.697323 
L 258.109071 60.18097 
L 258.903236 60.18097 
L 258.903236 60.668319 
L 259.697401 60.668319 
L 259.697401 61.158636 
L 260.491565 61.158636 
L 260.491565 61.651183 
L 261.28573 61.651183 
L 261.28573 62.145219 
L 262.079895 62.145219 
L 262.079895 62.64 
L 262.87406 62.64 
L 262.87406 63.134781 
L 263.668224 63.134781 
L 263.668224 63.628817 
L 264.462389 63.628817 
L 264.462389 64.121364 
L 265.256554 64.121364 
L 265.256554 64.611681 
L 266.050719 64.611681 
L 266.050719 65.09903 
L 266.844883 65.09903 
L 266.844883 65.582677 
L 267.639048 65.582677 
L 267.639048 66.061896 
L 268.433213 66.061896 
L 268.433213 66.535966 
L 269.227378 66.535966 
L 269.227378 67.004175 
L 270.021542 67.004175 
L 270.021542 67.465821 
L 270.815707 67.465821 
L 270.815707 67.920211 
L 271.609872 67.920211 
L 271.609872 68.366666 
L 272.404036 68.366666 
L 272.404036 68.804517 
L 273.198201 68.804517 
L 273.198201 69.233111 
L 273.992366 69.233111 
L 273.992366 69.651808 
L 274.786531 69.651808 
L 274.786531 70.059985 
L 275.580695 70.059985 
L 275.580695 70.457035 
L 276.37486 70.457035 
L 276.37486 70.84237 
L 277.169025 70.84237 
L 277.169025 71.21542 
L 277.96319 71.21542 
L 277.96319 71.575636 
L 278.757354 71.575636 
L 278.757354 71.922487 
L 279.551519 71.922487 
L 279.551519 72.255467 
L 280.345684 72.255467 
L 280.345684 72.574091 
L 281.139849 72.574091 
L 281.139849 72.877894 
L 281.934013 72.877894 
L 281.934013 73.166439 
L 282.728178 73.166439 
L 282.728178 73.439314 
L 283.522343 73.439314 
L 283.522343 73.696128 
L 284.316508 73.696128 
L 284.316508 73.936523 
L 285.110672 73.936523 
L 285.110672 74.16016 
L 285.904837 74.16016 
L 285.904837 74.366732 
L 286.699002 74.366732 
L 286.699002 74.555958 
L 287.493167 74.555958 
L 287.493167 74.727587 
L 288.287331 74.727587 
L 288.287331 74.881395 
L 289.081496 74.881395 
L 289.081496 75.017189 
L 289.875661 75.017189 
L 289.875661 75.134804 
L 291.46399 75.234106 
L 291.46399 75.314992 
L 293.846484 75.421245 
L 293.846484 75.446557 
L 297.817308 75.363181 
L 297.817308 75.296658 
L 299.405638 75.212168 
L 299.405638 75.109911 
L 300.199802 75.109911 
L 300.199802 74.990122 
L 300.993967 74.990122 
L 300.993967 74.853065 
L 301.788132 74.853065 
L 301.788132 74.699034 
L 302.582297 74.699034 
L 302.582297 74.528354 
L 303.376461 74.528354 
L 303.376461 74.341379 
L 304.170626 74.341379 
L 304.170626 74.138486 
L 304.964791 74.138486 
L 304.964791 73.920087 
L 305.758956 73.920087 
L 305.758956 73.68662 
L 306.55312 73.68662 
L 306.55312 73.438548 
L 307.347285 73.438548 
L 307.347285 73.176362 
L 308.14145 73.176362 
L 308.14145 72.900579 
L 308.935614 72.900579 
L 308.935614 72.611739 
L 309.729779 72.611739 
L 309.729779 72.310409 
L 310.523944 72.310409 
L 310.523944 71.997177 
L 311.318109 71.997177 
L 311.318109 71.672658 
L 312.112273 71.672658 
L 312.112273 71.337482 
L 312.906438 71.337482 
L 312.906438 70.992307 
L 313.700603 70.992307 
L 313.700603 70.637809 
L 314.494768 70.637809 
L 314.494768 70.274681 
L 315.288932 70.274681 
L 315.288932 69.903634 
L 316.083097 69.903634 
L 316.083097 69.525402 
L 316.877262 69.525402 
L 316.877262 69.140727 
L 317.671427 69.140727 
L 317.671427 68.750372 
L 318.465591 68.750372 
L 318.465591 68.355114 
L 319.259756 68.355114 
L 319.259756 67.955739 
L 320.053921 67.955739 
L 320.053921 67.553047 
L 320.848086 67.553047 
L 320.848086 67.147849 
L 321.64225 67.147849 
L 321.64225 66.740967 
L 322.436415 66.740967 
L 322.436415 66.333225 
L 323.23058 66.333225 
L 323.23058 65.925461 
L 324.024745 65.925461 
L 324.024745 65.518518 
L 324.818909 65.518518 
L 324.818909 65.113239 
L 325.613074 65.113239 
L 325.613074 64.710473 
L 326.407239 64.710473 
L 326.407239 64.311074 
L 327.201403 64.311074 
L 327.201403 63.915893 
L 327.995568 63.915893 
L 327.995568 63.52578 
L 328.789733 63.52578 
L 328.789733 63.141586 
L 329.583898 63.141586 
L 329.583898 62.764159 
L 330.378062 62.764159 
L 330.378062 62.394342 
L 331.172227 62.394342 
L 331.172227 62.032971 
L 331.966392 62.032971 
L 331.966392 61.680878 
L 332.760557 61.680878 
L 332.760557 61.338884 
L 333.554721 61.338884 
L 333.554721 61.007802 
L 334.348886 61.007802 
L 334.348886 60.688437 
L 335.143051 60.688437 
L 335.143051 60.381577 
L 335.937216 60.381577 
L 335.937216 60.088002 
L 336.73138 60.088002 
L 336.73138 59.808474 
L 337.525545 59.808474 
L 337.525545 59.543741 
L 338.31971 59.543741 
L 338.31971 59.294534 
L 339.113875 59.294534 
L 339.113875 59.06157 
L 339.908039 59.06157 
L 339.908039 58.845542 
L 340.702204 58.845542 
L 340.702204 58.647123 
L 341.496369 58.647123 
L 341.496369 58.466968 
L 342.290534 58.466968 
L 342.290534 58.305708 
L 343.084698 58.305708 
L 343.084698 58.163952 
L 343.878863 58.163952 
L 343.878863 58.042283 
L 345.467193 57.941261 
L 345.467193 57.861417 
L 351.82051 57.934312 
L 351.82051 58.039631 
L 352.614675 58.039631 
L 352.614675 58.169601 
L 353.40884 58.169601 
L 353.40884 58.324447 
L 354.203005 58.324447 
L 354.203005 58.504362 
L 354.997169 58.504362 
L 354.997169 58.709504 
L 355.791334 58.709504 
L 355.791334 58.939992 
L 356.585499 58.939992 
L 356.585499 59.195913 
L 357.379664 59.195913 
L 357.379664 59.477319 
L 358.173828 59.477319 
L 358.173828 59.784222 
L 358.967993 59.784222 
L 358.967993 60.116601 
L 359.762158 60.116601 
L 359.762158 60.474399 
L 360.556323 60.474399 
L 360.556323 60.857516 
L 361.350487 60.857516 
L 361.350487 61.265822 
L 362.144652 61.265822 
L 362.144652 61.69915 
L 362.938817 61.69915 
L 362.938817 62.157291 
L 363.732982 62.157291 
L 363.732982 62.64 
L 364.527146 62.64 
L 364.527146 63.147001 
L 365.321311 63.147001 
L 365.321311 63.677976 
L 366.115476 63.677976 
L 366.115476 64.232572 
L 366.90964 64.232572 
L 366.90964 64.810401 
L 367.703805 64.810401 
L 367.703805 65.411039 
L 368.49797 65.411039 
L 368.49797 66.034022 
L 369.292135 66.034022 
L 369.292135 66.67886 
L 370.086299 66.67886 
L 370.086299 67.345021 
L 370.880464 67.345021 
L 370.880464 68.031938 
L 371.674629 68.031938 
L 371.674629 68.73902 
L 372.468794 68.73902 
L 372.468794 69.465633 
L 373.262958 69.465633 
L 373.262958 70.21111 
L 374.057123 70.21111 
L 374.057123 70.974765 
L 374.851288 70.974765 
L 374.851288 71.755867 
L 375.645453 71.755867 
L 375.645453 72.553662 
L 376.439617 72.553662 
L 376.439617 73.367364 
L 377.233782 73.367364 
L 377.233782 74.196166 
L 378.027947 74.196166 
L 378.027947 75.039218 
L 378.822112 75.039218 
L 378.822112 75.895659 
L 379.616276 75.895659 
L 379.616276 76.764593 
L 380.410441 76.764593 
L 380.410441 77.645104 
L 381.204606 77.645104 
L 381.204606 78.536253 
L 381.998771 78.536253 
L 381.998771 79.437072 
L 382.792935 79.437072 
L 382.792935 80.346579 
L 383.5871 80.346579 
L 383.5871 81.263769 
L 384.381265 81.263769 
L 384.381265 82.187615 
L 385.175429 82.187615 
L 385.175429 83.11708 
L 385.969594 83.11708 
L 385.969594 84.051104 
L 386.763759 84.051104 
L 386.763759 84.988606 
L 387.557924 84.988606 
L 387.557924 85.928514 
L 388.352088 85.928514 
L 388.352088 86.869713 
L 389.146253 86.869713 
L 389.146253 87.811098 
L 389.940418 87.811098 
L 389.940418 88.751544 
L 390.734583 88.751544 
L 390.734583 89.689927 
L 391.528747 89.689927 
L 391.528747 90.625104 
L 392.322912 90.625104 
L 392.322912 91.555938 
L 393.117077 91.555938 
L 393.117077 92.48127 
L 393.911242 92.48127 
L 393.911242 93.399964 
L 394.705406 93.399964 
L 394.705406 94.31086 
L 395.499571 94.31086 
L 395.499571 95.212809 
L 396.293736 95.212809 
L 396.293736 96.104655 
L 397.087901 96.104655 
L 397.087901 96.985258 
L 397.882065 96.985258 
L 397.882065 97.853468 
L 398.67623 97.853468 
L 398.67623 98.708154 
L 399.470395 98.708154 
L 399.470395 99.548184 
L 400.26456 99.548184 
L 400.26456 100.372429 
L 401.058724 100.372429 
L 401.058724 101.179792 
L 401.852889 101.179792 
L 401.852889 101.969158 
L 402.647054 101.969158 
L 402.647054 102.739447 
L 403.441218 102.739447 
L 403.441218 103.489586 
L 404.235383 103.489586 
L 404.235383 104.218515 
L 405.029548 104.218515 
L 405.029548 104.925197 
L 405.823713 104.925197 
L 405.823713 105.608618 
L 406.617877 105.608618 
L 406.617877 106.267766 
L 407.412042 106.267766 
L 407.412042 106.901655 
L 408.206207 106.901655 
L 408.206207 107.509346 
L 409.000372 107.509346 
L 409.000372 108.08989 
L 409.794536 108.08989 
L 409.794536 108.642387 
L 410.588701 108.642387 
L 410.588701 109.165946 
L 411.382866 109.165946 
L 411.382866 109.659714 
L 412.177031 109.659714 
L 412.177031 110.122873 
L 412.971195 110.122873 
L 412.971195 110.554612 
L 413.76536 110.554612 
L 413.76536 110.954172 
L 414.559525 110.954172 
L 414.559525 111.320816 
L 415.35369 111.320816 
L 415.35369 111.653845 
L 416.147854 111.653845 
L 416.147854 111.952591 
L 416.942019 111.952591 
L 416.942019 112.216412 
L 417.736184 112.216412 
L 417.736184 112.444728 
L 418.530349 112.444728 
L 418.530349 112.636955 
L 419.324513 112.636955 
L 419.324513 112.79259 
L 420.118678 112.79259 
L 420.118678 112.91114 
L 421.707007 112.992157 
L 421.707007 113.035233 
L 424.883666 112.933355 
L 424.883666 112.821409 
L 425.677831 112.821409 
L 425.677831 112.670099 
L 426.471996 112.670099 
L 426.471996 112.479269 
L 427.266161 112.479269 
L 427.266161 112.248805 
L 428.060325 112.248805 
L 428.060325 111.978628 
L 428.85449 111.978628 
L 428.85449 111.668706 
L 429.648655 111.668706 
L 429.648655 111.319062 
L 430.44282 111.319062 
L 430.44282 110.929749 
L 431.236984 110.929749 
L 431.236984 110.500869 
L 432.031149 110.500869 
L 432.031149 110.032561 
L 432.825314 110.032561 
L 432.825314 109.525026 
L 433.619479 109.525026 
L 433.619479 108.978486 
L 434.413643 108.978486 
L 434.413643 108.393217 
L 435.207808 108.393217 
L 435.207808 107.769547 
L 436.001973 107.769547 
L 436.001973 107.107828 
L 436.796138 107.107828 
L 436.796138 106.408467 
L 437.590302 106.408467 
L 437.590302 105.671907 
L 438.384467 105.671907 
L 438.384467 104.898641 
L 439.178632 104.898641 
L 439.178632 104.089202 
L 439.972796 104.089202 
L 439.972796 103.244147 
L 440.766961 103.244147 
L 440.766961 102.3641 
L 441.561126 102.3641 
L 441.561126 101.449702 
L 442.355291 101.449702 
L 442.355291 100.501647 
L 443.149455 100.501647 
L 443.149455 99.520657 
L 443.94362 99.520657 
L 443.94362 98.5075 
L 444.737785 98.5075 
L 444.737785 97.462981 
L 445.53195 97.462981 
L 445.53195 96.387925 
L 446.326114 96.387925 
L 446.326114 95.283212 
L 447.120279 95.283212 
L 447.120279 94.149748 
L 447.914444 94.149748 
L 447.914444 92.988463 
L 448.708609 92.988463 
L 448.708609 91.800334 
L 449.502773 91.800334 
L 449.502773 90.586364 
L 450.296938 90.586364 
L 450.296938 89.347574 
L 451.091103 89.347574 
L 451.091103 88.085027 
L 451.885268 88.085027 
L 451.885268 86.799811 
L 452.679432 86.799811 
L 452.679432 85.493036 
L 453.473597 85.493036 
L 453.473597 84.165839 
L 454.267762 84.165839 
L 454.267762 82.819377 
L 455.061927 82.819377 
L 455.061927 81.454833 
L 455.856091 81.454833 
L 455.856091 80.073414 
L 456.650256 80.073414 
L 456.650256 78.676339 
L 457.444421 78.676339 
L 457.444421 77.26485 
L 458.238585 77.26485 
L 458.238585 75.840202 
L 459.03275 75.840202 
L 459.03275 74.403667 
L 459.826915 74.403667 
L 459.826915 72.956534 
L 460.62108 72.956534 
L 460.62108 71.500098 
L 461.415244 71.500098 
L 461.415244 70.035669 
L 462.209409 70.035669 
L 462.209409 68.564566 
L 463.003574 68.564566 
L 463.003574 67.088113 
L 463.797739 67.088113 
L 463.797739 65.607643 
L 464.591903 65.607643 
L 464.591903 64.124492 
L 464.591903 64.124492 
" clip-path="url(#pf6dffbbc67)" style="fill: none; stroke: #1f77b4; stroke-width: 1.5; stroke-linecap: square"/>
   </g>
   <g id="patch_3">
    <path d="M 38.482813 118.08 
L 38.482813 7.2 
" style="fill: none; stroke: #000000; stroke-width: 0.8; stroke-linejoin: miter; stroke-linecap: square"/>
   </g>
   <g id="patch_4">
    <path d="M 484.882812 118.08 
L 484.882812 7.2 
" style="fill: none; stroke: #000000; stroke-width: 0.8; stroke-linejoin: miter; stroke-linecap: square"/>
   </g>
   <g id="patch_5">
    <path d="M 38.482813 118.08 
L 484.882812 118.08 
" style="fill: none; stroke: #000000; stroke-width: 0.8; stroke-linejoin: miter; stroke-linecap: square"/>
   </g>
   <g id="patch_6">
    <path d="M 38.482813 7.2 
L 484.882812 7.2 
" style="fill: none; stroke: #000000; stroke-width: 0.8; stroke-linejoin: miter; stroke-linecap: square"/>
   </g>
  </g>
 </g>
 <defs>
  <clipPath id="pf6dffbbc67">
   <rect x="38.482813" y="7.2" width="446.4" height="110.88"/>
  </clipPath>
 </defs>
</svg>
