<?xml version="1.0" encoding="utf-8" standalone="no"?>
<!DOCTYPE svg PUBLIC "-//W3C//DTD SVG 1.1//EN"
  "http://www.w3.org/Graphics/SVG/1.1/DTD/svg11.dtd">
<svg xmlns:xlink="http://www.w3.org/1999/xlink" width="492.082812pt" height="155.63625pt" viewBox="0 0 492.082812 155.63625" xmlns="http://www.w3.org/2000/svg" version="1.1">
 <metadata>
  <rdf:RDF xmlns:dc="http://purl.org/dc/elements/1.1/" xmlns:cc="http://creativecommons.org/ns#" xmlns:rdf="http://www.w3.org/1999/02/22-rdf-syntax-ns#">
   <cc:Work>
    <dc:type rdf:resource="http://purl.org/dc/dcmitype/StillImage"/>
    <dc:date>2022-08-29T14:58:39.253823</dc:date>
    <dc:format>image/svg+xml</dc:format>
    <dc:creator>
     <cc:Agent>
      <dc:title>Matplotlib v3.5.2, https://matplotlib.org/</dc:title>
     </cc:Agent>
    </dc:creator>
   </cc:Work>
  </rdf:RDF>
 </metadata>
 <defs>
  <style type="text/css">*{stroke-linejoin: round; stroke-linecap: butt}</style>
 </defs>
 <g id="figure_1">
  <g id="patch_1">
   <path d="M 0 155.63625 
L 492.082812 155.63625 
L 492.082812 0 
L 0 0 
L 0 155.63625 
z
" style="fill: none; opacity: 0"/>
  </g>
  <g id="axes_1">
   <g id="patch_2">
    <path d="M 38.482813 118.08 
L 484.882812 118.08 
L 484.882812 7.2 
L 38.482813 7.2 
z
" style="fill: #ffffff"/>
   </g>
   <g id="matplotlib.axis_1">
    <g id="xtick_1">
     <g id="line2d_1">
      <defs>
       <path id="m8a390835c7" d="M 0 0 
L 0 3.5 
" style="stroke: #ffffff; stroke-width: 0.8"/>
      </defs>
      <g>
       <use xlink:href="#m8a390835c7" x="58.773722" y="118.08" style="fill: #ffffff; stroke: #ffffff; stroke-width: 0.8"/>
      </g>
     </g>
     <g id="text_1">
      <!-- 0.000 -->
      <g style="fill: #ffffff" transform="translate(44.459659 132.678438)scale(0.1 -0.1)">
       <defs>
        <path id="DejaVuSans-30" d="M 2034 4250 
Q 1547 4250 1301 3770 
Q 1056 3291 1056 2328 
Q 1056 1369 1301 889 
Q 1547 409 2034 409 
Q 2525 409 2770 889 
Q 3016 1369 3016 2328 
Q 3016 3291 2770 3770 
Q 2525 4250 2034 4250 
z
M 2034 4750 
Q 2819 4750 3233 4129 
Q 3647 3509 3647 2328 
Q 3647 1150 3233 529 
Q 2819 -91 2034 -91 
Q 1250 -91 836 529 
Q 422 1150 422 2328 
Q 422 3509 836 4129 
Q 1250 4750 2034 4750 
z
" transform="scale(0.015625)"/>
        <path id="DejaVuSans-2e" d="M 684 794 
L 1344 794 
L 1344 0 
L 684 0 
L 684 794 
z
" transform="scale(0.015625)"/>
       </defs>
       <use xlink:href="#DejaVuSans-30"/>
       <use xlink:href="#DejaVuSans-2e" x="63.623047"/>
       <use xlink:href="#DejaVuSans-30" x="95.410156"/>
       <use xlink:href="#DejaVuSans-30" x="159.033203"/>
       <use xlink:href="#DejaVuSans-30" x="222.65625"/>
      </g>
     </g>
    </g>
    <g id="xtick_2">
     <g id="line2d_2">
      <g>
       <use xlink:href="#m8a390835c7" x="135.463772" y="118.08" style="fill: #ffffff; stroke: #ffffff; stroke-width: 0.8"/>
      </g>
     </g>
     <g id="text_2">
      <!-- 0.001 -->
      <g style="fill: #ffffff" transform="translate(121.149709 132.678438)scale(0.1 -0.1)">
       <defs>
        <path id="DejaVuSans-31" d="M 794 531 
L 1825 531 
L 1825 4091 
L 703 3866 
L 703 4441 
L 1819 4666 
L 2450 4666 
L 2450 531 
L 3481 531 
L 3481 0 
L 794 0 
L 794 531 
z
" transform="scale(0.015625)"/>
       </defs>
       <use xlink:href="#DejaVuSans-30"/>
       <use xlink:href="#DejaVuSans-2e" x="63.623047"/>
       <use xlink:href="#DejaVuSans-30" x="95.410156"/>
       <use xlink:href="#DejaVuSans-30" x="159.033203"/>
       <use xlink:href="#DejaVuSans-31" x="222.65625"/>
      </g>
     </g>
    </g>
    <g id="xtick_3">
     <g id="line2d_3">
      <g>
       <use xlink:href="#m8a390835c7" x="212.153822" y="118.08" style="fill: #ffffff; stroke: #ffffff; stroke-width: 0.8"/>
      </g>
     </g>
     <g id="text_3">
      <!-- 0.001 -->
      <g style="fill: #ffffff" transform="translate(197.839759 132.678438)scale(0.1 -0.1)">
       <use xlink:href="#DejaVuSans-30"/>
       <use xlink:href="#DejaVuSans-2e" x="63.623047"/>
       <use xlink:href="#DejaVuSans-30" x="95.410156"/>
       <use xlink:href="#DejaVuSans-30" x="159.033203"/>
       <use xlink:href="#DejaVuSans-31" x="222.65625"/>
      </g>
     </g>
    </g>
    <g id="xtick_4">
     <g id="line2d_4">
      <g>
       <use xlink:href="#m8a390835c7" x="288.843872" y="118.08" style="fill: #ffffff; stroke: #ffffff; stroke-width: 0.8"/>
      </g>
     </g>
     <g id="text_4">
      <!-- 0.002 -->
      <g style="fill: #ffffff" transform="translate(274.529809 132.678438)scale(0.1 -0.1)">
       <defs>
        <path id="DejaVuSans-32" d="M 1228 531 
L 3431 531 
L 3431 0 
L 469 0 
L 469 531 
Q 828 903 1448 1529 
Q 2069 2156 2228 2338 
Q 2531 2678 2651 2914 
Q 2772 3150 2772 3378 
Q 2772 3750 2511 3984 
Q 2250 4219 1831 4219 
Q 1534 4219 1204 4116 
Q 875 4013 500 3803 
L 500 4441 
Q 881 4594 1212 4672 
Q 1544 4750 1819 4750 
Q 2544 4750 2975 4387 
Q 3406 4025 3406 3419 
Q 3406 3131 3298 2873 
Q 3191 2616 2906 2266 
Q 2828 2175 2409 1742 
Q 1991 1309 1228 531 
z
" transform="scale(0.015625)"/>
       </defs>
       <use xlink:href="#DejaVuSans-30"/>
       <use xlink:href="#DejaVuSans-2e" x="63.623047"/>
       <use xlink:href="#DejaVuSans-30" x="95.410156"/>
       <use xlink:href="#DejaVuSans-30" x="159.033203"/>
       <use xlink:href="#DejaVuSans-32" x="222.65625"/>
      </g>
     </g>
    </g>
    <g id="xtick_5">
     <g id="line2d_5">
      <g>
       <use xlink:href="#m8a390835c7" x="365.533922" y="118.08" style="fill: #ffffff; stroke: #ffffff; stroke-width: 0.8"/>
      </g>
     </g>
     <g id="text_5">
      <!-- 0.002 -->
      <g style="fill: #ffffff" transform="translate(351.21986 132.678438)scale(0.1 -0.1)">
       <use xlink:href="#DejaVuSans-30"/>
       <use xlink:href="#DejaVuSans-2e" x="63.623047"/>
       <use xlink:href="#DejaVuSans-30" x="95.410156"/>
       <use xlink:href="#DejaVuSans-30" x="159.033203"/>
       <use xlink:href="#DejaVuSans-32" x="222.65625"/>
      </g>
     </g>
    </g>
    <g id="xtick_6">
     <g id="line2d_6">
      <g>
       <use xlink:href="#m8a390835c7" x="442.223972" y="118.08" style="fill: #ffffff; stroke: #ffffff; stroke-width: 0.8"/>
      </g>
     </g>
     <g id="text_6">
      <!-- 0.003 -->
      <g style="fill: #ffffff" transform="translate(427.90991 132.678438)scale(0.1 -0.1)">
       <defs>
        <path id="DejaVuSans-33" d="M 2597 2516 
Q 3050 2419 3304 2112 
Q 3559 1806 3559 1356 
Q 3559 666 3084 287 
Q 2609 -91 1734 -91 
Q 1441 -91 1130 -33 
Q 819 25 488 141 
L 488 750 
Q 750 597 1062 519 
Q 1375 441 1716 441 
Q 2309 441 2620 675 
Q 2931 909 2931 1356 
Q 2931 1769 2642 2001 
Q 2353 2234 1838 2234 
L 1294 2234 
L 1294 2753 
L 1863 2753 
Q 2328 2753 2575 2939 
Q 2822 3125 2822 3475 
Q 2822 3834 2567 4026 
Q 2313 4219 1838 4219 
Q 1578 4219 1281 4162 
Q 984 4106 628 3988 
L 628 4550 
Q 988 4650 1302 4700 
Q 1616 4750 1894 4750 
Q 2613 4750 3031 4423 
Q 3450 4097 3450 3541 
Q 3450 3153 3228 2886 
Q 3006 2619 2597 2516 
z
" transform="scale(0.015625)"/>
       </defs>
       <use xlink:href="#DejaVuSans-30"/>
       <use xlink:href="#DejaVuSans-2e" x="63.623047"/>
       <use xlink:href="#DejaVuSans-30" x="95.410156"/>
       <use xlink:href="#DejaVuSans-30" x="159.033203"/>
       <use xlink:href="#DejaVuSans-33" x="222.65625"/>
      </g>
     </g>
    </g>
    <g id="text_7">
     <!-- Time -->
     <g style="fill: #ffffff" transform="translate(249.449219 146.356562)scale(0.1 -0.1)">
      <defs>
       <path id="DejaVuSans-54" d="M -19 4666 
L 3928 4666 
L 3928 4134 
L 2272 4134 
L 2272 0 
L 1638 0 
L 1638 4134 
L -19 4134 
L -19 4666 
z
" transform="scale(0.015625)"/>
       <path id="DejaVuSans-69" d="M 603 3500 
L 1178 3500 
L 1178 0 
L 603 0 
L 603 3500 
z
M 603 4863 
L 1178 4863 
L 1178 4134 
L 603 4134 
L 603 4863 
z
" transform="scale(0.015625)"/>
       <path id="DejaVuSans-6d" d="M 3328 2828 
Q 3544 3216 3844 3400 
Q 4144 3584 4550 3584 
Q 5097 3584 5394 3201 
Q 5691 2819 5691 2113 
L 5691 0 
L 5113 0 
L 5113 2094 
Q 5113 2597 4934 2840 
Q 4756 3084 4391 3084 
Q 3944 3084 3684 2787 
Q 3425 2491 3425 1978 
L 3425 0 
L 2847 0 
L 2847 2094 
Q 2847 2600 2669 2842 
Q 2491 3084 2119 3084 
Q 1678 3084 1418 2786 
Q 1159 2488 1159 1978 
L 1159 0 
L 581 0 
L 581 3500 
L 1159 3500 
L 1159 2956 
Q 1356 3278 1631 3431 
Q 1906 3584 2284 3584 
Q 2666 3584 2933 3390 
Q 3200 3197 3328 2828 
z
" transform="scale(0.015625)"/>
       <path id="DejaVuSans-65" d="M 3597 1894 
L 3597 1613 
L 953 1613 
Q 991 1019 1311 708 
Q 1631 397 2203 397 
Q 2534 397 2845 478 
Q 3156 559 3463 722 
L 3463 178 
Q 3153 47 2828 -22 
Q 2503 -91 2169 -91 
Q 1331 -91 842 396 
Q 353 884 353 1716 
Q 353 2575 817 3079 
Q 1281 3584 2069 3584 
Q 2775 3584 3186 3129 
Q 3597 2675 3597 1894 
z
M 3022 2063 
Q 3016 2534 2758 2815 
Q 2500 3097 2075 3097 
Q 1594 3097 1305 2825 
Q 1016 2553 972 2059 
L 3022 2063 
z
" transform="scale(0.015625)"/>
      </defs>
      <use xlink:href="#DejaVuSans-54"/>
      <use xlink:href="#DejaVuSans-69" x="57.958984"/>
      <use xlink:href="#DejaVuSans-6d" x="85.742188"/>
      <use xlink:href="#DejaVuSans-65" x="183.154297"/>
     </g>
    </g>
   </g>
   <g id="matplotlib.axis_2">
    <g id="ytick_1">
     <g id="line2d_7">
      <defs>
       <path id="m3e51dcbf3b" d="M 0 0 
L -3.5 0 
" style="stroke: #ffffff; stroke-width: 0.8"/>
      </defs>
      <g>
       <use xlink:href="#m3e51dcbf3b" x="38.482813" y="113.04" style="fill: #ffffff; stroke: #ffffff; stroke-width: 0.8"/>
      </g>
     </g>
     <g id="text_8">
      <!-- −1.0 -->
      <g style="fill: #ffffff" transform="translate(7.2 116.839219)scale(0.1 -0.1)">
       <defs>
        <path id="DejaVuSans-2212" d="M 678 2272 
L 4684 2272 
L 4684 1741 
L 678 1741 
L 678 2272 
z
" transform="scale(0.015625)"/>
       </defs>
       <use xlink:href="#DejaVuSans-2212"/>
       <use xlink:href="#DejaVuSans-31" x="83.789062"/>
       <use xlink:href="#DejaVuSans-2e" x="147.412109"/>
       <use xlink:href="#DejaVuSans-30" x="179.199219"/>
      </g>
     </g>
    </g>
    <g id="ytick_2">
     <g id="line2d_8">
      <g>
       <use xlink:href="#m3e51dcbf3b" x="38.482813" y="87.84" style="fill: #ffffff; stroke: #ffffff; stroke-width: 0.8"/>
      </g>
     </g>
     <g id="text_9">
      <!-- −0.5 -->
      <g style="fill: #ffffff" transform="translate(7.2 91.639219)scale(0.1 -0.1)">
       <defs>
        <path id="DejaVuSans-35" d="M 691 4666 
L 3169 4666 
L 3169 4134 
L 1269 4134 
L 1269 2991 
Q 1406 3038 1543 3061 
Q 1681 3084 1819 3084 
Q 2600 3084 3056 2656 
Q 3513 2228 3513 1497 
Q 3513 744 3044 326 
Q 2575 -91 1722 -91 
Q 1428 -91 1123 -41 
Q 819 9 494 109 
L 494 744 
Q 775 591 1075 516 
Q 1375 441 1709 441 
Q 2250 441 2565 725 
Q 2881 1009 2881 1497 
Q 2881 1984 2565 2268 
Q 2250 2553 1709 2553 
Q 1456 2553 1204 2497 
Q 953 2441 691 2322 
L 691 4666 
z
" transform="scale(0.015625)"/>
       </defs>
       <use xlink:href="#DejaVuSans-2212"/>
       <use xlink:href="#DejaVuSans-30" x="83.789062"/>
       <use xlink:href="#DejaVuSans-2e" x="147.412109"/>
       <use xlink:href="#DejaVuSans-35" x="179.199219"/>
      </g>
     </g>
    </g>
    <g id="ytick_3">
     <g id="line2d_9">
      <g>
       <use xlink:href="#m3e51dcbf3b" x="38.482813" y="62.64" style="fill: #ffffff; stroke: #ffffff; stroke-width: 0.8"/>
      </g>
     </g>
     <g id="text_10">
      <!-- 0.0 -->
      <g style="fill: #ffffff" transform="translate(15.579688 66.439219)scale(0.1 -0.1)">
       <use xlink:href="#DejaVuSans-30"/>
       <use xlink:href="#DejaVuSans-2e" x="63.623047"/>
       <use xlink:href="#DejaVuSans-30" x="95.410156"/>
      </g>
     </g>
    </g>
    <g id="ytick_4">
     <g id="line2d_10">
      <g>
       <use xlink:href="#m3e51dcbf3b" x="38.482813" y="37.44" style="fill: #ffffff; stroke: #ffffff; stroke-width: 0.8"/>
      </g>
     </g>
     <g id="text_11">
      <!-- 0.5 -->
      <g style="fill: #ffffff" transform="translate(15.579688 41.239219)scale(0.1 -0.1)">
       <use xlink:href="#DejaVuSans-30"/>
       <use xlink:href="#DejaVuSans-2e" x="63.623047"/>
       <use xlink:href="#DejaVuSans-35" x="95.410156"/>
      </g>
     </g>
    </g>
    <g id="ytick_5">
     <g id="line2d_11">
      <g>
       <use xlink:href="#m3e51dcbf3b" x="38.482813" y="12.24" style="fill: #ffffff; stroke: #ffffff; stroke-width: 0.8"/>
      </g>
     </g>
     <g id="text_12">
      <!-- 1.0 -->
      <g style="fill: #ffffff" transform="translate(15.579688 16.039219)scale(0.1 -0.1)">
       <use xlink:href="#DejaVuSans-31"/>
       <use xlink:href="#DejaVuSans-2e" x="63.623047"/>
       <use xlink:href="#DejaVuSans-30" x="95.410156"/>
      </g>
     </g>
    </g>
   </g>
   <g id="line2d_12">
    <path d="M 58.773722 62.017426 
L 61.96914 62.017426 
L 61.96914 50.349263 
L 65.164559 50.349263 
L 65.164559 46.465688 
L 68.359978 46.465688 
L 68.359978 53.610262 
L 71.555397 53.610262 
L 71.555397 33.57476 
L 74.750815 33.57476 
L 74.750815 57.471452 
L 77.946234 57.471452 
L 77.946234 24.630277 
L 81.141653 24.630277 
L 81.141653 61.247389 
L 84.337072 61.247389 
L 84.337072 20.166832 
L 87.53249 20.166832 
L 87.53249 64.318222 
L 90.727909 64.318222 
L 90.727909 19.908653 
L 93.923328 19.908653 
L 93.923328 66.254627 
L 97.118747 66.254627 
L 97.118747 22.881593 
L 100.314165 22.881593 
L 100.314165 66.896311 
L 103.509584 66.896311 
L 103.509584 27.666729 
L 106.705003 27.666729 
L 106.705003 66.367484 
L 109.900422 66.367484 
L 109.900422 32.734157 
L 113.09584 32.734157 
L 113.09584 65.027543 
L 116.291259 65.027543 
L 116.291259 36.778938 
L 119.486678 36.778938 
L 119.486678 63.370302 
L 122.682097 63.370302 
L 122.682097 38.982652 
L 125.877515 38.982652 
L 125.877515 61.896891 
L 129.072934 61.896891 
L 129.072934 39.143232 
L 132.268353 39.143232 
L 132.268353 60.9932 
L 135.463772 60.9932 
L 135.463772 37.648522 
L 138.65919 37.648522 
L 138.65919 60.841114 
L 141.854609 60.841114 
L 141.854609 35.306495 
L 145.050028 35.306495 
L 145.050028 61.384257 
L 148.245447 61.384257 
L 148.245447 33.079499 
L 151.440865 33.079499 
L 151.440865 62.355508 
L 154.636284 62.355508 
L 154.636284 31.791974 
L 157.831703 31.791974 
L 157.831703 63.358539 
L 161.027122 63.358539 
L 161.027122 31.88663 
L 164.22254 31.88663 
L 164.22254 63.982427 
L 167.417959 63.982427 
L 167.417959 33.29104 
L 170.613378 33.29104 
L 170.613378 63.920437 
L 173.808797 63.920437 
L 173.808797 35.428953 
L 177.004216 35.428953 
L 177.004216 63.062964 
L 180.199634 63.062964 
L 180.199634 37.374019 
L 183.395053 37.374019 
L 183.395053 61.540862 
L 186.590472 61.540862 
L 186.590472 38.108384 
L 189.785891 38.108384 
L 189.785891 59.70736 
L 192.981309 59.70736 
L 192.981309 36.821437 
L 196.176728 36.821437 
L 196.176728 58.061666 
L 199.372147 58.061666 
L 199.372147 33.173133 
L 202.567566 33.173133 
L 202.567566 57.131638 
L 205.762984 57.131638 
L 205.762984 27.453295 
L 208.958403 27.453295 
L 208.958403 57.343111 
L 212.153822 57.343111 
L 212.153822 20.592299 
L 215.349241 20.592299 
L 215.349241 58.907216 
L 218.544659 58.907216 
L 218.544659 14.013461 
L 221.740078 14.013461 
L 221.740078 61.75327 
L 224.935497 61.75327 
L 224.935497 12.24 
L 228.130916 12.24 
L 228.130916 65.524544 
L 231.326334 65.524544 
L 231.326334 12.24 
L 234.521753 12.24 
L 234.521753 69.639642 
L 237.717172 69.639642 
L 237.717172 12.24 
L 240.912591 12.24 
L 240.912591 73.40694 
L 244.108009 73.40694 
L 244.108009 19.364147 
L 247.303428 19.364147 
L 247.303428 76.166984 
L 250.498847 76.166984 
L 250.498847 31.627126 
L 253.694266 31.627126 
L 253.694266 77.43099 
L 256.889684 77.43099 
L 256.889684 46.864896 
L 260.085103 46.864896 
L 260.085103 76.984207 
L 263.280522 76.984207 
L 263.280522 63.262574 
L 266.475941 63.262574 
L 266.475941 74.930737 
L 269.671359 74.930737 
L 269.671359 78.814312 
L 272.866778 78.814312 
L 272.866778 71.669738 
L 276.062197 71.669738 
L 276.062197 91.70524 
L 279.257616 91.70524 
L 279.257616 67.808548 
L 282.453034 67.808548 
L 282.453034 100.649723 
L 285.648453 100.649723 
L 285.648453 64.032611 
L 288.843872 64.032611 
L 288.843872 105.113168 
L 292.039291 105.113168 
L 292.039291 60.961778 
L 295.234709 60.961778 
L 295.234709 105.371347 
L 298.430128 105.371347 
L 298.430128 59.025373 
L 301.625547 59.025373 
L 301.625547 102.398407 
L 304.820966 102.398407 
L 304.820966 58.383689 
L 308.016384 58.383689 
L 308.016384 97.613271 
L 311.211803 97.613271 
L 311.211803 58.912516 
L 314.407222 58.912516 
L 314.407222 92.545843 
L 317.602641 92.545843 
L 317.602641 60.252457 
L 320.798059 60.252457 
L 320.798059 88.501062 
L 323.993478 88.501062 
L 323.993478 61.909698 
L 327.188897 61.909698 
L 327.188897 86.297348 
L 330.384316 86.297348 
L 330.384316 63.383109 
L 333.579734 63.383109 
L 333.579734 86.136768 
L 336.775153 86.136768 
L 336.775153 64.2868 
L 339.970572 64.2868 
L 339.970572 87.631478 
L 343.165991 87.631478 
L 343.165991 64.438886 
L 346.361409 64.438886 
L 346.361409 89.973505 
L 349.556828 89.973505 
L 349.556828 63.895743 
L 352.752247 63.895743 
L 352.752247 92.200501 
L 355.947666 92.200501 
L 355.947666 62.924492 
L 359.143085 62.924492 
L 359.143085 93.488026 
L 362.338503 93.488026 
L 362.338503 61.921461 
L 365.533922 61.921461 
L 365.533922 93.39337 
L 368.729341 93.39337 
L 368.729341 61.297573 
L 371.92476 61.297573 
L 371.92476 91.98896 
L 375.120178 91.98896 
L 375.120178 61.359563 
L 378.315597 61.359563 
L 378.315597 89.851047 
L 381.511016 89.851047 
L 381.511016 62.217036 
L 384.706435 62.217036 
L 384.706435 87.905981 
L 387.901853 87.905981 
L 387.901853 63.739138 
L 391.097272 63.739138 
L 391.097272 87.171616 
L 394.292691 87.171616 
L 394.292691 65.57264 
L 397.48811 65.57264 
L 397.48811 88.458563 
L 400.683528 88.458563 
L 400.683528 67.218334 
L 403.878947 67.218334 
L 403.878947 92.106867 
L 407.074366 92.106867 
L 407.074366 68.148362 
L 410.269785 68.148362 
L 410.269785 97.826705 
L 413.465203 97.826705 
L 413.465203 67.936889 
L 416.660622 67.936889 
L 416.660622 104.687701 
L 419.856041 104.687701 
L 419.856041 66.372784 
L 423.05146 66.372784 
L 423.05146 111.266539 
L 426.246878 111.266539 
L 426.246878 63.52673 
L 429.442297 63.52673 
L 429.442297 113.04 
L 432.637716 113.04 
L 432.637716 59.755456 
L 435.833135 59.755456 
L 435.833135 113.04 
L 439.028553 113.04 
L 439.028553 55.640358 
L 442.223972 55.640358 
L 442.223972 113.04 
L 445.419391 113.04 
L 445.419391 51.87306 
L 448.61481 51.87306 
L 448.61481 105.915853 
L 451.810228 105.915853 
L 451.810228 49.113016 
L 455.005647 49.113016 
L 455.005647 93.652874 
L 458.201066 93.652874 
L 458.201066 47.84901 
L 461.396485 47.84901 
L 461.396485 78.415104 
L 464.591903 78.415104 
L 464.591903 48.295793 
L 464.591903 48.295793 
" clip-path="url(#p00d8f624d6)" style="fill: none; stroke: #1f77b4; stroke-width: 1.5; stroke-linecap: square"/>
   </g>
   <g id="patch_3">
    <path d="M 38.482813 118.08 
L 38.482813 7.2 
" style="fill: none; stroke: #000000; stroke-width: 0.8; stroke-linejoin: miter; stroke-linecap: square"/>
   </g>
   <g id="patch_4">
    <path d="M 484.882812 118.08 
L 484.882812 7.2 
" style="fill: none; stroke: #000000; stroke-width: 0.8; stroke-linejoin: miter; stroke-linecap: square"/>
   </g>
   <g id="patch_5">
    <path d="M 38.482813 118.08 
L 484.882812 118.08 
" style="fill: none; stroke: #000000; stroke-width: 0.8; stroke-linejoin: miter; stroke-linecap: square"/>
   </g>
   <g id="patch_6">
    <path d="M 38.482813 7.2 
L 484.882812 7.2 
" style="fill: none; stroke: #000000; stroke-width: 0.8; stroke-linejoin: miter; stroke-linecap: square"/>
   </g>
  </g>
 </g>
 <defs>
  <clipPath id="p00d8f624d6">
   <rect x="38.482813" y="7.2" width="446.4" height="110.88"/>
  </clipPath>
 </defs>
</svg>
